<svg version="1.1" id="aa19357a-6bb5-425a-b5e5-c2439d084a3a" x="0" y="0" xml:space="preserve" width="434.613" height="384.933" xmlns="http://www.w3.org/2000/svg">
  <style type="text/css" id="style2">
    .st0,.st8{fill:#252756;stroke:#252756;stroke-width:2.734;stroke-linecap:round;stroke-linejoin:round}.st8{fill:#c19a21;stroke:#c19a21}
  </style>
  <g id="f6af9979-bd13-4d12-be13-715ea5d865ed" transform="translate(-.04 -.034)">
    <g id="e04c8ead-0534-430f-919a-0580238312dd">
      <path id="a4ff1283-da0f-4311-ad09-01760150af51" class="st0" d="M171.6 383.4C131 275 120.7 218 128.8 179.6c4.8-22.9 32.8-49.7 48.4-99.7 3.2 65.9-44.9 98.7-42.5 126.6 5.1 50 43.8 83.1 36.9 176.9z"/>
      <path id="af12d4da-6144-4ded-bae5-892ddbb6d61c" class="st0" d="M162.9 85.2c7.8-16.1-14.8-53.8-26.6-38.4 10-1.9 23.4 27.4 26.6 38.4z"/>
      <path id="b3ca00e3-7626-4c17-afa8-597e5480d9ae" class="st0" d="M140.9 121c-12.6 29.3-52.4 27.2-73.7 38.7 12.7-23.9 50.6-19.9 73.7-38.7z"/>
      <path id="a6dee863-a0fa-4570-8dcc-45b99e7982e6" class="st0" d="M126.7 205.4c3.5 18-34.1 32-34.4 64.8 7.5-17.5 44.8-26.6 34.4-64.8z"/>
      <path id="abb92436-e5fd-400e-b8b5-6e9b46fc62a0" class="st0" d="M137.1 253.8C114 293.6 56 309.2 42.5 344.9c14.8-16.4 88.5-32 94.6-91.1z"/>
      <path id="b61644ba-d85f-4de0-a880-455a068829a9" class="st0" d="M40.4 240.9c-1.6 6.7-16.4 2.7-16.9 2.4 12.6-10.2 13.9-9.1 16.9-2.4z"/>
      <path id="b99dcf63-0cc4-4ff7-b9c3-aa3addec254c" class="st0" d="M93.1 146.3c10.8-5.9 2.2-12.9 2.2-12.9 14.2 7.8 9 13.1-2.2 12.9z"/>
      <path id="b9893c72-738c-4a4f-93e4-df977dce144c" class="st0" d="M44.4 255.1c-33.3 7.8-23.4 30.1-37.9 13.4 1.3-14 11.3-1.6 6.5-16.7-15.3 1.3-13.2 4-6.5 16.7-3 6.2-1.1 10.2 0 14.2 1.6 6.9 20.2-5.2 37.9-27.6z"/>
      <path id="e0f7d9ca-429e-4138-839b-338a01c44c73" class="st0" d="M101.1 104.9c-3.2-3-8.6-.5-10.8 1.6-2.2-.8-6.7-3-9.4 1.3 3.8.8 15.1.6 20.2-2.9z"/>
      <path id="f4a2ce94-f2a0-4636-8e1f-204e32a6c941" class="st0" d="M96.3 114.3c-13.7 8.1-6.5.3-5.6-7.8 5.3 9.1-4.6 8.6 5.6 7.8z"/>
      <path id="f7637c0f-e61e-4ddc-865c-8bb32b306584" class="st0" d="M24.8 342.2c8.3 57 107 19.4 146.8 41.4-15.6-41.1-108.4-1.3-146.8-41.4z"/>
      <path id="a93c5d0b-25c5-4509-8b08-c84480a09ecc" class="st0" d="M121.3 183.9c-41.1-17.7-62.6 32.8-67.7-10.2-12.9 33.6 6.2 36.8 21 29.3 26.8-13.7 29.2-19.6 46.7-19.1z"/>
      <path id="b1d444aa-7db4-4ad9-9d4a-7440b556f060" class="st0" d="M111.9 116.7C105.2 132 88.2 132 85.5 124c14.8 10.2 15.1-15.4 26.4-7.3z"/>
      <path id="a612fd96-10a1-4456-9849-d9a89f4857fa" class="st0" d="M102.7 86c-33.9-5.6-31.2 10.5-23.1 14.5.5-13.9 17.8 7.6 23.1-14.5z"/>
    </g>
    <g aria-label="REEL" transform="translate(152.746 251.787)" id="text19" font-size="113.595" font-family="ArialRoundedMTBold" letter-spacing="-6" fill="#252756">
      <path d="M31.006-34.777h-5.769v26.124q0 5.159-2.274 7.6-2.274 2.44-5.935 2.44-3.938 0-6.101-2.552-2.163-2.551-2.163-7.488v-62.566q0-5.325 2.385-7.71t7.71-2.385h26.79q5.547 0 9.485.5 3.938.443 7.1 1.885Q66.06-77.32 69-74.325q2.94 2.995 4.438 6.989 1.553 3.938 1.553 8.375 0 9.097-5.159 14.532-5.103 5.436-15.53 7.71 4.382 2.33 8.375 6.878 3.994 4.548 7.1 9.707 3.161 5.103 4.88 9.263 1.776 4.104 1.776 5.657 0 1.609-1.054 3.217-.998 1.553-2.773 2.44-1.775.944-4.105.944-2.773 0-4.66-1.332-1.885-1.275-3.272-3.272-1.33-1.997-3.66-5.88l-6.6-10.982q-3.55-6.046-6.38-9.207-2.773-3.162-5.657-4.327-2.884-1.164-7.266-1.164zm9.429-34.168H25.237v22.353h14.754q5.935 0 9.984-.998 4.05-1.054 6.157-3.495 2.163-2.496 2.163-6.822 0-3.383-1.72-5.935-1.719-2.607-4.77-3.883-2.884-1.22-11.37-1.22z" id="path140"/>
      <path d="M138.157-68.612H101.05v19.968h34.168q3.771 0 5.602 1.72 1.886 1.663 1.886 4.437 0 2.773-1.83 4.548-1.831 1.72-5.658 1.72H101.05v23.129h38.383q3.883 0 5.824 1.83 1.997 1.775 1.997 4.77 0 2.885-1.997 4.715Q143.316 0 139.433 0H94.672q-5.38 0-7.766-2.385-2.33-2.385-2.33-7.71v-61.124q0-3.55 1.055-5.768 1.053-2.275 3.272-3.273 2.274-1.054 5.769-1.054h43.485q3.938 0 5.824 1.775 1.942 1.72 1.942 4.548 0 2.885-1.942 4.66-1.886 1.719-5.824 1.719z" id="path142"/>
      <path d="M207.924-68.612h-37.107v19.968h34.168q3.771 0 5.602 1.72 1.886 1.663 1.886 4.437 0 2.773-1.83 4.548-1.831 1.72-5.658 1.72h-34.168v23.129H209.2q3.883 0 5.824 1.83 1.997 1.775 1.997 4.77 0 2.885-1.997 4.715Q213.083 0 209.2 0H164.44q-5.38 0-7.766-2.385-2.33-2.385-2.33-7.71v-61.124q0-3.55 1.055-5.768 1.054-2.275 3.272-3.273 2.274-1.054 5.769-1.054h43.485q3.939 0 5.824 1.775 1.942 1.72 1.942 4.548 0 2.885-1.942 4.66-1.885 1.719-5.823 1.719z" id="path144"/>
      <path d="M240.252-72.717v59.183h33.39q3.994 0 6.102 1.942 2.163 1.94 2.163 4.88 0 2.996-2.108 4.882Q277.692 0 273.643 0h-39.77q-5.38 0-7.765-2.385-2.33-2.385-2.33-7.71v-62.622q0-4.992 2.219-7.487 2.274-2.496 5.935-2.496 3.716 0 5.99 2.496 2.33 2.44 2.33 7.487z" id="path146"/>
    </g>
    <g aria-label="2021" transform="translate(183.96 343.38)" id="text21" font-size="99" font-family="Arial-Rounded" fill="#698fb5">
      <path d="M5.027-49.113q.145-5.994 2.707-10.877 2.466-4.93 7.59-8.12 5.172-3.095 12.278-3.095 5.56.242 9.62 2.514 4.302 2.32 6.816 6.526 2.61 4.254 2.61 9.378 0 7.25-5.27 14.26L18.032-7.54h26.828q3.674 0 3.674 3.867 0 1.547-1.015 2.562Q46.648 0 44.666 0H9.91q-1.45 0-2.9-.773-1.21-.822-1.354-2.272.435-2.32 1.063-3.19l26.732-35.917q3.674-4.883 3.674-10.393 0-4.69-3.287-7.831-3.239-3.094-7.88-3.094-3.577 0-6.332 1.885-2.949 2.03-4.592 5.27-1.692 3.625-1.692 7.202 0 5.365-4.254 5.655l-.097-.096-.096-.097H8.7q-3.674-.29-3.674-5.462z" id="path149"/>
      <path d="M56.268-36.545q0-7.396 2.272-15.324 2.127-7.686 7.589-13.39 5.22-5.414 13.583-5.946 5.898 0 10.297 3.094 4.592 3.239 7.347 8.315 2.804 5.172 4.158 11.166 1.353 6.478 1.353 12.278 0 8.073-1.692 15.082-1.595 6.72-4.737 11.65-3.239 5.124-7.3 7.541-4.302 2.66-9.426 2.66-5.752 0-10.2-2.853-2.368-1.595-4.157-3.529-1.788-1.933-3.287-4.399-2.9-5.365-4.35-11.891-1.45-6.816-1.45-14.454zm9.28.387q0 8.218 1.5 14.695 1.546 6.43 4.737 10.587 3.093 3.963 7.927 3.963 4.496 0 7.59-3.818 3.142-3.868 4.689-10.152 1.595-6.236 1.595-13.583 0-9.572-1.789-16.436-1.837-6.574-5.075-9.668-3.094-3.094-7.396-3.094-4.496.145-7.735 4.303-3.238 4.109-4.544 10.248-1.498 6.284-1.498 12.955z" id="path151"/>
      <path d="M110.988-49.113q.145-5.994 2.707-10.877 2.466-4.93 7.59-8.12 5.172-3.095 12.278-3.095 5.56.242 9.62 2.514 4.302 2.32 6.816 6.526 2.61 4.254 2.61 9.378 0 7.25-5.27 14.26L123.993-7.54h26.828q3.674 0 3.674 3.867 0 1.547-1.015 2.562Q152.609 0 150.627 0H115.87q-1.45 0-2.9-.773-1.21-.822-1.354-2.272.435-2.32 1.063-3.19l26.732-35.917q3.674-4.883 3.674-10.393 0-4.69-3.287-7.831-3.239-3.094-7.88-3.094-3.577 0-6.332 1.885-2.949 2.03-4.592 5.27-1.692 3.625-1.692 7.202 0 5.365-4.254 5.655l-.097-.096-.097-.097h-.193q-3.674-.29-3.674-5.462z" id="path153"/>
      <path d="M175.184-63.083h-8.895q-1.837 0-2.9-1.064-1.015-1.015-1.16-2.562.145-1.789 1.256-2.804 1.16-1.063 2.997-1.063h14.937q1.644 0 2.08.58.386.532.386 1.885v64.05q0 2.176-1.305 3.48Q181.274.58 179.438.58q-1.692 0-2.998-1.257-1.256-1.208-1.256-3.384z" id="path155"/>
    </g>
    <g id="a4273265-a686-4b02-9602-ee61fd811033">
      <path id="e16796c9-77b7-4f22-9324-049a5cba1df8" class="st8" d="M69.1 214.6c11.6 32.3-51.1 62.1-53.8 98.7 14.3-24 87.4-52.2 53.8-98.7z"/>
      <path id="b7bf2c45-7d4f-4b37-9ac3-5c4de6065d9f" class="st8" d="M14.6 337.4c9.7-37.9 61.8-48.1 70.4-89.8 7.2 54.1-52.4 64.8-70.4 89.8z"/>
      <path id="b6be01f3-a3bd-4044-8b5e-61c8dea40395" class="st8" d="M31.8 205.9c-48.4 22 24.5 17.7 29 28.5 13.2-25.5-45.7-8-29-28.5z"/>
      <path id="bf9b2f63-fd22-437d-b512-475d81de91bf" class="st8" d="M112.9 92.5c18.3-8.3 10.2-15.1.5-16.1 5.5 6.7 3.3 9.4-.5 16.1z"/>
      <path id="a94f3eb1-e3b9-48bf-8b19-47c1511ea0df" class="st8" d="M114 102.4c18-.5 18-8.9 11.3-12.9-1.1 11.6-5.1 6.2-11.3 12.9z"/>
      <path id="b7057996-580d-4113-bb67-59ee90e082a9" class="st8" d="M50.3 227.5c-2.7 18.3-27.7 6.7-33.1 9.9-.5-10.8 28.8-1.9 33.1-9.9z"/>
      <path id="f1219d80-a2a3-459e-9e29-a97f123d4918" class="st8" d="M117.2 1.4c-10.5 11.6-7.3 23.9 1.9 31.5 9.7 7.8 23.7 7 27.7 1.1-10.5 4.2-39.8-10.9-29.6-32.6z"/>
      <path id="e1f35579-3065-45ad-bb71-cc824428eae1" class="st8" d="M128.8 4.1c6.7 1.1 19.6 8.3 17.5 21.2 10.2-8.6-.3-30.4-17.5-21.2z"/>
      <path id="e538a5b5-d56a-4c85-953a-f8d649dcde09" class="st8" d="M105.7 87.7c8.1-18.3-4-19.4-11.8-13.7 8.8 1.6 9.9 2.4 11.8 13.7z"/>
      <path id="bf488352-2484-4a04-8542-249aeb1e7542" class="st8" d="M95.7 86.6c-4.6-19.4-14-14.8-16.9-5.4 8.9-3.8 12.1-1.6 16.9 5.4z"/>
    </g>
  </g>
  <path id="b4c45702-83dc-4954-8df0-53a20e82a26d" d="M113.06 131.566c-17.4-23.6 10.6-40.7-29.5-44.2 14.8-10.6 29.2-2.5 32.6 2.4 12.5 17.9-6.8 22-3.1 41.8z" fill="#252756" stroke="#252756" stroke-width="1.017" stroke-linecap="round" stroke-linejoin="round"/>
</svg>
