<svg viewBox="0 0 484 792" xmlns="http://www.w3.org/2000/svg" xml:space="preserve" style="fill-rule:evenodd;clip-rule:evenodd;stroke-linejoin:round;stroke-miterlimit:2"><path d="M131.369 665.326c0-8.795-2.556-11.513-11.508-11.513h-11.672c-8.794 0-11.513 2.718-11.513 11.513v20.146h34.693v-20.146Zm23.986 84.739H134.25c-1.763 0-2.881-1.438-2.881-3.196v-38.854H96.676v38.854c0 1.758-1.28 3.196-3.042 3.196H72.532a3.205 3.205 0 0 1-3.196-3.196v-81.543c0-28.783 17.423-35.18 38.853-35.18h11.672c21.421 0 38.691 6.397 38.691 35.18v81.543a3.209 3.209 0 0 1-3.197 3.196M249.068 748.785c-3.357 1.122-12.637 2.719-23.826 2.719-24.307 0-47.328-12.789-47.328-50.845v-20.145c0-38.052 23.021-50.688 47.328-50.688 11.189 0 20.469 1.601 23.826 2.719 2.236.639 3.517 1.28 3.517 3.52v15.507c0 1.921-.965 3.201-3.202 3.201h-.315c-6.078-.482-14.873-1.28-23.668-1.28-11.031 0-19.826 5.757-19.826 27.021v20.145c0 21.264 8.795 27.02 19.826 27.02 8.795 0 17.59-.797 23.668-1.276h.315c2.237 0 3.202 1.276 3.202 3.196v15.507c0 2.242-1.281 3.038-3.517 3.679M339.736 749.425c-5.594.797-13.749 2.078-31.023 2.078-20.623 0-38.854-5.274-38.854-34.378v-53.08c0-29.099 18.388-34.22 39.021-34.22 17.265 0 25.262 1.281 30.856 2.083 2.235.321 3.191 1.119 3.191 3.197v14.872a3.203 3.203 0 0 1-3.191 3.195h-32.462c-7.515 0-10.232 2.556-10.232 10.873v14.547h41.414c1.753 0 3.2 1.442 3.2 3.201v15.187a3.214 3.214 0 0 1-3.2 3.201h-41.414v16.944c0 8.318 2.717 10.873 10.232 10.873h32.462c1.754 0 3.191 1.443 3.191 3.201v14.867c0 2.078-.956 3.039-3.191 3.359M428.167 749.425c-5.278 1.117-17.59 2.078-26.069 2.078-20.624 0-39.012-5.274-39.012-34.378v-82.661a3.205 3.205 0 0 1 3.201-3.195h20.948a3.203 3.203 0 0 1 3.192 3.195v82.661c0 8.318 2.719 10.873 10.232 10.873h27.508c1.754 0 3.191 1.443 3.191 3.201v14.867c0 2.078-.956 2.88-3.191 3.359M76.1 774.409c-4.041 0-4.685 3.475-4.685 7.098 0 3.627.644 7.101 4.685 7.101 4.04 0 4.648-3.474 4.648-7.101 0-3.623-.608-7.098-4.648-7.098m4.685 16.389v-2.227c-1.512 1.962-3.248 2.454-5.289 2.454-1.887 0-3.552-.645-4.531-1.624-1.888-1.887-2.268-4.986-2.268-7.894 0-2.905.38-6.003 2.268-7.892.979-.982 2.644-1.623 4.531-1.623 2.041 0 3.739.455 5.252 2.38v-10.46h2.718v26.886h-2.681ZM101.227 777.089c-.719-1.697-2.379-2.792-4.342-2.792-1.962 0-3.622 1.095-4.346 2.792-.413 1.021-.487 1.587-.566 3.095h9.82c-.074-1.508-.153-2.074-.566-3.095m-9.254 5.135c0 4.078 1.929 6.421 5.478 6.421 2.152 0 3.4-.641 4.871-2.116l1.85 1.623c-1.887 1.889-3.627 2.873-6.799 2.873-4.908 0-8.119-2.947-8.119-9.519 0-6.003 2.909-9.515 7.631-9.515 4.792 0 7.626 3.475 7.626 8.986v1.247H91.973ZM127.115 791.025c-4.04 0-6.679-1.021-9.212-3.549l1.962-1.967c2.231 2.232 4.305 2.946 7.324 2.946 3.929 0 6.346-1.851 6.346-4.983 0-1.395-.417-2.606-1.28-3.362-.872-.756-1.549-.979-3.516-1.285l-3.136-.488c-2.115-.342-3.776-1.02-4.945-2.041-1.359-1.206-2.041-2.871-2.041-5.023 0-4.569 3.289-7.589 8.61-7.589 3.442 0 5.705.867 8.006 2.945l-1.847 1.851c-1.66-1.512-3.437-2.305-6.271-2.305-3.585 0-5.664 2.004-5.664 4.987 0 1.322.376 2.38 1.211 3.093.826.72 2.227 1.249 3.623 1.476l2.945.454c2.533.376 3.777.904 4.908 1.888 1.476 1.243 2.269 3.095 2.269 5.32 0 4.723-3.702 7.632-9.292 7.632M147.145 790.797c-3.168 0-4.754-2.227-4.754-4.987v-11.402h-2.343v-2.078h2.343v-5.812h2.718v5.812h3.966v2.078h-3.966v11.327c0 1.699.793 2.719 2.528 2.719h1.438v2.343h-1.93ZM166.229 790.797v-2.078c-1.327 1.512-3.173 2.306-5.251 2.306-2.004 0-3.665-.604-4.796-1.741-1.323-1.28-1.889-3.056-1.889-5.209v-11.856h2.719v11.438c0 3.289 1.739 4.951 4.532 4.951 2.792 0 4.643-1.699 4.643-4.951v-11.438h2.723v18.578h-2.681ZM182.139 774.409c-4.04 0-4.685 3.475-4.685 7.098 0 3.627.645 7.101 4.685 7.101 4.041 0 4.648-3.474 4.648-7.101 0-3.623-.607-7.098-4.648-7.098m4.685 16.389v-2.227c-1.512 1.962-3.247 2.454-5.288 2.454-1.888 0-3.553-.645-4.532-1.624-1.887-1.887-2.268-4.986-2.268-7.894 0-2.905.381-6.003 2.268-7.892.979-.982 2.644-1.623 4.532-1.623 2.041 0 3.739.455 5.251 2.38v-10.46h2.719v26.886h-2.682ZM207.267 777.089c-.719-1.697-2.379-2.792-4.342-2.792-1.962 0-3.622 1.095-4.346 2.792-.413 1.021-.487 1.587-.566 3.095h9.82c-.074-1.508-.153-2.074-.566-3.095m-9.254 5.135c0 4.078 1.93 6.421 5.478 6.421 2.152 0 3.4-.641 4.871-2.116l1.851 1.623c-1.888 1.889-3.628 2.873-6.801 2.873-4.908 0-8.118-2.947-8.118-9.519 0-6.003 2.909-9.515 7.631-9.515 4.792 0 7.626 3.475 7.626 8.986v1.247h-12.538ZM228.239 790.797v-11.443c0-3.286-1.772-4.946-4.565-4.946-2.797 0-4.611 1.699-4.611 4.946v11.443h-2.718v-18.578h2.718v2.036c1.322-1.508 3.136-2.264 5.214-2.264 2 0 3.623.604 4.76 1.736 1.317 1.284 1.92 3.024 1.92 5.176v11.894h-2.718ZM242.794 790.797c-3.172 0-4.759-2.227-4.759-4.987v-11.402h-2.338v-2.078h2.338v-5.812h2.718v5.812h3.964v2.078h-3.964v11.327c0 1.699.798 2.719 2.533 2.719h1.431v2.343h-1.923ZM260.777 777.089c-.715-1.697-2.375-2.792-4.343-2.792-1.966 0-3.627 1.095-4.341 2.792-.418 1.021-.492 1.587-.566 3.095h9.815c-.074-1.508-.148-2.074-.565-3.095m-9.25 5.135c0 4.078 1.921 6.421 5.474 6.421 2.152 0 3.395-.641 4.871-2.116l1.855 1.623c-1.893 1.889-3.628 2.873-6.801 2.873-4.908 0-8.117-2.947-8.117-9.519 0-6.003 2.904-9.515 7.625-9.515 4.797 0 7.627 3.475 7.627 8.986v1.247h-12.534ZM275.713 790.797h-2.422l-6.8-18.578h2.951l5.055 14.913 5.103-14.913h2.94l-6.827 18.578ZM296.94 777.089c-.715-1.697-2.375-2.792-4.342-2.792-1.958 0-3.618 1.095-4.343 2.792-.417 1.021-.491 1.587-.565 3.095h9.815c-.074-1.508-.148-2.074-.565-3.095m-9.25 5.135c0 4.078 1.93 6.421 5.474 6.421 2.152 0 3.404-.641 4.87-2.116l1.856 1.623c-1.893 1.889-3.628 2.873-6.801 2.873-4.907 0-8.118-2.947-8.118-9.519 0-6.003 2.905-9.515 7.627-9.515 4.796 0 7.626 3.475 7.626 8.986v1.247H287.69ZM316.403 775.768c-1.02-1.021-1.771-1.359-3.21-1.359-2.718 0-4.453 2.152-4.453 4.986v11.402h-2.718v-18.578h2.718v2.264c1.021-1.55 3.053-2.491 5.205-2.491 1.781 0 3.136.418 4.463 1.735l-2.005 2.041ZM327.137 790.797c-3.173 0-4.75-2.227-4.75-4.987v-11.402h-2.348v-2.078h2.348v-5.812h2.719v5.812h3.961v2.078h-3.961v11.327c0 1.699.788 2.719 2.523 2.719h1.438v2.343h-1.93ZM344.857 775.768c-1.021-1.021-1.772-1.359-3.21-1.359-2.719 0-4.453 2.152-4.453 4.986v11.402h-2.719v-18.578h2.719v2.264c1.02-1.55 3.061-2.491 5.214-2.491 1.772 0 3.136.418 4.453 1.735l-2.004 2.041ZM350.386 772.219h2.719v18.578h-2.719v-18.578Zm-.148-8.344h3.052v3.057h-3.052v-3.057ZM370.899 777.089c-.715-1.697-2.385-2.792-4.343-2.792-1.966 0-3.627 1.095-4.341 2.792-.418 1.021-.492 1.587-.566 3.095h9.815c-.074-1.508-.148-2.074-.565-3.095m-9.25 5.135c0 4.078 1.92 6.421 5.474 6.421 2.152 0 3.395-.641 4.87-2.116l1.846 1.623c-1.883 1.889-3.618 2.873-6.791 2.873-4.908 0-8.118-2.947-8.118-9.519 0-6.003 2.905-9.515 7.626-9.515 4.797 0 7.627 3.475 7.627 8.986v1.247h-12.534ZM386.392 774.409c-4.036 0-4.686 3.475-4.686 7.098 0 3.627.65 7.101 4.686 7.101 4.045 0 4.647-3.474 4.647-7.101 0-3.623-.602-7.098-4.647-7.098m4.685 16.389v-2.227c-1.512 1.962-3.248 2.454-5.289 2.454-1.892 0-3.552-.645-4.536-1.624-1.883-1.887-2.264-4.986-2.264-7.894 0-2.905.381-6.003 2.264-7.892.984-.982 2.644-1.623 4.536-1.623 2.041 0 3.74.455 5.251 2.38v-10.46h2.719v26.886h-2.681ZM411.515 777.089c-.715-1.697-2.375-2.792-4.343-2.792-1.957 0-3.617 1.095-4.342 2.792-.407 1.021-.491 1.587-.565 3.095h9.825c-.084-1.508-.158-2.074-.575-3.095m-9.25 5.135c0 4.078 1.93 6.421 5.474 6.421 2.152 0 3.404-.641 4.88-2.116l1.846 1.623c-1.893 1.889-3.628 2.873-6.801 2.873-4.908 0-8.118-2.947-8.118-9.519 0-6.003 2.913-9.515 7.626-9.515 4.797 0 7.636 3.475 7.636 8.986v1.247h-12.543ZM430.978 775.768c-1.011-1.021-1.771-1.359-3.21-1.359-2.718 0-4.453 2.152-4.453 4.986v11.402h-2.718v-18.578h2.718v2.264c1.021-1.55 3.062-2.491 5.215-2.491 1.771 0 3.135.418 4.453 1.735l-2.005 2.041Z" style="fill:#4c4c4e;fill-rule:nonzero"/><path d="m452.122 369.379-27.016-38.246 17.989-12 40.246 47.31-30.598 55.217-19.343-9.365 18.722-42.916Z" style="fill:#f7931d;fill-rule:nonzero"/><path d="m414.53 372.918-27.016-38.25 17.989-11.996 40.246 47.31-30.597 55.214-19.344-9.361 18.722-42.917ZM31.234 409.767l19.417-42.62-19.914-8.433-30.721 53.99 40.365 48.539 17.256-12.807-26.403-38.669Z" style="fill:#f7931d;fill-rule:nonzero"/><path d="m68.826 406.228 19.417-42.615-19.917-8.433-30.718 53.985 40.365 48.539 17.256-12.803-26.403-38.673Z" style="fill:#f7931d;fill-rule:nonzero"/><path d="M414.577 508.645c0 28.473-23.083 51.555-51.555 51.555H118.126c-28.472 0-51.554-23.082-51.554-51.555V253.013c0-28.472 23.082-51.554 51.554-51.554h244.896c28.472 0 51.555 23.082 51.555 51.554v255.632Z" style="fill:#f7931d;fill-rule:nonzero"/><path d="m345.255 368.094-29.529-35.968 27.869-37.555a5.905 5.905 0 0 0-1.225-8.27 5.91 5.91 0 0 0-8.275 1.219l-26.107 35.18-27.127-33.032c-2.068-2.528-5.797-2.89-8.322-.821-2.522 2.083-2.893 5.803-.815 8.331l29 35.319-27.099 36.515a5.923 5.923 0 0 0 1.225 8.285 5.964 5.964 0 0 0 3.525 1.16c1.809 0 3.59-.826 4.75-2.394l25.336-34.14 27.656 33.681a5.922 5.922 0 0 0 10.317-2.324 5.883 5.883 0 0 0-1.179-5.186M207.81 368.094l-29.534-35.968 27.864-37.555a5.905 5.905 0 0 0-1.225-8.27 5.91 5.91 0 0 0-8.275 1.219l-26.106 35.18-27.122-33.032a5.913 5.913 0 0 0-8.322-.821 5.924 5.924 0 0 0-.821 8.331l29.001 35.319-27.099 36.515a5.93 5.93 0 0 0 1.233 8.285 5.918 5.918 0 0 0 8.272-1.234l25.331-34.14 27.66 33.681c2.079 2.519 5.804 2.89 8.327.812a5.902 5.902 0 0 0 1.985-3.136 5.893 5.893 0 0 0-1.169-5.186M110.639 426.328l.009.009c-2.004-2.95-1.234-6.962 1.717-8.952 2.941-1.995 6.953-1.23 8.943 1.716.009 0 .575.854 1.893 2.575a133.576 133.576 0 0 0 5.909 7.194c5.26 6.002 13.118 14.055 23.333 22.08 20.484 16.059 50.246 31.924 88.125 31.924 66.122.152 106.423-48.947 115.236-61.092 1.262-1.712 1.8-2.552 1.8-2.552a6.436 6.436 0 0 1 8.906-1.928 6.453 6.453 0 0 1 1.92 8.915c-.436.506-44.419 69.259-127.862 69.543-83.403-.293-129.466-68.931-129.929-69.432" style="fill:#fff;fill-rule:nonzero"/><path d="M376.558.108a2.137 2.137 0 0 0-2.422 1.508l-37.091 126.679-43.715-20.607a2.15 2.15 0 0 0-2.179.207 2.165 2.165 0 0 0-.873 2.008l17.191 137.478a2.14 2.14 0 0 0 2.124 1.882h.066a2.145 2.145 0 0 0 2.078-1.99l6.615-92.479 48.251 23.785a2.167 2.167 0 0 0 2.031-.079 2.135 2.135 0 0 0 1.059-1.744l8.646-174.423a2.137 2.137 0 0 0-1.781-2.225" style="fill:#4c4c4e;fill-rule:nonzero"/></svg>