<?xml version="1.0" encoding="UTF-8" standalone="no"?><!DOCTYPE svg PUBLIC "-//W3C//DTD SVG 1.1//EN" "http://www.w3.org/Graphics/SVG/1.1/DTD/svg11.dtd"><svg width="100%" height="100%" viewBox="0 0 484 792" version="1.1" xmlns="http://www.w3.org/2000/svg" xmlns:xlink="http://www.w3.org/1999/xlink" xml:space="preserve" xmlns:serif="http://www.serif.com/" style="fill-rule:evenodd;clip-rule:evenodd;stroke-linejoin:round;stroke-miterlimit:2;"><g id="Calque-1" serif:id="Calque 1"><path d="M131.369,665.326c0,-8.795 -2.556,-11.513 -11.508,-11.513l-11.672,0c-8.794,0 -11.513,2.718 -11.513,11.513l0,20.146l34.693,0l0,-20.146Zm23.986,84.739l-21.105,0c-1.763,0 -2.881,-1.438 -2.881,-3.196l0,-38.854l-34.693,0l0,38.854c0,1.758 -1.28,3.196 -3.042,3.196l-21.102,0c-1.758,0 -3.196,-1.438 -3.196,-3.196l0,-81.543c0,-28.783 17.423,-35.18 38.853,-35.18l11.672,0c21.421,0 38.691,6.397 38.691,35.18l0,81.543c0,1.758 -1.443,3.196 -3.197,3.196" style="fill:#4c4c4e;fill-rule:nonzero;"/><path d="M249.068,748.785c-3.357,1.122 -12.637,2.719 -23.826,2.719c-24.307,0 -47.328,-12.789 -47.328,-50.845l0,-20.145c0,-38.052 23.021,-50.688 47.328,-50.688c11.189,0 20.469,1.601 23.826,2.719c2.236,0.639 3.517,1.28 3.517,3.52l0,15.507c0,1.921 -0.965,3.201 -3.202,3.201l-0.315,0c-6.078,-0.482 -14.873,-1.28 -23.668,-1.28c-11.031,0 -19.826,5.757 -19.826,27.021l0,20.145c0,21.264 8.795,27.02 19.826,27.02c8.795,0 17.59,-0.797 23.668,-1.276l0.315,0c2.237,0 3.202,1.276 3.202,3.196l0,15.507c0,2.242 -1.281,3.038 -3.517,3.679" style="fill:#4c4c4e;fill-rule:nonzero;"/><path d="M339.736,749.425c-5.594,0.797 -13.749,2.078 -31.023,2.078c-20.623,0 -38.854,-5.274 -38.854,-34.378l0,-53.08c0,-29.099 18.388,-34.22 39.021,-34.22c17.265,0 25.262,1.281 30.856,2.083c2.235,0.321 3.191,1.119 3.191,3.197l0,14.872c0,1.758 -1.437,3.195 -3.191,3.195l-32.462,0c-7.515,0 -10.232,2.556 -10.232,10.873l0,14.547l41.414,0c1.753,0 3.2,1.442 3.2,3.201l0,15.187c0,1.762 -1.447,3.201 -3.2,3.201l-41.414,0l0,16.944c0,8.318 2.717,10.873 10.232,10.873l32.462,0c1.754,0 3.191,1.443 3.191,3.201l0,14.867c0,2.078 -0.956,3.039 -3.191,3.359" style="fill:#4c4c4e;fill-rule:nonzero;"/><path d="M428.167,749.425c-5.278,1.117 -17.59,2.078 -26.069,2.078c-20.624,0 -39.012,-5.274 -39.012,-34.378l0,-82.661c0,-1.758 1.438,-3.195 3.201,-3.195l20.948,0c1.754,0 3.192,1.437 3.192,3.195l0,82.661c0,8.318 2.719,10.873 10.232,10.873l27.508,0c1.754,0 3.191,1.443 3.191,3.201l0,14.867c0,2.078 -0.956,2.88 -3.191,3.359" style="fill:#4c4c4e;fill-rule:nonzero;"/><path d="M76.1,774.409c-4.041,0 -4.685,3.475 -4.685,7.098c0,3.627 0.644,7.101 4.685,7.101c4.04,0 4.648,-3.474 4.648,-7.101c0,-3.623 -0.608,-7.098 -4.648,-7.098m4.685,16.389l0,-2.227c-1.512,1.962 -3.248,2.454 -5.289,2.454c-1.887,0 -3.552,-0.645 -4.531,-1.624c-1.888,-1.887 -2.268,-4.986 -2.268,-7.894c0,-2.905 0.38,-6.003 2.268,-7.892c0.979,-0.982 2.644,-1.623 4.531,-1.623c2.041,0 3.739,0.455 5.252,2.38l0,-10.46l2.718,0l0,26.886l-2.681,0Z" style="fill:#4c4c4e;fill-rule:nonzero;"/><path d="M101.227,777.089c-0.719,-1.697 -2.379,-2.792 -4.342,-2.792c-1.962,0 -3.622,1.095 -4.346,2.792c-0.413,1.021 -0.487,1.587 -0.566,3.095l9.82,0c-0.074,-1.508 -0.153,-2.074 -0.566,-3.095m-9.254,5.135c0,4.078 1.929,6.421 5.478,6.421c2.152,0 3.4,-0.641 4.871,-2.116l1.85,1.623c-1.887,1.889 -3.627,2.873 -6.799,2.873c-4.908,0 -8.119,-2.947 -8.119,-9.519c0,-6.003 2.909,-9.515 7.631,-9.515c4.792,0 7.626,3.475 7.626,8.986l0,1.247l-12.538,0Z" style="fill:#4c4c4e;fill-rule:nonzero;"/><path d="M127.115,791.025c-4.04,0 -6.679,-1.021 -9.212,-3.549l1.962,-1.967c2.231,2.232 4.305,2.946 7.324,2.946c3.929,0 6.346,-1.851 6.346,-4.983c0,-1.395 -0.417,-2.606 -1.28,-3.362c-0.872,-0.756 -1.549,-0.979 -3.516,-1.285l-3.136,-0.488c-2.115,-0.342 -3.776,-1.02 -4.945,-2.041c-1.359,-1.206 -2.041,-2.871 -2.041,-5.023c0,-4.569 3.289,-7.589 8.61,-7.589c3.442,0 5.705,0.867 8.006,2.945l-1.847,1.851c-1.66,-1.512 -3.437,-2.305 -6.271,-2.305c-3.585,0 -5.664,2.004 -5.664,4.987c0,1.322 0.376,2.38 1.211,3.093c0.826,0.72 2.227,1.249 3.623,1.476l2.945,0.454c2.533,0.376 3.777,0.904 4.908,1.888c1.476,1.243 2.269,3.095 2.269,5.32c0,4.723 -3.702,7.632 -9.292,7.632" style="fill:#4c4c4e;fill-rule:nonzero;"/><path d="M147.145,790.797c-3.168,0 -4.754,-2.227 -4.754,-4.987l0,-11.402l-2.343,0l0,-2.078l2.343,0l0,-5.812l2.718,0l0,5.812l3.966,0l0,2.078l-3.966,0l0,11.327c0,1.699 0.793,2.719 2.528,2.719l1.438,0l0,2.343l-1.93,0Z" style="fill:#4c4c4e;fill-rule:nonzero;"/><path d="M166.229,790.797l0,-2.078c-1.327,1.512 -3.173,2.306 -5.251,2.306c-2.004,0 -3.665,-0.604 -4.796,-1.741c-1.323,-1.28 -1.889,-3.056 -1.889,-5.209l0,-11.856l2.719,0l0,11.438c0,3.289 1.739,4.951 4.532,4.951c2.792,0 4.643,-1.699 4.643,-4.951l0,-11.438l2.723,0l0,18.578l-2.681,0Z" style="fill:#4c4c4e;fill-rule:nonzero;"/><path d="M182.139,774.409c-4.04,0 -4.685,3.475 -4.685,7.098c0,3.627 0.645,7.101 4.685,7.101c4.041,0 4.648,-3.474 4.648,-7.101c0,-3.623 -0.607,-7.098 -4.648,-7.098m4.685,16.389l0,-2.227c-1.512,1.962 -3.247,2.454 -5.288,2.454c-1.888,0 -3.553,-0.645 -4.532,-1.624c-1.887,-1.887 -2.268,-4.986 -2.268,-7.894c0,-2.905 0.381,-6.003 2.268,-7.892c0.979,-0.982 2.644,-1.623 4.532,-1.623c2.041,0 3.739,0.455 5.251,2.38l0,-10.46l2.719,0l0,26.886l-2.682,0Z" style="fill:#4c4c4e;fill-rule:nonzero;"/><path d="M207.267,777.089c-0.719,-1.697 -2.379,-2.792 -4.342,-2.792c-1.962,0 -3.622,1.095 -4.346,2.792c-0.413,1.021 -0.487,1.587 -0.566,3.095l9.82,0c-0.074,-1.508 -0.153,-2.074 -0.566,-3.095m-9.254,5.135c0,4.078 1.93,6.421 5.478,6.421c2.152,0 3.4,-0.641 4.871,-2.116l1.851,1.623c-1.888,1.889 -3.628,2.873 -6.801,2.873c-4.908,0 -8.118,-2.947 -8.118,-9.519c0,-6.003 2.909,-9.515 7.631,-9.515c4.792,0 7.626,3.475 7.626,8.986l0,1.247l-12.538,0Z" style="fill:#4c4c4e;fill-rule:nonzero;"/><path d="M228.239,790.797l0,-11.443c0,-3.286 -1.772,-4.946 -4.565,-4.946c-2.797,0 -4.611,1.699 -4.611,4.946l0,11.443l-2.718,0l0,-18.578l2.718,0l0,2.036c1.322,-1.508 3.136,-2.264 5.214,-2.264c2,0 3.623,0.604 4.76,1.736c1.317,1.284 1.92,3.024 1.92,5.176l0,11.894l-2.718,0Z" style="fill:#4c4c4e;fill-rule:nonzero;"/><path d="M242.794,790.797c-3.172,0 -4.759,-2.227 -4.759,-4.987l0,-11.402l-2.338,0l0,-2.078l2.338,0l0,-5.812l2.718,0l0,5.812l3.964,0l0,2.078l-3.964,0l0,11.327c0,1.699 0.798,2.719 2.533,2.719l1.431,0l0,2.343l-1.923,0Z" style="fill:#4c4c4e;fill-rule:nonzero;"/><path d="M260.777,777.089c-0.715,-1.697 -2.375,-2.792 -4.343,-2.792c-1.966,0 -3.627,1.095 -4.341,2.792c-0.418,1.021 -0.492,1.587 -0.566,3.095l9.815,0c-0.074,-1.508 -0.148,-2.074 -0.565,-3.095m-9.25,5.135c0,4.078 1.921,6.421 5.474,6.421c2.152,0 3.395,-0.641 4.871,-2.116l1.855,1.623c-1.893,1.889 -3.628,2.873 -6.801,2.873c-4.908,0 -8.117,-2.947 -8.117,-9.519c0,-6.003 2.904,-9.515 7.625,-9.515c4.797,0 7.627,3.475 7.627,8.986l0,1.247l-12.534,0Z" style="fill:#4c4c4e;fill-rule:nonzero;"/><path d="M275.713,790.797l-2.422,0l-6.8,-18.578l2.951,0l5.055,14.913l5.103,-14.913l2.94,0l-6.827,18.578Z" style="fill:#4c4c4e;fill-rule:nonzero;"/><path d="M296.94,777.089c-0.715,-1.697 -2.375,-2.792 -4.342,-2.792c-1.958,0 -3.618,1.095 -4.343,2.792c-0.417,1.021 -0.491,1.587 -0.565,3.095l9.815,0c-0.074,-1.508 -0.148,-2.074 -0.565,-3.095m-9.25,5.135c0,4.078 1.93,6.421 5.474,6.421c2.152,0 3.404,-0.641 4.87,-2.116l1.856,1.623c-1.893,1.889 -3.628,2.873 -6.801,2.873c-4.907,0 -8.118,-2.947 -8.118,-9.519c0,-6.003 2.905,-9.515 7.627,-9.515c4.796,0 7.626,3.475 7.626,8.986l0,1.247l-12.534,0Z" style="fill:#4c4c4e;fill-rule:nonzero;"/><path d="M316.403,775.768c-1.02,-1.021 -1.771,-1.359 -3.21,-1.359c-2.718,0 -4.453,2.152 -4.453,4.986l0,11.402l-2.718,0l0,-18.578l2.718,0l0,2.264c1.021,-1.55 3.053,-2.491 5.205,-2.491c1.781,0 3.136,0.418 4.463,1.735l-2.005,2.041Z" style="fill:#4c4c4e;fill-rule:nonzero;"/><path d="M327.137,790.797c-3.173,0 -4.75,-2.227 -4.75,-4.987l0,-11.402l-2.348,0l0,-2.078l2.348,0l0,-5.812l2.719,0l0,5.812l3.961,0l0,2.078l-3.961,0l0,11.327c0,1.699 0.788,2.719 2.523,2.719l1.438,0l0,2.343l-1.93,0Z" style="fill:#4c4c4e;fill-rule:nonzero;"/><path d="M344.857,775.768c-1.021,-1.021 -1.772,-1.359 -3.21,-1.359c-2.719,0 -4.453,2.152 -4.453,4.986l0,11.402l-2.719,0l0,-18.578l2.719,0l0,2.264c1.02,-1.55 3.061,-2.491 5.214,-2.491c1.772,0 3.136,0.418 4.453,1.735l-2.004,2.041Z" style="fill:#4c4c4e;fill-rule:nonzero;"/><path d="M350.386,772.219l2.719,0l0,18.578l-2.719,0l0,-18.578Zm-0.148,-8.344l3.052,0l0,3.057l-3.052,0l0,-3.057Z" style="fill:#4c4c4e;fill-rule:nonzero;"/><path d="M370.899,777.089c-0.715,-1.697 -2.385,-2.792 -4.343,-2.792c-1.966,0 -3.627,1.095 -4.341,2.792c-0.418,1.021 -0.492,1.587 -0.566,3.095l9.815,0c-0.074,-1.508 -0.148,-2.074 -0.565,-3.095m-9.25,5.135c0,4.078 1.92,6.421 5.474,6.421c2.152,0 3.395,-0.641 4.87,-2.116l1.846,1.623c-1.883,1.889 -3.618,2.873 -6.791,2.873c-4.908,0 -8.118,-2.947 -8.118,-9.519c0,-6.003 2.905,-9.515 7.626,-9.515c4.797,0 7.627,3.475 7.627,8.986l0,1.247l-12.534,0Z" style="fill:#4c4c4e;fill-rule:nonzero;"/><path d="M386.392,774.409c-4.036,0 -4.686,3.475 -4.686,7.098c0,3.627 0.65,7.101 4.686,7.101c4.045,0 4.647,-3.474 4.647,-7.101c0,-3.623 -0.602,-7.098 -4.647,-7.098m4.685,16.389l0,-2.227c-1.512,1.962 -3.248,2.454 -5.289,2.454c-1.892,0 -3.552,-0.645 -4.536,-1.624c-1.883,-1.887 -2.264,-4.986 -2.264,-7.894c0,-2.905 0.381,-6.003 2.264,-7.892c0.984,-0.982 2.644,-1.623 4.536,-1.623c2.041,0 3.74,0.455 5.251,2.38l0,-10.46l2.719,0l0,26.886l-2.681,0Z" style="fill:#4c4c4e;fill-rule:nonzero;"/><path d="M411.515,777.089c-0.715,-1.697 -2.375,-2.792 -4.343,-2.792c-1.957,0 -3.617,1.095 -4.342,2.792c-0.407,1.021 -0.491,1.587 -0.565,3.095l9.825,0c-0.084,-1.508 -0.158,-2.074 -0.575,-3.095m-9.25,5.135c0,4.078 1.93,6.421 5.474,6.421c2.152,0 3.404,-0.641 4.88,-2.116l1.846,1.623c-1.893,1.889 -3.628,2.873 -6.801,2.873c-4.908,0 -8.118,-2.947 -8.118,-9.519c0,-6.003 2.913,-9.515 7.626,-9.515c4.797,0 7.636,3.475 7.636,8.986l0,1.247l-12.543,0Z" style="fill:#4c4c4e;fill-rule:nonzero;"/><path d="M430.978,775.768c-1.011,-1.021 -1.771,-1.359 -3.21,-1.359c-2.718,0 -4.453,2.152 -4.453,4.986l0,11.402l-2.718,0l0,-18.578l2.718,0l0,2.264c1.021,-1.55 3.062,-2.491 5.215,-2.491c1.771,0 3.135,0.418 4.453,1.735l-2.005,2.041Z" style="fill:#4c4c4e;fill-rule:nonzero;"/><path d="M452.122,369.379l-27.016,-38.246l17.989,-12l40.246,47.31l-30.598,55.217l-19.343,-9.365l18.722,-42.916Z" style="fill:#f7931d;fill-rule:nonzero;"/><path d="M414.53,372.918l-27.016,-38.25l17.989,-11.996l40.246,47.31l-30.597,55.214l-19.344,-9.361l18.722,-42.917Z" style="fill:#f7931d;fill-rule:nonzero;"/><path d="M31.234,409.767l19.417,-42.62l-19.914,-8.433l-30.721,53.99l40.365,48.539l17.256,-12.807l-26.403,-38.669Z" style="fill:#f7931d;fill-rule:nonzero;"/><path d="M68.826,406.228l19.417,-42.615l-19.917,-8.433l-30.718,53.985l40.365,48.539l17.256,-12.803l-26.403,-38.673Z" style="fill:#f7931d;fill-rule:nonzero;"/><path d="M414.577,508.645c0,28.473 -23.083,51.555 -51.555,51.555l-244.896,0c-28.472,0 -51.554,-23.082 -51.554,-51.555l0,-255.632c0,-28.472 23.082,-51.554 51.554,-51.554l244.896,0c28.472,0 51.555,23.082 51.555,51.554l0,255.632Z" style="fill:#f7931d;fill-rule:nonzero;"/><path d="M345.255,368.094l-29.529,-35.968l27.869,-37.555c1.948,-2.621 1.401,-6.327 -1.225,-8.27c-2.635,-1.954 -6.327,-1.401 -8.275,1.219l-26.107,35.18l-27.127,-33.032c-2.068,-2.528 -5.797,-2.89 -8.322,-0.821c-2.522,2.083 -2.893,5.803 -0.815,8.331l29,35.319l-27.099,36.515c-1.948,2.631 -1.401,6.332 1.225,8.285c1.067,0.779 2.301,1.16 3.525,1.16c1.809,0 3.59,-0.826 4.75,-2.394l25.336,-34.14l27.656,33.681c2.078,2.519 5.798,2.89 8.331,0.812c1.021,-0.84 1.689,-1.948 1.986,-3.136c0.436,-1.753 0.065,-3.683 -1.179,-5.186" style="fill:#fff;fill-rule:nonzero;"/><path d="M207.81,368.094l-29.534,-35.968l27.864,-37.555c1.948,-2.621 1.401,-6.327 -1.225,-8.27c-2.625,-1.954 -6.326,-1.401 -8.275,1.219l-26.106,35.18l-27.122,-33.032c-2.074,-2.528 -5.804,-2.89 -8.322,-0.821c-2.528,2.083 -2.89,5.803 -0.821,8.331l29.001,35.319l-27.099,36.515c-1.939,2.631 -1.397,6.332 1.233,8.285c1.058,0.779 2.292,1.16 3.517,1.16c1.808,0 3.599,-0.826 4.755,-2.394l25.331,-34.14l27.66,33.681c2.079,2.519 5.804,2.89 8.327,0.812c1.021,-0.84 1.688,-1.948 1.985,-3.136c0.436,-1.753 0.07,-3.683 -1.169,-5.186" style="fill:#fff;fill-rule:nonzero;"/><path d="M110.639,426.328l0.009,0.009c-2.004,-2.95 -1.234,-6.962 1.717,-8.952c2.941,-1.995 6.953,-1.23 8.943,1.716c0.009,0 0.575,0.854 1.893,2.575c1.308,1.711 3.279,4.207 5.909,7.194c5.26,6.002 13.118,14.055 23.333,22.08c20.484,16.059 50.246,31.924 88.125,31.924c66.122,0.152 106.423,-48.947 115.236,-61.092c1.262,-1.712 1.8,-2.552 1.8,-2.552c1.93,-2.996 5.91,-3.859 8.906,-1.928c2.987,1.933 3.851,5.919 1.92,8.915c-0.436,0.506 -44.419,69.259 -127.862,69.543c-83.403,-0.293 -129.466,-68.931 -129.929,-69.432" style="fill:#fff;fill-rule:nonzero;"/><path d="M376.558,0.108c-1.077,-0.186 -2.115,0.459 -2.422,1.508l-37.091,126.679l-43.715,-20.607c-0.705,-0.334 -1.54,-0.255 -2.179,0.207c-0.631,0.459 -0.965,1.224 -0.873,2.008l17.191,137.478c0.13,1.08 1.049,1.882 2.124,1.882l0.066,0c1.103,-0.03 1.994,-0.891 2.078,-1.99l6.615,-92.479l48.251,23.785c0.649,0.313 1.419,0.282 2.031,-0.079c0.631,-0.371 1.022,-1.018 1.059,-1.744l8.646,-174.423c0.055,-1.088 -0.706,-2.049 -1.781,-2.225" style="fill:#4c4c4e;fill-rule:nonzero;"/></g></svg>