<svg xmlns="http://www.w3.org/2000/svg" width="716.467" height="957.12" viewBox="0 0 537.35 717.84" version="1.2"><defs><clipPath id="a"><path d="M0 0h537.352v717.84H0Zm0 0"/></clipPath></defs><g clip-path="url(#a)"><path style="stroke:none;fill-rule:nonzero;fill:#fcd205;fill-opacity:1" d="M512.168.004H25.184C11.324.004 0 11.332 0 25.207v667.441C0 706.5 11.324 717.84 25.184 717.84h486.984c13.863 0 25.184-11.34 25.184-25.192V25.207c0-13.863-11.32-25.203-25.184-25.203"/></g><path style="stroke:none;fill-rule:nonzero;fill:#231f20;fill-opacity:1" d="m98.414 635.387 33.309-180.246h54.734l32.895 180.246H175.96l-4.063-32.313h-28.117l-4.062 32.313Zm49.988-65.063h19.594l-6.164-54.996c-.578-3.644-.992-7.57-1.266-11.898-.43-4.184-.988-10.5-1.8-19.035-.438 4.902-.996 9.937-1.559 15.12-.566 5.18-1.129 10.485-1.816 16.106l-6.989 54.703M334.816 582.355c0 18.473-4.5 32.473-13.441 41.864-8.953 9.242-22.395 13.972-40.313 13.972-17.488 0-30.93-4.73-40.03-14.109-8.938-9.398-13.563-23.254-13.563-41.727V508.32c0-18.476 4.472-32.472 13.562-41.691 8.977-9.379 22.418-14.012 40.031-14.012 18.07 0 31.5 4.633 40.313 13.88 8.941 9.214 13.441 23.202 13.441 41.823v13.864h-41.293V501.62c0-5.726-.968-10.094-3.074-12.738-1.96-2.66-5.168-4.074-9.504-4.074-4.21 0-7.433 1.414-9.394 4.074-1.973 2.644-2.938 7.012-2.938 12.738v87.453c0 5.89.965 10.086 2.938 12.742 1.96 2.672 5.183 3.903 9.512 3.903 4.347 0 7.566-1.23 9.535-3.903 1.957-2.656 2.925-6.851 2.925-12.742v-24.75h41.293v18.031M353.57 635.387V455.14h40.871v144.996h44.489v35.25h-85.36"/><path style="stroke:none;fill-rule:nonzero;fill:#fff;fill-opacity:1" d="M268.695 370.176c74.25 0 135.004-60.555 135.004-134.809 0-74.472-60.754-135.14-135.004-135.14-74.398 0-135.066 60.668-135.066 135.14 0 74.254 60.668 134.809 135.066 134.809"/><path style="stroke:none;fill-rule:nonzero;fill:#fff;fill-opacity:1" d="M268.695 356.098c66.535 0 120.918-54.29 120.918-120.73 0-66.661-54.383-121.052-120.918-121.052-66.574 0-120.98 54.391-120.98 121.051 0 66.442 54.406 120.73 120.98 120.73"/><path style="stroke:none;fill-rule:nonzero;fill:#0d80c8;fill-opacity:1" d="M305.023 349.957h-72.832c11.286 9.195 23.407 17.027 36.508 23.781 13.031-6.754 25.192-14.586 36.324-23.781m37.622-42.773c-5.504 8.718-11.415 16.671-17.899 23.918H212.473a176.396 176.396 0 0 1-17.782-23.918Zm20.234-42.875a242.05 242.05 0 0 1-9.863 23.941H184.18c-3.57-7.547-6.778-15.496-9.711-23.941Zm10.894-42.872a251.028 251.028 0 0 1-5.265 23.934H168.71a374.494 374.494 0 0 1-5.27-23.934h210.332l5.106-42.886c-.52 8.332-1.281 16.265-2.188 23.937H160.625c-1.031-7.672-1.648-15.605-2.266-23.937h220.52l-5.106 42.887"/><path style="stroke:none;fill-rule:nonzero;fill:#ee2c30;fill-opacity:1" d="m329.844 249.203.277-9.465c-2.71-2.074-3.46-1.41-6.285-2.554-4.61-1.938-9.969.636-12.95 5.496-2.925 4.73-3.304 11.773-6 13.312-2.695 1.555-.5 2.32.66 2.68 1.142.398 5.743-3.45 6.513-4.969.785-1.543 0 3.055 2.57 4.453 2.433 1.176 4.324-2.164 5.879-2.933 1.644-.77-.149-10.239 3.195-9.473 1.426.281 3.598 1.52 6.14 3.453"/><path style="stroke:none;fill-rule:nonzero;fill:#231f20;fill-opacity:1" d="m329.844 249.203 1.058.027.27-9.464a1.073 1.073 0 0 0-.41-.88c-1.414-1.077-2.492-1.515-3.461-1.78-.965-.254-1.727-.36-3.067-.887a9.114 9.114 0 0 0-3.617-.73c-4.156.015-8.156 2.648-10.597 6.632v-.008c-1.582 2.555-2.403 5.582-3.211 8.11-.399 1.257-.774 2.386-1.204 3.242-.414.867-.84 1.394-1.218 1.61-.547.304-.973.6-1.254.952-.332.34-.547.805-.547 1.305-.02.508.191.906.41 1.176.75.75 1.625.953 2.195 1.156l.356-.992-.356.992.551.094c.738-.04 1.297-.344 1.988-.73.993-.587 2.133-1.454 3.079-2.333.98-.898 1.765-1.715 2.195-2.527l.055-.059-.082-.047.082.047-.082-.047.082.047-.598-.414.426.547.172-.133-.598-.414.426.547-.59-.762v.965c.316-.02.512-.14.59-.203l-.59-.762v.965-.972l-.805.574c.098.098.375.398.805.398v-.972l-.805.574.567-.379-.625.191.058.188.567-.379-.625.191.02.051c.038.313.171 1.305.468 2.305.355 1 .941 2.18 2.191 2.887l.035.015a3.584 3.584 0 0 0 1.524.344c1.453-.027 2.476-.879 3.355-1.621.82-.766 1.59-1.516 1.946-1.684l-.465-.933.426.953c.62-.309.843-.797 1.02-1.211.273-.75.35-1.633.405-2.586.118-1.453.168-3.063.41-4.23.086-.59.239-1.044.395-1.231l.168-.168.133.031h.055c1.043.164 3.218 1.38 5.695 3.266.336.23.762.258 1.09.101.347-.183.578-.515.597-.918l-1.058-.027.636-.848c-2.656-1.957-4.777-3.289-6.582-3.62l-.195 1.015.25-1.016-.621-.074a2.235 2.235 0 0 0-1.629.711c-.656.734-.883 1.629-1.05 2.582-.255 1.445-.294 3.121-.372 4.453-.058.668-.133 1.25-.23 1.614l-.106.34v.007l.278.215-.153-.324-.125.11.278.214-.153-.324-.03.02c-.95.507-1.661 1.34-2.427 2-.734.671-1.465 1.09-1.941 1.074l-.59-.137-.453.941.469-.914c-.653-.355-1.059-1.215-1.301-2.168-.125-.465-.184-.93-.258-1.289l-.105-.57-.22-.41c-.112-.157-.425-.493-.917-.493-.277.012-.508.141-.637.223-.39.317-.406.473-.558.695-.055.18-.446.63-.887 1.13a21.604 21.604 0 0 1-2.668 2.277c-.469.336-.922.613-1.27.797l-.437.195-.086.016h-.04l.028.085v-.085h-.027l.027.085v-.085.484l.121-.445-.12-.04v.485l.12-.445-.023-.012c-.348-.117-.79-.266-1.04-.422l-.179-.148-.21.14.21-.078v-.062l-.21.14.21-.078-.41.168h.434l-.024-.168-.41.168h.434-.336l.312.168.024-.168h-.336l.312.168v-.012.012-.012.012c0-.035.25-.285.79-.605 1-.563 1.605-1.48 2.081-2.504.75-1.578 1.305-3.508 1.945-5.508.602-1.985 1.333-4.012 2.372-5.668 2.097-3.488 5.57-5.645 8.808-5.63.938 0 1.91.188 2.805.58l.023.007c1.516.61 2.524.75 3.313.95.785.241 1.437.476 2.71 1.448l.653-.832-1.066-.047-.239 9.47 1.028.042.636-.848-.636.848"/><path style="stroke:none;fill-rule:nonzero;fill:#ee2c30;fill-opacity:1" d="M286.977 272.89s-25.594-.136-27.547.391c-1.395.38-21.102 6.387-25.575 15.856-4.605 9.617 2.06 11.383 1.301 9.226-.93-2.183 3.059-5.879 3.059-5.879l.25 6.778 6.64-7.563s-5.472 7.184-3.671 13.434c1.882 6.273 5.609 4.347.109 10.383-5.508 6.007-6.387 2.039-10.883 1.27-4.5-.884-6.926-.77-7.805 2.69-.765 3.446 3.305 1.41 4.965 5.114 1.817 3.582 6.547-1.918 6.547-1.152 0 .62-1.37 4.457-.14 4.093l6.18-2.047c.085 1.399-.387 3.332.636 4.09 4.723 3.86 14.164-13.949 17.512-15.351 3.207-1.41 3.082 1.007 3.32.507.16-.507-.645-2.566 1.172-3.054 0 0 8.289-.778 8.836 1.137.472 1.812.105-6.665.105-6.665s-12.277-8.062-8.707-17.14c3.598-9.082 7.684-4.344 7.684-4.344s-4.73 5.89-2.934 8.063c1.5 2.046 6.781-3.59 6.781-3.59s-2.171 7.82.372 7.82c2.586 0 4.097-13.45 15.75-11.922 11.539 1.555-3.957-12.144-3.957-12.144"/><path style="stroke:none;fill-rule:nonzero;fill:#231f20;fill-opacity:1" d="m286.977 272.89.011-1.062h-6.945c-3.863 0-8.707 0-12.734.063-2.028.027-3.844.058-5.254.14-.672.02-1.27.035-1.739.074-.476.055-.812.063-1.14.157h.015c-.785.207-6.082 1.812-11.855 4.601-5.703 2.785-11.926 6.657-14.414 11.836v-.008c-1.266 2.614-1.746 4.739-1.746 6.454 0 1.617.426 2.859 1.078 3.738.687.836 1.488 1.324 2.367 1.351.371 0 .77-.086 1.106-.379.324-.28.527-.77.507-1.175l-.101-.676-.02-.035-.078-.29c0-.613.63-1.843 1.39-2.777.391-.48.77-.898 1.04-1.195l.347-.352.106-.109-.703-.762-1.04.059.25 6.758c0 .418.262.793.669.933.418.149.879.04 1.168-.285l6.64-7.554-.797-.696-.812-.629c-.02.075-4.234 5.426-4.273 11.422 0 .953.093 1.953.406 2.942a14.08 14.08 0 0 0 2.062 4.242c.336.426.59.777.727 1.02l.156.452c.024.13-.074.442-.473 1.047-.39.61-1.07 1.45-2.132 2.61-1.098 1.191-1.973 1.953-2.692 2.386-.676.426-1.176.528-1.597.54-.579.007-1.247-.27-2.145-.715-.902-.446-2.023-1.02-3.508-1.27l-.164 1.04.2-1.04c-1.473-.273-2.75-.48-3.915-.48-1.21 0-2.328.23-3.25.906-.945.676-1.535 1.73-1.87 3.035v.04c-.09.35-.118.675-.118.987-.02.856.418 1.707 1.004 2.07.851.563 1.703.68 2.418.997.719.351 1.258.71 1.742 1.738l.04.02c.276.586.66 1.035 1.144 1.378.5.29 1.054.446 1.566.446 1.39-.04 2.57-.79 3.508-1.426.48-.324.887-.64 1.176-.852l.316-.23v-.027l-.305-.614v.696c.305-.02.305-.09.305-.082l-.305-.614v.696-.993l-.77.614c.235.289.587.398.77.379v-.993l-.77.614.735-.613h-.953l.219.613.734-.613h-.953.274l-.274-.016v.015h.274l-.274-.015c-.02.11-.164.758-.332 1.394-.18.641-.336 1.391-.355 2.067.02.277.039.601.21.969l.477.53.746.24.465-.075.055-.016 6.117-2.074-.305-.973-1.07.11.016.437c0 .426-.055 1-.055 1.555 0 .453.039.906.172 1.434.164.484.414 1.046.957 1.41l.617-.856-.66.817a3.327 3.327 0 0 0 2.144.777c1.782-.04 3.336-1.129 4.918-2.574 2.344-2.192 4.743-5.38 6.895-8.156 1.058-1.36 2.027-2.625 2.863-3.59.797-.946 1.55-1.59 1.774-1.657h.015c.625-.296 1.07-.37 1.309-.37.344.019.265.054.344.12l.132.211.137.223.219.25c.113.086.351.234.703.234.371 0 .625-.207.766-.324l.23-.312.074-.235.051-.418c0-.425-.09-.777-.09-1.117l.11-.547c.07-.094.07-.129.347-.21l-.277-1.02.101 1.035 1.02-.07c.633-.04 1.504-.07 2.379-.07 1.137 0 2.351.058 3.25.234.441.086.777.183.95.304l.171.086.16-.168-.2.07.04.098.16-.168-.2.07.102.376.211.285c.125.117.352.351.797.351.348 0 .637-.164.758-.304l.313-.5c.093-.344.093-.559.093-.907.016-.316.016-.722.016-1.168 0-2.082-.11-5.109-.11-5.117a.998.998 0 0 0-.495-.832l-.344-.25c-.883-.613-3.047-2.289-4.973-4.539-1.937-2.293-3.582-5.144-3.582-8.078.02-.992.207-2 .617-3.012.82-2.144 1.68-3.422 2.418-4.109.707-.664 1.223-.82 1.688-.832.492 0 .93.203 1.297.441l.41.32.074.09.008.028.18-.168-.18.16v.008l.18-.168-.18.16.789-.668-.817-.676c0 .02-.851 1.082-1.746 2.52-.879 1.465-1.8 3.203-1.836 4.933 0 .657.172 1.372.645 1.954l.82-.668-.84.62c.414.594 1.157.9 1.762.88.883-.008 1.594-.36 2.363-.778 2.122-1.258 4.254-3.554 4.254-3.582l-.757-.73-1.004-.278c0 .036-.875 3.157-.875 5.692 0 .738.039 1.445.324 2.11.152.343.37.683.703.925.387.277.8.406 1.223.398.796-.015 1.312-.433 1.683-.863.688-.754 1.16-1.773 1.805-2.976.937-1.77 2.121-3.832 3.75-5.446 1.664-1.597 3.707-2.719 6.71-2.719.563 0 1.095.028 1.673.09.652.102 1.23.14 1.742.14 1.082-.007 1.941-.167 2.648-.64.73-.453 1.094-1.3 1.059-2.062-.024-1.258-.656-2.414-1.473-3.664-2.453-3.649-7.097-7.703-7.117-7.75l-.676-.266-.011 1.063-.707.785s.5.437 1.265 1.16c1.121 1.074 2.856 2.785 4.262 4.496.703.871 1.3 1.715 1.726 2.465.442.75.649 1.406.622 1.71l-.133.345c-.14.101-.621.257-1.465.25-.395 0-.875-.04-1.461-.114a16.367 16.367 0 0 0-1.953-.12c-2.688 0-4.914.835-6.676 2.073-2.613 1.864-4.176 4.567-5.344 6.696-.578 1.082-1.07 2.015-1.449 2.617-.207.305-.39.52-.504.601l-.055.067.079.223v-.25l-.079.027.079.223v-.25l-.024.144.059-.117-.035-.027-.024.144.059-.117-.035.035.054-.027-.02-.008-.034.035.054-.027c-.054 0-.277-.582-.234-1.38 0-1.038.2-2.323.406-3.359.121-.52.219-.964.309-1.277.062-.305.11-.492.11-.492.151-.45-.067-.961-.481-1.2a1.085 1.085 0 0 0-1.293.2s-.211.242-.578.605a23.215 23.215 0 0 1-2.344 2.016c-.895.684-1.856 1.121-2.18 1.082h-.055l-.058-.082c-.102-.102-.14-.262-.156-.602-.02-.87.707-2.546 1.511-3.832.38-.648.785-1.23 1.121-1.636l.368-.5.113-.168c.324-.403.324-.953-.04-1.344-.054-.063-1.25-1.543-3.37-1.594-.996 0-2.133.418-3.157 1.418-1.023.992-1.984 2.52-2.921 4.852a10.81 10.81 0 0 0-.707 3.777c.015 4.246 2.546 7.875 4.945 10.438 2.433 2.582 4.824 4.148 4.883 4.18l.558-.884-1.062.047c0 .008.172 3.035.172 5.035 0 .516 0 .965-.02 1.243l-.035.25.586.117-.531-.262-.055.145.586.117-.531-.262.843.41-.664-.675-.18.265.844.41-.664-.675.711.722v-1.02c-.32-.007-.617.18-.71.298l.71.722v-1.02 1l.758-.667c-.086-.11-.332-.332-.758-.332v1l.758-.668-.605.527.777-.305-.172-.222-.605.527.777-.305-.02-.043c-.187-.68-.722-1.047-1.175-1.297-.7-.351-1.508-.507-2.407-.628-.875-.106-1.847-.122-2.77-.122-1.905 0-3.57.141-3.589.141l-.18.035a2.641 2.641 0 0 0-1.644 1.242c-.309.555-.348 1.098-.348 1.555 0 .555.055 1.035.055 1.117h.39l-.37-.082-.02.082h.39l-.37-.082 1.015.242-.918-.484.754.39-.606-.593-.148.203.754.39-.606-.593.73.723v-1.008c-.378 0-.624.187-.73.285l.73.723v-1.008 1.008l.606-.793a.995.995 0 0 0-.605-.215v1.008l.605-.793-.48.605.7-.387-.22-.218-.48.605.7-.387c-.016-.015-.22-.433-.606-.785-.364-.398-1.008-.683-1.754-.676-.645 0-1.324.176-2.172.536l.426.957-.407-.957c-.625.261-1.136.707-1.683 1.25-1.91 1.972-4.477 5.683-7.117 8.894-1.305 1.602-2.641 3.047-3.852 4.102-1.203 1.047-2.324 1.574-2.969 1.574-.308-.012-.55-.094-.84-.324l-.019-.035-.18-.25c-.039-.196-.054-.528-.054-.891 0-.473.035-1.012.035-1.555l-.02-.61c-.015-.355-.199-.62-.484-.796-.293-.176-.602-.223-.89-.14l-6.141 2.054.293.992-.266-1 .113.461v-.488l-.113.027.113.461v-.488.777l.43-.629-.43-.148v.777l.43-.629-.356.508.625-.183-.27-.325-.355.508.625-.183-.015-.094c0-.324.14-1.04.281-1.703.117-.325.191-.64.25-.926.066-.285.121-.465.121-.817 0-.167 0-.417-.254-.73-.234-.277-.617-.398-.84-.387-.3.02-.425.075-.515.11-.399.207-.59.379-.95.62-.464.372-1.062.805-1.675 1.169-.61.351-1.207.55-1.555.543l-.43-.102c-.101-.07-.246-.21-.437-.543l-.934.473.957-.418c-.882-2.094-2.617-2.77-3.722-3.137-.543-.18-.97-.328-1.121-.43-.125-.156-.102-.027-.145-.37l.09-.528-1.024-.23 1.004.27c.266-1.048.668-1.567 1.07-1.88.415-.312 1.055-.5 2.016-.5.914 0 2.106.176 3.496.453h.043c1.118.196 2.012.63 2.918 1.067.914.441 1.844.933 3.075.933.867 0 1.753-.257 2.714-.84.938-.593 1.942-1.472 3.121-2.75 1.098-1.207 1.829-2.093 2.36-2.87.496-.758.824-1.462.824-2.212 0-.593-.219-1.101-.473-1.52-.73-1.214-1.746-2.081-2.605-4.792l-.984.297 1.004-.281a8.625 8.625 0 0 1-.352-2.36c0-2.5.976-5.055 1.95-6.988.472-.953.968-1.758 1.32-2.313.175-.27.367-.492.453-.648l.136-.215a1.028 1.028 0 0 0-.144-1.441c-.446-.371-1.094-.297-1.473.14l-4.922 5.551-.144-4.148a.957.957 0 0 0-.64-.903 1.024 1.024 0 0 0-1.134.2c-.043 0-.847.789-1.687 1.882-.844 1.098-1.785 2.442-1.84 4.07 0 .344.055.708.21 1.083l.985-.399-1.008.344.024.027.234-.054h-.258l.024.054.234-.054h-.258.59l-.37-.41-.22.41h.59l-.37-.41.253.316v-.434l-.254.118.254.316v-.434l-.016-.03c-.3-.071-1.335-.813-1.335-2.977 0-1.297.359-3.13 1.554-5.547 1.977-4.313 7.848-8.172 13.438-10.856 5.554-2.683 10.843-4.289 11.468-4.46 0 0 .317-.048.73-.079 3.087-.23 12.853-.293 19.583-.285 4 0 6.91.035 6.934.035v-1.062l-.707.785.707-.785"/><path style="stroke:none;fill-rule:nonzero;fill:#ee2c30;fill-opacity:1" d="M267.906 195.602s-6.039-1.805-6.531 1.64c-.633 3.602-.383 7.563 4.977 8.332 5.257.766 15.105 2.04 16.918.625 1.78-1.394 2.168-4.617 2.168-4.617s-15.118 1.934-17.532-.25c-2.562-2.176-2.562-2.555-2.562-2.555s2.562.778 3.347-.379c.606-1.156-.785-2.796-.785-2.796"/><path style="stroke:none;fill-rule:nonzero;fill:#231f20;fill-opacity:1" d="m267.906 195.602.313-1.02c-.074-.008-1.688-.496-3.492-.508-.848.012-1.77.106-2.653.535a3.25 3.25 0 0 0-1.742 2.485l1.043.148-1.043-.176a15.83 15.83 0 0 0-.254 2.696c0 1.496.309 3.05 1.285 4.34.989 1.293 2.617 2.199 4.856 2.496 3.547.53 9.207 1.297 13.16 1.297.988 0 1.84-.047 2.598-.176.718-.106 1.37-.25 1.937-.684 1.172-.926 1.746-2.262 2.121-3.332.332-1.086.445-1.945.445-1.992.043-.316-.054-.656-.293-.86a1.027 1.027 0 0 0-.882-.296s-1.493.183-3.684.379c-2.144.203-4.93.39-7.426.39-1.41 0-2.718-.066-3.722-.215-1.024-.14-1.762-.433-1.868-.547l-.02-.023c-1.269-1.074-1.886-1.687-2.108-1.992l-.168-.16-.016-.035-.68.425h.785c-.007-.324-.105-.425-.105-.425l-.68.425h.785-1.054l-.301 1c.039.008.96.29 2.016.297.382 0 .828-.027 1.25-.176a2.419 2.419 0 0 0 1.23-.918l.055-.074c.215-.379.308-.804.308-1.183-.015-.825-.363-1.5-.605-1.989-.293-.484-.586-.797-.586-.816l-.492-.336-.313 1.02-.804.668v.027c.082.074.277.324.414.633.168.293.277.617.277.793l-.047.175.945.5-.882-.582-.16.082-.59.086c-.36 0-.727-.039-.993-.113l-.324-.074-.094-.02c-.324-.101-.652-.035-.957.168-.234.192-.418.5-.418.832.024.278.118.457.204.602.25.473.793 1.082 2.746 2.77l.683-.817-.703.79c.781.663 1.746.866 2.938 1.054 1.199.195 2.609.25 4.054.25 5.184 0 11.352-.797 11.39-.797l-.147-1.047-1.028-.121-.02.113a8.767 8.767 0 0 1-.5 1.805c-.25.785-.714 1.59-1.273 2.008l.016-.008c-.016.016-.406.2-.992.277-.59.082-1.36.13-2.262.13-3.7 0-9.332-.743-12.887-1.27-1.863-.27-2.86-.914-3.445-1.684-.598-.77-.867-1.832-.867-3.07 0-.742.078-1.532.25-2.332v-.032c.093-.527.234-.695.632-.914.387-.214.997-.324 1.665-.32a9.67 9.67 0 0 1 1.972.223l.68.14.234.067.293-.992-.804.668.804-.668M278.316 234.617c.887.805 1.454 1.637 2.282 2.656.804.993 1.859 2.082 3.62 3.223.477.305 1.16.164 1.458-.305a1.04 1.04 0 0 0-.297-1.472c-1.574-1.028-2.434-1.899-3.172-2.797-.77-.879-1.394-1.832-2.437-2.832a1.044 1.044 0 0 0-1.489.047c-.398.394-.39 1.082.035 1.48"/><path style="stroke:none;fill-rule:nonzero;fill:#fff30d;fill-opacity:1" d="m316.79 272.246 13.054 6.395c-.258-13.942 0-42.368.527-44.672H315.38c.77 0 1.293 20.355 1.41 38.277"/><path style="stroke:none;fill-rule:nonzero;fill:#231f20;fill-opacity:1" d="m316.79 272.246-.481.922 13.101 6.434c.305.148.711.12 1.016-.082.3-.188.476-.52.476-.899-.066-3.738-.086-8.555-.086-13.617 0-6.86.032-14.18.164-20.008.04-2.91.098-5.445.192-7.36.055-.952.058-1.741.098-2.347a7.938 7.938 0 0 1 .14-1.078c.035-.324 0-.664-.215-.899a1.047 1.047 0 0 0-.824-.386H315.38a.98.98 0 0 0-.73.312c-.184.196-.317.453-.317.73 0 .278.133.548.316.743.196.195.45.305.73.305v-.985l-.624.762c.11.094.344.23.625.223v-.985l-.625.762.492-.582-.73.277.238.305.492-.582-.73.277v.02c.043.11.152.656.195 1.387.57 5.265.937 21.66 1.016 36.359.02.394.238.758.582.914l.48-.922h1.043c-.055-8.973-.219-18.543-.453-25.898-.113-3.657-.254-6.778-.426-8.993-.055-1.109-.164-1.988-.242-2.628a5.23 5.23 0 0 0-.195-.832l-.172-.407-.25-.316a1.143 1.143 0 0 0-.715-.246.98.98 0 0 0-.73.312c-.184.196-.317.453-.317.73 0 .278.133.548.316.743.196.195.45.305.73.305h14.993v-1.047l-1.023-.242c-.098.363-.133.78-.172 1.43-.305 4.382-.461 17.823-.461 29.847 0 5.074.035 9.894.101 13.652l1.028-.015.48-.938-13.058-6.414-.477.957h1.043-1.043"/><path style="stroke:none;fill-rule:nonzero;fill:#fff200;fill-opacity:1" d="m245.375 408.563-36.602-8.95 3.7-15.254a154.233 154.233 0 0 1-34.414-18.156l-10.5 11.777-28.297-25.09 10.48-11.8c-8.539-9.578-16.105-20.324-22.117-31.969l-14.727 5.61-13.421-35.313 14.593-5.52c-3.082-12.66-4.726-25.609-4.617-38.652l-15.469-1.906 4.477-37.375 15.457 1.785c3.215-12.8 7.941-25.086 14.004-36.469l-12.953-8.828 21.472-31.101 12.95 8.957c8.574-9.727 18.441-18.426 29.16-25.86l-7.281-13.941 33.421-17.531 7.29 13.82c11.898-4.61 24.683-7.813 37.882-9.348V61.832h37.602v15.617c13.203 1.535 25.86 4.739 37.906 9.348l7.281-13.82 33.41 17.53-7.292 13.942c10.773 7.434 20.492 16.133 29.187 25.86l12.93-8.957 21.383 31.101-12.793 8.828c6.02 11.516 10.718 23.668 13.78 36.469l15.52-1.785 4.606 37.375-15.516 1.906c0 13.043-1.5 25.992-4.691 38.652l14.562 5.52-13.433 35.312-14.59-5.492c-6.145 11.528-13.547 22.274-22.25 31.852l10.476 11.8-28.289 25.09-10.382-11.777c-10.59 7.438-22.235 13.547-34.524 18.156l3.68 15.254-36.59 8.95-3.707-15.122a162.047 162.047 0 0 1-38.906 0Zm23.324-304.747c-72.472 0-131.625 59.008-131.625 131.551 0 72.336 59.153 131.227 131.625 131.227 72.281 0 131.41-58.89 131.41-131.227 0-72.543-59.129-131.55-131.41-131.55"/><path style="stroke:none;fill-rule:nonzero;fill:#231f20;fill-opacity:1" d="m245.375 408.563.254-1-35.606-8.708 3.485-14.23a1.071 1.071 0 0 0-.664-1.254c-12.207-4.574-23.621-10.668-34.18-18.039a1.03 1.03 0 0 0-1.39.164l-9.813 10.996-26.707-23.699 9.785-11a1.018 1.018 0 0 0 0-1.387c-8.508-9.508-16.008-20.199-21.984-31.777-.239-.461-.809-.676-1.278-.488l-13.754 5.25-12.691-33.356 13.586-5.152c.516-.18.785-.703.676-1.207-2.946-12.2-4.598-24.602-4.598-37.106v-1.304a1.032 1.032 0 0 0-.918-1.047l-14.426-1.793 4.215-35.305 14.426 1.684a1.103 1.103 0 0 0 1.16-.793 163.024 163.024 0 0 1 13.856-36.25 1.021 1.021 0 0 0-.313-1.332l-12.07-8.258 20.304-29.36 12.07 8.368c.438.304 1.02.215 1.376-.188 8.504-9.664 18.289-18.297 28.972-25.691.434-.29.598-.88.36-1.352l-6.824-13.015 31.562-16.547 6.777 12.898c.266.453.817.68 1.332.485 11.825-4.582 24.528-7.758 37.606-9.266.55-.074.95-.52.95-1.055V62.887h35.534v14.562c0 .535.407.98.914 1.055 13.09 1.508 25.688 4.683 37.621 9.273.524.188 1.07-.039 1.336-.492l6.786-12.898 31.566 16.547-6.805 13.015c-.238.473-.11 1.063.336 1.352 10.664 7.386 20.324 16.027 28.957 25.703.344.39.957.48 1.387.176l12.078-8.368 20.172 29.36-11.918 8.258a1.035 1.035 0 0 0-.355 1.332C414.53 173.21 419.215 185.3 422.234 198c.176.52.625.852 1.18.805l14.45-1.684 4.343 35.305-14.437 1.793c-.52.062-.93.52-.93 1.027 0 12.969-1.516 25.824-4.68 38.414-.16.52.133 1.027.645 1.223l13.59 5.152-12.68 33.356-13.621-5.133a1.047 1.047 0 0 0-1.305.492c-6.113 11.457-13.473 22.148-22.101 31.637a1.005 1.005 0 0 0-.016 1.406l9.789 11-26.707 23.7-9.664-10.997a1.055 1.055 0 0 0-1.41-.164 154.857 154.857 0 0 1-34.293 18.04c-.516.194-.82.73-.668 1.253l3.492 14.23-34.61 8.438-3.449-14.07c-.12-.536-.617-.864-1.16-.793a166.52 166.52 0 0 1-19.293 1.12c-6.465 0-12.91-.374-19.351-1.12a1.037 1.037 0 0 0-1.153.77l-3.847 15.128 1.027.235.254-1-.254 1 1.023.242 3.836-15.082-1.011-.282-.114 1.063a169.67 169.67 0 0 0 19.59 1.156c6.504 0 13.051-.402 19.563-1.156l-.133-1.063-1.02.258 3.696 15.106c.144.562.695.918 1.285.77l36.617-8.962c.543-.11.914-.718.77-1.27l-3.72-15.218-1.01.234.362 1.012a156.525 156.525 0 0 0 34.77-18.34l-.61-.828-.785.684 10.395 11.789c.168.219.445.34.703.363.305.016.555-.105.777-.277l28.262-25.106c.211-.152.371-.43.39-.75 0-.234-.105-.515-.28-.719l-10.489-11.78-.777.683.777.703c8.738-9.664 16.2-20.48 22.418-32.063l-.945-.492-.371.973 14.601 5.52c.524.203 1.133-.079 1.344-.614l13.453-35.32-.02-.817-.577-.562-14.602-5.488-.367.968 1 .282c3.238-12.785 4.758-25.797 4.758-38.934h-1.067l.195 1.047 15.461-1.914c.57-.078.97-.598.903-1.168l-4.61-37.387c-.062-.574-.574-.98-1.171-.914l-15.485 1.813.098 1.027 1.027-.23c-3.09-12.895-7.82-25.141-13.898-36.723l-.91.484.597.864 12.785-8.833c.5-.343.61-.984.282-1.464l-21.383-31.11a1.018 1.018 0 0 0-.692-.425c-.234-.055-.53 0-.8.175l-12.914 8.969.605.852.773-.704c-8.742-9.792-18.546-18.539-29.351-26.027l-.61.871.93.48 7.305-13.94a1.037 1.037 0 0 0-.457-1.415L333.16 72.031c-.527-.277-1.14-.062-1.433.453l-7.293 13.813.937.5.387-1c-12.102-4.629-24.883-7.848-38.137-9.395l-.156 1.047h1.07V61.832c0-.27-.11-.547-.293-.75a1.2 1.2 0 0 0-.777-.285h-37.602c-.308 0-.554.101-.734.285-.2.203-.324.48-.324.75v15.617h1.058l-.11-1.047c-13.304 1.547-26.19 4.766-38.148 9.407l.375.988.918-.5-7.316-13.813c-.234-.515-.879-.73-1.41-.453l-33.395 17.543c-.511.266-.71.906-.433 1.414l7.297 13.942.91-.48-.59-.872c-10.832 7.48-20.746 16.234-29.371 26.04l.8.69.575-.851-12.918-8.969a.955.955 0 0 0-.79-.175c-.273.054-.5.203-.679.425l-21.48 31.11c-.16.23-.235.507-.18.797.074.265.219.52.465.667l12.93 8.833.609-.864-.98-.484a163.919 163.919 0 0 0-14.028 36.703l1.004.25.133-1.027-15.496-1.813c-.551-.066-1.098.34-1.14.914l-4.49 37.395c-.077.562.348 1.082.915 1.16l15.504 1.914.11-1.047h-1.056c-.015.445-.015.89-.015 1.324 0 12.7 1.668 25.27 4.652 37.598l1.035-.27-.367-.968-14.617 5.488-.586.562-.04.817 13.47 35.32.539.586.816.027 14.719-5.64-.379-.969-.918.469c6.043 11.73 13.656 22.55 22.27 32.203l.765-.703-.765-.684-10.508 11.781a1 1 0 0 0-.258.72c.02.32.172.597.371.75l28.27 25.105c.445.39 1.105.367 1.472-.063l10.512-11.812-.777-.684-.598.828c10.684 7.5 22.25 13.696 34.652 18.34l.36-1.012-1.02-.234-3.71 15.219c-.141.55.198 1.16.78 1.27l36.582 8.96a1.048 1.048 0 0 0 1.293-.77Zm23.324-304.747v-1.062c-73.039 0-132.668 59.488-132.668 132.613 0 72.903 59.63 132.262 132.668 132.262 72.856 0 132.48-59.36 132.48-132.262 0-73.125-59.624-132.613-132.48-132.613v2.101c35.852 0 68.422 14.633 92.059 38.274 23.648 23.64 38.308 56.258 38.308 92.238 0 35.895-14.66 68.422-38.308 91.985-23.637 23.554-56.207 38.175-92.059 38.175-35.96 0-68.578-14.62-92.23-38.175-23.68-23.563-38.32-56.09-38.32-91.985 0-35.98 14.64-68.597 38.32-92.238 23.652-23.64 56.27-38.274 92.23-38.274v-1.039"/><path style="stroke:none;fill-rule:nonzero;fill:#231f20;fill-opacity:1" d="M269.156 374.676c32.617-16.719 59.711-40.297 79.063-74.86 19.344-34.57 30.933-80.093 32.597-140.683.02-.278-.109-.555-.308-.758a1.035 1.035 0 0 0-.746-.324H157.437c-.277 0-.55.12-.742.332-.199.195-.332.472-.332.75 1.762 60.59 13.375 106.113 32.727 140.683 19.375 34.563 46.531 58.141 79.11 74.86.51.27 1.136.05 1.413-.438.274-.55.07-1.16-.457-1.425-32.312-16.57-59.062-39.829-78.226-74.024-19.157-34.191-30.727-79.36-32.434-139.7l-1.059.016v1.047h222.325v-1.047l-1.035-.015c-1.664 60.34-13.207 105.508-32.336 139.7-19.153 34.194-45.88 57.452-78.192 74.022-.515.266-.722.875-.476 1.426.297.489.941.707 1.433.438"/><path style="stroke:none;fill-rule:nonzero;fill:#fff30d;fill-opacity:1" d="M217.078 242.559v17.14c-6.125-7.3-18.02-11.41-25.703-11.41-10.637 0-19.203 9.117-19.203 20 0 11.137 8.433 20.098 19.203 20.098 7.684 0 15.602-4.63 19.309-11.532l11.023.125c-4.242 13.954-18.05 24.06-32.492 24.06-17.328 0-31.512-14.458-31.512-32.259 0-17.52 14.184-32.886 31.512-32.886 8.68 0 16.504 3.59 22.219 8.449 3.093 1.156 3.609-1.528 5.644-1.785"/><path style="stroke:none;fill-rule:nonzero;fill:#231f20;fill-opacity:1" d="M217.078 242.559h-1.023v17.14h1.023l.805-.672c-3.223-3.824-7.867-6.75-12.692-8.75-4.812-1.96-9.808-3.027-13.816-3.027-11.262 0-20.266 9.59-20.266 21.04 0 5.823 2.22 11.12 5.852 14.948 3.644 3.817 8.726 6.176 14.414 6.176 8.102-.012 16.32-4.785 20.242-12.05l-.933-.509-.02 1.051 11.043.121v-1.047l-1.02-.312c-4.054 13.484-17.523 23.336-31.472 23.324-8.371 0-15.977-3.496-21.488-9.144-5.528-5.645-8.957-13.442-8.957-22.067 0-8.476 3.43-16.457 8.957-22.289 5.55-5.851 13.136-9.543 21.488-9.543 8.375-.008 15.96 3.453 21.57 8.192l.278.195c.64.223 1.23.344 1.78.344 1.333 0 2.235-.684 2.86-1.184.668-.543 1.067-.863 1.535-.898l-.16-1.04h-1.023 1.023l-.113-1.062c-1.242.172-2 .906-2.559 1.36-.62.492-.976.722-1.562.722-.239 0-.586-.055-1.024-.215l-.386.98.699-.804c-5.926-5.008-13.965-8.687-22.918-8.687-17.945.015-32.55 15.824-32.57 33.93.02 18.363 14.644 33.304 32.57 33.304 14.937-.012 29.086-10.375 33.496-24.797a1.07 1.07 0 0 0-.172-.926c-.2-.27-.492-.437-.832-.437l-11.004-.117c-.39-.008-.742.199-.941.554-3.48 6.535-11.11 10.969-18.387 10.957-5.082 0-9.613-2.097-12.871-5.543-3.274-3.441-5.281-8.199-5.281-13.488 0-5.172 2.027-9.91 5.308-13.363 3.29-3.434 7.84-5.57 12.844-5.57 3.672 0 8.445.988 13.031 2.874 4.586 1.887 8.965 4.692 11.867 8.137.305.352.786.485 1.192.324.398-.156.68-.546.68-.992v-17.14c0-.297-.118-.602-.352-.786a1.127 1.127 0 0 0-.828-.277l.113 1.063"/><path style="stroke:none;fill-rule:nonzero;fill:#fff30d;fill-opacity:1" d="M269.941 159.215h-13.804c-2.168 6.406-6.547 14.617-6.383 19.219h-16.535c2.824-2.297 26.105-58.75 27.261-64.13h19.07c1.145 5.38 24.587 61.942 27.262 64.13h-16.53c.156-4.602-4.22-12.813-6.391-19.22Zm.282-12.403h7.785l-7.914-21.257-7.688 21.257h7.817"/><path style="stroke:none;fill-rule:nonzero;fill:#231f20;fill-opacity:1" d="M269.941 159.215v-1.028h-13.804c-.457 0-.848.27-.992.708-1.063 3.062-2.645 6.664-4 10.066-1.356 3.437-2.458 6.648-2.458 9.27v.238l1.067-.035v-1.055h-16.535v1.055l.652.812c.41-.36.645-.738 1-1.293 1.297-2.168 3.477-6.789 6.11-12.7 3.953-8.87 8.882-20.57 12.89-30.519 2.031-4.96 3.824-9.504 5.16-13.05 1.364-3.563 2.215-6.036 2.48-7.157l-1.03-.222v1.039h19.07v-1.04l-1.028.223c.16.817.68 2.27 1.454 4.344 2.632 7.274 8.503 21.777 14.035 34.727 2.73 6.464 5.43 12.554 7.566 17.144a118.63 118.63 0 0 0 2.75 5.645c.36.703.688 1.304.961 1.777.316.461.512.777.867 1.082l.656-.812v-1.055h-16.53v1.055l1.058.035v-.258c-.02-2.617-1.113-5.82-2.45-9.25-1.355-3.402-2.964-7.004-3.98-10.066a1.059 1.059 0 0 0-1.02-.708h-13.949v2.094h13.95v-1.066l-.98.351c1.097 3.215 2.706 6.805 4.015 10.157 1.336 3.343 2.36 6.48 2.34 8.488v.195c-.016.27.074.555.27.77.194.191.487.312.745.312h16.531c.43 0 .82-.285 1.016-.703.121-.41.016-.906-.355-1.164l-.121.145.14-.13-.02-.015-.12.145.14-.13c-.055-.034-.312-.398-.64-.952-1.184-2.055-3.414-6.77-6.012-12.653-3.926-8.86-8.824-20.445-12.809-30.277-1.988-4.926-3.785-9.426-5.086-12.887-1.324-3.469-2.207-6.015-2.347-6.773-.13-.48-.575-.844-1.047-.844h-19.07c-.497 0-.922.363-1.051.844-.086.527-.578 2.027-1.336 4.062-2.617 7.172-8.469 21.66-13.973 34.574-2.73 6.45-5.383 12.524-7.5 17.067a122.89 122.89 0 0 1-2.73 5.582c-.368.684-.672 1.258-.914 1.656l-.336.445-.075.122-.007.035.082.101-.082-.117v.016l.082.101-.082-.117c-.352.266-.477.754-.332 1.164.16.418.55.703.992.703h16.535c.254 0 .535-.12.734-.312.2-.215.285-.5.285-.77l-.007-.176c0-2.02 1.004-5.156 2.351-8.5 1.293-3.359 2.906-6.94 4.008-10.164l-.988-.351v1.066h13.804Zm.282-12.403v1.055h7.785c.37 0 .676-.156.879-.46a1.04 1.04 0 0 0 .113-.954l-7.922-21.254a1.06 1.06 0 0 0-.984-.683c-.45 0-.84.277-.996.695l-7.676 21.25a.968.968 0 0 0 .117.953c.207.297.516.453.867.453h7.817v-2.09h-6.332l6.222-17.172 6.403 17.172h-6.293v1.036"/><path style="stroke:none;fill-rule:nonzero;fill:#fff30d;fill-opacity:1" d="M329.844 282.879c-4.477-.766-8.817-2.305-13.055-4.61.129 14.07-.117 20.985-.64 21.891 22.015.36 44.05.64 66.058.871v-15.219c-17.289.641-34.562-.378-51.836.27-.25.102-.36 1.406-.527-3.203"/><path style="stroke:none;fill-rule:nonzero;fill:#231f20;fill-opacity:1" d="m329.844 282.879.187-1.04c-4.37-.745-8.597-2.245-12.73-4.51a1.09 1.09 0 0 0-1.055.034c-.316.196-.52.543-.52.907.04 2.46.04 4.695.04 6.71 0 4.797-.055 8.375-.172 10.856-.055 1.23-.106 2.195-.196 2.851-.035.325-.097.602-.117.778l-.054.187v.024l.289.113-.27-.156-.02.043.29.113-.27-.156a1.056 1.056 0 0 0 0 1.043c.188.328.52.531.883.531 22.016.379 44.05.637 66.058.879.282 0 .54-.094.762-.305.184-.187.293-.472.293-.75v-15.219c0-.277-.11-.535-.308-.742-.227-.191-.465-.3-.762-.3-4.434.164-8.867.218-13.293.218-8.309 0-16.633-.195-24.953-.195-4.535 0-9.067.086-13.602.227l-.347.09-.489.343-.12.176.589.441-.512-.535-.078.094.59.441-.512-.535.688.73v-.988c-.438 0-.61.196-.688.258l.688.73v-.988 1.008l.594-.812-.594-.196v1.008l.594-.812-.532.738.848-.332-.316-.406-.532.738.848-.332-.316.121.336-.059-.02-.062-.316.121.336-.059c-.043-.144-.098-1.062-.16-3.101-.02-.5-.383-.906-.872-1l-.187 1.039-1.028.027c.02 1.453.055 2.317.122 2.88.042.269.062.452.082.667l.175.395.274.324.664.215c.293 0 .484-.11.61-.203.355-.282.32-.352.374-.399l-.672-.5.356.75c.262-.14.277-.25.316-.25l-.672-.5.356.75-.43-.953.04 1.035c4.5-.156 8.995-.222 13.515-.222 8.285 0 16.601.187 24.953.187 4.445 0 8.894-.047 13.363-.207l-.035-1.063h-1.055v15.22h1.055l.02-1.04c-22.012-.25-44.04-.5-66.043-.89l-.036 1.058.934.516c.133-.278.184-.504.242-.785.196-.914.324-2.496.399-4.954.109-2.453.164-5.738.164-9.957 0-2.015-.02-4.265-.055-6.738l-1.043.028-.508.914c4.317 2.351 8.793 3.945 13.395 4.714l.168-1.02-1.028.028 1.028-.027"/><path style="stroke:none;fill-rule:nonzero;fill:#ee2c30;fill-opacity:1" d="M268.695 114.316c-66.836 0-121.218 54.508-121.218 121.329 0 66.562 54.382 120.921 121.218 120.921 66.645 0 121.211-54.359 121.211-120.921 0-66.82-54.566-121.329-121.21-121.329m0-21.511c78.558 0 142.699 64.117 142.699 142.84 0 78.464-64.141 142.472-142.7 142.472-78.632 0-142.754-64.008-142.754-142.472 0-78.723 64.121-142.84 142.754-142.84"/><path style="stroke:none;fill-rule:nonzero;fill:#ee2c30;fill-opacity:1" d="M329.586 275.445c-4.082-.367-12.152-5.617-18.152-7.156-5.887-1.562-7.829-1.176-7.829-1.176s-2.027-11.496-6.02-11.89c-4.085-.391-20.843-32.008-29.808-25.227-9.086 6.797-14.597 8.988-15.5 9.742-2.16 2.172-12.789 6.012-12.164 7.922-.234 1.414-14.172 8.57-15.847 10.254-1.805 1.649 2.273.242-2.184 2.805-4.473 2.695-11.894 1.804-11.656 8.98.258 7.164.258-3.988 5.242.75 5.004 4.63 1.941 4.996 7.832 3.082 5.75-1.926 5.352-6.418 5.484-.777.266 5.656-1.914 2.691 1.164 2.941 3.196.121 5.895-14.836 17.383-15.343.39 3.707-1.133 11.382 7.578 1.921 8.707-9.363 3.7-1.035 5.883.622 2.055 1.554 4.61-10.36 9.102-9.59 4.594.757 7.039 4.851 4.847 5.879-2.175 1.168-6.394.906-3.695 4.23 2.91 3.313 7.559-2.176 9.84 6.285 2.316 8.309 4.351 10.735 1.934 23.149-2.325 12.422.382 17.53 2.418 23.289 1.921 5.765 1.152 7.433 3.453 7.562 2.296.25 3.988-3.082 4.609-5.25.629-2.164-1.16-6.523.629-5.36 1.668 1.134 2.82 4.204 5.797 3.696 2.914-.648.742 2.82 1.652 4.637-2.324 2.277-4.762 7.652-8.7 8.293-3.847.52-13.839.77-16.39 2.96-2.55 2.048-.77 4.583 1.137 3.563 1.926-.886 5.242-3.191 5.777-.886.641 2.304-.925 3.691 1.41 4.074 2.274.277 5.247-1.77 5.747-.25.628 1.418-.5 4.765.628 5.008 1.153.109 16.016-9.461 16.774-13.7.762-4.214 7.555-.25 9.473-7.953 1.906-7.8-3.45 2.196-4.352 0-1.031-2.144 13.055-8.308 13.055-8.308l-9.989 1.68s12.555-8.45 12.555-10.633c0-2.043-3.848-9.739-3.848-9.739l-3.3 3.34s-3.461 4.106-6.926 2.688c-3.582-1.27-9.473-7.7-9.742-14.348-.11-6.508 1.031-15.09 1.031-15.09 5.371 3.445 19.062 11.535 25.602 10.637 5.132 0 14.332-3.23 15.714-7.313 1.446-4.09 4.52-22.14-8.027-32.636-12.664-10.485-13.21-18.18-12.426-28.657.785-10.515 5.016-8.203 5.39-8.203.349 0 2.536 2.18 1.884 4.852-.489 2.687-3.035 2.324-2.645 5.887.387 3.453 2.262-1.5 4.45 1.925 2.03 3.461 10.269 6.922 14.34.899 4-6.024-5.49-3.594-5.49-3.594s1.52-13.54-5.503-15.074c-7.172-1.688-7.977-1.809-11.531.488-3.453 2.305-7.168 4.227-7.317 11.793-.23 7.672 1.555 14.957 4.118 19.809 2.433 4.886 18.937 14.726 19.703 26.136.77 11.38-3.309 17.793-7.145 19.34-3.86 1.516 12-16.273 1.781-29.207-4.226-5.25-7.02-8.187-8.804-9.605l-.168 9.476c3.332 2.426 6.922 6.266 6.418 13.45-1.032 12.652-2.59 13.292-6.676 12.921"/><path style="stroke:none;fill-rule:nonzero;fill:#231f20;fill-opacity:1" d="m329.586 275.445.09-1.047c-1.68-.125-4.754-1.488-7.992-3.043-3.286-1.546-6.829-3.289-10.012-4.093-3.98-1.051-6.219-1.239-7.328-1.239-.559 0-.871.067-.946.086l.207 1.004 1.028-.164c0-.027-.496-2.953-1.54-5.98-.491-1.508-1.156-3.035-2-4.305a8.063 8.063 0 0 0-1.429-1.644c-.531-.438-1.215-.778-1.965-.852v.047-.047.047-.047c-.113 0-.75-.41-1.433-1.176-2.582-2.601-6.864-8.812-11.438-14.328-2.308-2.777-4.691-5.39-7.062-7.351-2.395-1.926-4.75-3.286-7.18-3.313-1.215 0-2.41.398-3.45 1.184-4.476 3.343-8.105 5.554-10.714 7.043-1.277.734-2.32 1.277-3.086 1.687-.816.434-1.313.684-1.727 1.02l-.054.05c-.375.371-1.375 1.012-2.57 1.657-1.833.972-4.165 2.105-6.087 3.187-.996.527-1.835 1.055-2.492 1.59-.332.262-.644.52-.902.844-.234.316-.457.703-.457 1.23l.066.52 1-.352-1.023-.18.594.125-.512-.335-.082.21.594.125-.512-.335.039.015-.04-.023v.008l.04.015-.04-.023c-.034.074-.343.36-.804.703-1.601 1.168-4.945 3.11-8.008 4.894-1.57.899-3.023 1.75-4.222 2.48-1.207.763-2.09 1.298-2.621 1.825l.75.75-.711-.777-.535.593c-.13.22-.29.5-.31.872 0 .378.22.75.407.918l.453.332.309-.512-.422.398.113.114.309-.512-.422.398.668-.61h-.902l.234.61.668-.61h-.902.691l-.559-.483s-.132.14-.132.484h.691l-.559-.484v.011c-.117.114-.683.528-1.82 1.164-1.926 1.2-4.808 1.649-7.316 2.676-1.266.543-2.496 1.223-3.418 2.344-.887 1.11-1.43 2.629-1.41 4.496v.41c.02.918.035 1.543.097 1.98l.09.575.164.387.274.324.648.207c.547-.031.746-.281.844-.375l.308-.48c.18-.415.403-1.009.711-1.454l.489-.492.355-.129c.242-.008.75.129 1.582.93h.02c1.515 1.43 2.242 2.375 2.71 3.054.282.332.477.61.79.903.332.297.867.52 1.34.5.519-.008.972-.156 1.582-.352.605-.176 1.355-.441 2.414-.793 1.996-.668 3.355-1.64 4.23-2.437.461-.395.777-.75.992-.98l.211-.196-.277-.313.2.364.077-.051-.277-.313.2.364-.411-.778v.868l.41-.09-.41-.778v.868-.938l-.727.625.727.313v-.938l-.727.625.59-.52-.758.258.168.262.59-.52-.758.258.348-.136-.348.101v.035l.348-.136-.348.101s.036.25.055.63c0 .398.016.98.035 1.694v.903c0 .957-.09 1.5-.16 1.762l-.039.12v.028l.496.285-.406-.426-.09.14.496.286-.406-.426.68.703v-.972c-.465.047-.57.215-.68.27l.68.702v-.972 1.039l.824-.621-.824-.418v1.039l.824-.621-.805.601h1l-.195-.601-.805.601h1-.812l.632.508c.063-.07.164-.152.18-.508h-.812l.632.508-.308-.23.238.328.07-.098-.308-.23.238.328h-.02.02-.02.02c.035 0 .18-.07.48-.07l.297.011h.098c.832-.012 1.457-.441 1.945-.953.887-.879 1.594-2.14 2.485-3.629 1.261-2.219 2.844-4.879 4.91-6.969 2.094-2.101 4.617-3.628 8.086-3.796l-.059-1.043-1.004.109c.086 1.074 0 2.703.18 4.137.059.691.184 1.406.496 2.039.188.312.426.625.742.867.375.23.805.36 1.22.36.952-.028 1.8-.442 2.823-1.227 1.067-.79 2.332-1.953 3.899-3.649 1.511-1.62 2.554-2.683 3.32-3.343.371-.305.633-.5.82-.61l.18-.094-.023-.074v.074h.023l-.023-.074v.074l-.094-.453v.453h.094l-.094-.453v.453-.691l-.414.555.414.136v-.691l-.414.555.351-.446-.597.149.246.297.351-.446-.597.149.02.242c0 .48-.126 1.36-.126 2.285 0 .434.035.899.16 1.367.133.477.391.985.871 1.332.29.215.657.356 1.024.356.695-.02 1.148-.406 1.488-.75.598-.63 1.094-1.473 1.61-2.48.804-1.465 1.671-3.215 2.617-4.52.449-.645.937-1.195 1.394-1.527.43-.348.809-.5 1.196-.5l.238.027c1.504.254 2.75.918 3.61 1.668.831.722 1.214 1.594 1.175 1.926l-.2.316-.054.008c-.648.344-1.726.601-2.73.933-.551.16-1.032.364-1.52.723-.465.34-.906.98-.887 1.73 0 .844.422 1.575 1.106 2.426l.027.028c.59.691 1.29 1.109 2.004 1.336.7.21 1.39.257 2.016.257.492 0 .976-.027 1.414-.027.922.008 1.61.11 2.234.582.653.473 1.336 1.516 1.945 3.73.786 2.88 1.56 5.016 2.11 7.051.535 2.047.883 3.965.883 6.461 0 2.352-.285 5.239-1.067 9.164-.633 3.453-.937 6.36-.937 8.887 0 6.766 1.949 10.86 3.402 14.95l.985-.352-.985.336c.942 2.82 1.2 4.57 1.57 5.855.184.629.399 1.211.922 1.723.512.469 1.2.668 1.907.691l.039-1.043-.098 1.043.34.02c.793 0 1.55-.313 2.137-.711 1.761-1.305 2.707-3.613 3.265-5.293.121-.512.16-1 .184-1.512-.024-1.441-.39-3.008-.356-3.629v-.183l-.527-.122.406.372.121-.25-.527-.122.406.372-.597-.528v.79l.597-.262-.597-.528v.79-.493l-.157.461.157.031v-.492l-.157.461.047.059.594-.883-.606.87c.567.353 1.207 1.25 2.075 2.13.816.87 2.011 1.805 3.656 1.805.281 0 .543-.028.84-.082l.043-.008.43-.047.042.008v-.075l-.015.067.015.008v-.075l-.015.067.136-.27-.3.11.164.16.136-.27-.3.11v.054l.02.215c.019.488-.16 1.363-.16 2.297 0 .535.073 1.125.343 1.711l.945-.453-.762-.758c-1.27 1.313-2.453 3.191-3.789 4.848-1.328 1.668-2.785 2.945-4.332 3.187l.184 1.016-.16-1.016c-1.824.2-5.305.403-8.656.805-1.649.21-3.305.473-4.747.82-1.425.383-2.628.778-3.523 1.555l.695.797-.68-.824c-1.062.87-1.652 1.937-1.652 3.02 0 .687.278 1.386.75 1.874a2.564 2.564 0 0 0 1.875.781c.422 0 .895-.136 1.336-.363l-.492-.926.457.938c.723-.317 1.527-.805 2.332-1.168.746-.387 1.477-.645 1.793-.617l.11.007.062-.046-.086.039.023.007.063-.046-.086.039.023.035.063.133.012.043c.066.378.129.734.129 1.039 0 .523-.098.968-.098 1.535 0 .426.055 1.035.543 1.527.45.488 1.023.676 1.664.758l.058.02.555.035c.977 0 1.88-.278 2.672-.473.758-.23 1.465-.395 1.742-.387h.074l.051-.23-.125.172.074.058.051-.23-.125.172.196-.22-.278.157.082.063.196-.22-.278.157.121-.074-.136.062.015.012.121-.074-.136.062.039.075c.074.105.109.48.109.937 0 .668-.094 1.508-.094 2.313 0 .418.02.8.168 1.23.11.414.547.996 1.207 1.14l.098.009h.121c.414 0 .547-.11.809-.204.836-.32 2.113-1.035 3.761-2.082 2.438-1.543 5.54-3.73 8.086-5.914 1.293-1.082 2.45-2.203 3.352-3.238.902-1.066 1.574-2.047 1.793-3.105.039-.387.195-.59.293-.786.226-.238.683-.468 1.39-.664 1.098-.285 2.633-.425 4.184-1.277 1.523-.832 2.922-2.445 3.586-5.168.273-1.2.457-2.004.457-2.664 0-.313-.04-.582-.184-.934l-.468-.539-.727-.203c-.434.02-.695.176-.937.324-.692.48-1.356 1.29-2.043 2.012-.336.332-.672.645-.887.848l-.293.187-.016.02.114.297v-.317l-.114.02.114.297v-.317.637l.41-.516-.41-.12v.636l.41-.516-.274.387.446-.191-.172-.196-.274.387.446-.191-.02-.067-.445.22h.48l-.035-.22-.445.22h.48-.277l.277.093v-.094h-.277l.277.094.094-.164c.309-.446 1.348-1.242 2.547-2 1.914-1.184 4.37-2.453 6.36-3.414 1.98-.965 3.488-1.614 3.488-1.614.472-.21.73-.757.59-1.265-.165-.512-.665-.828-1.176-.723l-10.012 1.664.183 1.035.586.871s3.176-2.148 6.332-4.543c1.575-1.195 3.164-2.472 4.38-3.617A14.633 14.633 0 0 0 329 307c.383-.54.695-.953.758-1.73 0-.817-.305-1.676-.664-2.75-1.117-3.118-3.301-7.434-3.301-7.461a1.032 1.032 0 0 0-.79-.563 1.075 1.075 0 0 0-.898.293l-3.324 3.352-.043.058-.078.09c-.242.262-.902.899-1.726 1.492-.82.563-1.829 1.02-2.805 1.02-.363 0-.73-.067-1.102-.215l-.074-.02c-1.476-.507-3.773-2.332-5.613-4.793-1.867-2.472-3.293-5.574-3.387-8.582l-1.066.02 1.066-.02c0-.343-.015-.703-.015-1.062 0-3.121.265-6.61.5-9.285.265-2.684.542-4.582.542-4.582l-1.062-.14-.55.882c2.542 1.656 7.007 4.34 11.695 6.629 4.695 2.3 9.597 4.219 13.363 4.226.422 0 .824-.027 1.215-.082l-.121-1.02v1.028c2.765-.008 6.406-.832 9.664-2.183 1.632-.684 3.152-1.508 4.351-2.47 1.254-.945 2.238-2.03 2.7-3.343.609-1.785 1.456-5.668 1.456-10.5.008-7.262-1.918-16.676-9.796-23.285h-.016c-5.192-4.285-8.238-8.035-10-11.645-1.762-3.59-2.274-7.09-2.274-11.023 0-1.629.07-3.313.2-5.113.257-3.559.957-5.496 1.605-6.43.64-.934 1.07-.992 1.535-1.012l.535.078.227.067c.11.023.129.062.465.082v-.696l-.39.602c.015-.008 0 .063.39.094v-.696l-.39.602c.034.027.46.426.796.953.293.547.563 1.23.563 1.973l-.086.719v.054c-.2.918-.61 1.242-1.258 1.938-.352.324-.735.738-.996 1.312-.336.594-.508 1.305-.508 2.149 0 .261.035.52.043.808.09.57.144.989.406 1.422l.559.578.754.207c.726-.027 1.023-.285 1.355-.414.317-.156.567-.23.664-.222l.297.093c.129.082.356.286.629.696l.86-.567-.895.54c.762 1.277 2.09 2.402 3.68 3.265 1.582.852 3.464 1.426 5.41 1.426 2.53.008 5.23-1.055 7.035-3.723v-.023c.73-1.133 1.12-2.078 1.12-3 0-.512-.12-1.012-.41-1.41-.405-.61-1.046-.915-1.62-1.083a7.793 7.793 0 0 0-1.844-.214c-1.93.011-3.856.511-3.89.511l.265 1.016 1.055.133c0-.04.12-1.332.12-3.176 0-2.102-.156-4.941-1.05-7.469-.41-1.297-1.04-2.508-1.89-3.5-.891-1.008-2.055-1.777-3.532-2.094l-.207 1.032.227-1.02c-3.414-.797-5.399-1.277-7.137-1.289-1.887-.008-3.317.707-5.168 1.918h-.02c-1.699 1.129-3.609 2.238-5.156 4.149-1.512 1.914-2.586 4.562-2.633 8.503l1.04.02-1.04-.047v1.535c0 7.305 1.75 14.09 4.223 18.828l.934-.507-.954.488c.782 1.484 2.313 3 4.247 4.832 2.847 2.695 6.62 5.926 9.707 9.508 3.058 3.578 5.43 7.468 5.644 11.383.059.918.078 1.796.078 2.64 0 4.719-.883 8.356-2.168 10.95-1.304 2.581-2.941 4.12-4.379 4.671l-.097.04.117.363v-.383l-.117.02.117.363v-.383.832l.625-.528-.625-.304v.832l.625-.528-.61.485h.79l-.18-.485-.61.485h.79-.282l.282.015v-.015h-.282l.282.015c-.02 0 .035-.265.21-.636.575-1.332 2-3.918 3.258-7.082 1.274-3.196 2.414-7.016 2.414-11.004 0-3.676-.988-7.508-3.73-10.942v-.011c-4.258-5.282-7.074-8.266-8.996-9.782a1.076 1.076 0 0 0-1.102-.109.999.999 0 0 0-.586.914l-.129 9.477c0 .355.164.675.399.882 3.012 2.211 6.015 5.32 6.066 11.235 0 .398-.05.832-.066 1.277-.465 5.567-1.027 8.758-1.79 10.332-.347.805-.683 1.172-1.015 1.387-.375.195-.805.316-1.527.316-.34 0-.75-.039-1.207-.086l-.09 1.047-.098 1.055c.508.05.938.074 1.395.074.879 0 1.77-.129 2.562-.601 1.243-.743 2.012-2.09 2.555-4.137.555-2.082.945-5 1.297-9.227.039-.507.039-.98.039-1.437.035-6.707-3.649-10.586-6.871-12.93l-.621.832 1.066.012.11-9.473-1.008-.015-.664.824c1.672 1.312 4.453 4.219 8.652 9.45l-.02-.017c2.426 3.055 3.301 6.348 3.301 9.653 0 4.176-1.422 8.32-2.875 11.633-.719 1.66-1.46 3.113-2.015 4.25-.301.59-.532 1.101-.704 1.52-.175.46-.316.792-.335 1.304.02.223.058.562.336.879.257.34.703.441.984.426.293 0 .504-.075.75-.157 2.07-.843 4.047-2.77 5.504-5.687 1.426-2.95 2.414-6.91 2.414-11.89 0-.9-.043-1.825-.121-2.798-.422-6.191-4.942-11.625-9.531-16.18-2.278-2.269-4.625-4.34-6.493-6.097-1.882-1.75-3.324-3.277-3.785-4.242l-.02-.008c-2.28-4.36-3.992-10.895-3.992-17.848 0-.472.02-.96.036-1.453v-.02c.07-3.609.925-5.706 2.152-7.234 1.215-1.511 2.922-2.52 4.664-3.695l-.574-.879.574.887c1.867-1.184 2.66-1.555 4.047-1.563 1.324-.02 3.25.406 6.648 1.211 1 .207 1.75.715 2.39 1.406 1.962 2.153 2.481 6.641 2.442 9.602 0 .879-.011 1.602-.027 2.117-.066.524-.105.817-.105.817-.055.332.105.683.355.898.277.23.621.316.95.23l.284-.046c.582-.157 1.93-.399 3.102-.399.648 0 1.234.094 1.535.23l.238.18.036.196c0 .25-.165.902-.805 1.84l.86.574-.856-.594c-1.438 2.102-3.29 2.824-5.29 2.824-1.519 0-3.109-.465-4.425-1.187-1.348-.7-2.348-1.664-2.863-2.47l-.004-.026c-.371-.586-.762-1.036-1.25-1.336a2.43 2.43 0 0 0-1.438-.434c-.683 0-1.219.25-1.594.406l-.425.215-.055.028.055.277v-.278H332l.055.278v-.278.602l.336-.516-.336-.085v.601l.336-.516-.293.461.437-.316-.144-.145-.293.461.437-.316-.18.133.2-.094-.02-.039-.18.133.2-.094-.055-.156-.055-.465-.035-.574c0-.575.09-.914.242-1.176.203-.406.598-.758 1.11-1.313.523-.535 1.129-1.351 1.34-2.507l-1.047-.215 1.03.25c.13-.41.177-.813.177-1.211 0-1.406-.535-2.54-1.075-3.371-.304-.406-.566-.742-.87-.989l-.407-.335c-.168-.083-.277-.22-.738-.258v.797l.164-.758-.164-.04v.798l.164-.758-.445-.133a4.846 4.846 0 0 0-.946-.102c-.968-.035-2.347.473-3.304 1.918-.957 1.442-1.645 3.72-1.903 7.47a68.062 68.062 0 0 0-.218 5.257c-.016 4.11.53 7.996 2.492 11.96 1.925 3.95 5.218 7.915 10.488 12.325 7.266 6.04 9.07 14.73 9.07 21.668 0 4.555-.797 8.352-1.304 9.816-.25.73-.926 1.582-1.97 2.375-3.14 2.438-9.241 4.243-12.776 4.204l-.13.02c-.312.034-.59.046-.964.046-3.055.027-7.883-1.75-12.45-4.008-4.578-2.238-8.968-4.87-11.496-6.496-.277-.195-.652-.223-1.007-.086a1.15 1.15 0 0 0-.602.809c0 .035-1.05 7.707-1.05 14.16 0 .371 0 .758.023 1.117v.012c.152 3.629 1.789 7.058 3.812 9.781 2.074 2.715 4.469 4.742 6.621 5.5l.352-.98-.406.96a4.89 4.89 0 0 0 1.906.387c1.816-.008 3.336-.894 4.398-1.699 1.125-.824 1.778-1.621 1.817-1.656l-.79-.68.716.734 3.328-3.332-.743-.742-.94.473s.94 1.898 1.897 4.055c.477 1.062.97 2.203 1.317 3.168.336.957.531 1.812.512 2.043h.273l-.273-.086v.086h.273l-.273-.086c.02.046-.176.375-.512.77-1.238 1.452-4.176 3.776-6.77 5.675a93.082 93.082 0 0 1-3.37 2.406c-.876.621-1.43.98-1.43.98-.399.29-.567.805-.387 1.278.191.453.68.715 1.137.637l10.003-1.672-.175-1.035-.399-.946c-.02 0-3.336 1.434-6.644 3.172-1.66.88-3.328 1.836-4.617 2.75-.645.446-1.211.88-1.633 1.356-.422.48-.824.941-.86 1.734l.141.695.957-.453-.977.38.524.706c.234.211.586.285.848.278.41 0 .726-.153.984-.25.82-.508 1.504-1.34 2.219-2.055a9.65 9.65 0 0 1 .84-.883l.257-.191h.02l-.258-.493v.54l.258-.047-.258-.493v.54-.836l-.414.695.414.14v-.835l-.414.695.379-.602-.715.215.336.387.379-.602-.715.215.238-.066-.238.054v.012l.238-.066-.238.054v.102c.02.297-.074 1.035-.367 2.148-.457 1.778-1.113 2.739-1.848 3.36-1.097.926-2.523 1.156-4.015 1.469-.715.168-1.512.382-2.184.875-.742.48-1.281 1.312-1.434 2.32-.054.25-.308.789-.718 1.36-1.48 2.105-5.13 5.09-8.47 7.445-1.683 1.175-3.288 2.218-4.558 2.941a24.55 24.55 0 0 1-1.539.86l-.469.195-.085.05.105.47v-.5l-.105.03.105.47v-.5.835l.098-.836h-.098v.836l.098-.836-.118 1.067.235-1.032-.117.496.402-.363-.285-.133-.117.496.402-.363-.27.258.317-.145-.047-.113-.27.258.317-.145-.016-.023-.031-.527c0-.602.11-1.45.11-2.313 0-.582-.036-1.176-.317-1.797l-.941.438.976-.332a1.617 1.617 0 0 0-.805-1.02c-.367-.215-.742-.262-1.074-.262-.789 0-1.547.25-2.316.446-.742.215-1.5.398-2.098.398l-.328-.027-.101 1.047.164-1.047-.442-.094-.07-.027-.113.12.183-.034-.07-.086-.113.12.183-.034-.015-.168c-.02-.25.109-.805.109-1.535 0-.465-.074-.977-.215-1.567l-1.012.278 1.024-.211c-.121-.555-.383-1.047-.809-1.407-.433-.328-.969-.418-1.41-.41-.988.012-1.852.399-2.754.805-.855.418-1.687.879-2.262 1.18l-.043.035-.367.082c-.293-.028-.5-.172-.52-.555 0-.312.137-.785.887-1.383l.043-.015c.375-.352 1.375-.778 2.637-1.11 3.902-.972 10.219-1.234 13.203-1.601h.016c2.414-.426 4.16-2.16 5.61-3.918 1.452-1.785 2.66-3.7 3.66-4.7.304-.304.413-.804.19-1.214-.077-.137-.128-.407-.128-.766 0-.64.187-1.457.207-2.297 0-.426-.04-.926-.395-1.445a1.992 1.992 0 0 0-1.625-.77c-.32 0-.593.051-.886.114l.246 1.02-.184-1.04-.488.04c-.817 0-1.426-.419-2.145-1.161-.73-.71-1.37-1.7-2.39-2.402v-.028c-.293-.168-.59-.336-1.074-.363l-.766.27c-.363.27-.477.601-.55.824l-.063.691c.027 1.047.336 2.5.336 3.63 0 .37-.055.714-.086.917-.297.953-.809 2.184-1.45 3.09-.347.473-.683.836-1.007 1.086-.352.23-.633.312-.926.312l-.121-.015h-.063c-.469 0-.527-.098-.582-.145-.086-.035-.312-.55-.586-1.699-.258-1.148-.597-2.777-1.324-4.988l-.02-.032c-1.527-4.265-3.242-7.875-3.253-14.234 0-2.379.23-5.152.859-8.508.785-3.976 1.113-6.988 1.113-9.543 0-2.691-.383-4.867-.949-6.988-.574-2.156-1.34-4.297-2.121-7.078-.649-2.426-1.531-3.938-2.707-4.824-1.164-.914-2.438-1.04-3.496-1.04-.535 0-.977.032-1.414.032-.508 0-.992-.035-1.371-.156a2.574 2.574 0 0 1-1.082-.715l-.77.695.82-.648c-.543-.684-.675-1.094-.66-1.121h.02c.043-.09.64-.399 1.433-.61.77-.25 1.704-.48 2.586-.926l-.504-.925.446.96c.894-.386 1.433-1.34 1.394-2.21 0-1.305-.746-2.48-1.875-3.497-1.156-1.019-2.75-1.847-4.656-2.167h.023l-.59-.055c-1.468.015-2.59.887-3.495 1.894-1.348 1.528-2.407 3.641-3.336 5.34-.43.856-.856 1.613-1.196 2.086l-.41.453-.016.035.149.325v-.36l-.149.035.149.325v-.36.399l.258-.305-.258-.094v.399l.258-.305-.125-.25c-.055-.18-.075-.465-.075-.797 0-.695.102-1.547.122-2.285-.02-.328-.02-.633-.157-1.035l-.488-.598-.824-.277c-.473.012-.805.187-1.13.402-.991.61-2.323 1.848-4.6 4.32-1.548 1.63-2.715 2.727-3.602 3.399-.856.648-1.446.828-1.594.805h-.039v.035l.02-.035h-.02v.035l.02-.035-.032-.086c-.18-.23-.363-1.164-.39-2.192-.055-1.047 0-2.218-.137-3.238a1.02 1.02 0 0 0-1.063-.953c-3.105.144-5.648 1.258-7.707 2.82-3.078 2.367-5.097 5.672-6.675 8.332-.77 1.313-1.45 2.488-1.996 3.254-.301.383-.547.66-.73.809l-.208.12-.043.016-.016 1.047.079-1.035-.457-.027c-.625 0-1.133.129-1.543.351l-.493.442c-.164.187-.293.363-.312.77l.219.667c.187.258.586.446.879.446.445-.02.605-.207.73-.301.387-.387.484-.7.61-1.207.109-.5.206-1.168.206-2.125 0-.305-.02-.61-.039-.973l-1.043.05 1.043-.019c-.015-1.007-.015-1.683-.058-2.175l-.094-.704-.273-.5c-.153-.21-.551-.406-.848-.398-.59.055-.727.262-.879.36l-.656.632c-.68.73-1.86 1.832-4.067 2.59-1.047.352-1.855.621-2.402.797-.555.176-.867.23-.938.23l-.058.188.11-.168-.052-.02-.058.188.11-.168-.036-.02c-.133-.12-.433-.57-.95-1.23-.558-.676-1.296-1.574-2.48-2.645l-.73.758.73-.75c-1.027-.98-2.007-1.5-3.027-1.508-.746 0-1.39.32-1.848.707-.703.606-1.058 1.348-1.32 1.903-.144.277-.223.527-.289.656l-.059.066v.008l.61.36-.485-.493-.125.133.61.36-.485-.493.684.715v-.992c-.441.012-.605.215-.684.277l.684.715v-.992 1.02l.61-.813-.61-.207v1.02l.61-.813-.536.73.86-.331-.325-.399-.535.73.86-.331-.407.144.426-.09-.02-.054-.406.144.426-.09c-.02-.062-.094-.832-.129-2.129v-.316c0-1.508.367-2.45.95-3.164.87-1.082 2.445-1.77 4.332-2.352 1.902-.601 4-1.093 5.843-2.203l-.531-.898.512.918c.906-.52 1.472-.871 1.879-1.176l.492-.473c.164-.168.34-.433.36-.86 0-.483-.333-.843-.477-.972l-.293-.168-.028-.039-.32.473.422-.36-.102-.113-.32.473.422-.36-.621.54h.804l-.183-.54-.621.54h.804-.687l.66.25.028-.25h-.688l.66.25-.351-.133.312.203.04-.07-.352-.133.312.203.04-.063.179-.187.027-.027c.117-.098.504-.387.992-.711 1.82-1.211 5.473-3.258 8.649-5.137 1.594-.953 3.094-1.852 4.222-2.621.57-.39 1.028-.73 1.418-1.055l.493-.508c.152-.168.297-.351.386-.758l-.035-.511-.476.148h.492l-.016-.148-.476.148h.492-.367l.367.121v-.12h-.367l.367.12-.153-.047.153.055v-.008l-.153-.047.153.055.094-.129c.242-.312 1.046-.887 2.058-1.46 1.496-.9 3.52-1.891 5.348-2.837 1.855-.976 3.465-1.793 4.387-2.707l-.743-.75.707.793c.016-.035.567-.347 1.32-.75 2.333-1.258 7.216-3.804 14.098-8.93h.02c.691-.527 1.375-.742 2.164-.742 1.805-.02 4.32 1.407 6.906 3.77 3.91 3.523 8.055 8.957 11.555 13.55 1.734 2.294 3.332 4.368 4.672 5.942.707.774 1.316 1.434 1.914 1.926.578.48 1.09.867 1.89.96h-.023c.254.04.512.15.844.4 1.168.898 2.398 3.62 3.097 6.054.364 1.23.66 2.398.86 3.223.183.855.3 1.382.3 1.382.02.27.176.512.395.68.238.156.55.23.805.168l-.016-.3.016.3-.016-.3.016.3c.02-.012.195-.039.543-.039.87 0 2.945.164 6.793 1.184h.023c2.844.714 6.36 2.39 9.606 3.945 3.32 1.535 6.343 2.996 8.722 3.246l.098-1.055"/><path style="stroke:none;fill-rule:nonzero;fill:#ee2c30;fill-opacity:1" d="M251.898 216.3s-22.644-21.363-24.074-25.206c-1.281-3.84-3.449-5.887-6.383-4.848-2.824 1.008-11.406 2.176-10.765 4.11.535 1.898 4.219.117 4.219 1.898 0 1.773-4.86 1.023-4.083 4.23.786 3.32 13.817.868 9.715 2.551-4.07 1.676-6.656 3.723-2.043 10.63.801-9.731 6.278-4.106 7.668-2.446 1.305 1.547 5.797 4.23 6.442 6.422.488 2.027-4 4.972 6.511 7.914-2.554 3.98-7.32 1.937-4.988 5.757 2.301 3.844 5.375-1.386 11.149.66-3.196 5.36-3.84 5.755 1.41 5.11 5.222-.5 6.113 6.004 4.851 7.422-1.41 1.398-1.554 12.934-1.02 14.605.645 1.508 1.52-2.949 1.52-2.949s8.715-3.87 15.88-8.722c7.038-4.86-3.063 5.007-3.063 5.007s-2.332 1.535-1.172 2.946c1.172 1.27 5.137 0 9.086-5.25 4.113-5.239 7.84-5.887 7.84-5.887s-6.825 7.156-3.364 10.887c3.477 3.691 7.582.617 7.582.617s3.438 0 5.754 3.465c2.301 3.449 6.38 1.394 7.172.394.762-1.035-4.5-3.734-4.238-6.93.238-3.324 6.523 0 6.894-2.937.387-2.941-6.27-4.61-3.582-11.012 2.72-6.379 6.18 3.59 8.352-3.191 2.023-6.777-4.492.777-3.598-8.824 1.024-9.735 2.043-5.625 2.043-5.625s6.653 8.828 6.524 2.015c-.262-6.765-2.946 0-4.223-6.894-1.41-7.028-2.918-12.164-2.918-12.164s-3.46-7.043-6.426-8.961c-2.828-1.922-10.254-3.328-11.144-1.524-1 1.664-11.871-4.105-13.926-.77-2.2 3.204-.637 7.684-.637 7.684s-2.957 3.063.75 4.36c3.848 1.125 10.117.738 9.485 8.308-.5 7.536-1.696 2.297-1.696 2.297s-3.02-3.453-4.074-1.918c-1.008 1.528-.383 4.235-.383 4.235s-5.246.757-7.425-6.028c-2.305-6.785-.497 8.563-.497 8.563s-7.804-10.09-12.027-10.352c-4.254-.137-3.098 10.352-3.098 10.352"/><path style="stroke:none;fill-rule:nonzero;fill:#231f20;fill-opacity:1" d="m251.898 216.3.711-.76c-.011 0-1.414-1.333-3.539-3.38-3.21-3.09-8.062-7.82-12.246-12.12-2.09-2.153-4.015-4.208-5.445-5.872a47.679 47.679 0 0 1-1.793-2.176c-.422-.61-.719-1.101-.777-1.258l-.985.36 1.008-.313c-.562-1.703-1.285-3.101-2.27-4.156-.953-1.035-2.246-1.715-3.66-1.703-.593 0-1.199.11-1.804.336-1.215.43-3.946.988-6.34 1.597-1.196.333-2.332.688-3.238 1.102-.47.215-.88.445-1.23.77-.325.304-.696.757-.696 1.406l.097.539.985-.317-1 .258c.195.864.945 1.426 1.57 1.575.957.285 1.813.175 2.387.222l.312.047.09.027.133-.297-.277.176.144.121.133-.297-.277.176.312-.183-.367.082.055.101.312-.183-.367.082.18-.047-.18.02v.027l.18-.047-.18.02v.019h.2l-.145-.113-.055.113h.2l-.145-.113-.114.082c-.332.234-1.226.457-2.12.87-.446.204-.923.493-1.313.934-.38.457-.668 1.102-.653 1.79 0 .304.055.597.118.917.199.786.761 1.332 1.367 1.68.894.512 2.015.734 3.168.863 1.176.13 2.43.157 3.523.157.715 0 1.375-.008 1.89-.008.473 0 .845.008 1.04.027l.098.012v-.012.012-.012.012l.203-.703-.403.582.2.12.203-.702-.403.582.559-.797h-.965c0 .394.238.715.406.797l.559-.797h-.965.918l-.68-.633c-.039.059-.238.215-.238.633h.918l-.68-.633.352.316-.262-.386-.09.07.352.316-.262-.386c-.015.008-.187.09-.48.222-1.297.543-2.532 1.118-3.48 1.989a4.702 4.702 0 0 0-1.665 3.629c.035 1.824.848 3.867 2.653 6.562.222.379.683.547 1.117.438.445-.125.742-.493.777-.938.164-2.027.543-3.285.95-3.918.406-.637.624-.664 1.003-.7.446-.01 1.305.38 2.055 1.017.77.585 1.45 1.332 1.82 1.77v-.009c.805.942 2.242 1.957 3.598 3.09.644.555 1.254 1.117 1.738 1.645.477.52.785 1.011.875 1.297l1.016-.297-1.035.242.02.12c0 .177-.11.548-.235 1.013-.164.457-.344 1.082-.344 1.785-.016 1.027.512 2.21 1.734 3.137 1.235.953 3.078 1.804 6.09 2.636l.281-1.02-.863-.562c-.883 1.352-2.004 1.84-3.082 2.25-.55.203-1.101.352-1.61.668-.269.145-.562.36-.76.672-.216.316-.36.723-.34 1.121 0 .738.304 1.371.769 2.176.394.613.82 1.129 1.39 1.46a2.975 2.975 0 0 0 1.692.474c1.097-.008 2.015-.387 3-.696.969-.312 2-.597 3.176-.597.734 0 1.52.125 2.433.43l.356-.977-.946-.536c-.742 1.254-1.351 2.262-1.804 3.07-.426.805-.762 1.372-.797 2.177l.226.84c.278.417.676.62 1.004.722.352.094.703.113 1.067.113.714 0 1.609-.105 2.765-.242l-.105-1.035.078 1.047.48-.04c1.375.028 2.207.602 2.825 1.462.648.89.93 2.105.93 3.027.011.711-.212 1.211-.247 1.211l.785.715-.75-.73c-.511.554-.66 1.136-.859 1.921-.57 2.243-.766 5.973-.766 9.035 0 1.055.036 2.028.09 2.817.07.805.106 1.36.262 1.867l.039.094.336.547c.16.183.496.425.898.41.59-.04.883-.336 1.028-.52.293-.343.406-.687.558-1.05.414-1.098.672-2.504.692-2.536l-1.028-.199.418.95c.043-.008 8.782-3.86 16.043-8.794v-.007c.688-.48 1.211-.786 1.54-.98l.35-.196.063-.012-.152-.543v.555l.152-.012-.152-.543v.555-.914l-.605.691.605.223v-.914l-.605.691.62-.7h-.964l.344.7.62-.7h-.964.578l-.523-.265-.055.266h.578l-.523-.266c-.04.106-.461.668-.961 1.243-.786.917-1.883 2.042-2.766 2.953-.898.879-1.582 1.547-1.602 1.547l.778.757-.586-.879a4.41 4.41 0 0 0-.918.778c-.469.484-1.004 1.148-1.043 2.191 0 .512.195 1.067.566 1.52l.035.039c.536.582 1.286.804 2.024.804 1.207-.007 2.582-.527 4.027-1.527 1.492-1 3.067-2.508 4.649-4.59l-.84-.64.84.648c1.968-2.523 3.789-3.898 5.12-4.648a11.345 11.345 0 0 1 1.552-.73l.382-.11h.106l-.16-1.047-.793-.723c-.024.028-1.14 1.196-2.239 2.871-1.148 1.703-2.34 3.848-2.34 6.133-.019 1.14.34 2.348 1.27 3.309 1.477 1.594 3.18 2.176 4.68 2.164 2.465-.016 4.172-1.367 4.25-1.418l-.61-.832v1.039h.012c.074.008.844.055 1.817.445.953.399 2.07 1.137 3.043 2.563 1.117 1.73 2.824 2.425 4.324 2.386 1.047 0 1.988-.27 2.754-.636.793-.383 1.398-.785 1.793-1.325v-.007c.191-.223.293-.563.293-.844-.016-.473-.176-.785-.348-1.055-.598-.887-1.59-1.664-2.473-2.637-.89-.972-1.496-1.984-1.496-2.761v-.156l.121-.333c.04-.074.098-.148.387-.222.277-.067.695-.094 1.14-.094.547 0 1.133.04 1.743.04.672-.013 1.39-.04 2.047-.317.39-.156.718-.399.996-.739.25-.343.414-.77.472-1.214l.04-.391c-.02-.902-.422-1.664-.887-2.266-.68-.925-1.57-1.738-2.23-2.62-.657-.887-1.122-1.805-1.122-2.997 0-.668.137-1.48.551-2.46.336-.77.644-1.216.863-1.391l.48-.22c.243-.015.813.235 1.458.626.68.371 1.39.879 2.476.91.664.004 1.38-.316 1.88-.871.488-.574.87-1.316 1.198-2.344v-.015c.29-.985.47-1.715.47-2.352 0-.473-.095-.938-.372-1.336a1.722 1.722 0 0 0-.82-.723c-.551-.226-1.016-.226-1.348-.265-.543-.074-.836-.14-1.023-.344-.203-.223-.516-.832-.516-2.434 0-.445.04-.968.055-1.574.293-2.61.586-4.203.804-5.05.118-.438.215-.676.25-.747h-.027.027-.027.027l-.578-.449v.711c.356 0 .551-.219.578-.262l-.578-.449v.711-.738l-.586.476c.02.032.16.246.586.262v-.738l-.586.476.11-.09-.125.075.015.015.11-.09-.125.075.11.203.015.101v.032l.183.375c0 .02.903 1.195 2.04 2.398.609.613 1.218 1.203 1.902 1.703.687.48 1.328.899 2.261.926.657.027 1.442-.426 1.743-1.09.336-.633.449-1.383.468-2.344v-.238c-.109-1.77-.25-2.75-.785-3.539-.402-.617-1.164-.86-1.566-.871-.38 0-.598 0-.727-.008l-.383-.258c-.207-.277-.515-.992-.777-2.363l-.015-.016c-1.415-7.09-2.954-12.261-2.954-12.273l-.074-.156c-.012-.02-.894-1.79-2.12-3.852-1.29-2.039-2.86-4.351-4.657-5.527l-.563.879.575-.867c-2.207-1.473-6.223-2.52-9.145-2.54-.73 0-1.355.055-1.938.235-.613.176-1.207.488-1.558 1.168l.922.48-.875-.566.37.238-.128-.441-.242.203.37.238-.128-.441-.219.02c-.758.027-2.562-.473-4.539-1.04-1.95-.527-4.062-1.094-5.937-1.094-.672 0-1.34.083-1.957.305-.602.235-1.192.649-1.563 1.262l.922.547-.887-.594c-1.074 1.563-1.332 3.352-1.332 4.82 0 2.114.547 3.723.59 3.805l.992-.348-.773-.742c-.02.047-.371.38-.676.895-.328.527-.7 1.27-.719 2.187 0 .582.18 1.23.625 1.77.434.543 1.121.953 1.953 1.238l.036.02c2.011.574 4.316.777 6 1.554.863.387 1.492.88 1.98 1.582.48.696.766 1.657.785 3.14 0 .286-.02.599-.054.942v.02c-.079 1.55-.239 2.523-.344 3.043l-.07.304-.04.086.387.184-.312-.316-.075.132.387.184-.312-.316.59.64v-.847l-.59.207.59.64v-.847.804l.585-.605c-.058-.035-.238-.2-.586-.2v.805l.586-.605-.293.304.313-.238-.02-.066-.293.304.313-.238c-.02-.094-.184-.418-.238-.695l-.133-.379-.04-.129-.214-.488c-.024-.02-.57-.613-1.277-1.262-.372-.32-.801-.648-1.274-.898-.473-.27-.957-.489-1.594-.5-.558-.047-1.285.297-1.62.843v.008c-.634.973-.727 2.067-.735 2.961.008 1.14.223 2.047.223 2.094l1.011-.238-.164-1.047v.008-.008.008-.008l-.316.008a5.304 5.304 0 0 1-2.746-.778c-1.149-.695-2.364-1.96-3.215-4.523v-.012a7.974 7.974 0 0 0-.598-1.492l-.312-.516c-.153-.14-.41-.41-.95-.437a1.137 1.137 0 0 0-.777.297c-.293.285-.347.492-.39.675-.176.52-.196 1.047-.196 1.77 0 3.027.684 8.691.684 8.719l1.058-.13.829-.632c0-.008-1.985-2.563-4.512-5.172-1.281-1.305-2.692-2.629-4.086-3.668-1.395-1.027-2.77-1.82-4.219-1.941h-.133c-.949 0-1.828.441-2.379 1.074-.882.953-1.253 2.203-1.523 3.508-.238 1.304-.277 2.691-.277 3.879 0 1.73.132 3.043.132 3.082l1.043-.13.711-.76-.71.76 1.058-.113s-.035-.296-.09-.804c-.043-.5-.078-1.223-.078-2.035 0-1.493.152-3.258.54-4.54.198-.636.464-1.144.714-1.421.289-.27.492-.38.86-.38h.054l.04-1.058-.075 1.059c.66 0 1.855.582 3.082 1.523 1.883 1.39 3.96 3.52 5.543 5.27.762.867 1.45 1.672 1.914 2.25l.723.902c.293.375.785.5 1.23.336.438-.191.691-.637.633-1.101 0 0-.14-1.415-.336-3.184-.152-1.758-.316-3.914-.316-5.293 0-.5.039-.883.066-1.074l.023-.086-.105-.028.082.028h.023l-.105-.028.082.028-.637-.25.477.48.16-.23-.637-.25.477.48-.656-.652v.934c.289.007.578-.157.656-.282l-.656-.652v.934-.817l-.625.555c.027.02.164.234.625.262v-.817l-.625.555.09-.09-.09.082v.008l.09-.09-.09.082c.027.047.277.527.511 1.285l.989-.34-1.004.313c.968 2.98 2.53 4.73 4.082 5.687 1.562.93 3.074 1.098 3.867 1.098.355 0 .598-.035.644-.035.262-.047.551-.215.696-.453.168-.243.226-.547.168-.832v-.114a5.773 5.773 0 0 1-.196-1.492c0-.691.157-1.414.399-1.785l-.02-.035.02.055v-.02l-.02-.035.02.055-.164-.204.093.243.07-.04-.163-.203.093.243-.039-.125v.125h.04l-.04-.125v.125c.02 0 .274.062.532.218.457.25.988.696 1.394 1.086l.473.461.156.211.781-.71-1.011.234c0 .015.109.476.273.988l.348.805.355.433c.156.168.414.363.863.363.332 0 .606-.12.782-.27.316-.265.402-.526.539-.765.254-.781.437-1.883.582-4.02l-1.035-.066 1.035.075c.039-.38.058-.73.058-1.098 0-1.79-.41-3.215-1.18-4.316-1.097-1.649-2.84-2.442-4.472-2.926-1.684-.453-3.39-.684-4.613-1.043l-.313 1 .332-.985c-.597-.222-.87-.433-1.015-.617l-.14-.418c-.024-.277.14-.715.378-1.074l.332-.418.074-.098.02-.03c.297-.274.37-.684.242-1.083l-.02-.027a10.902 10.902 0 0 1-.468-3.067c0-1.23.265-2.554.996-3.652l.015-.02c.13-.175.243-.296.551-.398.238-.094.664-.168 1.188-.168 1.43-.008 3.488.488 5.402 1.035 1.926.524 3.715 1.067 5.074 1.094.281 0 .57-.035.875-.129.313-.11.668-.316.88-.684l.062-.078-.141-.062.102.11.039-.048-.141-.062.102.11.113-.063c.18-.121.793-.25 1.535-.242 2.39-.008 6.402 1.074 7.96 2.195l.04.02c1.172.73 2.797 2.913 3.973 4.859a43.117 43.117 0 0 1 1.488 2.59c.348.66.55 1.078.574 1.093l.961-.472-1.023.304s.39 1.262.941 3.414c.547 2.133 1.297 5.16 1.973 8.665l1.027-.22-1.027.204c.336 1.8.734 2.86 1.453 3.57.5.547 1.207.73 1.668.781.32.016.582.004.652.016l.082.012.035-.113-.097.085.062.028.035-.113-.097.085.078.09c.094.235.293.946.312 2.305l1.067-.055-1.067.028v.175c.02.782-.09 1.211-.183 1.325l-.035.054.144.11-.078-.157-.066.047.144.11-.078-.157.062.102v-.117l-.062.015.062.102v-.117c-.062.035-.53-.113-1.027-.512-.762-.555-1.687-1.5-2.348-2.266-.351-.382-.62-.75-.828-.992l-.351-.398-.813.633 1.008-.262c0-.035-.043-.266-.21-.602l-.317-.539c-.145-.18-.473-.5-1.024-.507-.316 0-.64.132-.824.285-.308.3-.457.578-.601.918-.41.98-.73 2.707-1.106 6.222a18.025 18.025 0 0 0-.101 1.785c0 1.602.253 2.711.816 3.528.426.61 1.047.96 1.562 1.137.797.242 1.47.207 1.688.269l.074.027.078-.175-.172.093.094.082.078-.175-.172.093v.028l.02.195c0 .297-.117.879-.356 1.738l1.02.309-1-.328c-.293.883-.574 1.37-.77 1.562l-.328.207c-.183.028-.742-.242-1.425-.636-.66-.364-1.465-.883-2.508-.903-.653-.015-1.364.262-1.895.762-.547.5-.969 1.195-1.379 2.129-.504 1.183-.722 2.289-.722 3.277 0 2.387 1.296 4.063 2.394 5.274.531.613 1.024 1.14 1.395 1.593.336.453.449.778.449 1.016v.121l-.063.195-.347.137c-.219.078-.63.098-1.043.098-.531 0-1.137-.02-1.742-.02-.723 0-1.489.02-2.258.367a2.503 2.503 0 0 0-1.02.852c-.273.398-.394.871-.449 1.363v.313c.035 1.992 1.348 3.465 2.469 4.62.535.563 1.074 1.071 1.426 1.474l.378.453.036.062.406-.156h-.418l.012.156.406-.156h-.418.648l-.507-.399-.141.399h.648l-.507-.399.847.637-.847-.637c-.043.067-.457.434-.989.665a4.341 4.341 0 0 1-1.894.457c-.926-.02-1.774-.305-2.578-1.485-1.29-1.914-2.957-2.93-4.239-3.414-1.316-.5-2.312-.5-2.379-.508l-.632.223-.051.027c-.254.176-1.547.98-2.957.953-.988-.015-2.028-.296-3.184-1.488-.476-.539-.664-1.14-.664-1.875-.039-1.476.918-3.437 1.961-4.957.492-.77 1.04-1.418 1.422-1.867l.465-.57.172-.164c.293-.336.37-.817.14-1.223-.218-.379-.652-.613-1.078-.543-.223.035-4.234.812-8.465 6.289v.016c-1.449 1.93-2.922 3.254-4.164 4.117-1.25.847-2.304 1.164-2.86 1.152-.331 0-.444-.097-.464-.11l-.785.716.805-.688-.079-.168c-.02-.062.153-.45.465-.75l.399-.347.117-.102.035-.02.145-.129c0-.007 1.39-1.359 2.804-2.851a35.399 35.399 0 0 0 1.961-2.14c.274-.333.524-.637.703-.907l.262-.434c.04-.148.156-.324.176-.644 0-.227-.117-.613-.39-.863a1.164 1.164 0 0 0-.786-.297c-.336 0-.496.054-.695.148-.528.211-1.215.63-2.293 1.38-3.52 2.374-7.469 4.554-10.504 6.1-1.524.794-2.824 1.407-3.742 1.848-.903.426-1.47.66-1.47.66a1.125 1.125 0 0 0-.597.766s-.015.168-.093.473c-.118.445-.278 1.094-.45 1.61l-.234.546-.04.027.392.278-.254-.38-.137.102.39.278-.253-.38.468.696v-.836l-.468.14.468.696v-.836.836l.61-.594c-.04-.082-.29-.25-.61-.242v.836l.61-.594-.352.336.438-.23-.086-.106-.352.336.438-.23-.086.027.086-.027-.086.027.086-.027-.024-.012-.941.406.984-.312c-.043-.082-.125-.668-.144-1.402a36.536 36.536 0 0 1-.078-2.665c0-1.96.097-4.265.277-6.164.133-.925.238-1.765.41-2.386.055-.309.14-.575.215-.73l.074-.169.043-.047-.117-.093.074.125.043-.032-.117-.093.074.125.078-.055c.617-.723.75-1.633.77-2.633 0-1.332-.371-2.906-1.309-4.219-.89-1.328-2.472-2.37-4.55-2.351l-.688.02h-.024c-1.132.156-2 .238-2.507.238l-.403-.028-.097-.011-.153.402.348-.242-.195-.16-.153.402.348-.242-.41.297h.535l-.125-.297-.41.297h.535-.04.04-.04.04c0-.067.195-.594.594-1.29.406-.73.996-1.695 1.695-2.902.18-.25.195-.594.125-.89a1.127 1.127 0 0 0-.66-.63 9.084 9.084 0 0 0-3.113-.554c-1.508 0-2.786.36-3.82.703-1.024.352-1.848.602-2.356.59l-.61-.149c-.18-.109-.418-.332-.683-.785-.399-.64-.473-1.027-.453-1.074h-.078l.058.02.02-.02h-.078l.058.02-.191-.055.172.102.02-.047-.192-.055.172.102-.094-.047.094.054v-.007l-.094-.047.094.054.113-.074c.332-.191 1.203-.433 2.238-.906 1.024-.484 2.219-1.25 3.125-2.656.172-.29.23-.63.078-.938-.117-.32-.36-.57-.675-.656-2.86-.797-4.532-1.594-5.372-2.258-.824-.684-.902-1.055-.921-1.488 0-.328.117-.723.242-1.176.125-.457.308-.965.308-1.621l-.039-.621-.008-.035c-.261-.797-.777-1.493-1.347-2.13-.88-.964-1.996-1.87-3.004-2.687-1.004-.793-1.926-1.543-2.277-1.98h-.016a14.078 14.078 0 0 0-2.102-2.063c-.937-.722-2.043-1.425-3.367-1.445-1.062-.027-2.172.586-2.824 1.684-.617 1.101-1.023 2.652-1.203 4.851l1.02.086.882-.574c-1.707-2.54-2.312-4.297-2.312-5.406.035-.914.351-1.465.996-2.063.617-.566 1.652-1.11 2.883-1.61.32-.132.558-.25.77-.355l.35-.285c.083-.129.31-.344.329-.824.02-.383-.23-.703-.41-.844-.27-.238-.48-.25-.641-.289-.437-.09-.922-.09-1.574-.09h-1.89c-1.411 0-3.028-.047-4.235-.285-.625-.11-1.137-.277-1.41-.445-.332-.18-.368-.278-.387-.352l-.035-.426c.015-.304.035-.332.234-.539.348-.277 1.137-.543 1.934-.832.398-.148.824-.336 1.219-.648.39-.285.792-.887.769-1.543 0-.399-.117-.852-.394-1.18-.516-.601-1.125-.683-1.555-.738-.742-.066-1.414-.016-1.883-.094l-.387-.11-.054-.058v-.062l-.383.12h.398l-.015-.12-.383.12h.398-.36l.317.188.043-.187h-.36l.317.187h-.023l.023.004v-.004h-.023l.023.004c.028-.09.586-.46 1.371-.738 1.203-.445 2.91-.879 4.551-1.238 1.629-.391 3.164-.743 4.207-1.121v.007a3.077 3.077 0 0 1 1.117-.214c.797.011 1.414.328 2.137 1.039.672.722 1.297 1.879 1.8 3.37v.036c.302.722.84 1.472 1.61 2.472 2.73 3.415 8.375 9.165 13.403 14.094a700.12 700.12 0 0 0 9.316 9.047c.324.305.805.367 1.195.172.399-.2.617-.617.594-1.063l-1.059.114"/><path style="stroke:none;fill-rule:nonzero;fill:#fff30d;fill-opacity:1" d="M300.398 185.078s-5.355 6.008-4.605 8.332c.773 2.305 8.71 14.703 8.71 14.703s2.31-3.308 6.157-1.164c3.965 2.203 5.488.27 3.215-1.758-2.445-1.925-6.805-1.168-7.063-4.23-.12-3.09 0-4.996 1.54-4.227 1.523.778 2.168 4.11 3.32 1.664 1.172-2.304 2.582-5.12 0-5.386-2.567-.242-3.82-1.535-4.98 1.543-1.145 3.082-1.805 3.465-4.352.66-2.426-2.961-3.195-4.867-1.16-4.867 2.183 0 5.12-1.04 3.707-2.696.281-6.656-4.489-2.574-4.489-2.574"/><path style="stroke:none;fill-rule:nonzero;fill:#231f20;fill-opacity:1" d="m300.398 185.078-.765-.703c-.04.02-1.219 1.36-2.426 3.035-.598.852-1.207 1.762-1.695 2.695-.453.942-.817 1.833-.817 2.786 0 .297.012.574.11.851.28.762.914 1.946 1.761 3.461 2.579 4.5 7.04 11.488 7.04 11.496.203.309.542.465.878.477a1.08 1.08 0 0 0 .899-.45l-.067-.035.067.036-.067-.036.067.036c.035-.043.308-.426.82-.786a3.191 3.191 0 0 1 1.914-.648c.543 0 1.207.133 2.012.594 1.355.742 2.516 1.09 3.508 1.101.562 0 1.12-.14 1.61-.492.456-.363.73-.96.714-1.52-.02-.988-.55-1.812-1.41-2.581l-.063-.028c-1.511-1.191-3.343-1.469-4.648-1.879-.68-.191-1.195-.425-1.5-.675-.293-.239-.43-.434-.488-.954l-1.04.102 1.04-.055v-1.48c0-.832.023-1.48.132-1.79l.043-.144.02-.027-.195-.14.097.222.098-.082-.195-.14.097.222-.195-.344v.418l.195-.074-.195-.344v.418-.187l-.04.168.04.02v-.188l-.04.168.141.062h.02c.207.086.645.578 1.012 1.16.203.278.379.563.652.84.258.27.629.64 1.313.668.472.012.906-.266 1.175-.527.258-.266.434-.57.598-.953l-.953-.454.953.461c.313-.664.7-1.425 1.012-2.144.273-.75.52-1.5.52-2.278.003-.546-.137-1.183-.594-1.667-.47-.5-1.102-.73-1.782-.786-1.101-.109-1.926-.48-3.027-.507-.586 0-1.313.203-1.828.703-.516.472-.906 1.125-1.235 2.015-.273.817-.546 1.407-.742 1.684l-.172.195.098.149v-.176l-.098.027.098.149v-.176.055l.012-.055h-.012v.055l.012-.055c-.098.027-.805-.445-1.782-1.543l-.765.71.805-.687c-.707-.859-1.262-1.625-1.61-2.23-.367-.59-.496-1.047-.496-1.11h-.164l.148.075.016-.075h-.164l.148.075-.257-.13.109.298.148-.168-.257-.13.109.298.305-.04c1.02-.007 2.148-.195 3.105-.566a3.957 3.957 0 0 0 1.309-.797c.39-.347.726-.886.726-1.543 0-.574-.273-1.093-.629-1.52l-.804.688 1.062.036.024-.547c-.024-1.395-.22-2.414-.758-3.203-.461-.793-1.387-1.18-2.121-1.145-.95.008-1.73.418-2.328.758a7.985 7.985 0 0 0-1.032.722l-.101.102.765.703.696.79.05-.04a6.55 6.55 0 0 1 .84-.57c.418-.227.868-.383 1.11-.363l.379.21c.172.235.39.852.37 2.036v.464l.262.735.098.152v.02l.137-.028h-.137v.028l.137-.028h-.137.16l-.16-.054v.054h.16l-.16-.054-.219.203c-.53.36-1.804.676-2.804.656-.528.012-1.035.074-1.5.426-.508.344-.73.957-.711 1.472 0 .778.328 1.418.765 2.184.43.75 1.032 1.582 1.801 2.488l.035.07c.61.637 1.118 1.145 1.61 1.536.496.367 1.023.672 1.695.683.39 0 .781-.12 1.11-.351.425-.324.726-.742.968-1.203a9.93 9.93 0 0 0 .703-1.676c.281-.711.531-1.074.684-1.195l.414-.137c.45-.02 1.457.316 2.805.48.37.036.48.13.48.13l.02.242c.015.296-.13.859-.387 1.492-.242.617-.602 1.332-.957 2.015l-.016.008-.215.39.215.212-.097-.25-.118.039.215.21-.097-.25.25.548v-.622l-.25.075.25.547v-.622.52l.293-.445-.293-.075v.52l.293-.445-.04.039.04-.04-.04.04.04-.04c-.075-.054-.41-.507-.739-1-.367-.507-.824-1.117-1.566-1.507v.008c-.356-.176-.692-.285-1.086-.285-.465-.028-.942.195-1.23.507-.454.493-.575 1-.712 1.555a21.26 21.26 0 0 0-.082 1.844c0 .5.024 1.027.036 1.574v.063c.046 1 .59 1.87 1.27 2.406.991.777 2.206 1.027 3.316 1.355 1.113.293 2.168.637 2.859 1.172l.664-.805-.719.786c.309.253.516.511.61.687l.129.313h.144l-.144-.07v.07h.144l-.144-.07.199.109-.14-.168-.06.058.2.11-.14-.168.042.058-.043-.078v.02l.043.058-.043-.078-.316.059c-.465.008-1.336-.196-2.48-.856v.02c-1.079-.61-2.106-.86-3.04-.86-1.445 0-2.558.602-3.328 1.157-.73.578-1.098 1.129-1.144 1.187l.859.578.914-.55c-.02 0-2.02-3.094-4.074-6.47a312.382 312.382 0 0 1-2.965-4.933c-.832-1.453-1.453-2.695-1.59-3.074l-.023-.195c-.024-.317.222-1.047.629-1.825.605-1.183 1.574-2.507 2.378-3.55.391-.512.762-.957.993-1.262.273-.316.414-.473.414-.473l-.782-.703.696.79-.696-.79"/><path style="stroke:none;fill-rule:nonzero;fill:#ee2c30;fill-opacity:1" d="M300.266 195.215s-3.45 3.433-2.137 5.996c1.406 2.426 5.625 3.84 7.039.89 1.258-2.945 6.262-4.601 1.902-6.386-4.468-1.688-6.804-.5-6.804-.5"/><path style="stroke:none;fill-rule:nonzero;fill:#231f20;fill-opacity:1" d="m300.266 195.215-.73-.762c-.02.05-.684.688-1.38 1.668-.633 1.008-1.394 2.324-1.414 3.832 0 .594.153 1.176.403 1.723l.035.082c1.125 1.797 3.183 3.015 5.289 3.047 1.394.039 2.937-.703 3.636-2.23l.008-.052c.313-.753 1.117-1.582 1.926-2.367.41-.394.813-.785 1.184-1.203.304-.441.632-.953.632-1.664.02-.594-.273-1.168-.707-1.574-.445-.39-.957-.688-1.668-.98l-.039-.02c-2.003-.723-3.62-.965-4.84-.965-1.726 0-2.663.465-2.812.52l-.254.183.73.762.489.914-.117-.2.11.212.007-.012-.117-.2.11.212c.03-.02.636-.282 1.855-.29.98.008 2.347.188 4.101.844l.367-.98-.402.969c.562.23.914.445 1.023.566l.094.082.11-.043h-.118l.008.043.11-.043h-.118.036l-.036-.012v.012h.036l-.036-.012c0 .04-.132.262-.336.528-.761.879-2.425 2.054-3.23 3.879l.957.418-.957-.446c-.41.797-.934 1.028-1.742 1.055-1.196.027-2.867-.926-3.465-2.035l-.875.535.918-.461a1.766 1.766 0 0 1-.168-.797c-.027-.77.5-1.832 1.058-2.637.243-.41.563-.777.754-1.011l.258-.285.051-.083-.734-.722.488.914-.488-.914"/><path style="stroke:none;fill-rule:nonzero;fill:#ee2130;fill-opacity:1" d="M287.477 190.348c1.187 0 2.304 1.394 2.304 2.664 0 1.168-1.011 2.203-2.16 2.203-1.156 0-3.469-2.086-3.469-3.34 0-1.18 2.164-1.527 3.325-1.527"/><path style="stroke:none;fill-rule:nonzero;fill:#231f20;fill-opacity:1" d="M287.477 190.348v1.043c.156-.008.503.136.777.492.293.332.496.804.476 1.129l-.335.785-.774.351-.172-.027c-.328-.11-1.004-.582-1.523-1.101l-.57-.758-.141-.387h-.18l.16.07.02-.07h-.18l.16.07-.05-.015.03.023.02-.008-.05-.015.03.023c0-.035.348-.266.86-.379.488-.117 1.05-.191 1.442-.183v-2.102c-.672.012-1.582.094-2.442.379-.414.156-.84.36-1.219.687-.394.317-.73.895-.73 1.52.023.637.281 1.137.555 1.617.433.703 1.066 1.324 1.75 1.824.664.508 1.328.907 2.23.926 1.77-.02 3.184-1.445 3.219-3.23 0-.946-.383-1.825-.977-2.492-.57-.665-1.37-1.211-2.386-1.23v1.058M285.379 205.7c.512.464 1.023 1.16 1.61 1.87.609.696 1.359 1.461 2.476 1.793.594.168 1.156-.125 1.316-.68a1.023 1.023 0 0 0-.691-1.316c-.516-.156-.992-.558-1.5-1.168-.516-.59-1.055-1.37-1.82-2.054a1.04 1.04 0 0 0-1.485.085 1.022 1.022 0 0 0 .094 1.47M283.547 210.246c.508.367 1.039.938 1.66 1.527.598.59 1.316 1.223 2.316 1.563.551.195 1.133-.11 1.36-.664a1.094 1.094 0 0 0-.676-1.324c-.543-.164-1.012-.555-1.562-1.082-.555-.528-1.122-1.16-1.887-1.743a1.096 1.096 0 0 0-1.473.27 1.045 1.045 0 0 0 .262 1.453M281.402 213.605c.22.333.477.872.856 1.434.375.547.98 1.195 1.949 1.418.55.129 1.098-.242 1.23-.797a1.052 1.052 0 0 0-.808-1.258c-.176-.039-.371-.164-.606-.554-.273-.371-.546-.918-.937-1.473-.316-.473-1-.574-1.465-.242-.46.336-.598 1-.219 1.472M286.063 223.777c.402.473.582 1.196 1.035 2.121.449.907 1.304 1.946 2.793 2.536.566.203 1.168-.036 1.39-.59a1.083 1.083 0 0 0-.597-1.364c-1.032-.433-1.336-.878-1.707-1.535-.332-.656-.575-1.586-1.305-2.5-.402-.445-1.043-.5-1.485-.148a.992.992 0 0 0-.125 1.48M283.348 228.11c1.629 1.367 2.894 3.48 5.738 4.769.547.25 1.195 0 1.406-.52a1.07 1.07 0 0 0-.527-1.398c-2.258-.969-3.32-2.73-5.27-4.441-.437-.372-1.054-.333-1.465.109-.375.445-.328 1.113.118 1.48M280.816 230.914c1.207 2.082 3.575 3.992 5.426 5.324.453.32 1.11.23 1.442-.27.351-.452.23-1.128-.235-1.445-1.734-1.21-3.984-3.128-4.816-4.644-.278-.512-.938-.688-1.414-.402a1.057 1.057 0 0 0-.403 1.437"/><path style="stroke:none;fill-rule:nonzero;fill:#0d80c8;fill-opacity:1" d="M232.191 349.957c11.286 9.195 23.41 17.027 36.5 23.781 13.028-6.754 25.204-14.586 36.332-23.781"/><path style="stroke:none;fill-rule:nonzero;fill:#231f20;fill-opacity:1" d="M231.523 350.758c11.356 9.254 23.547 17.09 36.653 23.918.312.16.699.16.98 0 13.086-6.828 25.332-14.664 36.524-23.918l-1.317-1.63c-11.078 9.169-23.16 16.915-36.187 23.708l.523.89.457-.89c-12.988-6.793-25.07-14.54-36.304-23.707l-1.329 1.629M134.441 201.219l.52-1.914 14.344-1.766-.524 1.95-3.746.491-1.61 6.008 2.997 2.305-.488 1.84Zm7.688 3.816 1.309-4.898-6.985.68ZM137.879 189.93l7.742 2.96c1.34.5 2.008.426 2.465.305 1.336-.379 1.984-1.527 2.332-2.386 1.277-3.38-1.367-4.399-2.266-4.739l-7.675-2.945.64-1.676 7.703 2.953c.688.258 2.082.813 2.942 2.286 1.07 1.832.535 3.804.191 4.714-.453 1.172-1.574 3.125-3.687 3.653-.703.168-1.555.234-3.43-.48l-7.625-2.923.668-1.722M156.441 180.488l-10.543-5.312-2.02 4.008-1.401-.723 4.867-9.637 1.41.703-2.024 4.008 10.536 5.313-.825 1.64M150.234 166.742c-.52-1.972.211-3.683.875-4.722 1.98-3.137 5.23-3.84 9.063-1.422 3.004 1.906 5.258 5.015 2.723 9.043-2.442 3.847-5.965 3.375-9.075 1.414-1.277-.813-3.035-2.23-3.586-4.313m8.743 3.867c1.203-.148 2.046-.96 2.617-1.847.578-.926.918-2.008.55-3.16-.55-1.637-2.269-2.868-3.046-3.348-2.559-1.629-5.032-2.012-6.668.57-1.817 2.871.027 5.067 2.336 6.528 1.246.777 2.742 1.418 4.21 1.257M157 153.719l2.09-2.516 10.879 4.07-6.031-9.98 1.933-2.348 10.293 8.477-1.148 1.406-9.27-7.652 6.484 11.031-1.113 1.356-11.898-4.333 9.222 7.583-1.136 1.382L157 153.72M170.906 139.797c-.027-2.035 1.098-3.516 2-4.367 2.68-2.575 6.004-2.453 9.133.832 2.457 2.582 3.887 6.144.434 9.441-3.305 3.137-6.614 1.805-9.133-.844-1.05-1.109-2.406-2.906-2.434-5.062m7.531 5.879c1.204.156 2.227-.43 2.997-1.16.796-.75 1.375-1.727 1.3-2.942-.125-1.703-1.5-3.312-2.136-3.98-2.082-2.184-4.395-3.164-6.618-1.063-2.449 2.332-1.199 4.914.688 6.903 1.004 1.066 2.309 2.054 3.77 2.242M180.668 128.996l3.797-2.918c1.285-.988 2.101-1.406 3.258-1.266.797.09 1.562.481 2.207 1.325 1.34 1.738.41 3.175.035 3.758.75-.297 2.594-1 4.144 1.015a3.572 3.572 0 0 1 .57 3.39c-.363 1.052-1.187 1.677-2.019 2.321l-3.855 2.953Zm4.867 3.379 2.043-1.586c.504-.379 2.2-1.684.922-3.348-1.23-1.601-2.559-.574-3.363.036l-2.125 1.62Zm3.778 4.934 2.503-1.926c1.168-.899 1.614-2.223.684-3.434-.816-1.074-2.145-1.277-3.438-.289l-2.562 1.973 2.813 3.676M191.105 121.32l7.387 11.137 1.531-1.027-7.378-11.118-1.54 1.008M196.172 118.035l1.582-.906 5.832 10.117 5.375-3.094.828 1.426-6.973 4-6.644-11.543M205.453 112.809l7.555-3.594.672 1.433-5.887 2.786 1.785 3.75 5.598-2.657.664 1.391-5.602 2.672 1.907 4 6.015-2.86.695 1.465-7.687 3.653-5.715-12.04M230.879 106.55c-.207-.429-1.004-2.109-3.441-1.323-3.06.992-2.606 4.293-1.934 6.394.766 2.387 2.285 4.758 5.187 3.824.766-.25 1.446-.675 1.817-1.414.293-.633.226-1.215.183-1.52l1.93-.628c.54 2.59-1.43 4.355-3.61 5.05-4.464 1.438-6.597-2.238-7.382-4.69-.852-2.669-1.102-6.997 3.418-8.442 1.793-.574 4.558-.664 5.715 2.136l-1.883.614M234.855 101.7l1.782-.41 2.593 11.425 6.07-1.38.36 1.61-7.847 1.778-2.958-13.024M247.992 99.07l1.004 8.203c.184 1.422.563 1.961.887 2.32.965 1 2.27 1.048 3.191.938 3.574-.437 3.23-3.258 3.113-4.215l-.996-8.136 1.782-.203 1.004 8.164c.082.714.246 2.203-.657 3.66-1.097 1.793-3.086 2.246-4.047 2.367-1.253.14-3.496.062-4.945-1.547-.476-.535-.93-1.258-1.176-3.25l-.996-8.078 1.836-.223M261.402 97.719l4.754-.09c1.621-.04 2.535.105 3.387.898.586.543.965 1.313.996 2.368.035 2.183-1.559 2.796-2.2 3.054.786.203 2.669.711 2.731 3.27.035 1.812-1.11 2.746-1.547 3.05-.91.63-1.945.649-2.984.676l-4.867.106Zm1.903 5.597 2.59-.043c.625-.027 2.77-.074 2.718-2.175-.039-2.016-1.715-1.98-2.73-1.946l-2.664.047Zm.132 6.196 3.149-.055c1.465-.047 2.613-.824 2.578-2.363-.027-1.332-.969-2.285-2.598-2.258l-3.222.066.094 4.61M280.426 98.008l3.844.476c1.777.215 3.863.485 5.113 2.391 1.008 1.527 1.238 3.387 1.02 5.21-.368 2.86-1.782 4.474-2.891 5.157-1.426.914-3.059.723-5.012.473l-3.727-.465Zm.367 11.969 1.797.218c1.277.168 2.594.258 3.57-.297 1.84-1.054 2.18-3.21 2.266-3.988.054-.488.304-2.758-.781-4.273-.72-1.059-1.762-1.41-3.375-1.606l-2.196-.277-1.281 10.223M296.61 100.387l-1.88 8.05c-.316 1.391-.14 2.043.036 2.481.562 1.266 1.777 1.75 2.68 1.973 3.515.804 4.152-1.946 4.37-2.88l1.864-7.988 1.73.399-1.863 8.023c-.16.696-.524 2.157-1.856 3.223-1.656 1.297-3.68 1.027-4.62.812-1.22-.285-3.298-1.117-4.106-3.136-.258-.668-.45-1.508 0-3.453l1.84-7.934 1.804.43M310.27 117.996l7.511 2.844.594-1.535-5.816-2.192 4.144-10.933-1.707-.668-4.726 12.484M327.379 110.559l-3.668 7.414c-.637 1.265-.625 1.941-.55 2.402.269 1.363 1.327 2.121 2.151 2.54 3.231 1.593 4.493-.935 4.918-1.798l3.641-7.336 1.61.785-3.665 7.387c-.316.645-.988 1.977-2.543 2.692-1.902.89-3.82.168-4.68-.258-1.128-.559-2.956-1.864-3.292-3.996-.098-.715-.078-1.579.797-3.375l3.62-7.282 1.66.825M340.676 117.684l.281 6.265 5.797-2.386 1.89 1.214-7.445 2.82.465 8.536-1.976-1.258-.254-6.953-6.508 2.633-1.883-1.196 8.121-3.113-.476-7.848 1.988 1.286M351.234 124.7l6.606 5.195-.977 1.242-5.144-4.059-2.574 3.29 4.89 3.839-.965 1.23-4.89-3.847-2.75 3.484 5.261 4.14-1.011 1.274-6.72-5.281 8.274-10.508M361.2 132.719l2.308 2.293-5.059 10.449 10.469-5.07 2.176 2.148-9.395 9.45-1.289-1.266 8.453-8.528-11.562 5.434-1.242-1.23 5.414-11.434-8.383 8.46-1.29-1.25 9.4-9.456M374.191 146.074l2.993 3.73c1.023 1.274 1.464 2.09 1.34 3.25-.07.794-.446 1.579-1.262 2.231-1.739 1.387-3.188.488-3.793.125.336.762 1.074 2.567-.926 4.168-1.426 1.149-2.86.805-3.39.649-1.055-.344-1.7-1.149-2.356-1.973l-3.059-3.813Zm-8.144 8.836 1.98 2.473c.907 1.14 2.262 1.574 3.461.61 1.04-.84 1.23-2.173.196-3.458l-2.016-2.52Zm4.855-3.887 1.625 2.012c.407.488 1.743 2.172 3.395.86 1.574-1.27.531-2.59-.117-3.38l-1.668-2.081-3.235 2.59M381.816 158.45c2 .363 3.243 1.738 3.903 2.777 2.008 3.117 1.27 6.359-2.547 8.793-2.988 1.921-6.758 2.644-9.324-1.344-2.45-3.832-.516-6.828 2.55-8.801 1.286-.813 3.305-1.805 5.418-1.426m-7.18 6.278c-.39 1.144 0 2.257.575 3.144.582.918 1.418 1.668 2.617 1.82 1.715.207 3.54-.84 4.305-1.332 2.555-1.625 3.933-3.707 2.293-6.273-1.828-2.844-4.57-2.11-6.883-.637-1.219.785-2.445 1.875-2.906 3.278M391.48 171.637l-7.433 3.683c-1.285.621-1.676 1.176-1.887 1.606-.617 1.23-.226 2.488.176 3.32 1.59 3.23 4.14 1.973 5.012 1.547l7.359-3.648.793 1.62-7.398 3.645c-.637.328-2 .985-3.664.606-2.067-.438-3.145-2.176-3.57-3.047-.571-1.13-1.235-3.266-.196-5.176.351-.637.871-1.297 2.683-2.2l7.297-3.613.828 1.657M397.262 184.05l1.664 4.49c.238.632.719 1.952.46 3.081-.222 1.156-1.015 1.953-2.034 2.336-.891.32-1.782.285-2.536-.066-.746-.344-1.128-.832-1.37-1.176.124 1.312-.204 2.047-1.704 2.797-1.406.722-2.445 1.238-3.644 2.238l-.692-1.852c.727-.59 2.192-1.324 3.094-1.804 1.75-.88 2.113-1.5 1.348-3.602l-.82-2.191-5.657 2.09-.629-1.711Zm-4.782 3.677 1.032 2.746c.058.187.43 1.18.875 1.53.222.204.918.638 1.949.259 2.035-.75 1.371-2.547 1.101-3.242l-1.011-2.747-3.946 1.454M400.746 206.258c1.149-.5 1.715-1.676 1.27-3.426-.297-1.223-.88-2.156-1.836-2.64-1.535-.805-3.274-.626-4.493-.313-1.078.277-2.87.973-3.761 2.215-.738 1.082-.719 2.469-.39 3.758.37 1.468.901 2.32 1.132 2.699l3.828-.98-.754-2.942 1.488-.383 1.207 4.73-6.367 1.63c-.437-.684-1.398-2.192-1.957-4.395-.613-2.371-.277-3.941.403-5.09.964-1.594 2.64-2.601 4.464-3.055 1.282-.343 4.407-.789 6.68 1.239 1.192 1.047 1.672 2.718 1.824 3.36.25 1.026.532 2.608-.394 4.155-.61.98-1.348 1.223-1.832 1.39l-.512-1.952"/></svg>