<?xml version="1.0" encoding="UTF-8" standalone="no"?><!DOCTYPE svg PUBLIC "-//W3C//DTD SVG 1.1//EN" "http://www.w3.org/Graphics/SVG/1.1/DTD/svg11.dtd"><svg width="100%" height="100%" viewBox="0 0 310 90" version="1.1" xmlns="http://www.w3.org/2000/svg" xmlns:xlink="http://www.w3.org/1999/xlink" xml:space="preserve" xmlns:serif="http://www.serif.com/" style="fill-rule:evenodd;clip-rule:evenodd;stroke-linejoin:round;stroke-miterlimit:2;"><g><path d="M64.457,75.807c-7.691,5.755 -26.817,11.309 -33.908,-4.11c-1.681,-3.655 -2.772,-7.729 -3.422,-11.926l9.818,-0.017c1.463,0.061 2.804,0.007 4.024,-1.097c2.058,-1.863 2.804,-7.012 2.804,-7.012l-17.39,0c-0.072,-2.095 -0.058,-4.172 0.023,-6.198l14.701,-0.016c1.463,0.061 2.804,0.006 4.024,-1.098c2.058,-1.863 2.804,-7.012 2.804,-7.012l-20.838,0c0.907,-7.729 6.985,-33.378 25.814,-31.006c7.252,0.914 11.883,2.731 17.643,29.503c3.007,13.977 3.007,13.977 5.115,24.492c0.425,2.121 0.815,3.785 0.815,3.785c0,0 -6.859,7.845 -12.027,11.712Zm52.058,-0.552c-4.647,2.701 -10.283,6.969 -16.309,1.928c-5.682,-4.754 -8.451,-23.129 -8.451,-23.129c0,0 10.211,-17.792 13.344,-27.872c3.732,-12.009 4.596,-22.239 1.927,-22.832c-1.236,-0.275 -5.172,-0.08 -7.561,-0.148c-5.189,-0.149 -2.593,8.857 -3.558,18.384c-0.913,9.002 -4.665,17.61 -6.777,21.053c0,0 -1.674,-7.413 -4.047,-13.047c-2.372,-5.634 -8.153,-28.646 -34.84,-29.435c-5.858,-0.173 -14.53,0.673 -22.536,6.455c-10.216,7.378 -16.207,18.68 -17.934,26.39c-0.259,1.156 -0.529,2.628 -0.767,4.336l-0.159,0c-1.463,-0.061 -2.805,-0.006 -4.024,1.098c-2.059,1.863 -2.805,7.011 -2.805,7.011l6.293,0c-0.069,1.983 -0.066,4.072 0.037,6.215l-1.52,0c-1.463,-0.061 -2.804,-0.007 -4.024,1.097c-2.058,1.864 -2.804,7.012 -2.804,7.012l9.251,0c1.022,5.622 2.953,11.143 6.299,15.633c11.713,15.715 24.81,14.677 29.084,14.529c4.275,-0.148 14.439,0.343 25.179,-9.044c8.466,-7.399 9.637,-9.637 9.637,-9.637c0,0 2.97,7.988 6.103,11.991c2.656,3.393 6.647,6.439 14.06,6.713c0,0 7.129,-0.32 11.274,-2.988c4.145,-2.669 9.255,-5.758 9.334,-9.637c0.051,-2.52 -2.269,-2.911 -3.706,-2.076Z" style="fill:#182858;fill-rule:nonzero;"/><path d="M146.975,36.366c-1.481,-4.768 -2.317,-7.465 -2.502,-8.089c-0.187,-0.626 -0.32,-1.12 -0.401,-1.483c-0.332,1.291 -1.285,4.481 -2.858,9.572l5.761,0Zm2.722,9.193l-1.603,-5.262l-8.059,0l-1.603,5.262l-5.05,0l7.802,-22.197l5.73,0l7.834,22.197l-5.051,0Z" style="fill:#182858;fill-rule:nonzero;"/><path d="M173.663,34.415c0,-4.747 -2.095,-7.121 -6.289,-7.121l-2.496,0l0,14.395l2.013,0c4.516,0 6.772,-2.425 6.772,-7.274Zm4.87,-0.121c0,3.64 -1.036,6.426 -3.108,8.362c-2.071,1.935 -5.061,2.903 -8.973,2.903l-6.26,0l0,-22.106l6.94,0c3.609,0 6.41,0.952 8.406,2.858c1.996,1.905 2.995,4.566 2.995,7.983Z" style="fill:#182858;fill-rule:nonzero;"/><path d="M197.538,23.453l4.732,0l-7.515,22.106l-5.11,0l-7.5,-22.106l4.733,0l4.158,13.154c0.232,0.777 0.471,1.682 0.717,2.715c0.248,1.033 0.402,1.751 0.461,2.155c0.111,-0.928 0.49,-2.55 1.136,-4.87l4.188,-13.154Z" style="fill:#182858;fill-rule:nonzero;"/><path d="M217.063,36.366c-1.482,-4.768 -2.317,-7.465 -2.502,-8.089c-0.187,-0.626 -0.321,-1.12 -0.402,-1.483c-0.332,1.291 -1.285,4.481 -2.858,9.572l5.762,0Zm2.721,9.193l-1.602,-5.262l-8.06,0l-1.602,5.262l-5.051,0l7.803,-22.197l5.729,0l7.834,22.197l-5.051,0Z" style="fill:#182858;fill-rule:nonzero;"/><path d="M249.89,45.559l-5.957,0l-9.616,-16.723l-0.136,0c0.19,2.954 0.287,5.06 0.287,6.32l0,10.403l-4.188,0l0,-22.106l5.912,0l9.601,16.557l0.105,0c-0.152,-2.873 -0.226,-4.904 -0.226,-6.094l0,-10.463l4.218,0l0,22.106Z" style="fill:#182858;fill-rule:nonzero;"/><path d="M272.24,45.559l-16.451,0l0,-3.038l10.598,-15.197l-10.312,0l0,-3.871l15.877,0l0,3.024l-10.585,15.212l10.873,0l0,3.87Z" style="fill:#182858;fill-rule:nonzero;"/><rect x="278.256" y="23.453" width="4.687" height="22.106" style="fill:#182858;fill-rule:nonzero;"/><path d="M301.979,36.366c-1.482,-4.768 -2.317,-7.465 -2.502,-8.089c-0.187,-0.626 -0.32,-1.12 -0.402,-1.483c-0.332,1.291 -1.285,4.481 -2.858,9.572l5.762,0Zm2.721,9.193l-1.602,-5.262l-8.06,0l-1.602,5.262l-5.051,0l7.804,-22.197l5.729,0l7.833,22.197l-5.051,0Z" style="fill:#182858;fill-rule:nonzero;"/><path d="M135.953,63.241l0,8.271l4.611,0c1.784,0 3.127,-0.345 4.03,-1.036c0.901,-0.689 1.353,-1.77 1.353,-3.242c0,-1.371 -0.461,-2.38 -1.383,-3.025c-0.923,-0.645 -2.327,-0.968 -4.211,-0.968l-4.4,0Zm0,-2.177l4.233,0c1.814,0 3.12,-0.285 3.916,-0.854c0.797,-0.57 1.195,-1.53 1.195,-2.88c0,-1.241 -0.443,-2.135 -1.33,-2.685c-0.888,-0.549 -2.299,-0.824 -4.235,-0.824l-3.779,0l0,7.243Zm-2.571,-9.465l6.245,0c2.933,0 5.054,0.439 6.365,1.316c1.311,0.877 1.967,2.262 1.967,4.157c0,1.31 -0.366,2.391 -1.096,3.244c-0.732,0.852 -1.798,1.403 -3.199,1.655l0,0.152c3.357,0.574 5.035,2.338 5.035,5.291c0,1.977 -0.667,3.519 -2.004,4.627c-1.335,1.109 -3.202,1.664 -5.602,1.664l-7.711,0l0,-22.106Z" style="fill:#182858;fill-rule:nonzero;"/><path d="M166.23,64.361l-2.571,-6.851c-0.332,-0.866 -0.674,-1.929 -1.028,-3.19c-0.221,0.969 -0.538,2.031 -0.953,3.19l-2.6,6.851l7.152,0Zm3.554,9.344l-2.751,-7.031l-8.863,0l-2.721,7.031l-2.601,0l8.74,-22.198l2.162,0l8.695,22.198l-2.661,0Z" style="fill:#182858;fill-rule:nonzero;"/><path d="M195.367,73.705l-2.933,0l-12.08,-18.553l-0.121,0c0.161,2.178 0.242,4.173 0.242,5.987l0,12.566l-2.375,0l0,-22.106l2.903,0l12.051,18.477l0.121,0c-0.02,-0.273 -0.065,-1.147 -0.135,-2.623c-0.071,-1.477 -0.096,-2.533 -0.076,-3.168l0,-12.686l2.403,0l0,22.106Z" style="fill:#182858;fill-rule:nonzero;"/><path d="M219.472,73.705l-3.023,0l-8.059,-10.72l-2.314,2.056l0,8.664l-2.572,0l0,-22.106l2.572,0l0,10.962l10.025,-10.962l3.038,0l-8.891,9.601l9.224,12.505Z" style="fill:#182858;fill-rule:nonzero;"/></g></svg>