<svg viewBox="0 0 310 90" xmlns="http://www.w3.org/2000/svg" xml:space="preserve" style="fill-rule:evenodd;clip-rule:evenodd;stroke-linejoin:round;stroke-miterlimit:2"><path d="M64.457 75.807c-7.691 5.755-26.817 11.309-33.908-4.11-1.681-3.655-2.772-7.729-3.422-11.926l9.818-.017c1.463.061 2.804.007 4.024-1.097 2.058-1.863 2.804-7.012 2.804-7.012h-17.39a83.578 83.578 0 0 1 .023-6.198l14.701-.016c1.463.061 2.804.006 4.024-1.098 2.058-1.863 2.804-7.012 2.804-7.012H27.097c.907-7.729 6.985-33.378 25.814-31.006 7.252.914 11.883 2.731 17.643 29.503 3.007 13.977 3.007 13.977 5.115 24.492.425 2.121.815 3.785.815 3.785s-6.859 7.845-12.027 11.712Zm52.058-.552c-4.647 2.701-10.283 6.969-16.309 1.928-5.682-4.754-8.451-23.129-8.451-23.129s10.211-17.792 13.344-27.872c3.732-12.009 4.596-22.239 1.927-22.832-1.236-.275-5.172-.08-7.561-.148-5.189-.149-2.593 8.857-3.558 18.384-.913 9.002-4.665 17.61-6.777 21.053 0 0-1.674-7.413-4.047-13.047C82.711 23.958 76.93.946 50.243.157c-5.858-.173-14.53.673-22.536 6.455C17.491 13.99 11.5 25.292 9.773 33.002a54.875 54.875 0 0 0-.767 4.336h-.159c-1.463-.061-2.805-.006-4.024 1.098-2.059 1.863-2.805 7.011-2.805 7.011h6.293a75.282 75.282 0 0 0 .037 6.215h-1.52c-1.463-.061-2.804-.007-4.024 1.097C.746 54.623 0 59.771 0 59.771h9.251c1.022 5.622 2.953 11.143 6.299 15.633 11.713 15.715 24.81 14.677 29.084 14.529 4.275-.148 14.439.343 25.179-9.044 8.466-7.399 9.637-9.637 9.637-9.637s2.97 7.988 6.103 11.991c2.656 3.393 6.647 6.439 14.06 6.713 0 0 7.129-.32 11.274-2.988 4.145-2.669 9.255-5.758 9.334-9.637.051-2.52-2.269-2.911-3.706-2.076ZM146.975 36.366a1498.506 1498.506 0 0 1-2.502-8.089c-.187-.626-.32-1.12-.401-1.483-.332 1.291-1.285 4.481-2.858 9.572h5.761Zm2.722 9.193-1.603-5.262h-8.059l-1.603 5.262h-5.05l7.802-22.197h5.73l7.834 22.197h-5.051ZM173.663 34.415c0-4.747-2.095-7.121-6.289-7.121h-2.496v14.395h2.013c4.516 0 6.772-2.425 6.772-7.274Zm4.87-.121c0 3.64-1.036 6.426-3.108 8.362-2.071 1.935-5.061 2.903-8.973 2.903h-6.26V23.453h6.94c3.609 0 6.41.952 8.406 2.858 1.996 1.905 2.995 4.566 2.995 7.983ZM197.538 23.453h4.732l-7.515 22.106h-5.11l-7.5-22.106h4.733l4.158 13.154c.232.777.471 1.682.717 2.715.248 1.033.402 1.751.461 2.155.111-.928.49-2.55 1.136-4.87l4.188-13.154ZM217.063 36.366a1400.041 1400.041 0 0 1-2.502-8.089 23.055 23.055 0 0 1-.402-1.483c-.332 1.291-1.285 4.481-2.858 9.572h5.762Zm2.721 9.193-1.602-5.262h-8.06l-1.602 5.262h-5.051l7.803-22.197h5.729l7.834 22.197h-5.051ZM249.89 45.559h-5.957l-9.616-16.723h-.136c.19 2.954.287 5.06.287 6.32v10.403h-4.188V23.453h5.912l9.601 16.557h.105c-.152-2.873-.226-4.904-.226-6.094V23.453h4.218v22.106ZM272.24 45.559h-16.451v-3.038l10.598-15.197h-10.312v-3.871h15.877v3.024l-10.585 15.212h10.873v3.87ZM278.256 23.453h4.687v22.106h-4.687zM301.979 36.366a1400.041 1400.041 0 0 1-2.502-8.089 23.74 23.74 0 0 1-.402-1.483c-.332 1.291-1.285 4.481-2.858 9.572h5.762Zm2.721 9.193-1.602-5.262h-8.06l-1.602 5.262h-5.051l7.804-22.197h5.729l7.833 22.197H304.7ZM135.953 63.241v8.271h4.611c1.784 0 3.127-.345 4.03-1.036.901-.689 1.353-1.77 1.353-3.242 0-1.371-.461-2.38-1.383-3.025-.923-.645-2.327-.968-4.211-.968h-4.4Zm0-2.177h4.233c1.814 0 3.12-.285 3.916-.854.797-.57 1.195-1.53 1.195-2.88 0-1.241-.443-2.135-1.33-2.685-.888-.549-2.299-.824-4.235-.824h-3.779v7.243Zm-2.571-9.465h6.245c2.933 0 5.054.439 6.365 1.316s1.967 2.262 1.967 4.157c0 1.31-.366 2.391-1.096 3.244-.732.852-1.798 1.403-3.199 1.655v.152c3.357.574 5.035 2.338 5.035 5.291 0 1.977-.667 3.519-2.004 4.627-1.335 1.109-3.202 1.664-5.602 1.664h-7.711V51.599ZM166.23 64.361l-2.571-6.851c-.332-.866-.674-1.929-1.028-3.19a28.042 28.042 0 0 1-.953 3.19l-2.6 6.851h7.152Zm3.554 9.344-2.751-7.031h-8.863l-2.721 7.031h-2.601l8.74-22.198h2.162l8.695 22.198h-2.661ZM195.367 73.705h-2.933l-12.08-18.553h-.121c.161 2.178.242 4.173.242 5.987v12.566H178.1V51.599h2.903l12.051 18.477h.121c-.02-.273-.065-1.147-.135-2.623-.071-1.477-.096-2.533-.076-3.168V51.599h2.403v22.106ZM219.472 73.705h-3.023l-8.059-10.72-2.314 2.056v8.664h-2.572V51.599h2.572v10.962l10.025-10.962h3.038l-8.891 9.601 9.224 12.505Z" style="fill:#182858;fill-rule:nonzero"/></svg>