<svg viewBox="0 0 262 222" xmlns="http://www.w3.org/2000/svg" xml:space="preserve" style="fill-rule:evenodd;clip-rule:evenodd;stroke-linejoin:round;stroke-miterlimit:2"><path d="M129.809 2.362v170.404h2.588V.085h-2.588v2.277Zm9.981 160.433v9.971h2.588V111.86a84.07 84.07 0 0 1-2.588-10.561v61.496Zm9.982 3.246v6.725h2.588v-39.905a84.535 84.535 0 0 1-2.588-4.188v37.368ZM139.79 6.518v65.034a84.07 84.07 0 0 1 2.588-10.561V.085h-2.588v6.433Zm9.982-6.433v44.092a84.972 84.972 0 0 1 2.588-4.187V.085h-2.588ZM76.198 97.357 32.581.196h-2.587l44.917 100.058-3.761 8.462L22.6.196h-2.588l49.849 111.423-3.667 8.253L12.619.196h-2.588l54.874 122.577-3.678 8.275L22.6 44.78v-.033h-.015L2.637.196H.049v172.57h2.588V5.975l7.396 16.518h-.002v150.273h2.588V28.267l7.393 16.513v127.986H22.6V50.56L30 67.086h-.006v105.68h2.587V72.852l27.357 61.096h2.588l4.941-11.12h.05l-.024-.055 4.897-11.022h.117l-.058-.132L119.828 5.92v16.9L64.929 145.039h2.588l52.311-116.574V45.51L69.92 156.352h2.587l47.321-105.091V67.37L74.911 167.442h2.587l42.33-94.483v99.807h2.587V.085h-2.435L76.198 97.357Z" style="fill:#f07c24;fill-rule:nonzero"/><path d="m10.031 30.908 2.588 7.661V28.351a6861.51 6861.51 0 0 0-2.588-5.737v8.294ZM.05 1.635l2.587 9.61V6.306A633.547 633.547 0 0 0 .05.694v.941Zm29.944 65.376v15.948l2.588 7.012V72.783l-2.588-5.772m-9.982-10.078 2.588 7.662V50.538l-2.588-5.759v12.154Z" style="fill:#7a3e00;fill-rule:nonzero"/><path d="M222.771 168.233c-44.956 0-81.531-36.575-81.531-81.532 0-.093.004-.184.004-.276 0-.092-.004-.184-.004-.276 0-44.958 36.575-81.533 81.531-81.533 13.129 0 25.54 3.124 36.536 8.66l1.367-2.468c-11.402-5.76-24.279-9.011-37.903-9.011-46.511 0-84.351 37.84-84.351 84.352 0 .092.003.184.004.276-.001.092-.004.183-.004.276 0 46.511 37.84 84.351 84.351 84.351 13.624 0 26.501-3.251 37.903-9.01l-1.367-2.468c-10.996 5.536-23.407 8.659-36.536 8.659" style="fill:#f07c24;fill-rule:nonzero"/><path d="M222.771 33.21a52.632 52.632 0 0 1 22.666 5.104l1.369-2.471a55.424 55.424 0 0 0-24.035-5.452c-30.745 0-55.758 25.013-55.758 55.758 0 .092.003.184.004.276-.001.093-.004.184-.004.277 0 30.744 25.013 55.757 55.758 55.757a55.438 55.438 0 0 0 24.035-5.451l-1.369-2.472a52.618 52.618 0 0 1-22.666 5.105c-29.19 0-52.938-23.749-52.938-52.939 0-.093.004-.184.004-.277 0-.092-.004-.184-.004-.276 0-29.19 23.748-52.939 52.938-52.939" style="fill:#f07c24;fill-rule:nonzero"/><path d="M251.51 27.351a65.06 65.06 0 0 0-28.739-6.657c-36.092 0-65.455 29.363-65.455 65.455 0 .092.006.183.006.276 0 .093-.006.184-.006.277 0 36.091 29.363 65.454 65.455 65.454a65.047 65.047 0 0 0 28.739-6.657l-1.367-2.468a62.26 62.26 0 0 1-27.372 6.306c-34.537 0-62.635-28.098-62.635-62.635 0-.093.005-.184.005-.277 0-.093-.005-.184-.005-.276 0-34.538 28.098-62.636 62.635-62.636a62.26 62.26 0 0 1 27.372 6.306l1.367-2.468Z" style="fill:#f07c24;fill-rule:nonzero"/><path d="M256.214 18.862a74.695 74.695 0 0 0-33.442-7.865c-41.439 0-75.152 33.713-75.152 75.152 0 .092.003.184.004.276-.001.093-.004.184-.004.277 0 41.439 33.713 75.151 75.152 75.151a74.682 74.682 0 0 0 33.442-7.865l-1.367-2.467a71.898 71.898 0 0 1-32.075 7.513c-39.884 0-72.332-32.448-72.332-72.332 0-.093.003-.184.003-.277l-.003-.276c0-39.884 32.448-72.332 72.332-72.332a71.898 71.898 0 0 1 32.075 7.513l1.367-2.468Z" style="fill:#f07c24;fill-rule:nonzero"/><path d="M149.769 139.428a94.113 94.113 0 0 0 2.588 3.476v-10.469a83.79 83.79 0 0 1-2.588-4.188v11.181Zm-9.981-17.669a96.052 96.052 0 0 0 2.586 5.473v-15.799a83.98 83.98 0 0 1-2.586-10.561v20.887Zm0-50.633a84.065 84.065 0 0 1 2.586-10.561V44.888a99.932 99.932 0 0 0-2.586 5.583v20.655Zm-7.391 39.391V62.303c-.44 4.464-1.22 8.864-1.406 13.373-.489 11.785.167 23.368 1.406 34.841m17.372-78.058v11.292a83.76 83.76 0 0 1 2.588-4.187V28.932a93.592 93.592 0 0 0-2.588 3.527M119.828 5.92l.162-5.844-1.878 9.671 1.716-3.827ZM119.837 28.501v-5.69l-2.759 6.122v5.729l2.759-6.161ZM119.817 51.253v-5.69l-5.445 12.063.04 5.663 5.405-12.036ZM119.807 73l.021-5.63-8.334 18.567v5.61L119.807 73ZM61.227 131.048l-1.289 2.9-.293-6.434 1.582 3.534ZM66.194 119.872l-1.289 2.901-1.549-3.425v-5.781l2.838 6.305ZM71.15 108.716l-1.289 2.902-3.145-6.941v-5.784l4.434 9.823ZM76.198 97.356l-1.287 2.897-5.313-11.796v-5.765l6.6 14.664Z" style="fill:#7a3e00;fill-rule:nonzero"/><path d="M192.755 196.202h-2.49v7.137h2.537c2.467 0 3.889-1.376 3.889-3.723s-1.447-3.414-3.936-3.414m-36.171-.096c-2.702 0-4.553 2.158-4.553 6.688 0 4.813 1.827 6.685 4.553 6.685 2.87 0 4.459-1.872 4.459-6.685 0-4.506-1.851-6.688-4.459-6.688m60.525 14.132c-1.421.617-3.224 1.091-5.381 1.091-4.671 0-7.351-2.679-7.351-8.417 0-6.094 3.226-8.655 7.612-8.655 1.945 0 3.248.26 4.648.688v1.778c-1.494-.308-2.798-.521-4.316-.521-3.533 0-5.738 1.896-5.738 6.71 0 4.576 1.897 6.497 5.382 6.497 1.28 0 2.157-.166 3.272-.569v-4.482h-3.959v-1.755h5.832v7.635Zm-19.969.855-3.225-6.047a6.312 6.312 0 0 1-.948.071h-2.703v5.976h-2.11v-16.598h4.836c3.534 0 5.833 1.707 5.833 5.05 0 2.157-1.137 4.007-3.082 4.956l3.889 6.592h-2.49Zm-15.631-5.596c0 4.03-2.443 5.832-6.212 5.832-3.746 0-6.094-1.825-6.094-5.81v-11.024h2.133v11.167c0 2.537 1.565 3.747 3.96 3.747 2.371 0 4.126-1.186 4.126-3.77v-11.144h2.086v11.002Zm-24.925 5.832c-3.96 0-6.806-2.418-6.806-8.535 0-5.738 2.823-8.537 6.783-8.537 4.006 0 6.71 2.799 6.71 8.537 0 6.046-2.679 8.535-6.687 8.535m-17.123-.236h-5.881v-16.598h5.738c2.846 0 4.245 1.304 4.245 3.793 0 1.352-.522 2.206-1.114 2.821l-1.067 1.114c1.803.452 3.178 1.708 3.178 4.151 0 3.058-1.851 4.719-5.099 4.719m-12.526 0h-2.038l.236-13.848h-.284l-4.696 12.093h-2.133l-4.671-12.093h-.261l.213 13.848h-2.015v-16.598h3.154l4.576 12.613h.237l4.647-12.613h3.035v16.598Zm-21.581 0H95.3v-16.598h9.983l-.001 1.968H97.41v5.168h6.615l-.189 1.921H97.41v5.572h7.944v1.969Zm-17.764 0-3.983-7.399h-.522l-4.079 7.399h-2.584l4.978-8.442-4.575-8.156h2.395l3.865 7.255h.546l3.864-7.255h2.371l-4.67 8.18 5.002 8.418h-2.607Zm-16.152-5.596c0 4.03-2.443 5.832-6.213 5.832-3.746 0-6.094-1.825-6.094-5.81v-11.024h2.134v11.167c0 2.537 1.566 3.747 3.96 3.747 2.371 0 4.127-1.186 4.127-3.77v-11.144h2.086v11.002Zm-17.527 5.596h-9.413v-16.598h2.11v14.724h7.303v1.874ZM.049 220.071h261.51v-34.557H.049v34.557Zm140.738-19.483c.404-.426.784-1.068.784-2.015 0-1.589-.784-2.371-2.751-2.371h-3.272v5.596h4.054l1.185-1.21Zm-1.327 2.751h-3.912v6.07h3.769c2.04 0 3.178-.878 3.178-3.059 0-2.229-1.351-3.011-3.035-3.011" style="fill:#f07c24;fill-rule:nonzero"/><path style="fill:#7a3e00" d="M.049 218.854h261.51v2.436H.049z"/></svg>