<?xml version="1.0" encoding="UTF-8" standalone="no"?><!DOCTYPE svg PUBLIC "-//W3C//DTD SVG 1.1//EN" "http://www.w3.org/Graphics/SVG/1.1/DTD/svg11.dtd"><svg width="100%" height="100%" viewBox="0 0 262 222" version="1.1" xmlns="http://www.w3.org/2000/svg" xmlns:xlink="http://www.w3.org/1999/xlink" xml:space="preserve" xmlns:serif="http://www.serif.com/" style="fill-rule:evenodd;clip-rule:evenodd;stroke-linejoin:round;stroke-miterlimit:2;"><g id="Layer-1" serif:id="Layer 1"><path d="M129.809,2.362l0,170.404l2.588,0l0,-2.434l0,-10.893l0,-157.077l0,-2.277l-2.588,0l0,2.277Zm9.981,160.433l0,9.971l2.588,0l0,-2.434l0,-6.558l0,-51.914c-1.08,-3.432 -1.949,-6.957 -2.588,-10.561l0,61.496Zm9.982,3.246l0,6.725l2.588,0l0,-2.434l0,-3.674l0,-33.797c-0.901,-1.37 -1.766,-2.764 -2.588,-4.188l0,37.368Zm-9.982,-159.523l0,65.034c0.639,-3.604 1.508,-7.129 2.588,-10.561l0,-54.473l0,-6.433l-2.588,0l0,6.433Zm9.982,-6.433l0,44.092c0.822,-1.423 1.687,-2.817 2.588,-4.187l0,-5.334l0,-2.994l0,-7.24l0,-2.942l0,-7.139l0,-2.911l0,-6.568l0,-2.5l0,-0.385l0,-1.892l-2.588,0Zm-73.574,97.272l-43.617,-97.161l-2.587,0l44.917,100.058l-3.761,8.462l-48.55,-108.52l-2.588,0l49.849,111.423l-3.667,8.253l-53.575,-119.676l-2.588,0l54.874,122.577l-3.678,8.275l-38.627,-86.268l0,-0.033l-0.015,0l-19.948,-44.551l-2.588,0l0,172.57l2.588,0l0,-166.791l7.396,16.518l-0.002,0l0,150.273l2.588,0l0,-144.499l7.393,16.513l0,127.986l2.588,0l0,-122.206l7.4,16.526l-0.006,0l0,105.68l2.587,0l0,-99.914l27.357,61.096l2.588,0l4.941,-11.12l0.05,0l-0.024,-0.055l4.897,-11.022l0.117,0l-0.058,-0.132l47.379,-105.699l0,16.9l-54.899,122.219l2.588,0l52.311,-116.574l0,17.045l-49.908,110.842l2.587,0l47.321,-105.091l0,16.109l-44.917,100.072l2.587,0l42.33,-94.483l0,99.807l2.587,0l0,-2.434l0,-16.916l0,-135.586l0,-15.468l0,-2.277l-2.435,0l-43.782,97.272Z" style="fill:#f07c24;fill-rule:nonzero;"/><path d="M10.031,30.908l2.588,7.661l0,-10.218c-0.883,-1.959 -1.748,-3.878 -2.588,-5.737l0,8.294Zm-9.981,-29.273l2.587,9.61l0,-4.939c-1.12,-2.451 -2.006,-4.377 -2.587,-5.612l0,0.941Zm29.944,65.376l0,15.948l2.588,7.012l0,-17.188c-0.778,-1.735 -1.647,-3.674 -2.588,-5.772m-9.982,-10.078l2.588,7.662l0,-14.057c-0.851,-1.895 -1.716,-3.82 -2.588,-5.759l0,12.154Z" style="fill:#7a3e00;fill-rule:nonzero;"/><path d="M222.771,168.233c-44.956,0 -81.531,-36.575 -81.531,-81.532c0,-0.093 0.004,-0.184 0.004,-0.276c0,-0.092 -0.004,-0.184 -0.004,-0.276c0,-44.958 36.575,-81.533 81.531,-81.533c13.129,0 25.54,3.124 36.536,8.66l1.367,-2.468c-11.402,-5.76 -24.279,-9.011 -37.903,-9.011c-46.511,0 -84.351,37.84 -84.351,84.352c0,0.092 0.003,0.184 0.004,0.276c-0.001,0.092 -0.004,0.183 -0.004,0.276c0,46.511 37.84,84.351 84.351,84.351c13.624,0 26.501,-3.251 37.903,-9.01l-1.367,-2.468c-10.996,5.536 -23.407,8.659 -36.536,8.659" style="fill:#f07c24;fill-rule:nonzero;"/><path d="M222.771,33.21c8.106,0 15.791,1.834 22.666,5.104l1.369,-2.471c-7.282,-3.493 -15.433,-5.452 -24.035,-5.452c-30.745,0 -55.758,25.013 -55.758,55.758c0,0.092 0.003,0.184 0.004,0.276c-0.001,0.093 -0.004,0.184 -0.004,0.277c0,30.744 25.013,55.757 55.758,55.757c8.602,0 16.753,-1.959 24.035,-5.451l-1.369,-2.472c-6.875,3.271 -14.56,5.105 -22.666,5.105c-29.19,0 -52.938,-23.749 -52.938,-52.939c0,-0.093 0.004,-0.184 0.004,-0.277c0,-0.092 -0.004,-0.184 -0.004,-0.276c0,-29.19 23.748,-52.939 52.938,-52.939" style="fill:#f07c24;fill-rule:nonzero;"/><path d="M251.51,27.351c-8.681,-4.26 -18.435,-6.657 -28.739,-6.657c-36.092,0 -65.455,29.363 -65.455,65.455c0,0.092 0.006,0.183 0.006,0.276c0,0.093 -0.006,0.184 -0.006,0.277c0,36.091 29.363,65.454 65.455,65.454c10.304,0 20.058,-2.396 28.739,-6.657l-1.367,-2.468c-8.275,4.037 -17.563,6.306 -27.372,6.306c-34.537,0 -62.635,-28.098 -62.635,-62.635c0,-0.093 0.005,-0.184 0.005,-0.277c0,-0.093 -0.005,-0.184 -0.005,-0.276c0,-34.538 28.098,-62.636 62.635,-62.636c9.809,0 19.097,2.269 27.372,6.306l1.367,-2.468Z" style="fill:#f07c24;fill-rule:nonzero;"/><path d="M256.214,18.862c-10.078,-5.029 -21.435,-7.865 -33.442,-7.865c-41.439,0 -75.152,33.713 -75.152,75.152c0,0.092 0.003,0.184 0.004,0.276c-0.001,0.093 -0.004,0.184 -0.004,0.277c0,41.439 33.713,75.151 75.152,75.151c12.007,0 23.364,-2.835 33.442,-7.865l-1.367,-2.467c-9.672,4.805 -20.563,7.513 -32.075,7.513c-39.884,0 -72.332,-32.448 -72.332,-72.332c0,-0.093 0.003,-0.184 0.003,-0.277c0,-0.092 -0.003,-0.184 -0.003,-0.276c0,-39.884 32.448,-72.332 72.332,-72.332c11.512,0 22.403,2.708 32.075,7.513l1.367,-2.468Z" style="fill:#f07c24;fill-rule:nonzero;"/><path d="M149.769,139.428c0.897,1.263 1.769,2.429 2.588,3.476l0,-10.469c-0.901,-1.37 -1.767,-2.764 -2.588,-4.188l0,11.181Zm-9.981,-17.669c0.83,1.916 1.699,3.734 2.586,5.473l0,-15.799c-1.079,-3.431 -1.948,-6.956 -2.586,-10.561l0,20.887Zm0,-50.633c0.638,-3.604 1.507,-7.129 2.586,-10.561l0,-15.677c-0.886,1.768 -1.753,3.629 -2.586,5.583l0,20.655Zm-7.391,39.391l0,-48.214c-0.44,4.464 -1.22,8.864 -1.406,13.373c-0.489,11.785 0.167,23.368 1.406,34.841m17.372,-78.058l0,11.292c0.821,-1.423 1.687,-2.818 2.588,-4.187l0,-5.334l0,-2.994l0,-2.304c-0.81,1.052 -1.676,2.221 -2.588,3.527" style="fill:#7a3e00;fill-rule:nonzero;"/><path d="M119.828,5.92l0.162,-5.844l-1.878,9.671l1.716,-3.827Z" style="fill:#7a3e00;fill-rule:nonzero;"/><path d="M119.837,28.501l0,-5.69l-2.759,6.122l0,5.729l2.759,-6.161Z" style="fill:#7a3e00;fill-rule:nonzero;"/><path d="M119.817,51.253l0,-5.69l-5.445,12.063l0.04,5.663l5.405,-12.036Z" style="fill:#7a3e00;fill-rule:nonzero;"/><path d="M119.807,73l0.021,-5.63l-8.334,18.567l0,5.61l8.313,-18.547Z" style="fill:#7a3e00;fill-rule:nonzero;"/><path d="M61.227,131.048l-1.289,2.9l-0.293,-6.434l1.582,3.534Z" style="fill:#7a3e00;fill-rule:nonzero;"/><path d="M66.194,119.872l-1.289,2.901l-1.549,-3.425l0,-5.781l2.838,6.305Z" style="fill:#7a3e00;fill-rule:nonzero;"/><path d="M71.15,108.716l-1.289,2.902l-3.145,-6.941l0,-5.784l4.434,9.823Z" style="fill:#7a3e00;fill-rule:nonzero;"/><path d="M76.198,97.356l-1.287,2.897l-5.313,-11.796l0,-5.765l6.6,14.664Z" style="fill:#7a3e00;fill-rule:nonzero;"/><path d="M192.755,196.202l-2.49,0l0,7.137l2.537,0c2.467,0 3.889,-1.376 3.889,-3.723c0,-2.347 -1.447,-3.414 -3.936,-3.414m-36.171,-0.096c-2.702,0 -4.553,2.158 -4.553,6.688c0,4.813 1.827,6.685 4.553,6.685c2.87,0 4.459,-1.872 4.459,-6.685c0,-4.506 -1.851,-6.688 -4.459,-6.688m60.525,14.132c-1.421,0.617 -3.224,1.091 -5.381,1.091c-4.671,0 -7.351,-2.679 -7.351,-8.417c0,-6.094 3.226,-8.655 7.612,-8.655c1.945,0 3.248,0.26 4.648,0.688l0,1.778c-1.494,-0.308 -2.798,-0.521 -4.316,-0.521c-3.533,0 -5.738,1.896 -5.738,6.71c0,4.576 1.897,6.497 5.382,6.497c1.28,0 2.157,-0.166 3.272,-0.569l0,-4.482l-3.959,0l0,-1.755l5.832,0l0,7.635Zm-19.969,0.855l-3.225,-6.047c-0.332,0.048 -0.617,0.071 -0.948,0.071l-2.703,0l0,5.976l-2.11,0l0,-16.598l4.836,0c3.534,0 5.833,1.707 5.833,5.05c0,2.157 -1.137,4.007 -3.082,4.956l3.889,6.592l-2.49,0Zm-15.631,-5.596c0,4.03 -2.443,5.832 -6.212,5.832c-3.746,0 -6.094,-1.825 -6.094,-5.81l0,-11.024l2.133,0l0,11.167c0,2.537 1.565,3.747 3.96,3.747c2.371,0 4.126,-1.186 4.126,-3.77l0,-11.144l2.086,0l0,11.002Zm-24.925,5.832c-3.96,0 -6.806,-2.418 -6.806,-8.535c0,-5.738 2.823,-8.537 6.783,-8.537c4.006,0 6.71,2.799 6.71,8.537c0,6.046 -2.679,8.535 -6.687,8.535m-17.123,-0.236l-5.881,0l0,-16.598l5.738,0c2.846,0 4.245,1.304 4.245,3.793c0,1.352 -0.522,2.206 -1.114,2.821l-1.067,1.114c1.803,0.452 3.178,1.708 3.178,4.151c0,3.058 -1.851,4.719 -5.099,4.719m-12.526,0l-2.038,0l0.236,-13.848l-0.284,0l-4.696,12.093l-2.133,0l-4.671,-12.093l-0.261,0l0.213,13.848l-2.015,0l0,-16.598l3.154,0l4.576,12.613l0.237,0l4.647,-12.613l3.035,0l0,16.598Zm-21.581,0l-10.054,0l0,-16.598l9.983,0l-0.001,1.968l-7.872,0l0,5.168l6.615,0l-0.189,1.921l-6.426,0l0,5.572l7.944,0l0,1.969Zm-17.764,0l-3.983,-7.399l-0.522,0l-4.079,7.399l-2.584,0l4.978,-8.442l-4.575,-8.156l2.395,0l3.865,7.255l0.546,0l3.864,-7.255l2.371,0l-4.67,8.18l5.002,8.418l-2.607,0Zm-16.152,-5.596c0,4.03 -2.443,5.832 -6.213,5.832c-3.746,0 -6.094,-1.825 -6.094,-5.81l0,-11.024l2.134,0l0,11.167c0,2.537 1.566,3.747 3.96,3.747c2.371,0 4.127,-1.186 4.127,-3.77l0,-11.144l2.086,0l0,11.002Zm-17.527,5.596l-9.413,0l0,-16.598l2.11,0l0,14.724l7.303,0l0,1.874Zm-53.862,8.978l261.51,0l0,-34.557l-261.51,0l0,34.557Zm140.738,-19.483c0.404,-0.426 0.784,-1.068 0.784,-2.015c0,-1.589 -0.784,-2.371 -2.751,-2.371l-3.272,0l0,5.596l4.054,0l1.185,-1.21Zm-1.327,2.751l-3.912,0l0,6.07l3.769,0c2.04,0 3.178,-0.878 3.178,-3.059c0,-2.229 -1.351,-3.011 -3.035,-3.011" style="fill:#f07c24;fill-rule:nonzero;"/><rect x="0.049" y="218.854" width="261.51" height="2.436" style="fill:#7a3e00;"/></g></svg>