<svg viewBox="0 0 115 111" xmlns="http://www.w3.org/2000/svg" xml:space="preserve" style="fill-rule:evenodd;clip-rule:evenodd;stroke-linecap:round;stroke-linejoin:round;stroke-miterlimit:10"><path d="m78.3 101.833 2.744 5.711H2.945v-5.711H78.3ZM94.035 107.544h18.334v-5.711H95.301l-1.266 5.711ZM96.33 41.448v55.507h16.039v-8.57h-7.251V41.448H96.33Z" style="fill:#fff;fill-rule:nonzero;stroke:#000;stroke-width:1.68px"/><path d="M87.797 110.054c1.083-.563 1.546-3.604 2.013-6.633-.104-17.808-1.563-35.261.949-53.425 2.821-9.917-.541-14.109-9.833-8.885-4.597 1.816-3.471 11.804-3.791 21.559.666 1.458-3.095 22.985 10.662 47.384ZM83.223 26.441c-2.617-2.441-2.793-2.662-3.76-4.703-1.042-2.2-1.124-2.727-1.064-6.862l.052-3.577.698-1.505c.385-.829.79-1.995.901-2.593.343-1.864.638-2.774 1.006-3.107.303-.275.715-.338 2.807-.426 1.346-.058 2.6-.165 2.784-.239.184-.074.807-.43 1.383-.791 1.281-.804 2.06-.927 3.452-.551 1.996.541 2.935 1.761 2.94 3.824.007 1.676-.412 3.092-1.352 4.58-.448.711-.938 1.636-1.086 2.054-.15.419-.345.965-.437 1.214-.092.248-.497.956-.901 1.572-.67 1.02-.736 1.214-.736 2.156 0 .719.154 1.482.501 2.485.418 1.206.502 1.709.502 3.003 0 1.777-.333 3.268-.927 4.172-.668 1.014-1.096 1.2-2.935 1.273 0 0-1.462.139-1.634.066-.173-.073-2.194-2.045-2.194-2.045Z" style="fill:#ff7f2a;fill-rule:nonzero;stroke:#000;stroke-width:1.68px;stroke-linecap:butt"/><path d="m57.877 41.448-.001 55.507h14.722l.001-7.909h-5.934V70.148h5.933v-7.25h-6.154V48.615h6.154v-7.167H57.876ZM44.913 41.448v31.336l-5.712-31.336h-9.229v55.507h7.25V64.656l6.813 32.299h8.348V41.448h-7.47ZM11.919 78.059l2.013-24.39 3.079 24.39h-5.092Zm-4.36-36.611L2.945 96.955h7.454l.96-11.865h6.49l1.4 11.865h7.866l-6.811-55.507H7.559Z" style="fill:#fff;fill-rule:nonzero;stroke:#000;stroke-width:1.68px"/></svg>