<?xml version="1.0" encoding="UTF-8" standalone="no"?><!DOCTYPE svg PUBLIC "-//W3C//DTD SVG 1.1//EN" "http://www.w3.org/Graphics/SVG/1.1/DTD/svg11.dtd"><svg width="100%" height="100%" viewBox="0 0 115 111" version="1.1" xmlns="http://www.w3.org/2000/svg" xmlns:xlink="http://www.w3.org/1999/xlink" xml:space="preserve" xmlns:serif="http://www.serif.com/" style="fill-rule:evenodd;clip-rule:evenodd;stroke-linecap:round;stroke-linejoin:round;stroke-miterlimit:10;"><g id="Layer-1" serif:id="Layer 1"><path d="M78.3,101.833l2.744,5.711l-78.099,0l0,-5.711l75.355,0Z" style="fill:#fff;fill-rule:nonzero;stroke:#000;stroke-width:1.68px;"/><path d="M94.035,107.544l18.334,0l0,-5.711l-17.068,0l-1.266,5.711Z" style="fill:#fff;fill-rule:nonzero;stroke:#000;stroke-width:1.68px;"/><path d="M96.33,41.448l0,55.507l16.039,0l0,-8.57l-7.251,0l0,-46.937l-8.788,0Z" style="fill:#fff;fill-rule:nonzero;stroke:#000;stroke-width:1.68px;"/><path d="M87.797,110.054c1.083,-0.563 1.546,-3.604 2.013,-6.633c-0.104,-17.808 -1.563,-35.261 0.949,-53.425c2.821,-9.917 -0.541,-14.109 -9.833,-8.885c-4.597,1.816 -3.471,11.804 -3.791,21.559c0.666,1.458 -3.095,22.985 10.662,47.384Z" style="fill:#ff7f2a;fill-rule:nonzero;stroke:#000;stroke-width:1.68px;stroke-linecap:butt;"/><path d="M83.223,26.441c-2.617,-2.441 -2.793,-2.662 -3.76,-4.703c-1.042,-2.2 -1.124,-2.727 -1.064,-6.862l0.052,-3.577l0.698,-1.505c0.385,-0.829 0.79,-1.995 0.901,-2.593c0.343,-1.864 0.638,-2.774 1.006,-3.107c0.303,-0.275 0.715,-0.338 2.807,-0.426c1.346,-0.058 2.6,-0.165 2.784,-0.239c0.184,-0.074 0.807,-0.43 1.383,-0.791c1.281,-0.804 2.06,-0.927 3.452,-0.551c1.996,0.541 2.935,1.761 2.94,3.824c0.007,1.676 -0.412,3.092 -1.352,4.58c-0.448,0.711 -0.938,1.636 -1.086,2.054c-0.15,0.419 -0.345,0.965 -0.437,1.214c-0.092,0.248 -0.497,0.956 -0.901,1.572c-0.67,1.02 -0.736,1.214 -0.736,2.156c0,0.719 0.154,1.482 0.501,2.485c0.418,1.206 0.502,1.709 0.502,3.003c0,1.777 -0.333,3.268 -0.927,4.172c-0.668,1.014 -1.096,1.2 -2.935,1.273c0,0 -1.462,0.139 -1.634,0.066c-0.173,-0.073 -2.194,-2.045 -2.194,-2.045Z" style="fill:#ff7f2a;fill-rule:nonzero;stroke:#000;stroke-width:1.68px;stroke-linecap:butt;"/><path d="M57.877,41.448l-0.001,55.507l14.722,0l0.001,-7.909l-5.934,0l0,-18.898l5.933,0l0,-7.25l-6.154,0l0,-14.283l6.154,0l0,-7.167l-14.722,0Z" style="fill:#fff;fill-rule:nonzero;stroke:#000;stroke-width:1.68px;"/><path d="M44.913,41.448l0,31.336l-5.712,-31.336l-9.229,0l0,55.507l7.25,0l0,-32.299l6.813,32.299l8.348,0l0,-55.507l-7.47,0Z" style="fill:#fff;fill-rule:nonzero;stroke:#000;stroke-width:1.68px;"/><path d="M11.919,78.059l2.013,-24.39l3.079,24.39l-5.092,0Zm-4.36,-36.611l-4.614,55.507l7.454,0l0.96,-11.865l6.49,0l1.4,11.865l7.866,0l-6.811,-55.507l-12.745,0Z" style="fill:#fff;fill-rule:nonzero;stroke:#000;stroke-width:1.68px;"/></g></svg>