<?xml version="1.0" encoding="UTF-8" standalone="no"?><!DOCTYPE svg PUBLIC "-//W3C//DTD SVG 1.1//EN" "http://www.w3.org/Graphics/SVG/1.1/DTD/svg11.dtd"><svg width="100%" height="100%" viewBox="0 0 198 79" version="1.1" xmlns="http://www.w3.org/2000/svg" xmlns:xlink="http://www.w3.org/1999/xlink" xml:space="preserve" xmlns:serif="http://www.serif.com/" style="fill-rule:evenodd;clip-rule:evenodd;stroke-linejoin:round;stroke-miterlimit:2;"><g id="logo"><path d="M192.966,32.756c-1.119,-0.001 -2.27,-0.396 -2.92,-0.723c-13.264,-6.677 -28.31,-10.626 -42.922,-10.626c-1.832,0 -3.186,0.073 -4.893,0.237c2.755,4.236 7.503,10.396 10.758,14.173c0.844,0.98 1.097,1.571 1.097,2.516c0,1.647 -1.793,3.241 -3.701,3.241c-1.272,0 -2.032,-0.485 -3.211,-1.824c-3.962,-4.492 -9.909,-12.456 -12.729,-16.974c-13.868,2.372 -29.327,10.289 -38.463,17.281c-1.043,0.811 -1.77,1.143 -2.818,1.143c-1.942,0 -3.629,-1.616 -3.629,-3.462c0,-1.067 0.408,-1.872 1.836,-3.021c13.941,-11.219 35.597,-20.081 53.987,-20.081c7.291,0 14.324,0.978 21.126,2.586c4.127,0.976 10.252,2.961 15.466,5.16c-13.671,-7.988 -30.812,-15.285 -41.65,-15.285c-2.763,0 -4.456,0.895 -4.456,2.696c0,1.059 0.614,2.477 1.522,3.903c-2.168,0.213 -5.024,0.639 -7.187,1.198c-1.13,-2.002 -1.916,-4.139 -1.916,-6.432c0,-5.111 3.444,-8.254 10.379,-8.254c15.708,0 42.109,14.154 55.284,24.493c1.509,1.185 2.994,2.654 2.994,4.376c0,1.704 -1.527,3.678 -3.954,3.679" style="fill:#fd4d03;fill-rule:nonzero;"/><path d="M22.247,62.87c0,-0.911 0.57,-1.476 1.447,-1.476c0.877,0 1.423,0.565 1.423,1.476l0,1.537c0.765,-1.516 2.461,-3.013 3.986,-3.013c0.982,0 1.458,0.558 1.458,1.297c0,0.722 -0.409,1.262 -1.671,1.602c-2.62,0.704 -3.767,2.12 -3.767,4.837l0,7.865c0,0.911 -0.552,1.476 -1.429,1.476c-0.877,0 -1.447,-0.565 -1.447,-1.476l0,-14.125Z" style="fill:#3c3935;fill-rule:nonzero;"/><path d="M86.676,62.87c0,-0.911 0.571,-1.476 1.447,-1.476c0.877,0 1.423,0.565 1.423,1.476l0,1.537c0.765,-1.516 2.461,-3.013 3.986,-3.013c0.984,0 1.458,0.558 1.458,1.297c0,0.722 -0.409,1.262 -1.671,1.602c-2.62,0.704 -3.767,2.12 -3.767,4.837l0,7.865c0,0.911 -0.552,1.476 -1.429,1.476c-0.876,0 -1.447,-0.565 -1.447,-1.476l0,-14.125Z" style="fill:#3c3935;fill-rule:nonzero;"/><path d="M38.746,61.394c2.808,0 4.613,1.09 4.613,2.069c0,0.588 -0.45,1.173 -1.133,1.173c-1.05,0 -1.547,-0.821 -3.48,-0.821c-3.262,0 -4.936,2.822 -4.936,6.118c0,3.571 1.887,6.117 4.936,6.117c2.128,0 2.594,-0.848 3.593,-0.848c0.649,0 1.044,0.424 1.044,1.075c0,0.628 -0.538,1.14 -1.507,1.572c-0.847,0.376 -1.965,0.621 -3.13,0.621c-4.888,0 -7.823,-3.547 -7.823,-8.537c0,-4.884 2.961,-8.539 7.823,-8.539" style="fill:#3c3935;fill-rule:nonzero;"/><path d="M56.983,68.928c0,-2.386 -1.405,-5.113 -4.554,-5.113c-3.098,0 -4.756,2.349 -4.861,5.113l9.415,0Zm-9.415,2.072c0.053,2.73 1.883,5.05 5.097,5.05c3.379,0 4.178,-1.829 5.398,-1.829c0.687,0 1.166,0.447 1.166,1.148c0,1.352 -3.085,3.101 -6.536,3.101c-2.582,0 -4.314,-0.791 -5.606,-2.057c-1.641,-1.609 -2.407,-3.986 -2.407,-6.48c0,-4.561 2.923,-8.539 7.761,-8.539c4.499,0 7.418,3.841 7.418,8.13c0,0.973 -0.409,1.476 -1.592,1.476l-10.699,0Z" style="fill:#3c3935;fill-rule:nonzero;"/><path d="M65.747,76.995c0,0.911 -0.558,1.475 -1.434,1.475c-0.878,0 -1.441,-0.564 -1.441,-1.475l0,-19.775c0,-0.911 0.563,-1.475 1.441,-1.475c0.876,0 1.434,0.564 1.434,1.475l0,19.775Z" style="fill:#3c3935;fill-rule:nonzero;"/><path d="M76.207,76.05c2.801,0 4.722,-2.363 4.722,-6.117c0,-3.756 -1.921,-6.118 -4.722,-6.118c-2.802,0 -4.723,2.362 -4.723,6.118c0,3.754 1.921,6.117 4.723,6.117m0,2.426c-4.571,0 -7.611,-3.522 -7.611,-8.543c0,-5.022 3.04,-8.544 7.611,-8.544c4.57,0 7.61,3.522 7.61,8.544c0,5.021 -3.04,8.543 -7.61,8.543" style="fill:#3c3935;fill-rule:nonzero;"/><path d="M114.938,62.547c-1.603,5.323 -4.234,14.073 -4.451,14.793c-0.239,0.796 -0.741,1.13 -1.526,1.13c-0.786,0 -1.272,-0.282 -1.527,-1.13c-0.224,-0.746 -2.983,-9.917 -4.57,-15.187c-0.261,-0.869 -0.505,-1.897 -0.688,-2.766c-0.11,0.851 -0.25,1.845 -0.403,2.775c-0.821,4.978 -2.095,12.74 -2.449,14.93c-0.156,0.965 -0.663,1.378 -1.497,1.378c-0.784,0 -1.283,-0.508 -1.283,-1.317c0,-0.313 0.064,-0.722 0.16,-1.255c0,0 2.883,-16.768 3.114,-18.05c0.245,-1.37 0.98,-2.104 2.177,-2.104c1.063,0 1.908,0.606 2.245,1.745c0.21,0.709 2.534,8.585 4.011,13.564c0.271,0.918 0.544,2 0.752,2.977c0.198,-0.957 0.453,-1.992 0.719,-2.887c1.474,-4.974 3.844,-12.943 4.055,-13.654c0.337,-1.139 1.087,-1.745 2.15,-1.745c1.123,0 1.948,0.709 2.177,2.104c0.211,1.284 3.114,18.05 3.114,18.05c0.095,0.533 0.159,0.942 0.159,1.255c0,0.809 -0.499,1.317 -1.282,1.317c-0.834,0 -1.342,-0.413 -1.498,-1.378c-0.343,-2.127 -1.554,-9.515 -2.377,-14.5c-0.168,-1.016 -0.322,-2.169 -0.45,-3.227c-0.209,0.923 -0.491,2.054 -0.832,3.182" style="fill:#3c3935;fill-rule:nonzero;"/><path d="M127.875,62.87c0,-0.911 -0.564,-1.476 -1.441,-1.476c-0.877,0 -1.435,0.565 -1.435,1.476l0,14.125c0,0.911 0.558,1.476 1.435,1.476c0.877,0 1.441,-0.565 1.441,-1.476l0,-14.125Zm-1.441,-6.372c0.975,0 1.754,0.753 1.754,1.694c0,0.943 -0.779,1.696 -1.754,1.696c-0.974,0 -1.754,-0.753 -1.754,-1.696c0,-0.941 0.78,-1.694 1.754,-1.694" style="fill:#3c3935;fill-rule:nonzero;"/><path d="M132.873,57.973c0,-0.91 0.558,-1.475 1.435,-1.475c0.876,0 1.44,0.565 1.44,1.475l0,3.61l1.169,0c0.943,0 1.429,0.445 1.429,1.199c0,0.753 -0.486,1.204 -1.429,1.204l-1.169,0l0,13.009c0,0.911 -0.564,1.475 -1.44,1.475c-0.877,0 -1.435,-0.564 -1.435,-1.475l0,-13.009l-1.043,0c-0.941,0 -1.428,-0.451 -1.428,-1.204c0,-0.754 0.487,-1.199 1.428,-1.199l1.043,0l0,-3.61Z" style="fill:#3c3935;fill-rule:nonzero;"/><path d="M141.935,57.973c0,-0.91 0.564,-1.475 1.441,-1.475c0.877,0 1.434,0.565 1.434,1.475l0,3.61l1.169,0c0.942,0 1.429,0.445 1.429,1.199c0,0.753 -0.487,1.204 -1.429,1.204l-1.169,0l0,13.009c0,0.911 -0.557,1.475 -1.434,1.475c-0.877,0 -1.441,-0.564 -1.441,-1.475l0,-13.009l-1.048,0c-0.941,0 -1.429,-0.451 -1.429,-1.204c0,-0.754 0.488,-1.199 1.429,-1.199l1.048,0l0,-3.61Z" style="fill:#3c3935;fill-rule:nonzero;"/><path d="M5.862,69.689c1.192,-3.228 2.495,-6.76 3.366,-9.12c0.242,-0.659 0.457,-1.284 0.625,-1.803c0.181,0.562 0.403,1.204 0.622,1.798c0.871,2.364 2.172,5.891 3.365,9.125l-7.978,0Zm13.296,6.239c-0.6,-1.558 -6.215,-16.147 -7.089,-18.396c-0.437,-1.129 -1.109,-1.787 -2.218,-1.787c-1.136,0 -1.739,0.658 -2.181,1.787c-0.397,1.011 -6.51,16.842 -7.119,18.396c-0.268,0.684 -0.371,1.051 -0.371,1.346c0,0.696 0.617,1.196 1.364,1.196c0.771,0 1.214,-0.386 1.456,-1.036c0.146,-0.391 0.941,-2.544 1.955,-5.29l9.792,0c0.957,2.592 1.726,4.675 1.956,5.29c0.217,0.586 0.616,1.036 1.396,1.036c0.747,0 1.448,-0.439 1.448,-1.161c0,-0.319 -0.078,-0.572 -0.389,-1.381" style="fill:#3c3935;fill-rule:nonzero;"/><path d="M170.883,76.995c0,0.911 -0.565,1.475 -1.441,1.475c-0.877,0 -1.435,-0.564 -1.435,-1.475l0,-19.775c0,-0.911 0.558,-1.475 1.435,-1.475c0.876,0 1.441,0.564 1.441,1.475l0,19.775Z" style="fill:#3c3935;fill-rule:nonzero;"/><path d="M156.377,76.054c-2.802,0 -4.723,-2.367 -4.723,-6.121c0,-3.756 1.921,-6.122 4.723,-6.122c2.801,0 4.722,2.366 4.722,6.122c0,3.754 -1.921,6.121 -4.722,6.121m6.129,-14.66c-0.876,0 -1.434,0.566 -1.434,1.475l0,1.25c-1.062,-1.688 -2.786,-2.73 -4.919,-2.73c-4.377,0 -7.387,3.522 -7.387,8.544c0,5.021 3.01,8.543 7.387,8.543c2.133,0 3.857,-1.042 4.919,-2.73l0,1.249c0,0.911 0.558,1.475 1.434,1.475c0.877,0 1.441,-0.564 1.441,-1.475l0,-14.126c0,-0.909 -0.564,-1.475 -1.441,-1.475" style="fill:#3c3935;fill-rule:nonzero;"/></g></svg>