<svg viewBox="0 0 198 79" xmlns="http://www.w3.org/2000/svg" xml:space="preserve" style="fill-rule:evenodd;clip-rule:evenodd;stroke-linejoin:round;stroke-miterlimit:2"><path d="M192.966 32.756c-1.119-.001-2.27-.396-2.92-.723-13.264-6.677-28.31-10.626-42.922-10.626-1.832 0-3.186.073-4.893.237 2.755 4.236 7.503 10.396 10.758 14.173.844.98 1.097 1.571 1.097 2.516 0 1.647-1.793 3.241-3.701 3.241-1.272 0-2.032-.485-3.211-1.824-3.962-4.492-9.909-12.456-12.729-16.974-13.868 2.372-29.327 10.289-38.463 17.281-1.043.811-1.77 1.143-2.818 1.143-1.942 0-3.629-1.616-3.629-3.462 0-1.067.408-1.872 1.836-3.021 13.941-11.219 35.597-20.081 53.987-20.081 7.291 0 14.324.978 21.126 2.586 4.127.976 10.252 2.961 15.466 5.16-13.671-7.988-30.812-15.285-41.65-15.285-2.763 0-4.456.895-4.456 2.696 0 1.059.614 2.477 1.522 3.903-2.168.213-5.024.639-7.187 1.198-1.13-2.002-1.916-4.139-1.916-6.432 0-5.111 3.444-8.254 10.379-8.254 15.708 0 42.109 14.154 55.284 24.493 1.509 1.185 2.994 2.654 2.994 4.376 0 1.704-1.527 3.678-3.954 3.679" style="fill:#fd4d03;fill-rule:nonzero"/><path d="M22.247 62.87c0-.911.57-1.476 1.447-1.476.877 0 1.423.565 1.423 1.476v1.537c.765-1.516 2.461-3.013 3.986-3.013.982 0 1.458.558 1.458 1.297 0 .722-.409 1.262-1.671 1.602-2.62.704-3.767 2.12-3.767 4.837v7.865c0 .911-.552 1.476-1.429 1.476s-1.447-.565-1.447-1.476V62.87ZM86.676 62.87c0-.911.571-1.476 1.447-1.476.877 0 1.423.565 1.423 1.476v1.537c.765-1.516 2.461-3.013 3.986-3.013.984 0 1.458.558 1.458 1.297 0 .722-.409 1.262-1.671 1.602-2.62.704-3.767 2.12-3.767 4.837v7.865c0 .911-.552 1.476-1.429 1.476-.876 0-1.447-.565-1.447-1.476V62.87ZM38.746 61.394c2.808 0 4.613 1.09 4.613 2.069 0 .588-.45 1.173-1.133 1.173-1.05 0-1.547-.821-3.48-.821-3.262 0-4.936 2.822-4.936 6.118 0 3.571 1.887 6.117 4.936 6.117 2.128 0 2.594-.848 3.593-.848.649 0 1.044.424 1.044 1.075 0 .628-.538 1.14-1.507 1.572-.847.376-1.965.621-3.13.621-4.888 0-7.823-3.547-7.823-8.537 0-4.884 2.961-8.539 7.823-8.539M56.983 68.928c0-2.386-1.405-5.113-4.554-5.113-3.098 0-4.756 2.349-4.861 5.113h9.415ZM47.568 71c.053 2.73 1.883 5.05 5.097 5.05 3.379 0 4.178-1.829 5.398-1.829.687 0 1.166.447 1.166 1.148 0 1.352-3.085 3.101-6.536 3.101-2.582 0-4.314-.791-5.606-2.057-1.641-1.609-2.407-3.986-2.407-6.48 0-4.561 2.923-8.539 7.761-8.539 4.499 0 7.418 3.841 7.418 8.13 0 .973-.409 1.476-1.592 1.476H47.568ZM65.747 76.995c0 .911-.558 1.475-1.434 1.475-.878 0-1.441-.564-1.441-1.475V57.22c0-.911.563-1.475 1.441-1.475.876 0 1.434.564 1.434 1.475v19.775ZM76.207 76.05c2.801 0 4.722-2.363 4.722-6.117 0-3.756-1.921-6.118-4.722-6.118-2.802 0-4.723 2.362-4.723 6.118 0 3.754 1.921 6.117 4.723 6.117m0 2.426c-4.571 0-7.611-3.522-7.611-8.543 0-5.022 3.04-8.544 7.611-8.544 4.57 0 7.61 3.522 7.61 8.544 0 5.021-3.04 8.543-7.61 8.543M114.938 62.547c-1.603 5.323-4.234 14.073-4.451 14.793-.239.796-.741 1.13-1.526 1.13-.786 0-1.272-.282-1.527-1.13-.224-.746-2.983-9.917-4.57-15.187a35.79 35.79 0 0 1-.688-2.766 83.97 83.97 0 0 1-.403 2.775 7832.13 7832.13 0 0 0-2.449 14.93c-.156.965-.663 1.378-1.497 1.378-.784 0-1.283-.508-1.283-1.317 0-.313.064-.722.16-1.255 0 0 2.883-16.768 3.114-18.05.245-1.37.98-2.104 2.177-2.104 1.063 0 1.908.606 2.245 1.745.21.709 2.534 8.585 4.011 13.564.271.918.544 2 .752 2.977.198-.957.453-1.992.719-2.887 1.474-4.974 3.844-12.943 4.055-13.654.337-1.139 1.087-1.745 2.15-1.745 1.123 0 1.948.709 2.177 2.104.211 1.284 3.114 18.05 3.114 18.05.095.533.159.942.159 1.255 0 .809-.499 1.317-1.282 1.317-.834 0-1.342-.413-1.498-1.378-.343-2.127-1.554-9.515-2.377-14.5a77.918 77.918 0 0 1-.45-3.227 47.42 47.42 0 0 1-.832 3.182M127.875 62.87c0-.911-.564-1.476-1.441-1.476-.877 0-1.435.565-1.435 1.476v14.125c0 .911.558 1.476 1.435 1.476s1.441-.565 1.441-1.476V62.87Zm-1.441-6.372c.975 0 1.754.753 1.754 1.694 0 .943-.779 1.696-1.754 1.696-.974 0-1.754-.753-1.754-1.696 0-.941.78-1.694 1.754-1.694M132.873 57.973c0-.91.558-1.475 1.435-1.475.876 0 1.44.565 1.44 1.475v3.61h1.169c.943 0 1.429.445 1.429 1.199 0 .753-.486 1.204-1.429 1.204h-1.169v13.009c0 .911-.564 1.475-1.44 1.475-.877 0-1.435-.564-1.435-1.475V63.986h-1.043c-.941 0-1.428-.451-1.428-1.204 0-.754.487-1.199 1.428-1.199h1.043v-3.61ZM141.935 57.973c0-.91.564-1.475 1.441-1.475.877 0 1.434.565 1.434 1.475v3.61h1.169c.942 0 1.429.445 1.429 1.199 0 .753-.487 1.204-1.429 1.204h-1.169v13.009c0 .911-.557 1.475-1.434 1.475-.877 0-1.441-.564-1.441-1.475V63.986h-1.048c-.941 0-1.429-.451-1.429-1.204 0-.754.488-1.199 1.429-1.199h1.048v-3.61ZM5.862 69.689l3.366-9.12c.242-.659.457-1.284.625-1.803a47.4 47.4 0 0 0 .622 1.798l3.365 9.125H5.862Zm13.296 6.239c-.6-1.558-6.215-16.147-7.089-18.396-.437-1.129-1.109-1.787-2.218-1.787-1.136 0-1.739.658-2.181 1.787-.397 1.011-6.51 16.842-7.119 18.396-.268.684-.371 1.051-.371 1.346 0 .696.617 1.196 1.364 1.196.771 0 1.214-.386 1.456-1.036.146-.391.941-2.544 1.955-5.29h9.792c.957 2.592 1.726 4.675 1.956 5.29.217.586.616 1.036 1.396 1.036.747 0 1.448-.439 1.448-1.161 0-.319-.078-.572-.389-1.381M170.883 76.995c0 .911-.565 1.475-1.441 1.475-.877 0-1.435-.564-1.435-1.475V57.22c0-.911.558-1.475 1.435-1.475.876 0 1.441.564 1.441 1.475v19.775ZM156.377 76.054c-2.802 0-4.723-2.367-4.723-6.121 0-3.756 1.921-6.122 4.723-6.122 2.801 0 4.722 2.366 4.722 6.122 0 3.754-1.921 6.121-4.722 6.121m6.129-14.66c-.876 0-1.434.566-1.434 1.475v1.25c-1.062-1.688-2.786-2.73-4.919-2.73-4.377 0-7.387 3.522-7.387 8.544 0 5.021 3.01 8.543 7.387 8.543 2.133 0 3.857-1.042 4.919-2.73v1.249c0 .911.558 1.475 1.434 1.475.877 0 1.441-.564 1.441-1.475V62.869c0-.909-.564-1.475-1.441-1.475" style="fill:#3c3935;fill-rule:nonzero"/></svg>