<?xml version="1.0" encoding="UTF-8" standalone="no"?><!DOCTYPE svg PUBLIC "-//W3C//DTD SVG 1.1//EN" "http://www.w3.org/Graphics/SVG/1.1/DTD/svg11.dtd"><svg width="100%" height="100%" viewBox="0 0 307 179" version="1.1" xmlns="http://www.w3.org/2000/svg" xmlns:xlink="http://www.w3.org/1999/xlink" xml:space="preserve" xmlns:serif="http://www.serif.com/" style="fill-rule:evenodd;clip-rule:evenodd;stroke-linejoin:round;stroke-miterlimit:2;"><g id="Layer-1" serif:id="Layer 1"><path d="M42.243,93.101c-2.878,0 -4.81,0.387 -5.797,1.158c-0.987,0.774 -1.48,2.003 -1.48,3.69l0,2.416c0,1.599 0.532,2.808 1.596,3.624c1.063,0.815 2.958,1.224 5.681,1.224l16.449,0c2.557,0 4.413,-0.488 5.567,-1.462c1.151,-0.976 1.728,-2.51 1.728,-4.602c0,-4.032 -2.432,-6.048 -7.295,-6.048l-16.449,0Zm-12.137,3.764c0,-2.4 0.858,-4.299 2.57,-5.702c1.712,-1.403 4.314,-2.104 7.804,-2.104l19.43,0c2.305,0 3.817,0.479 4.758,0.965c0.751,0.388 1.281,1.038 1.319,1.038l0,-3.952c0,-2.035 -0.666,-3.698 -1.994,-4.988c-1.328,-1.292 -3.363,-1.938 -6.107,-1.938l-12.876,0c-3.448,0 -5.681,0.537 -6.704,1.608c-1.019,1.072 -1.53,2.044 -1.53,3.355l0,0.549l-4.991,0l0,-0.727c0,-0.855 0.119,-2.139 0.619,-3.406c0.5,-1.267 1.65,-2.486 3.449,-3.661c1.801,-1.173 4.446,-1.76 7.938,-1.76l14.638,0c8.365,0 12.547,3.899 12.547,11.7l0,21.545l-4.857,0l0,-1.995c0.047,0.072 -0.748,0.65 -1.76,1.156c-1.065,0.533 -2.507,0.839 -4.186,0.839l-18.869,0c-7.464,0 -11.198,-2.826 -11.198,-8.48l0,-4.042Z" style="fill:#231f20;fill-rule:nonzero;"/><path d="M161.736,89.059c0,-1.863 -0.356,-3.47 -1.07,-4.824c-0.713,-1.353 -1.745,-2.391 -3.096,-3.114c-1.349,-0.722 -2.946,-1.084 -4.792,-1.084l-14.664,0c-2.024,0 -3.751,0.373 -5.045,1.117c-1.295,0.746 -2.304,1.797 -3.021,3.156c-0.72,1.357 -1.079,2.941 -1.079,4.749l32.767,0Zm-7.016,20.459l-16.317,0c-4.808,0 -8.393,-1.054 -10.751,-3.163c-2.36,-2.108 -3.54,-5.228 -3.54,-9.359l0,-8.743c0,-2.081 0.557,-4.064 1.671,-5.949c1.114,-1.884 2.746,-3.407 4.898,-4.567c2.152,-1.161 4.683,-1.742 7.59,-1.742l14.03,0c4.567,0 8.089,1.123 10.571,3.368c2.481,2.246 3.72,4.906 3.72,9.82l0,3.918l-37.623,0l0,3.222c0,6.101 3.079,9.153 9.238,9.153l15.839,0c2.547,0 4.464,-0.584 5.755,-1.75c1.289,-1.167 1.935,-2.599 1.935,-4.298l0,-0.674l4.856,0l0,0.674c0,1.578 -0.377,3.137 -1.136,4.676c-0.756,1.539 -2.025,2.826 -3.803,3.861c-1.778,1.036 -4.089,1.553 -6.933,1.553" style="fill:#231f20;fill-rule:nonzero;"/><path d="M188.313,76.142l12.827,0c3.479,0 6.303,0.619 8.472,1.857c2.166,1.238 3.722,2.887 4.667,4.947c0.944,2.059 1.417,4.41 1.417,7.05l0,19.325l-4.858,0l0,-19.989c0,-2.857 -0.881,-5.095 -2.643,-6.716c-1.761,-1.621 -4.113,-2.432 -7.055,-2.432l-12.827,0c-2.888,0 -5.229,0.819 -7.024,2.456c-1.794,1.637 -2.691,3.868 -2.691,6.692l0,19.989l-4.859,0l0,-33.179l4.859,0l0,3.675c-0.006,0.002 0.951,-1.094 2.095,-1.81c1.637,-1.024 4.14,-1.865 7.62,-1.865" style="fill:#231f20;fill-rule:nonzero;"/><path d="M259.938,96.323l0,-7.264c-0.063,-2.706 -0.978,-4.886 -2.741,-6.541c-1.762,-1.654 -4.356,-2.481 -7.78,-2.481l-10.784,0c-3.809,0 -6.582,0.759 -8.317,2.276c-1.733,1.518 -2.6,3.767 -2.6,6.746l0,7.264c0,3.1 0.888,5.379 2.666,6.836c1.78,1.457 4.528,2.185 8.251,2.185l10.784,0c3.424,0 6.018,-0.828 7.78,-2.481c1.763,-1.654 2.678,-3.835 2.741,-6.54m-9.845,13.195l-13.075,0c-4.601,-0.065 -8.093,-1.194 -10.479,-3.385c-2.389,-2.19 -3.616,-5.46 -3.683,-9.81l0,-7.264c0.057,-2.596 0.593,-4.87 1.615,-6.82c1.02,-1.95 2.585,-3.478 4.694,-4.585c2.106,-1.106 4.726,-1.659 7.853,-1.659l13.075,0c3.062,0 5.243,0.508 6.849,1.266c1.53,0.722 2.734,1.806 2.865,2.119l0,-16.713l4.858,0l0,46.72l-4.858,0l0,-3.237c-0.603,0.559 -1.739,1.261 -3.408,2.103c-1.669,0.844 -3.771,1.265 -6.306,1.265" style="fill:#231f20;fill-rule:nonzero;"/><path d="M115.746,85.057c-0.382,-1.292 -0.955,-2.651 -1.91,-4.025c-0.955,-1.376 -2.398,-2.535 -4.331,-3.477c-1.932,-0.941 -4.413,-1.413 -7.442,-1.413l-9.452,0c-3.095,0 -5.345,0.54 -6.719,1.407c-1.18,0.746 -2.173,1.566 -2.173,1.807l0,-3.214l-4.857,0l0,33.245l4.857,0l0,-21.401c0,-1.335 0.405,-2.607 1.212,-3.811c0.806,-1.203 1.912,-2.17 3.318,-2.898c1.405,-0.729 2.975,-1.093 4.708,-1.093l8.63,0c3.895,0 6.499,1.013 7.812,3.035c1.255,1.938 1.905,3.846 1.957,5.723l4.876,0c-0.007,-0.886 -0.081,-2.51 -0.486,-3.885" style="fill:#231f20;fill-rule:nonzero;"/><path d="M301.481,100.784c-0.416,1.287 -1.341,2.37 -2.773,3.246c-1.433,0.876 -3.56,1.315 -6.38,1.315l-5.336,0c-2.13,0 -5.005,-0.656 -6.323,-1.964c-1.317,-1.31 -1.977,-3.249 -1.977,-6.032l0,-17.312l25.161,0l0,-4.042l-25.161,0l0,-6.459l-4.856,0l0,6.459l-4.183,0l0,4.042l4.183,0l-0.001,16.763c0,4.163 1.054,7.301 3.164,9.416c2.105,2.114 5.052,3.172 8.839,3.172l6.949,0c5.655,0 9.387,-1.292 11.366,-3.836c1.635,-2.102 2.442,-4.434 2.696,-6.903l-4.891,0c-0.105,0.764 -0.263,1.477 -0.477,2.135" style="fill:#231f20;fill-rule:nonzero;"/><path d="M178.168,178.386l-178.157,0l0,-178.155l178.157,0l0,54.53l-5.373,0l0,-49.157l-167.41,0l0,167.408l167.41,0l0,-41.671l5.373,0l0,47.045Z" style="fill:#6bc9c7;fill-rule:nonzero;"/></g></svg>