<svg viewBox="0 0 307 179" xmlns="http://www.w3.org/2000/svg" xml:space="preserve" style="fill-rule:evenodd;clip-rule:evenodd;stroke-linejoin:round;stroke-miterlimit:2"><path d="M42.243 93.101c-2.878 0-4.81.387-5.797 1.158-.987.774-1.48 2.003-1.48 3.69v2.416c0 1.599.532 2.808 1.596 3.624 1.063.815 2.958 1.224 5.681 1.224h16.449c2.557 0 4.413-.488 5.567-1.462 1.151-.976 1.728-2.51 1.728-4.602 0-4.032-2.432-6.048-7.295-6.048H42.243Zm-12.137 3.764c0-2.4.858-4.299 2.57-5.702 1.712-1.403 4.314-2.104 7.804-2.104h19.43c2.305 0 3.817.479 4.758.965.751.388 1.281 1.038 1.319 1.038V87.11c0-2.035-.666-3.698-1.994-4.988-1.328-1.292-3.363-1.938-6.107-1.938H45.01c-3.448 0-5.681.537-6.704 1.608-1.019 1.072-1.53 2.044-1.53 3.355v.549h-4.991v-.727c0-.855.119-2.139.619-3.406.5-1.267 1.65-2.486 3.449-3.661 1.801-1.173 4.446-1.76 7.938-1.76h14.638c8.365 0 12.547 3.899 12.547 11.7v21.545h-4.857v-1.995c.047.072-.748.65-1.76 1.156-1.065.533-2.507.839-4.186.839H41.304c-7.464 0-11.198-2.826-11.198-8.48v-4.042ZM161.736 89.059c0-1.863-.356-3.47-1.07-4.824a7.337 7.337 0 0 0-3.096-3.114c-1.349-.722-2.946-1.084-4.792-1.084h-14.664c-2.024 0-3.751.373-5.045 1.117-1.295.746-2.304 1.797-3.021 3.156-.72 1.357-1.079 2.941-1.079 4.749h32.767Zm-7.016 20.459h-16.317c-4.808 0-8.393-1.054-10.751-3.163-2.36-2.108-3.54-5.228-3.54-9.359v-8.743c0-2.081.557-4.064 1.671-5.949 1.114-1.884 2.746-3.407 4.898-4.567 2.152-1.161 4.683-1.742 7.59-1.742h14.03c4.567 0 8.089 1.123 10.571 3.368 2.481 2.246 3.72 4.906 3.72 9.82v3.918h-37.623v3.222c0 6.101 3.079 9.153 9.238 9.153h15.839c2.547 0 4.464-.584 5.755-1.75 1.289-1.167 1.935-2.599 1.935-4.298v-.674h4.856v.674c0 1.578-.377 3.137-1.136 4.676-.756 1.539-2.025 2.826-3.803 3.861-1.778 1.036-4.089 1.553-6.933 1.553M188.313 76.142h12.827c3.479 0 6.303.619 8.472 1.857 2.166 1.238 3.722 2.887 4.667 4.947.944 2.059 1.417 4.41 1.417 7.05v19.325h-4.858V89.332c0-2.857-.881-5.095-2.643-6.716-1.761-1.621-4.113-2.432-7.055-2.432h-12.827c-2.888 0-5.229.819-7.024 2.456-1.794 1.637-2.691 3.868-2.691 6.692v19.989h-4.859V76.142h4.859v3.675c-.006.002.951-1.094 2.095-1.81 1.637-1.024 4.14-1.865 7.62-1.865M259.938 96.323v-7.264c-.063-2.706-.978-4.886-2.741-6.541-1.762-1.654-4.356-2.481-7.78-2.481h-10.784c-3.809 0-6.582.759-8.317 2.276-1.733 1.518-2.6 3.767-2.6 6.746v7.264c0 3.1.888 5.379 2.666 6.836 1.78 1.457 4.528 2.185 8.251 2.185h10.784c3.424 0 6.018-.828 7.78-2.481 1.763-1.654 2.678-3.835 2.741-6.54m-9.845 13.195h-13.075c-4.601-.065-8.093-1.194-10.479-3.385-2.389-2.19-3.616-5.46-3.683-9.81v-7.264c.057-2.596.593-4.87 1.615-6.82 1.02-1.95 2.585-3.478 4.694-4.585 2.106-1.106 4.726-1.659 7.853-1.659h13.075c3.062 0 5.243.508 6.849 1.266 1.53.722 2.734 1.806 2.865 2.119V62.667h4.858v46.72h-4.858v-3.237c-.603.559-1.739 1.261-3.408 2.103-1.669.844-3.771 1.265-6.306 1.265M115.746 85.057a13.763 13.763 0 0 0-1.91-4.025c-.955-1.376-2.398-2.535-4.331-3.477-1.932-.941-4.413-1.413-7.442-1.413h-9.452c-3.095 0-5.345.54-6.719 1.407-1.18.746-2.173 1.566-2.173 1.807v-3.214h-4.857v33.245h4.857V87.986c0-1.335.405-2.607 1.212-3.811.806-1.203 1.912-2.17 3.318-2.898 1.405-.729 2.975-1.093 4.708-1.093h8.63c3.895 0 6.499 1.013 7.812 3.035 1.255 1.938 1.905 3.846 1.957 5.723h4.876c-.007-.886-.081-2.51-.486-3.885M301.481 100.784c-.416 1.287-1.341 2.37-2.773 3.246-1.433.876-3.56 1.315-6.38 1.315h-5.336c-2.13 0-5.005-.656-6.323-1.964-1.317-1.31-1.977-3.249-1.977-6.032V80.037h25.161v-4.042h-25.161v-6.459h-4.856v6.459h-4.183v4.042h4.183l-.001 16.763c0 4.163 1.054 7.301 3.164 9.416 2.105 2.114 5.052 3.172 8.839 3.172h6.949c5.655 0 9.387-1.292 11.366-3.836 1.635-2.102 2.442-4.434 2.696-6.903h-4.891a12.335 12.335 0 0 1-.477 2.135" style="fill:#231f20;fill-rule:nonzero"/><path d="M178.168 178.386H.011V.231h178.157v54.53h-5.373V5.604H5.385v167.408h167.41v-41.671h5.373v47.045Z" style="fill:#6bc9c7;fill-rule:nonzero"/></svg>