<svg viewBox="0 0 611 546" xmlns="http://www.w3.org/2000/svg" xml:space="preserve" style="fill-rule:evenodd;clip-rule:evenodd;stroke-miterlimit:10"><path style="fill:none;stroke:#fff;stroke-width:4.16px" d="M-31.038-90.083h708.971v707.292H-31.038z"/><path d="m175.072 287.335 21.329-6.713 23.012 9.271-44.341-2.558Z" style="fill:#fff;stroke:#231f20;stroke-width:.33px;stroke-miterlimit:2.613"/><path d="m141.974 414.711 19.996-5.721m12.25-121.254 23.396-7.325" style="fill:none;stroke:#231f20;stroke-width:1.55px;stroke-miterlimit:2.613"/><path d="m185.63 417.726-43.475-2.975 47.934-13.379-4.459 16.354Z" style="fill:#fff;stroke:#231f20;stroke-width:.33px;stroke-miterlimit:2.613"/><path d="M142.149 414.788c-5.387 11.138-8.979 22.071 0 31.609 71.567 6.358 144.729 12.35 216.296 18.708-4.771-11.925-2.8-23.483 1.975-35.408-72.162-4.967-146.108-9.938-218.271-14.909ZM364 464.048c38.566-7.754 77.129-14.671 115.695-22.421-6.562-7.554-8.35-15.904-5.366-25.05l-62.975 16.283c-15.309-1.191-31.454-1.97-46.759-3.162-4.079 12.625-4.475 23.317-.595 34.35Z" style="fill:#fff;stroke:#231f20;stroke-width:1.55px;stroke-miterlimit:2.613"/><path d="M358.685 465.346c2.346-.434 3.413-.709 5.263-1.017-4.183-12.683-3.171-24.125.983-34.65-1.471-.087-3.183.167-4.654.075-4.687 13.183-6.483 25.504-1.592 35.592Z" style="fill:#231f20;stroke:#231f20;stroke-width:.33px;stroke-miterlimit:2.613"/><path d="m448.517 442.181 27.333-5.567m-50.154 7.309 30.463-6.5m-17.371 1.391 35.675-7.187m-51.546 5.333 49.921-9.858m-21.196 1.045 21.083-4.179m-109.758 35.434 59.142-12.113m-60.238 6.546 54.096-10.725m-55.042 7.246 49.371-9.104m-50.712 4.4 39.129-7.3m-37.35 3.737 22.992-4.433m-22.821-.25 16.796-2.879" style="fill:none;stroke:#231f20;stroke-width:1.55px;stroke-miterlimit:2.613"/><path d="M178.693 449.509c-6.338-10.446-6.638-21.187-.888-32.221l17.03 1.221c-6.659 12.35-6.505 23.371 1.879 32.775-6.009-.591-12.017-1.179-18.021-1.775Z" style="fill:#231f20;stroke:#231f20;stroke-width:.33px;stroke-miterlimit:2.613"/><path d="M190.693 376.373c-8.121 10.85-10.075 24.546-5.867 41.079 75.733 5.175 150.75 9.988 226.487 15.158-9.437-17.095-6.487-28.329 2.096-36.887-74.479-6.571-148.241-12.783-222.716-19.35Z" style="fill:#fff;stroke:#231f20;stroke-width:1.55px;stroke-miterlimit:2.613"/><path d="M505.085 370.505c-9.959 13.663-9.959 26.38 0 38.146-30.042 7.825-60.196 15.538-90.238 23.363-7.308-13.971-5.312-26.375 2.554-35.6 29.763-8.946 57.921-16.967 87.684-25.909Z" style="fill:#fff;stroke:#231f20;stroke-width:1.55px;stroke-miterlimit:2.613"/><path d="M201.056 377.191c-3.862 11.258-6.358 27.562-4.846 41.366 3.092.196 6.184.388 9.275.58-1.995-13.696 1.509-28.034 4.092-41.688l-8.521-.258ZM382.111 393.097c3.467.308 6.258.737 9.729 1.05-10.179 11.875-13.367 24.07-3.296 36.858-3.679-.121-6.675-.513-10.346-.633-7.458-15.459-4.654-27.267 3.913-37.275ZM413.406 395.794c1.408.233 2.812.463 4.217.7-8.55 9.329-9.975 20.996-2.809 35.479l-3.575.792c-8.746-16.183-6.912-28.05 2.167-36.971Z" style="fill:#231f20;stroke:#231f20;stroke-width:.33px;stroke-miterlimit:2.613"/><path d="m467.56 385.797 33.321-9.059m-50.471 16.5 27.017-7.279m-.325 4.529 21.033-5.5m-34.133 11.813 33.325-8.738m-19.742 11 19.9-5.341m-17.308 12.462 19.9-5.021m-45.134 15.046 46.425-11.971m-88.487 22.809 22.971-6.304m-23.942 2.908 40.604-10.513m-16.983 1.129 46.1-11.808m-71.5 14.396 44.65-11.483m-44.813 7.929 31.705-7.929m-30.25 2.425 38.504-10.192" style="fill:none;stroke:#231f20;stroke-width:1.55px;stroke-miterlimit:2.613"/><path d="m420.16 365.252 86.05 3.938-88.8 27.12-80.237-7.116 82.987-23.942Z" style="fill:#fff;stroke:#231f20;stroke-width:.33px;stroke-miterlimit:2.613"/><path d="M186.151 339.491c-6.996 7.467-9.008 29.042 3.204 35.563l148.296 13.871c5.575-1.425 10.992-3.305 16.567-4.725-3.779-11.146-2.775-21.796-.429-32.525-55.834-4.15-111.804-8.034-167.638-12.184ZM431.444 340.354c1.183 8.233 4.183 15.016 9.454 18.746-25.963 7.587-53.454 15.483-79.417 23.066-4.208-8.783-4.35-19.221-.4-30.05l23.163 1.6c15.529-4.504 31.666-8.858 47.2-13.362Z" style="fill:#fff;stroke:#231f20;stroke-width:1.55px;stroke-miterlimit:2.613"/><path d="M353.506 351.324c2.492.116 5.129.541 7.621.662-2.859 10.792-3.575 21.638.3 30.134-2.725.945-4.688 1.587-7.413 2.537-3.421-11.262-2.804-22.892-.508-33.333Z" style="fill:#231f20;stroke:#231f20;stroke-width:.33px;stroke-miterlimit:2.613"/><path d="m358.637 370.078 39.479-11.379m-39.834 7.112 24.184-6.408m2.129 6.762 26.05-6.954m4.475-4.321 18.492-5.333m-25.542 14.117 28.387-8.579m-76.041 21.737 28.808-8.179m5.333-12.446 19.913-5.333" style="fill:none;stroke:#231f20;stroke-width:1.55px;stroke-miterlimit:2.613"/><path d="M206.423 319.22c-5.333 7.587-5.925 14.7-1.779 21.337 59.629 4.271 119.259 8.538 178.888 12.804-3.45-8.308-2.734-14.108-1.421-19.558-58.567-4.863-117.125-9.721-175.688-14.583Z" style="fill:#fff;stroke:#231f20;stroke-width:1.55px;stroke-miterlimit:2.613"/><path d="M477.065 307.485c-31.3 8.654-62.591 17.304-93.887 25.958-1.067 7.771-.95 14.642 1.779 19.562l96.017-27.029c-2.904-6.162-3.85-12.329-3.909-18.491Z" style="fill:#fff;stroke:#231f20;stroke-width:1.55px;stroke-miterlimit:2.613"/><path d="m382.428 337.217 19.596-5.55m13.871-3.2 19.563-5.334m12.8-.358 28.45-7.467m-56.9 17.784 31.649-8.538m-69.454 16.679 30.692-8.141m33.429-2.846 32.008-8.538m-95.091 25.655 44.591-12.492" style="fill:none;stroke:#231f20;stroke-width:1.55px;stroke-miterlimit:2.613"/><path d="M361.481 332.379c-2.629 5.054-3.55 11.158-.713 19.558 5.217.475 9.296.492 14.513.967-5.554-7.667-3.446-13.621.425-19.459-4.742-.354-9.483-.712-14.225-1.066Z" style="fill:#231f20;stroke:#231f20;stroke-width:.33px;stroke-miterlimit:2.613"/><path d="m476.996 307.37-95.162 26.396-52.05-4.237 98.412-20.688-3.904-6.358 52.704 4.887ZM420.864 274.88l-39.154 8.212-.608-11.862 39.762 3.65Z" style="fill:#fff;stroke:#231f20;stroke-width:.33px;stroke-miterlimit:2.613"/><path d="m422.569 275.087-28.037-2.604" style="fill:none;stroke:#231f20;stroke-width:1.55px;stroke-miterlimit:2.613"/><path d="m301.227 293.385 30.996 1.696 1.417-7.354-31.988-1.417-.425 7.075Z" style="fill:#fff;stroke:#231f20;stroke-width:.26px;stroke-miterlimit:2.613"/><path d="M174.595 287.864c-5.941 13.541-6.262 22.962-.975 28.258l157.213 13.321c1.192-.329 2.567-.279 3.758-.6-9.616-13.25-6.979-23.938-3.758-34.158-52.079-2.271-104.158-4.546-156.238-6.821Z" style="fill:#fff;stroke:#231f20;stroke-width:1.55px;stroke-miterlimit:2.613"/><path d="M421.458 275.522c-1.791 10.038-1.45 20.738 6.5 33.78l-92.25 19.166c-7.191-11.491-6.337-22.958-3.787-33.696 29.991-6.604 59.55-12.645 89.537-19.25Z" style="fill:#fff;stroke:#231f20;stroke-width:1.55px;stroke-miterlimit:2.613"/><path d="M193.923 288.515c-4.187 10.537-5.287 20.191-.487 29.233-1.733-.108-3.467-.217-5.2-.329-4.233-7.621-2.758-17.817.487-29.184 1.734 0 3.467.28 5.2.28ZM180.117 288.189c-4.992 12.692-6.033 22.642-1.3 28.583 1.946.109 2.492-.062 4.442.042-6.217-10.479-2.988-19.083 1.275-28.062-1.196 0-3.229-.563-4.417-.563Z" style="fill:#231f20;stroke:#231f20;stroke-width:.33px;stroke-miterlimit:2.613"/><path d="m411.741 284.136 8.421-1.683m-18.525 7.587 18.525-3.654m-17.683 7.588 18.237-3.654m-19.358 7.87L421 293.695m-33.113 6.741-19.925 4.217m31.992-.842 22.45-5.058m-53.6 14.054 25.821-5.342m7.854 2.53 22.729-5.059m-91.479 19.954 58.087-12.366m-59.491 8.712 25.82-5.904m-16.837-.558 28.058-6.184m-39.004 3.65 14.308-3.087" style="fill:none;stroke:#231f20;stroke-width:1.55px;stroke-miterlimit:2.613"/><path d="M157.038 310.626c-1.934 4.55-4.451 8.362-6.384 12.912 7.625 11.275 11.538 23.55 12.921 35.217.675 7.975 1.358 15.95 2.037 23.925-12.145-4.825-19.441-18.738-21.891-41.742 4.071-13.583 8.146-20.6 12.216-27.996 5.705-8.166 9.521-18.987 9.167-35.637-1.275-15.738 1.996-29.208 15.271-37.671-5.408-3.683-12.025-1.308-19.854 7.125-6.442-15.854-3.038-28.262 14.762-35.633-8.312-9.113-16.629-7.925-24.941 3.566-4.68.192-7.842-.825-11.309-3.054-.466 6.929.438 13.713 3.617 23.071-2.038.508-4.529 2.379-6.563 2.892 14.334 9.129 24.421 23.296 19.342 55.483-6.987 14.746-14.508 29.229-23.925 42.763-5.512-7.192-9.958-6.925-14.254-5.6 8.275 5.704 14.275 12.55 15.271 21.891 4.046 21.754 15.587 35.167 30.546 44.796-2.646 4.483-4.68 9.579-6.113 15.271 8.571-3.967 18.2-8.158 31.617-8.488 12.729-.033 25.908.234 38.637-8.308 2.28-8.654 1.367-15.171 0-21.383-5.708 5.958-12.55 11.541-21.891 16.291-9.938 5.355-19.271 1.625-28-11.2-2.396-6.595-3.584-14.4-3.559-23.416 1.817-15.996-6.258-30.375-16.721-45.075Zm-5.25-10.804c-10.45-8.721-16.104-26.446-6.537-37.788-3.154-3.612-9.537 2.471-15.271 6.617-3.412-5.325-6.454-12.542-8.654-23.925-1.967-13.213.917-23.392 8.654-30.542 11.684-9.212 23.35-17.092 36.25-23.875 7.733 3.296 15.767 3.413 22.292-.562 4.246-6.021 11.079-10.525 17.758-15.325-.554-1.992-8.537-2.163-21.212-.513 4.879-9.075-2.1-17.537-11.817-25.396 4.529 10.059 2.546 15.421-5.037 20.634-4.05-6.909-8.855-9.725-15.33-13-4.583-.846-7.795-1.696-12.379-2.546.608 4.604-.758 8-1.362 10.183.458 4.871 3.341 7.929 8.65 9.163 10.279 4.316 11.466 9.237 3.566 14.762-9.166 5.6-18.329 11.2-27.491 16.8-15.521 11.604-21.234 25.404-17.363 41.854 3.904 9.329 7.354 19.571 11.254 28.909-12 1.67-17.029 8.795-16.904 21.379 20.438-19.379 34.221-3.625 45.638 13.954 1.758-3.046 3.533-7.733 5.295-10.783Z" style="fill:#ed1c24;stroke:#231f20;stroke-width:1.55px;stroke-miterlimit:2.613"/><path d="M224.966 240.181c-.842 25.304-1.683 50.612-2.529 75.916.491 9.067-.071 17.784-2.95 25.725-2.534 9-1.692 17.438 2.529 25.309 5.904 10.262 7.875 19.962 5.904 29.104 2.95.279 5.904.558 8.854.842-4.429 2.95-6.533 8.995-7.587 16.445 3.933 2.109 8.433 1.971 13.495-.42-1.55 5.904-1.687 12.508 1.267 20.662 2.246-2.104 3.933-4.775 5.059-8.008l10.962 16.866 34.587-25.716 14.063-27.729-19.125-20.78 12.65-18.137c2.396-2.604 4.358-6.117 3.379-17.717-4.833-19.387-3.879-29.241-2.529-50.608-25.025-12.792-53.004-28.963-78.029-41.754Z" style="fill:#ed1c24;stroke:#231f20;stroke-width:1.55px;stroke-miterlimit:2.613"/><path d="M284.231 367.795c7.841-4.004 15.025-12.491 20.871-20.487 33.821 1.933 45.708 20.192 51.45 43.017-8.384 6.15-11.209 15.741-5.904 30.366-4.067 2.525-10.38-.787-17.713-6.746 1.125 4.217 2.25 8.438 3.375 12.65-6.467 1.88-12.933-1.858-19.4-7.166-4.733 10.925-17.137 8.171-25.946 16.812 8.213-4.891 25.063-5.191 28.054 11.446-8.012 3.933-16.025 7.871-24.041 11.808-8.013.142-16.025.28-24.038.421-15.412-7.325-13.521-9.087-15.183-26.571 2.933-15.275 9.842-22.07 33.925-23.441-6.092-1.088-15.733 1.896-15.867-2.121-.221-6.521 17.129-17.846 22.496-9.679 1.888-12.509-4.996-20.163-12.079-30.309Z" style="fill:#ed1c24;stroke:#231f20;stroke-width:1.55px;stroke-miterlimit:2.613"/><path d="M258.45 451.316c-4.242 4.062-6.313 12.896 1.1 18.583 3.283-6.271 6.262-9.087 10.52-10.154-.562-.321.338-.883-.225-1.208-.35-.196.142-7.509.163-7.913.108-1.792-2.808-3.296-3.925-.537-.817 2.025-1.113 6.3-1.479 6.237-3.046-.508-4.084-2.871-6.154-5.008Z" style="fill:#231f20;stroke:#231f20;stroke-width:.33px;stroke-miterlimit:2.613"/><path d="M284.255 459.381c.734-4.85-3.175-5.584-6.35-4.888-2.65 1.509-4.083 3.75-6.737 5.259 2.304 4.937 1.717 9.687-.854 14.304 9.033-2.513 12.704-7.934 13.941-14.675" style="fill:#231f20"/><path d="M284.255 459.381c.734-4.85-3.175-5.584-6.35-4.888-2.65 1.509-4.083 3.75-6.737 5.259 2.304 4.937 1.717 9.687-.854 14.304 9.033-2.513 12.704-7.934 13.941-14.675Z" style="fill:none;stroke:#231f20;stroke-width:.33px;stroke-miterlimit:2.613"/><path d="M292.573 453.879c1.908 4.254.77 8.663-1.225 13.575 6.629-2.483 9.779-7.308 12.1-12.108-.65-.734 1.737-5.125 1.087-5.859-.65-.733-4.712 2.192-5.362 1.455-2.567-.938-5.013.941-6.6 2.937Z" style="fill:#231f20;stroke:#231f20;stroke-width:.33px;stroke-miterlimit:2.613"/><path d="M303.945 452.166c1.334 5.5.238 10.513-3.3 15.038 7.163-3.009 13.917-11.946 15.884-18.204-1.467-1.55-3.179-.542-6.838-.505-2.887-.887-4.804.334-5.746 3.671Z" style="fill:#231f20;stroke:#231f20;stroke-width:.33px;stroke-miterlimit:2.613"/><path d="M305.516 444.419c3.975-1.829 7.137-.084 9.491 5.241m-28.604-1.704c6.734-5.858 12.454-7.037 15.946 2.071m-26.412-2.562c9.25-4.309 12.416-.121 12.416 12.07" style="fill:none;stroke:#231f20;stroke-width:1.55px;stroke-miterlimit:2.613"/><path d="M215.79 224.198c-28.742 26.592-29.167 37.167-19.792 63.283.938 2.613-.921 8.334.513 10.859 2.779-8.063 9.412-4.08 10.137-3.705 2.221 4.775 1.238 7.5-.495 11.617 4.725 1.746 5.308 5.129 10.129 6.083 5.412 1.071 4.725 4.113 10.383 7.013 9.021 2.392 14.046 3.462 23.233 2.475-1.954 9.171 5.171 18.45 15.571 20.762-3.383-3.795-5.521-6.841-6.675-10.137 12.642 1.4 22.121-.821 28.175-4.696-6.675-.412-12.358-3.708-12.604-5.929l-.371-.496c-2.008-2.512 11.558-7.137 21.875-10.871-1.858-2.641-5.975-4.454-15.079-4.454-3.05 1.488-6.096 1.979-9.146 1.488-4.942-1.817-5.6-4.288-1.975-7.417 4.496.479 8.388-6.679 15.075-9.638-5.929-2.391-10.875-2.804-14.829-1.237-3.967.104-9.792 3.687-17.054 10.379-21.133-8.858-27.638-24.012-23.725-44.733 4.096-11.504 9.092-14.388 8.379-24.913-.625-9.283-11.912-17.325-13.35-20.591-1.954-4.421-.642 5.07-8.375 14.858Z" style="fill:#ed1c24;stroke:#231f20;stroke-width:1.55px;stroke-miterlimit:2.613"/><path d="M270.632 289.263c2.129 2.175 3.842 4.771 4.633 8.284 2.925-2.384 5.855-4.767 8.775-7.155-5.641-2.05-10.108-2.425-13.408-1.129ZM282.16 306.211c.733 2.971 1.145 5.937.879 8.912 4.221-1.512 8.437-3.016 12.658-4.521-1.379-2.566-5.471-4.17-13.537-4.391ZM275.893 324.412c.546 2.758.046 5.225-.75 7.654 3.684-.825 7.838-2.188 11.53-4.017-3.888-.479-7.567-1.483-10.78-3.637ZM257.363 331.48c-1.825 1.375-2.458 2.712-4.604 2.833 2.404 3.662 6.85 6.496 12.4 8.267-2.85-3.205-6.512-7.575-7.796-11.1Z" style="fill:#231f20;stroke:#231f20;stroke-width:.33px;stroke-miterlimit:2.613"/><path d="M336.013 261.617c10.787-.13 23.267-1.355 34.758-2.888 9.363-.875 15.575-5.6 18.638-12.079.787-3.063 1.575-5.075 2.366-8.138 6.65 2.713 11.2 6.475 17.85 9.192-3.304 7.763-12.737 20.338-12.862 24.417-2.363 7.875-.525 13.391-1.313 19.691-4.029-5.12-3.854-8.45-5.254-10.237-4.287 7.438-3.85 9.096-4.2 14.962-7.204 3.384-12.187-2.795-15.225-3.675-1.666 1.838-2.804 6.825-2.366 12.863-6.434 1.096-10.459-4.067-13.388-12.075-3.067.917-4.904 5.379-6.567 12.6-7.791-.263-16.629-11.117-18.379-14.175-2.012-2.104-24.204.479-27.091-2.054 6.895-9.388 31.041-19.721 33.033-28.404Z" style="fill:#ed1c24;stroke:#231f20;stroke-width:1.55px;stroke-miterlimit:2.613"/><path d="M426.772 246.834c-10.741 4.55-12.112 2.779-14.17-2.971-.13-13.85.195-25.475.07-39.329 3.834.25 7.671 1.162 11.505 1.412.516-3.983 1.633-7.741 3.337-9.946-8.121-8.012-15.179-6.541-21.517.296-4.037 6.896-2.054 34.063-3.416 51.871 7.633 8.854 10.287 9.008 27.162 6.458a5660.59 5660.59 0 0 1-2.97-7.791Z" style="fill:#fff200;stroke:#231f20;stroke-width:1.55px;stroke-miterlimit:2.613"/><path d="M423.302 206.886c-4.463-3.325-8.213-7.771-13.675-7.95-9.363.484-16.979 4.192-22.146 9.571 1.675 1.379 4.904 3.554 6.892 4.804 1.783 1.125 10.462-.121 14.712.929 1.929.475.479 2.688.067 2.471-2.988-1.562-11.029-1.887-12.888.579-4.15 3.55-8.021 3.617-12.171 5.638 1.988 4.667 5.142 5.133 9.109 5.708.37.054 1.346 1.079 2.854 1.509 2.883.825 7.279 1.35 10.054 1.729 1.458.196.142 1.308.271 1.504.483.712-11.608-1.867-11.096-1.55-4.033 2.237-7.429 3.2-13.75 3.533 3.854 5.55 7.983 9.838 10.454 10 12.363 1.429 23.979-1.508 32.529-8.854-.937-8.371-1.804-20.487-1.216-29.621Z" style="fill:#ed1c24;stroke:#231f20;stroke-width:1.55px;stroke-miterlimit:2.613"/><path d="M398.9 201.204c-.688 3.954-1.021 7.721-.571 12.441l-3.571-.57a5291.08 5291.08 0 0 0-6.854-4.434c3.283-3.387 6.95-5.579 10.996-7.437ZM384.333 223.085c1.05 3.721 5.812 5.15 12.137 6.867-1.238-4.53-1.429-9.109 0-12.871-3.458 2.083-7.533 4.3-12.137 6.004ZM394.9 232.096c-1.475 3.762-2.858 7.716-3.567 13.016-3.995-2.287-6.95-5.629-9.425-9.441 4.713-.046 9.046-1.242 12.992-3.575Z" style="fill:#231f20;stroke:#231f20;stroke-width:.33px;stroke-miterlimit:2.613"/><path d="M429.698 254.701c.742 1.709 1.479 2.3 2.225 4.009 1.637 3.416 3.862 4.754 6.683 4.012 5.204-1.562 10.029-1.717 12.25-.892 5.792-.141 12.7 4.8 17.375 4.9 6.092-1.858 11.063-8.837 12.925-12.92 2.371-9.725 4.746-18.117 7.125-27.842-1.112-6.163-2.229-12.325-3.341-18.488-3.567-3.12-4.459-10.695-8.021-13.812-29.325-6.463-28.659-4.271-44.271-2.842-3.004.275-8.063 7.654-8.746 15.317-1.483 13.958-.737 29.179 5.796 48.558" style="fill:#fff200"/><path d="M429.698 254.701c.742 1.709 1.479 2.3 2.225 4.009 1.637 3.416 3.862 4.754 6.683 4.012 5.204-1.562 10.029-1.717 12.25-.892 5.792-.141 12.7 4.8 17.375 4.9 6.092-1.858 11.063-8.837 12.925-12.92 2.371-9.725 4.746-18.117 7.125-27.842-1.112-6.163-2.229-12.325-3.341-18.488-3.567-3.12-4.459-10.695-8.021-13.812-29.325-6.463-28.659-4.271-44.271-2.842-3.004.275-8.063 7.654-8.746 15.317-1.483 13.958-.737 29.179 5.796 48.558Z" style="fill:none;stroke:#231f20;stroke-width:1.55px;stroke-miterlimit:2.613"/><path d="M448.407 211.265c5.571 7.054 10.246 7.275 14.033.666 7.059 12.996 9.95 11.438 8.688-4.675 5.492-2.45 8.617-1.041 9.354 4.229 5.008 11.275 10.8 20.075 19.383 20.05 4.305-1.708 5.346-4.604 3.117-8.687-6.458-4.825-9.95-9.654-10.471-14.479 1.563-7.388-3.412-11.917-11.358-15.15.075-9.129-5.571-9.279-13.813-5.342-5.812-5.533-11.266-4.717-16.483.446-6.383-6.758-11.283-6.092-14.7 2.004-6.162-.817-8.762 2.525-7.8 10.021.446 4.217 2.446 8.558 10.029 13.367 3.079.483 6.346.037 10.021-2.45ZM494.518 239.554c-.521 3.417-.442 8.463.225 14.254 3.375 7.95 14.441 5.35 11.137-4.008-2.6-4.454-6.387-8.167-11.363-10.246ZM483.604 279.205c-1.708 3.117-1.637 8.167.221 14.258 2.625 8.513 12.775 6.596 11.142-4.012-2.6-4.454-6.392-8.167-11.363-10.246Z" style="fill:#fff;stroke:#231f20;stroke-width:1.55px;stroke-miterlimit:2.613"/><path d="M478.701 223.292c.817 9.505-1.333 19.009-6.458 28.513m-4.229-27.175c-1.675 8.204-2.417 16.967-1.117 26.954m-12.921-30.075c-.129 11.713-2.466 19.4-5.571 26.954m-10.691-29.404c-1.854 10.917-1.634 21.238.671 30.967m32.966-51.679c5.938 5.791 13.292-5.567 2.675-6.017m-16.708 4.008c10.917-1.779 3.567 12.771-3.342 6.238m-9.8-9.579c-7.796 1.633-3.266 10.616 2.225 6.237" style="fill:none;stroke:#231f20;stroke-width:1.55px;stroke-miterlimit:2.613"/><path d="M266.152 152.693c-19.95-7.833-25.704 21.134-44.558 26.138 6.804.458 9.75-.459 25.979-8.684-37.846 19.275-29.958 23.867-39.4 56.063 5.512-1.746 8.604-3.963 18.675-11.629-15.958 16.679-8.679 19.616-3.3 43.662 2.842-4.037 4.437-9.604 6.404-15.379.229 17.308 4.513 23.938 16.663 36.521 1.062-3.204 2.133-4.808 3.2-8.008 5.658 7.633 13.241 13.183 18.9 15.691 3.525-3.521 8.008-9.287 8.008-14.408 8.329 8.779 15.696 16.2 24.025 22.417 2.237-7.959 6.933-9.575 13.771-13.45-.159 6.883.804 13.4 3.208 16.016 2.696-6.35 10.483-14.533 14.908-23.458 3.909-7.879 3.159-9.979 4.5-22.033 1.93 12.95 3.517 11.475 10.7 17.3 4.059-8.063 6.617-15.109 8.971-24.025 1.279 1.925 2.663 4.804 4.804 6.729-.325-4.271.53-9.504 1.921-13.775 6.734-18.913 3.509-25.442-2.879-36.2-3.979-15.421-14.746-24.834-25.312-35.875 4.512-8.175 7.637-7.6 15.058-4.163-10.021-19.237-13.779-7.9-31.7-12.3-16.479-4.041-37.454-21.825-52.546 2.85Z" style="fill:#ed1c24;stroke:#231f20;stroke-width:1.55px;stroke-miterlimit:2.613"/><path d="m353.884 203.464 28.55 6.729m4.192-7.687-32.742.958m.038-1.921 32.608-5.379m-33.25 2.175 32.675-10.25m-123.65 57.658 43.887-33.954m-53.175 21.142 49.971-23.704m.321-6.088-57.337 8.971m5.125 12.813 52.212-21.784m33.638-24.983c2.983-1.821 6.083-3.421 9.925-3.525m-48.046 6.725c5.883-3.113 11.371-3.608 17.937-1.6m-50.612-27.033c-2.779 2.237-4.059 5.675-5.125 8.775 6.621-5.342 12.066-7.159 16.979-7.367" style="fill:none;stroke:#231f20;stroke-width:1.55px;stroke-miterlimit:2.613"/><path d="M301.162 195.841c4.292-2.488 8.554-3.95 12.846-6.438 3.179-2.287 2.625-4.346-.771-4.837-8.171-.217-10.883.616-14.862 1.6 3.108.396 3.975-1.004 7.079-.609-.192 1.867.066 5.53-.125 7.396-1.546 1.079-2.617 1.809-4.167 2.888Z" style="fill:#231f20;stroke:#231f20;stroke-width:1.55px;stroke-miterlimit:2.613"/><path d="M317.918 231.001c-2.987-.25-1.95 1.871-1.004 2.288 11.917 5.246 17.067 4.241 23.559-1.85 1.395-2.05-.95-1.454-1.817-1.05-8.342 3.866-13.675 2.775-20.738.612Z" style="fill:#231f20;stroke:#231f20;stroke-width:.33px;stroke-miterlimit:2.613"/><path d="M305.866 123.168c.183 12.109-3.213 19.309-6.204 27.121 7.425 11.613 17.483 15.404 30.637 12.292 5.275-10.254 8.604-18.567 18.884-24.629-4.53-.125-9.471.562-14.817 2.07-.321-5.22-2.071-9.116-4.025-13.52-4.892.775-9.983 3.495-14.058 7.545-2.042-4.445-5.105-8.887-10.417-10.879Z" style="fill:#fff200;stroke:#231f20;stroke-width:1.55px;stroke-miterlimit:2.613"/><path d="M300.425 226.466c-2.145 5.338-6.308 7.313-6.212 11.084.558 3.104 3.054 5.687 5.475 5.283 1.896.229 4.65-3.092 4.679-5.029.404-5.421-2.325-5.467-3.942-11.338ZM313.491 239.935c-2.904 4.967-6.191 5.862-6.65 9.604.096 3.154 2.192 6.075 4.646 6.033 1.838.505 5.046-2.379 5.363-4.291 1.191-5.304-2.621-5.3-3.359-11.346Z" style="fill:#fff;stroke:#231f20;stroke-width:1.55px;stroke-miterlimit:2.613"/><path d="M285.647 202.49c4.641 12.37 23.741 25.616 39.012 25.608 18.3.292 25.054-10.033 37.329-21.025-1.408-2.383-1.287-3.358-2.695-5.738-5.7 7.88-17.138 12.009-19.4 12.371-.634-.216-6.95-3.291-6.638-8.233.042-.675-3.171-.754-3.179 0-.071 7.692-8.7 14.562-9.825 14.6-8.559.287-20.429.487-32.284-18.171l3.642-1.404c-.087-.475-.167-.954-.25-1.429-3.046 1.521-6.408 2.258-10.079 2.208l.092.792c.104.946 3.583.25 4.275.421Z" style="fill:#231f20;stroke:#231f20;stroke-width:1.55px;stroke-miterlimit:2.613"/><path d="M318.732 196.822c-.042-2.238 13.654-5.355 16.304-5.055 2.029.171 8.971 6.309 8.934 8.425-.046 1.988-7.463 4.363-11.005 4.409-2.195.212-14.233-5.534-14.233-7.779" style="fill:#231f20"/><path d="M318.732 196.822c-.042-2.238 13.654-5.355 16.304-5.055 2.029.171 8.971 6.309 8.934 8.425-.046 1.988-7.463 4.363-11.005 4.409-2.195.212-14.233-5.534-14.233-7.779ZM319.64 187.62l-.909 9.333" style="fill:none;stroke:#231f20;stroke-width:1.55px;stroke-miterlimit:2.613"/><path d="M345.262 178.157c-3.279 2.333-9.662 4.017-9.708 6.742 4.833-.446 9.796-1.634 14.625-1.038-1.425-1.987-3.496-3.716-4.917-5.704Z" style="fill:#231f20;stroke:#231f20;stroke-width:.33px;stroke-miterlimit:2.613"/><path d="m331.639 329.363 50.875 4.379 93.733-26.208M335.426 191.638l1.163-6.871c.133 0 .133-.387.133-.52M425.377 302.524l52.071 4.463M355.675 390.651l61.691 5.408 85.921-25.837m-83.712-5.005 87.316 4.2" style="fill:none;stroke:#231f20;stroke-width:1.55px;stroke-miterlimit:2.613"/><path d="M330.919 294.476c.396.041.787.087 1.183.125-3.471 13.191-2.2 24.887 3.8 34.091-.433.125-.871.246-1.304.375-7.408-10.145-8.079-22.12-3.679-34.591ZM382.046 333.774l1.171-.108c-1.254 8.008-.979 14.887 2.029 19.771-.354.083-.713.175-1.067.262-.212-.037-.429-.067-.641-.104-2.763-6.608-2.992-13.217-1.492-19.821Z" style="fill:#231f20;stroke:#231f20;stroke-width:.33px;stroke-miterlimit:2.613"/><path d="M62.226 450.262c-.004 2.363.575 7.071 1.75 14.104l26.096-16.187c.012-.954-.15-1.95-.484-2.975-.325-1.025-.825-2.084-1.508-3.171-2.354-3.792-4.567-6.192-6.65-7.188-1.971-.937-4.104-1.341-6.392-1.191-2.3.146-4.383.791-6.237 1.95-4.358 2.704-6.55 7.587-6.575 14.658m36.279-1.996c.629 1.05.813 2.146.563 3.279-.267 1.125-.888 2.005-1.863 2.609-1.758 1.087-4.458 2.641-8.067 4.65-3.621 2.012-6.308 3.558-8.066 4.65a515.846 515.846 0 0 0-8.692 5.571c-3.85 2.5-6.758 4.35-8.708 5.558-.971.6-2.217.733-3.759.396-1.529-.342-2.625-1.029-3.275-2.084-.362-.583-.729-2.387-1.079-5.391-.392-3.534-.662-5.604-.821-6.209-1.529-6.183-1.671-12.179-.425-17.987 1.467-6.925 4.725-11.95 9.767-15.071 3.046-1.887 6.392-2.929 10.058-3.142 3.725-.237 7.229.43 10.538 1.98 3.696 1.745 7.187 5.254 10.479 10.541.787 1.279 1.529 2.871 2.183 4.775.804 2.304 1.196 4.267 1.167 5.875M45.836 425.543c-.525-1.079-1.367-1.763-2.538-2.05-.837-.204-1.666-.2-2.462.054-4.367 1.313-6.884 2.117-7.529 2.442-1.013.487-1.675 1.191-2.025 2.125-.338.937-.259 1.916.237 2.937 1 2.071 2.613 2.767 4.838 2.104 4.279-1.266 6.85-2.108 7.708-2.512 1-.492 1.671-1.2 2.008-2.15.342-.946.254-1.925-.237-2.95M59.931 374.119c1.866 1.896 4.104 5.087 6.708 9.558 2.396 4.083 4.121 7.538 5.192 10.338 1.796 4.737.621 7.895-3.538 9.475.338-.13-2.804.841-9.4 2.912-8.579 2.683-17.996 5.975-28.275 9.871-1.108.429-2.187.4-3.241-.071-1.067-.467-1.817-1.279-2.259-2.437-.437-1.163-.416-2.271.054-3.338.484-1.067 1.271-1.808 2.375-2.233 10.292-3.913 19.871-7.25 28.742-10.029 1.617-.409 4.05-1.121 7.308-2.146-1.812-4.546-5.166-10.004-10.058-16.35a4.988 4.988 0 0 1-.687-1.196c-.467-1.221-.388-2.371.216-3.463.525-.979 1.288-1.658 2.271-2.037 1.671-.629 3.196-.246 4.592 1.146M13.829 345.229a4.6 4.6 0 0 1 .075 1.321c-.192 3.454.025 6.737.671 9.837.32 1.508.779 3.117 1.387 4.804a56.321 56.321 0 0 0 2.246 5.329c2.692-.566 6.708-1.308 12.054-2.241-.308-1.121-1.512-4.996-3.592-11.634-1.2-3.787-1.904-6.187-2.112-7.216-.25-1.204-.083-2.3.492-3.304.587-1.017 1.504-1.646 2.758-1.913 2.417-.504 4.042.5 4.912 3a551.785 551.785 0 0 0 2.113 7.138c.929 2.791 2.225 7.045 3.896 12.737 2.596-.4 4.687-.767 6.271-1.096 3.962-.829 6.175-1.529 6.616-2.108.217-.275.092-1.588-.396-3.904-.27-1.259-.691-3.146-1.283-5.659a234.025 234.025 0 0 1-1.279-5.662c-.079-.404-.271-.988-.554-1.758-.292-.755-.471-1.33-.554-1.717-.242-1.179-.121-2.242.383-3.213.546-1.112 1.5-1.804 2.85-2.087 2.262-.475 3.867.425 4.808 2.696.809 1.941 1.879 6.104 3.209 12.479 1.383 6.596 1.387 11.083.025 13.458-1.505 2.621-5.517 4.609-12.063 5.975-2.7.567-6.821 1.217-12.333 1.963-5.525.741-9.621 1.391-12.317 1.962-.704.142-1.733.467-3.071.95-1.354.492-2.379.817-3.087.967-3.071.633-4.904-.458-5.504-3.288a4.4 4.4 0 0 1 .254-2.616 61.754 61.754 0 0 1-2.713-6.417 44.44 44.44 0 0 1-1.7-5.896c-1.058-5.096-1.325-9.3-.791-12.6.312-2.004 1.408-3.204 3.262-3.591 1.054-.23 2.063-.055 3.017.508 1.1.617 1.783 1.55 2.05 2.796M13.031 292.425c.029 1.612-.05 4.121-.229 7.537-.183 3.288-.246 5.796-.2 7.525 2.354-.112 6.538-.45 12.571-1.016 5.317-.508 9.533-.779 12.629-.821.713-.012 1.746-.108 3.133-.262 1.388-.167 2.421-.255 3.134-.259 1.55-.029 2.941.279 4.191.925 1.609.834 2.421 2.021 2.438 3.592a4.54 4.54 0 0 1-1.038 3.025c-.795.987-1.804 1.492-3.02 1.508a9.37 9.37 0 0 1-1.317-.137c-.592-.096-1.042-.142-1.35-.138-.958.009-2.392.1-4.308.259-1.917.166-3.367.254-4.342.266-2.767.038-6.517.304-11.246.817-5.425.562-9.167.904-11.242 1.017l.03 1.608c.062 4.617-.221 8.283-.838 10.992-.521 2.304-1.858 3.483-4.012 3.512-1.05.012-2.009-.346-2.867-1.087-1.025-.851-1.492-1.976-1.408-3.384.025-.729.179-2.379.454-4.937.2-2.046.287-3.709.275-4.967a563.631 563.631 0 0 0-.142-5.662 498.125 498.125 0 0 1-.15-5.646c-.017-1.571.063-3.934.225-7.079.179-3.142.254-5.505.225-7.075-.017-1.242.371-2.284 1.175-3.125.788-.859 1.775-1.288 2.954-1.3 1.179-.017 2.184.391 3.004 1.208.838.829 1.255 1.862 1.271 3.104M18.728 243.733a144.301 144.301 0 0 0 2.079 4.525c2.054 3.829 5.863 8.559 11.425 14.179 4.35 4.325 8.708 8.65 13.083 12.975l.125.146c.184-1.491.555-5.121 1.13-10.866.441-4.505.854-8.096 1.237-10.746.425-2.934.821-4.896 1.2-5.917.883-2.379 2.238-3.467 4.071-3.292 1.362.13 2.367.759 2.992 1.875.554.95.75 2.034.575 3.246a51.805 51.805 0 0 1-.5 2.654c-.234 1.175-.4 2.055-.488 2.655-.45 3.112-1.042 7.787-1.787 14.045-.742 6.246-1.346 10.934-1.796 14.046-.188 1.321-.679 2.367-1.479 3.129-.875.863-1.984 1.192-3.309 1-1.475-.208-3.129-1.108-4.971-2.691-.579-.5-1.954-1.884-4.137-4.134-4-4-7.983-8.012-11.958-12.033-4.584-4.75-8.221-9.112-10.9-13.067-.238 3.221-.48 5.68-.721 7.35l-1.784 12.413c-.037.221-.066.546-.095.979-.025.446-.067.771-.1.992-.175 1.212-.663 2.179-1.475 2.916-.917.83-2.03 1.159-3.342.971-2.808-.408-3.917-2.687-3.308-6.841.204-1.409.6-3.509 1.175-6.288.579-2.779.962-4.875 1.166-6.283.225-1.579.525-3.938.904-7.096.367-3.154.667-5.513.896-7.088.879-6.1 2.642-8.962 5.304-8.579 1.705.242 3.3 1.859 4.788 4.825M27.822 199.316a5.007 5.007 0 0 1-.567 1.187c-1.858 2.929-3.254 5.904-4.187 8.929-.463 1.48-.829 3.113-1.117 4.88a54.765 54.765 0 0 0-.621 5.75c2.625.816 6.5 2.104 11.625 3.887.267-1.133 1.092-5.104 2.492-11.929.792-3.892 1.338-6.342 1.65-7.342.363-1.166 1.05-2.05 2.046-2.654.987-.6 2.108-.708 3.329-.333 2.354.737 3.292 2.4 2.833 5.004a575.792 575.792 0 0 0-1.6 7.271c-.554 2.904-1.475 7.254-2.766 13.046a123.14 123.14 0 0 0 6.016 2.075c3.867 1.2 6.13 1.654 6.805 1.366.325-.146.837-1.346 1.55-3.616.375-1.23.908-3.088 1.62-5.571.7-2.484 1.242-4.342 1.63-5.571.116-.4.245-.996.366-1.804.117-.809.234-1.396.35-1.771.354-1.15.984-2.025 1.888-2.633 1.012-.709 2.187-.855 3.512-.438 2.209.683 3.171 2.246 2.888 4.688-.234 2.095-1.313 6.245-3.238 12.47-1.996 6.442-4.162 10.367-6.504 11.788-2.579 1.562-7.062 1.354-13.437-.625-2.65-.813-6.571-2.242-11.759-4.258-5.179-2.03-9.083-3.446-11.712-4.259-.696-.208-1.746-.429-3.154-.654-1.421-.229-2.467-.446-3.167-.667-3.004-.916-4.075-2.77-3.221-5.533a4.382 4.382 0 0 1 1.488-2.162c.137-2.475.383-4.784.737-6.938.354-2.142.813-4.142 1.383-5.975 1.538-4.975 3.342-8.775 5.4-11.408 1.255-1.604 2.788-2.121 4.609-1.554 1.033.312 1.829.95 2.4 1.904.671 1.079.808 2.221.433 3.45M60.769 178.356c-.888 1.659-2.275 4.104-4.175 7.325l10.225 5.484c1.512-3.225 2.741-6.942 3.666-11.163.796-3.687.671-5.808-.412-6.333-1.433-.696-3.225-.338-5.396 1.079-1.712 1.1-3.017 2.3-3.908 3.608m-21.029-7.162c-1.267 2.346-2 3.766-2.221 4.262l5.808 3.075 5.721 3.104c1.096-1.55 1.829-2.758 2.2-3.641 2.558-5.817 2-9.709-1.667-11.659-1.283-.7-2.975-.55-5.058.45-2.167 1.021-3.754 2.492-4.783 4.409m39.108 9.804c-.696 5.104-2.779 10.896-6.258 17.379-.584 1.092-1.567 1.821-2.934 2.2-1.379.379-2.583.292-3.621-.262l-28.97-15.534a392.831 392.831 0 0 1-3.805-1.85c-1.42-.708-2.583-1.387-3.466-2.05-1.575-1.171-1.763-3.321-.55-6.446.333-1.604 1.366-4.008 3.083-7.22 1.846-3.438 4.733-6.138 8.638-8.105 4.57-2.312 8.795-2.425 12.679-.345 2.1 1.116 3.658 2.454 4.687 3.983.842 1.225 1.529 2.95 2.054 5.154 1.813-1.308 3.942-2.179 6.405-2.625 2.762-.5 5.104-.242 7.008.775 2.429 1.3 4.017 3.85 4.767 7.654.495 2.542.583 4.975.283 7.292M101.691 137.792a20.413 20.413 0 0 1 .912 7.421c-.204 3.084-1.116 5.738-2.741 7.946-3.117 4.258-6.229 6.833-9.354 7.729-6.596 1.892-14.075-.246-22.471-6.387-.804-.584-1.975-1.5-3.496-2.738-1.529-1.254-2.696-2.166-3.504-2.754-.642-.467-1.575-1.187-2.829-2.15-1.246-.958-2.184-1.679-2.825-2.137a11.902 11.902 0 0 1-3.18-3.446c-1.07-1.775-1.166-3.254-.316-4.429.679-.917 1.558-1.513 2.666-1.78 1.184-.316 2.263-.12 3.242.605.925.675 2.329 1.72 4.196 3.129 1.871 1.4 3.275 2.454 4.221 3.141.787.571 1.946 1.488 3.466 2.725 1.521 1.242 2.68 2.146 3.463 2.717 2.529 1.85 5.1 3.275 7.717 4.258 3.104 1.205 5.67 1.505 7.691.909 1.046-.304 2.554-1.767 4.517-4.371 3.283-4.354 1.696-10.075-4.75-17.146-3.338-3.675-8.55-8.1-15.642-13.292-.933-.675-1.637-1.616-2.104-2.795-.596-1.596-.396-3.088.625-4.475.825-1.13 1.863-1.675 3.113-1.638.929.021 1.775.3 2.529.85 6.591 4.821 11.504 8.892 14.733 12.213 5.008 5.091 8.383 10.391 10.121 15.895M110.439 79.39c-.3.292-.662.533-1.079.758-3.071 1.609-5.775 3.484-8.087 5.634a37.276 37.276 0 0 0-3.421 3.67c-1.134 1.388-2.259 2.946-3.396 4.675 1.871 2.013 4.575 5.08 8.129 9.171.804-.846 3.504-3.866 8.117-9.071 2.637-2.97 4.341-4.816 5.116-5.525.892-.829 1.925-1.258 3.092-1.279 1.158-.021 2.183.438 3.054 1.379 1.667 1.8 1.654 3.717-.046 5.742a596.513 596.513 0 0 0-5.025 5.492c-1.929 2.233-4.912 5.533-8.929 9.891 1.692 2.021 3.084 3.63 4.171 4.813 2.763 2.975 4.5 4.504 5.229 4.596.346.041 1.388-.75 3.129-2.359.955-.879 2.342-2.212 4.205-4.016a249.63 249.63 0 0 1 4.187-4.009c.304-.279.708-.737 1.213-1.375.512-.641.908-1.095 1.2-1.366.87-.809 1.858-1.25 2.945-1.329 1.238-.1 2.325.354 3.263 1.37 1.571 1.696 1.629 3.538.158 5.521-1.25 1.692-4.258 4.746-9.037 9.179-4.938 4.58-8.788 6.888-11.517 6.95-3.029.063-6.804-2.362-11.346-7.262-1.879-2.033-4.554-5.229-8.033-9.567-3.479-4.35-6.154-7.533-8.025-9.554-.488-.525-1.296-1.242-2.404-2.142-1.113-.895-1.925-1.608-2.413-2.145-2.133-2.305-2.141-4.446-.016-6.405a4.346 4.346 0 0 1 2.366-1.141 67.515 67.515 0 0 1 4.1-5.625 43.484 43.484 0 0 1 4.184-4.496c3.825-3.529 7.287-5.925 10.387-7.163 1.888-.762 3.471-.45 4.763.946.729.792 1.1 1.738 1.12 2.85.038 1.267-.412 2.321-1.354 3.192M131.09 63.948c-.142.075-1.184.696-3.117 1.871l9.404 13.525c.425-.284.813-.529 1.133-.754 4.159-2.896 6.884-5.555 8.163-7.984a11.283 11.283 0 0 0 1.158-3.404c.213-1.237.184-2.037-.071-2.408-1.32-1.909-3.8-2.896-7.433-2.992-3.45-.067-6.525.642-9.237 2.146m38.575 20.696c-.917.637-2 .862-3.263.675-8.487-1.246-16.462-.663-23.912 1.754 3.616 4.812 5.616 7.492 5.987 8.033.679.967.908 2.021.696 3.163-.213 1.133-.825 2.066-1.846 2.771-1.012.708-2.096.954-3.242.754-1.141-.192-2.045-.784-2.72-1.742-.884-1.279-2.2-3.2-3.925-5.754a565.897 565.897 0 0 0-3.93-5.742l-14.237-20.583c-.767-1.1-1.129-2.342-1.1-3.696.071-1.758.908-3.108 2.521-4.05 4.329-2.554 6.554-3.862 6.662-3.921 2.584-1.362 4.992-2.204 7.246-2.5 9.788-1.396 16.546.613 20.308 6.009 1.542 2.229 2.155 4.725 1.817 7.483-.333 2.758-1.612 5.783-3.833 9.071 6.237-.617 11.412-.413 15.5.621 1.066.275 1.883.816 2.462 1.654.659.95.875 2.012.638 3.196-.234 1.187-.838 2.116-1.829 2.804M203.888 46.262c1.421 6.154 1.017 11.825-1.2 17.013-2.275 5.229-6.02 9.104-11.241 11.633-4.963 2.396-9.304 2.883-13.042 1.467-3.737-1.417-6.871-4.742-9.4-9.975-2.3-4.759-3.492-10.213-3.571-16.355-.071-6.133.979-11.654 3.159-16.545 1.537-3.425 3.787-5.855 6.737-7.284 1.808-.875 4.575-1.408 8.321-1.612 4.421-.242 7.062.521 7.908 2.266.484 1 .542 2.088.159 3.242-.384 1.167-1.13 2.013-2.255 2.546-.554.279-2.041.342-4.454.221-2.421-.125-4.408.187-5.991.958-1.675.804-3.067 3.708-4.163 8.692-1.612 7.25-.937 13.946 2.021 20.058 1.5 3.121 2.971 5.004 4.433 5.679 1.529.709 3.688.396 6.459-.946 2.837-1.379 4.958-3.404 6.325-6.062 1.462-2.825 1.954-6.125 1.466-9.938-4.154 2.43-7.483 5.13-9.991 8.109-.459.533-.967.941-1.546 1.225-1.154.55-2.321.591-3.492.104-1.058-.433-1.825-1.129-2.292-2.088-1.379-2.858 1.03-6.479 7.221-10.858 3.488-2.479 7.759-4.933 12.829-7.375 1.113-.546 2.23-.629 3.334-.271 1.104.359 1.912 1.071 2.425 2.125.654 1.367.604 2.688-.159 3.971M236.2 14.632c-.395.104-.82.158-1.3.15-3.466-.025-6.733.366-9.787 1.183-1.5.392-3.075.942-4.729 1.633a54.243 54.243 0 0 0-5.196 2.521c.7 2.658 1.654 6.633 2.867 11.917 1.091-.375 4.9-1.771 11.42-4.196 3.713-1.383 6.084-2.217 7.105-2.488 1.17-.304 2.291-.204 3.325.321 1.037.538 1.72 1.413 2.045 2.663.625 2.375-.283 4.054-2.733 5.05-1.567.537-3.904 1.375-7.008 2.483-2.754 1.075-6.934 2.596-12.534 4.558.534 2.58 1.013 4.642 1.425 6.2 1.034 3.917 1.855 6.084 2.459 6.5.283.209 1.579.005 3.879-.6 1.237-.333 3.104-.854 5.579-1.579a319.012 319.012 0 0 1 5.583-1.575c.409-.104.984-.316 1.721-.646.75-.329 1.317-.541 1.7-.637 1.154-.304 2.234-.233 3.225.204 1.138.496 1.884 1.408 2.234 2.742.595 2.237-.221 3.887-2.442 4.941-1.904.913-5.992 2.2-12.292 3.867-6.512 1.713-10.987 1.963-13.433.721-2.688-1.358-4.892-5.267-6.596-11.725-.712-2.679-1.575-6.754-2.608-12.221-1.029-5.462-1.904-9.533-2.604-12.187-.188-.7-.555-1.709-1.113-3.034-.562-1.312-.933-2.321-1.117-3.021-.804-3.033.192-4.929 2.988-5.662.883-.242 1.75-.2 2.625.1 2.162-1.183 4.246-2.2 6.267-3.042 2.008-.833 3.941-1.496 5.804-1.987 5.025-1.329 9.208-1.821 12.529-1.467 2.021.221 3.271 1.246 3.762 3.088.271 1.033.163 2.041-.35 3.033-.558 1.133-1.45 1.858-2.7 2.192M261.945 10.479c-.171 0-1.383.063-3.637.188l1.954 16.354c.521-.046.966-.084 1.362-.134 5.029-.6 8.671-1.67 10.95-3.208a11.38 11.38 0 0 0 2.621-2.471c.763-.987 1.121-1.708 1.075-2.158-.275-2.304-1.996-4.342-5.175-6.129-3.008-1.684-6.062-2.492-9.15-2.442m24.354 36.379c-1.112.142-2.179-.171-3.208-.929-6.913-5.083-14.229-8.312-21.946-9.683.938 5.946 1.442 9.25 1.525 9.9.133 1.175-.154 2.221-.883 3.121-.721.916-1.692 1.445-2.929 1.587-1.23.146-2.309-.137-3.221-.846-.913-.721-1.442-1.662-1.584-2.825a499.736 499.736 0 0 1-.766-6.925 797.262 797.262 0 0 0-.763-6.912L249.62 8.487a6.003 6.003 0 0 1 .763-3.775c.879-1.52 2.258-2.312 4.116-2.387 5.029-.229 7.613-.342 7.738-.333 2.921.004 5.437.4 7.571 1.187 9.287 3.371 14.325 8.317 15.108 14.838.317 2.691-.321 5.179-1.908 7.454-1.592 2.283-4.138 4.35-7.646 6.212 5.804 2.379 10.275 4.992 13.391 7.829.817.734 1.288 1.609 1.405 2.613.137 1.154-.175 2.196-.942 3.129-.763.929-1.733 1.471-2.917 1.604M344.387 48.315c-5.192-.725-9.129-2.446-11.796-5.179-2.254-2.275-3.208-4.663-2.854-7.188.183-1.291.721-2.304 1.608-3.041.9-.742 2.034-1.017 3.405-.825 1.837.25 3.066 1.387 3.658 3.387.817 2.679 3.283 4.3 7.392 4.879 3.525.484 7.041.192 10.545-.883 3.642-1.108 5.592-2.6 5.855-4.479.358-2.575-.471-4.425-2.484-5.542-1.433-.808-4.425-1.575-8.983-2.308-3.521-.584-6.6-1.684-9.233-3.317-3.555-2.229-5.08-4.921-4.575-8.092.62-3.987 3.258-7.354 7.912-10.091 4.658-2.75 9.517-3.763 14.567-3.067 2.012.271 4.416 1.083 7.246 2.413 3.504 1.662 5.145 3.229 4.937 4.729-.146 1.062-.642 1.954-1.496 2.666-.95.809-2.062 1.125-3.354.95-.954-.137-2.371-.541-4.225-1.212-1.854-.679-3.279-1.083-4.258-1.221a16.398 16.398 0 0 0-7.784.858c-2.633.934-4.054 2.142-4.262 3.634-.104.779.175 1.475.862 2.075.68.608 1.742 1.116 3.213 1.533 2.596.508 5.183 1.017 7.771 1.521 4.483.975 7.908 2.746 10.237 5.325 2.567 2.858 3.55 6.458 2.942 10.8-.729 5.279-4.296 8.867-10.696 10.75-4.875 1.433-10.254 1.742-16.15.925M420.86 28.655c-1.525-.516-3.863-1.441-7.021-2.762-3.029-1.275-5.366-2.179-7.017-2.725-.683 2.254-1.791 6.317-3.291 12.179-1.325 5.183-2.479 9.242-3.488 12.175-.225.663-.495 1.675-.808 3.033-.308 1.359-.579 2.371-.804 3.034-.504 1.471-1.267 2.683-2.3 3.641-1.313 1.238-2.717 1.596-4.196 1.084-1.079-.371-1.917-1.034-2.508-1.996-.659-1.088-.784-2.2-.388-3.35.096-.279.283-.683.571-1.204a9.48 9.48 0 0 0 .583-1.221c.304-.9.709-2.288 1.204-4.142.5-1.862.905-3.258 1.221-4.171.892-2.625 1.9-6.25 3.034-10.862 1.287-5.3 2.233-8.95 2.825-10.925l-1.521-.529c-4.367-1.5-7.725-2.988-10.071-4.488-1.996-1.271-2.633-2.929-1.946-4.962.346-.992 1.004-1.775 1.983-2.334 1.155-.675 2.38-.741 3.663-.187.675.279 2.175.979 4.496 2.092 1.875.879 3.4 1.516 4.591 1.925 1.192.412 2.98 1 5.375 1.779 2.388.779 4.171 1.366 5.363 1.779 1.496.504 3.688 1.375 6.583 2.592 2.913 1.229 5.1 2.087 6.592 2.595 1.175.409 2.029 1.125 2.55 2.159.537 1.033.608 2.108.225 3.216-.379 1.121-1.096 1.934-2.158 2.434-1.055.5-2.175.554-3.342.141M446.353 78.287a20.4 20.4 0 0 1-7.317 1.592c-3.079.075-5.804-.587-8.158-2-4.53-2.708-7.375-5.579-8.55-8.596-2.492-6.391-1.067-14.037 4.275-22.958a96.443 96.443 0 0 1 2.42-3.742c1.096-1.629 1.905-2.883 2.409-3.737.408-.675 1.037-1.684 1.883-3.013a113.944 113.944 0 0 0 1.871-3.016c.837-1.384 1.879-2.555 3.133-3.48 1.679-1.22 3.138-1.458 4.371-.716.975.587 1.654 1.404 2.025 2.483.421 1.142.325 2.238-.3 3.279a672.14 672.14 0 0 1-2.721 4.471c-1.229 1.996-2.141 3.496-2.75 4.492-.491.837-1.287 2.066-2.387 3.7-1.096 1.637-1.892 2.862-2.396 3.7-1.604 2.691-2.788 5.379-3.529 8.066-.909 3.209-.971 5.78-.188 7.734.404 1.025 1.988 2.387 4.767 4.104 4.642 2.862 10.187.771 16.633-6.313 3.35-3.654 7.275-9.254 11.792-16.787.587-.992 1.458-1.767 2.592-2.35 1.537-.742 3.037-.675 4.508.204 1.2.729 1.846 1.708 1.917 2.95a4.322 4.322 0 0 1-.621 2.6c-4.196 7.008-7.788 12.279-10.792 15.796-4.612 5.458-9.579 9.3-14.887 11.537M493.223 80.768c-.77-2.238-2.866-6.488-6.296-12.738L467.64 91.926c.3.908.779 1.791 1.433 2.654.65.85 1.467 1.679 2.471 2.492 3.471 2.804 6.358 4.329 8.642 4.591 2.183.234 4.325-.095 6.433-.995 2.121-.892 3.867-2.188 5.246-3.896 3.221-3.992 3.671-9.321 1.358-16.004m-33.591 13.858c-.929-.775-1.459-1.746-1.592-2.9a4.015 4.015 0 0 1 .892-3.083c1.296-1.609 3.325-3.963 6.075-7.055 2.758-3.087 4.775-5.445 6.075-7.054 1.441-1.779 3.571-4.487 6.379-8.129 2.804-3.625 4.929-6.337 6.367-8.117.72-.883 1.858-1.42 3.42-1.612 1.55-.192 2.817.108 3.784.883.533.429 1.462 2.013 2.796 4.734 1.545 3.204 2.474 5.062 2.833 5.583 3.475 5.333 5.587 10.95 6.341 16.837.892 7.025-.525 12.838-4.25 17.455-2.25 2.787-5.066 4.875-8.462 6.287-3.429 1.454-6.958 1.987-10.583 1.613-4.08-.417-8.534-2.58-13.38-6.496-1.166-.942-2.387-2.2-3.637-3.775-1.513-1.917-2.538-3.629-3.058-5.171M540.599 119.352a5.506 5.506 0 0 1-.7-1.121c-1.463-3.142-3.209-5.925-5.246-8.346a37.401 37.401 0 0 0-3.5-3.583 58.143 58.143 0 0 0-4.508-3.617c-2.105 1.762-5.292 4.337-9.555 7.687.817.838 3.709 3.68 8.68 8.542 2.845 2.771 4.604 4.558 5.279 5.367.783.933 1.158 1.979 1.133 3.141-.033 1.167-.537 2.163-1.521 2.988-1.887 1.579-3.804 1.479-5.737-.317a599.02 599.02 0 0 0-5.246-5.275c-2.138-2.033-5.3-5.166-9.467-9.387-2.096 1.583-3.762 2.904-4.991 3.946-3.109 2.608-4.717 4.27-4.842 4.995-.054.346.679 1.425 2.208 3.246.825.984 2.092 2.438 3.809 4.379a231.14 231.14 0 0 1 3.804 4.38c.271.316.704.737 1.325 1.279.612.529 1.05.95 1.296 1.254.775.912 1.17 1.917 1.191 3.012.046 1.234-.462 2.292-1.521 3.184-1.779 1.491-3.612 1.462-5.52-.092-1.63-1.329-4.542-4.487-8.734-9.467-4.341-5.158-6.479-9.1-6.408-11.845.087-3.009 2.683-6.671 7.796-10.971 2.116-1.788 5.433-4.309 9.941-7.575 4.509-3.267 7.813-5.792 9.921-7.567.546-.462 1.3-1.229 2.254-2.296.942-1.075 1.696-1.837 2.25-2.312 2.409-2.017 4.542-1.929 6.413.279.575.7.921 1.508 1.021 2.429 2 1.442 3.8 2.9 5.421 4.358 1.616 1.459 3.045 2.925 4.283 4.4 3.358 3.975 5.575 7.555 6.675 10.709.667 1.921.283 3.487-1.171 4.716-.821.696-1.787 1.021-2.9.975-1.262-.02-2.312-.516-3.133-1.495M544.806 187.605c-.904.5-2.412 1.142-4.533 1.917-2.538.942-4.433.271-5.7-2-.708-1.271-.788-3.087-.246-5.471 2.404-10.446 6.829-23.187 13.279-38.216-4.766 2.508-7.675 4.058-8.746 4.641a509.98 509.98 0 0 0-6.391 3.684c-2.846 1.662-4.971 2.887-6.396 3.679-5.325 2.966-8.717 3.15-10.163.558-.737-1.325-.912-2.6-.541-3.846.329-1.104 1.012-1.946 2.037-2.525.729-.396 1.846-.946 3.379-1.65 1.525-.691 2.655-1.237 3.375-1.646 1.067-.595 2.684-1.45 4.855-2.566a186.347 186.347 0 0 0 4.854-2.554c1.141-.63 2.85-1.617 5.104-2.95a302.467 302.467 0 0 1 5.1-2.942c1.096-.604 2.65-1.613 4.675-3.021 2.029-1.412 3.596-2.421 4.675-3.025 1.079-.596 2.304-.671 3.675-.217 1.358.455 2.375 1.288 3.046 2.48.737 1.333.412 3.458-1 6.362-7.146 14.717-12.2 28.117-15.146 40.2.592-.296 1.967-1.05 4.133-2.262 8.913-4.95 14.863-8.388 17.871-10.292.513-.325 1.417-.988 2.733-1.979 1.163-.888 2.113-1.534 2.842-1.929 2.488-1.388 4.463-.767 5.942 1.87 1.633 2.946-2.088 6.946-11.179 12-.2.117-1.642.888-4.317 2.33-9.238 5.004-14.979 8.125-17.217 9.37M587.909 220.198c-.496-1.529-1.171-3.954-2.016-7.267-.813-3.2-1.484-5.621-2.055-7.262-2.208.812-6.108 2.383-11.704 4.708-4.937 2.071-8.883 3.583-11.833 4.55-.663.208-1.638.608-2.904 1.171-1.271.571-2.238.962-2.913 1.179-1.479.483-2.908.608-4.283.367-1.784-.313-2.917-1.217-3.4-2.704-.359-1.088-.317-2.155.091-3.209.463-1.171 1.28-1.95 2.442-2.329.271-.087.7-.175 1.304-.258a10.994 10.994 0 0 0 1.321-.271c.913-.3 2.25-.813 4.042-1.542 1.787-.712 3.141-1.237 4.062-1.537 2.638-.859 6.138-2.234 10.5-4.109 5.017-2.162 8.492-3.6 10.442-4.316l-.513-1.542c-1.429-4.383-2.254-7.967-2.47-10.75-.188-2.346.754-3.862 2.795-4.529 1.009-.325 2.021-.279 3.063.175 1.229.508 2.017 1.446 2.358 2.817.184.7.529 2.316 1.038 4.854.408 2.016.821 3.621 1.208 4.816.392 1.205 1.004 2.988 1.817 5.367a417.72 417.72 0 0 1 1.821 5.367c.491 1.487 1.12 3.766 1.887 6.825.767 3.054 1.4 5.325 1.892 6.825.375 1.171.321 2.291-.188 3.329-.504 1.046-1.316 1.754-2.437 2.125-1.125.367-2.204.275-3.238-.263-1.033-.55-1.75-1.404-2.129-2.587M598.643 262.719a4.554 4.554 0 0 1-.05-1.308c.309-3.459.184-6.746-.366-9.863a37.582 37.582 0 0 0-1.238-4.85 57.432 57.432 0 0 0-2.091-5.396c-2.709.488-6.755 1.109-12.113 1.884.288 1.121 1.363 5.037 3.254 11.733 1.075 3.817 1.704 6.25 1.892 7.292.208 1.204.021 2.291-.6 3.279-.609 1-1.542 1.604-2.808 1.825-2.417.437-4.021-.613-4.805-3.138a608.542 608.542 0 0 0-1.916-7.2c-.838-2.829-2.009-7.12-3.517-12.858-2.612.321-4.712.625-6.288.908-3.995.713-6.229 1.346-6.691 1.909-.221.271-.125 1.583.296 3.925a228.47 228.47 0 0 0 1.108 5.691c.504 2.538.875 4.438 1.108 5.696.063.409.238 1.004.505 1.775.254.775.425 1.346.495 1.734.209 1.183.05 2.254-.47 3.204-.588 1.096-1.555 1.758-2.921 2.008-2.279.408-3.854-.55-4.729-2.85-.746-1.958-1.692-6.154-2.834-12.567-1.179-6.637-1.054-11.116.379-13.45 1.588-2.575 5.659-4.441 12.234-5.612 2.733-.488 6.862-1.021 12.4-1.596 5.533-.575 9.654-1.112 12.366-1.596.709-.121 1.746-.412 3.1-.862 1.359-.446 2.396-.738 3.109-.871 3.091-.538 4.891.6 5.396 3.462.162.888.058 1.75-.313 2.596 1 2.254 1.85 4.425 2.513 6.496a44.668 44.668 0 0 1 1.512 5.95c.917 5.125 1.05 9.338.425 12.617-.371 2-1.5 3.162-3.383 3.504-1.05.179-2.054-.013-3-.608-1.084-.65-1.738-1.596-1.959-2.863M569.412 339.528c7.229 4.371 13 7.775 17.308 10.233a624.36 624.36 0 0 0 6.863 3.884c2.7 1.687 4.716 3.354 6.058 5.004.883 1.091 1.221 2.279 1.004 3.562-.196 1.159-.771 2.104-1.721 2.854-.954.742-2.004 1.017-3.166.821-.813-.137-1.584-.55-2.284-1.225-1.396-1.366-3.154-2.7-5.237-3.991-.079-.046-1.971-1.142-5.679-3.267a5098.338 5098.338 0 0 0-19.83-11.721 60.665 60.665 0 0 1-6.825-4.687c-1.437-1.146-2.025-2.55-1.745-4.234.358-2.121 1.604-3.429 3.733-3.929 6.346-1.5 15.362-2.842 27.046-4.021 2.879-.371 5.771-.762 8.679-1.166 4.017-.505 6.771-.634 8.258-.384 1.209.2 2.129.821 2.775 1.854.592.967.792 2.025.604 3.175-.329 1.959-1.579 3.155-3.75 3.596-1.833.113-3.666.229-5.491.338-2.317.304-5.779.721-10.392 1.262-6.092.609-11.5 1.296-16.208 2.042M545.071 395.843a20.282 20.282 0 0 1-2.888-6.892c-.637-3.029-.479-5.816.488-8.391 1.833-4.942 4.133-8.263 6.9-9.967 5.825-3.604 13.612-3.588 23.35.042.933.345 2.304.916 4.116 1.695 1.805.792 3.18 1.355 4.113 1.7.737.28 1.85.713 3.304 1.296 1.458.592 2.554 1.021 3.304 1.296 1.521.571 2.859 1.392 3.992 2.458 1.508 1.417 2.013 2.809 1.5 4.159a4.557 4.557 0 0 1-2.079 2.441c-1.046.625-2.134.725-3.279.296-1.08-.4-2.713-1.029-4.888-1.871-2.175-.85-3.817-1.47-4.921-1.883-.9-.346-2.262-.896-4.062-1.675-1.808-.787-3.159-1.342-4.067-1.687-2.941-1.092-5.8-1.763-8.579-2.005-3.321-.316-5.871.1-7.65 1.213-.929.579-1.979 2.396-3.163 5.437-1.975 5.08 1.096 10.15 9.226 15.213 4.208 2.625 10.416 5.475 18.649 8.537 1.088.413 2.009 1.121 2.784 2.134 1.008 1.366 1.216 2.862.612 4.466-.487 1.317-1.337 2.121-2.55 2.417a4.345 4.345 0 0 1-2.675-.129c-7.641-2.854-13.475-5.433-17.491-7.75-6.2-3.554-10.884-7.729-14.046-12.55M516.897 449.916c-.884-.541-2.184-1.541-3.909-3.004-2.062-1.75-2.408-3.733-1.045-5.946.758-1.237 2.3-2.204 4.645-2.9 10.271-3.046 23.534-5.466 39.796-7.25-4.521-2.9-7.304-4.683-8.341-5.316a426.79 426.79 0 0 0-6.355-3.755c-2.837-1.658-4.95-2.908-6.35-3.766-5.196-3.179-7.029-6.034-5.479-8.571.792-1.288 1.825-2.075 3.092-2.363 1.117-.262 2.192-.087 3.192.534.708.429 1.737 1.141 3.091 2.133 1.367.983 2.4 1.696 3.1 2.125 1.038.642 2.575 1.625 4.621 2.963 2.033 1.35 3.571 2.337 4.617 2.97 1.104.684 2.8 1.68 5.066 2.996a321.886 321.886 0 0 1 5.075 2.996c1.059.642 2.7 1.504 4.925 2.588 2.23 1.075 3.871 1.937 4.93 2.579 1.05.646 1.716 1.675 2 3.091.266 1.417.045 2.705-.667 3.871-.8 1.3-2.808 2.05-6.033 2.263-16.325 1.012-30.463 3.2-42.442 6.587.55.359 1.887 1.188 4.004 2.484 8.692 5.32 14.6 8.816 17.738 10.495.537.275 1.562.742 3.07 1.405 1.338.583 2.367 1.091 3.071 1.512 2.425 1.5 2.863 3.529 1.292 6.096-1.763 2.879-7.075 1.596-15.95-3.829a1796.7 1796.7 0 0 1-4.138-2.604c-8.891-5.584-14.433-9.046-16.616-10.384M189.513 501.377c-4.6 0-8.555 2.233-11.846 6.7-3.079 4.171-4.613 8.813-4.613 13.888 0 3.433 1.329 6.229 4 8.375 2.563 2.066 5.8 3.104 9.709 3.104 4.541 0 8.341-2.234 11.379-6.7 2.783-4.067 4.179-8.704 4.179-13.892 0-4.342-.971-7.358-2.908-9.062-1.863-1.609-5.167-2.413-9.9-2.413m-2.75 40.475c-6.121 0-11.342-1.758-15.638-5.275-4.587-3.758-6.879-8.629-6.879-14.612 0-7.025 2.2-13.43 6.604-19.221 4.942-6.513 11.158-9.775 18.662-9.775 7.221 0 12.63 1.654 16.221 4.966 3.6 3.305 5.396 8.28 5.396 14.917 0 7.029-2.021 13.396-6.075 19.1-4.671 6.596-10.775 9.9-18.292 9.9M240.225 501.377c-4.605 0-8.555 2.233-11.846 6.7-3.084 4.171-4.617 8.813-4.617 13.888 0 3.433 1.333 6.229 4.004 8.375 2.559 2.066 5.796 3.104 9.704 3.104 4.546 0 8.346-2.234 11.38-6.7 2.787-4.067 4.183-8.704 4.183-13.892 0-4.342-.971-7.358-2.908-9.062-1.863-1.609-5.167-2.413-9.9-2.413m-2.755 40.475c-6.116 0-11.337-1.758-15.633-5.275-4.587-3.758-6.879-8.629-6.879-14.612 0-7.025 2.2-13.43 6.604-19.221 4.942-6.513 11.154-9.775 18.663-9.775 7.216 0 12.629 1.654 16.22 4.966 3.6 3.305 5.396 8.28 5.396 14.917 0 7.029-2.021 13.396-6.079 19.1-4.667 6.596-10.771 9.9-18.292 9.9M298.037 506.923c-1.862 0-3.237-.983-4.125-2.942-.417-.933-.825-1.491-1.242-1.683-.304-.142-1.133-.213-2.454-.213-2.604 0-5.612 2.021-9.021 6.08-4.77 5.662-7.166 10.966-7.166 15.908 0 2.254.75 4.183 2.262 5.804 1.517 1.608 3.317 2.413 5.434 2.413 2.041 0 4.116-.542 6.233-1.609.746-.404 2.312-1.408 4.712-3.05 1.613-1.066 2.842-1.608 3.667-1.608 1.238 0 2.296.454 3.167 1.362.8.85 1.204 1.825 1.204 2.913 0 1.229-.542 2.287-1.608 3.2-5.688 4.792-11.48 7.196-17.375 7.196-4.659 0-8.588-1.692-11.784-5.079-3.062-3.271-4.596-7.113-4.596-11.542 0-6.921 3.03-13.992 9.084-21.217 5.154-6.116 10.421-9.179 15.796-9.179.9 0 1.725.033 2.458.1.742.058 1.387.146 1.95.271.896-.888 1.996-1.329 3.279-1.329 2.108 0 3.408 1.204 3.904 3.629.35 1.737.529 3.758.529 6.075a4.723 4.723 0 0 1-.9 2.829c-.779 1.108-1.925 1.671-3.408 1.671M349.648 496.738c-.412 1.513-.612 2.842-.612 3.959 0 .583-.063 1.475-.167 2.691-.121 1.221-.175 2.117-.175 2.7 0 1.971-.104 4.9-.316 8.788-.205 3.871-.305 6.804-.305 8.775 0 1.525.113 3.779.338 6.796.221 3.008.337 5.27.337 6.787 0 1.142-.4 2.121-1.208 2.9-.8.792-1.804 1.183-3.004 1.183-1.225 0-2.275-.391-3.163-1.162-.891-.775-1.337-1.712-1.337-2.837 0-1.5-.063-3.767-.2-6.796-.142-3.017-.2-5.284-.2-6.788 0-1.175.021-2.221.058-3.129-3.246.146-7.258.642-12.033 1.513-3.967.72-7.942 1.445-11.913 2.187-.041 1.317-.179 3.508-.429 6.575-.204 2.712-.308 4.925-.308 6.637 0 1.071-.404 1.971-1.213 2.705-.8.725-1.804 1.095-3 1.095-1.195 0-2.208-.379-3.008-1.15-.804-.762-1.208-1.704-1.208-2.816 0-2.034.179-5.084.541-9.138.359-4.066.538-7.112.538-9.146 0-2.583.062-6.479.192-11.675.116-5.2.179-9.087.179-11.666 0-1.117.4-2.054 1.208-2.821.804-.767 1.808-1.15 3.004-1.15 1.2 0 2.204.387 3.009 1.175.804.779 1.208 1.746 1.208 2.887 0 1.567-.054 3.93-.171 7.084-.117 3.154-.171 5.516-.171 7.083 0 .521-.071 1.513-.221 2.975-.116 1.367-.171 2.417-.15 3.133l11.913-2.237c4.658-.813 8.671-1.288 12.033-1.413.088-1.4.217-5.17.404-11.287.046-1.608.529-3.454 1.454-5.546 1.15-2.575 2.475-3.854 3.938-3.854 1.1 0 2.075.358 2.921 1.087.908.796 1.362 1.78 1.362 2.963 0 .312-.037.617-.125.933M386.27 500.193c-.417 0-.846-.067-1.3-.192-3.346-.9-6.609-1.354-9.775-1.354-1.546 0-3.209.125-4.984.371a54.09 54.09 0 0 0-5.679 1.108c0 2.754-.092 6.829-.271 12.25 1.15-.087 5.196-.462 12.121-1.146 3.946-.387 6.458-.587 7.504-.587 1.221 0 2.267.392 3.134 1.162.87.775 1.3 1.8 1.3 3.08 0 2.466-1.309 3.862-3.934 4.191-1.654.125-4.129.329-7.412.629-2.946.325-7.359.725-13.275 1.205-.138 2.625-.213 4.741-.213 6.362 0 4.054.234 6.363.709 6.913.225.279 1.533.412 3.908.412 1.279 0 3.217-.029 5.8-.096 2.583-.062 4.521-.091 5.804-.091.408 0 1.025-.067 1.829-.192.804-.117 1.409-.183 1.8-.183 1.196 0 2.221.341 3.071 1.016.975.775 1.463 1.846 1.463 3.234 0 2.316-1.209 3.691-3.634 4.15-2.062.387-6.354.587-12.875.587-6.729 0-11.125-.904-13.179-2.729-2.254-2-3.379-6.35-3.379-13.021 0-2.775.204-6.933.608-12.492.396-5.55.6-9.695.6-12.45 0-.729-.104-1.8-.308-3.208-.2-1.421-.304-2.487-.304-3.217 0-3.145 1.446-4.712 4.341-4.712.909 0 1.746.25 2.505.771 2.395-.592 4.679-1.05 6.841-1.342 2.163-.296 4.192-.446 6.121-.446 5.208 0 9.367.592 12.492 1.788 1.896.721 2.846 2.046 2.846 3.941 0 1.075-.371 2.03-1.109 2.855-.837.954-1.883 1.433-3.166 1.433M440.578 532.322c0 1.037-.171 2.671-.52 4.904-.413 2.662-1.925 4-4.53 4-1.454 0-3.079-.817-4.904-2.446-7.958-7.179-16.946-17.237-26.95-30.183-.129 5.379-.192 8.671-.192 9.887 0 1.642.042 4.096.117 7.388.075 3.283.104 5.75.104 7.383 0 6.096-1.479 9.146-4.454 9.146-1.517 0-2.721-.467-3.633-1.4-.804-.825-1.209-1.829-1.209-3.004 0-.825.067-2.075.205-3.746.125-1.683.2-2.933.2-3.758 0-1.217.041-3.05.116-5.488.084-2.446.125-4.275.125-5.492 0-1.304-.033-3.262-.091-5.895-.067-2.63-.088-4.588-.088-5.888 0-1.237-.125-3.096-.371-5.546-.241-2.471-.366-4.325-.366-5.558 0-1.242.525-2.354 1.595-3.317 1.059-.975 2.275-1.462 3.642-1.462 1.525 0 3.221 1.325 5.083 3.971 9.38 13.404 18.642 24.329 27.78 32.787.02-.667.033-2.233.033-4.721 0-10.196-.113-17.067-.308-20.625-.042-.6-.18-1.712-.405-3.341-.2-1.455-.304-2.596-.304-3.421 0-2.846 1.513-4.279 4.529-4.279 3.367 0 5.05 5.2 5.05 15.604 0 .225-.02 1.854-.062 4.904-.125 10.5-.192 17.033-.192 19.596" style="fill:#231f20"/><circle cx="134.632" cy="493.086" r="7.102" style="fill:#231f20"/><circle cx="134.632" cy="493.086" r="7.102" style="fill:none;stroke:#231f20;stroke-width:.26px;stroke-miterlimit:2.613"/><ellipse cx="478.331" cy="493.086" rx="7.1" ry="7.102" style="fill:#231f20"/><ellipse cx="478.331" cy="493.086" rx="7.1" ry="7.102" style="fill:none;stroke:#231f20;stroke-width:.26px;stroke-miterlimit:2.613"/></svg>