<?xml version="1.0" encoding="UTF-8" standalone="no"?><!DOCTYPE svg PUBLIC "-//W3C//DTD SVG 1.1//EN" "http://www.w3.org/Graphics/SVG/1.1/DTD/svg11.dtd"><svg width="100%" height="100%" viewBox="0 0 611 546" version="1.1" xmlns="http://www.w3.org/2000/svg" xmlns:xlink="http://www.w3.org/1999/xlink" xml:space="preserve" xmlns:serif="http://www.serif.com/" style="fill-rule:evenodd;clip-rule:evenodd;stroke-miterlimit:10;"><g id="Calque-1" serif:id="Calque 1"><rect x="-31.038" y="-90.083" width="708.971" height="707.292" style="fill:none;stroke:#fff;stroke-width:4.16px;"/><path d="M175.072,287.335l21.329,-6.713l23.012,9.271l-44.341,-2.558Z" style="fill:#fff;stroke:#231f20;stroke-width:0.33px;stroke-miterlimit:2.613;"/><path d="M141.974,414.711l19.996,-5.721m12.25,-121.254l23.396,-7.325" style="fill:none;stroke:#231f20;stroke-width:1.55px;stroke-miterlimit:2.613;"/><path d="M185.63,417.726l-43.475,-2.975l47.934,-13.379l-4.459,16.354Z" style="fill:#fff;stroke:#231f20;stroke-width:0.33px;stroke-miterlimit:2.613;"/><path d="M142.149,414.788c-5.387,11.138 -8.979,22.071 0,31.609c71.567,6.358 144.729,12.35 216.296,18.708c-4.771,-11.925 -2.8,-23.483 1.975,-35.408c-72.162,-4.967 -146.108,-9.938 -218.271,-14.909Z" style="fill:#fff;stroke:#231f20;stroke-width:1.55px;stroke-miterlimit:2.613;"/><path d="M364,464.048c38.566,-7.754 77.129,-14.671 115.695,-22.421c-6.562,-7.554 -8.35,-15.904 -5.366,-25.05l-62.975,16.283c-15.309,-1.191 -31.454,-1.97 -46.759,-3.162c-4.079,12.625 -4.475,23.317 -0.595,34.35Z" style="fill:#fff;stroke:#231f20;stroke-width:1.55px;stroke-miterlimit:2.613;"/><path d="M358.685,465.346c2.346,-0.434 3.413,-0.709 5.263,-1.017c-4.183,-12.683 -3.171,-24.125 0.983,-34.65c-1.471,-0.087 -3.183,0.167 -4.654,0.075c-4.687,13.183 -6.483,25.504 -1.592,35.592Z" style="fill:#231f20;stroke:#231f20;stroke-width:0.33px;stroke-miterlimit:2.613;"/><path d="M448.517,442.181l27.333,-5.567m-50.154,7.309l30.463,-6.5m-17.371,1.391l35.675,-7.187m-51.546,5.333l49.921,-9.858m-21.196,1.045l21.083,-4.179m-109.758,35.434l59.142,-12.113m-60.238,6.546l54.096,-10.725m-55.042,7.246l49.371,-9.104m-50.712,4.4l39.129,-7.3m-37.35,3.737l22.992,-4.433m-22.821,-0.25l16.796,-2.879" style="fill:none;stroke:#231f20;stroke-width:1.55px;stroke-miterlimit:2.613;"/><path d="M178.693,449.509c-6.338,-10.446 -6.638,-21.187 -0.888,-32.221l17.03,1.221c-6.659,12.35 -6.505,23.371 1.879,32.775c-6.009,-0.591 -12.017,-1.179 -18.021,-1.775Z" style="fill:#231f20;stroke:#231f20;stroke-width:0.33px;stroke-miterlimit:2.613;"/><path d="M190.693,376.373c-8.121,10.85 -10.075,24.546 -5.867,41.079c75.733,5.175 150.75,9.988 226.487,15.158c-9.437,-17.095 -6.487,-28.329 2.096,-36.887c-74.479,-6.571 -148.241,-12.783 -222.716,-19.35Z" style="fill:#fff;stroke:#231f20;stroke-width:1.55px;stroke-miterlimit:2.613;"/><path d="M505.085,370.505c-9.959,13.663 -9.959,26.38 0,38.146c-30.042,7.825 -60.196,15.538 -90.238,23.363c-7.308,-13.971 -5.312,-26.375 2.554,-35.6c29.763,-8.946 57.921,-16.967 87.684,-25.909Z" style="fill:#fff;stroke:#231f20;stroke-width:1.55px;stroke-miterlimit:2.613;"/><path d="M201.056,377.191c-3.862,11.258 -6.358,27.562 -4.846,41.366c3.092,0.196 6.184,0.388 9.275,0.58c-1.995,-13.696 1.509,-28.034 4.092,-41.688l-8.521,-0.258Z" style="fill:#231f20;stroke:#231f20;stroke-width:0.33px;stroke-miterlimit:2.613;"/><path d="M382.111,393.097c3.467,0.308 6.258,0.737 9.729,1.05c-10.179,11.875 -13.367,24.07 -3.296,36.858c-3.679,-0.121 -6.675,-0.513 -10.346,-0.633c-7.458,-15.459 -4.654,-27.267 3.913,-37.275Z" style="fill:#231f20;stroke:#231f20;stroke-width:0.33px;stroke-miterlimit:2.613;"/><path d="M413.406,395.794c1.408,0.233 2.812,0.463 4.217,0.7c-8.55,9.329 -9.975,20.996 -2.809,35.479l-3.575,0.792c-8.746,-16.183 -6.912,-28.05 2.167,-36.971Z" style="fill:#231f20;stroke:#231f20;stroke-width:0.33px;stroke-miterlimit:2.613;"/><path d="M467.56,385.797l33.321,-9.059m-50.471,16.5l27.017,-7.279m-0.325,4.529l21.033,-5.5m-34.133,11.813l33.325,-8.738m-19.742,11l19.9,-5.341m-17.308,12.462l19.9,-5.021m-45.134,15.046l46.425,-11.971m-88.487,22.809l22.971,-6.304m-23.942,2.908l40.604,-10.513m-16.983,1.129l46.1,-11.808m-71.5,14.396l44.65,-11.483m-44.813,7.929l31.705,-7.929m-30.25,2.425l38.504,-10.192" style="fill:none;stroke:#231f20;stroke-width:1.55px;stroke-miterlimit:2.613;"/><path d="M420.16,365.252l86.05,3.938l-88.8,27.12l-80.237,-7.116l82.987,-23.942Z" style="fill:#fff;stroke:#231f20;stroke-width:0.33px;stroke-miterlimit:2.613;"/><path d="M186.151,339.491c-6.996,7.467 -9.008,29.042 3.204,35.563l148.296,13.871c5.575,-1.425 10.992,-3.305 16.567,-4.725c-3.779,-11.146 -2.775,-21.796 -0.429,-32.525c-55.834,-4.15 -111.804,-8.034 -167.638,-12.184Z" style="fill:#fff;stroke:#231f20;stroke-width:1.55px;stroke-miterlimit:2.613;"/><path d="M431.444,340.354c1.183,8.233 4.183,15.016 9.454,18.746c-25.963,7.587 -53.454,15.483 -79.417,23.066c-4.208,-8.783 -4.35,-19.221 -0.4,-30.05l23.163,1.6c15.529,-4.504 31.666,-8.858 47.2,-13.362Z" style="fill:#fff;stroke:#231f20;stroke-width:1.55px;stroke-miterlimit:2.613;"/><path d="M353.506,351.324c2.492,0.116 5.129,0.541 7.621,0.662c-2.859,10.792 -3.575,21.638 0.3,30.134c-2.725,0.945 -4.688,1.587 -7.413,2.537c-3.421,-11.262 -2.804,-22.892 -0.508,-33.333Z" style="fill:#231f20;stroke:#231f20;stroke-width:0.33px;stroke-miterlimit:2.613;"/><path d="M358.637,370.078l39.479,-11.379m-39.834,7.112l24.184,-6.408m2.129,6.762l26.05,-6.954m4.475,-4.321l18.492,-5.333m-25.542,14.117l28.387,-8.579m-76.041,21.737l28.808,-8.179m5.333,-12.446l19.913,-5.333" style="fill:none;stroke:#231f20;stroke-width:1.55px;stroke-miterlimit:2.613;"/><path d="M206.423,319.22c-5.333,7.587 -5.925,14.7 -1.779,21.337c59.629,4.271 119.259,8.538 178.888,12.804c-3.45,-8.308 -2.734,-14.108 -1.421,-19.558c-58.567,-4.863 -117.125,-9.721 -175.688,-14.583Z" style="fill:#fff;stroke:#231f20;stroke-width:1.55px;stroke-miterlimit:2.613;"/><path d="M477.065,307.485c-31.3,8.654 -62.591,17.304 -93.887,25.958c-1.067,7.771 -0.95,14.642 1.779,19.562l96.017,-27.029c-2.904,-6.162 -3.85,-12.329 -3.909,-18.491Z" style="fill:#fff;stroke:#231f20;stroke-width:1.55px;stroke-miterlimit:2.613;"/><path d="M382.428,337.217l19.596,-5.55m13.871,-3.2l19.563,-5.334m12.8,-0.358l28.45,-7.467m-56.9,17.784l31.649,-8.538m-69.454,16.679l30.692,-8.141m33.429,-2.846l32.008,-8.538m-95.091,25.655l44.591,-12.492" style="fill:none;stroke:#231f20;stroke-width:1.55px;stroke-miterlimit:2.613;"/><path d="M361.481,332.379c-2.629,5.054 -3.55,11.158 -0.713,19.558c5.217,0.475 9.296,0.492 14.513,0.967c-5.554,-7.667 -3.446,-13.621 0.425,-19.459c-4.742,-0.354 -9.483,-0.712 -14.225,-1.066Z" style="fill:#231f20;stroke:#231f20;stroke-width:0.33px;stroke-miterlimit:2.613;"/><path d="M476.996,307.37l-95.162,26.396l-52.05,-4.237l98.412,-20.688l-3.904,-6.358l52.704,4.887Z" style="fill:#fff;stroke:#231f20;stroke-width:0.33px;stroke-miterlimit:2.613;"/><path d="M420.864,274.88l-39.154,8.212l-0.608,-11.862l39.762,3.65Z" style="fill:#fff;stroke:#231f20;stroke-width:0.33px;stroke-miterlimit:2.613;"/><path d="M422.569,275.087l-28.037,-2.604" style="fill:none;stroke:#231f20;stroke-width:1.55px;stroke-miterlimit:2.613;"/><path d="M301.227,293.385l30.996,1.696l1.417,-7.354l-31.988,-1.417l-0.425,7.075Z" style="fill:#fff;stroke:#231f20;stroke-width:0.26px;stroke-miterlimit:2.613;"/><path d="M174.595,287.864c-5.941,13.541 -6.262,22.962 -0.975,28.258l157.213,13.321c1.192,-0.329 2.567,-0.279 3.758,-0.6c-9.616,-13.25 -6.979,-23.938 -3.758,-34.158c-52.079,-2.271 -104.158,-4.546 -156.238,-6.821Z" style="fill:#fff;stroke:#231f20;stroke-width:1.55px;stroke-miterlimit:2.613;"/><path d="M421.458,275.522c-1.791,10.038 -1.45,20.738 6.5,33.78l-92.25,19.166c-7.191,-11.491 -6.337,-22.958 -3.787,-33.696c29.991,-6.604 59.55,-12.645 89.537,-19.25Z" style="fill:#fff;stroke:#231f20;stroke-width:1.55px;stroke-miterlimit:2.613;"/><path d="M193.923,288.515c-4.187,10.537 -5.287,20.191 -0.487,29.233c-1.733,-0.108 -3.467,-0.217 -5.2,-0.329c-4.233,-7.621 -2.758,-17.817 0.487,-29.184c1.734,0 3.467,0.28 5.2,0.28Z" style="fill:#231f20;stroke:#231f20;stroke-width:0.33px;stroke-miterlimit:2.613;"/><path d="M180.117,288.189c-4.992,12.692 -6.033,22.642 -1.3,28.583c1.946,0.109 2.492,-0.062 4.442,0.042c-6.217,-10.479 -2.988,-19.083 1.275,-28.062c-1.196,0 -3.229,-0.563 -4.417,-0.563Z" style="fill:#231f20;stroke:#231f20;stroke-width:0.33px;stroke-miterlimit:2.613;"/><path d="M411.741,284.136l8.421,-1.683m-18.525,7.587l18.525,-3.654m-17.683,7.588l18.237,-3.654m-19.358,7.87l19.642,-4.495m-33.113,6.741l-19.925,4.217m31.992,-0.842l22.45,-5.058m-53.6,14.054l25.821,-5.342m7.854,2.53l22.729,-5.059m-91.479,19.954l58.087,-12.366m-59.491,8.712l25.82,-5.904m-16.837,-0.558l28.058,-6.184m-39.004,3.65l14.308,-3.087" style="fill:none;stroke:#231f20;stroke-width:1.55px;stroke-miterlimit:2.613;"/><path d="M157.038,310.626c-1.934,4.55 -4.451,8.362 -6.384,12.912c7.625,11.275 11.538,23.55 12.921,35.217c0.675,7.975 1.358,15.95 2.037,23.925c-12.145,-4.825 -19.441,-18.738 -21.891,-41.742c4.071,-13.583 8.146,-20.6 12.216,-27.996c5.705,-8.166 9.521,-18.987 9.167,-35.637c-1.275,-15.738 1.996,-29.208 15.271,-37.671c-5.408,-3.683 -12.025,-1.308 -19.854,7.125c-6.442,-15.854 -3.038,-28.262 14.762,-35.633c-8.312,-9.113 -16.629,-7.925 -24.941,3.566c-4.68,0.192 -7.842,-0.825 -11.309,-3.054c-0.466,6.929 0.438,13.713 3.617,23.071c-2.038,0.508 -4.529,2.379 -6.563,2.892c14.334,9.129 24.421,23.296 19.342,55.483c-6.987,14.746 -14.508,29.229 -23.925,42.763c-5.512,-7.192 -9.958,-6.925 -14.254,-5.6c8.275,5.704 14.275,12.55 15.271,21.891c4.046,21.754 15.587,35.167 30.546,44.796c-2.646,4.483 -4.68,9.579 -6.113,15.271c8.571,-3.967 18.2,-8.158 31.617,-8.488c12.729,-0.033 25.908,0.234 38.637,-8.308c2.28,-8.654 1.367,-15.171 0,-21.383c-5.708,5.958 -12.55,11.541 -21.891,16.291c-9.938,5.355 -19.271,1.625 -28,-11.2c-2.396,-6.595 -3.584,-14.4 -3.559,-23.416c1.817,-15.996 -6.258,-30.375 -16.721,-45.075Zm-5.25,-10.804c-10.45,-8.721 -16.104,-26.446 -6.537,-37.788c-3.154,-3.612 -9.537,2.471 -15.271,6.617c-3.412,-5.325 -6.454,-12.542 -8.654,-23.925c-1.967,-13.213 0.917,-23.392 8.654,-30.542c11.684,-9.212 23.35,-17.092 36.25,-23.875c7.733,3.296 15.767,3.413 22.292,-0.562c4.246,-6.021 11.079,-10.525 17.758,-15.325c-0.554,-1.992 -8.537,-2.163 -21.212,-0.513c4.879,-9.075 -2.1,-17.537 -11.817,-25.396c4.529,10.059 2.546,15.421 -5.037,20.634c-4.05,-6.909 -8.855,-9.725 -15.33,-13c-4.583,-0.846 -7.795,-1.696 -12.379,-2.546c0.608,4.604 -0.758,8 -1.362,10.183c0.458,4.871 3.341,7.929 8.65,9.163c10.279,4.316 11.466,9.237 3.566,14.762c-9.166,5.6 -18.329,11.2 -27.491,16.8c-15.521,11.604 -21.234,25.404 -17.363,41.854c3.904,9.329 7.354,19.571 11.254,28.909c-12,1.67 -17.029,8.795 -16.904,21.379c20.438,-19.379 34.221,-3.625 45.638,13.954c1.758,-3.046 3.533,-7.733 5.295,-10.783Z" style="fill:#ed1c24;stroke:#231f20;stroke-width:1.55px;stroke-miterlimit:2.613;"/><path d="M224.966,240.181c-0.842,25.304 -1.683,50.612 -2.529,75.916c0.491,9.067 -0.071,17.784 -2.95,25.725c-2.534,9 -1.692,17.438 2.529,25.309c5.904,10.262 7.875,19.962 5.904,29.104c2.95,0.279 5.904,0.558 8.854,0.842c-4.429,2.95 -6.533,8.995 -7.587,16.445c3.933,2.109 8.433,1.971 13.495,-0.42c-1.55,5.904 -1.687,12.508 1.267,20.662c2.246,-2.104 3.933,-4.775 5.059,-8.008l10.962,16.866l34.587,-25.716l14.063,-27.729l-19.125,-20.78l12.65,-18.137c2.396,-2.604 4.358,-6.117 3.379,-17.717c-4.833,-19.387 -3.879,-29.241 -2.529,-50.608c-25.025,-12.792 -53.004,-28.963 -78.029,-41.754Z" style="fill:#ed1c24;stroke:#231f20;stroke-width:1.55px;stroke-miterlimit:2.613;"/><path d="M284.231,367.795c7.841,-4.004 15.025,-12.491 20.871,-20.487c33.821,1.933 45.708,20.192 51.45,43.017c-8.384,6.15 -11.209,15.741 -5.904,30.366c-4.067,2.525 -10.38,-0.787 -17.713,-6.746c1.125,4.217 2.25,8.438 3.375,12.65c-6.467,1.88 -12.933,-1.858 -19.4,-7.166c-4.733,10.925 -17.137,8.171 -25.946,16.812c8.213,-4.891 25.063,-5.191 28.054,11.446c-8.012,3.933 -16.025,7.871 -24.041,11.808c-8.013,0.142 -16.025,0.28 -24.038,0.421c-15.412,-7.325 -13.521,-9.087 -15.183,-26.571c2.933,-15.275 9.842,-22.07 33.925,-23.441c-6.092,-1.088 -15.733,1.896 -15.867,-2.121c-0.221,-6.521 17.129,-17.846 22.496,-9.679c1.888,-12.509 -4.996,-20.163 -12.079,-30.309Z" style="fill:#ed1c24;stroke:#231f20;stroke-width:1.55px;stroke-miterlimit:2.613;"/><path d="M258.45,451.316c-4.242,4.062 -6.313,12.896 1.1,18.583c3.283,-6.271 6.262,-9.087 10.52,-10.154c-0.562,-0.321 0.338,-0.883 -0.225,-1.208c-0.35,-0.196 0.142,-7.509 0.163,-7.913c0.108,-1.792 -2.808,-3.296 -3.925,-0.537c-0.817,2.025 -1.113,6.3 -1.479,6.237c-3.046,-0.508 -4.084,-2.871 -6.154,-5.008Z" style="fill:#231f20;stroke:#231f20;stroke-width:0.33px;stroke-miterlimit:2.613;"/><path d="M284.255,459.381c0.734,-4.85 -3.175,-5.584 -6.35,-4.888c-2.65,1.509 -4.083,3.75 -6.737,5.259c2.304,4.937 1.717,9.687 -0.854,14.304c9.033,-2.513 12.704,-7.934 13.941,-14.675" style="fill:#231f20;"/><path d="M284.255,459.381c0.734,-4.85 -3.175,-5.584 -6.35,-4.888c-2.65,1.509 -4.083,3.75 -6.737,5.259c2.304,4.937 1.717,9.687 -0.854,14.304c9.033,-2.513 12.704,-7.934 13.941,-14.675Z" style="fill:none;stroke:#231f20;stroke-width:0.33px;stroke-miterlimit:2.613;"/><path d="M292.573,453.879c1.908,4.254 0.77,8.663 -1.225,13.575c6.629,-2.483 9.779,-7.308 12.1,-12.108c-0.65,-0.734 1.737,-5.125 1.087,-5.859c-0.65,-0.733 -4.712,2.192 -5.362,1.455c-2.567,-0.938 -5.013,0.941 -6.6,2.937Z" style="fill:#231f20;stroke:#231f20;stroke-width:0.33px;stroke-miterlimit:2.613;"/><path d="M303.945,452.166c1.334,5.5 0.238,10.513 -3.3,15.038c7.163,-3.009 13.917,-11.946 15.884,-18.204c-1.467,-1.55 -3.179,-0.542 -6.838,-0.505c-2.887,-0.887 -4.804,0.334 -5.746,3.671Z" style="fill:#231f20;stroke:#231f20;stroke-width:0.33px;stroke-miterlimit:2.613;"/><path d="M305.516,444.419c3.975,-1.829 7.137,-0.084 9.491,5.241m-28.604,-1.704c6.734,-5.858 12.454,-7.037 15.946,2.071m-26.412,-2.562c9.25,-4.309 12.416,-0.121 12.416,12.07" style="fill:none;stroke:#231f20;stroke-width:1.55px;stroke-miterlimit:2.613;"/><path d="M215.79,224.198c-28.742,26.592 -29.167,37.167 -19.792,63.283c0.938,2.613 -0.921,8.334 0.513,10.859c2.779,-8.063 9.412,-4.08 10.137,-3.705c2.221,4.775 1.238,7.5 -0.495,11.617c4.725,1.746 5.308,5.129 10.129,6.083c5.412,1.071 4.725,4.113 10.383,7.013c9.021,2.392 14.046,3.462 23.233,2.475c-1.954,9.171 5.171,18.45 15.571,20.762c-3.383,-3.795 -5.521,-6.841 -6.675,-10.137c12.642,1.4 22.121,-0.821 28.175,-4.696c-6.675,-0.412 -12.358,-3.708 -12.604,-5.929c-0.125,-0.167 -0.25,-0.333 -0.371,-0.496c-2.008,-2.512 11.558,-7.137 21.875,-10.871c-1.858,-2.641 -5.975,-4.454 -15.079,-4.454c-3.05,1.488 -6.096,1.979 -9.146,1.488c-4.942,-1.817 -5.6,-4.288 -1.975,-7.417c4.496,0.479 8.388,-6.679 15.075,-9.638c-5.929,-2.391 -10.875,-2.804 -14.829,-1.237c-3.967,0.104 -9.792,3.687 -17.054,10.379c-21.133,-8.858 -27.638,-24.012 -23.725,-44.733c4.096,-11.504 9.092,-14.388 8.379,-24.913c-0.625,-9.283 -11.912,-17.325 -13.35,-20.591c-1.954,-4.421 -0.642,5.07 -8.375,14.858Z" style="fill:#ed1c24;stroke:#231f20;stroke-width:1.55px;stroke-miterlimit:2.613;"/><path d="M270.632,289.263c2.129,2.175 3.842,4.771 4.633,8.284c2.925,-2.384 5.855,-4.767 8.775,-7.155c-5.641,-2.05 -10.108,-2.425 -13.408,-1.129Z" style="fill:#231f20;stroke:#231f20;stroke-width:0.33px;stroke-miterlimit:2.613;"/><path d="M282.16,306.211c0.733,2.971 1.145,5.937 0.879,8.912c4.221,-1.512 8.437,-3.016 12.658,-4.521c-1.379,-2.566 -5.471,-4.17 -13.537,-4.391Z" style="fill:#231f20;stroke:#231f20;stroke-width:0.33px;stroke-miterlimit:2.613;"/><path d="M275.893,324.412c0.546,2.758 0.046,5.225 -0.75,7.654c3.684,-0.825 7.838,-2.188 11.53,-4.017c-3.888,-0.479 -7.567,-1.483 -10.78,-3.637Z" style="fill:#231f20;stroke:#231f20;stroke-width:0.33px;stroke-miterlimit:2.613;"/><path d="M257.363,331.48c-1.825,1.375 -2.458,2.712 -4.604,2.833c2.404,3.662 6.85,6.496 12.4,8.267c-2.85,-3.205 -6.512,-7.575 -7.796,-11.1Z" style="fill:#231f20;stroke:#231f20;stroke-width:0.33px;stroke-miterlimit:2.613;"/><path d="M336.013,261.617c10.787,-0.13 23.267,-1.355 34.758,-2.888c9.363,-0.875 15.575,-5.6 18.638,-12.079c0.787,-3.063 1.575,-5.075 2.366,-8.138c6.65,2.713 11.2,6.475 17.85,9.192c-3.304,7.763 -12.737,20.338 -12.862,24.417c-2.363,7.875 -0.525,13.391 -1.313,19.691c-4.029,-5.12 -3.854,-8.45 -5.254,-10.237c-4.287,7.438 -3.85,9.096 -4.2,14.962c-7.204,3.384 -12.187,-2.795 -15.225,-3.675c-1.666,1.838 -2.804,6.825 -2.366,12.863c-6.434,1.096 -10.459,-4.067 -13.388,-12.075c-3.067,0.917 -4.904,5.379 -6.567,12.6c-7.791,-0.263 -16.629,-11.117 -18.379,-14.175c-2.012,-2.104 -24.204,0.479 -27.091,-2.054c6.895,-9.388 31.041,-19.721 33.033,-28.404Z" style="fill:#ed1c24;stroke:#231f20;stroke-width:1.55px;stroke-miterlimit:2.613;"/><path d="M426.772,246.834c-10.741,4.55 -12.112,2.779 -14.17,-2.971c-0.13,-13.85 0.195,-25.475 0.07,-39.329c3.834,0.25 7.671,1.162 11.505,1.412c0.516,-3.983 1.633,-7.741 3.337,-9.946c-8.121,-8.012 -15.179,-6.541 -21.517,0.296c-4.037,6.896 -2.054,34.063 -3.416,51.871c7.633,8.854 10.287,9.008 27.162,6.458c-0.991,-2.595 -1.983,-5.195 -2.97,-7.791Z" style="fill:#fff200;stroke:#231f20;stroke-width:1.55px;stroke-miterlimit:2.613;"/><path d="M423.302,206.886c-4.463,-3.325 -8.213,-7.771 -13.675,-7.95c-9.363,0.484 -16.979,4.192 -22.146,9.571c1.675,1.379 4.904,3.554 6.892,4.804c1.783,1.125 10.462,-0.121 14.712,0.929c1.929,0.475 0.479,2.688 0.067,2.471c-2.988,-1.562 -11.029,-1.887 -12.888,0.579c-4.15,3.55 -8.021,3.617 -12.171,5.638c1.988,4.667 5.142,5.133 9.109,5.708c0.37,0.054 1.346,1.079 2.854,1.509c2.883,0.825 7.279,1.35 10.054,1.729c1.458,0.196 0.142,1.308 0.271,1.504c0.483,0.712 -11.608,-1.867 -11.096,-1.55c-4.033,2.237 -7.429,3.2 -13.75,3.533c3.854,5.55 7.983,9.838 10.454,10c12.363,1.429 23.979,-1.508 32.529,-8.854c-0.937,-8.371 -1.804,-20.487 -1.216,-29.621Z" style="fill:#ed1c24;stroke:#231f20;stroke-width:1.55px;stroke-miterlimit:2.613;"/><path d="M398.9,201.204c-0.688,3.954 -1.021,7.721 -0.571,12.441l-3.571,-0.57c-2.283,-1.48 -4.571,-2.959 -6.854,-4.434c3.283,-3.387 6.95,-5.579 10.996,-7.437Z" style="fill:#231f20;stroke:#231f20;stroke-width:0.33px;stroke-miterlimit:2.613;"/><path d="M384.333,223.085c1.05,3.721 5.812,5.15 12.137,6.867c-1.238,-4.53 -1.429,-9.109 0,-12.871c-3.458,2.083 -7.533,4.3 -12.137,6.004Z" style="fill:#231f20;stroke:#231f20;stroke-width:0.33px;stroke-miterlimit:2.613;"/><path d="M394.9,232.096c-1.475,3.762 -2.858,7.716 -3.567,13.016c-3.995,-2.287 -6.95,-5.629 -9.425,-9.441c4.713,-0.046 9.046,-1.242 12.992,-3.575Z" style="fill:#231f20;stroke:#231f20;stroke-width:0.33px;stroke-miterlimit:2.613;"/><path d="M429.698,254.701c0.742,1.709 1.479,2.3 2.225,4.009c1.637,3.416 3.862,4.754 6.683,4.012c5.204,-1.562 10.029,-1.717 12.25,-0.892c5.792,-0.141 12.7,4.8 17.375,4.9c6.092,-1.858 11.063,-8.837 12.925,-12.92c2.371,-9.725 4.746,-18.117 7.125,-27.842c-1.112,-6.163 -2.229,-12.325 -3.341,-18.488c-3.567,-3.12 -4.459,-10.695 -8.021,-13.812c-29.325,-6.463 -28.659,-4.271 -44.271,-2.842c-3.004,0.275 -8.063,7.654 -8.746,15.317c-1.483,13.958 -0.737,29.179 5.796,48.558" style="fill:#fff200;"/><path d="M429.698,254.701c0.742,1.709 1.479,2.3 2.225,4.009c1.637,3.416 3.862,4.754 6.683,4.012c5.204,-1.562 10.029,-1.717 12.25,-0.892c5.792,-0.141 12.7,4.8 17.375,4.9c6.092,-1.858 11.063,-8.837 12.925,-12.92c2.371,-9.725 4.746,-18.117 7.125,-27.842c-1.112,-6.163 -2.229,-12.325 -3.341,-18.488c-3.567,-3.12 -4.459,-10.695 -8.021,-13.812c-29.325,-6.463 -28.659,-4.271 -44.271,-2.842c-3.004,0.275 -8.063,7.654 -8.746,15.317c-1.483,13.958 -0.737,29.179 5.796,48.558Z" style="fill:none;stroke:#231f20;stroke-width:1.55px;stroke-miterlimit:2.613;"/><path d="M448.407,211.265c5.571,7.054 10.246,7.275 14.033,0.666c7.059,12.996 9.95,11.438 8.688,-4.675c5.492,-2.45 8.617,-1.041 9.354,4.229c5.008,11.275 10.8,20.075 19.383,20.05c4.305,-1.708 5.346,-4.604 3.117,-8.687c-6.458,-4.825 -9.95,-9.654 -10.471,-14.479c1.563,-7.388 -3.412,-11.917 -11.358,-15.15c0.075,-9.129 -5.571,-9.279 -13.813,-5.342c-5.812,-5.533 -11.266,-4.717 -16.483,0.446c-6.383,-6.758 -11.283,-6.092 -14.7,2.004c-6.162,-0.817 -8.762,2.525 -7.8,10.021c0.446,4.217 2.446,8.558 10.029,13.367c3.079,0.483 6.346,0.037 10.021,-2.45Z" style="fill:#fff;stroke:#231f20;stroke-width:1.55px;stroke-miterlimit:2.613;"/><path d="M494.518,239.554c-0.521,3.417 -0.442,8.463 0.225,14.254c3.375,7.95 14.441,5.35 11.137,-4.008c-2.6,-4.454 -6.387,-8.167 -11.363,-10.246Z" style="fill:#fff;stroke:#231f20;stroke-width:1.55px;stroke-miterlimit:2.613;"/><path d="M483.604,279.205c-1.708,3.117 -1.637,8.167 0.221,14.258c2.625,8.513 12.775,6.596 11.142,-4.012c-2.6,-4.454 -6.392,-8.167 -11.363,-10.246Z" style="fill:#fff;stroke:#231f20;stroke-width:1.55px;stroke-miterlimit:2.613;"/><path d="M478.701,223.292c0.817,9.505 -1.333,19.009 -6.458,28.513m-4.229,-27.175c-1.675,8.204 -2.417,16.967 -1.117,26.954m-12.921,-30.075c-0.129,11.713 -2.466,19.4 -5.571,26.954m-10.691,-29.404c-1.854,10.917 -1.634,21.238 0.671,30.967m32.966,-51.679c5.938,5.791 13.292,-5.567 2.675,-6.017m-16.708,4.008c10.917,-1.779 3.567,12.771 -3.342,6.238m-9.8,-9.579c-7.796,1.633 -3.266,10.616 2.225,6.237" style="fill:none;stroke:#231f20;stroke-width:1.55px;stroke-miterlimit:2.613;"/><path d="M266.152,152.693c-19.95,-7.833 -25.704,21.134 -44.558,26.138c6.804,0.458 9.75,-0.459 25.979,-8.684c-37.846,19.275 -29.958,23.867 -39.4,56.063c5.512,-1.746 8.604,-3.963 18.675,-11.629c-15.958,16.679 -8.679,19.616 -3.3,43.662c2.842,-4.037 4.437,-9.604 6.404,-15.379c0.229,17.308 4.513,23.938 16.663,36.521c1.062,-3.204 2.133,-4.808 3.2,-8.008c5.658,7.633 13.241,13.183 18.9,15.691c3.525,-3.521 8.008,-9.287 8.008,-14.408c8.329,8.779 15.696,16.2 24.025,22.417c2.237,-7.959 6.933,-9.575 13.771,-13.45c-0.159,6.883 0.804,13.4 3.208,16.016c2.696,-6.35 10.483,-14.533 14.908,-23.458c3.909,-7.879 3.159,-9.979 4.5,-22.033c1.93,12.95 3.517,11.475 10.7,17.3c4.059,-8.063 6.617,-15.109 8.971,-24.025c1.279,1.925 2.663,4.804 4.804,6.729c-0.325,-4.271 0.53,-9.504 1.921,-13.775c6.734,-18.913 3.509,-25.442 -2.879,-36.2c-3.979,-15.421 -14.746,-24.834 -25.312,-35.875c4.512,-8.175 7.637,-7.6 15.058,-4.163c-10.021,-19.237 -13.779,-7.9 -31.7,-12.3c-16.479,-4.041 -37.454,-21.825 -52.546,2.85Z" style="fill:#ed1c24;stroke:#231f20;stroke-width:1.55px;stroke-miterlimit:2.613;"/><path d="M353.884,203.464l28.55,6.729m4.192,-7.687l-32.742,0.958m0.038,-1.921l32.608,-5.379m-33.25,2.175l32.675,-10.25m-123.65,57.658l43.887,-33.954m-53.175,21.142l49.971,-23.704m0.321,-6.088l-57.337,8.971m5.125,12.813l52.212,-21.784m33.638,-24.983c2.983,-1.821 6.083,-3.421 9.925,-3.525m-48.046,6.725c5.883,-3.113 11.371,-3.608 17.937,-1.6m-50.612,-27.033c-2.779,2.237 -4.059,5.675 -5.125,8.775c6.621,-5.342 12.066,-7.159 16.979,-7.367" style="fill:none;stroke:#231f20;stroke-width:1.55px;stroke-miterlimit:2.613;"/><path d="M301.162,195.841c4.292,-2.488 8.554,-3.95 12.846,-6.438c3.179,-2.287 2.625,-4.346 -0.771,-4.837c-8.171,-0.217 -10.883,0.616 -14.862,1.6c3.108,0.396 3.975,-1.004 7.079,-0.609c-0.192,1.867 0.066,5.53 -0.125,7.396c-1.546,1.079 -2.617,1.809 -4.167,2.888Z" style="fill:#231f20;stroke:#231f20;stroke-width:1.55px;stroke-miterlimit:2.613;"/><path d="M317.918,231.001c-2.987,-0.25 -1.95,1.871 -1.004,2.288c11.917,5.246 17.067,4.241 23.559,-1.85c1.395,-2.05 -0.95,-1.454 -1.817,-1.05c-8.342,3.866 -13.675,2.775 -20.738,0.612Z" style="fill:#231f20;stroke:#231f20;stroke-width:0.33px;stroke-miterlimit:2.613;"/><path d="M305.866,123.168c0.183,12.109 -3.213,19.309 -6.204,27.121c7.425,11.613 17.483,15.404 30.637,12.292c5.275,-10.254 8.604,-18.567 18.884,-24.629c-4.53,-0.125 -9.471,0.562 -14.817,2.07c-0.321,-5.22 -2.071,-9.116 -4.025,-13.52c-4.892,0.775 -9.983,3.495 -14.058,7.545c-2.042,-4.445 -5.105,-8.887 -10.417,-10.879Z" style="fill:#fff200;stroke:#231f20;stroke-width:1.55px;stroke-miterlimit:2.613;"/><path d="M300.425,226.466c-2.145,5.338 -6.308,7.313 -6.212,11.084c0.558,3.104 3.054,5.687 5.475,5.283c1.896,0.229 4.65,-3.092 4.679,-5.029c0.404,-5.421 -2.325,-5.467 -3.942,-11.338Z" style="fill:#fff;stroke:#231f20;stroke-width:1.55px;stroke-miterlimit:2.613;"/><path d="M313.491,239.935c-2.904,4.967 -6.191,5.862 -6.65,9.604c0.096,3.154 2.192,6.075 4.646,6.033c1.838,0.505 5.046,-2.379 5.363,-4.291c1.191,-5.304 -2.621,-5.3 -3.359,-11.346Z" style="fill:#fff;stroke:#231f20;stroke-width:1.55px;stroke-miterlimit:2.613;"/><path d="M285.647,202.49c4.641,12.37 23.741,25.616 39.012,25.608c18.3,0.292 25.054,-10.033 37.329,-21.025c-1.408,-2.383 -1.287,-3.358 -2.695,-5.738c-5.7,7.88 -17.138,12.009 -19.4,12.371c-0.634,-0.216 -6.95,-3.291 -6.638,-8.233c0.042,-0.675 -3.171,-0.754 -3.179,0c-0.071,7.692 -8.7,14.562 -9.825,14.6c-8.559,0.287 -20.429,0.487 -32.284,-18.171l3.642,-1.404c-0.087,-0.475 -0.167,-0.954 -0.25,-1.429c-3.046,1.521 -6.408,2.258 -10.079,2.208l0.092,0.792c0.104,0.946 3.583,0.25 4.275,0.421Z" style="fill:#231f20;stroke:#231f20;stroke-width:1.55px;stroke-miterlimit:2.613;"/><path d="M318.732,196.822c-0.042,-2.238 13.654,-5.355 16.304,-5.055c2.029,0.171 8.971,6.309 8.934,8.425c-0.046,1.988 -7.463,4.363 -11.005,4.409c-2.195,0.212 -14.233,-5.534 -14.233,-7.779" style="fill:#231f20;"/><path d="M318.732,196.822c-0.042,-2.238 13.654,-5.355 16.304,-5.055c2.029,0.171 8.971,6.309 8.934,8.425c-0.046,1.988 -7.463,4.363 -11.005,4.409c-2.195,0.212 -14.233,-5.534 -14.233,-7.779Z" style="fill:none;stroke:#231f20;stroke-width:1.55px;stroke-miterlimit:2.613;"/><path d="M319.64,187.62l-0.909,9.333" style="fill:none;stroke:#231f20;stroke-width:1.55px;stroke-miterlimit:2.613;"/><path d="M345.262,178.157c-3.279,2.333 -9.662,4.017 -9.708,6.742c4.833,-0.446 9.796,-1.634 14.625,-1.038c-1.425,-1.987 -3.496,-3.716 -4.917,-5.704Z" style="fill:#231f20;stroke:#231f20;stroke-width:0.33px;stroke-miterlimit:2.613;"/><path d="M331.639,329.363l50.875,4.379l93.733,-26.208m-140.821,-115.896l1.163,-6.871c0.133,0 0.133,-0.387 0.133,-0.52" style="fill:none;stroke:#231f20;stroke-width:1.55px;stroke-miterlimit:2.613;"/><path d="M425.377,302.524l52.071,4.463" style="fill:none;stroke:#231f20;stroke-width:1.55px;stroke-miterlimit:2.613;"/><path d="M355.675,390.651l61.691,5.408l85.921,-25.837m-83.712,-5.005l87.316,4.2" style="fill:none;stroke:#231f20;stroke-width:1.55px;stroke-miterlimit:2.613;"/><path d="M330.919,294.476c0.396,0.041 0.787,0.087 1.183,0.125c-3.471,13.191 -2.2,24.887 3.8,34.091c-0.433,0.125 -0.871,0.246 -1.304,0.375c-7.408,-10.145 -8.079,-22.12 -3.679,-34.591Z" style="fill:#231f20;stroke:#231f20;stroke-width:0.33px;stroke-miterlimit:2.613;"/><path d="M382.046,333.774l1.171,-0.108c-1.254,8.008 -0.979,14.887 2.029,19.771c-0.354,0.083 -0.713,0.175 -1.067,0.262c-0.212,-0.037 -0.429,-0.067 -0.641,-0.104c-2.763,-6.608 -2.992,-13.217 -1.492,-19.821Z" style="fill:#231f20;stroke:#231f20;stroke-width:0.33px;stroke-miterlimit:2.613;"/><path d="M62.226,450.262c-0.004,2.363 0.575,7.071 1.75,14.104l26.096,-16.187c0.012,-0.954 -0.15,-1.95 -0.484,-2.975c-0.325,-1.025 -0.825,-2.084 -1.508,-3.171c-2.354,-3.792 -4.567,-6.192 -6.65,-7.188c-1.971,-0.937 -4.104,-1.341 -6.392,-1.191c-2.3,0.146 -4.383,0.791 -6.237,1.95c-4.358,2.704 -6.55,7.587 -6.575,14.658m36.279,-1.996c0.629,1.05 0.813,2.146 0.563,3.279c-0.267,1.125 -0.888,2.005 -1.863,2.609c-1.758,1.087 -4.458,2.641 -8.067,4.65c-3.621,2.012 -6.308,3.558 -8.066,4.65c-1.95,1.216 -4.855,3.066 -8.692,5.571c-3.85,2.5 -6.758,4.35 -8.708,5.558c-0.971,0.6 -2.217,0.733 -3.759,0.396c-1.529,-0.342 -2.625,-1.029 -3.275,-2.084c-0.362,-0.583 -0.729,-2.387 -1.079,-5.391c-0.392,-3.534 -0.662,-5.604 -0.821,-6.209c-1.529,-6.183 -1.671,-12.179 -0.425,-17.987c1.467,-6.925 4.725,-11.95 9.767,-15.071c3.046,-1.887 6.392,-2.929 10.058,-3.142c3.725,-0.237 7.229,0.43 10.538,1.98c3.696,1.745 7.187,5.254 10.479,10.541c0.787,1.279 1.529,2.871 2.183,4.775c0.804,2.304 1.196,4.267 1.167,5.875" style="fill:#231f20;"/><path d="M45.836,425.543c-0.525,-1.079 -1.367,-1.763 -2.538,-2.05c-0.837,-0.204 -1.666,-0.2 -2.462,0.054c-4.367,1.313 -6.884,2.117 -7.529,2.442c-1.013,0.487 -1.675,1.191 -2.025,2.125c-0.338,0.937 -0.259,1.916 0.237,2.937c1,2.071 2.613,2.767 4.838,2.104c4.279,-1.266 6.85,-2.108 7.708,-2.512c1,-0.492 1.671,-1.2 2.008,-2.15c0.342,-0.946 0.254,-1.925 -0.237,-2.95" style="fill:#231f20;"/><path d="M59.931,374.119c1.866,1.896 4.104,5.087 6.708,9.558c2.396,4.083 4.121,7.538 5.192,10.338c1.796,4.737 0.621,7.895 -3.538,9.475c0.338,-0.13 -2.804,0.841 -9.4,2.912c-8.579,2.683 -17.996,5.975 -28.275,9.871c-1.108,0.429 -2.187,0.4 -3.241,-0.071c-1.067,-0.467 -1.817,-1.279 -2.259,-2.437c-0.437,-1.163 -0.416,-2.271 0.054,-3.338c0.484,-1.067 1.271,-1.808 2.375,-2.233c10.292,-3.913 19.871,-7.25 28.742,-10.029c1.617,-0.409 4.05,-1.121 7.308,-2.146c-1.812,-4.546 -5.166,-10.004 -10.058,-16.35c-0.296,-0.388 -0.529,-0.792 -0.687,-1.196c-0.467,-1.221 -0.388,-2.371 0.216,-3.463c0.525,-0.979 1.288,-1.658 2.271,-2.037c1.671,-0.629 3.196,-0.246 4.592,1.146" style="fill:#231f20;"/><path d="M13.829,345.229c0.087,0.412 0.112,0.846 0.075,1.321c-0.192,3.454 0.025,6.737 0.671,9.837c0.32,1.508 0.779,3.117 1.387,4.804c0.604,1.688 1.354,3.467 2.246,5.329c2.692,-0.566 6.708,-1.308 12.054,-2.241c-0.308,-1.121 -1.512,-4.996 -3.592,-11.634c-1.2,-3.787 -1.904,-6.187 -2.112,-7.216c-0.25,-1.204 -0.083,-2.3 0.492,-3.304c0.587,-1.017 1.504,-1.646 2.758,-1.913c2.417,-0.504 4.042,0.5 4.912,3c0.455,1.592 1.159,3.975 2.113,7.138c0.929,2.791 2.225,7.045 3.896,12.737c2.596,-0.4 4.687,-0.767 6.271,-1.096c3.962,-0.829 6.175,-1.529 6.616,-2.108c0.217,-0.275 0.092,-1.588 -0.396,-3.904c-0.27,-1.259 -0.691,-3.146 -1.283,-5.659c-0.596,-2.525 -1.017,-4.404 -1.279,-5.662c-0.079,-0.404 -0.271,-0.988 -0.554,-1.758c-0.292,-0.755 -0.471,-1.33 -0.554,-1.717c-0.242,-1.179 -0.121,-2.242 0.383,-3.213c0.546,-1.112 1.5,-1.804 2.85,-2.087c2.262,-0.475 3.867,0.425 4.808,2.696c0.809,1.941 1.879,6.104 3.209,12.479c1.383,6.596 1.387,11.083 0.025,13.458c-1.505,2.621 -5.517,4.609 -12.063,5.975c-2.7,0.567 -6.821,1.217 -12.333,1.963c-5.525,0.741 -9.621,1.391 -12.317,1.962c-0.704,0.142 -1.733,0.467 -3.071,0.95c-1.354,0.492 -2.379,0.817 -3.087,0.967c-3.071,0.633 -4.904,-0.458 -5.504,-3.288c-0.18,-0.891 -0.1,-1.766 0.254,-2.616c-1.084,-2.221 -1.984,-4.363 -2.713,-6.417c-0.737,-2.042 -1.304,-4.017 -1.7,-5.896c-1.058,-5.096 -1.325,-9.3 -0.791,-12.6c0.312,-2.004 1.408,-3.204 3.262,-3.591c1.054,-0.23 2.063,-0.055 3.017,0.508c1.1,0.617 1.783,1.55 2.05,2.796" style="fill:#231f20;"/><path d="M13.031,292.425c0.029,1.612 -0.05,4.121 -0.229,7.537c-0.183,3.288 -0.246,5.796 -0.2,7.525c2.354,-0.112 6.538,-0.45 12.571,-1.016c5.317,-0.508 9.533,-0.779 12.629,-0.821c0.713,-0.012 1.746,-0.108 3.133,-0.262c1.388,-0.167 2.421,-0.255 3.134,-0.259c1.55,-0.029 2.941,0.279 4.191,0.925c1.609,0.834 2.421,2.021 2.438,3.592c0.021,1.146 -0.333,2.154 -1.038,3.025c-0.795,0.987 -1.804,1.492 -3.02,1.508c-0.288,-0.004 -0.73,-0.041 -1.317,-0.137c-0.592,-0.096 -1.042,-0.142 -1.35,-0.138c-0.958,0.009 -2.392,0.1 -4.308,0.259c-1.917,0.166 -3.367,0.254 -4.342,0.266c-2.767,0.038 -6.517,0.304 -11.246,0.817c-5.425,0.562 -9.167,0.904 -11.242,1.017l0.03,1.608c0.062,4.617 -0.221,8.283 -0.838,10.992c-0.521,2.304 -1.858,3.483 -4.012,3.512c-1.05,0.012 -2.009,-0.346 -2.867,-1.087c-1.025,-0.851 -1.492,-1.976 -1.408,-3.384c0.025,-0.729 0.179,-2.379 0.454,-4.937c0.2,-2.046 0.287,-3.709 0.275,-4.967c-0.025,-1.262 -0.067,-3.142 -0.142,-5.662c-0.079,-2.505 -0.125,-4.392 -0.15,-5.646c-0.017,-1.571 0.063,-3.934 0.225,-7.079c0.179,-3.142 0.254,-5.505 0.225,-7.075c-0.017,-1.242 0.371,-2.284 1.175,-3.125c0.788,-0.859 1.775,-1.288 2.954,-1.3c1.179,-0.017 2.184,0.391 3.004,1.208c0.838,0.829 1.255,1.862 1.271,3.104" style="fill:#231f20;"/><path d="M18.728,243.733c0.537,1.229 1.225,2.742 2.079,4.525c2.054,3.829 5.863,8.559 11.425,14.179c4.35,4.325 8.708,8.65 13.083,12.975l0.125,0.146c0.184,-1.491 0.555,-5.121 1.13,-10.866c0.441,-4.505 0.854,-8.096 1.237,-10.746c0.425,-2.934 0.821,-4.896 1.2,-5.917c0.883,-2.379 2.238,-3.467 4.071,-3.292c1.362,0.13 2.367,0.759 2.992,1.875c0.554,0.95 0.75,2.034 0.575,3.246c-0.088,0.588 -0.255,1.479 -0.5,2.654c-0.234,1.175 -0.4,2.055 -0.488,2.655c-0.45,3.112 -1.042,7.787 -1.787,14.045c-0.742,6.246 -1.346,10.934 -1.796,14.046c-0.188,1.321 -0.679,2.367 -1.479,3.129c-0.875,0.863 -1.984,1.192 -3.309,1c-1.475,-0.208 -3.129,-1.108 -4.971,-2.691c-0.579,-0.5 -1.954,-1.884 -4.137,-4.134c-4,-4 -7.983,-8.012 -11.958,-12.033c-4.584,-4.75 -8.221,-9.112 -10.9,-13.067c-0.238,3.221 -0.48,5.68 -0.721,7.35l-1.784,12.413c-0.037,0.221 -0.066,0.546 -0.095,0.979c-0.025,0.446 -0.067,0.771 -0.1,0.992c-0.175,1.212 -0.663,2.179 -1.475,2.916c-0.917,0.83 -2.03,1.159 -3.342,0.971c-2.808,-0.408 -3.917,-2.687 -3.308,-6.841c0.204,-1.409 0.6,-3.509 1.175,-6.288c0.579,-2.779 0.962,-4.875 1.166,-6.283c0.225,-1.579 0.525,-3.938 0.904,-7.096c0.367,-3.154 0.667,-5.513 0.896,-7.088c0.879,-6.1 2.642,-8.962 5.304,-8.579c1.705,0.242 3.3,1.859 4.788,4.825" style="fill:#231f20;"/><path d="M27.822,199.316c-0.129,0.396 -0.308,0.787 -0.567,1.187c-1.858,2.929 -3.254,5.904 -4.187,8.929c-0.463,1.48 -0.829,3.113 -1.117,4.88c-0.291,1.775 -0.504,3.691 -0.621,5.75c2.625,0.816 6.5,2.104 11.625,3.887c0.267,-1.133 1.092,-5.104 2.492,-11.929c0.792,-3.892 1.338,-6.342 1.65,-7.342c0.363,-1.166 1.05,-2.05 2.046,-2.654c0.987,-0.6 2.108,-0.708 3.329,-0.333c2.354,0.737 3.292,2.4 2.833,5.004c-0.375,1.625 -0.904,4.042 -1.6,7.271c-0.554,2.904 -1.475,7.254 -2.766,13.046c2.462,0.912 4.475,1.595 6.016,2.075c3.867,1.2 6.13,1.654 6.805,1.366c0.325,-0.146 0.837,-1.346 1.55,-3.616c0.375,-1.23 0.908,-3.088 1.62,-5.571c0.7,-2.484 1.242,-4.342 1.63,-5.571c0.116,-0.4 0.245,-0.996 0.366,-1.804c0.117,-0.809 0.234,-1.396 0.35,-1.771c0.354,-1.15 0.984,-2.025 1.888,-2.633c1.012,-0.709 2.187,-0.855 3.512,-0.438c2.209,0.683 3.171,2.246 2.888,4.688c-0.234,2.095 -1.313,6.245 -3.238,12.47c-1.996,6.442 -4.162,10.367 -6.504,11.788c-2.579,1.562 -7.062,1.354 -13.437,-0.625c-2.65,-0.813 -6.571,-2.242 -11.759,-4.258c-5.179,-2.03 -9.083,-3.446 -11.712,-4.259c-0.696,-0.208 -1.746,-0.429 -3.154,-0.654c-1.421,-0.229 -2.467,-0.446 -3.167,-0.667c-3.004,-0.916 -4.075,-2.77 -3.221,-5.533c0.271,-0.862 0.767,-1.592 1.488,-2.162c0.137,-2.475 0.383,-4.784 0.737,-6.938c0.354,-2.142 0.813,-4.142 1.383,-5.975c1.538,-4.975 3.342,-8.775 5.4,-11.408c1.255,-1.604 2.788,-2.121 4.609,-1.554c1.033,0.312 1.829,0.95 2.4,1.904c0.671,1.079 0.808,2.221 0.433,3.45" style="fill:#231f20;"/><path d="M60.769,178.356c-0.888,1.659 -2.275,4.104 -4.175,7.325l10.225,5.484c1.512,-3.225 2.741,-6.942 3.666,-11.163c0.796,-3.687 0.671,-5.808 -0.412,-6.333c-1.433,-0.696 -3.225,-0.338 -5.396,1.079c-1.712,1.1 -3.017,2.3 -3.908,3.608m-21.029,-7.162c-1.267,2.346 -2,3.766 -2.221,4.262l5.808,3.075l5.721,3.104c1.096,-1.55 1.829,-2.758 2.2,-3.641c2.558,-5.817 2,-9.709 -1.667,-11.659c-1.283,-0.7 -2.975,-0.55 -5.058,0.45c-2.167,1.021 -3.754,2.492 -4.783,4.409m39.108,9.804c-0.696,5.104 -2.779,10.896 -6.258,17.379c-0.584,1.092 -1.567,1.821 -2.934,2.2c-1.379,0.379 -2.583,0.292 -3.621,-0.262l-28.97,-15.534c-1.271,-0.608 -2.542,-1.229 -3.805,-1.85c-1.42,-0.708 -2.583,-1.387 -3.466,-2.05c-1.575,-1.171 -1.763,-3.321 -0.55,-6.446c0.333,-1.604 1.366,-4.008 3.083,-7.22c1.846,-3.438 4.733,-6.138 8.638,-8.105c4.57,-2.312 8.795,-2.425 12.679,-0.345c2.1,1.116 3.658,2.454 4.687,3.983c0.842,1.225 1.529,2.95 2.054,5.154c1.813,-1.308 3.942,-2.179 6.405,-2.625c2.762,-0.5 5.104,-0.242 7.008,0.775c2.429,1.3 4.017,3.85 4.767,7.654c0.495,2.542 0.583,4.975 0.283,7.292" style="fill:#231f20;"/><path d="M101.691,137.792c0.767,2.43 1.062,4.905 0.912,7.421c-0.204,3.084 -1.116,5.738 -2.741,7.946c-3.117,4.258 -6.229,6.833 -9.354,7.729c-6.596,1.892 -14.075,-0.246 -22.471,-6.387c-0.804,-0.584 -1.975,-1.5 -3.496,-2.738c-1.529,-1.254 -2.696,-2.166 -3.504,-2.754c-0.642,-0.467 -1.575,-1.187 -2.829,-2.15c-1.246,-0.958 -2.184,-1.679 -2.825,-2.137c-1.317,-0.967 -2.375,-2.117 -3.18,-3.446c-1.07,-1.775 -1.166,-3.254 -0.316,-4.429c0.679,-0.917 1.558,-1.513 2.666,-1.78c1.184,-0.316 2.263,-0.12 3.242,0.605c0.925,0.675 2.329,1.72 4.196,3.129c1.871,1.4 3.275,2.454 4.221,3.141c0.787,0.571 1.946,1.488 3.466,2.725c1.521,1.242 2.68,2.146 3.463,2.717c2.529,1.85 5.1,3.275 7.717,4.258c3.104,1.205 5.67,1.505 7.691,0.909c1.046,-0.304 2.554,-1.767 4.517,-4.371c3.283,-4.354 1.696,-10.075 -4.75,-17.146c-3.338,-3.675 -8.55,-8.1 -15.642,-13.292c-0.933,-0.675 -1.637,-1.616 -2.104,-2.795c-0.596,-1.596 -0.396,-3.088 0.625,-4.475c0.825,-1.13 1.863,-1.675 3.113,-1.638c0.929,0.021 1.775,0.3 2.529,0.85c6.591,4.821 11.504,8.892 14.733,12.213c5.008,5.091 8.383,10.391 10.121,15.895" style="fill:#231f20;"/><path d="M110.439,79.39c-0.3,0.292 -0.662,0.533 -1.079,0.758c-3.071,1.609 -5.775,3.484 -8.087,5.634c-1.142,1.062 -2.28,2.279 -3.421,3.67c-1.134,1.388 -2.259,2.946 -3.396,4.675c1.871,2.013 4.575,5.08 8.129,9.171c0.804,-0.846 3.504,-3.866 8.117,-9.071c2.637,-2.97 4.341,-4.816 5.116,-5.525c0.892,-0.829 1.925,-1.258 3.092,-1.279c1.158,-0.021 2.183,0.438 3.054,1.379c1.667,1.8 1.654,3.717 -0.046,5.742c-1.133,1.221 -2.812,3.046 -5.025,5.492c-1.929,2.233 -4.912,5.533 -8.929,9.891c1.692,2.021 3.084,3.63 4.171,4.813c2.763,2.975 4.5,4.504 5.229,4.596c0.346,0.041 1.388,-0.75 3.129,-2.359c0.955,-0.879 2.342,-2.212 4.205,-4.016c1.845,-1.796 3.245,-3.138 4.187,-4.009c0.304,-0.279 0.708,-0.737 1.213,-1.375c0.512,-0.641 0.908,-1.095 1.2,-1.366c0.87,-0.809 1.858,-1.25 2.945,-1.329c1.238,-0.1 2.325,0.354 3.263,1.37c1.571,1.696 1.629,3.538 0.158,5.521c-1.25,1.692 -4.258,4.746 -9.037,9.179c-4.938,4.58 -8.788,6.888 -11.517,6.95c-3.029,0.063 -6.804,-2.362 -11.346,-7.262c-1.879,-2.033 -4.554,-5.229 -8.033,-9.567c-3.479,-4.35 -6.154,-7.533 -8.025,-9.554c-0.488,-0.525 -1.296,-1.242 -2.404,-2.142c-1.113,-0.895 -1.925,-1.608 -2.413,-2.145c-2.133,-2.305 -2.141,-4.446 -0.016,-6.405c0.662,-0.62 1.458,-1.004 2.366,-1.141c1.359,-2.067 2.725,-3.942 4.1,-5.625c1.375,-1.696 2.775,-3.188 4.184,-4.496c3.825,-3.529 7.287,-5.925 10.387,-7.163c1.888,-0.762 3.471,-0.45 4.763,0.946c0.729,0.792 1.1,1.738 1.12,2.85c0.038,1.267 -0.412,2.321 -1.354,3.192" style="fill:#231f20;"/><path d="M131.09,63.948c-0.142,0.075 -1.184,0.696 -3.117,1.871l9.404,13.525c0.425,-0.284 0.813,-0.529 1.133,-0.754c4.159,-2.896 6.884,-5.555 8.163,-7.984c0.558,-1.041 0.942,-2.175 1.158,-3.404c0.213,-1.237 0.184,-2.037 -0.071,-2.408c-1.32,-1.909 -3.8,-2.896 -7.433,-2.992c-3.45,-0.067 -6.525,0.642 -9.237,2.146m38.575,20.696c-0.917,0.637 -2,0.862 -3.263,0.675c-8.487,-1.246 -16.462,-0.663 -23.912,1.754c3.616,4.812 5.616,7.492 5.987,8.033c0.679,0.967 0.908,2.021 0.696,3.163c-0.213,1.133 -0.825,2.066 -1.846,2.771c-1.012,0.708 -2.096,0.954 -3.242,0.754c-1.141,-0.192 -2.045,-0.784 -2.72,-1.742c-0.884,-1.279 -2.2,-3.2 -3.925,-5.754c-1.734,-2.558 -3.046,-4.475 -3.93,-5.742l-14.237,-20.583c-0.767,-1.1 -1.129,-2.342 -1.1,-3.696c0.071,-1.758 0.908,-3.108 2.521,-4.05c4.329,-2.554 6.554,-3.862 6.662,-3.921c2.584,-1.362 4.992,-2.204 7.246,-2.5c9.788,-1.396 16.546,0.613 20.308,6.009c1.542,2.229 2.155,4.725 1.817,7.483c-0.333,2.758 -1.612,5.783 -3.833,9.071c6.237,-0.617 11.412,-0.413 15.5,0.621c1.066,0.275 1.883,0.816 2.462,1.654c0.659,0.95 0.875,2.012 0.638,3.196c-0.234,1.187 -0.838,2.116 -1.829,2.804" style="fill:#231f20;"/><path d="M203.888,46.262c1.421,6.154 1.017,11.825 -1.2,17.013c-2.275,5.229 -6.02,9.104 -11.241,11.633c-4.963,2.396 -9.304,2.883 -13.042,1.467c-3.737,-1.417 -6.871,-4.742 -9.4,-9.975c-2.3,-4.759 -3.492,-10.213 -3.571,-16.355c-0.071,-6.133 0.979,-11.654 3.159,-16.545c1.537,-3.425 3.787,-5.855 6.737,-7.284c1.808,-0.875 4.575,-1.408 8.321,-1.612c4.421,-0.242 7.062,0.521 7.908,2.266c0.484,1 0.542,2.088 0.159,3.242c-0.384,1.167 -1.13,2.013 -2.255,2.546c-0.554,0.279 -2.041,0.342 -4.454,0.221c-2.421,-0.125 -4.408,0.187 -5.991,0.958c-1.675,0.804 -3.067,3.708 -4.163,8.692c-1.612,7.25 -0.937,13.946 2.021,20.058c1.5,3.121 2.971,5.004 4.433,5.679c1.529,0.709 3.688,0.396 6.459,-0.946c2.837,-1.379 4.958,-3.404 6.325,-6.062c1.462,-2.825 1.954,-6.125 1.466,-9.938c-4.154,2.43 -7.483,5.13 -9.991,8.109c-0.459,0.533 -0.967,0.941 -1.546,1.225c-1.154,0.55 -2.321,0.591 -3.492,0.104c-1.058,-0.433 -1.825,-1.129 -2.292,-2.088c-1.379,-2.858 1.03,-6.479 7.221,-10.858c3.488,-2.479 7.759,-4.933 12.829,-7.375c1.113,-0.546 2.23,-0.629 3.334,-0.271c1.104,0.359 1.912,1.071 2.425,2.125c0.654,1.367 0.604,2.688 -0.159,3.971" style="fill:#231f20;"/><path d="M236.2,14.632c-0.395,0.104 -0.82,0.158 -1.3,0.15c-3.466,-0.025 -6.733,0.366 -9.787,1.183c-1.5,0.392 -3.075,0.942 -4.729,1.633c-1.659,0.692 -3.388,1.529 -5.196,2.521c0.7,2.658 1.654,6.633 2.867,11.917c1.091,-0.375 4.9,-1.771 11.42,-4.196c3.713,-1.383 6.084,-2.217 7.105,-2.488c1.17,-0.304 2.291,-0.204 3.325,0.321c1.037,0.538 1.72,1.413 2.045,2.663c0.625,2.375 -0.283,4.054 -2.733,5.05c-1.567,0.537 -3.904,1.375 -7.008,2.483c-2.754,1.075 -6.934,2.596 -12.534,4.558c0.534,2.58 1.013,4.642 1.425,6.2c1.034,3.917 1.855,6.084 2.459,6.5c0.283,0.209 1.579,0.005 3.879,-0.6c1.237,-0.333 3.104,-0.854 5.579,-1.579c2.483,-0.721 4.346,-1.241 5.583,-1.575c0.409,-0.104 0.984,-0.316 1.721,-0.646c0.75,-0.329 1.317,-0.541 1.7,-0.637c1.154,-0.304 2.234,-0.233 3.225,0.204c1.138,0.496 1.884,1.408 2.234,2.742c0.595,2.237 -0.221,3.887 -2.442,4.941c-1.904,0.913 -5.992,2.2 -12.292,3.867c-6.512,1.713 -10.987,1.963 -13.433,0.721c-2.688,-1.358 -4.892,-5.267 -6.596,-11.725c-0.712,-2.679 -1.575,-6.754 -2.608,-12.221c-1.029,-5.462 -1.904,-9.533 -2.604,-12.187c-0.188,-0.7 -0.555,-1.709 -1.113,-3.034c-0.562,-1.312 -0.933,-2.321 -1.117,-3.021c-0.804,-3.033 0.192,-4.929 2.988,-5.662c0.883,-0.242 1.75,-0.2 2.625,0.1c2.162,-1.183 4.246,-2.2 6.267,-3.042c2.008,-0.833 3.941,-1.496 5.804,-1.987c5.025,-1.329 9.208,-1.821 12.529,-1.467c2.021,0.221 3.271,1.246 3.762,3.088c0.271,1.033 0.163,2.041 -0.35,3.033c-0.558,1.133 -1.45,1.858 -2.7,2.192" style="fill:#231f20;"/><path d="M261.945,10.479c-0.171,0 -1.383,0.063 -3.637,0.188l1.954,16.354c0.521,-0.046 0.966,-0.084 1.362,-0.134c5.029,-0.6 8.671,-1.67 10.95,-3.208c0.984,-0.667 1.854,-1.483 2.621,-2.471c0.763,-0.987 1.121,-1.708 1.075,-2.158c-0.275,-2.304 -1.996,-4.342 -5.175,-6.129c-3.008,-1.684 -6.062,-2.492 -9.15,-2.442m24.354,36.379c-1.112,0.142 -2.179,-0.171 -3.208,-0.929c-6.913,-5.083 -14.229,-8.312 -21.946,-9.683c0.938,5.946 1.442,9.25 1.525,9.9c0.133,1.175 -0.154,2.221 -0.883,3.121c-0.721,0.916 -1.692,1.445 -2.929,1.587c-1.23,0.146 -2.309,-0.137 -3.221,-0.846c-0.913,-0.721 -1.442,-1.662 -1.584,-2.825c-0.187,-1.537 -0.441,-3.854 -0.766,-6.925c-0.329,-3.071 -0.584,-5.379 -0.763,-6.912l-2.904,-24.859c-0.158,-1.333 0.088,-2.591 0.763,-3.775c0.879,-1.52 2.258,-2.312 4.116,-2.387c5.029,-0.229 7.613,-0.342 7.738,-0.333c2.921,0.004 5.437,0.4 7.571,1.187c9.287,3.371 14.325,8.317 15.108,14.838c0.317,2.691 -0.321,5.179 -1.908,7.454c-1.592,2.283 -4.138,4.35 -7.646,6.212c5.804,2.379 10.275,4.992 13.391,7.829c0.817,0.734 1.288,1.609 1.405,2.613c0.137,1.154 -0.175,2.196 -0.942,3.129c-0.763,0.929 -1.733,1.471 -2.917,1.604" style="fill:#231f20;"/><path d="M344.387,48.315c-5.192,-0.725 -9.129,-2.446 -11.796,-5.179c-2.254,-2.275 -3.208,-4.663 -2.854,-7.188c0.183,-1.291 0.721,-2.304 1.608,-3.041c0.9,-0.742 2.034,-1.017 3.405,-0.825c1.837,0.25 3.066,1.387 3.658,3.387c0.817,2.679 3.283,4.3 7.392,4.879c3.525,0.484 7.041,0.192 10.545,-0.883c3.642,-1.108 5.592,-2.6 5.855,-4.479c0.358,-2.575 -0.471,-4.425 -2.484,-5.542c-1.433,-0.808 -4.425,-1.575 -8.983,-2.308c-3.521,-0.584 -6.6,-1.684 -9.233,-3.317c-3.555,-2.229 -5.08,-4.921 -4.575,-8.092c0.62,-3.987 3.258,-7.354 7.912,-10.091c4.658,-2.75 9.517,-3.763 14.567,-3.067c2.012,0.271 4.416,1.083 7.246,2.413c3.504,1.662 5.145,3.229 4.937,4.729c-0.146,1.062 -0.642,1.954 -1.496,2.666c-0.95,0.809 -2.062,1.125 -3.354,0.95c-0.954,-0.137 -2.371,-0.541 -4.225,-1.212c-1.854,-0.679 -3.279,-1.083 -4.258,-1.221c-2.642,-0.342 -5.238,-0.062 -7.784,0.858c-2.633,0.934 -4.054,2.142 -4.262,3.634c-0.104,0.779 0.175,1.475 0.862,2.075c0.68,0.608 1.742,1.116 3.213,1.533c2.596,0.508 5.183,1.017 7.771,1.521c4.483,0.975 7.908,2.746 10.237,5.325c2.567,2.858 3.55,6.458 2.942,10.8c-0.729,5.279 -4.296,8.867 -10.696,10.75c-4.875,1.433 -10.254,1.742 -16.15,0.925" style="fill:#231f20;"/><path d="M420.86,28.655c-1.525,-0.516 -3.863,-1.441 -7.021,-2.762c-3.029,-1.275 -5.366,-2.179 -7.017,-2.725c-0.683,2.254 -1.791,6.317 -3.291,12.179c-1.325,5.183 -2.479,9.242 -3.488,12.175c-0.225,0.663 -0.495,1.675 -0.808,3.033c-0.308,1.359 -0.579,2.371 -0.804,3.034c-0.504,1.471 -1.267,2.683 -2.3,3.641c-1.313,1.238 -2.717,1.596 -4.196,1.084c-1.079,-0.371 -1.917,-1.034 -2.508,-1.996c-0.659,-1.088 -0.784,-2.2 -0.388,-3.35c0.096,-0.279 0.283,-0.683 0.571,-1.204c0.287,-0.521 0.475,-0.929 0.583,-1.221c0.304,-0.9 0.709,-2.288 1.204,-4.142c0.5,-1.862 0.905,-3.258 1.221,-4.171c0.892,-2.625 1.9,-6.25 3.034,-10.862c1.287,-5.3 2.233,-8.95 2.825,-10.925l-1.521,-0.529c-4.367,-1.5 -7.725,-2.988 -10.071,-4.488c-1.996,-1.271 -2.633,-2.929 -1.946,-4.962c0.346,-0.992 1.004,-1.775 1.983,-2.334c1.155,-0.675 2.38,-0.741 3.663,-0.187c0.675,0.279 2.175,0.979 4.496,2.092c1.875,0.879 3.4,1.516 4.591,1.925c1.192,0.412 2.98,1 5.375,1.779c2.388,0.779 4.171,1.366 5.363,1.779c1.496,0.504 3.688,1.375 6.583,2.592c2.913,1.229 5.1,2.087 6.592,2.595c1.175,0.409 2.029,1.125 2.55,2.159c0.537,1.033 0.608,2.108 0.225,3.216c-0.379,1.121 -1.096,1.934 -2.158,2.434c-1.055,0.5 -2.175,0.554 -3.342,0.141" style="fill:#231f20;"/><path d="M446.353,78.287c-2.346,0.988 -4.784,1.509 -7.317,1.592c-3.079,0.075 -5.804,-0.587 -8.158,-2c-4.53,-2.708 -7.375,-5.579 -8.55,-8.596c-2.492,-6.391 -1.067,-14.037 4.275,-22.958c0.516,-0.854 1.32,-2.108 2.42,-3.742c1.096,-1.629 1.905,-2.883 2.409,-3.737c0.408,-0.675 1.037,-1.684 1.883,-3.013c0.842,-1.321 1.467,-2.333 1.871,-3.016c0.837,-1.384 1.879,-2.555 3.133,-3.48c1.679,-1.22 3.138,-1.458 4.371,-0.716c0.975,0.587 1.654,1.404 2.025,2.483c0.421,1.142 0.325,2.238 -0.3,3.279c-0.596,0.988 -1.504,2.488 -2.721,4.471c-1.229,1.996 -2.141,3.496 -2.75,4.492c-0.491,0.837 -1.287,2.066 -2.387,3.7c-1.096,1.637 -1.892,2.862 -2.396,3.7c-1.604,2.691 -2.788,5.379 -3.529,8.066c-0.909,3.209 -0.971,5.78 -0.188,7.734c0.404,1.025 1.988,2.387 4.767,4.104c4.642,2.862 10.187,0.771 16.633,-6.313c3.35,-3.654 7.275,-9.254 11.792,-16.787c0.587,-0.992 1.458,-1.767 2.592,-2.35c1.537,-0.742 3.037,-0.675 4.508,0.204c1.2,0.729 1.846,1.708 1.917,2.95c0.066,0.942 -0.142,1.808 -0.621,2.6c-4.196,7.008 -7.788,12.279 -10.792,15.796c-4.612,5.458 -9.579,9.3 -14.887,11.537" style="fill:#231f20;"/><path d="M493.223,80.768c-0.77,-2.238 -2.866,-6.488 -6.296,-12.738l-19.287,23.896c0.3,0.908 0.779,1.791 1.433,2.654c0.65,0.85 1.467,1.679 2.471,2.492c3.471,2.804 6.358,4.329 8.642,4.591c2.183,0.234 4.325,-0.095 6.433,-0.995c2.121,-0.892 3.867,-2.188 5.246,-3.896c3.221,-3.992 3.671,-9.321 1.358,-16.004m-33.591,13.858c-0.929,-0.775 -1.459,-1.746 -1.592,-2.9c-0.133,-1.154 0.171,-2.188 0.892,-3.083c1.296,-1.609 3.325,-3.963 6.075,-7.055c2.758,-3.087 4.775,-5.445 6.075,-7.054c1.441,-1.779 3.571,-4.487 6.379,-8.129c2.804,-3.625 4.929,-6.337 6.367,-8.117c0.72,-0.883 1.858,-1.42 3.42,-1.612c1.55,-0.192 2.817,0.108 3.784,0.883c0.533,0.429 1.462,2.013 2.796,4.734c1.545,3.204 2.474,5.062 2.833,5.583c3.475,5.333 5.587,10.95 6.341,16.837c0.892,7.025 -0.525,12.838 -4.25,17.455c-2.25,2.787 -5.066,4.875 -8.462,6.287c-3.429,1.454 -6.958,1.987 -10.583,1.613c-4.08,-0.417 -8.534,-2.58 -13.38,-6.496c-1.166,-0.942 -2.387,-2.2 -3.637,-3.775c-1.513,-1.917 -2.538,-3.629 -3.058,-5.171" style="fill:#231f20;"/><path d="M540.599,119.352c-0.263,-0.317 -0.492,-0.692 -0.7,-1.121c-1.463,-3.142 -3.209,-5.925 -5.246,-8.346c-1,-1.183 -2.167,-2.379 -3.5,-3.583c-1.338,-1.196 -2.838,-2.4 -4.508,-3.617c-2.105,1.762 -5.292,4.337 -9.555,7.687c0.817,0.838 3.709,3.68 8.68,8.542c2.845,2.771 4.604,4.558 5.279,5.367c0.783,0.933 1.158,1.979 1.133,3.141c-0.033,1.167 -0.537,2.163 -1.521,2.988c-1.887,1.579 -3.804,1.479 -5.737,-0.317c-1.163,-1.187 -2.909,-2.95 -5.246,-5.275c-2.138,-2.033 -5.3,-5.166 -9.467,-9.387c-2.096,1.583 -3.762,2.904 -4.991,3.946c-3.109,2.608 -4.717,4.27 -4.842,4.995c-0.054,0.346 0.679,1.425 2.208,3.246c0.825,0.984 2.092,2.438 3.809,4.379c1.712,1.934 2.983,3.4 3.804,4.38c0.271,0.316 0.704,0.737 1.325,1.279c0.612,0.529 1.05,0.95 1.296,1.254c0.775,0.912 1.17,1.917 1.191,3.012c0.046,1.234 -0.462,2.292 -1.521,3.184c-1.779,1.491 -3.612,1.462 -5.52,-0.092c-1.63,-1.329 -4.542,-4.487 -8.734,-9.467c-4.341,-5.158 -6.479,-9.1 -6.408,-11.845c0.087,-3.009 2.683,-6.671 7.796,-10.971c2.116,-1.788 5.433,-4.309 9.941,-7.575c4.509,-3.267 7.813,-5.792 9.921,-7.567c0.546,-0.462 1.3,-1.229 2.254,-2.296c0.942,-1.075 1.696,-1.837 2.25,-2.312c2.409,-2.017 4.542,-1.929 6.413,0.279c0.575,0.7 0.921,1.508 1.021,2.429c2,1.442 3.8,2.9 5.421,4.358c1.616,1.459 3.045,2.925 4.283,4.4c3.358,3.975 5.575,7.555 6.675,10.709c0.667,1.921 0.283,3.487 -1.171,4.716c-0.821,0.696 -1.787,1.021 -2.9,0.975c-1.262,-0.02 -2.312,-0.516 -3.133,-1.495" style="fill:#231f20;"/><path d="M544.806,187.605c-0.904,0.5 -2.412,1.142 -4.533,1.917c-2.538,0.942 -4.433,0.271 -5.7,-2c-0.708,-1.271 -0.788,-3.087 -0.246,-5.471c2.404,-10.446 6.829,-23.187 13.279,-38.216c-4.766,2.508 -7.675,4.058 -8.746,4.641c-1.42,0.796 -3.55,2.029 -6.391,3.684c-2.846,1.662 -4.971,2.887 -6.396,3.679c-5.325,2.966 -8.717,3.15 -10.163,0.558c-0.737,-1.325 -0.912,-2.6 -0.541,-3.846c0.329,-1.104 1.012,-1.946 2.037,-2.525c0.729,-0.396 1.846,-0.946 3.379,-1.65c1.525,-0.691 2.655,-1.237 3.375,-1.646c1.067,-0.595 2.684,-1.45 4.855,-2.566c2.175,-1.113 3.791,-1.967 4.854,-2.554c1.141,-0.63 2.85,-1.617 5.104,-2.95c2.267,-1.33 3.967,-2.309 5.1,-2.942c1.096,-0.604 2.65,-1.613 4.675,-3.021c2.029,-1.412 3.596,-2.421 4.675,-3.025c1.079,-0.596 2.304,-0.671 3.675,-0.217c1.358,0.455 2.375,1.288 3.046,2.48c0.737,1.333 0.412,3.458 -1,6.362c-7.146,14.717 -12.2,28.117 -15.146,40.2c0.592,-0.296 1.967,-1.05 4.133,-2.262c8.913,-4.95 14.863,-8.388 17.871,-10.292c0.513,-0.325 1.417,-0.988 2.733,-1.979c1.163,-0.888 2.113,-1.534 2.842,-1.929c2.488,-1.388 4.463,-0.767 5.942,1.87c1.633,2.946 -2.088,6.946 -11.179,12c-0.2,0.117 -1.642,0.888 -4.317,2.33c-9.238,5.004 -14.979,8.125 -17.217,9.37" style="fill:#231f20;"/><path d="M587.909,220.198c-0.496,-1.529 -1.171,-3.954 -2.016,-7.267c-0.813,-3.2 -1.484,-5.621 -2.055,-7.262c-2.208,0.812 -6.108,2.383 -11.704,4.708c-4.937,2.071 -8.883,3.583 -11.833,4.55c-0.663,0.208 -1.638,0.608 -2.904,1.171c-1.271,0.571 -2.238,0.962 -2.913,1.179c-1.479,0.483 -2.908,0.608 -4.283,0.367c-1.784,-0.313 -2.917,-1.217 -3.4,-2.704c-0.359,-1.088 -0.317,-2.155 0.091,-3.209c0.463,-1.171 1.28,-1.95 2.442,-2.329c0.271,-0.087 0.7,-0.175 1.304,-0.258c0.584,-0.088 1.029,-0.188 1.321,-0.271c0.913,-0.3 2.25,-0.813 4.042,-1.542c1.787,-0.712 3.141,-1.237 4.062,-1.537c2.638,-0.859 6.138,-2.234 10.5,-4.109c5.017,-2.162 8.492,-3.6 10.442,-4.316l-0.513,-1.542c-1.429,-4.383 -2.254,-7.967 -2.47,-10.75c-0.188,-2.346 0.754,-3.862 2.795,-4.529c1.009,-0.325 2.021,-0.279 3.063,0.175c1.229,0.508 2.017,1.446 2.358,2.817c0.184,0.7 0.529,2.316 1.038,4.854c0.408,2.016 0.821,3.621 1.208,4.816c0.392,1.205 1.004,2.988 1.817,5.367c0.821,2.379 1.425,4.163 1.821,5.367c0.491,1.487 1.12,3.766 1.887,6.825c0.767,3.054 1.4,5.325 1.892,6.825c0.375,1.171 0.321,2.291 -0.188,3.329c-0.504,1.046 -1.316,1.754 -2.437,2.125c-1.125,0.367 -2.204,0.275 -3.238,-0.263c-1.033,-0.55 -1.75,-1.404 -2.129,-2.587" style="fill:#231f20;"/><path d="M598.643,262.719c-0.083,-0.408 -0.091,-0.846 -0.05,-1.308c0.309,-3.459 0.184,-6.746 -0.366,-9.863c-0.275,-1.525 -0.688,-3.146 -1.238,-4.85c-0.562,-1.712 -1.254,-3.512 -2.091,-5.396c-2.709,0.488 -6.755,1.109 -12.113,1.884c0.288,1.121 1.363,5.037 3.254,11.733c1.075,3.817 1.704,6.25 1.892,7.292c0.208,1.204 0.021,2.291 -0.6,3.279c-0.609,1 -1.542,1.604 -2.808,1.825c-2.417,0.437 -4.021,-0.613 -4.805,-3.138c-0.412,-1.612 -1.054,-4.012 -1.916,-7.2c-0.838,-2.829 -2.009,-7.12 -3.517,-12.858c-2.612,0.321 -4.712,0.625 -6.288,0.908c-3.995,0.713 -6.229,1.346 -6.691,1.909c-0.221,0.271 -0.125,1.583 0.296,3.925c0.221,1.258 0.591,3.162 1.108,5.691c0.504,2.538 0.875,4.438 1.108,5.696c0.063,0.409 0.238,1.004 0.505,1.775c0.254,0.775 0.425,1.346 0.495,1.734c0.209,1.183 0.05,2.254 -0.47,3.204c-0.588,1.096 -1.555,1.758 -2.921,2.008c-2.279,0.408 -3.854,-0.55 -4.729,-2.85c-0.746,-1.958 -1.692,-6.154 -2.834,-12.567c-1.179,-6.637 -1.054,-11.116 0.379,-13.45c1.588,-2.575 5.659,-4.441 12.234,-5.612c2.733,-0.488 6.862,-1.021 12.4,-1.596c5.533,-0.575 9.654,-1.112 12.366,-1.596c0.709,-0.121 1.746,-0.412 3.1,-0.862c1.359,-0.446 2.396,-0.738 3.109,-0.871c3.091,-0.538 4.891,0.6 5.396,3.462c0.162,0.888 0.058,1.75 -0.313,2.596c1,2.254 1.85,4.425 2.513,6.496c0.675,2.075 1.175,4.063 1.512,5.95c0.917,5.125 1.05,9.338 0.425,12.617c-0.371,2 -1.5,3.162 -3.383,3.504c-1.05,0.179 -2.054,-0.013 -3,-0.608c-1.084,-0.65 -1.738,-1.596 -1.959,-2.863" style="fill:#231f20;"/><path d="M569.412,339.528c7.229,4.371 13,7.775 17.308,10.233c2.275,1.304 4.563,2.604 6.863,3.884c2.7,1.687 4.716,3.354 6.058,5.004c0.883,1.091 1.221,2.279 1.004,3.562c-0.196,1.159 -0.771,2.104 -1.721,2.854c-0.954,0.742 -2.004,1.017 -3.166,0.821c-0.813,-0.137 -1.584,-0.55 -2.284,-1.225c-1.396,-1.366 -3.154,-2.7 -5.237,-3.991c-0.079,-0.046 -1.971,-1.142 -5.679,-3.267c-4.405,-2.621 -11.009,-6.529 -19.83,-11.721c-2.308,-1.354 -4.583,-2.921 -6.825,-4.687c-1.437,-1.146 -2.025,-2.55 -1.745,-4.234c0.358,-2.121 1.604,-3.429 3.733,-3.929c6.346,-1.5 15.362,-2.842 27.046,-4.021c2.879,-0.371 5.771,-0.762 8.679,-1.166c4.017,-0.505 6.771,-0.634 8.258,-0.384c1.209,0.2 2.129,0.821 2.775,1.854c0.592,0.967 0.792,2.025 0.604,3.175c-0.329,1.959 -1.579,3.155 -3.75,3.596c-1.833,0.113 -3.666,0.229 -5.491,0.338c-2.317,0.304 -5.779,0.721 -10.392,1.262c-6.092,0.609 -11.5,1.296 -16.208,2.042" style="fill:#231f20;"/><path d="M545.071,395.843c-1.396,-2.129 -2.354,-4.425 -2.888,-6.892c-0.637,-3.029 -0.479,-5.816 0.488,-8.391c1.833,-4.942 4.133,-8.263 6.9,-9.967c5.825,-3.604 13.612,-3.588 23.35,0.042c0.933,0.345 2.304,0.916 4.116,1.695c1.805,0.792 3.18,1.355 4.113,1.7c0.737,0.28 1.85,0.713 3.304,1.296c1.458,0.592 2.554,1.021 3.304,1.296c1.521,0.571 2.859,1.392 3.992,2.458c1.508,1.417 2.013,2.809 1.5,4.159c-0.4,1.071 -1.092,1.879 -2.079,2.441c-1.046,0.625 -2.134,0.725 -3.279,0.296c-1.08,-0.4 -2.713,-1.029 -4.888,-1.871c-2.175,-0.85 -3.817,-1.47 -4.921,-1.883c-0.9,-0.346 -2.262,-0.896 -4.062,-1.675c-1.808,-0.787 -3.159,-1.342 -4.067,-1.687c-2.941,-1.092 -5.8,-1.763 -8.579,-2.005c-3.321,-0.316 -5.871,0.1 -7.65,1.213c-0.929,0.579 -1.979,2.396 -3.163,5.437c-1.975,5.08 1.096,10.15 9.226,15.213c4.208,2.625 10.416,5.475 18.649,8.537c1.088,0.413 2.009,1.121 2.784,2.134c1.008,1.366 1.216,2.862 0.612,4.466c-0.487,1.317 -1.337,2.121 -2.55,2.417c-0.912,0.238 -1.796,0.196 -2.675,-0.129c-7.641,-2.854 -13.475,-5.433 -17.491,-7.75c-6.2,-3.554 -10.884,-7.729 -14.046,-12.55" style="fill:#231f20;"/><path d="M516.897,449.916c-0.884,-0.541 -2.184,-1.541 -3.909,-3.004c-2.062,-1.75 -2.408,-3.733 -1.045,-5.946c0.758,-1.237 2.3,-2.204 4.645,-2.9c10.271,-3.046 23.534,-5.466 39.796,-7.25c-4.521,-2.9 -7.304,-4.683 -8.341,-5.316c-1.4,-0.846 -3.513,-2.105 -6.355,-3.755c-2.837,-1.658 -4.95,-2.908 -6.35,-3.766c-5.196,-3.179 -7.029,-6.034 -5.479,-8.571c0.792,-1.288 1.825,-2.075 3.092,-2.363c1.117,-0.262 2.192,-0.087 3.192,0.534c0.708,0.429 1.737,1.141 3.091,2.133c1.367,0.983 2.4,1.696 3.1,2.125c1.038,0.642 2.575,1.625 4.621,2.963c2.033,1.35 3.571,2.337 4.617,2.97c1.104,0.684 2.8,1.68 5.066,2.996c2.275,1.321 3.963,2.321 5.075,2.996c1.059,0.642 2.7,1.504 4.925,2.588c2.23,1.075 3.871,1.937 4.93,2.579c1.05,0.646 1.716,1.675 2,3.091c0.266,1.417 0.045,2.705 -0.667,3.871c-0.8,1.3 -2.808,2.05 -6.033,2.263c-16.325,1.012 -30.463,3.2 -42.442,6.587c0.55,0.359 1.887,1.188 4.004,2.484c8.692,5.32 14.6,8.816 17.738,10.495c0.537,0.275 1.562,0.742 3.07,1.405c1.338,0.583 2.367,1.091 3.071,1.512c2.425,1.5 2.863,3.529 1.292,6.096c-1.763,2.879 -7.075,1.596 -15.95,-3.829c-0.183,-0.113 -1.567,-0.984 -4.138,-2.604c-8.891,-5.584 -14.433,-9.046 -16.616,-10.384" style="fill:#231f20;"/><path d="M189.513,501.377c-4.6,0 -8.555,2.233 -11.846,6.7c-3.079,4.171 -4.613,8.813 -4.613,13.888c0,3.433 1.329,6.229 4,8.375c2.563,2.066 5.8,3.104 9.709,3.104c4.541,0 8.341,-2.234 11.379,-6.7c2.783,-4.067 4.179,-8.704 4.179,-13.892c0,-4.342 -0.971,-7.358 -2.908,-9.062c-1.863,-1.609 -5.167,-2.413 -9.9,-2.413m-2.75,40.475c-6.121,0 -11.342,-1.758 -15.638,-5.275c-4.587,-3.758 -6.879,-8.629 -6.879,-14.612c0,-7.025 2.2,-13.43 6.604,-19.221c4.942,-6.513 11.158,-9.775 18.662,-9.775c7.221,0 12.63,1.654 16.221,4.966c3.6,3.305 5.396,8.28 5.396,14.917c0,7.029 -2.021,13.396 -6.075,19.1c-4.671,6.596 -10.775,9.9 -18.292,9.9" style="fill:#231f20;"/><path d="M240.225,501.377c-4.605,0 -8.555,2.233 -11.846,6.7c-3.084,4.171 -4.617,8.813 -4.617,13.888c0,3.433 1.333,6.229 4.004,8.375c2.559,2.066 5.796,3.104 9.704,3.104c4.546,0 8.346,-2.234 11.38,-6.7c2.787,-4.067 4.183,-8.704 4.183,-13.892c0,-4.342 -0.971,-7.358 -2.908,-9.062c-1.863,-1.609 -5.167,-2.413 -9.9,-2.413m-2.755,40.475c-6.116,0 -11.337,-1.758 -15.633,-5.275c-4.587,-3.758 -6.879,-8.629 -6.879,-14.612c0,-7.025 2.2,-13.43 6.604,-19.221c4.942,-6.513 11.154,-9.775 18.663,-9.775c7.216,0 12.629,1.654 16.22,4.966c3.6,3.305 5.396,8.28 5.396,14.917c0,7.029 -2.021,13.396 -6.079,19.1c-4.667,6.596 -10.771,9.9 -18.292,9.9" style="fill:#231f20;"/><path d="M298.037,506.923c-1.862,0 -3.237,-0.983 -4.125,-2.942c-0.417,-0.933 -0.825,-1.491 -1.242,-1.683c-0.304,-0.142 -1.133,-0.213 -2.454,-0.213c-2.604,0 -5.612,2.021 -9.021,6.08c-4.77,5.662 -7.166,10.966 -7.166,15.908c0,2.254 0.75,4.183 2.262,5.804c1.517,1.608 3.317,2.413 5.434,2.413c2.041,0 4.116,-0.542 6.233,-1.609c0.746,-0.404 2.312,-1.408 4.712,-3.05c1.613,-1.066 2.842,-1.608 3.667,-1.608c1.238,0 2.296,0.454 3.167,1.362c0.8,0.85 1.204,1.825 1.204,2.913c0,1.229 -0.542,2.287 -1.608,3.2c-5.688,4.792 -11.48,7.196 -17.375,7.196c-4.659,0 -8.588,-1.692 -11.784,-5.079c-3.062,-3.271 -4.596,-7.113 -4.596,-11.542c0,-6.921 3.03,-13.992 9.084,-21.217c5.154,-6.116 10.421,-9.179 15.796,-9.179c0.9,0 1.725,0.033 2.458,0.1c0.742,0.058 1.387,0.146 1.95,0.271c0.896,-0.888 1.996,-1.329 3.279,-1.329c2.108,0 3.408,1.204 3.904,3.629c0.35,1.737 0.529,3.758 0.529,6.075c0,1.037 -0.291,1.983 -0.9,2.829c-0.779,1.108 -1.925,1.671 -3.408,1.671" style="fill:#231f20;"/><path d="M349.648,496.738c-0.412,1.513 -0.612,2.842 -0.612,3.959c0,0.583 -0.063,1.475 -0.167,2.691c-0.121,1.221 -0.175,2.117 -0.175,2.7c0,1.971 -0.104,4.9 -0.316,8.788c-0.205,3.871 -0.305,6.804 -0.305,8.775c0,1.525 0.113,3.779 0.338,6.796c0.221,3.008 0.337,5.27 0.337,6.787c0,1.142 -0.4,2.121 -1.208,2.9c-0.8,0.792 -1.804,1.183 -3.004,1.183c-1.225,0 -2.275,-0.391 -3.163,-1.162c-0.891,-0.775 -1.337,-1.712 -1.337,-2.837c0,-1.5 -0.063,-3.767 -0.2,-6.796c-0.142,-3.017 -0.2,-5.284 -0.2,-6.788c0,-1.175 0.021,-2.221 0.058,-3.129c-3.246,0.146 -7.258,0.642 -12.033,1.513c-3.967,0.72 -7.942,1.445 -11.913,2.187c-0.041,1.317 -0.179,3.508 -0.429,6.575c-0.204,2.712 -0.308,4.925 -0.308,6.637c0,1.071 -0.404,1.971 -1.213,2.705c-0.8,0.725 -1.804,1.095 -3,1.095c-1.195,0 -2.208,-0.379 -3.008,-1.15c-0.804,-0.762 -1.208,-1.704 -1.208,-2.816c0,-2.034 0.179,-5.084 0.541,-9.138c0.359,-4.066 0.538,-7.112 0.538,-9.146c0,-2.583 0.062,-6.479 0.192,-11.675c0.116,-5.2 0.179,-9.087 0.179,-11.666c0,-1.117 0.4,-2.054 1.208,-2.821c0.804,-0.767 1.808,-1.15 3.004,-1.15c1.2,0 2.204,0.387 3.009,1.175c0.804,0.779 1.208,1.746 1.208,2.887c0,1.567 -0.054,3.93 -0.171,7.084c-0.117,3.154 -0.171,5.516 -0.171,7.083c0,0.521 -0.071,1.513 -0.221,2.975c-0.116,1.367 -0.171,2.417 -0.15,3.133l11.913,-2.237c4.658,-0.813 8.671,-1.288 12.033,-1.413c0.088,-1.4 0.217,-5.17 0.404,-11.287c0.046,-1.608 0.529,-3.454 1.454,-5.546c1.15,-2.575 2.475,-3.854 3.938,-3.854c1.1,0 2.075,0.358 2.921,1.087c0.908,0.796 1.362,1.78 1.362,2.963c0,0.312 -0.037,0.617 -0.125,0.933" style="fill:#231f20;"/><path d="M386.27,500.193c-0.417,0 -0.846,-0.067 -1.3,-0.192c-3.346,-0.9 -6.609,-1.354 -9.775,-1.354c-1.546,0 -3.209,0.125 -4.984,0.371c-1.779,0.242 -3.675,0.612 -5.679,1.108c0,2.754 -0.092,6.829 -0.271,12.25c1.15,-0.087 5.196,-0.462 12.121,-1.146c3.946,-0.387 6.458,-0.587 7.504,-0.587c1.221,0 2.267,0.392 3.134,1.162c0.87,0.775 1.3,1.8 1.3,3.08c0,2.466 -1.309,3.862 -3.934,4.191c-1.654,0.125 -4.129,0.329 -7.412,0.629c-2.946,0.325 -7.359,0.725 -13.275,1.205c-0.138,2.625 -0.213,4.741 -0.213,6.362c0,4.054 0.234,6.363 0.709,6.913c0.225,0.279 1.533,0.412 3.908,0.412c1.279,0 3.217,-0.029 5.8,-0.096c2.583,-0.062 4.521,-0.091 5.804,-0.091c0.408,0 1.025,-0.067 1.829,-0.192c0.804,-0.117 1.409,-0.183 1.8,-0.183c1.196,0 2.221,0.341 3.071,1.016c0.975,0.775 1.463,1.846 1.463,3.234c0,2.316 -1.209,3.691 -3.634,4.15c-2.062,0.387 -6.354,0.587 -12.875,0.587c-6.729,0 -11.125,-0.904 -13.179,-2.729c-2.254,-2 -3.379,-6.35 -3.379,-13.021c0,-2.775 0.204,-6.933 0.608,-12.492c0.396,-5.55 0.6,-9.695 0.6,-12.45c0,-0.729 -0.104,-1.8 -0.308,-3.208c-0.2,-1.421 -0.304,-2.487 -0.304,-3.217c0,-3.145 1.446,-4.712 4.341,-4.712c0.909,0 1.746,0.25 2.505,0.771c2.395,-0.592 4.679,-1.05 6.841,-1.342c2.163,-0.296 4.192,-0.446 6.121,-0.446c5.208,0 9.367,0.592 12.492,1.788c1.896,0.721 2.846,2.046 2.846,3.941c0,1.075 -0.371,2.03 -1.109,2.855c-0.837,0.954 -1.883,1.433 -3.166,1.433" style="fill:#231f20;"/><path d="M440.578,532.322c0,1.037 -0.171,2.671 -0.52,4.904c-0.413,2.662 -1.925,4 -4.53,4c-1.454,0 -3.079,-0.817 -4.904,-2.446c-7.958,-7.179 -16.946,-17.237 -26.95,-30.183c-0.129,5.379 -0.192,8.671 -0.192,9.887c0,1.642 0.042,4.096 0.117,7.388c0.075,3.283 0.104,5.75 0.104,7.383c0,6.096 -1.479,9.146 -4.454,9.146c-1.517,0 -2.721,-0.467 -3.633,-1.4c-0.804,-0.825 -1.209,-1.829 -1.209,-3.004c0,-0.825 0.067,-2.075 0.205,-3.746c0.125,-1.683 0.2,-2.933 0.2,-3.758c0,-1.217 0.041,-3.05 0.116,-5.488c0.084,-2.446 0.125,-4.275 0.125,-5.492c0,-1.304 -0.033,-3.262 -0.091,-5.895c-0.067,-2.63 -0.088,-4.588 -0.088,-5.888c0,-1.237 -0.125,-3.096 -0.371,-5.546c-0.241,-2.471 -0.366,-4.325 -0.366,-5.558c0,-1.242 0.525,-2.354 1.595,-3.317c1.059,-0.975 2.275,-1.462 3.642,-1.462c1.525,0 3.221,1.325 5.083,3.971c9.38,13.404 18.642,24.329 27.78,32.787c0.02,-0.667 0.033,-2.233 0.033,-4.721c0,-10.196 -0.113,-17.067 -0.308,-20.625c-0.042,-0.6 -0.18,-1.712 -0.405,-3.341c-0.2,-1.455 -0.304,-2.596 -0.304,-3.421c0,-2.846 1.513,-4.279 4.529,-4.279c3.367,0 5.05,5.2 5.05,15.604c0,0.225 -0.02,1.854 -0.062,4.904c-0.125,10.5 -0.192,17.033 -0.192,19.596" style="fill:#231f20;"/><circle cx="134.632" cy="493.086" r="7.102" style="fill:#231f20;"/><circle cx="134.632" cy="493.086" r="7.102" style="fill:none;stroke:#231f20;stroke-width:0.26px;stroke-miterlimit:2.613;"/><ellipse cx="478.331" cy="493.086" rx="7.1" ry="7.102" style="fill:#231f20;"/><ellipse cx="478.331" cy="493.086" rx="7.1" ry="7.102" style="fill:none;stroke:#231f20;stroke-width:0.26px;stroke-miterlimit:2.613;"/></g></svg>