<svg viewBox="0 0 284 284" xmlns="http://www.w3.org/2000/svg" xml:space="preserve" style="fill-rule:evenodd;clip-rule:evenodd;stroke-linejoin:round;stroke-miterlimit:2"><path style="fill:#00008f" d="M.06.535h283.407V284H.06z"/><path d="M175.659 140.523 283.467.533h-15.923L159.38 140.523h16.279" style="fill:#ff1721;fill-rule:nonzero"/><path d="m118.97 236.368 7.793-10.703c-.718-.772-5.108-14.082-5.108-14.082l-7.534 9.775 4.849 15.01Zm-42.622-65.986c-3.037 6.533-20.913 28.296-20.913 28.296h28.31s-5.483-16.9-6.44-20.708c-.762-3.033-.557-6.934-.557-7.403 0-.346-.068-.908-.4-.185Zm108.774 0c-3.037 6.533-20.913 28.296-20.913 28.296h28.311s-5.489-16.9-6.446-20.708c-.761-3.033-.556-6.934-.556-7.403 0-.346-.064-.908-.396-.185Zm31.475 32.612c4.941 13.823 15.122 49.795 19.17 52.661h-26.729s-.098-5.312-1.255-9.434c-1.152-4.111-10.82-35.214-10.82-35.214h-42.456l-6.675 9.463s8.018 25.097 8.516 26.328c.864 2.216 4.692 8.857 4.692 8.857h-25.615s-.664-3.833-.913-5.43c-.2-1.289-2.427-8.349-2.427-8.349s-5.806 6.362-7.388 9.311c-1.596 2.945-2.304 4.468-2.304 4.468h-20.039s-.669-3.833-.918-5.43c-.195-1.289-2.647-8.916-2.647-8.916s-5.61 6.812-7.207 9.756c-1.587 2.949-2.271 4.59-2.271 4.59H69.493s5.6-5.332 7.558-7.622c3.301-3.882 15.6-19.956 15.6-19.956l-4.931-17.07H45.586s-24.024 31.567-24.97 32.544c-.957.961-7.96 11.01-8.116 12.104H0v-7.949c.239-.244.41-.42.493-.479.386-.283 18.213-22.412 34.59-44.233 14.717-19.028 28.525-37.534 29.736-39.297 2.935-4.263 7.163-13.467 7.163-13.467h21.783s.673 8.467 1.308 10.523c.567 1.816 13.838 45.361 14.151 45.83l7.339-9.385-12.544-38.613s-2.94-7.266-3.897-8.355h25.444s-.199 3.736.83 6.919c1.036 3.184 6.49 22.866 6.49 22.866s17.353-21.753 18.369-23.315c1.909-2.622 2.143-6.47 2.143-6.47H174.6s-3.882 2.837-10.684 11.441c-2.285 2.895-24.673 31.347-24.673 31.347s1.953 6.661 2.905 9.976c.26.952.44 1.597.44 1.665 0 .029.493-.576 1.343-1.665 5.776-7.319 32.05-41.773 33.642-44.722 1.284-2.383 3.174-5.093 4.282-8.042h20.684s.479 6.177 1.108 7.886l12.95 44.878" style="fill:#fff;fill-rule:nonzero"/></svg>