<?xml version="1.0" encoding="UTF-8" standalone="no"?><!DOCTYPE svg PUBLIC "-//W3C//DTD SVG 1.1//EN" "http://www.w3.org/Graphics/SVG/1.1/DTD/svg11.dtd"><svg width="100%" height="100%" viewBox="0 0 284 284" version="1.1" xmlns="http://www.w3.org/2000/svg" xmlns:xlink="http://www.w3.org/1999/xlink" xml:space="preserve" xmlns:serif="http://www.serif.com/" style="fill-rule:evenodd;clip-rule:evenodd;stroke-linejoin:round;stroke-miterlimit:2;"><rect x="0.06" y="0.535" width="283.407" height="283.465" style="fill:#00008f;"/><path d="M175.659,140.523l107.808,-139.99l-15.923,0l-108.164,139.99l16.279,0" style="fill:#ff1721;fill-rule:nonzero;"/><path d="M118.97,236.368l7.793,-10.703c-0.718,-0.772 -5.108,-14.082 -5.108,-14.082l-7.534,9.775l4.849,15.01Zm-42.622,-65.986c-3.037,6.533 -20.913,28.296 -20.913,28.296l28.31,0c0,0 -5.483,-16.9 -6.44,-20.708c-0.762,-3.033 -0.557,-6.934 -0.557,-7.403c0,-0.346 -0.068,-0.908 -0.4,-0.185Zm108.774,0c-3.037,6.533 -20.913,28.296 -20.913,28.296l28.311,0c0,0 -5.489,-16.9 -6.446,-20.708c-0.761,-3.033 -0.556,-6.934 -0.556,-7.403c0,-0.346 -0.064,-0.908 -0.396,-0.185Zm31.475,32.612c4.941,13.823 15.122,49.795 19.17,52.661l-26.729,0c0,0 -0.098,-5.312 -1.255,-9.434c-1.152,-4.111 -10.82,-35.214 -10.82,-35.214l-42.456,0l-6.675,9.463c0,0 8.018,25.097 8.516,26.328c0.864,2.216 4.692,8.857 4.692,8.857l-25.615,0c0,0 -0.664,-3.833 -0.913,-5.43c-0.2,-1.289 -2.427,-8.349 -2.427,-8.349c0,0 -5.806,6.362 -7.388,9.311c-1.596,2.945 -2.304,4.468 -2.304,4.468l-20.039,0c0,0 -0.669,-3.833 -0.918,-5.43c-0.195,-1.289 -2.647,-8.916 -2.647,-8.916c0,0 -5.61,6.812 -7.207,9.756c-1.587,2.949 -2.271,4.59 -2.271,4.59l-19.818,0c0,0 5.6,-5.332 7.558,-7.622c3.301,-3.882 15.6,-19.956 15.6,-19.956l-4.931,-17.07l-42.134,0c0,0 -24.024,31.567 -24.97,32.544c-0.957,0.961 -7.96,11.01 -8.116,12.104l-12.5,0l0,-7.949c0.239,-0.244 0.41,-0.42 0.493,-0.479c0.386,-0.283 18.213,-22.412 34.59,-44.233c14.717,-19.028 28.525,-37.534 29.736,-39.297c2.935,-4.263 7.163,-13.467 7.163,-13.467l21.783,0c0,0 0.673,8.467 1.308,10.523c0.567,1.816 13.838,45.361 14.151,45.83l7.339,-9.385l-12.544,-38.613c0,0 -2.94,-7.266 -3.897,-8.355l25.444,0c0,0 -0.199,3.736 0.83,6.919c1.036,3.184 6.49,22.866 6.49,22.866c0,0 17.353,-21.753 18.369,-23.315c1.909,-2.622 2.143,-6.47 2.143,-6.47l21.202,0c0,0 -3.882,2.837 -10.684,11.441c-2.285,2.895 -24.673,31.347 -24.673,31.347c0,0 1.953,6.661 2.905,9.976c0.26,0.952 0.44,1.597 0.44,1.665c0,0.029 0.493,-0.576 1.343,-1.665c5.776,-7.319 32.05,-41.773 33.642,-44.722c1.284,-2.383 3.174,-5.093 4.282,-8.042l20.684,0c0,0 0.479,6.177 1.108,7.886l12.95,44.878" style="fill:#fff;fill-rule:nonzero;"/></svg>