<?xml version="1.0" encoding="UTF-8" standalone="no"?><!DOCTYPE svg PUBLIC "-//W3C//DTD SVG 1.1//EN" "http://www.w3.org/Graphics/SVG/1.1/DTD/svg11.dtd"><svg width="100%" height="100%" viewBox="0 0 450 146" version="1.1" xmlns="http://www.w3.org/2000/svg" xmlns:xlink="http://www.w3.org/1999/xlink" xml:space="preserve" xmlns:serif="http://www.serif.com/" style="fill-rule:evenodd;clip-rule:evenodd;stroke-linejoin:round;stroke-miterlimit:2;"><g id="Layer-1" serif:id="Layer 1"><path d="M405.159,98.261l0.322,-8.352c-0.46,0.103 -2.219,0.385 -3.405,0.385c-3.958,0 -5.032,-2.57 -5.032,-6.094l0,-48.454l-10.68,4.828l0,45.379c0,6.442 3.2,12.878 12.448,12.878c3.667,0 5.876,-0.481 6.347,-0.57m-24.037,0l0.323,-8.352c-0.46,0.103 -2.221,0.385 -3.406,0.385c-3.958,0 -5.031,-2.57 -5.031,-6.094l0,-48.454l-10.68,4.828l0,45.379c0,6.442 3.2,12.878 12.447,12.878c3.667,0 5.877,-0.481 6.347,-0.57m-41.401,-43.94l10.68,0l0,43.803l-10.68,0l0,-43.803Zm5.257,-5.413c-3.432,0 -6.027,-1.339 -6.027,-6.194c0,-4.437 2.344,-6.28 6.027,-6.28c3.767,0 6.195,1.424 6.195,6.196c0,4.604 -2.26,6.278 -6.195,6.278m64.352,69.054c0.386,0 2.524,-0.359 3.086,-0.445c10.503,-1.61 18.198,-6.251 22.436,-19.071c2.885,-8.726 13.987,-44.098 13.987,-44.098l-11.329,0l-10.203,34.463l-1.814,0l-8.7,-34.463l-11.078,0l11.853,43.798l6.821,0c0,0 -0.267,0.872 -0.468,1.561c-1.423,4.876 -7.692,8.727 -16.016,9.916l1.425,8.339Zm-120.503,-19.841l0,-34.597c1.308,-0.435 4.377,-0.959 8.037,-0.959c1.918,0 5.49,0.144 7.06,0.318l0,-9.204c-1.221,-0.349 -4.522,-0.452 -7.573,-0.452c-7.671,0 -14.415,1.938 -18.203,3.628l0,41.266l10.679,0Zm-27.894,-26.476l0,-1.246c0,-5.777 -3.154,-8.631 -9.545,-8.631c-6.884,0 -9.823,3.862 -9.998,9.877l19.543,0Zm-5.836,18.926c6.57,0 10.702,-1.63 12.73,-2.254l1.025,7.819c-1.703,0.785 -7.289,3.116 -14.527,3.116c-15.865,0 -23.626,-8.132 -23.626,-23.822c0,-15.869 7.401,-22.291 20.986,-22.291c14.812,0 19.37,8.194 19.37,22.055c0,1.481 -0.104,3.329 -0.19,3.915l-29.649,0c0,7.91 4.963,11.462 13.881,11.462m-53.318,7.55l0,-20.017l3.338,0l14.646,20.017l11.915,0l-18.142,-25.451l16.511,-18.322l-11.724,0l-13.581,15.369l-2.963,0l0,-34.162l-10.68,5.266l0,57.3l10.68,0Zm121.175,0.712c4.647,0 7.235,-0.719 7.736,-0.849l0.492,-8.457c-0.404,0.158 -3,0.794 -4.523,0.794c-5.366,0 -7.038,-3.814 -7.038,-8.87l0,-17.876l12.919,0l0,-9.227l-12.919,0l0,-9.126l-10.678,4.859l0,34.133c0,10.038 5.242,14.619 14.011,14.619m-151.372,-19.443c-2.098,-0.334 -6.313,-0.876 -9.529,-0.876c-7.575,0 -8.822,3.511 -8.822,6.246c0,4.018 2.622,5.843 9.125,5.843c4.246,0 7.657,-0.544 9.226,-0.98l0,-10.233Zm-8.94,19.82c-14.035,0 -19.317,-4.615 -19.317,-14.167c0,-9.747 5.141,-14.099 17.945,-14.099c4.471,0 9.303,0.755 10.312,0.896l0,-3.267c0,-3.507 -1.734,-6.582 -11.247,-6.582c-7.222,0 -11.958,2.011 -13.418,2.582l-0.826,-8.142c1.927,-0.759 8.082,-3.292 17.287,-3.292c13.84,0 18.876,5.902 18.876,17.266l0,25.649c-2.526,1.035 -10.344,3.156 -19.612,3.156m-48.003,-8.614c9.388,0 12.993,-5.977 12.993,-14.372c0,-8.141 -3.465,-14.254 -12.993,-14.254c-2.614,0 -6.316,0.868 -7.956,1.388l0,25.85c1.64,0.543 5.092,1.388 7.956,1.388m-18.668,-49.775l10.712,-4.84l0,19.229c1.984,-0.697 5.644,-2.071 11.747,-2.071c13.231,0 19.657,7.047 19.657,23.086c0,18.792 -7.378,23.027 -24.331,23.027c-8.107,0 -14.696,-1.49 -17.785,-2.776l0,-55.655Z" style="fill:#010203;fill-rule:nonzero;"/><path d="M52.784,2.252c-3.052,-1.506 -7.778,-2.154 -12.334,-2.154c-20.641,0 -40.297,11.636 -40.297,31.233c0,6.922 2.198,14.323 6.034,20.953c4.338,7.497 10.353,14.352 17.532,19.223c5.448,3.698 11.759,6.277 18.278,6.277c5.43,0 9.076,-1.489 10.338,-2.53c-0.546,0.088 -1.859,0.28 -3.481,0.28c-17.776,0 -29.973,-15.092 -33.865,-26.362c-1.436,-4.157 -2.938,-9.41 -2.938,-14.509c0,-20.863 18.338,-32.319 37.588,-32.319c1.021,0 2.05,0.033 3.082,0.105c0.08,0.006 0.131,-0.044 0.131,-0.099c-0.001,-0.035 -0.021,-0.072 -0.068,-0.098m3.17,31.435c-9.012,0 -15.985,6.884 -15.985,15.024c0,8.289 6.414,16.011 16.317,16.011c2.123,0 4.543,-0.628 6.66,-1.457c0.367,-0.143 0.828,-0.316 1.136,-0.564c0.253,-0.204 0.486,-0.693 0.648,-0.985c2.493,-4.485 5.338,-14.1 5.765,-19.78c0.043,-0.582 -0.119,-0.793 -0.465,-1.263c-2.34,-3.168 -6.893,-6.986 -14.076,-6.986m14.891,0.267c0,0.766 -0.017,2.418 -0.036,3.171c-3.357,-5.91 -9.885,-9.697 -16.64,-9.697c-10.573,0 -19.461,8.854 -19.461,20.279c0,11.232 8.7,19.777 19.653,19.777c2.776,0 5.79,-0.636 7.972,-1.742c-1.092,1.602 -1.852,2.59 -2.97,3.834c-0.596,0.663 -1.427,1.568 -2.273,1.879c-0.962,0.354 -2.982,1.161 -6.581,1.161c-11.482,0 -20.023,-8.525 -23.867,-14.27c-3.833,-5.728 -7.143,-13.405 -7.143,-21.618c0,-15.747 13.832,-24.322 28.069,-24.322c16.307,0 23.277,12.441 23.277,21.548" style="fill:#010203;fill-rule:nonzero;"/><path d="M109.055,145.143l-13.042,0l0,-21.18l2.34,0l0,19.14l10.702,0l0,2.04Z" style="fill:#010203;fill-rule:nonzero;"/><path d="M128.118,123.963l0,12.72c0,1.66 -0.052,2.915 -0.156,3.764c-0.104,0.851 -0.343,1.596 -0.718,2.236c-1.144,1.92 -3.505,2.88 -7.082,2.88c-1.768,0 -3.24,-0.236 -4.415,-0.705c-1.175,-0.47 -2.044,-1.295 -2.605,-2.475c-0.458,-0.96 -0.687,-2.84 -0.687,-5.641l0,-12.779l2.341,0l0,13.59c0,2.059 0.228,3.44 0.686,4.139c0.79,1.221 2.391,1.831 4.805,1.831c2.558,0 4.16,-0.571 4.805,-1.71c0.499,-0.84 0.748,-2.22 0.748,-4.14l0,-13.71l2.278,0Z" style="fill:#010203;fill-rule:nonzero;"/><path d="M134.576,145.203l-2.621,-0.149l7.956,-10.891l-7.425,-10.109l2.777,-0.151l6.271,8.7l6.333,-8.7l2.559,0.151l-7.395,10.2l7.894,10.8l-2.746,0.149c-3.432,-4.659 -5.699,-7.8 -6.801,-9.42l-6.802,9.42Z" style="fill:#010203;fill-rule:nonzero;"/><path d="M168.74,145.143l-13.042,0l0,-21.18l12.574,0l0,2.04l-10.234,0l0,7.08l9.298,0l0,2.04l-9.298,0l0,7.98l10.702,0l0,2.04Z" style="fill:#010203;fill-rule:nonzero;"/><path d="M176.852,145.143l-2.309,0l0,-21.18l3.276,0c3.848,8 6.011,12.62 6.49,13.86c0.728,-1.74 2.88,-6.36 6.458,-13.86l3.245,0l0,21.18l-2.309,0c0,-10.06 0.031,-16.279 0.094,-18.66c-0.77,1.841 -2.995,6.62 -6.677,14.34l-1.716,0l-6.646,-14.34c0.063,2.5 0.094,8.721 0.094,18.66" style="fill:#010203;fill-rule:nonzero;"/><path d="M203.683,135.093l0,8.01c1.747,0.08 3.058,0.12 3.931,0.12c1.851,0 3.214,-0.19 4.088,-0.57c1.372,-0.6 2.059,-1.87 2.059,-3.81c0,-1.58 -0.708,-2.68 -2.122,-3.3c-0.728,-0.301 -1.935,-0.45 -3.619,-0.45l-4.337,0Zm0,-1.92l4.524,0c1.539,0 2.569,-0.12 3.089,-0.36c1.185,-0.52 1.778,-1.61 1.778,-3.27c0,-1.04 -0.192,-1.801 -0.577,-2.28c-0.385,-0.481 -0.931,-0.84 -1.638,-1.08c-0.604,-0.22 -1.685,-0.33 -3.245,-0.33c-1.684,0 -2.995,0.02 -3.931,0.059l0,7.261Zm-2.34,11.88l0,-21c1.664,-0.1 3.681,-0.15 6.053,-0.15c1.206,0 2.35,0.08 3.432,0.24c1.622,0.2 2.797,0.705 3.525,1.514c0.728,0.811 1.092,1.996 1.092,3.556c0,2.6 -1.092,4.21 -3.276,4.83c2.662,0.54 3.994,2.19 3.994,4.949c0,2.801 -1.072,4.611 -3.214,5.431c-1.372,0.521 -3.213,0.779 -5.522,0.779c-2.288,0 -4.316,-0.049 -6.084,-0.149" style="fill:#010203;fill-rule:nonzero;"/><path d="M236.255,134.463c0,-1.9 -0.109,-3.43 -0.328,-4.59c-0.218,-1.16 -0.608,-2.06 -1.169,-2.7c-0.561,-0.64 -1.216,-1.065 -1.965,-1.275c-0.749,-0.21 -1.748,-0.315 -2.995,-0.315c-1.498,0 -2.694,0.22 -3.588,0.659c-0.895,0.441 -1.607,1.321 -2.138,2.641c-0.53,1.319 -0.796,3.17 -0.796,5.55c0,1.92 0.13,3.485 0.391,4.695c0.26,1.21 0.681,2.135 1.263,2.774c0.583,0.641 1.238,1.071 1.965,1.29c0.728,0.221 1.665,0.331 2.809,0.331c1.144,0 2.075,-0.105 2.793,-0.315c0.716,-0.21 1.382,-0.625 1.995,-1.245c0.614,-0.62 1.061,-1.545 1.343,-2.775c0.281,-1.23 0.421,-2.805 0.421,-4.725m2.434,-0.061c0,2.901 -0.339,5.171 -1.014,6.811c-0.676,1.64 -1.644,2.77 -2.902,3.39c-1.26,0.62 -2.969,0.929 -5.132,0.929c-1.56,0 -2.861,-0.165 -3.9,-0.495c-1.041,-0.329 -1.94,-0.909 -2.699,-1.739c-0.76,-0.83 -1.316,-1.97 -1.669,-3.42c-0.354,-1.45 -0.531,-3.266 -0.531,-5.445c0,-1.76 0.151,-3.285 0.453,-4.575c0.301,-1.291 0.712,-2.335 1.232,-3.135c0.52,-0.8 1.175,-1.435 1.966,-1.906c0.79,-0.469 1.612,-0.794 2.465,-0.974c0.852,-0.181 1.83,-0.271 2.932,-0.271c1.269,0 2.335,0.08 3.198,0.241c0.863,0.16 1.674,0.464 2.434,0.915c0.759,0.45 1.357,1.075 1.794,1.875c0.437,0.799 0.774,1.84 1.014,3.12c0.239,1.28 0.359,2.84 0.359,4.679" style="fill:#010203;fill-rule:nonzero;"/><path d="M260.185,123.963l0,12.72c0,1.66 -0.052,2.915 -0.155,3.764c-0.105,0.851 -0.344,1.596 -0.718,2.236c-1.145,1.92 -3.505,2.88 -7.083,2.88c-1.768,0 -3.239,-0.236 -4.415,-0.705c-1.175,-0.47 -2.043,-1.295 -2.605,-2.475c-0.457,-0.96 -0.686,-2.84 -0.686,-5.641l0,-12.779l2.34,0l0,13.59c0,2.059 0.229,3.44 0.686,4.139c0.791,1.221 2.392,1.831 4.805,1.831c2.559,0 4.16,-0.571 4.805,-1.71c0.5,-0.84 0.749,-2.22 0.749,-4.14l0,-13.71l2.277,0Z" style="fill:#010203;fill-rule:nonzero;"/><path d="M269.639,134.013l3.557,0c1.747,0 3.057,-0.17 3.931,-0.51c1.372,-0.559 2.059,-1.75 2.059,-3.57c0,-1.06 -0.171,-1.85 -0.515,-2.37c-0.343,-0.52 -0.847,-0.91 -1.512,-1.17c-0.812,-0.34 -2.154,-0.51 -4.026,-0.51c-1.456,0 -2.62,0.02 -3.494,0.06l0,8.07Zm0,11.13l-2.34,0l0,-21.09c1.248,-0.1 3.11,-0.15 5.585,-0.15c2.496,0 4.347,0.23 5.553,0.69c1.144,0.441 1.955,1.09 2.434,1.95c0.478,0.86 0.717,1.96 0.717,3.3c0,3.02 -1.383,4.91 -4.149,5.67l-0.125,0.06l5.397,9.54l-2.557,0.06l-5.118,-9.27c-0.832,0.041 -1.497,0.06 -1.997,0.06l-3.4,0l0,9.18Z" style="fill:#010203;fill-rule:nonzero;"/><path d="M302.617,144.303c-1.996,0.82 -4.648,1.229 -7.956,1.229c-3.016,0 -5.236,-0.789 -6.661,-2.37c-1.425,-1.579 -2.137,-4.338 -2.137,-8.279c0,-4.02 0.707,-6.91 2.121,-8.67c1.415,-1.76 3.911,-2.64 7.488,-2.64c2.289,0 4.317,0.24 6.084,0.72l-0.311,1.89c-1.997,-0.4 -4.036,-0.6 -6.115,-0.6c-1.436,0 -2.621,0.225 -3.557,0.675c-0.936,0.45 -1.634,1.115 -2.091,1.995c-0.458,0.88 -0.769,1.795 -0.935,2.745c-0.167,0.95 -0.25,2.095 -0.25,3.435c0,1.1 0.036,2.04 0.109,2.82c0.072,0.779 0.233,1.59 0.483,2.43c0.25,0.84 0.603,1.52 1.061,2.04c0.457,0.52 1.092,0.95 1.903,1.29c0.812,0.34 1.779,0.51 2.902,0.51c2.247,0 4.077,-0.199 5.491,-0.6l0,-6.931l-5.366,0l0,-2.009l7.737,0l0,10.32Z" style="fill:#010203;fill-rule:nonzero;"/></g></svg>