<svg viewBox="0 0 450 146" xmlns="http://www.w3.org/2000/svg" xml:space="preserve" style="fill-rule:evenodd;clip-rule:evenodd;stroke-linejoin:round;stroke-miterlimit:2"><path d="m405.159 98.261.322-8.352c-.46.103-2.219.385-3.405.385-3.958 0-5.032-2.57-5.032-6.094V35.746l-10.68 4.828v45.379c0 6.442 3.2 12.878 12.448 12.878 3.667 0 5.876-.481 6.347-.57m-24.037 0 .323-8.352c-.46.103-2.221.385-3.406.385-3.958 0-5.031-2.57-5.031-6.094V35.746l-10.68 4.828v45.379c0 6.442 3.2 12.878 12.447 12.878 3.667 0 5.877-.481 6.347-.57m-41.401-43.94h10.68v43.803h-10.68V54.321Zm5.257-5.413c-3.432 0-6.027-1.339-6.027-6.194 0-4.437 2.344-6.28 6.027-6.28 3.767 0 6.195 1.424 6.195 6.196 0 4.604-2.26 6.278-6.195 6.278m64.352 69.054c.386 0 2.524-.359 3.086-.445 10.503-1.61 18.198-6.251 22.436-19.071 2.885-8.726 13.987-44.098 13.987-44.098H437.51l-10.203 34.463h-1.814l-8.7-34.463h-11.078l11.853 43.798h6.821s-.267.872-.468 1.561c-1.423 4.876-7.692 8.727-16.016 9.916l1.425 8.339ZM288.827 98.121V63.524c1.308-.435 4.377-.959 8.037-.959 1.918 0 5.49.144 7.06.318v-9.204c-1.221-.349-4.522-.452-7.573-.452-7.671 0-14.415 1.938-18.203 3.628v41.266h10.679Zm-27.894-26.476v-1.246c0-5.777-3.154-8.631-9.545-8.631-6.884 0-9.823 3.862-9.998 9.877h19.543Zm-5.836 18.926c6.57 0 10.702-1.63 12.73-2.254l1.025 7.819c-1.703.785-7.289 3.116-14.527 3.116-15.865 0-23.626-8.132-23.626-23.822 0-15.869 7.401-22.291 20.986-22.291 14.812 0 19.37 8.194 19.37 22.055 0 1.481-.104 3.329-.19 3.915h-29.649c0 7.91 4.963 11.462 13.881 11.462m-53.318 7.55V78.104h3.338l14.646 20.017h11.915L213.536 72.67l16.511-18.322h-11.724l-13.581 15.369h-2.963V35.555l-10.68 5.266v57.3h10.68Zm121.175.712c4.647 0 7.235-.719 7.736-.849l.492-8.457c-.404.158-3 .794-4.523.794-5.366 0-7.038-3.814-7.038-8.87V63.575h12.919v-9.227h-12.919v-9.126l-10.678 4.859v34.133c0 10.038 5.242 14.619 14.011 14.619M171.582 79.39c-2.098-.334-6.313-.876-9.529-.876-7.575 0-8.822 3.511-8.822 6.246 0 4.018 2.622 5.843 9.125 5.843 4.246 0 7.657-.544 9.226-.98V79.39Zm-8.94 19.82c-14.035 0-19.317-4.615-19.317-14.167 0-9.747 5.141-14.099 17.945-14.099 4.471 0 9.303.755 10.312.896v-3.267c0-3.507-1.734-6.582-11.247-6.582-7.222 0-11.958 2.011-13.418 2.582l-.826-8.142c1.927-.759 8.082-3.292 17.287-3.292 13.84 0 18.876 5.902 18.876 17.266v25.649c-2.526 1.035-10.344 3.156-19.612 3.156m-48.003-8.614c9.388 0 12.993-5.977 12.993-14.372 0-8.141-3.465-14.254-12.993-14.254-2.614 0-6.316.868-7.956 1.388v25.85c1.64.543 5.092 1.388 7.956 1.388M95.971 40.821l10.712-4.84V55.21c1.984-.697 5.644-2.071 11.747-2.071 13.231 0 19.657 7.047 19.657 23.086 0 18.792-7.378 23.027-24.331 23.027-8.107 0-14.696-1.49-17.785-2.776V40.821ZM52.784 2.252C49.732.746 45.006.098 40.45.098 19.809.098.153 11.734.153 31.331c0 6.922 2.198 14.323 6.034 20.953 4.338 7.497 10.353 14.352 17.532 19.223 5.448 3.698 11.759 6.277 18.278 6.277 5.43 0 9.076-1.489 10.338-2.53-.546.088-1.859.28-3.481.28-17.776 0-29.973-15.092-33.865-26.362-1.436-4.157-2.938-9.41-2.938-14.509 0-20.863 18.338-32.319 37.588-32.319 1.021 0 2.05.033 3.082.105.08.006.131-.044.131-.099-.001-.035-.021-.072-.068-.098m3.17 31.435c-9.012 0-15.985 6.884-15.985 15.024 0 8.289 6.414 16.011 16.317 16.011 2.123 0 4.543-.628 6.66-1.457.367-.143.828-.316 1.136-.564.253-.204.486-.693.648-.985 2.493-4.485 5.338-14.1 5.765-19.78.043-.582-.119-.793-.465-1.263-2.34-3.168-6.893-6.986-14.076-6.986m14.891.267c0 .766-.017 2.418-.036 3.171-3.357-5.91-9.885-9.697-16.64-9.697-10.573 0-19.461 8.854-19.461 20.279 0 11.232 8.7 19.777 19.653 19.777 2.776 0 5.79-.636 7.972-1.742-1.092 1.602-1.852 2.59-2.97 3.834-.596.663-1.427 1.568-2.273 1.879-.962.354-2.982 1.161-6.581 1.161-11.482 0-20.023-8.525-23.867-14.27-3.833-5.728-7.143-13.405-7.143-21.618 0-15.747 13.832-24.322 28.069-24.322 16.307 0 23.277 12.441 23.277 21.548M109.055 145.143H96.013v-21.18h2.34v19.14h10.702v2.04ZM128.118 123.963v12.72c0 1.66-.052 2.915-.156 3.764-.104.851-.343 1.596-.718 2.236-1.144 1.92-3.505 2.88-7.082 2.88-1.768 0-3.24-.236-4.415-.705-1.175-.47-2.044-1.295-2.605-2.475-.458-.96-.687-2.84-.687-5.641v-12.779h2.341v13.59c0 2.059.228 3.44.686 4.139.79 1.221 2.391 1.831 4.805 1.831 2.558 0 4.16-.571 4.805-1.71.499-.84.748-2.22.748-4.14v-13.71h2.278ZM134.576 145.203l-2.621-.149 7.956-10.891-7.425-10.109 2.777-.151 6.271 8.7 6.333-8.7 2.559.151-7.395 10.2 7.894 10.8-2.746.149c-3.432-4.659-5.699-7.8-6.801-9.42l-6.802 9.42ZM168.74 145.143h-13.042v-21.18h12.574v2.04h-10.234v7.08h9.298v2.04h-9.298v7.98h10.702v2.04ZM176.852 145.143h-2.309v-21.18h3.276c3.848 8 6.011 12.62 6.49 13.86.728-1.74 2.88-6.36 6.458-13.86h3.245v21.18h-2.309c0-10.06.031-16.279.094-18.66-.77 1.841-2.995 6.62-6.677 14.34h-1.716l-6.646-14.34c.063 2.5.094 8.721.094 18.66M203.683 135.093v8.01c1.747.08 3.058.12 3.931.12 1.851 0 3.214-.19 4.088-.57 1.372-.6 2.059-1.87 2.059-3.81 0-1.58-.708-2.68-2.122-3.3-.728-.301-1.935-.45-3.619-.45h-4.337Zm0-1.92h4.524c1.539 0 2.569-.12 3.089-.36 1.185-.52 1.778-1.61 1.778-3.27 0-1.04-.192-1.801-.577-2.28-.385-.481-.931-.84-1.638-1.08-.604-.22-1.685-.33-3.245-.33-1.684 0-2.995.02-3.931.059v7.261Zm-2.34 11.88v-21c1.664-.1 3.681-.15 6.053-.15 1.206 0 2.35.08 3.432.24 1.622.2 2.797.705 3.525 1.514.728.811 1.092 1.996 1.092 3.556 0 2.6-1.092 4.21-3.276 4.83 2.662.54 3.994 2.19 3.994 4.949 0 2.801-1.072 4.611-3.214 5.431-1.372.521-3.213.779-5.522.779-2.288 0-4.316-.049-6.084-.149M236.255 134.463c0-1.9-.109-3.43-.328-4.59-.218-1.16-.608-2.06-1.169-2.7-.561-.64-1.216-1.065-1.965-1.275-.749-.21-1.748-.315-2.995-.315-1.498 0-2.694.22-3.588.659-.895.441-1.607 1.321-2.138 2.641-.53 1.319-.796 3.17-.796 5.55 0 1.92.13 3.485.391 4.695.26 1.21.681 2.135 1.263 2.774.583.641 1.238 1.071 1.965 1.29.728.221 1.665.331 2.809.331 1.144 0 2.075-.105 2.793-.315.716-.21 1.382-.625 1.995-1.245.614-.62 1.061-1.545 1.343-2.775.281-1.23.421-2.805.421-4.725m2.434-.061c0 2.901-.339 5.171-1.014 6.811-.676 1.64-1.644 2.77-2.902 3.39-1.26.62-2.969.929-5.132.929-1.56 0-2.861-.165-3.9-.495a6.095 6.095 0 0 1-2.699-1.739c-.76-.83-1.316-1.97-1.669-3.42-.354-1.45-.531-3.266-.531-5.445 0-1.76.151-3.285.453-4.575.301-1.291.712-2.335 1.232-3.135a5.962 5.962 0 0 1 1.966-1.906 8.075 8.075 0 0 1 2.465-.974c.852-.181 1.83-.271 2.932-.271 1.269 0 2.335.08 3.198.241a7.36 7.36 0 0 1 2.434.915 4.818 4.818 0 0 1 1.794 1.875c.437.799.774 1.84 1.014 3.12.239 1.28.359 2.84.359 4.679M260.185 123.963v12.72c0 1.66-.052 2.915-.155 3.764-.105.851-.344 1.596-.718 2.236-1.145 1.92-3.505 2.88-7.083 2.88-1.768 0-3.239-.236-4.415-.705-1.175-.47-2.043-1.295-2.605-2.475-.457-.96-.686-2.84-.686-5.641v-12.779h2.34v13.59c0 2.059.229 3.44.686 4.139.791 1.221 2.392 1.831 4.805 1.831 2.559 0 4.16-.571 4.805-1.71.5-.84.749-2.22.749-4.14v-13.71h2.277ZM269.639 134.013h3.557c1.747 0 3.057-.17 3.931-.51 1.372-.559 2.059-1.75 2.059-3.57 0-1.06-.171-1.85-.515-2.37-.343-.52-.847-.91-1.512-1.17-.812-.34-2.154-.51-4.026-.51-1.456 0-2.62.02-3.494.06v8.07Zm0 11.13h-2.34v-21.09c1.248-.1 3.11-.15 5.585-.15 2.496 0 4.347.23 5.553.69 1.144.441 1.955 1.09 2.434 1.95.478.86.717 1.96.717 3.3 0 3.02-1.383 4.91-4.149 5.67l-.125.06 5.397 9.54-2.557.06-5.118-9.27a42.24 42.24 0 0 1-1.997.06h-3.4v9.18ZM302.617 144.303c-1.996.82-4.648 1.229-7.956 1.229-3.016 0-5.236-.789-6.661-2.37-1.425-1.579-2.137-4.338-2.137-8.279 0-4.02.707-6.91 2.121-8.67 1.415-1.76 3.911-2.64 7.488-2.64 2.289 0 4.317.24 6.084.72l-.311 1.89c-1.997-.4-4.036-.6-6.115-.6-1.436 0-2.621.225-3.557.675-.936.45-1.634 1.115-2.091 1.995a9.431 9.431 0 0 0-.935 2.745c-.167.95-.25 2.095-.25 3.435 0 1.1.036 2.04.109 2.82.072.779.233 1.59.483 2.43.25.84.603 1.52 1.061 2.04.457.52 1.092.95 1.903 1.29.812.34 1.779.51 2.902.51 2.247 0 4.077-.199 5.491-.6v-6.931h-5.366v-2.009h7.737v10.32Z" style="fill:#010203;fill-rule:nonzero"/></svg>