<?xml version="1.0" encoding="UTF-8" standalone="no"?>
<svg
   xmlns:dc="http://purl.org/dc/elements/1.1/"
   xmlns:cc="http://creativecommons.org/ns#"
   xmlns:rdf="http://www.w3.org/1999/02/22-rdf-syntax-ns#"
   xmlns:svg="http://www.w3.org/2000/svg"
   xmlns="http://www.w3.org/2000/svg"
   xmlns:sodipodi="http://sodipodi.sourceforge.net/DTD/sodipodi-0.dtd"
   xmlns:inkscape="http://www.inkscape.org/namespaces/inkscape"
   width="534pt"
   height="100pt"
   viewBox="0 0 534 100"
   version="1.2"
   id="svg35"
   sodipodi:docname="SPUERKEESS_LOGOS_RGB_SPUERKEESS_.a.svg"
   inkscape:version="0.92.5 (2060ec1f9f, 2020-04-08)">
  <metadata
     id="metadata41">
    <rdf:RDF>
      <cc:Work
         rdf:about="">
        <dc:format>image/svg+xml</dc:format>
        <dc:type
           rdf:resource="http://purl.org/dc/dcmitype/StillImage" />
        <dc:title></dc:title>
      </cc:Work>
    </rdf:RDF>
  </metadata>
  <defs
     id="defs39" />
  <sodipodi:namedview
     pagecolor="#ffffff"
     bordercolor="#666666"
     borderopacity="1"
     objecttolerance="10"
     gridtolerance="10"
     guidetolerance="10"
     inkscape:pageopacity="0"
     inkscape:pageshadow="2"
     inkscape:window-width="1153"
     inkscape:window-height="683"
     id="namedview37"
     showgrid="false"
     inkscape:zoom="12.494382"
     inkscape:cx="569.96801"
     inkscape:cy="91.792604"
     inkscape:window-x="0"
     inkscape:window-y="0"
     inkscape:window-maximized="0"
     inkscape:current-layer="svg35" />
  <g
     id="surface896">
    <path
       style=" stroke:none;fill-rule:nonzero;fill:rgb(0%,21.199036%,44.299316%);fill-opacity:1;"
       d="M 341.734375 44.0625 L 364.121094 21.003906 L 375.75 21.003906 L 349.632812 47.183594 L 375.925781 78.824219 L 364.121094 78.824219 L 343.472656 53.167969 L 341.734375 54.898438 L 341.734375 78.824219 L 332.886719 78.824219 L 332.886719 21.003906 L 341.734375 21.003906 Z M 341.734375 44.0625 "
       id="path2" />
    <path
       style=" stroke:none;fill-rule:nonzero;fill:rgb(0%,21.199036%,44.299316%);fill-opacity:1;"
       d="M 412.019531 29.328125 L 388.9375 29.328125 L 388.9375 43.976562 L 411.328125 43.976562 L 411.328125 52.300781 L 388.9375 52.300781 L 388.9375 70.503906 L 412.019531 70.503906 L 412.019531 78.824219 L 380.089844 78.824219 L 380.089844 21.003906 L 412.019531 21.003906 Z M 412.019531 29.328125 "
       id="path4" />
    <path
       style=" stroke:none;fill-rule:nonzero;fill:rgb(0%,21.199036%,44.299316%);fill-opacity:1;"
       d="M 451.761719 29.328125 L 428.679688 29.328125 L 428.679688 43.976562 L 451.066406 43.976562 L 451.066406 52.300781 L 428.679688 52.300781 L 428.679688 70.503906 L 451.761719 70.503906 L 451.761719 78.824219 L 419.828125 78.824219 L 419.828125 21.003906 L 451.761719 21.003906 Z M 451.761719 29.328125 "
       id="path6" />
    <path
       style=" stroke:none;fill-rule:nonzero;fill:rgb(0%,21.199036%,44.299316%);fill-opacity:1;"
       d="M 484.5625 33.835938 C 484.039062 32.535156 483.257812 31.320312 481.957031 30.195312 C 480.132812 28.71875 478.226562 28.113281 475.710938 28.113281 C 470.332031 28.113281 467.554688 31.320312 467.554688 35.046875 C 467.554688 36.78125 468.160156 39.816406 473.800781 42.070312 L 479.613281 44.410156 C 490.289062 48.746094 493.238281 54.8125 493.238281 61.402344 C 493.238281 72.410156 485.429688 79.953125 474.582031 79.953125 C 467.898438 79.953125 463.910156 77.4375 460.957031 74.144531 C 457.835938 70.675781 456.445312 66.863281 456.097656 62.875 L 464.863281 60.96875 C 464.863281 63.828125 465.90625 66.515625 467.292969 68.335938 C 468.941406 70.417969 471.371094 71.804688 474.839844 71.804688 C 480.222656 71.804688 484.386719 67.902344 484.386719 62.09375 C 484.386719 56.199219 479.875 53.773438 476.054688 52.210938 L 470.503906 49.871094 C 465.730469 47.878906 458.703125 43.890625 458.703125 35.222656 C 458.703125 27.417969 464.777344 19.964844 475.621094 19.964844 C 481.871094 19.964844 485.429688 22.304688 487.25 23.867188 C 488.8125 25.25 490.460938 27.246094 491.675781 29.671875 Z M 484.5625 33.835938 "
       id="path8" />
    <path
       style=" stroke:none;fill-rule:nonzero;fill:rgb(0%,21.199036%,44.299316%);fill-opacity:1;"
       d="M 524.820312 33.835938 C 524.300781 32.535156 523.519531 31.320312 522.21875 30.195312 C 520.394531 28.71875 518.488281 28.113281 515.972656 28.113281 C 510.589844 28.113281 507.8125 31.320312 507.8125 35.046875 C 507.8125 36.78125 508.421875 39.816406 514.0625 42.070312 L 519.875 44.410156 C 530.550781 48.746094 533.5 54.8125 533.5 61.402344 C 533.5 72.410156 525.6875 79.953125 514.84375 79.953125 C 508.160156 79.953125 504.171875 77.4375 501.21875 74.144531 C 498.097656 70.675781 496.707031 66.863281 496.359375 62.875 L 505.125 60.96875 C 505.125 63.828125 506.164062 66.515625 507.554688 68.335938 C 509.203125 70.417969 511.632812 71.804688 515.101562 71.804688 C 520.484375 71.804688 524.648438 67.902344 524.648438 62.09375 C 524.648438 56.199219 520.136719 53.773438 516.316406 52.210938 L 510.765625 49.871094 C 505.992188 47.878906 498.964844 43.890625 498.964844 35.222656 C 498.964844 27.417969 505.039062 19.964844 515.882812 19.964844 C 522.132812 19.964844 525.6875 22.304688 527.511719 23.867188 C 529.074219 25.25 530.722656 27.246094 531.9375 29.671875 Z M 524.820312 33.835938 "
       id="path10" />
    <path
       style=" stroke:none;fill-rule:nonzero;fill:rgb(0%,21.199036%,44.299316%);fill-opacity:1;"
       d="M 146.296875 33.835938 C 145.777344 32.535156 144.996094 31.320312 143.695312 30.195312 C 141.871094 28.71875 139.964844 28.113281 137.445312 28.113281 C 132.066406 28.113281 129.289062 31.320312 129.289062 35.046875 C 129.289062 36.78125 129.898438 39.816406 135.535156 42.070312 L 141.351562 44.410156 C 152.023438 48.746094 154.972656 54.8125 154.972656 61.402344 C 154.972656 72.410156 147.164062 79.953125 136.316406 79.953125 C 129.636719 79.953125 125.644531 77.4375 122.695312 74.144531 C 119.570312 70.675781 118.183594 66.863281 117.835938 62.875 L 126.601562 60.96875 C 126.601562 63.828125 127.640625 66.515625 129.03125 68.335938 C 130.679688 70.417969 133.109375 71.804688 136.578125 71.804688 C 141.960938 71.804688 146.125 67.902344 146.125 62.09375 C 146.125 56.199219 141.609375 53.773438 137.792969 52.210938 L 132.238281 49.871094 C 127.46875 47.878906 120.4375 43.890625 120.4375 35.222656 C 120.4375 27.417969 126.511719 19.964844 137.359375 19.964844 C 143.605469 19.964844 147.164062 22.304688 148.988281 23.867188 C 150.546875 25.25 152.195312 27.246094 153.414062 29.671875 Z M 146.296875 33.835938 "
       id="path12" />
    <path
       style=" stroke:none;fill-rule:nonzero;fill:rgb(0%,21.199036%,44.299316%);fill-opacity:1;"
       d="M 174.183594 21.003906 C 177.742188 21.003906 182.6875 21.351562 186.851562 24.125 C 191.710938 27.332031 194.054688 32.878906 194.054688 38.167969 C 194.054688 41.550781 193.183594 46.75 188.414062 50.824219 C 183.8125 54.726562 178.519531 55.332031 174.269531 55.332031 L 170.277344 55.332031 L 170.277344 78.828125 L 161.425781 78.828125 L 161.425781 21.003906 Z M 170.277344 47.183594 L 174.269531 47.183594 C 181.90625 47.183594 185.550781 43.457031 185.550781 38.082031 C 185.550781 34.875 184.25 29.152344 174.183594 29.152344 L 170.277344 29.152344 Z M 170.277344 47.183594 "
       id="path14" />
    <path
       style=" stroke:none;fill-rule:nonzero;fill:rgb(0%,21.199036%,44.299316%);fill-opacity:1;"
       d="M 208.285156 21.003906 L 208.285156 55.851562 C 208.285156 58.972656 208.371094 62.789062 210.105469 65.820312 C 211.839844 68.769531 215.746094 71.804688 220.867188 71.804688 C 225.984375 71.804688 229.890625 68.769531 231.625 65.820312 C 233.359375 62.789062 233.449219 58.972656 233.449219 55.851562 L 233.449219 21.003906 L 242.296875 21.003906 L 242.296875 58.191406 C 242.296875 62.789062 241.34375 68.335938 236.917969 73.191406 C 233.878906 76.484375 228.761719 79.953125 220.867188 79.953125 C 212.96875 79.953125 207.847656 76.484375 204.8125 73.191406 C 200.386719 68.335938 199.433594 62.789062 199.433594 58.191406 L 199.433594 21.003906 Z M 208.285156 21.003906 "
       id="path16" />
    <path
       style=" stroke:none;fill-rule:nonzero;fill:rgb(0%,21.199036%,44.299316%);fill-opacity:1;"
       d="M 282.90625 29.328125 L 259.824219 29.328125 L 259.824219 43.976562 L 282.210938 43.976562 L 282.210938 52.300781 L 259.824219 52.300781 L 259.824219 70.503906 L 282.90625 70.503906 L 282.90625 78.824219 L 250.972656 78.824219 L 250.972656 21.003906 L 282.90625 21.003906 Z M 282.90625 29.328125 "
       id="path18" />
    <path
       style=" stroke:none;fill-rule:nonzero;fill:rgb(0%,21.199036%,44.299316%);fill-opacity:1;"
       d="M 301.214844 21.003906 C 308.242188 21.003906 312.753906 21.871094 316.484375 24.386719 C 322.820312 28.632812 323.339844 35.480469 323.339844 37.996094 C 323.339844 46.316406 318.222656 52.386719 310.5 54.121094 L 328.546875 78.828125 L 317.875 78.828125 L 301.300781 55.160156 L 299.738281 55.160156 L 299.738281 78.828125 L 290.886719 78.828125 L 290.886719 21.003906 Z M 299.738281 47.53125 L 302.515625 47.53125 C 304.945312 47.53125 314.835938 47.269531 314.835938 38.082031 C 314.835938 29.933594 307.113281 29.152344 302.777344 29.152344 L 299.738281 29.152344 Z M 299.738281 47.53125 "
       id="path20" />
    <path
       style=" stroke:none;fill-rule:nonzero;fill:rgb(87.098694%,0%,0%);fill-opacity:1;"
       d="M -0.140625 100 L 99.859375 100 L 99.859375 0 L -0.140625 0 Z M -0.140625 100 "
       id="path22" />
    <path
       style=" stroke:none;fill-rule:nonzero;fill:rgb(100%,100%,100%);fill-opacity:1;"
       d="M 68.078125 39.65625 L 68.078125 24.925781 L 60.679688 10.175781 L 53.304688 24.925781 L 53.304688 39.65625 L 56.980469 39.65625 L 56.980469 25.835938 L 60.679688 18.46875 L 64.382812 25.835938 L 64.382812 39.65625 Z M 68.078125 39.65625 "
       id="path24" />
    <path
       style=" stroke:none;fill-rule:nonzero;fill:rgb(100%,100%,100%);fill-opacity:1;"
       d="M 19.875 48.105469 L 79.84375 48.105469 L 79.84375 44.210938 L 19.875 44.210938 Z M 19.875 48.105469 "
       id="path26" />
    <path
       style=" stroke:none;fill-rule:nonzero;fill:rgb(100%,100%,100%);fill-opacity:1;"
       d="M 68.132812 67.605469 C 68.132812 61.148438 73.371094 55.914062 79.84375 55.914062 L 79.84375 51.976562 C 71.199219 51.976562 64.195312 58.976562 64.195312 67.605469 L 64.222656 85.558594 C 65.609375 87.285156 66.945312 89.140625 68.132812 91.023438 Z M 68.132812 67.605469 "
       id="path28" />
    <path
       style=" stroke:none;fill-rule:nonzero;fill:rgb(100%,100%,100%);fill-opacity:1;"
       d="M 57.667969 59.804688 C 57.667969 55.496094 54.171875 52 49.847656 52 C 45.535156 52 42.035156 55.496094 42.035156 59.804688 L 42.042969 68.039062 C 43.359375 68.582031 44.664062 69.171875 45.953125 69.8125 L 45.9375 59.804688 C 45.9375 57.644531 47.6875 55.894531 49.847656 55.894531 C 52.011719 55.894531 53.761719 57.644531 53.761719 59.804688 L 53.777344 74.53125 C 55.121094 75.492188 56.425781 76.503906 57.679688 77.566406 Z M 57.667969 59.804688 "
       id="path30" />
    <path
       style=" stroke:none;fill-rule:nonzero;fill:rgb(100%,100%,100%);fill-opacity:1;"
       d="M 35.519531 59.804688 C 35.519531 55.496094 32.019531 52 27.703125 52 C 23.386719 52 19.886719 55.496094 19.886719 59.804688 L 19.875 63.71875 C 21.203125 63.777344 22.496094 63.886719 23.792969 64.027344 L 23.789062 59.804688 C 23.789062 57.644531 25.539062 55.894531 27.703125 55.894531 C 29.863281 55.894531 31.621094 57.644531 31.621094 59.804688 L 31.59375 65.453125 C 32.925781 65.792969 34.234375 66.171875 35.519531 66.597656 Z M 35.519531 59.804688 "
       id="path32" />
  </g>
</svg>
