<svg xmlns="http://www.w3.org/2000/svg" width="712" height="100pt" viewBox="0 0 534 100" version="1.2"><path style="stroke:none;fill-rule:nonzero;fill:#003671;fill-opacity:1" d="m341.734 44.063 22.387-23.06h11.629l-26.117 26.18 26.293 31.641H364.12l-20.648-25.656-1.739 1.73v23.926h-8.847v-57.82h8.847ZM412.02 29.328h-23.082v14.649h22.39V52.3h-22.39v18.203h23.082v8.32h-31.93v-57.82h31.93ZM451.762 29.328H428.68v14.649h22.386V52.3H428.68v18.203h23.082v8.32h-31.934v-57.82h31.934ZM484.563 33.836a9.21 9.21 0 0 0-2.606-3.64c-1.824-1.477-3.73-2.083-6.246-2.083-5.379 0-8.156 3.207-8.156 6.934 0 1.734.605 4.77 6.246 7.023l5.812 2.34c10.676 4.336 13.625 10.403 13.625 16.992 0 11.008-7.808 18.551-18.656 18.551-6.684 0-10.672-2.516-13.625-5.808-3.121-3.47-4.512-7.282-4.86-11.27l8.766-1.906c0 2.86 1.043 5.547 2.43 7.367 1.648 2.082 4.078 3.469 7.547 3.469 5.383 0 9.547-3.903 9.547-9.711 0-5.895-4.512-8.32-8.332-9.883l-5.551-2.34c-4.774-1.992-11.8-5.98-11.8-14.648 0-7.805 6.073-15.258 16.917-15.258 6.25 0 9.809 2.34 11.629 3.902 1.563 1.383 3.21 3.38 4.426 5.805ZM524.82 33.836c-.52-1.3-1.3-2.516-2.601-3.64-1.824-1.477-3.73-2.083-6.246-2.083-5.383 0-8.16 3.207-8.16 6.934 0 1.734.609 4.77 6.25 7.023l5.812 2.34c10.676 4.336 13.625 10.403 13.625 16.992 0 11.008-7.813 18.551-18.656 18.551-6.684 0-10.672-2.516-13.625-5.808-3.121-3.47-4.512-7.282-4.86-11.27l8.766-1.906c0 2.86 1.04 5.547 2.43 7.367 1.648 2.082 4.078 3.469 7.547 3.469 5.382 0 9.546-3.903 9.546-9.711 0-5.895-4.511-8.32-8.332-9.883l-5.55-2.34c-4.774-1.992-11.801-5.98-11.801-14.648 0-7.805 6.074-15.258 16.918-15.258 6.25 0 9.804 2.34 11.629 3.902 1.562 1.383 3.21 3.38 4.426 5.805ZM146.297 33.836c-.52-1.3-1.3-2.516-2.602-3.64-1.824-1.477-3.73-2.083-6.25-2.083-5.379 0-8.156 3.207-8.156 6.934 0 1.734.61 4.77 6.246 7.023l5.817 2.34c10.671 4.336 13.62 10.403 13.62 16.992 0 11.008-7.808 18.551-18.656 18.551-6.68 0-10.671-2.516-13.62-5.808-3.126-3.47-4.512-7.282-4.86-11.27l8.766-1.906c0 2.86 1.039 5.547 2.43 7.367 1.648 2.082 4.077 3.469 7.546 3.469 5.383 0 9.547-3.903 9.547-9.711 0-5.895-4.516-8.32-8.332-9.883l-5.555-2.34c-4.77-1.992-11.8-5.98-11.8-14.648 0-7.805 6.074-15.258 16.921-15.258 6.246 0 9.805 2.34 11.63 3.902 1.558 1.383 3.206 3.38 4.425 5.805ZM174.184 21.004c3.558 0 8.504.348 12.668 3.121 4.859 3.207 7.203 8.754 7.203 14.043 0 3.383-.871 8.582-5.64 12.656-4.602 3.903-9.895 4.508-14.145 4.508h-3.993v23.496h-8.851V21.004Zm-3.907 26.18h3.993c7.636 0 11.28-3.727 11.28-9.102 0-3.207-1.3-8.93-11.366-8.93h-3.907ZM208.285 21.004v34.848c0 3.12.086 6.937 1.82 9.968 1.735 2.95 5.641 5.985 10.762 5.985 5.117 0 9.024-3.035 10.758-5.985 1.734-3.03 1.824-6.847 1.824-9.968V21.004h8.848V58.19c0 4.598-.953 10.145-5.379 15-3.04 3.293-8.156 6.762-16.05 6.762-7.9 0-13.02-3.469-16.055-6.762-4.426-4.855-5.38-10.402-5.38-15V21.004ZM282.906 29.328h-23.082v14.649h22.387V52.3h-22.387v18.203h23.082v8.32h-31.933v-57.82h31.933ZM301.215 21.004c7.027 0 11.539.867 15.27 3.383 6.335 4.246 6.855 11.093 6.855 13.61 0 8.32-5.117 14.39-12.84 16.124l18.047 24.707h-10.672L301.301 55.16h-1.563v23.668h-8.851V21.004Zm-1.477 26.527h2.778c2.43 0 12.32-.261 12.32-9.449 0-8.148-7.723-8.93-12.059-8.93h-3.039Zm0 0"/><path style="stroke:none;fill-rule:nonzero;fill:#de0000;fill-opacity:1" d="M-.14 100h100V0h-100Zm0 0"/><path style="stroke:none;fill-rule:nonzero;fill:#fff;fill-opacity:1" d="M68.078 39.656v-14.73l-7.398-14.75-7.375 14.75v14.73h3.675v-13.82l3.7-7.367 3.703 7.367v13.82ZM19.875 48.105h59.969v-3.894H19.875ZM68.133 67.605c0-6.457 5.238-11.69 11.71-11.69v-3.938c-8.644 0-15.648 7-15.648 15.628l.028 17.954a59.553 59.553 0 0 1 3.91 5.464ZM57.668 59.805c0-4.309-3.496-7.805-7.82-7.805-4.313 0-7.813 3.496-7.813 7.805l.008 8.234a61.325 61.325 0 0 1 3.91 1.773l-.016-10.007a3.91 3.91 0 0 1 3.91-3.91 3.91 3.91 0 0 1 3.915 3.91l.015 14.726a60.227 60.227 0 0 1 3.903 3.035ZM35.52 59.805c0-4.309-3.5-7.805-7.817-7.805-4.316 0-7.816 3.496-7.816 7.805l-.012 3.914c1.328.058 2.621.168 3.918.308l-.004-4.222a3.91 3.91 0 0 1 3.914-3.91c2.16 0 3.918 1.75 3.918 3.91l-.027 5.648c1.332.34 2.64.719 3.926 1.145Zm0 0"/></svg>