<?xml version="1.0" encoding="UTF-8" standalone="no"?><!DOCTYPE svg PUBLIC "-//W3C//DTD SVG 1.1//EN" "http://www.w3.org/Graphics/SVG/1.1/DTD/svg11.dtd"><svg width="100%" height="100%" viewBox="0 0 263 81" version="1.1" xmlns="http://www.w3.org/2000/svg" xmlns:xlink="http://www.w3.org/1999/xlink" xml:space="preserve" xmlns:serif="http://www.serif.com/" style="fill-rule:evenodd;clip-rule:evenodd;stroke-linejoin:round;stroke-miterlimit:1.41421;"><g id="Layer-1" serif:id="Layer 1"><path d="M93.586,52.722l-5.249,11.208l1.624,0l1.25,-2.625l4.5,0l1.167,2.625l1.624,0l-4.916,-11.208Zm-0.042,3.542l-1.708,3.708l3.333,0l-1.625,-3.708Z" style="fill:#074ea2;"/><path d="M87.691,53.811c-0.928,-0.505 -1.569,-0.667 -2.625,-0.667c-3.01,0 -5.495,2.364 -5.541,5.374c-0.046,3.056 2.486,5.612 5.541,5.541c1.065,-0.024 1.958,-0.208 2.625,-0.75l0,-1.666c-0.833,0.583 -1.535,0.958 -2.625,0.958c-2.217,0 -3.957,-1.541 -3.957,-4.083c0,-2.208 1.775,-3.958 3.957,-3.958c1.095,0 2.083,0.584 2.625,1l0,-1.749Z" style="fill:#074ea2;fill-rule:nonzero;"/><rect x="99.273" y="53.311" width="1.542" height="10.623" style="fill:#074ea2;"/><path d="M107.438,55.644l1.333,-0.75c-1.208,-1.458 -2.083,-1.75 -3.125,-1.75c-1.457,0 -2.874,1.041 -2.957,2.666c-0.125,3.375 4.749,2.625 4.749,5c0.042,1.166 -0.875,1.916 -1.792,1.874c-1.332,-0.041 -2.041,-1.125 -2.249,-1.958l-1.416,0.375c0.708,2.208 2.208,3.041 3.665,3c1.625,0 3.417,-1.375 3.334,-3.291c-0.084,-3.542 -4.75,-3.083 -4.708,-5c0.042,-0.916 0.792,-1.333 1.374,-1.333c0.875,0 1.5,0.708 1.792,1.167" style="fill:#074ea2;fill-rule:nonzero;"/><path d="M115.062,55.644l1.333,-0.75c-1.208,-1.458 -2.083,-1.75 -3.124,-1.75c-1.459,0 -2.875,1.041 -2.959,2.666c-0.125,3.375 4.75,2.625 4.75,5c0.041,1.166 -0.875,1.916 -1.791,1.874c-1.334,-0.041 -2.042,-1.125 -2.25,-1.958l-1.416,0.375c0.707,2.208 2.207,3.041 3.666,3c1.625,0 3.416,-1.375 3.332,-3.291c-0.083,-3.542 -4.749,-3.083 -4.707,-5c0.041,-0.916 0.791,-1.333 1.375,-1.333c0.875,0 1.5,0.708 1.791,1.167" style="fill:#074ea2;fill-rule:nonzero;"/><path d="M117.978,53.352l5.833,0l0,1.458l-4.249,0l0,2.542l4.249,0l0,1.499l-4.249,0l0,3.667l4.207,0l0,1.416l-5.791,0l0,-10.582Z" style="fill:#074ea2;fill-rule:nonzero;"/><path d="M0.219,53.181l0,10.666l2.374,0c3.375,-0.042 3.958,-1.625 4,-3.125c0,-1.042 -0.708,-2.208 -2,-2.542c0.709,-0.416 1.167,-1.166 1.167,-2.041c-0.083,-2.208 -1.417,-2.958 -4.25,-2.958l-1.291,0Zm1.541,1.5l0,3.208c1.833,0.166 2.583,-0.834 2.5,-1.75c-0.042,-0.709 -0.5,-1.625 -2.5,-1.458m0,4.541l0,3.291l0.5,0c1.791,0 2.916,-0.291 2.833,-1.791c0,-0.583 -0.333,-1.458 -1.958,-1.5l-1.375,0Z" style="fill:#074ea2;"/><path d="M11.926,52.556l-5.25,11.207l1.625,0l1.25,-2.625l4.5,0l1.166,2.625l1.625,0l-4.916,-11.207Zm-0.042,3.541l-1.708,3.708l3.333,0l-1.625,-3.708Z" style="fill:#074ea2;"/><path d="M33.966,53.056c-3.034,-0.034 -5.56,2.383 -5.583,5.416c-0.024,3.057 2.527,5.538 5.583,5.5c1.095,-0.013 1.761,-0.198 2.708,-0.75l0.917,0.916l1.916,0l-1.666,-1.75c1.158,-1.171 1.602,-2.268 1.583,-3.916c-0.035,-2.998 -2.459,-5.382 -5.458,-5.416m0,1.5c-2.206,-0.023 -4.049,1.71 -4.083,3.916c-0.035,2.24 1.843,4.103 4.083,4.041c0.67,-0.017 1.067,-0.117 1.666,-0.416l-2.208,-2.333l1.875,0l1.542,1.583c0.837,-0.866 1.152,-1.671 1.124,-2.875c-0.049,-2.182 -1.816,-3.893 -3.999,-3.916" style="fill:#074ea2;"/><path d="M17.701,52.519l0,11.29l1.666,0l0,-4.874l-0.083,-2.916l2.124,2.333l5.708,5.749l0,-10.915l-1.583,0l0,5.166l0.041,2.208l-3.624,-3.875l-4.249,-4.166Z" style="fill:#074ea2;fill-rule:nonzero;"/><path d="M40.739,53.144l1.5,0l0,6.791c-0.083,1.458 0.92,2.642 2.291,2.666c1.403,0.026 2.375,-0.875 2.417,-2.666l0,-6.791l1.583,0l0,6.791c0.166,2.499 -1.795,4.047 -4,3.999c-2.149,-0.046 -3.958,-1.625 -3.791,-3.999l0,-6.791Z" style="fill:#074ea2;fill-rule:nonzero;"/><path d="M50.113,53.186l5.874,0l0,1.458l-4.291,0l0,2.583l4.291,0l0,1.458l-4.291,0l0,3.666l4.249,0l0,1.416l-5.832,0l0,-10.581Z" style="fill:#074ea2;fill-rule:nonzero;"/><path d="M61.82,53.352l5.874,0l0,1.458l-4.291,0l0,2.583l4.291,0l0,1.458l-4.291,0l0,3.667l4.249,0l0,1.416l-5.832,0l0,-10.582Z" style="fill:#074ea2;fill-rule:nonzero;"/><path d="M68.36,53.311l0,1.458l2.5,0l0,9.165l1.5,0l0,-9.165l2.499,0l0,-1.458l-6.499,0Z" style="fill:#074ea2;fill-rule:nonzero;"/><path d="M149.04,53.306l0,10.582l1.458,0l0,-4.291l1.084,0c2.166,0 3.499,-1.167 3.541,-3.125c0,-1.875 -0.916,-3.208 -3.875,-3.166l-2.208,0Zm1.458,1.541l0,3.25l1.042,0c1.333,0.042 2.099,-0.594 2.083,-1.625c-0.014,-0.943 -0.625,-1.625 -1.791,-1.625l-1.334,0Z" style="fill:#074ea2;"/><path d="M165.164,53.264l0,10.624l1.5,0l0,-4.583l0.583,0l3.333,4.583l1.875,0l-3.375,-4.708c1.459,-0.291 2.31,-1.498 2.292,-2.958c-0.021,-1.586 -0.875,-2.958 -2.792,-2.958l-3.416,0Zm1.5,1.458l0,3.292l0.708,0c1.958,0 2.5,-0.792 2.458,-1.792c-0.083,-1.041 -0.666,-1.5 -1.541,-1.5l-1.625,0Z" style="fill:#074ea2;"/><path d="M129.792,53.306l0,10.541l2.749,0c3.417,0 5.388,-2.381 5.375,-5.333c-0.013,-3.096 -1.958,-5.25 -5.958,-5.25l-2.166,0.042Zm1.458,1.5l0,7.707l0.834,0c2.832,0 4.291,-1.624 4.457,-3.999c0.167,-1.917 -1.625,-3.833 -4.25,-3.75l-1.041,0.042Z" style="fill:#074ea2;"/><path d="M159.289,52.639l-5.249,11.208l1.625,0l1.25,-2.625l4.499,0l1.167,2.625l1.625,0l-4.917,-11.208Zm-0.041,3.541l-1.708,3.709l3.333,0l-1.625,-3.709Z" style="fill:#074ea2;"/><path d="M140.142,52.477l-2.083,3.667l0.916,0.541l2.417,-3.416l-1.25,-0.792Z" style="fill:#074ea2;fill-rule:nonzero;"/><path d="M142.017,53.227l5.874,0l0,1.5l-4.291,0l0,2.541l4.291,0l0,1.5l-4.291,0l0,3.666l4.249,0l0,1.417l-5.832,0l0,-10.624Z" style="fill:#074ea2;fill-rule:nonzero;"/><path d="M195.052,53.269l5.833,0l0,1.458l-4.25,0l0,2.541l4.25,0l0,1.5l-4.25,0l0,3.666l4.25,0l0,1.417l-5.833,0l0,-10.582Z" style="fill:#074ea2;fill-rule:nonzero;"/><path d="M181.096,56.185l1,-1.041c-1.292,-1.5 -2.5,-2.083 -4.417,-2.083c-2.958,0 -5.29,2.493 -5.29,5.457c0,2.965 2.041,5.458 5.29,5.458c2.792,0 5.166,-1.917 5.083,-5.708l-4.291,0l0,1.417l2.625,0c0,1.666 -1.667,2.958 -3.417,2.958c-2.208,0 -3.856,-1.929 -3.832,-4.125c0.021,-2.16 1.624,-3.958 3.832,-3.999c1.459,0 2.375,0.458 3.417,1.666" style="fill:#074ea2;fill-rule:nonzero;"/><path d="M183.929,52.561l0,11.29l1.666,0l0,-4.875l-0.083,-2.874l2.124,2.291l5.708,5.749l0,-10.915l-1.583,0l0,5.166l0.041,2.208l-3.624,-3.874l-4.249,-4.166Z" style="fill:#074ea2;fill-rule:nonzero;"/><path d="M206.869,53.389l0,10.541l2.791,0c3.375,0 5.388,-2.38 5.375,-5.333c-0.013,-3.096 -2,-5.25 -5.958,-5.25l-2.208,0.042Zm1.5,1.5l0,7.708l0.833,0c2.833,0 4.25,-1.625 4.458,-4c0.125,-1.917 -1.625,-3.833 -4.291,-3.75l-1,0.042Z" style="fill:#074ea2;"/><path d="M216.424,53.269l5.833,0l0,1.5l-4.25,0l0,2.541l4.25,0l0,1.458l-4.25,0l0,3.708l4.208,0l0,1.416l-5.791,0l0,-10.623Z" style="fill:#074ea2;fill-rule:nonzero;"/><path d="M252.282,52.639l-5.25,11.208l1.625,0l1.25,-2.625l4.5,0l1.167,2.625l1.624,0l-4.916,-11.208Zm-0.042,3.541l-1.708,3.709l3.333,0l-1.625,-3.709Z" style="fill:#074ea2;"/><path d="M228.214,53.269l0,10.623l4.749,0l0,-1.416l-3.249,0l0,-9.207l-1.5,0Z" style="fill:#074ea2;fill-rule:nonzero;"/><path d="M233.422,52.477l-2.042,3.708l0.875,0.5l2.417,-3.416l-1.25,-0.792Z" style="fill:#074ea2;fill-rule:nonzero;"/><path d="M235.38,53.269l5.832,0l0,1.458l-4.249,0l0,2.583l4.249,0l0,1.458l-4.249,0l0,3.666l4.249,0l0,1.417l-5.832,0l0,-10.582Z" style="fill:#074ea2;fill-rule:nonzero;"/><path d="M241.921,53.227l0,1.5l2.499,0l0,9.124l1.5,0l0,-9.124l2.5,0l0,-1.5l-6.499,0Z" style="fill:#074ea2;fill-rule:nonzero;"/><path d="M255.835,53.227l0,1.458l2.5,0l0,9.166l1.5,0l0,-9.166l2.5,0l0,-1.458l-6.5,0Z" style="fill:#074ea2;fill-rule:nonzero;"/><path d="M129.125,69.18l0,10.665l2.375,0c3.375,-0.041 3.958,-1.625 4,-3.124c0,-1.042 -0.709,-2.209 -2,-2.542c0.708,-0.417 1.166,-1.166 1.166,-2.041c-0.083,-2.209 -1.416,-2.958 -4.249,-2.958l-1.292,0Zm1.541,1.499l0,3.208c1.834,0.167 2.584,-0.833 2.501,-1.749c-0.042,-0.709 -0.5,-1.625 -2.501,-1.459m0,4.542l0,3.291l0.5,0c1.792,0 2.917,-0.292 2.834,-1.791c0,-0.584 -0.334,-1.459 -1.959,-1.5l-1.375,0Z" style="fill:#074ea2;"/><path d="M141.916,69.096c-3.045,0.024 -5.558,2.497 -5.5,5.541c0.057,2.988 2.512,5.311 5.5,5.333c3.011,0.023 5.525,-2.322 5.583,-5.333c0.058,-3.066 -2.516,-5.563 -5.583,-5.541m0,1.5c-2.218,0.024 -4.047,1.824 -4,4.041c0.046,2.172 1.828,3.853 4,3.875c2.195,0.023 4.037,-1.679 4.083,-3.875c0.047,-2.239 -1.843,-4.064 -4.083,-4.041" style="fill:#074ea2;"/><path d="M86.941,69.183l0,10.624l4.749,0l0,-1.375l-3.249,0l0,-9.249l-1.5,0Z" style="fill:#074ea2;fill-rule:nonzero;"/><path d="M92.399,69.183l1.499,0l0,6.791c-0.041,1.458 0.952,2.666 2.333,2.666c1.393,0 2.333,-0.874 2.375,-2.666l0,-6.791l1.625,0l0,6.791c0.125,2.5 -1.794,4.047 -4,4c-2.159,-0.046 -3.999,-1.625 -3.832,-4l0,-6.791Z" style="fill:#074ea2;fill-rule:nonzero;"/><path d="M100.731,69.183l3.124,5.166l-3.124,5.458l1.749,0l2.25,-3.916l2.416,3.916l1.667,0l-3.167,-5.458l3.042,-5.166l-1.75,0l-2.208,3.833l-2.208,-3.833l-1.791,0Z" style="fill:#074ea2;fill-rule:nonzero;"/><path d="M109.896,69.225l5.832,0l0,1.458l-4.249,0l0,2.583l4.249,0l0,1.458l-4.249,0l0,3.666l4.208,0l0,1.417l-5.791,0l0,-10.582Z" style="fill:#074ea2;fill-rule:nonzero;"/><path d="M118.937,68.6l-2.459,11.207l1.542,0l1.125,-5.749l0.125,-0.958l2.958,7.165l3.291,-7.165l0.041,1.166l1.042,5.541l1.5,0l-2,-11.207l-3.749,8.291l-3.416,-8.291Z" style="fill:#074ea2;fill-rule:nonzero;"/><path d="M148.766,69.225l1.499,0l0,6.791c-0.041,1.5 0.921,2.642 2.292,2.666c1.404,0.026 2.375,-0.875 2.416,-2.666l0,-6.791l1.583,0l0,6.791c0.167,2.541 -1.782,4.089 -3.999,4.041c-2.161,-0.047 -3.958,-1.667 -3.791,-4.041l0,-6.791Z" style="fill:#074ea2;fill-rule:nonzero;"/><path d="M173.763,72.141l1,-1.041c-1.291,-1.458 -2.499,-2.083 -4.416,-2.083c-2.958,0 -5.291,2.493 -5.291,5.457c0,2.977 2.042,5.5 5.291,5.5c2.791,0 5.166,-1.958 5.083,-5.75l-4.291,0l0,1.417l2.624,0c0,1.708 -1.666,2.999 -3.416,2.999c-2.208,0 -3.878,-1.958 -3.833,-4.166c0.043,-2.159 1.625,-3.957 3.833,-3.999c1.458,0 2.375,0.458 3.416,1.666" style="fill:#074ea2;fill-rule:nonzero;"/><path d="M158.123,69.221l0,10.624l1.5,0l0,-4.583l0.583,0l3.333,4.583l1.875,0l-3.375,-4.708c1.458,-0.291 2.31,-1.498 2.292,-2.958c-0.021,-1.586 -0.875,-2.958 -2.792,-2.958l-3.416,0Zm1.5,1.458l0,3.292l0.708,0c1.958,0 2.5,-0.792 2.458,-1.792c-0.083,-1.041 -0.666,-1.5 -1.541,-1.5l-1.625,0Z" style="fill:#074ea2;"/><rect x="110.034" y="0.012" width="42.52" height="42.52" style="fill:#ed1c24;"/><path d="M139.601,16.645l0,-7.387l-3.705,-7.395l-3.697,7.395l0,7.387l1.845,0l0,-6.931l1.852,-3.693l1.853,3.693l0,6.931l1.852,0Z" style="fill:#fff;fill-rule:nonzero;"/><rect x="117.395" y="18.496" width="27.756" height="1.852" style="fill:#fff;"/><path d="M139.603,29.592c0,-3.061 2.484,-5.544 5.548,-5.544l0,-1.865c-4.096,0 -7.416,3.317 -7.416,7.409l0.014,8.512c0.658,0.819 1.291,1.7 1.853,2.593l0.001,-11.105Z" style="fill:#fff;fill-rule:nonzero;"/><path d="M134.051,25.89c0,-2.043 -1.659,-3.699 -3.703,-3.699c-2.046,0 -3.703,1.656 -3.703,3.699l0.005,3.906c0.623,0.257 1.241,0.539 1.85,0.841l-0.006,-4.747c0,-1.022 0.829,-1.851 1.854,-1.851c1.023,0 1.853,0.829 1.853,1.851l0.005,6.985c0.64,0.456 1.257,0.936 1.851,1.44l-0.006,-8.425Z" style="fill:#fff;fill-rule:nonzero;"/><path d="M124.804,25.89c0,-2.043 -1.658,-3.699 -3.704,-3.699c-2.045,0 -3.702,1.656 -3.702,3.699l-0.004,1.858c0.627,0.029 1.242,0.079 1.858,0.148l-0.004,-2.006c0,-1.022 0.828,-1.851 1.852,-1.851c1.025,0 1.855,0.829 1.855,1.851l-0.009,2.68c0.628,0.16 1.247,0.341 1.859,0.543l-0.001,-3.223Z" style="fill:#fff;fill-rule:nonzero;"/></g></svg>