<?xml version="1.0" encoding="UTF-8" standalone="no"?><!DOCTYPE svg PUBLIC "-//W3C//DTD SVG 1.1//EN" "http://www.w3.org/Graphics/SVG/1.1/DTD/svg11.dtd"><svg width="100%" height="100%" viewBox="0 0 168 50" version="1.1" xmlns="http://www.w3.org/2000/svg" xmlns:xlink="http://www.w3.org/1999/xlink" xml:space="preserve" xmlns:serif="http://www.serif.com/" style="fill-rule:evenodd;clip-rule:evenodd;stroke-linejoin:round;stroke-miterlimit:1.41421;"><g id="Logo"><g><clipPath id="_clip1"><rect x="0.081" y="0.239" width="167.66" height="49.319" clip-rule="nonzero"/></clipPath><g clip-path="url(#_clip1)"><path d="M74.596,22.298c-0.573,0.39 -1.186,0.669 -1.819,0.846c1.723,0.789 3.623,0.77 5.097,-0.239c2.445,-1.672 2.784,-5.43 0.759,-8.391c-1.434,-2.096 -3.668,-3.231 -5.718,-3.122c1.289,0.389 2.457,1.202 3.276,2.399c1.908,2.789 1.194,6.598 -1.595,8.507" style="fill:#4899bb;fill-rule:nonzero;"/><path d="M87.643,22.403c0.571,0.392 1.185,0.672 1.818,0.847c-1.722,0.789 -3.624,0.767 -5.097,-0.241c-2.444,-1.674 -2.781,-5.43 -0.753,-8.392c1.435,-2.094 3.669,-3.227 5.72,-3.119c-1.289,0.389 -2.458,1.203 -3.278,2.399c-1.91,2.787 -1.198,6.595 1.59,8.506" style="fill:#bebebe;fill-rule:nonzero;"/><path d="M96.07,21.838c0.484,0.565 1.005,0.97 1.54,1.223c-1.459,1.14 -3.07,1.11 -4.317,-0.347c-2.071,-2.42 -2.356,-7.848 -0.639,-12.126c1.217,-3.025 3.109,-4.663 4.846,-4.507c-1.092,0.562 -2.083,1.737 -2.777,3.466c-1.618,4.028 -1.015,9.53 1.347,12.291" style="fill:#4899bb;fill-rule:nonzero;"/><path d="M71.952,21.42c0.299,0.804 0.65,1.393 1.034,1.779c-1.305,1.422 -2.562,1.249 -3.334,-0.822c-1.282,-3.44 -0.739,-10.802 1.211,-16.444c1.38,-3.99 3.094,-6.048 4.434,-5.694c-0.935,0.669 -1.878,2.175 -2.666,4.456c-1.836,5.313 -2.14,12.801 -0.679,16.725" style="fill:#4899bb;fill-rule:nonzero;"/></g></g><path d="M2.46,37.229l-2.379,0l0,-6.433l2.086,0c0.624,0 0.965,0.107 1.287,0.4c0.312,0.292 0.507,0.73 0.507,1.18c0,0.69 -0.42,1.247 -1.102,1.481c0.858,0.165 1.345,0.769 1.345,1.656c0,1.024 -0.702,1.716 -1.744,1.716m0.39,-5.527c-0.166,-0.175 -0.37,-0.233 -0.868,-0.233l-1.102,0l0,2.085l1.044,0c0.458,0 0.662,-0.067 0.877,-0.282c0.194,-0.195 0.312,-0.497 0.312,-0.828c0,-0.313 -0.098,-0.576 -0.263,-0.742m-0.868,2.583l-1.102,0l0,2.272l1.102,0c0.585,0 0.809,-0.059 1.033,-0.244c0.205,-0.175 0.341,-0.516 0.341,-0.859c0,-0.75 -0.497,-1.169 -1.374,-1.169" style="fill:#4899bb;fill-rule:nonzero;"/><path d="M9.836,37.229l-0.663,-1.901l-2.602,0l-0.663,1.901l-0.858,0l2.399,-6.618l0.857,0l2.388,6.618l-0.858,0Zm-1.958,-5.576l-1.053,2.944l2.095,0l-1.042,-2.944Z" style="fill:#4899bb;fill-rule:nonzero;"/><path d="M16.304,37.229l-3.245,-5.02c-0.03,-0.049 -0.079,-0.127 -0.128,-0.224c-0.039,-0.068 -0.068,-0.107 -0.078,-0.146c-0.038,-0.069 -0.058,-0.117 -0.097,-0.244l0,5.575l-0.8,0l0,-6.432l1.044,0l3.187,4.903c0.029,0.039 0.058,0.096 0.087,0.156c0.039,0.097 0.049,0.107 0.117,0.292c0.011,0.018 0.02,0.057 0.039,0.096l0,-5.447l0.8,0l0,6.491l-0.926,0" style="fill:#4899bb;fill-rule:nonzero;"/><path d="M22.277,37.213c0.126,0.165 0.175,0.214 0.321,0.37c0.186,0.185 0.361,0.341 0.526,0.468c0.342,0.262 0.556,0.379 1.141,0.633l-0.449,0.615c-0.633,-0.333 -0.876,-0.489 -1.277,-0.8c-0.448,-0.351 -0.691,-0.604 -1.081,-1.111l-0.136,-0.166c-0.4,-0.068 -0.517,-0.097 -0.742,-0.165c-1.217,-0.429 -2.075,-1.736 -2.075,-3.178c0,-1.93 1.354,-3.333 3.235,-3.333c1.872,0 3.226,1.403 3.226,3.343c0,1.695 -1.062,3.012 -2.689,3.324m-0.537,-5.965c-1.296,0 -2.368,1.188 -2.368,2.631c0,1.452 1.062,2.642 2.368,2.642c1.297,0 2.359,-1.19 2.359,-2.642c0,-1.443 -1.062,-2.631 -2.359,-2.631" style="fill:#4899bb;fill-rule:nonzero;"/><path d="M30.584,36.778c-0.477,0.39 -1.072,0.594 -1.763,0.594c-0.693,0 -1.297,-0.204 -1.774,-0.594c-0.537,-0.439 -0.751,-0.955 -0.751,-1.794l0,-4.229l0.799,0l0,3.985c0,0.799 0.059,1.023 0.371,1.364c0.321,0.362 0.789,0.557 1.345,0.557c0.555,0 1.023,-0.195 1.344,-0.557c0.312,-0.341 0.37,-0.565 0.37,-1.364l0,-3.985l0.8,0l0,4.229c0,0.857 -0.205,1.355 -0.741,1.794" style="fill:#4899bb;fill-rule:nonzero;"/><path d="M32.935,37.229l0,-6.433l3.616,0l0,0.673l-2.817,0l0,2.144l2.33,0l0,0.672l-2.33,0l0,2.272l2.905,0l0,0.672l-3.704,0Z" style="fill:#4899bb;fill-rule:nonzero;"/><path d="M45.568,31.77c-0.488,-0.34 -0.956,-0.487 -1.58,-0.487c-1.364,0 -2.339,1.054 -2.339,2.525c0,1.617 0.985,2.679 2.495,2.679c0.546,0 0.965,-0.086 1.482,-0.302l0.224,0.625c-0.39,0.175 -0.546,0.234 -0.867,0.312c-0.322,0.078 -0.585,0.107 -0.888,0.107c-1.939,0 -3.313,-1.393 -3.313,-3.372c0,-1.882 1.393,-3.305 3.235,-3.305c0.419,0 0.829,0.069 1.209,0.215c0.283,0.097 0.419,0.175 0.741,0.399l-0.399,0.604" style="fill:#4899bb;fill-rule:nonzero;"/><path d="M47.065,37.229l0,-6.433l3.616,0l0,0.673l-2.817,0l0,2.144l2.329,0l0,0.672l-2.329,0l0,2.272l2.905,0l0,0.672l-3.704,0Z" style="fill:#4899bb;fill-rule:nonzero;"/><path d="M56.585,37.3l-3.245,-5.02c-0.03,-0.047 -0.078,-0.125 -0.128,-0.224c-0.039,-0.068 -0.068,-0.107 -0.078,-0.146c-0.039,-0.067 -0.058,-0.115 -0.097,-0.244l0,5.576l-0.799,0l0,-6.433l1.043,0l3.187,4.903c0.029,0.039 0.058,0.098 0.087,0.156c0.039,0.098 0.049,0.107 0.117,0.293c0.011,0.019 0.02,0.058 0.039,0.097l0,-5.449l0.8,0l0,6.491l-0.926,0" style="fill:#4899bb;fill-rule:nonzero;"/><path d="M61.593,31.47l0,5.76l-0.799,0l0,-5.76l-2.144,0l0,-0.674l5.087,0l0,0.674l-2.144,0Z" style="fill:#4899bb;fill-rule:nonzero;"/><path d="M68.427,37.229l-1.774,-2.759l-0.858,0l0,2.759l-0.798,0l0,-6.433l1.959,0c0.779,0 1.149,0.117 1.519,0.478c0.312,0.301 0.507,0.769 0.507,1.258c0,0.506 -0.204,0.994 -0.565,1.334c-0.263,0.263 -0.497,0.38 -0.974,0.488l1.9,2.875l-0.916,0Zm-0.653,-5.576c-0.195,-0.156 -0.36,-0.184 -0.935,-0.184l-1.044,0l0,2.329l1.044,0c0.847,0 1.286,-0.428 1.286,-1.258c0,-0.409 -0.117,-0.701 -0.351,-0.887" style="fill:#4899bb;fill-rule:nonzero;"/><path d="M74.989,37.229l-0.663,-1.901l-2.602,0l-0.664,1.901l-0.857,0l2.397,-6.618l0.857,0l2.389,6.618l-0.857,0Zm-1.959,-5.576l-1.053,2.944l2.095,0l-1.042,-2.944Z" style="fill:#4899bb;fill-rule:nonzero;"/><path d="M76.962,37.229l0,-6.433l0.8,0l0,5.761l2.875,0l0,0.672l-3.675,0Z" style="fill:#4899bb;fill-rule:nonzero;"/><path d="M81.808,37.229l0,-6.433l3.616,0l0,0.673l-2.817,0l0,2.144l2.329,0l0,0.672l-2.329,0l0,2.272l2.905,0l0,0.672l-3.704,0Z" style="fill:#4899bb;fill-rule:nonzero;"/><path d="M94.627,36.294c-0.585,0.672 -1.257,0.935 -2.378,0.935l-2.135,0l0,-6.433l2.146,0c1.88,0 3.235,1.335 3.235,3.187c0,0.838 -0.312,1.677 -0.868,2.311m-2.495,-4.824l-1.218,0l0,5.087l1.218,0c0.849,0 1.326,-0.166 1.736,-0.585c0.467,-0.497 0.789,-1.297 0.789,-1.998c0,-1.434 -1.072,-2.504 -2.525,-2.504" style="fill:#4899bb;fill-rule:nonzero;"/><path d="M101.05,36.778c-0.478,0.39 -1.072,0.594 -1.764,0.594c-0.692,0 -1.296,-0.204 -1.773,-0.594c-0.537,-0.439 -0.751,-0.955 -0.751,-1.794l0,-4.23l0.799,0l0,3.986c0,0.799 0.058,1.023 0.371,1.364c0.322,0.362 0.789,0.557 1.344,0.557c0.556,0 1.023,-0.195 1.346,-0.557c0.311,-0.341 0.37,-0.565 0.37,-1.364l0,-3.986l0.799,0l0,4.23c0,0.857 -0.205,1.355 -0.741,1.794" style="fill:#4899bb;fill-rule:nonzero;"/><path d="M106.638,37.229l0,-6.433l0.8,0l0,5.761l2.874,0l0,0.672l-3.674,0Z" style="fill:#4899bb;fill-rule:nonzero;"/><path d="M115.396,36.778c-0.477,0.39 -1.072,0.594 -1.764,0.594c-0.692,0 -1.297,-0.204 -1.775,-0.594c-0.535,-0.439 -0.749,-0.955 -0.749,-1.794l0,-4.23l0.8,0l0,3.986c0,0.799 0.058,1.023 0.37,1.364c0.321,0.362 0.788,0.557 1.343,0.557c0.557,0 1.025,-0.195 1.346,-0.557c0.311,-0.341 0.37,-0.565 0.37,-1.364l0,-3.986l0.8,0l0,4.23c0,0.857 -0.205,1.355 -0.741,1.794" style="fill:#4899bb;fill-rule:nonzero;"/><path d="M121.706,37.229l-1.775,-2.622l-1.792,2.622l-0.926,0l2.252,-3.285l-2.146,-3.148l0.917,0l1.706,2.476l1.686,-2.476l0.907,0l-2.154,3.158l2.241,3.275l-0.916,0Z" style="fill:#4899bb;fill-rule:nonzero;"/><path d="M123.873,37.229l0,-6.433l3.616,0l0,0.673l-2.817,0l0,2.144l2.33,0l0,0.672l-2.33,0l0,2.272l2.905,0l0,0.672l-3.704,0Z" style="fill:#4899bb;fill-rule:nonzero;"/><path d="M134.704,37.229l0,-5.634c-0.068,0.331 -0.107,0.438 -0.243,0.789l-1.902,4.845l-0.729,0l-1.775,-4.717c-0.146,-0.352 -0.175,-0.459 -0.253,-0.859l0,5.576l-0.731,0l0,-6.433l1.101,0l1.96,5.147c0.087,0.263 0.097,0.302 0.126,0.487c0.039,-0.253 0.059,-0.312 0.117,-0.487l2.027,-5.147l1.101,0l0,6.433l-0.799,0" style="fill:#4899bb;fill-rule:nonzero;"/><path d="M140.05,37.229l-2.378,0l0,-6.433l2.086,0c0.624,0 0.964,0.107 1.286,0.4c0.312,0.292 0.507,0.73 0.507,1.18c0,0.69 -0.419,1.247 -1.102,1.481c0.858,0.165 1.344,0.769 1.344,1.656c0,1.024 -0.7,1.716 -1.743,1.716m0.39,-5.527c-0.165,-0.175 -0.371,-0.233 -0.868,-0.233l-1.101,0l0,2.085l1.043,0c0.458,0 0.663,-0.067 0.877,-0.282c0.195,-0.195 0.312,-0.497 0.312,-0.828c0,-0.313 -0.097,-0.576 -0.263,-0.742m-0.868,2.583l-1.101,0l0,2.272l1.101,0c0.585,0 0.81,-0.059 1.034,-0.244c0.204,-0.175 0.341,-0.516 0.341,-0.859c0,-0.75 -0.498,-1.169 -1.375,-1.169" style="fill:#4899bb;fill-rule:nonzero;"/><path d="M146.076,37.3c-1.871,0 -3.236,-1.403 -3.236,-3.343c0,-1.929 1.365,-3.333 3.236,-3.333c1.871,0 3.226,1.404 3.226,3.333c0,1.94 -1.355,3.343 -3.226,3.343m0,-5.973c-1.296,0 -2.359,1.188 -2.359,2.63c0,1.453 1.063,2.642 2.359,2.642c1.286,0 2.348,-1.189 2.348,-2.642c0,-1.442 -1.062,-2.63 -2.348,-2.63" style="fill:#4899bb;fill-rule:nonzero;"/><path d="M154.94,36.778c-0.477,0.39 -1.072,0.594 -1.765,0.594c-0.691,0 -1.295,-0.204 -1.773,-0.594c-0.536,-0.439 -0.75,-0.955 -0.75,-1.794l0,-4.23l0.799,0l0,3.986c0,0.799 0.058,1.023 0.371,1.364c0.321,0.362 0.789,0.557 1.345,0.557c0.555,0 1.023,-0.195 1.345,-0.557c0.311,-0.341 0.37,-0.565 0.37,-1.364l0,-3.986l0.799,0l0,4.23c0,0.857 -0.204,1.355 -0.741,1.794" style="fill:#4899bb;fill-rule:nonzero;"/><path d="M160.734,37.229l-1.773,-2.759l-0.858,0l0,2.759l-0.8,0l0,-6.433l1.96,0c0.781,0 1.15,0.117 1.521,0.478c0.311,0.301 0.507,0.769 0.507,1.258c0,0.506 -0.206,0.994 -0.567,1.334c-0.262,0.263 -0.496,0.38 -0.973,0.488l1.899,2.875l-0.916,0Zm-0.653,-5.576c-0.194,-0.156 -0.361,-0.184 -0.935,-0.184l-1.043,0l0,2.329l1.043,0c0.847,0 1.286,-0.428 1.286,-1.258c0,-0.409 -0.116,-0.701 -0.351,-0.887" style="fill:#4899bb;fill-rule:nonzero;"/><path d="M167.272,37.014c-0.439,0.137 -1.083,0.215 -1.618,0.215c-1.94,0 -3.431,-1.452 -3.431,-3.353c0,-1.911 1.443,-3.314 3.401,-3.314c0.46,0 0.995,0.059 1.336,0.146c0.282,0.078 0.428,0.147 0.78,0.341l-0.302,0.664c-0.156,-0.087 -0.264,-0.138 -0.341,-0.177c-0.371,-0.156 -0.878,-0.253 -1.395,-0.253c-0.906,0 -1.491,0.245 -1.988,0.82c-0.4,0.468 -0.633,1.081 -0.633,1.715c0,1.55 1.189,2.69 2.796,2.69c0.323,0 0.547,-0.029 1.063,-0.136l0,-2.145l0.8,0l0,2.631c-0.205,0.078 -0.361,0.129 -0.468,0.156" style="fill:#4899bb;fill-rule:nonzero;"/><path d="M63.466,44.829l2.604,0l0,0.586l-1.938,0l0,1.359l1.765,0l0,0.586l-1.765,0l0,1.532l1.938,0l0,0.586l-2.604,0l0,-4.649Z" style="fill:#bebebe;fill-rule:nonzero;"/><path d="M70.752,47.554c0,1.305 -0.659,2.005 -1.805,2.005c-1.145,0 -1.805,-0.7 -1.805,-2.005l0,-2.724l0.666,0l0,2.637c0,0.893 0.28,1.506 1.139,1.506c0.859,0 1.139,-0.613 1.139,-1.506l0,-2.637l0.666,0l0,2.724" style="fill:#bebebe;fill-rule:nonzero;"/><path d="M71.904,44.829l1.139,0c0.919,0 1.805,0.147 1.805,1.259c0,0.566 -0.42,0.965 -0.96,1.059l0,0.013c0.207,0.08 0.307,0.18 0.454,0.466l0.879,1.852l-0.759,0l-0.713,-1.612c-0.207,-0.453 -0.426,-0.453 -0.779,-0.453l-0.4,0l0,2.065l-0.666,0l0,-4.649Zm0.666,1.998l0.566,0c0.633,0 1.006,-0.279 1.006,-0.726c0,-0.419 -0.32,-0.686 -0.933,-0.686l-0.639,0l0,1.412" style="fill:#bebebe;fill-rule:nonzero;"/><path d="M78.011,44.75c1.412,0 2.238,1.025 2.238,2.404c0,1.412 -0.819,2.405 -2.238,2.405c-1.419,0 -2.238,-0.993 -2.238,-2.405c0,-1.379 0.826,-2.404 2.238,-2.404m0,4.222c1.072,0 1.532,-0.892 1.532,-1.818c0,-0.946 -0.506,-1.825 -1.532,-1.818c-1.026,-0.007 -1.532,0.872 -1.532,1.818c0,0.926 0.46,1.818 1.532,1.818" style="fill:#bebebe;fill-rule:nonzero;"/><path d="M83.306,45.529c-0.34,-0.133 -0.526,-0.193 -0.872,-0.193c-0.373,0 -0.813,0.133 -0.813,0.619c0,0.893 1.998,0.686 1.998,2.218c0,0.992 -0.766,1.386 -1.698,1.386c-0.327,0 -0.646,-0.094 -0.953,-0.194l0.067,-0.619c0.226,0.093 0.626,0.226 0.966,0.226c0.379,0 0.912,-0.213 0.912,-0.759c0,-1.039 -1.998,-0.752 -1.998,-2.198c0,-0.826 0.653,-1.265 1.492,-1.265c0.306,0 0.673,0.053 0.992,0.166l-0.093,0.613" style="fill:#bebebe;fill-rule:nonzero;"/><path d="M85.824,47.534l-1.818,-2.704l0.779,0l1.385,2.085l1.352,-2.085l0.78,0l-1.812,2.704l0,1.945l-0.666,0l0,-1.945Z" style="fill:#bebebe;fill-rule:nonzero;"/><path d="M91.078,45.529c-0.34,-0.133 -0.526,-0.193 -0.872,-0.193c-0.373,0 -0.813,0.133 -0.813,0.619c0,0.893 1.998,0.686 1.998,2.218c0,0.992 -0.766,1.386 -1.698,1.386c-0.327,0 -0.646,-0.094 -0.953,-0.194l0.067,-0.619c0.226,0.093 0.626,0.226 0.966,0.226c0.379,0 0.912,-0.213 0.912,-0.759c0,-1.039 -1.998,-0.752 -1.998,-2.198c0,-0.826 0.653,-1.265 1.492,-1.265c0.306,0 0.673,0.053 0.992,0.166l-0.093,0.613" style="fill:#bebebe;fill-rule:nonzero;"/><path d="M93.223,45.415l-1.445,0l0,-0.586l3.556,0l0,0.586l-1.445,0l0,4.063l-0.666,0l0,-4.063Z" style="fill:#bebebe;fill-rule:nonzero;"/><path d="M96.033,44.829l2.604,0l0,0.586l-1.938,0l0,1.359l1.765,0l0,0.586l-1.765,0l0,1.532l1.938,0l0,0.586l-2.604,0l0,-4.649Zm1.665,-0.34l-0.446,0l-0.873,-0.959l0.726,0l0.593,0.959Z" style="fill:#bebebe;fill-rule:nonzero;"/><path d="M99.709,44.829l1.1,0l1.457,3.863l1.433,-3.863l1.099,0l0,4.649l-0.666,0l0,-4.023l-0.013,0l-1.539,4.023l-0.653,0l-1.538,-4.023l-0.013,0l0,4.023l-0.667,0l0,-4.649Z" style="fill:#bebebe;fill-rule:nonzero;"/><path d="M106.023,44.829l2.604,0l0,0.586l-1.938,0l0,1.359l1.765,0l0,0.586l-1.765,0l0,1.532l1.938,0l0,0.586l-2.604,0l0,-4.649Z" style="fill:#bebebe;fill-rule:nonzero;"/></g></svg>