<svg viewBox="0 0 168 50" xmlns="http://www.w3.org/2000/svg" xml:space="preserve" style="fill-rule:evenodd;clip-rule:evenodd;stroke-linejoin:round;stroke-miterlimit:1.41421"><clipPath id="a"><path clip-rule="nonzero" d="M.081.239h167.66v49.319H.081z"/></clipPath><g clip-path="url(#a)"><path d="M74.596 22.298a6.181 6.181 0 0 1-1.819.846c1.723.789 3.623.77 5.097-.239 2.445-1.672 2.784-5.43.759-8.391-1.434-2.096-3.668-3.231-5.718-3.122a6.085 6.085 0 0 1 3.276 2.399 6.121 6.121 0 0 1-1.595 8.507" style="fill:#4899bb;fill-rule:nonzero"/><path d="M87.643 22.403a6.057 6.057 0 0 0 1.818.847c-1.722.789-3.624.767-5.097-.241-2.444-1.674-2.781-5.43-.753-8.392 1.435-2.094 3.669-3.227 5.72-3.119a6.119 6.119 0 0 0-1.688 10.905" style="fill:#bebebe;fill-rule:nonzero"/><path d="M96.07 21.838c.484.565 1.005.97 1.54 1.223-1.459 1.14-3.07 1.11-4.317-.347-2.071-2.42-2.356-7.848-.639-12.126 1.217-3.025 3.109-4.663 4.846-4.507-1.092.562-2.083 1.737-2.777 3.466-1.618 4.028-1.015 9.53 1.347 12.291M71.952 21.42c.299.804.65 1.393 1.034 1.779-1.305 1.422-2.562 1.249-3.334-.822-1.282-3.44-.739-10.802 1.211-16.444 1.38-3.99 3.094-6.048 4.434-5.694-.935.669-1.878 2.175-2.666 4.456-1.836 5.313-2.14 12.801-.679 16.725" style="fill:#4899bb;fill-rule:nonzero"/></g><path d="M2.46 37.229H.081v-6.433h2.086c.624 0 .965.107 1.287.4.312.292.507.73.507 1.18 0 .69-.42 1.247-1.102 1.481.858.165 1.345.769 1.345 1.656 0 1.024-.702 1.716-1.744 1.716m.39-5.527c-.166-.175-.37-.233-.868-.233H.88v2.085h1.044c.458 0 .662-.067.877-.282.194-.195.312-.497.312-.828 0-.313-.098-.576-.263-.742m-.868 2.583H.88v2.272h1.102c.585 0 .809-.059 1.033-.244.205-.175.341-.516.341-.859 0-.75-.497-1.169-1.374-1.169M9.836 37.229l-.663-1.901H6.571l-.663 1.901H5.05l2.399-6.618h.857l2.388 6.618h-.858Zm-1.958-5.576-1.053 2.944H8.92l-1.042-2.944ZM16.304 37.229l-3.245-5.02c-.03-.049-.079-.127-.128-.224-.039-.068-.068-.107-.078-.146a1.098 1.098 0 0 1-.097-.244v5.575h-.8v-6.432H13l3.187 4.903c.029.039.058.096.087.156.039.097.049.107.117.292.011.018.02.057.039.096v-5.447h.8v6.491h-.926M22.277 37.213c.126.165.175.214.321.37.186.185.361.341.526.468.342.262.556.379 1.141.633l-.449.615c-.633-.333-.876-.489-1.277-.8-.448-.351-.691-.604-1.081-1.111l-.136-.166a4.934 4.934 0 0 1-.742-.165c-1.217-.429-2.075-1.736-2.075-3.178 0-1.93 1.354-3.333 3.235-3.333 1.872 0 3.226 1.403 3.226 3.343 0 1.695-1.062 3.012-2.689 3.324m-.537-5.965c-1.296 0-2.368 1.188-2.368 2.631 0 1.452 1.062 2.642 2.368 2.642 1.297 0 2.359-1.19 2.359-2.642 0-1.443-1.062-2.631-2.359-2.631M30.584 36.778c-.477.39-1.072.594-1.763.594-.693 0-1.297-.204-1.774-.594-.537-.439-.751-.955-.751-1.794v-4.229h.799v3.985c0 .799.059 1.023.371 1.364.321.362.789.557 1.345.557.555 0 1.023-.195 1.344-.557.312-.341.37-.565.37-1.364v-3.985h.8v4.229c0 .857-.205 1.355-.741 1.794M32.935 37.229v-6.433h3.616v.673h-2.817v2.144h2.33v.672h-2.33v2.272h2.905v.672h-3.704ZM45.568 31.77c-.488-.34-.956-.487-1.58-.487-1.364 0-2.339 1.054-2.339 2.525 0 1.617.985 2.679 2.495 2.679.546 0 .965-.086 1.482-.302l.224.625c-.39.175-.546.234-.867.312a3.56 3.56 0 0 1-.888.107c-1.939 0-3.313-1.393-3.313-3.372 0-1.882 1.393-3.305 3.235-3.305.419 0 .829.069 1.209.215.283.097.419.175.741.399l-.399.604M47.065 37.229v-6.433h3.616v.673h-2.817v2.144h2.329v.672h-2.329v2.272h2.905v.672h-3.704ZM56.585 37.3l-3.245-5.02a2.565 2.565 0 0 1-.128-.224c-.039-.068-.068-.107-.078-.146a.98.98 0 0 1-.097-.244v5.576h-.799v-6.433h1.043l3.187 4.903c.029.039.058.098.087.156.039.098.049.107.117.293.011.019.02.058.039.097v-5.449h.8V37.3h-.926M61.593 31.47v5.76h-.799v-5.76H58.65v-.674h5.087v.674h-2.144ZM68.427 37.229l-1.774-2.759h-.858v2.759h-.798v-6.433h1.959c.779 0 1.149.117 1.519.478.312.301.507.769.507 1.258 0 .506-.204.994-.565 1.334-.263.263-.497.38-.974.488l1.9 2.875h-.916Zm-.653-5.576c-.195-.156-.36-.184-.935-.184h-1.044v2.329h1.044c.847 0 1.286-.428 1.286-1.258 0-.409-.117-.701-.351-.887M74.989 37.229l-.663-1.901h-2.602l-.664 1.901h-.857l2.397-6.618h.857l2.389 6.618h-.857Zm-1.959-5.576-1.053 2.944h2.095l-1.042-2.944ZM76.962 37.229v-6.433h.8v5.761h2.875v.672h-3.675ZM81.808 37.229v-6.433h3.616v.673h-2.817v2.144h2.329v.672h-2.329v2.272h2.905v.672h-3.704ZM94.627 36.294c-.585.672-1.257.935-2.378.935h-2.135v-6.433h2.146c1.88 0 3.235 1.335 3.235 3.187 0 .838-.312 1.677-.868 2.311m-2.495-4.824h-1.218v5.087h1.218c.849 0 1.326-.166 1.736-.585.467-.497.789-1.297.789-1.998 0-1.434-1.072-2.504-2.525-2.504M101.05 36.778c-.478.39-1.072.594-1.764.594s-1.296-.204-1.773-.594c-.537-.439-.751-.955-.751-1.794v-4.23h.799v3.986c0 .799.058 1.023.371 1.364.322.362.789.557 1.344.557.556 0 1.023-.195 1.346-.557.311-.341.37-.565.37-1.364v-3.986h.799v4.23c0 .857-.205 1.355-.741 1.794M106.638 37.229v-6.433h.8v5.761h2.874v.672h-3.674ZM115.396 36.778c-.477.39-1.072.594-1.764.594s-1.297-.204-1.775-.594c-.535-.439-.749-.955-.749-1.794v-4.23h.8v3.986c0 .799.058 1.023.37 1.364.321.362.788.557 1.343.557.557 0 1.025-.195 1.346-.557.311-.341.37-.565.37-1.364v-3.986h.8v4.23c0 .857-.205 1.355-.741 1.794M121.706 37.229l-1.775-2.622-1.792 2.622h-.926l2.252-3.285-2.146-3.148h.917l1.706 2.476 1.686-2.476h.907l-2.154 3.158 2.241 3.275h-.916ZM123.873 37.229v-6.433h3.616v.673h-2.817v2.144h2.33v.672h-2.33v2.272h2.905v.672h-3.704ZM134.704 37.229v-5.634c-.068.331-.107.438-.243.789l-1.902 4.845h-.729l-1.775-4.717a3.406 3.406 0 0 1-.253-.859v5.576h-.731v-6.433h1.101l1.96 5.147c.087.263.097.302.126.487.039-.253.059-.312.117-.487l2.027-5.147h1.101v6.433h-.799M140.05 37.229h-2.378v-6.433h2.086c.624 0 .964.107 1.286.4.312.292.507.73.507 1.18 0 .69-.419 1.247-1.102 1.481.858.165 1.344.769 1.344 1.656 0 1.024-.7 1.716-1.743 1.716m.39-5.527c-.165-.175-.371-.233-.868-.233h-1.101v2.085h1.043c.458 0 .663-.067.877-.282.195-.195.312-.497.312-.828 0-.313-.097-.576-.263-.742m-.868 2.583h-1.101v2.272h1.101c.585 0 .81-.059 1.034-.244.204-.175.341-.516.341-.859 0-.75-.498-1.169-1.375-1.169M146.076 37.3c-1.871 0-3.236-1.403-3.236-3.343 0-1.929 1.365-3.333 3.236-3.333 1.871 0 3.226 1.404 3.226 3.333 0 1.94-1.355 3.343-3.226 3.343m0-5.973c-1.296 0-2.359 1.188-2.359 2.63 0 1.453 1.063 2.642 2.359 2.642 1.286 0 2.348-1.189 2.348-2.642 0-1.442-1.062-2.63-2.348-2.63M154.94 36.778c-.477.39-1.072.594-1.765.594-.691 0-1.295-.204-1.773-.594-.536-.439-.75-.955-.75-1.794v-4.23h.799v3.986c0 .799.058 1.023.371 1.364.321.362.789.557 1.345.557.555 0 1.023-.195 1.345-.557.311-.341.37-.565.37-1.364v-3.986h.799v4.23c0 .857-.204 1.355-.741 1.794M160.734 37.229l-1.773-2.759h-.858v2.759h-.8v-6.433h1.96c.781 0 1.15.117 1.521.478.311.301.507.769.507 1.258 0 .506-.206.994-.567 1.334-.262.263-.496.38-.973.488l1.899 2.875h-.916Zm-.653-5.576c-.194-.156-.361-.184-.935-.184h-1.043v2.329h1.043c.847 0 1.286-.428 1.286-1.258 0-.409-.116-.701-.351-.887M167.272 37.014c-.439.137-1.083.215-1.618.215-1.94 0-3.431-1.452-3.431-3.353 0-1.911 1.443-3.314 3.401-3.314.46 0 .995.059 1.336.146.282.078.428.147.78.341l-.302.664c-.156-.087-.264-.138-.341-.177-.371-.156-.878-.253-1.395-.253-.906 0-1.491.245-1.988.82a2.655 2.655 0 0 0-.633 1.715c0 1.55 1.189 2.69 2.796 2.69.323 0 .547-.029 1.063-.136v-2.145h.8v2.631a4.54 4.54 0 0 1-.468.156" style="fill:#4899bb;fill-rule:nonzero"/><path d="M63.466 44.829h2.604v.586h-1.938v1.359h1.765v.586h-1.765v1.532h1.938v.586h-2.604v-4.649ZM70.752 47.554c0 1.305-.659 2.005-1.805 2.005-1.145 0-1.805-.7-1.805-2.005V44.83h.666v2.637c0 .893.28 1.506 1.139 1.506s1.139-.613 1.139-1.506V44.83h.666v2.724M71.904 44.829h1.139c.919 0 1.805.147 1.805 1.259 0 .566-.42.965-.96 1.059v.013c.207.08.307.18.454.466l.879 1.852h-.759l-.713-1.612c-.207-.453-.426-.453-.779-.453h-.4v2.065h-.666v-4.649Zm.666 1.998h.566c.633 0 1.006-.279 1.006-.726 0-.419-.32-.686-.933-.686h-.639v1.412M78.011 44.75c1.412 0 2.238 1.025 2.238 2.404 0 1.412-.819 2.405-2.238 2.405s-2.238-.993-2.238-2.405c0-1.379.826-2.404 2.238-2.404m0 4.222c1.072 0 1.532-.892 1.532-1.818 0-.946-.506-1.825-1.532-1.818-1.026-.007-1.532.872-1.532 1.818 0 .926.46 1.818 1.532 1.818M83.306 45.529c-.34-.133-.526-.193-.872-.193-.373 0-.813.133-.813.619 0 .893 1.998.686 1.998 2.218 0 .992-.766 1.386-1.698 1.386-.327 0-.646-.094-.953-.194l.067-.619c.226.093.626.226.966.226.379 0 .912-.213.912-.759 0-1.039-1.998-.752-1.998-2.198 0-.826.653-1.265 1.492-1.265.306 0 .673.053.992.166l-.093.613M85.824 47.534l-1.818-2.704h.779l1.385 2.085 1.352-2.085h.78l-1.812 2.704v1.945h-.666v-1.945ZM91.078 45.529c-.34-.133-.526-.193-.872-.193-.373 0-.813.133-.813.619 0 .893 1.998.686 1.998 2.218 0 .992-.766 1.386-1.698 1.386-.327 0-.646-.094-.953-.194l.067-.619c.226.093.626.226.966.226.379 0 .912-.213.912-.759 0-1.039-1.998-.752-1.998-2.198 0-.826.653-1.265 1.492-1.265.306 0 .673.053.992.166l-.093.613M93.223 45.415h-1.445v-.586h3.556v.586h-1.445v4.063h-.666v-4.063ZM96.033 44.829h2.604v.586h-1.938v1.359h1.765v.586h-1.765v1.532h1.938v.586h-2.604v-4.649Zm1.665-.34h-.446l-.873-.959h.726l.593.959ZM99.709 44.829h1.1l1.457 3.863 1.433-3.863h1.099v4.649h-.666v-4.023h-.013l-1.539 4.023h-.653l-1.538-4.023h-.013v4.023h-.667v-4.649ZM106.023 44.829h2.604v.586h-1.938v1.359h1.765v.586h-1.765v1.532h1.938v.586h-2.604v-4.649Z" style="fill:#bebebe;fill-rule:nonzero"/></svg>