<?xml version="1.0" encoding="UTF-8" standalone="no"?><!DOCTYPE svg PUBLIC "-//W3C//DTD SVG 1.1//EN" "http://www.w3.org/Graphics/SVG/1.1/DTD/svg11.dtd"><svg width="100%" height="100%" viewBox="0 0 305 75" version="1.1" xmlns="http://www.w3.org/2000/svg" xmlns:xlink="http://www.w3.org/1999/xlink" xml:space="preserve" xmlns:serif="http://www.serif.com/" style="fill-rule:evenodd;clip-rule:evenodd;stroke-linejoin:round;stroke-miterlimit:2;"><g id="Calque-1" serif:id="Calque 1"><path d="M26.305,0.004l-26.302,0l0,8.787l26.738,0c9.418,0 16.985,4.744 16.985,14.232c0,6.272 -3.462,10.373 -9.74,11.579l0,0.161c7.888,0.803 12.316,7.317 12.316,14.151c0,13.302 -8.745,16.711 -19.556,17.121l-0.086,0.006l-26.657,0l0,8.787l28.932,0c22.304,0 34.191,-13.03 34.191,-37.412c0,-21.438 -10.94,-37.412 -36.821,-37.412" style="fill:#c1a57c;fill-rule:nonzero;"/><path d="M0.002,17.703l0,39.308l19.428,0l0,-8.986l-10.374,0l0,-30.322l-9.054,0Z" style="fill:#c1a57c;fill-rule:nonzero;"/><path d="M193.407,9.302l-4.598,0l0,13.35c0,4.036 -1.768,6.222 -4.881,6.222c-3.114,0 -4.883,-2.186 -4.883,-6.222l0,-13.35l-4.512,0l0,13.392c0,6.497 3.513,10.337 9.395,10.337c5.919,0 9.479,-3.84 9.479,-10.337l0,-13.392Z" style="fill:#3d3c3f;fill-rule:nonzero;"/><path d="M224.761,41.803c-6.573,0 -11.148,5.112 -11.148,12.185c0,7.035 4.575,12.186 11.148,12.186c6.573,0 11.186,-5.151 11.186,-12.186c0,-7.073 -4.613,-12.185 -11.186,-12.185m0,20.228c-3.728,0 -6.15,-3.43 -6.15,-8.043c0,-4.613 2.422,-7.95 6.15,-7.95c3.768,0 6.227,3.337 6.227,7.95c0,4.613 -2.459,8.043 -6.227,8.043" style="fill:#3d3c3f;fill-rule:nonzero;"/><path d="M82.47,42.326l-4.453,0l0,23.641l15.078,0l0,-4.344l-10.625,0l0,-19.297Z" style="fill:#3d3c3f;fill-rule:nonzero;"/><path d="M144.349,29.56l-0.128,-20.267l-4.703,0l0,15.985c0,0 -0.517,-1.784 -1.624,-3.395l-8.794,-12.59l-4.382,0c-0.089,1.112 -0.133,2.439 -0.153,3.593l0,20.009l4.651,0l0.005,-16.696c0,0 0.393,1.421 1.233,2.719l9.91,13.977l4.004,0c0.042,-1.009 -0.026,-2.499 -0.019,-3.335" style="fill:#3d3c3f;fill-rule:nonzero;"/><path d="M121.627,32.895c-0.041,-0.098 -0.08,-0.194 -0.121,-0.292c-0.699,-1.968 -4.877,-13.586 -9.353,-23.297c-0.003,-0.006 -0.005,-0.013 -0.005,-0.013l-3.989,0c-4.909,10.649 -9.462,23.602 -9.462,23.602l4.565,0c0.236,-0.559 1.184,-2.819 2.346,-5.736l9.029,0c1.114,2.77 2.053,4.983 2.374,5.736l4.616,0Zm-9.98,-9.748l-0.126,0l-2.81,0l-0.127,0c-1.04,0 -1.415,0.223 -1.547,0.357c0.203,-0.53 0.406,-1.065 0.608,-1.603c0.221,-0.588 0.431,-1.154 0.63,-1.689l1.839,-4.998l0,-0.002l0.005,0.016l0,-0.016c0,0 0.249,0.69 0.673,1.845l0.401,1.092c0.388,1.053 0.863,2.335 1.395,3.752c0.202,0.538 0.407,1.076 0.612,1.609c-0.127,-0.134 -0.496,-0.363 -1.553,-0.363" style="fill:#3d3c3f;fill-rule:nonzero;"/><path d="M109.185,55.761c0,4.036 -1.768,6.221 -4.881,6.221c-3.114,0 -4.883,-2.185 -4.883,-6.221l0,-13.418l-4.512,0l0,13.46c0,6.497 3.513,10.337 9.395,10.337c5.919,0 9.479,-3.84 9.479,-10.337l0,-13.46l-4.598,0l0,13.418Z" style="fill:#3d3c3f;fill-rule:nonzero;"/><path d="M253.785,55.777c0,4.036 -1.768,6.221 -4.881,6.221c-3.114,0 -4.883,-2.185 -4.883,-6.221l0,-13.418l-4.512,0l0,13.46c0,6.497 3.513,10.337 9.395,10.337c5.919,0 9.479,-3.84 9.479,-10.337l0,-13.46l-4.598,0l0,13.418Z" style="fill:#3d3c3f;fill-rule:nonzero;"/><path d="M163.85,33.809c0.691,1.03 3.053,4.015 8.354,2.06c0,0 -2.957,-0.94 -5.106,-5.941c0.28,-0.245 0.44,-0.395 0.44,-0.395c1.999,-2.192 3.191,-5.19 3.191,-8.687c0,-7.073 -4.613,-12.186 -11.186,-12.186c-6.573,0 -11.148,5.113 -11.148,12.186c0,7.033 4.575,12.185 11.148,12.185c1.226,0 2.412,-0.197 3.507,-0.57c0.312,0.552 0.619,1.077 0.8,1.348m-4.307,-4.874c-3.728,0 -6.151,-3.477 -6.151,-8.089c0,-4.614 2.423,-7.981 6.151,-7.981c3.767,0 6.228,3.367 6.228,7.981c0,2.11 -0.372,3.774 -1.075,5.035c-1.074,-0.967 -3.076,-2.023 -6.379,-1.244c0,0 1.626,1.424 2.757,4.052c-0.596,0.196 -1.103,0.246 -1.531,0.246" style="fill:#3d3c3f;fill-rule:nonzero;"/><path d="M297.152,52.014l-2.323,4.03l4.975,0l0.003,4.517c-1.038,0.846 -2.422,1.231 -3.959,1.231c-4.19,0 -6.804,-3.191 -6.804,-7.765c0,-4.652 2.959,-7.727 7.188,-7.727c1.426,0 2.68,0.238 3.832,0.678l2.138,-3.71c-1.609,-0.923 -3.672,-1.465 -5.97,-1.465c-7.073,0 -12.147,4.92 -12.147,12.224c0,7.149 4.497,12.146 11.647,12.146c3.106,0 6.211,-0.994 8.516,-3.327l0,-10.833l-7.096,0.001Z" style="fill:#3d3c3f;fill-rule:nonzero;"/><path d="M138.094,42.352l-5.381,0l-1.84,2.691c-1.433,2.18 -3.075,4.989 -3.296,5.657c-0.095,-0.285 -0.452,-1.158 -0.941,-1.961c-0.244,-0.365 -3.69,-5.608 -4.202,-6.387l-5.559,0l7.803,11.571l-8.187,12.031l5.415,0l2.334,-3.48c1.404,-2.139 2.963,-4.743 3.178,-5.393c0.4,1.215 5.528,8.873 5.528,8.873l5.533,0l-8.188,-12.108l7.803,-11.494Z" style="fill:#3d3c3f;fill-rule:nonzero;"/><path d="M280.993,49.825c0,-4.843 -3.306,-7.496 -8.264,-7.496l-9.726,0l0,23.633l4.529,0l0,-19.442l4.889,-0.001c2.46,0 3.729,1.307 3.729,3.306c0,1.961 -1.044,3.555 -3.503,3.555l-3.872,0l7.884,12.582l5.588,0l-6.344,-9.313c3.384,-1.014 5.09,-3.322 5.09,-6.824" style="fill:#3d3c3f;fill-rule:nonzero;"/><path d="M96.87,26.195c0,-2.575 -1.614,-4.767 -3.844,-5.497c1.73,-0.614 3.114,-2.46 3.114,-4.997c0,-4.228 -3.038,-6.419 -7.957,-6.419l-9.856,0l-0.32,0l0,23.602l10.944,0c4.921,0 7.919,-2.345 7.919,-6.689m-14.385,2.679l0,-15.591l5.46,0c0.371,0 2.065,-0.066 2.948,0.994c1.018,1.224 0.481,2.841 0.257,3.24c-1.042,2.122 -4.076,3.208 -4.076,3.208c0,0 5.053,1.66 5.053,4.932c0,0.01 0.016,1.785 -1.27,2.63c-0.006,0.005 -0.904,0.587 -2.394,0.587l-5.978,0Z" style="fill:#3d3c3f;fill-rule:nonzero;"/><path d="M214.093,28.568l-11.138,0c0.127,-1.812 0.188,-3.689 0.208,-5.486l7.566,0l0,-4.029l-7.581,0c-0.047,-2.588 -0.149,-4.63 -0.194,-5.454l10.584,0l0.555,-4.305l-15.687,0l0,23.601l15.132,0l0.555,-4.327Z" style="fill:#3d3c3f;fill-rule:nonzero;"/><path d="M265.506,28.568l-11.138,0c0.127,-1.812 0.188,-3.689 0.208,-5.486l7.566,0l0,-4.029l-7.581,0c-0.047,-2.588 -0.149,-4.63 -0.194,-5.454l10.584,0l0.555,-4.305l-15.687,0l0,23.601l15.132,0l0.555,-4.327Z" style="fill:#3d3c3f;fill-rule:nonzero;"/><path d="M157.587,42.338l-15.687,0l0,23.602l15.132,0l0.555,-4.328l-11.138,0c0.127,-1.811 0.188,-3.689 0.208,-5.485l7.566,0l0,-4.029l-7.581,0c-0.047,-2.589 -0.149,-4.631 -0.194,-5.455l10.584,0l0.555,-4.305Z" style="fill:#3d3c3f;fill-rule:nonzero;"/><path d="M207.324,53.773c1.73,-0.615 3.114,-2.46 3.114,-4.997c0,-4.228 -3.037,-6.42 -7.957,-6.42l-9.856,0l-0.32,0l0,23.602l10.944,0c4.921,0 7.919,-2.345 7.919,-6.688c0,-2.575 -1.614,-4.767 -3.844,-5.497m-2.169,7.589c-0.006,0.004 -0.904,0.587 -2.394,0.587l-5.977,0l0,-15.592l5.459,0c0.37,0 2.065,-0.065 2.948,0.995c1.018,1.224 0.481,2.84 0.257,3.24c-1.042,2.122 -4.077,3.207 -4.077,3.207c0,0 5.054,1.66 5.054,4.932c0,0.011 0.016,1.786 -1.27,2.631" style="fill:#3d3c3f;fill-rule:nonzero;"/><path d="M234.16,9.296l-7.97,0l0,23.602l7.97,0c7.149,0 11.647,-4.613 11.647,-11.801c0,-7.188 -4.498,-11.801 -11.647,-11.801m-0.192,19.279l-3.231,0l0,0.003c0.401,-5.932 0.109,-12.87 0,-14.91l0,-0.013l3.231,-0.005c4.497,0 6.958,2.834 6.958,7.447c0,4.574 -2.461,7.478 -6.958,7.478" style="fill:#3d3c3f;fill-rule:nonzero;"/><path d="M184.955,42.359l-3.703,0l-0.019,0c0,0 -3.261,4.811 -6.594,11.844c-3.183,-6.692 -6.618,-11.844 -6.618,-11.844l-0.019,0l-3.634,0l-2.923,23.581l5.051,0c0,0 0.903,-10.624 0.945,-11.317c0.077,-1.295 0.2,-3.146 0.235,-3.644l6.95,10.965l6.988,-11.024c0.026,0.464 0.089,1.623 0.169,2.954c0.033,0.57 0.986,12.066 0.986,12.066l5.072,0l-2.886,-23.581Z" style="fill:#3d3c3f;fill-rule:nonzero;"/></g></svg>