<svg viewBox="0 0 305 75" xmlns="http://www.w3.org/2000/svg" xml:space="preserve" style="fill-rule:evenodd;clip-rule:evenodd;stroke-linejoin:round;stroke-miterlimit:2"><path d="M26.305.004H.003v8.787h26.738c9.418 0 16.985 4.744 16.985 14.232 0 6.272-3.462 10.373-9.74 11.579v.161c7.888.803 12.316 7.317 12.316 14.151 0 13.302-8.745 16.711-19.556 17.121l-.086.006H.003v8.787h28.932c22.304 0 34.191-13.03 34.191-37.412 0-21.438-10.94-37.412-36.821-37.412" style="fill:#c1a57c;fill-rule:nonzero"/><path d="M.002 17.703v39.308H19.43v-8.986H9.056V17.703H.002Z" style="fill:#c1a57c;fill-rule:nonzero"/><path d="M193.407 9.302h-4.598v13.35c0 4.036-1.768 6.222-4.881 6.222-3.114 0-4.883-2.186-4.883-6.222V9.302h-4.512v13.392c0 6.497 3.513 10.337 9.395 10.337 5.919 0 9.479-3.84 9.479-10.337V9.302ZM224.761 41.803c-6.573 0-11.148 5.112-11.148 12.185 0 7.035 4.575 12.186 11.148 12.186 6.573 0 11.186-5.151 11.186-12.186 0-7.073-4.613-12.185-11.186-12.185m0 20.228c-3.728 0-6.15-3.43-6.15-8.043 0-4.613 2.422-7.95 6.15-7.95 3.768 0 6.227 3.337 6.227 7.95 0 4.613-2.459 8.043-6.227 8.043M82.47 42.326h-4.453v23.641h15.078v-4.344H82.47V42.326ZM144.349 29.56l-.128-20.267h-4.703v15.985s-.517-1.784-1.624-3.395L129.1 9.293h-4.382a60.964 60.964 0 0 0-.153 3.593v20.009h4.651l.005-16.696s.393 1.421 1.233 2.719l9.91 13.977h4.004c.042-1.009-.026-2.499-.019-3.335M121.627 32.895l-.121-.292c-.699-1.968-4.877-13.586-9.353-23.297l-.005-.013h-3.989c-4.909 10.649-9.462 23.602-9.462 23.602h4.565c.236-.559 1.184-2.819 2.346-5.736h9.029a309.882 309.882 0 0 0 2.374 5.736h4.616Zm-9.98-9.748H108.584c-1.04 0-1.415.223-1.547.357.203-.53.406-1.065.608-1.603.221-.588.431-1.154.63-1.689l1.839-4.998v-.002l.005.016v-.016s.249.69.673 1.845l.401 1.092c.388 1.053.863 2.335 1.395 3.752.202.538.407 1.076.612 1.609-.127-.134-.496-.363-1.553-.363M109.185 55.761c0 4.036-1.768 6.221-4.881 6.221-3.114 0-4.883-2.185-4.883-6.221V42.343h-4.512v13.46c0 6.497 3.513 10.337 9.395 10.337 5.919 0 9.479-3.84 9.479-10.337v-13.46h-4.598v13.418ZM253.785 55.777c0 4.036-1.768 6.221-4.881 6.221-3.114 0-4.883-2.185-4.883-6.221V42.359h-4.512v13.46c0 6.497 3.513 10.337 9.395 10.337 5.919 0 9.479-3.84 9.479-10.337v-13.46h-4.598v13.418ZM163.85 33.809c.691 1.03 3.053 4.015 8.354 2.06 0 0-2.957-.94-5.106-5.941.28-.245.44-.395.44-.395 1.999-2.192 3.191-5.19 3.191-8.687 0-7.073-4.613-12.186-11.186-12.186-6.573 0-11.148 5.113-11.148 12.186 0 7.033 4.575 12.185 11.148 12.185 1.226 0 2.412-.197 3.507-.57.312.552.619 1.077.8 1.348m-4.307-4.874c-3.728 0-6.151-3.477-6.151-8.089 0-4.614 2.423-7.981 6.151-7.981 3.767 0 6.228 3.367 6.228 7.981 0 2.11-.372 3.774-1.075 5.035-1.074-.967-3.076-2.023-6.379-1.244 0 0 1.626 1.424 2.757 4.052a4.791 4.791 0 0 1-1.531.246M297.152 52.014l-2.323 4.03h4.975l.003 4.517c-1.038.846-2.422 1.231-3.959 1.231-4.19 0-6.804-3.191-6.804-7.765 0-4.652 2.959-7.727 7.188-7.727 1.426 0 2.68.238 3.832.678l2.138-3.71c-1.609-.923-3.672-1.465-5.97-1.465-7.073 0-12.147 4.92-12.147 12.224 0 7.149 4.497 12.146 11.647 12.146 3.106 0 6.211-.994 8.516-3.327V52.013l-7.096.001ZM138.094 42.352h-5.381l-1.84 2.691c-1.433 2.18-3.075 4.989-3.296 5.657a11.473 11.473 0 0 0-.941-1.961c-.244-.365-3.69-5.608-4.202-6.387h-5.559l7.803 11.571-8.187 12.031h5.415l2.334-3.48c1.404-2.139 2.963-4.743 3.178-5.393.4 1.215 5.528 8.873 5.528 8.873h5.533l-8.188-12.108 7.803-11.494ZM280.993 49.825c0-4.843-3.306-7.496-8.264-7.496h-9.726v23.633h4.529V46.52l4.889-.001c2.46 0 3.729 1.307 3.729 3.306 0 1.961-1.044 3.555-3.503 3.555h-3.872l7.884 12.582h5.588l-6.344-9.313c3.384-1.014 5.09-3.322 5.09-6.824M96.87 26.195c0-2.575-1.614-4.767-3.844-5.497 1.73-.614 3.114-2.46 3.114-4.997 0-4.228-3.038-6.419-7.957-6.419H78.007v23.602h10.944c4.921 0 7.919-2.345 7.919-6.689m-14.385 2.679V13.283h5.46c.371 0 2.065-.066 2.948.994 1.018 1.224.481 2.841.257 3.24-1.042 2.122-4.076 3.208-4.076 3.208s5.053 1.66 5.053 4.932c0 .01.016 1.785-1.27 2.63-.006.005-.904.587-2.394.587h-5.978ZM214.093 28.568h-11.138c.127-1.812.188-3.689.208-5.486h7.566v-4.029h-7.581a153.95 153.95 0 0 0-.194-5.454h10.584l.555-4.305h-15.687v23.601h15.132l.555-4.327ZM265.506 28.568h-11.138c.127-1.812.188-3.689.208-5.486h7.566v-4.029h-7.581a153.95 153.95 0 0 0-.194-5.454h10.584l.555-4.305h-15.687v23.601h15.132l.555-4.327ZM157.587 42.338H141.9V65.94h15.132l.555-4.328h-11.138c.127-1.811.188-3.689.208-5.485h7.566v-4.029h-7.581a153.938 153.938 0 0 0-.194-5.455h10.584l.555-4.305ZM207.324 53.773c1.73-.615 3.114-2.46 3.114-4.997 0-4.228-3.037-6.42-7.957-6.42h-10.176v23.602h10.944c4.921 0 7.919-2.345 7.919-6.688 0-2.575-1.614-4.767-3.844-5.497m-2.169 7.589c-.006.004-.904.587-2.394.587h-5.977V46.357h5.459c.37 0 2.065-.065 2.948.995 1.018 1.224.481 2.84.257 3.24-1.042 2.122-4.077 3.207-4.077 3.207s5.054 1.66 5.054 4.932c0 .011.016 1.786-1.27 2.631M234.16 9.296h-7.97v23.602h7.97c7.149 0 11.647-4.613 11.647-11.801S241.309 9.296 234.16 9.296m-.192 19.279h-3.231v.003c.401-5.932.109-12.87 0-14.91v-.013l3.231-.005c4.497 0 6.958 2.834 6.958 7.447 0 4.574-2.461 7.478-6.958 7.478M184.955 42.359h-3.722s-3.261 4.811-6.594 11.844c-3.183-6.692-6.618-11.844-6.618-11.844h-3.653l-2.923 23.581h5.051s.903-10.624.945-11.317c.077-1.295.2-3.146.235-3.644l6.95 10.965 6.988-11.024c.026.464.089 1.623.169 2.954.033.57.986 12.066.986 12.066h5.072l-2.886-23.581Z" style="fill:#3d3c3f;fill-rule:nonzero"/></svg>