<?xml version="1.0" encoding="UTF-8" standalone="no"?><!DOCTYPE svg PUBLIC "-//W3C//DTD SVG 1.1//EN" "http://www.w3.org/Graphics/SVG/1.1/DTD/svg11.dtd"><svg width="100%" height="100%" viewBox="0 0 284 109" version="1.1" xmlns="http://www.w3.org/2000/svg" xmlns:xlink="http://www.w3.org/1999/xlink" xml:space="preserve" xmlns:serif="http://www.serif.com/" style="fill-rule:evenodd;clip-rule:evenodd;stroke-linejoin:round;stroke-miterlimit:2;"><g><path d="M115.457,82.929l0.001,0l0,-0.002l-0.001,0.002Z" style="fill:#213f99;fill-rule:nonzero;"/><path d="M53.77,13.701l17.327,0c4.758,0 10.78,1.136 10.78,9.214c0,8.079 -8.611,11.373 -14.998,11.373l-13.109,0l0,-20.587Zm0,31.565l9.872,0c16.225,0 24.493,3.545 24.493,13.04c0,8.415 -6.633,11.972 -17.035,11.972l-15.797,0l-18.064,12.65l0,0.001l33.738,-0.008c20.204,0 33.808,-7.275 33.808,-24.108c0,-14.682 -12.04,-20.449 -22.783,-20.449c7.424,0 16.198,-6.653 16.198,-17.935c0,-11.281 -10.318,-19.38 -22.08,-19.38l-34.437,0.001l-7.468,0l3.024,6.705l0,69.282l16.531,-11.577l0,-20.194Z" style="fill:#213f99;fill-rule:nonzero;"/><path d="M131.992,13.701l11.26,0c4.646,0 28.34,1.175 28.34,28.288c0,30.937 -28.34,28.283 -28.34,28.283l-9.723,0.004l-18.071,12.651l0,0.002l32.44,0c20.204,0 40.918,-12.426 40.918,-40.94c0,-25.28 -18.087,-40.939 -40.918,-40.939l-35.461,0l3.021,6.705l0,69.279l16.534,-11.574l0,-51.759Z" style="fill:#213f99;fill-rule:nonzero;"/><path d="M213.68,41.988c0,-23.152 15.951,-29.656 26.285,-29.656c10.332,0 26.283,6.504 26.283,29.656c0,23.153 -15.951,29.656 -26.283,29.656c-10.334,0 -26.285,-6.503 -26.285,-29.656Zm-17.225,0c0,32.668 26.402,41.845 43.51,41.845c17.103,0 43.508,-9.177 43.508,-41.845c0,-32.667 -26.405,-41.845 -43.508,-41.845c-17.108,0 -43.51,9.178 -43.51,41.845Z" style="fill:#213f99;fill-rule:nonzero;"/><path d="M0,1.05l0,102.067l16.148,-11.309l0,-90.758l-16.148,0Z" style="fill:#ed193a;fill-rule:nonzero;"/><path d="M19.168,95.583l-19.168,13.417l282.566,0l0,-13.417l-263.398,0Z" style="fill:#ed193a;fill-rule:nonzero;"/></g></svg>