<svg viewBox="0 0 284 109" xmlns="http://www.w3.org/2000/svg" xml:space="preserve" style="fill-rule:evenodd;clip-rule:evenodd;stroke-linejoin:round;stroke-miterlimit:2"><path d="M115.457 82.929h.001v-.002l-.001.002ZM53.77 13.701h17.327c4.758 0 10.78 1.136 10.78 9.214 0 8.079-8.611 11.373-14.998 11.373H53.77V13.701Zm0 31.565h9.872c16.225 0 24.493 3.545 24.493 13.04 0 8.415-6.633 11.972-17.035 11.972H55.303l-18.064 12.65v.001l33.738-.008c20.204 0 33.808-7.275 33.808-24.108 0-14.682-12.04-20.449-22.783-20.449 7.424 0 16.198-6.653 16.198-17.935 0-11.281-10.318-19.38-22.08-19.38l-34.437.001h-7.468l3.024 6.705v69.282L53.77 65.46V45.266Z" style="fill:#213f99;fill-rule:nonzero"/><path d="M131.992 13.701h11.26c4.646 0 28.34 1.175 28.34 28.288 0 30.937-28.34 28.283-28.34 28.283l-9.723.004-18.071 12.651v.002h32.44c20.204 0 40.918-12.426 40.918-40.94 0-25.28-18.087-40.939-40.918-40.939h-35.461l3.021 6.705v69.279l16.534-11.574V13.701ZM213.68 41.988c0-23.152 15.951-29.656 26.285-29.656 10.332 0 26.283 6.504 26.283 29.656 0 23.153-15.951 29.656-26.283 29.656-10.334 0-26.285-6.503-26.285-29.656Zm-17.225 0c0 32.668 26.402 41.845 43.51 41.845 17.103 0 43.508-9.177 43.508-41.845 0-32.667-26.405-41.845-43.508-41.845-17.108 0-43.51 9.178-43.51 41.845Z" style="fill:#213f99;fill-rule:nonzero"/><path d="M0 1.05v102.067l16.148-11.309V1.05H0ZM19.168 95.583 0 109h282.566V95.583H19.168Z" style="fill:#ed193a;fill-rule:nonzero"/></svg>