<?xml version="1.0" encoding="UTF-8" standalone="no"?>
<!-- Created with Inkscape (http://www.inkscape.org/) -->

<svg
   xmlns:dc="http://purl.org/dc/elements/1.1/"
   xmlns:cc="http://creativecommons.org/ns#"
   xmlns:rdf="http://www.w3.org/1999/02/22-rdf-syntax-ns#"
   xmlns:svg="http://www.w3.org/2000/svg"
   xmlns="http://www.w3.org/2000/svg"
   xmlns:sodipodi="http://sodipodi.sourceforge.net/DTD/sodipodi-0.dtd"
   xmlns:inkscape="http://www.inkscape.org/namespaces/inkscape"
   version="1.1"
   id="svg2"
   xml:space="preserve"
   width="1087.2534"
   height="370.86212"
   viewBox="0 0 1087.2534 370.86212"
   sodipodi:docname="bettendorf.svg"
   inkscape:version="0.92.5 (2060ec1f9f, 2020-04-08)"><metadata
     id="metadata8"><rdf:RDF><cc:Work
         rdf:about=""><dc:format>image/svg+xml</dc:format><dc:type
           rdf:resource="http://purl.org/dc/dcmitype/StillImage" /><dc:title></dc:title></cc:Work></rdf:RDF></metadata><defs
     id="defs6"><clipPath
       clipPathUnits="userSpaceOnUse"
       id="clipPath18"><path
         d="M 0,595.28 H 841.89 V 0 H 0 Z"
         id="path16"
         inkscape:connector-curvature="0" /></clipPath></defs><sodipodi:namedview
     pagecolor="#ffffff"
     bordercolor="#666666"
     borderopacity="1"
     objecttolerance="10"
     gridtolerance="10"
     guidetolerance="10"
     inkscape:pageopacity="0"
     inkscape:pageshadow="2"
     inkscape:window-width="1308"
     inkscape:window-height="745"
     id="namedview4"
     showgrid="false"
     inkscape:pagecheckerboard="true"
     inkscape:zoom="0.26280155"
     inkscape:cx="543.65801"
     inkscape:cy="185.23534"
     inkscape:window-x="0"
     inkscape:window-y="0"
     inkscape:window-maximized="0"
     inkscape:current-layer="g10" /><g
     id="g10"
     inkscape:groupmode="layer"
     inkscape:label="LOGOCMYN"
     transform="matrix(1.3333333,0,0,-1.3333333,-17.602,582.48012)"><g
       id="g12"><g
         id="g14"
         clip-path="url(#clipPath18)"><g
           id="g20"
           transform="translate(250.0352,396.4322)"><path
             d="M 0,0 -97.039,-78.59 H 18.274 l -175.613,-145.435 c 18.011,-8.535 38.14,-13.326 59.394,-13.326 76.706,0 138.889,62.183 138.889,138.89 C 40.944,-59.977 25.286,-25.154 0,0"
             style="fill:#97918f;fill-opacity:1;fill-rule:nonzero;stroke:none"
             id="path22"
             inkscape:connector-curvature="0" /></g><g
           id="g24"
           transform="translate(37.0775,276.8136)"><path
             d="m 0,0 176.424,145.939 c -15,7.5 -35.312,14.174 -61.411,14.107 C 38.307,159.848 -23.876,97.863 -23.876,21.157 c 0,-55.135 32.126,-102.766 78.68,-125.195 l 83.283,103.635 z"
             style="fill:#f39200;fill-opacity:1;fill-rule:nonzero;stroke:none"
             id="path26"
             inkscape:connector-curvature="0" /></g><g
           id="g28"
           transform="translate(328.4997,250.5537)"><path
             d="M 0,0 V 66.576 H 34.781 V 59.16 H 8.728 V 37.947 H 32.88 V 30.53 H 8.728 V 7.416 H 35.323 V 0 Z"
             style="fill:#97918f;fill-opacity:1;fill-rule:nonzero;stroke:none"
             id="path30"
             inkscape:connector-curvature="0" /></g><g
           id="g32"
           transform="translate(378.0555,317.1301)"><path
             d="m 0,0 h 8.728 v -59.16 h 24.607 v -7.416 H 0 Z"
             style="fill:#97918f;fill-opacity:1;fill-rule:nonzero;stroke:none"
             id="path34"
             inkscape:connector-curvature="0" /></g><g
           id="g36"
           transform="translate(422.4105,250.5537)"><path
             d="M 0,0 V 66.576 H 34.781 V 59.16 H 8.728 V 37.947 H 32.88 V 30.53 H 8.728 V 7.416 H 35.323 V 0 Z"
             style="fill:#97918f;fill-opacity:1;fill-rule:nonzero;stroke:none"
             id="path38"
             inkscape:connector-curvature="0" /></g><g
           id="g40"
           transform="translate(502.4062,270.1377)"><path
             d="m 0,0 h 8.728 c 0,-7.235 -1.583,-12.543 -4.749,-15.92 -3.135,-3.376 -7.991,-5.066 -14.564,-5.066 -6.542,0 -11.609,1.794 -15.197,5.381 -3.557,3.621 -5.337,10.418 -5.337,20.4 V 24.56 c 0,15.89 7.027,23.835 21.076,23.835 12.031,0 18.048,-5.111 18.048,-15.331 v -4.207 h -8.731 v 2.216 c 0,6.753 -3.24,10.13 -9.722,10.13 -3.56,0 -6.438,-1.131 -8.64,-3.391 -2.202,-2.262 -3.3,-7.251 -3.3,-14.972 V 3.618 c 0,-5.85 0.813,-10.221 2.44,-13.116 1.659,-2.864 4.812,-4.297 9.454,-4.297 3.286,0 5.849,1.222 7.69,3.665 C -0.937,-7.66 0,-4.28 0,0"
             style="fill:#97918f;fill-opacity:1;fill-rule:nonzero;stroke:none"
             id="path42"
             inkscape:connector-curvature="0" /></g><g
           id="g44"
           transform="translate(520.7085,317.1301)"><path
             d="M 0,0 H 43.465 V -7.416 H 26.099 v -59.16 h -8.731 v 59.16 L 0,-7.416 Z"
             style="fill:#97918f;fill-opacity:1;fill-rule:nonzero;stroke:none"
             id="path46"
             inkscape:connector-curvature="0" /></g><g
           id="g48"
           transform="translate(584.8749,288.5003)"><path
             d="m 0,0 h 12.529 c 2.802,0 5.02,1.011 6.647,3.032 1.66,2.018 2.489,4.702 2.489,8.049 0,2.744 -0.739,5.113 -2.218,7.101 -1.476,2.021 -3.678,3.032 -6.603,3.032 H 0 Z M -8.731,-37.947 V 28.63 h 22.934 c 5.093,0 9.059,-1.463 11.893,-4.388 2.865,-2.894 4.297,-6.98 4.297,-12.255 0,-8.534 -4.176,-13.677 -12.529,-15.424 3.588,-0.361 6.258,-1.539 8.005,-3.527 1.78,-1.991 2.774,-5.489 2.985,-10.495 0.274,-8.654 1.101,-15.484 2.49,-20.488 h -8.865 c -0.877,1.326 -1.479,4.221 -1.81,8.685 -0.302,4.461 -0.559,8.878 -0.77,13.252 -0.331,5.729 -3.601,8.594 -9.813,8.594 H 0 v -30.531 z"
             style="fill:#97918f;fill-opacity:1;fill-rule:nonzero;stroke:none"
             id="path50"
             inkscape:connector-curvature="0" /></g><path
           d="m 632.125,317.13 h 8.731 v -66.576 h -8.731 z"
           style="fill:#97918f;fill-opacity:1;fill-rule:nonzero;stroke:none"
           id="path52"
           inkscape:connector-curvature="0" /><g
           id="g54"
           transform="translate(690.455,270.1377)"><path
             d="m 0,0 h 8.728 c 0,-7.235 -1.583,-12.543 -4.749,-15.92 -3.135,-3.376 -7.991,-5.066 -14.564,-5.066 -6.542,0 -11.609,1.794 -15.197,5.381 -3.557,3.621 -5.337,10.418 -5.337,20.4 V 24.56 c 0,15.89 7.027,23.835 21.076,23.835 12.031,0 18.048,-5.111 18.048,-15.331 v -4.207 h -8.731 v 2.216 c 0,6.753 -3.24,10.13 -9.722,10.13 -3.56,0 -6.438,-1.131 -8.64,-3.391 -2.202,-2.262 -3.3,-7.251 -3.3,-14.972 V 3.618 c 0,-5.85 0.813,-10.221 2.44,-13.116 1.659,-2.864 4.812,-4.297 9.454,-4.297 3.286,0 5.849,1.222 7.69,3.665 C -0.937,-7.66 0,-4.28 0,0"
             style="fill:#97918f;fill-opacity:1;fill-rule:nonzero;stroke:none"
             id="path56"
             inkscape:connector-curvature="0" /></g><path
           d="m 715.859,317.13 h 8.731 v -66.576 h -8.731 z"
           style="fill:#97918f;fill-opacity:1;fill-rule:nonzero;stroke:none"
           id="path58"
           inkscape:connector-curvature="0" /><g
           id="g60"
           transform="translate(737.7349,317.1301)"><path
             d="M 0,0 H 43.465 V -7.416 H 26.099 v -59.16 h -8.731 v 59.16 L 0,-7.416 Z"
             style="fill:#97918f;fill-opacity:1;fill-rule:nonzero;stroke:none"
             id="path62"
             inkscape:connector-curvature="0" /></g><g
           id="g64"
           transform="translate(793.3074,250.5537)"><path
             d="M 0,0 V 66.576 H 34.781 V 59.16 H 8.728 V 37.947 H 32.88 V 30.53 H 8.728 V 7.416 H 35.323 V 0 Z"
             style="fill:#97918f;fill-opacity:1;fill-rule:nonzero;stroke:none"
             id="path66"
             inkscape:connector-curvature="0" /></g><g
           id="g68"
           transform="translate(337.2305,167.5318)"><path
             d="m 0,0 h 12.392 c 3.528,0 6.436,1.057 8.728,3.169 2.293,2.108 3.437,4.866 3.437,8.276 0,4.16 -1.144,7.252 -3.437,9.27 -2.292,2.051 -6.104,3.076 -11.442,3.076 H 0 Z m 0,31.21 h 12.436 c 6.633,0 9.952,3.483 9.952,10.447 0,3.166 -0.92,5.639 -2.76,7.417 -1.838,1.78 -4.357,2.67 -7.553,2.67 H 0 Z M -8.731,-7.416 V 59.16 h 22.254 c 5.426,0 9.709,-1.446 12.845,-4.341 3.166,-2.864 4.748,-6.739 4.748,-11.625 0,-9.016 -4.266,-14.247 -12.8,-15.693 9.98,-0.816 14.972,-6.227 14.972,-16.237 0,-6.304 -1.673,-10.99 -5.02,-14.066 -3.349,-3.075 -8.021,-4.614 -14.022,-4.614 z"
             style="fill:#97918f;fill-opacity:1;fill-rule:nonzero;stroke:none"
             id="path70"
             inkscape:connector-curvature="0" /></g><g
           id="g72"
           transform="translate(384.2667,160.1156)"><path
             d="M 0,0 V 66.576 H 34.781 V 59.16 H 8.728 V 37.947 H 32.88 V 30.53 H 8.728 V 7.416 H 35.323 V 0 Z"
             style="fill:#97918f;fill-opacity:1;fill-rule:nonzero;stroke:none"
             id="path74"
             inkscape:connector-curvature="0" /></g><g
           id="g76"
           transform="translate(424.5658,226.6919)"><path
             d="M 0,0 H 43.465 V -7.416 H 26.099 v -59.16 h -8.731 v 59.16 L 0,-7.416 Z"
             style="fill:#97918f;fill-opacity:1;fill-rule:nonzero;stroke:none"
             id="path78"
             inkscape:connector-curvature="0" /></g><g
           id="g80"
           transform="translate(470.879,226.6919)"><path
             d="M 0,0 H 43.465 V -7.416 H 26.099 v -59.16 h -8.731 v 59.16 L 0,-7.416 Z"
             style="fill:#97918f;fill-opacity:1;fill-rule:nonzero;stroke:none"
             id="path82"
             inkscape:connector-curvature="0" /></g><g
           id="g84"
           transform="translate(523.2117,160.1156)"><path
             d="M 0,0 V 66.576 H 34.781 V 59.16 H 8.728 V 37.947 H 32.88 V 30.53 H 8.728 V 7.416 H 35.323 V 0 Z"
             style="fill:#97918f;fill-opacity:1;fill-rule:nonzero;stroke:none"
             id="path86"
             inkscape:connector-curvature="0" /></g><g
           id="g88"
           transform="translate(570.0671,226.6919)"><path
             d="M 0,0 H 12.121 L 38.355,-57.484 V 0 h 7.597 V -66.576 H 34.238 L 7.6,-8.594 V -66.576 H 0 Z"
             style="fill:#97918f;fill-opacity:1;fill-rule:nonzero;stroke:none"
             id="path90"
             inkscape:connector-curvature="0" /></g><g
           id="g92"
           transform="translate(640.3077,167.5318)"><path
             d="m 0,0 h 8.64 c 5.88,0 9.996,1.449 12.346,4.343 2.383,2.925 3.574,7.838 3.574,14.745 v 14.879 c 0,6.453 -1.101,11.021 -3.3,13.705 -2.202,2.714 -5.444,4.072 -9.725,4.072 H 0 Z M -8.728,-7.416 V 59.16 h 20.534 c 7.145,0 12.513,-2.141 16.101,-6.422 3.587,-4.25 5.384,-12.694 5.384,-25.327 0,-15.079 -2.038,-24.65 -6.107,-28.72 -4.04,-4.072 -10.161,-6.107 -18.363,-6.107 z"
             style="fill:#97918f;fill-opacity:1;fill-rule:nonzero;stroke:none"
             id="path94"
             inkscape:connector-curvature="0" /></g><g
           id="g96"
           transform="translate(696.3458,206.2945)"><path
             d="m 0,0 v -22.887 c 0,-5.91 0.876,-10.311 2.624,-13.206 1.75,-2.864 4.976,-4.296 9.678,-4.296 4.283,0 7.389,1.325 9.32,3.979 1.958,2.653 2.938,7.282 2.938,13.885 V 0.452 c 0,4.675 -1.101,8.202 -3.303,10.585 -2.199,2.38 -5.2,3.571 -8.999,3.571 C 4.086,14.608 0,9.739 0,0 m -8.728,-22.117 v 21.936 c 0,6.965 1.777,12.362 5.338,16.191 3.557,3.859 8.788,5.79 15.692,5.79 6.877,0 12.091,-1.931 15.651,-5.79 C 31.511,12.181 33.288,6.844 33.288,0 v -22.117 c 0,-8.715 -1.673,-15.137 -5.02,-19.267 -3.346,-4.132 -8.624,-6.197 -15.829,-6.197 -7.63,0 -13.072,2.125 -16.328,6.378 -3.226,4.281 -4.839,10.642 -4.839,19.086"
             style="fill:#97918f;fill-opacity:1;fill-rule:nonzero;stroke:none"
             id="path98"
             inkscape:connector-curvature="0" /></g><g
           id="g100"
           transform="translate(753.063,198.0622)"><path
             d="m 0,0 h 12.529 c 2.802,0 5.02,1.011 6.647,3.032 1.66,2.018 2.489,4.702 2.489,8.049 0,2.744 -0.739,5.113 -2.218,7.101 -1.476,2.021 -3.678,3.032 -6.603,3.032 H 0 Z M -8.731,-37.947 V 28.63 h 22.934 c 5.094,0 9.059,-1.463 11.893,-4.388 2.865,-2.894 4.297,-6.98 4.297,-12.255 0,-8.534 -4.176,-13.677 -12.529,-15.424 3.588,-0.361 6.258,-1.539 8.005,-3.527 1.78,-1.991 2.774,-5.489 2.985,-10.495 0.274,-8.654 1.101,-15.484 2.49,-20.488 h -8.865 c -0.877,1.326 -1.479,4.221 -1.81,8.685 -0.302,4.461 -0.559,8.878 -0.77,13.252 -0.331,5.729 -3.601,8.594 -9.813,8.594 H 0 v -30.531 z"
             style="fill:#97918f;fill-opacity:1;fill-rule:nonzero;stroke:none"
             id="path102"
             inkscape:connector-curvature="0" /></g><g
           id="g104"
           transform="translate(795.3066,160.1156)"><path
             d="M 0,0 V 66.576 H 33.335 V 59.16 H 8.731 V 37.947 H 31.976 V 30.53 H 8.731 V 0 Z"
             style="fill:#97918f;fill-opacity:1;fill-rule:nonzero;stroke:none"
             id="path106"
             inkscape:connector-curvature="0" /></g></g></g></g></svg>