<svg xmlns="http://www.w3.org/2000/svg" xml:space="preserve" width="1087.253" height="370.862" viewBox="0 0 1087.253 370.862"><defs><clipPath clipPathUnits="userSpaceOnUse" id="a"><path d="M0 595.28h841.89V0H0Z"/></clipPath></defs><g clip-path="url(#a)" transform="matrix(1.33333 0 0 -1.33333 -17.602 582.48)"><path d="m0 0-97.039-78.59H18.274l-175.613-145.435c18.011-8.535 38.14-13.326 59.394-13.326 76.706 0 138.889 62.183 138.889 138.89C40.944-59.977 25.286-25.154 0 0" style="fill:#97918f;fill-opacity:1;fill-rule:nonzero;stroke:none" transform="translate(250.035 396.432)"/><path d="m0 0 176.424 145.939c-15 7.5-35.312 14.174-61.411 14.107-76.706-.198-138.889-62.183-138.889-138.889 0-55.135 32.126-102.766 78.68-125.195L138.087-.403z" style="fill:#f39200;fill-opacity:1;fill-rule:nonzero;stroke:none" transform="translate(37.078 276.814)"/><path d="M0 0v66.576h34.781V59.16H8.728V37.947H32.88V30.53H8.728V7.416h26.595V0Z" style="fill:#97918f;fill-opacity:1;fill-rule:nonzero;stroke:none" transform="translate(328.5 250.554)"/><path d="M0 0h8.728v-59.16h24.607v-7.416H0Z" style="fill:#97918f;fill-opacity:1;fill-rule:nonzero;stroke:none" transform="translate(378.055 317.13)"/><path d="M0 0v66.576h34.781V59.16H8.728V37.947H32.88V30.53H8.728V7.416h26.595V0Z" style="fill:#97918f;fill-opacity:1;fill-rule:nonzero;stroke:none" transform="translate(422.41 250.554)"/><path d="M0 0h8.728c0-7.235-1.583-12.543-4.749-15.92-3.135-3.376-7.991-5.066-14.564-5.066-6.542 0-11.609 1.794-15.197 5.381-3.557 3.621-5.337 10.418-5.337 20.4V24.56c0 15.89 7.027 23.835 21.076 23.835 12.031 0 18.048-5.111 18.048-15.331v-4.207H-.726v2.216c0 6.753-3.24 10.13-9.722 10.13-3.56 0-6.438-1.131-8.64-3.391-2.202-2.262-3.3-7.251-3.3-14.972V3.618c0-5.85.813-10.221 2.44-13.116 1.659-2.864 4.812-4.297 9.454-4.297 3.286 0 5.849 1.222 7.69 3.665C-.937-7.66 0-4.28 0 0" style="fill:#97918f;fill-opacity:1;fill-rule:nonzero;stroke:none" transform="translate(502.406 270.138)"/><path d="M0 0h43.465v-7.416H26.099v-59.16h-8.731v59.16H0Z" style="fill:#97918f;fill-opacity:1;fill-rule:nonzero;stroke:none" transform="translate(520.708 317.13)"/><path d="M0 0h12.529c2.802 0 5.02 1.011 6.647 3.032 1.66 2.018 2.489 4.702 2.489 8.049 0 2.744-.739 5.113-2.218 7.101-1.476 2.021-3.678 3.032-6.603 3.032H0Zm-8.731-37.947V28.63h22.934c5.093 0 9.059-1.463 11.893-4.388 2.865-2.894 4.297-6.98 4.297-12.255 0-8.534-4.176-13.677-12.529-15.424 3.588-.361 6.258-1.539 8.005-3.527 1.78-1.991 2.774-5.489 2.985-10.495.274-8.654 1.101-15.484 2.49-20.488h-8.865c-.877 1.326-1.479 4.221-1.81 8.685a684.566 684.566 0 0 0-.77 13.252c-.331 5.729-3.601 8.594-9.813 8.594H0v-30.531z" style="fill:#97918f;fill-opacity:1;fill-rule:nonzero;stroke:none" transform="translate(584.875 288.5)"/><path d="M632.125 317.13h8.731v-66.576h-8.731z" style="fill:#97918f;fill-opacity:1;fill-rule:nonzero;stroke:none"/><path d="M0 0h8.728c0-7.235-1.583-12.543-4.749-15.92-3.135-3.376-7.991-5.066-14.564-5.066-6.542 0-11.609 1.794-15.197 5.381-3.557 3.621-5.337 10.418-5.337 20.4V24.56c0 15.89 7.027 23.835 21.076 23.835 12.031 0 18.048-5.111 18.048-15.331v-4.207H-.726v2.216c0 6.753-3.24 10.13-9.722 10.13-3.56 0-6.438-1.131-8.64-3.391-2.202-2.262-3.3-7.251-3.3-14.972V3.618c0-5.85.813-10.221 2.44-13.116 1.659-2.864 4.812-4.297 9.454-4.297 3.286 0 5.849 1.222 7.69 3.665C-.937-7.66 0-4.28 0 0" style="fill:#97918f;fill-opacity:1;fill-rule:nonzero;stroke:none" transform="translate(690.455 270.138)"/><path d="M715.859 317.13h8.731v-66.576h-8.731z" style="fill:#97918f;fill-opacity:1;fill-rule:nonzero;stroke:none"/><path d="M0 0h43.465v-7.416H26.099v-59.16h-8.731v59.16H0Z" style="fill:#97918f;fill-opacity:1;fill-rule:nonzero;stroke:none" transform="translate(737.735 317.13)"/><path d="M0 0v66.576h34.781V59.16H8.728V37.947H32.88V30.53H8.728V7.416h26.595V0Z" style="fill:#97918f;fill-opacity:1;fill-rule:nonzero;stroke:none" transform="translate(793.307 250.554)"/><path d="M0 0h12.392c3.528 0 6.436 1.057 8.728 3.169 2.293 2.108 3.437 4.866 3.437 8.276 0 4.16-1.144 7.252-3.437 9.27-2.292 2.051-6.104 3.076-11.442 3.076H0Zm0 31.21h12.436c6.633 0 9.952 3.483 9.952 10.447 0 3.166-.92 5.639-2.76 7.417-1.838 1.78-4.357 2.67-7.553 2.67H0ZM-8.731-7.416V59.16h22.254c5.426 0 9.709-1.446 12.845-4.341 3.166-2.864 4.748-6.739 4.748-11.625 0-9.016-4.266-14.247-12.8-15.693 9.98-.816 14.972-6.227 14.972-16.237 0-6.304-1.673-10.99-5.02-14.066-3.349-3.075-8.021-4.614-14.022-4.614z" style="fill:#97918f;fill-opacity:1;fill-rule:nonzero;stroke:none" transform="translate(337.23 167.532)"/><path d="M0 0v66.576h34.781V59.16H8.728V37.947H32.88V30.53H8.728V7.416h26.595V0Z" style="fill:#97918f;fill-opacity:1;fill-rule:nonzero;stroke:none" transform="translate(384.267 160.116)"/><path d="M0 0h43.465v-7.416H26.099v-59.16h-8.731v59.16H0Z" style="fill:#97918f;fill-opacity:1;fill-rule:nonzero;stroke:none" transform="translate(424.566 226.692)"/><path d="M0 0h43.465v-7.416H26.099v-59.16h-8.731v59.16H0Z" style="fill:#97918f;fill-opacity:1;fill-rule:nonzero;stroke:none" transform="translate(470.879 226.692)"/><path d="M0 0v66.576h34.781V59.16H8.728V37.947H32.88V30.53H8.728V7.416h26.595V0Z" style="fill:#97918f;fill-opacity:1;fill-rule:nonzero;stroke:none" transform="translate(523.212 160.116)"/><path d="M0 0h12.121l26.234-57.484V0h7.597v-66.576H34.238L7.6-8.594v-57.982H0Z" style="fill:#97918f;fill-opacity:1;fill-rule:nonzero;stroke:none" transform="translate(570.067 226.692)"/><path d="M0 0h8.64c5.88 0 9.996 1.449 12.346 4.343 2.383 2.925 3.574 7.838 3.574 14.745v14.879c0 6.453-1.101 11.021-3.3 13.705-2.202 2.714-5.444 4.072-9.725 4.072H0Zm-8.728-7.416V59.16h20.534c7.145 0 12.513-2.141 16.101-6.422 3.587-4.25 5.384-12.694 5.384-25.327 0-15.079-2.038-24.65-6.107-28.72-4.04-4.072-10.161-6.107-18.363-6.107z" style="fill:#97918f;fill-opacity:1;fill-rule:nonzero;stroke:none" transform="translate(640.308 167.532)"/><path d="M0 0v-22.887c0-5.91.876-10.311 2.624-13.206 1.75-2.864 4.976-4.296 9.678-4.296 4.283 0 7.389 1.325 9.32 3.979 1.958 2.653 2.938 7.282 2.938 13.885V.452c0 4.675-1.101 8.202-3.303 10.585-2.199 2.38-5.2 3.571-8.999 3.571C4.086 14.608 0 9.739 0 0m-8.728-22.117V-.181c0 6.965 1.777 12.362 5.338 16.191 3.557 3.859 8.788 5.79 15.692 5.79 6.877 0 12.091-1.931 15.651-5.79 3.558-3.829 5.335-9.166 5.335-16.01v-22.117c0-8.715-1.673-15.137-5.02-19.267-3.346-4.132-8.624-6.197-15.829-6.197-7.63 0-13.072 2.125-16.328 6.378-3.226 4.281-4.839 10.642-4.839 19.086" style="fill:#97918f;fill-opacity:1;fill-rule:nonzero;stroke:none" transform="translate(696.346 206.294)"/><path d="M0 0h12.529c2.802 0 5.02 1.011 6.647 3.032 1.66 2.018 2.489 4.702 2.489 8.049 0 2.744-.739 5.113-2.218 7.101-1.476 2.021-3.678 3.032-6.603 3.032H0Zm-8.731-37.947V28.63h22.934c5.094 0 9.059-1.463 11.893-4.388 2.865-2.894 4.297-6.98 4.297-12.255 0-8.534-4.176-13.677-12.529-15.424 3.588-.361 6.258-1.539 8.005-3.527 1.78-1.991 2.774-5.489 2.985-10.495.274-8.654 1.101-15.484 2.49-20.488h-8.865c-.877 1.326-1.479 4.221-1.81 8.685a684.566 684.566 0 0 0-.77 13.252c-.331 5.729-3.601 8.594-9.813 8.594H0v-30.531z" style="fill:#97918f;fill-opacity:1;fill-rule:nonzero;stroke:none" transform="translate(753.063 198.062)"/><path d="M0 0v66.576h33.335V59.16H8.731V37.947h23.245V30.53H8.731V0Z" style="fill:#97918f;fill-opacity:1;fill-rule:nonzero;stroke:none" transform="translate(795.307 160.116)"/></g></svg>