<svg viewBox="0 0 237 55" xmlns="http://www.w3.org/2000/svg" xml:space="preserve" style="fill-rule:evenodd;clip-rule:evenodd;stroke-linejoin:round;stroke-miterlimit:2"><path style="fill:url(#a)" d="M.199.102h54.079v54.08H.199z"/><path d="M4.422 1.053c-1.047 0-1.733.886-1.895 2.126 0 0-1.351 7.098-1.351 22.173 0 15.081 1.351 24.949 1.351 24.949.123 1.192.848 2.125 1.895 2.125h46.81c1.046 0 1.877-.829 1.896-2.125 0 0-.521-11.559-.521-22.846 0-11.288.521-24.276.521-24.276.025-1.155-.85-2.126-1.896-2.126H4.422Z" style="fill:url(#b);fill-rule:nonzero"/><path d="M30.711 6.477c1.476.62 7.411 3.83 8.138 4.854-2.985.395-8.841 1.919-11.996 3.454l-.184.373c3.479-.767 8.339-1.167 11.692-1.349-1.252 1.835-2.08 2.711-3.984 4.788L34.2 19c3.629-2.179 4.649-2.336 7.993-4.294 1.264 1.868 1.568 6.173 1.617 9.585 1.087-2.164 2.409-10.319 1.859-11.792 2.219-1.522 2.519-2.749 2.519-2.749-2.034.177-3.156.21-4.252.557-2.598-1.593-8.555-3.697-13.053-4.204l-.172.374Z" style="fill:url(#c);fill-rule:nonzero"/><path d="M8.559 31.818c-.295 2.718-.413 4.661-.025 6.833-1.098.305-2.063.348-2.949.725l-.169.372c1.41.87 2.559 1.537 4.153 2.282.853 1.832 1.736 3.068 3.164 4.479l.175-.377c-.257-1.042-.59-1.902-.465-3.042 1.773.518 3.294.79 5.315.852l.17-.377c-1.776-.69-3.552-1.233-4.99-2.588.454-1.257.97-2.243 1.815-3.488l.178-.383c-1.526.23-2.91.789-4.229 1.046-1.042-1.829-1.446-4.332-1.97-6.714l-.173.38Z" style="fill:url(#d);fill-rule:nonzero"/><path d="M17.614 19.42s-1.143-.108-3.033-.051c-1.597.074-3.979.216-5.138.555l-.169.373c1.842.079 4.364.573 5.331 1.542 0 0-2.797 2.522-5.567 8.041 0 0 5.022-4.713 7.2-5.882 0 0 1.139 3.796 1.931 5.696l.174-.38c.219-1.22.764-4.532 1.69-6.557 0 0 .328-.201 1.934-.356 1.611-.144 3.887-.229 8.21.53l.175-.373c-.987-.582-4.92-2.267-9.084-2.829h.136c.572-1.681 1.286-2.949 1.286-2.949-.883.126-3.395 1.3-5.076 2.64Z" style="fill:url(#e);fill-rule:nonzero"/><path d="M28.135 42.705a51.753 51.753 0 0 1-.146-2.192 42.491 42.491 0 0 1-2.583 3.199c-1.022.284-2.189.272-3.253.259-.418-.004-.821-.009-1.191.004l-.173.378c.99.508 1.958.821 2.995 1.034-.84.763-1.962 1.346-2.749 1.878l-.175.371c1.689-.399 3.914-1.116 5.571-2.094.861.038 1.667-.019 2.259-.137 0 0 .176-.385.176-.376-.108-.382-.446-.615-.547-1.149 1.553-1.206 2.678-2.304 3.978-3.609l.179-.379c-1.283.884-2.839 2.101-4.341 2.813Z" style="fill:url(#f);fill-rule:nonzero"/><path d="M42.366 14.325c-3.337 1.962-4.36 2.127-7.989 4.299 2.113-2.293 2.848-3.268 4.156-5.187-3.346.176-8.208.579-11.68 1.348 3.022-1.614 9.013-3.408 12.176-3.836-.734-1.012-6.669-4.227-8.145-4.846 4.698.366 10.442 2.122 13.226 3.824 1.096-.342 2.235-.359 4.274-.54-.52.892-.542 1.407-2.542 2.734.554 1.482-.77 9.632-1.863 11.791-.04-3.41-.338-7.716-1.613-9.587M17.928 43.564c-1.918-.712-3.299-1.539-4.82-2.961.456-1.257.975-2.238 1.823-3.497-1.559.233-2.709.409-4.052.663-1.094-1.914-1.59-3.76-2.146-6.331-.299 2.724-.412 4.67-.027 6.838-1.233.343-2.107.642-3.121 1.1 1.422.869 2.57 1.539 4.157 2.279.854 1.83 1.735 3.066 3.166 4.477-.335-1.202-.424-2.157-.286-3.418 1.773.517 3.292.788 5.306.85M22.921 16.457c-.597.776-1.29 2.222-1.478 2.894 4.943.669 8.91 3.208 8.91 3.208-4.323-.767-6.601-.671-8.213-.527-1.603.152-1.932.34-1.932.34-1.166 2.555-1.865 6.942-1.865 6.942-.787-1.896-1.923-5.693-1.923-5.693-2.181 1.166-7.197 5.884-7.197 5.884 2.757-5.523 5.556-8.036 5.556-8.036-.963-.976-3.488-1.463-5.335-1.544.958-.392 3.419-.849 5.309-.936 1.892-.054 3.036.053 3.036.053 1.688-1.332 4.249-2.455 5.132-2.585M28.164 40.14a40.476 40.476 0 0 1-2.591 3.195c-1.663.467-2.99.641-4.612.641.995.513 1.959.821 2.998 1.038-1.039.94-1.916 1.61-2.925 2.251 1.691-.4 3.913-1.118 5.567-2.096.864.034 1.672-.022 2.265-.139a12.797 12.797 0 0 1-.375-1.527c1.558-1.206 2.689-2.299 3.985-3.611-1.38.963-2.57 1.682-4.166 2.436a42.014 42.014 0 0 1-.146-2.188" style="fill:#fff;fill-rule:nonzero"/><path d="M74.414 8.025c-.602 0-1.287.05-1.628.102-.103 2.442-.157 3.755-.157 6.591 0 3.336 0 4.728.132 7.434.604.024 1.577.024 2.126.024 3.545 0 5.305-1.023 5.305-3.071 0-2.414-2.914-3.281-5.121-3.281h-1.025l1.025-2.601h.631c1.496 0 3.625-.686 3.625-2.525 0-1.941-1.313-2.673-4.913-2.673m2.837-2.049c3.283 0 6.75 1.206 6.75 4.253 0 1.839-1.55 3.467-3.888 4.069 3.179.97 4.832 2.679 4.832 5.016 0 3.729-4.411 5.042-8.612 5.042h-8.535c.236-2.416.287-5.88.287-9.638 0-2.521-.025-6.327-.262-8.742h9.428ZM105.436 15.479c-.106 1.84-.21 5.571-.236 7.776-1.785.97-4.125 1.472-7.065 1.472-6.669 0-10.845-4.204-10.845-9.483 0-5.567 4.413-9.638 11.713-9.638 1.68 0 3.334.264 4.964.655l-1.158 3.077c-.996-.607-2.231-1.103-3.884-1.103-4.782 0-6.46 3.833-6.46 7.064 0 5.382 3.07 7.008 6.484 7.008.603 0 1.182-.105 1.708-.235-.027-2.18-.158-5.015-.237-6.593h5.016ZM124.404 24.356h-14.392c.263-2.545.263-8.01.263-9.609 0-1.788-.107-6.648-.263-8.772h5.042c-.13 2.124-.236 6.958-.236 8.772 0 1.206.027 4.619.106 7.245h2.705c2.784 0 4.833-.157 6.775-.313v2.677ZM73.735 33.691c3.171.009 4.349.664 4.349 2.399 0 .461-.14.866-.423 1.204-.607.729-1.813 1.101-3.317 1.029h-.073l-.873 2.294h.883c1.748-.056 3.267.494 4.043 1.451.361.438.539.938.539 1.479 0 1.816-1.585 2.743-4.712 2.743-.524 0-1.376 0-1.917-.032-.113-2.397-.119-5.648-.119-6.617 0-1.136.048-3.679.125-5.845.353-.063.949-.11 1.495-.105m-5.868-1.661c.128 1.722.219 6.035.219 7.611 0 1.444-.019 6.298-.241 8.398l-.024.17 7.599.005c3.706 0 7.67-1.181 7.67-4.483 0-2.078-1.502-3.608-4.312-4.451 2.059-.545 3.464-1.979 3.464-3.623 0-2.697-3.105-3.72-6.008-3.785l-8.381-.005.014.163ZM100.599 31.867h-3.683l.155 4.108c.066 2.054.132 4.143.27 6.167-.255-.617-.459-.962-1.559-2.583-.036-.058-3.865-5.976-5.197-7.645l-.036-.047h-4.298l.011.156c.124 1.721.211 6.025.211 7.613 0 1.444-.013 6.302-.236 8.398l-.02.17h3.814l-.008-.158c-.222-4.004-.222-8.021-.222-11.91v-.009c.128.468.312.887.914 1.779.062.105 6.615 9.669 6.945 10.237l.037.061h3.071l-.024-.17c-.223-2.098-.239-6.954-.239-8.398 0-1.588.093-5.897.213-7.613l.013-.156h-.132ZM110.605 33.831c2.129-.035 3.627.401 4.344 1.288.325.405.49.901.49 1.486 0 2.368-2.646 2.862-4.869 2.862l-.902-.03-.359-.054a110.157 110.157 0 0 1 .03-5.443c.283-.051.779-.1 1.266-.109m-5.568-1.807c.123 1.728.213 6.029.213 7.613 0 1.444-.017 6.3-.244 8.396l-.012.165h4.549l-.021-.165c-.155-1.496-.213-4.367-.233-6.58.186.007.835.04.835.04l.637.033c5.993 0 8.907-1.607 8.907-4.921 0-3.785-4.083-4.665-7.503-4.737l-7.141-.005.013.161ZM133.927 33.831c2.124-.035 3.625.401 4.343 1.288.322.405.489.901.489 1.486 0 2.368-2.644 2.862-4.873 2.862l-.9-.03-.355-.054a62.146 62.146 0 0 1-.029-2.075c0-1.041.018-2.229.059-3.368.279-.051.776-.1 1.266-.109m-5.576-1.807c.127 1.728.221 6.029.221 7.613 0 1.444-.02 6.3-.247 8.396l-.015.165h4.55l-.023-.165c-.152-1.496-.211-4.367-.23-6.58.191.007.834.04.834.04l.642.033c5.984 0 8.903-1.607 8.903-4.921 0-3.785-4.081-4.665-7.508-4.737l-7.134-.005.007.161ZM150.189 36.686c.36.766 1.294 2.955 2.345 5.54-.161 0-.348.005-.348.005l-1.997.03s-2.074-.035-2.398-.046a151.19 151.19 0 0 1 2.398-5.529m-1.109-4.814h-.077l-.034.091c-.842 2.32-6.284 14.202-7.133 16.025l-.103.226h3.901l.025-.096a60.25 60.25 0 0 1 1.289-3.747c.143 0 3.222-.049 3.222-.049l2.655.031s.469.018.581.018c.706 1.759 1.228 3.095 1.455 3.754l.032.089h4.513l-7.278-16.342h-3.048ZM161.209 32.024c.119 1.721.216 6.029.216 7.613 0 1.444-.017 6.3-.247 8.396l-.018.172h4.55l-.014-.17c-.228-2.105-.246-6.954-.246-8.398 0-1.132.05-3.68.131-5.706.376-.042.886-.09 1.231-.097 2.124-.038 3.625.407 4.341 1.29.326.4.496.896.496 1.481 0 1.882-1.776 2.839-3.424 2.932-.546.023-.966-.051-.966-.051l-.313-.054.2.291c1.592 2.359 4.016 6.465 5.035 8.421l.038.07h4.871l-.144-.244c-.17-.263-3.359-4.944-4.718-6.945 0 0-.047-.067-.086-.128 2.479-.743 3.696-2.149 3.696-4.292 0-3.782-4.086-4.66-7.51-4.732l-7.133-.005.014.156ZM183.551 31.858h-4.358l.015.156c.124 1.73.217 6.039.217 7.618 0 1.441-.02 6.292-.243 8.393l-.015.172h4.543l-.018-.172c-.22-2.101-.24-6.952-.24-8.393 0-1.584.093-5.892.215-7.618l.014-.156h-.13ZM193.675 33.691c3.168.009 4.353.664 4.353 2.399 0 .461-.146.866-.434 1.204-.596.729-1.806 1.101-3.31 1.029h-.078l-.871 2.294h.887c1.753-.056 3.258.494 4.039 1.451.361.438.539.938.539 1.479 0 1.816-1.581 2.743-4.705 2.743-.532 0-1.383 0-1.925-.032-.109-2.397-.113-5.648-.113-6.617 0-1.141.048-3.684.128-5.845a8.95 8.95 0 0 1 1.49-.105m-5.867-1.661c.122 1.722.213 6.035.213 7.611 0 1.444-.018 6.298-.24 8.398l-.018.17 7.593.005c3.711 0 7.671-1.181 7.671-4.483 0-2.078-1.499-3.608-4.313-4.451 2.064-.545 3.466-1.979 3.466-3.623 0-2.697-3.098-3.72-6.003-3.785l-8.382-.005.013.163ZM212.335 36.667c.362.773 1.293 2.958 2.348 5.533-.16.003-.344.014-.344.014l-2.005.035s-2.061-.046-2.39-.049a151.05 151.05 0 0 1 2.391-5.533m1.878-4.809h-3.062l-.03.086c-.898 2.471-6.661 15-7.135 16.03l-.109.223h3.909l.024-.095a61.243 61.243 0 0 1 1.29-3.75c.136-.004 3.218-.051 3.218-.051l2.663.04s.461.007.582.011c.702 1.763 1.22 3.086 1.449 3.757l.03.088h4.515l-7.276-16.339h-.068ZM222.826 36.094c0 2.879 2.893 4.038 5.441 5.072 1.984.801 4.028 1.633 4.028 2.995 0 .424-.099.752-.317 1.009-.469.561-1.448.798-2.983.724-1.498-.072-3.217-.559-5.115-1.442l-.799-.365.006.633v2.932l.518.117.313.065c.957.228 2.77.659 4.605.659 4.795 0 7.658-1.898 7.658-5.07 0-2.944-2.956-4.124-5.563-5.165-1.928-.767-3.914-1.558-3.914-2.814 0-.365 0-1.462 2.465-1.462 1.845 0 3.646.747 4.622 1.157l.94.384-.011-.619v-2.967l-.929-.168c-.924-.177-2.47-.475-4.075-.475-4.124 0-6.89 1.929-6.89 4.8" style="fill:#231f20;fill-rule:nonzero"/><defs><linearGradient id="a" x1="0" y1="0" x2="1" y2="0" gradientUnits="userSpaceOnUse" gradientTransform="rotate(90 14.233 13.005) scale(57.0872)"><stop offset="0" style="stop-color:#007f53;stop-opacity:1"/><stop offset=".6" style="stop-color:#7fcbae;stop-opacity:1"/><stop offset="1" style="stop-color:#00a76d;stop-opacity:1"/></linearGradient><linearGradient id="b" x1="0" y1="0" x2="1" y2="0" gradientUnits="userSpaceOnUse" gradientTransform="rotate(90 20.242 6.91) scale(64.1503)"><stop offset="0" style="stop-color:#00a76d;stop-opacity:1"/><stop offset=".3" style="stop-color:#7fcbae;stop-opacity:1"/><stop offset=".55" style="stop-color:#00a76d;stop-opacity:1"/><stop offset=".84" style="stop-color:#007f53;stop-opacity:1"/><stop offset="1" style="stop-color:#00ad7e;stop-opacity:1"/></linearGradient><linearGradient id="c" x1="0" y1="0" x2="1" y2="0" gradientUnits="userSpaceOnUse" gradientTransform="rotate(-90 42.353 4.924) scale(41.5133)"><stop offset="0" style="stop-color:#06b387;stop-opacity:1"/><stop offset="1" style="stop-color:#00a76d;stop-opacity:1"/></linearGradient><linearGradient id="d" x1="0" y1="0" x2="1" y2="0" gradientUnits="userSpaceOnUse" gradientTransform="rotate(-90 29.475 17.803) scale(41.5258)"><stop offset="0" style="stop-color:#06b387;stop-opacity:1"/><stop offset="1" style="stop-color:#00a76d;stop-opacity:1"/></linearGradient><linearGradient id="e" x1="0" y1="0" x2="1" y2="0" gradientUnits="userSpaceOnUse" gradientTransform="rotate(-90 33.481 13.786) scale(41.4968)"><stop offset="0" style="stop-color:#06b387;stop-opacity:1"/><stop offset="1" style="stop-color:#00a76d;stop-opacity:1"/></linearGradient><linearGradient id="f" x1="0" y1="0" x2="1" y2="0" gradientUnits="userSpaceOnUse" gradientTransform="rotate(-90 36.953 10.32) scale(41.5128)"><stop offset="0" style="stop-color:#06b387;stop-opacity:1"/><stop offset="1" style="stop-color:#00a76d;stop-opacity:1"/></linearGradient></defs></svg>