<?xml version="1.0" encoding="UTF-8" standalone="no"?><!DOCTYPE svg PUBLIC "-//W3C//DTD SVG 1.1//EN" "http://www.w3.org/Graphics/SVG/1.1/DTD/svg11.dtd"><svg width="100%" height="100%" viewBox="0 0 237 55" version="1.1" xmlns="http://www.w3.org/2000/svg" xmlns:xlink="http://www.w3.org/1999/xlink" xml:space="preserve" xmlns:serif="http://www.serif.com/" style="fill-rule:evenodd;clip-rule:evenodd;stroke-linejoin:round;stroke-miterlimit:2;"><g id="bgl"><rect x="0.199" y="0.102" width="54.079" height="54.08" style="fill:url(#_Linear1);"/><path d="M4.422,1.053c-1.047,0 -1.733,0.886 -1.895,2.126c0,0 -1.351,7.098 -1.351,22.173c0,15.081 1.351,24.949 1.351,24.949c0.123,1.192 0.848,2.125 1.895,2.125l46.81,0c1.046,0 1.877,-0.829 1.896,-2.125c0,0 -0.521,-11.559 -0.521,-22.846c0,-11.288 0.521,-24.276 0.521,-24.276c0.025,-1.155 -0.85,-2.126 -1.896,-2.126l-46.81,0Z" style="fill:url(#_Linear2);fill-rule:nonzero;"/><path d="M30.711,6.477c1.476,0.62 7.411,3.83 8.138,4.854c-2.985,0.395 -8.841,1.919 -11.996,3.454l-0.184,0.373c3.479,-0.767 8.339,-1.167 11.692,-1.349c-1.252,1.835 -2.08,2.711 -3.984,4.788l-0.177,0.403c3.629,-2.179 4.649,-2.336 7.993,-4.294c1.264,1.868 1.568,6.173 1.617,9.585c1.087,-2.164 2.409,-10.319 1.859,-11.792c2.219,-1.522 2.519,-2.749 2.519,-2.749c-2.034,0.177 -3.156,0.21 -4.252,0.557c-2.598,-1.593 -8.555,-3.697 -13.053,-4.204l-0.172,0.374Z" style="fill:url(#_Linear3);fill-rule:nonzero;"/><path d="M8.559,31.818c-0.295,2.718 -0.413,4.661 -0.025,6.833c-1.098,0.305 -2.063,0.348 -2.949,0.725l-0.169,0.372c1.41,0.87 2.559,1.537 4.153,2.282c0.853,1.832 1.736,3.068 3.164,4.479l0.175,-0.377c-0.257,-1.042 -0.59,-1.902 -0.465,-3.042c1.773,0.518 3.294,0.79 5.315,0.852l0.17,-0.377c-1.776,-0.69 -3.552,-1.233 -4.99,-2.588c0.454,-1.257 0.97,-2.243 1.815,-3.488l0.178,-0.383c-1.526,0.23 -2.91,0.789 -4.229,1.046c-1.042,-1.829 -1.446,-4.332 -1.97,-6.714l-0.173,0.38Z" style="fill:url(#_Linear4);fill-rule:nonzero;"/><path d="M17.614,19.42c0,0 -1.143,-0.108 -3.033,-0.051c-1.597,0.074 -3.979,0.216 -5.138,0.555l-0.169,0.373c1.842,0.079 4.364,0.573 5.331,1.542c0,0 -2.797,2.522 -5.567,8.041c0,0 5.022,-4.713 7.2,-5.882c0,0 1.139,3.796 1.931,5.696l0.174,-0.38c0.219,-1.22 0.764,-4.532 1.69,-6.557c0,0 0.328,-0.201 1.934,-0.356c1.611,-0.144 3.887,-0.229 8.21,0.53l0.175,-0.373c-0.987,-0.582 -4.92,-2.267 -9.084,-2.829l0.136,0c0.572,-1.681 1.286,-2.949 1.286,-2.949c-0.883,0.126 -3.395,1.3 -5.076,2.64Z" style="fill:url(#_Linear5);fill-rule:nonzero;"/><path d="M28.135,42.705c-0.062,-0.737 -0.109,-1.363 -0.146,-2.192c-0.874,1.184 -1.62,2.116 -2.583,3.199c-1.022,0.284 -2.189,0.272 -3.253,0.259c-0.418,-0.004 -0.821,-0.009 -1.191,0.004l-0.173,0.378c0.99,0.508 1.958,0.821 2.995,1.034c-0.84,0.763 -1.962,1.346 -2.749,1.878l-0.175,0.371c1.689,-0.399 3.914,-1.116 5.571,-2.094c0.861,0.038 1.667,-0.019 2.259,-0.137c0,0 0.176,-0.385 0.176,-0.376c-0.108,-0.382 -0.446,-0.615 -0.547,-1.149c1.553,-1.206 2.678,-2.304 3.978,-3.609l0.179,-0.379c-1.283,0.884 -2.839,2.101 -4.341,2.813Z" style="fill:url(#_Linear6);fill-rule:nonzero;"/><path d="M42.366,14.325c-3.337,1.962 -4.36,2.127 -7.989,4.299c2.113,-2.293 2.848,-3.268 4.156,-5.187c-3.346,0.176 -8.208,0.579 -11.68,1.348c3.022,-1.614 9.013,-3.408 12.176,-3.836c-0.734,-1.012 -6.669,-4.227 -8.145,-4.846c4.698,0.366 10.442,2.122 13.226,3.824c1.096,-0.342 2.235,-0.359 4.274,-0.54c-0.52,0.892 -0.542,1.407 -2.542,2.734c0.554,1.482 -0.77,9.632 -1.863,11.791c-0.04,-3.41 -0.338,-7.716 -1.613,-9.587" style="fill:#fff;fill-rule:nonzero;"/><path d="M17.928,43.564c-1.918,-0.712 -3.299,-1.539 -4.82,-2.961c0.456,-1.257 0.975,-2.238 1.823,-3.497c-1.559,0.233 -2.709,0.409 -4.052,0.663c-1.094,-1.914 -1.59,-3.76 -2.146,-6.331c-0.299,2.724 -0.412,4.67 -0.027,6.838c-1.233,0.343 -2.107,0.642 -3.121,1.1c1.422,0.869 2.57,1.539 4.157,2.279c0.854,1.83 1.735,3.066 3.166,4.477c-0.335,-1.202 -0.424,-2.157 -0.286,-3.418c1.773,0.517 3.292,0.788 5.306,0.85" style="fill:#fff;fill-rule:nonzero;"/><path d="M22.921,16.457c-0.597,0.776 -1.29,2.222 -1.478,2.894c4.943,0.669 8.91,3.208 8.91,3.208c-4.323,-0.767 -6.601,-0.671 -8.213,-0.527c-1.603,0.152 -1.932,0.34 -1.932,0.34c-1.166,2.555 -1.865,6.942 -1.865,6.942c-0.787,-1.896 -1.923,-5.693 -1.923,-5.693c-2.181,1.166 -7.197,5.884 -7.197,5.884c2.757,-5.523 5.556,-8.036 5.556,-8.036c-0.963,-0.976 -3.488,-1.463 -5.335,-1.544c0.958,-0.392 3.419,-0.849 5.309,-0.936c1.892,-0.054 3.036,0.053 3.036,0.053c1.688,-1.332 4.249,-2.455 5.132,-2.585" style="fill:#fff;fill-rule:nonzero;"/><path d="M28.164,40.14c-0.872,1.184 -1.623,2.114 -2.591,3.195c-1.663,0.467 -2.99,0.641 -4.612,0.641c0.995,0.513 1.959,0.821 2.998,1.038c-1.039,0.94 -1.916,1.61 -2.925,2.251c1.691,-0.4 3.913,-1.118 5.567,-2.096c0.864,0.034 1.672,-0.022 2.265,-0.139c-0.155,-0.501 -0.249,-0.875 -0.375,-1.527c1.558,-1.206 2.689,-2.299 3.985,-3.611c-1.38,0.963 -2.57,1.682 -4.166,2.436c-0.069,-0.736 -0.109,-1.359 -0.146,-2.188" style="fill:#fff;fill-rule:nonzero;"/><path d="M74.414,8.025c-0.602,0 -1.287,0.05 -1.628,0.102c-0.103,2.442 -0.157,3.755 -0.157,6.591c0,3.336 0,4.728 0.132,7.434c0.604,0.024 1.577,0.024 2.126,0.024c3.545,0 5.305,-1.023 5.305,-3.071c0,-2.414 -2.914,-3.281 -5.121,-3.281l-1.025,0l1.025,-2.601l0.631,0c1.496,0 3.625,-0.686 3.625,-2.525c0,-1.941 -1.313,-2.673 -4.913,-2.673m2.837,-2.049c3.283,0 6.75,1.206 6.75,4.253c0,1.839 -1.55,3.467 -3.888,4.069c3.179,0.97 4.832,2.679 4.832,5.016c0,3.729 -4.411,5.042 -8.612,5.042l-8.535,0c0.236,-2.416 0.287,-5.88 0.287,-9.638c0,-2.521 -0.025,-6.327 -0.262,-8.742l9.428,0Z" style="fill:#231f20;fill-rule:nonzero;"/><path d="M105.436,15.479c-0.106,1.84 -0.21,5.571 -0.236,7.776c-1.785,0.97 -4.125,1.472 -7.065,1.472c-6.669,0 -10.845,-4.204 -10.845,-9.483c0,-5.567 4.413,-9.638 11.713,-9.638c1.68,0 3.334,0.264 4.964,0.655l-1.158,3.077c-0.996,-0.607 -2.231,-1.103 -3.884,-1.103c-4.782,0 -6.46,3.833 -6.46,7.064c0,5.382 3.07,7.008 6.484,7.008c0.603,0 1.182,-0.105 1.708,-0.235c-0.027,-2.18 -0.158,-5.015 -0.237,-6.593l5.016,0Z" style="fill:#231f20;fill-rule:nonzero;"/><path d="M124.404,24.356l-14.392,0c0.263,-2.545 0.263,-8.01 0.263,-9.609c0,-1.788 -0.107,-6.648 -0.263,-8.772l5.042,0c-0.13,2.124 -0.236,6.958 -0.236,8.772c0,1.206 0.027,4.619 0.106,7.245l2.705,0c2.784,0 4.833,-0.157 6.775,-0.313l0,2.677Z" style="fill:#231f20;fill-rule:nonzero;"/><path d="M73.735,33.691c3.171,0.009 4.349,0.664 4.349,2.399c0,0.461 -0.14,0.866 -0.423,1.204c-0.607,0.729 -1.813,1.101 -3.317,1.029l-0.073,0l-0.873,2.294l0.883,0c1.748,-0.056 3.267,0.494 4.043,1.451c0.361,0.438 0.539,0.938 0.539,1.479c0,1.816 -1.585,2.743 -4.712,2.743c-0.524,0 -1.376,0 -1.917,-0.032c-0.113,-2.397 -0.119,-5.648 -0.119,-6.617c0,-1.136 0.048,-3.679 0.125,-5.845c0.353,-0.063 0.949,-0.11 1.495,-0.105m-5.868,-1.661c0.128,1.722 0.219,6.035 0.219,7.611c0,1.444 -0.019,6.298 -0.241,8.398l-0.024,0.17l7.599,0.005c3.706,0 7.67,-1.181 7.67,-4.483c0,-2.078 -1.502,-3.608 -4.312,-4.451c2.059,-0.545 3.464,-1.979 3.464,-3.623c0,-2.697 -3.105,-3.72 -6.008,-3.785c-0.008,0 -8.381,-0.005 -8.381,-0.005l0.014,0.163Z" style="fill:#231f20;fill-rule:nonzero;"/><path d="M100.599,31.867l-3.683,0l0.155,4.108c0.066,2.054 0.132,4.143 0.27,6.167c-0.255,-0.617 -0.459,-0.962 -1.559,-2.583c-0.036,-0.058 -3.865,-5.976 -5.197,-7.645l-0.036,-0.047l-4.298,0l0.011,0.156c0.124,1.721 0.211,6.025 0.211,7.613c0,1.444 -0.013,6.302 -0.236,8.398l-0.02,0.17l3.814,0l-0.008,-0.158c-0.222,-4.004 -0.222,-8.021 -0.222,-11.91l0,-0.009c0.128,0.468 0.312,0.887 0.914,1.779c0.062,0.105 6.615,9.669 6.945,10.237l0.037,0.061l3.071,0l-0.024,-0.17c-0.223,-2.098 -0.239,-6.954 -0.239,-8.398c0,-1.588 0.093,-5.897 0.213,-7.613l0.013,-0.156l-0.132,0Z" style="fill:#231f20;fill-rule:nonzero;"/><path d="M110.605,33.831c2.129,-0.035 3.627,0.401 4.344,1.288c0.325,0.405 0.49,0.901 0.49,1.486c0,2.368 -2.646,2.862 -4.869,2.862l-0.902,-0.03c0,0 -0.218,-0.033 -0.359,-0.054c-0.013,-0.54 -0.02,-1.248 -0.02,-2.066c0,-1.038 0.014,-2.238 0.05,-3.377c0.283,-0.051 0.779,-0.1 1.266,-0.109m-5.568,-1.807c0.123,1.728 0.213,6.029 0.213,7.613c0,1.444 -0.017,6.3 -0.244,8.396l-0.012,0.165l4.549,0l-0.021,-0.165c-0.155,-1.496 -0.213,-4.367 -0.233,-6.58c0.186,0.007 0.835,0.04 0.835,0.04l0.637,0.033c5.993,0 8.907,-1.607 8.907,-4.921c0,-3.785 -4.083,-4.665 -7.503,-4.737l-7.141,-0.005l0.013,0.161Z" style="fill:#231f20;fill-rule:nonzero;"/><path d="M133.927,33.831c2.124,-0.035 3.625,0.401 4.343,1.288c0.322,0.405 0.489,0.901 0.489,1.486c0,2.368 -2.644,2.862 -4.873,2.862l-0.9,-0.03c0,0 -0.219,-0.033 -0.355,-0.054c-0.019,-0.54 -0.029,-1.258 -0.029,-2.075c0,-1.041 0.018,-2.229 0.059,-3.368c0.279,-0.051 0.776,-0.1 1.266,-0.109m-5.576,-1.807c0.127,1.728 0.221,6.029 0.221,7.613c0,1.444 -0.02,6.3 -0.247,8.396l-0.015,0.165l4.55,0l-0.023,-0.165c-0.152,-1.496 -0.211,-4.367 -0.23,-6.58c0.191,0.007 0.834,0.04 0.834,0.04l0.642,0.033c5.984,0 8.903,-1.607 8.903,-4.921c0,-3.785 -4.081,-4.665 -7.508,-4.737l-7.134,-0.005l0.007,0.161Z" style="fill:#231f20;fill-rule:nonzero;"/><path d="M150.189,36.686c0.36,0.766 1.294,2.955 2.345,5.54c-0.161,0 -0.348,0.005 -0.348,0.005l-1.997,0.03c0,0 -2.074,-0.035 -2.398,-0.046c0.846,-2.075 1.678,-3.945 2.398,-5.529m-1.109,-4.814l-0.077,0l-0.034,0.091c-0.842,2.32 -6.284,14.202 -7.133,16.025l-0.103,0.226l3.901,0l0.025,-0.096c0.336,-1.113 0.773,-2.377 1.289,-3.747c0.143,0 3.222,-0.049 3.222,-0.049l2.655,0.031c0,0 0.469,0.018 0.581,0.018c0.706,1.759 1.228,3.095 1.455,3.754l0.032,0.089l4.513,0l-7.278,-16.342l-0.069,0l-2.979,0Z" style="fill:#231f20;fill-rule:nonzero;"/><path d="M161.209,32.024c0.119,1.721 0.216,6.029 0.216,7.613c0,1.444 -0.017,6.3 -0.247,8.396l-0.018,0.172l4.55,0l-0.014,-0.17c-0.228,-2.105 -0.246,-6.954 -0.246,-8.398c0,-1.132 0.05,-3.68 0.131,-5.706c0.376,-0.042 0.886,-0.09 1.231,-0.097c2.124,-0.038 3.625,0.407 4.341,1.29c0.326,0.4 0.496,0.896 0.496,1.481c0,1.882 -1.776,2.839 -3.424,2.932c-0.546,0.023 -0.966,-0.051 -0.966,-0.051l-0.313,-0.054l0.2,0.291c1.592,2.359 4.016,6.465 5.035,8.421l0.038,0.07l4.871,0l-0.144,-0.244c-0.17,-0.263 -3.359,-4.944 -4.718,-6.945c0,0 -0.047,-0.067 -0.086,-0.128c2.479,-0.743 3.696,-2.149 3.696,-4.292c0,-3.782 -4.086,-4.66 -7.51,-4.732l-7.133,-0.005l0.014,0.156Z" style="fill:#231f20;fill-rule:nonzero;"/><path d="M183.551,31.858l-4.358,0l0.015,0.156c0.124,1.73 0.217,6.039 0.217,7.618c0,1.441 -0.02,6.292 -0.243,8.393l-0.015,0.172l4.543,0l-0.018,-0.172c-0.22,-2.101 -0.24,-6.952 -0.24,-8.393c0,-1.584 0.093,-5.892 0.215,-7.618l0.014,-0.156l-0.13,0Z" style="fill:#231f20;fill-rule:nonzero;"/><path d="M193.675,33.691c3.168,0.009 4.353,0.664 4.353,2.399c0,0.461 -0.146,0.866 -0.434,1.204c-0.596,0.729 -1.806,1.101 -3.31,1.029l-0.078,0l-0.871,2.294l0.887,0c1.753,-0.056 3.258,0.494 4.039,1.451c0.361,0.438 0.539,0.938 0.539,1.479c0,1.816 -1.581,2.743 -4.705,2.743c-0.532,0 -1.383,0 -1.925,-0.032c-0.109,-2.397 -0.113,-5.648 -0.113,-6.617c0,-1.141 0.048,-3.684 0.128,-5.845c0.343,-0.063 0.94,-0.11 1.49,-0.105m-5.867,-1.661c0.122,1.722 0.213,6.035 0.213,7.611c0,1.444 -0.018,6.298 -0.24,8.398l-0.018,0.17l7.593,0.005c3.711,0 7.671,-1.181 7.671,-4.483c0,-2.078 -1.499,-3.608 -4.313,-4.451c2.064,-0.545 3.466,-1.979 3.466,-3.623c0,-2.697 -3.098,-3.72 -6.003,-3.785c-0.004,0 -8.382,-0.005 -8.382,-0.005l0.013,0.163Z" style="fill:#231f20;fill-rule:nonzero;"/><path d="M212.335,36.667c0.362,0.773 1.293,2.958 2.348,5.533c-0.16,0.003 -0.344,0.014 -0.344,0.014l-2.005,0.035c0,0 -2.061,-0.046 -2.39,-0.049c0.84,-2.077 1.674,-3.942 2.391,-5.533m1.878,-4.809l-3.062,0l-0.03,0.086c-0.898,2.471 -6.661,15 -7.135,16.03l-0.109,0.223l3.909,0l0.024,-0.095c0.336,-1.116 0.775,-2.376 1.29,-3.75c0.136,-0.004 3.218,-0.051 3.218,-0.051l2.663,0.04c0,0 0.461,0.007 0.582,0.011c0.702,1.763 1.22,3.086 1.449,3.757l0.03,0.088l4.515,0l-7.276,-16.339l-0.068,0Z" style="fill:#231f20;fill-rule:nonzero;"/><path d="M222.826,36.094c0,2.879 2.893,4.038 5.441,5.072c1.984,0.801 4.028,1.633 4.028,2.995c0,0.424 -0.099,0.752 -0.317,1.009c-0.469,0.561 -1.448,0.798 -2.983,0.724c-1.498,-0.072 -3.217,-0.559 -5.115,-1.442l-0.799,-0.365l0.006,0.633l0,2.932l0.518,0.117l0.313,0.065c0.957,0.228 2.77,0.659 4.605,0.659c4.795,0 7.658,-1.898 7.658,-5.07c0,-2.944 -2.956,-4.124 -5.563,-5.165c-1.928,-0.767 -3.914,-1.558 -3.914,-2.814c0,-0.365 0,-1.462 2.465,-1.462c1.845,0 3.646,0.747 4.622,1.157l0.94,0.384l-0.011,-0.619l0,-2.967l-0.929,-0.168c-0.924,-0.177 -2.47,-0.475 -4.075,-0.475c-4.124,0 -6.89,1.929 -6.89,4.8" style="fill:#231f20;fill-rule:nonzero;"/></g><defs><linearGradient id="_Linear1" x1="0" y1="0" x2="1" y2="0" gradientUnits="userSpaceOnUse" gradientTransform="matrix(-2.5e-06,57.0872,-57.0872,-2.5e-06,27.238,-1.22851)"><stop offset="0" style="stop-color:#007f53;stop-opacity:1"/><stop offset="0.6" style="stop-color:#7fcbae;stop-opacity:1"/><stop offset="1" style="stop-color:#00a76d;stop-opacity:1"/></linearGradient><linearGradient id="_Linear2" x1="0" y1="0" x2="1" y2="0" gradientUnits="userSpaceOnUse" gradientTransform="matrix(-2.8e-06,64.1503,-64.1503,-2.8e-06,27.1526,-13.3323)"><stop offset="0" style="stop-color:#00a76d;stop-opacity:1"/><stop offset="0.3" style="stop-color:#7fcbae;stop-opacity:1"/><stop offset="0.55" style="stop-color:#00a76d;stop-opacity:1"/><stop offset="0.84" style="stop-color:#007f53;stop-opacity:1"/><stop offset="1" style="stop-color:#00ad7e;stop-opacity:1"/></linearGradient><linearGradient id="_Linear3" x1="0" y1="0" x2="1" y2="0" gradientUnits="userSpaceOnUse" gradientTransform="matrix(-1.8e-06,-41.5133,41.5133,-1.8e-06,37.4286,47.2766)"><stop offset="0" style="stop-color:#06b387;stop-opacity:1"/><stop offset="1" style="stop-color:#00a76d;stop-opacity:1"/></linearGradient><linearGradient id="_Linear4" x1="0" y1="0" x2="1" y2="0" gradientUnits="userSpaceOnUse" gradientTransform="matrix(-1.8e-06,-41.5258,41.5258,-1.8e-06,11.672,47.2778)"><stop offset="0" style="stop-color:#06b387;stop-opacity:1"/><stop offset="1" style="stop-color:#00a76d;stop-opacity:1"/></linearGradient><linearGradient id="_Linear5" x1="0" y1="0" x2="1" y2="0" gradientUnits="userSpaceOnUse" gradientTransform="matrix(-1.8e-06,-41.4968,41.4968,-1.8e-06,19.6955,47.2673)"><stop offset="0" style="stop-color:#06b387;stop-opacity:1"/><stop offset="1" style="stop-color:#00a76d;stop-opacity:1"/></linearGradient><linearGradient id="_Linear6" x1="0" y1="0" x2="1" y2="0" gradientUnits="userSpaceOnUse" gradientTransform="matrix(-1.8e-06,-41.5128,41.5128,-1.8e-06,26.6325,47.2742)"><stop offset="0" style="stop-color:#06b387;stop-opacity:1"/><stop offset="1" style="stop-color:#00a76d;stop-opacity:1"/></linearGradient></defs></svg>