<svg xmlns="http://www.w3.org/2000/svg" xml:space="preserve" width="416.362" height="267.256" viewBox="0 0 416.362 267.256"><defs><clipPath clipPathUnits="userSpaceOnUse" id="a"><path d="M0 595.276h841.89V0H0Z"/></clipPath><clipPath clipPathUnits="userSpaceOnUse" id="b"><path d="M272.635 329.1h312.271v-96.535H272.635Z"/></clipPath><clipPath clipPathUnits="userSpaceOnUse" id="c"><path d="M275.234 329.099c11.582-2.279 69.871-12.868 153.537-12.868 83.665 0 141.954 10.589 153.536 12.868a129.828 129.828 0 0 0 1.455-12.774 641.777 641.777 0 0 0 1.144-38.073c0-12.885-.386-26.018-1.144-39.036-.137-2.214-.34-4.433-.581-6.652-12.279 2.34-72.863 13.034-154.41 13.034-81.548 0-142.131-10.694-154.411-13.034a142.696 142.696 0 0 0-.581 6.652 674.568 674.568 0 0 0-1.144 39.036c0 12.566.386 25.376 1.144 38.073.272 4.308.767 8.566 1.455 12.774"/></clipPath><clipPath clipPathUnits="userSpaceOnUse" id="e"><path d="M296.091 303h266.774v-42.05H296.091Z"/></clipPath><linearGradient x1="0" y1="0" x2="1" y2="0" gradientUnits="userSpaceOnUse" gradientTransform="matrix(312.27036 0 0 -312.27036 272.635 280.832)" spreadMethod="pad" id="d"><stop style="stop-opacity:1;stop-color:#2b2826" offset="0"/><stop style="stop-opacity:1;stop-color:#2b2826" offset=".003"/><stop style="stop-opacity:1;stop-color:#33302e" offset=".02"/><stop style="stop-opacity:1;stop-color:#4d4c4a" offset=".188"/><stop style="stop-opacity:1;stop-color:#a3a29f" offset=".452"/><stop style="stop-opacity:1;stop-color:#a3a29f" offset=".502"/><stop style="stop-opacity:1;stop-color:#a3a29f" offset=".547"/><stop style="stop-opacity:1;stop-color:#444240" offset=".787"/><stop style="stop-opacity:1;stop-color:#444240" offset=".91"/><stop style="stop-opacity:1;stop-color:#33302e" offset=".963"/><stop style="stop-opacity:1;stop-color:#2b2826" offset=".995"/><stop style="stop-opacity:1;stop-color:#2b2826" offset="1"/></linearGradient></defs><g clip-path="url(#a)" transform="matrix(1.33333 0 0 -1.33333 -363.513 521.339)"><path d="M0 0c90.133 0 154.248-8.782 154.248-8.782.327 2.73.575 5.462.743 8.186a674.56 674.56 0 0 1 1.144 39.035c0 12.567-.386 25.376-1.144 38.074-.314 4.96-.905 9.861-1.768 14.688 0 0-60.929-8.938-153.223-8.938-92.295 0-153.224 8.938-153.224 8.938a130.156 130.156 0 0 1-1.768-14.688 641.811 641.811 0 0 1-1.144-38.074c0-12.884.386-26.017 1.144-39.035.169-2.724.416-5.456.743-8.186C-154.249-8.782-90.134 0 0 0" style="fill:#c8cfd2;fill-opacity:1;fill-rule:nonzero;stroke:none" transform="translate(428.77 239.812)"/><path d="M0 0c11.582-2.279 69.871-12.868 153.537-12.868 83.665 0 141.954 10.589 153.536 12.868a129.862 129.862 0 0 0 1.455-12.774 641.811 641.811 0 0 0 1.144-38.074 674.56 674.56 0 0 0-1.144-39.035c-.136-2.215-.34-4.433-.581-6.652-12.279 2.34-72.863 13.034-154.41 13.034-81.548 0-142.131-10.694-154.411-13.034a143.953 143.953 0 0 0-.581 6.652 674.56 674.56 0 0 0-1.144 39.035c0 12.567.386 25.376 1.144 38.074C-1.183-8.467-.687-4.208 0 0" style="fill:#0f9d4b;fill-opacity:1;fill-rule:nonzero;stroke:none" transform="translate(275.234 329.1)"/><g clip-path="url(#b)"><g clip-path="url(#c)"><path d="M275.234 329.099c11.582-2.279 69.871-12.868 153.537-12.868 83.665 0 141.954 10.589 153.536 12.868a129.828 129.828 0 0 0 1.455-12.774 641.777 641.777 0 0 0 1.144-38.073c0-12.885-.386-26.018-1.144-39.036-.137-2.214-.34-4.433-.581-6.652-12.279 2.34-72.863 13.034-154.41 13.034-81.548 0-142.131-10.694-154.411-13.034a142.696 142.696 0 0 0-.581 6.652 674.568 674.568 0 0 0-1.144 39.036c0 12.566.386 25.376 1.144 38.073.272 4.308.767 8.566 1.455 12.774" style="fill:url(#d);stroke:none"/></g></g><path d="M0 0c71.57 0 128.213 9.027 146.151 12.902C124.936 9.23 71.57 1.459 0 1.459c-71.569 0-124.935 7.771-146.15 11.443C-128.212 9.027-71.569 0 0 0" style="fill:#fff;fill-opacity:1;fill-rule:nonzero;stroke:none" transform="translate(428.553 310.552)"/><path d="M0 0c69.283 0 123.818-7.75 146.151-11.499C126.688-7.033 69.283 1.459 0 1.459c-69.283 0-126.688-8.492-146.15-12.958C-123.818-7.75-69.283 0 0 0" style="fill:#fff;fill-opacity:1;fill-rule:nonzero;stroke:none" transform="translate(428.553 249.818)"/><g clip-path="url(#e)"><path d="M0 0a.807.807 0 0 0-.73.456.806.806 0 0 0 .089.857l.399.509c.648.831 1.393 2.211 1.393 5.541v20.933c0 3.33-.745 4.71-1.394 5.541l-.398.509a.806.806 0 0 0-.089.857.807.807 0 0 0 .73.456h20.52c.38 0 .714-.27.794-.642l1.402-6.535a.809.809 0 0 0-.163-.68.809.809 0 0 0-.908-.255l-.535.193c-2.604.94-6.025 1.137-8.435 1.137-1.133 0-2.212-.089-2.953-.168v-5.522h6.835c2.009 0 4.463-1.129 4.739-6.513l.016-.331a.812.812 0 0 0-.811-.855H9.722V7.363c0-3.33.745-4.71 1.393-5.541l.399-.509a.81.81 0 0 0 .09-.857.808.808 0 0 0-.731-.456Zm23.822 0a.808.808 0 0 0-.73.456.806.806 0 0 0 .09.857l.398.509c.649.831 1.394 2.211 1.394 5.541v20.933c0 3.33-.745 4.71-1.394 5.541l-.398.509a.806.806 0 0 0-.09.857.808.808 0 0 0 .73.456h20.52c.381 0 .715-.27.795-.642l1.401-6.535a.81.81 0 0 0-1.071-.935l-.534.193c-2.605.94-6.025 1.137-8.436 1.137-1.133 0-2.212-.089-2.953-.168v-5.522h6.836c2.009 0 4.462-1.129 4.738-6.513l.017-.331a.816.816 0 0 0-.812-.855H33.544V7.363c0-3.331.745-4.711 1.394-5.541l.398-.509a.808.808 0 0 0 .09-.857.807.807 0 0 0-.731-.456Zm106.056 0a.808.808 0 0 0-.731.456.808.808 0 0 0 .091.857l.398.509c.649.831 1.394 2.211 1.394 5.541v20.933c0 3.33-.745 4.71-1.394 5.54l-.398.51a.807.807 0 0 0-.091.856.808.808 0 0 0 .731.457h10.873a.808.808 0 0 0 .731-.456.81.81 0 0 0-.089-.857l-.399-.51c-.649-.83-1.394-2.21-1.394-5.54V7.363c0-3.33.745-4.71 1.394-5.541l.398-.509a.808.808 0 0 0 .09-.857.808.808 0 0 0-.731-.456Zm13.421 0a.81.81 0 0 0-.641 1.313l.398.509c.649.831 1.394 2.211 1.394 5.541v20.933c0 3.33-.745 4.71-1.394 5.54l-.398.51a.809.809 0 0 0-.091.856.81.81 0 0 0 .732.457h4.056c2.27 0 3.922-.493 5.651-3.013 1.177-1.716 6.804-9.709 9.737-13.874v9.524c0 3.33-.744 4.71-1.393 5.54l-.399.51a.812.812 0 0 0 .642 1.313h8.971a.81.81 0 0 0 .732-.456.81.81 0 0 0-.09-.857l-.398-.51c-.65-.83-1.395-2.21-1.395-5.54V1.16l-.634-.309a5.144 5.144 0 0 0-2.099-.447c-1.31 0-2.488.402-3.977 2.361-.974 1.282-7.714 11.508-11.583 17.396V7.363c0-3.33.745-4.71 1.394-5.541l.398-.509a.808.808 0 0 0 .09-.857.807.807 0 0 0-.731-.456ZM47.84-.001a.81.81 0 0 0-.732.457.81.81 0 0 0 .091.857l.398.509c.649.831 1.394 2.211 1.394 5.541v20.933c0 3.33-.745 4.71-1.394 5.54l-.398.51a.809.809 0 0 0-.091.856.81.81 0 0 0 .732.457h19.651c.381 0 .715-.27.795-.642l1.402-6.535a.806.806 0 0 0-.164-.68.805.805 0 0 0-.908-.255l-.534.193c-2.12.765-4.709 1.137-7.915 1.137-1.057 0-1.976-.078-2.605-.15v-5.54h5.966c2.01 0 4.463-1.129 4.74-6.513l.016-.331a.812.812 0 0 0-.811-.855h-9.911V9.366c0-1.95.199-2.58 2.579-2.58 2.398 0 5.963.292 9.333 1.684l.32.132a.924.924 0 0 0 1.272-.968L70.221.72a.814.814 0 0 0-.808-.715Zm34.6 19.96c.493-.096 1.025-.147 1.871-.147 2.918 0 4.499.698 4.499 4.379 0 3.281-1.253 4.558-4.469 4.558-.74 0-1.345-.059-1.901-.187zM109.596 6.61a.808.808 0 0 0-.129-.44l.11.006c3.712.214 6.3 1.226 7.912 3.094 1.635 1.893 2.429 4.827 2.429 8.967 0 6.762-2.686 10.64-7.369 10.64-1.126 0-2.204-.088-2.953-.168zm-2.58-6.7c-2.767 0-5.637.063-7.876.171-5.594.271-9.739 2.396-12.319 6.317a865.149 865.149 0 0 0-4.381 6.744V7.363c0-3.33.746-4.71 1.395-5.541l.397-.509a.804.804 0 0 0 .091-.857.808.808 0 0 0-.731-.456H72.72a.81.81 0 0 0-.641 1.313l.398.509c.649.831 1.394 2.211 1.394 5.541v20.933c0 3.329-.745 4.71-1.394 5.541l-.398.509a.808.808 0 0 0-.09.857.807.807 0 0 0 .731.456h12.788c4.089 0 7.075-.925 9.128-2.827 2.016-1.868 3.038-4.675 3.038-8.343 0-4.997-1.964-8.007-6.165-9.405.975-1.513 2.576-3.985 3.441-5.264 1.569-2.316 3.965-3.338 8.549-3.644.245-.017.639-.03 1.126-.04-1.934.504-3.599 1.755-3.599 4.868v17.292c0 3.329-.745 4.71-1.394 5.541l-.398.509a.806.806 0 0 0-.089.857.806.806 0 0 0 .73.456h12.55c5.697 0 9.78-1.574 12.483-4.812 2.513-3.01 3.734-7.396 3.734-13.407 0-4.888-1.258-9.051-3.638-12.039-2.655-3.333-6.532-5.136-11.523-5.361a145.8 145.8 0 0 0-6.465-.13m-161.32 25.755c.795-.069 1.533-.084 2.502-.084 3.212 0 6.64.37 6.64 4.795 0 3.906-4.875 4.21-6.369 4.21-1.084 0-2.076-.08-2.773-.221zm0-18.591c1.019-.148 2.886-.276 5.056-.276 4.299 0 6.301 1.777 6.301 5.592 0 4.124-2.53 5.963-8.202 5.963h-.039c-1.01 0-2.134 0-3.116-.112zm-9.28-7.82a.806.806 0 0 0-.693.389.807.807 0 0 0-.032.793l.233.459c.821 1.613 1.14 3.131 1.14 5.414v27.893c0 2.283-.319 3.802-1.14 5.415l-.233.458a.809.809 0 0 0 .032.794.81.81 0 0 0 .693.388h14.234c4.592 0 7.942-.842 10.239-2.573 2.321-1.749 3.498-4.418 3.498-7.935 0-2.464-.671-5.74-3.698-7.965 4.009-2.124 5.598-5.425 5.598-11.391 0-7.147-4.9-12.139-11.916-12.139zm47.179 30.14c-4.042 0-5.924-3.534-5.924-11.119 0-5.233.802-8.79 2.384-10.571 1.204-1.356 2.609-1.356 3.54-1.356.929 0 2.335 0 3.54 1.356 1.581 1.781 2.383 5.338 2.383 10.571 0 11.119-4.303 11.119-5.923 11.119m0-30.187c-5.596 0-9.69 1.962-12.168 5.831-1.989 3.105-2.955 7.435-2.955 13.237 0 5.189 1.421 9.67 4.109 12.958 2.76 3.376 6.568 5.162 11.014 5.162 4.444 0 8.253-1.786 11.013-5.162 2.688-3.288 4.109-7.769 4.109-12.958 0-5.802-.966-10.132-2.955-13.237-2.479-3.869-6.573-5.831-12.167-5.831m205.131 0c-5.492 0-9.694 1.745-12.491 5.188-2.764 3.402-4.166 8.505-4.166 15.167 0 11.734 6.998 19.315 17.829 19.315 4.224 0 7.256-.654 10.465-2.258l.262-.131a.818.818 0 0 0 .389-1.036l-2.696-6.576a.812.812 0 0 0-1.221-.355l-.324.227c-2.219 1.564-3.739 2.523-6.875 2.523-2.636 0-4.661-.967-6.016-2.875-1.403-1.977-2.115-4.949-2.115-8.834 0-5.112.795-8.714 2.361-10.709 1.085-1.38 2.502-1.997 4.598-1.997 2.756 0 3.845.418 4.877 1.293v7.403h-4.553c-1.079 0-1.959.336-2.615.999-1.005 1.015-1.421 2.685-1.391 5.584l.003.311c.005.444.37.805.813.805h14.916c.453 0 .881-.177 1.173-.486.367-.389.51-.93.381-1.448-.513-2.065-.568-2.935-.568-4.3V6.725c0-1.308.069-4.329.07-4.358.017-.725-.445-1.276-1.128-1.353l-.052-.007a27.556 27.556 0 0 1-2.574-.371c-.285-.054-.684-.14-1.147-.24-2.076-.445-5.543-1.189-8.205-1.189" style="fill:#2a2522;fill-opacity:1;fill-rule:nonzero;stroke:none" transform="translate(360.489 261.743)"/></g><path d="M0 0c0-11.17-3.465-13.057-7.051-13.057-3.587 0-7.052 1.887-7.052 13.057 0 10.553 3.774 12.246 7.052 12.246C-3.772 12.246 0 10.552 0 0m-7.051-17.94C4.203-17.94 6.943-9.756 6.943 0c0 9.995-5.613 16.99-13.994 16.99-8.382 0-13.995-6.995-13.995-16.99 0-9.756 2.741-17.94 13.995-17.94M-41.795 1.205c6.336 0 9.33-2.287 9.33-7.091 0-4.604-2.678-6.719-7.428-6.719-2.951 0-5.545.228-6.184.508V.924c1.266.282 2.887.281 4.282.281m-4.282 5.175v10.55c.69.302 2.051.508 3.901.508 3.324 0 7.496-1.166 7.496-5.337 0-5.252-4.111-5.924-7.767-5.924-1.397 0-2.342.031-3.63.203m20.59-13.263c0 6.188-1.537 9.231-6.953 11.262.44.237 5.053 1.852 5.053 8.095 0 6.559-4.291 9.379-12.608 9.379h-13.721c.895-1.759 1.263-3.413 1.263-5.926v-27.894c0-2.513-.368-4.167-1.263-5.927h17.442c6.468 0 10.787 4.565 10.787 11.011m103.976-10.26.77 6.294c-3.13-1.293-6.668-1.769-9.764-1.769-3.096 0-3.708 1.224-3.708 3.708v6.873c0 .209.169.378.378.378h10.33c-.181 3.516-1.309 5.442-3.611 5.442h-6.719a.378.378 0 0 0-.378.378v6.818c0 .261.192.484.451.521.619.09 1.826.229 3.283.229 2.137 0 5.378-.15 8.298-1.204l-1.228 5.731h-18.75c.985-1.262 1.633-3.002 1.633-6.235v-20.934c0-3.233-.648-4.974-1.633-6.234zm18.629 5.886c2.322-3.529 6.147-5.555 11.431-5.811 3.627-.175 9.51-.253 14.236-.04 9.732.438 14.083 7.303 14.083 16.272 0 11.036-4.228 17.092-15.089 17.092h-11.903c.985-1.262 1.633-3.002 1.633-6.235V-7.271c0-3.888 3.025-4.08 6.313-4.08v22.78s1.945.3 4.081.3c4.3 0 8.498-2.896 8.498-11.767 0-8.757-3.405-12.727-11.405-13.188-1.432-.083-5.086-.076-6.218 0-4.828.323-7.583 1.442-9.408 4.138-1.071 1.582-3.256 4.976-4.017 6.16a.352.352 0 0 0 .21.532c3.998 1.01 6.337 3.31 6.337 8.61 0 6.651-3.459 10.042-11.038 10.042H82.721c.985-1.262 1.633-3.002 1.633-6.235v-20.934c0-3.233-.648-4.974-1.633-6.234h9.58c-.987 1.26-1.634 3.001-1.634 6.234v8.151c0 .433.564.599.797.235a884.424 884.424 0 0 1 5.654-8.73M90.667.796v10.33c.975.356 1.897.476 3.028.476 3.618 0 5.597-1.517 5.597-5.686 0-4.431-2.25-5.508-5.627-5.508-1.339 0-2.023.119-2.998.388m82.289-15.624c1.3-1.71 2.155-1.915 3.078-1.915.924 0 1.606.332 1.606.332v26.432c0 3.233.647 4.973 1.633 6.235h-7.68c.986-1.262 1.634-3.002 1.634-6.235V-1.827c0-.383-.491-.54-.711-.228-2.336 3.314-9.708 13.778-11.086 15.786-1.395 2.034-2.629 2.525-4.72 2.525h-3.41c.986-1.262 1.633-3.002 1.633-6.235v-20.934c0-3.233-.647-4.974-1.633-6.234h7.679c-.986 1.26-1.632 3.001-1.632 6.234V4.35c0 .388.504.541.717.215 2.65-4.036 11.783-17.933 12.892-19.393m-23.496-2.319c-.986 1.26-1.634 3.001-1.634 6.234v20.934c0 3.233.648 4.973 1.634 6.235h-9.581c.986-1.262 1.634-3.002 1.634-6.235v-20.934c0-3.233-.648-4.974-1.634-6.234zM53.441 16.256H33.823c.987-1.262 1.634-3.002 1.634-6.235v-20.934c0-3.233-.647-4.974-1.634-6.234h9.58c-.985 1.26-1.632 3.001-1.632 6.234v8.876c0 .209.168.378.376.378h11.199c-.181 3.516-1.31 5.442-3.612 5.442h-7.587a.377.377 0 0 0-.376.378v6.807c0 .266.198.49.461.523.702.089 2.113.238 3.62.238 2.136 0 5.899-.15 8.818-1.204zm153.78-32.787c1.14.217 2.141.334 2.59.381a.272.272 0 0 1 .245.279c-.017.791-.068 3.217-.068 4.319v10.293c0 1.471.064 2.403.602 4.573a.43.43 0 0 1-.417.533h-14.646c-.037-3.52.576-5.443 2.877-5.443h5.682v-9.033c-1.328-1.255-2.567-1.919-6.006-1.919-3.844 0-8.087 1.863-8.087 13.834 0 11.309 5.747 12.838 9.26 12.838 3.505 0 5.275-1.144 7.525-2.729l2.435 5.939c-2.753 1.376-5.531 2.14-9.96 2.14-10.062 0-16.701-7.013-16.701-18.188 0-10.455 3.467-19.226 15.528-19.226 3.143 0 7.592 1.113 9.141 1.409M30.848 10.525c-2.92 1.054-6.682 1.204-8.819 1.204-1.507 0-2.918-.149-3.619-.238a.527.527 0 0 1-.462-.523V4.161c0-.209.169-.378.377-.378h7.586c2.303 0 3.432-1.926 3.612-5.442H18.325a.377.377 0 0 1-.377-.378v-8.876c0-3.233.647-4.974 1.633-6.234h-9.58c.986 1.26 1.633 3.001 1.633 6.234v20.934c0 3.233-.647 4.973-1.633 6.235h19.618z" style="fill:#fff;fill-opacity:1;fill-rule:nonzero;stroke:none" transform="translate(349.745 281.35)"/><path d="M0 0c.146 0 .229.17.139.285l-.398.51c-.712.91-1.529 2.407-1.529 5.932v8.761H9.628c.101 0 .182.085.176.186l-.017.331c-.201 3.922-1.582 5.91-4.103 5.91h-7.472v6.692c0 .019.013.034.03.036.695.087 2.082.234 3.56.234 2.461 0 5.961-.203 8.651-1.175l.534-.192a.177.177 0 0 1 .233.203l-1.401 6.534a.177.177 0 0 1-.173.14h-20.519a.176.176 0 0 1-.139-.285l.398-.51c.712-.91 1.529-2.407 1.529-5.932V6.727c0-3.525-.817-5.022-1.529-5.932l-.398-.51A.176.176 0 0 1-10.873 0Zm23.822 0c.148 0 .231.17.14.285l-.399.51c-.711.91-1.528 2.407-1.528 5.932v8.761H33.45c.101 0 .182.085.177.186l-.018.331c-.201 3.922-1.582 5.91-4.102 5.91h-7.472v6.692c0 .019.012.034.029.036.696.087 2.082.234 3.56.234 2.462 0 5.961-.203 8.651-1.175l.535-.192a.177.177 0 0 1 .233.203l-1.401 6.534a.177.177 0 0 1-.173.14H12.95a.176.176 0 0 1-.139-.285l.397-.51c.712-.91 1.529-2.407 1.529-5.932V6.727c0-3.525-.817-5.022-1.529-5.932l-.397-.51A.176.176 0 0 1 12.949 0Zm106.056 0c.147 0 .23.17.14.285l-.399.51c-.712.91-1.528 2.407-1.528 5.932V27.66c0 3.525.816 5.022 1.528 5.932l.399.51a.177.177 0 0 1-.14.285h-10.872a.176.176 0 0 1-.14-.285l.399-.51c.711-.91 1.528-2.407 1.528-5.932V6.727c0-3.525-.817-5.022-1.528-5.932l-.399-.51a.176.176 0 0 1 .14-.285Zm11.52 0c.148 0 .23.17.139.285l-.397.51c-.712.91-1.53 2.407-1.53 5.932v14.926c2.947-4.488 11.637-17.705 12.727-19.138 1.335-1.757 2.317-2.111 3.47-2.111 1.025 0 1.789.367 1.821.382l.276.135V27.66c0 3.524.817 5.022 1.529 5.932l.398.51a.176.176 0 0 1-.14.285h-8.971a.176.176 0 0 1-.14-.285l.399-.51c.711-.91 1.528-2.407 1.528-5.932V16.129c-2.988 4.24-9.604 13.632-10.9 15.52-1.577 2.301-3.018 2.738-5.125 2.738h-4.056a.176.176 0 0 1-.14-.285l.399-.51c.711-.91 1.529-2.407 1.529-5.932V6.727c0-3.525-.818-5.022-1.529-5.932l-.399-.51a.176.176 0 0 1 .14-.285ZM36.827.285a.176.176 0 0 1 .14-.285L58.54.006c.09 0 .165.066.176.155l.846 6.914a.29.29 0 0 1-.398.303l-.32-.133c-3.466-1.431-7.12-1.731-9.576-1.731-2.769 0-3.216.948-3.216 3.215v6.759H56.6c.1 0 .181.085.175.186l-.016.331c-.201 3.922-1.582 5.91-4.103 5.91h-6.604v6.703c0 .018.011.032.029.035.583.084 1.774.224 3.213.224 3.28 0 5.94-.384 8.131-1.175l.534-.192a.176.176 0 0 1 .232.203l-1.4 6.534a.177.177 0 0 1-.173.14H36.967a.177.177 0 0 1-.14-.285l.399-.51c.712-.91 1.528-2.407 1.528-5.932V6.727c0-3.525-.816-5.022-1.528-5.932zm34.105 18.528c.75-.188 1.377-.273 2.506-.273 3.082 0 5.134.853 5.134 5.016 0 3.64-1.526 5.194-5.104 5.194-1.006 0-1.786-.103-2.536-.337zM102.58.04c4.799.216 8.518 1.939 11.053 5.122 2.29 2.873 3.5 6.9 3.5 11.642 0 5.856-1.173 10.108-3.587 12.999-2.574 3.085-6.497 4.584-11.994 4.584h-12.55a.176.176 0 0 1-.14-.285l.399-.51c.712-.91 1.529-2.408 1.529-5.932V10.367c0-4.569 3.933-4.569 6.805-4.569h.315c.098 0 .177.079.177.177v22.664c.677.086 2.093.238 3.589.238 5.088 0 8.006-4.109 8.006-11.275 0-4.301-.845-7.371-2.583-9.384-1.731-2.005-4.465-3.089-8.359-3.314a64.95 64.95 0 0 0-3.111-.057c-1.32 0-2.516.022-3.045.057-4.808.322-7.341 1.422-9.034 3.923-1.011 1.494-2.995 4.57-3.907 5.988 4.508 1.201 6.522 3.997 6.522 9.039 0 3.483-.954 6.132-2.834 7.875-1.931 1.789-4.774 2.658-8.696 2.658H61.847a.176.176 0 0 1-.14-.285l.398-.51c.712-.91 1.53-2.408 1.53-5.932V6.727c0-3.525-.818-5.022-1.53-5.932l-.398-.51a.176.176 0 0 1 .14-.285h10.872c.147 0 .23.17.139.285l-.397.51c-.712.91-1.529 2.407-1.529 5.932v7.949a873.463 873.463 0 0 1 5.548-8.564C78.942 2.37 82.918.341 88.298.08c2.229-.107 5.089-.169 7.845-.169 2.368 0 4.533.043 6.437.129M-65.813 24.454c1.054-.122 1.921-.145 3.138-.145 6.411 0 7.276 2.745 7.276 5.431 0 4.497-5.362 4.846-7.004 4.846-1.439 0-2.674-.132-3.41-.359zm0-18.549c.861-.196 3.047-.38 5.692-.38 4.668 0 6.937 2.037 6.937 6.229 0 4.502-2.808 6.599-8.838 6.599h-.039c-1.231 0-2.61 0-3.752-.195zm9.311-6.65c6.642 0 11.279 4.729 11.279 11.502 0 6.204-1.66 9.289-6.256 11.309 3.575 2.031 4.357 5.449 4.357 8.047 0 6.642-4.285 9.871-13.101 9.871h-14.234a.176.176 0 0 1-.157-.256l.232-.458c.871-1.711 1.21-3.311 1.21-5.704V5.673c0-2.394-.339-3.992-1.21-5.703l-.232-.458a.176.176 0 0 1 .157-.257zm29.224 30.139c-5.88 0-6.56-6.708-6.56-11.754 0-12.565 4.597-12.565 6.56-12.565 1.963 0 6.559 0 6.559 12.565 0 10.536-3.744 11.754-6.559 11.754m11.632-24.649c1.92 2.999 2.854 7.217 2.854 12.895 0 5.04-1.371 9.381-3.966 12.554-2.635 3.224-6.273 4.928-10.52 4.928-4.248 0-7.886-1.704-10.522-4.928-2.594-3.173-3.965-7.514-3.965-12.554 0-5.678.934-9.896 2.855-12.895 2.354-3.675 6.267-5.538 11.632-5.538 5.364 0 9.277 1.863 11.632 5.538M185.924.383c.468.1.872.186 1.162.242 1.504.286 2.621.378 2.633.38l.018.003c.35.03.595.297.585.707 0 .033-.07 3.066-.07 4.373v10.293c0 1.418.058 2.32.588 4.454a.917.917 0 0 1-.227.857.968.968 0 0 1-.71.287h-14.916a.177.177 0 0 1-.176-.175l-.003-.312c-.029-2.713.332-4.247 1.207-5.13.531-.538 1.258-.81 2.162-.81h5.189V7.226c-1.223-1.112-2.429-1.642-5.513-1.642-2.279 0-3.898.712-5.099 2.24-1.656 2.11-2.497 5.844-2.497 11.102 0 8.077 3.032 12.346 8.768 12.346 3.262 0 4.912-.998 7.243-2.64l.323-.228a.177.177 0 0 1 .265.077l2.696 6.577a.175.175 0 0 1-.085.224l-.262.131c-3.113 1.557-6.062 2.191-10.18 2.191-10.443 0-17.192-7.332-17.192-18.678 0-13.084 5.39-19.719 16.02-19.719 2.595 0 6.023.736 8.071 1.176M-10.873-.637a.81.81 0 0 0-.731.457.81.81 0 0 0 .09.857l.399.51c.648.83 1.393 2.21 1.393 5.54V27.66c0 3.33-.745 4.71-1.393 5.54l-.399.51a.809.809 0 0 0-.09.856.806.806 0 0 0 .731.457H9.646c.381 0 .715-.27.795-.642l1.402-6.534a.812.812 0 0 0-1.072-.936l-.534.193c-2.604.94-6.025 1.137-8.435 1.137-1.133 0-2.212-.089-2.953-.168v-5.521h6.835c2.009 0 4.462-1.131 4.739-6.514l.016-.331a.817.817 0 0 0-.222-.603.818.818 0 0 0-.589-.252H-1.151V6.727c0-3.33.745-4.71 1.393-5.54L.641.678A.81.81 0 0 0 .73-.18.808.808 0 0 0 0-.637Zm23.823 0a.81.81 0 0 0-.731.457.808.808 0 0 0 .09.857l.398.51c.649.83 1.394 2.21 1.394 5.54V27.66c0 3.329-.745 4.71-1.394 5.54l-.398.509a.809.809 0 0 0-.09.857.806.806 0 0 0 .731.457h20.519c.381 0 .715-.27.795-.642l1.401-6.534a.812.812 0 0 0-1.071-.936l-.534.193c-2.605.94-6.025 1.137-8.436 1.137-1.133 0-2.212-.089-2.953-.168v-5.521h6.836c2.009 0 4.462-1.131 4.738-6.514l.017-.331a.816.816 0 0 0-.812-.855H22.671V6.727c0-3.331.745-4.71 1.394-5.54l.398-.509a.812.812 0 0 0-.641-1.315Zm106.055 0a.81.81 0 0 0-.731.457.81.81 0 0 0 .091.858l.398.509c.649.83 1.394 2.21 1.394 5.54V27.66c0 3.33-.745 4.71-1.394 5.54l-.398.509a.808.808 0 0 0-.091.857.806.806 0 0 0 .731.457h10.873a.806.806 0 0 0 .731-.457.808.808 0 0 0-.089-.856l-.399-.51c-.649-.83-1.394-2.211-1.394-5.54V6.727c0-3.33.745-4.71 1.394-5.54l.398-.509a.81.81 0 0 0 .09-.858.81.81 0 0 0-.731-.457zm13.421 0a.812.812 0 0 0-.641 1.315l.398.509c.649.83 1.394 2.21 1.394 5.54V27.66c0 3.33-.745 4.71-1.394 5.54l-.398.509a.81.81 0 0 0 .641 1.314h4.056c2.27 0 3.922-.493 5.651-3.013 1.177-1.716 6.804-9.709 9.738-13.873v9.523c0 3.33-.745 4.71-1.394 5.54l-.398.509a.81.81 0 0 0 .641 1.314h8.971a.807.807 0 0 0 .732-.457.809.809 0 0 0-.09-.856l-.398-.51c-.65-.83-1.395-2.21-1.395-5.54V.523l-.633-.308a5.146 5.146 0 0 0-2.1-.446c-1.31 0-2.488.401-3.977 2.36-.974 1.281-7.714 11.509-11.583 17.396V6.727c0-3.33.745-4.71 1.394-5.54l.398-.509a.81.81 0 0 0 .09-.858.808.808 0 0 0-.731-.457zm-95.459 0a.812.812 0 0 0-.641 1.315l.398.509c.649.83 1.394 2.209 1.394 5.54V27.66c0 3.33-.745 4.71-1.394 5.54l-.398.51a.808.808 0 0 0-.091.856.807.807 0 0 0 .732.457h19.651c.381 0 .715-.27.795-.642l1.401-6.534a.812.812 0 0 0-1.071-.936l-.534.193c-2.12.765-4.709 1.137-7.915 1.137-1.057 0-1.976-.078-2.606-.151v-5.538h5.968c2.009 0 4.462-1.131 4.739-6.514l.016-.331a.814.814 0 0 0-.811-.855h-9.912V8.729c0-1.949.201-2.579 2.58-2.579 2.398 0 5.963.292 9.333 1.683l.32.133a.933.933 0 0 0 1.048-.242.925.925 0 0 0 .224-.726L59.348.084a.815.815 0 0 0-.808-.715zm34.601 28.564c.555.128 1.16.186 1.9.186 3.216 0 4.469-1.278 4.469-4.557 0-3.682-1.582-4.379-4.499-4.379-.846 0-1.378.05-1.87.145zM98.724 5.974a.809.809 0 0 0-.13-.44l.11.006c3.712.214 6.301 1.226 7.913 3.094 1.634 1.893 2.428 4.826 2.428 8.968 0 6.761-2.686 10.639-7.369 10.639-1.126 0-2.204-.089-2.952-.169zm-2.581-6.7c-2.767 0-5.637.063-7.876.17-5.594.271-9.739 2.397-12.319 6.319a818.59 818.59 0 0 0-4.38 6.743V6.727c0-3.33.745-4.71 1.394-5.54l.397-.509a.806.806 0 0 0 .091-.858.808.808 0 0 0-.731-.457H61.847a.812.812 0 0 0-.641 1.315l.398.509c.649.83 1.394 2.21 1.394 5.54V27.66c0 3.329-.745 4.71-1.394 5.54l-.398.509a.809.809 0 0 0-.09.857.805.805 0 0 0 .731.457h12.788c4.09 0 7.075-.924 9.128-2.827 2.016-1.868 3.038-4.675 3.038-8.342 0-4.998-1.964-8.007-6.165-9.406.975-1.512 2.576-3.986 3.441-5.263 1.569-2.317 3.965-3.339 8.549-3.646a28.68 28.68 0 0 1 1.126-.039c-1.934.503-3.599 1.755-3.599 4.867V27.66c0 3.329-.745 4.71-1.394 5.54l-.398.509a.809.809 0 0 0-.09.857.805.805 0 0 0 .731.457h12.55c5.697 0 9.78-1.574 12.483-4.812 2.513-3.011 3.735-7.397 3.735-13.407 0-4.889-1.259-9.051-3.639-12.038-2.655-3.333-6.532-5.137-11.523-5.362a145.8 145.8 0 0 0-6.465-.13m-161.32 34.455c.697.14 1.689.221 2.774.221 1.493 0 6.368-.304 6.368-4.21 0-4.425-3.428-4.796-6.64-4.796-.97 0-1.707.016-2.502.085zm0-16.124c.982.111 2.106.111 3.116.111h.039c5.672 0 8.202-1.839 8.202-5.962 0-3.816-2.002-5.592-6.301-5.592-2.17 0-4.037.128-5.056.275zm-9.28-18.987a.808.808 0 0 0-.693.389.804.804 0 0 0-.032.793l.233.458c.821 1.613 1.14 3.132 1.14 5.415v27.893c0 2.284-.319 3.801-1.14 5.414l-.233.459a.804.804 0 0 0 .032.793.806.806 0 0 0 .693.389h14.234c4.592 0 7.942-.842 10.24-2.573 2.32-1.749 3.497-4.419 3.497-7.935 0-2.465-.671-5.74-3.698-7.966 4.009-2.123 5.598-5.423 5.598-11.39 0-7.148-4.9-12.139-11.916-12.139zm53.102 19.022c0-5.235-.802-8.791-2.383-10.572-1.205-1.357-2.611-1.357-3.54-1.357-.931 0-2.336 0-3.54 1.357-1.582 1.781-2.384 5.337-2.384 10.572 0 7.585 1.883 11.118 5.924 11.118 1.62 0 5.923 0 5.923-11.118m-5.923-19.07c-5.596 0-9.69 1.962-12.168 5.832-1.989 3.105-2.955 7.435-2.955 13.238 0 5.188 1.421 9.669 4.109 12.958 2.76 3.376 6.568 5.161 11.014 5.161 4.444 0 8.253-1.785 11.013-5.161 2.688-3.289 4.109-7.77 4.109-12.958 0-5.803-.966-10.133-2.955-13.238C-17.59.532-21.684-1.43-27.278-1.43m205.131 0c-5.492 0-9.694 1.746-12.491 5.189-2.764 3.402-4.166 8.506-4.166 15.167 0 11.733 6.999 19.315 17.829 19.315 4.224 0 7.256-.654 10.465-2.259l.262-.13a.818.818 0 0 0 .389-1.036l-2.696-6.576a.813.813 0 0 0-1.221-.356l-.323.228c-2.22 1.565-3.74 2.524-6.876 2.524-2.636 0-4.66-.968-6.016-2.876-1.404-1.977-2.115-4.949-2.115-8.834 0-5.112.794-8.714 2.361-10.709 1.085-1.381 2.503-1.996 4.598-1.996 2.756 0 3.845.417 4.876 1.292v7.402h-4.552c-1.079 0-1.959.337-2.615.999-1.005 1.016-1.421 2.687-1.391 5.585l.003.312c.005.443.37.804.813.804h14.916c.453 0 .881-.178 1.173-.486.367-.389.51-.931.381-1.448-.513-2.066-.568-2.935-.568-4.3V6.088c0-1.308.069-4.328.07-4.357.017-.725-.445-1.276-1.128-1.353l-.052-.007A27.556 27.556 0 0 1 187.205 0c-.285-.055-.684-.141-1.147-.239-2.076-.447-5.543-1.191-8.205-1.191" style="fill:#1f4130;fill-opacity:1;fill-rule:nonzero;stroke:none" transform="translate(369.973 263.71)"/><path d="M0 0c0-11.17-3.465-13.057-7.051-13.057-3.587 0-7.052 1.887-7.052 13.057 0 10.553 3.774 12.246 7.052 12.246C-3.772 12.246 0 10.552 0 0m-7.051-17.94C4.203-17.94 6.943-9.756 6.943 0c0 9.995-5.613 16.99-13.994 16.99-8.382 0-13.995-6.995-13.995-16.99 0-9.756 2.741-17.94 13.995-17.94M-41.795 1.205c6.336 0 9.33-2.287 9.33-7.091 0-4.604-2.678-6.719-7.428-6.719-2.951 0-5.545.228-6.184.508V.924c1.266.282 2.887.281 4.282.281m-4.282 5.175v10.55c.69.302 2.051.508 3.901.508 3.324 0 7.496-1.166 7.496-5.337 0-5.252-4.111-5.924-7.767-5.924-1.397 0-2.342.031-3.63.203m20.59-13.263c0 6.188-1.537 9.231-6.953 11.262.44.237 5.053 1.852 5.053 8.095 0 6.559-4.291 9.379-12.608 9.379h-13.721c.895-1.759 1.263-3.413 1.263-5.926v-27.894c0-2.513-.368-4.167-1.263-5.927h17.442c6.468 0 10.787 4.565 10.787 11.011m103.976-10.26.77 6.294c-3.13-1.293-6.668-1.769-9.764-1.769-3.096 0-3.708 1.224-3.708 3.708v6.873c0 .209.169.378.378.378h10.33c-.181 3.516-1.309 5.442-3.611 5.442h-6.719a.378.378 0 0 0-.378.378v6.818c0 .261.192.484.451.521.619.09 1.826.229 3.283.229 2.137 0 5.378-.15 8.298-1.204l-1.228 5.731h-18.75c.985-1.262 1.633-3.002 1.633-6.235v-20.934c0-3.233-.648-4.974-1.633-6.234zm18.629 5.886c2.322-3.529 6.147-5.555 11.431-5.811 3.627-.175 9.51-.253 14.236-.04 9.732.438 14.083 7.303 14.083 16.272 0 11.036-4.228 17.092-15.089 17.092h-11.903c.985-1.262 1.633-3.002 1.633-6.235V-7.271c0-3.888 3.025-4.08 6.313-4.08v22.78s1.945.3 4.081.3c4.3 0 8.498-2.896 8.498-11.767 0-8.757-3.405-12.727-11.405-13.188-1.432-.083-5.086-.076-6.218 0-4.828.323-7.583 1.442-9.408 4.138-1.071 1.582-3.256 4.976-4.017 6.16a.352.352 0 0 0 .21.532c3.998 1.01 6.337 3.31 6.337 8.61 0 6.651-3.459 10.042-11.038 10.042H82.721c.985-1.262 1.633-3.002 1.633-6.235v-20.934c0-3.233-.648-4.974-1.633-6.234h9.58c-.987 1.26-1.634 3.001-1.634 6.234v8.151c0 .433.564.599.797.235a884.424 884.424 0 0 1 5.654-8.73M90.667.796v10.33c.975.356 1.897.476 3.028.476 3.618 0 5.597-1.517 5.597-5.686 0-4.431-2.25-5.508-5.627-5.508-1.339 0-2.023.119-2.998.388m82.289-15.624c1.3-1.71 2.155-1.915 3.078-1.915.924 0 1.606.332 1.606.332v26.432c0 3.233.647 4.973 1.633 6.235h-7.68c.986-1.262 1.634-3.002 1.634-6.235V-1.827c0-.383-.491-.54-.711-.228-2.336 3.314-9.708 13.778-11.086 15.786-1.395 2.034-2.629 2.525-4.72 2.525h-3.41c.986-1.262 1.633-3.002 1.633-6.235v-20.934c0-3.233-.647-4.974-1.633-6.234h7.679c-.986 1.26-1.632 3.001-1.632 6.234V4.35c0 .388.504.541.717.215 2.65-4.036 11.783-17.933 12.892-19.393m-23.496-2.319c-.986 1.26-1.634 3.001-1.634 6.234v20.934c0 3.233.648 4.973 1.634 6.235h-9.581c.986-1.262 1.634-3.002 1.634-6.235v-20.934c0-3.233-.648-4.974-1.634-6.234zM53.441 16.256H33.823c.987-1.262 1.634-3.002 1.634-6.235v-20.934c0-3.233-.647-4.974-1.634-6.234h9.58c-.985 1.26-1.632 3.001-1.632 6.234v8.876c0 .209.168.378.376.378h11.199c-.181 3.516-1.31 5.442-3.612 5.442h-7.587a.377.377 0 0 0-.376.378v6.807c0 .266.198.49.461.523.702.089 2.113.238 3.62.238 2.136 0 5.899-.15 8.818-1.204zm153.78-32.787c1.14.217 2.141.334 2.59.381a.272.272 0 0 1 .245.279c-.017.791-.068 3.217-.068 4.319v10.293c0 1.471.064 2.403.602 4.573a.43.43 0 0 1-.417.533h-14.646c-.037-3.52.576-5.443 2.877-5.443h5.682v-9.033c-1.328-1.255-2.567-1.919-6.006-1.919-3.844 0-8.087 1.863-8.087 13.834 0 11.309 5.747 12.838 9.26 12.838 3.505 0 5.275-1.144 7.525-2.729l2.435 5.939c-2.753 1.376-5.531 2.14-9.96 2.14-10.062 0-16.701-7.013-16.701-18.188 0-10.455 3.467-19.226 15.528-19.226 3.143 0 7.592 1.113 9.141 1.409M29.619 16.256H10.001c.986-1.262 1.633-3.002 1.633-6.235v-20.934c0-3.233-.647-4.974-1.633-6.234h9.58c-.986 1.26-1.633 3.001-1.633 6.234v8.876c0 .209.169.378.377.378h11.198c-.18 3.516-1.309 5.442-3.612 5.442h-7.586a.377.377 0 0 0-.377.378v6.807c0 .266.198.49.462.523.701.089 2.112.238 3.619.238 2.137 0 5.899-.15 8.819-1.204zM9.354-17.64a.177.177 0 0 0-.138.286l.397.509c.712.91 1.53 2.407 1.53 5.932v20.934c0 3.524-.818 5.021-1.53 5.931l-.397.51a.176.176 0 0 0 .138.285h20.52a.177.177 0 0 0 .173-.14l1.4-6.534a.176.176 0 0 0-.232-.203l-.534.193c-2.691.971-6.191 1.174-8.652 1.174-1.477 0-2.865-.146-3.559-.234a.035.035 0 0 1-.031-.035V4.275h7.472c2.522 0 3.902-1.988 4.104-5.91l.016-.331a.176.176 0 0 0-.176-.185H18.439v-8.762c0-3.525.818-5.022 1.53-5.932l.397-.509a.177.177 0 0 0-.138-.286zm23.823 0c-.147 0-.23.17-.139.286l.398.509c.711.91 1.529 2.407 1.529 5.932v20.934c0 3.524-.818 5.021-1.529 5.931l-.398.51a.176.176 0 0 0 .14.285h20.518a.177.177 0 0 0 .173-.14l1.402-6.534a.178.178 0 0 0-.234-.203l-.534.193c-2.69.971-6.19 1.174-8.651 1.174-1.478 0-2.865-.146-3.56-.234-.018-.002-.029-.017-.029-.035V4.275h7.471c2.521 0 3.902-1.988 4.103-5.91l.017-.331a.177.177 0 0 0-.176-.185H42.263v-8.762c0-3.525.816-5.022 1.528-5.932l.398-.509a.177.177 0 0 0-.139-.286zm106.056 0c-.147 0-.23.17-.139.286l.398.509c.711.91 1.529 2.407 1.529 5.932v20.934c0 3.524-.818 5.021-1.529 5.931l-.398.51a.176.176 0 0 0 .139.285h10.872a.176.176 0 0 0 .14-.285l-.398-.51c-.712-.91-1.529-2.407-1.529-5.931v-20.934c0-3.525.817-5.022 1.529-5.932l.398-.509a.177.177 0 0 0-.14-.286zm13.42 0c-.147 0-.23.17-.139.286l.398.509c.712.91 1.529 2.407 1.529 5.932v20.934c0 3.524-.817 5.021-1.529 5.931l-.398.51a.176.176 0 0 0 .139.285h4.057c2.106 0 3.548-.436 5.125-2.737 1.296-1.889 7.911-11.281 10.899-15.521v11.532c0 3.524-.816 5.021-1.528 5.931l-.398.51a.176.176 0 0 0 .139.285h8.972c.147 0 .23-.169.14-.285l-.399-.51c-.712-.91-1.528-2.408-1.528-5.931v-26.74l-.277-.135c-.032-.014-.795-.381-1.821-.381-1.152 0-2.135.353-3.47 2.11-1.089 1.434-9.78 14.65-12.726 19.139v-14.927c0-3.525.817-5.022 1.529-5.932l.398-.509a.177.177 0 0 0-.139-.286zm-95.2.795c.712.91 1.528 2.407 1.528 5.932v20.934c0 3.524-.816 5.021-1.528 5.931l-.398.51a.176.176 0 0 0 .139.285h19.652a.177.177 0 0 0 .173-.14l1.4-6.534a.176.176 0 0 0-.232-.203l-.535.193c-2.19.791-4.85 1.174-8.131 1.174a23.25 23.25 0 0 1-3.212-.223.035.035 0 0 1-.03-.035V4.275h6.605c2.52 0 3.901-1.988 4.102-5.91l.017-.331a.176.176 0 0 0-.176-.185H66.279V-8.91c0-2.268.448-3.216 3.216-3.216 2.456 0 6.11.301 9.576 1.731l.321.133a.29.29 0 0 0 .397-.302l-.846-6.915a.176.176 0 0 0-.175-.155l-21.574-.006a.177.177 0 0 0-.139.286zM91.159 1.174C91.909.985 92.536.9 93.666.9c3.081 0 5.134.853 5.134 5.016 0 3.641-1.527 5.194-5.105 5.194-1.006 0-1.786-.102-2.536-.337zm25.211-18.903c-2.756 0-5.615.062-7.845.169-5.379.261-9.355 2.29-11.817 6.033a878.297 878.297 0 0 0-5.549 8.563v-7.949c0-3.525.818-5.022 1.529-5.932l.398-.509a.177.177 0 0 0-.14-.286H82.074c-.147 0-.23.17-.139.286l.398.509c.712.91 1.529 2.407 1.529 5.932v20.934c0 3.523-.817 5.021-1.529 5.931l-.398.51a.176.176 0 0 0 .139.285h12.788c3.922 0 6.766-.869 8.697-2.657 1.879-1.743 2.834-4.393 2.834-7.876 0-5.042-2.014-7.838-6.523-9.038.912-1.418 2.897-4.494 3.907-5.989 1.694-2.5 4.227-3.601 9.035-3.922.529-.036 1.724-.058 3.044-.058 1.313 0 2.476.022 3.112.058 3.893.224 6.628 1.308 8.358 3.313 1.738 2.014 2.583 5.083 2.583 9.384 0 7.166-2.918 11.275-8.006 11.275-1.496 0-2.912-.152-3.589-.238v-22.664a.176.176 0 0 0-.176-.177h-.316c-2.872 0-6.804 0-6.804 4.57v17.293c0 3.523-.818 5.021-1.53 5.931l-.398.51a.176.176 0 0 0 .139.285h12.55c5.497 0 9.42-1.499 11.994-4.584 2.414-2.891 3.587-7.142 3.587-12.999 0-4.742-1.21-8.768-3.5-11.642-2.535-3.182-6.254-4.906-11.052-5.122-1.905-.086-4.07-.129-6.438-.129M-45.585 6.814c1.054-.122 1.921-.145 3.138-.145 6.411 0 7.275 2.745 7.275 5.432 0 4.497-5.361 4.845-7.004 4.845-1.438 0-2.674-.132-3.409-.359zm0-18.548c.86-.197 3.047-.38 5.691-.38 4.668 0 6.938 2.037 6.938 6.228 0 4.502-2.809 6.599-8.839 6.599h-.038c-1.231 0-2.61 0-3.752-.194zm-8.644-6.651a.177.177 0 0 0-.158.257l.233.458c.871 1.711 1.21 3.31 1.21 5.703v27.894c0 2.392-.339 3.992-1.21 5.703l-.233.458a.177.177 0 0 0 .158.257h14.234c8.815 0 13.1-3.23 13.1-9.871 0-2.599-.782-6.017-4.357-8.047 4.597-2.021 6.257-5.106 6.257-11.31 0-6.772-4.638-11.502-11.279-11.502zm47.178 30.139c-5.88 0-6.559-6.708-6.559-11.754 0-12.564 4.596-12.564 6.559-12.564s6.56 0 6.56 12.564c0 10.536-3.744 11.754-6.56 11.754m0-30.187c-5.364 0-9.277 1.864-11.632 5.538C-20.604-9.896-21.537-5.678-21.537 0c0 5.04 1.371 9.382 3.965 12.555 2.635 3.223 6.273 4.927 10.521 4.927 4.247 0 7.886-1.704 10.521-4.927C6.064 9.382 7.436 5.04 7.436 0c0-5.678-.934-9.896-2.855-12.895-2.354-3.674-6.268-5.538-11.632-5.538m205.131 0c-10.63 0-16.019 6.635-16.019 19.719 0 11.347 6.749 18.679 17.192 18.679 4.117 0 7.066-.635 10.18-2.192l.261-.13a.176.176 0 0 0 .085-.225l-2.695-6.576a.177.177 0 0 0-.266-.077l-.323.227c-2.33 1.643-3.98 2.641-7.242 2.641-5.736 0-8.769-4.27-8.769-12.347 0-5.258.841-8.992 2.497-11.101 1.202-1.529 2.821-2.241 5.099-2.241 3.084 0 4.29.531 5.514 1.642v8.326h-5.19c-.903 0-1.631.273-2.162.811-.875.882-1.235 2.417-1.207 5.13l.003.311c.001.097.08.175.177.175h14.916a.973.973 0 0 0 .71-.286.916.916 0 0 0 .226-.858c-.53-2.133-.588-3.036-.588-4.454v-10.293c0-1.306.071-4.34.071-4.373.01-.41-.236-.677-.585-.707l-.019-.003c-.011-.002-1.129-.094-2.633-.38-.29-.055-.694-.141-1.162-.242-2.047-.439-5.475-1.176-8.071-1.176" style="fill:#c8cfd2;fill-opacity:1;fill-rule:nonzero;stroke:none" transform="translate(349.745 281.35)"/><path d="M0 0c-1.401.052-2.165 1.461-2.165 1.461s.609-1.345-.666-1.875c0 0 .169.925-.377 1.557-.332.385-2.027 2.139-.618 3.261 1.151.916 3.097.1 3.556-1.562C.147 1.335 1.003.65 1.808.622c0 0-.406-.673-1.808-.622" style="fill:#91cf96;fill-opacity:1;fill-rule:nonzero;stroke:none" transform="translate(491.041 355.489)"/><path d="M0 0c-.502.667-.124 1.899-.124 1.899s.426-.723 2.131-.723c1.404 0 2.542 1.451 2.645 2.767.143 1.805-.616 3.684-4.166 7.043-3.709 3.512-2.82 7.343-.908 8.408 0 0-.081-.666.081-1.218-.94-.697-1.258-2.872-.025-4.509C1.597 11.06 6.463 8.473 6.072 3.511 5.682-1.45.502-.667 0 0" style="fill:#91cf96;fill-opacity:1;fill-rule:nonzero;stroke:none" transform="translate(486.362 339.425)"/><path d="m0 0-.303-.93s-.593-.409-3.426-.269c0 0-.07 2.488-.07 2.673 0 0 .528-1.636 1.966-1.86C-.57-.583-.028-.041 0 0m-5.698-.716C-7.285-.75-7.633.117-7.633.117a2.434 2.434 0 0 1 1.961-.448c.906.185 1.306.857 1.486 1.251 0 0 .076-1.601-1.512-1.636M.213-.803c-.019 0 .631 2.514.631 2.514S.007.092-1.465.092c-.924 0-1.563.536-2.329 2.815C-4.454.612-5.208.092-6.139.092c-1.459 0-2.308 1.619-2.308 1.619s.649-2.514.631-2.514c-.019 0-.167-.504.287-.693.454-.19 2.327-.284 3.57-.284h.314c1.244 0 3.117.094 3.571.284.454.189.305.693.287.693" style="fill:#91cf96;fill-opacity:1;fill-rule:nonzero;stroke:none" transform="translate(479.726 374.796)"/><path d="M0 0c2.337-3.537 1.185-5.761 1.185-5.761-.081 3.441-2.532 4.706-2.532 4.706C1.314-5.192.341-8.243 0-9.623c-.341-1.38.211-1.932.211-1.932-3.359.942-2.661 5.6-2.661 5.6-1.558-3.344-4.009-2.557-4.009-2.557.471.674.341 1.851.341 1.851-1.217-.65-3.635-.463-3.635-.463 1.038-.535 2.904-.567 2.904-.567-.096-.926-.665-1.316-.665-1.316 1.461-.892 4.187.309 4.187.309.848-3.964 2.997-3.99 3.189-3.946-.102-.094-.765-1.021-2.237-.598-1.579.454-1.796 2.662-1.796 2.662.033-2.522-2.467-2.716-2.467-2.716.607.995.564 3.181.564 3.181-1.115-.855-2.479.043-4.166-.292-1.688-.336-3.058-1.77-3.058-1.77-.236 3.116 3.374 4.133 3.374 4.133-3.706.053-4.73-4.148-4.709-4.203.022-.054-1.417 1.358-.584 3.581.546 1.456 2.976 1.764 2.976 1.764-2.499.671-3.571-.671-3.571-.671-.184 2.467 2.175 2.219 2.175 2.219-.444 1.536.422 1.708.422 1.708 0-.324.865-2.044 2.748-2.044 1.882 0 2.564 1.092 2.564 1.092-3.73-1.698-4.59 1.823-4.59 1.823C-7.832-4.061-5.848-.303-5.848-.303-5.707-2.012-6.52-3.3-6.52-3.3-4.551-2.088-5.068.357-5.068.357c2.422-2.13 1.146-5.453 1.146-5.453.325 0 .942 1.548.942 2.9 0 1.352-.639 3.311-2.11 4.263-1.472.952-2.056 1.882-2.056 1.882 0-1.103.844-1.308.844-2.803 0-2.012-1.833-2.223-3.738-1.914-1.387.226-1.72-.378-1.72-.378-.449 1.298.032 2.125.032 2.125.904-1.048 3.091-.729 3.098.793.006 1.362-.942 1.927-1.927 1.77-1.167-.187-1.479-1.664-1.479-1.664-1.553.394-1.249 2.596-1.249 2.596-.569.438-.363 1.017-.363 1.017.4 0 1.433.671 2.088.671.508 0 .781-.241 1.273-.281.523-.042 1.095.188 1.095.188.146-.146.002-.691.002-.691s.302-.119.935.313c.633.433 1.191.416 1.191.416s-.305.449-1.202.618c-1.033.194-1.135-.433-1.942-.433-.205 0-.778.021-.778.708 0 .687.686.947 2.007.947 1.319 0 3.088-.628 3.51-.206.011.011.468-.36-.474-1.353.232.224.876.77 1.723.835.684.051 1.478-.13 1.153-1.364-.325-1.233-1.282-1.25-1.282-1.25.413.334 1.185 1.818-.195 1.672-1.379-.146-1.46-1.769-1.46-1.769 2.791-.097 3.976-2.84 3.976-2.84-.325 2.109-1.266 2.564-1.266 2.564.324.243.486.731.486.731C-1.136 4.187-.194 1.12-.194 1.12c-.081 3.895-2.241 4.642-2.241 4.642.504 1.476-.551 2.012-.551 2.012 1.12.048 1.299.665 1.299.665.697-.86.291-1.834.291-1.834C-.162 5.729.228 4.285.373 2.532.52.779 1.559-.048 1.559-.048.877-.486 0 0 0 0" style="fill:#91cf96;fill-opacity:1;fill-rule:nonzero;stroke:none" transform="translate(481.867 364.514)"/><path d="M0 0c.001-.003-.004-.005-.014-.008C-.007 0-.002.003 0 0" style="fill:#91cf96;fill-opacity:1;fill-rule:nonzero;stroke:none" transform="translate(481.743 351.879)"/><path d="M0 0c.903 0 1.655-.437 1.655-.784 0 0-.429.265-1.466.265-1.46 0-1.984-1.081-3.153-1.081-1.17 0-1.037 1.328-1.037 1.328C-2.509-1.239-1.15 0 0 0" style="fill:#91cf96;fill-opacity:1;fill-rule:nonzero;stroke:none" transform="translate(471.318 366.54)"/><path d="M0 0c-.974.228-3.635 2.775-3.635 2.775C-3.24 1.169.13-1.477.13-1.477-3.521-.26-5.047 2.97-5.047 2.97c.698.243 1.023.649 1.023.649-2.045.292-1.981 1.753-1.981 1.753.276-.081.682.146.682.146-.7.188-1.088.744-1.352 1.261-.466.913.128 1.553.958 1.757.442.109.775.077.775.077-.013.883 1.671 2.118 2.354 1.931-.196.743.12 1.185-.077 1.445 1.147-.201 1.118-1.472 1.118-1.472.517-.852.093-1.769-.643-2.16-1.115-.589-1.153-1.655 0-2.758C-1.038 4.495.081 3.895.081 3.895c-.422-.909.276-2.337.276-2.337C-.064.649 0 0 0 0" style="fill:#91cf96;fill-opacity:1;fill-rule:nonzero;stroke:none" transform="translate(465.297 354.21)"/><path d="M0 0c.441-.026 2.761.282 4.708.934 2.264.756 3.372.794 4.466.446C6.662.791 6.201.288 4.349-.085 1.521-.654 0 0 0 0m-5.464 3.498s-2.65.422-1.742-2.143c0 0 .357.607.79.693 0 0 .151-.194.628-.032.476.162.778-.054.767-.054 0 0-1.363-.293-1.579-1.461-.216-1.169.661-1.18.65-1.157-.012.021-.033.51.443.773 0 0 .314-.2.876.113.563.314 1.169.327 1.764-.113.595-.438 1.168-1.585 3.83-1.055 2.661.53 5.571.206 6.621-.378 0 0 .52.573.032 1.341 0 0 1.547-.941 3.365-.282 0 0-.4.747-.281 1.429 0 0 1.893.346 3.04-.628 0 0-1.534.485-2.323.118 0 0 .045-.875.483-1.318 0 0-1.809-.902-3.215-.382 0 0 .208-.755-.214-1.35 0 0-1.882.995-3.17.531 0 0 .664-1.795 3.821-3.091 2.377-.977 2.893-2.591 2.893-2.591s2.846 3.322 2.352 5.27c0 0 1.324-1.028-.202-3.642-1.49-2.552-1.767-3.585-1.767-5.986 0-2.403 2.272-2.143 2.359-2.143.087 0-.433.736-.281 1.472 0 0 .389-.714 1.947-1.234 1.558-.519 2.921-2.055 2.921-4.392 0 0-.663 2.473-3.527 3.591 0 0 2.553-2.509 2.943-4.825.389-2.315-1.079-3.242-2.64-3.223-3.635.043-2.921-2.857-2.228-2.857 0 0 .097 1.177 1.249 1.177 0 0-.438-1.339.892-1.485 0 0-.226 1.257 1.12 1.412 0 0-.576-1.396.868-1.51 0 0-.137.642.228.949 0 0 .243.171 1.663.098 1.42-.073.893 1.331.804 1.639-.09.308.154 1.874.324 2.418 0 0 .3-.779.844-.99 0 0 .892 1.599.292 3.781 0 0 1.631.406 1.647 1.859 0 0-2.28.089-3.749 1.379 0 0 1.12-.317 1.689.625 0 0-2.013.137-2.743 2.474-.731 2.337.438 3.83.487 6.022.048 2.19-1.672 3.521-3.23 4.949-1.558 1.429-2.453 2.082-2.305 3.314-.713-.003-1.529.245-1.961.979 0 0-1.896-1.436-3.221-.88.07.298.688 1.629.46 2.592 0 0-.622-.086-1.327.008-1.094.146-2.094.401-4.194-1.079-2.101-1.481-5.962-2.241-7.643.78 0 0-3.035 1.509-3.748-1.026 0 0 .424.289.922.256 0 0 .032-.324.605-.357.573-.032.671-.184.671-.378" style="fill:#91cf96;fill-opacity:1;fill-rule:nonzero;stroke:none" transform="translate(465.655 347.99)"/><path d="M0 0c1.158-.001 2.413-.163 2.413-.163-.021 0 2.186.627 3.332 2.531 1.147 1.904-.151 5.042-.422 5.528 0 0 1.915-1.233 1.623-4.629 0 0 1.211 2.844-1.288 6.696 0 0 .098-1.006-.226-1.319 0 0-.163.27-.52.335s-.888.378-.888 1.45c0 1.071 2.017 5.059 5.677 6.808 1.053-.847 2.989-1.143 3.572-2.503 0 0-4.423-.868-3.96-5.517 0 0 .532 4.546 4.469 4.279 0 0-6.343-2.245-2.18-10.457 0 0-.598-1.071-2.324-1.168 0 0 1.876-.725 1.087-1.85 0 0-1.709.69-4.043-.964-.75-.532-.651-1.204-1.152-1.442-.621-.295-1.823-.47-2.735-.775 0 0-.676-.195-.455-.931-.114-.179-1.363.066-.768 1.645 0 0-1.198-.008-1.071-1.104-.162-.124-1.341.215-.757 1.461 0 0-.99.038-1.114-.877-.326-.113-.796.801-.202 1.875C-1.729-.726-.902.002 0 0" style="fill:#91cf96;fill-opacity:1;fill-rule:nonzero;stroke:none" transform="translate(463.23 325.805)"/><path d="M0 0c-.888.179-.975-.344-.975-.344.204.156.56.193.658.081.114-.15.051-.425.113-.76-.007.015-.587-.267-.953.507-.301.112-.679 1.05.002 1.453.571.337 1.053.218 1.053.218C-.157.962.054.049.054.049Z" style="fill:#91cf96;fill-opacity:1;fill-rule:nonzero;stroke:none" transform="translate(459.914 364.565)"/><path d="M0 0c.343.02.601-.101.563-.418C.544-.586.458-.917.454-1.097c0 .018-.836.173-.762 1.026-.238.213-.212 1.154.511 1.3.65.13 1.447-.477 1.493-1.378-.193-.071-.384-.221-.469-.24C.69.527 0 0 0 0" style="fill:#91cf96;fill-opacity:1;fill-rule:nonzero;stroke:none" transform="translate(460.573 365.49)"/><path d="M0 0a.926.926 0 0 1 .174-.653c-.508-.148-.459-.498-.459-.498A.51.51 0 0 0 .149-.9c.133.004.225-.058.267-.194.053-.17.122-.38.216-.564C-.485-1.975-1.431-.242 0 0" style="fill:#91cf96;fill-opacity:1;fill-rule:nonzero;stroke:none" transform="translate(458.235 364.268)"/><path d="M0 0c1.401.051 2.165 1.461 2.165 1.461s-.61-1.346.666-1.876c0 0-.169.925.377 1.558.332.384 2.027 2.138.618 3.26-1.151.917-3.097.1-3.556-1.561C-.147 1.334-1.003.65-1.808.621c0 0 .406-.672 1.808-.621" style="fill:#91cf96;fill-opacity:1;fill-rule:nonzero;stroke:none" transform="translate(366.563 355.528)"/><path d="M0 0c.503.667.125 1.899.125 1.899s-.426-.723-2.131-.723c-1.404 0-2.542 1.451-2.645 2.767-.143 1.806.615 3.684 4.165 7.044 3.71 3.511 2.821 7.342.909 8.407 0 0 .081-.665-.082-1.217.941-.698 1.259-2.873.026-4.51-1.963-2.607-6.829-5.194-6.438-10.155C-5.681-1.45-.501-.666 0 0" style="fill:#91cf96;fill-opacity:1;fill-rule:nonzero;stroke:none" transform="translate(371.242 339.464)"/><path d="M0 0c1.437.225 1.966 1.86 1.966 1.86 0-.184-.07-2.672-.07-2.672-2.833-.14-3.426.268-3.426.268l-.303.93C-1.805.345-1.263-.197 0 0m2.353 1.307C2.532.912 2.933.239 3.839.055A2.43 2.43 0 0 1 5.8.504s-.348-.868-1.935-.833c-1.588.035-1.512 1.636-1.512 1.636M-1.759-1.11c.454-.19 2.327-.285 3.571-.285h.314c1.243 0 3.116.095 3.57.285.454.189.306.694.287.694-.018 0 .631 2.513.631 2.513S5.765.478 4.306.478c-.931 0-1.685.52-2.345 2.815C1.195 1.014.556.478-.368.478c-1.472 0-2.309 1.619-2.309 1.619s.65-2.513.631-2.513c-.018 0-.167-.505.287-.694" style="fill:#91cf96;fill-opacity:1;fill-rule:nonzero;stroke:none" transform="translate(379.711 374.448)"/><path d="M0 0c-2.337-3.538-1.185-5.762-1.185-5.762.081 3.441 2.532 4.707 2.532 4.707C-1.314-5.193-.341-8.244 0-9.624c.341-1.379-.211-1.931-.211-1.931 3.359.942 2.661 5.599 2.661 5.599 1.558-3.343 4.009-2.556 4.009-2.556-.471.673-.341 1.85-.341 1.85 1.217-.65 3.635-.463 3.635-.463-1.038-.535-2.905-.567-2.905-.567.097-.925.666-1.315.666-1.315-1.461-.892-4.188.309-4.188.309-.847-3.965-2.996-3.99-3.188-3.946.102-.094.765-1.022 2.236-.599 1.58.455 1.797 2.662 1.797 2.662-.033-2.521 2.466-2.716 2.466-2.716-.606.995-.563 3.181-.563 3.181 1.114-.855 2.478.044 4.166-.292 1.688-.335 3.057-1.769 3.057-1.769.237 3.115-3.373 4.132-3.373 4.132 3.706.053 4.73-4.148 4.709-4.202-.023-.055 1.417 1.357.584 3.581-.546 1.455-2.976 1.764-2.976 1.764 2.499.67 3.571-.671 3.571-.671.184 2.467-2.175 2.218-2.175 2.218.444 1.536-.422 1.709-.422 1.709 0-.325-.865-2.045-2.748-2.045-1.882 0-2.564 1.092-2.564 1.092 3.73-1.697 4.59 1.824 4.59 1.824C7.832-4.062 5.848-.303 5.848-.303 5.707-2.013 6.52-3.3 6.52-3.3 4.551-2.088 5.068.356 5.068.356c-2.423-2.13-1.146-5.452-1.146-5.452-.325 0-.942 1.547-.942 2.9 0 1.352.639 3.31 2.11 4.262 1.472.953 2.056 1.883 2.056 1.883 0-1.103-.844-1.309-.844-2.803 0-2.013 1.833-2.224 3.738-1.915 1.386.226 1.72-.378 1.72-.378.449 1.298-.032 2.126-.032 2.126-.904-1.049-3.091-.73-3.098.793-.006 1.361.942 1.926 1.927 1.769 1.167-.186 1.479-1.664 1.479-1.664 1.553.394 1.249 2.597 1.249 2.597.569.438.362 1.016.362 1.016-.399 0-1.432.671-2.087.671-.508 0-.781-.241-1.274-.28-.522-.043-1.094.187-1.094.187-.146-.146-.002-.691-.002-.691s-.302-.119-.935.313c-.633.433-1.191.417-1.191.417s.305.448 1.202.617c1.033.195 1.135-.433 1.941-.433.206 0 .779.021.779.709 0 .687-.686.946-2.007.946-1.32 0-3.088-.627-3.51-.205-.011.01-.468-.36.474-1.353-.232.224-.876.769-1.724.834-.683.051-1.477-.13-1.153-1.364.326-1.233 1.283-1.25 1.283-1.25-.413.334-1.185 1.819.195 1.672 1.379-.146 1.46-1.768 1.46-1.768-2.791-.098-3.976-2.841-3.976-2.841.325 2.11 1.266 2.564 1.266 2.564-.324.244-.486.731-.486.731C1.136 4.187.194 1.119.194 1.119c.081 3.896 2.24 4.642 2.24 4.642-.503 1.476.551 2.012.551 2.012-1.119.049-1.298.665-1.298.665-.698-.86-.291-1.834-.291-1.834-1.234-.875-1.624-2.32-1.77-4.073C-.52.778-1.559-.049-1.559-.049-.877-.487 0 0 0 0" style="fill:#91cf96;fill-opacity:1;fill-rule:nonzero;stroke:none" transform="translate(375.738 364.553)"/><path d="M0 0c-.001-.002.004-.005.014-.007C.007 0 .002.003 0 0" style="fill:#91cf96;fill-opacity:1;fill-rule:nonzero;stroke:none" transform="translate(375.862 351.917)"/><path d="M0 0c-.903 0-1.655-.437-1.655-.784 0 0 .429.265 1.466.265 1.46 0 1.984-1.08 3.153-1.08 1.17 0 1.037 1.328 1.037 1.328C2.509-1.239 1.15 0 0 0" style="fill:#91cf96;fill-opacity:1;fill-rule:nonzero;stroke:none" transform="translate(386.286 366.579)"/><path d="M0 0c.974.228 3.635 2.775 3.635 2.775C3.24 1.169-.13-1.477-.13-1.477 3.521-.26 5.047 2.97 5.047 2.97c-.698.244-1.023.649-1.023.649 2.045.292 1.98 1.753 1.98 1.753-.275-.081-.682.146-.682.146.701.188 1.089.745 1.353 1.261.466.913-.128 1.553-.959 1.757-.441.11-.774.078-.774.078.013.883-1.671 2.117-2.355 1.931.197.742-.119 1.185.078 1.444-1.147-.201-1.118-1.472-1.118-1.472-.517-.852-.093-1.769.643-2.159 1.115-.59 1.153-1.655 0-2.758C1.038 4.496-.081 3.896-.081 3.896c.422-.91-.276-2.337-.276-2.337C.064.649 0 0 0 0" style="fill:#91cf96;fill-opacity:1;fill-rule:nonzero;stroke:none" transform="translate(392.307 354.248)"/><path d="M0 0c-1.853.373-2.313.876-4.825 1.466 1.094.346 2.202.309 4.465-.447C1.588.368 3.907.059 4.349.085 4.349.085 2.828-.568 0 0m10.483 3.962c.574.032.606.356.606.356.498.034.922-.256.922-.256-.713 2.535-3.748 1.026-3.748 1.026C6.582 2.067 2.721 2.827.62 4.308c-2.1 1.48-3.1 1.225-4.194 1.08-.705-.095-1.327-.009-1.327-.009-.228-.963.389-2.293.46-2.592-1.326-.557-3.221.881-3.221.881-.433-.735-1.248-.982-1.961-.98.147-1.231-.747-1.885-2.306-3.314-1.557-1.428-3.278-2.759-3.229-4.949.049-2.191 1.218-3.684.487-6.021-.73-2.337-2.743-2.475-2.743-2.475.568-.941 1.688-.624 1.688-.624-1.468-1.29-3.749-1.38-3.749-1.38.016-1.452 1.648-1.859 1.648-1.859-.601-2.182.292-3.781.292-3.781.543.211.844.99.844.99.17-.544.414-2.109.324-2.418-.089-.308-.616-1.711.804-1.638 1.419.072 1.663-.098 1.663-.098.365-.308.227-.949.227-.949 1.444.113.868 1.509.868 1.509 1.347-.155 1.119-1.412 1.119-1.412 1.332.146.893 1.485.893 1.485 1.152 0 1.25-1.177 1.25-1.177.692 0 1.406 2.9-2.228 2.857-1.561-.019-3.03.909-2.64 3.223.389 2.316 2.942 4.825 2.942 4.825-2.863-1.117-3.527-3.591-3.527-3.591 0 2.337 1.363 3.874 2.922 4.392 1.557.52 1.947 1.234 1.947 1.234.151-.736-.368-1.471-.281-1.471.086 0 2.358-.26 2.358 2.141 0 2.403-.276 3.435-1.766 5.987-1.527 2.615-.203 3.642-.203 3.642-.494-1.948 2.353-5.269 2.353-5.269s.516 1.613 2.893 2.59C-1.616-3.566-.952-1.772-.952-1.772c-1.288.465-3.171-.531-3.171-.531-.422.596-.213 1.35-.213 1.35-1.406-.519-3.216.382-3.216.382.439.443.484 1.318.484 1.318-.789.368-2.324-.117-2.324-.117 1.148.974 3.04.627 3.04.627.12-.682-.281-1.428-.281-1.428 1.818-.66 3.365.281 3.365.281-.487-.768.033-1.341.033-1.341 1.049.584 3.96.909 6.621.378 2.662-.53 3.235.617 3.83 1.056.595.439 1.201.427 1.763.112.563-.313.876-.112.876-.112.477-.265.455-.753.444-.774-.011-.022.866-.011.649 1.157-.216 1.169-1.568 1.461-1.579 1.461 0 0 .292.216.768.054.476-.163.628.033.628.033.432-.087.789-.693.789-.693.909 2.564-1.741 2.142-1.741 2.142 0 .195.097.347.67.379" style="fill:#91cf96;fill-opacity:1;fill-rule:nonzero;stroke:none" transform="translate(387.601 347.944)"/><path d="M0 0a21.621 21.621 0 0 1-2.402-.164s-2.197.628-3.343 2.532c-1.147 1.903.151 5.041.422 5.528 0 0-1.915-1.233-1.623-4.63 0 0-1.212 2.845 1.288 6.697 0 0-.098-1.007.226-1.32 0 0 .162.27.52.336.357.064.887.377.887 1.449 0 1.071-2.016 5.059-5.676 6.808-1.053-.846-2.989-1.143-3.572-2.503 0 0 4.423-.868 3.96-5.516 0 0-.532 4.546-4.469 4.279 0 0 6.343-2.246 2.18-10.458 0 0 .598-1.07 2.324-1.168 0 0-1.876-.724-1.087-1.85 0 0 1.709.691 4.043-.963.75-.533.651-1.204 1.152-1.443.621-.295 1.823-.469 2.735-.775 0 0 .676-.195.455-.93.114-.179 1.363.065.768 1.644 0 0 1.198-.008 1.071-1.104.162-.124 1.341.215.757 1.461 0 0 .99.038 1.114-.876.326-.114.796.801.202 1.874C1.729-.726.902.001 0 0" style="fill:#91cf96;fill-opacity:1;fill-rule:nonzero;stroke:none" transform="translate(394.373 325.844)"/><path d="M0 0c.888.178.975-.345.975-.345-.204.156-.56.193-.658.082C.202-.414.266-.689.204-1.024c.007.015.587-.266.953.507.301.112.679 1.051-.003 1.454-.57.337-1.052.217-1.052.217C.156.961-.054.048-.054.048Z" style="fill:#91cf96;fill-opacity:1;fill-rule:nonzero;stroke:none" transform="translate(397.69 364.604)"/><path d="M0 0c-.343.019-.601-.102-.563-.418.019-.168.105-.499.109-.679 0 .018.836.172.761 1.025.239.213.213 1.155-.51 1.301-.651.13-1.447-.478-1.493-1.379.192-.071.384-.221.469-.239C-.69.526 0 0 0 0" style="fill:#91cf96;fill-opacity:1;fill-rule:nonzero;stroke:none" transform="translate(397.032 365.529)"/><path d="M0 0a.922.922 0 0 0-.174-.652c.507-.148.459-.499.459-.499A.505.505 0 0 1-.149-.9c-.133.004-.225-.057-.267-.194a3.802 3.802 0 0 0-.216-.564C.485-1.974 1.431-.242 0 0" style="fill:#91cf96;fill-opacity:1;fill-rule:nonzero;stroke:none" transform="translate(399.37 364.306)"/><path d="m0 0-1.1-.336L-2.2 0c-10.245 3.125-17.292 9.447-20.213 13.912-4.946 7.562-7.351 15.567-7.351 24.476v-3.141c0-8.908 2.405-16.914 7.351-24.475C-19.492 6.307-12.445-.016-2.2-3.141l1.1-.336 1.1.336C10.246-.016 17.292 6.307 20.213 10.772c4.947 7.561 7.351 15.567 7.351 24.475v3.141c0-8.909-2.404-16.914-7.351-24.476C17.292 9.447 10.246 3.125 0 0" style="fill:#2a2522;fill-opacity:1;fill-rule:nonzero;stroke:none" transform="translate(429.884 312.973)"/><path d="M0 0c-8.279 3.382-16.889 5.025-26.319 5.025-9.431 0-18.04-1.643-26.32-5.024l-2.344-.958v-11.81l2.344.957c8.28 3.381 16.889 5.026 26.32 5.026 9.43 0 18.04-1.645 26.319-5.026l2.345-.957v11.81z" style="fill:#c31b32;fill-opacity:1;fill-rule:nonzero;stroke:none" transform="translate(455.104 385.98)"/><path d="M0 0c.923.292 1.481 1.078 1.481 2.616 0 1.273-.521 1.701-1.608 1.358l-.439-.14V-.18Zm-.313 4.945c2.204.698 2.986-.366 2.986-2.091 0-1.71-.857-3.31-2.584-3.857l-1.818-.575v6.075z" style="fill:#fff;fill-opacity:1;fill-rule:nonzero;stroke:none" transform="translate(407.212 379.613)"/><path d="m0 0-2.497-.577v-1.452l2.07.478v-1.031l-2.07-.479v-1.53l2.642.611v-1.032l-3.83-.884V.18L0 1.03Z" style="fill:#fff;fill-opacity:1;fill-rule:nonzero;stroke:none" transform="translate(414.513 385.562)"/><path d="M0 0c.656.1 1.606.136 1.606 1.089 0 .952-.95.697-1.606.598l-.248-.039V-.038Zm.865 2.85c1.399.213 1.978-.738 1.978-1.612 0-.922-.54-1.918-2.28-2.183l-.811-.123v-2.328l-1.205-.184v6.075z" style="fill:#fff;fill-opacity:1;fill-rule:nonzero;stroke:none" transform="translate(417.076 384.315)"/><path d="M0 0v-4.202c0-1.249-.856-2.034-2.134-2.135-1.277-.1-2.134.552-2.134 1.801v4.201l1.215.095v-3.811c0-1.014.304-1.303.919-1.255.615.048.919.384.919 1.4v3.81z" style="fill:#fff;fill-opacity:1;fill-rule:nonzero;stroke:none" transform="translate(424.965 387.885)"/><path d="M0 0v6.075l1.218.034V.034Z" style="fill:#fff;fill-opacity:1;fill-rule:nonzero;stroke:none" transform="translate(426.007 381.822)"/><path d="M0 0c-.117.424-.351.857-.843.866-.398.008-.741-.275-.741-.688 0-1.196 2.857-.467 2.857-2.732 0-.742-.562-1.841-2.061-1.812-1.155.02-1.991.598-2.179 1.789l1.219.157c.108-.518.374-.905.952-.916.477-.009.874.233.874.757 0 1.219-2.857.569-2.857 2.638 0 1.093.922 1.857 1.975 1.837C.227 1.877 1 1.199 1.102.175Z" style="fill:#fff;fill-opacity:1;fill-rule:nonzero;stroke:none" transform="translate(431.143 386.127)"/><path d="m0 0 .932-.103v-.96l-3.077.339v.961l.933-.103v3.982l-.933.104v.664l1.275.327.87-.096Z" style="fill:#fff;fill-opacity:1;fill-rule:nonzero;stroke:none" transform="translate(437.613 382.32)"/><path d="m0 0-2.35-5.008-1.34.231 2.273 4.653-2.474.426v1.03L0 .663Z" style="fill:#fff;fill-opacity:1;fill-rule:nonzero;stroke:none" transform="translate(443.131 385.917)"/><path d="M0 0c.6-.145.873.282.873.852 0 .484-.266 1.041-.789 1.167-.395.094-.684-.032-.964-.229C-.896 1.2-.735.178 0 0m.979 3.411c-.189.39-.386.648-.796.746-.722.175-1.04-.607-1.026-1.236.35.119.684.186 1.094.088.728-.176 1.784-1 1.784-2.375C2.035-.842.866-1.239.084-1.051-1.024-.783-2.11.313-2.11 2.556c0 2.171 1.04 2.934 2.277 2.636.729-.175 1.413-.786 1.792-1.494Z" style="fill:#fff;fill-opacity:1;fill-rule:nonzero;stroke:none" transform="translate(445.534 380.878)"/><path d="m0 0-.015.005-1.123-1.804L0-2.163Zm1.16-2.534.721-.231v-.96l-.721.231v-1.413L0-4.537v1.414l-2.269.726v.882l2.076 3.116 1.353-.433Z" style="fill:#fff;fill-opacity:1;fill-rule:nonzero;stroke:none" transform="translate(450.354 383.119)"/><path d="M0 0c8.473 2.584 15.192 7.837 18.158 12.37 4.233 6.471 6.736 13.71 6.736 22.411V54.1C16.326 57.599 7.948 58.845 0 58.845c-7.949 0-16.327-1.246-24.895-4.745V34.781c0-8.701 2.504-15.94 6.737-22.411C-15.192 7.837-8.473 2.584 0 0m-.325-1.067C-9.892 1.851-16.414 7.666-19.092 11.76c-4.655 7.115-6.918 14.645-6.918 23.021v20.068l.695.283C-17.361 58.381-9.08 59.96 0 59.96c9.08 0 17.36-1.579 25.315-4.828l.694-.283V34.781c0-8.376-2.263-15.906-6.918-23.021C16.413 7.666 9.892 1.851.325-1.067L0-1.167Z" style="fill:#2a2522;fill-opacity:1;fill-rule:nonzero;stroke:none" transform="translate(428.784 316.58)"/><path d="m0 0 .325.1c9.567 2.918 16.088 8.733 18.766 12.827 4.655 7.115 6.918 14.645 6.918 23.021v20.068l-.694.283C17.36 59.548 9.08 61.127 0 61.127c-9.08 0-17.361-1.579-25.315-4.828l-.695-.283V35.948c0-8.376 2.263-15.906 6.918-23.021C-16.414 8.833-9.892 3.018-.325.1zm-1.101-2.439C-11.346.686-18.393 7.008-21.313 11.473c-4.947 7.561-7.351 15.567-7.351 24.475V57.8l2.345.957C-18.04 62.138-9.431 63.782 0 63.782c9.431 0 18.04-1.644 26.319-5.025l2.345-.957V35.948c0-8.908-2.404-16.914-7.352-24.475C18.392 7.008 11.346.686 1.1-2.439L0-2.775Z" style="fill:#fff;fill-opacity:1;fill-rule:nonzero;stroke:none" transform="translate(428.784 315.413)"/><path d="M0 0h24.794v27.015c-7.949 0-16.327-1.246-24.895-4.745V2.951C-.101 1.948-.065.965 0 0" style="fill:#fff;fill-opacity:1;fill-rule:nonzero;stroke:none" transform="translate(403.99 348.41)"/><path d="M0 0h24.794v-31.83c-8.473 2.584-15.192 7.837-18.158 12.37C2.891-13.735.501-7.408 0 0" style="fill:#1f4130;fill-opacity:1;fill-rule:nonzero;stroke:none" transform="translate(403.99 348.41)"/><path d="M0 0h-24.794v27.015c7.948 0 16.326-1.246 24.894-4.745V2.951C.1 1.948.065.965 0 0" style="fill:#1f4130;fill-opacity:1;fill-rule:nonzero;stroke:none" transform="translate(453.579 348.41)"/><path d="M0 0h-24.794v-31.83c8.473 2.584 15.192 7.837 18.158 12.37C-2.892-13.735-.502-7.408 0 0" style="fill:#fff;fill-opacity:1;fill-rule:nonzero;stroke:none" transform="translate(453.579 348.41)"/><path d="M0 0c1.473.066 2.476.572 2.476 2.29 0 1.717-1.846 1.889-2.862 1.889-1.015 0-1.144-.187-1.144-.187V.072S-.958-.043 0 0m.43-7.211c1.726 0 2.646.892 2.646 2.532 0 1.13-.425 2.008-1.473 2.347-.496.16-1.316.175-1.96.272a1.918 1.918 0 0 0-1.16.644v-5.423s.702-.372 1.947-.372M-5.034 5.896a.11.11 0 0 0 .096.158c.832.002 4.509.013 6.04.013 2.567 0 4.45-1.314 4.45-3.491 0-2.115-.965-2.92-1.775-3.37a.108.108 0 0 1 .016-.196c.634-.236 2.288-1.116 2.288-3.903 0-3.448-2.16-4.764-5.021-4.764h-6.044a.107.107 0 0 0-.092.165c.179.284.498.939.498 1.98V3.921c0 1.166-.2 1.448-.456 1.975" style="fill:#fff;fill-opacity:1;fill-rule:nonzero;stroke:none" transform="translate(439.875 361.104)"/><path d="M0 0c1.473.066 2.476.572 2.476 2.29 0 1.717-1.846 1.889-2.862 1.889-1.015 0-1.144-.187-1.144-.187V.072S-.958-.043 0 0m.43-7.211c1.726 0 2.646.891 2.646 2.532 0 1.13-.425 2.008-1.473 2.347-.496.16-1.316.175-1.96.272a1.918 1.918 0 0 0-1.16.644v-5.423s.702-.372 1.947-.372M-5.034 5.896a.108.108 0 0 0 .096.157c.832.003 4.509.014 6.04.014 2.567 0 4.45-1.315 4.45-3.491 0-2.115-.965-2.92-1.775-3.37a.108.108 0 0 1 .016-.196c.634-.236 2.288-1.116 2.288-3.903 0-3.448-2.16-4.764-5.021-4.764h-6.044a.107.107 0 0 0-.092.165c.179.284.498.939.498 1.98V3.921c0 1.165-.2 1.448-.456 1.975" style="fill:#1f4130;fill-opacity:1;fill-rule:nonzero;stroke:none" transform="translate(439.875 338.681)"/><path d="M0 0c1.473.066 2.476.572 2.476 2.29 0 1.717-1.846 1.889-2.862 1.889s-1.144-.187-1.144-.187V.072S-.958-.043 0 0m.43-7.211c1.726 0 2.646.891 2.646 2.532 0 1.13-.425 2.008-1.473 2.347-.496.16-1.316.175-1.96.272a1.918 1.918 0 0 0-1.16.644v-5.423s.702-.372 1.947-.372M-5.034 5.896a.108.108 0 0 0 .096.157c.832.003 4.509.014 6.04.014 2.567 0 4.45-1.315 4.45-3.491 0-2.115-.965-2.92-1.775-3.37a.108.108 0 0 1 .016-.196c.634-.236 2.288-1.116 2.288-3.903 0-3.448-2.16-4.764-5.022-4.764h-6.043a.107.107 0 0 0-.092.165c.179.284.498.939.498 1.98V3.921c0 1.165-.2 1.448-.456 1.975" style="fill:#fff;fill-opacity:1;fill-rule:nonzero;stroke:none" transform="translate(417.995 338.681)"/><path d="M0 0c1.473.066 2.476.572 2.476 2.29 0 1.717-1.846 1.889-2.862 1.889s-1.144-.187-1.144-.187V.072S-.958-.043 0 0m.43-7.211c1.726 0 2.646.892 2.646 2.532 0 1.13-.425 2.008-1.473 2.347-.496.16-1.316.175-1.96.272a1.918 1.918 0 0 0-1.16.644v-5.423s.702-.372 1.947-.372M-5.034 5.896a.11.11 0 0 0 .096.158c.832.002 4.509.013 6.04.013 2.567 0 4.45-1.314 4.45-3.491 0-2.115-.965-2.92-1.775-3.37a.108.108 0 0 1 .016-.196c.634-.236 2.288-1.116 2.288-3.903 0-3.448-2.16-4.764-5.022-4.764h-6.043a.107.107 0 0 0-.092.165c.179.284.498.939.498 1.98V3.921c0 1.166-.2 1.448-.456 1.975" style="fill:#1f4130;fill-opacity:1;fill-rule:nonzero;stroke:none" transform="translate(417.995 361.104)"/><path d="M0 0c3.019.268 4.864 2.22 4.865 5.644 0 3.4-1.92 4.988-4.865 4.728-.599-.053-1.197-.106-1.796-.161V-.161C-1.197-.106-.599-.053 0 0m-6.161 13.558c2.111.199 4.224.392 6.336.58 5.613.494 9.209-2.502 9.208-8.124 0-5.626-3.596-9.252-9.208-9.747a1221.67 1221.67 0 0 1-6.336-.58z" style="fill:#1f4130;fill-opacity:1;fill-rule:nonzero;stroke:none" transform="translate(335.135 208.276)"/><path d="M0 0c0 .975-.675 1.805-1.698 1.729-1.249-.09-1.847-1.038-2.073-2.001C-2.514-.18-1.257-.089 0 0m-1.599 4.984c3.795.272 5.945-2.239 5.945-5.813 0-.428-.099-1.357-.1-1.357-2.706-.179-5.411-.369-8.116-.568.324-1.55 1.623-2.181 2.996-2.083 1.849.132 3.547 1.547 3.547 1.546l1.598-2.917c.001-.003-2.073-2.009-5.495-2.253-4.595-.33-7.066 2.793-7.066 6.221.001 3.771 2.547 6.927 6.691 7.224" style="fill:#1f4130;fill-opacity:1;fill-rule:nonzero;stroke:none" transform="translate(354.51 214.14)"/><path d="M0 0c1.275.065 1.899.973 1.9 1.971-.001.999-.599 1.794-1.875 1.73l-2.649-.139v-3.7L0 0m-.375 7.18c1.1.054 1.577.881 1.576 1.728C1.2 9.734.725 10.409-.45 10.35l-2.174-.116V7.061c.75.041 1.5.08 2.249.119m-6.623 6.56c2.191.127 4.382.247 6.573.361 3.575.186 6.074-1.304 6.075-4.377 0-1.5-.725-3.057-2.075-3.898v-.05c2.051-.528 2.8-2.317 2.801-3.893-.001-3.899-3.251-5.469-6.801-5.654-2.191-.114-4.382-.233-6.573-.36Z" style="fill:#1f4130;fill-opacity:1;fill-rule:nonzero;stroke:none" transform="translate(374.528 211.033)"/><path d="M0 0c1.426.054 2.852.104 4.277.151L1.326-3.701c-1.117-.04-2.234-.082-3.351-.126C-1.351-2.551-.675-1.275 0 0m1.476-9.744C1.475-8.77.801-7.917-.225-7.957c-1.251-.042-1.85-.971-2.076-1.929 1.259.049 2.518.097 3.777.142m-1.601 5.04c3.801.141 5.952-2.444 5.952-6.018 0-.426-.099-1.351-.099-1.352-2.71-.087-5.419-.184-8.129-.291.326-1.56 1.626-2.236 3.001-2.185 1.851.069 3.551 1.423 3.552 1.424.534-.99 1.068-1.981 1.601-2.973 0 .001-2.077-1.935-5.503-2.063-4.602-.17-7.076 3.038-7.077 6.463 0 3.772 2.553 6.837 6.702 6.995" style="fill:#1f4130;fill-opacity:1;fill-rule:nonzero;stroke:none" transform="translate(389.458 225.817)"/><path d="M0 0c1.409.042 2.818.08 4.228.116v-3.375C2.818-3.295 1.409-3.333 0-3.375Zm-.05-5c1.443.042 2.885.081 4.327.119v-12.873a896.102 896.102 0 0 1-4.327-.119Z" style="fill:#1f4130;fill-opacity:1;fill-rule:nonzero;stroke:none" transform="translate(397.74 226.093)"/><path d="M0 0c-.001.975-.676 1.838-1.701 1.822C-2.952 1.8-3.553.889-3.777-.064-2.519-.041-1.26-.02 0 0m-1.602 5.073c3.802.064 5.956-2.565 5.956-6.139-.002-.426-.101-1.349-.101-1.351-2.71-.031-5.421-.072-8.131-.124.326-1.567 1.628-2.269 3.002-2.247 1.853.028 3.554 1.351 3.554 1.351l1.6-3.004c.001 0-2.077-1.897-5.505-1.952-4.603-.076-7.08 3.179-7.079 6.608.001 3.773 2.551 6.787 6.704 6.858" style="fill:#1f4130;fill-opacity:1;fill-rule:nonzero;stroke:none" transform="translate(412.65 216.63)"/><path d="M0 0c1.385.013 2.77.022 4.154.03v-2.175a7.072 7.072 0 0 0-.05-.799h.05C4.705-1.19 6.33.265 8.257.269c.25-.002.501-.048.501-.05V-4.03c.001-.001-.35.072-.876.074-1.027 0-2.702-.335-3.328-2.261-.15-.475-.226-1.052-.225-1.75v-4.874c-1.443-.008-2.886-.018-4.329-.031Z" style="fill:#1f4130;fill-opacity:1;fill-rule:nonzero;stroke:none" transform="translate(419.41 221.512)"/><path d="M0 0c1.518-.008 3.036-.02 4.554-.033l2.001-6.869c.251-.826.476-2.231.476-2.23l.05-.001c0 .001.225 1.373.475 2.22L9.533-.09c1.526-.021 3.052-.047 4.578-.074-1.459-4.264-2.919-8.53-4.378-12.801-1.759.025-3.519.045-5.279.061C2.97-8.6 1.484-4.299 0 0" style="fill:#1f4130;fill-opacity:1;fill-rule:nonzero;stroke:none" transform="translate(434.352 221.545)"/><path d="M0 0c1.442-.028 2.886-.06 4.328-.094v-7.549c.001-1.2.475-1.709 1.375-1.732 1.851-.047 2.728 1.552 2.728 3.477v5.699c1.442-.039 2.884-.082 4.327-.127v-12.873c-1.384.044-2.769.085-4.153.123v1.125c.001.424.05.798.05.799l-.05.002c-.701-1.357-2.301-2.163-4.027-2.121C2.025-13.21-.001-11.973 0-8.349z" style="fill:#1f4130;fill-opacity:1;fill-rule:nonzero;stroke:none" transform="translate(449.943 221.353)"/><path d="M0 0c1.385-.048 2.769-.099 4.152-.151v-1.125c0-.424-.05-.799-.05-.799l.05-.002c.599.978 1.826 2.154 4.101 2.058 2.601-.112 4.624-1.407 4.626-5.03v-8.347c-1.442.067-2.884.131-4.326.193v7.548c0 1.201-.475 1.72-1.426 1.759-1.35.057-2.175-.659-2.55-1.746-.175-.494-.25-1.065-.25-1.691v-5.697c-1.442.055-2.885.108-4.327.158Z" style="fill:#1f4130;fill-opacity:1;fill-rule:nonzero;stroke:none" transform="translate(465.955 220.919)"/><path d="M0 0c1.441-.079 2.883-.162 4.323-.247v-5.649c0-.648-.051-1.098-.05-1.097l.05-.003c.725 1.232 2.224 1.918 3.923 1.809 2.599-.163 4.622-1.5 4.622-5.125v-8.347c-1.44.097-2.882.191-4.322.282v7.548c0 1.203-.475 1.727-1.424 1.789-1.324.082-2.198-.638-2.574-1.743-.175-.489-.224-1.033-.225-1.637v-5.698c-1.44.085-2.882.168-4.323.247Z" style="fill:#1f4130;fill-opacity:1;fill-rule:nonzero;stroke:none" transform="translate(487.688 224.942)"/><path d="M0 0c0 .974-.675 1.899-1.697 1.979-1.249.094-1.847-.761-2.073-1.695C-2.513.191-1.257.097 0 0m-1.598 5.221c3.794-.29 5.942-3.117 5.941-6.691-.001-.424-.099-1.343-.099-1.341-2.704.22-5.409.429-8.114.628.326-1.599 1.623-2.418 2.996-2.524 1.848-.141 3.547 1.02 3.546 1.022l1.597-3.152c0 .002-2.072-1.702-5.493-1.442-4.592.348-7.068 3.835-7.066 7.261 0 3.773 2.547 6.552 6.692 6.239" style="fill:#1f4130;fill-opacity:1;fill-rule:nonzero;stroke:none" transform="translate(510.997 213.602)"/><path d="M0 0a999.3 999.3 0 0 0 4.218-.361v-3.375c-1.406.123-2.813.243-4.218.361Zm-.05-4.995c1.44-.121 2.878-.244 4.318-.37v-12.872c-1.44.127-2.878.25-4.318.37z" style="fill:#1f4130;fill-opacity:1;fill-rule:nonzero;stroke:none" transform="translate(517.79 222.854)"/><path d="M0 0c1.364-.124 2.728-.25 4.091-.379v-4.099c-1.363.129-2.727.255-4.091.379Z" style="fill:#1f4130;fill-opacity:1;fill-rule:nonzero;stroke:none" transform="translate(525.152 208.44)"/><path d="M0 0h.64v3.559H0v1.119h2.711V3.559h-.64V.08h1.232v.84h1.199v-1.959H0Z" style="fill:#c31b32;fill-opacity:1;fill-rule:nonzero;stroke:none" transform="translate(384.788 191.697)"/><path d="m0 0-.296 1.055c-.097.352-.112.599-.112.599H-.44s-.016-.247-.112-.599L-.855 0Zm-3.271-1.848h.472L-1.24 2.83H.392L1.95-1.848h.472v-1.039H.031v1.039h.496l-.215.76H-1.16l-.216-.76h.496v-1.039h-2.391z" style="fill:#c31b32;fill-opacity:1;fill-rule:nonzero;stroke:none" transform="translate(394.612 193.545)"/><path d="M0 0c.104 0 .192.017.264.048.223.097.343.36.343.624 0 .336-.191.592-.599.592h-.831V0Zm-.12 2.383c.351 0 .504.248.504.552 0 .2-.08.416-.264.496a.911.911 0 0 1-.351.048h-.592V2.383ZM-2.895-.08h.64v3.639h-.64v1.039h2.671c.448 0 .728-.016 1.047-.12.6-.208 1-.704 1-1.368 0-.495-.232-.975-.679-1.223v-.016c.679-.208.911-.767.911-1.311 0-.864-.6-1.431-1.272-1.599a3.407 3.407 0 0 0-.855-.08h-2.823z" style="fill:#c31b32;fill-opacity:1;fill-rule:nonzero;stroke:none" transform="translate(405.923 191.777)"/><path d="M0 0h.64v3.639H0v1.039h2.711V3.639h-.64V0h.64v-1.039H0Z" style="fill:#c31b32;fill-opacity:1;fill-rule:nonzero;stroke:none" transform="translate(410.445 191.697)"/><path d="M0 0h1.415l.928-1.199H1.207Zm-.72-6.245h.64v3.639h-.64v1.039h4.406v-1.688h-1.2v.568H1.352v-1.159h1.67v-1.12h-1.67v-1.199h1.231v.568h1.199v-1.687H-.72Z" style="fill:#c31b32;fill-opacity:1;fill-rule:nonzero;stroke:none" transform="translate(416.42 197.942)"/><path d="M0 0c.447 0 .728.225.728.744 0 .264-.065.512-.312.632-.128.063-.312.096-.552.096h-.511V0Zm-2.719-2.087h.64v3.639h-.64v1.039h2.583c.432 0 .816-.016 1.144-.112.687-.208 1.142-.768 1.142-1.607 0-.752-.359-1.264-.926-1.567v-.016s.223-.097.351-.344l.44-.847c.072-.136.183-.185.368-.185h.2v-1.039h-.944c-.464 0-.648.112-.808.424L.136-1.367c-.096.184-.2.248-.496.248h-.287v-.968h.599v-1.039h-2.671z" style="fill:#c31b32;fill-opacity:1;fill-rule:nonzero;stroke:none" transform="translate(425.45 193.784)"/><path d="M0 0h.64v3.639H0v1.039h4.406V2.99h-1.2v.569H2.071v-1.16h1.671v-1.12H2.071V.08h1.232v.568h1.199v-1.687H0Z" style="fill:#c31b32;fill-opacity:1;fill-rule:nonzero;stroke:none" transform="translate(430.413 191.697)"/><path d="M0 0c.353 0 .616.04.872.16.487.248.775.816.775 1.575 0 .848-.351 1.4-.879 1.623-.247.104-.48.121-.768.121h-.415V0Zm-2.486-.08h.639v3.639h-.639v1.039H.032c.441 0 .816-.016 1.176-.12 1.135-.32 1.919-1.303 1.919-2.735 0-1.311-.672-2.286-1.719-2.671C.992-1.079.561-1.119.04-1.119h-2.526z" style="fill:#c31b32;fill-opacity:1;fill-rule:nonzero;stroke:none" transform="translate(443.69 191.777)"/><path d="M0 0h1.215L.504-2.039h-.936z" style="fill:#c31b32;fill-opacity:1;fill-rule:nonzero;stroke:none" transform="translate(449.595 196.495)"/><path d="M0 0h.64v3.639H0v1.039h2.711V3.639h-.64V0h.64v-1.039H0Z" style="fill:#c31b32;fill-opacity:1;fill-rule:nonzero;stroke:none" transform="translate(453.043 191.697)"/><path d="M0 0c.695 0 2.311-.224 2.311-1.143v-.904h-1.28v.441c0 .319-.584.407-.968.407-.927 0-1.575-.6-1.575-1.663 0-1.184.704-1.847 1.656-1.847.255 0 .951.063.951.407v.441h1.279v-.92c0-.871-1.543-1.127-2.335-1.127-1.751 0-3.03 1.295-3.03 2.966C-2.991-1.231-1.672 0 0 0" style="fill:#c31b32;fill-opacity:1;fill-rule:nonzero;stroke:none" transform="translate(461.17 196.47)"/><path d="M0 0h.64v3.639H0v1.039h2.711V3.639h-.64V0h.64v-1.039H0Z" style="fill:#c31b32;fill-opacity:1;fill-rule:nonzero;stroke:none" transform="translate(466.042 191.697)"/><path d="M471.386 191.969h1.312v-1.312h-1.312z" style="fill:#c31b32;fill-opacity:1;fill-rule:nonzero;stroke:none"/></g></svg>