<?xml version="1.0" encoding="UTF-8" standalone="no"?>
<!-- Created with Inkscape (http://www.inkscape.org/) -->

<svg
   xmlns:dc="http://purl.org/dc/elements/1.1/"
   xmlns:cc="http://creativecommons.org/ns#"
   xmlns:rdf="http://www.w3.org/1999/02/22-rdf-syntax-ns#"
   xmlns:svg="http://www.w3.org/2000/svg"
   xmlns="http://www.w3.org/2000/svg"
   xmlns:sodipodi="http://sodipodi.sourceforge.net/DTD/sodipodi-0.dtd"
   xmlns:inkscape="http://www.inkscape.org/namespaces/inkscape"
   version="1.1"
   id="svg2"
   xml:space="preserve"
   width="416.3616"
   height="267.25574"
   viewBox="0 0 416.3616 267.25574"
   sodipodi:docname="bofferding.svg"
   inkscape:version="0.92.5 (2060ec1f9f, 2020-04-08)"><metadata
     id="metadata8"><rdf:RDF><cc:Work
         rdf:about=""><dc:format>image/svg+xml</dc:format><dc:type
           rdf:resource="http://purl.org/dc/dcmitype/StillImage" /><dc:title></dc:title></cc:Work></rdf:RDF></metadata><defs
     id="defs6"><clipPath
       clipPathUnits="userSpaceOnUse"
       id="clipPath18"><path
         d="M 0,595.276 H 841.89 V 0 H 0 Z"
         id="path16"
         inkscape:connector-curvature="0" /></clipPath><clipPath
       clipPathUnits="userSpaceOnUse"
       id="clipPath34"><path
         d="M 272.635,329.1 H 584.906 V 232.565 H 272.635 Z"
         id="path32"
         inkscape:connector-curvature="0" /></clipPath><clipPath
       clipPathUnits="userSpaceOnUse"
       id="clipPath38"><path
         d="m 275.234,329.099 c 11.582,-2.279 69.871,-12.868 153.537,-12.868 83.665,0 141.954,10.589 153.536,12.868 0.688,-4.208 1.183,-8.466 1.455,-12.774 0.758,-12.697 1.144,-25.507 1.144,-38.073 0,-12.885 -0.386,-26.018 -1.144,-39.036 -0.137,-2.214 -0.34,-4.433 -0.581,-6.652 -12.279,2.34 -72.863,13.034 -154.41,13.034 -81.548,0 -142.131,-10.694 -154.411,-13.034 -0.241,2.219 -0.445,4.438 -0.581,6.652 -0.758,13.018 -1.144,26.151 -1.144,39.036 0,12.566 0.386,25.376 1.144,38.073 0.272,4.308 0.767,8.566 1.455,12.774"
         id="path36"
         inkscape:connector-curvature="0" /></clipPath><linearGradient
       x1="0"
       y1="0"
       x2="1"
       y2="0"
       gradientUnits="userSpaceOnUse"
       gradientTransform="matrix(312.27036,0,0,-312.27036,272.63528,280.83206)"
       spreadMethod="pad"
       id="linearGradient64"><stop
         style="stop-opacity:1;stop-color:#2b2826"
         offset="0"
         id="stop40" /><stop
         style="stop-opacity:1;stop-color:#2b2826"
         offset="0.00342114"
         id="stop42" /><stop
         style="stop-opacity:1;stop-color:#33302e"
         offset="0.02"
         id="stop44" /><stop
         style="stop-opacity:1;stop-color:#4d4c4a"
         offset="0.187931"
         id="stop46" /><stop
         style="stop-opacity:1;stop-color:#a3a29f"
         offset="0.45224246"
         id="stop48" /><stop
         style="stop-opacity:1;stop-color:#a3a29f"
         offset="0.502496"
         id="stop50" /><stop
         style="stop-opacity:1;stop-color:#a3a29f"
         offset="0.54661095"
         id="stop52" /><stop
         style="stop-opacity:1;stop-color:#444240"
         offset="0.786627"
         id="stop54" /><stop
         style="stop-opacity:1;stop-color:#444240"
         offset="0.91049197"
         id="stop56" /><stop
         style="stop-opacity:1;stop-color:#33302e"
         offset="0.963064"
         id="stop58" /><stop
         style="stop-opacity:1;stop-color:#2b2826"
         offset="0.995019"
         id="stop60" /><stop
         style="stop-opacity:1;stop-color:#2b2826"
         offset="1"
         id="stop62" /></linearGradient><clipPath
       clipPathUnits="userSpaceOnUse"
       id="clipPath94"><path
         d="M 296.091,303 H 562.865 V 260.95 H 296.091 Z"
         id="path92"
         inkscape:connector-curvature="0" /></clipPath></defs><sodipodi:namedview
     pagecolor="#ffffff"
     bordercolor="#666666"
     borderopacity="1"
     objecttolerance="10"
     gridtolerance="10"
     guidetolerance="10"
     inkscape:pageopacity="0"
     inkscape:pageshadow="2"
     inkscape:window-width="1742"
     inkscape:window-height="875"
     id="namedview4"
     showgrid="false"
     inkscape:pagecheckerboard="true"
     inkscape:zoom="0.84100751"
     inkscape:cx="134.134"
     inkscape:cy="166.07017"
     inkscape:window-x="0"
     inkscape:window-y="0"
     inkscape:window-maximized="0"
     inkscape:current-layer="g10" /><g
     id="g10"
     inkscape:groupmode="layer"
     inkscape:label="BOFF_Logo_LUX-Vectorise"
     transform="matrix(1.3333333,0,0,-1.3333333,-363.51306,521.33892)"><g
       id="g12"><g
         id="g14"
         clip-path="url(#clipPath18)"><g
           id="g20"
           transform="translate(428.7709,239.8122)"><path
             d="m 0,0 c 90.133,0 154.248,-8.782 154.248,-8.782 0.327,2.73 0.575,5.462 0.743,8.186 0.758,13.018 1.144,26.151 1.144,39.035 0,12.567 -0.386,25.376 -1.144,38.074 -0.314,4.96 -0.905,9.861 -1.768,14.688 0,0 -60.929,-8.938 -153.223,-8.938 -92.295,0 -153.224,8.938 -153.224,8.938 -0.863,-4.827 -1.454,-9.728 -1.768,-14.688 -0.758,-12.698 -1.144,-25.507 -1.144,-38.074 0,-12.884 0.386,-26.017 1.144,-39.035 0.169,-2.724 0.416,-5.456 0.743,-8.186 0,0 64.115,8.782 154.249,8.782"
             style="fill:#c8cfd2;fill-opacity:1;fill-rule:nonzero;stroke:none"
             id="path22"
             inkscape:connector-curvature="0" /></g><g
           id="g24"
           transform="translate(275.2338,329.0993)"><path
             d="m 0,0 c 11.582,-2.279 69.871,-12.868 153.537,-12.868 83.665,0 141.954,10.589 153.536,12.868 0.688,-4.208 1.183,-8.467 1.455,-12.774 0.758,-12.698 1.144,-25.507 1.144,-38.074 0,-12.884 -0.386,-26.017 -1.144,-39.035 -0.136,-2.215 -0.34,-4.433 -0.581,-6.652 -12.279,2.34 -72.863,13.034 -154.41,13.034 -81.548,0 -142.131,-10.694 -154.411,-13.034 -0.241,2.219 -0.444,4.437 -0.581,6.652 -0.758,13.018 -1.144,26.151 -1.144,39.035 0,12.567 0.386,25.376 1.144,38.074 C -1.183,-8.467 -0.687,-4.208 0,0"
             style="fill:#0f9d4b;fill-opacity:1;fill-rule:nonzero;stroke:none"
             id="path26"
             inkscape:connector-curvature="0" /></g><g
           id="g28"><g
             id="g30" /><g
             id="g78"><g
               clip-path="url(#clipPath34)"
               id="g76"><g
                 id="g74"><g
                   clip-path="url(#clipPath38)"
                   id="g72"><g
                     id="g70"><g
                       id="g68"><path
                         d="m 275.234,329.099 c 11.582,-2.279 69.871,-12.868 153.537,-12.868 83.665,0 141.954,10.589 153.536,12.868 0.688,-4.208 1.183,-8.466 1.455,-12.774 0.758,-12.697 1.144,-25.507 1.144,-38.073 0,-12.885 -0.386,-26.018 -1.144,-39.036 -0.137,-2.214 -0.34,-4.433 -0.581,-6.652 -12.279,2.34 -72.863,13.034 -154.41,13.034 -81.548,0 -142.131,-10.694 -154.411,-13.034 -0.241,2.219 -0.445,4.438 -0.581,6.652 -0.758,13.018 -1.144,26.151 -1.144,39.036 0,12.566 0.386,25.376 1.144,38.073 0.272,4.308 0.767,8.566 1.455,12.774"
                         style="fill:url(#linearGradient64);stroke:none"
                         id="path66"
                         inkscape:connector-curvature="0" /></g></g></g></g></g></g></g><g
           id="g80"
           transform="translate(428.5531,310.5524)"><path
             d="M 0,0 C 71.57,0 128.213,9.027 146.151,12.902 124.936,9.23 71.57,1.459 0,1.459 -71.569,1.459 -124.935,9.23 -146.15,12.902 -128.212,9.027 -71.569,0 0,0"
             style="fill:#ffffff;fill-opacity:1;fill-rule:nonzero;stroke:none"
             id="path82"
             inkscape:connector-curvature="0" /></g><g
           id="g84"
           transform="translate(428.5531,249.8181)"><path
             d="M 0,0 C 69.283,0 123.818,-7.75 146.151,-11.499 126.688,-7.033 69.283,1.459 0,1.459 -69.283,1.459 -126.688,-7.033 -146.15,-11.499 -123.818,-7.75 -69.283,0 0,0"
             style="fill:#ffffff;fill-opacity:1;fill-rule:nonzero;stroke:none"
             id="path86"
             inkscape:connector-curvature="0" /></g><g
           id="g88"><g
             id="g90" /><g
             id="g102"><g
               clip-path="url(#clipPath94)"
               id="g100"><g
                 transform="translate(360.4886,261.7429)"
                 id="g98"><path
                   d="m 0,0 c -0.313,0 -0.593,0.175 -0.73,0.456 -0.138,0.282 -0.104,0.61 0.089,0.857 l 0.399,0.509 c 0.648,0.831 1.393,2.211 1.393,5.541 v 20.933 c 0,3.33 -0.745,4.71 -1.394,5.541 l -0.398,0.509 c -0.193,0.247 -0.227,0.575 -0.089,0.857 0.137,0.281 0.417,0.456 0.73,0.456 h 20.52 c 0.38,0 0.714,-0.27 0.794,-0.642 l 1.402,-6.535 c 0.051,-0.241 -0.008,-0.489 -0.163,-0.68 -0.156,-0.193 -0.386,-0.303 -0.632,-0.303 -0.094,0 -0.188,0.016 -0.276,0.048 L 21.11,27.74 c -2.604,0.94 -6.025,1.137 -8.435,1.137 -1.133,0 -2.212,-0.089 -2.953,-0.168 v -5.522 h 6.835 c 2.009,0 4.463,-1.129 4.739,-6.513 l 0.016,-0.331 C 21.324,16.121 21.243,15.901 21.09,15.741 20.937,15.58 20.723,15.488 20.501,15.488 H 9.722 V 7.363 c 0,-3.33 0.745,-4.71 1.393,-5.541 L 11.514,1.313 C 11.706,1.066 11.741,0.738 11.604,0.456 11.466,0.175 11.187,0 10.873,0 Z m 23.822,0 c -0.312,0 -0.593,0.175 -0.73,0.456 -0.138,0.282 -0.103,0.61 0.09,0.857 l 0.398,0.509 c 0.649,0.831 1.394,2.211 1.394,5.541 v 20.933 c 0,3.33 -0.745,4.71 -1.394,5.541 l -0.398,0.509 c -0.193,0.247 -0.228,0.575 -0.09,0.857 0.137,0.281 0.418,0.456 0.73,0.456 h 20.52 c 0.381,0 0.715,-0.27 0.795,-0.642 l 1.401,-6.535 c 0.052,-0.241 -0.008,-0.489 -0.162,-0.68 -0.156,-0.193 -0.387,-0.303 -0.633,-0.303 -0.094,0 -0.187,0.016 -0.276,0.048 l -0.534,0.193 c -2.605,0.94 -6.025,1.137 -8.436,1.137 -1.133,0 -2.212,-0.089 -2.953,-0.168 v -5.522 h 6.836 c 2.009,0 4.462,-1.129 4.738,-6.513 l 0.017,-0.331 C 45.146,16.121 45.065,15.901 44.912,15.741 44.76,15.58 44.545,15.488 44.323,15.488 H 33.544 V 7.363 c 0,-3.331 0.745,-4.711 1.394,-5.541 L 35.336,1.313 C 35.529,1.066 35.563,0.738 35.426,0.456 35.289,0.175 35.009,0 34.695,0 Z m 106.056,0 c -0.314,0 -0.593,0.175 -0.731,0.456 -0.137,0.282 -0.102,0.61 0.091,0.857 l 0.398,0.509 c 0.649,0.831 1.394,2.211 1.394,5.541 v 20.933 c 0,3.33 -0.745,4.71 -1.394,5.54 l -0.398,0.51 c -0.193,0.247 -0.228,0.575 -0.091,0.856 0.138,0.282 0.417,0.457 0.731,0.457 h 10.873 c 0.313,0 0.594,-0.175 0.731,-0.456 0.137,-0.282 0.103,-0.61 -0.089,-0.857 l -0.399,-0.51 c -0.649,-0.83 -1.394,-2.21 -1.394,-5.54 V 7.363 c 0,-3.33 0.745,-4.71 1.394,-5.541 l 0.398,-0.509 c 0.193,-0.247 0.227,-0.575 0.09,-0.857 C 141.345,0.175 141.064,0 140.751,0 Z m 13.421,0 c -0.314,0 -0.594,0.175 -0.732,0.456 -0.136,0.282 -0.102,0.61 0.091,0.857 l 0.398,0.509 c 0.649,0.831 1.394,2.211 1.394,5.541 v 20.933 c 0,3.33 -0.745,4.71 -1.394,5.54 l -0.398,0.51 c -0.193,0.247 -0.227,0.575 -0.091,0.856 0.138,0.282 0.418,0.457 0.732,0.457 h 4.056 c 2.27,0 3.922,-0.493 5.651,-3.013 1.177,-1.716 6.804,-9.709 9.737,-13.874 v 9.524 c 0,3.33 -0.744,4.71 -1.393,5.54 l -0.399,0.51 c -0.192,0.247 -0.226,0.575 -0.09,0.857 0.138,0.281 0.418,0.456 0.732,0.456 h 8.971 c 0.314,0 0.594,-0.175 0.732,-0.456 0.137,-0.282 0.102,-0.61 -0.09,-0.857 l -0.398,-0.51 c -0.65,-0.83 -1.395,-2.21 -1.395,-5.54 V 1.16 l -0.634,-0.309 c -0.094,-0.046 -0.954,-0.447 -2.099,-0.447 -1.31,0 -2.488,0.402 -3.977,2.361 -0.974,1.282 -7.714,11.508 -11.583,17.396 V 7.363 c 0,-3.33 0.745,-4.71 1.394,-5.541 l 0.398,-0.509 c 0.192,-0.247 0.228,-0.575 0.09,-0.857 C 152.865,0.175 152.585,0 152.271,0 Z M 47.84,-0.001 c -0.314,0 -0.594,0.175 -0.732,0.457 -0.136,0.282 -0.102,0.61 0.091,0.857 l 0.398,0.509 c 0.649,0.831 1.394,2.211 1.394,5.541 v 20.933 c 0,3.33 -0.745,4.71 -1.394,5.54 l -0.398,0.51 c -0.193,0.246 -0.227,0.575 -0.091,0.856 0.138,0.282 0.418,0.457 0.732,0.457 h 19.651 c 0.381,0 0.715,-0.27 0.795,-0.642 l 1.402,-6.535 c 0.051,-0.241 -0.008,-0.489 -0.164,-0.68 -0.155,-0.193 -0.385,-0.303 -0.631,-0.303 -0.094,0 -0.188,0.016 -0.277,0.048 l -0.534,0.193 c -2.12,0.765 -4.709,1.137 -7.915,1.137 -1.057,0 -1.976,-0.078 -2.605,-0.15 v -5.54 h 5.966 c 2.01,0 4.463,-1.129 4.74,-6.513 l 0.016,-0.331 C 68.296,16.121 68.215,15.901 68.062,15.741 67.909,15.58 67.694,15.488 67.473,15.488 H 57.562 V 9.366 c 0,-1.95 0.199,-2.58 2.579,-2.58 2.398,0 5.963,0.292 9.333,1.684 l 0.32,0.132 c 0.113,0.046 0.232,0.071 0.354,0.071 0.264,0 0.517,-0.114 0.693,-0.314 0.176,-0.198 0.258,-0.462 0.225,-0.725 L 70.221,0.72 C 70.171,0.312 69.824,0.005 69.413,0.005 Z m 34.6,19.96 c 0.493,-0.096 1.025,-0.147 1.871,-0.147 2.918,0 4.499,0.698 4.499,4.379 0,3.281 -1.253,4.558 -4.469,4.558 -0.74,0 -1.345,-0.059 -1.901,-0.187 z M 109.596,6.61 c 0,-0.162 -0.047,-0.313 -0.129,-0.44 0.038,0.002 0.075,0.004 0.11,0.006 3.712,0.214 6.3,1.226 7.912,3.094 1.635,1.893 2.429,4.827 2.429,8.967 0,6.762 -2.686,10.64 -7.369,10.64 -1.126,0 -2.204,-0.088 -2.953,-0.168 z m -2.58,-6.7 c -2.767,0 -5.637,0.063 -7.876,0.171 -5.594,0.271 -9.739,2.396 -12.319,6.317 -1.548,2.354 -3.166,4.857 -4.381,6.744 V 7.363 c 0,-3.33 0.746,-4.71 1.395,-5.541 L 84.232,1.313 C 84.426,1.066 84.461,0.738 84.323,0.456 84.186,0.175 83.905,0 83.592,0 H 72.72 c -0.314,0 -0.594,0.175 -0.732,0.456 -0.136,0.282 -0.102,0.61 0.091,0.857 l 0.398,0.509 c 0.649,0.831 1.394,2.211 1.394,5.541 v 20.933 c 0,3.329 -0.745,4.71 -1.394,5.541 l -0.398,0.509 c -0.193,0.247 -0.227,0.575 -0.09,0.857 0.137,0.281 0.417,0.456 0.731,0.456 h 12.788 c 4.089,0 7.075,-0.925 9.128,-2.827 2.016,-1.868 3.038,-4.675 3.038,-8.343 0,-4.997 -1.964,-8.007 -6.165,-9.405 0.975,-1.513 2.576,-3.985 3.441,-5.264 1.569,-2.316 3.965,-3.338 8.549,-3.644 0.245,-0.017 0.639,-0.03 1.126,-0.04 -1.934,0.504 -3.599,1.755 -3.599,4.868 v 17.292 c 0,3.329 -0.745,4.71 -1.394,5.541 l -0.398,0.509 c -0.193,0.247 -0.227,0.575 -0.089,0.857 0.136,0.281 0.417,0.456 0.73,0.456 h 12.55 c 5.697,0 9.78,-1.574 12.483,-4.812 2.513,-3.01 3.734,-7.396 3.734,-13.407 0,-4.888 -1.258,-9.051 -3.638,-12.039 -2.655,-3.333 -6.532,-5.136 -11.523,-5.361 -1.913,-0.086 -4.087,-0.13 -6.465,-0.13 m -161.32,25.755 c 0.795,-0.069 1.533,-0.084 2.502,-0.084 3.212,0 6.64,0.37 6.64,4.795 0,3.906 -4.875,4.21 -6.369,4.21 -1.084,0 -2.076,-0.08 -2.773,-0.221 z m 0,-18.591 c 1.019,-0.148 2.886,-0.276 5.056,-0.276 4.299,0 6.301,1.777 6.301,5.592 0,4.124 -2.53,5.963 -8.202,5.963 h -0.039 c -1.01,0 -2.134,0 -3.116,-0.112 z m -9.28,-7.82 c -0.285,0 -0.544,0.145 -0.693,0.389 -0.149,0.243 -0.161,0.539 -0.032,0.793 l 0.233,0.459 c 0.821,1.613 1.14,3.131 1.14,5.414 v 27.893 c 0,2.283 -0.319,3.802 -1.14,5.415 l -0.233,0.458 c -0.129,0.254 -0.117,0.551 0.032,0.794 0.149,0.242 0.408,0.388 0.693,0.388 h 14.234 c 4.592,0 7.942,-0.842 10.239,-2.573 2.321,-1.749 3.498,-4.418 3.498,-7.935 0,-2.464 -0.671,-5.74 -3.698,-7.965 4.009,-2.124 5.598,-5.425 5.598,-11.391 0,-7.147 -4.9,-12.139 -11.916,-12.139 z m 47.179,30.14 c -4.042,0 -5.924,-3.534 -5.924,-11.119 0,-5.233 0.802,-8.79 2.384,-10.571 1.204,-1.356 2.609,-1.356 3.54,-1.356 0.929,0 2.335,0 3.54,1.356 1.581,1.781 2.383,5.338 2.383,10.571 0,11.119 -4.303,11.119 -5.923,11.119 m 0,-30.187 c -5.596,0 -9.69,1.962 -12.168,5.831 -1.989,3.105 -2.955,7.435 -2.955,13.237 0,5.189 1.421,9.67 4.109,12.958 2.76,3.376 6.568,5.162 11.014,5.162 4.444,0 8.253,-1.786 11.013,-5.162 2.688,-3.288 4.109,-7.769 4.109,-12.958 0,-5.802 -0.966,-10.132 -2.955,-13.237 -2.479,-3.869 -6.573,-5.831 -12.167,-5.831 m 205.131,0 c -5.492,0 -9.694,1.745 -12.491,5.188 -2.764,3.402 -4.166,8.505 -4.166,15.167 0,11.734 6.998,19.315 17.829,19.315 4.224,0 7.256,-0.654 10.465,-2.258 l 0.262,-0.131 c 0.378,-0.189 0.549,-0.644 0.389,-1.036 l -2.696,-6.576 c -0.126,-0.306 -0.422,-0.504 -0.753,-0.504 -0.169,0 -0.33,0.051 -0.468,0.149 l -0.324,0.227 c -2.219,1.564 -3.739,2.523 -6.875,2.523 -2.636,0 -4.661,-0.967 -6.016,-2.875 -1.403,-1.977 -2.115,-4.949 -2.115,-8.834 0,-5.112 0.795,-8.714 2.361,-10.709 1.085,-1.38 2.502,-1.997 4.598,-1.997 2.756,0 3.845,0.418 4.877,1.293 v 7.403 h -4.553 c -1.079,0 -1.959,0.336 -2.615,0.999 -1.005,1.015 -1.421,2.685 -1.391,5.584 l 0.003,0.311 c 0.005,0.444 0.37,0.805 0.813,0.805 h 14.916 c 0.453,0 0.881,-0.177 1.173,-0.486 0.367,-0.389 0.51,-0.93 0.381,-1.448 -0.513,-2.065 -0.568,-2.935 -0.568,-4.3 V 6.725 c 0,-1.308 0.069,-4.329 0.07,-4.358 0.017,-0.725 -0.445,-1.276 -1.128,-1.353 l -0.052,-0.007 c -0.125,-0.011 -1.181,-0.106 -2.574,-0.371 -0.285,-0.054 -0.684,-0.14 -1.147,-0.24 -2.076,-0.445 -5.543,-1.189 -8.205,-1.189"
                   style="fill:#2a2522;fill-opacity:1;fill-rule:nonzero;stroke:none"
                   id="path96"
                   inkscape:connector-curvature="0" /></g></g></g></g><g
           id="g104"
           transform="translate(349.7455,281.3493)"><path
             d="m 0,0 c 0,-11.17 -3.465,-13.057 -7.051,-13.057 -3.587,0 -7.052,1.887 -7.052,13.057 0,10.553 3.774,12.246 7.052,12.246 C -3.772,12.246 0,10.552 0,0 m -7.051,-17.94 c 11.254,0 13.994,8.184 13.994,17.94 0,9.995 -5.613,16.99 -13.994,16.99 -8.382,0 -13.995,-6.995 -13.995,-16.99 0,-9.756 2.741,-17.94 13.995,-17.94 M -41.795,1.205 c 6.336,0 9.33,-2.287 9.33,-7.091 0,-4.604 -2.678,-6.719 -7.428,-6.719 -2.951,0 -5.545,0.228 -6.184,0.508 V 0.924 c 1.266,0.282 2.887,0.281 4.282,0.281 m -4.282,5.175 v 10.55 c 0.69,0.302 2.051,0.508 3.901,0.508 3.324,0 7.496,-1.166 7.496,-5.337 0,-5.252 -4.111,-5.924 -7.767,-5.924 -1.397,0 -2.342,0.031 -3.63,0.203 m 20.59,-13.263 c 0,6.188 -1.537,9.231 -6.953,11.262 0.44,0.237 5.053,1.852 5.053,8.095 0,6.559 -4.291,9.379 -12.608,9.379 h -13.721 c 0.895,-1.759 1.263,-3.413 1.263,-5.926 v -27.894 c 0,-2.513 -0.368,-4.167 -1.263,-5.927 h 17.442 c 6.468,0 10.787,4.565 10.787,11.011 m 103.976,-10.26 0.77,6.294 c -3.13,-1.293 -6.668,-1.769 -9.764,-1.769 -3.096,0 -3.708,1.224 -3.708,3.708 v 6.873 c 0,0.209 0.169,0.378 0.378,0.378 h 10.33 c -0.181,3.516 -1.309,5.442 -3.611,5.442 h -6.719 c -0.209,0 -0.378,0.169 -0.378,0.378 v 6.818 c 0,0.261 0.192,0.484 0.451,0.521 0.619,0.09 1.826,0.229 3.283,0.229 2.137,0 5.378,-0.15 8.298,-1.204 l -1.228,5.731 h -18.75 c 0.985,-1.262 1.633,-3.002 1.633,-6.235 v -20.934 c 0,-3.233 -0.648,-4.974 -1.633,-6.234 z m 18.629,5.886 c 2.322,-3.529 6.147,-5.555 11.431,-5.811 3.627,-0.175 9.51,-0.253 14.236,-0.04 9.732,0.438 14.083,7.303 14.083,16.272 0,11.036 -4.228,17.092 -15.089,17.092 h -11.903 c 0.985,-1.262 1.633,-3.002 1.633,-6.235 V -7.271 c 0,-3.888 3.025,-4.08 6.313,-4.08 v 22.78 c 0,0 1.945,0.3 4.081,0.3 4.3,0 8.498,-2.896 8.498,-11.767 0,-8.757 -3.405,-12.727 -11.405,-13.188 -1.432,-0.083 -5.086,-0.076 -6.218,0 -4.828,0.323 -7.583,1.442 -9.408,4.138 -1.071,1.582 -3.256,4.976 -4.017,6.16 -0.13,0.202 -0.024,0.473 0.21,0.532 3.998,1.01 6.337,3.31 6.337,8.61 0,6.651 -3.459,10.042 -11.038,10.042 H 82.721 c 0.985,-1.262 1.633,-3.002 1.633,-6.235 v -20.934 c 0,-3.233 -0.648,-4.974 -1.633,-6.234 h 9.58 c -0.987,1.26 -1.634,3.001 -1.634,6.234 v 8.151 c 0,0.433 0.564,0.599 0.797,0.235 1.176,-1.838 3.473,-5.414 5.654,-8.73 M 90.667,0.796 v 10.33 c 0.975,0.356 1.897,0.476 3.028,0.476 3.618,0 5.597,-1.517 5.597,-5.686 0,-4.431 -2.25,-5.508 -5.627,-5.508 -1.339,0 -2.023,0.119 -2.998,0.388 m 82.289,-15.624 c 1.3,-1.71 2.155,-1.915 3.078,-1.915 0.924,0 1.606,0.332 1.606,0.332 v 26.432 c 0,3.233 0.647,4.973 1.633,6.235 h -7.68 c 0.986,-1.262 1.634,-3.002 1.634,-6.235 V -1.827 c 0,-0.383 -0.491,-0.54 -0.711,-0.228 -2.336,3.314 -9.708,13.778 -11.086,15.786 -1.395,2.034 -2.629,2.525 -4.72,2.525 h -3.41 c 0.986,-1.262 1.633,-3.002 1.633,-6.235 v -20.934 c 0,-3.233 -0.647,-4.974 -1.633,-6.234 h 7.679 c -0.986,1.26 -1.632,3.001 -1.632,6.234 V 4.35 c 0,0.388 0.504,0.541 0.717,0.215 2.65,-4.036 11.783,-17.933 12.892,-19.393 m -23.496,-2.319 c -0.986,1.26 -1.634,3.001 -1.634,6.234 v 20.934 c 0,3.233 0.648,4.973 1.634,6.235 h -9.581 c 0.986,-1.262 1.634,-3.002 1.634,-6.235 v -20.934 c 0,-3.233 -0.648,-4.974 -1.634,-6.234 z M 53.441,16.256 H 33.823 c 0.987,-1.262 1.634,-3.002 1.634,-6.235 v -20.934 c 0,-3.233 -0.647,-4.974 -1.634,-6.234 h 9.58 c -0.985,1.26 -1.632,3.001 -1.632,6.234 v 8.876 c 0,0.209 0.168,0.378 0.376,0.378 h 11.199 c -0.181,3.516 -1.31,5.442 -3.612,5.442 h -7.587 c -0.208,0 -0.376,0.169 -0.376,0.378 v 6.807 c 0,0.266 0.198,0.49 0.461,0.523 0.702,0.089 2.113,0.238 3.62,0.238 2.136,0 5.899,-0.15 8.818,-1.204 z m 153.78,-32.787 c 1.14,0.217 2.141,0.334 2.59,0.381 0.142,0.014 0.249,0.135 0.245,0.279 -0.017,0.791 -0.068,3.217 -0.068,4.319 v 10.293 c 0,1.471 0.064,2.403 0.602,4.573 0.067,0.271 -0.139,0.533 -0.417,0.533 h -14.646 c -0.037,-3.52 0.576,-5.443 2.877,-5.443 h 5.682 v -9.033 c -1.328,-1.255 -2.567,-1.919 -6.006,-1.919 -3.844,0 -8.087,1.863 -8.087,13.834 0,11.309 5.747,12.838 9.26,12.838 3.505,0 5.275,-1.144 7.525,-2.729 l 2.435,5.939 c -2.753,1.376 -5.531,2.14 -9.96,2.14 -10.062,0 -16.701,-7.013 -16.701,-18.188 0,-10.455 3.467,-19.226 15.528,-19.226 3.143,0 7.592,1.113 9.141,1.409 M 30.848,10.525 c -2.92,1.054 -6.682,1.204 -8.819,1.204 -1.507,0 -2.918,-0.149 -3.619,-0.238 -0.264,-0.033 -0.462,-0.257 -0.462,-0.523 V 4.161 c 0,-0.209 0.169,-0.378 0.377,-0.378 h 7.586 c 2.303,0 3.432,-1.926 3.612,-5.442 H 18.325 c -0.208,0 -0.377,-0.169 -0.377,-0.378 v -8.876 c 0,-3.233 0.647,-4.974 1.633,-6.234 h -9.58 c 0.986,1.26 1.633,3.001 1.633,6.234 v 20.934 c 0,3.233 -0.647,4.973 -1.633,6.235 h 19.618 z"
             style="fill:#ffffff;fill-opacity:1;fill-rule:nonzero;stroke:none"
             id="path106"
             inkscape:connector-curvature="0" /></g><g
           id="g108"
           transform="translate(369.973,263.7097)"><path
             d="m 0,0 c 0.146,0 0.229,0.17 0.139,0.285 l -0.398,0.51 c -0.712,0.91 -1.529,2.407 -1.529,5.932 v 8.761 H 9.628 c 0.101,0 0.182,0.085 0.176,0.186 l -0.017,0.331 c -0.201,3.922 -1.582,5.91 -4.103,5.91 h -7.472 v 6.692 c 0,0.019 0.013,0.034 0.03,0.036 0.695,0.087 2.082,0.234 3.56,0.234 2.461,0 5.961,-0.203 8.651,-1.175 l 0.534,-0.192 c 0.131,-0.047 0.262,0.067 0.233,0.203 l -1.401,6.534 c -0.017,0.082 -0.09,0.14 -0.173,0.14 h -20.519 c -0.148,0 -0.23,-0.169 -0.139,-0.285 l 0.398,-0.51 c 0.712,-0.91 1.529,-2.407 1.529,-5.932 V 6.727 c 0,-3.525 -0.817,-5.022 -1.529,-5.932 l -0.398,-0.51 C -11.103,0.17 -11.021,0 -10.873,0 Z m 23.822,0 c 0.148,0 0.231,0.17 0.14,0.285 l -0.399,0.51 c -0.711,0.91 -1.528,2.407 -1.528,5.932 v 8.761 H 33.45 c 0.101,0 0.182,0.085 0.177,0.186 l -0.018,0.331 c -0.201,3.922 -1.582,5.91 -4.102,5.91 h -7.472 v 6.692 c 0,0.019 0.012,0.034 0.029,0.036 0.696,0.087 2.082,0.234 3.56,0.234 2.462,0 5.961,-0.203 8.651,-1.175 L 34.81,27.51 c 0.13,-0.047 0.261,0.067 0.233,0.203 l -1.401,6.534 c -0.018,0.082 -0.09,0.14 -0.173,0.14 H 12.95 c -0.147,0 -0.23,-0.169 -0.139,-0.285 l 0.397,-0.51 c 0.712,-0.91 1.529,-2.407 1.529,-5.932 V 6.727 c 0,-3.525 -0.817,-5.022 -1.529,-5.932 L 12.811,0.285 C 12.72,0.17 12.803,0 12.949,0 Z m 106.056,0 c 0.147,0 0.23,0.17 0.14,0.285 l -0.399,0.51 c -0.712,0.91 -1.528,2.407 -1.528,5.932 V 27.66 c 0,3.525 0.816,5.022 1.528,5.932 l 0.399,0.51 c 0.09,0.116 0.007,0.285 -0.14,0.285 h -10.872 c -0.148,0 -0.231,-0.169 -0.14,-0.285 l 0.399,-0.51 c 0.711,-0.91 1.528,-2.407 1.528,-5.932 V 6.727 c 0,-3.525 -0.817,-5.022 -1.528,-5.932 l -0.399,-0.51 C 118.775,0.17 118.858,0 119.006,0 Z m 11.52,0 c 0.148,0 0.23,0.17 0.139,0.285 l -0.397,0.51 c -0.712,0.91 -1.53,2.407 -1.53,5.932 v 14.926 c 2.947,-4.488 11.637,-17.705 12.727,-19.138 1.335,-1.757 2.317,-2.111 3.47,-2.111 1.025,0 1.789,0.367 1.821,0.382 l 0.276,0.135 V 27.66 c 0,3.524 0.817,5.022 1.529,5.932 l 0.398,0.51 c 0.091,0.116 0.008,0.285 -0.14,0.285 h -8.971 c -0.148,0 -0.231,-0.169 -0.14,-0.285 l 0.399,-0.51 c 0.711,-0.91 1.528,-2.407 1.528,-5.932 V 16.129 c -2.988,4.24 -9.604,13.632 -10.9,15.52 -1.577,2.301 -3.018,2.738 -5.125,2.738 h -4.056 c -0.148,0 -0.231,-0.169 -0.14,-0.285 l 0.399,-0.51 c 0.711,-0.91 1.529,-2.407 1.529,-5.932 V 6.727 c 0,-3.525 -0.818,-5.022 -1.529,-5.932 l -0.399,-0.51 C 132.195,0.17 132.278,0 132.426,0 Z M 36.827,0.285 C 36.736,0.169 36.819,0 36.967,0 L 58.54,0.006 c 0.09,0 0.165,0.066 0.176,0.155 l 0.846,6.914 c 0.026,0.22 -0.194,0.387 -0.398,0.303 l -0.32,-0.133 c -3.466,-1.431 -7.12,-1.731 -9.576,-1.731 -2.769,0 -3.216,0.948 -3.216,3.215 v 6.759 H 56.6 c 0.1,0 0.181,0.085 0.175,0.186 l -0.016,0.331 c -0.201,3.922 -1.582,5.91 -4.103,5.91 h -6.604 v 6.703 c 0,0.018 0.011,0.032 0.029,0.035 0.583,0.084 1.774,0.224 3.213,0.224 3.28,0 5.94,-0.384 8.131,-1.175 l 0.534,-0.192 c 0.131,-0.047 0.262,0.067 0.232,0.203 l -1.4,6.534 c -0.018,0.082 -0.09,0.14 -0.173,0.14 H 36.967 c -0.148,0 -0.23,-0.169 -0.14,-0.285 l 0.399,-0.51 c 0.712,-0.91 1.528,-2.407 1.528,-5.932 V 6.727 c 0,-3.525 -0.816,-5.022 -1.528,-5.932 z m 34.105,18.528 c 0.75,-0.188 1.377,-0.273 2.506,-0.273 3.082,0 5.134,0.853 5.134,5.016 0,3.64 -1.526,5.194 -5.104,5.194 -1.006,0 -1.786,-0.103 -2.536,-0.337 z M 102.58,0.04 c 4.799,0.216 8.518,1.939 11.053,5.122 2.29,2.873 3.5,6.9 3.5,11.642 0,5.856 -1.173,10.108 -3.587,12.999 -2.574,3.085 -6.497,4.584 -11.994,4.584 h -12.55 c -0.148,0 -0.231,-0.169 -0.14,-0.285 l 0.399,-0.51 c 0.712,-0.91 1.529,-2.408 1.529,-5.932 V 10.367 c 0,-4.569 3.933,-4.569 6.805,-4.569 h 0.315 c 0.098,0 0.177,0.079 0.177,0.177 v 22.664 c 0.677,0.086 2.093,0.238 3.589,0.238 5.088,0 8.006,-4.109 8.006,-11.275 0,-4.301 -0.845,-7.371 -2.583,-9.384 C 105.368,6.213 102.634,5.129 98.74,4.904 98.104,4.868 96.941,4.847 95.629,4.847 c -1.32,0 -2.516,0.022 -3.045,0.057 -4.808,0.322 -7.341,1.422 -9.034,3.923 -1.011,1.494 -2.995,4.57 -3.907,5.988 4.508,1.201 6.522,3.997 6.522,9.039 0,3.483 -0.954,6.132 -2.834,7.875 -1.931,1.789 -4.774,2.658 -8.696,2.658 H 61.847 c -0.148,0 -0.231,-0.169 -0.14,-0.285 l 0.398,-0.51 c 0.712,-0.91 1.53,-2.408 1.53,-5.932 V 6.727 c 0,-3.525 -0.818,-5.022 -1.53,-5.932 L 61.707,0.285 C 61.616,0.17 61.699,0 61.847,0 h 10.872 c 0.147,0 0.23,0.17 0.139,0.285 l -0.397,0.51 c -0.712,0.91 -1.529,2.407 -1.529,5.932 v 7.949 C 72.139,12.791 74.366,9.325 76.48,6.112 78.942,2.37 82.918,0.341 88.298,0.08 c 2.229,-0.107 5.089,-0.169 7.845,-0.169 2.368,0 4.533,0.043 6.437,0.129 M -65.813,24.454 c 1.054,-0.122 1.921,-0.145 3.138,-0.145 6.411,0 7.276,2.745 7.276,5.431 0,4.497 -5.362,4.846 -7.004,4.846 -1.439,0 -2.674,-0.132 -3.41,-0.359 z m 0,-18.549 c 0.861,-0.196 3.047,-0.38 5.692,-0.38 4.668,0 6.937,2.037 6.937,6.229 0,4.502 -2.808,6.599 -8.838,6.599 h -0.039 c -1.231,0 -2.61,0 -3.752,-0.195 z m 9.311,-6.65 c 6.642,0 11.279,4.729 11.279,11.502 0,6.204 -1.66,9.289 -6.256,11.309 3.575,2.031 4.357,5.449 4.357,8.047 0,6.642 -4.285,9.871 -13.101,9.871 h -14.234 c -0.132,0 -0.217,-0.139 -0.157,-0.256 l 0.232,-0.458 c 0.871,-1.711 1.21,-3.311 1.21,-5.704 V 5.673 c 0,-2.394 -0.339,-3.992 -1.21,-5.703 l -0.232,-0.458 c -0.06,-0.118 0.025,-0.257 0.157,-0.257 z m 29.224,30.139 c -5.88,0 -6.56,-6.708 -6.56,-11.754 0,-12.565 4.597,-12.565 6.56,-12.565 1.963,0 6.559,0 6.559,12.565 0,10.536 -3.744,11.754 -6.559,11.754 M -15.646,4.745 c 1.92,2.999 2.854,7.217 2.854,12.895 0,5.04 -1.371,9.381 -3.966,12.554 -2.635,3.224 -6.273,4.928 -10.52,4.928 -4.248,0 -7.886,-1.704 -10.522,-4.928 -2.594,-3.173 -3.965,-7.514 -3.965,-12.554 0,-5.678 0.934,-9.896 2.855,-12.895 2.354,-3.675 6.267,-5.538 11.632,-5.538 5.364,0 9.277,1.863 11.632,5.538 m 201.57,-4.362 c 0.468,0.1 0.872,0.186 1.162,0.242 1.504,0.286 2.621,0.378 2.633,0.38 l 0.018,0.003 c 0.35,0.03 0.595,0.297 0.585,0.707 0,0.033 -0.07,3.066 -0.07,4.373 v 10.293 c 0,1.418 0.058,2.32 0.588,4.454 0.076,0.306 -0.007,0.624 -0.227,0.857 -0.181,0.193 -0.445,0.287 -0.71,0.287 h -14.916 c -0.096,0 -0.175,-0.079 -0.176,-0.175 l -0.003,-0.312 c -0.029,-2.713 0.332,-4.247 1.207,-5.13 0.531,-0.538 1.258,-0.81 2.162,-0.81 h 5.189 V 7.226 c -1.223,-1.112 -2.429,-1.642 -5.513,-1.642 -2.279,0 -3.898,0.712 -5.099,2.24 -1.656,2.11 -2.497,5.844 -2.497,11.102 0,8.077 3.032,12.346 8.768,12.346 3.262,0 4.912,-0.998 7.243,-2.64 l 0.323,-0.228 c 0.093,-0.065 0.222,-0.027 0.265,0.077 l 2.696,6.577 c 0.035,0.086 -0.002,0.183 -0.085,0.224 l -0.262,0.131 c -3.113,1.557 -6.062,2.191 -10.18,2.191 -10.443,0 -17.192,-7.332 -17.192,-18.678 0,-13.084 5.39,-19.719 16.02,-19.719 2.595,0 6.023,0.736 8.071,1.176 m -196.797,-1.02 c -0.314,0 -0.593,0.176 -0.731,0.457 -0.137,0.282 -0.102,0.611 0.09,0.857 l 0.399,0.51 c 0.648,0.83 1.393,2.21 1.393,5.54 V 27.66 c 0,3.33 -0.745,4.71 -1.393,5.54 l -0.399,0.51 c -0.192,0.247 -0.227,0.575 -0.09,0.856 0.138,0.283 0.417,0.457 0.731,0.457 H 9.646 c 0.381,0 0.715,-0.27 0.795,-0.642 l 1.402,-6.534 c 0.052,-0.242 -0.008,-0.49 -0.162,-0.682 -0.157,-0.192 -0.387,-0.303 -0.633,-0.303 -0.094,0 -0.188,0.017 -0.277,0.049 l -0.534,0.193 c -2.604,0.94 -6.025,1.137 -8.435,1.137 -1.133,0 -2.212,-0.089 -2.953,-0.168 v -5.521 h 6.835 c 2.009,0 4.462,-1.131 4.739,-6.514 l 0.016,-0.331 C 10.451,15.485 10.37,15.266 10.217,15.104 10.064,14.944 9.85,14.852 9.628,14.852 H -1.151 V 6.727 c 0,-3.33 0.745,-4.71 1.393,-5.54 L 0.641,0.678 C 0.833,0.431 0.868,0.102 0.73,-0.18 0.593,-0.461 0.313,-0.637 0,-0.637 Z m 23.823,0 c -0.313,0 -0.594,0.176 -0.731,0.457 -0.137,0.282 -0.103,0.611 0.09,0.857 l 0.398,0.51 c 0.649,0.83 1.394,2.21 1.394,5.54 V 27.66 c 0,3.329 -0.745,4.71 -1.394,5.54 l -0.398,0.509 c -0.193,0.248 -0.227,0.576 -0.09,0.857 0.137,0.283 0.418,0.457 0.731,0.457 h 20.519 c 0.381,0 0.715,-0.27 0.795,-0.642 l 1.401,-6.534 c 0.052,-0.242 -0.008,-0.49 -0.162,-0.682 -0.155,-0.192 -0.386,-0.303 -0.633,-0.303 -0.094,0 -0.186,0.017 -0.276,0.049 l -0.534,0.193 c -2.605,0.94 -6.025,1.137 -8.436,1.137 -1.133,0 -2.212,-0.089 -2.953,-0.168 v -5.521 h 6.836 c 2.009,0 4.462,-1.131 4.738,-6.514 l 0.017,-0.331 c 0.011,-0.222 -0.07,-0.441 -0.223,-0.603 -0.152,-0.16 -0.367,-0.252 -0.589,-0.252 H 22.671 V 6.727 c 0,-3.331 0.745,-4.71 1.394,-5.54 L 24.463,0.678 C 24.656,0.431 24.69,0.103 24.554,-0.18 24.416,-0.461 24.136,-0.637 23.822,-0.637 Z m 106.055,0 c -0.314,0 -0.593,0.176 -0.731,0.457 -0.137,0.283 -0.102,0.611 0.091,0.858 l 0.398,0.509 c 0.649,0.83 1.394,2.21 1.394,5.54 V 27.66 c 0,3.33 -0.745,4.71 -1.394,5.54 l -0.398,0.509 c -0.193,0.247 -0.228,0.576 -0.091,0.857 0.138,0.283 0.417,0.457 0.731,0.457 h 10.873 c 0.313,0 0.594,-0.174 0.731,-0.457 0.137,-0.281 0.103,-0.609 -0.089,-0.856 l -0.399,-0.51 c -0.649,-0.83 -1.394,-2.211 -1.394,-5.54 V 6.727 c 0,-3.33 0.745,-4.71 1.394,-5.54 l 0.398,-0.509 c 0.193,-0.247 0.227,-0.575 0.09,-0.858 -0.137,-0.281 -0.418,-0.457 -0.731,-0.457 z m 13.421,0 c -0.314,0 -0.594,0.176 -0.732,0.457 -0.136,0.283 -0.102,0.611 0.091,0.858 l 0.398,0.509 c 0.649,0.83 1.394,2.21 1.394,5.54 V 27.66 c 0,3.33 -0.745,4.71 -1.394,5.54 l -0.398,0.509 c -0.193,0.247 -0.227,0.576 -0.091,0.857 0.138,0.283 0.418,0.457 0.732,0.457 h 4.056 c 2.27,0 3.922,-0.493 5.651,-3.013 1.177,-1.716 6.804,-9.709 9.738,-13.873 v 9.523 c 0,3.33 -0.745,4.71 -1.394,5.54 l -0.398,0.509 c -0.193,0.248 -0.227,0.576 -0.091,0.857 0.138,0.283 0.418,0.457 0.732,0.457 h 8.971 c 0.314,0 0.594,-0.174 0.732,-0.457 0.137,-0.281 0.102,-0.609 -0.09,-0.856 l -0.398,-0.51 c -0.65,-0.83 -1.395,-2.21 -1.395,-5.54 V 0.523 l -0.633,-0.308 c -0.095,-0.047 -0.955,-0.446 -2.1,-0.446 -1.31,0 -2.488,0.401 -3.977,2.36 -0.974,1.281 -7.714,11.509 -11.583,17.396 V 6.727 c 0,-3.33 0.745,-4.71 1.394,-5.54 l 0.398,-0.509 c 0.192,-0.247 0.228,-0.575 0.09,-0.858 -0.137,-0.281 -0.417,-0.457 -0.731,-0.457 z m -95.459,0 c -0.314,0 -0.594,0.175 -0.732,0.457 -0.136,0.282 -0.102,0.611 0.091,0.858 l 0.398,0.509 c 0.649,0.83 1.394,2.209 1.394,5.54 V 27.66 c 0,3.33 -0.745,4.71 -1.394,5.54 l -0.398,0.51 c -0.193,0.246 -0.227,0.574 -0.091,0.856 0.138,0.283 0.418,0.457 0.732,0.457 h 19.651 c 0.381,0 0.715,-0.27 0.795,-0.642 l 1.401,-6.534 c 0.052,-0.242 -0.007,-0.49 -0.162,-0.682 -0.156,-0.192 -0.386,-0.303 -0.632,-0.303 -0.094,0 -0.188,0.017 -0.277,0.049 l -0.534,0.193 c -2.12,0.765 -4.709,1.137 -7.915,1.137 -1.057,0 -1.976,-0.078 -2.606,-0.151 v -5.538 h 5.968 c 2.009,0 4.462,-1.131 4.739,-6.514 l 0.016,-0.331 C 57.423,15.485 57.342,15.266 57.188,15.104 57.036,14.944 56.821,14.852 56.6,14.852 H 46.688 V 8.729 c 0,-1.949 0.201,-2.579 2.58,-2.579 2.398,0 5.963,0.292 9.333,1.683 l 0.32,0.133 c 0.113,0.047 0.232,0.07 0.354,0.07 0.264,0 0.517,-0.114 0.694,-0.312 0.175,-0.199 0.257,-0.463 0.224,-0.726 L 59.348,0.084 c -0.05,-0.407 -0.397,-0.715 -0.808,-0.715 z m 34.601,28.564 c 0.555,0.128 1.16,0.186 1.9,0.186 3.216,0 4.469,-1.278 4.469,-4.557 0,-3.682 -1.582,-4.379 -4.499,-4.379 -0.846,0 -1.378,0.05 -1.87,0.145 z M 98.724,5.974 c 0,-0.162 -0.048,-0.313 -0.13,-0.44 0.038,0.002 0.075,0.004 0.11,0.006 3.712,0.214 6.301,1.226 7.913,3.094 1.634,1.893 2.428,4.826 2.428,8.968 0,6.761 -2.686,10.639 -7.369,10.639 -1.126,0 -2.204,-0.089 -2.952,-0.169 z m -2.581,-6.7 c -2.767,0 -5.637,0.063 -7.876,0.17 -5.594,0.271 -9.739,2.397 -12.319,6.319 -1.548,2.353 -3.166,4.856 -4.38,6.743 V 6.727 c 0,-3.33 0.745,-4.71 1.394,-5.54 L 73.359,0.678 C 73.553,0.431 73.588,0.103 73.45,-0.18 73.313,-0.461 73.033,-0.637 72.719,-0.637 H 61.847 c -0.314,0 -0.594,0.176 -0.732,0.457 -0.136,0.283 -0.102,0.611 0.091,0.858 l 0.398,0.509 c 0.649,0.83 1.394,2.21 1.394,5.54 V 27.66 c 0,3.329 -0.745,4.71 -1.394,5.54 l -0.398,0.509 c -0.193,0.248 -0.227,0.576 -0.09,0.857 0.137,0.283 0.417,0.457 0.731,0.457 h 12.788 c 4.09,0 7.075,-0.924 9.128,-2.827 2.016,-1.868 3.038,-4.675 3.038,-8.342 0,-4.998 -1.964,-8.007 -6.165,-9.406 0.975,-1.512 2.576,-3.986 3.441,-5.263 C 85.646,6.868 88.042,5.846 92.626,5.539 92.871,5.523 93.265,5.51 93.752,5.5 91.818,6.003 90.153,7.255 90.153,10.367 V 27.66 c 0,3.329 -0.745,4.71 -1.394,5.54 l -0.398,0.509 c -0.193,0.248 -0.227,0.576 -0.09,0.857 0.137,0.283 0.417,0.457 0.731,0.457 h 12.55 c 5.697,0 9.78,-1.574 12.483,-4.812 2.513,-3.011 3.735,-7.397 3.735,-13.407 0,-4.889 -1.259,-9.051 -3.639,-12.038 -2.655,-3.333 -6.532,-5.137 -11.523,-5.362 -1.913,-0.086 -4.087,-0.13 -6.465,-0.13 m -161.32,34.455 c 0.697,0.14 1.689,0.221 2.774,0.221 1.493,0 6.368,-0.304 6.368,-4.21 0,-4.425 -3.428,-4.796 -6.64,-4.796 -0.97,0 -1.707,0.016 -2.502,0.085 z m 0,-16.124 c 0.982,0.111 2.106,0.111 3.116,0.111 h 0.039 c 5.672,0 8.202,-1.839 8.202,-5.962 0,-3.816 -2.002,-5.592 -6.301,-5.592 -2.17,0 -4.037,0.128 -5.056,0.275 z m -9.28,-18.987 c -0.285,0 -0.544,0.146 -0.693,0.389 -0.149,0.242 -0.162,0.539 -0.032,0.793 l 0.233,0.458 c 0.821,1.613 1.14,3.132 1.14,5.415 v 27.893 c 0,2.284 -0.319,3.801 -1.14,5.414 l -0.233,0.459 c -0.13,0.254 -0.117,0.551 0.032,0.793 0.149,0.244 0.408,0.389 0.693,0.389 h 14.234 c 4.592,0 7.942,-0.842 10.24,-2.573 2.32,-1.749 3.497,-4.419 3.497,-7.935 0,-2.465 -0.671,-5.74 -3.698,-7.966 4.009,-2.123 5.598,-5.423 5.598,-11.39 0,-7.148 -4.9,-12.139 -11.916,-12.139 z m 53.102,19.022 c 0,-5.235 -0.802,-8.791 -2.383,-10.572 -1.205,-1.357 -2.611,-1.357 -3.54,-1.357 -0.931,0 -2.336,0 -3.54,1.357 -1.582,1.781 -2.384,5.337 -2.384,10.572 0,7.585 1.883,11.118 5.924,11.118 1.62,0 5.923,0 5.923,-11.118 m -5.923,-19.07 c -5.596,0 -9.69,1.962 -12.168,5.832 -1.989,3.105 -2.955,7.435 -2.955,13.238 0,5.188 1.421,9.669 4.109,12.958 2.76,3.376 6.568,5.161 11.014,5.161 4.444,0 8.253,-1.785 11.013,-5.161 2.688,-3.289 4.109,-7.77 4.109,-12.958 0,-5.803 -0.966,-10.133 -2.955,-13.238 -2.479,-3.87 -6.573,-5.832 -12.167,-5.832 m 205.131,0 c -5.492,0 -9.694,1.746 -12.491,5.189 -2.764,3.402 -4.166,8.506 -4.166,15.167 0,11.733 6.999,19.315 17.829,19.315 4.224,0 7.256,-0.654 10.465,-2.259 l 0.262,-0.13 c 0.378,-0.19 0.549,-0.644 0.389,-1.036 l -2.696,-6.576 c -0.126,-0.306 -0.422,-0.505 -0.753,-0.505 -0.169,0 -0.33,0.052 -0.468,0.149 l -0.323,0.228 c -2.22,1.565 -3.74,2.524 -6.876,2.524 -2.636,0 -4.66,-0.968 -6.016,-2.876 -1.404,-1.977 -2.115,-4.949 -2.115,-8.834 0,-5.112 0.794,-8.714 2.361,-10.709 1.085,-1.381 2.503,-1.996 4.598,-1.996 2.756,0 3.845,0.417 4.876,1.292 v 7.402 h -4.552 c -1.079,0 -1.959,0.337 -2.615,0.999 -1.005,1.016 -1.421,2.687 -1.391,5.585 l 0.003,0.312 c 0.005,0.443 0.37,0.804 0.813,0.804 h 14.916 c 0.453,0 0.881,-0.178 1.173,-0.486 0.367,-0.389 0.51,-0.931 0.381,-1.448 -0.513,-2.066 -0.568,-2.935 -0.568,-4.3 V 6.088 c 0,-1.308 0.069,-4.328 0.07,-4.357 0.017,-0.725 -0.445,-1.276 -1.128,-1.353 L 189.779,0.371 C 189.654,0.36 188.598,0.265 187.205,0 c -0.285,-0.055 -0.684,-0.141 -1.147,-0.239 -2.076,-0.447 -5.543,-1.191 -8.205,-1.191"
             style="fill:#1f4130;fill-opacity:1;fill-rule:nonzero;stroke:none"
             id="path110"
             inkscape:connector-curvature="0" /></g><g
           id="g112"
           transform="translate(349.7455,281.3493)"><path
             d="m 0,0 c 0,-11.17 -3.465,-13.057 -7.051,-13.057 -3.587,0 -7.052,1.887 -7.052,13.057 0,10.553 3.774,12.246 7.052,12.246 C -3.772,12.246 0,10.552 0,0 m -7.051,-17.94 c 11.254,0 13.994,8.184 13.994,17.94 0,9.995 -5.613,16.99 -13.994,16.99 -8.382,0 -13.995,-6.995 -13.995,-16.99 0,-9.756 2.741,-17.94 13.995,-17.94 M -41.795,1.205 c 6.336,0 9.33,-2.287 9.33,-7.091 0,-4.604 -2.678,-6.719 -7.428,-6.719 -2.951,0 -5.545,0.228 -6.184,0.508 V 0.924 c 1.266,0.282 2.887,0.281 4.282,0.281 m -4.282,5.175 v 10.55 c 0.69,0.302 2.051,0.508 3.901,0.508 3.324,0 7.496,-1.166 7.496,-5.337 0,-5.252 -4.111,-5.924 -7.767,-5.924 -1.397,0 -2.342,0.031 -3.63,0.203 m 20.59,-13.263 c 0,6.188 -1.537,9.231 -6.953,11.262 0.44,0.237 5.053,1.852 5.053,8.095 0,6.559 -4.291,9.379 -12.608,9.379 h -13.721 c 0.895,-1.759 1.263,-3.413 1.263,-5.926 v -27.894 c 0,-2.513 -0.368,-4.167 -1.263,-5.927 h 17.442 c 6.468,0 10.787,4.565 10.787,11.011 m 103.976,-10.26 0.77,6.294 c -3.13,-1.293 -6.668,-1.769 -9.764,-1.769 -3.096,0 -3.708,1.224 -3.708,3.708 v 6.873 c 0,0.209 0.169,0.378 0.378,0.378 h 10.33 c -0.181,3.516 -1.309,5.442 -3.611,5.442 h -6.719 c -0.209,0 -0.378,0.169 -0.378,0.378 v 6.818 c 0,0.261 0.192,0.484 0.451,0.521 0.619,0.09 1.826,0.229 3.283,0.229 2.137,0 5.378,-0.15 8.298,-1.204 l -1.228,5.731 h -18.75 c 0.985,-1.262 1.633,-3.002 1.633,-6.235 v -20.934 c 0,-3.233 -0.648,-4.974 -1.633,-6.234 z m 18.629,5.886 c 2.322,-3.529 6.147,-5.555 11.431,-5.811 3.627,-0.175 9.51,-0.253 14.236,-0.04 9.732,0.438 14.083,7.303 14.083,16.272 0,11.036 -4.228,17.092 -15.089,17.092 h -11.903 c 0.985,-1.262 1.633,-3.002 1.633,-6.235 V -7.271 c 0,-3.888 3.025,-4.08 6.313,-4.08 v 22.78 c 0,0 1.945,0.3 4.081,0.3 4.3,0 8.498,-2.896 8.498,-11.767 0,-8.757 -3.405,-12.727 -11.405,-13.188 -1.432,-0.083 -5.086,-0.076 -6.218,0 -4.828,0.323 -7.583,1.442 -9.408,4.138 -1.071,1.582 -3.256,4.976 -4.017,6.16 -0.13,0.202 -0.024,0.473 0.21,0.532 3.998,1.01 6.337,3.31 6.337,8.61 0,6.651 -3.459,10.042 -11.038,10.042 H 82.721 c 0.985,-1.262 1.633,-3.002 1.633,-6.235 v -20.934 c 0,-3.233 -0.648,-4.974 -1.633,-6.234 h 9.58 c -0.987,1.26 -1.634,3.001 -1.634,6.234 v 8.151 c 0,0.433 0.564,0.599 0.797,0.235 1.176,-1.838 3.473,-5.414 5.654,-8.73 M 90.667,0.796 v 10.33 c 0.975,0.356 1.897,0.476 3.028,0.476 3.618,0 5.597,-1.517 5.597,-5.686 0,-4.431 -2.25,-5.508 -5.627,-5.508 -1.339,0 -2.023,0.119 -2.998,0.388 m 82.289,-15.624 c 1.3,-1.71 2.155,-1.915 3.078,-1.915 0.924,0 1.606,0.332 1.606,0.332 v 26.432 c 0,3.233 0.647,4.973 1.633,6.235 h -7.68 c 0.986,-1.262 1.634,-3.002 1.634,-6.235 V -1.827 c 0,-0.383 -0.491,-0.54 -0.711,-0.228 -2.336,3.314 -9.708,13.778 -11.086,15.786 -1.395,2.034 -2.629,2.525 -4.72,2.525 h -3.41 c 0.986,-1.262 1.633,-3.002 1.633,-6.235 v -20.934 c 0,-3.233 -0.647,-4.974 -1.633,-6.234 h 7.679 c -0.986,1.26 -1.632,3.001 -1.632,6.234 V 4.35 c 0,0.388 0.504,0.541 0.717,0.215 2.65,-4.036 11.783,-17.933 12.892,-19.393 m -23.496,-2.319 c -0.986,1.26 -1.634,3.001 -1.634,6.234 v 20.934 c 0,3.233 0.648,4.973 1.634,6.235 h -9.581 c 0.986,-1.262 1.634,-3.002 1.634,-6.235 v -20.934 c 0,-3.233 -0.648,-4.974 -1.634,-6.234 z M 53.441,16.256 H 33.823 c 0.987,-1.262 1.634,-3.002 1.634,-6.235 v -20.934 c 0,-3.233 -0.647,-4.974 -1.634,-6.234 h 9.58 c -0.985,1.26 -1.632,3.001 -1.632,6.234 v 8.876 c 0,0.209 0.168,0.378 0.376,0.378 h 11.199 c -0.181,3.516 -1.31,5.442 -3.612,5.442 h -7.587 c -0.208,0 -0.376,0.169 -0.376,0.378 v 6.807 c 0,0.266 0.198,0.49 0.461,0.523 0.702,0.089 2.113,0.238 3.62,0.238 2.136,0 5.899,-0.15 8.818,-1.204 z m 153.78,-32.787 c 1.14,0.217 2.141,0.334 2.59,0.381 0.142,0.014 0.249,0.135 0.245,0.279 -0.017,0.791 -0.068,3.217 -0.068,4.319 v 10.293 c 0,1.471 0.064,2.403 0.602,4.573 0.067,0.271 -0.139,0.533 -0.417,0.533 h -14.646 c -0.037,-3.52 0.576,-5.443 2.877,-5.443 h 5.682 v -9.033 c -1.328,-1.255 -2.567,-1.919 -6.006,-1.919 -3.844,0 -8.087,1.863 -8.087,13.834 0,11.309 5.747,12.838 9.26,12.838 3.505,0 5.275,-1.144 7.525,-2.729 l 2.435,5.939 c -2.753,1.376 -5.531,2.14 -9.96,2.14 -10.062,0 -16.701,-7.013 -16.701,-18.188 0,-10.455 3.467,-19.226 15.528,-19.226 3.143,0 7.592,1.113 9.141,1.409 M 29.619,16.256 H 10.001 c 0.986,-1.262 1.633,-3.002 1.633,-6.235 v -20.934 c 0,-3.233 -0.647,-4.974 -1.633,-6.234 h 9.58 c -0.986,1.26 -1.633,3.001 -1.633,6.234 v 8.876 c 0,0.209 0.169,0.378 0.377,0.378 h 11.198 c -0.18,3.516 -1.309,5.442 -3.612,5.442 h -7.586 c -0.208,0 -0.377,0.169 -0.377,0.378 v 6.807 c 0,0.266 0.198,0.49 0.462,0.523 0.701,0.089 2.112,0.238 3.619,0.238 2.137,0 5.899,-0.15 8.819,-1.204 z M 9.354,-17.64 c -0.147,0 -0.229,0.17 -0.138,0.286 l 0.397,0.509 c 0.712,0.91 1.53,2.407 1.53,5.932 v 20.934 c 0,3.524 -0.818,5.021 -1.53,5.931 l -0.397,0.51 c -0.091,0.116 -0.009,0.285 0.138,0.285 h 20.52 c 0.083,0 0.155,-0.058 0.173,-0.14 l 1.4,-6.534 C 31.477,9.938 31.346,9.823 31.215,9.87 l -0.534,0.193 c -2.691,0.971 -6.191,1.174 -8.652,1.174 -1.477,0 -2.865,-0.146 -3.559,-0.234 -0.018,-0.002 -0.031,-0.017 -0.031,-0.035 V 4.275 h 7.472 c 2.522,0 3.902,-1.988 4.104,-5.91 l 0.016,-0.331 c 0.006,-0.1 -0.075,-0.185 -0.176,-0.185 H 18.439 v -8.762 c 0,-3.525 0.818,-5.022 1.53,-5.932 l 0.397,-0.509 c 0.091,-0.116 0.008,-0.286 -0.138,-0.286 z m 23.823,0 c -0.147,0 -0.23,0.17 -0.139,0.286 l 0.398,0.509 c 0.711,0.91 1.529,2.407 1.529,5.932 v 20.934 c 0,3.524 -0.818,5.021 -1.529,5.931 l -0.398,0.51 c -0.091,0.116 -0.008,0.285 0.14,0.285 h 20.518 c 0.083,0 0.156,-0.058 0.173,-0.14 l 1.402,-6.534 C 55.299,9.938 55.168,9.823 55.037,9.87 l -0.534,0.193 c -2.69,0.971 -6.19,1.174 -8.651,1.174 -1.478,0 -2.865,-0.146 -3.56,-0.234 -0.018,-0.002 -0.029,-0.017 -0.029,-0.035 V 4.275 h 7.471 c 2.521,0 3.902,-1.988 4.103,-5.91 l 0.017,-0.331 c 0.005,-0.1 -0.076,-0.185 -0.176,-0.185 H 42.263 v -8.762 c 0,-3.525 0.816,-5.022 1.528,-5.932 l 0.398,-0.509 c 0.091,-0.116 0.008,-0.286 -0.139,-0.286 z m 106.056,0 c -0.147,0 -0.23,0.17 -0.139,0.286 l 0.398,0.509 c 0.711,0.91 1.529,2.407 1.529,5.932 v 20.934 c 0,3.524 -0.818,5.021 -1.529,5.931 l -0.398,0.51 c -0.091,0.116 -0.008,0.285 0.139,0.285 h 10.872 c 0.148,0 0.231,-0.169 0.14,-0.285 l -0.398,-0.51 c -0.712,-0.91 -1.529,-2.407 -1.529,-5.931 v -20.934 c 0,-3.525 0.817,-5.022 1.529,-5.932 l 0.398,-0.509 c 0.091,-0.116 0.008,-0.286 -0.14,-0.286 z m 13.42,0 c -0.147,0 -0.23,0.17 -0.139,0.286 l 0.398,0.509 c 0.712,0.91 1.529,2.407 1.529,5.932 v 20.934 c 0,3.524 -0.817,5.021 -1.529,5.931 l -0.398,0.51 c -0.091,0.116 -0.008,0.285 0.139,0.285 h 4.057 c 2.106,0 3.548,-0.436 5.125,-2.737 1.296,-1.889 7.911,-11.281 10.899,-15.521 v 11.532 c 0,3.524 -0.816,5.021 -1.528,5.931 l -0.398,0.51 c -0.091,0.116 -0.008,0.285 0.139,0.285 h 8.972 c 0.147,0 0.23,-0.169 0.14,-0.285 l -0.399,-0.51 c -0.712,-0.91 -1.528,-2.408 -1.528,-5.931 v -26.74 l -0.277,-0.135 c -0.032,-0.014 -0.795,-0.381 -1.821,-0.381 -1.152,0 -2.135,0.353 -3.47,2.11 -1.089,1.434 -9.78,14.65 -12.726,19.139 v -14.927 c 0,-3.525 0.817,-5.022 1.529,-5.932 l 0.398,-0.509 c 0.09,-0.116 0.008,-0.286 -0.139,-0.286 z m -95.2,0.795 c 0.712,0.91 1.528,2.407 1.528,5.932 v 20.934 c 0,3.524 -0.816,5.021 -1.528,5.931 l -0.398,0.51 c -0.09,0.116 -0.008,0.285 0.139,0.285 h 19.652 c 0.083,0 0.155,-0.058 0.173,-0.14 l 1.4,-6.534 C 78.448,9.938 78.317,9.823 78.187,9.87 l -0.535,0.193 c -2.19,0.791 -4.85,1.174 -8.131,1.174 -1.438,0 -2.629,-0.139 -3.212,-0.223 -0.018,-0.003 -0.03,-0.018 -0.03,-0.035 V 4.275 h 6.605 c 2.52,0 3.901,-1.988 4.102,-5.91 l 0.017,-0.331 c 0.006,-0.1 -0.075,-0.185 -0.176,-0.185 H 66.279 V -8.91 c 0,-2.268 0.448,-3.216 3.216,-3.216 2.456,0 6.11,0.301 9.576,1.731 l 0.321,0.133 c 0.204,0.084 0.423,-0.083 0.397,-0.302 l -0.846,-6.915 c -0.01,-0.088 -0.086,-0.155 -0.175,-0.155 L 57.194,-17.64 c -0.147,0 -0.23,0.169 -0.139,0.286 z M 91.159,1.174 C 91.909,0.985 92.536,0.9 93.666,0.9 c 3.081,0 5.134,0.853 5.134,5.016 0,3.641 -1.527,5.194 -5.105,5.194 -1.006,0 -1.786,-0.102 -2.536,-0.337 z m 25.211,-18.903 c -2.756,0 -5.615,0.062 -7.845,0.169 -5.379,0.261 -9.355,2.29 -11.817,6.033 -2.114,3.213 -4.342,6.678 -5.549,8.563 v -7.949 c 0,-3.525 0.818,-5.022 1.529,-5.932 l 0.398,-0.509 c 0.091,-0.116 0.008,-0.286 -0.14,-0.286 H 82.074 c -0.147,0 -0.23,0.17 -0.139,0.286 l 0.398,0.509 c 0.712,0.91 1.529,2.407 1.529,5.932 v 20.934 c 0,3.523 -0.817,5.021 -1.529,5.931 l -0.398,0.51 c -0.091,0.116 -0.008,0.285 0.139,0.285 h 12.788 c 3.922,0 6.766,-0.869 8.697,-2.657 1.879,-1.743 2.834,-4.393 2.834,-7.876 0,-5.042 -2.014,-7.838 -6.523,-9.038 0.912,-1.418 2.897,-4.494 3.907,-5.989 1.694,-2.5 4.227,-3.601 9.035,-3.922 0.529,-0.036 1.724,-0.058 3.044,-0.058 1.313,0 2.476,0.022 3.112,0.058 3.893,0.224 6.628,1.308 8.358,3.313 1.738,2.014 2.583,5.083 2.583,9.384 0,7.166 -2.918,11.275 -8.006,11.275 -1.496,0 -2.912,-0.152 -3.589,-0.238 v -22.664 c 0,-0.098 -0.079,-0.177 -0.176,-0.177 h -0.316 c -2.872,0 -6.804,0 -6.804,4.57 v 17.293 c 0,3.523 -0.818,5.021 -1.53,5.931 l -0.398,0.51 c -0.091,0.116 -0.008,0.285 0.139,0.285 h 12.55 c 5.497,0 9.42,-1.499 11.994,-4.584 2.414,-2.891 3.587,-7.142 3.587,-12.999 0,-4.742 -1.21,-8.768 -3.5,-11.642 -2.535,-3.182 -6.254,-4.906 -11.052,-5.122 -1.905,-0.086 -4.07,-0.129 -6.438,-0.129 M -45.585,6.814 c 1.054,-0.122 1.921,-0.145 3.138,-0.145 6.411,0 7.275,2.745 7.275,5.432 0,4.497 -5.361,4.845 -7.004,4.845 -1.438,0 -2.674,-0.132 -3.409,-0.359 z m 0,-18.548 c 0.86,-0.197 3.047,-0.38 5.691,-0.38 4.668,0 6.938,2.037 6.938,6.228 0,4.502 -2.809,6.599 -8.839,6.599 h -0.038 c -1.231,0 -2.61,0 -3.752,-0.194 z m -8.644,-6.651 c -0.132,0 -0.217,0.139 -0.158,0.257 l 0.233,0.458 c 0.871,1.711 1.21,3.31 1.21,5.703 v 27.894 c 0,2.392 -0.339,3.992 -1.21,5.703 l -0.233,0.458 c -0.059,0.117 0.026,0.257 0.158,0.257 h 14.234 c 8.815,0 13.1,-3.23 13.1,-9.871 0,-2.599 -0.782,-6.017 -4.357,-8.047 4.597,-2.021 6.257,-5.106 6.257,-11.31 0,-6.772 -4.638,-11.502 -11.279,-11.502 z m 47.178,30.139 c -5.88,0 -6.559,-6.708 -6.559,-11.754 0,-12.564 4.596,-12.564 6.559,-12.564 1.963,0 6.56,0 6.56,12.564 0,10.536 -3.744,11.754 -6.56,11.754 m 0,-30.187 c -5.364,0 -9.277,1.864 -11.632,5.538 -1.921,2.999 -2.854,7.217 -2.854,12.895 0,5.04 1.371,9.382 3.965,12.555 2.635,3.223 6.273,4.927 10.521,4.927 4.247,0 7.886,-1.704 10.521,-4.927 C 6.064,9.382 7.436,5.04 7.436,0 c 0,-5.678 -0.934,-9.896 -2.855,-12.895 -2.354,-3.674 -6.268,-5.538 -11.632,-5.538 m 205.131,0 c -10.63,0 -16.019,6.635 -16.019,19.719 0,11.347 6.749,18.679 17.192,18.679 4.117,0 7.066,-0.635 10.18,-2.192 l 0.261,-0.13 c 0.083,-0.041 0.12,-0.139 0.085,-0.225 l -2.695,-6.576 c -0.043,-0.105 -0.173,-0.143 -0.266,-0.077 l -0.323,0.227 c -2.33,1.643 -3.98,2.641 -7.242,2.641 -5.736,0 -8.769,-4.27 -8.769,-12.347 0,-5.258 0.841,-8.992 2.497,-11.101 1.202,-1.529 2.821,-2.241 5.099,-2.241 3.084,0 4.29,0.531 5.514,1.642 v 8.326 h -5.19 c -0.903,0 -1.631,0.273 -2.162,0.811 -0.875,0.882 -1.235,2.417 -1.207,5.13 l 0.003,0.311 c 10e-4,0.097 0.08,0.175 0.177,0.175 h 14.916 c 0.265,0 0.528,-0.094 0.71,-0.286 0.22,-0.234 0.303,-0.552 0.226,-0.858 -0.53,-2.133 -0.588,-3.036 -0.588,-4.454 v -10.293 c 0,-1.306 0.071,-4.34 0.071,-4.373 0.01,-0.41 -0.236,-0.677 -0.585,-0.707 l -0.019,-0.003 c -0.011,-0.002 -1.129,-0.094 -2.633,-0.38 -0.29,-0.055 -0.694,-0.141 -1.162,-0.242 -2.047,-0.439 -5.475,-1.176 -8.071,-1.176"
             style="fill:#c8cfd2;fill-opacity:1;fill-rule:nonzero;stroke:none"
             id="path114"
             inkscape:connector-curvature="0" /></g><g
           id="g116"
           transform="translate(491.0414,355.489)"><path
             d="m 0,0 c -1.401,0.052 -2.165,1.461 -2.165,1.461 0,0 0.609,-1.345 -0.666,-1.875 0,0 0.169,0.925 -0.377,1.557 -0.332,0.385 -2.027,2.139 -0.618,3.261 1.151,0.916 3.097,0.1 3.556,-1.562 C 0.147,1.335 1.003,0.65 1.808,0.622 1.808,0.622 1.402,-0.051 0,0"
             style="fill:#91cf96;fill-opacity:1;fill-rule:nonzero;stroke:none"
             id="path118"
             inkscape:connector-curvature="0" /></g><g
           id="g120"
           transform="translate(486.3617,339.4255)"><path
             d="m 0,0 c -0.502,0.667 -0.124,1.899 -0.124,1.899 0,0 0.426,-0.723 2.131,-0.723 1.404,0 2.542,1.451 2.645,2.767 0.143,1.805 -0.616,3.684 -4.166,7.043 -3.709,3.512 -2.82,7.343 -0.908,8.408 0,0 -0.081,-0.666 0.081,-1.218 -0.94,-0.697 -1.258,-2.872 -0.025,-4.509 C 1.597,11.06 6.463,8.473 6.072,3.511 5.682,-1.45 0.502,-0.667 0,0"
             style="fill:#91cf96;fill-opacity:1;fill-rule:nonzero;stroke:none"
             id="path122"
             inkscape:connector-curvature="0" /></g><g
           id="g124"
           transform="translate(479.726,374.7956)"><path
             d="m 0,0 -0.303,-0.93 c 0,0 -0.593,-0.409 -3.426,-0.269 0,0 -0.07,2.488 -0.07,2.673 0,0 0.528,-1.636 1.966,-1.86 C -0.57,-0.583 -0.028,-0.041 0,0 m -5.698,-0.716 c -1.587,-0.034 -1.935,0.833 -1.935,0.833 0.321,-0.259 1.056,-0.633 1.961,-0.448 0.906,0.185 1.306,0.857 1.486,1.251 0,0 0.076,-1.601 -1.512,-1.636 m 5.911,-0.087 c -0.019,0 0.631,2.514 0.631,2.514 0,0 -0.837,-1.619 -2.309,-1.619 -0.924,0 -1.563,0.536 -2.329,2.815 -0.66,-2.295 -1.414,-2.815 -2.345,-2.815 -1.459,0 -2.308,1.619 -2.308,1.619 0,0 0.649,-2.514 0.631,-2.514 -0.019,0 -0.167,-0.504 0.287,-0.693 0.454,-0.19 2.327,-0.284 3.57,-0.284 h 0.314 c 1.244,0 3.117,0.094 3.571,0.284 0.454,0.189 0.305,0.693 0.287,0.693"
             style="fill:#91cf96;fill-opacity:1;fill-rule:nonzero;stroke:none"
             id="path126"
             inkscape:connector-curvature="0" /></g><g
           id="g128"
           transform="translate(481.8666,364.5143)"><path
             d="M 0,0 C 2.337,-3.537 1.185,-5.761 1.185,-5.761 1.104,-2.32 -1.347,-1.055 -1.347,-1.055 1.314,-5.192 0.341,-8.243 0,-9.623 c -0.341,-1.38 0.211,-1.932 0.211,-1.932 -3.359,0.942 -2.661,5.6 -2.661,5.6 -1.558,-3.344 -4.009,-2.557 -4.009,-2.557 0.471,0.674 0.341,1.851 0.341,1.851 -1.217,-0.65 -3.635,-0.463 -3.635,-0.463 1.038,-0.535 2.904,-0.567 2.904,-0.567 -0.096,-0.926 -0.665,-1.316 -0.665,-1.316 1.461,-0.892 4.187,0.309 4.187,0.309 0.848,-3.964 2.997,-3.99 3.189,-3.946 -0.102,-0.094 -0.765,-1.021 -2.237,-0.598 -1.579,0.454 -1.796,2.662 -1.796,2.662 0.033,-2.522 -2.467,-2.716 -2.467,-2.716 0.607,0.995 0.564,3.181 0.564,3.181 -1.115,-0.855 -2.479,0.043 -4.166,-0.292 -1.688,-0.336 -3.058,-1.77 -3.058,-1.77 -0.236,3.116 3.374,4.133 3.374,4.133 -3.706,0.053 -4.73,-4.148 -4.709,-4.203 0.022,-0.054 -1.417,1.358 -0.584,3.581 0.546,1.456 2.976,1.764 2.976,1.764 -2.499,0.671 -3.571,-0.671 -3.571,-0.671 -0.184,2.467 2.175,2.219 2.175,2.219 -0.444,1.536 0.422,1.708 0.422,1.708 0,-0.324 0.865,-2.044 2.748,-2.044 1.882,0 2.564,1.092 2.564,1.092 -3.73,-1.698 -4.59,1.823 -4.59,1.823 4.661,-1.286 6.645,2.472 6.645,2.472 C -5.707,-2.012 -6.52,-3.3 -6.52,-3.3 c 1.969,1.212 1.452,3.657 1.452,3.657 2.422,-2.13 1.146,-5.453 1.146,-5.453 0.325,0 0.942,1.548 0.942,2.9 0,1.352 -0.639,3.311 -2.11,4.263 -1.472,0.952 -2.056,1.882 -2.056,1.882 0,-1.103 0.844,-1.308 0.844,-2.803 0,-2.012 -1.833,-2.223 -3.738,-1.914 -1.387,0.226 -1.72,-0.378 -1.72,-0.378 -0.449,1.298 0.032,2.125 0.032,2.125 0.904,-1.048 3.091,-0.729 3.098,0.793 0.006,1.362 -0.942,1.927 -1.927,1.77 -1.167,-0.187 -1.479,-1.664 -1.479,-1.664 -1.553,0.394 -1.249,2.596 -1.249,2.596 -0.569,0.438 -0.363,1.017 -0.363,1.017 0.4,0 1.433,0.671 2.088,0.671 0.508,0 0.781,-0.241 1.273,-0.281 0.523,-0.042 1.095,0.188 1.095,0.188 0.146,-0.146 0.002,-0.691 0.002,-0.691 0,0 0.302,-0.119 0.935,0.313 0.633,0.433 1.191,0.416 1.191,0.416 0,0 -0.305,0.449 -1.202,0.618 -1.033,0.194 -1.135,-0.433 -1.942,-0.433 -0.205,0 -0.778,0.021 -0.778,0.708 0,0.687 0.686,0.947 2.007,0.947 1.319,0 3.088,-0.628 3.51,-0.206 0.011,0.011 0.468,-0.36 -0.474,-1.353 0.232,0.224 0.876,0.77 1.723,0.835 0.684,0.051 1.478,-0.13 1.153,-1.364 -0.325,-1.233 -1.282,-1.25 -1.282,-1.25 0.413,0.334 1.185,1.818 -0.195,1.672 -1.379,-0.146 -1.46,-1.769 -1.46,-1.769 2.791,-0.097 3.976,-2.84 3.976,-2.84 -0.325,2.109 -1.266,2.564 -1.266,2.564 0.324,0.243 0.486,0.731 0.486,0.731 1.672,-0.78 2.614,-3.847 2.614,-3.847 -0.081,3.895 -2.241,4.642 -2.241,4.642 0.504,1.476 -0.551,2.012 -0.551,2.012 1.12,0.048 1.299,0.665 1.299,0.665 C -0.99,7.579 -1.396,6.605 -1.396,6.605 -0.162,5.729 0.228,4.285 0.373,2.532 0.52,0.779 1.559,-0.048 1.559,-0.048 0.877,-0.486 0,0 0,0"
             style="fill:#91cf96;fill-opacity:1;fill-rule:nonzero;stroke:none"
             id="path130"
             inkscape:connector-curvature="0" /></g><g
           id="g132"
           transform="translate(481.7426,351.8786)"><path
             d="M 0,0 C 0.001,-0.003 -0.004,-0.005 -0.014,-0.008 -0.007,0 -0.002,0.003 0,0"
             style="fill:#91cf96;fill-opacity:1;fill-rule:nonzero;stroke:none"
             id="path134"
             inkscape:connector-curvature="0" /></g><g
           id="g136"
           transform="translate(471.3177,366.5407)"><path
             d="m 0,0 c 0.903,0 1.655,-0.437 1.655,-0.784 0,0 -0.429,0.265 -1.466,0.265 -1.46,0 -1.984,-1.081 -3.153,-1.081 -1.17,0 -1.037,1.328 -1.037,1.328 C -2.509,-1.239 -1.15,0 0,0"
             style="fill:#91cf96;fill-opacity:1;fill-rule:nonzero;stroke:none"
             id="path138"
             inkscape:connector-curvature="0" /></g><g
           id="g140"
           transform="translate(465.2972,354.2097)"><path
             d="M 0,0 C -0.974,0.228 -3.635,2.775 -3.635,2.775 -3.24,1.169 0.13,-1.477 0.13,-1.477 -3.521,-0.26 -5.047,2.97 -5.047,2.97 c 0.698,0.243 1.023,0.649 1.023,0.649 -2.045,0.292 -1.981,1.753 -1.981,1.753 0.276,-0.081 0.682,0.146 0.682,0.146 -0.7,0.188 -1.088,0.744 -1.352,1.261 -0.466,0.913 0.128,1.553 0.958,1.757 0.442,0.109 0.775,0.077 0.775,0.077 -0.013,0.883 1.671,2.118 2.354,1.931 -0.196,0.743 0.12,1.185 -0.077,1.445 1.147,-0.201 1.118,-1.472 1.118,-1.472 C -1.03,9.665 -1.454,8.748 -2.19,8.357 -3.305,7.768 -3.343,6.702 -2.19,5.599 -1.038,4.495 0.081,3.895 0.081,3.895 -0.341,2.986 0.357,1.558 0.357,1.558 -0.064,0.649 0,0 0,0"
             style="fill:#91cf96;fill-opacity:1;fill-rule:nonzero;stroke:none"
             id="path142"
             inkscape:connector-curvature="0" /></g><g
           id="g144"
           transform="translate(465.6547,347.9909)"><path
             d="M 0,0 C 0.441,-0.026 2.761,0.282 4.708,0.934 6.972,1.69 8.08,1.728 9.174,1.38 6.662,0.791 6.201,0.288 4.349,-0.085 1.521,-0.654 0,0 0,0 m -5.464,3.498 c 0,0 -2.65,0.422 -1.742,-2.143 0,0 0.357,0.607 0.79,0.693 0,0 0.151,-0.194 0.628,-0.032 0.476,0.162 0.778,-0.054 0.767,-0.054 0,0 -1.363,-0.293 -1.579,-1.461 -0.216,-1.169 0.661,-1.18 0.65,-1.157 -0.012,0.021 -0.033,0.51 0.443,0.773 0,0 0.314,-0.2 0.876,0.113 0.563,0.314 1.169,0.327 1.764,-0.113 0.595,-0.438 1.168,-1.585 3.83,-1.055 2.661,0.53 5.571,0.206 6.621,-0.378 0,0 0.52,0.573 0.032,1.341 0,0 1.547,-0.941 3.365,-0.282 0,0 -0.4,0.747 -0.281,1.429 0,0 1.893,0.346 3.04,-0.628 0,0 -1.534,0.485 -2.323,0.118 0,0 0.045,-0.875 0.483,-1.318 0,0 -1.809,-0.902 -3.215,-0.382 0,0 0.208,-0.755 -0.214,-1.35 0,0 -1.882,0.995 -3.17,0.531 0,0 0.664,-1.795 3.821,-3.091 2.377,-0.977 2.893,-2.591 2.893,-2.591 0,0 2.846,3.322 2.352,5.27 0,0 1.324,-1.028 -0.202,-3.642 -1.49,-2.552 -1.767,-3.585 -1.767,-5.986 0,-2.403 2.272,-2.143 2.359,-2.143 0.087,0 -0.433,0.736 -0.281,1.472 0,0 0.389,-0.714 1.947,-1.234 1.558,-0.519 2.921,-2.055 2.921,-4.392 0,0 -0.663,2.473 -3.527,3.591 0,0 2.553,-2.509 2.943,-4.825 0.389,-2.315 -1.079,-3.242 -2.64,-3.223 -3.635,0.043 -2.921,-2.857 -2.228,-2.857 0,0 0.097,1.177 1.249,1.177 0,0 -0.438,-1.339 0.892,-1.485 0,0 -0.226,1.257 1.12,1.412 0,0 -0.576,-1.396 0.868,-1.51 0,0 -0.137,0.642 0.228,0.949 0,0 0.243,0.171 1.663,0.098 1.42,-0.073 0.893,1.331 0.804,1.639 -0.09,0.308 0.154,1.874 0.324,2.418 0,0 0.3,-0.779 0.844,-0.99 0,0 0.892,1.599 0.292,3.781 0,0 1.631,0.406 1.647,1.859 0,0 -2.28,0.089 -3.749,1.379 0,0 1.12,-0.317 1.689,0.625 0,0 -2.013,0.137 -2.743,2.474 -0.731,2.337 0.438,3.83 0.487,6.022 0.048,2.19 -1.672,3.521 -3.23,4.949 -1.558,1.429 -2.453,2.082 -2.305,3.314 -0.713,-0.003 -1.529,0.245 -1.961,0.979 0,0 -1.896,-1.436 -3.221,-0.88 C 8.86,3 9.478,4.331 9.25,5.294 9.25,5.294 8.628,5.208 7.923,5.302 6.829,5.448 5.829,5.703 3.729,4.223 1.628,2.742 -2.233,1.982 -3.914,5.003 c 0,0 -3.035,1.509 -3.748,-1.026 0,0 0.424,0.289 0.922,0.256 0,0 0.032,-0.324 0.605,-0.357 0.573,-0.032 0.671,-0.184 0.671,-0.378"
             style="fill:#91cf96;fill-opacity:1;fill-rule:nonzero;stroke:none"
             id="path146"
             inkscape:connector-curvature="0" /></g><g
           id="g148"
           transform="translate(463.2308,325.8054)"><path
             d="m 0,0 c 1.158,-0.001 2.413,-0.163 2.413,-0.163 -0.021,0 2.186,0.627 3.332,2.531 1.147,1.904 -0.151,5.042 -0.422,5.528 0,0 1.915,-1.233 1.623,-4.629 0,0 1.211,2.844 -1.288,6.696 0,0 0.098,-1.006 -0.226,-1.319 0,0 -0.163,0.27 -0.52,0.335 -0.357,0.065 -0.888,0.378 -0.888,1.45 0,1.071 2.017,5.059 5.677,6.808 1.053,-0.847 2.989,-1.143 3.572,-2.503 0,0 -4.423,-0.868 -3.96,-5.517 0,0 0.532,4.546 4.469,4.279 0,0 -6.343,-2.245 -2.18,-10.457 0,0 -0.598,-1.071 -2.324,-1.168 0,0 1.876,-0.725 1.087,-1.85 0,0 -1.709,0.69 -4.043,-0.964 C 5.572,-1.475 5.671,-2.147 5.17,-2.385 4.549,-2.68 3.347,-2.855 2.435,-3.16 c 0,0 -0.676,-0.195 -0.455,-0.931 -0.114,-0.179 -1.363,0.066 -0.768,1.645 0,0 -1.198,-0.008 -1.071,-1.104 -0.162,-0.124 -1.341,0.215 -0.757,1.461 0,0 -0.99,0.038 -1.114,-0.877 -0.326,-0.113 -0.796,0.801 -0.202,1.875 C -1.729,-0.726 -0.902,0.002 0,0"
             style="fill:#91cf96;fill-opacity:1;fill-rule:nonzero;stroke:none"
             id="path150"
             inkscape:connector-curvature="0" /></g><g
           id="g152"
           transform="translate(459.9144,364.5651)"><path
             d="m 0,0 c -0.888,0.179 -0.975,-0.344 -0.975,-0.344 0.204,0.156 0.56,0.193 0.658,0.081 0.114,-0.15 0.051,-0.425 0.113,-0.76 -0.007,0.015 -0.587,-0.267 -0.953,0.507 -0.301,0.112 -0.679,1.05 0.002,1.453 0.571,0.337 1.053,0.218 1.053,0.218 C -0.157,0.962 0.054,0.049 0.054,0.049 Z"
             style="fill:#91cf96;fill-opacity:1;fill-rule:nonzero;stroke:none"
             id="path154"
             inkscape:connector-curvature="0" /></g><g
           id="g156"
           transform="translate(460.5726,365.4899)"><path
             d="M 0,0 C 0.343,0.02 0.601,-0.101 0.563,-0.418 0.544,-0.586 0.458,-0.917 0.454,-1.097 c 0,0.018 -0.836,0.173 -0.762,1.026 -0.238,0.213 -0.212,1.154 0.511,1.3 C 0.853,1.359 1.65,0.752 1.696,-0.149 1.503,-0.22 1.312,-0.37 1.227,-0.389 0.69,0.527 0,0 0,0"
             style="fill:#91cf96;fill-opacity:1;fill-rule:nonzero;stroke:none"
             id="path158"
             inkscape:connector-curvature="0" /></g><g
           id="g160"
           transform="translate(458.2347,364.2682)"><path
             d="m 0,0 c -0.035,-0.271 0.064,-0.495 0.174,-0.653 -0.508,-0.148 -0.459,-0.498 -0.459,-0.498 0.119,0.191 0.289,0.246 0.434,0.251 0.133,0.004 0.225,-0.058 0.267,-0.194 0.053,-0.17 0.122,-0.38 0.216,-0.564 C -0.485,-1.975 -1.431,-0.242 0,0"
             style="fill:#91cf96;fill-opacity:1;fill-rule:nonzero;stroke:none"
             id="path162"
             inkscape:connector-curvature="0" /></g><g
           id="g164"
           transform="translate(366.5629,355.528)"><path
             d="m 0,0 c 1.401,0.051 2.165,1.461 2.165,1.461 0,0 -0.61,-1.346 0.666,-1.876 0,0 -0.169,0.925 0.377,1.558 C 3.54,1.527 5.235,3.281 3.826,4.403 2.675,5.32 0.729,4.503 0.27,2.842 -0.147,1.334 -1.003,0.65 -1.808,0.621 -1.808,0.621 -1.402,-0.051 0,0"
             style="fill:#91cf96;fill-opacity:1;fill-rule:nonzero;stroke:none"
             id="path166"
             inkscape:connector-curvature="0" /></g><g
           id="g168"
           transform="translate(371.2416,339.4636)"><path
             d="m 0,0 c 0.503,0.667 0.125,1.899 0.125,1.899 0,0 -0.426,-0.723 -2.131,-0.723 -1.404,0 -2.542,1.451 -2.645,2.767 -0.143,1.806 0.615,3.684 4.165,7.044 3.71,3.511 2.821,7.342 0.909,8.407 0,0 0.081,-0.665 -0.082,-1.217 C 1.282,17.479 1.6,15.304 0.367,13.667 -1.596,11.06 -6.462,8.473 -6.071,3.512 -5.681,-1.45 -0.501,-0.666 0,0"
             style="fill:#91cf96;fill-opacity:1;fill-rule:nonzero;stroke:none"
             id="path170"
             inkscape:connector-curvature="0" /></g><g
           id="g172"
           transform="translate(379.7113,374.4479)"><path
             d="m 0,0 c 1.437,0.225 1.966,1.86 1.966,1.86 0,-0.184 -0.07,-2.672 -0.07,-2.672 -2.833,-0.14 -3.426,0.268 -3.426,0.268 l -0.303,0.93 C -1.805,0.345 -1.263,-0.197 0,0 M 2.353,1.307 C 2.532,0.912 2.933,0.239 3.839,0.055 4.744,-0.13 5.479,0.244 5.8,0.504 5.8,0.504 5.452,-0.364 3.865,-0.329 2.277,-0.294 2.353,1.307 2.353,1.307 M -1.759,-1.11 c 0.454,-0.19 2.327,-0.285 3.571,-0.285 h 0.314 c 1.243,0 3.116,0.095 3.57,0.285 0.454,0.189 0.306,0.694 0.287,0.694 -0.018,0 0.631,2.513 0.631,2.513 0,0 -0.849,-1.619 -2.308,-1.619 -0.931,0 -1.685,0.52 -2.345,2.815 C 1.195,1.014 0.556,0.478 -0.368,0.478 c -1.472,0 -2.309,1.619 -2.309,1.619 0,0 0.65,-2.513 0.631,-2.513 -0.018,0 -0.167,-0.505 0.287,-0.694"
             style="fill:#91cf96;fill-opacity:1;fill-rule:nonzero;stroke:none"
             id="path174"
             inkscape:connector-curvature="0" /></g><g
           id="g176"
           transform="translate(375.7377,364.5534)"><path
             d="m 0,0 c -2.337,-3.538 -1.185,-5.762 -1.185,-5.762 0.081,3.441 2.532,4.707 2.532,4.707 C -1.314,-5.193 -0.341,-8.244 0,-9.624 c 0.341,-1.379 -0.211,-1.931 -0.211,-1.931 3.359,0.942 2.661,5.599 2.661,5.599 1.558,-3.343 4.009,-2.556 4.009,-2.556 -0.471,0.673 -0.341,1.85 -0.341,1.85 1.217,-0.65 3.635,-0.463 3.635,-0.463 C 8.715,-7.66 6.848,-7.692 6.848,-7.692 6.945,-8.617 7.514,-9.007 7.514,-9.007 6.053,-9.899 3.326,-8.698 3.326,-8.698 c -0.847,-3.965 -2.996,-3.99 -3.188,-3.946 0.102,-0.094 0.765,-1.022 2.236,-0.599 1.58,0.455 1.797,2.662 1.797,2.662 -0.033,-2.521 2.466,-2.716 2.466,-2.716 -0.606,0.995 -0.563,3.181 -0.563,3.181 1.114,-0.855 2.478,0.044 4.166,-0.292 1.688,-0.335 3.057,-1.769 3.057,-1.769 0.237,3.115 -3.373,4.132 -3.373,4.132 3.706,0.053 4.73,-4.148 4.709,-4.202 -0.023,-0.055 1.417,1.357 0.584,3.581 -0.546,1.455 -2.976,1.764 -2.976,1.764 2.499,0.67 3.571,-0.671 3.571,-0.671 0.184,2.467 -2.175,2.218 -2.175,2.218 0.444,1.536 -0.422,1.709 -0.422,1.709 0,-0.325 -0.865,-2.045 -2.748,-2.045 -1.882,0 -2.564,1.092 -2.564,1.092 3.73,-1.697 4.59,1.824 4.59,1.824 C 7.832,-4.062 5.848,-0.303 5.848,-0.303 5.707,-2.013 6.52,-3.3 6.52,-3.3 4.551,-2.088 5.068,0.356 5.068,0.356 2.645,-1.774 3.922,-5.096 3.922,-5.096 c -0.325,0 -0.942,1.547 -0.942,2.9 0,1.352 0.639,3.31 2.11,4.262 1.472,0.953 2.056,1.883 2.056,1.883 0,-1.103 -0.844,-1.309 -0.844,-2.803 0,-2.013 1.833,-2.224 3.738,-1.915 1.386,0.226 1.72,-0.378 1.72,-0.378 0.449,1.298 -0.032,2.126 -0.032,2.126 -0.904,-1.049 -3.091,-0.73 -3.098,0.793 -0.006,1.361 0.942,1.926 1.927,1.769 1.167,-0.186 1.479,-1.664 1.479,-1.664 1.553,0.394 1.249,2.597 1.249,2.597 0.569,0.438 0.362,1.016 0.362,1.016 -0.399,0 -1.432,0.671 -2.087,0.671 -0.508,0 -0.781,-0.241 -1.274,-0.28 C 9.764,5.838 9.192,6.068 9.192,6.068 9.046,5.922 9.19,5.377 9.19,5.377 c 0,0 -0.302,-0.119 -0.935,0.313 -0.633,0.433 -1.191,0.417 -1.191,0.417 0,0 0.305,0.448 1.202,0.617 1.033,0.195 1.135,-0.433 1.941,-0.433 0.206,0 0.779,0.021 0.779,0.709 0,0.687 -0.686,0.946 -2.007,0.946 -1.32,0 -3.088,-0.627 -3.51,-0.205 C 5.458,7.751 5.001,7.381 5.943,6.388 5.711,6.612 5.067,7.157 4.219,7.222 3.536,7.273 2.742,7.092 3.066,5.858 3.392,4.625 4.349,4.608 4.349,4.608 3.936,4.942 3.164,6.427 4.544,6.28 5.923,6.134 6.004,4.512 6.004,4.512 3.213,4.414 2.028,1.671 2.028,1.671 2.353,3.781 3.294,4.235 3.294,4.235 2.97,4.479 2.808,4.966 2.808,4.966 1.136,4.187 0.194,1.119 0.194,1.119 0.275,5.015 2.434,5.761 2.434,5.761 1.931,7.237 2.985,7.773 2.985,7.773 1.866,7.822 1.687,8.438 1.687,8.438 0.989,7.578 1.396,6.604 1.396,6.604 0.162,5.729 -0.228,4.284 -0.374,2.531 -0.52,0.778 -1.559,-0.049 -1.559,-0.049 -0.877,-0.487 0,0 0,0"
             style="fill:#91cf96;fill-opacity:1;fill-rule:nonzero;stroke:none"
             id="path178"
             inkscape:connector-curvature="0" /></g><g
           id="g180"
           transform="translate(375.8617,351.9167)"><path
             d="M 0,0 C -0.001,-0.002 0.004,-0.005 0.014,-0.007 0.007,0 0.002,0.003 0,0"
             style="fill:#91cf96;fill-opacity:1;fill-rule:nonzero;stroke:none"
             id="path182"
             inkscape:connector-curvature="0" /></g><g
           id="g184"
           transform="translate(386.2865,366.5788)"><path
             d="m 0,0 c -0.903,0 -1.655,-0.437 -1.655,-0.784 0,0 0.429,0.265 1.466,0.265 1.46,0 1.984,-1.08 3.153,-1.08 1.17,0 1.037,1.328 1.037,1.328 C 2.509,-1.239 1.15,0 0,0"
             style="fill:#91cf96;fill-opacity:1;fill-rule:nonzero;stroke:none"
             id="path186"
             inkscape:connector-curvature="0" /></g><g
           id="g188"
           transform="translate(392.307,354.2477)"><path
             d="M 0,0 C 0.974,0.228 3.635,2.775 3.635,2.775 3.24,1.169 -0.13,-1.477 -0.13,-1.477 3.521,-0.26 5.047,2.97 5.047,2.97 4.349,3.214 4.024,3.619 4.024,3.619 6.069,3.911 6.004,5.372 6.004,5.372 5.729,5.291 5.322,5.518 5.322,5.518 6.023,5.706 6.411,6.263 6.675,6.779 7.141,7.692 6.547,8.332 5.716,8.536 5.275,8.646 4.942,8.614 4.942,8.614 4.955,9.497 3.271,10.731 2.587,10.545 2.784,11.287 2.468,11.73 2.665,11.989 1.518,11.788 1.547,10.517 1.547,10.517 1.03,9.665 1.454,8.748 2.19,8.358 3.305,7.768 3.343,6.703 2.19,5.6 1.038,4.496 -0.081,3.896 -0.081,3.896 0.341,2.986 -0.357,1.559 -0.357,1.559 0.064,0.649 0,0 0,0"
             style="fill:#91cf96;fill-opacity:1;fill-rule:nonzero;stroke:none"
             id="path190"
             inkscape:connector-curvature="0" /></g><g
           id="g192"
           transform="translate(387.601,347.944)"><path
             d="M 0,0 C -1.853,0.373 -2.313,0.876 -4.825,1.466 -3.731,1.812 -2.623,1.775 -0.36,1.019 1.588,0.368 3.907,0.059 4.349,0.085 4.349,0.085 2.828,-0.568 0,0 m 10.483,3.962 c 0.574,0.032 0.606,0.356 0.606,0.356 0.498,0.034 0.922,-0.256 0.922,-0.256 C 11.298,6.597 8.263,5.088 8.263,5.088 6.582,2.067 2.721,2.827 0.62,4.308 -1.48,5.788 -2.48,5.533 -3.574,5.388 -4.279,5.293 -4.901,5.379 -4.901,5.379 -5.129,4.416 -4.512,3.086 -4.441,2.787 -5.767,2.23 -7.662,3.668 -7.662,3.668 -8.095,2.933 -8.91,2.686 -9.623,2.688 c 0.147,-1.231 -0.747,-1.885 -2.306,-3.314 -1.557,-1.428 -3.278,-2.759 -3.229,-4.949 0.049,-2.191 1.218,-3.684 0.487,-6.021 -0.73,-2.337 -2.743,-2.475 -2.743,-2.475 0.568,-0.941 1.688,-0.624 1.688,-0.624 -1.468,-1.29 -3.749,-1.38 -3.749,-1.38 0.016,-1.452 1.648,-1.859 1.648,-1.859 -0.601,-2.182 0.292,-3.781 0.292,-3.781 0.543,0.211 0.844,0.99 0.844,0.99 0.17,-0.544 0.414,-2.109 0.324,-2.418 -0.089,-0.308 -0.616,-1.711 0.804,-1.638 1.419,0.072 1.663,-0.098 1.663,-0.098 0.365,-0.308 0.227,-0.949 0.227,-0.949 1.444,0.113 0.868,1.509 0.868,1.509 1.347,-0.155 1.119,-1.412 1.119,-1.412 1.332,0.146 0.893,1.485 0.893,1.485 1.152,0 1.25,-1.177 1.25,-1.177 0.692,0 1.406,2.9 -2.228,2.857 -1.561,-0.019 -3.03,0.909 -2.64,3.223 0.389,2.316 2.942,4.825 2.942,4.825 -2.863,-1.117 -3.527,-3.591 -3.527,-3.591 0,2.337 1.363,3.874 2.922,4.392 1.557,0.52 1.947,1.234 1.947,1.234 0.151,-0.736 -0.368,-1.471 -0.281,-1.471 0.086,0 2.358,-0.26 2.358,2.141 0,2.403 -0.276,3.435 -1.766,5.987 -1.527,2.615 -0.203,3.642 -0.203,3.642 -0.494,-1.948 2.353,-5.269 2.353,-5.269 0,0 0.516,1.613 2.893,2.59 3.157,1.297 3.821,3.091 3.821,3.091 -1.288,0.465 -3.171,-0.531 -3.171,-0.531 -0.422,0.596 -0.213,1.35 -0.213,1.35 -1.406,-0.519 -3.216,0.382 -3.216,0.382 0.439,0.443 0.484,1.318 0.484,1.318 -0.789,0.368 -2.324,-0.117 -2.324,-0.117 1.148,0.974 3.04,0.627 3.04,0.627 0.12,-0.682 -0.281,-1.428 -0.281,-1.428 1.818,-0.66 3.365,0.281 3.365,0.281 -0.487,-0.768 0.033,-1.341 0.033,-1.341 1.049,0.584 3.96,0.909 6.621,0.378 2.662,-0.53 3.235,0.617 3.83,1.056 0.595,0.439 1.201,0.427 1.763,0.112 0.563,-0.313 0.876,-0.112 0.876,-0.112 0.477,-0.265 0.455,-0.753 0.444,-0.774 -0.011,-0.022 0.866,-0.011 0.649,1.157 -0.216,1.169 -1.568,1.461 -1.579,1.461 0,0 0.292,0.216 0.768,0.054 0.476,-0.163 0.628,0.033 0.628,0.033 0.432,-0.087 0.789,-0.693 0.789,-0.693 0.909,2.564 -1.741,2.142 -1.741,2.142 0,0.195 0.097,0.347 0.67,0.379"
             style="fill:#91cf96;fill-opacity:1;fill-rule:nonzero;stroke:none"
             id="path194"
             inkscape:connector-curvature="0" /></g><g
           id="g196"
           transform="translate(394.3734,325.8444)"><path
             d="m 0,0 c -1.158,-0.002 -2.413,-0.164 -2.402,-0.164 0,0 -2.197,0.628 -3.343,2.532 -1.147,1.903 0.151,5.041 0.422,5.528 0,0 -1.915,-1.233 -1.623,-4.63 0,0 -1.212,2.845 1.288,6.697 0,0 -0.098,-1.007 0.226,-1.32 0,0 0.162,0.27 0.52,0.336 0.357,0.064 0.887,0.377 0.887,1.449 0,1.071 -2.016,5.059 -5.676,6.808 -1.053,-0.846 -2.989,-1.143 -3.572,-2.503 0,0 4.423,-0.868 3.96,-5.516 0,0 -0.532,4.546 -4.469,4.279 0,0 6.343,-2.246 2.18,-10.458 0,0 0.598,-1.07 2.324,-1.168 0,0 -1.876,-0.724 -1.087,-1.85 0,0 1.709,0.691 4.043,-0.963 0.75,-0.533 0.651,-1.204 1.152,-1.443 0.621,-0.295 1.823,-0.469 2.735,-0.775 0,0 0.676,-0.195 0.455,-0.93 0.114,-0.179 1.363,0.065 0.768,1.644 0,0 1.198,-0.008 1.071,-1.104 0.162,-0.124 1.341,0.215 0.757,1.461 0,0 0.99,0.038 1.114,-0.876 0.326,-0.114 0.796,0.801 0.202,1.874 C 1.729,-0.726 0.902,0.001 0,0"
             style="fill:#91cf96;fill-opacity:1;fill-rule:nonzero;stroke:none"
             id="path198"
             inkscape:connector-curvature="0" /></g><g
           id="g200"
           transform="translate(397.6898,364.6042)"><path
             d="M 0,0 C 0.888,0.178 0.975,-0.345 0.975,-0.345 0.771,-0.189 0.415,-0.152 0.317,-0.263 0.202,-0.414 0.266,-0.689 0.204,-1.024 0.211,-1.009 0.791,-1.29 1.157,-0.517 1.458,-0.405 1.836,0.534 1.154,0.937 0.584,1.274 0.102,1.154 0.102,1.154 0.156,0.961 -0.054,0.048 -0.054,0.048 Z"
             style="fill:#91cf96;fill-opacity:1;fill-rule:nonzero;stroke:none"
             id="path202"
             inkscape:connector-curvature="0" /></g><g
           id="g204"
           transform="translate(397.0316,365.529)"><path
             d="m 0,0 c -0.343,0.019 -0.601,-0.102 -0.563,-0.418 0.019,-0.168 0.105,-0.499 0.109,-0.679 0,0.018 0.836,0.172 0.761,1.025 0.239,0.213 0.213,1.155 -0.51,1.301 -0.651,0.13 -1.447,-0.478 -1.493,-1.379 0.192,-0.071 0.384,-0.221 0.469,-0.239 C -0.69,0.526 0,0 0,0"
             style="fill:#91cf96;fill-opacity:1;fill-rule:nonzero;stroke:none"
             id="path206"
             inkscape:connector-curvature="0" /></g><g
           id="g208"
           transform="translate(399.3695,364.3063)"><path
             d="M 0,0 C 0.035,-0.271 -0.064,-0.495 -0.174,-0.652 0.333,-0.8 0.285,-1.151 0.285,-1.151 0.166,-0.959 -0.004,-0.904 -0.149,-0.9 -0.282,-0.896 -0.374,-0.957 -0.416,-1.094 -0.47,-1.264 -0.538,-1.473 -0.632,-1.658 0.485,-1.974 1.431,-0.242 0,0"
             style="fill:#91cf96;fill-opacity:1;fill-rule:nonzero;stroke:none"
             id="path210"
             inkscape:connector-curvature="0" /></g><g
           id="g212"
           transform="translate(429.8842,312.9733)"><path
             d="M 0,0 -1.1,-0.336 -2.2,0 c -10.245,3.125 -17.292,9.447 -20.213,13.912 -4.946,7.562 -7.351,15.567 -7.351,24.476 v -3.141 c 0,-8.908 2.405,-16.914 7.351,-24.475 2.921,-4.465 9.968,-10.788 20.213,-13.913 l 1.1,-0.336 1.1,0.336 c 10.246,3.125 17.292,9.448 20.213,13.913 4.947,7.561 7.351,15.567 7.351,24.475 v 3.141 C 27.564,29.479 25.16,21.474 20.213,13.912 17.292,9.447 10.246,3.125 0,0"
             style="fill:#2a2522;fill-opacity:1;fill-rule:nonzero;stroke:none"
             id="path214"
             inkscape:connector-curvature="0" /></g><g
           id="g216"
           transform="translate(455.1039,385.9792)"><path
             d="m 0,0 c -8.279,3.382 -16.889,5.025 -26.319,5.025 -9.431,0 -18.04,-1.643 -26.32,-5.024 l -2.344,-0.958 v -11.81 l 2.344,0.957 c 8.28,3.381 16.889,5.026 26.32,5.026 9.43,0 18.04,-1.645 26.319,-5.026 l 2.345,-0.957 v 11.81 z"
             style="fill:#c31b32;fill-opacity:1;fill-rule:nonzero;stroke:none"
             id="path218"
             inkscape:connector-curvature="0" /></g><g
           id="g220"
           transform="translate(407.2123,379.613)"><path
             d="m 0,0 c 0.923,0.292 1.481,1.078 1.481,2.616 0,1.273 -0.521,1.701 -1.608,1.358 L -0.566,3.834 V -0.18 Z m -0.313,4.945 c 2.204,0.698 2.986,-0.366 2.986,-2.091 0,-1.71 -0.857,-3.31 -2.584,-3.857 l -1.818,-0.575 v 6.075 z"
             style="fill:#ffffff;fill-opacity:1;fill-rule:nonzero;stroke:none"
             id="path222"
             inkscape:connector-curvature="0" /></g><g
           id="g224"
           transform="translate(414.5131,385.5622)"><path
             d="m 0,0 -2.497,-0.577 v -1.452 l 2.07,0.478 v -1.031 l -2.07,-0.479 v -1.53 l 2.642,0.611 v -1.032 l -3.83,-0.884 V 0.18 L 0,1.03 Z"
             style="fill:#ffffff;fill-opacity:1;fill-rule:nonzero;stroke:none"
             id="path226"
             inkscape:connector-curvature="0" /></g><g
           id="g228"
           transform="translate(417.0756,384.3151)"><path
             d="M 0,0 C 0.656,0.1 1.606,0.136 1.606,1.089 1.606,2.041 0.656,1.786 0,1.687 L -0.248,1.648 V -0.038 Z M 0.865,2.85 C 2.264,3.063 2.843,2.112 2.843,1.238 2.843,0.316 2.303,-0.68 0.563,-0.945 L -0.248,-1.068 V -3.396 L -1.453,-3.58 v 6.075 z"
             style="fill:#ffffff;fill-opacity:1;fill-rule:nonzero;stroke:none"
             id="path230"
             inkscape:connector-curvature="0" /></g><g
           id="g232"
           transform="translate(424.9652,387.8854)"><path
             d="m 0,0 v -4.202 c 0,-1.249 -0.856,-2.034 -2.134,-2.135 -1.277,-0.1 -2.134,0.552 -2.134,1.801 v 4.201 l 1.215,0.095 v -3.811 c 0,-1.014 0.304,-1.303 0.919,-1.255 0.615,0.048 0.919,0.384 0.919,1.4 v 3.81 z"
             style="fill:#ffffff;fill-opacity:1;fill-rule:nonzero;stroke:none"
             id="path234"
             inkscape:connector-curvature="0" /></g><g
           id="g236"
           transform="translate(426.0072,381.822)"><path
             d="M 0,0 V 6.075 L 1.218,6.109 V 0.034 Z"
             style="fill:#ffffff;fill-opacity:1;fill-rule:nonzero;stroke:none"
             id="path238"
             inkscape:connector-curvature="0" /></g><g
           id="g240"
           transform="translate(431.1429,386.1266)"><path
             d="m 0,0 c -0.117,0.424 -0.351,0.857 -0.843,0.866 -0.398,0.008 -0.741,-0.275 -0.741,-0.688 0,-1.196 2.857,-0.467 2.857,-2.732 0,-0.742 -0.562,-1.841 -2.061,-1.812 -1.155,0.02 -1.991,0.598 -2.179,1.789 l 1.219,0.157 c 0.108,-0.518 0.374,-0.905 0.952,-0.916 0.477,-0.009 0.874,0.233 0.874,0.757 0,1.219 -2.857,0.569 -2.857,2.638 0,1.093 0.922,1.857 1.975,1.837 C 0.227,1.877 1,1.199 1.102,0.175 Z"
             style="fill:#ffffff;fill-opacity:1;fill-rule:nonzero;stroke:none"
             id="path242"
             inkscape:connector-curvature="0" /></g><g
           id="g244"
           transform="translate(437.6127,382.32)"><path
             d="m 0,0 0.932,-0.103 v -0.96 l -3.077,0.339 V 0.237 L -1.212,0.134 V 4.116 L -2.145,4.22 V 4.884 L -0.87,5.211 0,5.115 Z"
             style="fill:#ffffff;fill-opacity:1;fill-rule:nonzero;stroke:none"
             id="path246"
             inkscape:connector-curvature="0" /></g><g
           id="g248"
           transform="translate(443.1312,385.9167)"><path
             d="m 0,0 -2.35,-5.008 -1.34,0.231 2.273,4.653 -2.474,0.426 v 1.03 L 0,0.663 Z"
             style="fill:#ffffff;fill-opacity:1;fill-rule:nonzero;stroke:none"
             id="path250"
             inkscape:connector-curvature="0" /></g><g
           id="g252"
           transform="translate(445.5345,380.8776)"><path
             d="M 0,0 C 0.6,-0.145 0.873,0.282 0.873,0.852 0.873,1.336 0.607,1.893 0.084,2.019 -0.311,2.113 -0.6,1.987 -0.88,1.79 -0.896,1.2 -0.735,0.178 0,0 M 0.979,3.411 C 0.79,3.801 0.593,4.059 0.183,4.157 -0.539,4.332 -0.857,3.55 -0.843,2.921 c 0.35,0.119 0.684,0.186 1.094,0.088 0.728,-0.176 1.784,-1 1.784,-2.375 0,-1.476 -1.169,-1.873 -1.951,-1.685 -1.108,0.268 -2.194,1.364 -2.194,3.607 0,2.171 1.04,2.934 2.277,2.636 C 0.896,5.017 1.58,4.406 1.959,3.698 Z"
             style="fill:#ffffff;fill-opacity:1;fill-rule:nonzero;stroke:none"
             id="path254"
             inkscape:connector-curvature="0" /></g><g
           id="g256"
           transform="translate(450.3539,383.1188)"><path
             d="M 0,0 -0.015,0.005 -1.138,-1.799 0,-2.163 Z m 1.16,-2.534 0.721,-0.231 v -0.96 L 1.16,-3.494 V -4.907 L 0,-4.537 v 1.414 l -2.269,0.726 v 0.882 L -0.193,1.601 1.16,1.168 Z"
             style="fill:#ffffff;fill-opacity:1;fill-rule:nonzero;stroke:none"
             id="path258"
             inkscape:connector-curvature="0" /></g><g
           id="g260"
           transform="translate(428.7845,316.5798)"><path
             d="m 0,0 c 8.473,2.584 15.192,7.837 18.158,12.37 4.233,6.471 6.736,13.71 6.736,22.411 V 54.1 C 16.326,57.599 7.948,58.845 0,58.845 c -7.949,0 -16.327,-1.246 -24.895,-4.745 V 34.781 c 0,-8.701 2.504,-15.94 6.737,-22.411 C -15.192,7.837 -8.473,2.584 0,0 m -0.325,-1.067 c -9.567,2.918 -16.089,8.733 -18.767,12.827 -4.655,7.115 -6.918,14.645 -6.918,23.021 v 20.068 l 0.695,0.283 C -17.361,58.381 -9.08,59.96 0,59.96 c 9.08,0 17.36,-1.579 25.315,-4.828 l 0.694,-0.283 V 34.781 C 26.009,26.405 23.746,18.875 19.091,11.76 16.413,7.666 9.892,1.851 0.325,-1.067 L 0,-1.167 Z"
             style="fill:#2a2522;fill-opacity:1;fill-rule:nonzero;stroke:none"
             id="path262"
             inkscape:connector-curvature="0" /></g><g
           id="g264"
           transform="translate(428.7845,315.4128)"><path
             d="m 0,0 0.325,0.1 c 9.567,2.918 16.088,8.733 18.766,12.827 4.655,7.115 6.918,14.645 6.918,23.021 v 20.068 l -0.694,0.283 C 17.36,59.548 9.08,61.127 0,61.127 c -9.08,0 -17.361,-1.579 -25.315,-4.828 L -26.01,56.016 V 35.948 c 0,-8.376 2.263,-15.906 6.918,-23.021 2.678,-4.094 9.2,-9.909 18.767,-12.827 z m -1.101,-2.439 c -10.245,3.125 -17.292,9.447 -20.212,13.912 -4.947,7.561 -7.351,15.567 -7.351,24.475 V 57.8 l 2.345,0.957 c 8.279,3.381 16.888,5.025 26.319,5.025 9.431,0 18.04,-1.644 26.319,-5.025 L 28.664,57.8 V 35.948 C 28.664,27.04 26.26,19.034 21.312,11.473 18.392,7.008 11.346,0.686 1.1,-2.439 L 0,-2.775 Z"
             style="fill:#ffffff;fill-opacity:1;fill-rule:nonzero;stroke:none"
             id="path266"
             inkscape:connector-curvature="0" /></g><g
           id="g268"
           transform="translate(403.9906,348.4099)"><path
             d="m 0,0 h 24.794 v 27.015 c -7.949,0 -16.327,-1.246 -24.895,-4.745 V 2.951 C -0.101,1.948 -0.065,0.965 0,0"
             style="fill:#ffffff;fill-opacity:1;fill-rule:nonzero;stroke:none"
             id="path270"
             inkscape:connector-curvature="0" /></g><g
           id="g272"
           transform="translate(403.9906,348.4099)"><path
             d="M 0,0 H 24.794 V -31.83 C 16.321,-29.246 9.602,-23.993 6.636,-19.46 2.891,-13.735 0.501,-7.408 0,0"
             style="fill:#1f4130;fill-opacity:1;fill-rule:nonzero;stroke:none"
             id="path274"
             inkscape:connector-curvature="0" /></g><g
           id="g276"
           transform="translate(453.5785,348.4099)"><path
             d="m 0,0 h -24.794 v 27.015 c 7.948,0 16.326,-1.246 24.894,-4.745 L 0.1,2.951 C 0.1,1.948 0.065,0.965 0,0"
             style="fill:#1f4130;fill-opacity:1;fill-rule:nonzero;stroke:none"
             id="path278"
             inkscape:connector-curvature="0" /></g><g
           id="g280"
           transform="translate(453.5785,348.4099)"><path
             d="m 0,0 h -24.794 v -31.83 c 8.473,2.584 15.192,7.837 18.158,12.37 C -2.892,-13.735 -0.502,-7.408 0,0"
             style="fill:#ffffff;fill-opacity:1;fill-rule:nonzero;stroke:none"
             id="path282"
             inkscape:connector-curvature="0" /></g><g
           id="g284"
           transform="translate(439.8754,361.1042)"><path
             d="m 0,0 c 1.473,0.066 2.476,0.572 2.476,2.29 0,1.717 -1.846,1.889 -2.862,1.889 -1.015,0 -1.144,-0.187 -1.144,-0.187 v -3.92 c 0,0 0.572,-0.115 1.53,-0.072 m 0.43,-7.211 c 1.726,0 2.646,0.892 2.646,2.532 0,1.13 -0.425,2.008 -1.473,2.347 -0.496,0.16 -1.316,0.175 -1.96,0.272 -0.472,0.072 -0.891,0.324 -1.16,0.644 v -5.423 c 0,0 0.702,-0.372 1.947,-0.372 M -5.034,5.896 c -0.035,0.073 0.015,0.157 0.096,0.158 0.832,0.002 4.509,0.013 6.04,0.013 2.567,0 4.45,-1.314 4.45,-3.491 0,-2.115 -0.965,-2.92 -1.775,-3.37 -0.082,-0.046 -0.072,-0.164 0.016,-0.196 0.634,-0.236 2.288,-1.116 2.288,-3.903 0,-3.448 -2.16,-4.764 -5.021,-4.764 h -6.044 c -0.085,0 -0.138,0.092 -0.092,0.165 0.179,0.284 0.498,0.939 0.498,1.98 V 3.921 c 0,1.166 -0.2,1.448 -0.456,1.975"
             style="fill:#ffffff;fill-opacity:1;fill-rule:nonzero;stroke:none"
             id="path286"
             inkscape:connector-curvature="0" /></g><g
           id="g288"
           transform="translate(439.8754,338.6813)"><path
             d="m 0,0 c 1.473,0.066 2.476,0.572 2.476,2.29 0,1.717 -1.846,1.889 -2.862,1.889 -1.015,0 -1.144,-0.187 -1.144,-0.187 v -3.92 c 0,0 0.572,-0.115 1.53,-0.072 m 0.43,-7.211 c 1.726,0 2.646,0.891 2.646,2.532 0,1.13 -0.425,2.008 -1.473,2.347 -0.496,0.16 -1.316,0.175 -1.96,0.272 -0.472,0.072 -0.891,0.324 -1.16,0.644 v -5.423 c 0,0 0.702,-0.372 1.947,-0.372 M -5.034,5.896 c -0.035,0.073 0.015,0.157 0.096,0.157 0.832,0.003 4.509,0.014 6.04,0.014 2.567,0 4.45,-1.315 4.45,-3.491 0,-2.115 -0.965,-2.92 -1.775,-3.37 -0.082,-0.046 -0.072,-0.164 0.016,-0.196 0.634,-0.236 2.288,-1.116 2.288,-3.903 0,-3.448 -2.16,-4.764 -5.021,-4.764 h -6.044 c -0.085,0 -0.138,0.092 -0.092,0.165 0.179,0.284 0.498,0.939 0.498,1.98 V 3.921 c 0,1.165 -0.2,1.448 -0.456,1.975"
             style="fill:#1f4130;fill-opacity:1;fill-rule:nonzero;stroke:none"
             id="path290"
             inkscape:connector-curvature="0" /></g><g
           id="g292"
           transform="translate(417.9955,338.6813)"><path
             d="m 0,0 c 1.473,0.066 2.476,0.572 2.476,2.29 0,1.717 -1.846,1.889 -2.862,1.889 -1.016,0 -1.144,-0.187 -1.144,-0.187 v -3.92 c 0,0 0.572,-0.115 1.53,-0.072 m 0.43,-7.211 c 1.726,0 2.646,0.891 2.646,2.532 0,1.13 -0.425,2.008 -1.473,2.347 -0.496,0.16 -1.316,0.175 -1.96,0.272 -0.472,0.072 -0.891,0.324 -1.16,0.644 v -5.423 c 0,0 0.702,-0.372 1.947,-0.372 M -5.034,5.896 c -0.035,0.073 0.015,0.157 0.096,0.157 0.832,0.003 4.509,0.014 6.04,0.014 2.567,0 4.45,-1.315 4.45,-3.491 0,-2.115 -0.965,-2.92 -1.775,-3.37 -0.082,-0.046 -0.072,-0.164 0.016,-0.196 0.634,-0.236 2.288,-1.116 2.288,-3.903 0,-3.448 -2.16,-4.764 -5.022,-4.764 h -6.043 c -0.085,0 -0.138,0.092 -0.092,0.165 0.179,0.284 0.498,0.939 0.498,1.98 V 3.921 c 0,1.165 -0.2,1.448 -0.456,1.975"
             style="fill:#ffffff;fill-opacity:1;fill-rule:nonzero;stroke:none"
             id="path294"
             inkscape:connector-curvature="0" /></g><g
           id="g296"
           transform="translate(417.9955,361.1042)"><path
             d="m 0,0 c 1.473,0.066 2.476,0.572 2.476,2.29 0,1.717 -1.846,1.889 -2.862,1.889 -1.016,0 -1.144,-0.187 -1.144,-0.187 v -3.92 c 0,0 0.572,-0.115 1.53,-0.072 m 0.43,-7.211 c 1.726,0 2.646,0.892 2.646,2.532 0,1.13 -0.425,2.008 -1.473,2.347 -0.496,0.16 -1.316,0.175 -1.96,0.272 -0.472,0.072 -0.891,0.324 -1.16,0.644 v -5.423 c 0,0 0.702,-0.372 1.947,-0.372 M -5.034,5.896 c -0.035,0.073 0.015,0.157 0.096,0.158 0.832,0.002 4.509,0.013 6.04,0.013 2.567,0 4.45,-1.314 4.45,-3.491 0,-2.115 -0.965,-2.92 -1.775,-3.37 -0.082,-0.046 -0.072,-0.164 0.016,-0.196 0.634,-0.236 2.288,-1.116 2.288,-3.903 0,-3.448 -2.16,-4.764 -5.022,-4.764 h -6.043 c -0.085,0 -0.138,0.092 -0.092,0.165 0.179,0.284 0.498,0.939 0.498,1.98 V 3.921 c 0,1.166 -0.2,1.448 -0.456,1.975"
             style="fill:#1f4130;fill-opacity:1;fill-rule:nonzero;stroke:none"
             id="path298"
             inkscape:connector-curvature="0" /></g><g
           id="g300"
           transform="translate(335.1351,208.2761)"><path
             d="m 0,0 c 3.019,0.268 4.864,2.22 4.865,5.644 0,3.4 -1.92,4.988 -4.865,4.728 -0.599,-0.053 -1.197,-0.106 -1.796,-0.161 V -0.161 C -1.197,-0.106 -0.599,-0.053 0,0 m -6.161,13.558 c 2.111,0.199 4.224,0.392 6.336,0.58 5.613,0.494 9.209,-2.502 9.208,-8.124 0,-5.626 -3.596,-9.252 -9.208,-9.747 -2.112,-0.188 -4.225,-0.381 -6.336,-0.58 z"
             style="fill:#1f4130;fill-opacity:1;fill-rule:nonzero;stroke:none"
             id="path302"
             inkscape:connector-curvature="0" /></g><g
           id="g304"
           transform="translate(354.5092,214.1403)"><path
             d="M 0,0 C 0,0.975 -0.675,1.805 -1.698,1.729 -2.947,1.639 -3.545,0.691 -3.771,-0.272 -2.514,-0.18 -1.257,-0.089 0,0 m -1.599,4.984 c 3.795,0.272 5.945,-2.239 5.945,-5.813 0,-0.428 -0.099,-1.357 -0.1,-1.357 -2.706,-0.179 -5.411,-0.369 -8.116,-0.568 0.324,-1.55 1.623,-2.181 2.996,-2.083 1.849,0.132 3.547,1.547 3.547,1.546 0.533,-0.972 1.066,-1.944 1.598,-2.917 0.001,-0.003 -2.073,-2.009 -5.495,-2.253 -4.595,-0.33 -7.066,2.793 -7.066,6.221 10e-4,3.771 2.547,6.927 6.691,7.224"
             style="fill:#1f4130;fill-opacity:1;fill-rule:nonzero;stroke:none"
             id="path306"
             inkscape:connector-curvature="0" /></g><g
           id="g308"
           transform="translate(374.5277,211.0329)"><path
             d="M 0,0 C 1.275,0.065 1.899,0.973 1.9,1.971 1.899,2.97 1.301,3.765 0.025,3.701 -0.857,3.655 -1.741,3.608 -2.624,3.562 v -3.7 C -1.749,-0.091 -0.874,-0.045 0,0 M -0.375,7.18 C 0.725,7.234 1.202,8.061 1.201,8.908 1.2,9.734 0.725,10.409 -0.45,10.35 -1.175,10.312 -1.899,10.273 -2.624,10.234 V 7.061 c 0.75,0.041 1.5,0.08 2.249,0.119 m -6.623,6.56 c 2.191,0.127 4.382,0.247 6.573,0.361 C 3.15,14.287 5.649,12.797 5.65,9.724 5.65,8.224 4.925,6.667 3.575,5.826 V 5.776 C 5.626,5.248 6.375,3.459 6.376,1.883 6.375,-2.016 3.125,-3.586 -0.425,-3.771 -2.616,-3.885 -4.807,-4.004 -6.998,-4.131 Z"
             style="fill:#1f4130;fill-opacity:1;fill-rule:nonzero;stroke:none"
             id="path310"
             inkscape:connector-curvature="0" /></g><g
           id="g312"
           transform="translate(389.4584,225.8171)"><path
             d="M 0,0 C 1.426,0.054 2.852,0.104 4.277,0.151 3.293,-1.132 2.31,-2.416 1.326,-3.701 0.209,-3.741 -0.908,-3.783 -2.025,-3.827 -1.351,-2.551 -0.675,-1.275 0,0 m 1.476,-9.744 c -10e-4,0.974 -0.675,1.827 -1.701,1.787 -1.251,-0.042 -1.85,-0.971 -2.076,-1.929 1.259,0.049 2.518,0.097 3.777,0.142 m -1.601,5.04 c 3.801,0.141 5.952,-2.444 5.952,-6.018 0,-0.426 -0.099,-1.351 -0.099,-1.352 -2.71,-0.087 -5.419,-0.184 -8.129,-0.291 0.326,-1.56 1.626,-2.236 3.001,-2.185 1.851,0.069 3.551,1.423 3.552,1.424 0.534,-0.99 1.068,-1.981 1.601,-2.973 0,0.001 -2.077,-1.935 -5.503,-2.063 -4.602,-0.17 -7.076,3.038 -7.077,6.463 0,3.772 2.553,6.837 6.702,6.995"
             style="fill:#1f4130;fill-opacity:1;fill-rule:nonzero;stroke:none"
             id="path314"
             inkscape:connector-curvature="0" /></g><g
           id="g316"
           transform="translate(397.7396,226.0934)"><path
             d="M 0,0 C 1.409,0.042 2.818,0.08 4.228,0.116 V -3.259 C 2.818,-3.295 1.409,-3.333 0,-3.375 Z m -0.05,-5 c 1.443,0.042 2.885,0.081 4.327,0.119 V -17.754 C 2.835,-17.79 1.393,-17.83 -0.05,-17.873 Z"
             style="fill:#1f4130;fill-opacity:1;fill-rule:nonzero;stroke:none"
             id="path318"
             inkscape:connector-curvature="0" /></g><g
           id="g320"
           transform="translate(412.6508,216.6306)"><path
             d="M 0,0 C -0.001,0.975 -0.676,1.838 -1.701,1.822 -2.952,1.8 -3.553,0.889 -3.777,-0.064 -2.519,-0.041 -1.26,-0.02 0,0 M -1.602,5.073 C 2.2,5.137 4.354,2.508 4.354,-1.066 4.352,-1.492 4.253,-2.415 4.253,-2.417 c -2.71,-0.031 -5.421,-0.072 -8.131,-0.124 0.326,-1.567 1.628,-2.269 3.002,-2.247 1.853,0.028 3.554,1.351 3.554,1.351 0.533,-1 1.067,-2.002 1.6,-3.004 0.001,0 -2.077,-1.897 -5.505,-1.952 -4.603,-0.076 -7.08,3.179 -7.079,6.608 10e-4,3.773 2.551,6.787 6.704,6.858"
             style="fill:#1f4130;fill-opacity:1;fill-rule:nonzero;stroke:none"
             id="path322"
             inkscape:connector-curvature="0" /></g><g
           id="g324"
           transform="translate(419.4095,221.5124)"><path
             d="M 0,0 C 1.385,0.013 2.77,0.022 4.154,0.03 V -2.145 C 4.153,-2.569 4.104,-2.944 4.104,-2.944 h 0.05 C 4.705,-1.19 6.33,0.265 8.257,0.269 8.507,0.267 8.758,0.221 8.758,0.219 V -4.03 c 0.001,-10e-4 -0.35,0.072 -0.876,0.074 -1.027,0 -2.702,-0.335 -3.328,-2.261 -0.15,-0.475 -0.226,-1.052 -0.225,-1.75 v -4.874 C 2.886,-12.849 1.443,-12.859 0,-12.872 Z"
             style="fill:#1f4130;fill-opacity:1;fill-rule:nonzero;stroke:none"
             id="path326"
             inkscape:connector-curvature="0" /></g><g
           id="g328"
           transform="translate(434.3519,221.5446)"><path
             d="m 0,0 c 1.518,-0.008 3.036,-0.02 4.554,-0.033 0.667,-2.289 1.334,-4.578 2.001,-6.869 0.251,-0.826 0.476,-2.231 0.476,-2.23 0.017,0 0.033,0 0.05,-10e-4 0,10e-4 0.225,1.373 0.475,2.22 0.659,2.274 1.318,4.55 1.977,6.823 1.526,-0.021 3.052,-0.047 4.578,-0.074 -1.459,-4.264 -2.919,-8.53 -4.378,-12.801 -1.759,0.025 -3.519,0.045 -5.279,0.061 C 2.97,-8.6 1.484,-4.299 0,0"
             style="fill:#1f4130;fill-opacity:1;fill-rule:nonzero;stroke:none"
             id="path330"
             inkscape:connector-curvature="0" /></g><g
           id="g332"
           transform="translate(449.9427,221.3532)"><path
             d="m 0,0 c 1.442,-0.028 2.886,-0.06 4.328,-0.094 v -7.549 c 10e-4,-1.2 0.475,-1.709 1.375,-1.732 1.851,-0.047 2.728,1.552 2.728,3.477 v 5.699 c 1.442,-0.039 2.884,-0.082 4.327,-0.127 v -12.873 c -1.384,0.044 -2.769,0.085 -4.153,0.123 v 1.125 c 10e-4,0.424 0.05,0.798 0.05,0.799 -0.016,10e-4 -0.033,10e-4 -0.05,0.002 -0.701,-1.357 -2.301,-2.163 -4.027,-2.121 -2.553,0.061 -4.579,1.298 -4.578,4.922 z"
             style="fill:#1f4130;fill-opacity:1;fill-rule:nonzero;stroke:none"
             id="path334"
             inkscape:connector-curvature="0" /></g><g
           id="g336"
           transform="translate(465.9554,220.9186)"><path
             d="m 0,0 c 1.385,-0.048 2.769,-0.099 4.152,-0.151 v -1.125 c 0,-0.424 -0.05,-0.799 -0.05,-0.799 0.016,0 0.033,-10e-4 0.05,-0.002 0.599,0.978 1.826,2.154 4.101,2.058 2.601,-0.112 4.624,-1.407 4.626,-5.03 v -8.347 c -1.442,0.067 -2.884,0.131 -4.326,0.193 v 7.548 c 0,1.201 -0.475,1.72 -1.426,1.759 -1.35,0.057 -2.175,-0.659 -2.55,-1.746 -0.175,-0.494 -0.25,-1.065 -0.25,-1.691 V -13.03 C 2.885,-12.975 1.442,-12.922 0,-12.872 Z"
             style="fill:#1f4130;fill-opacity:1;fill-rule:nonzero;stroke:none"
             id="path338"
             inkscape:connector-curvature="0" /></g><g
           id="g340"
           transform="translate(487.6879,224.9421)"><path
             d="m 0,0 c 1.441,-0.079 2.883,-0.162 4.323,-0.247 v -5.649 c 0,-0.648 -0.051,-1.098 -0.05,-1.097 l 0.05,-0.003 c 0.725,1.232 2.224,1.918 3.923,1.809 2.599,-0.163 4.622,-1.5 4.622,-5.125 v -8.347 c -1.44,0.097 -2.882,0.191 -4.322,0.282 v 7.548 c 0,1.203 -0.475,1.727 -1.424,1.789 -1.324,0.082 -2.198,-0.638 -2.574,-1.743 -0.175,-0.489 -0.224,-1.033 -0.225,-1.637 v -5.698 C 2.883,-18.033 1.441,-17.95 0,-17.871 Z"
             style="fill:#1f4130;fill-opacity:1;fill-rule:nonzero;stroke:none"
             id="path342"
             inkscape:connector-curvature="0" /></g><g
           id="g344"
           transform="translate(510.9974,213.6022)"><path
             d="M 0,0 C 0,0.974 -0.675,1.899 -1.697,1.979 -2.946,2.073 -3.544,1.218 -3.77,0.284 -2.513,0.191 -1.257,0.097 0,0 M -1.598,5.221 C 2.196,4.931 4.344,2.104 4.343,-1.47 4.342,-1.894 4.244,-2.813 4.244,-2.811 c -2.704,0.22 -5.409,0.429 -8.114,0.628 0.326,-1.599 1.623,-2.418 2.996,-2.524 1.848,-0.141 3.547,1.02 3.546,1.022 0.532,-1.05 1.064,-2.1 1.597,-3.152 0,0.002 -2.072,-1.702 -5.493,-1.442 -4.592,0.348 -7.068,3.835 -7.066,7.261 0,3.773 2.547,6.552 6.692,6.239"
             style="fill:#1f4130;fill-opacity:1;fill-rule:nonzero;stroke:none"
             id="path346"
             inkscape:connector-curvature="0" /></g><g
           id="g348"
           transform="translate(517.7904,222.8542)"><path
             d="M 0,0 C 1.406,-0.117 2.812,-0.238 4.218,-0.361 V -3.736 C 2.812,-3.613 1.405,-3.493 0,-3.375 Z m -0.05,-4.995 c 1.44,-0.121 2.878,-0.244 4.318,-0.37 v -12.872 c -1.44,0.127 -2.878,0.25 -4.318,0.37 z"
             style="fill:#1f4130;fill-opacity:1;fill-rule:nonzero;stroke:none"
             id="path350"
             inkscape:connector-curvature="0" /></g><g
           id="g352"
           transform="translate(525.1517,208.4401)"><path
             d="M 0,0 C 1.364,-0.124 2.728,-0.25 4.091,-0.379 V -4.478 C 2.728,-4.349 1.364,-4.223 0,-4.099 Z"
             style="fill:#1f4130;fill-opacity:1;fill-rule:nonzero;stroke:none"
             id="path354"
             inkscape:connector-curvature="0" /></g><g
           id="g356"
           transform="translate(384.7885,191.697)"><path
             d="M 0,0 H 0.64 V 3.559 H 0 V 4.678 H 2.711 V 3.559 H 2.071 V 0.08 H 3.303 V 0.92 H 4.502 V -1.039 H 0 Z"
             style="fill:#c31b32;fill-opacity:1;fill-rule:nonzero;stroke:none"
             id="path358"
             inkscape:connector-curvature="0" /></g><g
           id="g360"
           transform="translate(394.6117,193.5446)"><path
             d="M 0,0 -0.296,1.055 C -0.393,1.407 -0.408,1.654 -0.408,1.654 H -0.44 c 0,0 -0.016,-0.247 -0.112,-0.599 L -0.855,0 Z m -3.271,-1.848 h 0.472 L -1.24,2.83 H 0.392 L 1.95,-1.848 H 2.422 V -2.887 H 0.031 v 1.039 h 0.496 l -0.215,0.76 H -1.16 l -0.216,-0.76 h 0.496 v -1.039 h -2.391 z"
             style="fill:#c31b32;fill-opacity:1;fill-rule:nonzero;stroke:none"
             id="path362"
             inkscape:connector-curvature="0" /></g><g
           id="g364"
           transform="translate(405.9232,191.777)"><path
             d="m 0,0 c 0.104,0 0.192,0.017 0.264,0.048 0.223,0.097 0.343,0.36 0.343,0.624 0,0.336 -0.191,0.592 -0.599,0.592 H -0.823 V 0 Z m -0.12,2.383 c 0.351,0 0.504,0.248 0.504,0.552 0,0.2 -0.08,0.416 -0.264,0.496 -0.104,0.04 -0.2,0.048 -0.351,0.048 H -0.823 V 2.383 Z M -2.895,-0.08 h 0.64 v 3.639 h -0.64 v 1.039 h 2.671 c 0.448,0 0.728,-0.016 1.047,-0.12 0.6,-0.208 1,-0.704 1,-1.368 0,-0.495 -0.232,-0.975 -0.679,-1.223 V 1.871 C 1.823,1.663 2.055,1.104 2.055,0.56 c 0,-0.864 -0.6,-1.431 -1.272,-1.599 -0.304,-0.072 -0.543,-0.08 -0.855,-0.08 h -2.823 z"
             style="fill:#c31b32;fill-opacity:1;fill-rule:nonzero;stroke:none"
             id="path366"
             inkscape:connector-curvature="0" /></g><g
           id="g368"
           transform="translate(410.4447,191.697)"><path
             d="M 0,0 H 0.64 V 3.639 H 0 V 4.678 H 2.711 V 3.639 H 2.071 V 0 h 0.64 V -1.039 H 0 Z"
             style="fill:#c31b32;fill-opacity:1;fill-rule:nonzero;stroke:none"
             id="path370"
             inkscape:connector-curvature="0" /></g><g
           id="g372"
           transform="translate(416.4203,197.9421)"><path
             d="M 0,0 H 1.415 L 2.343,-1.199 H 1.207 Z m -0.72,-6.245 h 0.64 v 3.639 h -0.64 v 1.039 h 4.406 v -1.688 h -1.2 v 0.568 H 1.352 v -1.159 h 1.67 v -1.12 h -1.67 v -1.199 h 1.231 v 0.568 H 3.782 V -7.284 H -0.72 Z"
             style="fill:#c31b32;fill-opacity:1;fill-rule:nonzero;stroke:none"
             id="path374"
             inkscape:connector-curvature="0" /></g><g
           id="g376"
           transform="translate(425.4506,193.7839)"><path
             d="M 0,0 C 0.447,0 0.728,0.225 0.728,0.744 0.728,1.008 0.663,1.256 0.416,1.376 0.288,1.439 0.104,1.472 -0.136,1.472 H -0.647 V 0 Z m -2.719,-2.087 h 0.64 v 3.639 h -0.64 v 1.039 h 2.583 C 0.296,2.591 0.68,2.575 1.008,2.479 1.695,2.271 2.15,1.711 2.15,0.872 2.15,0.12 1.791,-0.392 1.224,-0.695 v -0.016 c 0,0 0.223,-0.097 0.351,-0.344 l 0.44,-0.847 c 0.072,-0.136 0.183,-0.185 0.368,-0.185 h 0.2 V -3.126 H 1.639 c -0.464,0 -0.648,0.112 -0.808,0.424 l -0.695,1.335 c -0.096,0.184 -0.2,0.248 -0.496,0.248 h -0.287 v -0.968 h 0.599 v -1.039 h -2.671 z"
             style="fill:#c31b32;fill-opacity:1;fill-rule:nonzero;stroke:none"
             id="path378"
             inkscape:connector-curvature="0" /></g><g
           id="g380"
           transform="translate(430.4125,191.697)"><path
             d="M 0,0 H 0.64 V 3.639 H 0 V 4.678 H 4.406 V 2.99 h -1.2 V 3.559 H 2.071 V 2.399 H 3.742 V 1.279 H 2.071 V 0.08 H 3.303 V 0.648 H 4.502 V -1.039 H 0 Z"
             style="fill:#c31b32;fill-opacity:1;fill-rule:nonzero;stroke:none"
             id="path382"
             inkscape:connector-curvature="0" /></g><g
           id="g384"
           transform="translate(443.6898,191.777)"><path
             d="m 0,0 c 0.353,0 0.616,0.04 0.872,0.16 0.487,0.248 0.775,0.816 0.775,1.575 0,0.848 -0.351,1.4 -0.879,1.623 C 0.521,3.462 0.288,3.479 0,3.479 H -0.415 V 0 Z m -2.486,-0.08 h 0.639 v 3.639 h -0.639 v 1.039 h 2.518 c 0.441,0 0.816,-0.016 1.176,-0.12 C 2.343,4.158 3.127,3.175 3.127,1.743 3.127,0.432 2.455,-0.543 1.408,-0.928 0.992,-1.079 0.561,-1.119 0.04,-1.119 h -2.526 z"
             style="fill:#c31b32;fill-opacity:1;fill-rule:nonzero;stroke:none"
             id="path386"
             inkscape:connector-curvature="0" /></g><g
           id="g388"
           transform="translate(449.5951,196.4948)"><path
             d="M 0,0 H 1.215 L 0.504,-2.039 h -0.936 z"
             style="fill:#c31b32;fill-opacity:1;fill-rule:nonzero;stroke:none"
             id="path390"
             inkscape:connector-curvature="0" /></g><g
           id="g392"
           transform="translate(453.0433,191.697)"><path
             d="M 0,0 H 0.64 V 3.639 H 0 V 4.678 H 2.711 V 3.639 H 2.071 V 0 h 0.64 V -1.039 H 0 Z"
             style="fill:#c31b32;fill-opacity:1;fill-rule:nonzero;stroke:none"
             id="path394"
             inkscape:connector-curvature="0" /></g><g
           id="g396"
           transform="translate(461.1703,196.4704)"><path
             d="m 0,0 c 0.695,0 2.311,-0.224 2.311,-1.143 v -0.904 h -1.28 v 0.441 c 0,0.319 -0.584,0.407 -0.968,0.407 -0.927,0 -1.575,-0.6 -1.575,-1.663 0,-1.184 0.704,-1.847 1.656,-1.847 0.255,0 0.951,0.063 0.951,0.407 v 0.441 h 1.279 v -0.92 c 0,-0.871 -1.543,-1.127 -2.335,-1.127 -1.751,0 -3.03,1.295 -3.03,2.966 C -2.991,-1.231 -1.672,0 0,0"
             style="fill:#c31b32;fill-opacity:1;fill-rule:nonzero;stroke:none"
             id="path398"
             inkscape:connector-curvature="0" /></g><g
           id="g400"
           transform="translate(466.0424,191.697)"><path
             d="M 0,0 H 0.64 V 3.639 H 0 V 4.678 H 2.711 V 3.639 H 2.071 V 0 h 0.64 V -1.039 H 0 Z"
             style="fill:#c31b32;fill-opacity:1;fill-rule:nonzero;stroke:none"
             id="path402"
             inkscape:connector-curvature="0" /></g><path
           d="m 471.386,191.969 h 1.312 v -1.312 h -1.312 z"
           style="fill:#c31b32;fill-opacity:1;fill-rule:nonzero;stroke:none"
           id="path404"
           inkscape:connector-curvature="0" /></g></g></g></svg>