<?xml version="1.0" encoding="UTF-8" standalone="no"?><!DOCTYPE svg PUBLIC "-//W3C//DTD SVG 1.1//EN" "http://www.w3.org/Graphics/SVG/1.1/DTD/svg11.dtd"><svg width="100%" height="100%" viewBox="0 0 197 49" version="1.1" xmlns="http://www.w3.org/2000/svg" xmlns:xlink="http://www.w3.org/1999/xlink" xml:space="preserve" xmlns:serif="http://www.serif.com/" style="fill-rule:evenodd;clip-rule:evenodd;stroke-linejoin:round;stroke-miterlimit:1.41421;"><g id="logo"><path d="M10.106,35.05c0,1.42 1.184,2.557 2.605,2.557l0,-32.491c0,-2.748 2.179,-4.974 4.926,-4.974c2.747,0 4.973,2.226 4.973,4.974l0,20.035c1.421,0 2.558,-1.184 2.558,-2.605l0,-4.974c0,-2.747 2.226,-4.925 4.973,-4.925c2.747,0 4.974,2.178 4.974,4.925l-0.047,0.048l0,4.926c0,6.868 -5.59,12.457 -12.458,12.457l0,12.503l-9.899,0c-6.915,0 -12.505,-5.59 -12.505,-12.503l0,-17.431c0,-2.747 2.227,-4.925 4.974,-4.925c2.747,0 4.973,2.178 4.973,4.925l-0.047,0l0,17.478Z" style="fill:#00a650;fill-rule:nonzero;"/><path d="M66.796,23.919c0.329,-3.079 -1.688,-4.832 -5.533,-4.832c-5.393,0 -7.503,6.395 -8.393,11.51c-0.845,4.973 -0.798,10.846 4.501,10.846c3.939,0 6.517,-1.752 7.268,-5.021l9.847,0c-1.359,8.621 -10.082,11.653 -18.288,11.653c-10.55,0 -15.099,-6.395 -13.082,-17.856c1.969,-11.463 8.768,-17.668 19.319,-17.763c8.206,0 15.849,2.842 14.208,11.463l-9.847,0Z" style="fill:#00a650;fill-rule:nonzero;"/><path d="M86.162,42.864c3.845,0 4.783,-3.646 5.345,-6.819c-1.875,0 -3.657,-0.096 -4.97,0.521c-1.406,0.662 -2.579,1.515 -2.907,3.172c-0.281,1.705 0.844,3.126 2.532,3.126m3.705,4.5c-0.048,-0.756 0.093,-1.515 0.375,-3.22l-0.094,0c-1.36,1.705 -3.798,3.931 -8.206,3.931c-5.58,0 -7.925,-3.032 -6.987,-7.91c1.079,-5.778 6.752,-8.146 14.443,-8.146l2.813,0c0.375,-2.084 1.36,-5.116 -2.204,-4.973c-2.204,0.095 -3.282,2.226 -3.47,3.647l-8.394,0c0.563,-3.363 2.627,-5.305 5.206,-6.394c2.625,-1.137 5.72,-1.422 8.347,-1.422c4.782,0 10.225,2.037 9.193,7.389l-2.157,12.22c-0.189,0.995 -0.142,2.037 -0.33,4.878l-8.535,0Z" style="fill:#00a650;fill-rule:nonzero;"/><path d="M117.958,31.924c0.234,-1.185 0.187,-2.132 -0.188,-2.795c-0.422,-0.663 -1.218,-1.042 -2.579,-1.042c-3.236,0 -4.314,4.926 -4.736,7.389c-0.422,2.463 -1.079,7.388 2.158,7.388c3.14,-0.237 3.939,-2.652 4.314,-4.784l8.908,0c-0.609,3.363 -2.485,5.827 -4.969,7.484c-2.533,1.61 -5.675,2.416 -8.816,2.511c-8.91,0 -12.146,-4.358 -10.739,-12.599c1.5,-8.62 8.065,-12.599 15.147,-12.599c6.002,-0.094 11.207,2.274 10.408,9.047l-8.908,0Z" style="fill:#00a650;fill-rule:nonzero;"/><path d="M132.729,23.588l0.61,-3.599l9.517,-3.411l-1.218,7.01l5.157,0l-1.031,5.684l-5.157,0l-1.642,9.424c-0.094,0.616 -0.985,3.695 1.078,3.695c1.173,0 2.392,0 3.424,-0.142l-0.938,5.352c-2.063,0.379 -3.564,0.474 -4.878,0.474c-6.048,0 -9.518,-0.852 -7.784,-8.146l1.83,-10.657l-4.596,0l1.032,-5.684l4.596,0Z" style="fill:#00a650;fill-rule:nonzero;"/><path d="M160.957,44.758c-2.438,2.369 -4.971,3.316 -7.972,3.316c-5.064,0 -8.206,-3.316 -7.315,-8.573l2.813,-15.914l8.91,0l-2.486,13.973c-0.281,2.32 -0.14,4.83 2.627,4.83c4.408,0 4.688,-4.878 4.737,-5.162l2.389,-13.641l8.91,0l-3.095,17.666c-0.374,2.131 -0.562,3.552 -0.796,6.11l-9.051,0l0.329,-2.605Z" style="fill:#00a650;fill-rule:nonzero;"/><path d="M187.264,30.929c0.14,-0.805 0.14,-1.516 -0.188,-1.989c-0.375,-0.521 -1.078,-0.853 -2.297,-0.853c-1.314,0 -2.251,0.758 -2.486,2.131c-0.328,1.753 3.329,1.659 8.581,3.411c2.674,0.899 4.267,2.652 3.612,6.535c-1.127,6.3 -7.27,7.91 -12.662,7.91c-5.767,0 -11.16,-1.184 -9.847,-8.431l8.44,0c-0.28,0.711 -0.187,1.516 0.235,2.132c0.422,0.615 1.079,1.088 1.922,1.088c1.736,0 3.096,-0.662 3.377,-2.178c0.75,-4.216 -13.645,-1.704 -12.145,-10.324c1.031,-5.874 7.502,-7.484 12.192,-7.484c5.58,0 10.503,1.468 9.706,8.052l-8.44,0Z" style="fill:#00a650;fill-rule:nonzero;"/></g></svg>