<svg viewBox="0 0 197 49" xmlns="http://www.w3.org/2000/svg" xml:space="preserve" style="fill-rule:evenodd;clip-rule:evenodd;stroke-linejoin:round;stroke-miterlimit:1.41421"><path d="M10.106 35.05c0 1.42 1.184 2.557 2.605 2.557V5.116c0-2.748 2.179-4.974 4.926-4.974a4.973 4.973 0 0 1 4.973 4.974v20.035c1.421 0 2.558-1.184 2.558-2.605v-4.974c0-2.747 2.226-4.925 4.973-4.925s4.974 2.178 4.974 4.925l-.047.048v4.926c0 6.868-5.59 12.457-12.458 12.457v12.503h-9.899c-6.915 0-12.505-5.59-12.505-12.503V17.572c0-2.747 2.227-4.925 4.974-4.925 2.747 0 4.973 2.178 4.973 4.925h-.047V35.05ZM66.796 23.919c.329-3.079-1.688-4.832-5.533-4.832-5.393 0-7.503 6.395-8.393 11.51-.845 4.973-.798 10.846 4.501 10.846 3.939 0 6.517-1.752 7.268-5.021h9.847c-1.359 8.621-10.082 11.653-18.288 11.653-10.55 0-15.099-6.395-13.082-17.856 1.969-11.463 8.768-17.668 19.319-17.763 8.206 0 15.849 2.842 14.208 11.463h-9.847ZM86.162 42.864c3.845 0 4.783-3.646 5.345-6.819-1.875 0-3.657-.096-4.97.521-1.406.662-2.579 1.515-2.907 3.172-.281 1.705.844 3.126 2.532 3.126m3.705 4.5c-.048-.756.093-1.515.375-3.22h-.094c-1.36 1.705-3.798 3.931-8.206 3.931-5.58 0-7.925-3.032-6.987-7.91 1.079-5.778 6.752-8.146 14.443-8.146h2.813c.375-2.084 1.36-5.116-2.204-4.973-2.204.095-3.282 2.226-3.47 3.647h-8.394c.563-3.363 2.627-5.305 5.206-6.394 2.625-1.137 5.72-1.422 8.347-1.422 4.782 0 10.225 2.037 9.193 7.389l-2.157 12.22c-.189.995-.142 2.037-.33 4.878h-8.535ZM117.958 31.924c.234-1.185.187-2.132-.188-2.795-.422-.663-1.218-1.042-2.579-1.042-3.236 0-4.314 4.926-4.736 7.389-.422 2.463-1.079 7.388 2.158 7.388 3.14-.237 3.939-2.652 4.314-4.784h8.908c-.609 3.363-2.485 5.827-4.969 7.484-2.533 1.61-5.675 2.416-8.816 2.511-8.91 0-12.146-4.358-10.739-12.599 1.5-8.62 8.065-12.599 15.147-12.599 6.002-.094 11.207 2.274 10.408 9.047h-8.908Z" style="fill:#00a650;fill-rule:nonzero"/><path d="m132.729 23.588.61-3.599 9.517-3.411-1.218 7.01h5.157l-1.031 5.684h-5.157l-1.642 9.424c-.094.616-.985 3.695 1.078 3.695 1.173 0 2.392 0 3.424-.142l-.938 5.352c-2.063.379-3.564.474-4.878.474-6.048 0-9.518-.852-7.784-8.146l1.83-10.657h-4.596l1.032-5.684h4.596ZM160.957 44.758c-2.438 2.369-4.971 3.316-7.972 3.316-5.064 0-8.206-3.316-7.315-8.573l2.813-15.914h8.91l-2.486 13.973c-.281 2.32-.14 4.83 2.627 4.83 4.408 0 4.688-4.878 4.737-5.162l2.389-13.641h8.91l-3.095 17.666c-.374 2.131-.562 3.552-.796 6.11h-9.051l.329-2.605ZM187.264 30.929c.14-.805.14-1.516-.188-1.989-.375-.521-1.078-.853-2.297-.853-1.314 0-2.251.758-2.486 2.131-.328 1.753 3.329 1.659 8.581 3.411 2.674.899 4.267 2.652 3.612 6.535-1.127 6.3-7.27 7.91-12.662 7.91-5.767 0-11.16-1.184-9.847-8.431h8.44a2.298 2.298 0 0 0 .235 2.132c.422.615 1.079 1.088 1.922 1.088 1.736 0 3.096-.662 3.377-2.178.75-4.216-13.645-1.704-12.145-10.324 1.031-5.874 7.502-7.484 12.192-7.484 5.58 0 10.503 1.468 9.706 8.052h-8.44Z" style="fill:#00a650;fill-rule:nonzero"/></svg>