<svg viewBox="0 0 595 277" xmlns="http://www.w3.org/2000/svg" xml:space="preserve" style="fill-rule:evenodd;clip-rule:evenodd;stroke-linejoin:round;stroke-miterlimit:2"><path style="fill:#211e1e" d="M0 0h595.273v277.797H0z"/><path d="M183.156 113.66h-38.16v9.539h38.16v-9.539Zm-19.082-19.078h-19.078v9.539h19.078v-9.539Zm-28.617 38.16V85.039h38.16v19.082h19.078v28.621h-57.238ZM249.938 94.582h-38.161v9.539h38.161v-9.539Zm-47.7 38.16V85.039h57.239v28.621h-47.7v9.539h28.618v9.543h-38.157ZM269.016 132.742V85.039h57.242v9.543h-47.699v38.16h-9.543ZM335.797 132.742V85.039h57.242v47.703h-9.543v-38.16h-38.16v38.16h-9.539ZM450.277 113.66h-38.164v9.539h38.164v-9.539Zm-47.699 19.082v-28.621h47.699v-9.539h-28.621v-9.543h38.16v47.703h-57.238ZM135.176 145.309h7.406v.343h-2.656l5.328 13.922 5.25-13.922h-2.609v-.343h5.171v.343h-2.156l-6.453 17.11h-.594l-6.531-17.11h-2.156v-.343ZM153.332 162.168h1.875v-11.484h-1.875v-.235h5.422v.235h-1.875v11.484h1.875v.234h-5.422v-.234ZM159.664 162.168h1.859v-11.484h-1.859v-.235h3.594l5.672 9.141h.031v-8.906h-1.859v-.235h3.984v.235h-1.875v11.953h-.328l-7.078-11.266h-.032v10.797h1.86v.234h-3.969v-.234ZM172.699 158.793h.172c.125.605.285 1.117.484 1.531.196.406.411.746.641 1.016.238.273.484.48.734.625.258.148.52.258.782.328.269.062.523.102.765.109.239.008.469.016.688.016.594 0 1.078-.086 1.453-.266.383-.175.687-.398.906-.672.227-.281.383-.578.469-.89.094-.32.141-.617.141-.891 0-.394-.075-.726-.219-1a2.517 2.517 0 0 0-.563-.719 2.976 2.976 0 0 0-.734-.484 4.475 4.475 0 0 0-.734-.281l-1.938-.594c-.906-.281-1.594-.648-2.062-1.109-.461-.457-.688-1.071-.688-1.844 0-.5.086-.961.266-1.391a3.21 3.21 0 0 1 .75-1.125 3.685 3.685 0 0 1 1.172-.734 3.867 3.867 0 0 1 1.484-.281c.395 0 .723.039.984.109.27.063.5.137.688.219.187.086.351.164.5.234.156.063.312.094.469.094.144 0 .242-.016.296-.047.051-.039.118-.141.204-.297h.234v3.031h-.188a5.274 5.274 0 0 0-.359-1.171 3.348 3.348 0 0 0-.625-.985 3.195 3.195 0 0 0-.937-.687c-.356-.176-.778-.266-1.266-.266-.262 0-.559.039-.891.109a2.73 2.73 0 0 0-.906.391c-.281.18-.516.414-.703.703-.18.293-.266.664-.266 1.11 0 .355.071.656.219.906.145.25.332.465.563.64.226.18.484.325.765.438.289.117.582.219.875.312l2.031.641c.208.063.473.152.797.266.332.117.649.289.953.515.313.219.579.516.797.891.219.367.328.828.328 1.391 0 .531-.101 1.039-.296 1.515-.2.469-.485.887-.86 1.25a4.042 4.042 0 0 1-1.344.875c-.523.219-1.109.328-1.765.328-.242 0-.449-.007-.625-.015-.18 0-.344-.012-.5-.032-.156-.023-.32-.046-.485-.078a7.705 7.705 0 0 1-.515-.125 10.36 10.36 0 0 1-.719-.234 2.04 2.04 0 0 0-.672-.141c-.168 0-.281.039-.344.11a.694.694 0 0 0-.156.265h-.25v-3.609ZM189.809 162.168h1.875v-11.484h-1.875v-.235h9.609v2.906h-.188a9.815 9.815 0 0 0-.468-1.156 3.117 3.117 0 0 0-.61-.844 2.11 2.11 0 0 0-.828-.5c-.324-.113-.715-.171-1.172-.171h-2.797v5.187h1.094c.364 0 .676-.031.938-.094.258-.07.476-.203.656-.39.187-.188.344-.438.469-.75.133-.321.265-.735.39-1.235h.188v5.219h-.188l-.25-.937a2.754 2.754 0 0 0-.359-.797 1.575 1.575 0 0 0-.594-.563c-.25-.144-.578-.219-.984-.219h-1.36v6.063h3.172c.614 0 1.125-.129 1.532-.391.414-.269.75-.582 1-.937.257-.363.453-.742.578-1.141a5.68 5.68 0 0 0 .234-.969h.188v3.672h-10.25v-.234ZM204.184 162.168h1.859v-11.484h-.969c-.23 0-.484.023-.765.062a1.993 1.993 0 0 0-.86.328c-.281.18-.554.461-.812.844-.262.387-.485.918-.672 1.594h-.188v-3.063h10.203v3.063h-.171c-.2-.676-.43-1.207-.688-1.594-.262-.383-.539-.664-.828-.844a1.903 1.903 0 0 0-.844-.328 5.575 5.575 0 0 0-.75-.062h-.984v11.484h1.875v.234h-5.406v-.234ZM235.41 162.402h-.359a2.698 2.698 0 0 0-.391-.343c-.148-.102-.371-.157-.672-.157-.242 0-.5.047-.781.141-.281.086-.605.184-.969.297-.355.101-.758.195-1.203.281a7.263 7.263 0 0 1-1.484.141 8.262 8.262 0 0 1-2.953-.547c-.95-.375-1.844-.973-2.688-1.797a10.673 10.673 0 0 1-1.969-2.797c-.531-1.07-.796-2.312-.796-3.719 0-1.195.21-2.336.64-3.422a9.29 9.29 0 0 1 1.813-2.89 8.593 8.593 0 0 1 2.703-1.969c1.039-.488 2.179-.734 3.422-.734.488 0 .925.047 1.312.14a7.29 7.29 0 0 1 1.031.328c.301.118.579.227.829.329.257.093.515.14.765.14.313 0 .535-.051.672-.156.133-.102.258-.223.375-.359h.359v4.812h-.265a14.343 14.343 0 0 0-.563-1.797 5.103 5.103 0 0 0-.922-1.578 4.368 4.368 0 0 0-1.531-1.109c-.617-.282-1.375-.422-2.281-.422-.856 0-1.586.137-2.188.406a4.576 4.576 0 0 0-1.531 1.047c-.418.437-.75.953-1 1.547a9.082 9.082 0 0 0-.562 1.844 15.038 15.038 0 0 0-.25 1.968 28.724 28.724 0 0 0-.063 1.875c0 1.688.133 3.086.406 4.188.27 1.105.649 1.976 1.141 2.609.488.637 1.078 1.086 1.766 1.344.687.262 1.445.391 2.281.391 1.07 0 1.937-.149 2.594-.454.656-.312 1.179-.71 1.578-1.203a5.38 5.38 0 0 0 .906-1.656 34.93 34.93 0 0 0 .563-1.828h.265v5.109ZM240.676 155.871h1.547c.312 0 .597-.035.859-.109.258-.082.477-.223.656-.422.188-.195.328-.461.422-.797.102-.332.156-.758.156-1.281 0-.582-.078-1.047-.234-1.391-.148-.351-.34-.617-.578-.797a1.848 1.848 0 0 0-.813-.359 4.16 4.16 0 0 0-.875-.094c-.199 0-.402.008-.609.016a6.317 6.317 0 0 0-.531.047v5.187Zm-3.547 6.297h1.875v-11.484h-1.875v-.235h3.594c.132-.008.269-.023.406-.047h.406c.133-.007.27-.015.406-.015.657 0 1.235.039 1.735.109.508.074.984.289 1.422.641.382.304.66.648.828 1.031.164.375.25.73.25 1.062 0 .168-.031.387-.094.657a2.147 2.147 0 0 1-.406.797c-.211.273-.512.523-.906.75-.387.23-.907.386-1.563.468v.032c.188.023.43.062.734.125a4.2 4.2 0 0 1 .938.312c.32.149.617.34.891.578.269.242.457.555.562.938.07.218.117.476.141.765.031.282.05.575.062.875.02.305.039.594.063.875.019.282.05.516.093.703.063.293.164.559.313.797.144.231.379.344.703.344.145 0 .297-.023.453-.078a.963.963 0 0 0 .422-.266l.156.188c-.054.043-.117.09-.187.14a1.038 1.038 0 0 1-.281.141 3.068 3.068 0 0 1-1.016.156c-.449 0-.824-.058-1.125-.172a1.636 1.636 0 0 1-.703-.5 2.048 2.048 0 0 1-.391-.796 6.181 6.181 0 0 1-.172-1.125l-.125-1.532c-.043-.562-.152-1-.328-1.312-.18-.313-.39-.539-.64-.688a1.783 1.783 0 0 0-.75-.25 5.434 5.434 0 0 0-.657-.047h-1.687v6.063h1.859v.234h-5.406v-.234ZM255.945 147.262c.227-.258.391-.438.485-.532a.507.507 0 0 1 .375-.14c.156 0 .285.062.39.187.114.118.172.25.172.407a.406.406 0 0 1-.109.296c-.074.063-.137.118-.188.157l-2.875 2.047h-.234l1.984-2.422Zm-6.687 14.906h1.875v-11.484h-1.875v-.235h9.609v2.906h-.187a9.983 9.983 0 0 0-.469-1.156 3.135 3.135 0 0 0-.609-.844 2.121 2.121 0 0 0-.829-.5c-.324-.113-.714-.171-1.171-.171h-2.797v5.187h1.093c.364 0 .676-.031.938-.094.258-.07.477-.203.656-.39.188-.188.344-.438.469-.75.133-.321.266-.735.391-1.235h.187v5.219h-.187l-.25-.937a2.756 2.756 0 0 0-.36-.797 1.575 1.575 0 0 0-.594-.563c-.25-.144-.578-.219-.984-.219h-1.359v6.063h3.172c.613 0 1.125-.129 1.531-.391.414-.269.75-.582 1-.937.258-.363.453-.742.578-1.141a5.68 5.68 0 0 0 .234-.969h.188v3.672h-10.25v-.234ZM261.023 162.168h1.86v-11.484h-1.86v-.235h3.782l3.109 9.031h.031l3.11-9.031h3.703v.235h-1.86v11.484h1.86v.234h-5.406v-.234h1.859v-11.391h-.031l-4.016 11.641-3.984-11.516h-.047v11.266h1.875v.234h-3.985v-.234ZM280.637 152.371l-1.844 4.891h3.703l-1.859-4.891Zm-5.453 9.797h1.484l4.531-12.031h.406l4.563 12.031h1.5v.234h-5.172v-.234h1.859l-1.765-4.672h-3.891l-1.765 4.672h1.859v.234h-3.609v-.234ZM288.008 162.168h1.859v-11.484h-1.859v-.235h3.594l5.671 9.141h.032v-8.906h-1.86v-.235h3.985v.235h-1.875v11.953h-.328l-7.079-11.266h-.031v10.797h1.86v.234h-3.969v-.234ZM302.824 162.168h1.86v-11.484h-.969c-.231 0-.485.023-.766.062-.281.031-.57.141-.859.328-.281.18-.555.461-.813.844-.261.387-.484.918-.672 1.594h-.187v-3.063h10.203v3.063h-.172c-.199-.676-.429-1.207-.687-1.594-.262-.383-.539-.664-.828-.844a1.907 1.907 0 0 0-.844-.328 5.575 5.575 0 0 0-.75-.062h-.985v11.484h1.875v.234h-5.406v-.234ZM312.535 158.793h.172c.125.605.285 1.117.484 1.531.196.406.411.746.641 1.016.238.273.484.48.734.625.258.148.52.258.782.328.269.062.523.102.765.109.239.008.469.016.688.016.594 0 1.078-.086 1.453-.266.383-.175.687-.398.906-.672.227-.281.383-.578.469-.89.094-.32.141-.617.141-.891 0-.394-.075-.726-.219-1a2.517 2.517 0 0 0-.563-.719 2.995 2.995 0 0 0-.734-.484 4.475 4.475 0 0 0-.734-.281l-1.938-.594c-.906-.281-1.594-.648-2.062-1.109-.461-.457-.688-1.071-.688-1.844 0-.5.086-.961.266-1.391.175-.437.425-.812.75-1.125a3.685 3.685 0 0 1 1.172-.734 3.867 3.867 0 0 1 1.484-.281c.394 0 .723.039.984.109.27.063.5.137.688.219.187.086.351.164.5.234.156.063.312.094.469.094.144 0 .242-.016.296-.047.051-.039.118-.141.204-.297h.234v3.031h-.188a5.274 5.274 0 0 0-.359-1.171 3.348 3.348 0 0 0-.625-.985 3.195 3.195 0 0 0-.937-.687c-.356-.176-.778-.266-1.266-.266-.262 0-.559.039-.891.109a2.73 2.73 0 0 0-.906.391c-.281.18-.516.414-.703.703-.18.293-.266.664-.266 1.11 0 .355.071.656.219.906.145.25.332.465.563.64.226.18.484.325.765.438.289.117.582.219.875.312l2.031.641c.207.063.473.152.797.266.332.117.649.289.953.515.313.219.579.516.797.891.219.367.328.828.328 1.391 0 .531-.101 1.039-.296 1.515-.2.469-.485.887-.86 1.25a4.042 4.042 0 0 1-1.344.875c-.523.219-1.109.328-1.765.328-.242 0-.449-.007-.625-.015-.18 0-.344-.012-.5-.032-.156-.023-.321-.046-.485-.078a7.705 7.705 0 0 1-.515-.125 10.36 10.36 0 0 1-.719-.234 2.04 2.04 0 0 0-.672-.141c-.168 0-.281.039-.344.11a.694.694 0 0 0-.156.265h-.25v-3.609ZM329.863 162.059h2.672v-16.407h-2.672v-.343h7.735v.343h-2.672v16.407h4.281c1.406 0 2.504-.438 3.297-1.313.801-.875 1.391-2.07 1.766-3.594h.265v5.25h-14.672v-.343ZM345.945 150.449h5.407v.235h-1.875v8.109c0 .668.054 1.234.171 1.703.125.469.301.844.532 1.125.238.281.531.484.875.609.351.125.754.188 1.203.188.625 0 1.176-.086 1.656-.266.477-.187.895-.519 1.25-1 .102-.144.195-.285.281-.422.094-.144.164-.316.219-.515.063-.195.109-.43.141-.703.039-.282.062-.617.062-1.016v-7.812h-1.859v-.235h3.969v.235h-1.86v8.14c0 .469-.054.899-.156 1.281-.094.387-.297.79-.609 1.204-.305.406-.727.734-1.266.984-.543.238-1.258.359-2.141.359-1.343 0-2.371-.328-3.078-.984-.711-.664-1.062-1.68-1.062-3.047v-7.937h-1.86v-.235ZM358.805 162.168h1.609l3.359-5.609-3.578-5.875h-1.39v-.235h5v.235h-1.61l2.688 4.406 2.687-4.406h-1.609v-.235h3.5v.235h-1.625l-2.797 4.64 4.188 6.844h1.39v.234h-5.047v-.234h1.625l-3.281-5.375-3.203 5.375h1.609v.234h-3.515v-.234ZM371.59 162.168h1.875v-11.484h-1.875v-.235h9.609v2.906h-.187a9.983 9.983 0 0 0-.469-1.156 3.135 3.135 0 0 0-.609-.844 2.121 2.121 0 0 0-.829-.5c-.324-.113-.714-.171-1.171-.171h-2.797v5.187h1.093c.364 0 .676-.031.938-.094.258-.07.477-.203.656-.39.188-.188.344-.438.469-.75.133-.321.266-.735.391-1.235h.187v5.219h-.187l-.25-.937a2.756 2.756 0 0 0-.36-.797 1.575 1.575 0 0 0-.594-.563c-.25-.144-.578-.219-.984-.219h-1.359v6.063h3.172c.613 0 1.125-.129 1.531-.391.414-.269.75-.582 1-.937.258-.363.453-.742.578-1.141a5.68 5.68 0 0 0 .234-.969h.188v3.672h-10.25v-.234ZM383.352 162.168h1.859v-11.484h-1.859v-.235h3.781l3.109 9.031h.031l3.11-9.031h3.703v.235h-1.859v11.484h1.859v.234h-5.406v-.234h1.859v-11.391h-.031l-4.016 11.641-3.984-11.516h-.047v11.266h1.875v.234h-3.984v-.234ZM401.578 155.871h1.547c.313 0 .598-.035.859-.109.258-.082.477-.223.657-.422.187-.195.328-.461.422-.797.101-.332.156-.758.156-1.281 0-.582-.078-1.047-.235-1.391-.148-.351-.339-.617-.578-.797a1.844 1.844 0 0 0-.812-.359 4.16 4.16 0 0 0-.875-.094c-.199 0-.403.008-.61.016a6.356 6.356 0 0 0-.531.047v5.187Zm0 6.297c.133.012.281.027.438.047.164.012.398.015.703.015.531 0 .984-.046 1.359-.14.375-.102.68-.281.922-.531.238-.25.41-.582.516-1 .113-.414.172-.938.172-1.563 0-.894-.196-1.598-.579-2.109-.375-.52-.937-.782-1.687-.782h-1.844v6.063Zm-3.547 0h1.875v-11.484h-1.875v-.235h3.453c.176-.008.352-.023.532-.047h.515c.164-.007.332-.015.5-.015.813 0 1.477.101 2 .297.532.199.946.445 1.25.734.301.281.508.59.625.922.114.324.172.621.172.89 0 .375-.086.719-.25 1.032-.168.312-.387.59-.656.828-.274.23-.59.418-.953.562a3.889 3.889 0 0 1-1.125.282v.031c.406.043.816.133 1.234.265.426.137.805.336 1.141.594.344.25.617.563.828.938.219.367.328.789.328 1.265 0 .5-.094.965-.281 1.391a2.854 2.854 0 0 1-.86 1.078c-.386.305-.871.543-1.453.719-.574.168-1.25.25-2.031.25-.156 0-.312-.008-.469-.016-.148 0-.304-.008-.468-.015-.168-.012-.34-.024-.516-.032h-3.516v-.234ZM411.816 156.402c0 1.012.067 1.891.204 2.641.132.75.359 1.383.671 1.891.313.5.711.875 1.204 1.125.488.242 1.097.359 1.828.359.718 0 1.328-.117 1.828-.359.5-.25.906-.625 1.219-1.125.312-.508.535-1.141.671-1.891.133-.75.204-1.629.204-2.641a15.9 15.9 0 0 0-.157-2.234 6.147 6.147 0 0 0-.593-1.938 3.419 3.419 0 0 0-1.188-1.343c-.5-.344-1.164-.516-1.984-.516-.813 0-1.477.172-1.985.516a3.487 3.487 0 0 0-1.203 1.343 6.274 6.274 0 0 0-.578 1.938 17.24 17.24 0 0 0-.141 2.234Zm-1.937 0c0-.894.176-1.722.531-2.484a6.81 6.81 0 0 1 1.36-1.969 6.317 6.317 0 0 1 1.875-1.328c.695-.32 1.39-.484 2.078-.484.738 0 1.457.164 2.156.484a6.143 6.143 0 0 1 1.875 1.328 6.245 6.245 0 0 1 1.312 1.969c.332.762.5 1.59.5 2.484 0 .782-.152 1.555-.453 2.313a6.619 6.619 0 0 1-1.25 2 6.464 6.464 0 0 1-1.843 1.406 5.11 5.11 0 0 1-2.297.531c-.836 0-1.61-.172-2.328-.515a6.21 6.21 0 0 1-3.079-3.375 6.497 6.497 0 0 1-.437-2.36ZM423.074 150.449h5.406v.235h-1.875v8.109c0 .668.055 1.234.172 1.703.125.469.301.844.532 1.125.238.281.531.484.875.609.351.125.754.188 1.203.188.625 0 1.176-.086 1.656-.266.477-.187.895-.519 1.25-1 .102-.144.195-.285.281-.422.094-.144.164-.316.219-.515.062-.195.109-.43.141-.703.039-.282.062-.617.062-1.016v-7.812h-1.859v-.235h3.968v.235h-1.859v8.14c0 .469-.055.899-.156 1.281-.094.387-.297.79-.61 1.204-.304.406-.726.734-1.265.984-.543.238-1.258.359-2.141.359-1.344 0-2.371-.328-3.078-.984-.711-.664-1.062-1.68-1.062-3.047v-7.937h-1.86v-.235ZM439.512 155.871h1.547c.312 0 .597-.035.859-.109.258-.082.477-.223.656-.422.188-.195.328-.461.422-.797.102-.332.156-.758.156-1.281 0-.582-.078-1.047-.234-1.391-.148-.351-.34-.617-.578-.797a1.848 1.848 0 0 0-.813-.359 4.16 4.16 0 0 0-.875-.094c-.199 0-.402.008-.609.016a6.317 6.317 0 0 0-.531.047v5.187Zm-3.547 6.297h1.875v-11.484h-1.875v-.235h3.594c.132-.008.269-.023.406-.047h.406c.133-.007.27-.015.406-.015.657 0 1.235.039 1.735.109.508.074.984.289 1.422.641.382.304.66.648.828 1.031.164.375.25.73.25 1.062 0 .168-.032.387-.094.657a2.162 2.162 0 0 1-.406.797c-.211.273-.512.523-.907.75-.386.23-.906.386-1.562.468v.032a9.2 9.2 0 0 1 .734.125 4.2 4.2 0 0 1 .938.312c.32.149.617.34.89.578.27.242.458.555.563.938.07.218.117.476.141.765.031.282.05.575.062.875.02.305.039.594.063.875.019.282.05.516.093.703.063.293.164.559.313.797.144.231.379.344.703.344.145 0 .297-.023.453-.078a.963.963 0 0 0 .422-.266l.156.188c-.054.043-.117.09-.187.14a1.03 1.03 0 0 1-.282.141 3.214 3.214 0 0 1-.421.109 3.068 3.068 0 0 1-.594.047c-.449 0-.824-.058-1.125-.172a1.636 1.636 0 0 1-.703-.5 2.048 2.048 0 0 1-.391-.796 6.095 6.095 0 0 1-.172-1.125l-.125-1.532c-.043-.562-.152-1-.328-1.312-.18-.313-.391-.539-.641-.688a1.774 1.774 0 0 0-.75-.25 5.419 5.419 0 0 0-.656-.047h-1.687v6.063h1.859v.234h-5.406v-.234ZM460.594 158.121h-1.344v3.813h-.203a1.408 1.408 0 0 0-.313-.25c-.074-.051-.195-.079-.359-.079a1.27 1.27 0 0 0-.609.172c-.211.106-.453.227-.735.36a5.007 5.007 0 0 1-2.297.515c-.793 0-1.5-.132-2.125-.39-.617-.258-1.211-.676-1.781-1.25a7.53 7.53 0 0 1-1.39-1.985c-.368-.757-.547-1.617-.547-2.578 0-.633.07-1.207.218-1.719.145-.507.317-.953.516-1.328a5.25 5.25 0 0 1 .641-.953 9.94 9.94 0 0 1 .547-.609 6.308 6.308 0 0 1 1.734-1.235c.644-.312 1.383-.468 2.219-.468.425 0 .773.039 1.047.109.281.063.519.137.718.219l.532.234c.164.063.351.094.562.094.219 0 .375-.031.469-.094.101-.062.195-.144.281-.25h.25v3.36h-.187a6.301 6.301 0 0 0-.266-1.032 3.722 3.722 0 0 0-.594-1.125 3.477 3.477 0 0 0-1.094-.906c-.449-.25-1.027-.375-1.734-.375-.844 0-1.523.18-2.031.531a3.575 3.575 0 0 0-1.188 1.407 6.462 6.462 0 0 0-.578 1.953 17.13 17.13 0 0 0-.14 2.187c0 .512.019 1.024.062 1.531.051.5.129.977.234 1.422.102.45.25.868.438 1.25.195.375.445.696.75.953.332.313.676.528 1.031.641.363.117.832.172 1.406.172.344 0 .688-.055 1.032-.172.351-.113.664-.289.937-.531a2.56 2.56 0 0 0 .672-.906c.176-.364.266-.789.266-1.282v-1.406h-2.172v-.234h5.125v.234ZM164.246 211.043v3.172h.219c.008-.125.035-.254.078-.391.039-.144.102-.281.187-.406a.94.94 0 0 1 .813-.422h4.969c-.074.406-.211.902-.407 1.484a14.46 14.46 0 0 1-.75 1.829 14.295 14.295 0 0 1-1.125 1.953 9.831 9.831 0 0 1-1.546 1.781l-1.391 1.297a2.186 2.186 0 0 0-.234.312.708.708 0 0 0-.079.36c0 .25.11.418.329.5.226.082.468.125.718.125.301 0 .578-.094.828-.282.25-.187.5-.472.75-.859.25-.394.516-.906.797-1.531.282-.633.594-1.391.938-2.266.269-.664.508-1.328.719-1.984a24.94 24.94 0 0 0 .515-1.86c.145-.593.25-1.128.313-1.609a8.93 8.93 0 0 0 .109-1.203h-6.75ZM173.16 225.105l.11.204c.218-.137.46-.297.734-.485.269-.187.519-.406.75-.656a3.41 3.41 0 0 0 .562-.859c.145-.313.219-.672.219-1.079 0-.613-.148-1.082-.437-1.406-.282-.332-.625-.5-1.032-.5-.136 0-.277.024-.421.063a1.057 1.057 0 0 0-.391.203 1.07 1.07 0 0 0-.297.344 1.173 1.173 0 0 0-.109.531c0 .199.035.371.109.515a1.1 1.1 0 0 0 .281.344c.102.086.223.145.36.188.132.039.254.062.359.062.113 0 .227-.011.344-.031a1.13 1.13 0 0 0 .328-.109.672.672 0 0 1 .156.218c.051.114.078.254.078.422 0 .383-.156.727-.468 1.031a9.94 9.94 0 0 1-1.235 1ZM183.914 218.074v-3.453c.082-.008.164-.019.25-.031a2.54 2.54 0 0 1 .25-.016c.281 0 .508.043.688.125a.917.917 0 0 1 .437.344c.102.148.176.34.219.578.051.231.078.512.078.844 0 .199-.016.398-.047.594a1.208 1.208 0 0 1-.187.515 1.002 1.002 0 0 1-.438.375c-.187.086-.453.125-.797.125h-.453Zm-1.625-3.453v7.656h-1.031v.157h3.687v-.157h-1.031v-4.047h.734c.352 0 .625.071.813.204.195.136.344.32.437.546.102.219.165.477.188.766.031.281.051.578.062.891.008.199.024.414.047.64.032.231.102.446.219.641a1.4 1.4 0 0 0 .516.484c.226.125.55.188.968.188.196 0 .364-.016.5-.047a1.16 1.16 0 0 0 .344-.109.722.722 0 0 0 .235-.157c.07-.062.144-.129.218-.203l-.109-.094a3.152 3.152 0 0 1-.266.235.51.51 0 0 1-.359.125c-.137 0-.242-.024-.313-.078-.062-.051-.117-.157-.156-.313a4.48 4.48 0 0 1-.109-.656c-.024-.281-.047-.66-.078-1.141-.032-.394-.11-.711-.235-.953a1.485 1.485 0 0 0-.5-.562 2.303 2.303 0 0 0-.75-.297 13.18 13.18 0 0 0-.968-.203v-.063a3.89 3.89 0 0 0 .765-.14c.258-.071.492-.172.703-.297a1.64 1.64 0 0 0 .532-.516c.132-.219.203-.476.203-.781 0-.375-.09-.68-.266-.922a2.007 2.007 0 0 0-.672-.594 2.965 2.965 0 0 0-.89-.312 4.856 4.856 0 0 0-.922-.094c-.313 0-.625.008-.938.016-.304.011-.609.015-.922.015h-1.687v.172h1.031ZM189.313 214.449v.172h1.046v5.219c0 .344.036.683.11 1.015.07.325.222.618.453.875.238.25.578.461 1.016.625.445.157 1.031.235 1.75.235.445 0 .82-.055 1.125-.156.312-.094.566-.219.765-.375.207-.164.363-.348.469-.547.101-.207.18-.41.234-.61a2.42 2.42 0 0 0 .078-.578c.008-.187.016-.336.016-.453v-5.25h1.047v-.172h-2.234v.172h1.015v5.266c0 .105-.008.246-.015.422-.012.168-.04.343-.079.531a2.48 2.48 0 0 1-.218.578 1.75 1.75 0 0 1-.407.516 2.116 2.116 0 0 1-.687.359c-.274.094-.606.141-1 .141-.418 0-.746-.079-.984-.235a1.576 1.576 0 0 1-.547-.64 2.593 2.593 0 0 1-.235-.891 11.094 11.094 0 0 1-.047-1.031v-5.016h1.032v-.172h-3.703ZM198.09 214.449v.172h1.015v7.656h-1.015v.157h7.156v-2.454h-.156a3.869 3.869 0 0 1-.328.907 2.515 2.515 0 0 1-.532.734c-.21.211-.453.371-.734.484a2.294 2.294 0 0 1-.922.172h-1.844v-4.047h.75c.27 0 .489.047.657.141.176.086.32.203.437.359.125.157.223.336.297.532.07.199.133.406.188.625h.14v-3.485h-.14a4.23 4.23 0 0 1-.204.703c-.085.2-.187.372-.312.516a1.252 1.252 0 0 1-.484.344 1.888 1.888 0 0 1-.688.109h-.641v-3.453h1.782c.375 0 .687.07.937.203.25.137.453.297.61.485.164.187.289.382.375.578.093.199.16.359.203.484h.14v-1.922h-6.687ZM213.215 222.277v-7.656c.07-.019.164-.031.281-.031.125-.008.258-.016.406-.016.657 0 1.18.094 1.578.281.395.188.704.461.922.813.227.344.379.762.453 1.25a11.519 11.519 0 0 1 .079 2.437 5.363 5.363 0 0 1-.141.829c-.074.281-.18.554-.313.812-.136.25-.324.477-.562.672a2.688 2.688 0 0 1-.875.469c-.344.117-.758.172-1.234.172-.18 0-.375-.008-.594-.032Zm-1.625-7.656v7.656h-1.031v.157h2.296c.426.007.852.015 1.282.015.289 0 .601-.019.937-.062a4.839 4.839 0 0 0 1.031-.235 4.302 4.302 0 0 0 1-.468c.321-.196.61-.442.86-.735.25-.301.445-.656.594-1.062.156-.414.234-.895.234-1.438 0-.551-.078-1.031-.234-1.437a3.457 3.457 0 0 0-.61-1.078 3.152 3.152 0 0 0-.875-.735 4.975 4.975 0 0 0-1.031-.469 6.118 6.118 0 0 0-1.109-.234 7.937 7.937 0 0 0-1.063-.078c-.375 0-.758.008-1.141.016-.386.011-.765.015-1.14.015h-1.031v.172h1.031ZM219.75 214.449v.172h1.016v7.656h-1.016v.157h7.156v-2.454h-.156a3.869 3.869 0 0 1-.328.907 2.53 2.53 0 0 1-.531.734 2.158 2.158 0 0 1-.735.484 2.294 2.294 0 0 1-.922.172h-1.843v-4.047h.75c.269 0 .488.047.656.141.176.086.32.203.437.359.125.157.223.336.297.532.071.199.133.406.188.625h.14v-3.485h-.14a4.33 4.33 0 0 1-.203.703c-.086.2-.188.372-.313.516a1.252 1.252 0 0 1-.484.344 1.888 1.888 0 0 1-.688.109h-.64v-3.453h1.781c.375 0 .687.07.937.203.25.137.454.297.61.485.164.187.289.382.375.578.094.199.16.359.203.484h.141v-1.922h-6.688ZM232.379 214.449v.172h1.031v7.656h-1.031v.157h7.109v-2.532h-.156c-.094.438-.23.809-.406 1.11-.18.304-.375.547-.594.734a2.066 2.066 0 0 1-.703.406c-.25.086-.5.125-.75.125h-1.844v-7.656h1.031v-.172h-3.687ZM243.34 216.059l1.328 3.062h-2.578l1.25-3.062Zm-3.672 6.218v.157h2.125v-.157h-1l1.234-3h2.688l1.312 3h-1.047v.157h3.766v-.157h-.969l-3.531-8.14h-.297l-3.344 8.14h-.937ZM257.258 216.215v-4.953c.113-.008.226-.02.344-.032.113-.007.234-.015.359-.015.394 0 .723.058.984.172.27.105.477.265.625.484.145.219.25.496.313.828.07.336.109.735.109 1.203 0 .293-.023.578-.062.86a1.99 1.99 0 0 1-.266.734 1.432 1.432 0 0 1-.625.531c-.273.125-.648.188-1.125.188h-.656Zm-2.328-4.953v10.953h-1.469v.219h5.266v-.219h-1.469v-5.781h1.047c.5 0 .883.101 1.156.296.281.188.488.446.625.766.144.313.234.68.266 1.094.039.406.07.828.093 1.265.008.293.035.602.078.922.04.325.141.625.297.907.157.273.399.5.735.687.332.188.789.281 1.375.281.289 0 .531-.023.718-.062.196-.031.36-.078.485-.141.133-.062.254-.14.359-.234.102-.094.207-.192.313-.297l-.157-.141c-.117.106-.242.219-.375.344a.752.752 0 0 1-.531.188c-.187 0-.336-.036-.437-.11-.106-.082-.188-.234-.25-.453a6.297 6.297 0 0 1-.125-.937c-.032-.407-.075-.946-.125-1.625-.043-.571-.153-1.032-.328-1.375a2.005 2.005 0 0 0-.719-.797 3.157 3.157 0 0 0-1.063-.438 29.84 29.84 0 0 0-1.39-.281v-.078a6.034 6.034 0 0 0 1.093-.203c.375-.102.711-.25 1.016-.438.301-.195.547-.445.734-.75.196-.301.297-.664.297-1.094 0-.531-.125-.972-.375-1.328a2.832 2.832 0 0 0-.953-.843 4.357 4.357 0 0 0-1.281-.438 7.512 7.512 0 0 0-1.313-.125c-.449 0-.89.012-1.328.031-.437.012-.882.016-1.328.016h-2.406v.219h1.469ZM269.09 211.918l-.985 1.984h.141l1.578-1.687a.389.389 0 0 0 .078-.156.544.544 0 0 0 .032-.141.27.27 0 0 0-.141-.25.453.453 0 0 0-.234-.094c-.149 0-.258.043-.329.125a.941.941 0 0 0-.14.219Zm-4.219 2.531v.172h1.016v7.656h-1.016v.157h7.156v-2.454h-.156a3.824 3.824 0 0 1-.328.907 2.53 2.53 0 0 1-.531.734 2.158 2.158 0 0 1-.735.484 2.294 2.294 0 0 1-.922.172h-1.843v-4.047h.75c.269 0 .488.047.656.141.176.086.32.203.437.359.125.157.223.336.297.532.071.199.133.406.188.625h.14v-3.485h-.14a4.33 4.33 0 0 1-.203.703c-.086.2-.188.372-.313.516a1.252 1.252 0 0 1-.484.344 1.888 1.888 0 0 1-.688.109h-.64v-3.453h1.781c.375 0 .687.07.937.203.25.137.454.297.61.485.164.187.289.382.375.578.094.199.16.359.203.484h.141v-1.922h-6.688ZM273.238 219.949v2.485h.188c.031-.102.066-.172.109-.204a.464.464 0 0 1 .235-.046c.07 0 .179.023.328.062.156.043.332.09.531.141.195.043.41.082.641.125a3.487 3.487 0 0 0 1.953-.141 3.13 3.13 0 0 0 .968-.578c.282-.25.493-.535.641-.859.145-.332.219-.68.219-1.047 0-.375-.071-.688-.203-.938a2.078 2.078 0 0 0-.547-.656 3.064 3.064 0 0 0-.766-.438 7.54 7.54 0 0 0-.89-.328 50.452 50.452 0 0 1-.891-.281 5.472 5.472 0 0 1-.766-.312 1.823 1.823 0 0 1-.531-.438c-.137-.176-.203-.394-.203-.656 0-.176.035-.344.109-.5.082-.164.203-.317.36-.453.164-.133.359-.242.578-.328.226-.082.492-.125.797-.125.363 0 .664.062.906.187.238.125.437.293.594.5.156.211.281.445.375.703.101.25.203.508.297.766h.14v-2.141h-.172a1.113 1.113 0 0 1-.109.203c-.031.032-.102.047-.203.047a.89.89 0 0 1-.313-.062 2.475 2.475 0 0 0-.375-.141 3.846 3.846 0 0 0-.484-.141 2.929 2.929 0 0 0-1.734.125 2.62 2.62 0 0 0-.844.516c-.242.211-.43.453-.563.734a1.904 1.904 0 0 0-.203.86c0 .398.063.73.188 1 .132.273.312.5.531.687.219.18.461.325.734.438.282.117.567.219.86.312l.843.25c.282.086.524.188.735.313.219.117.39.262.515.437.133.18.204.407.204.688 0 .148-.032.32-.094.515-.055.2-.153.387-.297.563-.149.18-.352.328-.609.453-.25.125-.575.188-.969.188h-.375a1.858 1.858 0 0 1-.406-.079 2.233 2.233 0 0 1-.469-.187 2.46 2.46 0 0 1-.485-.391 3.278 3.278 0 0 1-.406-.484 4.083 4.083 0 0 1-.265-.516 5.941 5.941 0 0 1-.157-.484 1.933 1.933 0 0 1-.078-.344h-.172ZM280.23 214.449v.172h1.032v7.656h-1.032v.157h3.688v-.157h-1.031v-7.656h1.031v-.172h-3.688ZM285.055 219.949v2.485h.187c.031-.102.067-.172.11-.204a.457.457 0 0 1 .234-.046c.07 0 .18.023.328.062.156.043.332.09.531.141.196.043.41.082.641.125a3.487 3.487 0 0 0 1.953-.141c.375-.144.695-.336.969-.578.281-.25.492-.535.64-.859.145-.332.219-.68.219-1.047 0-.375-.07-.688-.203-.938a2.065 2.065 0 0 0-.547-.656 3.057 3.057 0 0 0-.765-.438 7.622 7.622 0 0 0-.891-.328 50.452 50.452 0 0 1-.891-.281 5.409 5.409 0 0 1-.765-.312 1.815 1.815 0 0 1-.532-.438 1.039 1.039 0 0 1-.203-.656c0-.176.035-.344.11-.5a1.49 1.49 0 0 1 .359-.453c.164-.133.359-.242.578-.328a2.34 2.34 0 0 1 .797-.125c.363 0 .664.062.906.187.239.125.438.293.594.5.156.211.281.445.375.703.102.25.203.508.297.766h.141v-2.141h-.172a1.046 1.046 0 0 1-.11.203c-.031.032-.101.047-.203.047a.88.88 0 0 1-.312-.062 2.559 2.559 0 0 0-.375-.141 3.865 3.865 0 0 0-.485-.141 2.93 2.93 0 0 0-1.734.125 2.63 2.63 0 0 0-.844.516 2.23 2.23 0 0 0-.562.734 1.891 1.891 0 0 0-.203.86c0 .398.062.73.187 1 .133.273.313.5.531.687.219.18.461.325.735.438.281.117.566.219.859.312l.844.25c.281.086.523.188.734.313.219.117.391.262.516.437.133.18.203.407.203.688 0 .148-.031.32-.094.515a1.49 1.49 0 0 1-.297.563c-.148.18-.351.328-.609.453-.25.125-.574.188-.969.188h-.375a1.858 1.858 0 0 1-.406-.079 2.254 2.254 0 0 1-.469-.187 2.456 2.456 0 0 1-.484-.391 3.278 3.278 0 0 1-.406-.484 3.967 3.967 0 0 1-.266-.516 5.909 5.909 0 0 1-.156-.484 1.848 1.848 0 0 1-.078-.344h-.172ZM294.75 214.621v7.656h-1.031v.157h3.687v-.157h-1.031v-7.656h.406c.27 0 .516.027.735.078.218.055.41.153.578.297.176.137.328.328.453.578.133.242.258.555.375.938h.156v-2.063h-7.031v2.063h.141c.113-.383.238-.696.375-.938.132-.25.285-.441.453-.578a1.49 1.49 0 0 1 .578-.297c.219-.051.469-.078.75-.078h.406ZM302.895 216.059l1.328 3.062h-2.578l1.25-3.062Zm-3.672 6.218v.157h2.125v-.157h-1l1.234-3h2.688l1.312 3h-1.047v.157h3.766v-.157h-.969l-3.531-8.14h-.297l-3.344 8.14h-.937ZM308.383 214.449v.172h1.031v7.656h-1.031v.157h2.25v-.157h-1.031v-7.031h.015l5.047 7.188h.297v-7.813h1.031v-.172h-2.234v.172h1.031v5.172h-.031l-3.719-5.344h-2.656ZM323.664 216.746v-2.297h-.172c-.031.117-.074.188-.125.219a.634.634 0 0 1-.234.031c-.094 0-.215-.019-.36-.062a4.203 4.203 0 0 0-.468-.141 8.32 8.32 0 0 0-.578-.141c-.2-.05-.418-.078-.657-.078-.48 0-.968.102-1.468.297-.5.199-.954.481-1.36.844a4.523 4.523 0 0 0-.984 1.328 3.869 3.869 0 0 0-.375 1.719c0 .586.113 1.125.344 1.625.226.5.535.937.921 1.312.383.368.829.657 1.329.875a4.18 4.18 0 0 0 1.593.313c.239 0 .461-.024.672-.063.219-.043.414-.086.594-.125.187-.05.352-.097.5-.14.144-.039.258-.063.344-.063.101 0 .179.016.234.047a.416.416 0 0 1 .141.188h.172v-2.375h-.172a4.301 4.301 0 0 1-.328.89 2.994 2.994 0 0 1-.516.75 2.555 2.555 0 0 1-.719.531 2.02 2.02 0 0 1-.922.204c-.418 0-.777-.055-1.078-.172a1.558 1.558 0 0 1-.734-.625c-.188-.301-.328-.707-.422-1.219-.094-.508-.141-1.148-.141-1.922 0-.594.02-1.133.063-1.625.051-.5.156-.926.312-1.281.164-.363.407-.645.719-.844.313-.207.738-.312 1.281-.312.407 0 .743.074 1.016.218.269.149.5.336.687.563.188.23.336.48.454.75.113.273.211.531.296.781h.141ZM324.813 214.449v.172h1.015v7.656h-1.015v.157h7.156v-2.454h-.156a3.87 3.87 0 0 1-.329.907 2.494 2.494 0 0 1-.531.734 2.164 2.164 0 0 1-.734.484 2.297 2.297 0 0 1-.922.172h-1.844v-4.047h.75c.27 0 .488.047.656.141.176.086.321.203.438.359.125.157.223.336.297.532.07.199.133.406.187.625h.141v-3.485h-.141a4.232 4.232 0 0 1-.203.703c-.086.2-.187.372-.312.516a1.248 1.248 0 0 1-.485.344 1.883 1.883 0 0 1-.687.109h-.641v-3.453h1.781c.375 0 .688.07.938.203.25.137.453.297.609.485.164.187.289.382.375.578.094.199.16.359.203.484h.141v-1.922h-6.687Z" style="fill:#fff;fill-rule:nonzero"/><path style="fill:#fff" d="M338.535 210.434h.328v15.984h-.328z"/><path d="M345.66 211.043v.219h1.469v10.953h-1.469v.219h10.141v-3.61h-.203c-.137.617-.328 1.141-.578 1.578-.25.43-.54.778-.86 1.047a3.062 3.062 0 0 1-1 .594 3.38 3.38 0 0 1-1.062.172h-2.641v-10.953h1.469v-.219h-5.266Z" style="fill:#fff;fill-rule:nonzero"/><path style="fill:#fff" d="M357.93 218.215h3.016v1.563h-3.016z"/><path d="m364.711 210.902-1.063 6.61h.204c.07-.164.164-.36.281-.578.113-.219.254-.422.422-.61.175-.195.383-.363.625-.5a1.9 1.9 0 0 1 .906-.203c.258 0 .504.039.734.109.227.063.43.211.61.438.175.219.312.543.406.969.102.418.156.98.156 1.687 0 .899-.07 1.59-.203 2.078-.125.493-.289.852-.484 1.078-.2.219-.418.352-.657.391a3.9 3.9 0 0 1-.687.063c-.086 0-.184-.008-.297-.032a1.014 1.014 0 0 1-.312-.156.942.942 0 0 1-.25-.297 1.171 1.171 0 0 1-.079-.656c.008-.07.016-.145.016-.219.008-.082.02-.16.031-.234.008-.07.016-.125.016-.156a.737.737 0 0 0-.188-.485c-.125-.144-.386-.219-.781-.219-.062 0-.148.008-.25.016a.893.893 0 0 0-.328.109.886.886 0 0 0-.297.266c-.074.117-.109.289-.109.516 0 .23.07.453.219.672.144.211.347.398.609.562.258.156.566.281.922.375.363.094.75.141 1.156.141.664 0 1.25-.121 1.75-.36.508-.25.941-.566 1.297-.953.352-.383.617-.812.797-1.281.187-.469.281-.922.281-1.359 0-.5-.101-.954-.297-1.36a3.206 3.206 0 0 0-.812-1.062 3.618 3.618 0 0 0-1.172-.672 3.976 3.976 0 0 0-1.406-.25c-.356 0-.657.031-.907.094a2.754 2.754 0 0 0-.64.25c-.18.093-.328.211-.453.343-.125.137-.25.282-.375.438l-.047-.031.578-3.5c.164.062.347.136.547.218.207.075.422.153.64.235.219.074.438.136.657.187.218.043.414.063.593.063.313 0 .582-.039.813-.125.226-.082.453-.223.672-.422a4.99 4.99 0 0 0 .718-.797c.25-.332.551-.75.907-1.25l-.219-.094a2.711 2.711 0 0 1-.594.641 2.685 2.685 0 0 1-.594.328 1.651 1.651 0 0 1-.515.125 4.773 4.773 0 0 1-.344.016c-.324 0-.637-.039-.937-.125a4.996 4.996 0 0 1-.797-.329 6.108 6.108 0 0 1-.625-.39 3.704 3.704 0 0 1-.36-.313h-.484ZM376.324 215.574v4.094h-4.234a15.01 15.01 0 0 1 .828-1.578c.32-.551.664-1.086 1.031-1.61a29.78 29.78 0 0 1 1.141-1.515c.383-.488.754-.938 1.109-1.344.352-.414.68-.773.985-1.078.3-.313.546-.547.734-.703.094-.082.172-.16.234-.235a.499.499 0 0 0 .094-.312.362.362 0 0 0-.094-.266.482.482 0 0 0-.218-.14.93.93 0 0 0-.297-.078c-.106-.008-.203-.016-.297-.016-.156 0-.309.012-.453.031a1.302 1.302 0 0 0-.453.188c-.157.105-.329.277-.516.515a8.967 8.967 0 0 0-.672.985c-.336.554-.68 1.187-1.031 1.906a93.696 93.696 0 0 0-1.031 2.125c-.325.699-.61 1.352-.86 1.953-.25.594-.429 1.059-.531 1.391h4.531v2.328h-1.422v.219h4.797v-.219h-1.437v-2.328h1.437v-.219h-1.437v-4.094h-1.938ZM382.891 216.715c0-1.008.007-1.875.031-2.594.031-.719.101-1.305.219-1.766.125-.457.3-.796.531-1.015.226-.219.551-.328.969-.328.414 0 .738.101.968.297.227.199.399.527.516.984.113.449.18 1.039.203 1.766.031.718.047 1.605.047 2.656 0 1.012-.016 1.883-.047 2.609-.023.719-.09 1.309-.203 1.766-.117.461-.289.797-.516 1.015-.23.219-.554.329-.968.329-.418 0-.743-.11-.969-.329-.231-.218-.406-.554-.531-1.015-.118-.457-.188-1.047-.219-1.766a82.278 82.278 0 0 1-.031-2.609Zm-2.157 0c0 .211.004.5.016.875.008.375.051.781.125 1.219.07.437.188.886.344 1.343.156.45.375.86.656 1.235.289.367.66.668 1.109.906.446.227 1 .344 1.657.344.582 0 1.082-.11 1.5-.328a3.195 3.195 0 0 0 1.062-.86c.289-.351.524-.75.703-1.187.176-.438.305-.875.391-1.313.094-.445.156-.863.187-1.25.039-.394.063-.722.063-.984 0-.195-.012-.477-.031-.844a9.755 9.755 0 0 0-.125-1.219 8.792 8.792 0 0 0-.344-1.359 4.147 4.147 0 0 0-.672-1.234 3.427 3.427 0 0 0-1.094-.907c-.449-.238-.996-.359-1.64-.359-.594 0-1.106.117-1.532.344a3.404 3.404 0 0 0-1.062.859 4.45 4.45 0 0 0-.688 1.188 7.675 7.675 0 0 0-.406 1.328c-.086.437-.14.855-.172 1.25-.031.386-.047.703-.047.953ZM396.289 222.434v-.219h-1.469v-11.422h-.64c-.325.293-.621.543-.891.75a12.22 12.22 0 0 1-.781.578c-.262.168-.543.34-.844.516-.305.168-.648.359-1.031.578l.14.203c.332-.188.676-.379 1.032-.578.351-.207.707-.406 1.062-.594v9.969h-1.515v.219h4.937ZM407.273 213.324l1.891 4.375h-3.672l1.781-4.375Zm-5.25 8.891v.219h3.032v-.219h-1.422l1.765-4.297h3.844l1.86 4.297h-1.485v.219h5.375v-.219h-1.375l-5.047-11.625h-.422l-4.781 11.625h-1.344Z" style="fill:#fff;fill-rule:nonzero"/><path d="M414.961 214.449v.172h1.031v7.656h-1.031v.157h3.687v-.157h-1.031v-3.828h3.235v3.828h-1.032v.157h3.688v-.157h-1.031v-7.656h1.031v-.172h-3.688v.172h1.032v3.672h-3.235v-3.672h1.031v-.172h-3.687ZM424.277 214.449v.172h1.032v7.656h-1.032v.157h2.25v-.157h-1.031v-7.031h.016l5.047 7.188h.296v-7.813h1.032v-.172h-2.235v.172h1.032v5.172h-.032l-3.718-5.344h-2.657Z" style="fill:#fff;fill-rule:nonzero"/></svg>