<?xml version="1.0" encoding="UTF-8" standalone="no"?><!DOCTYPE svg PUBLIC "-//W3C//DTD SVG 1.1//EN" "http://www.w3.org/Graphics/SVG/1.1/DTD/svg11.dtd"><svg width="100%" height="100%" viewBox="0 0 595 277" version="1.1" xmlns="http://www.w3.org/2000/svg" xmlns:xlink="http://www.w3.org/1999/xlink" xml:space="preserve" xmlns:serif="http://www.serif.com/" style="fill-rule:evenodd;clip-rule:evenodd;stroke-linejoin:round;stroke-miterlimit:2;"><rect x="0" y="0" width="595.273" height="277.797" style="fill:#211e1e;"/><path d="M183.156,113.66l-38.16,0l0,9.539l38.16,0l0,-9.539Zm-19.082,-19.078l-19.078,0l0,9.539l19.078,0l0,-9.539Zm-28.617,38.16l0,-47.703l38.16,0l0,19.082l19.078,0l0,28.621l-57.238,0Z" style="fill:#fff;fill-rule:nonzero;"/><path d="M249.938,94.582l-38.161,0l0,9.539l38.161,0l0,-9.539Zm-47.7,38.16l0,-47.703l57.239,0l0,28.621l-47.7,0l0,9.539l28.618,0l0,9.543l-38.157,0Z" style="fill:#fff;fill-rule:nonzero;"/><path d="M269.016,132.742l0,-47.703l57.242,0l0,9.543l-47.699,0l0,38.16l-9.543,0Z" style="fill:#fff;fill-rule:nonzero;"/><path d="M335.797,132.742l0,-47.703l57.242,0l0,47.703l-9.543,0l0,-38.16l-38.16,0l0,38.16l-9.539,0Z" style="fill:#fff;fill-rule:nonzero;"/><path d="M450.277,113.66l-38.164,0l0,9.539l38.164,0l0,-9.539Zm-47.699,19.082l0,-28.621l47.699,0l0,-9.539l-28.621,0l0,-9.543l38.16,0l0,47.703l-57.238,0Z" style="fill:#fff;fill-rule:nonzero;"/><path d="M135.176,145.309l7.406,0l0,0.343l-2.656,0l5.328,13.922l5.25,-13.922l-2.609,0l0,-0.343l5.171,0l0,0.343l-2.156,0l-6.453,17.11l-0.594,0l-6.531,-17.11l-2.156,0l0,-0.343Z" style="fill:#fff;fill-rule:nonzero;"/><path d="M153.332,162.168l1.875,0l0,-11.484l-1.875,0l0,-0.235l5.422,0l0,0.235l-1.875,0l0,11.484l1.875,0l0,0.234l-5.422,0l0,-0.234Z" style="fill:#fff;fill-rule:nonzero;"/><path d="M159.664,162.168l1.859,0l0,-11.484l-1.859,0l0,-0.235l3.594,0l5.672,9.141l0.031,0l0,-8.906l-1.859,0l0,-0.235l3.984,0l0,0.235l-1.875,0l0,11.953l-0.328,0l-7.078,-11.266l-0.032,0l0,10.797l1.86,0l0,0.234l-3.969,0l0,-0.234Z" style="fill:#fff;fill-rule:nonzero;"/><path d="M172.699,158.793l0.172,0c0.125,0.605 0.285,1.117 0.484,1.531c0.196,0.406 0.411,0.746 0.641,1.016c0.238,0.273 0.484,0.48 0.734,0.625c0.258,0.148 0.52,0.258 0.782,0.328c0.269,0.062 0.523,0.102 0.765,0.109c0.239,0.008 0.469,0.016 0.688,0.016c0.594,0 1.078,-0.086 1.453,-0.266c0.383,-0.175 0.687,-0.398 0.906,-0.672c0.227,-0.281 0.383,-0.578 0.469,-0.89c0.094,-0.32 0.141,-0.617 0.141,-0.891c0,-0.394 -0.075,-0.726 -0.219,-1c-0.149,-0.281 -0.336,-0.519 -0.563,-0.719c-0.218,-0.195 -0.464,-0.359 -0.734,-0.484c-0.262,-0.125 -0.508,-0.219 -0.734,-0.281l-1.938,-0.594c-0.906,-0.281 -1.594,-0.648 -2.062,-1.109c-0.461,-0.457 -0.688,-1.071 -0.688,-1.844c0,-0.5 0.086,-0.961 0.266,-1.391c0.176,-0.437 0.426,-0.812 0.75,-1.125c0.332,-0.312 0.722,-0.554 1.172,-0.734c0.457,-0.188 0.953,-0.281 1.484,-0.281c0.395,0 0.723,0.039 0.984,0.109c0.27,0.063 0.5,0.137 0.688,0.219c0.187,0.086 0.351,0.164 0.5,0.234c0.156,0.063 0.312,0.094 0.469,0.094c0.144,0 0.242,-0.016 0.296,-0.047c0.051,-0.039 0.118,-0.141 0.204,-0.297l0.234,0l0,3.031l-0.188,0c-0.074,-0.406 -0.195,-0.796 -0.359,-1.171c-0.156,-0.375 -0.367,-0.704 -0.625,-0.985c-0.262,-0.281 -0.574,-0.508 -0.937,-0.687c-0.356,-0.176 -0.778,-0.266 -1.266,-0.266c-0.262,0 -0.559,0.039 -0.891,0.109c-0.324,0.075 -0.625,0.204 -0.906,0.391c-0.281,0.18 -0.516,0.414 -0.703,0.703c-0.18,0.293 -0.266,0.664 -0.266,1.11c0,0.355 0.071,0.656 0.219,0.906c0.145,0.25 0.332,0.465 0.563,0.64c0.226,0.18 0.484,0.325 0.765,0.438c0.289,0.117 0.582,0.219 0.875,0.312l2.031,0.641c0.208,0.063 0.473,0.152 0.797,0.266c0.332,0.117 0.649,0.289 0.953,0.515c0.313,0.219 0.579,0.516 0.797,0.891c0.219,0.367 0.328,0.828 0.328,1.391c0,0.531 -0.101,1.039 -0.296,1.515c-0.2,0.469 -0.485,0.887 -0.86,1.25c-0.367,0.367 -0.812,0.656 -1.344,0.875c-0.523,0.219 -1.109,0.328 -1.765,0.328c-0.242,0 -0.449,-0.007 -0.625,-0.015c-0.18,0 -0.344,-0.012 -0.5,-0.032c-0.156,-0.023 -0.32,-0.046 -0.485,-0.078c-0.156,-0.031 -0.328,-0.074 -0.515,-0.125c-0.219,-0.062 -0.461,-0.14 -0.719,-0.234c-0.262,-0.094 -0.484,-0.141 -0.672,-0.141c-0.168,0 -0.281,0.039 -0.344,0.11c-0.062,0.062 -0.117,0.152 -0.156,0.265l-0.25,0l0,-3.609Z" style="fill:#fff;fill-rule:nonzero;"/><path d="M189.809,162.168l1.875,0l0,-11.484l-1.875,0l0,-0.235l9.609,0l0,2.906l-0.188,0c-0.148,-0.437 -0.304,-0.82 -0.468,-1.156c-0.168,-0.332 -0.371,-0.613 -0.61,-0.844c-0.23,-0.226 -0.507,-0.394 -0.828,-0.5c-0.324,-0.113 -0.715,-0.171 -1.172,-0.171l-2.797,0l0,5.187l1.094,0c0.364,0 0.676,-0.031 0.938,-0.094c0.258,-0.07 0.476,-0.203 0.656,-0.39c0.187,-0.188 0.344,-0.438 0.469,-0.75c0.133,-0.321 0.265,-0.735 0.39,-1.235l0.188,0l0,5.219l-0.188,0c-0.086,-0.32 -0.168,-0.633 -0.25,-0.937c-0.086,-0.301 -0.203,-0.567 -0.359,-0.797c-0.148,-0.239 -0.344,-0.426 -0.594,-0.563c-0.25,-0.144 -0.578,-0.219 -0.984,-0.219l-1.36,0l0,6.063l3.172,0c0.614,0 1.125,-0.129 1.532,-0.391c0.414,-0.269 0.75,-0.582 1,-0.937c0.257,-0.363 0.453,-0.742 0.578,-1.141c0.125,-0.394 0.203,-0.719 0.234,-0.969l0.188,0l0,3.672l-10.25,0l0,-0.234Z" style="fill:#fff;fill-rule:nonzero;"/><path d="M204.184,162.168l1.859,0l0,-11.484l-0.969,0c-0.23,0 -0.484,0.023 -0.765,0.062c-0.282,0.031 -0.571,0.141 -0.86,0.328c-0.281,0.18 -0.554,0.461 -0.812,0.844c-0.262,0.387 -0.485,0.918 -0.672,1.594l-0.188,0l0,-3.063l10.203,0l0,3.063l-0.171,0c-0.2,-0.676 -0.43,-1.207 -0.688,-1.594c-0.262,-0.383 -0.539,-0.664 -0.828,-0.844c-0.281,-0.187 -0.563,-0.297 -0.844,-0.328c-0.281,-0.039 -0.531,-0.062 -0.75,-0.062l-0.984,0l0,11.484l1.875,0l0,0.234l-5.406,0l0,-0.234Z" style="fill:#fff;fill-rule:nonzero;"/><path d="M235.41,162.402l-0.359,0c-0.117,-0.125 -0.246,-0.238 -0.391,-0.343c-0.148,-0.102 -0.371,-0.157 -0.672,-0.157c-0.242,0 -0.5,0.047 -0.781,0.141c-0.281,0.086 -0.605,0.184 -0.969,0.297c-0.355,0.101 -0.758,0.195 -1.203,0.281c-0.449,0.094 -0.945,0.141 -1.484,0.141c-1.012,0 -1.996,-0.184 -2.953,-0.547c-0.95,-0.375 -1.844,-0.973 -2.688,-1.797c-0.781,-0.789 -1.437,-1.723 -1.969,-2.797c-0.531,-1.07 -0.796,-2.312 -0.796,-3.719c0,-1.195 0.21,-2.336 0.64,-3.422c0.438,-1.093 1.039,-2.054 1.813,-2.89c0.769,-0.832 1.672,-1.488 2.703,-1.969c1.039,-0.488 2.179,-0.734 3.422,-0.734c0.488,0 0.925,0.047 1.312,0.14c0.383,0.094 0.727,0.203 1.031,0.328c0.301,0.118 0.579,0.227 0.829,0.329c0.257,0.093 0.515,0.14 0.765,0.14c0.313,0 0.535,-0.051 0.672,-0.156c0.133,-0.102 0.258,-0.223 0.375,-0.359l0.359,0l0,4.812l-0.265,0c-0.149,-0.613 -0.336,-1.211 -0.563,-1.797c-0.218,-0.594 -0.527,-1.117 -0.922,-1.578c-0.398,-0.457 -0.906,-0.828 -1.531,-1.109c-0.617,-0.282 -1.375,-0.422 -2.281,-0.422c-0.856,0 -1.586,0.137 -2.188,0.406c-0.605,0.262 -1.117,0.609 -1.531,1.047c-0.418,0.437 -0.75,0.953 -1,1.547c-0.25,0.586 -0.437,1.199 -0.562,1.844c-0.125,0.648 -0.211,1.304 -0.25,1.968c-0.043,0.657 -0.063,1.282 -0.063,1.875c0,1.688 0.133,3.086 0.406,4.188c0.27,1.105 0.649,1.976 1.141,2.609c0.488,0.637 1.078,1.086 1.766,1.344c0.687,0.262 1.445,0.391 2.281,0.391c1.07,0 1.937,-0.149 2.594,-0.454c0.656,-0.312 1.179,-0.71 1.578,-1.203c0.394,-0.488 0.695,-1.039 0.906,-1.656c0.207,-0.613 0.395,-1.223 0.563,-1.828l0.265,0l0,5.109Z" style="fill:#fff;fill-rule:nonzero;"/><path d="M240.676,155.871l1.547,0c0.312,0 0.597,-0.035 0.859,-0.109c0.258,-0.082 0.477,-0.223 0.656,-0.422c0.188,-0.195 0.328,-0.461 0.422,-0.797c0.102,-0.332 0.156,-0.758 0.156,-1.281c0,-0.582 -0.078,-1.047 -0.234,-1.391c-0.148,-0.351 -0.34,-0.617 -0.578,-0.797c-0.242,-0.187 -0.512,-0.304 -0.813,-0.359c-0.293,-0.063 -0.586,-0.094 -0.875,-0.094c-0.199,0 -0.402,0.008 -0.609,0.016c-0.211,0.011 -0.387,0.027 -0.531,0.047l0,5.187Zm-3.547,6.297l1.875,0l0,-11.484l-1.875,0l0,-0.235l3.594,0c0.132,-0.008 0.269,-0.023 0.406,-0.047l0.406,0c0.133,-0.007 0.27,-0.015 0.406,-0.015c0.657,0 1.235,0.039 1.735,0.109c0.508,0.074 0.984,0.289 1.422,0.641c0.382,0.304 0.66,0.648 0.828,1.031c0.164,0.375 0.25,0.73 0.25,1.062c0,0.168 -0.031,0.387 -0.094,0.657c-0.062,0.261 -0.199,0.527 -0.406,0.797c-0.211,0.273 -0.512,0.523 -0.906,0.75c-0.387,0.23 -0.907,0.386 -1.563,0.468l0,0.032c0.188,0.023 0.43,0.062 0.734,0.125c0.313,0.062 0.625,0.168 0.938,0.312c0.32,0.149 0.617,0.34 0.891,0.578c0.269,0.242 0.457,0.555 0.562,0.938c0.07,0.218 0.117,0.476 0.141,0.765c0.031,0.282 0.05,0.575 0.062,0.875c0.02,0.305 0.039,0.594 0.063,0.875c0.019,0.282 0.05,0.516 0.093,0.703c0.063,0.293 0.164,0.559 0.313,0.797c0.144,0.231 0.379,0.344 0.703,0.344c0.145,0 0.297,-0.023 0.453,-0.078c0.164,-0.051 0.305,-0.141 0.422,-0.266l0.156,0.188c-0.054,0.043 -0.117,0.09 -0.187,0.14c-0.074,0.055 -0.168,0.102 -0.281,0.141c-0.118,0.039 -0.258,0.078 -0.422,0.109c-0.157,0.032 -0.356,0.047 -0.594,0.047c-0.449,0 -0.824,-0.058 -1.125,-0.172c-0.293,-0.113 -0.527,-0.281 -0.703,-0.5c-0.18,-0.218 -0.309,-0.484 -0.391,-0.796c-0.086,-0.321 -0.14,-0.696 -0.172,-1.125l-0.125,-1.532c-0.043,-0.562 -0.152,-1 -0.328,-1.312c-0.18,-0.313 -0.39,-0.539 -0.64,-0.688c-0.243,-0.144 -0.493,-0.226 -0.75,-0.25c-0.25,-0.031 -0.469,-0.047 -0.657,-0.047l-1.687,0l0,6.063l1.859,0l0,0.234l-5.406,0l0,-0.234Z" style="fill:#fff;fill-rule:nonzero;"/><path d="M255.945,147.262c0.227,-0.258 0.391,-0.438 0.485,-0.532c0.093,-0.093 0.218,-0.14 0.375,-0.14c0.156,0 0.285,0.062 0.39,0.187c0.114,0.118 0.172,0.25 0.172,0.407c0,0.125 -0.039,0.226 -0.109,0.296c-0.074,0.063 -0.137,0.118 -0.188,0.157l-2.875,2.047l-0.234,0l1.984,-2.422Zm-6.687,14.906l1.875,0l0,-11.484l-1.875,0l0,-0.235l9.609,0l0,2.906l-0.187,0c-0.149,-0.437 -0.305,-0.82 -0.469,-1.156c-0.168,-0.332 -0.371,-0.613 -0.609,-0.844c-0.231,-0.226 -0.508,-0.394 -0.829,-0.5c-0.324,-0.113 -0.714,-0.171 -1.171,-0.171l-2.797,0l0,5.187l1.093,0c0.364,0 0.676,-0.031 0.938,-0.094c0.258,-0.07 0.477,-0.203 0.656,-0.39c0.188,-0.188 0.344,-0.438 0.469,-0.75c0.133,-0.321 0.266,-0.735 0.391,-1.235l0.187,0l0,5.219l-0.187,0c-0.086,-0.32 -0.168,-0.633 -0.25,-0.937c-0.086,-0.301 -0.204,-0.567 -0.36,-0.797c-0.148,-0.239 -0.344,-0.426 -0.594,-0.563c-0.25,-0.144 -0.578,-0.219 -0.984,-0.219l-1.359,0l0,6.063l3.172,0c0.613,0 1.125,-0.129 1.531,-0.391c0.414,-0.269 0.75,-0.582 1,-0.937c0.258,-0.363 0.453,-0.742 0.578,-1.141c0.125,-0.394 0.203,-0.719 0.234,-0.969l0.188,0l0,3.672l-10.25,0l0,-0.234Z" style="fill:#fff;fill-rule:nonzero;"/><path d="M261.023,162.168l1.86,0l0,-11.484l-1.86,0l0,-0.235l3.782,0l3.109,9.031l0.031,0l3.11,-9.031l3.703,0l0,0.235l-1.86,0l0,11.484l1.86,0l0,0.234l-5.406,0l0,-0.234l1.859,0l0,-11.391l-0.031,0l-4.016,11.641l-3.984,-11.516l-0.047,0l0,11.266l1.875,0l0,0.234l-3.985,0l0,-0.234Z" style="fill:#fff;fill-rule:nonzero;"/><path d="M280.637,152.371l-1.844,4.891l3.703,0l-1.859,-4.891Zm-5.453,9.797l1.484,0l4.531,-12.031l0.406,0l4.563,12.031l1.5,0l0,0.234l-5.172,0l0,-0.234l1.859,0l-1.765,-4.672l-3.891,0l-1.765,4.672l1.859,0l0,0.234l-3.609,0l0,-0.234Z" style="fill:#fff;fill-rule:nonzero;"/><path d="M288.008,162.168l1.859,0l0,-11.484l-1.859,0l0,-0.235l3.594,0l5.671,9.141l0.032,0l0,-8.906l-1.86,0l0,-0.235l3.985,0l0,0.235l-1.875,0l0,11.953l-0.328,0l-7.079,-11.266l-0.031,0l0,10.797l1.86,0l0,0.234l-3.969,0l0,-0.234Z" style="fill:#fff;fill-rule:nonzero;"/><path d="M302.824,162.168l1.86,0l0,-11.484l-0.969,0c-0.231,0 -0.485,0.023 -0.766,0.062c-0.281,0.031 -0.57,0.141 -0.859,0.328c-0.281,0.18 -0.555,0.461 -0.813,0.844c-0.261,0.387 -0.484,0.918 -0.672,1.594l-0.187,0l0,-3.063l10.203,0l0,3.063l-0.172,0c-0.199,-0.676 -0.429,-1.207 -0.687,-1.594c-0.262,-0.383 -0.539,-0.664 -0.828,-0.844c-0.282,-0.187 -0.563,-0.297 -0.844,-0.328c-0.281,-0.039 -0.531,-0.062 -0.75,-0.062l-0.985,0l0,11.484l1.875,0l0,0.234l-5.406,0l0,-0.234Z" style="fill:#fff;fill-rule:nonzero;"/><path d="M312.535,158.793l0.172,0c0.125,0.605 0.285,1.117 0.484,1.531c0.196,0.406 0.411,0.746 0.641,1.016c0.238,0.273 0.484,0.48 0.734,0.625c0.258,0.148 0.52,0.258 0.782,0.328c0.269,0.062 0.523,0.102 0.765,0.109c0.239,0.008 0.469,0.016 0.688,0.016c0.594,0 1.078,-0.086 1.453,-0.266c0.383,-0.175 0.687,-0.398 0.906,-0.672c0.227,-0.281 0.383,-0.578 0.469,-0.89c0.094,-0.32 0.141,-0.617 0.141,-0.891c0,-0.394 -0.075,-0.726 -0.219,-1c-0.149,-0.281 -0.336,-0.519 -0.563,-0.719c-0.218,-0.195 -0.465,-0.359 -0.734,-0.484c-0.262,-0.125 -0.508,-0.219 -0.734,-0.281l-1.938,-0.594c-0.906,-0.281 -1.594,-0.648 -2.062,-1.109c-0.461,-0.457 -0.688,-1.071 -0.688,-1.844c0,-0.5 0.086,-0.961 0.266,-1.391c0.175,-0.437 0.425,-0.812 0.75,-1.125c0.332,-0.312 0.722,-0.554 1.172,-0.734c0.457,-0.188 0.953,-0.281 1.484,-0.281c0.394,0 0.723,0.039 0.984,0.109c0.27,0.063 0.5,0.137 0.688,0.219c0.187,0.086 0.351,0.164 0.5,0.234c0.156,0.063 0.312,0.094 0.469,0.094c0.144,0 0.242,-0.016 0.296,-0.047c0.051,-0.039 0.118,-0.141 0.204,-0.297l0.234,0l0,3.031l-0.188,0c-0.074,-0.406 -0.195,-0.796 -0.359,-1.171c-0.156,-0.375 -0.367,-0.704 -0.625,-0.985c-0.262,-0.281 -0.574,-0.508 -0.937,-0.687c-0.356,-0.176 -0.778,-0.266 -1.266,-0.266c-0.262,0 -0.559,0.039 -0.891,0.109c-0.324,0.075 -0.625,0.204 -0.906,0.391c-0.281,0.18 -0.516,0.414 -0.703,0.703c-0.18,0.293 -0.266,0.664 -0.266,1.11c0,0.355 0.071,0.656 0.219,0.906c0.145,0.25 0.332,0.465 0.563,0.64c0.226,0.18 0.484,0.325 0.765,0.438c0.289,0.117 0.582,0.219 0.875,0.312l2.031,0.641c0.207,0.063 0.473,0.152 0.797,0.266c0.332,0.117 0.649,0.289 0.953,0.515c0.313,0.219 0.579,0.516 0.797,0.891c0.219,0.367 0.328,0.828 0.328,1.391c0,0.531 -0.101,1.039 -0.296,1.515c-0.2,0.469 -0.485,0.887 -0.86,1.25c-0.367,0.367 -0.812,0.656 -1.344,0.875c-0.523,0.219 -1.109,0.328 -1.765,0.328c-0.242,0 -0.449,-0.007 -0.625,-0.015c-0.18,0 -0.344,-0.012 -0.5,-0.032c-0.156,-0.023 -0.321,-0.046 -0.485,-0.078c-0.156,-0.031 -0.328,-0.074 -0.515,-0.125c-0.219,-0.062 -0.461,-0.14 -0.719,-0.234c-0.262,-0.094 -0.484,-0.141 -0.672,-0.141c-0.168,0 -0.281,0.039 -0.344,0.11c-0.062,0.062 -0.117,0.152 -0.156,0.265l-0.25,0l0,-3.609Z" style="fill:#fff;fill-rule:nonzero;"/><path d="M329.863,162.059l2.672,0l0,-16.407l-2.672,0l0,-0.343l7.735,0l0,0.343l-2.672,0l0,16.407l4.281,0c1.406,0 2.504,-0.438 3.297,-1.313c0.801,-0.875 1.391,-2.07 1.766,-3.594l0.265,0l0,5.25l-14.672,0l0,-0.343Z" style="fill:#fff;fill-rule:nonzero;"/><path d="M345.945,150.449l5.407,0l0,0.235l-1.875,0l0,8.109c0,0.668 0.054,1.234 0.171,1.703c0.125,0.469 0.301,0.844 0.532,1.125c0.238,0.281 0.531,0.484 0.875,0.609c0.351,0.125 0.754,0.188 1.203,0.188c0.625,0 1.176,-0.086 1.656,-0.266c0.477,-0.187 0.895,-0.519 1.25,-1c0.102,-0.144 0.195,-0.285 0.281,-0.422c0.094,-0.144 0.164,-0.316 0.219,-0.515c0.063,-0.195 0.109,-0.43 0.141,-0.703c0.039,-0.282 0.062,-0.617 0.062,-1.016l0,-7.812l-1.859,0l0,-0.235l3.969,0l0,0.235l-1.86,0l0,8.14c0,0.469 -0.054,0.899 -0.156,1.281c-0.094,0.387 -0.297,0.79 -0.609,1.204c-0.305,0.406 -0.727,0.734 -1.266,0.984c-0.543,0.238 -1.258,0.359 -2.141,0.359c-1.343,0 -2.371,-0.328 -3.078,-0.984c-0.711,-0.664 -1.062,-1.68 -1.062,-3.047l0,-7.937l-1.86,0l0,-0.235Z" style="fill:#fff;fill-rule:nonzero;"/><path d="M358.805,162.168l1.609,0l3.359,-5.609l-3.578,-5.875l-1.39,0l0,-0.235l5,0l0,0.235l-1.61,0l2.688,4.406l2.687,-4.406l-1.609,0l0,-0.235l3.5,0l0,0.235l-1.625,0l-2.797,4.64l4.188,6.844l1.39,0l0,0.234l-5.047,0l0,-0.234l1.625,0l-3.281,-5.375l-3.203,5.375l1.609,0l0,0.234l-3.515,0l0,-0.234Z" style="fill:#fff;fill-rule:nonzero;"/><path d="M371.59,162.168l1.875,0l0,-11.484l-1.875,0l0,-0.235l9.609,0l0,2.906l-0.187,0c-0.149,-0.437 -0.305,-0.82 -0.469,-1.156c-0.168,-0.332 -0.371,-0.613 -0.609,-0.844c-0.231,-0.226 -0.508,-0.394 -0.829,-0.5c-0.324,-0.113 -0.714,-0.171 -1.171,-0.171l-2.797,0l0,5.187l1.093,0c0.364,0 0.676,-0.031 0.938,-0.094c0.258,-0.07 0.477,-0.203 0.656,-0.39c0.188,-0.188 0.344,-0.438 0.469,-0.75c0.133,-0.321 0.266,-0.735 0.391,-1.235l0.187,0l0,5.219l-0.187,0c-0.086,-0.32 -0.168,-0.633 -0.25,-0.937c-0.086,-0.301 -0.204,-0.567 -0.36,-0.797c-0.148,-0.239 -0.344,-0.426 -0.594,-0.563c-0.25,-0.144 -0.578,-0.219 -0.984,-0.219l-1.359,0l0,6.063l3.172,0c0.613,0 1.125,-0.129 1.531,-0.391c0.414,-0.269 0.75,-0.582 1,-0.937c0.258,-0.363 0.453,-0.742 0.578,-1.141c0.125,-0.394 0.203,-0.719 0.234,-0.969l0.188,0l0,3.672l-10.25,0l0,-0.234Z" style="fill:#fff;fill-rule:nonzero;"/><path d="M383.352,162.168l1.859,0l0,-11.484l-1.859,0l0,-0.235l3.781,0l3.109,9.031l0.031,0l3.11,-9.031l3.703,0l0,0.235l-1.859,0l0,11.484l1.859,0l0,0.234l-5.406,0l0,-0.234l1.859,0l0,-11.391l-0.031,0l-4.016,11.641l-3.984,-11.516l-0.047,0l0,11.266l1.875,0l0,0.234l-3.984,0l0,-0.234Z" style="fill:#fff;fill-rule:nonzero;"/><path d="M401.578,155.871l1.547,0c0.313,0 0.598,-0.035 0.859,-0.109c0.258,-0.082 0.477,-0.223 0.657,-0.422c0.187,-0.195 0.328,-0.461 0.422,-0.797c0.101,-0.332 0.156,-0.758 0.156,-1.281c0,-0.582 -0.078,-1.047 -0.235,-1.391c-0.148,-0.351 -0.339,-0.617 -0.578,-0.797c-0.242,-0.187 -0.511,-0.304 -0.812,-0.359c-0.293,-0.063 -0.586,-0.094 -0.875,-0.094c-0.199,0 -0.403,0.008 -0.61,0.016c-0.211,0.011 -0.386,0.027 -0.531,0.047l0,5.187Zm0,6.297c0.133,0.012 0.281,0.027 0.438,0.047c0.164,0.012 0.398,0.015 0.703,0.015c0.531,0 0.984,-0.046 1.359,-0.14c0.375,-0.102 0.68,-0.281 0.922,-0.531c0.238,-0.25 0.41,-0.582 0.516,-1c0.113,-0.414 0.172,-0.938 0.172,-1.563c0,-0.894 -0.196,-1.598 -0.579,-2.109c-0.375,-0.52 -0.937,-0.782 -1.687,-0.782l-1.844,0l0,6.063Zm-3.547,0l1.875,0l0,-11.484l-1.875,0l0,-0.235l3.453,0c0.176,-0.008 0.352,-0.023 0.532,-0.047l0.515,0c0.164,-0.007 0.332,-0.015 0.5,-0.015c0.813,0 1.477,0.101 2,0.297c0.532,0.199 0.946,0.445 1.25,0.734c0.301,0.281 0.508,0.59 0.625,0.922c0.114,0.324 0.172,0.621 0.172,0.89c0,0.375 -0.086,0.719 -0.25,1.032c-0.168,0.312 -0.387,0.59 -0.656,0.828c-0.274,0.23 -0.59,0.418 -0.953,0.562c-0.356,0.149 -0.731,0.243 -1.125,0.282l0,0.031c0.406,0.043 0.816,0.133 1.234,0.265c0.426,0.137 0.805,0.336 1.141,0.594c0.344,0.25 0.617,0.563 0.828,0.938c0.219,0.367 0.328,0.789 0.328,1.265c0,0.5 -0.094,0.965 -0.281,1.391c-0.188,0.418 -0.477,0.777 -0.86,1.078c-0.386,0.305 -0.871,0.543 -1.453,0.719c-0.574,0.168 -1.25,0.25 -2.031,0.25c-0.156,0 -0.312,-0.008 -0.469,-0.016c-0.148,0 -0.304,-0.008 -0.468,-0.015c-0.168,-0.012 -0.34,-0.024 -0.516,-0.032l-0.578,0l-2.938,0l0,-0.234Z" style="fill:#fff;fill-rule:nonzero;"/><path d="M411.816,156.402c0,1.012 0.067,1.891 0.204,2.641c0.132,0.75 0.359,1.383 0.671,1.891c0.313,0.5 0.711,0.875 1.204,1.125c0.488,0.242 1.097,0.359 1.828,0.359c0.718,0 1.328,-0.117 1.828,-0.359c0.5,-0.25 0.906,-0.625 1.219,-1.125c0.312,-0.508 0.535,-1.141 0.671,-1.891c0.133,-0.75 0.204,-1.629 0.204,-2.641c0,-0.769 -0.055,-1.515 -0.157,-2.234c-0.105,-0.727 -0.304,-1.375 -0.593,-1.938c-0.282,-0.562 -0.68,-1.007 -1.188,-1.343c-0.5,-0.344 -1.164,-0.516 -1.984,-0.516c-0.813,0 -1.477,0.172 -1.985,0.516c-0.511,0.336 -0.914,0.781 -1.203,1.343c-0.281,0.563 -0.476,1.211 -0.578,1.938c-0.094,0.719 -0.141,1.465 -0.141,2.234Zm-1.937,0c0,-0.894 0.176,-1.722 0.531,-2.484c0.352,-0.758 0.805,-1.414 1.36,-1.969c0.55,-0.562 1.175,-1.004 1.875,-1.328c0.695,-0.32 1.39,-0.484 2.078,-0.484c0.738,0 1.457,0.164 2.156,0.484c0.707,0.324 1.332,0.766 1.875,1.328c0.551,0.555 0.988,1.211 1.312,1.969c0.332,0.762 0.5,1.59 0.5,2.484c0,0.782 -0.152,1.555 -0.453,2.313c-0.304,0.75 -0.718,1.418 -1.25,2c-0.523,0.574 -1.136,1.043 -1.843,1.406c-0.711,0.352 -1.477,0.531 -2.297,0.531c-0.836,0 -1.61,-0.172 -2.328,-0.515c-0.719,-0.352 -1.34,-0.817 -1.86,-1.391c-0.523,-0.57 -0.93,-1.234 -1.219,-1.984c-0.293,-0.758 -0.437,-1.547 -0.437,-2.36Z" style="fill:#fff;fill-rule:nonzero;"/><path d="M423.074,150.449l5.406,0l0,0.235l-1.875,0l0,8.109c0,0.668 0.055,1.234 0.172,1.703c0.125,0.469 0.301,0.844 0.532,1.125c0.238,0.281 0.531,0.484 0.875,0.609c0.351,0.125 0.754,0.188 1.203,0.188c0.625,0 1.176,-0.086 1.656,-0.266c0.477,-0.187 0.895,-0.519 1.25,-1c0.102,-0.144 0.195,-0.285 0.281,-0.422c0.094,-0.144 0.164,-0.316 0.219,-0.515c0.062,-0.195 0.109,-0.43 0.141,-0.703c0.039,-0.282 0.062,-0.617 0.062,-1.016l0,-7.812l-1.859,0l0,-0.235l3.968,0l0,0.235l-1.859,0l0,8.14c0,0.469 -0.055,0.899 -0.156,1.281c-0.094,0.387 -0.297,0.79 -0.61,1.204c-0.304,0.406 -0.726,0.734 -1.265,0.984c-0.543,0.238 -1.258,0.359 -2.141,0.359c-1.344,0 -2.371,-0.328 -3.078,-0.984c-0.711,-0.664 -1.062,-1.68 -1.062,-3.047l0,-7.937l-1.86,0l0,-0.235Z" style="fill:#fff;fill-rule:nonzero;"/><path d="M439.512,155.871l1.547,0c0.312,0 0.597,-0.035 0.859,-0.109c0.258,-0.082 0.477,-0.223 0.656,-0.422c0.188,-0.195 0.328,-0.461 0.422,-0.797c0.102,-0.332 0.156,-0.758 0.156,-1.281c0,-0.582 -0.078,-1.047 -0.234,-1.391c-0.148,-0.351 -0.34,-0.617 -0.578,-0.797c-0.242,-0.187 -0.512,-0.304 -0.813,-0.359c-0.293,-0.063 -0.586,-0.094 -0.875,-0.094c-0.199,0 -0.402,0.008 -0.609,0.016c-0.211,0.011 -0.387,0.027 -0.531,0.047l0,5.187Zm-3.547,6.297l1.875,0l0,-11.484l-1.875,0l0,-0.235l3.594,0c0.132,-0.008 0.269,-0.023 0.406,-0.047l0.406,0c0.133,-0.007 0.27,-0.015 0.406,-0.015c0.657,0 1.235,0.039 1.735,0.109c0.508,0.074 0.984,0.289 1.422,0.641c0.382,0.304 0.66,0.648 0.828,1.031c0.164,0.375 0.25,0.73 0.25,1.062c0,0.168 -0.032,0.387 -0.094,0.657c-0.063,0.261 -0.199,0.527 -0.406,0.797c-0.211,0.273 -0.512,0.523 -0.907,0.75c-0.386,0.23 -0.906,0.386 -1.562,0.468l0,0.032c0.187,0.023 0.43,0.062 0.734,0.125c0.313,0.062 0.625,0.168 0.938,0.312c0.32,0.149 0.617,0.34 0.89,0.578c0.27,0.242 0.458,0.555 0.563,0.938c0.07,0.218 0.117,0.476 0.141,0.765c0.031,0.282 0.05,0.575 0.062,0.875c0.02,0.305 0.039,0.594 0.063,0.875c0.019,0.282 0.05,0.516 0.093,0.703c0.063,0.293 0.164,0.559 0.313,0.797c0.144,0.231 0.379,0.344 0.703,0.344c0.145,0 0.297,-0.023 0.453,-0.078c0.164,-0.051 0.305,-0.141 0.422,-0.266l0.156,0.188c-0.054,0.043 -0.117,0.09 -0.187,0.14c-0.074,0.055 -0.168,0.102 -0.282,0.141c-0.117,0.039 -0.257,0.078 -0.421,0.109c-0.157,0.032 -0.356,0.047 -0.594,0.047c-0.449,0 -0.824,-0.058 -1.125,-0.172c-0.293,-0.113 -0.527,-0.281 -0.703,-0.5c-0.18,-0.218 -0.309,-0.484 -0.391,-0.796c-0.086,-0.321 -0.141,-0.696 -0.172,-1.125l-0.125,-1.532c-0.043,-0.562 -0.152,-1 -0.328,-1.312c-0.18,-0.313 -0.391,-0.539 -0.641,-0.688c-0.242,-0.144 -0.492,-0.226 -0.75,-0.25c-0.25,-0.031 -0.468,-0.047 -0.656,-0.047l-1.687,0l0,6.063l1.859,0l0,0.234l-5.406,0l0,-0.234Z" style="fill:#fff;fill-rule:nonzero;"/><path d="M460.594,158.121l-1.344,0l0,3.813l-0.203,0c-0.125,-0.125 -0.231,-0.207 -0.313,-0.25c-0.074,-0.051 -0.195,-0.079 -0.359,-0.079c-0.199,0 -0.402,0.059 -0.609,0.172c-0.211,0.106 -0.453,0.227 -0.735,0.36c-0.273,0.136 -0.593,0.258 -0.968,0.359c-0.368,0.102 -0.809,0.156 -1.329,0.156c-0.793,0 -1.5,-0.132 -2.125,-0.39c-0.617,-0.258 -1.211,-0.676 -1.781,-1.25c-0.555,-0.563 -1.015,-1.223 -1.39,-1.985c-0.368,-0.757 -0.547,-1.617 -0.547,-2.578c0,-0.633 0.07,-1.207 0.218,-1.719c0.145,-0.507 0.317,-0.953 0.516,-1.328c0.207,-0.382 0.422,-0.703 0.641,-0.953c0.218,-0.258 0.398,-0.461 0.547,-0.609c0.507,-0.508 1.085,-0.922 1.734,-1.235c0.644,-0.312 1.383,-0.468 2.219,-0.468c0.425,0 0.773,0.039 1.047,0.109c0.281,0.063 0.519,0.137 0.718,0.219c0.196,0.086 0.375,0.164 0.532,0.234c0.164,0.063 0.351,0.094 0.562,0.094c0.219,0 0.375,-0.031 0.469,-0.094c0.101,-0.062 0.195,-0.144 0.281,-0.25l0.25,0l0,3.36l-0.187,0c-0.043,-0.289 -0.133,-0.633 -0.266,-1.032c-0.125,-0.394 -0.324,-0.769 -0.594,-1.125c-0.273,-0.351 -0.637,-0.656 -1.094,-0.906c-0.449,-0.25 -1.027,-0.375 -1.734,-0.375c-0.844,0 -1.523,0.18 -2.031,0.531c-0.512,0.356 -0.906,0.825 -1.188,1.407c-0.281,0.574 -0.476,1.226 -0.578,1.953c-0.094,0.73 -0.14,1.461 -0.14,2.187c0,0.512 0.019,1.024 0.062,1.531c0.051,0.5 0.129,0.977 0.234,1.422c0.102,0.45 0.25,0.868 0.438,1.25c0.195,0.375 0.445,0.696 0.75,0.953c0.332,0.313 0.676,0.528 1.031,0.641c0.363,0.117 0.832,0.172 1.406,0.172c0.344,0 0.688,-0.055 1.032,-0.172c0.351,-0.113 0.664,-0.289 0.937,-0.531c0.281,-0.238 0.504,-0.539 0.672,-0.906c0.176,-0.364 0.266,-0.789 0.266,-1.282l0,-1.406l-2.172,0l0,-0.234l5.125,0l0,0.234Z" style="fill:#fff;fill-rule:nonzero;"/><path d="M164.246,211.043l0,3.172l0.219,0c0.008,-0.125 0.035,-0.254 0.078,-0.391c0.039,-0.144 0.102,-0.281 0.187,-0.406c0.083,-0.125 0.188,-0.223 0.313,-0.297c0.133,-0.082 0.301,-0.125 0.5,-0.125l4.969,0c-0.074,0.406 -0.211,0.902 -0.407,1.484c-0.187,0.575 -0.437,1.184 -0.75,1.829c-0.304,0.648 -0.679,1.296 -1.125,1.953c-0.437,0.648 -0.953,1.242 -1.546,1.781l-1.391,1.297c-0.094,0.105 -0.172,0.211 -0.234,0.312c-0.055,0.094 -0.079,0.215 -0.079,0.36c0,0.25 0.11,0.418 0.329,0.5c0.226,0.082 0.468,0.125 0.718,0.125c0.301,0 0.578,-0.094 0.828,-0.282c0.25,-0.187 0.5,-0.472 0.75,-0.859c0.25,-0.394 0.516,-0.906 0.797,-1.531c0.282,-0.633 0.594,-1.391 0.938,-2.266c0.269,-0.664 0.508,-1.328 0.719,-1.984c0.207,-0.656 0.379,-1.274 0.515,-1.86c0.145,-0.593 0.25,-1.128 0.313,-1.609c0.07,-0.488 0.109,-0.891 0.109,-1.203l-6.75,0Z" style="fill:#fff;fill-rule:nonzero;"/><path d="M173.16,225.105l0.11,0.204c0.218,-0.137 0.46,-0.297 0.734,-0.485c0.269,-0.187 0.519,-0.406 0.75,-0.656c0.226,-0.25 0.414,-0.539 0.562,-0.859c0.145,-0.313 0.219,-0.672 0.219,-1.079c0,-0.613 -0.148,-1.082 -0.437,-1.406c-0.282,-0.332 -0.625,-0.5 -1.032,-0.5c-0.136,0 -0.277,0.024 -0.421,0.063c-0.149,0.043 -0.278,0.109 -0.391,0.203c-0.117,0.086 -0.215,0.199 -0.297,0.344c-0.074,0.148 -0.109,0.324 -0.109,0.531c0,0.199 0.035,0.371 0.109,0.515c0.082,0.149 0.176,0.262 0.281,0.344c0.102,0.086 0.223,0.145 0.36,0.188c0.132,0.039 0.254,0.062 0.359,0.062c0.113,0 0.227,-0.011 0.344,-0.031c0.125,-0.023 0.234,-0.059 0.328,-0.109c0.051,0.039 0.101,0.113 0.156,0.218c0.051,0.114 0.078,0.254 0.078,0.422c0,0.383 -0.156,0.727 -0.468,1.031c-0.305,0.301 -0.715,0.633 -1.235,1Z" style="fill:#fff;fill-rule:nonzero;"/><path d="M183.914,218.074l0,-3.453c0.082,-0.008 0.164,-0.019 0.25,-0.031c0.082,-0.008 0.164,-0.016 0.25,-0.016c0.281,0 0.508,0.043 0.688,0.125c0.187,0.074 0.332,0.188 0.437,0.344c0.102,0.148 0.176,0.34 0.219,0.578c0.051,0.231 0.078,0.512 0.078,0.844c0,0.199 -0.016,0.398 -0.047,0.594c-0.023,0.187 -0.086,0.359 -0.187,0.515c-0.094,0.156 -0.243,0.281 -0.438,0.375c-0.187,0.086 -0.453,0.125 -0.797,0.125l-0.453,0Zm-1.625,-3.453l0,7.656l-1.031,0l0,0.157l3.687,0l0,-0.157l-1.031,0l0,-4.047l0.734,0c0.352,0 0.625,0.071 0.813,0.204c0.195,0.136 0.344,0.32 0.437,0.546c0.102,0.219 0.165,0.477 0.188,0.766c0.031,0.281 0.051,0.578 0.062,0.891c0.008,0.199 0.024,0.414 0.047,0.64c0.032,0.231 0.102,0.446 0.219,0.641c0.113,0.187 0.285,0.352 0.516,0.484c0.226,0.125 0.55,0.188 0.968,0.188c0.196,0 0.364,-0.016 0.5,-0.047c0.133,-0.023 0.25,-0.059 0.344,-0.109c0.094,-0.039 0.172,-0.094 0.235,-0.157c0.07,-0.062 0.144,-0.129 0.218,-0.203l-0.109,-0.094c-0.074,0.075 -0.164,0.153 -0.266,0.235c-0.093,0.086 -0.215,0.125 -0.359,0.125c-0.137,0 -0.242,-0.024 -0.313,-0.078c-0.062,-0.051 -0.117,-0.157 -0.156,-0.313c-0.043,-0.156 -0.078,-0.375 -0.109,-0.656c-0.024,-0.281 -0.047,-0.66 -0.078,-1.141c-0.032,-0.394 -0.11,-0.711 -0.235,-0.953c-0.125,-0.238 -0.293,-0.426 -0.5,-0.562c-0.211,-0.133 -0.461,-0.235 -0.75,-0.297c-0.281,-0.07 -0.605,-0.141 -0.968,-0.203l0,-0.063c0.25,-0.019 0.503,-0.066 0.765,-0.14c0.258,-0.071 0.492,-0.172 0.703,-0.297c0.219,-0.133 0.395,-0.305 0.532,-0.516c0.132,-0.219 0.203,-0.476 0.203,-0.781c0,-0.375 -0.09,-0.68 -0.266,-0.922c-0.18,-0.25 -0.402,-0.445 -0.672,-0.594c-0.262,-0.144 -0.558,-0.25 -0.89,-0.312c-0.325,-0.063 -0.633,-0.094 -0.922,-0.094c-0.313,0 -0.625,0.008 -0.938,0.016c-0.304,0.011 -0.609,0.015 -0.922,0.015l-1.687,0l0,0.172l1.031,0Z" style="fill:#fff;fill-rule:nonzero;"/><path d="M189.313,214.449l0,0.172l1.046,0l0,5.219c0,0.344 0.036,0.683 0.11,1.015c0.07,0.325 0.222,0.618 0.453,0.875c0.238,0.25 0.578,0.461 1.016,0.625c0.445,0.157 1.031,0.235 1.75,0.235c0.445,0 0.82,-0.055 1.125,-0.156c0.312,-0.094 0.566,-0.219 0.765,-0.375c0.207,-0.164 0.363,-0.348 0.469,-0.547c0.101,-0.207 0.18,-0.41 0.234,-0.61c0.051,-0.207 0.078,-0.398 0.078,-0.578c0.008,-0.187 0.016,-0.336 0.016,-0.453l0,-5.25l1.047,0l0,-0.172l-2.234,0l0,0.172l1.015,0l0,5.266c0,0.105 -0.008,0.246 -0.015,0.422c-0.012,0.168 -0.04,0.343 -0.079,0.531c-0.043,0.187 -0.117,0.383 -0.218,0.578c-0.094,0.187 -0.231,0.359 -0.407,0.516c-0.179,0.148 -0.406,0.265 -0.687,0.359c-0.274,0.094 -0.606,0.141 -1,0.141c-0.418,0 -0.746,-0.079 -0.984,-0.235c-0.243,-0.164 -0.422,-0.379 -0.547,-0.64c-0.125,-0.258 -0.203,-0.555 -0.235,-0.891c-0.031,-0.332 -0.047,-0.676 -0.047,-1.031l0,-5.016l1.032,0l0,-0.172l-3.703,0Z" style="fill:#fff;fill-rule:nonzero;"/><path d="M198.09,214.449l0,0.172l1.015,0l0,7.656l-1.015,0l0,0.157l7.156,0l0,-2.454l-0.156,0c-0.074,0.325 -0.184,0.625 -0.328,0.907c-0.137,0.281 -0.313,0.527 -0.532,0.734c-0.21,0.211 -0.453,0.371 -0.734,0.484c-0.273,0.118 -0.578,0.172 -0.922,0.172l-1.844,0l0,-4.047l0.75,0c0.27,0 0.489,0.047 0.657,0.141c0.176,0.086 0.32,0.203 0.437,0.359c0.125,0.157 0.223,0.336 0.297,0.532c0.07,0.199 0.133,0.406 0.188,0.625l0.14,0l0,-3.485l-0.14,0c-0.055,0.262 -0.121,0.496 -0.204,0.703c-0.085,0.2 -0.187,0.372 -0.312,0.516c-0.125,0.149 -0.289,0.262 -0.484,0.344c-0.188,0.074 -0.418,0.109 -0.688,0.109l-0.641,0l0,-3.453l1.782,0c0.375,0 0.687,0.07 0.937,0.203c0.25,0.137 0.453,0.297 0.61,0.485c0.164,0.187 0.289,0.382 0.375,0.578c0.093,0.199 0.16,0.359 0.203,0.484l0.14,0l0,-1.922l-6.687,0Z" style="fill:#fff;fill-rule:nonzero;"/><path d="M213.215,222.277l0,-7.656c0.07,-0.019 0.164,-0.031 0.281,-0.031c0.125,-0.008 0.258,-0.016 0.406,-0.016c0.657,0 1.18,0.094 1.578,0.281c0.395,0.188 0.704,0.461 0.922,0.813c0.227,0.344 0.379,0.762 0.453,1.25c0.071,0.492 0.11,1.039 0.11,1.641c0,0.25 -0.012,0.515 -0.031,0.796c-0.024,0.274 -0.071,0.547 -0.141,0.829c-0.074,0.281 -0.18,0.554 -0.313,0.812c-0.136,0.25 -0.324,0.477 -0.562,0.672c-0.242,0.199 -0.531,0.355 -0.875,0.469c-0.344,0.117 -0.758,0.172 -1.234,0.172c-0.18,0 -0.375,-0.008 -0.594,-0.032Zm-1.625,-7.656l0,7.656l-1.031,0l0,0.157l2.296,0c0.426,0.007 0.852,0.015 1.282,0.015c0.289,0 0.601,-0.019 0.937,-0.062c0.344,-0.039 0.688,-0.117 1.031,-0.235c0.352,-0.113 0.688,-0.269 1,-0.468c0.321,-0.196 0.61,-0.442 0.86,-0.735c0.25,-0.301 0.445,-0.656 0.594,-1.062c0.156,-0.414 0.234,-0.895 0.234,-1.438c0,-0.551 -0.078,-1.031 -0.234,-1.437c-0.149,-0.414 -0.352,-0.774 -0.61,-1.078c-0.25,-0.301 -0.543,-0.547 -0.875,-0.735c-0.324,-0.195 -0.668,-0.351 -1.031,-0.469c-0.367,-0.113 -0.734,-0.191 -1.109,-0.234c-0.375,-0.051 -0.731,-0.078 -1.063,-0.078c-0.375,0 -0.758,0.008 -1.141,0.016c-0.386,0.011 -0.765,0.015 -1.14,0.015l-1.031,0l0,0.172l1.031,0Z" style="fill:#fff;fill-rule:nonzero;"/><path d="M219.75,214.449l0,0.172l1.016,0l0,7.656l-1.016,0l0,0.157l7.156,0l0,-2.454l-0.156,0c-0.074,0.325 -0.184,0.625 -0.328,0.907c-0.137,0.281 -0.313,0.527 -0.531,0.734c-0.211,0.211 -0.453,0.371 -0.735,0.484c-0.273,0.118 -0.578,0.172 -0.922,0.172l-1.843,0l0,-4.047l0.75,0c0.269,0 0.488,0.047 0.656,0.141c0.176,0.086 0.32,0.203 0.437,0.359c0.125,0.157 0.223,0.336 0.297,0.532c0.071,0.199 0.133,0.406 0.188,0.625l0.14,0l0,-3.485l-0.14,0c-0.055,0.262 -0.121,0.496 -0.203,0.703c-0.086,0.2 -0.188,0.372 -0.313,0.516c-0.125,0.149 -0.289,0.262 -0.484,0.344c-0.188,0.074 -0.418,0.109 -0.688,0.109l-0.64,0l0,-3.453l1.781,0c0.375,0 0.687,0.07 0.937,0.203c0.25,0.137 0.454,0.297 0.61,0.485c0.164,0.187 0.289,0.382 0.375,0.578c0.094,0.199 0.16,0.359 0.203,0.484l0.141,0l0,-1.922l-6.688,0Z" style="fill:#fff;fill-rule:nonzero;"/><path d="M232.379,214.449l0,0.172l1.031,0l0,7.656l-1.031,0l0,0.157l7.109,0l0,-2.532l-0.156,0c-0.094,0.438 -0.23,0.809 -0.406,1.11c-0.18,0.304 -0.375,0.547 -0.594,0.734c-0.219,0.188 -0.453,0.324 -0.703,0.406c-0.25,0.086 -0.5,0.125 -0.75,0.125l-1.844,0l0,-7.656l1.031,0l0,-0.172l-3.687,0Z" style="fill:#fff;fill-rule:nonzero;"/><path d="M243.34,216.059l1.328,3.062l-2.578,0l1.25,-3.062Zm-3.672,6.218l0,0.157l2.125,0l0,-0.157l-1,0l1.234,-3l2.688,0l1.312,3l-1.047,0l0,0.157l3.766,0l0,-0.157l-0.969,0l-3.531,-8.14l-0.297,0l-3.344,8.14l-0.937,0Z" style="fill:#fff;fill-rule:nonzero;"/><path d="M257.258,216.215l0,-4.953c0.113,-0.008 0.226,-0.02 0.344,-0.032c0.113,-0.007 0.234,-0.015 0.359,-0.015c0.394,0 0.723,0.058 0.984,0.172c0.27,0.105 0.477,0.265 0.625,0.484c0.145,0.219 0.25,0.496 0.313,0.828c0.07,0.336 0.109,0.735 0.109,1.203c0,0.293 -0.023,0.578 -0.062,0.86c-0.043,0.273 -0.133,0.515 -0.266,0.734c-0.137,0.219 -0.344,0.399 -0.625,0.531c-0.273,0.125 -0.648,0.188 -1.125,0.188l-0.656,0Zm-2.328,-4.953l0,10.953l-1.469,0l0,0.219l5.266,0l0,-0.219l-1.469,0l0,-5.781l1.047,0c0.5,0 0.883,0.101 1.156,0.296c0.281,0.188 0.488,0.446 0.625,0.766c0.144,0.313 0.234,0.68 0.266,1.094c0.039,0.406 0.07,0.828 0.093,1.265c0.008,0.293 0.035,0.602 0.078,0.922c0.04,0.325 0.141,0.625 0.297,0.907c0.157,0.273 0.399,0.5 0.735,0.687c0.332,0.188 0.789,0.281 1.375,0.281c0.289,0 0.531,-0.023 0.718,-0.062c0.196,-0.031 0.36,-0.078 0.485,-0.141c0.133,-0.062 0.254,-0.14 0.359,-0.234c0.102,-0.094 0.207,-0.192 0.313,-0.297l-0.157,-0.141c-0.117,0.106 -0.242,0.219 -0.375,0.344c-0.136,0.125 -0.312,0.188 -0.531,0.188c-0.187,0 -0.336,-0.036 -0.437,-0.11c-0.106,-0.082 -0.188,-0.234 -0.25,-0.453c-0.055,-0.226 -0.094,-0.539 -0.125,-0.937c-0.032,-0.407 -0.075,-0.946 -0.125,-1.625c-0.043,-0.571 -0.153,-1.032 -0.328,-1.375c-0.18,-0.344 -0.418,-0.61 -0.719,-0.797c-0.293,-0.196 -0.649,-0.344 -1.063,-0.438c-0.406,-0.094 -0.871,-0.187 -1.39,-0.281l0,-0.078c0.351,-0.031 0.718,-0.098 1.093,-0.203c0.375,-0.102 0.711,-0.25 1.016,-0.438c0.301,-0.195 0.547,-0.445 0.734,-0.75c0.196,-0.301 0.297,-0.664 0.297,-1.094c0,-0.531 -0.125,-0.972 -0.375,-1.328c-0.25,-0.351 -0.57,-0.632 -0.953,-0.843c-0.387,-0.207 -0.812,-0.352 -1.281,-0.438c-0.461,-0.082 -0.898,-0.125 -1.313,-0.125c-0.449,0 -0.89,0.012 -1.328,0.031c-0.437,0.012 -0.882,0.016 -1.328,0.016l-2.406,0l0,0.219l1.469,0Z" style="fill:#fff;fill-rule:nonzero;"/><path d="M269.09,211.918l-0.985,1.984l0.141,0l1.578,-1.687c0.039,-0.051 0.067,-0.102 0.078,-0.156c0.02,-0.063 0.032,-0.11 0.032,-0.141c0,-0.113 -0.047,-0.195 -0.141,-0.25c-0.094,-0.063 -0.172,-0.094 -0.234,-0.094c-0.149,0 -0.258,0.043 -0.329,0.125c-0.062,0.074 -0.109,0.149 -0.14,0.219Zm-4.219,2.531l0,0.172l1.016,0l0,7.656l-1.016,0l0,0.157l7.156,0l0,-2.454l-0.156,0c-0.074,0.325 -0.183,0.625 -0.328,0.907c-0.137,0.281 -0.313,0.527 -0.531,0.734c-0.211,0.211 -0.453,0.371 -0.735,0.484c-0.273,0.118 -0.578,0.172 -0.922,0.172l-1.843,0l0,-4.047l0.75,0c0.269,0 0.488,0.047 0.656,0.141c0.176,0.086 0.32,0.203 0.437,0.359c0.125,0.157 0.223,0.336 0.297,0.532c0.071,0.199 0.133,0.406 0.188,0.625l0.14,0l0,-3.485l-0.14,0c-0.055,0.262 -0.121,0.496 -0.203,0.703c-0.086,0.2 -0.188,0.372 -0.313,0.516c-0.125,0.149 -0.289,0.262 -0.484,0.344c-0.188,0.074 -0.418,0.109 -0.688,0.109l-0.64,0l0,-3.453l1.781,0c0.375,0 0.687,0.07 0.937,0.203c0.25,0.137 0.454,0.297 0.61,0.485c0.164,0.187 0.289,0.382 0.375,0.578c0.094,0.199 0.16,0.359 0.203,0.484l0.141,0l0,-1.922l-6.688,0Z" style="fill:#fff;fill-rule:nonzero;"/><path d="M273.238,219.949l0,2.485l0.188,0c0.031,-0.102 0.066,-0.172 0.109,-0.204c0.051,-0.031 0.129,-0.046 0.235,-0.046c0.07,0 0.179,0.023 0.328,0.062c0.156,0.043 0.332,0.09 0.531,0.141c0.195,0.043 0.41,0.082 0.641,0.125c0.226,0.051 0.457,0.078 0.687,0.078c0.469,0 0.891,-0.074 1.266,-0.219c0.375,-0.144 0.695,-0.336 0.968,-0.578c0.282,-0.25 0.493,-0.535 0.641,-0.859c0.145,-0.332 0.219,-0.68 0.219,-1.047c0,-0.375 -0.071,-0.688 -0.203,-0.938c-0.137,-0.258 -0.321,-0.476 -0.547,-0.656c-0.219,-0.176 -0.477,-0.32 -0.766,-0.438c-0.281,-0.125 -0.578,-0.234 -0.89,-0.328c-0.305,-0.093 -0.602,-0.187 -0.891,-0.281c-0.281,-0.094 -0.539,-0.195 -0.766,-0.312c-0.218,-0.125 -0.398,-0.27 -0.531,-0.438c-0.137,-0.176 -0.203,-0.394 -0.203,-0.656c0,-0.176 0.035,-0.344 0.109,-0.5c0.082,-0.164 0.203,-0.317 0.36,-0.453c0.164,-0.133 0.359,-0.242 0.578,-0.328c0.226,-0.082 0.492,-0.125 0.797,-0.125c0.363,0 0.664,0.062 0.906,0.187c0.238,0.125 0.437,0.293 0.594,0.5c0.156,0.211 0.281,0.445 0.375,0.703c0.101,0.25 0.203,0.508 0.297,0.766l0.14,0l0,-2.141l-0.172,0c-0.043,0.094 -0.078,0.164 -0.109,0.203c-0.031,0.032 -0.102,0.047 -0.203,0.047c-0.094,0 -0.199,-0.019 -0.313,-0.062c-0.105,-0.051 -0.23,-0.098 -0.375,-0.141c-0.136,-0.051 -0.297,-0.098 -0.484,-0.141c-0.188,-0.05 -0.402,-0.078 -0.641,-0.078c-0.398,0 -0.761,0.071 -1.093,0.203c-0.325,0.125 -0.606,0.297 -0.844,0.516c-0.242,0.211 -0.43,0.453 -0.563,0.734c-0.136,0.274 -0.203,0.559 -0.203,0.86c0,0.398 0.063,0.73 0.188,1c0.132,0.273 0.312,0.5 0.531,0.687c0.219,0.18 0.461,0.325 0.734,0.438c0.282,0.117 0.567,0.219 0.86,0.312c0.289,0.086 0.57,0.168 0.843,0.25c0.282,0.086 0.524,0.188 0.735,0.313c0.219,0.117 0.39,0.262 0.515,0.437c0.133,0.18 0.204,0.407 0.204,0.688c0,0.148 -0.032,0.32 -0.094,0.515c-0.055,0.2 -0.153,0.387 -0.297,0.563c-0.149,0.18 -0.352,0.328 -0.609,0.453c-0.25,0.125 -0.575,0.188 -0.969,0.188l-0.375,0c-0.125,-0.008 -0.262,-0.036 -0.406,-0.079c-0.149,-0.039 -0.305,-0.101 -0.469,-0.187c-0.156,-0.094 -0.321,-0.223 -0.485,-0.391c-0.156,-0.156 -0.293,-0.316 -0.406,-0.484c-0.105,-0.176 -0.195,-0.348 -0.265,-0.516c-0.063,-0.175 -0.118,-0.336 -0.157,-0.484c-0.043,-0.145 -0.07,-0.258 -0.078,-0.344l-0.172,0Z" style="fill:#fff;fill-rule:nonzero;"/><path d="M280.23,214.449l0,0.172l1.032,0l0,7.656l-1.032,0l0,0.157l3.688,0l0,-0.157l-1.031,0l0,-7.656l1.031,0l0,-0.172l-3.688,0Z" style="fill:#fff;fill-rule:nonzero;"/><path d="M285.055,219.949l0,2.485l0.187,0c0.031,-0.102 0.067,-0.172 0.11,-0.204c0.05,-0.031 0.128,-0.046 0.234,-0.046c0.07,0 0.18,0.023 0.328,0.062c0.156,0.043 0.332,0.09 0.531,0.141c0.196,0.043 0.41,0.082 0.641,0.125c0.227,0.051 0.457,0.078 0.687,0.078c0.469,0 0.891,-0.074 1.266,-0.219c0.375,-0.144 0.695,-0.336 0.969,-0.578c0.281,-0.25 0.492,-0.535 0.64,-0.859c0.145,-0.332 0.219,-0.68 0.219,-1.047c0,-0.375 -0.07,-0.688 -0.203,-0.938c-0.137,-0.258 -0.32,-0.476 -0.547,-0.656c-0.219,-0.176 -0.476,-0.32 -0.765,-0.438c-0.282,-0.125 -0.579,-0.234 -0.891,-0.328c-0.305,-0.093 -0.602,-0.187 -0.891,-0.281c-0.281,-0.094 -0.539,-0.195 -0.765,-0.312c-0.219,-0.125 -0.399,-0.27 -0.532,-0.438c-0.136,-0.176 -0.203,-0.394 -0.203,-0.656c0,-0.176 0.035,-0.344 0.11,-0.5c0.082,-0.164 0.203,-0.317 0.359,-0.453c0.164,-0.133 0.359,-0.242 0.578,-0.328c0.227,-0.082 0.492,-0.125 0.797,-0.125c0.363,0 0.664,0.062 0.906,0.187c0.239,0.125 0.438,0.293 0.594,0.5c0.156,0.211 0.281,0.445 0.375,0.703c0.102,0.25 0.203,0.508 0.297,0.766l0.141,0l0,-2.141l-0.172,0c-0.043,0.094 -0.078,0.164 -0.11,0.203c-0.031,0.032 -0.101,0.047 -0.203,0.047c-0.094,0 -0.199,-0.019 -0.312,-0.062c-0.106,-0.051 -0.231,-0.098 -0.375,-0.141c-0.137,-0.051 -0.297,-0.098 -0.485,-0.141c-0.187,-0.05 -0.402,-0.078 -0.64,-0.078c-0.399,0 -0.762,0.071 -1.094,0.203c-0.324,0.125 -0.606,0.297 -0.844,0.516c-0.242,0.211 -0.429,0.453 -0.562,0.734c-0.137,0.274 -0.203,0.559 -0.203,0.86c0,0.398 0.062,0.73 0.187,1c0.133,0.273 0.313,0.5 0.531,0.687c0.219,0.18 0.461,0.325 0.735,0.438c0.281,0.117 0.566,0.219 0.859,0.312c0.289,0.086 0.57,0.168 0.844,0.25c0.281,0.086 0.523,0.188 0.734,0.313c0.219,0.117 0.391,0.262 0.516,0.437c0.133,0.18 0.203,0.407 0.203,0.688c0,0.148 -0.031,0.32 -0.094,0.515c-0.054,0.2 -0.152,0.387 -0.297,0.563c-0.148,0.18 -0.351,0.328 -0.609,0.453c-0.25,0.125 -0.574,0.188 -0.969,0.188l-0.375,0c-0.125,-0.008 -0.262,-0.036 -0.406,-0.079c-0.148,-0.039 -0.305,-0.101 -0.469,-0.187c-0.156,-0.094 -0.32,-0.223 -0.484,-0.391c-0.156,-0.156 -0.293,-0.316 -0.406,-0.484c-0.106,-0.176 -0.196,-0.348 -0.266,-0.516c-0.063,-0.175 -0.117,-0.336 -0.156,-0.484c-0.043,-0.145 -0.071,-0.258 -0.078,-0.344l-0.172,0Z" style="fill:#fff;fill-rule:nonzero;"/><path d="M294.75,214.621l0,7.656l-1.031,0l0,0.157l3.687,0l0,-0.157l-1.031,0l0,-7.656l0.406,0c0.27,0 0.516,0.027 0.735,0.078c0.218,0.055 0.41,0.153 0.578,0.297c0.176,0.137 0.328,0.328 0.453,0.578c0.133,0.242 0.258,0.555 0.375,0.938l0.156,0l0,-2.063l-7.031,0l0,2.063l0.141,0c0.113,-0.383 0.238,-0.696 0.375,-0.938c0.132,-0.25 0.285,-0.441 0.453,-0.578c0.175,-0.144 0.367,-0.242 0.578,-0.297c0.219,-0.051 0.469,-0.078 0.75,-0.078l0.406,0Z" style="fill:#fff;fill-rule:nonzero;"/><path d="M302.895,216.059l1.328,3.062l-2.578,0l1.25,-3.062Zm-3.672,6.218l0,0.157l2.125,0l0,-0.157l-1,0l1.234,-3l2.688,0l1.312,3l-1.047,0l0,0.157l3.766,0l0,-0.157l-0.969,0l-3.531,-8.14l-0.297,0l-3.344,8.14l-0.937,0Z" style="fill:#fff;fill-rule:nonzero;"/><path d="M308.383,214.449l0,0.172l1.031,0l0,7.656l-1.031,0l0,0.157l2.25,0l0,-0.157l-1.031,0l0,-7.031l0.015,0l5.047,7.188l0.297,0l0,-7.813l1.031,0l0,-0.172l-2.234,0l0,0.172l1.031,0l0,5.172l-0.031,0l-3.719,-5.344l-2.656,0Z" style="fill:#fff;fill-rule:nonzero;"/><path d="M323.664,216.746l0,-2.297l-0.172,0c-0.031,0.117 -0.074,0.188 -0.125,0.219c-0.054,0.023 -0.133,0.031 -0.234,0.031c-0.094,0 -0.215,-0.019 -0.36,-0.062c-0.136,-0.051 -0.293,-0.098 -0.468,-0.141c-0.18,-0.051 -0.371,-0.098 -0.578,-0.141c-0.2,-0.05 -0.418,-0.078 -0.657,-0.078c-0.48,0 -0.968,0.102 -1.468,0.297c-0.5,0.199 -0.954,0.481 -1.36,0.844c-0.398,0.367 -0.726,0.809 -0.984,1.328c-0.25,0.512 -0.375,1.086 -0.375,1.719c0,0.586 0.113,1.125 0.344,1.625c0.226,0.5 0.535,0.937 0.921,1.312c0.383,0.368 0.829,0.657 1.329,0.875c0.507,0.207 1.039,0.313 1.593,0.313c0.239,0 0.461,-0.024 0.672,-0.063c0.219,-0.043 0.414,-0.086 0.594,-0.125c0.187,-0.05 0.352,-0.097 0.5,-0.14c0.144,-0.039 0.258,-0.063 0.344,-0.063c0.101,0 0.179,0.016 0.234,0.047c0.051,0.031 0.098,0.094 0.141,0.188l0.172,0l0,-2.375l-0.172,0c-0.075,0.304 -0.184,0.601 -0.328,0.89c-0.137,0.281 -0.309,0.531 -0.516,0.75c-0.211,0.219 -0.449,0.399 -0.719,0.531c-0.273,0.137 -0.578,0.204 -0.922,0.204c-0.418,0 -0.777,-0.055 -1.078,-0.172c-0.304,-0.125 -0.547,-0.332 -0.734,-0.625c-0.188,-0.301 -0.328,-0.707 -0.422,-1.219c-0.094,-0.508 -0.141,-1.148 -0.141,-1.922c0,-0.594 0.02,-1.133 0.063,-1.625c0.051,-0.5 0.156,-0.926 0.312,-1.281c0.164,-0.363 0.407,-0.645 0.719,-0.844c0.313,-0.207 0.738,-0.312 1.281,-0.312c0.407,0 0.743,0.074 1.016,0.218c0.269,0.149 0.5,0.336 0.687,0.563c0.188,0.23 0.336,0.48 0.454,0.75c0.113,0.273 0.211,0.531 0.296,0.781l0.141,0Z" style="fill:#fff;fill-rule:nonzero;"/><path d="M324.813,214.449l0,0.172l1.015,0l0,7.656l-1.015,0l0,0.157l7.156,0l0,-2.454l-0.156,0c-0.075,0.325 -0.184,0.625 -0.329,0.907c-0.136,0.281 -0.312,0.527 -0.531,0.734c-0.211,0.211 -0.453,0.371 -0.734,0.484c-0.274,0.118 -0.578,0.172 -0.922,0.172l-1.844,0l0,-4.047l0.75,0c0.27,0 0.488,0.047 0.656,0.141c0.176,0.086 0.321,0.203 0.438,0.359c0.125,0.157 0.223,0.336 0.297,0.532c0.07,0.199 0.133,0.406 0.187,0.625l0.141,0l0,-3.485l-0.141,0c-0.054,0.262 -0.121,0.496 -0.203,0.703c-0.086,0.2 -0.187,0.372 -0.312,0.516c-0.125,0.149 -0.289,0.262 -0.485,0.344c-0.187,0.074 -0.418,0.109 -0.687,0.109l-0.641,0l0,-3.453l1.781,0c0.375,0 0.688,0.07 0.938,0.203c0.25,0.137 0.453,0.297 0.609,0.485c0.164,0.187 0.289,0.382 0.375,0.578c0.094,0.199 0.16,0.359 0.203,0.484l0.141,0l0,-1.922l-6.687,0Z" style="fill:#fff;fill-rule:nonzero;"/><rect x="338.535" y="210.434" width="0.328" height="15.984" style="fill:#fff;"/><path d="M345.66,211.043l0,0.219l1.469,0l0,10.953l-1.469,0l0,0.219l10.141,0l0,-3.61l-0.203,0c-0.137,0.617 -0.328,1.141 -0.578,1.578c-0.25,0.43 -0.54,0.778 -0.86,1.047c-0.312,0.274 -0.648,0.469 -1,0.594c-0.355,0.117 -0.711,0.172 -1.062,0.172l-2.641,0l0,-10.953l1.469,0l0,-0.219l-5.266,0Z" style="fill:#fff;fill-rule:nonzero;"/><rect x="357.93" y="218.215" width="3.016" height="1.563" style="fill:#fff;"/><path d="M364.711,210.902l-1.063,6.61l0.204,0c0.07,-0.164 0.164,-0.36 0.281,-0.578c0.113,-0.219 0.254,-0.422 0.422,-0.61c0.175,-0.195 0.383,-0.363 0.625,-0.5c0.25,-0.133 0.55,-0.203 0.906,-0.203c0.258,0 0.504,0.039 0.734,0.109c0.227,0.063 0.43,0.211 0.61,0.438c0.175,0.219 0.312,0.543 0.406,0.969c0.102,0.418 0.156,0.98 0.156,1.687c0,0.899 -0.07,1.59 -0.203,2.078c-0.125,0.493 -0.289,0.852 -0.484,1.078c-0.2,0.219 -0.418,0.352 -0.657,0.391c-0.242,0.043 -0.468,0.063 -0.687,0.063c-0.086,0 -0.184,-0.008 -0.297,-0.032c-0.105,-0.031 -0.211,-0.082 -0.312,-0.156c-0.094,-0.07 -0.18,-0.172 -0.25,-0.297c-0.063,-0.133 -0.094,-0.301 -0.094,-0.5c0,-0.039 0.004,-0.094 0.015,-0.156c0.008,-0.07 0.016,-0.145 0.016,-0.219c0.008,-0.082 0.02,-0.16 0.031,-0.234c0.008,-0.07 0.016,-0.125 0.016,-0.156c0,-0.176 -0.063,-0.336 -0.188,-0.485c-0.125,-0.144 -0.386,-0.219 -0.781,-0.219c-0.062,0 -0.148,0.008 -0.25,0.016c-0.105,0.012 -0.215,0.047 -0.328,0.109c-0.117,0.063 -0.215,0.153 -0.297,0.266c-0.074,0.117 -0.109,0.289 -0.109,0.516c0,0.23 0.07,0.453 0.219,0.672c0.144,0.211 0.347,0.398 0.609,0.562c0.258,0.156 0.566,0.281 0.922,0.375c0.363,0.094 0.75,0.141 1.156,0.141c0.664,0 1.25,-0.121 1.75,-0.36c0.508,-0.25 0.941,-0.566 1.297,-0.953c0.352,-0.383 0.617,-0.812 0.797,-1.281c0.187,-0.469 0.281,-0.922 0.281,-1.359c0,-0.5 -0.101,-0.954 -0.297,-1.36c-0.199,-0.414 -0.469,-0.769 -0.812,-1.062c-0.336,-0.289 -0.727,-0.516 -1.172,-0.672c-0.438,-0.164 -0.906,-0.25 -1.406,-0.25c-0.356,0 -0.657,0.031 -0.907,0.094c-0.242,0.062 -0.453,0.148 -0.64,0.25c-0.18,0.093 -0.328,0.211 -0.453,0.343c-0.125,0.137 -0.25,0.282 -0.375,0.438l-0.047,-0.031l0.578,-3.5c0.164,0.062 0.347,0.136 0.547,0.218c0.207,0.075 0.422,0.153 0.64,0.235c0.219,0.074 0.438,0.136 0.657,0.187c0.218,0.043 0.414,0.063 0.593,0.063c0.313,0 0.582,-0.039 0.813,-0.125c0.226,-0.082 0.453,-0.223 0.672,-0.422c0.226,-0.195 0.468,-0.461 0.718,-0.797c0.25,-0.332 0.551,-0.75 0.907,-1.25l-0.219,-0.094c-0.188,0.274 -0.387,0.485 -0.594,0.641c-0.211,0.148 -0.406,0.258 -0.594,0.328c-0.187,0.074 -0.359,0.117 -0.515,0.125c-0.156,0.012 -0.274,0.016 -0.344,0.016c-0.324,0 -0.637,-0.039 -0.937,-0.125c-0.293,-0.094 -0.559,-0.204 -0.797,-0.329c-0.242,-0.132 -0.45,-0.265 -0.625,-0.39c-0.168,-0.133 -0.289,-0.238 -0.36,-0.313l-0.484,0Z" style="fill:#fff;fill-rule:nonzero;"/><path d="M376.324,215.574l0,4.094l-4.234,0c0.226,-0.508 0.504,-1.035 0.828,-1.578c0.32,-0.551 0.664,-1.086 1.031,-1.61c0.375,-0.531 0.754,-1.035 1.141,-1.515c0.383,-0.488 0.754,-0.938 1.109,-1.344c0.352,-0.414 0.68,-0.773 0.985,-1.078c0.3,-0.313 0.546,-0.547 0.734,-0.703c0.094,-0.082 0.172,-0.16 0.234,-0.235c0.063,-0.082 0.094,-0.187 0.094,-0.312c0,-0.113 -0.031,-0.203 -0.094,-0.266c-0.054,-0.062 -0.125,-0.109 -0.218,-0.14c-0.086,-0.039 -0.184,-0.067 -0.297,-0.078c-0.106,-0.008 -0.203,-0.016 -0.297,-0.016c-0.156,0 -0.309,0.012 -0.453,0.031c-0.137,0.024 -0.289,0.086 -0.453,0.188c-0.157,0.105 -0.329,0.277 -0.516,0.515c-0.188,0.231 -0.414,0.559 -0.672,0.985c-0.336,0.554 -0.68,1.187 -1.031,1.906c-0.356,0.711 -0.699,1.418 -1.031,2.125c-0.325,0.699 -0.61,1.352 -0.86,1.953c-0.25,0.594 -0.429,1.059 -0.531,1.391l4.531,0l0,2.328l-1.422,0l0,0.219l4.797,0l0,-0.219l-1.437,0l0,-2.328l1.437,0l0,-0.219l-1.437,0l0,-4.094l-1.938,0Z" style="fill:#fff;fill-rule:nonzero;"/><path d="M382.891,216.715c0,-1.008 0.007,-1.875 0.031,-2.594c0.031,-0.719 0.101,-1.305 0.219,-1.766c0.125,-0.457 0.3,-0.796 0.531,-1.015c0.226,-0.219 0.551,-0.328 0.969,-0.328c0.414,0 0.738,0.101 0.968,0.297c0.227,0.199 0.399,0.527 0.516,0.984c0.113,0.449 0.18,1.039 0.203,1.766c0.031,0.718 0.047,1.605 0.047,2.656c0,1.012 -0.016,1.883 -0.047,2.609c-0.023,0.719 -0.09,1.309 -0.203,1.766c-0.117,0.461 -0.289,0.797 -0.516,1.015c-0.23,0.219 -0.554,0.329 -0.968,0.329c-0.418,0 -0.743,-0.11 -0.969,-0.329c-0.231,-0.218 -0.406,-0.554 -0.531,-1.015c-0.118,-0.457 -0.188,-1.047 -0.219,-1.766c-0.024,-0.726 -0.031,-1.597 -0.031,-2.609Zm-2.157,0c0,0.211 0.004,0.5 0.016,0.875c0.008,0.375 0.051,0.781 0.125,1.219c0.07,0.437 0.188,0.886 0.344,1.343c0.156,0.45 0.375,0.86 0.656,1.235c0.289,0.367 0.66,0.668 1.109,0.906c0.446,0.227 1,0.344 1.657,0.344c0.582,0 1.082,-0.11 1.5,-0.328c0.425,-0.219 0.781,-0.504 1.062,-0.86c0.289,-0.351 0.524,-0.75 0.703,-1.187c0.176,-0.438 0.305,-0.875 0.391,-1.313c0.094,-0.445 0.156,-0.863 0.187,-1.25c0.039,-0.394 0.063,-0.722 0.063,-0.984c0,-0.195 -0.012,-0.477 -0.031,-0.844c-0.012,-0.375 -0.055,-0.781 -0.125,-1.219c-0.075,-0.445 -0.188,-0.898 -0.344,-1.359c-0.156,-0.457 -0.383,-0.867 -0.672,-1.234c-0.281,-0.364 -0.648,-0.664 -1.094,-0.907c-0.449,-0.238 -0.996,-0.359 -1.64,-0.359c-0.594,0 -1.106,0.117 -1.532,0.344c-0.418,0.218 -0.773,0.508 -1.062,0.859c-0.281,0.344 -0.512,0.742 -0.688,1.188c-0.179,0.437 -0.312,0.882 -0.406,1.328c-0.086,0.437 -0.14,0.855 -0.172,1.25c-0.031,0.386 -0.047,0.703 -0.047,0.953Z" style="fill:#fff;fill-rule:nonzero;"/><path d="M396.289,222.434l0,-0.219l-1.469,0l0,-11.422l-0.64,0c-0.325,0.293 -0.621,0.543 -0.891,0.75c-0.262,0.211 -0.523,0.402 -0.781,0.578c-0.262,0.168 -0.543,0.34 -0.844,0.516c-0.305,0.168 -0.648,0.359 -1.031,0.578l0.14,0.203c0.332,-0.188 0.676,-0.379 1.032,-0.578c0.351,-0.207 0.707,-0.406 1.062,-0.594l0,9.969l-1.515,0l0,0.219l4.937,0Z" style="fill:#fff;fill-rule:nonzero;"/><path d="M407.273,213.324l1.891,4.375l-3.672,0l1.781,-4.375Zm-5.25,8.891l0,0.219l3.032,0l0,-0.219l-1.422,0l1.765,-4.297l3.844,0l1.86,4.297l-1.485,0l0,0.219l5.375,0l0,-0.219l-1.375,0l-5.047,-11.625l-0.422,0l-4.781,11.625l-1.344,0Z" style="fill:#fff;fill-rule:nonzero;"/><path d="M414.961,214.449l0,0.172l1.031,0l0,7.656l-1.031,0l0,0.157l3.687,0l0,-0.157l-1.031,0l0,-3.828l3.235,0l0,3.828l-1.032,0l0,0.157l3.688,0l0,-0.157l-1.031,0l0,-7.656l1.031,0l0,-0.172l-3.688,0l0,0.172l1.032,0l0,3.672l-3.235,0l0,-3.672l1.031,0l0,-0.172l-3.687,0Z" style="fill:#fff;fill-rule:nonzero;"/><path d="M424.277,214.449l0,0.172l1.032,0l0,7.656l-1.032,0l0,0.157l2.25,0l0,-0.157l-1.031,0l0,-7.031l0.016,0l5.047,7.188l0.296,0l0,-7.813l1.032,0l0,-0.172l-2.235,0l0,0.172l1.032,0l0,5.172l-0.032,0l-3.718,-5.344l-2.657,0Z" style="fill:#fff;fill-rule:nonzero;"/></svg>