<?xml version="1.0" encoding="UTF-8" standalone="no"?>
<svg
   xmlns:dc="http://purl.org/dc/elements/1.1/"
   xmlns:cc="http://creativecommons.org/ns#"
   xmlns:rdf="http://www.w3.org/1999/02/22-rdf-syntax-ns#"
   xmlns:svg="http://www.w3.org/2000/svg"
   xmlns="http://www.w3.org/2000/svg"
   xmlns:sodipodi="http://sodipodi.sourceforge.net/DTD/sodipodi-0.dtd"
   xmlns:inkscape="http://www.inkscape.org/namespaces/inkscape"
   width="357.76956pt"
   height="192.85939pt"
   viewBox="0 0 357.76956 192.85938"
   version="1.2"
   id="svg15"
   sodipodi:docname="cc.svg"
   inkscape:version="0.92.5 (2060ec1f9f, 2020-04-08)">
  <metadata
     id="metadata21">
    <rdf:RDF>
      <cc:Work
         rdf:about="">
        <dc:format>image/svg+xml</dc:format>
        <dc:type
           rdf:resource="http://purl.org/dc/dcmitype/StillImage" />
        <dc:title></dc:title>
      </cc:Work>
    </rdf:RDF>
  </metadata>
  <defs
     id="defs19" />
  <sodipodi:namedview
     pagecolor="#ffffff"
     bordercolor="#666666"
     borderopacity="1"
     objecttolerance="10"
     gridtolerance="10"
     guidetolerance="10"
     inkscape:pageopacity="0"
     inkscape:pageshadow="2"
     inkscape:window-width="640"
     inkscape:window-height="480"
     id="namedview17"
     showgrid="false"
     inkscape:pagecheckerboard="true"
     inkscape:zoom="0.24765705"
     inkscape:cx="242.91104"
     inkscape:cy="156.66751"
     inkscape:window-x="0"
     inkscape:window-y="0"
     inkscape:window-maximized="0"
     inkscape:current-layer="svg15" />
  <g
     id="surface512"
     transform="translate(-238.76172,-222.28125)">
    <path
       style="fill:#ff6b2b;fill-opacity:1;fill-rule:nonzero;stroke:none"
       d="m 523.95312,283.57812 h -8 v -53.29687 h -53 v -8 h 61 v 61.29687"
       id="path2"
       inkscape:connector-curvature="0" />
    <path
       style="fill:#ff6b2b;fill-opacity:1;fill-rule:nonzero;stroke:none"
       d="m 299.88281,360.91016 h -61.12109 v -61.35938 h 8 v 53.35938 h 53.12109 v 8"
       id="path4"
       inkscape:connector-curvature="0" />
    <path
       style="fill:#ff6b2b;fill-opacity:1;fill-rule:nonzero;stroke:none"
       d="m 591.77344,370.28516 c 1.8125,-0.79688 3.33593,-1.75391 4.57812,-2.86719 v -10.60156 h -10.98047 v 2.69921 h 8.09375 v 6.60938 c -0.91406,0.73437 -2.03906,1.36328 -3.38281,1.88281 -1.34375,0.51953 -2.77344,0.77735 -4.29297,0.77735 -1.625,0 -3.07812,-0.27735 -4.37109,-0.83594 -1.29297,-0.55469 -2.39453,-1.32813 -3.30469,-2.31641 -0.91406,-0.98828 -1.61719,-2.15234 -2.10937,-3.49609 -0.4961,-1.34375 -0.74219,-2.8125 -0.74219,-4.41016 v -0.0742 c 0,-1.46875 0.2539,-2.87109 0.76172,-4.19922 0.5039,-1.33203 1.20312,-2.48828 2.08984,-3.47656 0.88281,-0.98828 1.94922,-1.77344 3.19141,-2.35547 1.24218,-0.58203 2.59375,-0.875 4.0664,-0.875 0.9375,0 1.78907,0.0742 2.5625,0.22657 0.77344,0.15234 1.48438,0.36328 2.12891,0.6289 0.64844,0.26563 1.24609,0.58203 1.80469,0.94922 0.55859,0.36719 1.08984,0.77734 1.59765,1.23438 l 1.9375,-2.27735 c -0.66015,-0.55859 -1.33593,-1.05859 -2.03515,-1.5039 -0.69532,-0.44141 -1.44141,-0.81641 -2.23828,-1.1211 -0.80079,-0.30469 -1.66016,-0.53125 -2.58594,-0.68359 -0.92578,-0.15235 -1.94531,-0.22656 -3.0586,-0.22656 -2.0039,0 -3.82031,0.375 -5.45312,1.12109 -1.63281,0.74609 -3.03516,1.75391 -4.19922,3.01953 -1.16797,1.26953 -2.07031,2.73047 -2.71875,4.39063 -0.64453,1.66015 -0.96875,3.39843 -0.96875,5.22265 v 0.0781 c 0,1.89843 0.3125,3.67968 0.93359,5.33984 0.61719,1.66016 1.51954,3.10938 2.69532,4.34766 1.17968,1.24218 2.59765,2.21875 4.25781,2.92968 1.66016,0.70704 3.53906,1.0625 5.64453,1.0625 2.25391,0 4.28516,-0.39843 6.09766,-1.19921 m -45.92188,0.74218 h 3 V 360.6914 h 7.60156 l 7.71094,10.33593 h 3.6875 l -8.16797,-10.86718 c 1.03907,-0.17579 2,-0.47657 2.88672,-0.89454 0.88672,-0.41796 1.65235,-0.94921 2.29688,-1.59375 0.64843,-0.64843 1.14843,-1.40625 1.5039,-2.28125 0.35547,-0.875 0.53125,-1.86718 0.53125,-2.98437 v -0.0742 c 0,-1.0625 -0.17578,-2.03906 -0.53125,-2.92578 -0.35547,-0.88672 -0.86328,-1.66016 -1.51953,-2.31641 -0.83594,-0.83593 -1.89453,-1.48828 -3.17578,-1.95703 -1.27734,-0.46875 -2.74219,-0.70312 -4.38672,-0.70312 h -11.4375 z m 3,-13.03515 v -10.78907 h 8.23047 c 2.15625,0 3.83203,0.46094 5.02734,1.38672 1.19532,0.92578 1.78907,2.21094 1.78907,3.85547 v 0.0781 c 0,0.85937 -0.16797,1.625 -0.51172,2.29687 -0.34375,0.67188 -0.82031,1.24219 -1.42969,1.71094 -0.60937,0.46875 -1.33203,0.82812 -2.17187,1.08203 -0.83985,0.25391 -1.75391,0.37891 -2.74219,0.37891 z m -16.66015,12.71093 c 1.35546,-0.49218 2.51953,-1.23437 3.49609,-2.22265 0.97266,-0.98828 1.72656,-2.21485 2.25781,-3.6836 0.53516,-1.46875 0.80078,-3.17968 0.80078,-5.13281 v -15.23437 h -3.0039 v 15.46484 c 0,2.91406 -0.72266,5.10547 -2.16407,6.57422 -1.44531,1.46875 -3.39453,2.20312 -5.85156,2.20312 -2.5625,0 -4.55469,-0.77343 -5.98828,-2.3164 -1.42969,-1.54688 -2.14453,-3.76172 -2.14453,-6.65235 v -15.27343 h -3.00391 v 15.46484 c 0,1.875 0.26563,3.53516 0.80078,4.97656 0.53125,1.44532 1.28516,2.65625 2.25782,3.62891 0.97656,0.97656 2.14062,1.71094 3.49609,2.20312 1.35547,0.4961 2.85938,0.74219 4.50391,0.74219 1.67187,0 3.1875,-0.24609 4.54297,-0.74219 m -29.58594,-0.33984 c 1.67187,-0.74609 3.10547,-1.75 4.29687,-3.00391 1.1875,-1.2539 2.11328,-2.71484 2.77344,-4.38671 0.65625,-1.67188 0.98828,-3.42188 0.98828,-5.2461 0.0234,-0.0234 0.0234,-0.0469 0,-0.0742 0,-1.82422 -0.32422,-3.5664 -0.96875,-5.22656 -0.64844,-1.65625 -1.5664,-3.11328 -2.75781,-4.36719 -1.19141,-1.2539 -2.61328,-2.25 -4.27344,-2.98437 -1.66015,-0.73438 -3.5039,-1.10156 -5.52734,-1.10156 -2.02735,0 -3.87891,0.375 -5.55078,1.12109 -1.67188,0.74609 -3.10157,1.74609 -4.29297,3 -1.19141,1.25391 -2.11719,2.71875 -2.77344,4.39062 -0.66016,1.67188 -0.98828,3.41797 -0.98828,5.24219 v 0.0781 c 0,1.82422 0.32422,3.5664 0.96875,5.22265 0.64453,1.66016 1.5625,3.11719 2.75391,4.3711 1.1914,1.2539 2.61718,2.25 4.27734,2.98437 1.65625,0.73438 3.5,1.10156 5.52734,1.10156 2.02735,0 3.875,-0.375 5.54688,-1.12109 m -9.66797,-2.52734 c -1.28125,-0.58203 -2.39063,-1.36719 -3.32813,-2.35547 -0.9375,-0.98828 -1.66406,-2.14844 -2.18359,-3.47656 -0.51953,-1.33204 -0.77734,-2.75782 -0.77734,-4.27735 v -0.0742 c 0,-1.51953 0.25781,-2.9375 0.77734,-4.25781 0.51953,-1.31641 1.23438,-2.46875 2.14844,-3.45703 0.91015,-0.98828 2.0039,-1.76563 3.28515,-2.33594 1.28125,-0.57031 2.67969,-0.85547 4.19922,-0.85547 1.51953,0 2.91797,0.29297 4.19922,0.875 1.27735,0.58203 2.38672,1.36719 3.32422,2.35547 0.9375,0.98828 1.66406,2.14453 2.1875,3.47656 0.51563,1.32813 0.77734,2.75391 0.77734,4.27344 v 0.0781 c 0,1.51953 -0.26171,2.9375 -0.77734,4.2539 -0.52344,1.32032 -1.23828,2.47266 -2.14844,3.46094 -0.91015,0.98828 -2.00781,1.76563 -3.28515,2.33594 -1.28125,0.57031 -2.67969,0.85547 -4.19922,0.85547 -1.52344,0 -2.92188,-0.29297 -4.19922,-0.875 m -35.66406,3.1914 h 11.79687 c 1.44141,0 2.75781,-0.16406 3.94531,-0.49609 1.1875,-0.32813 2.20704,-0.80469 3.05469,-1.42578 0.84375,-0.6211 1.4961,-1.38281 1.95313,-2.28516 0.45312,-0.89844 0.67968,-1.92187 0.67968,-3.0625 v -0.0742 c 0,-0.91406 -0.14843,-1.71875 -0.45312,-2.41797 -0.30469,-0.69921 -0.70703,-1.30078 -1.21484,-1.80859 -0.50391,-0.50781 -1.10547,-0.94531 -1.80079,-1.3125 -0.69531,-0.37109 -1.43359,-0.66797 -2.21875,-0.89844 0.53125,-0.22656 1.04297,-0.51172 1.53516,-0.85156 0.49219,-0.33984 0.94141,-0.75781 1.34375,-1.25 0.40625,-0.49219 0.72656,-1.07422 0.96875,-1.74609 0.23828,-0.66797 0.35938,-1.4336 0.35938,-2.29297 v -0.0781 c 0,-1.64453 -0.57032,-3.05859 -1.70704,-4.24609 -0.75781,-0.73438 -1.72656,-1.30859 -2.90234,-1.72656 -1.17578,-0.41797 -2.51953,-0.625 -4.03906,-0.625 h -11.30078 z m 3.0039,-14.78125 V 347.125 h 8.07032 c 1.89453,0 3.34765,0.39062 4.35937,1.17578 1.00781,0.78125 1.51563,1.82813 1.51563,3.14063 v 0.0742 c 0,1.5625 -0.5625,2.7461 -1.6875,3.53907 -1.125,0.79297 -2.59766,1.1914 -4.41407,1.1914 z m 0,12.08203 v -9.38281 h 8.375 c 2.32422,0 4.08203,0.39844 5.26953,1.19531 1.1875,0.79688 1.78125,1.91797 1.78125,3.36329 v 0.0742 c 0,1.4961 -0.58203,2.66016 -1.74218,3.4961 -1.16407,0.83594 -2.75782,1.2539 -4.77735,1.2539 z m -35.98828,2.69922 h 2.92578 V 349.5195 l 9.69141,14.21094 h 0.15234 l 9.6875,-14.25 v 21.54687 H 449.75 v -26.59765 h -3.03906 l -9.69141,14.51562 -9.69141,-14.51562 h -3.03906 z m -25.46094,0 h 19.41797 v -2.69922 h -16.41406 v -9.34765 h 14.51563 v -2.69531 H 401.83203 V 347.125 h 16.22656 v -2.69531 h -19.23047 z m -29.5625,0 h 3.45704 l 8.51171,-11.4375 8.51172,11.4375 h 3.57422 l -10.22265,-13.60156 9.84375,-12.99609 h -3.4961 l -8.09375,10.86718 -8.17187,-10.86718 h -3.53516 l 9.84375,13.03125 z m -11.64453,-0.32422 c 1.35157,-0.49218 2.51953,-1.23437 3.4961,-2.22265 0.97265,-0.98828 1.72656,-2.21485 2.26172,-3.6836 0.53125,-1.46875 0.79687,-3.17968 0.79687,-5.13281 v -15.23437 h -3.00391 v 15.46484 c 0,2.91406 -0.72265,5.10547 -2.16406,6.57422 -1.44531,1.46875 -3.39844,2.20312 -5.85156,2.20312 -2.5625,0 -4.55469,-0.77343 -5.98438,-2.3164 -1.43359,-1.54688 -2.14843,-3.76172 -2.14843,-6.65235 v -15.27343 h -3.00391 v 15.46484 c 0,1.875 0.26563,3.53516 0.80078,4.97656 0.53125,1.44532 1.28516,2.65625 2.25781,3.62891 0.97657,0.97656 2.14063,1.71094 3.4961,2.20312 1.35547,0.4961 2.85547,0.74219 4.5039,0.74219 1.67188,0 3.1875,-0.24609 4.54297,-0.74219 m -38.70312,0.32422 h 17.97265 v -2.77343 h -14.97265 v -23.82422 h -3 v 26.59765"
       id="path6"
       inkscape:connector-curvature="0" />
    <path
       style="fill:#211e1e;fill-opacity:1;fill-rule:nonzero;stroke:none"
       d="m 286.0625,284.40234 c 7.16016,0 11.19141,-3.5 13.62109,-7.77734 l -7.9414,-4.48438 c -1.19532,2.14063 -2.71485,3.6211 -5.42969,3.6211 -3.16797,0 -5.39063,-2.63281 -5.39063,-6.37891 v -0.082 c 0,-3.45703 2.13672,-6.29297 5.39063,-6.29297 2.63281,0 4.15234,1.4375 5.22266,3.4961 l 7.9414,-4.64844 c -2.42578,-4.40235 -6.70703,-7.48828 -13.04297,-7.48828 -8.59765,0 -15.30468,6.41797 -15.30468,15.01562 v 0.082 c 0,8.92969 6.95312,14.9375 14.93359,14.9375 z m 16.29297,-0.62109 h 9.6289 v -10.32422 h 8.80469 v 10.32422 h 9.625 v -28.79688 h -9.625 v 10.16016 h -8.80469 v -10.16016 h -9.6289 z m 30.07422,0 h 10.28515 l 1.48047,-3.86719 h 10.08203 l 1.52344,3.86719 H 366.25 l -12.13672,-29.00391 h -9.54687 z m 14.19531,-10.69531 2.63281,-6.99219 2.63281,6.99219 z m 21.64062,10.69531 h 9.42188 v -14.27344 l 6.62109,10.24219 h 0.16797 l 6.6211,-10.24219 v 14.27344 h 9.58593 v -28.79688 h -10.03906 l -6.16797,10.1211 -6.17187,-10.1211 h -10.03907 z m 36.53516,0 h 15.96094 c 7.28125,0 11.0664,-3.37109 11.0664,-7.98047 v -0.082 c 0,-3.94922 -2.38671,-5.92188 -6.08593,-6.99219 3.08203,-1.07031 5.14062,-3.16797 5.14062,-6.58203 v -0.0859 c 0,-1.97265 -0.73828,-3.45312 -1.76953,-4.48437 -1.6875,-1.6836 -4.19531,-2.58985 -8.1875,-2.58985 h -16.125 z m 16.62109,-19.45703 c 0,1.27344 -0.98828,1.97265 -3.04687,1.97265 h -4.19531 v -4.03125 h 4.15625 c 2.05468,0 3.08593,0.69922 3.08593,1.97657 z m 0.73829,9.99609 v 0.082 c 0,1.23438 -1.07032,2.09766 -3.16797,2.09766 h -4.8125 v -4.27734 h 4.85547 c 2.09765,0 3.125,0.86328 3.125,2.09765 z m 12.58984,9.46094 h 24.76953 v -7.89844 h -15.30469 v -3.125 h 14.07032 v -6.95312 h -14.07032 v -2.92188 h 15.09766 v -7.89844 H 434.75 Z m 28.18359,0 h 9.625 v -8.22656 h 2.0586 l 5.42968,8.22656 h 10.98438 l -6.70313,-9.78906 c 3.4961,-1.6875 5.67579,-4.60938 5.67579,-8.80469 v -0.082 c 0,-2.96094 -0.90625,-5.10156 -2.63282,-6.83203 -2.01562,-2.01563 -5.26562,-3.28907 -10.36718,-3.28907 h -14.07032 z m 9.625,-15.09766 v -5.63672 h 4.19922 c 2.21875,0 3.66016,0.90625 3.66016,2.75782 v 0.082 c 0,1.76953 -1.39844,2.79687 -3.70313,2.79687 h -4.15625"
       id="path8"
       inkscape:connector-curvature="0" />
    <path
       style="fill:#211e1e;fill-opacity:1;fill-rule:nonzero;stroke:none"
       d="m 285.74219,328.92187 c 8.76562,0 14.73047,-6.95312 14.73047,-14.89453 v -0.082 c 0,-7.9375 -5.88282,-14.80859 -14.64844,-14.80859 -8.76172,0 -14.72656,6.95312 -14.72656,14.89062 v 0.0859 c 0,7.9375 5.88281,14.80859 14.64453,14.80859 z m 0.082,-3.0039 c -6.58203,0 -11.35156,-5.34766 -11.35156,-11.89063 v -0.082 c 0,-6.53906 4.6875,-11.80469 11.26953,-11.80469 6.58203,0 11.35547,5.34766 11.35547,11.88672 v 0.0859 c 0,6.53906 -4.6875,11.80469 -11.27344,11.80469 z m 20.69531,2.51172 h 3.25 v -12.54688 h 15.59375 v -2.96484 H 309.7695 v -10.28516 h 17.44531 v -3.0039 H 306.5195 Z m 51.17969,0.61718 c 7.16015,0 11.1914,-3.49609 13.61719,-7.77734 l -7.9375,-4.48437 c -1.19532,2.14062 -2.71875,3.62109 -5.4336,3.62109 -3.16797,0 -5.38672,-2.63281 -5.38672,-6.37891 v -0.082 c 0,-3.45312 2.13672,-6.29297 5.38672,-6.29297 2.63281,0 4.15625,1.44141 5.22656,3.4961 L 371.11328,306.5 c -2.42969,-4.40234 -6.70703,-7.48828 -13.04297,-7.48828 -8.59765,0 -15.30469,6.41797 -15.30469,15.01562 v 0.0859 c 0,8.92578 6.95313,14.93359 14.9336,14.93359 z m 30.8164,0 c 8.88672,0 15.75782,-6.66406 15.75782,-15.01953 v -0.082 c 0,-8.35156 -6.78907,-14.93359 -15.67578,-14.93359 -8.88672,0 -15.75782,6.66406 -15.75782,15.01562 v 0.0859 c 0,8.35156 6.78907,14.93359 15.67578,14.93359 z m 0.082,-8.51562 c -3.70313,0 -6.04688,-3.08594 -6.04688,-6.50391 v -0.082 c 0,-3.37109 2.30469,-6.41797 5.96484,-6.41797 3.70313,0 6.04688,3.08594 6.04688,6.5 v 0.0859 c 0,3.37109 -2.30078,6.41797 -5.96484,6.41797 z m 19.46093,7.89844 h 9.42188 v -14.27735 l 6.625,10.2461 h 0.16406 l 6.62109,-10.2461 v 14.27735 h 9.58594 v -28.80078 h -10.03515 l -6.17188,10.12109 -6.17187,-10.12109 h -10.03907 z m 36.86328,0 h 9.42188 v -14.27735 l 6.625,10.2461 h 0.16406 l 6.6211,-10.2461 v 14.27735 h 9.58984 V 299.62891 H 467.30462 L 461.13274,309.75 454.96087,299.62891 H 444.9218 Z m 36.86329,0 h 24.76562 v -7.89844 h -15.30469 v -3.12891 h 14.07032 v -6.95312 h -14.07032 v -2.92188 h 15.10157 v -7.89843 h -24.5625 z m 28.51171,0 h 9.625 v -8.23047 h 2.0586 l 5.42969,8.23047 h 10.98437 l -6.70312,-9.79297 c 3.49609,-1.6875 5.67578,-4.60938 5.67578,-8.80469 v -0.082 c 0,-2.96094 -0.90235,-5.10156 -2.63282,-6.82813 -2.01562,-2.01562 -5.26562,-3.29296 -10.36718,-3.29296 H 510.2968 Z m 9.625,-15.10157 v -5.63671 h 4.19922 c 2.22266,0 3.66016,0.90625 3.66016,2.75781 v 0.082 c 0,1.76953 -1.39844,2.79687 -3.70313,2.79687 z m 35.21875,15.71875 c 7.16016,0 11.19141,-3.49609 13.61719,-7.77734 l -7.9375,-4.48437 c -1.19531,2.14062 -2.71875,3.62109 -5.43359,3.62109 -3.16797,0 -5.39063,-2.63281 -5.39063,-6.37891 v -0.082 c 0,-3.45312 2.14063,-6.29297 5.39063,-6.29297 2.63281,0 4.15625,1.44141 5.22656,3.4961 L 568.55469,306.5 c -2.42969,-4.40234 -6.70703,-7.48828 -13.04297,-7.48828 -8.59766,0 -15.30469,6.41797 -15.30469,15.01562 v 0.0859 c 0,8.92578 6.95313,14.93359 14.93359,14.93359 z m 16.6211,-0.61718 h 24.76953 v -7.89844 h -15.30469 v -3.12891 h 14.07031 v -6.95312 h -14.07031 v -2.92188 h 15.09766 v -7.89843 h -24.5625 v 28.80078"
       id="path10"
       inkscape:connector-curvature="0" />
    <path
       style="fill:#211e1e;fill-opacity:1;fill-rule:nonzero;stroke:none"
       d="m 319.00781,414.77344 h 5.69922 v -4.625 h 1.85156 c 4.60157,0 7.74219,-2.19141 7.74219,-6.30469 v -0.0508 c 0,-4.04297 -3.08984,-6.0625 -7.62109,-6.0625 h -7.67188 z m 5.69922,-8.69141 v -3.79687 h 1.55859 c 1.51172,0 2.41016,0.63281 2.41016,1.875 v 0.0469 c 0,1.21875 -0.97266,1.875 -2.43359,1.875 z m 20.1875,9.05859 c 5.25781,0 9.32422,-3.94531 9.32422,-8.88671 v -0.0508 c 0,-4.9414 -4.01563,-8.83984 -9.27734,-8.83984 -5.25782,0 -9.32422,3.94531 -9.32422,8.89063 v 0.0469 c 0,4.94531 4.01562,8.83984 9.27734,8.83984 z m 0.0469,-5.03906 c -2.19141,0 -3.57813,-1.82812 -3.57813,-3.84765 v -0.0508 c 0,-1.99609 1.36328,-3.79687 3.53125,-3.79687 2.19141,0 3.57813,1.82422 3.57813,3.84766 v 0.0469 c 0,1.99609 -1.36329,3.80078 -3.53125,3.80078 z m 14.95312,4.79688 h 4.96484 l 2.9961,-8.47657 2.99609,8.47657 h 4.96875 l 5.57422,-17.16797 h -5.86719 l -2.41015,8.17969 -2.75391,-8.23047 h -4.91797 l -2.75,8.23047 -2.41406,-8.17969 h -5.96484 z m 22.96094,-0.125 h 14.66015 v -4.67188 h -9.05859 V 408.25 h 8.32813 v -4.11719 h -8.32813 v -1.72656 h 8.9375 v -4.67578 h -14.53906 z m 16.67969,0 h 5.69921 v -4.86719 h 1.21875 l 3.21094,4.86719 h 6.50391 l -3.96875,-5.79297 c 2.07031,-1 3.35937,-2.72656 3.35937,-5.21094 v -0.0508 c 0,-1.75 -0.53515,-3.01953 -1.55859,-4.03906 -1.19141,-1.19532 -3.11719,-1.94922 -6.13672,-1.94922 h -8.32812 z m 5.69921,-8.9336 v -3.33593 h 2.48438 c 1.3125,0 2.16797,0.53515 2.16797,1.6289 v 0.0508 c 0,1.04688 -0.82813,1.65625 -2.19531,1.65625 z m 12.2461,8.9336 h 5.69922 v -17.04297 h -5.69922 z m 8.18359,0 h 5.64844 v -7.86328 l 6.33203,7.86328 h 5.06641 v -17.04297 h -5.65235 v 7.52344 l -6.0625,-7.52344 h -5.33203 z m 28.66016,0.36718 c 3.09375,0 5.67187,-1.04687 7.52344,-2.55468 v -7.89063 h -8.25391 v 3.65235 h 2.92187 v 1.70312 c -0.4375,0.24609 -0.97265,0.39063 -1.94921,0.39063 -2.38672,0 -4.06641,-1.65625 -4.06641,-4.06641 v -0.0508 c 0,-2.3125 1.60937,-4.01563 3.82422,-4.01563 1.41406,0 2.65234,0.53516 3.77344,1.48438 l 3.1914,-3.84766 c -1.85156,-1.60547 -4.21484,-2.58203 -7.13672,-2.58203 -5.3789,0 -9.39843,3.80078 -9.39843,8.89063 v 0.0469 c 0,5.28516 4.26171,8.83984 9.57031,8.83984 z m 19.87109,-2.09375 v -6.01562 h 5.36719 c 1.48828,0 2.61328,0.25781 3.375,0.76953 0.76172,0.50781 1.14062,1.22656 1.14062,2.15234 v 0.0508 c 0,0.95703 -0.37109,1.70312 -1.11328,2.23828 -0.74609,0.53515 -1.76953,0.80468 -3.0625,0.80468 z m 0,-7.74218 v -5.84375 h 5.17188 c 1.21093,0 2.14453,0.25 2.79297,0.75 0.64843,0.5 0.96875,1.17187 0.96875,2.01172 v 0.0508 c 0,1 -0.35938,1.75781 -1.07813,2.26562 -0.72266,0.50781 -1.66406,0.76563 -2.82812,0.76563 z m -1.92578,9.46875 h 7.55859 c 0.92579,0 1.76954,-0.10157 2.53125,-0.31641 0.75782,-0.21094 1.41016,-0.51562 1.95313,-0.91406 0.54297,-0.39844 0.96094,-0.88672 1.25391,-1.46485 0.29296,-0.57421 0.4375,-1.23046 0.4375,-1.96093 v -0.0508 c 0,-0.58204 -0.0977,-1.10157 -0.29297,-1.54688 -0.19532,-0.44922 -0.45313,-0.83203 -0.77735,-1.16016 -0.32422,-0.32421 -0.70703,-0.60546 -1.15625,-0.83984 -0.4414,-0.23828 -0.91797,-0.42578 -1.41797,-0.57422 0.33985,-0.14453 0.66797,-0.32812 0.98438,-0.54687 0.3125,-0.21875 0.60156,-0.48828 0.85937,-0.80078 0.26172,-0.31641 0.46485,-0.69141 0.6211,-1.1211 0.15234,-0.42578 0.23047,-0.91797 0.23047,-1.46875 v -0.0469 c 0,-1.05469 -0.36719,-1.96094 -1.09375,-2.72266 -0.48828,-0.47266 -1.10547,-0.83984 -1.85938,-1.10547 -0.7539,-0.26953 -1.61719,-0.40234 -2.58984,-0.40234 h -7.24219 z m 27.64844,-0.20703 c 0.87109,-0.3125 1.61719,-0.78907 2.24219,-1.42188 0.625,-0.63281 1.10937,-1.42187 1.44921,-2.36328 0.33985,-0.94141 0.51172,-2.03516 0.51172,-3.28516 v -9.76562 h -1.92578 v 9.91015 c 0,1.86719 -0.46094,3.26954 -1.38672,4.21094 -0.92578,0.94531 -2.17578,1.41406 -3.75,1.41406 -1.64062,0 -2.91797,-0.49609 -3.83593,-1.48437 -0.91797,-0.99219 -1.375,-2.41016 -1.375,-4.26172 v -9.78906 h -1.92188 v 9.91015 c 0,1.20313 0.16797,2.26563 0.50781,3.19141 0.34375,0.92578 0.82422,1.69922 1.44922,2.32422 0.625,0.625 1.3711,1.09766 2.24219,1.41016 0.86719,0.32031 1.82812,0.47656 2.88672,0.47656 1.07031,0 2.03906,-0.15625 2.90625,-0.47656 z m 17.30078,0.11328 c 0.71484,-0.23047 1.32812,-0.55469 1.83203,-0.97657 0.50781,-0.42187 0.90625,-0.92968 1.19531,-1.51953 0.28516,-0.59375 0.4336,-1.2539 0.4336,-1.98828 v -0.0469 c 0,-1.29688 -0.45313,-2.32032 -1.35547,-3.06641 -0.89844,-0.74609 -2.30078,-1.33203 -4.19922,-1.75391 -0.94141,-0.19531 -1.71094,-0.40234 -2.3125,-0.62109 -0.60156,-0.21875 -1.07031,-0.46484 -1.41406,-0.73047 -0.33985,-0.26953 -0.57422,-0.5625 -0.70313,-0.8789 C 510.5625,402.78125 510.5,402.42187 510.5,402.01562 v -0.0469 c 0,-0.78125 0.32422,-1.43359 0.97266,-1.96094 0.64843,-0.52734 1.53515,-0.79297 2.65625,-0.79297 0.875,0 1.71484,0.14844 2.51953,0.4375 0.80078,0.29297 1.60156,0.76563 2.39843,1.41407 l 1.11719,-1.48438 c -0.875,-0.69922 -1.78125,-1.22266 -2.71484,-1.57031 -0.92969,-0.35156 -2.02344,-0.52344 -3.27344,-0.52344 -0.8125,0 -1.55859,0.11719 -2.23828,0.35156 -0.68359,0.23438 -1.27734,0.5586 -1.78125,0.97266 -0.5,0.41406 -0.89063,0.90625 -1.16797,1.47266 -0.27344,0.57031 -0.41406,1.1875 -0.41406,1.85156 v 0.0508 c 0,0.69531 0.11328,1.30469 0.34375,1.82422 0.22656,0.51953 0.57812,0.97265 1.04687,1.36328 0.47266,0.39062 1.07032,0.72266 1.79688,1 0.72265,0.27734 1.57422,0.51953 2.55078,0.73047 0.89453,0.19531 1.62891,0.39844 2.20703,0.60937 0.57813,0.21094 1.03125,0.44532 1.35547,0.70703 0.32422,0.25782 0.55469,0.54688 0.68359,0.86329 0.12891,0.3164 0.19532,0.66796 0.19532,1.05859 v 0.0469 c 0,0.84766 -0.34375,1.53907 -1.03516,2.08204 -0.69141,0.54687 -1.60938,0.8164 -2.76563,0.8164 -1.18359,0 -2.23046,-0.19922 -3.14062,-0.59765 -0.90625,-0.39454 -1.80859,-1 -2.70313,-1.8125 l -1.1914,1.41406 c 1.02344,0.92578 2.09765,1.60937 3.22656,2.05469 1.12891,0.44921 2.375,0.67187 3.73828,0.67187 0.84375,0 1.6211,-0.11328 2.33594,-0.33984 z m 7.89062,0.0937 h 1.92188 v -17.04297 h -1.92188 z m 7.25391,0 h 1.875 v -13.97657 l 11.00781,13.97657 h 1.53516 v -17.04297 h -1.875 v 13.66015 l -10.73828,-13.66015 h -1.80469 z m 19.57813,0 h 12.44531 v -1.72657 h -10.51953 v -5.99218 h 9.30078 v -1.72657 h -9.30078 v -5.86718 h 10.39843 v -1.73047 h -12.32421 z m 24.86328,-0.0937 c 0.71484,-0.23047 1.32422,-0.55469 1.83203,-0.97657 0.5039,-0.42187 0.90234,-0.92968 1.1914,-1.51953 0.28907,-0.59375 0.4336,-1.2539 0.4336,-1.98828 v -0.0469 c 0,-1.29688 -0.44922,-2.32032 -1.35156,-3.06641 -0.90235,-0.74609 -2.30079,-1.33203 -4.19922,-1.75391 -0.94141,-0.19531 -1.71485,-0.40234 -2.3125,-0.62109 -0.60157,-0.21875 -1.07422,-0.46484 -1.41407,-0.73047 -0.33984,-0.26953 -0.57812,-0.5625 -0.70703,-0.8789 -0.1289,-0.31641 -0.19531,-0.67579 -0.19531,-1.08204 v -0.0469 c 0,-0.78125 0.32422,-1.43359 0.97656,-1.96094 0.64844,-0.52734 1.53125,-0.79297 2.65235,-0.79297 0.8789,0 1.71875,0.14844 2.51953,0.4375 0.80469,0.29297 1.60547,0.76563 2.39844,1.41407 l 1.12109,-1.48438 c -0.875,-0.69922 -1.78125,-1.22266 -2.71484,-1.57031 -0.9336,-0.35156 -2.02344,-0.52344 -3.27344,-0.52344 -0.8125,0 -1.5586,0.11719 -2.24219,0.35156 -0.67969,0.23438 -1.27344,0.5586 -1.77734,0.97266 -0.50391,0.41406 -0.89453,0.90625 -1.16797,1.47266 -0.27735,0.57031 -0.41406,1.1875 -0.41406,1.85156 v 0.0508 c 0,0.69531 0.11328,1.30469 0.33984,1.82422 0.23047,0.51953 0.57812,0.97265 1.05078,1.36328 0.47266,0.39062 1.07031,0.72266 1.79297,1 0.72656,0.27734 1.57422,0.51953 2.55078,0.73047 0.89453,0.19531 1.63281,0.39844 2.21094,0.60937 0.57812,0.21094 1.02734,0.44532 1.35547,0.70703 0.32422,0.25782 0.55078,0.54688 0.68359,0.86329 0.12891,0.3164 0.19531,0.66796 0.19531,1.05859 v 0.0469 c 0,0.84766 -0.34765,1.53907 -1.03515,2.08204 -0.69141,0.54687 -1.61328,0.8164 -2.76563,0.8164 -1.18359,0 -2.23047,-0.19922 -3.14062,-0.59765 -0.91016,-0.39454 -1.8086,-1 -2.70313,-1.8125 l -1.1914,1.41406 c 1.01953,0.92578 2.09765,1.60937 3.22656,2.05469 1.125,0.44921 2.37109,0.67187 3.73437,0.67187 0.84375,0 1.625,-0.11328 2.33985,-0.33984 z m 15.92578,0 c 0.71094,-0.23047 1.32422,-0.55469 1.83203,-0.97657 0.50391,-0.42187 0.90234,-0.92968 1.19141,-1.51953 0.28906,-0.59375 0.43359,-1.2539 0.43359,-1.98828 v -0.0469 c 0,-1.29688 -0.45313,-2.32032 -1.35156,-3.06641 -0.90235,-0.74609 -2.30078,-1.33203 -4.19922,-1.75391 -0.94531,-0.19531 -1.71485,-0.40234 -2.31641,-0.62109 -0.59765,-0.21875 -1.07031,-0.46484 -1.41015,-0.73047 -0.34375,-0.26953 -0.57813,-0.5625 -0.70704,-0.8789 -0.1289,-0.31641 -0.19531,-0.67579 -0.19531,-1.08204 v -0.0469 c 0,-0.78125 0.32422,-1.43359 0.97266,-1.96094 0.65234,-0.52734 1.53515,-0.79297 2.65625,-0.79297 0.875,0 1.71484,0.14844 2.51953,0.4375 0.80469,0.29297 1.60547,0.76563 2.39844,1.41407 l 1.12109,-1.48438 c -0.875,-0.69922 -1.78125,-1.22266 -2.71484,-1.57031 -0.9336,-0.35156 -2.02735,-0.52344 -3.27735,-0.52344 -0.8125,0 -1.55468,0.11719 -2.23828,0.35156 -0.68359,0.23438 -1.27344,0.5586 -1.77734,0.97266 -0.50391,0.41406 -0.89453,0.90625 -1.17188,1.47266 -0.27343,0.57031 -0.41015,1.1875 -0.41015,1.85156 v 0.0508 c 0,0.69531 0.11328,1.30469 0.33984,1.82422 0.22656,0.51953 0.57813,0.97265 1.05078,1.36328 0.46875,0.39062 1.07031,0.72266 1.79297,1 0.72266,0.27734 1.57422,0.51953 2.55078,0.73047 0.89453,0.19531 1.63281,0.39844 2.21094,0.60937 0.57422,0.21094 1.02734,0.44532 1.35156,0.70703 0.32813,0.25782 0.55469,0.54688 0.6836,0.86329 0.13281,0.3164 0.19531,0.66796 0.19531,1.05859 v 0.0469 c 0,0.84766 -0.34375,1.53907 -1.03516,2.08204 -0.6875,0.54687 -1.60937,0.8164 -2.76172,0.8164 -1.1875,0 -2.23437,-0.19922 -3.14062,-0.59765 -0.91016,-0.39454 -1.8125,-1 -2.70313,-1.8125 l -1.19531,1.41406 c 1.02344,0.92578 2.09766,1.60937 3.22656,2.05469 1.12891,0.44921 2.375,0.67187 3.73828,0.67187 0.84375,0 1.625,-0.11328 2.33985,-0.33984"
       id="path12"
       inkscape:connector-curvature="0" />
  </g>
</svg>
