<?xml version="1.0" encoding="UTF-8" standalone="no"?><!DOCTYPE svg PUBLIC "-//W3C//DTD SVG 1.1//EN" "http://www.w3.org/Graphics/SVG/1.1/DTD/svg11.dtd"><svg width="100%" height="100%" viewBox="0 0 208 112" version="1.1" xmlns="http://www.w3.org/2000/svg" xmlns:xlink="http://www.w3.org/1999/xlink" xml:space="preserve" xmlns:serif="http://www.serif.com/" style="fill-rule:evenodd;clip-rule:evenodd;stroke-linejoin:round;stroke-miterlimit:2;"><g><path d="M135.296,0.377c-74.722,0 -135.296,26.493 -135.296,59.172c0,22.787 29.459,42.564 72.625,52.451c-30.926,-10.846 -50.733,-27.504 -50.733,-46.189c0,-32.68 60.574,-59.172 135.299,-59.172c17.601,0 34.41,1.477 49.834,4.153l0,-1.413c-20.795,-5.699 -45.375,-9.002 -71.729,-9.002Z" style="fill:#58595b;fill-rule:nonzero;"/><path d="M83.129,52.167c-0.111,1.633 -0.741,2.932 -1.89,3.896c-1.149,0.964 -2.648,1.445 -4.497,1.445c-2.129,0 -3.784,-0.664 -4.966,-1.992c-1.182,-1.328 -1.773,-3.19 -1.773,-5.586c0,-2.448 0.602,-4.323 1.807,-5.625c1.205,-1.302 2.936,-1.953 5.195,-1.953c1.836,0 3.287,0.447 4.351,1.343c1.064,0.895 1.649,2.16 1.753,3.794l-2.92,0c-0.124,-0.814 -0.456,-1.434 -0.996,-1.861c-0.541,-0.426 -1.27,-0.639 -2.188,-0.639c-1.302,0 -2.291,0.42 -2.968,1.26c-0.678,0.839 -1.016,2.067 -1.016,3.681c0,1.563 0.337,2.771 1.011,3.623c0.674,0.853 1.632,1.28 2.876,1.28c0.898,0 1.634,-0.23 2.207,-0.689c0.573,-0.459 0.944,-1.118 1.113,-1.977l2.901,0Z" style="fill:#58595b;fill-rule:nonzero;"/><path d="M87.332,57.108l0,-14.385l2.979,0l0,5.361l5.937,0l0,-5.361l2.979,0l0,14.385l-2.979,0l0,-6.377l-5.937,0l0,6.377l-2.979,0Z" style="fill:#58595b;fill-rule:nonzero;"/><path d="M109.387,45.604l-1.992,6.123l3.994,0l-2.002,-6.123Zm-1.719,-2.881l3.418,0l5.186,14.385l-3.106,0l-0.976,-2.959l-5.576,0l-0.948,2.959l-3.115,0l5.117,-14.385Z" style="fill:#58595b;fill-rule:nonzero;"/><path d="M119.596,57.108l0,-14.385l4.375,0l2.861,10.947l2.823,-10.947l4.394,0l0,14.385l-2.773,0l0,-11.602l-2.92,11.602l-3.027,0l-2.959,-11.602l0,11.602l-2.774,0Z" style="fill:#58595b;fill-rule:nonzero;"/><path d="M141.71,54.51l3.506,0c0.827,0 1.429,-0.149 1.807,-0.449c0.378,-0.3 0.566,-0.771 0.566,-1.416c0,-0.671 -0.185,-1.154 -0.556,-1.45c-0.371,-0.296 -0.984,-0.444 -1.836,-0.444l-3.487,0l0,3.759Zm0,-6.22l3.379,0c0.73,0 1.263,-0.125 1.602,-0.376c0.339,-0.251 0.508,-0.647 0.508,-1.187c0,-0.527 -0.164,-0.91 -0.493,-1.147c-0.33,-0.238 -0.875,-0.357 -1.636,-0.357l-3.36,0l0,3.067Zm-2.832,8.818l0,-14.385l6.778,0c1.471,0 2.592,0.311 3.364,0.933c0.771,0.622 1.157,1.525 1.157,2.71c0,0.729 -0.143,1.338 -0.429,1.826c-0.287,0.488 -0.716,0.866 -1.29,1.133c0.743,0.3 1.297,0.73 1.665,1.294c0.369,0.563 0.552,1.264 0.552,2.104c0,1.4 -0.456,2.481 -1.367,3.242c-0.911,0.762 -2.204,1.143 -3.877,1.143l-6.553,0Z" style="fill:#58595b;fill-rule:nonzero;"/><path d="M157.759,49.012l3.477,0c0.755,0 1.31,-0.153 1.665,-0.459c0.354,-0.305 0.532,-0.788 0.532,-1.445c0,-0.625 -0.173,-1.099 -0.518,-1.421c-0.344,-0.322 -0.859,-0.483 -1.542,-0.483l-3.614,0l0,3.808Zm-2.959,8.096l0,-14.385l6.973,0c1.569,0 2.731,0.335 3.486,1.006c0.755,0.671 1.133,1.696 1.133,3.076c0,0.879 -0.184,1.612 -0.552,2.197c-0.368,0.586 -0.896,0.987 -1.587,1.202c0.625,0.221 1.07,0.559 1.333,1.015c0.264,0.456 0.415,1.165 0.454,2.129l0.059,1.699l0,0.059c0.02,0.859 0.205,1.38 0.557,1.562l0,0.44l-3.242,0c-0.105,-0.202 -0.184,-0.451 -0.24,-0.747c-0.055,-0.296 -0.089,-0.65 -0.102,-1.06l-0.039,-1.513c-0.033,-0.892 -0.201,-1.495 -0.503,-1.807c-0.303,-0.313 -0.848,-0.469 -1.636,-0.469l-3.135,0l0,5.596l-2.959,0Z" style="fill:#58595b;fill-rule:nonzero;"/><path d="M170.917,57.108l0,-14.385l10.45,0l0,2.5l-7.53,0l0,3.067l6.884,0l0,2.461l-6.884,0l0,3.701l7.881,0l0,2.656l-10.801,0Z" style="fill:#58595b;fill-rule:nonzero;"/><path d="M192.723,55.419l1.543,0c0.893,0 1.539,-0.233 1.94,-0.701c0.399,-0.467 0.599,-1.226 0.599,-2.276c0,-1.045 -0.186,-1.813 -0.558,-2.304c-0.373,-0.491 -0.955,-0.736 -1.747,-0.736l-1.777,0l0,6.017Zm-1.885,1.689l0,-9.35l3.662,0c1.436,0 2.505,0.387 3.209,1.161c0.705,0.775 1.057,1.949 1.057,3.523c0,0.855 -0.13,1.608 -0.39,2.26c-0.26,0.652 -0.637,1.176 -1.133,1.574c-0.372,0.297 -0.795,0.51 -1.27,0.639c-0.474,0.128 -1.138,0.193 -1.992,0.193l-3.143,0Z" style="fill:#58595b;fill-rule:nonzero;"/><path d="M200.887,57.108l0,-9.35l6.792,0l0,1.625l-4.893,0l0,1.993l4.473,0l0,1.599l-4.473,0l0,2.406l5.122,0l0,1.727l-7.021,0Z" style="fill:#58595b;fill-rule:nonzero;"/><path d="M83.129,74.166c-0.111,1.635 -0.741,2.934 -1.89,3.897c-1.149,0.964 -2.648,1.445 -4.497,1.445c-2.129,0 -3.784,-0.664 -4.966,-1.992c-1.182,-1.328 -1.773,-3.19 -1.773,-5.586c0,-2.448 0.602,-4.323 1.807,-5.625c1.205,-1.301 2.936,-1.953 5.195,-1.953c1.836,0 3.287,0.447 4.351,1.343c1.064,0.895 1.649,2.16 1.753,3.793l-2.92,0c-0.124,-0.812 -0.456,-1.433 -0.996,-1.859c-0.541,-0.428 -1.27,-0.641 -2.188,-0.641c-1.302,0 -2.291,0.42 -2.968,1.26c-0.678,0.84 -1.016,2.068 -1.016,3.682c0,1.562 0.337,2.771 1.011,3.623c0.674,0.853 1.632,1.279 2.876,1.279c0.898,0 1.634,-0.228 2.207,-0.687c0.573,-0.459 0.944,-1.12 1.113,-1.979l2.901,0Z" style="fill:#58595b;fill-rule:nonzero;"/><path d="M90.545,71.93c0,1.582 0.352,2.81 1.055,3.687c0.703,0.875 1.686,1.313 2.949,1.313c1.276,0 2.268,-0.438 2.978,-1.313c0.71,-0.877 1.065,-2.105 1.065,-3.687c0,-1.582 -0.355,-2.811 -1.065,-3.686c-0.71,-0.877 -1.702,-1.314 -2.978,-1.314c-1.263,0 -2.246,0.437 -2.949,1.308c-0.703,0.873 -1.055,2.104 -1.055,3.692Zm-3.018,0c0,-2.325 0.633,-4.168 1.9,-5.532c1.266,-1.365 2.973,-2.046 5.122,-2.046c2.148,0 3.859,0.683 5.132,2.05c1.273,1.368 1.909,3.211 1.909,5.528c0,2.318 -0.636,4.16 -1.909,5.527c-1.273,1.367 -2.984,2.051 -5.132,2.051c-2.149,0 -3.856,-0.684 -5.122,-2.051c-1.267,-1.367 -1.9,-3.209 -1.9,-5.527Z" style="fill:#58595b;fill-rule:nonzero;"/><path d="M106.594,79.107l0,-14.384l4.375,0l2.862,10.947l2.822,-10.947l4.394,0l0,14.384l-2.773,0l0,-11.601l-2.92,11.601l-3.027,0l-2.959,-11.601l0,11.601l-2.774,0Z" style="fill:#58595b;fill-rule:nonzero;"/><path d="M126.696,79.107l0,-14.384l4.375,0l2.861,10.947l2.822,-10.947l4.395,0l0,14.384l-2.773,0l0,-11.601l-2.92,11.601l-3.028,0l-2.96,-11.601l0,11.601l-2.772,0Z" style="fill:#58595b;fill-rule:nonzero;"/><path d="M146.796,79.107l0,-14.384l10.45,0l0,2.5l-7.53,0l0,3.066l6.884,0l0,2.461l-6.884,0l0,3.701l7.881,0l0,2.656l-10.801,0Z" style="fill:#58595b;fill-rule:nonzero;"/><path d="M165.472,71.012l3.477,0c0.755,0 1.31,-0.153 1.665,-0.459c0.354,-0.305 0.532,-0.787 0.532,-1.446c0,-0.625 -0.173,-1.097 -0.518,-1.419c-0.344,-0.323 -0.859,-0.485 -1.543,-0.485l-3.613,0l0,3.809Zm-2.959,8.095l0,-14.384l6.973,0c1.569,0 2.731,0.336 3.486,1.006c0.755,0.671 1.133,1.697 1.133,3.076c0,0.879 -0.184,1.611 -0.552,2.197c-0.368,0.586 -0.896,0.986 -1.587,1.201c0.625,0.223 1.07,0.561 1.333,1.016c0.264,0.457 0.415,1.166 0.454,2.129l0.059,1.699l0,0.058c0.019,0.86 0.205,1.381 0.557,1.563l0,0.439l-3.243,0c-0.104,-0.201 -0.183,-0.451 -0.239,-0.746c-0.056,-0.297 -0.09,-0.65 -0.102,-1.06l-0.039,-1.514c-0.033,-0.89 -0.201,-1.494 -0.503,-1.807c-0.303,-0.312 -0.848,-0.468 -1.636,-0.468l-3.135,0l0,5.595l-2.959,0Z" style="fill:#58595b;fill-rule:nonzero;"/><path d="M191.97,74.166c-0.11,1.635 -0.74,2.934 -1.889,3.897c-1.15,0.964 -2.649,1.445 -4.498,1.445c-2.128,0 -3.784,-0.664 -4.965,-1.992c-1.182,-1.328 -1.773,-3.19 -1.773,-5.586c0,-2.448 0.603,-4.323 1.807,-5.625c1.204,-1.301 2.936,-1.953 5.195,-1.953c1.836,0 3.286,0.447 4.351,1.343c1.064,0.895 1.648,2.16 1.753,3.793l-2.92,0c-0.124,-0.812 -0.456,-1.433 -0.996,-1.859c-0.54,-0.428 -1.27,-0.641 -2.188,-0.641c-1.302,0 -2.292,0.42 -2.969,1.26c-0.676,0.84 -1.015,2.068 -1.015,3.682c0,1.562 0.337,2.771 1.01,3.623c0.674,0.853 1.633,1.279 2.876,1.279c0.899,0 1.634,-0.228 2.207,-0.687c0.574,-0.459 0.945,-1.12 1.114,-1.979l2.9,0Z" style="fill:#58595b;fill-rule:nonzero;"/><path d="M196.994,79.107l0,-14.384l10.449,0l0,2.5l-7.529,0l0,3.066l6.883,0l0,2.461l-6.883,0l0,3.701l7.88,0l0,2.656l-10.8,0Z" style="fill:#58595b;fill-rule:nonzero;"/><path d="M70.238,97.107l0,-10.789l2.219,0l0,8.797l5.266,0l0,1.992l-7.485,0Z" style="fill:#58595b;fill-rule:nonzero;"/><path d="M82.488,86.289l2.242,0l0,6.768c0,0.836 0.165,1.445 0.499,1.828c0.33,0.383 0.857,0.574 1.582,0.574c0.732,0 1.265,-0.189 1.599,-0.57c0.334,-0.381 0.502,-0.991 0.502,-1.832l0,-6.768l2.219,0l0,7.01c0,1.324 -0.369,2.34 -1.109,3.047c-0.741,0.709 -1.805,1.062 -3.198,1.062c-1.402,0 -2.474,-0.353 -3.219,-1.058c-0.744,-0.705 -1.117,-1.723 -1.117,-3.051l0,-7.01Z" style="fill:#58595b;fill-rule:nonzero;"/><path d="M95.735,97.107l3.392,-5.507l-3.392,-5.282l2.564,0l2.205,3.774l2.19,-3.774l2.578,0l-3.391,5.268l3.391,5.521l-2.564,0l-2.204,-3.734l-2.205,3.734l-2.564,0Z" style="fill:#58595b;fill-rule:nonzero;"/><path d="M109.926,97.107l0,-10.789l7.837,0l0,1.875l-5.647,0l0,2.301l5.163,0l0,1.846l-5.163,0l0,2.775l5.911,0l0,1.992l-8.101,0Z" style="fill:#58595b;fill-rule:nonzero;"/><path d="M123.333,97.107l0,-10.789l3.282,0l2.146,8.211l2.116,-8.211l3.296,0l0,10.789l-2.08,0l0,-8.701l-2.189,8.701l-2.272,0l-2.218,-8.701l0,8.701l-2.081,0Z" style="fill:#58595b;fill-rule:nonzero;"/><path d="M142.154,95.16l2.63,0c0.619,0 1.071,-0.113 1.354,-0.338c0.283,-0.224 0.425,-0.578 0.425,-1.062c0,-0.502 -0.139,-0.865 -0.418,-1.086c-0.277,-0.223 -0.737,-0.334 -1.377,-0.334l-2.614,0l0,2.82Zm0,-4.666l2.534,0c0.547,0 0.947,-0.094 1.201,-0.281c0.254,-0.19 0.381,-0.484 0.381,-0.891c0,-0.396 -0.123,-0.681 -0.37,-0.861c-0.246,-0.178 -0.655,-0.268 -1.227,-0.268l-2.519,0l0,2.301Zm-2.124,6.613l0,-10.789l5.083,0c1.103,0 1.944,0.235 2.523,0.702c0.578,0.464 0.868,1.142 0.868,2.031c0,0.547 -0.108,1.004 -0.322,1.369c-0.216,0.367 -0.538,0.65 -0.967,0.85c0.557,0.226 0.973,0.548 1.248,0.97c0.277,0.424 0.414,0.949 0.414,1.578c0,1.051 -0.341,1.862 -1.025,2.432c-0.684,0.572 -1.653,0.857 -2.908,0.857l-4.914,0Z" style="fill:#58595b;fill-rule:nonzero;"/><path d="M156.001,91.725c0,1.185 0.264,2.107 0.791,2.765c0.528,0.657 1.264,0.985 2.211,0.985c0.957,0 1.703,-0.328 2.235,-0.985c0.532,-0.658 0.799,-1.58 0.799,-2.765c0,-1.188 -0.267,-2.108 -0.799,-2.766c-0.532,-0.656 -1.278,-0.984 -2.235,-0.984c-0.947,0 -1.683,0.328 -2.211,0.98c-0.527,0.656 -0.791,1.578 -0.791,2.77Zm-2.263,0c0,-1.745 0.474,-3.127 1.425,-4.149c0.949,-1.023 2.229,-1.535 3.84,-1.535c1.612,0 2.895,0.512 3.85,1.537c0.954,1.026 1.432,2.408 1.432,4.147c0,1.738 -0.478,3.119 -1.432,4.144c-0.955,1.026 -2.238,1.539 -3.85,1.539c-1.611,0 -2.891,-0.513 -3.84,-1.539c-0.951,-1.025 -1.425,-2.406 -1.425,-4.144Z" style="fill:#58595b;fill-rule:nonzero;"/><path d="M169.59,86.289l2.242,0l0,6.768c0,0.836 0.166,1.445 0.499,1.828c0.331,0.383 0.858,0.574 1.582,0.574c0.732,0 1.265,-0.189 1.599,-0.57c0.335,-0.381 0.502,-0.991 0.502,-1.832l0,-6.768l2.219,0l0,7.01c0,1.324 -0.369,2.34 -1.11,3.047c-0.739,0.709 -1.804,1.062 -3.197,1.062c-1.401,0 -2.473,-0.353 -3.219,-1.058c-0.744,-0.705 -1.117,-1.723 -1.117,-3.051l0,-7.01Z" style="fill:#58595b;fill-rule:nonzero;"/><path d="M186.243,91.035l2.607,0c0.566,0 0.983,-0.113 1.249,-0.344c0.267,-0.228 0.399,-0.589 0.399,-1.084c0,-0.468 -0.129,-0.824 -0.388,-1.064c-0.259,-0.242 -0.645,-0.363 -1.156,-0.363l-2.711,0l0,2.855Zm-2.219,6.072l0,-10.789l5.229,0c1.177,0 2.048,0.252 2.615,0.756c0.566,0.502 0.849,1.272 0.849,2.307c0,0.658 -0.137,1.209 -0.413,1.648c-0.276,0.44 -0.673,0.739 -1.19,0.901c0.468,0.166 0.801,0.42 1,0.761c0.197,0.342 0.31,0.875 0.34,1.596l0.044,1.276l0,0.042c0.014,0.645 0.154,1.038 0.417,1.172l0,0.33l-2.431,0c-0.078,-0.15 -0.138,-0.337 -0.18,-0.56c-0.041,-0.221 -0.067,-0.486 -0.077,-0.795l-0.029,-1.135c-0.025,-0.668 -0.15,-1.121 -0.377,-1.355c-0.227,-0.235 -0.636,-0.352 -1.227,-0.352l-2.351,0l0,4.197l-2.219,0Z" style="fill:#58595b;fill-rule:nonzero;"/><path d="M206.111,95.834c-0.401,0.541 -0.856,0.939 -1.366,1.193c-0.51,0.254 -1.11,0.381 -1.798,0.381c-1.509,0 -2.731,-0.523 -3.666,-1.57c-0.935,-1.049 -1.403,-2.424 -1.403,-4.129c0,-1.717 0.466,-3.092 1.399,-4.123c0.932,-1.029 2.176,-1.545 3.728,-1.545c1.353,0 2.456,0.324 3.311,0.971c0.854,0.646 1.362,1.537 1.523,2.67l-2.263,0c-0.137,-0.563 -0.416,-0.991 -0.838,-1.284c-0.423,-0.293 -0.974,-0.439 -1.653,-0.439c-0.903,0 -1.612,0.332 -2.127,0.994c-0.515,0.66 -0.773,1.576 -0.773,2.742c0,1.172 0.269,2.09 0.807,2.754c0.536,0.664 1.273,0.996 2.211,0.996c0.703,0 1.292,-0.207 1.765,-0.623c0.474,-0.414 0.767,-0.982 0.879,-1.707l-2.446,0l0,-1.845l4.468,0l0,5.837l-1.487,0l-0.271,-1.273Z" style="fill:#58595b;fill-rule:nonzero;"/></g></svg>