<svg xmlns="http://www.w3.org/2000/svg" width="477.026" height="257.146" viewBox="0 0 357.77 192.859" version="1.2"><path style="fill:#ff6b2b;fill-opacity:1;fill-rule:nonzero;stroke:none" d="M523.953 283.578h-8v-53.297h-53v-8h61v61.297M299.883 360.91h-61.121v-61.36h8v53.36h53.12v8M591.773 370.285c1.813-.797 3.336-1.754 4.579-2.867v-10.602h-10.98v2.7h8.093v6.609c-.914.734-2.04 1.363-3.383 1.883-1.344.52-2.773.777-4.293.777-1.625 0-3.078-.277-4.371-.836a9.552 9.552 0 0 1-3.305-2.316c-.914-.988-1.617-2.153-2.11-3.496-.495-1.344-.741-2.813-.741-4.41v-.075c0-1.468.254-2.87.761-4.199a10.948 10.948 0 0 1 2.09-3.476 9.807 9.807 0 0 1 3.192-2.356c1.242-.582 2.593-.875 4.066-.875.938 0 1.79.074 2.563.227.773.152 1.484.363 2.129.629.648.265 1.246.582 1.804.949.559.367 1.09.777 1.598 1.234l1.937-2.277a18.69 18.69 0 0 0-2.035-1.504 12.485 12.485 0 0 0-2.238-1.121c-.8-.305-1.66-.531-2.586-.684a18.909 18.909 0 0 0-3.059-.226c-2.004 0-3.82.375-5.453 1.12-1.633.747-3.035 1.755-4.199 3.02a13.853 13.853 0 0 0-2.719 4.39 14.295 14.295 0 0 0-.968 5.224v.078c0 1.898.312 3.68.933 5.34.617 1.66 1.52 3.109 2.695 4.347 1.18 1.242 2.598 2.219 4.258 2.93 1.66.707 3.54 1.062 5.645 1.062 2.254 0 4.285-.398 6.097-1.199m-45.921.742h3v-10.336h7.601l7.711 10.336h3.688l-8.168-10.867c1.039-.176 2-.476 2.886-.894a8.093 8.093 0 0 0 2.297-1.594 6.808 6.808 0 0 0 1.504-2.281c.356-.875.531-1.868.531-2.985v-.074c0-1.062-.175-2.039-.53-2.926a6.84 6.84 0 0 0-1.52-2.316c-.836-.836-1.895-1.488-3.176-1.957-1.278-.469-2.742-.703-4.387-.703h-11.437zm3-13.035v-10.789h8.23c2.156 0 3.832.461 5.027 1.387 1.196.926 1.79 2.21 1.79 3.855v.078c0 .86-.169 1.625-.512 2.297a5.023 5.023 0 0 1-1.43 1.711c-.61.469-1.332.828-2.172 1.082-.84.254-1.754.38-2.742.38zm-16.66 12.711a9.314 9.314 0 0 0 3.496-2.223c.972-.988 1.726-2.214 2.257-3.683.535-1.469.801-3.18.801-5.133V344.43h-3.004v15.465c0 2.914-.722 5.105-2.164 6.574-1.445 1.468-3.394 2.203-5.851 2.203-2.563 0-4.555-.774-5.989-2.317-1.43-1.546-2.144-3.761-2.144-6.652V344.43h-3.004v15.465c0 1.875.265 3.535.8 4.976.532 1.445 1.286 2.656 2.258 3.629a9.417 9.417 0 0 0 3.497 2.203c1.355.496 2.859.742 4.503.742 1.672 0 3.188-.246 4.543-.742m-29.586-.34c1.672-.746 3.106-1.75 4.297-3.004a13.543 13.543 0 0 0 2.774-4.386c.656-1.672.988-3.422.988-5.246.023-.024.023-.047 0-.075 0-1.824-.324-3.566-.969-5.226a13.321 13.321 0 0 0-2.757-4.367c-1.192-1.254-2.614-2.25-4.274-2.985-1.66-.734-3.504-1.101-5.527-1.101-2.028 0-3.88.375-5.551 1.12-1.672.747-3.102 1.747-4.293 3a13.43 13.43 0 0 0-2.773 4.391 14.14 14.14 0 0 0-.989 5.243v.078c0 1.824.324 3.566.969 5.222a13.225 13.225 0 0 0 2.754 4.371c1.191 1.254 2.617 2.25 4.277 2.985 1.657.734 3.5 1.101 5.528 1.101 2.027 0 3.875-.375 5.546-1.12m-9.667-2.528a10.55 10.55 0 0 1-3.329-2.356 10.606 10.606 0 0 1-2.183-3.476c-.52-1.332-.778-2.758-.778-4.277v-.075c0-1.52.258-2.937.778-4.257a10.958 10.958 0 0 1 2.148-3.458 9.85 9.85 0 0 1 3.285-2.335c1.282-.57 2.68-.856 4.2-.856s2.918.293 4.199.875a10.578 10.578 0 0 1 3.324 2.356 10.64 10.64 0 0 1 2.188 3.476 11.71 11.71 0 0 1 .777 4.274v.078c0 1.52-.262 2.937-.777 4.254a11.074 11.074 0 0 1-2.149 3.46 9.89 9.89 0 0 1-3.285 2.336c-1.281.57-2.68.856-4.2.856-1.523 0-2.921-.293-4.198-.875m-35.665 3.191h11.797c1.442 0 2.758-.164 3.946-.496 1.187-.328 2.207-.804 3.054-1.426a6.408 6.408 0 0 0 1.953-2.285c.454-.898.68-1.922.68-3.062v-.074c0-.914-.148-1.72-.453-2.418-.305-.7-.707-1.301-1.215-1.809a7.35 7.35 0 0 0-1.8-1.312 11.672 11.672 0 0 0-2.22-.899 8.727 8.727 0 0 0 1.536-.851 6.53 6.53 0 0 0 1.344-1.25 5.801 5.801 0 0 0 .968-1.747c.239-.668.36-1.433.36-2.293v-.078c0-1.644-.57-3.058-1.707-4.246-.758-.734-1.727-1.308-2.903-1.726-1.175-.418-2.52-.625-4.039-.625h-11.3zm3.004-14.78v-9.122h8.07c1.895 0 3.348.39 4.36 1.176 1.008.781 1.516 1.828 1.516 3.14v.075c0 1.562-.563 2.746-1.688 3.539-1.125.793-2.598 1.191-4.414 1.191zm0 12.081v-9.383h8.375c2.325 0 4.082.399 5.27 1.196 1.187.796 1.781 1.918 1.781 3.363v.074c0 1.496-.582 2.66-1.742 3.496-1.164.836-2.758 1.254-4.777 1.254zm-35.988 2.7h2.926v-21.509l9.691 14.211h.153l9.687-14.25v21.547h3.004V344.43h-3.04l-9.69 14.515-9.692-14.515h-3.039zm-25.46 0h19.417v-2.7h-16.414v-9.348h14.516v-2.695h-14.516v-9.16h16.227v-2.695h-19.23zm-29.563 0h3.457l8.511-11.438 8.512 11.437h3.574l-10.222-13.601 9.843-12.996h-3.496l-8.093 10.867-8.172-10.867h-3.535l9.843 13.03zm-11.645-.325a9.345 9.345 0 0 0 3.496-2.223c.973-.988 1.727-2.214 2.262-3.683.531-1.469.797-3.18.797-5.133V344.43h-3.004v15.464c0 2.915-.723 5.106-2.164 6.575-1.445 1.468-3.399 2.203-5.852 2.203-2.562 0-4.554-.774-5.984-2.317-1.434-1.546-2.149-3.761-2.149-6.652V344.43h-3.003v15.464c0 1.875.265 3.536.8 4.977.532 1.445 1.285 2.656 2.258 3.629a9.417 9.417 0 0 0 3.496 2.203c1.356.496 2.856.742 4.504.742 1.672 0 3.188-.246 4.543-.742m-38.703.324h17.973v-2.773h-14.973V344.43h-3v26.597" transform="translate(-238.762 -222.281)"/><path style="fill:#211e1e;fill-opacity:1;fill-rule:nonzero;stroke:none" d="M286.063 284.402c7.16 0 11.19-3.5 13.62-7.777l-7.94-4.484c-1.196 2.14-2.716 3.62-5.43 3.62-3.168 0-5.391-2.632-5.391-6.378v-.082c0-3.457 2.137-6.293 5.39-6.293 2.633 0 4.153 1.437 5.223 3.496l7.942-4.649c-2.426-4.402-6.707-7.488-13.043-7.488-8.598 0-15.305 6.418-15.305 15.016v.082c0 8.93 6.953 14.937 14.933 14.937zm16.292-.62h9.63v-10.325h8.804v10.324h9.625v-28.797h-9.625v10.16h-8.805v-10.16h-9.629zm30.075 0h10.285l1.48-3.868h10.082l1.524 3.867h10.449l-12.137-29.004h-9.547zm14.195-10.696 2.633-6.992 2.633 6.992zm21.64 10.695h9.423v-14.273l6.62 10.242h.169l6.62-10.242v14.273h9.587v-28.797h-10.04l-6.167 10.121-6.172-10.12h-10.04zm36.536 0h15.96c7.282 0 11.067-3.37 11.067-7.98v-.082c0-3.95-2.387-5.922-6.086-6.992 3.082-1.07 5.14-3.168 5.14-6.582v-.086c0-1.973-.737-3.453-1.769-4.485-1.687-1.683-4.195-2.59-8.187-2.59H404.8zm16.62-19.457c0 1.274-.987 1.973-3.046 1.973h-4.195v-4.031h4.156c2.055 0 3.086.699 3.086 1.976zm.74 9.996v.082c0 1.235-1.071 2.098-3.169 2.098h-4.812v-4.277h4.855c2.098 0 3.125.863 3.125 2.097zm12.589 9.461h24.77v-7.898h-15.305v-3.125h14.07v-6.953h-14.07v-2.922h15.098v-7.899H434.75Zm28.184 0h9.625v-8.226h2.058l5.43 8.226h10.984l-6.703-9.789c3.496-1.687 5.676-4.61 5.676-8.805v-.082c0-2.96-.906-5.101-2.633-6.832-2.016-2.015-5.266-3.289-10.367-3.289h-14.07zm9.625-15.097v-5.637h4.199c2.219 0 3.66.906 3.66 2.758v.082c0 1.77-1.398 2.797-3.703 2.797h-4.156M285.742 328.922c8.766 0 14.73-6.953 14.73-14.895v-.082c0-7.937-5.882-14.808-14.648-14.808-8.761 0-14.726 6.953-14.726 14.89v.086c0 7.938 5.882 14.809 14.644 14.809zm.082-3.004c-6.582 0-11.351-5.348-11.351-11.89v-.083c0-6.539 4.687-11.804 11.27-11.804 6.581 0 11.355 5.347 11.355 11.886v.086c0 6.54-4.688 11.805-11.274 11.805zm20.695 2.512h3.25v-12.547h15.594v-2.965H309.77v-10.285h17.446v-3.004H306.52Zm51.18.617c7.16 0 11.192-3.496 13.617-7.777l-7.937-4.485c-1.195 2.14-2.719 3.621-5.434 3.621-3.168 0-5.386-2.633-5.386-6.379v-.082c0-3.453 2.136-6.293 5.386-6.293 2.633 0 4.157 1.442 5.227 3.496l7.941-4.648c-2.43-4.402-6.707-7.488-13.043-7.488-8.597 0-15.304 6.418-15.304 15.015v.086c0 8.926 6.953 14.934 14.933 14.934zm30.817 0c8.886 0 15.757-6.664 15.757-15.02v-.082c0-8.351-6.789-14.933-15.675-14.933-8.887 0-15.758 6.664-15.758 15.015v.086c0 8.352 6.789 14.934 15.676 14.934zm.082-8.516c-3.704 0-6.047-3.086-6.047-6.504v-.082c0-3.37 2.304-6.418 5.965-6.418 3.703 0 6.046 3.086 6.046 6.5v.086c0 3.371-2.3 6.418-5.964 6.418zm19.46 7.899h9.422v-14.278l6.625 10.246h.164l6.622-10.246v14.278h9.585v-28.801h-10.035l-6.172 10.121-6.171-10.121h-10.04zm36.864 0h9.422v-14.278l6.625 10.246h.164l6.62-10.246v14.278h9.59v-28.801h-10.038l-6.172 10.121-6.172-10.121h-10.04Zm36.863 0h24.766v-7.899h-15.305v-3.129h14.07v-6.953h-14.07v-2.922h15.102v-7.898h-24.563zm28.512 0h9.625v-8.23h2.058l5.43 8.23h10.984l-6.703-9.793c3.496-1.688 5.676-4.61 5.676-8.805v-.082c0-2.96-.902-5.102-2.633-6.828-2.015-2.016-5.265-3.293-10.367-3.293h-14.07Zm9.625-15.102v-5.637h4.199c2.223 0 3.66.907 3.66 2.758v.082c0 1.77-1.398 2.797-3.703 2.797zm35.219 15.719c7.16 0 11.191-3.496 13.617-7.777l-7.938-4.485c-1.195 2.14-2.719 3.621-5.433 3.621-3.168 0-5.391-2.633-5.391-6.379v-.082c0-3.453 2.14-6.293 5.39-6.293 2.633 0 4.157 1.442 5.227 3.496l7.942-4.648c-2.43-4.402-6.707-7.488-13.043-7.488-8.598 0-15.305 6.418-15.305 15.015v.086c0 8.926 6.953 14.934 14.934 14.934zm16.62-.617h24.77v-7.899h-15.305v-3.129h14.07v-6.953h-14.07v-2.922h15.098v-7.898h-24.562v28.8M319.008 414.773h5.699v-4.625h1.852c4.601 0 7.742-2.191 7.742-6.304v-.051c0-4.043-3.09-6.063-7.621-6.063h-7.672zm5.699-8.691v-3.797h1.559c1.511 0 2.41.633 2.41 1.875v.047c0 1.219-.973 1.875-2.434 1.875zm20.188 9.059c5.257 0 9.324-3.946 9.324-8.887v-.05c0-4.942-4.016-8.84-9.278-8.84-5.257 0-9.324 3.945-9.324 8.89v.047c0 4.945 4.016 8.84 9.278 8.84zm.046-5.04c-2.191 0-3.578-1.828-3.578-3.847v-.05c0-1.997 1.364-3.798 3.532-3.798 2.191 0 3.578 1.824 3.578 3.848v.047c0 1.996-1.364 3.8-3.532 3.8zm14.954 4.797h4.964l2.996-8.476 2.997 8.476h4.968l5.575-17.168h-5.868l-2.41 8.18-2.754-8.23h-4.918l-2.75 8.23-2.414-8.18h-5.965zm22.96-.125h14.66v-4.671h-9.058v-1.852h8.328v-4.117h-8.328v-1.727h8.938v-4.676h-14.54zm16.68 0h5.7v-4.867h1.218l3.211 4.867h6.504l-3.969-5.793c2.07-1 3.36-2.726 3.36-5.21v-.051c0-1.75-.536-3.02-1.559-4.04-1.191-1.195-3.117-1.949-6.137-1.949h-8.328zm5.7-8.933v-3.336h2.484c1.312 0 2.168.535 2.168 1.629v.05c0 1.047-.828 1.657-2.196 1.657zm12.245 8.933h5.7V397.73h-5.7zm8.184 0h5.649v-7.863l6.332 7.863h5.066V397.73h-5.652v7.524l-6.063-7.524h-5.332zm28.66.368c3.094 0 5.672-1.047 7.524-2.555v-7.89h-8.254v3.652h2.922v1.703c-.438.246-.973.39-1.95.39-2.386 0-4.066-1.656-4.066-4.066v-.05c0-2.313 1.61-4.016 3.824-4.016 1.414 0 2.653.535 3.774 1.484l3.191-3.848c-1.851-1.605-4.215-2.582-7.137-2.582-5.379 0-9.398 3.801-9.398 8.89v.048c0 5.285 4.262 8.84 9.57 8.84zm19.871-2.094v-6.016h5.368c1.488 0 2.613.258 3.375.77.761.508 1.14 1.226 1.14 2.152v.05c0 .958-.37 1.704-1.113 2.24-.746.534-1.77.804-3.063.804zm0-7.742v-5.844h5.172c1.211 0 2.145.25 2.793.75.649.5.969 1.172.969 2.012v.05c0 1-.36 1.758-1.078 2.266-.723.508-1.664.766-2.828.766zm-1.925 9.468h7.558c.926 0 1.77-.101 2.531-.316.758-.21 1.41-.516 1.954-.914.542-.398.96-.887 1.253-1.465.293-.574.438-1.23.438-1.96v-.052c0-.582-.098-1.101-.293-1.546a3.757 3.757 0 0 0-.777-1.16 4.683 4.683 0 0 0-1.157-.84 7.43 7.43 0 0 0-1.418-.575c.34-.144.668-.328.985-.547.312-.218.601-.488.86-.8.26-.317.464-.692.62-1.121.153-.426.23-.918.23-1.47v-.046a3.81 3.81 0 0 0-1.093-2.723c-.488-.472-1.106-.84-1.86-1.105-.753-.27-1.617-.403-2.59-.403h-7.241zm27.648-.207a5.916 5.916 0 0 0 2.242-1.421c.625-.633 1.11-1.422 1.45-2.364.34-.941.511-2.035.511-3.285v-9.766h-1.926v9.91c0 1.868-.46 3.27-1.386 4.212-.926.945-2.176 1.414-3.75 1.414-1.641 0-2.918-.496-3.836-1.485-.918-.992-1.375-2.41-1.375-4.261v-9.79h-1.922v9.91c0 1.204.168 2.266.508 3.192.343.926.824 1.7 1.449 2.324a5.986 5.986 0 0 0 2.242 1.41c.867.32 1.828.477 2.887.477 1.07 0 2.039-.156 2.906-.477zm17.3.114c.716-.23 1.329-.555 1.833-.977a4.57 4.57 0 0 0 1.195-1.52 4.528 4.528 0 0 0 .434-1.988v-.047c0-1.296-.453-2.32-1.356-3.066-.898-.746-2.3-1.332-4.199-1.754-.941-.195-1.71-.402-2.312-.621-.602-.219-1.07-.465-1.415-.73-.34-.27-.574-.563-.703-.88a2.77 2.77 0 0 1-.195-1.081v-.047c0-.782.324-1.434.973-1.961.648-.528 1.535-.793 2.656-.793a7.4 7.4 0 0 1 2.52.437c.8.293 1.601.766 2.398 1.414l1.117-1.484c-.875-.7-1.781-1.223-2.715-1.57-.93-.352-2.023-.524-3.273-.524-.813 0-1.559.117-2.239.352a5.673 5.673 0 0 0-1.78.972c-.5.415-.891.907-1.169 1.473a4.23 4.23 0 0 0-.414 1.852v.05c0 .696.114 1.305.344 1.825.227.52.578.972 1.047 1.363.473.39 1.07.723 1.797 1 .722.277 1.574.52 2.55.73.895.196 1.63.399 2.208.61.578.21 1.03.445 1.355.707.324.258.555.547.684.863.129.317.195.668.195 1.059v.047c0 .847-.344 1.539-1.035 2.082-.692.547-1.61.816-2.766.816-1.183 0-2.23-.2-3.14-.598-.907-.394-1.81-1-2.704-1.812l-1.191 1.414c1.023.926 2.098 1.61 3.227 2.055 1.128.449 2.375.672 3.738.672a7.69 7.69 0 0 0 2.336-.34zm7.891.093h1.922V397.73h-1.922zm7.254 0h1.875v-13.976l11.008 13.976h1.535V397.73h-1.875v13.66l-10.738-13.66h-1.805zm19.578 0h12.446v-1.726h-10.52v-5.992h9.301v-1.727h-9.3v-5.867h10.398v-1.73H551.94zm24.864-.093c.715-.23 1.324-.555 1.832-.977.504-.422.902-.93 1.191-1.52.29-.593.434-1.253.434-1.988v-.047c0-1.296-.45-2.32-1.352-3.066-.902-.746-2.3-1.332-4.199-1.754-.941-.195-1.715-.402-2.313-.621-.601-.219-1.074-.465-1.414-.73-.34-.27-.578-.563-.707-.88a2.843 2.843 0 0 1-.195-1.081v-.047c0-.782.324-1.434.977-1.961.648-.528 1.53-.793 2.652-.793.879 0 1.719.148 2.52.437.804.293 1.605.766 2.398 1.414l1.121-1.484c-.875-.7-1.781-1.223-2.715-1.57-.933-.352-2.023-.524-3.273-.524-.813 0-1.559.117-2.242.352a5.696 5.696 0 0 0-1.778.972 4.33 4.33 0 0 0-1.168 1.473 4.176 4.176 0 0 0-.414 1.852v.05c0 .696.113 1.305.34 1.825a3.7 3.7 0 0 0 1.05 1.363c.473.39 1.071.723 1.794 1 .726.277 1.574.52 2.55.73.895.196 1.633.399 2.211.61.579.21 1.028.445 1.356.707.324.258.55.547.684.863.128.317.195.668.195 1.059v.047c0 .847-.348 1.539-1.035 2.082-.692.547-1.614.816-2.766.816-1.184 0-2.23-.2-3.14-.598-.91-.394-1.81-1-2.704-1.812l-1.191 1.414c1.02.926 2.098 1.61 3.226 2.055 1.125.449 2.372.672 3.735.672.844 0 1.625-.114 2.34-.34zm15.925 0c.711-.23 1.325-.555 1.833-.977.503-.422.902-.93 1.19-1.52.29-.593.435-1.253.435-1.988v-.047c0-1.296-.454-2.32-1.352-3.066-.902-.746-2.3-1.332-4.2-1.754-.945-.195-1.714-.402-2.316-.621-.597-.219-1.07-.465-1.41-.73-.344-.27-.578-.563-.707-.88a2.843 2.843 0 0 1-.195-1.081v-.047c0-.782.324-1.434.972-1.961.653-.528 1.536-.793 2.657-.793a7.4 7.4 0 0 1 2.52.437c.804.293 1.605.766 2.398 1.414l1.12-1.484c-.874-.7-1.78-1.223-2.714-1.57-.934-.352-2.027-.524-3.277-.524-.813 0-1.555.117-2.239.352a5.652 5.652 0 0 0-1.777.972 4.39 4.39 0 0 0-1.172 1.473 4.227 4.227 0 0 0-.41 1.852v.05c0 .696.113 1.305.34 1.825.226.52.578.972 1.05 1.363.47.39 1.07.723 1.794 1 .722.277 1.574.52 2.55.73.895.196 1.633.399 2.211.61.574.21 1.028.445 1.352.707.328.258.555.547.683.863.133.317.196.668.196 1.059v.047c0 .847-.344 1.539-1.035 2.082-.688.547-1.61.816-2.762.816-1.188 0-2.235-.2-3.14-.598-.91-.394-1.813-1-2.704-1.812l-1.195 1.414c1.023.926 2.097 1.61 3.226 2.055 1.13.449 2.375.672 3.739.672.843 0 1.625-.114 2.34-.34" transform="translate(-238.762 -222.281)"/></svg>