<?xml version="1.0" encoding="UTF-8" standalone="no"?><!DOCTYPE svg PUBLIC "-//W3C//DTD SVG 1.1//EN" "http://www.w3.org/Graphics/SVG/1.1/DTD/svg11.dtd"><svg width="100%" height="100%" viewBox="0 0 284 284" version="1.1" xmlns="http://www.w3.org/2000/svg" xmlns:xlink="http://www.w3.org/1999/xlink" xml:space="preserve" xmlns:serif="http://www.serif.com/" style="fill-rule:evenodd;clip-rule:evenodd;stroke-linejoin:round;stroke-miterlimit:1.41421;"><g id="Layer-1" serif:id="Layer 1"><path d="M181.662,165.596c-8.055,0 -14.586,-6.531 -14.586,-14.587c0,-8.047 6.531,-14.578 14.586,-14.578c8.055,0 14.584,6.531 14.584,14.578c0,8.055 -6.529,14.587 -14.584,14.587m0,-43.75c-5.32,0 -10.291,1.446 -14.586,3.935l0,-45.566l-14.586,0l0,70.795c0,16.108 13.063,29.17 29.172,29.17c16.109,0 29.17,-13.062 29.17,-29.171c0,-16.105 -13.061,-29.163 -29.17,-29.163" style="fill:#00b3f0;fill-rule:nonzero;"/><rect x="226.023" y="128.529" width="14.586" height="51.65" style="fill:#00b3f0;"/><rect x="225.967" y="101.261" width="14.584" height="14.582" style="fill:#00b3f0;"/><path d="M56.926,136.431c5.014,0 9.435,2.533 12.059,6.389l10.409,-10.409c-5.353,-6.453 -13.43,-10.565 -22.468,-10.565c-16.109,0 -29.171,13.058 -29.171,29.163c0,16.109 13.062,29.17 29.171,29.17c9.038,0 17.113,-4.113 22.468,-10.568l-10.409,-10.405c-2.624,3.854 -7.045,6.389 -12.059,6.389c-8.055,0 -14.585,-6.531 -14.585,-14.586c0,-8.047 6.53,-14.578 14.585,-14.578" style="fill:#00b3f0;fill-rule:nonzero;"/><path d="M100.942,153.609c-0.153,-0.848 -0.262,-1.709 -0.262,-2.6c0,-8.047 6.531,-14.578 14.585,-14.578c3.661,0 6.967,1.396 9.53,3.625l-23.853,13.553Zm36.946,-20.995c-5.348,-6.567 -13.493,-10.768 -22.623,-10.768c-16.109,0 -29.17,13.061 -29.17,29.163c0,3.526 0.657,6.887 1.802,10.014c1.214,3.315 2.996,6.348 5.255,8.977c5.349,6.224 13.263,10.179 22.113,10.179c9.266,0 17.506,-4.332 22.849,-11.068l-10.533,-10.352c-2.583,4.094 -7.116,6.836 -12.316,6.836c-3.368,0 -6.43,-1.189 -8.9,-3.105l36.54,-20.749c-0.004,-0.004 -0.004,-0.008 -0.004,-0.011c-1.129,-3.35 -2.829,-6.434 -5.013,-9.116" style="fill:#00b3f0;fill-rule:nonzero;"/><path d="M141.969,276.41c-74.129,0 -134.438,-60.311 -134.438,-134.441c0,-74.131 60.309,-134.438 134.438,-134.438c74.13,0 134.441,60.307 134.441,134.438c0,74.13 -60.311,134.441 -134.441,134.441m0,-276.172c-78.151,0 -141.731,63.58 -141.731,141.731c0,78.15 63.58,141.734 141.731,141.734c78.15,0 141.734,-63.584 141.734,-141.734c0,-78.151 -63.584,-141.731 -141.734,-141.731" style="fill:#00b3f0;fill-rule:nonzero;"/></g></svg>