<svg viewBox="0 0 284 284" xmlns="http://www.w3.org/2000/svg" xml:space="preserve" style="fill-rule:evenodd;clip-rule:evenodd;stroke-linejoin:round;stroke-miterlimit:1.41421"><path d="M181.662 165.596c-8.055 0-14.586-6.531-14.586-14.587 0-8.047 6.531-14.578 14.586-14.578s14.584 6.531 14.584 14.578c0 8.055-6.529 14.587-14.584 14.587m0-43.75a28.986 28.986 0 0 0-14.586 3.935V80.215H152.49v70.795c0 16.108 13.063 29.17 29.172 29.17s29.17-13.062 29.17-29.171c0-16.105-13.061-29.163-29.17-29.163" style="fill:#00b3f0;fill-rule:nonzero"/><path style="fill:#00b3f0" d="M226.023 128.529h14.586v51.65h-14.586zM225.967 101.261h14.584v14.582h-14.584z"/><path d="M56.926 136.431c5.014 0 9.435 2.533 12.059 6.389l10.409-10.409c-5.353-6.453-13.43-10.565-22.468-10.565-16.109 0-29.171 13.058-29.171 29.163 0 16.109 13.062 29.17 29.171 29.17 9.038 0 17.113-4.113 22.468-10.568l-10.409-10.405c-2.624 3.854-7.045 6.389-12.059 6.389-8.055 0-14.585-6.531-14.585-14.586 0-8.047 6.53-14.578 14.585-14.578M100.942 153.609c-.153-.848-.262-1.709-.262-2.6 0-8.047 6.531-14.578 14.585-14.578 3.661 0 6.967 1.396 9.53 3.625l-23.853 13.553Zm36.946-20.995c-5.348-6.567-13.493-10.768-22.623-10.768-16.109 0-29.17 13.061-29.17 29.163 0 3.526.657 6.887 1.802 10.014A29.124 29.124 0 0 0 93.152 170c5.349 6.224 13.263 10.179 22.113 10.179 9.266 0 17.506-4.332 22.849-11.068l-10.533-10.352c-2.583 4.094-7.116 6.836-12.316 6.836-3.368 0-6.43-1.189-8.9-3.105l36.54-20.749c-.004-.004-.004-.008-.004-.011a29.18 29.18 0 0 0-5.013-9.116" style="fill:#00b3f0;fill-rule:nonzero"/><path d="M141.969 276.41c-74.129 0-134.438-60.311-134.438-134.441C7.531 67.838 67.84 7.531 141.969 7.531c74.13 0 134.441 60.307 134.441 134.438 0 74.13-60.311 134.441-134.441 134.441m0-276.172C63.818.238.238 63.818.238 141.969c0 78.15 63.58 141.734 141.731 141.734 78.15 0 141.734-63.584 141.734-141.734C283.703 63.818 220.119.238 141.969.238" style="fill:#00b3f0;fill-rule:nonzero"/></svg>