<svg viewBox="0 0 233 48" xmlns="http://www.w3.org/2000/svg" xml:space="preserve" style="fill-rule:evenodd;clip-rule:evenodd;stroke-linejoin:round;stroke-miterlimit:2"><path d="M115.937 1.853A6.324 6.324 0 0 0 111.455 0a6.322 6.322 0 0 0-4.483 1.853L88.833 19.992a6.348 6.348 0 0 0 0 8.965l18.139 18.139a6.348 6.348 0 0 0 8.965 0l18.139-18.139a6.348 6.348 0 0 0 0-8.965L115.937 1.853Z" style="fill:#2e384c;fill-rule:nonzero"/><path d="M21.742 28.331v.704c0 2.289-.396 5.183-4.191 5.183-3.444 0-4.116-2.268-4.116-5.14v-9.675c0-2.996 1.328-4.839 4.155-4.839 3.428 0 4.066 2.335 4.066 4.923v.809h-2.581v-1.073c0-1.373-.271-2.322-1.501-2.322-1.186 0-1.528.88-1.528 2.347v10.031c0 1.53.32 2.622 1.573 2.622 1.244 0 1.522-1.032 1.522-2.613v-.957h2.601ZM26.063 19.541v9.743c0 1.824.662 2.617 1.817 2.617 1.233 0 1.828-.752 1.828-2.679v-9.693c0-1.733-.564-2.628-1.837-2.628-1.195 0-1.808.827-1.808 2.64m6.257.207v9.224c0 3.535-1.483 5.246-4.558 5.246-3.045 0-4.31-1.823-4.31-5.206v-9.276c0-3.487 1.689-5.172 4.477-5.172 2.866 0 4.391 1.782 4.391 5.184M34.629 33.949V14.832h2.998c.876 3.053 3.316 12.735 3.564 13.978h.038c-.126-2.443-.144-5.133-.144-8.264v-5.714h2.383v19.117h-2.89c-.776-2.833-3.404-13.333-3.666-14.438h-.029c.135 2.31.149 5.095.149 8.539v5.899h-2.403ZM54.052 28.331v.704c0 2.289-.394 5.183-4.19 5.183-3.443 0-4.118-2.268-4.118-5.14v-9.675c0-2.996 1.329-4.839 4.158-4.839 3.425 0 4.066 2.335 4.066 4.923v.809h-2.582v-1.073c0-1.373-.273-2.322-1.502-2.322-1.186 0-1.526.88-1.526 2.347v10.031c0 1.53.32 2.622 1.572 2.622 1.244 0 1.521-1.032 1.521-2.613v-.957h2.601ZM62.675 24.997h-4.238v6.595h4.853l-.333 2.358h-7.083V14.833h7.038v2.378h-4.475v5.428h4.238v2.358ZM67.357 23.732h.947c1.975 0 2.292-1.181 2.292-3.098v-.976c0-1.456-.289-2.689-2.065-2.689h-1.174v6.763Zm-2.563-8.9h3.935c2.953 0 4.418 1.474 4.418 4.732v1.142c0 3.037-1.015 5.143-4.573 5.143h-1.217v8.1h-2.563V14.832ZM77.086 17.21h-3.081v-2.378h8.727v2.378h-3.083v16.74l-2.563-.001V17.21ZM144.201 23.732h.946c1.976 0 2.292-1.181 2.292-3.098v-.976c0-1.456-.289-2.689-2.065-2.689h-1.173v6.763Zm-2.563-8.9h3.934c2.953 0 4.418 1.474 4.418 4.732v1.142c0 3.037-1.014 5.143-4.572 5.143h-1.217v8.1h-2.563V14.832ZM156.042 26.062c-.534-3.652-.979-6.805-1.181-8.818h-.097c-.077 1.534-.7 5.715-1.136 8.818h2.414Zm-2.747 2.357-.773 5.53h-2.602l3.104-19.117h3.632l3.229 19.117h-2.682l-.849-5.53h-3.059ZM163.948 23.106h.917c1.668 0 2.199-.784 2.199-2.847v-.738c0-1.591-.377-2.551-2.151-2.551h-.965v6.136Zm0 2.136v8.707h-2.564V14.833h3.77c2.894 0 4.482 1.196 4.482 4.519v.79c0 2.793-1.082 3.674-1.946 4.003 1.157.492 1.763 1.342 1.763 3.92 0 1.621-.028 4.706.182 5.884h-2.484c-.25-1.17-.201-4.341-.201-5.709 0-2.391-.32-2.998-2.108-2.998h-.894ZM173.762 17.21h-3.079v-2.378h8.725v2.378h-3.083v16.74l-2.563-.001V17.21ZM180.759 33.949V14.832h2.998c.875 3.053 3.316 12.735 3.564 13.978h.038c-.125-2.443-.144-5.133-.144-8.264v-5.714h2.384v19.117h-2.891c-.776-2.833-3.404-13.333-3.666-14.438h-.029c.135 2.31.149 5.095.149 8.539v5.899h-2.403ZM199.074 24.997h-4.238v6.595h4.852l-.332 2.358h-7.084V14.833h7.039v2.378h-4.475v5.428h4.238v2.358ZM203.756 23.106h.917c1.668 0 2.202-.784 2.202-2.847v-.738c0-1.591-.378-2.551-2.152-2.551h-.967v6.136Zm0 2.136v8.707h-2.563V14.833h3.771c2.894 0 4.482 1.196 4.482 4.519v.79c0 2.793-1.083 3.674-1.946 4.003 1.156.492 1.764 1.342 1.764 3.92 0 1.621-.029 4.706.179 5.884h-2.484c-.248-1.17-.199-4.341-.199-5.709 0-2.391-.32-2.998-2.108-2.998h-.896ZM213.618 28.425v1.151c0 1.582.509 2.446 1.722 2.446 1.242 0 1.641-1.048 1.641-2.649 0-2.132-.464-2.865-2.499-4.462-2.051-1.614-3.125-2.623-3.125-5.446 0-2.479.747-4.93 4.008-4.921 3.242.008 3.873 2.262 3.873 4.485v.965h-2.543v-.896c0-1.439-.261-2.338-1.379-2.338-1.106 0-1.394.967-1.394 2.332 0 1.53.297 2.197 2.008 3.467 2.773 2.07 3.635 3.251 3.635 6.439 0 2.702-.873 5.22-4.297 5.22-3.346 0-4.213-2.155-4.213-4.673v-1.12h2.563Z" style="fill:#2f3140;fill-rule:nonzero"/><path d="M214.65 6.032h-92.516l1.428 1.428h91.088c9.33 0 16.921 7.591 16.921 16.922 0 9.329-7.591 16.919-16.921 16.919h-90.9l-1.429 1.43h92.329c10.118 0 18.35-8.233 18.35-18.35 0-10.118-8.232-18.349-18.35-18.349M99.158 41.301H18.349c-9.33 0-16.92-7.59-16.92-16.92 0-9.33 7.59-16.921 16.92-16.921h80.996l1.429-1.428H18.349C8.232 6.032 0 14.263 0 24.382c0 10.116 8.232 18.349 18.349 18.349h82.238l-1.429-1.43Z" style="fill:#2e384c;fill-rule:nonzero"/><path d="M115.469 38.528V28.052h10.184v-7.157h-10.184V10.42h-8.031v10.475H97.254v7.157h10.184v10.476h8.031Z" style="fill:#ebe326;fill-rule:nonzero"/></svg>