<?xml version="1.0" encoding="UTF-8" standalone="no"?><!DOCTYPE svg PUBLIC "-//W3C//DTD SVG 1.1//EN" "http://www.w3.org/Graphics/SVG/1.1/DTD/svg11.dtd"><svg width="100%" height="100%" viewBox="0 0 233 48" version="1.1" xmlns="http://www.w3.org/2000/svg" xmlns:xlink="http://www.w3.org/1999/xlink" xml:space="preserve" xmlns:serif="http://www.serif.com/" style="fill-rule:evenodd;clip-rule:evenodd;stroke-linejoin:round;stroke-miterlimit:2;"><g id="Calque-1" serif:id="Calque 1"><path d="M115.937,1.853c-1.236,-1.235 -2.86,-1.853 -4.482,-1.853c-1.624,0 -3.247,0.618 -4.483,1.853l-18.139,18.139c-2.471,2.471 -2.471,6.492 0,8.965l18.139,18.139c2.472,2.471 6.493,2.471 8.965,0l18.139,-18.139c2.471,-2.473 2.471,-6.494 0,-8.965l-18.139,-18.139Z" style="fill:#2e384c;fill-rule:nonzero;"/><path d="M21.742,28.331l0,0.704c0,2.289 -0.396,5.183 -4.191,5.183c-3.444,0 -4.116,-2.268 -4.116,-5.14l0,-9.675c0,-2.996 1.328,-4.839 4.155,-4.839c3.428,0 4.066,2.335 4.066,4.923l0,0.809l-2.581,0l0,-1.073c0,-1.373 -0.271,-2.322 -1.501,-2.322c-1.186,0 -1.528,0.88 -1.528,2.347l0,10.031c0,1.53 0.32,2.622 1.573,2.622c1.244,0 1.522,-1.032 1.522,-2.613l0,-0.957l2.601,0Z" style="fill:#2f3140;fill-rule:nonzero;"/><path d="M26.063,19.541l0,9.743c0,1.824 0.662,2.617 1.817,2.617c1.233,0 1.828,-0.752 1.828,-2.679l0,-9.693c0,-1.733 -0.564,-2.628 -1.837,-2.628c-1.195,0 -1.808,0.827 -1.808,2.64m6.257,0.207l0,9.224c0,3.535 -1.483,5.246 -4.558,5.246c-3.045,0 -4.31,-1.823 -4.31,-5.206l0,-9.276c0,-3.487 1.689,-5.172 4.477,-5.172c2.866,0 4.391,1.782 4.391,5.184" style="fill:#2f3140;fill-rule:nonzero;"/><path d="M34.629,33.949l0,-19.117l2.998,0c0.876,3.053 3.316,12.735 3.564,13.978l0.038,0c-0.126,-2.443 -0.144,-5.133 -0.144,-8.264l0,-5.714l2.383,0l0,19.117l-2.89,0c-0.776,-2.833 -3.404,-13.333 -3.666,-14.438l-0.029,0c0.135,2.31 0.149,5.095 0.149,8.539l0,5.899l-2.403,0Z" style="fill:#2f3140;fill-rule:nonzero;"/><path d="M54.052,28.331l0,0.704c0,2.289 -0.394,5.183 -4.19,5.183c-3.443,0 -4.118,-2.268 -4.118,-5.14l0,-9.675c0,-2.996 1.329,-4.839 4.158,-4.839c3.425,0 4.066,2.335 4.066,4.923l0,0.809l-2.582,0l0,-1.073c0,-1.373 -0.273,-2.322 -1.502,-2.322c-1.186,0 -1.526,0.88 -1.526,2.347l0,10.031c0,1.53 0.32,2.622 1.572,2.622c1.244,0 1.521,-1.032 1.521,-2.613l0,-0.957l2.601,0Z" style="fill:#2f3140;fill-rule:nonzero;"/><path d="M62.675,24.997l-4.238,0l0,6.595l4.853,0l-0.333,2.358l-7.083,0l0,-19.117l7.038,0l0,2.378l-4.475,0l0,5.428l4.238,0l0,2.358Z" style="fill:#2f3140;fill-rule:nonzero;"/><path d="M67.357,23.732l0.947,0c1.975,0 2.292,-1.181 2.292,-3.098l0,-0.976c0,-1.456 -0.289,-2.689 -2.065,-2.689l-1.174,0l0,6.763Zm-2.563,-8.9l3.935,0c2.953,0 4.418,1.474 4.418,4.732l0,1.142c0,3.037 -1.015,5.143 -4.573,5.143l-1.217,0l0,8.1l-2.563,0l0,-19.117Z" style="fill:#2f3140;fill-rule:nonzero;"/><path d="M77.086,17.21l-3.081,0l0,-2.378l8.727,0l0,2.378l-3.083,0l0,16.74l-2.563,-0.001l0,-16.739Z" style="fill:#2f3140;fill-rule:nonzero;"/><path d="M144.201,23.732l0.946,0c1.976,0 2.292,-1.181 2.292,-3.098l0,-0.976c0,-1.456 -0.289,-2.689 -2.065,-2.689l-1.173,0l0,6.763Zm-2.563,-8.9l3.934,0c2.953,0 4.418,1.474 4.418,4.732l0,1.142c0,3.037 -1.014,5.143 -4.572,5.143l-1.217,0l0,8.1l-2.563,0l0,-19.117Z" style="fill:#2f3140;fill-rule:nonzero;"/><path d="M156.042,26.062c-0.534,-3.652 -0.979,-6.805 -1.181,-8.818l-0.097,0c-0.077,1.534 -0.7,5.715 -1.136,8.818l2.414,0Zm-2.747,2.357l-0.773,5.53l-2.602,0l3.104,-19.117l3.632,0l3.229,19.117l-2.682,0l-0.849,-5.53l-3.059,0Z" style="fill:#2f3140;fill-rule:nonzero;"/><path d="M163.948,23.106l0.917,0c1.668,0 2.199,-0.784 2.199,-2.847l0,-0.738c0,-1.591 -0.377,-2.551 -2.151,-2.551l-0.965,0l0,6.136Zm0,2.136l0,8.707l-2.564,0l0,-19.116l3.77,0c2.894,0 4.482,1.196 4.482,4.519l0,0.79c0,2.793 -1.082,3.674 -1.946,4.003c1.157,0.492 1.763,1.342 1.763,3.92c0,1.621 -0.028,4.706 0.182,5.884l-2.484,0c-0.25,-1.17 -0.201,-4.341 -0.201,-5.709c0,-2.391 -0.32,-2.998 -2.108,-2.998l-0.894,0Z" style="fill:#2f3140;fill-rule:nonzero;"/><path d="M173.762,17.21l-3.079,0l0,-2.378l8.725,0l0,2.378l-3.083,0l0,16.74l-2.563,-0.001l0,-16.739Z" style="fill:#2f3140;fill-rule:nonzero;"/><path d="M180.759,33.949l0,-19.117l2.998,0c0.875,3.053 3.316,12.735 3.564,13.978l0.038,0c-0.125,-2.443 -0.144,-5.133 -0.144,-8.264l0,-5.714l2.384,0l0,19.117l-2.891,0c-0.776,-2.833 -3.404,-13.333 -3.666,-14.438l-0.029,0c0.135,2.31 0.149,5.095 0.149,8.539l0,5.899l-2.403,0Z" style="fill:#2f3140;fill-rule:nonzero;"/><path d="M199.074,24.997l-4.238,0l0,6.595l4.852,0l-0.332,2.358l-7.084,0l0,-19.117l7.039,0l0,2.378l-4.475,0l0,5.428l4.238,0l0,2.358Z" style="fill:#2f3140;fill-rule:nonzero;"/><path d="M203.756,23.106l0.917,0c1.668,0 2.202,-0.784 2.202,-2.847l0,-0.738c0,-1.591 -0.378,-2.551 -2.152,-2.551l-0.967,0l0,6.136Zm0,2.136l0,8.707l-2.563,0l0,-19.116l3.771,0c2.894,0 4.482,1.196 4.482,4.519l0,0.79c0,2.793 -1.083,3.674 -1.946,4.003c1.156,0.492 1.764,1.342 1.764,3.92c0,1.621 -0.029,4.706 0.179,5.884l-2.484,0c-0.248,-1.17 -0.199,-4.341 -0.199,-5.709c0,-2.391 -0.32,-2.998 -2.108,-2.998l-0.896,0Z" style="fill:#2f3140;fill-rule:nonzero;"/><path d="M213.618,28.425l0,1.151c0,1.582 0.509,2.446 1.722,2.446c1.242,0 1.641,-1.048 1.641,-2.649c0,-2.132 -0.464,-2.865 -2.499,-4.462c-2.051,-1.614 -3.125,-2.623 -3.125,-5.446c0,-2.479 0.747,-4.93 4.008,-4.921c3.242,0.008 3.873,2.262 3.873,4.485l0,0.965l-2.543,0l0,-0.896c0,-1.439 -0.261,-2.338 -1.379,-2.338c-1.106,0 -1.394,0.967 -1.394,2.332c0,1.53 0.297,2.197 2.008,3.467c2.773,2.07 3.635,3.251 3.635,6.439c0,2.702 -0.873,5.22 -4.297,5.22c-3.346,0 -4.213,-2.155 -4.213,-4.673l0,-1.12l2.563,0Z" style="fill:#2f3140;fill-rule:nonzero;"/><path d="M214.65,6.032l-92.516,0l1.428,1.428l91.088,0c9.33,0 16.921,7.591 16.921,16.922c0,9.329 -7.591,16.919 -16.921,16.919l-90.9,0l-1.429,1.43l92.329,0c10.118,0 18.35,-8.233 18.35,-18.35c0,-10.118 -8.232,-18.349 -18.35,-18.349" style="fill:#2e384c;fill-rule:nonzero;"/><path d="M99.158,41.301l-80.809,0c-9.33,0 -16.92,-7.59 -16.92,-16.92c0,-9.33 7.59,-16.921 16.92,-16.921l80.996,0l1.429,-1.428l-82.425,0c-10.117,0 -18.349,8.231 -18.349,18.35c0,10.116 8.232,18.349 18.349,18.349l82.238,0l-1.429,-1.43Z" style="fill:#2e384c;fill-rule:nonzero;"/><path d="M115.469,38.528l0,-10.476l10.184,0l0,-7.157l-10.184,0l0,-10.475l-8.031,0l0,10.475l-10.184,0l0,7.157l10.184,0l0,10.476l8.031,0Z" style="fill:#ebe326;fill-rule:nonzero;"/></g></svg>