<?xml version="1.0" encoding="UTF-8" standalone="no"?><!DOCTYPE svg PUBLIC "-//W3C//DTD SVG 1.1//EN" "http://www.w3.org/Graphics/SVG/1.1/DTD/svg11.dtd"><svg width="100%" height="100%" viewBox="0 0 1289 640" version="1.1" xmlns="http://www.w3.org/2000/svg" xmlns:xlink="http://www.w3.org/1999/xlink" xml:space="preserve" xmlns:serif="http://www.serif.com/" style="fill-rule:evenodd;clip-rule:evenodd;stroke-linejoin:round;stroke-miterlimit:1.41421;"><g id="Layer-1" serif:id="Layer 1"><path d="M554.353,518.326c0.093,-24.428 -19.79,-44.307 -44.411,-44.397l-0.172,0c-8.798,0 -20.252,2.016 -30.834,12.195c-20.093,19.232 -43.653,34.863 -69.635,45.85c-27.558,11.65 -57.827,18.094 -89.679,18.096c-31.859,-0.002 -62.133,-6.448 -89.694,-18.101c-41.336,-17.482 -76.551,-46.722 -101.402,-83.507c-24.848,-36.797 -39.34,-81.055 -39.346,-128.833c0.003,-31.858 6.449,-62.132 18.104,-89.694c17.48,-41.335 46.719,-76.551 83.506,-101.4c36.797,-24.849 81.054,-39.341 128.832,-39.348c51.009,0.007 98.039,16.533 136.209,44.552l1.656,1.213c0.082,0.063 0.167,0.124 0.251,0.185l0.259,0.189l0.003,-0.003c2.407,1.669 5.328,2.649 8.478,2.649c8.231,0 14.905,-6.673 14.905,-14.904c0,-5.151 -2.614,-9.691 -6.587,-12.368c-42.984,-32.087 -97.096,-51.297 -155.174,-51.29c-71.811,-0.007 -136.96,29.149 -184.003,76.216c-47.068,47.044 -76.224,112.192 -76.216,184.003c-0.008,71.811 29.148,136.961 76.216,184.003c47.043,47.066 112.192,76.224 184.003,76.218l0.011,0c35.88,0 70.132,-7.282 101.265,-20.45c28.884,-12.215 55.847,-30.252 78.276,-51.47l-0.739,0.747c0,0 0.6,-0.609 0.739,-0.747c2.822,-2.788 6.585,-4.326 10.596,-4.326l0.061,0c4.024,0.016 7.79,1.574 10.603,4.386c1.592,1.592 4.262,5.036 4.242,10.224c-0.02,5.172 -2.705,8.594 -4.304,10.175c-0.033,0.031 -0.069,0.063 -0.102,0.096c-25.361,24.404 -55.079,44.134 -87.974,58.051c-34.65,14.654 -72.719,22.761 -112.759,22.763c-80.034,-0.006 -152.355,-32.399 -204.82,-84.838c-52.441,-52.466 -84.832,-124.785 -84.839,-204.821c0.007,-80.034 32.398,-152.355 84.839,-204.82c52.465,-52.441 124.785,-84.831 204.82,-84.839c65.262,0.005 125.439,21.587 173.878,57.991l0.001,-0.001c1.411,1.106 2.765,2.299 4.053,3.586c8.359,8.359 12.962,19.473 12.962,31.294c0,11.821 -4.603,22.935 -12.962,31.293c-8.359,8.36 -19.472,12.962 -31.294,12.962c-9.587,0 -18.706,-3.027 -26.271,-8.628c-1.763,-1.307 -5.312,-3.686 -5.312,-3.686c-11.43,-7.986 -23.73,-14.819 -36.738,-20.321c-24.054,-10.18 -50.531,-15.809 -78.242,-15.807c-27.713,-0.002 -54.189,5.625 -78.244,15.801c-36.091,15.269 -66.751,40.736 -88.421,72.808c-21.671,32.062 -34.344,70.814 -34.337,112.392c-0.002,27.714 5.625,54.188 15.802,78.243c15.268,36.092 40.735,66.752 72.807,88.424c32.063,21.67 70.815,34.344 112.393,34.338l0.011,0c27.709,0 54.183,-5.629 78.238,-15.807c21.304,-9.012 40.716,-21.585 57.505,-36.969l1.457,-1.316c0.118,-0.104 0.235,-0.208 0.35,-0.315l0.152,-0.138l-0.004,-0.006c2.824,-2.713 4.585,-6.523 4.585,-10.748c0,-8.232 -6.673,-14.903 -14.903,-14.903c-3.969,0 -7.574,1.555 -10.245,4.085l-3.331,3.032c-13.89,12.37 -29.803,22.51 -47.167,29.854c-20.479,8.659 -42.965,13.449 -66.648,13.45c-23.683,-0.001 -46.167,-4.791 -66.645,-13.448c-30.707,-12.985 -56.881,-34.716 -75.346,-62.052c-18.463,-27.345 -29.227,-60.209 -29.233,-95.724c0.002,-23.682 4.791,-46.166 13.45,-66.643c12.984,-30.708 34.715,-56.883 62.051,-75.346c27.346,-18.465 60.209,-29.228 95.723,-29.234c23.679,0.002 46.164,4.793 66.641,13.453c12.609,5.334 24.45,12.143 35.309,20.207c12.42,9.363 27.861,14.942 44.613,14.942c20.501,0 39.06,-8.314 52.489,-21.755c13.411,-13.424 21.704,-31.963 21.704,-52.438c0,-23.912 -11.273,-44.959 -28.837,-58.518c-53.442,-40.233 -119.993,-64.135 -191.994,-64.131c-88.163,-0.007 -168.116,35.779 -225.876,93.562c-57.784,57.759 -93.569,137.713 -93.561,225.876c-0.008,88.163 35.777,168.118 93.561,225.876c57.76,57.783 137.712,93.568 225.876,93.562l0.016,0c44.064,0 86.12,-8.943 124.345,-25.117c36.361,-15.383 69.262,-37.298 97.252,-64.269c8.146,-7.978 13.156,-19.11 13.203,-31.366" style="fill:#1fc4f4;fill-rule:nonzero;"/><path d="M569.797,320.179l0,-0.615c0,-45.301 35.045,-83.373 83.079,-83.373c25.06,0 42.275,8.166 55.877,19.946c2.41,2.114 5.73,6.64 5.73,12.689c0,9.372 -7.551,16.601 -16.924,16.601c-4.523,0 -8.457,-1.794 -10.869,-3.614c-9.369,-7.845 -19.625,-13.601 -34.135,-13.601c-26.561,0 -46.212,22.971 -46.212,50.738l0,0.614c0,28.382 19.651,51.057 47.736,51.057c14.488,0 25.677,-5.754 35.638,-14.215c2.114,-1.795 5.729,-3.91 9.959,-3.91c8.756,0 15.717,7.231 15.717,16.01c0,4.82 -1.82,8.756 -5.14,11.461c-14.192,13.601 -31.405,22.65 -57.995,22.65c-47.416,0 -82.461,-37.135 -82.461,-82.438" style="fill:#005480;fill-rule:nonzero;"/><path d="M734.856,256.754c0,-10.28 7.869,-18.42 18.125,-18.42c10.279,0 18.422,8.14 18.422,18.42l0,8.313c8.459,-19.922 23.865,-27.029 39.877,-27.029c11.484,0 20.812,6.708 20.812,17.258c0,9.666 -8.398,17.145 -17.804,17.145c-31.473,0 -42.885,22.239 -42.885,59.992l0,49.97c0,9.96 -8.143,18.1 -18.422,18.1c-9.961,0 -18.125,-7.845 -18.125,-18.1l0,-125.649Z" style="fill:#005480;fill-rule:nonzero;"/><path d="M947.182,304.996c-2.41,-23.561 -16.307,-38.898 -40.457,-38.898c-22.357,0 -38.072,14.132 -41.393,38.898l81.85,0Zm-36.254,97.622c-46.211,0 -81.846,-33.521 -81.846,-82.758l0,-0.592c0,-45.62 32.315,-83.077 77.936,-83.077c50.738,0 75.801,41.687 75.801,78.554c0,10.255 -7.846,18.127 -17.217,18.127l-99.975,0c3.936,25.971 22.358,39.866 45.918,39.866c15.395,0 27.496,-5.462 37.752,-13.897c2.731,-2.114 5.141,-3.32 9.369,-3.32c8.141,0 14.487,6.32 14.487,14.781c0,4.55 -2.116,8.46 -4.821,11.19c-14.509,12.986 -32.636,21.126 -57.404,21.126" style="fill:#005480;fill-rule:nonzero;"/><path d="M1124,320.179l0,-0.615c0,-28.085 -19.365,-51.352 -46.82,-51.352c-28.026,0 -45.955,22.971 -45.955,50.738l0,0.615c0,27.791 19.365,51.056 46.541,51.056c28.304,0 46.234,-22.969 46.234,-50.442m-127.738,0l0,-0.614c0,-45.596 34.681,-83.373 81.504,-83.373c46.8,0 81.199,37.161 81.199,82.758l0,0.615c0,45.303 -34.684,83.052 -81.785,83.052c-46.522,0 -80.918,-37.135 -80.918,-82.438" style="fill:#005480;fill-rule:nonzero;"/><path d="M1170.31,382.991c-3.885,-2.114 -6.871,-6.64 -6.871,-12.688c0,-8.141 6.266,-14.782 14.617,-14.782c2.988,0 5.66,0.885 7.746,2.091c15.227,10.279 31.033,15.42 45.336,15.42c15.516,0 24.451,-6.642 24.451,-17.217l0,-0.614c0,-12.37 -16.707,-16.601 -35.185,-22.356c-23.26,-6.639 -49.194,-16.304 -49.194,-46.802l0,-0.615c0,-30.2 24.743,-48.621 56.041,-48.621c16.707,0 34.311,4.82 49.512,12.985c5.074,2.73 8.645,7.551 8.645,13.896c0,8.46 -6.555,14.804 -14.91,14.804c-2.989,0 -4.76,-0.614 -7.163,-1.819c-12.822,-6.64 -25.933,-10.87 -36.957,-10.87c-14.037,0 -22.072,6.64 -22.072,15.716l0,0.589c0,11.781 16.996,16.626 35.475,22.652c22.972,7.254 48.904,17.831 48.904,46.531l0,0.591c0,33.52 -25.641,50.146 -58.447,50.146c-19.983,0 -41.739,-6.346 -59.928,-19.037" style="fill:#005480;fill-rule:nonzero;"/></g></svg>