<svg viewBox="0 0 1289 640" xmlns="http://www.w3.org/2000/svg" xml:space="preserve" style="fill-rule:evenodd;clip-rule:evenodd;stroke-linejoin:round;stroke-miterlimit:1.41421"><path d="M554.353 518.326c.093-24.428-19.79-44.307-44.411-44.397h-.172c-8.798 0-20.252 2.016-30.834 12.195-20.093 19.232-43.653 34.863-69.635 45.85-27.558 11.65-57.827 18.094-89.679 18.096-31.859-.002-62.133-6.448-89.694-18.101-41.336-17.482-76.551-46.722-101.402-83.507-24.848-36.797-39.34-81.055-39.346-128.833.003-31.858 6.449-62.132 18.104-89.694 17.48-41.335 46.719-76.551 83.506-101.4 36.797-24.849 81.054-39.341 128.832-39.348 51.009.007 98.039 16.533 136.209 44.552l1.656 1.213c.082.063.167.124.251.185l.259.189.003-.003a14.828 14.828 0 0 0 8.478 2.649c8.231 0 14.905-6.673 14.905-14.904 0-5.151-2.614-9.691-6.587-12.368-42.984-32.087-97.096-51.297-155.174-51.29-71.811-.007-136.96 29.149-184.003 76.216-47.068 47.044-76.224 112.192-76.216 184.003-.008 71.811 29.148 136.961 76.216 184.003 47.043 47.066 112.192 76.224 184.003 76.218h.011c35.88 0 70.132-7.282 101.265-20.45 28.884-12.215 55.847-30.252 78.276-51.47l-.739.747s.6-.609.739-.747c2.822-2.788 6.585-4.326 10.596-4.326h.061c4.024.016 7.79 1.574 10.603 4.386 1.592 1.592 4.262 5.036 4.242 10.224-.02 5.172-2.705 8.594-4.304 10.175-.033.031-.069.063-.102.096a289.422 289.422 0 0 1-87.974 58.051c-34.65 14.654-72.719 22.761-112.759 22.763-80.034-.006-152.355-32.399-204.82-84.838-52.441-52.466-84.832-124.785-84.839-204.821.007-80.034 32.398-152.355 84.839-204.82 52.465-52.441 124.785-84.831 204.82-84.839 65.262.005 125.439 21.587 173.878 57.991l.001-.001a45.014 45.014 0 0 1 4.053 3.586c8.359 8.359 12.962 19.473 12.962 31.294 0 11.821-4.603 22.935-12.962 31.293-8.359 8.36-19.472 12.962-31.294 12.962-9.587 0-18.706-3.027-26.271-8.628-1.763-1.307-5.312-3.686-5.312-3.686a200.568 200.568 0 0 0-36.738-20.321c-24.054-10.18-50.531-15.809-78.242-15.807-27.713-.002-54.189 5.625-78.244 15.801-36.091 15.269-66.751 40.736-88.421 72.808-21.671 32.062-34.344 70.814-34.337 112.392-.002 27.714 5.625 54.188 15.802 78.243 15.268 36.092 40.735 66.752 72.807 88.424 32.063 21.67 70.815 34.344 112.393 34.338h.011c27.709 0 54.183-5.629 78.238-15.807 21.304-9.012 40.716-21.585 57.505-36.969l1.457-1.316c.118-.104.235-.208.35-.315l.152-.138-.004-.006a14.858 14.858 0 0 0 4.585-10.748c0-8.232-6.673-14.903-14.903-14.903a14.85 14.85 0 0 0-10.245 4.085l-3.331 3.032a171.282 171.282 0 0 1-47.167 29.854c-20.479 8.659-42.965 13.449-66.648 13.45-23.683-.001-46.167-4.791-66.645-13.448-30.707-12.985-56.881-34.716-75.346-62.052-18.463-27.345-29.227-60.209-29.233-95.724.002-23.682 4.791-46.166 13.45-66.643 12.984-30.708 34.715-56.883 62.051-75.346 27.346-18.465 60.209-29.228 95.723-29.234 23.679.002 46.164 4.793 66.641 13.453a170.949 170.949 0 0 1 35.309 20.207c12.42 9.363 27.861 14.942 44.613 14.942 20.501 0 39.06-8.314 52.489-21.755 13.411-13.424 21.704-31.963 21.704-52.438 0-23.912-11.273-44.959-28.837-58.518C458.089 24.1 391.538.198 319.537.202 231.374.195 151.421 35.981 93.661 93.764 35.877 151.523.092 231.477.1 319.64c-.008 88.163 35.777 168.118 93.561 225.876 57.76 57.783 137.712 93.568 225.876 93.562h.016c44.064 0 86.12-8.943 124.345-25.117 36.361-15.383 69.262-37.298 97.252-64.269 8.146-7.978 13.156-19.11 13.203-31.366" style="fill:#1fc4f4;fill-rule:nonzero"/><path d="M569.797 320.179v-.615c0-45.301 35.045-83.373 83.079-83.373 25.06 0 42.275 8.166 55.877 19.946 2.41 2.114 5.73 6.64 5.73 12.689 0 9.372-7.551 16.601-16.924 16.601-4.523 0-8.457-1.794-10.869-3.614-9.369-7.845-19.625-13.601-34.135-13.601-26.561 0-46.212 22.971-46.212 50.738v.614c0 28.382 19.651 51.057 47.736 51.057 14.488 0 25.677-5.754 35.638-14.215 2.114-1.795 5.729-3.91 9.959-3.91 8.756 0 15.717 7.231 15.717 16.01 0 4.82-1.82 8.756-5.14 11.461-14.192 13.601-31.405 22.65-57.995 22.65-47.416 0-82.461-37.135-82.461-82.438M734.856 256.754c0-10.28 7.869-18.42 18.125-18.42 10.279 0 18.422 8.14 18.422 18.42v8.313c8.459-19.922 23.865-27.029 39.877-27.029 11.484 0 20.812 6.708 20.812 17.258 0 9.666-8.398 17.145-17.804 17.145-31.473 0-42.885 22.239-42.885 59.992v49.97c0 9.96-8.143 18.1-18.422 18.1-9.961 0-18.125-7.845-18.125-18.1V256.754ZM947.182 304.996c-2.41-23.561-16.307-38.898-40.457-38.898-22.357 0-38.072 14.132-41.393 38.898h81.85Zm-36.254 97.622c-46.211 0-81.846-33.521-81.846-82.758v-.592c0-45.62 32.315-83.077 77.936-83.077 50.738 0 75.801 41.687 75.801 78.554 0 10.255-7.846 18.127-17.217 18.127h-99.975c3.936 25.971 22.358 39.866 45.918 39.866 15.395 0 27.496-5.462 37.752-13.897 2.731-2.114 5.141-3.32 9.369-3.32 8.141 0 14.487 6.32 14.487 14.781 0 4.55-2.116 8.46-4.821 11.19-14.509 12.986-32.636 21.126-57.404 21.126M1124 320.179v-.615c0-28.085-19.365-51.352-46.82-51.352-28.026 0-45.955 22.971-45.955 50.738v.615c0 27.791 19.365 51.056 46.541 51.056 28.304 0 46.234-22.969 46.234-50.442m-127.738 0v-.614c0-45.596 34.681-83.373 81.504-83.373 46.8 0 81.199 37.161 81.199 82.758v.615c0 45.303-34.684 83.052-81.785 83.052-46.522 0-80.918-37.135-80.918-82.438M1170.31 382.991c-3.885-2.114-6.871-6.64-6.871-12.688 0-8.141 6.266-14.782 14.617-14.782 2.988 0 5.66.885 7.746 2.091 15.227 10.279 31.033 15.42 45.336 15.42 15.516 0 24.451-6.642 24.451-17.217v-.614c0-12.37-16.707-16.601-35.185-22.356-23.26-6.639-49.194-16.304-49.194-46.802v-.615c0-30.2 24.743-48.621 56.041-48.621 16.707 0 34.311 4.82 49.512 12.985 5.074 2.73 8.645 7.551 8.645 13.896 0 8.46-6.555 14.804-14.91 14.804-2.989 0-4.76-.614-7.163-1.819-12.822-6.64-25.933-10.87-36.957-10.87-14.037 0-22.072 6.64-22.072 15.716v.589c0 11.781 16.996 16.626 35.475 22.652 22.972 7.254 48.904 17.831 48.904 46.531v.591c0 33.52-25.641 50.146-58.447 50.146-19.983 0-41.739-6.346-59.928-19.037" style="fill:#005480;fill-rule:nonzero"/></svg>