<?xml version="1.0" encoding="UTF-8" standalone="no"?><!DOCTYPE svg PUBLIC "-//W3C//DTD SVG 1.1//EN" "http://www.w3.org/Graphics/SVG/1.1/DTD/svg11.dtd"><svg width="100%" height="100%" viewBox="0 0 238 47" version="1.1" xmlns="http://www.w3.org/2000/svg" xmlns:xlink="http://www.w3.org/1999/xlink" xml:space="preserve" xmlns:serif="http://www.serif.com/" style="fill-rule:evenodd;clip-rule:evenodd;stroke-linejoin:round;stroke-miterlimit:2;"><g><path d="M0.165,5.99c-0.012,0.348 -0.293,8.645 5.59,14.778c3.492,3.644 8.355,5.711 14.465,6.152l0,-4.316c-4.848,-0.411 -8.657,-2.012 -11.332,-4.782c-4.614,-4.777 -4.426,-11.593 -4.422,-11.66c0.039,-0.992 0.922,-1.84 1.922,-1.84l13.832,0l0,-4.3l-13.832,0c-3.29,0 -6.083,2.675 -6.223,5.968m43.512,14.949c0.015,-0.48 0.238,-8.687 -5.59,-14.765c-3.492,-3.645 -8.356,-5.711 -14.473,-6.152l0,4.316c4.856,0.41 8.664,2.012 11.34,4.781c4.613,4.781 4.426,11.594 4.422,11.66c-0.039,0.996 -0.922,1.84 -1.922,1.84l-13.84,0l0,4.305l13.816,0c1.004,0 1.899,0.848 1.942,1.844l0.008,0.242l0,2.801l4.3,0l0,-10.872l-0.003,0Z" style="fill:#ffd400;fill-rule:nonzero;"/><path d="M81.618,39.166l0.996,0l2.578,7.109l-1.008,0l-0.757,-2.175l-2.7,0l-0.816,2.175l-1.012,0l2.719,-7.109Zm0.5,1.168l-0.02,0l-1.082,2.945l2.122,0l-1.02,-2.945Z" style="fill:#232e3a;fill-rule:nonzero;"/><path d="M90.762,41.252c-0.05,-1.047 -0.847,-1.508 -1.835,-1.508c-0.672,0 -1.59,0.231 -1.59,1.067c0,1.878 4.515,0.472 4.515,3.437c0,1.508 -1.39,2.207 -2.738,2.207c-1.687,0 -3.027,-0.668 -3.144,-2.484l1.015,-0.09c0.051,1.285 0.86,1.816 2.09,1.816c0.898,0 1.758,-0.41 1.758,-1.418c0,-1.957 -4.516,-0.629 -4.516,-3.265c0,-1.379 1.321,-2.028 2.547,-2.028c1.469,0 2.668,0.668 2.867,2.215l-0.969,0.051Z" style="fill:#232e3a;fill-rule:nonzero;"/><path d="M97.72,41.252c-0.051,-1.047 -0.848,-1.508 -1.836,-1.508c-0.672,0 -1.59,0.231 -1.59,1.067c0,1.878 4.515,0.472 4.515,3.437c0,1.508 -1.39,2.207 -2.738,2.207c-1.687,0 -3.023,-0.668 -3.144,-2.484l1.019,-0.09c0.047,1.285 0.859,1.816 2.086,1.816c0.898,0 1.758,-0.41 1.758,-1.418c0,-1.957 -4.516,-0.629 -4.516,-3.265c0,-1.379 1.321,-2.028 2.547,-2.028c1.469,0 2.668,0.668 2.867,2.215l-0.968,0.051Z" style="fill:#232e3a;fill-rule:nonzero;"/><path d="M105.618,43.939c0,1.618 -1.039,2.516 -2.707,2.516c-1.668,0 -2.707,-0.898 -2.707,-2.516l0,-4.773l0.937,0l0,4.613c0,1.239 0.539,1.856 1.77,1.856c1.227,0 1.766,-0.617 1.766,-1.856l0,-4.613l0.941,0l0,4.773Z" style="fill:#232e3a;fill-rule:nonzero;"/><path d="M107.329,39.166l3.219,0c1.117,0 2.285,0.43 2.285,2.047c0,0.91 -0.41,1.785 -1.649,1.988l1.957,3.074l-1.136,0l-1.918,-3.015l-1.817,0l0,3.015l-0.941,0l0,-7.109Zm0.941,3.273l2.125,0c0.879,0 1.5,-0.277 1.5,-1.226c0,-0.938 -0.621,-1.227 -1.5,-1.227l-2.125,0l0,2.453Z" style="fill:#232e3a;fill-rule:nonzero;"/><path d="M116.388,39.166l0.996,0l2.578,7.109l-1.008,0l-0.762,-2.175l-2.695,0l-0.82,2.175l-1.008,0l2.719,-7.109Zm0.496,1.168l-0.02,0l-1.078,2.945l2.117,0l-1.019,-2.945Z" style="fill:#232e3a;fill-rule:nonzero;"/><path d="M121.055,39.166l0.95,0l3.765,5.609l0.02,0l0,-5.609l0.879,0l0,7.109l-0.938,0l-3.777,-5.601l-0.02,0l0,5.601l-0.879,0l0,-7.109Z" style="fill:#232e3a;fill-rule:nonzero;"/><path d="M133.587,41.361c-0.242,-0.968 -1.188,-1.617 -2.246,-1.617c-1.758,0 -2.559,1.406 -2.559,2.977c0,1.566 0.801,2.976 2.559,2.976c1.226,0 2.156,-0.851 2.324,-2.109l0.992,0.121c-0.32,1.676 -1.758,2.746 -3.316,2.746c-2.219,0 -3.579,-1.519 -3.579,-3.734c0,-2.219 1.36,-3.735 3.579,-3.735c1.527,0 2.793,0.739 3.226,2.196l-0.98,0.179Z" style="fill:#232e3a;fill-rule:nonzero;"/><path d="M136.052,39.166l4.992,0l0,0.82l-4.055,0l0,2.196l3.523,0l0,0.816l-3.523,0l0,2.457l4.152,0l0,0.82l-5.089,0l0,-7.109Z" style="fill:#232e3a;fill-rule:nonzero;"/><path d="M146.923,41.252c-0.051,-1.047 -0.852,-1.508 -1.84,-1.508c-0.668,0 -1.586,0.231 -1.586,1.067c0,1.878 4.512,0.472 4.512,3.437c0,1.508 -1.387,2.207 -2.735,2.207c-1.687,0 -3.023,-0.668 -3.148,-2.484l1.019,-0.09c0.051,1.285 0.86,1.816 2.09,1.816c0.899,0 1.758,-0.41 1.758,-1.418c0,-1.957 -4.516,-0.629 -4.516,-3.265c0,-1.379 1.317,-2.028 2.547,-2.028c1.469,0 2.668,0.668 2.867,2.215l-0.968,0.051Z" style="fill:#232e3a;fill-rule:nonzero;"/><path d="M153.079,39.166l2.687,0c2.168,0 3.145,1.457 3.145,3.594c0,2.027 -1.016,3.515 -3.145,3.515l-2.687,0l0,-7.109Zm0.941,6.289l1.586,0c1.688,0 2.289,-1.137 2.289,-2.785c0,-1.617 -0.633,-2.684 -2.207,-2.684l-1.668,0l0,5.469Z" style="fill:#232e3a;fill-rule:nonzero;"/><path d="M160.009,39.166l4.992,0l0,0.82l-4.055,0l0,2.196l3.524,0l0,0.816l-3.524,0l0,2.457l4.156,0l0,0.82l-5.093,0l0,-7.109Z" style="fill:#232e3a;fill-rule:nonzero;"/><path d="M166.407,39.166l3.555,0c0.859,0 1.859,0.5 1.859,2.047c0,1.391 -1.019,2.027 -1.937,2.027l-2.539,0l0,3.035l-0.938,0l0,-7.109Zm0.938,3.254l2.179,0c0.805,0 1.356,-0.359 1.356,-1.219c0,-0.789 -0.36,-1.215 -1.227,-1.215l-2.308,0l0,2.434Z" style="fill:#232e3a;fill-rule:nonzero;"/><path d="M178.407,43.939c0,1.618 -1.039,2.516 -2.707,2.516c-1.668,0 -2.707,-0.898 -2.707,-2.516l0,-4.773l0.941,0l0,4.613c0,1.239 0.539,1.856 1.766,1.856c1.23,0 1.77,-0.617 1.77,-1.856l0,-4.613l0.937,0l0,4.773Z" style="fill:#232e3a;fill-rule:nonzero;"/><rect x="179.833" y="39.166" width="0.938" height="7.109" style="fill:#232e3a;"/><path d="M187.071,41.252c-0.051,-1.047 -0.848,-1.508 -1.836,-1.508c-0.672,0 -1.59,0.231 -1.59,1.067c0,1.878 4.516,0.472 4.516,3.437c0,1.508 -1.391,2.207 -2.738,2.207c-1.688,0 -3.024,-0.668 -3.145,-2.484l1.02,-0.09c0.047,1.285 0.859,1.816 2.086,1.816c0.898,0 1.757,-0.41 1.757,-1.418c0,-1.957 -4.511,-0.629 -4.511,-3.265c0,-1.379 1.316,-2.028 2.543,-2.028c1.468,0 2.668,0.668 2.867,2.215l-0.969,0.051Z" style="fill:#232e3a;fill-rule:nonzero;"/><path d="M194.884,41.135l-1.504,0l0,-0.664c0.984,-0.039 1.609,-0.196 1.804,-1.254l0.676,0l0,7.055l-0.976,0l0,-5.137Z" style="fill:#232e3a;fill-rule:nonzero;"/><path d="M198.688,44.373c0.157,0.656 0.551,1.172 1.27,1.172c1.273,0 1.672,-1.356 1.68,-2.395l-0.008,-0.019c-0.512,0.629 -1.032,0.871 -1.84,0.871c-0.965,0 -2.18,-0.719 -2.18,-2.398c0,-1.442 1.121,-2.45 2.367,-2.45c1.485,0 2.555,0.832 2.555,3.52c0,1.379 -0.387,3.664 -2.547,3.664c-1.18,0 -1.887,-0.668 -2.176,-1.789l0.879,-0.176Zm1.352,-1.223c0.715,0 1.523,-0.406 1.515,-1.566c0,-0.676 -0.417,-1.578 -1.515,-1.578c-1.11,0 -1.516,0.902 -1.516,1.578c0,1.223 0.789,1.566 1.516,1.566" style="fill:#232e3a;fill-rule:nonzero;"/><path d="M203.97,45.35c1.277,-0.676 3.55,-2.375 3.55,-4.028c0,-0.883 -0.437,-1.316 -1.359,-1.316c-0.926,0 -1.277,0.664 -1.277,1.309c0,0.277 0.039,0.578 0.093,0.878l-0.914,0c-0.062,-0.277 -0.093,-0.546 -0.093,-0.796c0,-1.204 0.707,-2.243 2.253,-2.243c1.348,0 2.27,0.895 2.27,2.25c0,1.778 -1.93,3.188 -3.246,4.008l0,-0.012l-0.012,0.024l3.332,0l0,0.848l-4.597,0l0,-0.922Z" style="fill:#232e3a;fill-rule:nonzero;"/><path d="M211.36,41.135l-1.504,0l0,-0.664c0.985,-0.039 1.61,-0.196 1.805,-1.254l0.676,0l0,7.055l-0.977,0l0,-5.137Z" style="fill:#232e3a;fill-rule:nonzero;"/><path d="M97.141,15.092c0,-4.231 -3.015,-7.274 -8.121,-7.274l-10.047,0l0,24.086l4.532,0l0,-8.859l4.332,0l4.664,8.859l5.246,0l-5.379,-9.707c1.152,-0.441 4.773,-1.691 4.773,-7.105m-8.695,3.953l-4.941,0l0,-7.234l4.265,0c3.141,0 4.633,1.421 4.633,3.621c0,2.261 -1.66,3.613 -3.957,3.613" style="fill:#232e3a;fill-rule:nonzero;"/><path d="M112.54,7.209c-7.207,0 -11.539,5.852 -11.539,12.652c0,6.801 4.332,12.657 11.539,12.657c7.203,0 11.539,-5.856 11.539,-12.657c0,-6.8 -4.336,-12.652 -11.539,-12.652m0,21.109c-4.805,0 -6.805,-4.257 -6.805,-8.457c0,-4.195 2,-8.457 6.805,-8.457c4.797,0 6.797,4.262 6.797,8.457c0,4.2 -2,8.457 -6.797,8.457" style="fill:#232e3a;fill-rule:nonzero;"/><rect x="129.149" y="7.818" width="4.531" height="24.086" style="fill:#232e3a;"/><path d="M151.72,17.795l-2.946,-0.641c-2.715,-0.605 -4.976,-1.082 -4.976,-3.078c0,-1.691 1.968,-2.672 4.566,-2.672c2.941,0 5.184,1.285 6.328,3.485l3.758,-2.84c-2.508,-3.32 -5.922,-4.84 -10.051,-4.84c-4.496,0 -9.336,2.434 -9.336,7.508c0,4.433 3.383,5.855 7.239,6.734l2.671,0.61c3.215,0.746 4.973,1.285 4.973,3.179c0,2.336 -2.906,3.078 -5.105,3.078c-2.946,0 -5.586,-1.148 -7.278,-3.656l-3.855,2.777c2.304,3.352 6.43,5.079 10.422,5.079c5.008,0 10.558,-2.032 10.558,-7.922c0,-4.567 -3.386,-6.02 -6.968,-6.801" style="fill:#232e3a;fill-rule:nonzero;"/><path d="M167.962,21.486l11.5,0l0,-3.992l-11.5,0l0,-5.484l12.609,0l0,-4.192l-17.148,0l0,24.086l17.148,0l0,-4.191l-12.609,0l0,-6.227Z" style="fill:#232e3a;fill-rule:nonzero;"/><path d="M55.817,13.572c-0.008,0.309 -0.254,7.567 4.86,12.942c3.039,3.183 7.257,4.996 12.543,5.383l0.73,0.054l0,-4.996l-0.625,-0.058c-3.891,-0.325 -6.93,-1.614 -9.043,-3.817c-3.383,-3.531 -3.508,-8.535 -3.508,-9.23l0,-0.082c0.02,-0.461 0.453,-0.879 0.934,-0.879l12.242,0l0,-4.989l-12.242,0c-3.117,0 -5.762,2.547 -5.891,5.672" style="fill:#232e3a;fill-rule:nonzero;"/><path d="M205.86,17.795l-2.945,-0.641c-2.703,-0.605 -4.973,-1.082 -4.973,-3.078c0,-1.691 1.961,-2.672 4.57,-2.672c2.942,0 5.172,1.285 6.325,3.485l3.754,-2.84c-2.5,-3.32 -5.918,-4.84 -10.047,-4.84c-4.5,0 -9.336,2.434 -9.336,7.508c0,4.433 3.383,5.855 7.234,6.734l2.68,0.61c3.211,0.746 4.973,1.285 4.973,3.179c0,2.336 -2.915,3.078 -5.114,3.078c-2.937,0 -5.582,-1.148 -7.269,-3.656l-3.86,2.777c2.301,3.352 6.426,5.079 10.422,5.079c5.012,0 10.559,-2.032 10.559,-7.922c0,-4.567 -3.383,-6.02 -6.973,-6.801" style="fill:#232e3a;fill-rule:nonzero;"/><path d="M233.001,12.076c-2.578,-2.726 -6.145,-4.281 -10.625,-4.617l-0.176,0c-2.645,0 -4.891,2.188 -4.996,4.875l0,19.578l4.238,0l0,-5.039l10.656,0c0.391,0 0.758,0.352 0.774,0.738l0.008,4.301l4.25,0l0,-8.808c0.015,-0.637 0.093,-6.547 -4.129,-11.028m-0.125,10.035c-0.016,0.383 -0.379,0.739 -0.758,0.739l-10.676,0l0,-10.364c0.016,-0.359 0.379,-0.714 0.758,-0.714c3.367,0.293 5.938,1.386 7.723,3.265c2.863,3.02 2.953,6.473 2.953,7.02l0,0.054Z" style="fill:#232e3a;fill-rule:nonzero;"/><path d="M176.602,1.385l-4.539,0l-3.074,4.871l2.809,0l4.804,-4.871Z" style="fill:#232e3a;fill-rule:nonzero;"/></g></svg>