<svg viewBox="0 0 238 47" xmlns="http://www.w3.org/2000/svg" xml:space="preserve" style="fill-rule:evenodd;clip-rule:evenodd;stroke-linejoin:round;stroke-miterlimit:2"><path d="M.165 5.99c-.012.348-.293 8.645 5.59 14.778 3.492 3.644 8.355 5.711 14.465 6.152v-4.316c-4.848-.411-8.657-2.012-11.332-4.782-4.614-4.777-4.426-11.593-4.422-11.66.039-.992.922-1.84 1.922-1.84H20.22v-4.3H6.388C3.098.022.305 2.697.165 5.99m43.512 14.949c.015-.48.238-8.687-5.59-14.765C34.595 2.529 29.731.463 23.614.022v4.316c4.856.41 8.664 2.012 11.34 4.781 4.613 4.781 4.426 11.594 4.422 11.66-.039.996-.922 1.84-1.922 1.84h-13.84v4.305H37.43c1.004 0 1.899.848 1.942 1.844l.008.242v2.801h4.3V20.939h-.003Z" style="fill:#ffd400;fill-rule:nonzero"/><path d="M81.618 39.166h.996l2.578 7.109h-1.008l-.757-2.175h-2.7l-.816 2.175h-1.012l2.719-7.109Zm.5 1.168h-.02l-1.082 2.945h2.122l-1.02-2.945ZM90.762 41.252c-.05-1.047-.847-1.508-1.835-1.508-.672 0-1.59.231-1.59 1.067 0 1.878 4.515.472 4.515 3.437 0 1.508-1.39 2.207-2.738 2.207-1.687 0-3.027-.668-3.144-2.484l1.015-.09c.051 1.285.86 1.816 2.09 1.816.898 0 1.758-.41 1.758-1.418 0-1.957-4.516-.629-4.516-3.265 0-1.379 1.321-2.028 2.547-2.028 1.469 0 2.668.668 2.867 2.215l-.969.051ZM97.72 41.252c-.051-1.047-.848-1.508-1.836-1.508-.672 0-1.59.231-1.59 1.067 0 1.878 4.515.472 4.515 3.437 0 1.508-1.39 2.207-2.738 2.207-1.687 0-3.023-.668-3.144-2.484l1.019-.09c.047 1.285.859 1.816 2.086 1.816.898 0 1.758-.41 1.758-1.418 0-1.957-4.516-.629-4.516-3.265 0-1.379 1.321-2.028 2.547-2.028 1.469 0 2.668.668 2.867 2.215l-.968.051ZM105.618 43.939c0 1.618-1.039 2.516-2.707 2.516s-2.707-.898-2.707-2.516v-4.773h.937v4.613c0 1.239.539 1.856 1.77 1.856 1.227 0 1.766-.617 1.766-1.856v-4.613h.941v4.773ZM107.329 39.166h3.219c1.117 0 2.285.43 2.285 2.047 0 .91-.41 1.785-1.649 1.988l1.957 3.074h-1.136l-1.918-3.015h-1.817v3.015h-.941v-7.109Zm.941 3.273h2.125c.879 0 1.5-.277 1.5-1.226 0-.938-.621-1.227-1.5-1.227h-2.125v2.453ZM116.388 39.166h.996l2.578 7.109h-1.008l-.762-2.175h-2.695l-.82 2.175h-1.008l2.719-7.109Zm.496 1.168h-.02l-1.078 2.945h2.117l-1.019-2.945ZM121.055 39.166h.95l3.765 5.609h.02v-5.609h.879v7.109h-.938l-3.777-5.601h-.02v5.601h-.879v-7.109ZM133.587 41.361c-.242-.968-1.188-1.617-2.246-1.617-1.758 0-2.559 1.406-2.559 2.977 0 1.566.801 2.976 2.559 2.976 1.226 0 2.156-.851 2.324-2.109l.992.121a3.36 3.36 0 0 1-3.316 2.746c-2.219 0-3.579-1.519-3.579-3.734 0-2.219 1.36-3.735 3.579-3.735 1.527 0 2.793.739 3.226 2.196l-.98.179ZM136.052 39.166h4.992v.82h-4.055v2.196h3.523v.816h-3.523v2.457h4.152v.82h-5.089v-7.109ZM146.923 41.252c-.051-1.047-.852-1.508-1.84-1.508-.668 0-1.586.231-1.586 1.067 0 1.878 4.512.472 4.512 3.437 0 1.508-1.387 2.207-2.735 2.207-1.687 0-3.023-.668-3.148-2.484l1.019-.09c.051 1.285.86 1.816 2.09 1.816.899 0 1.758-.41 1.758-1.418 0-1.957-4.516-.629-4.516-3.265 0-1.379 1.317-2.028 2.547-2.028 1.469 0 2.668.668 2.867 2.215l-.968.051ZM153.079 39.166h2.687c2.168 0 3.145 1.457 3.145 3.594 0 2.027-1.016 3.515-3.145 3.515h-2.687v-7.109Zm.941 6.289h1.586c1.688 0 2.289-1.137 2.289-2.785 0-1.617-.633-2.684-2.207-2.684h-1.668v5.469ZM160.009 39.166h4.992v.82h-4.055v2.196h3.524v.816h-3.524v2.457h4.156v.82h-5.093v-7.109ZM166.407 39.166h3.555c.859 0 1.859.5 1.859 2.047 0 1.391-1.019 2.027-1.937 2.027h-2.539v3.035h-.938v-7.109Zm.938 3.254h2.179c.805 0 1.356-.359 1.356-1.219 0-.789-.36-1.215-1.227-1.215h-2.308v2.434ZM178.407 43.939c0 1.618-1.039 2.516-2.707 2.516s-2.707-.898-2.707-2.516v-4.773h.941v4.613c0 1.239.539 1.856 1.766 1.856 1.23 0 1.77-.617 1.77-1.856v-4.613h.937v4.773Z" style="fill:#232e3a;fill-rule:nonzero"/><path style="fill:#232e3a" d="M179.833 39.166h.938v7.109h-.938z"/><path d="M187.071 41.252c-.051-1.047-.848-1.508-1.836-1.508-.672 0-1.59.231-1.59 1.067 0 1.878 4.516.472 4.516 3.437 0 1.508-1.391 2.207-2.738 2.207-1.688 0-3.024-.668-3.145-2.484l1.02-.09c.047 1.285.859 1.816 2.086 1.816.898 0 1.757-.41 1.757-1.418 0-1.957-4.511-.629-4.511-3.265 0-1.379 1.316-2.028 2.543-2.028 1.468 0 2.668.668 2.867 2.215l-.969.051ZM194.884 41.135h-1.504v-.664c.984-.039 1.609-.196 1.804-1.254h.676v7.055h-.976v-5.137ZM198.688 44.373c.157.656.551 1.172 1.27 1.172 1.273 0 1.672-1.356 1.68-2.395l-.008-.019c-.512.629-1.032.871-1.84.871-.965 0-2.18-.719-2.18-2.398 0-1.442 1.121-2.45 2.367-2.45 1.485 0 2.555.832 2.555 3.52 0 1.379-.387 3.664-2.547 3.664-1.18 0-1.887-.668-2.176-1.789l.879-.176Zm1.352-1.223c.715 0 1.523-.406 1.515-1.566 0-.676-.417-1.578-1.515-1.578-1.11 0-1.516.902-1.516 1.578 0 1.223.789 1.566 1.516 1.566M203.97 45.35c1.277-.676 3.55-2.375 3.55-4.028 0-.883-.437-1.316-1.359-1.316-.926 0-1.277.664-1.277 1.309 0 .277.039.578.093.878h-.914a3.67 3.67 0 0 1-.093-.796c0-1.204.707-2.243 2.253-2.243 1.348 0 2.27.895 2.27 2.25 0 1.778-1.93 3.188-3.246 4.008V45.4l-.012.024h3.332v.848h-4.597v-.922ZM211.36 41.135h-1.504v-.664c.985-.039 1.61-.196 1.805-1.254h.676v7.055h-.977v-5.137ZM97.141 15.092c0-4.231-3.015-7.274-8.121-7.274H78.973v24.086h4.532v-8.859h4.332l4.664 8.859h5.246l-5.379-9.707c1.152-.441 4.773-1.691 4.773-7.105m-8.695 3.953h-4.941v-7.234h4.265c3.141 0 4.633 1.421 4.633 3.621 0 2.261-1.66 3.613-3.957 3.613M112.54 7.209c-7.207 0-11.539 5.852-11.539 12.652 0 6.801 4.332 12.657 11.539 12.657 7.203 0 11.539-5.856 11.539-12.657 0-6.8-4.336-12.652-11.539-12.652m0 21.109c-4.805 0-6.805-4.257-6.805-8.457 0-4.195 2-8.457 6.805-8.457 4.797 0 6.797 4.262 6.797 8.457 0 4.2-2 8.457-6.797 8.457" style="fill:#232e3a;fill-rule:nonzero"/><path style="fill:#232e3a" d="M129.149 7.818h4.531v24.086h-4.531z"/><path d="m151.72 17.795-2.946-.641c-2.715-.605-4.976-1.082-4.976-3.078 0-1.691 1.968-2.672 4.566-2.672 2.941 0 5.184 1.285 6.328 3.485l3.758-2.84c-2.508-3.32-5.922-4.84-10.051-4.84-4.496 0-9.336 2.434-9.336 7.508 0 4.433 3.383 5.855 7.239 6.734l2.671.61c3.215.746 4.973 1.285 4.973 3.179 0 2.336-2.906 3.078-5.105 3.078-2.946 0-5.586-1.148-7.278-3.656l-3.855 2.777c2.304 3.352 6.43 5.079 10.422 5.079 5.008 0 10.558-2.032 10.558-7.922 0-4.567-3.386-6.02-6.968-6.801M167.962 21.486h11.5v-3.992h-11.5V12.01h12.609V7.818h-17.148v24.086h17.148v-4.191h-12.609v-6.227ZM55.817 13.572c-.008.309-.254 7.567 4.86 12.942 3.039 3.183 7.257 4.996 12.543 5.383l.73.054v-4.996l-.625-.058c-3.891-.325-6.93-1.614-9.043-3.817-3.383-3.531-3.508-8.535-3.508-9.23v-.082c.02-.461.453-.879.934-.879H73.95V7.9H61.708c-3.117 0-5.762 2.547-5.891 5.672M205.86 17.795l-2.945-.641c-2.703-.605-4.973-1.082-4.973-3.078 0-1.691 1.961-2.672 4.57-2.672 2.942 0 5.172 1.285 6.325 3.485l3.754-2.84c-2.5-3.32-5.918-4.84-10.047-4.84-4.5 0-9.336 2.434-9.336 7.508 0 4.433 3.383 5.855 7.234 6.734l2.68.61c3.211.746 4.973 1.285 4.973 3.179 0 2.336-2.915 3.078-5.114 3.078-2.937 0-5.582-1.148-7.269-3.656l-3.86 2.777c2.301 3.352 6.426 5.079 10.422 5.079 5.012 0 10.559-2.032 10.559-7.922 0-4.567-3.383-6.02-6.973-6.801M233.001 12.076c-2.578-2.726-6.145-4.281-10.625-4.617h-.176c-2.645 0-4.891 2.188-4.996 4.875v19.578h4.238v-5.039h10.656c.391 0 .758.352.774.738l.008 4.301h4.25v-8.808c.015-.637.093-6.547-4.129-11.028m-.125 10.035c-.016.383-.379.739-.758.739h-10.676V12.486c.016-.359.379-.714.758-.714 3.367.293 5.938 1.386 7.723 3.265 2.863 3.02 2.953 6.473 2.953 7.02v.054ZM176.602 1.385h-4.539l-3.074 4.871h2.809l4.804-4.871Z" style="fill:#232e3a;fill-rule:nonzero"/></svg>