<svg viewBox="0 0 169 54" xmlns="http://www.w3.org/2000/svg" xml:space="preserve" style="fill-rule:evenodd;clip-rule:evenodd;stroke-linejoin:round;stroke-miterlimit:1.41421"><path d="M38.597 31.605V18.666h3.319v12.187c0 3.535 1.2 5.029 4.407 5.029h7.625V10.878c0-5.942-4.816-10.759-10.759-10.759H10.914C4.971.119.155 4.936.155 10.878v16.344a10.319 10.319 0 0 1 9.342-5.89c1.518 0 3.958.379 6.126 1.951 1.816 1.302 2.575 2.657 3.09 3.551h-3.524c-.596-.677-2.385-2.819-5.638-2.819-4.174 0-7.454 3.443-7.454 7.671 0 4.31 3.469 7.78 7.4 7.78 2.113 0 4.093-1.031 5.475-2.657h3.605c-2.222 3.93-5.99 5.34-9.107 5.34-4.117 0-7.665-2.51-9.315-6.053v7.058c0 5.942 4.816 10.759 10.759 10.759h32.275c5.943 0 10.759-4.817 10.759-10.759v-4.15h-8.083c-4.419 0-7.268-3.078-7.268-7.399" style="fill:#001452;fill-rule:nonzero"/><path d="M46.323 35.882c-3.207 0-4.407-1.495-4.407-5.029V18.666h-3.319v12.939c0 4.321 2.849 7.399 7.268 7.399h8.084v-3.122h-7.626Z" style="fill:#fff;fill-rule:nonzero"/><path d="M64.409 26.747h.734v.249c0 .893-.152 1.45-.456 1.672-.304.222-1.068.333-2.293.333-1.096 0-1.793-.196-2.091-.587-.297-.392-.446-1.314-.446-2.765 0-1.136.034-1.849.101-2.142.067-.293.259-.554.575-.784.371-.269 1.172-.403 2.404-.403.834 0 1.396.129 1.685.388.29.259.434.76.434 1.502l.005.177h-.734l-.005-.201c0-.528-.085-.867-.256-1.017-.171-.15-.557-.226-1.158-.226-1.056 0-1.7.088-1.933.264-.234.176-.35.664-.35 1.463 0 1.839.078 2.916.235 3.233.156.316.692.475 1.606.475.87 0 1.413-.069 1.629-.206.216-.138.324-.483.324-1.037l-.01-.388ZM71.38 22.387v6.547h-.739v-3.036h-3.827v3.036h-.739v-6.547h.739v2.887h3.827v-2.887h.739ZM76.529 26.992l-1.453-4-1.435 4h2.888Zm.216.556h-3.314l-.504 1.387h-.782l2.398-6.548h1.036l2.446 6.548h-.772l-.508-1.387ZM85.98 22.387v6.547h-.739v-5.631l.006-.197.004-.196h-.019l-.058.153a4.12 4.12 0 0 1-.057.149l-.125.307-2.23 5.415h-.739l-2.235-5.353-.129-.302-.058-.153a2.304 2.304 0 0 1-.058-.149h-.019l.005.177.005.183v5.597h-.739v-6.547h1.281l1.746 4.235.278.686.139.341.134.34h.02l.134-.34c.067-.163.112-.277.134-.341l.283-.681 1.737-4.24h1.299ZM88.059 28.311h1.568l.667-.005c.563 0 .931-.073 1.105-.218.175-.146.262-.453.262-.923 0-.586-.088-.944-.264-1.077-.176-.133-.654-.199-1.434-.199h-1.904v2.422Zm0-3.046h1.943c.617 0 1.014-.073 1.191-.22.178-.148.267-.475.267-.984 0-.441-.078-.726-.233-.856-.155-.129-.496-.194-1.024-.194h-2.144v2.254Zm-.739 3.669v-6.547h2.897c.803 0 1.328.111 1.576.331.248.221.372.688.372 1.401 0 .726-.28 1.184-.84 1.376v.015c.694.166 1.041.679 1.041 1.539 0 .694-.136 1.182-.41 1.463-.273.282-.749.422-1.427.422H87.32ZM94.22 25.658h2.134c.563 0 .947-.086 1.152-.257.204-.171.306-.493.306-.966 0-.592-.076-.977-.227-1.156-.152-.179-.478-.269-.976-.269H94.22v2.648Zm-.739 3.276v-6.547h3.118c.704 0 1.199.139 1.487.417.288.278.432.761.432 1.449 0 .604-.079 1.025-.236 1.264-.156.238-.455.392-.896.462v.015c.693.051 1.04.473 1.04 1.266v1.674h-.738v-1.506c0-.764-.331-1.146-.993-1.146H94.22v2.652h-.739ZM100.175 23.01v2.23h3.324v.624h-3.324v2.446h3.468v.624h-4.207v-6.548h4.207v.624h-3.468ZM108.326 28.311h2.134c.784 0 1.289-.157 1.516-.47.227-.314.341-1.012.341-2.096 0-1.19-.099-1.943-.295-2.259-.197-.317-.668-.475-1.413-.475h-2.283v5.3Zm-.739.623v-6.547h3.032c.937 0 1.571.207 1.904.619.333.413.499 1.203.499 2.37 0 1.419-.148 2.367-.444 2.844-.296.476-.886.714-1.772.714h-3.219ZM114.579 23.01v2.23h3.324v.624h-3.324v2.446h3.468v.624h-4.207v-6.548h4.207v.624h-3.468ZM123.584 24.162h-.734c0-.528-.088-.862-.264-1.005-.176-.142-.59-.213-1.242-.213-.774 0-1.273.068-1.496.204-.224.136-.336.438-.336.909 0 .527.088.849.264.964.175.115.698.193 1.568.235 1.02.044 1.668.174 1.945.388.277.214.415.694.415 1.439 0 .806-.159 1.327-.477 1.564-.319.236-1.021.355-2.108.355-.944 0-1.571-.12-1.883-.358-.312-.238-.468-.718-.468-1.441l-.004-.293h.733v.164c0 .585.09.948.269 1.091.179.142.638.213 1.377.213.847 0 1.368-.071 1.563-.213.195-.143.293-.522.293-1.14 0-.399-.067-.665-.199-.798-.133-.133-.41-.212-.832-.237l-.768-.039-.729-.038c-1.109-.077-1.664-.652-1.664-1.727 0-.745.161-1.242.484-1.492.323-.249.967-.374 1.933-.374.979 0 1.617.116 1.914.348.297.232.446.73.446 1.494M132.076 24.162h-.734c0-.528-.088-.862-.263-1.005-.176-.142-.591-.213-1.243-.213-.774 0-1.272.068-1.496.204-.224.136-.336.438-.336.909 0 .527.088.849.264.964.176.115.698.193 1.568.235 1.02.044 1.668.174 1.945.388.277.214.415.694.415 1.439 0 .806-.159 1.327-.477 1.564-.318.236-1.021.355-2.108.355-.944 0-1.571-.12-1.883-.358-.312-.238-.468-.718-.468-1.441l-.004-.293h.734v.164c0 .585.089.948.268 1.091.179.142.638.213 1.377.213.847 0 1.368-.071 1.563-.213.195-.143.293-.522.293-1.14 0-.399-.067-.665-.199-.798-.133-.133-.41-.212-.832-.237l-.768-.039-.729-.038c-1.109-.077-1.664-.652-1.664-1.727 0-.745.161-1.242.484-1.492.323-.249.967-.374 1.933-.374.979 0 1.616.116 1.914.348.297.232.446.73.446 1.494M136.99 26.992l-1.453-4-1.434 4h2.887Zm.216.556h-3.314l-.504 1.387h-.782l2.398-6.548h1.036l2.446 6.548h-.772l-.508-1.387ZM139.995 22.387v5.861h3.367v.686h-4.106v-6.547h.739ZM147.925 26.992l-1.453-4-1.435 4h2.888Zm.216.556h-3.314l-.504 1.387h-.782l2.398-6.548h1.036l2.446 6.548h-.772l-.508-1.387ZM150.93 25.658h2.134c.563 0 .947-.086 1.152-.257.204-.171.307-.493.307-.966 0-.592-.076-.977-.228-1.156-.152-.179-.478-.269-.976-.269h-2.389v2.648Zm-.739 3.276v-6.547h3.118c.704 0 1.199.139 1.487.417.288.278.431.761.431 1.449 0 .604-.078 1.025-.234 1.264-.157.238-.456.392-.897.462v.015c.693.051 1.04.473 1.04 1.266v1.674h-.738v-1.506c0-.764-.331-1.146-.993-1.146h-2.475v2.652h-.739Z" style="fill:#001452;fill-rule:nonzero"/><path style="fill:#001452" d="M156.41 22.387h.739v6.547h-.739z"/><path d="M158.983 23.01v2.23h3.324v.624h-3.324v2.446h3.468v.624h-4.207v-6.548h4.207v.624h-3.468ZM167.988 24.162h-.734c0-.528-.088-.862-.264-1.005-.176-.142-.59-.213-1.242-.213-.774 0-1.273.068-1.496.204-.224.136-.336.438-.336.909 0 .527.088.849.264.964.176.115.698.193 1.568.235 1.02.044 1.668.174 1.945.388.277.214.415.694.415 1.439 0 .806-.159 1.327-.477 1.564-.319.236-1.021.355-2.108.355-.944 0-1.571-.12-1.883-.358-.312-.238-.468-.718-.468-1.441l-.004-.293h.733v.164c0 .585.09.948.269 1.091.179.142.638.213 1.377.213.847 0 1.368-.071 1.563-.213.195-.143.293-.522.293-1.14 0-.399-.067-.665-.199-.798-.133-.133-.41-.212-.832-.237l-.768-.039-.729-.038c-1.11-.077-1.664-.652-1.664-1.727 0-.745.161-1.242.484-1.492.323-.249.967-.374 1.933-.374.979 0 1.616.116 1.914.348.297.232.446.73.446 1.494M60.855 32.444v5.861h3.367v.686h-4.106v-6.547h.739ZM69.428 32.444h.739v4.585c0 .832-.167 1.378-.501 1.638-.335.261-1.036.391-2.104.391-1 0-1.681-.125-2.04-.376-.36-.251-.54-.729-.54-1.432v-4.806h.739v4.585c0 .621.1 1.01.302 1.168.201.159.697.238 1.486.238.857 0 1.392-.078 1.603-.233.211-.155.316-.546.316-1.173v-4.585ZM76.481 32.444l-2.091 3.161 2.249 3.386h-.873l-1.515-2.293-.24-.359a6.26 6.26 0 0 1-.11-.178l-.116-.182h-.019l-.115.187a3.406 3.406 0 0 0-.12.182l-.249.365-1.54 2.278h-.906l2.34-3.386-2.153-3.161h.892l1.453 2.182.201.307.101.154.096.153h.019l.096-.148a1.84 1.84 0 0 1 .096-.154l.197-.302 1.434-2.192h.873ZM77.788 33.067v2.231h3.324v.623h-3.324v2.446h3.468v.624h-4.207v-6.547h4.207v.623h-3.468ZM89.488 32.444v6.547h-.739V33.36l.005-.196.005-.197h-.019l-.058.153a4.12 4.12 0 0 1-.057.149l-.125.307-2.23 5.415h-.739l-2.235-5.353-.13-.302-.057-.153a2.304 2.304 0 0 1-.058-.149h-.019l.005.178.005.182v5.597h-.739v-6.547h1.281l1.746 4.235.278.686.139.341.134.34h.02l.134-.34c.067-.163.112-.277.134-.341l.283-.681 1.736-4.24h1.3ZM91.568 38.367h1.568l.667-.005c.563 0 .931-.073 1.105-.218.175-.146.262-.453.262-.923 0-.586-.088-.944-.264-1.077-.176-.133-.654-.199-1.434-.199h-1.904v2.422Zm0-3.046h1.943c.617 0 1.014-.073 1.191-.22.178-.147.267-.475.267-.984 0-.441-.078-.726-.233-.856-.155-.129-.496-.194-1.024-.194h-2.144v2.254Zm-.739 3.67v-6.548h2.897c.803 0 1.328.111 1.576.331.248.221.372.688.372 1.401 0 .726-.28 1.185-.84 1.376v.015c.694.166 1.041.679 1.041 1.539 0 .694-.136 1.182-.41 1.463-.273.282-.749.423-1.427.423h-3.209ZM99.378 33c-1.036 0-1.642.115-1.818.345-.176.231-.264 1.02-.264 2.37 0 1.352.088 2.144.264 2.374.176.23.782.345 1.818.345 1.039 0 1.647-.115 1.823-.345.175-.23.263-1.022.263-2.374v-.427l-.004-.619c0-.723-.122-1.181-.365-1.376-.243-.196-.815-.293-1.717-.293m.005-.624c1.237 0 2.011.181 2.321.543.31.361.465 1.264.465 2.71 0 1.557-.148 2.517-.446 2.882-.297.364-1.077.547-2.34.547-1.257 0-2.036-.181-2.338-.542-.303-.362-.454-1.295-.454-2.801v-.461l.01-.619c0-.869.195-1.463.587-1.781.392-.318 1.123-.478 2.195-.478M107.563 32.444h.739v4.585c0 .832-.168 1.378-.502 1.638-.334.261-1.035.391-2.103.391-1.001 0-1.681-.125-2.04-.376-.361-.251-.54-.729-.54-1.432v-4.806h.738v4.585c0 .621.101 1.01.302 1.168.202.159.698.238 1.488.238.856 0 1.39-.078 1.601-.233.211-.155.317-.546.317-1.173v-4.585ZM110.381 35.715h2.134c.563 0 .947-.086 1.151-.257.205-.171.307-.493.307-.966 0-.592-.076-.977-.227-1.156-.152-.179-.478-.269-.977-.269h-2.388v2.648Zm-.739 3.276v-6.547h3.118c.703 0 1.199.139 1.487.417.287.278.432.761.432 1.449 0 .604-.079 1.025-.236 1.264-.156.238-.455.392-.896.462v.015c.693.051 1.04.473 1.04 1.266v1.674h-.738v-1.506c0-.764-.331-1.146-.993-1.146h-2.475v2.652h-.739ZM118.196 35.734h2.806c.013.169.019.408.019.715 0 1.179-.145 1.909-.434 2.189-.289.28-1.045.42-2.266.42-1.155 0-1.896-.165-2.226-.497-.329-.33-.494-1.073-.494-2.228l-.005-.964.005-.58c0-.969.183-1.613.549-1.933.366-.32 1.104-.48 2.214-.48 1.113 0 1.83.105 2.153.315.323.209.485.677.485 1.403v.249h-.724v-.163c0-.534-.11-.864-.329-.991-.219-.126-.79-.189-1.714-.189-.854 0-1.388.102-1.602.304-.215.204-.322.711-.322 1.524l-.009.868.004.935c0 .825.119 1.332.358 1.52.238.189.873.283 1.906.283.79 0 1.279-.089 1.465-.268.188-.179.281-.648.281-1.406 0-.06-.013-.195-.038-.402h-2.082v-.624Z" style="fill:#001452;fill-rule:nonzero"/><path d="M9.47 42.15c3.117 0 6.885-1.41 9.107-5.34h-3.605c-1.382 1.626-3.362 2.656-5.475 2.656-3.93 0-7.4-3.47-7.4-7.779 0-4.229 3.28-7.671 7.454-7.671 3.253 0 5.042 2.141 5.638 2.819h3.524c-.515-.895-1.274-2.25-3.09-3.552-2.168-1.571-4.608-1.951-6.126-1.951a10.32 10.32 0 0 0-9.342 5.891v8.874c1.65 3.543 5.198 6.053 9.315 6.053" style="fill:#fff;fill-rule:nonzero"/><path d="M24.338 23.147h-2.98v-2.322c-.022-5.883 4.722-10.858 10.603-10.88 3.221-.013 7.121 1.429 9.433 5.482l-3.726.014c-1.435-1.675-3.483-2.732-5.667-2.724-4.062.016-7.634 3.614-7.617 8.068l-.046 2.362ZM32.984 22.424h3.004v2.323c.022 5.882-4.721 10.857-10.603 10.88-3.221.012-7.016-1.465-9.328-5.518l3.622.021c1.434 1.675 3.483 2.732 5.667 2.724 4.062-.015 7.633-3.614 7.617-8.068l.021-2.362Z" style="fill:#4784c4;fill-rule:nonzero"/></svg>