<?xml version="1.0" encoding="UTF-8" standalone="no"?><!DOCTYPE svg PUBLIC "-//W3C//DTD SVG 1.1//EN" "http://www.w3.org/Graphics/SVG/1.1/DTD/svg11.dtd"><svg width="100%" height="100%" viewBox="0 0 169 54" version="1.1" xmlns="http://www.w3.org/2000/svg" xmlns:xlink="http://www.w3.org/1999/xlink" xml:space="preserve" xmlns:serif="http://www.serif.com/" style="fill-rule:evenodd;clip-rule:evenodd;stroke-linejoin:round;stroke-miterlimit:1.41421;"><g id="logo"><path d="M38.597,31.605l0,-12.939l3.319,0l0,12.187c0,3.535 1.2,5.029 4.407,5.029l7.625,0l0,-25.004c0,-5.942 -4.816,-10.759 -10.759,-10.759l-32.275,0c-5.943,0 -10.759,4.817 -10.759,10.759l0,16.344c1.668,-3.532 5.268,-5.89 9.342,-5.89c1.518,0 3.958,0.379 6.126,1.951c1.816,1.302 2.575,2.657 3.09,3.551l-3.524,0c-0.596,-0.677 -2.385,-2.819 -5.638,-2.819c-4.174,0 -7.454,3.443 -7.454,7.671c0,4.31 3.469,7.78 7.4,7.78c2.113,0 4.093,-1.031 5.475,-2.657l3.605,0c-2.222,3.93 -5.99,5.34 -9.107,5.34c-4.117,0 -7.665,-2.51 -9.315,-6.053l0,7.058c0,5.942 4.816,10.759 10.759,10.759l32.275,0c5.943,0 10.759,-4.817 10.759,-10.759l0,-4.15l-8.083,0c-4.419,0 -7.268,-3.078 -7.268,-7.399" style="fill:#001452;fill-rule:nonzero;"/><path d="M46.323,35.882c-3.207,0 -4.407,-1.495 -4.407,-5.029l0,-12.187l-3.319,0l0,12.939c0,4.321 2.849,7.399 7.268,7.399l8.084,0l0,-3.122l-7.626,0Z" style="fill:#fff;fill-rule:nonzero;"/><path d="M64.409,26.747l0.734,0l0,0.249c0,0.893 -0.152,1.45 -0.456,1.672c-0.304,0.222 -1.068,0.333 -2.293,0.333c-1.096,0 -1.793,-0.196 -2.091,-0.587c-0.297,-0.392 -0.446,-1.314 -0.446,-2.765c0,-1.136 0.034,-1.849 0.101,-2.142c0.067,-0.293 0.259,-0.554 0.575,-0.784c0.371,-0.269 1.172,-0.403 2.404,-0.403c0.834,0 1.396,0.129 1.685,0.388c0.29,0.259 0.434,0.76 0.434,1.502l0.005,0.177l-0.734,0l-0.005,-0.201c0,-0.528 -0.085,-0.867 -0.256,-1.017c-0.171,-0.15 -0.557,-0.226 -1.158,-0.226c-1.056,0 -1.7,0.088 -1.933,0.264c-0.234,0.176 -0.35,0.664 -0.35,1.463c0,1.839 0.078,2.916 0.235,3.233c0.156,0.316 0.692,0.475 1.606,0.475c0.87,0 1.413,-0.069 1.629,-0.206c0.216,-0.138 0.324,-0.483 0.324,-1.037l-0.01,-0.388Z" style="fill:#001452;fill-rule:nonzero;"/><path d="M71.38,22.387l0,6.547l-0.739,0l0,-3.036l-3.827,0l0,3.036l-0.739,0l0,-6.547l0.739,0l0,2.887l3.827,0l0,-2.887l0.739,0Z" style="fill:#001452;fill-rule:nonzero;"/><path d="M76.529,26.992l-1.453,-4l-1.435,4l2.888,0Zm0.216,0.556l-3.314,0l-0.504,1.387l-0.782,0l2.398,-6.548l1.036,0l2.446,6.548l-0.772,0l-0.508,-1.387Z" style="fill:#001452;fill-rule:nonzero;"/><path d="M85.98,22.387l0,6.547l-0.739,0l0,-5.238l0,-0.393l0.006,-0.197l0.004,-0.196l-0.019,0l-0.058,0.153c-0.028,0.077 -0.048,0.127 -0.057,0.149l-0.125,0.307l-2.23,5.415l-0.739,0l-2.235,-5.353l-0.129,-0.302l-0.058,-0.153c-0.016,-0.036 -0.035,-0.085 -0.058,-0.149l-0.019,0l0.005,0.177l0.005,0.183l0,5.597l-0.739,0l0,-6.547l1.281,0l1.746,4.235l0.278,0.686l0.139,0.341l0.134,0.34l0.02,0l0.134,-0.34c0.067,-0.163 0.112,-0.277 0.134,-0.341l0.283,-0.681l1.737,-4.24l1.299,0Z" style="fill:#001452;fill-rule:nonzero;"/><path d="M88.059,28.311l1.568,0l0.667,-0.005c0.563,0 0.931,-0.073 1.105,-0.218c0.175,-0.146 0.262,-0.453 0.262,-0.923c0,-0.586 -0.088,-0.944 -0.264,-1.077c-0.176,-0.133 -0.654,-0.199 -1.434,-0.199l-1.904,0l0,2.422Zm0,-3.046l1.943,0c0.617,0 1.014,-0.073 1.191,-0.22c0.178,-0.148 0.267,-0.475 0.267,-0.984c0,-0.441 -0.078,-0.726 -0.233,-0.856c-0.155,-0.129 -0.496,-0.194 -1.024,-0.194l-2.144,0l0,2.254Zm-0.739,3.669l0,-6.547l2.897,0c0.803,0 1.328,0.111 1.576,0.331c0.248,0.221 0.372,0.688 0.372,1.401c0,0.726 -0.28,1.184 -0.84,1.376l0,0.015c0.694,0.166 1.041,0.679 1.041,1.539c0,0.694 -0.136,1.182 -0.41,1.463c-0.273,0.282 -0.749,0.422 -1.427,0.422l-3.209,0Z" style="fill:#001452;fill-rule:nonzero;"/><path d="M94.22,25.658l2.134,0c0.563,0 0.947,-0.086 1.152,-0.257c0.204,-0.171 0.306,-0.493 0.306,-0.966c0,-0.592 -0.076,-0.977 -0.227,-1.156c-0.152,-0.179 -0.478,-0.269 -0.976,-0.269l-2.389,0l0,2.648Zm-0.739,3.276l0,-6.547l3.118,0c0.704,0 1.199,0.139 1.487,0.417c0.288,0.278 0.432,0.761 0.432,1.449c0,0.604 -0.079,1.025 -0.236,1.264c-0.156,0.238 -0.455,0.392 -0.896,0.462l0,0.015c0.693,0.051 1.04,0.473 1.04,1.266l0,1.674l-0.738,0l0,-1.506c0,-0.764 -0.331,-1.146 -0.993,-1.146l-0.245,0l-2.23,0l0,2.652l-0.739,0Z" style="fill:#001452;fill-rule:nonzero;"/><path d="M100.175,23.01l0,2.23l3.324,0l0,0.624l-3.324,0l0,2.446l3.468,0l0,0.624l-4.207,0l0,-6.548l4.207,0l0,0.624l-3.468,0Z" style="fill:#001452;fill-rule:nonzero;"/><path d="M108.326,28.311l2.134,0c0.784,0 1.289,-0.157 1.516,-0.47c0.227,-0.314 0.341,-1.012 0.341,-2.096c0,-1.19 -0.099,-1.943 -0.295,-2.259c-0.197,-0.317 -0.668,-0.475 -1.413,-0.475l-2.283,0l0,5.3Zm-0.739,0.623l0,-6.547l3.032,0c0.937,0 1.571,0.207 1.904,0.619c0.333,0.413 0.499,1.203 0.499,2.37c0,1.419 -0.148,2.367 -0.444,2.844c-0.296,0.476 -0.886,0.714 -1.772,0.714l-3.219,0Z" style="fill:#001452;fill-rule:nonzero;"/><path d="M114.579,23.01l0,2.23l3.324,0l0,0.624l-3.324,0l0,2.446l3.468,0l0,0.624l-4.207,0l0,-6.548l4.207,0l0,0.624l-3.468,0Z" style="fill:#001452;fill-rule:nonzero;"/><path d="M123.584,24.162l-0.734,0c0,-0.528 -0.088,-0.862 -0.264,-1.005c-0.176,-0.142 -0.59,-0.213 -1.242,-0.213c-0.774,0 -1.273,0.068 -1.496,0.204c-0.224,0.136 -0.336,0.438 -0.336,0.909c0,0.527 0.088,0.849 0.264,0.964c0.175,0.115 0.698,0.193 1.568,0.235c1.02,0.044 1.668,0.174 1.945,0.388c0.277,0.214 0.415,0.694 0.415,1.439c0,0.806 -0.159,1.327 -0.477,1.564c-0.319,0.236 -1.021,0.355 -2.108,0.355c-0.944,0 -1.571,-0.12 -1.883,-0.358c-0.312,-0.238 -0.468,-0.718 -0.468,-1.441l-0.004,-0.293l0.733,0l0,0.164c0,0.585 0.09,0.948 0.269,1.091c0.179,0.142 0.638,0.213 1.377,0.213c0.847,0 1.368,-0.071 1.563,-0.213c0.195,-0.143 0.293,-0.522 0.293,-1.14c0,-0.399 -0.067,-0.665 -0.199,-0.798c-0.133,-0.133 -0.41,-0.212 -0.832,-0.237l-0.768,-0.039l-0.729,-0.038c-1.109,-0.077 -1.664,-0.652 -1.664,-1.727c0,-0.745 0.161,-1.242 0.484,-1.492c0.323,-0.249 0.967,-0.374 1.933,-0.374c0.979,0 1.617,0.116 1.914,0.348c0.297,0.232 0.446,0.73 0.446,1.494" style="fill:#001452;fill-rule:nonzero;"/><path d="M132.076,24.162l-0.734,0c0,-0.528 -0.088,-0.862 -0.263,-1.005c-0.176,-0.142 -0.591,-0.213 -1.243,-0.213c-0.774,0 -1.272,0.068 -1.496,0.204c-0.224,0.136 -0.336,0.438 -0.336,0.909c0,0.527 0.088,0.849 0.264,0.964c0.176,0.115 0.698,0.193 1.568,0.235c1.02,0.044 1.668,0.174 1.945,0.388c0.277,0.214 0.415,0.694 0.415,1.439c0,0.806 -0.159,1.327 -0.477,1.564c-0.318,0.236 -1.021,0.355 -2.108,0.355c-0.944,0 -1.571,-0.12 -1.883,-0.358c-0.312,-0.238 -0.468,-0.718 -0.468,-1.441l-0.004,-0.293l0.734,0l0,0.164c0,0.585 0.089,0.948 0.268,1.091c0.179,0.142 0.638,0.213 1.377,0.213c0.847,0 1.368,-0.071 1.563,-0.213c0.195,-0.143 0.293,-0.522 0.293,-1.14c0,-0.399 -0.067,-0.665 -0.199,-0.798c-0.133,-0.133 -0.41,-0.212 -0.832,-0.237l-0.768,-0.039l-0.729,-0.038c-1.109,-0.077 -1.664,-0.652 -1.664,-1.727c0,-0.745 0.161,-1.242 0.484,-1.492c0.323,-0.249 0.967,-0.374 1.933,-0.374c0.979,0 1.616,0.116 1.914,0.348c0.297,0.232 0.446,0.73 0.446,1.494" style="fill:#001452;fill-rule:nonzero;"/><path d="M136.99,26.992l-1.453,-4l-1.434,4l2.887,0Zm0.216,0.556l-3.314,0l-0.504,1.387l-0.782,0l2.398,-6.548l1.036,0l2.446,6.548l-0.772,0l-0.508,-1.387Z" style="fill:#001452;fill-rule:nonzero;"/><path d="M139.995,22.387l0,5.861l3.367,0l0,0.686l-4.106,0l0,-6.547l0.739,0Z" style="fill:#001452;fill-rule:nonzero;"/><path d="M147.925,26.992l-1.453,-4l-1.435,4l2.888,0Zm0.216,0.556l-3.314,0l-0.504,1.387l-0.782,0l2.398,-6.548l1.036,0l2.446,6.548l-0.772,0l-0.508,-1.387Z" style="fill:#001452;fill-rule:nonzero;"/><path d="M150.93,25.658l2.134,0c0.563,0 0.947,-0.086 1.152,-0.257c0.204,-0.171 0.307,-0.493 0.307,-0.966c0,-0.592 -0.076,-0.977 -0.228,-1.156c-0.152,-0.179 -0.478,-0.269 -0.976,-0.269l-2.389,0l0,2.648Zm-0.739,3.276l0,-6.547l3.118,0c0.704,0 1.199,0.139 1.487,0.417c0.288,0.278 0.431,0.761 0.431,1.449c0,0.604 -0.078,1.025 -0.234,1.264c-0.157,0.238 -0.456,0.392 -0.897,0.462l0,0.015c0.693,0.051 1.04,0.473 1.04,1.266l0,1.674l-0.738,0l0,-1.506c0,-0.764 -0.331,-1.146 -0.993,-1.146l-0.245,0l-2.23,0l0,2.652l-0.739,0Z" style="fill:#001452;fill-rule:nonzero;"/><rect x="156.41" y="22.387" width="0.739" height="6.547" style="fill:#001452;"/><path d="M158.983,23.01l0,2.23l3.324,0l0,0.624l-3.324,0l0,2.446l3.468,0l0,0.624l-4.207,0l0,-6.548l4.207,0l0,0.624l-3.468,0Z" style="fill:#001452;fill-rule:nonzero;"/><path d="M167.988,24.162l-0.734,0c0,-0.528 -0.088,-0.862 -0.264,-1.005c-0.176,-0.142 -0.59,-0.213 -1.242,-0.213c-0.774,0 -1.273,0.068 -1.496,0.204c-0.224,0.136 -0.336,0.438 -0.336,0.909c0,0.527 0.088,0.849 0.264,0.964c0.176,0.115 0.698,0.193 1.568,0.235c1.02,0.044 1.668,0.174 1.945,0.388c0.277,0.214 0.415,0.694 0.415,1.439c0,0.806 -0.159,1.327 -0.477,1.564c-0.319,0.236 -1.021,0.355 -2.108,0.355c-0.944,0 -1.571,-0.12 -1.883,-0.358c-0.312,-0.238 -0.468,-0.718 -0.468,-1.441l-0.004,-0.293l0.733,0l0,0.164c0,0.585 0.09,0.948 0.269,1.091c0.179,0.142 0.638,0.213 1.377,0.213c0.847,0 1.368,-0.071 1.563,-0.213c0.195,-0.143 0.293,-0.522 0.293,-1.14c0,-0.399 -0.067,-0.665 -0.199,-0.798c-0.133,-0.133 -0.41,-0.212 -0.832,-0.237l-0.768,-0.039l-0.729,-0.038c-1.11,-0.077 -1.664,-0.652 -1.664,-1.727c0,-0.745 0.161,-1.242 0.484,-1.492c0.323,-0.249 0.967,-0.374 1.933,-0.374c0.979,0 1.616,0.116 1.914,0.348c0.297,0.232 0.446,0.73 0.446,1.494" style="fill:#001452;fill-rule:nonzero;"/><path d="M60.855,32.444l0,5.861l3.367,0l0,0.686l-4.106,0l0,-6.547l0.739,0Z" style="fill:#001452;fill-rule:nonzero;"/><path d="M69.428,32.444l0.739,0l0,4.585c0,0.832 -0.167,1.378 -0.501,1.638c-0.335,0.261 -1.036,0.391 -2.104,0.391c-1,0 -1.681,-0.125 -2.04,-0.376c-0.36,-0.251 -0.54,-0.729 -0.54,-1.432l0,-0.221l0,-4.585l0.739,0l0,4.585c0,0.621 0.1,1.01 0.302,1.168c0.201,0.159 0.697,0.238 1.486,0.238c0.857,0 1.392,-0.078 1.603,-0.233c0.211,-0.155 0.316,-0.546 0.316,-1.173l0,-4.585Z" style="fill:#001452;fill-rule:nonzero;"/><path d="M76.481,32.444l-2.091,3.161l2.249,3.386l-0.873,0l-1.515,-2.293l-0.24,-0.359c-0.013,-0.019 -0.05,-0.079 -0.11,-0.178l-0.116,-0.182l-0.019,0l-0.115,0.187c-0.064,0.093 -0.104,0.154 -0.12,0.182l-0.249,0.365l-1.54,2.278l-0.906,0l2.34,-3.386l-2.153,-3.161l0.892,0l1.453,2.182l0.201,0.307c0.026,0.039 0.06,0.09 0.101,0.154l0.096,0.153l0.019,0l0.096,-0.148c0.051,-0.087 0.083,-0.138 0.096,-0.154l0.197,-0.302l1.434,-2.192l0.873,0Z" style="fill:#001452;fill-rule:nonzero;"/><path d="M77.788,33.067l0,2.231l3.324,0l0,0.623l-3.324,0l0,2.446l3.468,0l0,0.624l-4.207,0l0,-6.547l4.207,0l0,0.623l-3.468,0Z" style="fill:#001452;fill-rule:nonzero;"/><path d="M89.488,32.444l0,6.547l-0.739,0l0,-5.238l0,-0.393l0.005,-0.196l0.005,-0.197l-0.019,0l-0.058,0.153c-0.028,0.077 -0.048,0.127 -0.057,0.149l-0.125,0.307l-2.23,5.415l-0.739,0l-2.235,-5.353l-0.13,-0.302l-0.057,-0.153c-0.016,-0.036 -0.035,-0.085 -0.058,-0.149l-0.019,0l0.005,0.178l0.005,0.182l0,5.597l-0.739,0l0,-6.547l1.281,0l1.746,4.235l0.278,0.686l0.139,0.341l0.134,0.34l0.02,0l0.134,-0.34c0.067,-0.163 0.112,-0.277 0.134,-0.341l0.283,-0.681l1.736,-4.24l1.3,0Z" style="fill:#001452;fill-rule:nonzero;"/><path d="M91.568,38.367l1.568,0l0.667,-0.005c0.563,0 0.931,-0.073 1.105,-0.218c0.175,-0.146 0.262,-0.453 0.262,-0.923c0,-0.586 -0.088,-0.944 -0.264,-1.077c-0.176,-0.133 -0.654,-0.199 -1.434,-0.199l-1.904,0l0,2.422Zm0,-3.046l1.943,0c0.617,0 1.014,-0.073 1.191,-0.22c0.178,-0.147 0.267,-0.475 0.267,-0.984c0,-0.441 -0.078,-0.726 -0.233,-0.856c-0.155,-0.129 -0.496,-0.194 -1.024,-0.194l-2.144,0l0,2.254Zm-0.739,3.67l0,-6.548l2.897,0c0.803,0 1.328,0.111 1.576,0.331c0.248,0.221 0.372,0.688 0.372,1.401c0,0.726 -0.28,1.185 -0.84,1.376l0,0.015c0.694,0.166 1.041,0.679 1.041,1.539c0,0.694 -0.136,1.182 -0.41,1.463c-0.273,0.282 -0.749,0.423 -1.427,0.423l-3.209,0Z" style="fill:#001452;fill-rule:nonzero;"/><path d="M99.378,33c-1.036,0 -1.642,0.115 -1.818,0.345c-0.176,0.231 -0.264,1.02 -0.264,2.37c0,1.352 0.088,2.144 0.264,2.374c0.176,0.23 0.782,0.345 1.818,0.345c1.039,0 1.647,-0.115 1.823,-0.345c0.175,-0.23 0.263,-1.022 0.263,-2.374l0,-0.427l-0.004,-0.619c0,-0.723 -0.122,-1.181 -0.365,-1.376c-0.243,-0.196 -0.815,-0.293 -1.717,-0.293m0.005,-0.624c1.237,0 2.011,0.181 2.321,0.543c0.31,0.361 0.465,1.264 0.465,2.71c0,1.557 -0.148,2.517 -0.446,2.882c-0.297,0.364 -1.077,0.547 -2.34,0.547c-1.257,0 -2.036,-0.181 -2.338,-0.542c-0.303,-0.362 -0.454,-1.295 -0.454,-2.801l0,-0.461l0.01,-0.619c0,-0.869 0.195,-1.463 0.587,-1.781c0.392,-0.318 1.123,-0.478 2.195,-0.478" style="fill:#001452;fill-rule:nonzero;"/><path d="M107.563,32.444l0.739,0l0,4.585c0,0.832 -0.168,1.378 -0.502,1.638c-0.334,0.261 -1.035,0.391 -2.103,0.391c-1.001,0 -1.681,-0.125 -2.04,-0.376c-0.361,-0.251 -0.54,-0.729 -0.54,-1.432l0,-0.221l0,-4.585l0.738,0l0,4.585c0,0.621 0.101,1.01 0.302,1.168c0.202,0.159 0.698,0.238 1.488,0.238c0.856,0 1.39,-0.078 1.601,-0.233c0.211,-0.155 0.317,-0.546 0.317,-1.173l0,-4.585Z" style="fill:#001452;fill-rule:nonzero;"/><path d="M110.381,35.715l2.134,0c0.563,0 0.947,-0.086 1.151,-0.257c0.205,-0.171 0.307,-0.493 0.307,-0.966c0,-0.592 -0.076,-0.977 -0.227,-1.156c-0.152,-0.179 -0.478,-0.269 -0.977,-0.269l-2.388,0l0,2.648Zm-0.739,3.276l0,-6.547l3.118,0c0.703,0 1.199,0.139 1.487,0.417c0.287,0.278 0.432,0.761 0.432,1.449c0,0.604 -0.079,1.025 -0.236,1.264c-0.156,0.238 -0.455,0.392 -0.896,0.462l0,0.015c0.693,0.051 1.04,0.473 1.04,1.266l0,1.674l-0.738,0l0,-1.506c0,-0.764 -0.331,-1.146 -0.993,-1.146l-0.245,0l-2.23,0l0,2.652l-0.739,0Z" style="fill:#001452;fill-rule:nonzero;"/><path d="M118.196,35.734l2.806,0c0.013,0.169 0.019,0.408 0.019,0.715c0,1.179 -0.145,1.909 -0.434,2.189c-0.289,0.28 -1.045,0.42 -2.266,0.42c-1.155,0 -1.896,-0.165 -2.226,-0.497c-0.329,-0.33 -0.494,-1.073 -0.494,-2.228l-0.005,-0.964l0.005,-0.58c0,-0.969 0.183,-1.613 0.549,-1.933c0.366,-0.32 1.104,-0.48 2.214,-0.48c1.113,0 1.83,0.105 2.153,0.315c0.323,0.209 0.485,0.677 0.485,1.403l0,0.249l-0.724,0l0,-0.163c0,-0.534 -0.11,-0.864 -0.329,-0.991c-0.219,-0.126 -0.79,-0.189 -1.714,-0.189c-0.854,0 -1.388,0.102 -1.602,0.304c-0.215,0.204 -0.322,0.711 -0.322,1.524l-0.009,0.868l0.004,0.935c0,0.825 0.119,1.332 0.358,1.52c0.238,0.189 0.873,0.283 1.906,0.283c0.79,0 1.279,-0.089 1.465,-0.268c0.188,-0.179 0.281,-0.648 0.281,-1.406c0,-0.06 -0.013,-0.195 -0.038,-0.402l-2.082,0l0,-0.624Z" style="fill:#001452;fill-rule:nonzero;"/><path d="M9.47,42.15c3.117,0 6.885,-1.41 9.107,-5.34l-3.605,0c-1.382,1.626 -3.362,2.656 -5.475,2.656c-3.93,0 -7.4,-3.47 -7.4,-7.779c0,-4.229 3.28,-7.671 7.454,-7.671c3.253,0 5.042,2.141 5.638,2.819l3.524,0c-0.515,-0.895 -1.274,-2.25 -3.09,-3.552c-2.168,-1.571 -4.608,-1.951 -6.126,-1.951c-4.074,0 -7.674,2.359 -9.342,5.891l0,8.874c1.65,3.543 5.198,6.053 9.315,6.053" style="fill:#fff;fill-rule:nonzero;"/><path d="M24.338,23.147l-2.98,0l0,-2.322c-0.022,-5.883 4.722,-10.858 10.603,-10.88c3.221,-0.013 7.121,1.429 9.433,5.482l-3.726,0.014c-1.435,-1.675 -3.483,-2.732 -5.667,-2.724c-4.062,0.016 -7.634,3.614 -7.617,8.068l-0.046,2.362Z" style="fill:#4784c4;fill-rule:nonzero;"/><path d="M32.984,22.424l3.004,0l0,2.323c0.022,5.882 -4.721,10.857 -10.603,10.88c-3.221,0.012 -7.016,-1.465 -9.328,-5.518l3.622,0.021c1.434,1.675 3.483,2.732 5.667,2.724c4.062,-0.015 7.633,-3.614 7.617,-8.068l0.021,-2.362Z" style="fill:#4784c4;fill-rule:nonzero;"/></g></svg>