<svg xmlns="http://www.w3.org/2000/svg" viewBox="0 0 433.41 337.567" width="433.41" height="337.567"><path style="fill:#007296;fill-opacity:1" d="m357.5 52.856 11.35-42.37a208 208 0 0 0-231.78 72.94 234 234 0 0 1 220.43-30.57z"/><path style="fill:#115e67;fill-opacity:1" d="M76.23 188.876c-4.46 8.73-13.85 14.13-24.5 14.13-16.73 0-28.59-12.41-28.59-29s11.86-29 28.59-29c11 0 19.8 5.15 24.11 14.14l19.43-11.14c-7.84-15.41-24.45-25-43.35-25-27.52 0-51.92 19.13-51.92 51.05 0 31.92 24.4 51.08 51.92 51.08 18.58 0 35.34-9.68 43.72-25.28zM179.47 142.426c-5.79-12-20.17-19.45-36.62-19.45-18.41.03-36.85 10.31-36.85 29.15 0 35 52.2 28 52.2 43.62 0 4.84-4.7 9.16-14.59 9.16-17.83 0-21.94-14.52-21.94-14.52l-19 12.77c5.11 12.16 19.88 22 40.35 22 19.22 0 38.67-10.61 38.67-30.82 0-34-52.2-25.71-52.2-42.14 0-6.23 6.31-9.15 13.33-9.15 8.5 0 14.4 4 18.06 11.71zM265.85 142.426c-5.79-12-20.16-19.45-36.61-19.45-18.41 0-36.86 10.31-36.86 29.15 0 35 52.74 27.45 52.74 43.06 0 5.62-5.24 9.72-15.13 9.72-17.83 0-21.93-14.52-21.93-14.52l-19 12.77c5.11 12.16 19.88 22 40.35 22 19.22 0 39.21-10.61 39.21-30.82 0-34-52.74-25.71-52.74-42.14 0-5.64 6.31-9.15 13.33-9.15 8.49 0 14.39 4 18.06 11.71zM312.38 125.456v-3.45c0-11.36 5.36-16.94 18.1-16.94h13l5.29-19.74a119.16 119.16 0 0 0-17.27-1.27c-25.75 0-41.64 12.3-41.64 37.41v4h-14.45v21.73h14.48v75.48h22.49v-75.49h19.84l5.83-21.73z"/><path style="fill:#007296;fill-opacity:1" data-name="Calque 1" d="M15.58 295.496c-5.47 0-10-4.2-10-13.07 0-8.87 4.56-13.08 10-13.08 1.91-.05 3.8.412 5.47 1.34l-1.3 3.19a6.72 6.72 0 0 0-3.75-1.06c-3.58 0-6.35 3.12-6.35 9.57s2.77 9.62 6.35 9.62a6.74 6.74 0 0 0 3.75-1l1.3 3.22a10.5 10.5 0 0 1-5.47 1.27zm15.81 0c-5.37 0-8.31-4.24-8.31-9.85 0-5.61 2.94-9.81 8.31-9.81 5.37 0 8.31 4.21 8.31 9.81 0 5.6-2.95 9.85-8.31 9.85zm0-16.61c-3 0-4.45 2.66-4.45 6.73s1.47 6.76 4.45 6.76c2.98 0 4.45-2.69 4.45-6.76s-1.47-6.73-4.45-6.73zm34.06 16.23v-12.8c0-2.17-1.44-3.4-3.61-3.4a4.71 4.71 0 0 0-3.47 1.27v14.93h-3.86v-13.11c0-1.89-1.51-3-3.85-3a8.36 8.36 0 0 0-3.23.56v15.64h-3.82v-18.04a18.09 18.09 0 0 1 6.8-1.33c3 0 5 .95 6 2a10 10 0 0 1 6.27-2c4 0 6.56 2.35 6.56 6.1v13.18zm30.38 0v-12.8c0-2.17-1.44-3.4-3.61-3.4a4.69 4.69 0 0 0-3.47 1.27v14.93h-3.86v-13.11c0-1.89-1.51-3-3.86-3a8.34 8.34 0 0 0-3.22.56v15.64H74v-18.04a18.09 18.09 0 0 1 6.8-1.33c3 0 5 .95 6 2a10 10 0 0 1 6.27-2c4 0 6.56 2.35 6.56 6.1v13.18zm10.47-22.33c-1.918-.088-2.794-2.433-1.403-3.756 1.39-1.324 3.69-.334 3.683 1.586a2.23 2.23 0 0 1-2.28 2.17zm-1.93 22.33v-18.9h3.86v18.9zm13.26.38a13.496 13.496 0 0 1-5.89-1.33l1.3-2.94a10.57 10.57 0 0 0 4.49 1.22c2.06 0 3.43-1 3.43-2.59 0-1.59-1.44-2.38-3.37-3.08-2.52-.95-5.36-2.11-5.36-5.65 0-3.12 2.42-5.29 6.63-5.29a11.09 11.09 0 0 1 5.5 1.33l-1.19 2.66a8.57 8.57 0 0 0-3.89-1.12c-2 0-3.12 1.05-3.12 2.42 0 1.72 1.4 2.32 3.26 3 2.63 1 5.54 2.06 5.54 5.75.04 3.42-2.6 5.62-7.33 5.62zm15.62 0a13.496 13.496 0 0 1-5.89-1.33l1.3-2.94a10.57 10.57 0 0 0 4.49 1.22c2.06 0 3.43-1 3.43-2.59 0-1.59-1.44-2.38-3.36-3.08-2.53-.95-5.37-2.11-5.37-5.65 0-3.12 2.42-5.29 6.63-5.29a11.06 11.06 0 0 1 5.5 1.33l-1.19 2.66a8.53 8.53 0 0 0-3.89-1.12c-2 0-3.12 1.05-3.12 2.42 0 1.72 1.4 2.32 3.26 3 2.63 1 5.54 2.06 5.54 5.75 0 3.42-2.58 5.62-7.33 5.62zm12.94-22.71c-1.918-.088-2.794-2.433-1.403-3.756 1.39-1.324 3.69-.334 3.683 1.586a2.22 2.22 0 0 1-2.28 2.17zm-1.92 22.33v-18.9h3.85v18.9zm16.01.38c-5.36 0-8.31-4.24-8.31-9.85 0-5.61 2.95-9.81 8.31-9.81s8.31 4.21 8.31 9.81c0 5.6-2.94 9.85-8.31 9.85zm0-16.61c-3 0-4.45 2.66-4.45 6.73s1.47 6.76 4.45 6.76c2.98 0 4.46-2.69 4.46-6.76s-1.48-6.73-4.46-6.73zm23.48 16.23v-12.62c0-2.21-1.33-3.58-4-3.58a10 10 0 0 0-3.47.56v15.64h-3.82v-17.95a19.15 19.15 0 0 1 7.25-1.33c5.3 0 7.85 2.31 7.85 6.31v13zm26.18.38c-5.89 0-9.22-3.68-9.22-9.67 0-5.78 3.08-9.78 8.8-9.78 1.016.013 2.025.164 3 .45v-8.9h3.85v26.57a15 15 0 0 1-6.43 1.33zm2.63-16.09a8.56 8.56 0 0 0-2.7-.42c-3.47 0-5.3 2.88-5.3 6.84 0 4.14 1.86 6.62 5.3 6.62a7.23 7.23 0 0 0 2.7-.49zm24.07 6.17-12.55 1.76c.38 3.4 2.59 5.11 5.78 5.11a11.91 11.91 0 0 0 5.23-1.15l1.12 2.87a15.48 15.48 0 0 1-6.59 1.33c-6 0-9.29-3.82-9.29-9.85 0-5.78 3.22-9.81 8.51-9.81 4.91 0 7.82 3.22 7.82 8.31 0 .45 0 .94-.03 1.43zm-7.85-6.94c-2.95 0-4.88 2.25-4.95 6.17l9.15-1.26c.01-3.29-1.68-4.91-4.2-4.91zm26.42 16.86a14.56 14.56 0 0 1-6.31-1.33l1.37-3.43a10.74 10.74 0 0 0 4.8 1.22c2.8 0 4.7-1.43 4.7-3.78 0-2.18-1.93-3.23-4.07-4.17-3-1.37-6.52-3.19-6.52-7.51s3.19-7.15 8-7.15a11.56 11.56 0 0 1 5.71 1.34l-1.26 3.22a9.63 9.63 0 0 0-4.31-1.16c-2.49 0-4.21 1.34-4.21 3.54s2.14 3.3 4.28 4.28c2.87 1.33 6.38 3.09 6.38 7.43.03 4.56-3.3 7.5-8.56 7.5zm19.79 0c-5 0-7.64-2.06-7.64-6.8v-12.48h3.82v12.55c0 2.42 1.3 3.58 3.82 3.58a9.28 9.28 0 0 0 3.37-.53v-15.6h3.82v18a17.74 17.74 0 0 1-7.19 1.28zm20.67-16.33a9.17 9.17 0 0 0-4.91.28v15.67h-3.82v-17.95a19.88 19.88 0 0 1 7.33-1.33c.716-.017 1.432.03 2.14.14zm14.4 15.95h-4.42l-6.87-18.9h4.28l4 12.62c.311.969.568 1.954.77 2.95h.08s.31-1.58.73-2.95l4-12.62h4.28zm24.74-9.54-12.55 1.76c.39 3.4 2.6 5.11 5.79 5.11a11.86 11.86 0 0 0 5.22-1.15l1.12 2.87a15.41 15.41 0 0 1-6.59 1.33c-6 0-9.29-3.82-9.29-9.85 0-5.78 3.23-9.81 8.52-9.81 4.91 0 7.82 3.22 7.82 8.31 0 .45 0 .94-.04 1.43zm-7.81-6.94c-2.94 0-4.87 2.25-4.94 6.17l9.15-1.26c-.08-3.29-1.73-4.91-4.21-4.91zm13.67-5.85c-1.918-.088-2.794-2.433-1.403-3.756 1.39-1.324 3.69-.334 3.683 1.586a2.23 2.23 0 0 1-2.28 2.17zm-1.93 22.33v-18.9h3.86v18.9zm8.66 0v-27.52h3.85v27.52zm8.6 0v-27.52h3.85v27.52zm15.67.38c-5.43 0-8.16-2.2-8.16-5.92 0-5.26 5.6-6.2 11.32-6.52v-1.19c0-2.39-1.58-3.23-4-3.23-1.8.04-3.573.434-5.22 1.16l-1-2.63a17.5 17.5 0 0 1 6.59-1.33c4.52 0 7.25 1.75 7.25 6.41v11.92a16.31 16.31 0 0 1-6.78 1.33zm3.16-9.88c-3.86.21-7.71.52-7.71 3.89 0 2 1.54 3.23 4.45 3.23a9.939 9.939 0 0 0 3.26-.49zm19.57 9.5v-12.62c0-2.21-1.33-3.58-4-3.58a10.06 10.06 0 0 0-3.47.56v15.64h-3.82v-17.95a19.15 19.15 0 0 1 7.25-1.33c5.3 0 7.86 2.31 7.86 6.31v13zm16.02.38c-4.21 0-8.31-3-8.31-9.85s4.1-9.81 8.31-9.81a8.56 8.56 0 0 1 4.84 1.3l-1.26 2.77a5.35 5.35 0 0 0-3.08-.92c-2.53 0-4.84 2-4.84 6.63s2.38 6.66 4.84 6.66a5.42 5.42 0 0 0 3.08-.91l1.27 2.84a8.5 8.5 0 0 1-4.85 1.29zm22.95-9.92-12.55 1.76c.39 3.4 2.59 5.11 5.79 5.11a11.86 11.86 0 0 0 5.22-1.15l1.12 2.87a15.45 15.45 0 0 1-6.59 1.33c-6 0-9.29-3.82-9.29-9.85 0-5.78 3.23-9.81 8.52-9.81 4.91 0 7.82 3.22 7.82 8.31 0 .45 0 .94-.04 1.43zm-7.85-6.94c-2.95 0-4.87 2.25-4.94 6.17l9.14-1.26c-.03-3.29-1.72-4.91-4.2-4.91zm-410.75 58.92c-5.89 0-9.22-3.68-9.22-9.67 0-5.79 3.09-9.78 8.8-9.78 1.016.011 2.026.163 3 .45v-8.9h3.86v26.57a15 15 0 0 1-6.44 1.33zm2.63-16.09a8.51 8.51 0 0 0-2.7-.42c-3.47 0-5.29 2.88-5.29 6.84 0 4.13 1.86 6.62 5.29 6.62a7.14 7.14 0 0 0 2.7-.49zm16.19 16.09c-5 0-7.64-2.07-7.64-6.8v-12.48h3.82v12.55c0 2.42 1.3 3.58 3.82 3.58a9.28 9.28 0 0 0 3.37-.53v-15.6h3.82v18a17.74 17.74 0 0 1-7.19 1.28zm26.41 0a14.53 14.53 0 0 1-6.31-1.33l1.37-3.44a10.73 10.73 0 0 0 4.8 1.23c2.8 0 4.69-1.44 4.69-3.78 0-2.18-1.92-3.23-4.06-4.18-3-1.36-6.52-3.19-6.52-7.5 0-4.31 3.19-7.15 8-7.15a11.72 11.72 0 0 1 5.72 1.33l-1.22 3.27a9.66 9.66 0 0 0-4.31-1.16c-2.49 0-4.21 1.33-4.21 3.54s2.14 3.3 4.28 4.28c2.87 1.33 6.38 3.08 6.38 7.43 0 4.52-3.33 7.46-8.61 7.46zm28.13-9.92-12.55 1.75c.39 3.4 2.59 5.12 5.79 5.12a11.72 11.72 0 0 0 5.22-1.16l1.12 2.88a15.45 15.45 0 0 1-6.59 1.33c-6 0-9.29-3.82-9.29-9.85 0-5.78 3.23-9.81 8.52-9.81 4.91 0 7.82 3.22 7.82 8.3 0 .46 0 .95-.04 1.44zm-7.85-6.94c-3 0-4.87 2.24-4.94 6.17l9.14-1.26c-.03-3.3-1.68-4.91-4.2-4.91zm19.36 16.86c-4.21 0-8.31-3-8.31-9.85s4.1-9.81 8.31-9.81a8.65 8.65 0 0 1 4.84 1.29l-1.27 2.82a5.42 5.42 0 0 0-3.08-.91c-2.52 0-4.84 2-4.84 6.63s2.39 6.66 4.84 6.66a5.35 5.35 0 0 0 3.08-.92l1.27 2.84a8.42 8.42 0 0 1-4.84 1.25zm15.27-.14c-3.34 0-5.19-1.86-5.19-5.54v-10.72h-2.56v-2.88h2.56v-4.38l3.75-1.16v5.54h3.82v2.88h-3.82v10.51a2.23 2.23 0 0 0 2.52 2.39 3.585 3.585 0 0 0 1.3-.25v3.2a6.47 6.47 0 0 1-2.38.41zm20.99-9.78-12.55 1.75c.39 3.4 2.6 5.12 5.79 5.12a11.72 11.72 0 0 0 5.22-1.16l1.12 2.88a15.41 15.41 0 0 1-6.59 1.33c-6 0-9.29-3.82-9.29-9.85 0-5.78 3.23-9.81 8.52-9.81 4.91 0 7.82 3.22 7.82 8.3 0 .46 0 .95-.04 1.44zm-7.85-6.94c-2.94 0-4.87 2.24-4.94 6.17l9.15-1.26c-.04-3.3-1.69-4.91-4.21-4.91zm19.26 16.86c-5 0-7.64-2.07-7.64-6.8v-12.48h3.82v12.55c0 2.42 1.3 3.58 3.82 3.58a9.26 9.26 0 0 0 3.36-.53v-15.6h3.83v18a17.81 17.81 0 0 1-7.19 1.28zm20.63-16.33a9.17 9.17 0 0 0-4.91.28v15.67h-3.82v-17.95a19.84 19.84 0 0 1 7.33-1.33c.713-.018 1.426.03 2.13.14zm17.2-6.1v7.46h8.42v3.26h-8.42v11.33h-3.89v-25.38h13.11v3.33zm14.86-.28c-1.919-.079-2.805-2.42-1.42-3.75 1.385-1.33 3.688-.35 3.69 1.57a2.23 2.23 0 0 1-2.27 2.18zm-1.93 22.33v-18.9h3.85v18.9zm19.83 0v-12.62c0-2.21-1.33-3.58-4-3.58a10 10 0 0 0-3.47.56v15.64h-3.83v-17.95a19.24 19.24 0 0 1 7.26-1.33c5.29 0 7.85 2.31 7.85 6.31v13zm15.5.38c-5.43 0-8.17-2.21-8.17-5.92 0-5.26 5.61-6.21 11.33-6.52v-1.19c0-2.39-1.58-3.23-4-3.23-1.8.04-3.573.434-5.22 1.16l-1-2.63a17.59 17.59 0 0 1 6.59-1.33c4.53 0 7.26 1.75 7.26 6.41v11.92a16.38 16.38 0 0 1-6.79 1.33zm3.16-9.88c-3.86.21-7.72.52-7.72 3.89 0 2 1.55 3.22 4.45 3.22a9.74 9.74 0 0 0 3.27-.49zm19.56 9.5v-12.62c0-2.21-1.33-3.58-4-3.58a10.1 10.1 0 0 0-3.47.56v15.64h-3.82v-17.95a19.17 19.17 0 0 1 7.26-1.33c5.29 0 7.85 2.31 7.85 6.31v13zm16.02.38c-4.2 0-8.3-3-8.3-9.85s4.1-9.81 8.3-9.81a8.65 8.65 0 0 1 4.84 1.29l-1.26 2.82a5.45 5.45 0 0 0-3.09-.91c-2.52 0-4.83 2-4.83 6.63s2.38 6.66 4.83 6.66a5.38 5.38 0 0 0 3.09-.92l1.26 2.84a8.4 8.4 0 0 1-4.84 1.25zm10.12-22.71c-1.916-.088-2.792-2.428-1.406-3.753 1.385-1.325 3.684-.344 3.686 1.573a2.24 2.24 0 0 1-2.28 2.18zm-1.93 22.33v-18.9h3.86v18.9zm24.01-9.54-12.55 1.75c.39 3.4 2.6 5.12 5.79 5.12a11.72 11.72 0 0 0 5.22-1.16l1.12 2.88a15.41 15.41 0 0 1-6.59 1.33c-6 0-9.29-3.82-9.29-9.85 0-5.78 3.23-9.81 8.52-9.81 4.91 0 7.82 3.22 7.82 8.3 0 .46 0 .95-.04 1.44zm-7.85-6.94c-2.94 0-4.87 2.24-4.94 6.17l9.15-1.26c-.04-3.3-1.7-4.91-4.21-4.91zm20.51.53a9.14 9.14 0 0 0-4.9.28v15.67h-3.83v-17.95a19.92 19.92 0 0 1 7.33-1.33c.716-.017 1.432.03 2.14.14z"/></svg>