<?xml version="1.0" encoding="UTF-8" standalone="no"?><!DOCTYPE svg PUBLIC "-//W3C//DTD SVG 1.1//EN" "http://www.w3.org/Graphics/SVG/1.1/DTD/svg11.dtd"><svg width="100%" height="100%" viewBox="0 0 119 52" version="1.1" xmlns="http://www.w3.org/2000/svg" xmlns:xlink="http://www.w3.org/1999/xlink" xml:space="preserve" xmlns:serif="http://www.serif.com/" style="fill-rule:evenodd;clip-rule:evenodd;stroke-linejoin:round;stroke-miterlimit:1.41421;"><g id="logo"><path d="M5.015,42.836c-1.454,0 -1.824,-1.238 -1.273,-2.756c0.541,-1.486 1.813,-2.755 3.276,-2.755c0.537,0 0.87,0.125 1.073,0.296l-0.347,0.42c-0.148,-0.101 -0.39,-0.21 -0.769,-0.21c-1.164,0 -1.973,1.113 -2.386,2.249c-0.422,1.16 -0.357,2.219 0.753,2.219c0.37,0 0.649,-0.086 0.923,-0.21l0.048,0.451c-0.33,0.179 -0.804,0.296 -1.298,0.296" style="fill:#115d9f;fill-rule:nonzero;"/><path d="M10.58,38.921c-0.908,0 -1.409,0.895 -1.718,1.743c-0.307,0.849 -0.423,1.697 0.469,1.697c0.906,0 1.385,-0.856 1.692,-1.697c0.304,-0.84 0.466,-1.743 -0.443,-1.743m-1.422,3.915c-1.296,0 -1.518,-0.941 -1.072,-2.172c0.456,-1.253 1.366,-2.179 2.644,-2.179c1.304,0 1.523,0.926 1.068,2.179c-0.447,1.231 -1.353,2.172 -2.64,2.172" style="fill:#115d9f;fill-rule:nonzero;"/><path d="M17.973,42.758l1.098,-3.02c0.151,-0.421 0.061,-0.802 -0.626,-0.802c-0.397,0 -0.748,0.117 -1.114,0.373l-1.254,3.449l-0.775,0l1.109,-3.051c0.169,-0.468 -0.07,-0.779 -0.757,-0.779c-0.388,0 -0.617,0.047 -0.906,0.14l-1.342,3.69l-0.775,0l1.446,-3.978c0.499,-0.187 0.998,-0.296 1.755,-0.296c0.732,0 1.102,0.195 1.271,0.506c0.437,-0.304 0.995,-0.506 1.656,-0.506c1.137,0 1.305,0.654 1.092,1.238l-1.103,3.036l-0.775,0Z" style="fill:#115d9f;fill-rule:nonzero;"/><path d="M25.871,42.758l1.098,-3.02c0.151,-0.421 0.061,-0.802 -0.626,-0.802c-0.397,0 -0.748,0.117 -1.114,0.373l-1.254,3.449l-0.775,0l1.109,-3.051c0.169,-0.468 -0.07,-0.779 -0.757,-0.779c-0.388,0 -0.617,0.047 -0.906,0.14l-1.342,3.69l-0.775,0l1.446,-3.978c0.5,-0.187 0.998,-0.296 1.755,-0.296c0.732,0 1.102,0.195 1.271,0.506c0.437,-0.304 0.995,-0.506 1.656,-0.506c1.137,0 1.305,0.654 1.092,1.238l-1.103,3.036l-0.775,0Z" style="fill:#115d9f;fill-rule:nonzero;"/><path d="M30.686,37.753c-0.255,0 -0.397,-0.171 -0.323,-0.373c0.077,-0.21 0.342,-0.382 0.598,-0.382c0.246,0 0.386,0.172 0.31,0.382c-0.073,0.202 -0.338,0.373 -0.585,0.373m-2.206,5.005l1.524,-4.195l0.776,0l-1.525,4.195l-0.775,0Z" style="fill:#115d9f;fill-rule:nonzero;"/><path d="M31.982,42.821c-0.511,0 -0.918,-0.117 -1.111,-0.289l0.375,-0.45c0.122,0.124 0.412,0.248 0.835,0.248c0.529,0 0.997,-0.319 1.145,-0.724c0.158,-0.435 -0.036,-0.629 -0.494,-0.801c-0.815,-0.304 -0.841,-0.74 -0.683,-1.176c0.226,-0.622 0.974,-1.152 1.837,-1.152c0.486,0 0.814,0.14 1.007,0.288l-0.353,0.413c-0.107,-0.094 -0.339,-0.234 -0.708,-0.234c-0.521,0 -0.905,0.304 -1.034,0.662c-0.148,0.405 0.117,0.6 0.518,0.756c0.813,0.31 0.884,0.747 0.709,1.229c-0.232,0.638 -1.073,1.23 -2.043,1.23" style="fill:#115d9f;fill-rule:nonzero;"/><path d="M35.984,42.821c-0.511,0 -0.918,-0.117 -1.112,-0.289l0.375,-0.45c0.123,0.124 0.412,0.248 0.836,0.248c0.529,0 0.997,-0.319 1.144,-0.724c0.159,-0.435 -0.035,-0.629 -0.493,-0.801c-0.815,-0.304 -0.842,-0.74 -0.684,-1.176c0.227,-0.622 0.975,-1.152 1.838,-1.152c0.485,0 0.813,0.14 1.006,0.288l-0.353,0.413c-0.106,-0.094 -0.338,-0.234 -0.708,-0.234c-0.52,0 -0.904,0.304 -1.034,0.662c-0.147,0.405 0.117,0.6 0.519,0.756c0.812,0.31 0.883,0.747 0.708,1.229c-0.232,0.638 -1.072,1.23 -2.042,1.23" style="fill:#115d9f;fill-rule:nonzero;"/><path d="M41.43,37.753c-0.255,0 -0.396,-0.171 -0.322,-0.373c0.075,-0.21 0.341,-0.382 0.597,-0.382c0.246,0 0.387,0.172 0.31,0.382c-0.073,0.202 -0.338,0.373 -0.585,0.373m-2.206,5.005l1.524,-4.195l0.776,0l-1.525,4.195l-0.775,0Z" style="fill:#115d9f;fill-rule:nonzero;"/><path d="M44.894,38.921c-0.909,0 -1.409,0.895 -1.718,1.743c-0.308,0.849 -0.423,1.697 0.467,1.697c0.908,0 1.387,-0.856 1.692,-1.697c0.306,-0.84 0.467,-1.743 -0.441,-1.743m-1.423,3.915c-1.296,0 -1.518,-0.941 -1.071,-2.172c0.456,-1.253 1.365,-2.179 2.643,-2.179c1.305,0 1.523,0.926 1.068,2.179c-0.446,1.231 -1.353,2.172 -2.64,2.172" style="fill:#115d9f;fill-rule:nonzero;"/><path d="M49.616,42.758l1.094,-3.013c0.142,-0.389 0.113,-0.817 -0.698,-0.817c-0.441,0 -0.673,0.054 -0.953,0.148l-1.338,3.682l-0.775,0l1.444,-3.978c0.489,-0.179 1.086,-0.296 1.844,-0.296c1.322,0 1.475,0.647 1.258,1.246l-1.101,3.028l-0.775,0Z" style="fill:#115d9f;fill-rule:nonzero;"/><path d="M59.126,38.999c-0.177,-0.047 -0.359,-0.077 -0.562,-0.077c-1.102,0 -1.76,0.84 -2.091,1.75c-0.36,0.989 -0.234,1.714 0.735,1.714c0.318,0 0.549,-0.032 0.73,-0.117l1.188,-3.27Zm-2.117,3.838c-1.357,0 -1.784,-0.841 -1.323,-2.11c0.507,-1.393 1.639,-2.203 2.863,-2.203c0.265,0 0.483,0.031 0.715,0.093l0.716,-1.969l0.767,0l-2.141,5.892c-0.379,0.172 -0.936,0.297 -1.597,0.297" style="fill:#115d9f;fill-rule:nonzero;"/><path d="M63.4,38.928c-0.688,0 -1.377,0.49 -1.772,1.627l2.384,-0.304c0.345,-0.95 0.066,-1.323 -0.612,-1.323m-1.879,1.993c-0.256,0.949 0.076,1.416 0.931,1.416c0.538,0 0.967,-0.116 1.259,-0.241l0.04,0.451c-0.348,0.156 -0.898,0.289 -1.541,0.289c-1.244,0 -1.864,-0.694 -1.321,-2.188c0.517,-1.424 1.579,-2.164 2.698,-2.164c1.137,0 1.588,0.655 1.061,2.055l-3.127,0.382Z" style="fill:#115d9f;fill-rule:nonzero;"/><path d="M69.534,42.836c-0.688,0 -1.051,-0.117 -1.302,-0.296l0.392,-0.498c0.183,0.124 0.482,0.249 0.967,0.249c0.696,0 1.281,-0.397 1.502,-1.004c0.173,-0.475 -0.023,-0.763 -0.685,-1.028c-0.883,-0.358 -0.956,-0.91 -0.766,-1.432c0.294,-0.809 1.198,-1.502 2.255,-1.502c0.556,0 0.934,0.125 1.139,0.288l-0.359,0.451c-0.168,-0.116 -0.464,-0.248 -0.87,-0.248c-0.642,0 -1.14,0.373 -1.346,0.941c-0.202,0.553 0.172,0.786 0.657,0.981c1.049,0.412 0.999,1.035 0.826,1.51c-0.339,0.934 -1.343,1.588 -2.41,1.588" style="fill:#115d9f;fill-rule:nonzero;"/><path d="M74.678,42.844c-1.19,0 -1.491,-0.529 -1.185,-1.37l1.057,-2.911l0.776,0l-1.066,2.934c-0.178,0.491 -0.015,0.864 0.637,0.864c0.371,0 0.655,-0.054 0.918,-0.17l1.319,-3.628l0.775,0l-1.434,3.946c-0.418,0.179 -1.03,0.335 -1.797,0.335" style="fill:#115d9f;fill-rule:nonzero;"/><path d="M81.385,39.014c-0.351,-0.101 -0.803,-0.07 -1.113,0.078l-1.332,3.667l-0.776,0l1.443,-3.971c0.544,-0.21 1.033,-0.319 2.153,-0.296l-0.375,0.522Z" style="fill:#115d9f;fill-rule:nonzero;"/><path d="M83.435,42.758l-0.696,0l-0.053,-4.196l0.829,0l-0.096,3.005c-0.006,0.28 -0.064,0.514 -0.064,0.514l0.018,0c0,0 0.099,-0.226 0.301,-0.514l2.106,-3.005l0.722,0l-3.067,4.196Z" style="fill:#115d9f;fill-rule:nonzero;"/><path d="M89.355,38.928c-0.688,0 -1.377,0.49 -1.772,1.627l2.385,-0.304c0.344,-0.95 0.065,-1.323 -0.613,-1.323m-1.878,1.993c-0.257,0.949 0.075,1.416 0.93,1.416c0.538,0 0.968,-0.116 1.26,-0.241l0.039,0.451c-0.348,0.156 -0.898,0.289 -1.542,0.289c-1.242,0 -1.864,-0.694 -1.32,-2.188c0.517,-1.424 1.579,-2.164 2.698,-2.164c1.138,0 1.588,0.655 1.061,2.055l-3.126,0.382Z" style="fill:#115d9f;fill-rule:nonzero;"/><path d="M93.652,37.753c-0.255,0 -0.396,-0.171 -0.323,-0.373c0.076,-0.21 0.342,-0.382 0.597,-0.382c0.247,0 0.387,0.172 0.311,0.382c-0.074,0.202 -0.338,0.373 -0.585,0.373m-2.206,5.005l1.524,-4.195l0.775,0l-1.524,4.195l-0.775,0Z" style="fill:#115d9f;fill-rule:nonzero;"/><path d="M94.098,42.758l2.22,-6.111l0.776,0l-2.221,6.111l-0.775,0Z" style="fill:#115d9f;fill-rule:nonzero;"/><path d="M96.837,42.758l2.22,-6.111l0.776,0l-2.221,6.111l-0.775,0Z" style="fill:#115d9f;fill-rule:nonzero;"/><path d="M102.736,40.376c-1.247,0.132 -2.043,0.358 -2.351,1.206c-0.221,0.608 0.112,0.857 0.817,0.857c0.3,0 0.608,-0.047 0.836,-0.14l0.698,-1.923Zm-1.74,2.459c-1.234,0 -1.634,-0.474 -1.357,-1.237c0.405,-1.113 1.704,-1.44 3.224,-1.572l0.094,-0.257c0.235,-0.646 -0.138,-0.833 -0.746,-0.833c-0.459,0 -0.936,0.148 -1.243,0.264l-0.038,-0.404c0.322,-0.132 0.915,-0.312 1.568,-0.312c0.881,0 1.535,0.335 1.162,1.363l-0.978,2.693c-0.427,0.179 -1.024,0.295 -1.686,0.295" style="fill:#115d9f;fill-rule:nonzero;"/><path d="M107.053,42.758l1.095,-3.013c0.141,-0.389 0.112,-0.817 -0.699,-0.817c-0.441,0 -0.672,0.054 -0.953,0.148l-1.338,3.682l-0.776,0l1.446,-3.978c0.488,-0.179 1.085,-0.296 1.843,-0.296c1.322,0 1.476,0.647 1.258,1.246l-1.101,3.028l-0.775,0Z" style="fill:#115d9f;fill-rule:nonzero;"/><path d="M111.203,42.836c-1.04,0 -1.507,-0.825 -1.015,-2.18c0.501,-1.378 1.556,-2.172 2.613,-2.172c0.583,0 0.84,0.164 0.947,0.281l-0.328,0.397c-0.108,-0.094 -0.279,-0.202 -0.632,-0.202c-0.864,0 -1.451,0.692 -1.807,1.673c-0.365,1.005 -0.211,1.697 0.556,1.697c0.326,0 0.58,-0.093 0.796,-0.202l0.039,0.427c-0.239,0.149 -0.64,0.281 -1.169,0.281" style="fill:#115d9f;fill-rule:nonzero;"/><path d="M116.677,38.928c-0.688,0 -1.377,0.49 -1.773,1.627l2.386,-0.304c0.344,-0.95 0.065,-1.323 -0.613,-1.323m-1.878,1.993c-0.257,0.949 0.075,1.416 0.93,1.416c0.538,0 0.968,-0.116 1.26,-0.241l0.039,0.451c-0.348,0.156 -0.898,0.289 -1.541,0.289c-1.243,0 -1.864,-0.694 -1.321,-2.188c0.517,-1.424 1.579,-2.164 2.698,-2.164c1.138,0 1.588,0.655 1.061,2.055l-3.126,0.382Z" style="fill:#115d9f;fill-rule:nonzero;"/><path d="M3.68,47.895c-0.177,-0.047 -0.359,-0.077 -0.562,-0.077c-1.102,0 -1.759,0.84 -2.091,1.75c-0.36,0.989 -0.234,1.713 0.735,1.713c0.317,0 0.549,-0.031 0.73,-0.116l1.188,-3.27Zm-2.117,3.837c-1.357,0 -1.784,-0.84 -1.322,-2.109c0.506,-1.393 1.637,-2.203 2.863,-2.203c0.264,0 0.481,0.031 0.714,0.093l0.716,-1.969l0.767,0l-2.141,5.892c-0.379,0.172 -0.937,0.296 -1.597,0.296" style="fill:#115d9f;fill-rule:nonzero;"/><path d="M6.513,51.74c-1.19,0 -1.491,-0.529 -1.185,-1.37l1.057,-3.043l0.776,0l-1.066,3.066c-0.178,0.491 -0.015,0.864 0.637,0.864c0.371,0 0.655,-0.054 0.918,-0.171l1.318,-3.759l0.775,0l-1.433,4.078c-0.418,0.179 -1.03,0.335 -1.797,0.335" style="fill:#115d9f;fill-rule:nonzero;"/><path d="M14.096,51.732c-0.688,0 -1.051,-0.117 -1.302,-0.295l0.392,-0.498c0.183,0.123 0.482,0.248 0.968,0.248c0.695,0 1.281,-0.397 1.501,-1.004c0.173,-0.475 -0.022,-0.763 -0.684,-1.028c-0.884,-0.358 -0.956,-0.91 -0.766,-1.432c0.294,-0.809 1.197,-1.502 2.254,-1.502c0.557,0 0.934,0.125 1.139,0.288l-0.358,0.451c-0.169,-0.116 -0.465,-0.248 -0.87,-0.248c-0.643,0 -1.141,0.373 -1.347,0.941c-0.201,0.553 0.174,0.786 0.658,0.981c1.048,0.412 0.998,1.035 0.826,1.511c-0.339,0.933 -1.344,1.587 -2.411,1.587" style="fill:#115d9f;fill-rule:nonzero;"/><path d="M20.68,47.825c-0.688,0 -1.376,0.49 -1.772,1.626l2.385,-0.303c0.344,-0.95 0.066,-1.323 -0.613,-1.323m-1.878,1.993c-0.257,0.949 0.075,1.416 0.93,1.416c0.539,0 0.968,-0.117 1.26,-0.241l0.039,0.451c-0.347,0.156 -0.897,0.289 -1.542,0.289c-1.242,0 -1.863,-0.694 -1.32,-2.188c0.518,-1.424 1.579,-2.164 2.699,-2.164c1.137,0 1.587,0.655 1.06,2.055l-3.126,0.382Z" style="fill:#115d9f;fill-rule:nonzero;"/><path d="M24.311,51.732c-1.04,0 -1.507,-0.825 -1.015,-2.18c0.501,-1.378 1.557,-2.171 2.613,-2.171c0.582,0 0.84,0.163 0.948,0.28l-0.329,0.397c-0.108,-0.094 -0.279,-0.202 -0.632,-0.202c-0.864,0 -1.451,0.692 -1.807,1.673c-0.365,1.004 -0.211,1.697 0.555,1.697c0.327,0 0.581,-0.093 0.797,-0.202l0.039,0.428c-0.239,0.147 -0.64,0.28 -1.169,0.28" style="fill:#115d9f;fill-rule:nonzero;"/><path d="M28.301,51.694c-0.863,0 -0.982,-0.545 -0.797,-1.059l0.999,-2.748l-0.547,0l0.156,-0.428l0.546,0l0.351,-0.965l0.853,-0.21l-0.428,1.175l0.828,0l-0.155,0.428l-0.828,0l-0.993,2.733c-0.122,0.335 -0.054,0.607 0.379,0.607c0.08,0 0.155,-0.016 0.24,-0.032l-0.158,0.437c-0.096,0.023 -0.252,0.062 -0.446,0.062" style="fill:#115d9f;fill-rule:nonzero;"/><path d="M33.233,47.825c-0.689,0 -1.377,0.49 -1.774,1.626l2.385,-0.303c0.346,-0.95 0.067,-1.323 -0.611,-1.323m-1.879,1.993c-0.258,0.949 0.075,1.416 0.931,1.416c0.537,0 0.967,-0.117 1.259,-0.241l0.039,0.451c-0.347,0.156 -0.897,0.289 -1.541,0.289c-1.243,0 -1.864,-0.694 -1.321,-2.188c0.517,-1.424 1.58,-2.164 2.699,-2.164c1.137,0 1.587,0.655 1.061,2.055l-3.127,0.382Z" style="fill:#115d9f;fill-rule:nonzero;"/><path d="M36.921,51.74c-1.19,0 -1.491,-0.529 -1.185,-1.37l1.057,-2.911l0.776,0l-1.066,2.934c-0.178,0.491 -0.015,0.864 0.637,0.864c0.371,0 0.655,-0.054 0.918,-0.171l1.318,-3.627l0.776,0l-1.435,3.946c-0.417,0.179 -1.029,0.335 -1.796,0.335" style="fill:#115d9f;fill-rule:nonzero;"/><path d="M43.629,47.91c-0.351,-0.102 -0.803,-0.07 -1.113,0.077l-1.332,3.667l-0.775,0l1.442,-3.97c0.544,-0.21 1.033,-0.319 2.153,-0.296l-0.375,0.522Z" style="fill:#115d9f;fill-rule:nonzero;"/><path d="M49.371,46.782l-0.679,1.868l1.789,0l-0.172,0.475l-1.79,0l-0.919,2.53l-0.811,0l1.946,-5.356l2.803,0l-0.175,0.483l-1.992,0Z" style="fill:#115d9f;fill-rule:nonzero;"/><path d="M53.349,46.649c-0.255,0 -0.396,-0.171 -0.322,-0.373c0.076,-0.21 0.341,-0.382 0.597,-0.382c0.247,0 0.388,0.172 0.31,0.382c-0.073,0.202 -0.338,0.373 -0.585,0.373m-2.206,5.005l1.524,-4.195l0.776,0l-1.525,4.195l-0.775,0Z" style="fill:#115d9f;fill-rule:nonzero;"/><path d="M56.414,51.654l1.095,-3.013c0.141,-0.389 0.112,-0.816 -0.699,-0.816c-0.441,0 -0.672,0.054 -0.953,0.147l-1.338,3.682l-0.775,0l1.444,-3.978c0.489,-0.179 1.086,-0.296 1.845,-0.296c1.321,0 1.475,0.647 1.257,1.246l-1.101,3.028l-0.775,0Z" style="fill:#115d9f;fill-rule:nonzero;"/><path d="M62.251,49.272c-1.247,0.133 -2.042,0.358 -2.351,1.207c-0.221,0.607 0.112,0.856 0.817,0.856c0.3,0 0.607,-0.047 0.835,-0.14l0.699,-1.923Zm-1.74,2.46c-1.234,0 -1.634,-0.475 -1.357,-1.238c0.404,-1.113 1.704,-1.44 3.224,-1.572l0.094,-0.257c0.234,-0.646 -0.138,-0.833 -0.747,-0.833c-0.458,0 -0.935,0.148 -1.242,0.265l-0.038,-0.405c0.322,-0.132 0.915,-0.312 1.568,-0.312c0.881,0 1.535,0.335 1.162,1.363l-0.979,2.693c-0.426,0.179 -1.023,0.296 -1.685,0.296" style="fill:#115d9f;fill-rule:nonzero;"/><path d="M66.568,51.654l1.095,-3.013c0.141,-0.389 0.111,-0.816 -0.699,-0.816c-0.441,0 -0.672,0.054 -0.953,0.147l-1.338,3.682l-0.776,0l1.446,-3.978c0.487,-0.179 1.086,-0.296 1.843,-0.296c1.323,0 1.477,0.647 1.258,1.246l-1.101,3.028l-0.775,0Z" style="fill:#115d9f;fill-rule:nonzero;"/><path d="M70.717,51.732c-1.04,0 -1.507,-0.825 -1.015,-2.18c0.501,-1.378 1.557,-2.171 2.613,-2.171c0.582,0 0.84,0.163 0.948,0.28l-0.329,0.397c-0.107,-0.094 -0.279,-0.202 -0.632,-0.202c-0.864,0 -1.451,0.692 -1.807,1.673c-0.365,1.004 -0.211,1.697 0.555,1.697c0.327,0 0.581,-0.093 0.797,-0.202l0.039,0.428c-0.239,0.147 -0.64,0.28 -1.169,0.28" style="fill:#115d9f;fill-rule:nonzero;"/><path d="M75.535,46.649c-0.256,0 -0.396,-0.171 -0.323,-0.373c0.076,-0.21 0.342,-0.382 0.597,-0.382c0.247,0 0.387,0.172 0.311,0.382c-0.074,0.202 -0.338,0.373 -0.585,0.373m-2.206,5.005l1.524,-4.195l0.775,0l-1.524,4.195l-0.775,0Z" style="fill:#115d9f;fill-rule:nonzero;"/><path d="M79.021,47.825c-0.688,0 -1.377,0.49 -1.772,1.626l2.384,-0.303c0.345,-0.95 0.067,-1.323 -0.612,-1.323m-1.879,1.993c-0.256,0.949 0.076,1.416 0.931,1.416c0.538,0 0.968,-0.117 1.26,-0.241l0.039,0.451c-0.348,0.156 -0.898,0.289 -1.541,0.289c-1.243,0 -1.864,-0.694 -1.321,-2.188c0.518,-1.424 1.579,-2.164 2.699,-2.164c1.136,0 1.587,0.655 1.06,2.055l-3.127,0.382Z" style="fill:#115d9f;fill-rule:nonzero;"/><path d="M84.278,47.91c-0.351,-0.102 -0.803,-0.07 -1.113,0.077l-1.331,3.667l-0.776,0l1.442,-3.97c0.544,-0.21 1.033,-0.319 2.153,-0.296l-0.375,0.522Z" style="fill:#115d9f;fill-rule:nonzero;"/><path d="M30.271,6.542c7.183,0 14.327,2.89 19.732,7.021c-7.335,-7.511 -18.013,-13.455 -29.127,-13.455c-1.448,0 -2.863,0.1 -4.259,0.256l-4.511,13.188c5.053,-5.302 9.901,-7.01 18.165,-7.01" style="fill:#36aadc;fill-rule:nonzero;"/><path d="M11.708,29.825c-3.188,0 -5.333,-1.908 -3.889,-5.866c1.442,-3.957 5.802,-5.889 9.037,-5.889c1.839,0 2.881,0.652 3.304,1.536l-0.865,0.838c-0.251,-0.395 -1.11,-0.465 -1.855,-0.465c-2.211,0 -4.109,1.885 -4.873,3.98c-0.874,2.398 0.047,3.958 1.978,3.958c0.746,0 1.905,-0.117 2.762,-0.746l0.175,0.862c-1.909,1.28 -3.423,1.792 -5.774,1.792" style="fill:#115d9f;fill-rule:nonzero;"/><path d="M25.045,29.825c-2.491,0 -3.203,-1.048 -3.402,-1.397l0.674,-0.954c0.849,0.675 1.648,0.908 2.672,0.908c0.908,0 1.757,-0.349 2.079,-1.234c0.552,-1.513 -4.2,-1.885 -2.851,-5.586c0.79,-2.165 3.485,-3.492 5.929,-3.492c1.932,0 3.072,0.512 3.517,1.396l-0.861,0.769c-0.311,-0.489 -1.288,-0.745 -2.243,-0.745c-0.768,0 -1.784,0.233 -2.089,1.071c-0.56,1.536 4.62,1.629 3.245,5.4c-0.875,2.398 -3.574,3.864 -6.67,3.864" style="fill:#115d9f;fill-rule:nonzero;"/><path d="M39.103,29.825c-2.49,0 -3.203,-1.048 -3.402,-1.397l0.675,-0.954c0.848,0.675 1.647,0.908 2.671,0.908c0.908,0 1.757,-0.349 2.08,-1.234c0.552,-1.513 -4.201,-1.885 -2.852,-5.586c0.791,-2.165 3.485,-3.492 5.929,-3.492c1.932,0 3.072,0.512 3.518,1.396l-0.862,0.769c-0.31,-0.489 -1.289,-0.745 -2.243,-0.745c-0.768,0 -1.784,0.233 -2.089,1.071c-0.56,1.536 4.619,1.629 3.245,5.4c-0.875,2.398 -3.575,3.864 -6.67,3.864" style="fill:#115d9f;fill-rule:nonzero;"/><path d="M62.793,14.825c-0.811,0 -1.758,0.461 -2.561,1.199c-0.81,0.76 -1.421,1.636 -1.803,2.742l-0.631,1.82l1.685,0l-0.542,1.568l-1.686,0l-2.538,7.328l-4.685,0l3.624,-10.463c1.15,-3.318 4.092,-5.553 8.075,-5.553c0.614,0 1.276,0.046 1.891,0.23l-0.829,1.129Z" style="fill:#115d9f;fill-rule:nonzero;"/></g></svg>