<?xml version="1.0" encoding="UTF-8" standalone="no"?>
<svg
   xmlns:dc="http://purl.org/dc/elements/1.1/"
   xmlns:cc="http://creativecommons.org/ns#"
   xmlns:rdf="http://www.w3.org/1999/02/22-rdf-syntax-ns#"
   xmlns:svg="http://www.w3.org/2000/svg"
   xmlns="http://www.w3.org/2000/svg"
   xmlns:sodipodi="http://sodipodi.sourceforge.net/DTD/sodipodi-0.dtd"
   xmlns:inkscape="http://www.inkscape.org/namespaces/inkscape"
   viewBox="0 0 433.41 337.56669"
   version="1.1"
   id="svg4"
   sodipodi:docname="cssf.svg"
   width="433.41"
   height="337.56668"
   inkscape:version="0.92.5 (2060ec1f9f, 2020-04-08)">
  <metadata
     id="metadata10">
    <rdf:RDF>
      <cc:Work
         rdf:about="">
        <dc:format>image/svg+xml</dc:format>
        <dc:type
           rdf:resource="http://purl.org/dc/dcmitype/StillImage" />
        <dc:title />
      </cc:Work>
    </rdf:RDF>
  </metadata>
  <defs
     id="defs8" />
  <sodipodi:namedview
     pagecolor="#ffffff"
     bordercolor="#666666"
     borderopacity="1"
     objecttolerance="10"
     gridtolerance="10"
     guidetolerance="10"
     inkscape:pageopacity="0"
     inkscape:pageshadow="2"
     inkscape:window-width="1920"
     inkscape:window-height="1055"
     id="namedview6"
     showgrid="false"
     inkscape:pagecheckerboard="true"
     inkscape:zoom="1.2828499"
     inkscape:cx="143.52271"
     inkscape:cy="144.86072"
     inkscape:window-x="0"
     inkscape:window-y="0"
     inkscape:window-maximized="1"
     inkscape:current-layer="svg4" />
  <path
     style="fill:#007296;fill-opacity:1"
     d="m 357.5,52.856448 11.35,-42.37 a 208,208 0 0 0 -231.78,72.94 234,234 0 0 1 220.43,-30.57 z"
     id="path1243" />
  <path
     style="fill:#115e67;fill-opacity:1"
     d="m 76.23,188.87645 c -4.46,8.73 -13.85,14.13 -24.5,14.13 -16.73,0 -28.59,-12.41 -28.59,-29 0,-16.59 11.86,-29 28.59,-29 11,0 19.8,5.15 24.11,14.14 l 19.43,-11.14 c -7.84,-15.41 -24.45,-25 -43.35,-25 -27.52,0 -51.92,19.13 -51.92,51.05 0,31.92 24.4,51.08 51.92,51.08 18.58,0 35.34,-9.68 43.72,-25.28 z"
     id="path1241" />
  <path
     style="fill:#115e67;fill-opacity:1"
     d="m 179.47,142.42645 c -5.79,-12 -20.17,-19.45 -36.62,-19.45 -18.41,0.03 -36.85,10.31 -36.85,29.15 0,35 52.2,28 52.2,43.62 0,4.84 -4.7,9.16 -14.59,9.16 -17.83,0 -21.94,-14.52 -21.94,-14.52 l -19,12.77 c 5.11,12.16 19.88,22 40.35,22 19.22,0 38.67,-10.61 38.67,-30.82 0,-34 -52.2,-25.71 -52.2,-42.14 0,-6.23 6.31,-9.15 13.33,-9.15 8.5,0 14.4,4 18.06,11.71 z"
     id="path1239" />
  <path
     style="fill:#115e67;fill-opacity:1"
     d="m 265.85,142.42645 c -5.79,-12 -20.16,-19.45 -36.61,-19.45 -18.41,0 -36.86,10.31 -36.86,29.15 0,35 52.74,27.45 52.74,43.06 0,5.62 -5.24,9.72 -15.13,9.72 -17.83,0 -21.93,-14.52 -21.93,-14.52 l -19,12.77 c 5.11,12.16 19.88,22 40.35,22 19.22,0 39.21,-10.61 39.21,-30.82 0,-34 -52.74,-25.71 -52.74,-42.14 0,-5.64 6.31,-9.15 13.33,-9.15 8.49,0 14.39,4 18.06,11.71 z"
     id="path1237" />
  <path
     style="fill:#115e67;fill-opacity:1"
     d="m 312.38,125.45645 v -3.45 c 0,-11.36 5.36,-16.94 18.1,-16.94 h 13 l 5.29,-19.740002 a 119.16,119.16 0 0 0 -17.27,-1.27 c -25.75,0 -41.64,12.3 -41.64,37.410002 v 4 h -14.45 v 21.73 h 14.48 v 75.48 h 22.49 v -75.49 h 19.84 l 5.83,-21.73 z"
     id="path1235" />
  <path
     style="fill:#007296;fill-opacity:1"
     inkscape:connector-curvature="0"
     data-name="Calque 1"
     id="Calque_1"
     d="m 15.58,295.49645 c -5.47,0 -10,-4.2 -10,-13.07 0,-8.87 4.56,-13.08 10,-13.08 1.910382,-0.0508 3.799394,0.41198 5.47,1.34 l -1.3,3.19 c -1.117864,-0.71597 -2.42274,-1.08482 -3.75,-1.06 -3.58,0 -6.35,3.12 -6.35,9.57 0,6.45 2.77,9.62 6.35,9.62 1.321009,0.0416 2.625083,-0.3062 3.75,-1 l 1.3,3.22 c -1.674218,0.91209 -3.565181,1.35113 -5.47,1.27 z m 15.81,0 c -5.37,0 -8.31,-4.24 -8.31,-9.85 0,-5.61 2.94,-9.81 8.31,-9.81 5.37,0 8.31,4.21 8.31,9.81 0,5.6 -2.95,9.85 -8.31,9.85 z m 0,-16.61 c -3,0 -4.45,2.66 -4.45,6.73 0,4.07 1.47,6.76 4.45,6.76 2.98,0 4.45,-2.69 4.45,-6.76 0,-4.07 -1.47,-6.73 -4.45,-6.73 z m 34.06,16.23 v -12.8 c 0,-2.17 -1.44,-3.4 -3.61,-3.4 -1.28137,-0.067 -2.534609,0.39168 -3.47,1.27 v 14.93 h -3.86 v -13.11 c 0,-1.89 -1.51,-3 -3.85,-3 -1.103073,-0.0283 -2.200841,0.162 -3.23,0.56 v 15.64 h -3.82 v -18.04 c 2.159797,-0.87734 4.468811,-1.32895 6.8,-1.33 3,0 5,0.95 6,2 1.804476,-1.35501 4.014206,-2.05987 6.27,-2 4,0 6.56,2.35 6.56,6.1 v 13.18 z m 30.38,0 v -12.8 c 0,-2.17 -1.44,-3.4 -3.61,-3.4 -1.281724,-0.0693 -2.535861,0.38965 -3.47,1.27 v 14.93 h -3.86 v -13.11 c 0,-1.89 -1.51,-3 -3.86,-3 -1.099762,-0.0275 -2.194106,0.16279 -3.22,0.56 v 15.64 H 74 v -18.04 c 2.159797,-0.87734 4.468811,-1.32895 6.8,-1.33 3,0 5,0.95 6,2 1.804476,-1.35501 4.014206,-2.05987 6.27,-2 4,0 6.56,2.35 6.56,6.1 v 13.18 z m 10.47,-22.33 c -1.91809,-0.0881 -2.79356,-2.43313 -1.40285,-3.75675 1.39071,-1.32361 3.68964,-0.33335 3.68285,1.58675 -0.0327,1.22779 -1.05209,2.19797 -2.28,2.17 z m -1.93,22.33 v -18.9 h 3.86 v 18.9 z m 13.26,0.38 c -2.03861,0.007 -4.05238,-0.44731 -5.89,-1.33 l 1.3,-2.94 c 1.38747,0.73512 2.9213,1.15188 4.49,1.22 2.06,0 3.43,-1 3.43,-2.59 0,-1.59 -1.44,-2.38 -3.37,-3.08 -2.52,-0.95 -5.36,-2.11 -5.36,-5.65 0,-3.12 2.42,-5.29 6.63,-5.29 1.9175,-0.0397 3.81251,0.41854 5.5,1.33 l -1.19,2.66 c -1.18863,-0.67861 -2.5225,-1.06266 -3.89,-1.12 -2,0 -3.12,1.05 -3.12,2.42 0,1.72 1.4,2.32 3.26,3 2.63,1 5.54,2.06 5.54,5.75 0.04,3.42 -2.6,5.62 -7.33,5.62 z m 15.62,0 c -2.03861,0.007 -4.05238,-0.44731 -5.89,-1.33 l 1.3,-2.94 c 1.38747,0.73512 2.9213,1.15188 4.49,1.22 2.06,0 3.43,-1 3.43,-2.59 0,-1.59 -1.44,-2.38 -3.36,-3.08 -2.53,-0.95 -5.37,-2.11 -5.37,-5.65 0,-3.12 2.42,-5.29 6.63,-5.29 1.91764,-0.0411 3.81301,0.41725 5.5,1.33 l -1.19,2.66 c -1.18801,-0.68006 -2.52225,-1.06421 -3.89,-1.12 -2,0 -3.12,1.05 -3.12,2.42 0,1.72 1.4,2.32 3.26,3 2.63,1 5.54,2.06 5.54,5.75 0,3.42 -2.58,5.62 -7.33,5.62 z m 12.94,-22.71 c -1.91809,-0.0881 -2.79356,-2.43313 -1.40285,-3.75675 1.39071,-1.32361 3.68964,-0.33335 3.68285,1.58675 -0.0273,1.23021 -1.04994,2.20356 -2.28,2.17 z m -1.92,22.33 v -18.9 h 3.85 v 18.9 z m 16.01,0.38 c -5.36,0 -8.31,-4.24 -8.31,-9.85 0,-5.61 2.95,-9.81 8.31,-9.81 5.36,0 8.31,4.21 8.31,9.81 0,5.6 -2.94,9.85 -8.31,9.85 z m 0,-16.61 c -3,0 -4.45,2.66 -4.45,6.73 0,4.07 1.47,6.76 4.45,6.76 2.98,0 4.46,-2.69 4.46,-6.76 0,-4.07 -1.48,-6.73 -4.46,-6.73 z m 23.48,16.23 v -12.62 c 0,-2.21 -1.33,-3.58 -4,-3.58 -1.18066,-0.0197 -2.35547,0.16992 -3.47,0.56 v 15.64 h -3.82 v -17.95 c 2.30774,-0.90864 4.77001,-1.36033 7.25,-1.33 5.3,0 7.85,2.31 7.85,6.31 v 13 z m 26.18,0.38 c -5.89,0 -9.22,-3.68 -9.22,-9.67 0,-5.78 3.08,-9.78 8.8,-9.78 1.01585,0.0124 2.02522,0.16379 3,0.45 v -8.9 h 3.85 v 26.57 c -2.01881,0.91276 -4.21475,1.36698 -6.43,1.33 z m 2.63,-16.09 c -0.8717,-0.28367 -1.78332,-0.42548 -2.7,-0.42 -3.47,0 -5.3,2.88 -5.3,6.84 0,4.14 1.86,6.62 5.3,6.62 0.92303,0.0105 1.83953,-0.1558 2.7,-0.49 z m 24.07,6.17 -12.55,1.76 c 0.38,3.4 2.59,5.11 5.78,5.11 1.80803,0.0186 3.59656,-0.37464 5.23,-1.15 l 1.12,2.87 c -2.07271,0.92074 -4.32243,1.37478 -6.59,1.33 -6,0 -9.29,-3.82 -9.29,-9.85 0,-5.78 3.22,-9.81 8.51,-9.81 4.91,0 7.82,3.22 7.82,8.31 0,0.45 0,0.94 -0.03,1.43 z m -7.85,-6.94 c -2.95,0 -4.88,2.25 -4.95,6.17 l 9.15,-1.26 c 0.01,-3.29 -1.68,-4.91 -4.2,-4.91 z m 26.42,16.86 c -2.1763,0.0339 -4.33252,-0.4206 -6.31,-1.33 l 1.37,-3.43 c 1.48311,0.77506 3.1268,1.19283 4.8,1.22 2.8,0 4.7,-1.43 4.7,-3.78 0,-2.18 -1.93,-3.23 -4.07,-4.17 -3,-1.37 -6.52,-3.19 -6.52,-7.51 0,-4.32 3.19,-7.15 8,-7.15 1.98688,-0.0516 3.95351,0.40989 5.71,1.34 l -1.26,3.22 c -1.326,-0.71886 -2.80231,-1.1162 -4.31,-1.16 -2.49,0 -4.21,1.34 -4.21,3.54 0,2.2 2.14,3.3 4.28,4.28 2.87,1.33 6.38,3.09 6.38,7.43 0.03,4.56 -3.3,7.5 -8.56,7.5 z m 19.79,0 c -5,0 -7.64,-2.06 -7.64,-6.8 v -12.48 h 3.82 v 12.55 c 0,2.42 1.3,3.58 3.82,3.58 1.14643,0.0331 2.28907,-0.1466 3.37,-0.53 v -15.6 h 3.82 v 18 c -2.28195,0.92071 -4.7305,1.35661 -7.19,1.28 z m 20.67,-16.33 c -1.63163,-0.35548 -3.32936,-0.25866 -4.91,0.28 v 15.67 h -3.82 v -17.95 c 2.3377,-0.90126 4.82469,-1.35252 7.33,-1.33 0.71609,-0.0179 1.43234,0.029 2.14,0.14 z m 14.4,15.95 h -4.42 l -6.87,-18.9 h 4.28 l 4,12.62 c 0.3113,0.96826 0.56836,1.95312 0.77,2.95 h 0.08 c 0,0 0.31,-1.58 0.73,-2.95 l 4,-12.62 h 4.28 z m 24.74,-9.54 -12.55,1.76 c 0.39,3.4 2.6,5.11 5.79,5.11 1.80484,0.0189 3.59018,-0.37445 5.22,-1.15 l 1.12,2.87 c -2.07201,0.92294 -4.32222,1.37708 -6.59,1.33 -6,0 -9.29,-3.82 -9.29,-9.85 0,-5.78 3.23,-9.81 8.52,-9.81 4.91,0 7.82,3.22 7.82,8.31 0,0.45 0,0.94 -0.04,1.43 z m -7.81,-6.94 c -2.94,0 -4.87,2.25 -4.94,6.17 l 9.15,-1.26 c -0.08,-3.29 -1.73,-4.91 -4.21,-4.91 z m 13.67,-5.85 c -1.91809,-0.0881 -2.79356,-2.43313 -1.40285,-3.75675 1.39071,-1.32361 3.68964,-0.33335 3.68285,1.58675 -0.0327,1.22779 -1.05209,2.19797 -2.28,2.17 z m -1.93,22.33 v -18.9 h 3.86 v 18.9 z m 8.66,0 v -27.52 h 3.85 v 27.52 z m 8.6,0 v -27.52 h 3.85 v 27.52 z m 15.67,0.38 c -5.43,0 -8.16,-2.2 -8.16,-5.92 0,-5.26 5.6,-6.2 11.32,-6.52 v -1.19 c 0,-2.39 -1.58,-3.23 -4,-3.23 -1.79933,0.0398 -3.57317,0.43397 -5.22,1.16 l -1,-2.63 c 2.09007,-0.86507 4.32802,-1.31674 6.59,-1.33 4.52,0 7.25,1.75 7.25,6.41 v 11.92 c -2.13909,0.92243 -4.45095,1.37594 -6.78,1.33 z m 3.16,-9.88 c -3.86,0.21 -7.71,0.52 -7.71,3.89 0,2 1.54,3.23 4.45,3.23 1.10637,0.0193 2.20818,-0.14635 3.26,-0.49 z m 19.57,9.5 v -12.62 c 0,-2.21 -1.33,-3.58 -4,-3.58 -1.18057,-0.0184 -2.35516,0.17115 -3.47,0.56 v 15.64 h -3.82 v -17.95 c 2.30774,-0.90864 4.77001,-1.36033 7.25,-1.33 5.3,0 7.86,2.31 7.86,6.31 v 13 z m 16.02,0.38 c -4.21,0 -8.31,-3 -8.31,-9.85 0,-6.85 4.1,-9.81 8.31,-9.81 1.7069,-0.0592 3.39248,0.39352 4.84,1.3 l -1.26,2.77 c -0.90809,-0.61514 -1.9833,-0.9363 -3.08,-0.92 -2.53,0 -4.84,2 -4.84,6.63 0,4.63 2.38,6.66 4.84,6.66 1.09502,0.0148 2.16884,-0.30247 3.08,-0.91 l 1.27,2.84 c -1.44998,0.90834 -3.14035,1.35794 -4.85,1.29 z m 22.95,-9.92 -12.55,1.76 c 0.39,3.4 2.59,5.11 5.79,5.11 1.80484,0.0189 3.59018,-0.37445 5.22,-1.15 l 1.12,2.87 c -2.07241,0.92168 -4.32234,1.37576 -6.59,1.33 -6,0 -9.29,-3.82 -9.29,-9.85 0,-5.78 3.23,-9.81 8.52,-9.81 4.91,0 7.82,3.22 7.82,8.31 0,0.45 0,0.94 -0.04,1.43 z m -7.85,-6.94 c -2.95,0 -4.87,2.25 -4.94,6.17 l 9.14,-1.26 c -0.03,-3.29 -1.72,-4.91 -4.2,-4.91 z m -410.75,58.92 c -5.89,0 -9.22,-3.68 -9.22,-9.67 0,-5.79 3.09,-9.78 8.8,-9.78 1.015984,0.0107 2.025582,0.16217 3,0.45 v -8.9 h 3.86 v 26.57 c -2.021869,0.91421 -4.221384,1.36846 -6.44,1.33 z m 2.63,-16.09 c -0.871502,-0.28452 -1.783252,-0.42635 -2.7,-0.42 -3.47,0 -5.29,2.88 -5.29,6.84 0,4.13 1.86,6.62 5.29,6.62 0.923216,0.0128 1.840148,-0.15363 2.7,-0.49 z m 16.19,16.09 c -5,0 -7.64,-2.07 -7.64,-6.8 v -12.48 h 3.82 v 12.55 c 0,2.42 1.3,3.58 3.82,3.58 1.146433,0.0331 2.289069,-0.1466 3.37,-0.53 v -15.6 h 3.82 v 18 c -2.281955,0.92071 -4.730498,1.35661 -7.19,1.28 z m 26.41,0 c -2.176403,0.0349 -4.332839,-0.41962 -6.31,-1.33 l 1.37,-3.44 c 1.482121,0.77888 3.125949,1.20011 4.8,1.23 2.8,0 4.69,-1.44 4.69,-3.78 0,-2.18 -1.92,-3.23 -4.06,-4.18 -3,-1.36 -6.52,-3.19 -6.52,-7.5 0,-4.31 3.19,-7.15 8,-7.15 1.988641,-0.0493 3.957102,0.40842 5.72,1.33 l -1.22,3.27 c -1.326414,-0.71782 -2.802478,-1.11509 -4.31,-1.16 -2.49,0 -4.21,1.33 -4.21,3.54 0,2.21 2.14,3.3 4.28,4.28 2.87,1.33 6.38,3.08 6.38,7.43 0,4.52 -3.33,7.46 -8.61,7.46 z m 28.13,-9.92 -12.55,1.75 c 0.39,3.4 2.59,5.12 5.79,5.12 1.806141,0.0208 3.592636,-0.37625 5.22,-1.16 l 1.12,2.88 c -2.072412,0.92168 -4.322338,1.37576 -6.59,1.33 -6,0 -9.29,-3.82 -9.29,-9.85 0,-5.78 3.23,-9.81 8.52,-9.81 4.91,0 7.82,3.22 7.82,8.3 0,0.46 0,0.95 -0.04,1.44 z m -7.85,-6.94 c -3,0 -4.87,2.24 -4.94,6.17 l 9.14,-1.26 c -0.03,-3.3 -1.68,-4.91 -4.2,-4.91 z m 19.36,16.86 c -4.21,0 -8.31,-3 -8.31,-9.85 0,-6.85 4.1,-9.81 8.31,-9.81 1.70525,-0.0568 3.3892,0.39207 4.84,1.29 l -1.27,2.82 c -0.91116,-0.60753 -1.98498,-0.92479 -3.08,-0.91 -2.52,0 -4.84,2 -4.84,6.63 0,4.63 2.39,6.66 4.84,6.66 1.0967,0.0163 2.17191,-0.30486 3.08,-0.92 l 1.27,2.84 c -1.4496,0.89701 -3.13733,1.33289 -4.84,1.25 z m 15.27,-0.14 c -3.34,0 -5.19,-1.86 -5.19,-5.54 v -10.72 h -2.56 v -2.88 h 2.56 v -4.38 l 3.75,-1.16 v 5.54 h 3.82 v 2.88 h -3.82 v 10.51 c -0.11478,1.41816 1.1099,2.57966 2.52,2.39 0.44511,-0.002 0.88598,-0.0866 1.3,-0.25 v 3.2 c -0.76057,0.28483 -1.56797,0.42392 -2.38,0.41 z m 20.99,-9.78 -12.55,1.75 c 0.39,3.4 2.6,5.12 5.79,5.12 1.80614,0.0208 3.59264,-0.37625 5.22,-1.16 l 1.12,2.88 c -2.07201,0.92294 -4.32222,1.37708 -6.59,1.33 -6,0 -9.29,-3.82 -9.29,-9.85 0,-5.78 3.23,-9.81 8.52,-9.81 4.91,0 7.82,3.22 7.82,8.3 0,0.46 0,0.95 -0.04,1.44 z m -7.85,-6.94 c -2.94,0 -4.87,2.24 -4.94,6.17 l 9.15,-1.26 c -0.04,-3.3 -1.69,-4.91 -4.21,-4.91 z m 19.26,16.86 c -5,0 -7.64,-2.07 -7.64,-6.8 v -12.48 h 3.82 v 12.55 c 0,2.42 1.3,3.58 3.82,3.58 1.14312,0.0323 2.28233,-0.14738 3.36,-0.53 v -15.6 h 3.83 v 18 c -2.28252,0.91874 -4.73065,1.35457 -7.19,1.28 z m 20.63,-16.33 c -1.63163,-0.35548 -3.32936,-0.25866 -4.91,0.28 v 15.67 h -3.82 v -17.95 c 2.33743,-0.90219 4.82461,-1.35348 7.33,-1.33 0.71277,-0.018 1.42571,0.0289 2.13,0.14 z m 17.2,-6.1 v 7.46 h 8.42 v 3.26 h -8.42 v 11.33 h -3.89 v -25.38 h 13.11 v 3.33 z m 14.86,-0.28 c -1.91858,-0.0793 -2.80477,-2.42049 -1.41994,-3.75042 1.38483,-1.32992 3.6883,-0.3498 3.68994,1.57042 -0.0273,1.22775 -1.04215,2.20233 -2.27,2.18 z m -1.93,22.33 v -18.9 h 3.85 v 18.9 z m 19.83,0 v -12.62 c 0,-2.21 -1.33,-3.58 -4,-3.58 -1.18066,-0.0197 -2.35547,0.16992 -3.47,0.56 v 15.64 h -3.83 v -17.95 c 2.31149,-0.90771 4.77685,-1.35935 7.26,-1.33 5.29,0 7.85,2.31 7.85,6.31 v 13 z m 15.5,0.38 c -5.43,0 -8.17,-2.21 -8.17,-5.92 0,-5.26 5.61,-6.21 11.33,-6.52 v -1.19 c 0,-2.39 -1.58,-3.23 -4,-3.23 -1.79933,0.0398 -3.57317,0.43397 -5.22,1.16 l -1,-2.63 c 2.09073,-0.8629 4.32825,-1.31448 6.59,-1.33 4.53,0 7.26,1.75 7.26,6.41 v 11.92 c -2.14281,0.92175 -4.45778,1.3752 -6.79,1.33 z m 3.16,-9.88 c -3.86,0.21 -7.72,0.52 -7.72,3.89 0,2 1.55,3.22 4.45,3.22 1.10996,0.0242 2.21589,-0.14149 3.27,-0.49 z m 19.56,9.5 v -12.62 c 0,-2.21 -1.33,-3.58 -4,-3.58 -1.18051,-0.0176 -2.35495,0.17196 -3.47,0.56 v 15.64 h -3.82 v -17.95 c 2.311,-0.90942 4.77669,-1.36112 7.26,-1.33 5.29,0 7.85,2.31 7.85,6.31 v 13 z m 16.02,0.38 c -4.2,0 -8.3,-3 -8.3,-9.85 0,-6.85 4.1,-9.81 8.3,-9.81 1.70525,-0.0568 3.3892,0.39207 4.84,1.29 l -1.26,2.82 c -0.91478,-0.60775 -1.99184,-0.92494 -3.09,-0.91 -2.52,0 -4.83,2 -4.83,6.63 0,4.63 2.38,6.66 4.83,6.66 1.09983,0.0164 2.17827,-0.30467 3.09,-0.92 l 1.26,2.84 c -1.4491,0.89818 -3.1372,1.33416 -4.84,1.25 z m 10.12,-22.71 c -1.9157,-0.088 -2.79242,-2.42814 -1.40648,-3.75329 1.38594,-1.32516 3.68446,-0.34443 3.68648,1.57329 -0.0327,1.22933 -1.05044,2.2024 -2.28,2.18 z m -1.93,22.33 v -18.9 h 3.86 v 18.9 z m 24.01,-9.54 -12.55,1.75 c 0.39,3.4 2.6,5.12 5.79,5.12 1.80614,0.0208 3.59264,-0.37625 5.22,-1.16 l 1.12,2.88 c -2.07201,0.92294 -4.32222,1.37708 -6.59,1.33 -6,0 -9.29,-3.82 -9.29,-9.85 0,-5.78 3.23,-9.81 8.52,-9.81 4.91,0 7.82,3.22 7.82,8.3 0,0.46 0,0.95 -0.04,1.44 z m -7.85,-6.94 c -2.94,0 -4.87,2.24 -4.94,6.17 l 9.15,-1.26 c -0.04,-3.3 -1.7,-4.91 -4.21,-4.91 z m 20.51,0.53 c -1.62831,-0.35515 -3.32274,-0.25832 -4.9,0.28 v 15.67 h -3.83 v -17.95 c 2.33796,-0.90033 4.82477,-1.35156 7.33,-1.33 0.71609,-0.0179 1.43234,0.029 2.14,0.14 z"
     sodipodi:nodetypes="csccccsccccsssssssssscsccccsccccccccscccsccccsccccccccscccscccccccccccscsccccscccccccscsccccscsccscccccccsssssssssscsccccccscccsccccccccscccccccccssscsccsccccscsccccsccccsccscccccccccccccccccccccccccccccccssscsccscsccccccccccccccccccscsccccscccsccccsccccccscccsccccsccccccccccssscsccscsccccccccsccccsccsccccccccccscsccccscscccccccssscsccscsccccscccccscccccccccccccccccccccssscsccscsccsccccccccccccccccccccccccccsccccccccsccccccscccscsccccscccsccccsccccccscccsccccscccccscccccccccccccssscsccscccccccc" />
</svg>
