<?xml version="1.0" encoding="UTF-8" standalone="no"?><!DOCTYPE svg PUBLIC "-//W3C//DTD SVG 1.1//EN" "http://www.w3.org/Graphics/SVG/1.1/DTD/svg11.dtd"><svg width="100%" height="100%" viewBox="0 0 284 284" version="1.1" xmlns="http://www.w3.org/2000/svg" xmlns:xlink="http://www.w3.org/1999/xlink" xml:space="preserve" xmlns:serif="http://www.serif.com/" style="fill-rule:evenodd;clip-rule:evenodd;stroke-miterlimit:10;"><g id="Logo"><rect x="0" y="0.001" width="283.464" height="283.464" style="fill:url(#_Linear1);"/><path d="M72.206,141.203l44.249,-103.504l29.499,16.368l10.384,44.745l60.414,42.391l-27.611,99.265l-28.791,-16.721l-24.898,22.019c0,0 -21.947,-14.248 -26.785,-17.074c-4.838,-2.825 -20.768,-12.834 -20.768,-12.834l17.228,-30.027l-32.921,-44.628Z" style="fill:none;fill-rule:nonzero;stroke:url(#_Linear2);stroke-width:2.5px;"/><path d="M89.347,125.101c2.489,0 4.506,-2.018 4.506,-4.507c0,-2.489 -2.017,-4.506 -4.506,-4.506c-2.489,0 -4.507,2.017 -4.507,4.506c0,2.489 2.018,4.507 4.507,4.507" style="fill:#fff;fill-rule:nonzero;"/><path d="M153.991,125.101c2.489,0 4.507,-2.018 4.507,-4.507c0,-2.489 -2.018,-4.506 -4.507,-4.506c-2.489,0 -4.507,2.017 -4.507,4.506c0,2.489 2.018,4.507 4.507,4.507" style="fill:#fff;fill-rule:nonzero;"/><path d="M64.674,149.294l-1.782,0l0,-25.139l2.029,0c7.126,0 9.056,3.365 9.056,12.471c0,7.522 -1.435,12.668 -9.303,12.668m1.583,-30.484l-14.004,0l0,3.91l2.671,0.346c0.595,0.099 0.644,0.248 0.644,0.99l0,25.386c0,0.743 -0.049,0.891 -0.644,0.991l-2.671,0.345l0,3.861l13.311,0c11.58,0 15.935,-7.473 15.935,-18.459c0,-10.689 -3.959,-17.37 -15.242,-17.37" style="fill:#fff;fill-rule:nonzero;"/><path d="M93.624,149.392l0,-20.537l-9.403,0l-0.544,4.009l2.277,0.94c0.395,0.149 0.544,0.495 0.544,1.039l0,14.599c0,0.742 -0.099,0.89 -0.693,0.99l-1.98,0.296l0,3.91l12.471,0l0,-3.91l-2.029,-0.346c-0.594,-0.148 -0.643,-0.198 -0.643,-0.99" style="fill:#fff;fill-rule:nonzero;"/><path d="M108.816,133.705c1.93,0 2.771,0.891 2.821,5.246l-5.889,0c0.149,-4.207 1.138,-5.246 3.068,-5.246m1.534,15.787c-3.315,0 -4.453,-2.129 -4.602,-6.286l12.768,0c0.049,-0.989 0.098,-2.127 0.098,-2.721c0,-8.759 -3.612,-12.125 -9.6,-12.125c-6.582,0 -10.887,4.257 -10.887,13.213c0,7.869 2.623,13.658 11.283,13.658c3.415,0 6.384,-1.039 9.254,-2.474l-1.633,-4.899c-2.92,1.187 -4.701,1.634 -6.681,1.634" style="fill:#fff;fill-rule:nonzero;"/><path d="M158.269,149.392l0,-20.537l-9.403,0l-3.424,0l-7.329,0l-7.323,9.056l0,-20.636l-9.403,0l-0.544,4.009l2.226,0.841c0.446,0.198 0.595,0.594 0.595,1.138l0,26.179c0,0.742 -0.1,0.89 -0.693,0.99l-1.931,0.296l0,3.91l12.174,0l0,-3.91l-1.732,-0.296c-0.643,-0.149 -0.692,-0.198 -0.692,-0.99l0,-4.206l2.177,-2.97l5.048,12.372l8.561,0l0,-3.91l-1.783,-0.346c-0.642,-0.099 -0.989,-0.198 -1.236,-0.89l-5.246,-11.779l3.019,-3.513c0.067,-0.076 0.235,-0.286 0.459,-0.572l8.515,0c0.631,0.073 0.839,0.671 0.839,1.215l0,14.599c0,0.742 -0.1,0.89 -0.693,0.99l-1.98,0.296l0,3.91l12.471,0l0,-3.91l-2.029,-0.346c-0.594,-0.148 -0.643,-0.198 -0.643,-0.99" style="fill:#fff;fill-rule:nonzero;"/><path d="M171.778,131.973l-0.197,-0.099l-0.446,-3.019l-8.116,0l-0.494,4.058l2.227,0.841c0.445,0.198 0.544,0.594 0.544,1.139l0,14.599c0,0.742 -0.099,0.84 -0.693,0.94l-1.782,0.296l0,3.91l13.956,0l0,-3.91l-3.662,-0.445c-0.644,-0.049 -0.693,-0.198 -0.693,-0.99l0,-13.213c0.841,-0.891 1.979,-1.583 2.771,-1.583c0.347,0 0.544,0.148 0.644,0.593l0.345,2.574l5.493,0.198l0,-8.957c-0.939,-0.297 -2.226,-0.545 -3.463,-0.545c-2.425,0 -4.9,1.386 -6.434,3.613" style="fill:#fff;fill-rule:nonzero;"/><path d="M196.076,149.64c-2.821,0 -5.097,-1.831 -5.097,-8.265c0,-5.79 1.88,-7.818 4.157,-7.818c0.742,0 1.385,0.148 1.93,0.346c0.297,0.148 0.446,0.445 0.494,0.792l0.495,3.266l4.999,0.247l0,-7.769c-1.386,-0.99 -4.455,-2.079 -7.819,-2.079c-7.274,0 -11.728,4.504 -11.728,13.758c0,7.522 3.067,13.113 11.283,13.113c3.167,0 6.482,-1.039 8.56,-2.474l-1.732,-4.553c-1.286,0.693 -3.464,1.436 -5.542,1.436" style="fill:#fff;fill-rule:nonzero;"/><path d="M229.381,150.382c-0.644,-0.1 -0.692,-0.198 -0.692,-0.99l0,-13.114c0,-5.344 -2.227,-7.918 -6.681,-7.918c-2.573,0 -4.454,0.742 -6.482,2.376l-0.1,-0.05l0,-13.411l-9.402,0l-0.544,4.008l2.226,0.842c0.446,0.198 0.594,0.495 0.594,1.039l0,26.278c0,0.742 -0.099,0.89 -0.692,0.99l-1.683,0.296l0,3.91l12.024,0l0,-3.91l-1.83,-0.346c-0.643,-0.1 -0.693,-0.198 -0.693,-0.99l0,-13.411c1.039,-0.94 2.475,-1.682 3.86,-1.682c1.633,0 2.277,0.841 2.277,3.414l0,16.925l9.649,0l0,-3.91l-1.831,-0.346Z" style="fill:#fff;fill-rule:nonzero;"/><path d="M151.092,120.594c0,1.602 1.299,2.903 2.899,2.903c1.601,0 2.9,-1.301 2.9,-2.903c0,-1.601 -1.299,-2.902 -2.9,-2.902c-1.6,0 -2.899,1.301 -2.899,2.902Z" style="fill:url(#_Linear3);"/></g><defs><linearGradient id="_Linear1" x1="0" y1="0" x2="1" y2="0" gradientUnits="userSpaceOnUse" gradientTransform="matrix(0,-283.465,283.465,0,141.732,283.465)"><stop offset="0" style="stop-color:#26293e;stop-opacity:1"/><stop offset="0.67" style="stop-color:#343277;stop-opacity:1"/><stop offset="1" style="stop-color:#343277;stop-opacity:1"/></linearGradient><linearGradient id="_Linear2" x1="0" y1="0" x2="1" y2="0" gradientUnits="userSpaceOnUse" gradientTransform="matrix(140.244,140.244,-140.244,140.244,66.8281,84.956)"><stop offset="0" style="stop-color:#c29223;stop-opacity:1"/><stop offset="0.5" style="stop-color:#eee08f;stop-opacity:1"/><stop offset="1" style="stop-color:#c29223;stop-opacity:1"/></linearGradient><linearGradient id="_Linear3" x1="0" y1="0" x2="1" y2="0" gradientUnits="userSpaceOnUse" gradientTransform="matrix(4.10292,4.10292,-4.10292,4.10292,151.926,118.529)"><stop offset="0" style="stop-color:#c29223;stop-opacity:1"/><stop offset="0.5" style="stop-color:#eee08f;stop-opacity:1"/><stop offset="1" style="stop-color:#c29223;stop-opacity:1"/></linearGradient></defs></svg>