<svg viewBox="0 0 284 284" xmlns="http://www.w3.org/2000/svg" xml:space="preserve" style="fill-rule:evenodd;clip-rule:evenodd;stroke-miterlimit:10"><path style="fill:url(#a)" d="M0 .001h283.464v283.464H0z"/><path d="m72.206 141.203 44.249-103.504 29.499 16.368 10.384 44.745 60.414 42.391-27.611 99.265-28.791-16.721-24.898 22.019s-21.947-14.248-26.785-17.074c-4.838-2.825-20.768-12.834-20.768-12.834l17.228-30.027-32.921-44.628Z" style="fill:none;fill-rule:nonzero;stroke:url(#b);stroke-width:2.5px"/><path d="M89.347 125.101a4.506 4.506 0 1 0 0-9.013 4.506 4.506 0 0 0 0 9.013M153.991 125.101a4.507 4.507 0 1 0 0-9.014 4.507 4.507 0 0 0 0 9.014M64.674 149.294h-1.782v-25.139h2.029c7.126 0 9.056 3.365 9.056 12.471 0 7.522-1.435 12.668-9.303 12.668m1.583-30.484H52.253v3.91l2.671.346c.595.099.644.248.644.99v25.386c0 .743-.049.891-.644.991l-2.671.345v3.861h13.311c11.58 0 15.935-7.473 15.935-18.459 0-10.689-3.959-17.37-15.242-17.37M93.624 149.392v-20.537h-9.403l-.544 4.009 2.277.94c.395.149.544.495.544 1.039v14.599c0 .742-.099.89-.693.99l-1.98.296v3.91h12.471v-3.91l-2.029-.346c-.594-.148-.643-.198-.643-.99M108.816 133.705c1.93 0 2.771.891 2.821 5.246h-5.889c.149-4.207 1.138-5.246 3.068-5.246m1.534 15.787c-3.315 0-4.453-2.129-4.602-6.286h12.768c.049-.989.098-2.127.098-2.721 0-8.759-3.612-12.125-9.6-12.125-6.582 0-10.887 4.257-10.887 13.213 0 7.869 2.623 13.658 11.283 13.658 3.415 0 6.384-1.039 9.254-2.474l-1.633-4.899c-2.92 1.187-4.701 1.634-6.681 1.634M158.269 149.392v-20.537h-20.156l-7.323 9.056v-20.636h-9.403l-.544 4.009 2.226.841c.446.198.595.594.595 1.138v26.179c0 .742-.1.89-.693.99l-1.931.296v3.91h12.174v-3.91l-1.732-.296c-.643-.149-.692-.198-.692-.99v-4.206l2.177-2.97 5.048 12.372h8.561v-3.91l-1.783-.346c-.642-.099-.989-.198-1.236-.89l-5.246-11.779 3.019-3.513c.067-.076.235-.286.459-.572h8.515c.631.073.839.671.839 1.215v14.599c0 .742-.1.89-.693.99l-1.98.296v3.91h12.471v-3.91l-2.029-.346c-.594-.148-.643-.198-.643-.99M171.778 131.973l-.197-.099-.446-3.019h-8.116l-.494 4.058 2.227.841c.445.198.544.594.544 1.139v14.599c0 .742-.099.84-.693.94l-1.782.296v3.91h13.956v-3.91l-3.662-.445c-.644-.049-.693-.198-.693-.99V136.08c.841-.891 1.979-1.583 2.771-1.583.347 0 .544.148.644.593l.345 2.574 5.493.198v-8.957a12.089 12.089 0 0 0-3.463-.545c-2.425 0-4.9 1.386-6.434 3.613M196.076 149.64c-2.821 0-5.097-1.831-5.097-8.265 0-5.79 1.88-7.818 4.157-7.818.742 0 1.385.148 1.93.346.297.148.446.445.494.792l.495 3.266 4.999.247v-7.769c-1.386-.99-4.455-2.079-7.819-2.079-7.274 0-11.728 4.504-11.728 13.758 0 7.522 3.067 13.113 11.283 13.113 3.167 0 6.482-1.039 8.56-2.474l-1.732-4.553c-1.286.693-3.464 1.436-5.542 1.436M229.381 150.382c-.644-.1-.692-.198-.692-.99v-13.114c0-5.344-2.227-7.918-6.681-7.918-2.573 0-4.454.742-6.482 2.376l-.1-.05v-13.411h-9.402l-.544 4.008 2.226.842c.446.198.594.495.594 1.039v26.278c0 .742-.099.89-.692.99l-1.683.296v3.91h12.024v-3.91l-1.83-.346c-.643-.1-.693-.198-.693-.99v-13.411c1.039-.94 2.475-1.682 3.86-1.682 1.633 0 2.277.841 2.277 3.414v16.925h9.649v-3.91l-1.831-.346Z" style="fill:#fff;fill-rule:nonzero"/><path d="M151.092 120.594a2.903 2.903 0 0 0 2.899 2.903 2.903 2.903 0 0 0 0-5.805 2.902 2.902 0 0 0-2.899 2.902Z" style="fill:url(#c)"/><defs><linearGradient id="a" x1="0" y1="0" x2="1" y2="0" gradientUnits="userSpaceOnUse" gradientTransform="rotate(-90 212.599 70.866) scale(283.465)"><stop offset="0" style="stop-color:#26293e;stop-opacity:1"/><stop offset=".67" style="stop-color:#343277;stop-opacity:1"/><stop offset="1" style="stop-color:#343277;stop-opacity:1"/></linearGradient><linearGradient id="b" x1="0" y1="0" x2="1" y2="0" gradientUnits="userSpaceOnUse" gradientTransform="rotate(45 -69.137 123.147) scale(198.335)"><stop offset="0" style="stop-color:#c29223;stop-opacity:1"/><stop offset=".5" style="stop-color:#eee08f;stop-opacity:1"/><stop offset="1" style="stop-color:#c29223;stop-opacity:1"/></linearGradient><linearGradient id="c" x1="0" y1="0" x2="1" y2="0" gradientUnits="userSpaceOnUse" gradientTransform="scale(5.8024) rotate(45 -11.567 41.82)"><stop offset="0" style="stop-color:#c29223;stop-opacity:1"/><stop offset=".5" style="stop-color:#eee08f;stop-opacity:1"/><stop offset="1" style="stop-color:#c29223;stop-opacity:1"/></linearGradient></defs></svg>