<svg viewBox="0 0 909 225" xmlns="http://www.w3.org/2000/svg" xml:space="preserve" style="fill-rule:evenodd;clip-rule:evenodd;stroke-linejoin:round;stroke-miterlimit:2"><text x="136.225" y="527.742" style="font-family:'Times-Roman','Times';font-size:71.264px;fill:#be1e2d" transform="translate(-137.28 -304.56)">D<tspan x="196.239px 256.252px 312.334px 364.413px 416.493px 472.575px 532.588px 592.602px 644.681px 704.695px 736.975px" y="527.742px 527.742px 527.742px 527.742px 527.742px 527.742px 527.742px 527.742px 527.742px 527.742px 527.742px">OCLERHOLDIN</tspan></text><text x="796.989" y="527.742" style="font-family:'Times-Roman','Times';font-size:71.264px;fill:#be1e2d" transform="translate(-137.28 -304.56)">G<tspan x="854.149" y="527.742">.</tspan></text><text x="877.66" y="527.742" style="font-family:'Times-Roman','Times';font-size:71.264px;fill:#be1e2d" transform="translate(-137.28 -304.56)">C<tspan x="928.75px 983.773px" y="527.742px 527.742px">OM</tspan></text><path d="M432.087 18.093C418.54 4.953 397.919.098 373.056.098h-59.025v7.886c13.141 1.211 14.756 2.626 14.756 24.464v37.164c11.007-4.397 22.488-8.226 34.369-11.458V21.731c0-5.054.194-9.706 1.206-10.108 1.415-.808 4.043-1.417 8.694-1.417 17.18 0 39.213 12.133 39.213 55.595 0 35.78-17.585 54.98-34.972 54.98-9.694 0-14.141-3.429-14.141-21.428V88.197a384.352 384.352 0 0 0-34.369 9.405v1.551c0 21.835-1.615 23.25-16.382 24.46v7.886h52.162c46.695 0 84.902-21.629 84.902-71.968 0-17.382-7.881-32.336-17.382-41.438M512.135 99.153v-17.95a439.415 439.415 0 0 0-34.367-2.846v20.796c0 21.834-1.614 23.25-15.562 24.459v7.887h64.686v-7.887c-13.14-1.209-14.757-2.625-14.757-24.459m-34.367-66.705v13.801a364.346 364.346 0 0 1 34.367 3.425V32.448c0-21.838 1.617-23.253 13.954-24.464V.098h-64.69v7.886c14.755 1.211 16.369 2.626 16.369 24.464M539.623.098v7.886c12.74 1.211 14.354 2.626 14.354 24.465v26.063c11.851 3.288 23.339 7.173 34.371 11.637v-37.7c0-21.839 1.614-23.254 15.97-24.465V.098h-64.695Zm48.725 99.055v-1.177a382.74 382.74 0 0 0-34.371-9.495v10.672c0 21.835-1.614 23.25-15.97 24.46v7.886h65.898v-7.886c-13.943-1.21-15.557-2.625-15.557-24.46" style="fill:#be1e2d;fill-rule:nonzero"/><path d="M458.363 51.908c-1.066 0-2.126.017-3.189.026.306 2.521.483 5.058.483 7.597a94.64 94.64 0 0 1-.799 12.246c1.171-.009 2.331-.044 3.505-.044 84.17 0 159.819 22.914 211.992 59.347-45.854-47.743-123.695-79.172-211.992-79.172M404.865 65.397c-.176-4.849-.43-9.56-.43-9.56-65.896 9.785-122.414 37.359-158.8 75.244 40.908-28.563 96.244-48.8 158.8-56.219 0 0 .61-4.62.43-9.465" style="fill:#be1e2d;fill-rule:nonzero"/></svg>