<?xml version="1.0" encoding="UTF-8" standalone="no"?><!DOCTYPE svg PUBLIC "-//W3C//DTD SVG 1.1//EN" "http://www.w3.org/Graphics/SVG/1.1/DTD/svg11.dtd"><svg width="100%" height="100%" viewBox="0 0 909 225" version="1.1" xmlns="http://www.w3.org/2000/svg" xmlns:xlink="http://www.w3.org/1999/xlink" xml:space="preserve" xmlns:serif="http://www.serif.com/" style="fill-rule:evenodd;clip-rule:evenodd;stroke-linejoin:round;stroke-miterlimit:2;"><g id="Layer-2" serif:id="Layer 2"><g transform="matrix(1,0,0,1,-137.28,-304.56)"><text x="136.225px" y="527.742px" style="font-family:'Times-Roman', 'Times';font-size:71.264px;fill:#be1e2d;">D<tspan x="196.239px 256.252px 312.334px 364.413px 416.493px 472.575px 532.588px 592.602px 644.681px 704.695px 736.975px " y="527.742px 527.742px 527.742px 527.742px 527.742px 527.742px 527.742px 527.742px 527.742px 527.742px 527.742px ">OCLERHOLDIN</tspan></text><text x="796.989px" y="527.742px" style="font-family:'Times-Roman', 'Times';font-size:71.264px;fill:#be1e2d;">G<tspan x="854.149px " y="527.742px ">.</tspan></text><text x="877.66px" y="527.742px" style="font-family:'Times-Roman', 'Times';font-size:71.264px;fill:#be1e2d;">C<tspan x="928.75px 983.773px " y="527.742px 527.742px ">OM</tspan></text></g><path d="M432.087,18.093c-13.547,-13.14 -34.168,-17.995 -59.031,-17.995l-59.025,0l0,7.886c13.141,1.211 14.756,2.626 14.756,24.464l0,37.164c11.007,-4.397 22.488,-8.226 34.369,-11.458l0,-36.423c0,-5.054 0.194,-9.706 1.206,-10.108c1.415,-0.808 4.043,-1.417 8.694,-1.417c17.18,0 39.213,12.133 39.213,55.595c0,35.78 -17.585,54.98 -34.972,54.98c-9.694,0 -14.141,-3.429 -14.141,-21.428l0,-11.156c-11.778,2.651 -23.264,5.796 -34.369,9.405l0,1.551c0,21.835 -1.615,23.25 -16.382,24.46l0,7.886l52.162,0c46.695,0 84.902,-21.629 84.902,-71.968c0,-17.382 -7.881,-32.336 -17.382,-41.438" style="fill:#be1e2d;fill-rule:nonzero;"/><path d="M512.135,99.153l0,-17.95c-11.305,-1.387 -22.778,-2.341 -34.367,-2.846l0,20.796c0,21.834 -1.614,23.25 -15.562,24.459l0,7.887l64.686,0l0,-7.887c-13.14,-1.209 -14.757,-2.625 -14.757,-24.459m-34.367,-66.705l0,13.801c11.622,0.608 23.099,1.755 34.367,3.425l0,-17.226c0,-21.838 1.617,-23.253 13.954,-24.464l0,-7.886l-64.69,0l0,7.886c14.755,1.211 16.369,2.626 16.369,24.464" style="fill:#be1e2d;fill-rule:nonzero;"/><path d="M539.623,0.098l0,7.886c12.74,1.211 14.354,2.626 14.354,24.465l0,26.063c11.851,3.288 23.339,7.173 34.371,11.637l0,-37.7c0,-21.839 1.614,-23.254 15.97,-24.465l0,-7.886l-64.695,0Zm48.725,99.055l0,-1.177c-11.105,-3.641 -22.584,-6.815 -34.371,-9.495l0,10.672c0,21.835 -1.614,23.25 -15.97,24.46l0,7.886l65.898,0l0,-7.886c-13.943,-1.21 -15.557,-2.625 -15.557,-24.46" style="fill:#be1e2d;fill-rule:nonzero;"/><path d="M458.363,51.908c-1.066,0 -2.126,0.017 -3.189,0.026c0.306,2.521 0.483,5.058 0.483,7.597c0,4.223 -0.285,8.299 -0.799,12.246c1.171,-0.009 2.331,-0.044 3.505,-0.044c84.17,0 159.819,22.914 211.992,59.347c-45.854,-47.743 -123.695,-79.172 -211.992,-79.172" style="fill:#be1e2d;fill-rule:nonzero;"/><path d="M404.865,65.397c-0.176,-4.849 -0.43,-9.56 -0.43,-9.56c-65.896,9.785 -122.414,37.359 -158.8,75.244c40.908,-28.563 96.244,-48.8 158.8,-56.219c0,0 0.61,-4.62 0.43,-9.465" style="fill:#be1e2d;fill-rule:nonzero;"/></g></svg>