<svg xmlns="http://www.w3.org/2000/svg" width="286.012" height="263.412" viewBox="0 0 286.012 263.412" xml:space="preserve" style="clip-rule:evenodd;fill-rule:evenodd;stroke-linejoin:round;stroke-miterlimit:2"><path d="M5.14 258.887c-.136 0-.218-.067-.25-.203l-4.078-15.25-.031-.079c0-.113.078-.171.234-.171h1.204c.156 0 .238.07.25.203l3.281 12.828c.008.031.019.047.031.047.02 0 .035-.016.047-.047l3.281-12.828c.031-.133.113-.203.25-.203h1.156c.082 0 .141.023.172.062.039.043.051.106.032.188l-4.079 15.25c-.031.136-.117.203-.25.203zM14.047 245.496c-.344 0-.625-.109-.844-.328-.219-.219-.328-.5-.328-.844 0-.332.109-.601.328-.812.219-.219.5-.328.844-.328.343 0 .617.105.828.312.207.211.312.484.312.828s-.105.625-.312.844c-.211.219-.485.328-.828.328zm-.563 13.391c-.148 0-.219-.071-.219-.219v-10.906c0-.157.071-.235.219-.235h1.141c.156 0 .234.078.234.235v10.906c0 .148-.078.219-.234.219zM22.512 247.371c1.039 0 1.863.336 2.468 1 .602.668.907 1.578.907 2.734v7.563c0 .148-.075.219-.219.219h-1.141c-.156 0-.234-.071-.234-.219v-7.344c0-.781-.203-1.398-.61-1.859-.398-.469-.937-.703-1.625-.703-.711 0-1.277.242-1.703.718-.429.469-.64 1.102-.64 1.891v7.297c0 .148-.075.219-.219.219h-1.141c-.148 0-.218-.071-.218-.219v-10.906c0-.157.07-.235.218-.235h1.141c.144 0 .219.078.219.235v.828c0 .031.007.058.031.078.031.012.062 0 .094-.031a2.738 2.738 0 0 1 1.125-.938 3.533 3.533 0 0 1 1.547-.328zM32.312 258.996c-1.156 0-2.09-.273-2.797-.828-.699-.551-1.046-1.258-1.046-2.125v-.203c0-.156.078-.235.234-.235h1.078c.145 0 .219.063.219.188v.203c0 .481.211.899.64 1.25.438.344.993.516 1.672.516.657 0 1.18-.172 1.578-.516.395-.344.594-.773.594-1.297 0-.375-.117-.687-.344-.937a2.297 2.297 0 0 0-.828-.61 11.097 11.097 0 0 0-1.359-.515 12.807 12.807 0 0 1-1.766-.719 3.384 3.384 0 0 1-1.172-1c-.312-.426-.468-.969-.468-1.625 0-.957.336-1.719 1.015-2.281.676-.563 1.571-.844 2.688-.844 1.133 0 2.039.293 2.719.875.675.586 1.015 1.336 1.015 2.25v.047c0 .148-.074.219-.219.219h-1.046c-.157 0-.235-.051-.235-.157v-.156c0-.508-.211-.93-.625-1.266-.406-.343-.945-.515-1.609-.515-.668 0-1.196.164-1.578.484a1.556 1.556 0 0 0-.578 1.25c0 .524.195.918.593 1.188.395.273 1.02.558 1.875.859.719.242 1.317.481 1.797.719a3.62 3.62 0 0 1 1.219 1c.332.43.5.976.5 1.64 0 .961-.344 1.727-1.031 2.297-.68.563-1.59.844-2.735.844zM46.902 257.668c.582 0 1.082-.145 1.5-.438.414-.3.711-.695.891-1.187.039-.156.129-.207.265-.156l.922.234c.157.055.207.149.157.281a3.438 3.438 0 0 1-1.344 1.938c-.668.48-1.492.719-2.469.719-1.043 0-1.906-.274-2.594-.829-.679-.562-1.101-1.32-1.265-2.281-.137-.687-.203-1.609-.203-2.765 0-1.176.031-2.016.093-2.516.125-1 .539-1.801 1.25-2.406.707-.602 1.598-.907 2.672-.907 1.188 0 2.125.329 2.813.985.687.656 1.082 1.543 1.187 2.656.063.699.094 1.547.094 2.547 0 .156-.078.234-.234.234h-6.204c-.062 0-.093.028-.093.078 0 .649.019 1.196.062 1.641.07.656.336 1.184.797 1.578.457.399 1.023.594 1.703.594zm-.125-8.922c-.656 0-1.195.199-1.609.594-.418.387-.664.898-.735 1.531-.031.324-.062.836-.093 1.531 0 .063.031.094.093.094h4.75c.063 0 .094-.031.094-.094a24.04 24.04 0 0 0-.094-1.484c-.074-.645-.328-1.164-.765-1.563-.43-.406-.977-.609-1.641-.609zM58.047 248.559c0 .156-.075.234-.219.234h-2.141c-.054 0-.078.031-.078.094v6.703c0 .699.133 1.187.406 1.469.282.281.727.421 1.344.421h.375c.145 0 .219.075.219.219v.938c0 .156-.074.234-.219.234l-.703.016c-.969 0-1.711-.196-2.219-.594-.511-.395-.765-1.133-.765-2.219v-7.187c0-.063-.028-.094-.078-.094h-1.125c-.149 0-.219-.078-.219-.234v-.797c0-.157.07-.235.219-.235h1.125c.05 0 .078-.023.078-.078v-2.562c0-.145.078-.219.234-.219h1.094c.156 0 .234.074.234.219v2.562c0 .055.024.078.078.078h2.141c.144 0 .219.078.219.235zM69.445 259.059c-1.367 0-2.465-.399-3.297-1.204-.824-.812-1.234-1.878-1.234-3.203v-7.25c0-1.332.41-2.398 1.234-3.203.832-.801 1.93-1.203 3.297-1.203 1.375 0 2.473.402 3.297 1.203.832.793 1.25 1.844 1.25 3.156v.204c0 .148-.074.218-.219.218l-1.14.047c-.149 0-.219-.066-.219-.203v-.312c0-.864-.277-1.567-.828-2.11-.543-.539-1.258-.812-2.141-.812-.887 0-1.601.265-2.141.797-.531.531-.796 1.242-.796 2.125v7.453c0 .875.265 1.578.796 2.109.54.531 1.254.797 2.141.797.883 0 1.598-.266 2.141-.797.551-.539.828-1.242.828-2.109v-.313c0-.133.07-.203.219-.203l1.14.063c.145 0 .219.062.219.187v.188c0 1.324-.418 2.386-1.25 3.187-.824.793-1.922 1.188-3.297 1.188zM81.058 247.418c.438 0 .821.09 1.157.266.101.054.14.148.109.281l-.266 1.14c-.054.137-.152.184-.296.141-.18-.094-.418-.141-.719-.141a2.94 2.94 0 0 0-.328.016c-.668.031-1.215.32-1.641.859-.43.543-.641 1.211-.641 2v6.688c0 .148-.074.219-.218.219h-1.141c-.148 0-.219-.071-.219-.219v-10.906c0-.157.071-.235.219-.235h1.141c.144 0 .218.078.218.235v1.406c0 .055.008.078.032.078.031 0 .05-.016.062-.047.258-.551.598-.984 1.016-1.297.426-.32.929-.484 1.515-.484zM88.074 257.668c.582 0 1.082-.145 1.5-.438.414-.3.711-.695.891-1.187.039-.156.129-.207.265-.156l.922.234c.156.055.207.149.156.281a3.436 3.436 0 0 1-1.343 1.938c-.668.48-1.493.719-2.469.719-1.043 0-1.906-.274-2.594-.829-.68-.562-1.101-1.32-1.265-2.281-.137-.687-.204-1.609-.204-2.765 0-1.176.032-2.016.094-2.516.125-1 .539-1.801 1.25-2.406.707-.602 1.598-.907 2.672-.907 1.188 0 2.125.329 2.813.985.687.656 1.082 1.543 1.187 2.656.063.699.094 1.547.094 2.547 0 .156-.078.234-.235.234h-6.203c-.062 0-.093.028-.093.078 0 .649.019 1.196.062 1.641.07.656.336 1.184.797 1.578.457.399 1.023.594 1.703.594zm-.125-8.922c-.656 0-1.195.199-1.609.594-.418.387-.664.898-.735 1.531-.031.324-.062.836-.093 1.531 0 .063.031.094.093.094h4.75c.063 0 .094-.031.094-.094a24.04 24.04 0 0 0-.094-1.484c-.074-.645-.328-1.164-.765-1.563-.43-.406-.977-.609-1.641-.609zm-.766-2.812c-.093 0-.156-.024-.187-.079-.031-.05-.024-.113.031-.187l1.36-2.438c.082-.101.175-.156.281-.156h1.078c.082 0 .133.028.156.078.02.055.008.118-.031.188l-1.547 2.437c-.074.106-.164.157-.266.157zM105.082 247.371c1 0 1.785.336 2.359 1 .571.668.86 1.586.86 2.75v7.547c0 .148-.075.219-.219.219h-1.125c-.149 0-.219-.071-.219-.219v-7.313c0-.8-.199-1.429-.594-1.89-.398-.469-.918-.703-1.562-.703-.68 0-1.227.23-1.641.687-.406.461-.609 1.078-.609 1.86v7.359c0 .148-.074.219-.219.219h-1.141c-.156 0-.234-.071-.234-.219v-7.313c0-.8-.199-1.429-.594-1.89-.398-.469-.914-.703-1.547-.703-.679 0-1.218.23-1.625.687-.406.461-.609 1.078-.609 1.86v7.359c0 .148-.074.219-.219.219h-1.14c-.149 0-.219-.071-.219-.219v-10.906c0-.157.07-.235.219-.235h1.14c.145 0 .219.078.219.235v.781c0 .031.008.055.031.062.032 0 .063-.015.094-.046a2.685 2.685 0 0 1 1.125-.891 3.87 3.87 0 0 1 1.5-.297c.656 0 1.227.152 1.719.453.5.305.875.719 1.125 1.25.031.086.066.086.109 0 .301-.582.719-1.008 1.25-1.281a3.71 3.71 0 0 1 1.766-.422zM114.93 247.355c1.195 0 2.14.344 2.828 1.032.687.687 1.031 1.601 1.031 2.734v7.547c0 .148-.078.219-.235.219h-1.14c-.149 0-.219-.071-.219-.219v-.813c0-.031-.015-.05-.047-.062-.023-.02-.043-.016-.062.016-.344.418-.778.73-1.297.937a4.628 4.628 0 0 1-1.719.313c-.937 0-1.742-.25-2.406-.75-.656-.508-.984-1.344-.984-2.5 0-1.196.39-2.102 1.171-2.719.782-.625 1.832-.938 3.157-.938h2.093c.063 0 .094-.031.094-.093v-.844c0-.758-.199-1.36-.594-1.797-.386-.445-.945-.672-1.671-.672-.586 0-1.075.149-1.469.438a1.647 1.647 0 0 0-.688 1.156c-.023.137-.105.203-.25.203l-1.234-.078c-.074 0-.133-.02-.172-.063-.031-.039-.043-.093-.031-.156.101-.863.504-1.562 1.203-2.094.707-.531 1.586-.797 2.641-.797zm-.5 10.313c.75 0 1.394-.203 1.937-.609.551-.414.828-.989.828-1.719v-1.813c0-.062-.031-.093-.094-.093h-2c-.836 0-1.511.199-2.031.593-.512.399-.766.965-.766 1.703 0 .657.196 1.149.594 1.469.395.313.906.469 1.532.469zM126.039 247.371c1.039 0 1.863.336 2.469 1 .601.668.906 1.578.906 2.734v7.563c0 .148-.074.219-.219.219h-1.141c-.156 0-.234-.071-.234-.219v-7.344c0-.781-.203-1.398-.609-1.859-.399-.469-.938-.703-1.625-.703-.711 0-1.278.242-1.703.718-.43.469-.641 1.102-.641 1.891v7.297c0 .148-.074.219-.219.219h-1.14c-.149 0-.219-.071-.219-.219v-10.906c0-.157.07-.235.219-.235h1.14c.145 0 .219.078.219.235v.828c0 .031.008.058.031.078.031.012.063 0 .094-.031a2.738 2.738 0 0 1 1.125-.938 3.536 3.536 0 0 1 1.547-.328zM137.027 248.559c0 .156-.074.234-.219.234h-2.14c-.055 0-.078.031-.078.094v6.703c0 .699.132 1.187.406 1.469.281.281.726.421 1.344.421h.375c.144 0 .218.075.218.219v.938c0 .156-.074.234-.218.234l-.703.016c-.969 0-1.711-.196-2.219-.594-.512-.395-.766-1.133-.766-2.219v-7.187c0-.063-.027-.094-.078-.094h-1.125c-.148 0-.219-.078-.219-.234v-.797c0-.157.071-.235.219-.235h1.125c.051 0 .078-.023.078-.078v-2.562c0-.145.078-.219.235-.219h1.093c.157 0 .235.074.235.219v2.562c0 .055.023.078.078.078h2.14c.145 0 .219.078.219.235zM142.906 258.996c-1.156 0-2.09-.273-2.797-.828-.699-.551-1.047-1.258-1.047-2.125v-.203c0-.156.078-.235.235-.235h1.078c.144 0 .219.063.219.188v.203c0 .481.21.899.64 1.25.438.344.992.516 1.672.516.656 0 1.18-.172 1.578-.516.395-.344.594-.773.594-1.297 0-.375-.117-.687-.344-.937a2.306 2.306 0 0 0-.828-.61 11.097 11.097 0 0 0-1.359-.515 12.807 12.807 0 0 1-1.766-.719 3.384 3.384 0 0 1-1.172-1c-.312-.426-.469-.969-.469-1.625 0-.957.336-1.719 1.016-2.281.676-.563 1.57-.844 2.688-.844 1.132 0 2.039.293 2.718.875.676.586 1.016 1.336 1.016 2.25v.047c0 .148-.074.219-.219.219h-1.047c-.156 0-.234-.051-.234-.157v-.156c0-.508-.211-.93-.625-1.266-.406-.343-.945-.515-1.609-.515-.668 0-1.196.164-1.579.484a1.559 1.559 0 0 0-.578 1.25c0 .524.196.918.594 1.188.395.273 1.02.558 1.875.859a14.65 14.65 0 0 1 1.797.719 3.62 3.62 0 0 1 1.219 1c.332.43.5.976.5 1.64 0 .961-.344 1.727-1.032 2.297-.679.563-1.589.844-2.734.844zM159.687 243.402c0-.144.078-.218.235-.218h1.14c.145 0 .219.074.219.218v15.266c0 .148-.074.219-.219.219h-1.14c-.157 0-.235-.071-.235-.219v-.875c0-.051-.015-.078-.047-.078-.031-.008-.054.008-.062.047-.574.867-1.449 1.297-2.625 1.297-.93 0-1.688-.274-2.281-.829-.586-.55-.985-1.347-1.203-2.39-.118-.633-.172-1.504-.172-2.61 0-1.125.05-1.988.156-2.593.176-1.051.566-1.86 1.172-2.422.613-.57 1.41-.86 2.39-.86 1.196 0 2.051.434 2.563 1.297.031.032.055.047.078.047.02 0 .031-.019.031-.062zm-.172 12.328c.114-.601.172-1.441.172-2.515 0-1.113-.07-1.961-.203-2.547-.105-.594-.34-1.063-.703-1.406-.355-.344-.824-.516-1.406-.516-.586 0-1.071.172-1.453.516-.387.343-.649.804-.782 1.375-.168.636-.25 1.496-.25 2.578 0 1.074.067 1.902.204 2.484.113.617.363 1.102.75 1.453.394.344.898.516 1.515.516.582 0 1.055-.172 1.422-.516.363-.351.609-.828.734-1.422zM168.312 257.668c.582 0 1.082-.145 1.5-.438.414-.3.711-.695.891-1.187.039-.156.129-.207.266-.156l.921.234c.157.055.207.149.157.281a3.438 3.438 0 0 1-1.344 1.938c-.668.48-1.492.719-2.469.719-1.043 0-1.906-.274-2.594-.829-.679-.562-1.101-1.32-1.265-2.281-.137-.687-.203-1.609-.203-2.765 0-1.176.031-2.016.093-2.516.125-1 .539-1.801 1.25-2.406.707-.602 1.598-.907 2.672-.907 1.188 0 2.125.329 2.813.985.687.656 1.082 1.543 1.187 2.656.063.699.094 1.547.094 2.547 0 .156-.078.234-.234.234h-6.203c-.063 0-.094.028-.094.078 0 .649.019 1.196.062 1.641.071.656.336 1.184.797 1.578.457.399 1.024.594 1.703.594zm-.125-8.922c-.656 0-1.195.199-1.609.594-.418.387-.664.898-.734 1.531-.032.324-.063.836-.094 1.531 0 .063.031.094.094.094h4.75c.062 0 .093-.031.093-.094a25.155 25.155 0 0 0-.093-1.484c-.075-.645-.329-1.164-.766-1.563-.43-.406-.977-.609-1.641-.609zM180.027 258.887c-.156 0-.234-.071-.234-.219v-15.266c0-.144.078-.218.234-.218h1.141c.144 0 .219.074.219.218v14c0 .063.031.094.093.094h6.532c.144 0 .218.074.218.219v.953c0 .148-.074.219-.218.219zM196.355 247.762c0-.157.071-.235.219-.235h1.141c.156 0 .234.078.234.235v10.906c0 .148-.078.219-.234.219h-1.141c-.148 0-.219-.071-.219-.219v-.875c0-.051-.015-.078-.047-.078-.023 0-.043.015-.062.047-.531.855-1.402 1.281-2.609 1.281-1.024 0-1.856-.297-2.5-.891-.637-.601-.954-1.472-.954-2.609v-7.781c0-.157.071-.235.219-.235h1.156c.145 0 .219.078.219.235v7.375c0 .793.192 1.414.578 1.859.395.438.942.656 1.641.656.726 0 1.301-.234 1.719-.703.425-.469.64-1.101.64-1.906zM200.25 258.887c-.086 0-.141-.024-.172-.078-.031-.051-.027-.114.016-.188l3.234-5.344c.031-.039.031-.086 0-.14l-3.234-5.328a.353.353 0 0 1-.047-.141c0-.094.066-.141.203-.141h1.265c.102 0 .192.055.266.157l2.453 4.109c.008.023.031.031.063.031.031 0 .05-.008.062-.031l2.422-4.109c.07-.102.16-.157.266-.157h1.281c.094 0 .156.028.187.078.032.055.02.122-.031.204l-3.219 5.328c-.023.054-.023.101 0 .14l3.219 5.344a.405.405 0 0 1 .047.125c0 .094-.07.141-.203.141h-1.234c-.106 0-.196-.051-.266-.157l-2.438-4.125c-.023-.031-.046-.046-.078-.046-.031 0-.054.015-.062.046l-2.453 4.125c-.075.106-.164.157-.266.157zM214.176 257.668c.582 0 1.082-.145 1.5-.438.414-.3.711-.695.89-1.187.039-.156.129-.207.266-.156l.922.234c.156.055.207.149.156.281a3.438 3.438 0 0 1-1.344 1.938c-.668.48-1.492.719-2.469.719-1.043 0-1.906-.274-2.593-.829-.68-.562-1.102-1.32-1.266-2.281-.137-.687-.203-1.609-.203-2.765 0-1.176.031-2.016.094-2.516.125-1 .539-1.801 1.25-2.406.707-.602 1.597-.907 2.672-.907 1.187 0 2.125.329 2.812.985.688.656 1.082 1.543 1.188 2.656.062.699.093 1.547.093 2.547 0 .156-.078.234-.234.234h-6.203c-.063 0-.094.028-.094.078 0 .649.02 1.196.063 1.641.07.656.336 1.184.796 1.578.458.399 1.024.594 1.704.594zm-.125-8.922c-.657 0-1.196.199-1.61.594-.418.387-.664.898-.734 1.531-.031.324-.063.836-.094 1.531 0 .063.031.094.094.094h4.75c.062 0 .094-.031.094-.094a25.806 25.806 0 0 0-.094-1.484c-.074-.645-.328-1.164-.766-1.563-.429-.406-.976-.609-1.64-.609zM231.183 247.371c1 0 1.786.336 2.36 1 .57.668.859 1.586.859 2.75v7.547c0 .148-.074.219-.219.219h-1.125c-.148 0-.218-.071-.218-.219v-7.313c0-.8-.2-1.429-.594-1.89-.399-.469-.918-.703-1.563-.703-.679 0-1.226.23-1.64.687-.406.461-.61 1.078-.61 1.86v7.359c0 .148-.074.219-.218.219h-1.141c-.156 0-.234-.071-.234-.219v-7.313c0-.8-.2-1.429-.594-1.89-.399-.469-.914-.703-1.547-.703-.68 0-1.219.23-1.625.687-.406.461-.609 1.078-.609 1.86v7.359c0 .148-.075.219-.219.219h-1.141c-.148 0-.218-.071-.218-.219v-10.906c0-.157.07-.235.218-.235h1.141c.144 0 .219.078.219.235v.781c0 .031.007.055.031.062.031 0 .062-.015.094-.046a2.685 2.685 0 0 1 1.125-.891 3.864 3.864 0 0 1 1.5-.297c.656 0 1.226.152 1.718.453.5.305.875.719 1.125 1.25.032.086.067.086.11 0 .301-.582.719-1.008 1.25-1.281a3.708 3.708 0 0 1 1.765-.422zM245.265 250.637c.102.605.157 1.468.157 2.593 0 1.106-.059 1.977-.172 2.61-.211 1.043-.61 1.84-1.203 2.39-.594.555-1.356.829-2.282.829-1.179 0-2.054-.43-2.625-1.297-.011-.039-.031-.055-.062-.047-.031 0-.047.027-.047.078v.875c0 .148-.074.219-.219.219h-1.156c-.148 0-.219-.071-.219-.219v-15.266c0-.144.071-.218.219-.218h1.156c.145 0 .219.074.219.218v5.235c0 .043.008.062.031.062.02 0 .047-.015.078-.047.508-.863 1.364-1.297 2.563-1.297.988 0 1.785.29 2.391.86.601.562.992 1.371 1.171 2.422zm-1.64 5.062c.133-.582.203-1.41.203-2.484 0-1.082-.086-1.942-.25-2.578-.137-.571-.398-1.032-.781-1.375-.387-.344-.871-.516-1.453-.516-.586 0-1.059.172-1.422.516-.356.343-.586.812-.688 1.406-.137.586-.203 1.434-.203 2.547 0 1.074.055 1.914.172 2.515.125.594.367 1.071.734 1.422.364.344.836.516 1.422.516.613 0 1.113-.172 1.5-.516.395-.351.649-.836.766-1.453zM252.051 259.059c-1.086 0-1.981-.289-2.688-.875-.699-.594-1.121-1.391-1.266-2.391-.105-.688-.156-1.555-.156-2.609 0-1.032.051-1.879.156-2.547.133-1.008.555-1.805 1.266-2.391.707-.594 1.609-.891 2.703-.891 1.063 0 1.946.297 2.656.891.708.586 1.129 1.371 1.266 2.359.102.719.156 1.579.156 2.579 0 1.023-.054 1.89-.156 2.609-.148 1-.574 1.797-1.281 2.391-.699.586-1.586.875-2.656.875zm0-1.391c.632 0 1.171-.195 1.609-.594.445-.394.719-.922.812-1.578.051-.582.079-1.344.079-2.281a26.4 26.4 0 0 0-.079-2.297c-.093-.656-.367-1.18-.812-1.578-.438-.395-.977-.594-1.609-.594-.649 0-1.196.199-1.641.594-.438.398-.699.922-.781 1.578-.063.555-.094 1.32-.094 2.297 0 .969.031 1.73.094 2.281.082.656.343 1.184.781 1.578.445.399.992.594 1.641.594zM265.039 247.762c0-.157.07-.235.219-.235h1.14c.156 0 .235.078.235.235v10.906c0 .148-.079.219-.235.219h-1.14c-.149 0-.219-.071-.219-.219v-.875c0-.051-.016-.078-.047-.078-.023 0-.043.015-.062.047-.532.855-1.403 1.281-2.61 1.281-1.023 0-1.855-.297-2.5-.891-.637-.601-.953-1.472-.953-2.609v-7.781c0-.157.07-.235.219-.235h1.156c.145 0 .219.078.219.235v7.375c0 .793.191 1.414.578 1.859.394.438.941.656 1.641.656.726 0 1.3-.234 1.718-.703.426-.469.641-1.101.641-1.906zM273.98 247.418c.438 0 .821.09 1.157.266.101.054.14.148.109.281l-.266 1.14c-.054.137-.152.184-.297.141-.179-.094-.418-.141-.718-.141a2.94 2.94 0 0 0-.328.016c-.668.031-1.215.32-1.641.859-.43.543-.641 1.211-.641 2v6.688c0 .148-.074.219-.218.219h-1.141c-.149 0-.219-.071-.219-.219v-10.906c0-.157.07-.235.219-.235h1.141c.144 0 .218.078.218.235v1.406c0 .055.008.078.032.078.031 0 .05-.016.062-.047.258-.551.598-.984 1.016-1.297.425-.32.929-.484 1.515-.484zM283.051 247.762c0-.157.07-.235.218-.235h1.157c.144 0 .218.078.218.235v10.812c0 3.375-1.851 4.985-5.547 4.828-.148-.023-.218-.105-.218-.25l.015-1.015c0-.074.02-.133.063-.172.051-.031.109-.043.172-.031 1.406.05 2.41-.204 3.015-.766.602-.563.907-1.461.907-2.688v-.734c0-.031-.012-.051-.032-.062-.023-.02-.047-.016-.078.015-.586.836-1.453 1.25-2.609 1.25-.961 0-1.762-.285-2.406-.859-.637-.57-1.028-1.352-1.172-2.344-.094-.656-.141-1.5-.141-2.531 0-1.125.051-2.008.156-2.656.125-.969.504-1.743 1.141-2.329.633-.582 1.426-.875 2.375-.875 1.164 0 2.051.415 2.656 1.235.031.031.055.043.078.031.02-.008.032-.031.032-.062zm-.063 7.672c.039-.582.063-1.332.063-2.25 0-.895-.024-1.657-.063-2.282-.062-.632-.305-1.148-.719-1.547-.406-.406-.933-.609-1.578-.609-.637 0-1.168.203-1.594.609-.429.399-.687.915-.781 1.547-.062.532-.094 1.293-.094 2.282 0 .75.032 1.5.094 2.25.071.625.328 1.14.766 1.546.437.407.972.61 1.609.61.645 0 1.172-.203 1.578-.61.414-.406.657-.921.719-1.546z" style="fill:#0f0c0c;fill-rule:nonzero"/><clipPath id="a"><path d="M203.965 68.957c-6.199.078-11.781 2.754-15.711 6.984a22.03 22.03 0 0 0-3.504 5.028 21.684 21.684 0 0 0-2.332 9.816c0 7.074 3.383 13.375 8.617 17.367a21.68 21.68 0 0 0 13.207 4.457c1.184 0 2.348.075 3.492.215 2.438.293 4.778.895 6.989 1.758 1.125.441 2.215.949 3.261 1.523a28.884 28.884 0 0 1 6.114 4.454c5.515 5.253 8.961 12.664 8.961 20.867 0 .941-.047 1.875-.137 2.797a28.618 28.618 0 0 1-3.988 12.043h.043a47.654 47.654 0 0 0 8.605-6.825 45.08 45.08 0 0 0 1.969-2.089 47.258 47.258 0 0 0 4.855-6.52c4.551-7.363 6.989-15.855 6.989-24.727 0-8.871-2.438-17.367-6.989-24.726a47.054 47.054 0 0 0-4.855-6.524 49.536 49.536 0 0 0-1.969-2.089 47.47 47.47 0 0 0-8.609-6.825h-.039c-.008-.015-.016-.027-.024-.039-7.269-4.48-15.644-6.894-24.383-6.945zm25.562 47.148a35.876 35.876 0 0 0-14.804-8.914 35.613 35.613 0 0 0-10.481-1.566c-8.183 0-14.84-6.656-14.84-14.84 0-8.187 6.657-14.844 14.84-14.844 6.934 0 13.602 1.747 19.496 5.028a40.47 40.47 0 0 1 8.907 6.734c.093.098.183.188.277.285a40.316 40.316 0 0 1 6.601 8.883c3.192 5.832 4.883 12.402 4.883 19.234 0 6.829-1.691 13.403-4.883 19.231-1.281-7.441-4.867-14.109-9.996-19.231z" style="clip-rule:nonzero"/></clipPath><g clip-path="url(#a)" transform="translate(-66.758 -68.957)"><path style="fill:url(#b)" d="M182.418 68.957h68.977v87.309h-68.977z"/></g><clipPath id="c"><path d="M177.598 68.957h-9.153v94.297h35.797c.098 0 .188 0 .285-.004 6.196-.078 11.778-2.75 15.707-6.984a21.768 21.768 0 0 0 3.504-5.028 21.695 21.695 0 0 0 2.336-9.812c0-7.078-3.386-13.379-8.625-17.367a21.693 21.693 0 0 0-13.207-4.461c-1.18 0-2.344-.075-3.488-.211a28.577 28.577 0 0 1-6.988-1.762 29.715 29.715 0 0 1-3.266-1.52 29.05 29.05 0 0 1-6.105-4.457c-5.52-5.25-8.961-12.664-8.961-20.863a28.617 28.617 0 0 1 4.121-14.844h-.035a.384.384 0 0 1 .062-.039 28.888 28.888 0 0 1 5.875-6.945zm-2.164 83.449v-40.398a36.31 36.31 0 0 0 3.527 4.097 36.01 36.01 0 0 0 12.078 7.95 35.62 35.62 0 0 0 13.203 2.527c8.184 0 14.844 6.656 14.844 14.844 0 8.183-6.66 14.84-14.844 14.84h-24.687c.007.015.019.031.027.043a.441.441 0 0 1-.066-.043h-4.082z" style="clip-rule:nonzero"/></clipPath><g clip-path="url(#c)" transform="translate(-66.758 -68.957)"><path style="fill:url(#d)" d="M168.445 68.957h57.629v94.297h-57.629z"/></g><path d="M57.258 112.48c-.235-.367-.649-.628-1.231-.628h-1.422v11.011h1.422c.582 0 .996-.258 1.231-.625.453-.711.519-2.222.519-4.902 0-2.676-.066-4.145-.519-4.856m1.816 11.293c-.629.711-1.512 1.274-2.98 1.274h-3.911v-15.375h3.911c1.468 0 2.351.562 2.98 1.277 1.141 1.27 1.121 3.453 1.121 6.41 0 2.957.02 5.137-1.121 6.414M86.656 112.262c-.215-.344-.582-.578-1.168-.578-.578 0-.926.234-1.144.578-.45.734-.54 2.293-.54 5.097 0 2.809.09 4.364.54 5.094.218.348.566.586 1.144.586.586 0 .953-.238 1.168-.586.453-.73.52-2.285.52-5.094 0-2.804-.067-4.363-.52-5.097m1.813 11.66c-.645.734-1.512 1.297-2.981 1.297-1.469 0-2.328-.563-2.976-1.297-1.145-1.293-1.125-3.539-1.125-6.563 0-3.023-.02-5.269 1.125-6.566.648-.734 1.507-1.293 2.976-1.293s2.336.559 2.981 1.293c1.148 1.297 1.125 3.543 1.125 6.566 0 3.024.023 5.27-1.125 6.563M119.097 125.047v-9.586L117 121.762h-1.336l-2.051-6.196v9.481h-2.418v-15.375h2.18l2.98 8.074 2.957-8.074h2.203v15.375zM147.285 113.387l-1.316 6.433h2.632zm2.398 11.66-.629-3.043h-3.562l-.602 3.043h-2.55l3.777-15.375h2.355l3.739 15.375z" style="fill:#211e1e;fill-rule:nonzero"/><path style="fill:#211e1e" d="M173.054 109.672h2.418v15.375h-2.418z"/><path d="m203.531 125.047-3.625-9.137v9.137h-2.418v-15.375h2.156l3.606 9.133v-9.133h2.422v15.375zM227.683 125.047v-15.375h6.457v2.18h-4.039v4.363h3.477v2.18h-3.477v4.468h4.039v2.184zM25.168 175.527h-.004a110.712 110.712 0 0 0-5.465-4.015 198.581 198.581 0 0 1-4.5-3.328 21.592 21.592 0 0 1-3.457-3.278 15.062 15.062 0 0 1-2.297-3.707c-.531-1.226-.801-2.691-.801-4.355 0-1.188.078-2.188.231-2.977.152-.797.422-1.691.797-2.652.3-.781.777-1.52 1.414-2.203 1.449-1.582 3.613-2.356 6.617-2.356 1.559 0 2.867.215 3.891.633.972.399 1.757.945 2.394 1.664a5.494 5.494 0 0 1 1.145 2.141c.3 1.066.507 2.094.613 3.058.109.977.137 2.157.082 3.512l-.125 2.988 7.781-.019.043-2.82.047-1.286c.035-.988-.016-2.132-.152-3.5a24.16 24.16 0 0 0-.907-4.386c-.519-1.711-1.386-3.305-2.585-4.743-2.813-3.281-6.926-4.945-12.227-4.945-5.176 0-9.316 1.625-12.289 4.809-1.332 1.34-2.32 2.84-2.938 4.449-.539 1.402-.929 2.73-1.168 3.949-.246 1.238-.371 2.356-.371 3.324v1.454c0 4.738 1.614 9.085 4.797 12.917l.039.043a30.26 30.26 0 0 0 4.614 4.305 176.835 176.835 0 0 0 4.898 3.567 221.397 221.397 0 0 1 5.098 3.753 24.434 24.434 0 0 1 4.078 3.911c1.144 1.386 2.078 3 2.777 4.796.684 1.758 1.027 3.891 1.027 6.336 0 2.012-.304 3.692-.91 4.993-.59 1.281-1.363 2.308-2.293 3.058a9.604 9.604 0 0 1-3.332 1.735c-1.324.39-2.679.589-4.027.589-1.094 0-2.301-.152-3.586-.445-1.066-.242-2.082-.75-3.02-1.504-.921-.742-1.722-1.855-2.375-3.308-.675-1.5-1.015-3.567-1.015-6.149v-2.867H0v2.867c0 2.934.445 5.738 1.324 8.332.941 2.789 2.402 5.071 4.344 6.778l.043.035c1.976 1.675 4.144 2.781 6.449 3.289 2.039.449 3.906.676 5.543.676 4.793 0 8.883-1.36 12.168-4.043 4.047-3.375 6.101-8.098 6.101-14.036 0-6.035-1.867-11.386-5.558-15.91a34.08 34.08 0 0 0-5.246-5.129M76.637 142.988l-.012-.008c-3.27-2.671-6.977-4.027-11.02-4.027-2.039 0-4.047.383-5.976 1.137-1.907.75-3.606 1.781-5.055 3.078l-.039.035c-3.59 3.367-5.41 8.02-5.41 13.828v38.598c0 .215-.035 1.176-.047 1.488-.039 1.067.051 2.274.266 3.688.218 1.425.636 2.933 1.238 4.492.66 1.715 1.691 3.316 3.035 4.738 2.809 3.184 6.844 4.797 11.988 4.797 5.117 0 9.231-1.594 12.227-4.746a14.17 14.17 0 0 0 3-4.824c.59-1.602 1.015-3.168 1.265-4.657.247-1.488.368-2.73.368-3.804v-4.321h-7.703v2.868c0 1.468-.086 2.738-.25 3.777-.157 1-.442 2.066-.844 3.172a7.242 7.242 0 0 1-1.508 2.445c-1.516 1.606-3.656 2.387-6.555 2.387-2.75 0-4.801-.777-6.265-2.383a7.27 7.27 0 0 1-1.52-2.426c-.394-1.054-.66-2.039-.785-2.922-.137-.949-.207-2.156-.207-3.582v-38.785c0-1.886.266-3.527.793-4.875.504-1.297 1.16-2.343 1.953-3.117a8.041 8.041 0 0 1 2.77-1.766c2.089-.789 4.164-.859 6.441.032 1.066.418 2.047 1.07 2.914 1.941.875.875 1.609 2.051 2.184 3.488.582 1.473.879 3.266.879 5.332v2.868h7.796v-2.868c0-3.019-.488-5.867-1.445-8.461-1.016-2.746-2.523-4.968-4.476-6.617M125.656 177.078H105.66v-37.281h-7.703v74.004h7.703v-29.203h19.996v29.203h7.707v-74.004h-7.707zM171.832 175.867c-.707.383-2.512 1.024-6.621 1.024h-5.961v-29.387h5.961c2.574 0 4.703.371 6.324 1.109 1.512.688 2.613 1.582 3.359 2.727.918 1.461 1.66 3.164 2.211 5.058.547 1.903.828 3.836.828 5.75 0 1.977-.281 3.942-.828 5.844-.547 1.895-1.289 3.594-2.191 5.031-.805 1.235-1.813 2.165-3.082 2.844m5.859 5.481a16.659 16.659 0 0 0 3.723-4.153c1.344-2.054 2.398-4.425 3.129-7.043a29.425 29.425 0 0 0 1.094-7.957c0-2.629-.368-5.273-1.094-7.859-.727-2.606-1.774-4.996-3.121-7.121-1.543-2.395-3.735-4.262-6.504-5.555-2.656-1.234-5.922-1.863-9.707-1.863h-13.668v74.004h7.707v-29.203h5.961c.883 0 1.676-.016 2.422-.051.039 0 .082-.004.121-.004l12.765 29.164h8.328l-13.546-30.898a11.863 11.863 0 0 0 2.39-1.461M279.887 139.797l-15.618 30.562-15.617-30.562h-6.219v74.004h7.707V159.66l11.711 23.153h4.844l11.609-23.153v54.141h7.708v-74.004zM209.754 176.891l.39-2.746 3.805-26.704h.066l4.2 29.45zm5.285-37.094h-7.809l-10.625 74.004h7.887l4.16-29.203h10.664l4.164 29.203h7.899l-10.559-74.004Z" style="fill:#211e1e;fill-rule:nonzero"/><defs><linearGradient id="b" x1="0" y1="0" x2="1" y2="0" gradientUnits="userSpaceOnUse" gradientTransform="translate(182.417 112.611) scale(68.976)"><stop offset="0" style="stop-color:#e37d3f;stop-opacity:1"/><stop offset="0" style="stop-color:#e47d3f;stop-opacity:1"/><stop offset=".01" style="stop-color:#e47e40;stop-opacity:1"/><stop offset=".01" style="stop-color:#e47e40;stop-opacity:1"/><stop offset=".02" style="stop-color:#e47e41;stop-opacity:1"/><stop offset=".02" style="stop-color:#e57f41;stop-opacity:1"/><stop offset=".02" style="stop-color:#e57f42;stop-opacity:1"/><stop offset=".03" style="stop-color:#e58042;stop-opacity:1"/><stop offset=".03" style="stop-color:#e68043;stop-opacity:1"/><stop offset=".04" style="stop-color:#e68043;stop-opacity:1"/><stop offset=".04" style="stop-color:#e68144;stop-opacity:1"/><stop offset=".04" style="stop-color:#e68144;stop-opacity:1"/><stop offset=".05" style="stop-color:#e78245;stop-opacity:1"/><stop offset=".05" style="stop-color:#e78246;stop-opacity:1"/><stop offset=".05" style="stop-color:#e78246;stop-opacity:1"/><stop offset=".06" style="stop-color:#e88347;stop-opacity:1"/><stop offset=".06" style="stop-color:#e88347;stop-opacity:1"/><stop offset=".07" style="stop-color:#e88448;stop-opacity:1"/><stop offset=".07" style="stop-color:#e88448;stop-opacity:1"/><stop offset=".07" style="stop-color:#e98549;stop-opacity:1"/><stop offset=".08" style="stop-color:#e98549;stop-opacity:1"/><stop offset=".08" style="stop-color:#e9854a;stop-opacity:1"/><stop offset=".09" style="stop-color:#ea864a;stop-opacity:1"/><stop offset=".09" style="stop-color:#ea864b;stop-opacity:1"/><stop offset=".09" style="stop-color:#ea874b;stop-opacity:1"/><stop offset=".1" style="stop-color:#ea874c;stop-opacity:1"/><stop offset=".1" style="stop-color:#eb884d;stop-opacity:1"/><stop offset=".11" style="stop-color:#eb884d;stop-opacity:1"/><stop offset=".11" style="stop-color:#eb884e;stop-opacity:1"/><stop offset=".11" style="stop-color:#eb894e;stop-opacity:1"/><stop offset=".12" style="stop-color:#ec8a4e;stop-opacity:1"/><stop offset=".12" style="stop-color:#ec8a4e;stop-opacity:1"/><stop offset=".13" style="stop-color:#ec8b4f;stop-opacity:1"/><stop offset=".13" style="stop-color:#ec8c4f;stop-opacity:1"/><stop offset=".13" style="stop-color:#ec8c4f;stop-opacity:1"/><stop offset=".14" style="stop-color:#ec8d4f;stop-opacity:1"/><stop offset=".14" style="stop-color:#ec8e4f;stop-opacity:1"/><stop offset=".14" style="stop-color:#ed8e50;stop-opacity:1"/><stop offset=".15" style="stop-color:#ed8f50;stop-opacity:1"/><stop offset=".15" style="stop-color:#ed9050;stop-opacity:1"/><stop offset=".16" style="stop-color:#ed9150;stop-opacity:1"/><stop offset=".16" style="stop-color:#ed9150;stop-opacity:1"/><stop offset=".16" style="stop-color:#ed9251;stop-opacity:1"/><stop offset=".17" style="stop-color:#ed9351;stop-opacity:1"/><stop offset=".17" style="stop-color:#ee9351;stop-opacity:1"/><stop offset=".18" style="stop-color:#ee9451;stop-opacity:1"/><stop offset=".18" style="stop-color:#ee9551;stop-opacity:1"/><stop offset=".18" style="stop-color:#ee9552;stop-opacity:1"/><stop offset=".19" style="stop-color:#ee9652;stop-opacity:1"/><stop offset=".19" style="stop-color:#ee9752;stop-opacity:1"/><stop offset=".2" style="stop-color:#ef9752;stop-opacity:1"/><stop offset=".2" style="stop-color:#ef9852;stop-opacity:1"/><stop offset=".2" style="stop-color:#ef9953;stop-opacity:1"/><stop offset=".21" style="stop-color:#ef9a53;stop-opacity:1"/><stop offset=".21" style="stop-color:#ef9a53;stop-opacity:1"/><stop offset=".21" style="stop-color:#ef9b53;stop-opacity:1"/><stop offset=".22" style="stop-color:#ef9c53;stop-opacity:1"/><stop offset=".22" style="stop-color:#f09c54;stop-opacity:1"/><stop offset=".23" style="stop-color:#f09d54;stop-opacity:1"/><stop offset=".23" style="stop-color:#f09e54;stop-opacity:1"/><stop offset=".23" style="stop-color:#f09e54;stop-opacity:1"/><stop offset=".24" style="stop-color:#f09f54;stop-opacity:1"/><stop offset=".24" style="stop-color:#f0a055;stop-opacity:1"/><stop offset=".25" style="stop-color:#f0a155;stop-opacity:1"/><stop offset=".25" style="stop-color:#f1a155;stop-opacity:1"/><stop offset=".25" style="stop-color:#f1a255;stop-opacity:1"/><stop offset=".26" style="stop-color:#f1a356;stop-opacity:1"/><stop offset=".26" style="stop-color:#f1a356;stop-opacity:1"/><stop offset=".27" style="stop-color:#f1a456;stop-opacity:1"/><stop offset=".27" style="stop-color:#f1a556;stop-opacity:1"/><stop offset=".27" style="stop-color:#f1a556;stop-opacity:1"/><stop offset=".28" style="stop-color:#f2a657;stop-opacity:1"/><stop offset=".28" style="stop-color:#f2a757;stop-opacity:1"/><stop offset=".29" style="stop-color:#f2a857;stop-opacity:1"/><stop offset=".29" style="stop-color:#f2a857;stop-opacity:1"/><stop offset=".29" style="stop-color:#f2a958;stop-opacity:1"/><stop offset=".3" style="stop-color:#f2aa58;stop-opacity:1"/><stop offset=".3" style="stop-color:#f3aa58;stop-opacity:1"/><stop offset=".3" style="stop-color:#f3ab58;stop-opacity:1"/><stop offset=".31" style="stop-color:#f3ac58;stop-opacity:1"/><stop offset=".31" style="stop-color:#f3ad59;stop-opacity:1"/><stop offset=".32" style="stop-color:#f3ad59;stop-opacity:1"/><stop offset=".32" style="stop-color:#f3ae59;stop-opacity:1"/><stop offset=".32" style="stop-color:#f3af59;stop-opacity:1"/><stop offset=".33" style="stop-color:#f4af5a;stop-opacity:1"/><stop offset=".33" style="stop-color:#f4b05a;stop-opacity:1"/><stop offset=".34" style="stop-color:#f4b15a;stop-opacity:1"/><stop offset=".34" style="stop-color:#f4b25a;stop-opacity:1"/><stop offset=".34" style="stop-color:#f4b25a;stop-opacity:1"/><stop offset=".35" style="stop-color:#f4b35b;stop-opacity:1"/><stop offset=".35" style="stop-color:#f5b45b;stop-opacity:1"/><stop offset=".36" style="stop-color:#f4b45b;stop-opacity:1"/><stop offset=".36" style="stop-color:#f4b25a;stop-opacity:1"/><stop offset=".37" style="stop-color:#f3b15a;stop-opacity:1"/><stop offset=".37" style="stop-color:#f3b059;stop-opacity:1"/><stop offset=".38" style="stop-color:#f2af58;stop-opacity:1"/><stop offset=".38" style="stop-color:#f2ae58;stop-opacity:1"/><stop offset=".38" style="stop-color:#f1ac57;stop-opacity:1"/><stop offset=".39" style="stop-color:#f1ab57;stop-opacity:1"/><stop offset=".39" style="stop-color:#f0aa56;stop-opacity:1"/><stop offset=".39" style="stop-color:#efa955;stop-opacity:1"/><stop offset=".4" style="stop-color:#efa755;stop-opacity:1"/><stop offset=".4" style="stop-color:#eea654;stop-opacity:1"/><stop offset=".41" style="stop-color:#eea554;stop-opacity:1"/><stop offset=".41" style="stop-color:#eda453;stop-opacity:1"/><stop offset=".41" style="stop-color:#eda353;stop-opacity:1"/><stop offset=".42" style="stop-color:#eca152;stop-opacity:1"/><stop offset=".42" style="stop-color:#eca052;stop-opacity:1"/><stop offset=".43" style="stop-color:#eb9f51;stop-opacity:1"/><stop offset=".43" style="stop-color:#eb9e50;stop-opacity:1"/><stop offset=".43" style="stop-color:#ea9d50;stop-opacity:1"/><stop offset=".44" style="stop-color:#ea9c4f;stop-opacity:1"/><stop offset=".44" style="stop-color:#e99a4f;stop-opacity:1"/><stop offset=".45" style="stop-color:#e9994e;stop-opacity:1"/><stop offset=".45" style="stop-color:#e8984e;stop-opacity:1"/><stop offset=".45" style="stop-color:#e8974d;stop-opacity:1"/><stop offset=".46" style="stop-color:#e7964d;stop-opacity:1"/><stop offset=".46" style="stop-color:#e7954c;stop-opacity:1"/><stop offset=".46" style="stop-color:#e6934c;stop-opacity:1"/><stop offset=".47" style="stop-color:#e6924b;stop-opacity:1"/><stop offset=".47" style="stop-color:#e5914b;stop-opacity:1"/><stop offset=".48" style="stop-color:#e5904a;stop-opacity:1"/><stop offset=".48" style="stop-color:#e48f4a;stop-opacity:1"/><stop offset=".48" style="stop-color:#e48e49;stop-opacity:1"/><stop offset=".49" style="stop-color:#e38d49;stop-opacity:1"/><stop offset=".49" style="stop-color:#e38b48;stop-opacity:1"/><stop offset=".5" style="stop-color:#e28a48;stop-opacity:1"/><stop offset=".5" style="stop-color:#e28947;stop-opacity:1"/><stop offset=".5" style="stop-color:#e18847;stop-opacity:1"/><stop offset=".51" style="stop-color:#e18746;stop-opacity:1"/><stop offset=".51" style="stop-color:#e08646;stop-opacity:1"/><stop offset=".52" style="stop-color:#e08545;stop-opacity:1"/><stop offset=".52" style="stop-color:#df8445;stop-opacity:1"/><stop offset=".52" style="stop-color:#df8245;stop-opacity:1"/><stop offset=".53" style="stop-color:#de8144;stop-opacity:1"/><stop offset=".53" style="stop-color:#de8044;stop-opacity:1"/><stop offset=".54" style="stop-color:#dd7f43;stop-opacity:1"/><stop offset=".54" style="stop-color:#dd7e43;stop-opacity:1"/><stop offset=".54" style="stop-color:#dc7d42;stop-opacity:1"/><stop offset=".55" style="stop-color:#dc7c42;stop-opacity:1"/><stop offset=".55" style="stop-color:#db7b42;stop-opacity:1"/><stop offset=".55" style="stop-color:#db7a41;stop-opacity:1"/><stop offset=".56" style="stop-color:#db7941;stop-opacity:1"/><stop offset=".56" style="stop-color:#da7840;stop-opacity:1"/><stop offset=".57" style="stop-color:#da7640;stop-opacity:1"/><stop offset=".57" style="stop-color:#d9753f;stop-opacity:1"/><stop offset=".58" style="stop-color:#d9753f;stop-opacity:1"/><stop offset=".58" style="stop-color:#d9763f;stop-opacity:1"/><stop offset=".59" style="stop-color:#d9773f;stop-opacity:1"/><stop offset=".59" style="stop-color:#d9783f;stop-opacity:1"/><stop offset=".59" style="stop-color:#da793f;stop-opacity:1"/><stop offset=".6" style="stop-color:#da793f;stop-opacity:1"/><stop offset=".6" style="stop-color:#da7a3f;stop-opacity:1"/><stop offset=".61" style="stop-color:#da7b3f;stop-opacity:1"/><stop offset=".61" style="stop-color:#da7c3f;stop-opacity:1"/><stop offset=".61" style="stop-color:#db7d3f;stop-opacity:1"/><stop offset=".62" style="stop-color:#db7d40;stop-opacity:1"/><stop offset=".62" style="stop-color:#db7e40;stop-opacity:1"/><stop offset=".63" style="stop-color:#db7f40;stop-opacity:1"/><stop offset=".63" style="stop-color:#dc8040;stop-opacity:1"/><stop offset=".63" style="stop-color:#dc8140;stop-opacity:1"/><stop offset=".64" style="stop-color:#dc8240;stop-opacity:1"/><stop offset=".64" style="stop-color:#dc8240;stop-opacity:1"/><stop offset=".64" style="stop-color:#dc8340;stop-opacity:1"/><stop offset=".65" style="stop-color:#dd8440;stop-opacity:1"/><stop offset=".65" style="stop-color:#dd8540;stop-opacity:1"/><stop offset=".66" style="stop-color:#dd8640;stop-opacity:1"/><stop offset=".66" style="stop-color:#dd8740;stop-opacity:1"/><stop offset=".66" style="stop-color:#dd8740;stop-opacity:1"/><stop offset=".67" style="stop-color:#de8840;stop-opacity:1"/><stop offset=".67" style="stop-color:#de8940;stop-opacity:1"/><stop offset=".68" style="stop-color:#de8a40;stop-opacity:1"/><stop offset=".68" style="stop-color:#de8b40;stop-opacity:1"/><stop offset=".68" style="stop-color:#de8c40;stop-opacity:1"/><stop offset=".69" style="stop-color:#df8c40;stop-opacity:1"/><stop offset=".69" style="stop-color:#df8d40;stop-opacity:1"/><stop offset=".7" style="stop-color:#df8e40;stop-opacity:1"/><stop offset=".7" style="stop-color:#df8f40;stop-opacity:1"/><stop offset=".7" style="stop-color:#df9040;stop-opacity:1"/><stop offset=".71" style="stop-color:#e09140;stop-opacity:1"/><stop offset=".71" style="stop-color:#e09140;stop-opacity:1"/><stop offset=".71" style="stop-color:#e09240;stop-opacity:1"/><stop offset=".72" style="stop-color:#e09340;stop-opacity:1"/><stop offset=".72" style="stop-color:#e09440;stop-opacity:1"/><stop offset=".73" style="stop-color:#e19541;stop-opacity:1"/><stop offset=".73" style="stop-color:#e19641;stop-opacity:1"/><stop offset=".73" style="stop-color:#e19741;stop-opacity:1"/><stop offset=".74" style="stop-color:#e19741;stop-opacity:1"/><stop offset=".74" style="stop-color:#e29841;stop-opacity:1"/><stop offset=".75" style="stop-color:#e29941;stop-opacity:1"/><stop offset=".75" style="stop-color:#e29a41;stop-opacity:1"/><stop offset=".75" style="stop-color:#e29b41;stop-opacity:1"/><stop offset=".76" style="stop-color:#e29c41;stop-opacity:1"/><stop offset=".76" style="stop-color:#e39d41;stop-opacity:1"/><stop offset=".77" style="stop-color:#e39d41;stop-opacity:1"/><stop offset=".77" style="stop-color:#e39e41;stop-opacity:1"/><stop offset=".77" style="stop-color:#e39f41;stop-opacity:1"/><stop offset=".78" style="stop-color:#e3a041;stop-opacity:1"/><stop offset=".78" style="stop-color:#e4a141;stop-opacity:1"/><stop offset=".79" style="stop-color:#e4a241;stop-opacity:1"/><stop offset=".79" style="stop-color:#e4a241;stop-opacity:1"/><stop offset=".79" style="stop-color:#e4a341;stop-opacity:1"/><stop offset=".8" style="stop-color:#e5a342;stop-opacity:1"/><stop offset=".8" style="stop-color:#e5a442;stop-opacity:1"/><stop offset=".81" style="stop-color:#e5a543;stop-opacity:1"/><stop offset=".82" style="stop-color:#e6a543;stop-opacity:1"/><stop offset=".83" style="stop-color:#e6a644;stop-opacity:1"/><stop offset=".84" style="stop-color:#e7a745;stop-opacity:1"/><stop offset=".84" style="stop-color:#e8a745;stop-opacity:1"/><stop offset=".85" style="stop-color:#e8a846;stop-opacity:1"/><stop offset=".86" style="stop-color:#e9a947;stop-opacity:1"/><stop offset=".87" style="stop-color:#e9a947;stop-opacity:1"/><stop offset=".88" style="stop-color:#eaaa48;stop-opacity:1"/><stop offset=".88" style="stop-color:#eaab49;stop-opacity:1"/><stop offset=".89" style="stop-color:#ebab49;stop-opacity:1"/><stop offset=".9" style="stop-color:#ebac4a;stop-opacity:1"/><stop offset=".91" style="stop-color:#ecad4b;stop-opacity:1"/><stop offset=".91" style="stop-color:#ecad4c;stop-opacity:1"/><stop offset=".92" style="stop-color:#edae4c;stop-opacity:1"/><stop offset=".93" style="stop-color:#edaf4d;stop-opacity:1"/><stop offset=".94" style="stop-color:#eeb04e;stop-opacity:1"/><stop offset=".95" style="stop-color:#eeb04e;stop-opacity:1"/><stop offset=".95" style="stop-color:#efb14f;stop-opacity:1"/><stop offset=".96" style="stop-color:#f0b250;stop-opacity:1"/><stop offset=".97" style="stop-color:#f0b251;stop-opacity:1"/><stop offset=".98" style="stop-color:#f1b351;stop-opacity:1"/><stop offset=".98" style="stop-color:#f1b452;stop-opacity:1"/><stop offset=".99" style="stop-color:#f2b553;stop-opacity:1"/><stop offset="1" style="stop-color:#f2b554;stop-opacity:1"/></linearGradient><linearGradient id="d" x1="0" y1="0" x2="1" y2="0" gradientUnits="userSpaceOnUse" gradientTransform="translate(168.447 116.104) scale(57.626)"><stop offset="0" style="stop-color:#b05729;stop-opacity:1"/><stop offset="0" style="stop-color:#b1572a;stop-opacity:1"/><stop offset=".01" style="stop-color:#b2582a;stop-opacity:1"/><stop offset=".01" style="stop-color:#b4592a;stop-opacity:1"/><stop offset=".02" style="stop-color:#b55a2b;stop-opacity:1"/><stop offset=".02" style="stop-color:#b75b2b;stop-opacity:1"/><stop offset=".02" style="stop-color:#b85c2b;stop-opacity:1"/><stop offset=".03" style="stop-color:#ba5d2b;stop-opacity:1"/><stop offset=".03" style="stop-color:#bb5e2c;stop-opacity:1"/><stop offset=".04" style="stop-color:#bc5e2c;stop-opacity:1"/><stop offset=".04" style="stop-color:#be5f2c;stop-opacity:1"/><stop offset=".04" style="stop-color:#bf602c;stop-opacity:1"/><stop offset=".05" style="stop-color:#c1612d;stop-opacity:1"/><stop offset=".05" style="stop-color:#c2622d;stop-opacity:1"/><stop offset=".05" style="stop-color:#c4632d;stop-opacity:1"/><stop offset=".06" style="stop-color:#c5642e;stop-opacity:1"/><stop offset=".06" style="stop-color:#c7652e;stop-opacity:1"/><stop offset=".07" style="stop-color:#c8662e;stop-opacity:1"/><stop offset=".07" style="stop-color:#ca672e;stop-opacity:1"/><stop offset=".07" style="stop-color:#cb682f;stop-opacity:1"/><stop offset=".08" style="stop-color:#cd692f;stop-opacity:1"/><stop offset=".08" style="stop-color:#ce6a2f;stop-opacity:1"/><stop offset=".09" style="stop-color:#d06b30;stop-opacity:1"/><stop offset=".09" style="stop-color:#d26b30;stop-opacity:1"/><stop offset=".09" style="stop-color:#d36c30;stop-opacity:1"/><stop offset=".1" style="stop-color:#d56d31;stop-opacity:1"/><stop offset=".1" style="stop-color:#d66e31;stop-opacity:1"/><stop offset=".11" style="stop-color:#d86f31;stop-opacity:1"/><stop offset=".11" style="stop-color:#d97031;stop-opacity:1"/><stop offset=".11" style="stop-color:#db7132;stop-opacity:1"/><stop offset=".12" style="stop-color:#dc7232;stop-opacity:1"/><stop offset=".12" style="stop-color:#dc7332;stop-opacity:1"/><stop offset=".13" style="stop-color:#dc7333;stop-opacity:1"/><stop offset=".13" style="stop-color:#dd7333;stop-opacity:1"/><stop offset=".13" style="stop-color:#dd7334;stop-opacity:1"/><stop offset=".14" style="stop-color:#dd7434;stop-opacity:1"/><stop offset=".14" style="stop-color:#dd7434;stop-opacity:1"/><stop offset=".14" style="stop-color:#de7435;stop-opacity:1"/><stop offset=".15" style="stop-color:#de7535;stop-opacity:1"/><stop offset=".15" style="stop-color:#de7535;stop-opacity:1"/><stop offset=".16" style="stop-color:#de7536;stop-opacity:1"/><stop offset=".16" style="stop-color:#df7636;stop-opacity:1"/><stop offset=".16" style="stop-color:#df7637;stop-opacity:1"/><stop offset=".17" style="stop-color:#df7637;stop-opacity:1"/><stop offset=".17" style="stop-color:#df7737;stop-opacity:1"/><stop offset=".18" style="stop-color:#df7738;stop-opacity:1"/><stop offset=".18" style="stop-color:#e07738;stop-opacity:1"/><stop offset=".18" style="stop-color:#e07839;stop-opacity:1"/><stop offset=".19" style="stop-color:#e07839;stop-opacity:1"/><stop offset=".19" style="stop-color:#e07839;stop-opacity:1"/><stop offset=".2" style="stop-color:#e1793a;stop-opacity:1"/><stop offset=".2" style="stop-color:#e1793a;stop-opacity:1"/><stop offset=".2" style="stop-color:#e1793b;stop-opacity:1"/><stop offset=".21" style="stop-color:#e17a3b;stop-opacity:1"/><stop offset=".21" style="stop-color:#e17a3b;stop-opacity:1"/><stop offset=".21" style="stop-color:#e27a3c;stop-opacity:1"/><stop offset=".22" style="stop-color:#e27b3c;stop-opacity:1"/><stop offset=".22" style="stop-color:#e27b3d;stop-opacity:1"/><stop offset=".23" style="stop-color:#e27b3d;stop-opacity:1"/><stop offset=".23" style="stop-color:#e37c3e;stop-opacity:1"/><stop offset=".23" style="stop-color:#e37c3e;stop-opacity:1"/><stop offset=".24" style="stop-color:#e37c3e;stop-opacity:1"/><stop offset=".24" style="stop-color:#e37d3f;stop-opacity:1"/><stop offset=".25" style="stop-color:#e47d3f;stop-opacity:1"/><stop offset=".25" style="stop-color:#e47d40;stop-opacity:1"/><stop offset=".25" style="stop-color:#e47e40;stop-opacity:1"/><stop offset=".26" style="stop-color:#e47e40;stop-opacity:1"/><stop offset=".26" style="stop-color:#e47e41;stop-opacity:1"/><stop offset=".27" style="stop-color:#e57f41;stop-opacity:1"/><stop offset=".27" style="stop-color:#e57f42;stop-opacity:1"/><stop offset=".27" style="stop-color:#e57f42;stop-opacity:1"/><stop offset=".28" style="stop-color:#e58043;stop-opacity:1"/><stop offset=".28" style="stop-color:#e68043;stop-opacity:1"/><stop offset=".29" style="stop-color:#e68043;stop-opacity:1"/><stop offset=".29" style="stop-color:#e68144;stop-opacity:1"/><stop offset=".29" style="stop-color:#e68144;stop-opacity:1"/><stop offset=".3" style="stop-color:#e78245;stop-opacity:1"/><stop offset=".3" style="stop-color:#e78245;stop-opacity:1"/><stop offset=".3" style="stop-color:#e78246;stop-opacity:1"/><stop offset=".31" style="stop-color:#e78346;stop-opacity:1"/><stop offset=".31" style="stop-color:#e88347;stop-opacity:1"/><stop offset=".32" style="stop-color:#e88347;stop-opacity:1"/><stop offset=".32" style="stop-color:#e88447;stop-opacity:1"/><stop offset=".32" style="stop-color:#e88448;stop-opacity:1"/><stop offset=".33" style="stop-color:#e88448;stop-opacity:1"/><stop offset=".33" style="stop-color:#e98549;stop-opacity:1"/><stop offset=".34" style="stop-color:#e98549;stop-opacity:1"/><stop offset=".34" style="stop-color:#e9854a;stop-opacity:1"/><stop offset=".34" style="stop-color:#e9864a;stop-opacity:1"/><stop offset=".35" style="stop-color:#ea864b;stop-opacity:1"/><stop offset=".35" style="stop-color:#ea864b;stop-opacity:1"/><stop offset=".36" style="stop-color:#ea874c;stop-opacity:1"/><stop offset=".36" style="stop-color:#ea874c;stop-opacity:1"/><stop offset=".36" style="stop-color:#eb874c;stop-opacity:1"/><stop offset=".37" style="stop-color:#eb884d;stop-opacity:1"/><stop offset=".37" style="stop-color:#eb884d;stop-opacity:1"/><stop offset=".38" style="stop-color:#eb894e;stop-opacity:1"/><stop offset=".38" style="stop-color:#eb894e;stop-opacity:1"/><stop offset=".38" style="stop-color:#ec8a4e;stop-opacity:1"/><stop offset=".39" style="stop-color:#ec8a4e;stop-opacity:1"/><stop offset=".39" style="stop-color:#ec8b4f;stop-opacity:1"/><stop offset=".39" style="stop-color:#ec8b4f;stop-opacity:1"/><stop offset=".4" style="stop-color:#ec8c4f;stop-opacity:1"/><stop offset=".4" style="stop-color:#ec8d4f;stop-opacity:1"/><stop offset=".41" style="stop-color:#ec8d4f;stop-opacity:1"/><stop offset=".41" style="stop-color:#ec8e4f;stop-opacity:1"/><stop offset=".41" style="stop-color:#ed8e50;stop-opacity:1"/><stop offset=".42" style="stop-color:#ed8f50;stop-opacity:1"/><stop offset=".42" style="stop-color:#ed8f50;stop-opacity:1"/><stop offset=".43" style="stop-color:#ed9050;stop-opacity:1"/><stop offset=".43" style="stop-color:#ed9150;stop-opacity:1"/><stop offset=".43" style="stop-color:#ed9150;stop-opacity:1"/><stop offset=".44" style="stop-color:#ed9251;stop-opacity:1"/><stop offset=".44" style="stop-color:#ed9251;stop-opacity:1"/><stop offset=".45" style="stop-color:#ee9351;stop-opacity:1"/><stop offset=".45" style="stop-color:#ee9351;stop-opacity:1"/><stop offset=".45" style="stop-color:#ee9451;stop-opacity:1"/><stop offset=".46" style="stop-color:#ee9551;stop-opacity:1"/><stop offset=".46" style="stop-color:#ee9552;stop-opacity:1"/><stop offset=".46" style="stop-color:#ee9652;stop-opacity:1"/><stop offset=".47" style="stop-color:#ee9652;stop-opacity:1"/><stop offset=".47" style="stop-color:#ee9752;stop-opacity:1"/><stop offset=".48" style="stop-color:#ef9752;stop-opacity:1"/><stop offset=".48" style="stop-color:#ef9852;stop-opacity:1"/><stop offset=".48" style="stop-color:#ef9953;stop-opacity:1"/><stop offset=".49" style="stop-color:#ef9953;stop-opacity:1"/><stop offset=".49" style="stop-color:#ef9a53;stop-opacity:1"/><stop offset=".5" style="stop-color:#ef9a53;stop-opacity:1"/><stop offset=".5" style="stop-color:#ef9b53;stop-opacity:1"/><stop offset=".5" style="stop-color:#ef9c53;stop-opacity:1"/><stop offset=".51" style="stop-color:#ef9c54;stop-opacity:1"/><stop offset=".51" style="stop-color:#f09d54;stop-opacity:1"/><stop offset=".52" style="stop-color:#f09d54;stop-opacity:1"/><stop offset=".52" style="stop-color:#f09e54;stop-opacity:1"/><stop offset=".52" style="stop-color:#f09e54;stop-opacity:1"/><stop offset=".53" style="stop-color:#f09f54;stop-opacity:1"/><stop offset=".53" style="stop-color:#f0a055;stop-opacity:1"/><stop offset=".54" style="stop-color:#f0a055;stop-opacity:1"/><stop offset=".54" style="stop-color:#f0a155;stop-opacity:1"/><stop offset=".54" style="stop-color:#f1a155;stop-opacity:1"/><stop offset=".55" style="stop-color:#f1a255;stop-opacity:1"/><stop offset=".55" style="stop-color:#f1a356;stop-opacity:1"/><stop offset=".55" style="stop-color:#f1a356;stop-opacity:1"/><stop offset=".56" style="stop-color:#f1a456;stop-opacity:1"/><stop offset=".56" style="stop-color:#f1a456;stop-opacity:1"/><stop offset=".57" style="stop-color:#f1a556;stop-opacity:1"/><stop offset=".57" style="stop-color:#f1a656;stop-opacity:1"/><stop offset=".57" style="stop-color:#f2a657;stop-opacity:1"/><stop offset=".58" style="stop-color:#f2a757;stop-opacity:1"/><stop offset=".58" style="stop-color:#f2a757;stop-opacity:1"/><stop offset=".59" style="stop-color:#f2a857;stop-opacity:1"/><stop offset=".59" style="stop-color:#f2a957;stop-opacity:1"/><stop offset=".59" style="stop-color:#f2a958;stop-opacity:1"/><stop offset=".6" style="stop-color:#f2aa58;stop-opacity:1"/><stop offset=".6" style="stop-color:#f2aa58;stop-opacity:1"/><stop offset=".61" style="stop-color:#f3ab58;stop-opacity:1"/><stop offset=".61" style="stop-color:#f3ab58;stop-opacity:1"/><stop offset=".61" style="stop-color:#f3ac59;stop-opacity:1"/><stop offset=".62" style="stop-color:#f3ad59;stop-opacity:1"/><stop offset=".62" style="stop-color:#f3ad59;stop-opacity:1"/><stop offset=".63" style="stop-color:#f3ae59;stop-opacity:1"/><stop offset=".63" style="stop-color:#f3ae59;stop-opacity:1"/><stop offset=".63" style="stop-color:#f4af59;stop-opacity:1"/><stop offset=".64" style="stop-color:#f4b05a;stop-opacity:1"/><stop offset=".64" style="stop-color:#f4b05a;stop-opacity:1"/><stop offset=".64" style="stop-color:#f4b15a;stop-opacity:1"/><stop offset=".65" style="stop-color:#f4b15a;stop-opacity:1"/><stop offset=".65" style="stop-color:#f4b25a;stop-opacity:1"/><stop offset=".66" style="stop-color:#f4b35b;stop-opacity:1"/><stop offset=".66" style="stop-color:#f4b35b;stop-opacity:1"/><stop offset=".66" style="stop-color:#f5b45b;stop-opacity:1"/><stop offset=".67" style="stop-color:#f4b45b;stop-opacity:1"/><stop offset=".68" style="stop-color:#f4b35a;stop-opacity:1"/><stop offset=".68" style="stop-color:#f3b25a;stop-opacity:1"/><stop offset=".68" style="stop-color:#f3b159;stop-opacity:1"/><stop offset=".69" style="stop-color:#f3b059;stop-opacity:1"/><stop offset=".69" style="stop-color:#f2af58;stop-opacity:1"/><stop offset=".7" style="stop-color:#f2ae58;stop-opacity:1"/><stop offset=".7" style="stop-color:#f1ad57;stop-opacity:1"/><stop offset=".7" style="stop-color:#f1ac57;stop-opacity:1"/><stop offset=".71" style="stop-color:#f0ab56;stop-opacity:1"/><stop offset=".71" style="stop-color:#f0aa56;stop-opacity:1"/><stop offset=".71" style="stop-color:#efa955;stop-opacity:1"/><stop offset=".72" style="stop-color:#efa855;stop-opacity:1"/><stop offset=".72" style="stop-color:#efa754;stop-opacity:1"/><stop offset=".73" style="stop-color:#eea654;stop-opacity:1"/><stop offset=".73" style="stop-color:#eea554;stop-opacity:1"/><stop offset=".73" style="stop-color:#eda453;stop-opacity:1"/><stop offset=".74" style="stop-color:#eda353;stop-opacity:1"/><stop offset=".74" style="stop-color:#eca252;stop-opacity:1"/><stop offset=".75" style="stop-color:#eca152;stop-opacity:1"/><stop offset=".75" style="stop-color:#eca051;stop-opacity:1"/><stop offset=".75" style="stop-color:#eb9f51;stop-opacity:1"/><stop offset=".76" style="stop-color:#eb9e50;stop-opacity:1"/><stop offset=".76" style="stop-color:#ea9d50;stop-opacity:1"/><stop offset=".77" style="stop-color:#ea9c4f;stop-opacity:1"/><stop offset=".77" style="stop-color:#e99b4f;stop-opacity:1"/><stop offset=".77" style="stop-color:#e99a4f;stop-opacity:1"/><stop offset=".78" style="stop-color:#e9994e;stop-opacity:1"/><stop offset=".78" style="stop-color:#e8984e;stop-opacity:1"/><stop offset=".79" style="stop-color:#e8974d;stop-opacity:1"/><stop offset=".79" style="stop-color:#e7964d;stop-opacity:1"/><stop offset=".79" style="stop-color:#e7954c;stop-opacity:1"/><stop offset=".8" style="stop-color:#e6944c;stop-opacity:1"/><stop offset=".8" style="stop-color:#e6934c;stop-opacity:1"/><stop offset=".8" style="stop-color:#e6924b;stop-opacity:1"/><stop offset=".81" style="stop-color:#e5914b;stop-opacity:1"/><stop offset=".81" style="stop-color:#e5904a;stop-opacity:1"/><stop offset=".82" style="stop-color:#e48f4a;stop-opacity:1"/><stop offset=".82" style="stop-color:#e48e49;stop-opacity:1"/><stop offset=".82" style="stop-color:#e38d49;stop-opacity:1"/><stop offset=".83" style="stop-color:#e38c49;stop-opacity:1"/><stop offset=".83" style="stop-color:#e38b48;stop-opacity:1"/><stop offset=".84" style="stop-color:#e28a48;stop-opacity:1"/><stop offset=".84" style="stop-color:#e28947;stop-opacity:1"/><stop offset=".84" style="stop-color:#e18847;stop-opacity:1"/><stop offset=".85" style="stop-color:#e18847;stop-opacity:1"/><stop offset=".85" style="stop-color:#e18746;stop-opacity:1"/><stop offset=".86" style="stop-color:#e08646;stop-opacity:1"/><stop offset=".86" style="stop-color:#e08546;stop-opacity:1"/><stop offset=".86" style="stop-color:#df8445;stop-opacity:1"/><stop offset=".87" style="stop-color:#df8345;stop-opacity:1"/><stop offset=".87" style="stop-color:#df8244;stop-opacity:1"/><stop offset=".88" style="stop-color:#de8144;stop-opacity:1"/><stop offset=".88" style="stop-color:#de8044;stop-opacity:1"/><stop offset=".88" style="stop-color:#dd7f43;stop-opacity:1"/><stop offset=".89" style="stop-color:#dd7e43;stop-opacity:1"/><stop offset=".89" style="stop-color:#dd7d43;stop-opacity:1"/><stop offset=".89" style="stop-color:#dc7c42;stop-opacity:1"/><stop offset=".9" style="stop-color:#dc7c42;stop-opacity:1"/><stop offset=".9" style="stop-color:#db7b41;stop-opacity:1"/><stop offset=".91" style="stop-color:#db7a41;stop-opacity:1"/><stop offset=".91" style="stop-color:#db7941;stop-opacity:1"/><stop offset=".91" style="stop-color:#da7840;stop-opacity:1"/><stop offset=".92" style="stop-color:#da7740;stop-opacity:1"/><stop offset=".92" style="stop-color:#d97640;stop-opacity:1"/><stop offset=".93" style="stop-color:#d9753f;stop-opacity:1"/><stop offset=".93" style="stop-color:#d9743f;stop-opacity:1"/><stop offset=".93" style="stop-color:#d9753f;stop-opacity:1"/><stop offset=".94" style="stop-color:#d9763f;stop-opacity:1"/><stop offset=".94" style="stop-color:#d9763f;stop-opacity:1"/><stop offset=".95" style="stop-color:#d9773f;stop-opacity:1"/><stop offset=".95" style="stop-color:#da783f;stop-opacity:1"/><stop offset=".95" style="stop-color:#da793f;stop-opacity:1"/><stop offset=".96" style="stop-color:#da793f;stop-opacity:1"/><stop offset=".96" style="stop-color:#da7a3f;stop-opacity:1"/><stop offset=".96" style="stop-color:#da7b3f;stop-opacity:1"/><stop offset=".97" style="stop-color:#da7b3f;stop-opacity:1"/><stop offset=".97" style="stop-color:#db7c3f;stop-opacity:1"/><stop offset=".98" style="stop-color:#db7d3f;stop-opacity:1"/><stop offset=".98" style="stop-color:#db7d40;stop-opacity:1"/><stop offset=".98" style="stop-color:#db7e40;stop-opacity:1"/><stop offset=".99" style="stop-color:#db7f40;stop-opacity:1"/><stop offset=".99" style="stop-color:#db7f40;stop-opacity:1"/><stop offset="1" style="stop-color:#dc8040;stop-opacity:1"/><stop offset="1" style="stop-color:#dc8140;stop-opacity:1"/></linearGradient></defs></svg>