<?xml version="1.0" encoding="UTF-8" standalone="no"?><!DOCTYPE svg PUBLIC "-//W3C//DTD SVG 1.1//EN" "http://www.w3.org/Graphics/SVG/1.1/DTD/svg11.dtd"><svg width="100%" height="100%" viewBox="0 0 364 110" version="1.1" xmlns="http://www.w3.org/2000/svg" xmlns:xlink="http://www.w3.org/1999/xlink" xml:space="preserve" xmlns:serif="http://www.serif.com/" style="fill-rule:evenodd;clip-rule:evenodd;stroke-linejoin:round;stroke-miterlimit:2;"><g><path d="M42.393,71.08l0,5.106l9.684,-2.283l0,-0.722c0,-8.132 -3.289,-10.324 -11.695,-10.324l-26.769,0c-8.863,0 -11.695,2.284 -11.695,11.147l0,5.207c0,8.862 2.832,11.146 11.695,11.146l29.419,0l0,10.781l-33.348,0l0,-5.073l-9.684,2.01l0,0.779c0,8.862 2.923,11.146 11.786,11.146l29.145,0c8.862,0 11.785,-2.284 11.785,-11.146l0,-6.486c0,-8.862 -2.923,-11.147 -11.785,-11.147l-29.42,0l0,-10.141l30.882,0Z" style="fill:#003473;fill-rule:nonzero;"/><path d="M73.878,102.6l0,-24.12l31.779,0l0,24.12l-31.779,0Zm-9.882,-22.11l0,20.373c0,7.31 2.423,9.137 10.252,9.137l30.474,0c7.735,0 10.251,-1.827 10.251,-9.137l0,-20.373c0,-7.4 -2.516,-9.136 -10.251,-9.136l-30.474,0c-7.735,0 -10.252,1.736 -10.252,9.136Z" style="fill:#003473;"/><path d="M127.129,110l8.812,0l0,-25.947l17.8,21.288l1.863,0l17.614,-21.926l0,26.585l8.946,0l0,-38.646l-7.735,0l-19.197,22.932l-19.291,-22.932l-8.812,0l0,38.646Z" style="fill:#003473;fill-rule:nonzero;"/><path d="M195.168,110l8.812,0l0,-25.947l17.8,21.288l1.864,0l17.613,-21.926l0,26.585l8.947,0l0,-38.646l-7.736,0l-19.197,22.932l-19.291,-22.932l-8.812,0l0,38.646Z" style="fill:#003473;fill-rule:nonzero;"/><path d="M262.774,110l42.774,0l0,-7.218l-33.083,0l0,-9.5l19.012,0l0,-6.67l-19.012,0l0,-8.406l32.618,0l0,-6.852l-42.309,0l0,38.646Z" style="fill:#003473;fill-rule:nonzero;"/><path d="M346.255,78.024c2.832,0 4.294,0.548 4.294,3.106l0,4.476c0,2.559 -1.462,3.107 -4.294,3.107l-21.47,0l0,-10.689l21.47,0Zm-30.79,31.976l9.32,0l0,-14.618l8.862,0l16.171,14.618l13.522,0l-18.364,-14.618l5.299,0c6.213,0 9.045,-2.1 9.045,-7.4l0,-9.137c0,-5.39 -2.832,-7.491 -9.045,-7.491l-34.81,0l0,38.646Z" style="fill:#003473;"/><path d="M12.517,38.499l0,-29.877l19.46,0c10.324,0 15.532,5.117 15.532,14.71c0,11.695 -6.944,15.167 -20.831,15.167l-14.161,0Zm-10.964,8.862l27.5,0c8.406,0 14.802,-0.822 19.369,-3.654c6.579,-4.021 10.416,-11.329 10.416,-20.192c0,-14.618 -9.319,-23.298 -26.952,-23.298l-30.333,0l0,47.144Z" style="fill:#003473;"/><path d="M100.792,15.383c2.833,0 4.294,0.548 4.294,3.106l0,4.477c0,2.56 -1.461,3.107 -4.294,3.107l-21.471,0l0,-10.69l21.471,0Zm-30.79,31.978l9.319,0l0,-14.618l8.863,0l16.171,14.618l13.522,0l-18.364,-14.618l5.299,0c6.213,0 9.045,-2.102 9.045,-7.401l0,-9.136c0,-5.391 -2.832,-7.492 -9.045,-7.492l-34.81,0l0,38.647Z" style="fill:#003473;"/><path d="M126.799,47.361l41.936,0l0,-7.218l-32.434,0l0,-9.502l18.638,0l0,-6.67l-18.638,0l0,-8.404l31.977,0l0,-6.853l-41.479,0l0,38.647Z" style="fill:#003473;fill-rule:nonzero;"/><path d="M179.637,47.361l41.936,0l0,-7.218l-32.435,0l0,-9.502l18.639,0l0,-6.67l-18.639,0l0,-8.404l31.978,0l0,-6.853l-41.479,0l0,38.647Z" style="fill:#003473;fill-rule:nonzero;"/><path d="M267.631,15.658l0,3.612l8.131,-1.737l0,-0.413c0,-6.761 -3.014,-8.406 -10.141,-8.406l-22.932,0c-7.583,0 -10.142,1.828 -10.142,9.136l0,4.294c0,7.31 2.559,9.137 10.142,9.137l25.033,0l0,8.862l-28.414,0l0,-4.068l-8.405,1.554l0,0.595c0,7.218 2.467,9.137 10.141,9.137l25.125,0c7.675,0 10.05,-1.919 10.05,-9.137l0,-5.299c0,-7.309 -2.375,-9.136 -10.05,-9.136l-25.125,0l0,-8.131l26.587,0Z" style="fill:#003473;fill-rule:nonzero;"/><path d="M309.257,39.138l0,-8.04l12.06,-7.491l14.161,11.786l-4.385,3.745l-21.836,0Zm2.558,8.223l16.811,0c3.929,0 5.847,-0.182 8.863,-2.833l4.202,-3.745l7.766,6.578l14.344,0l-14.892,-12.517l10.872,-9.045l-6.212,-5.39l-10.964,9.136l-22.201,-18.455l0,-3.382l15.44,0l0,6.305l8.496,-1.462l0,-2.832c0,-7.674 -3.197,-9.502 -11.694,-9.502l-9.502,0c-8.04,0 -11.694,1.828 -11.694,8.588l0,2.65c0,2.741 1.279,4.843 4.02,7.127l-9.594,5.756c-4.111,2.466 -5.847,3.929 -5.847,8.77l0,3.107c0,8.862 2.924,11.146 11.786,11.146Z" style="fill:#003473;"/></g></svg>