<svg viewBox="0 0 364 110" xmlns="http://www.w3.org/2000/svg" xml:space="preserve" style="fill-rule:evenodd;clip-rule:evenodd;stroke-linejoin:round;stroke-miterlimit:2"><path d="M42.393 71.08v5.106l9.684-2.283v-.722c0-8.132-3.289-10.324-11.695-10.324H13.613c-8.863 0-11.695 2.284-11.695 11.147v5.207c0 8.862 2.832 11.146 11.695 11.146h29.419v10.781H9.684v-5.073L0 98.075v.779C0 107.716 2.923 110 11.786 110h29.145c8.862 0 11.785-2.284 11.785-11.146v-6.486c0-8.862-2.923-11.147-11.785-11.147h-29.42V71.08h30.882Z" style="fill:#003473;fill-rule:nonzero"/><path d="M73.878 102.6V78.48h31.779v24.12H73.878Zm-9.882-22.11v20.373c0 7.31 2.423 9.137 10.252 9.137h30.474c7.735 0 10.251-1.827 10.251-9.137V80.49c0-7.4-2.516-9.136-10.251-9.136H74.248c-7.735 0-10.252 1.736-10.252 9.136Z" style="fill:#003473"/><path d="M127.129 110h8.812V84.053l17.8 21.288h1.863l17.614-21.926V110h8.946V71.354h-7.735l-19.197 22.932-19.291-22.932h-8.812V110ZM195.168 110h8.812V84.053l17.8 21.288h1.864l17.613-21.926V110h8.947V71.354h-7.736l-19.197 22.932-19.291-22.932h-8.812V110ZM262.774 110h42.774v-7.218h-33.083v-9.5h19.012v-6.67h-19.012v-8.406h32.618v-6.852h-42.309V110Z" style="fill:#003473;fill-rule:nonzero"/><path d="M346.255 78.024c2.832 0 4.294.548 4.294 3.106v4.476c0 2.559-1.462 3.107-4.294 3.107h-21.47V78.024h21.47ZM315.465 110h9.32V95.382h8.862L349.818 110h13.522l-18.364-14.618h5.299c6.213 0 9.045-2.1 9.045-7.4v-9.137c0-5.39-2.832-7.491-9.045-7.491h-34.81V110ZM12.517 38.499V8.622h19.46c10.324 0 15.532 5.117 15.532 14.71 0 11.695-6.944 15.167-20.831 15.167H12.517ZM1.553 47.361h27.5c8.406 0 14.802-.822 19.369-3.654 6.579-4.021 10.416-11.329 10.416-20.192C58.838 8.897 49.519.217 31.886.217H1.553v47.144ZM100.792 15.383c2.833 0 4.294.548 4.294 3.106v4.477c0 2.56-1.461 3.107-4.294 3.107H79.321v-10.69h21.471Zm-30.79 31.978h9.319V32.743h8.863l16.171 14.618h13.522L99.513 32.743h5.299c6.213 0 9.045-2.102 9.045-7.401v-9.136c0-5.391-2.832-7.492-9.045-7.492h-34.81v38.647Z" style="fill:#003473"/><path d="M126.799 47.361h41.936v-7.218h-32.434v-9.502h18.638v-6.67h-18.638v-8.404h31.977V8.714h-41.479v38.647ZM179.637 47.361h41.936v-7.218h-32.435v-9.502h18.639v-6.67h-18.639v-8.404h31.978V8.714h-41.479v38.647ZM267.631 15.658v3.612l8.131-1.737v-.413c0-6.761-3.014-8.406-10.141-8.406h-22.932c-7.583 0-10.142 1.828-10.142 9.136v4.294c0 7.31 2.559 9.137 10.142 9.137h25.033v8.862h-28.414v-4.068l-8.405 1.554v.595c0 7.218 2.467 9.137 10.141 9.137h25.125c7.675 0 10.05-1.919 10.05-9.137v-5.299c0-7.309-2.375-9.136-10.05-9.136h-25.125v-8.131h26.587Z" style="fill:#003473;fill-rule:nonzero"/><path d="M309.257 39.138v-8.04l12.06-7.491 14.161 11.786-4.385 3.745h-21.836Zm2.558 8.223h16.811c3.929 0 5.847-.182 8.863-2.833l4.202-3.745 7.766 6.578h14.344l-14.892-12.517 10.872-9.045-6.212-5.39-10.964 9.136-22.201-18.455V7.708h15.44v6.305l8.496-1.462V9.719c0-7.674-3.197-9.502-11.694-9.502h-9.502c-8.04 0-11.694 1.828-11.694 8.588v2.65c0 2.741 1.279 4.843 4.02 7.127l-9.594 5.756c-4.111 2.466-5.847 3.929-5.847 8.77v3.107c0 8.862 2.924 11.146 11.786 11.146Z" style="fill:#003473"/></svg>