<?xml version="1.0" encoding="UTF-8" standalone="no"?><!DOCTYPE svg PUBLIC "-//W3C//DTD SVG 1.1//EN" "http://www.w3.org/Graphics/SVG/1.1/DTD/svg11.dtd"><svg width="100%" height="100%" viewBox="0 0 114 32" version="1.1" xmlns="http://www.w3.org/2000/svg" xmlns:xlink="http://www.w3.org/1999/xlink" xml:space="preserve" xmlns:serif="http://www.serif.com/" style="fill-rule:evenodd;clip-rule:evenodd;stroke-linejoin:round;stroke-miterlimit:1.41421;"><g id="Logo"><path d="M22.613,22.379c0,1.213 -0.728,1.618 -1.6,1.618c-0.679,0 -1.727,-0.248 -2.581,-0.481l0,-15.131c0.854,-0.226 1.902,-0.473 2.581,-0.473c0.872,0 1.6,0.405 1.6,1.618l0,12.849Zm-1.029,-18.423c-1.371,0 -3.349,0.405 -6.928,1.511l0,20.975c3.147,0.954 5.557,1.511 6.928,1.511c3.16,0 4.94,-1.933 4.94,-5.035l0,-13.927c0,-3.101 -1.78,-5.035 -4.94,-5.035" style="fill:#e41e25;fill-rule:nonzero;"/><path d="M68.691,25.539c0,1.213 -0.405,1.843 -1.933,1.888c-1.573,0.045 -2.001,-0.629 -2.001,-1.888l0,-19.155c0,-1.259 0.428,-1.955 2.001,-1.91c1.528,0.044 1.933,0.696 1.933,1.91l0,19.155Zm-1.933,-25.358c-4.001,-0.194 -6.383,1.573 -6.383,5.619l0,20.098c0,4.271 2.157,6.029 6.383,5.844c4.136,-0.18 6.293,-1.753 6.293,-6.293l0,-19.186c0,-4.329 -1.95,-5.871 -6.293,-6.082" style="fill:#e41e25;fill-rule:nonzero;"/><path d="M105.652,8.025l0,15.833c4.909,-2.333 7.728,-5.044 7.728,-7.948c0,-2.872 -2.819,-5.57 -7.728,-7.885" style="fill:#e41e25;fill-rule:nonzero;"/><path d="M0.141,15.91c0,2.9 2.814,5.615 7.723,7.943l0,-15.823c-4.909,2.311 -7.723,5.008 -7.723,7.88" style="fill:#e41e25;fill-rule:nonzero;"/><path d="M37.538,24.837c0,1.214 -0.418,1.983 -1.933,1.799c-1.488,-0.18 -1.888,-0.81 -1.888,-2.248l0,-22.827c-0.989,0.107 -3.192,0.413 -4.136,0.547l0,23.089c0,3.686 1.79,5.12 6.024,5.606c3.875,0.445 6.248,-1.515 6.248,-5.606l0,-24.392c-0.809,0.046 -3.461,0.27 -4.315,0.36l0,23.672Z" style="fill:#e41e25;fill-rule:nonzero;"/><path d="M85.032,17.294l-4.788,-15.621c-1.303,-0.171 -2.877,-0.347 -4.09,-0.459l0,29.485c0.854,-0.081 3.029,-0.328 4.153,-0.471l-0.341,-17.375l5.066,16.696c1.079,-0.171 2.652,-0.445 3.686,-0.644l0,-25.906c-1.079,-0.212 -3.039,-0.544 -3.983,-0.687l0.297,14.982Z" style="fill:#e41e25;fill-rule:nonzero;"/><path d="M53.272,14.809c0,1.321 -0.463,1.991 -2.216,1.995l-1.515,0.005l0,-12.124c0.674,-0.036 1.034,-0.045 1.438,-0.045c1.897,0 2.293,0.72 2.293,2.068l0,8.101Zm-2.041,-14.457c-0.751,0 -3.488,0.094 -6.006,0.242l0,30.726c0.854,0.045 3.102,0.162 4.316,0.193l0,-10.433l1.69,-0.004c4.522,-0.014 6.401,-2.041 6.401,-5.944l0,-9.053c0,-3.822 -2.112,-5.727 -6.401,-5.727" style="fill:#e41e25;fill-rule:nonzero;"/><path d="M90.853,7.531c1.068,0.191 2.121,0.404 3.147,0.629l0,19.604c0.944,-0.219 2.697,-0.678 3.866,-1.024l0,-17.654c1.121,0.29 2.179,0.582 3.147,0.859l0,-3.78c-3.053,-1.066 -6.33,-1.934 -10.16,-2.734l0,4.1Z" style="fill:#e41e25;fill-rule:nonzero;"/><path d="M112.708,25.463l-0.628,1.675l-0.627,-1.675l-0.616,0l0,2.262l0.405,0l0,-1.773l0.032,0.006l0.666,1.767l0.27,0l0.66,-1.767l0.044,-0.012l0,1.779l0.405,0l0,-2.262l-0.611,0Zm-4.133,0l0,0.39l0.682,0l0,1.872l0.405,0l0,-1.872l0.682,0l0,-0.39l-1.769,0Z" style="fill:#da2e27;fill-rule:nonzero;"/></g></svg>