<svg viewBox="0 0 114 32" xmlns="http://www.w3.org/2000/svg" xml:space="preserve" style="fill-rule:evenodd;clip-rule:evenodd;stroke-linejoin:round;stroke-miterlimit:1.41421"><path d="M22.613 22.379c0 1.213-.728 1.618-1.6 1.618-.679 0-1.727-.248-2.581-.481V8.385c.854-.226 1.902-.473 2.581-.473.872 0 1.6.405 1.6 1.618v12.849ZM21.584 3.956c-1.371 0-3.349.405-6.928 1.511v20.975c3.147.954 5.557 1.511 6.928 1.511 3.16 0 4.94-1.933 4.94-5.035V8.991c0-3.101-1.78-5.035-4.94-5.035M68.691 25.539c0 1.213-.405 1.843-1.933 1.888-1.573.045-2.001-.629-2.001-1.888V6.384c0-1.259.428-1.955 2.001-1.91 1.528.044 1.933.696 1.933 1.91v19.155ZM66.758.181c-4.001-.194-6.383 1.573-6.383 5.619v20.098c0 4.271 2.157 6.029 6.383 5.844 4.136-.18 6.293-1.753 6.293-6.293V6.263c0-4.329-1.95-5.871-6.293-6.082M105.652 8.025v15.833c4.909-2.333 7.728-5.044 7.728-7.948 0-2.872-2.819-5.57-7.728-7.885M.141 15.91c0 2.9 2.814 5.615 7.723 7.943V8.03C2.955 10.341.141 13.038.141 15.91M37.538 24.837c0 1.214-.418 1.983-1.933 1.799-1.488-.18-1.888-.81-1.888-2.248V1.561c-.989.107-3.192.413-4.136.547v23.089c0 3.686 1.79 5.12 6.024 5.606 3.875.445 6.248-1.515 6.248-5.606V.805c-.809.046-3.461.27-4.315.36v23.672ZM85.032 17.294 80.244 1.673a116.164 116.164 0 0 0-4.09-.459v29.485c.854-.081 3.029-.328 4.153-.471l-.341-17.375 5.066 16.696a132.11 132.11 0 0 0 3.686-.644V2.999a120.797 120.797 0 0 0-3.983-.687l.297 14.982ZM53.272 14.809c0 1.321-.463 1.991-2.216 1.995l-1.515.005V4.685a24.56 24.56 0 0 1 1.438-.045c1.897 0 2.293.72 2.293 2.068v8.101ZM51.231.352c-.751 0-3.488.094-6.006.242V31.32c.854.045 3.102.162 4.316.193V21.08l1.69-.004c4.522-.014 6.401-2.041 6.401-5.944V6.079c0-3.822-2.112-5.727-6.401-5.727M90.853 7.531c1.068.191 2.121.404 3.147.629v19.604a81.658 81.658 0 0 0 3.866-1.024V9.086c1.121.29 2.179.582 3.147.859v-3.78c-3.053-1.066-6.33-1.934-10.16-2.734v4.1Z" style="fill:#e41e25;fill-rule:nonzero"/><path d="m112.708 25.463-.628 1.675-.627-1.675h-.616v2.262h.405v-1.773l.032.006.666 1.767h.27l.66-1.767.044-.012v1.779h.405v-2.262h-.611Zm-4.133 0v.39h.682v1.872h.405v-1.872h.682v-.39h-1.769Z" style="fill:#da2e27;fill-rule:nonzero"/></svg>