<svg viewBox="0 0 1684 667" xmlns="http://www.w3.org/2000/svg" xml:space="preserve" style="fill-rule:evenodd;clip-rule:evenodd;stroke-linejoin:round;stroke-miterlimit:2"><path d="M344.287 419.04c4.722.117 9.213-3.69 13.616-10.794l-5.559.004-8.057 10.79m556.122 41.103 39.754-.028-.342-3.998-39.415.028.003 3.998Zm-404.134-36.276.039 56.286 4.579-.003-.04-56.286-4.578.003Zm-385.121 56.712-.039-56.4c-1.031-.135-1.794-.317-2.555-.314-.754.004-1.507.193-2.372.317l.04 56.401 4.926-.004Zm1311.5-57.464.039 56.746 5.166-.263-.04-56.486-5.165.003Zm48.363.002.04 56.414 36.872-.025-.262-4.6-31.497.022-.036-51.814-5.117.003Zm-849.926.539c.01 13.975-.442 27.535.214 41.041.353 7.308 4.866 12.956 12.11 15.179 3.871 1.189 8.201 1.608 12.255 1.338 12.162-.816 19.202-8.434 19.363-20.609.149-11.338.037-22.68.011-34.019-.002-.913-.227-1.825-.361-2.828l-5.272.004.004 5.451c0 10.222.197 20.449-.05 30.665-.294 12.155-6.224 17.373-18.312 16.633-.479-.029-.954-.085-1.431-.136-7.317-.782-11.95-5.255-12.831-12.555-.267-2.211-.269-4.463-.276-6.696-.036-9.584-.018-19.167-.044-28.749-.004-1.526-.129-3.052-.205-4.723l-5.175.004Zm420.787 34.767c-.251 1.023-.448 1.776-.619 2.535-2.02 8.979-7.656 14.498-15.561 15.23-9.661.896-17.225-3.332-20.771-11.962-3.566-8.68-3.543-17.535.37-26.045 3.522-7.662 9.898-11.522 18.38-11.378 7.961.137 13.605 3.915 16.635 11.396.284.703.7 1.354 1.139 2.189 1.644-.122 3.131-.231 5.77-.424-1.899-3.695-2.98-6.918-4.951-9.445-9.388-12.029-30.044-11.429-39.283 1.151-6.232 8.486-7.515 18.064-5.263 28.247 3.298 14.901 15.01 22.843 30.002 20.984 8.838-1.097 18.804-9.09 19.24-22.482l-5.088.004Zm-671.625-34.407-38.665.027.039 56.36 38.731-.027-.003-4.863-33.161.023-.015-22.04 31.249-.022-.542-5.117-30.836.021-.014-19.794 33.22-.023-.003-4.545Zm767.321 26.138c-.514-2.541-.993-6.691-2.215-10.608-3.058-9.805-11.732-16.733-21.263-17.485-11.702-.926-21.132 2.807-26.722 13.615-4.453 8.611-4.82 17.701-1.992 26.95 5.261 17.196 25.424 24.267 40.318 14.079 8.775-6.001 11.155-15.074 11.874-26.551m165.817-10.748c-.085-5.064-1.748-8.874-5.001-12.014-7.42-7.159-22.822-7.649-30.583-.879-4.377 3.818-5.58 8.873-4.692 14.375.859 5.32 4.562 8.269 9.454 9.777 3.504 1.079 7.116 1.805 10.643 2.813 3.674 1.05 7.506 1.827 10.909 3.468 7.34 3.542 7.634 11.959.823 16.413-5.828 3.811-17.148 3.709-22.899-.212-4.032-2.748-5.283-6.962-5.84-11.651l-4.661.004c-1.059 7.062 1.63 13.18 7.77 16.208 9.424 4.646 19.128 4.61 28.637.111 3.982-1.882 6.248-5.364 7.064-9.704 1.596-8.483-1.861-14.334-10.677-17.167-6.071-1.95-12.347-3.258-18.512-4.923-4.846-1.307-7.12-3.727-7.374-7.629-.317-4.865 1.783-8.348 6.211-10.297 10.201-4.494 19.74-.047 23.772 11.31l4.956-.003Zm47.524-11.738 33.484-.023-.582-4.473-38.547.027.04 56.427 39.376-.027-.417-4.847-33.165.023-.015-21.83 31.022-.021-.405-4.946-30.777.022-.014-20.332ZM583.3 475.439l-33.27.023-.015-21.982 31.214-.021-.527-5.211-30.673.021-.014-20.041 32.868-.023c.204-1.065.438-1.671.402-2.26-.047-.735-.317-1.457-.481-2.151l-38.735.027.039 56.276 39.463-.027-.271-4.631m247.153-35.718c-.025-5.811-2.172-9.904-6.126-13.074-7.318-5.867-20.854-6.137-28.38-.571-4.835 3.577-6.637 8.586-5.901 14.328.724 5.654 4.432 9.007 9.768 10.645 1.068.328 2.152.607 3.23.9 5.697 1.548 11.457 2.899 17.071 4.706 3.872 1.247 6.797 3.948 6.902 8.312.112 4.625-2.48 7.945-6.63 9.672-6.841 2.846-13.743 2.55-20.401-.714-3.392-1.663-5.045-4.781-5.974-8.299-.318-1.201-.46-2.45-.699-3.778l-5.016.004c-.455 7.095 1.739 12.82 7.82 15.969 9.652 4.998 19.669 4.89 29.461.048 1.504-.744 2.841-2.101 3.881-3.461 6.452-8.426 2.962-19.375-7.586-22.968-6.181-2.106-12.644-3.38-18.961-5.096-4.724-1.283-7.056-3.8-7.347-7.718-.328-4.423 1.807-8.136 5.924-10.039 4.383-2.028 8.903-2.223 13.546-.879 6.036 1.744 9.221 5.946 10.24 12.016l5.178-.003Zm753.095-.477c.446-5.055-1.507-8.61-4.467-11.693-7.139-7.436-23.276-8.16-30.922-1.262-4.203 3.79-5.925 8.747-4.824 14.335 1.02 5.176 4.517 8.341 9.468 9.833 3.512 1.058 7.117 1.803 10.645 2.817 3.823 1.1 7.836 1.881 11.352 3.634 6.74 3.36 7.122 11.718.883 15.987-6.216 4.253-13.107 3.644-19.849 1.729-5.977-1.698-8.432-6.412-9.021-12.295-.029-.293-.258-.566-.43-.925l-5.266.003c.238 7.421 2.458 13.336 9.158 16.465 8.51 3.975 17.345 3.982 26.085.74 5.397-2.001 8.408-6.272 9.34-11.852 1.246-7.472-2.897-13.554-11.161-16.085-6.099-1.867-12.362-3.202-18.525-4.871-4.741-1.285-6.961-3.777-7.236-7.811-.3-4.392 1.933-8.142 6.013-10.024 7.98-3.682 21.076-1.487 23.457 9.975.09.436.415.825.666 1.303l4.634-.003Zm-876.29-15.712.039 56.523 5.542-.004-.017-24.643c8.073-.006 15.398-.099 22.72.027 2.945.052 5.368 1.67 6.262 4.45 1.058 3.287 1.608 6.756 2.164 10.18.55 3.381-.102 7.013 2.092 10.038l4.707-.004c-.511-4.478-1.195-8.703-1.43-12.952-.343-6.189-1.419-11.824-7.5-14.065 2.336-2.585 5.316-4.756 6.758-7.685 5.222-10.602-.863-20.954-13.019-21.762-9.206-.612-18.486-.11-28.318-.103m-423.122 32.722c.675 9.582-3.671 17.047-11.696 19.473-9.039 2.733-17.986 1.109-23.661-6.716-6.236-8.598-6.597-23.864-.681-32.718 4.607-6.892 11.248-9.913 19.371-8.845 7.489.987 13.083 4.841 15.479 12.435.178.568.573 1.069.958 1.761l4.834-.343c-.692-4.493-2.347-8.018-5.052-11.079-9.886-11.187-30.372-10.321-39.278 1.987-7.551 10.438-8.234 22.199-3.48 33.736 7.361 17.855 29.501 21.338 42.389 7.172.245-.268.757-.293 1.477-.55l.876 8.006 3.574-.409-.02-28.285-23.988.017.34 4.371 18.558-.013Zm163.169-32.36.032 45.207c-.342.107-.684.216-1.024.324-10.571-15.274-21.139-30.549-31.441-45.435l-6.085.004.039 56.58 5.248-.35-.032-45.766 1-.404c10.738 15.507 21.477 31.012 32.005 46.217l5.941-.004-.039-56.377-5.644.004Zm-287.907 10.963c.362-.159.723-.318 1.086-.476l31.884 46.069 6.155-.005-.039-56.272-5.518.004.032 45.665-.934.379-31.914-46.157-6.025.004.039 56.242 5.266-.003-.032-45.45Zm1023.33 44.898-.031-44.982 1.243-.41 31.65 45.731 5.549-.343-.04-56.698c-1.801.104-3.177.183-5.152.295l.032 45.803-.993.252-31.837-46.027-6.272.004.039 56.379 5.812-.004Zm-527.68-286.732c1.723-.167 2.513-.311 3.304-.311 21.419.027 42.849-.314 64.251.291 8.845.25 17.863 1.706 26.391 4.088 13.597 3.8 22.954 11.716 22.586 29.421-.588 28.281-.067 56.583-.142 84.876-.017 6.714 2.959 11.158 8.885 13.999 6.858 3.289 13.946 3.426 21.027 1.322 7.777-2.31 11.57-6.954 11.577-14.007.034-33.568.101-67.137-.164-100.702-.098-12.569-5.771-22.741-15.63-30.478-8.833-6.932-19.077-10.901-29.849-13.615-16.998-4.285-34.336-5.534-51.793-5.542-27.014-.015-54.029.003-81.043.076-3.018.008-6.07.257-9.048.751-8.733 1.45-12.162 5.513-12.159 14.289.012 44.438.124 88.876.014 133.313-.019 7.592 3.251 12.527 10.099 15.115 2.942 1.111 6.145 2.012 9.256 2.108 11.605.356 23.174-3.384 22.759-21.175-.837-35.947-.292-71.926-.317-107.891l-.004-5.928Zm482.917 53.502c.009 13.429-.035 26.858.046 40.286.054 9.068 3.412 16.764 9.932 23.114 6.584 6.412 14.639 10.18 23.194 13.018 16.383 5.435 33.4 7.304 50.49 7.691 14.991.34 30.038-.159 45.011-1.074 14.388-.88 28.525-3.732 41.836-9.539 18.036-7.866 30.213-20.347 29.123-42.679-.29-5.93-2.661-9.61-8.14-11.711-6.925-2.655-14.131-2.619-21.273-1.491-8.532 1.346-11.836 5.277-12.033 13.966-.18 7.961-3.649 14.07-10.617 17.463-5.674 2.761-11.788 5.094-17.964 6.258-16.877 3.176-33.987 3.537-51.081 2.042-8.107-.709-16.177-2.034-23.593-5.773-8.356-4.211-13.306-10.366-13.175-20.359.266-20.299.193-40.606-.024-60.907-.09-8.404 3.364-14.713 10.46-18.565 5.122-2.779 10.735-5.084 16.408-6.338 18.594-4.11 37.465-3.666 56.285-1.887 7.63.723 15.114 2.544 21.953 6.334 7.128 3.95 11.178 9.702 11.31 18.098.094 5.953 2.291 9.04 7.901 10.554 7.519 2.028 15.237 2.04 22.747-.022 5.475-1.504 8.986-5.179 9.882-11.116 1.761-11.692-.57-22.225-8.513-31.214-6.65-7.527-15.259-11.98-24.571-15.219-22.705-7.899-46.334-8.896-70.007-8.756-11.628.069-23.295 1.08-34.863 2.382-12.896 1.451-25.46 4.551-37.094 10.641-15.475 8.103-24.189 20.27-23.718 38.357.317 12.141.076 24.297.088 36.446m-624.114-25.307-6.723.005c-22.702.016-45.406-.072-68.106.14-4.224.04-8.583.823-12.619 2.093-5.062 1.596-5.436 6.132-5.148 10.68.272 4.269 1.995 6.724 6.369 7.925 3.208.88 6.582 1.597 9.886 1.61 27.817.105 55.637.25 83.45-.15 6.584-.095 13.313-1.624 19.665-3.529 7.325-2.197 10.111-6.861 10.152-14.41.037-6.874.076-13.75-.065-20.622-.206-9.933-4.138-18.22-11.378-25.005-5.945-5.57-13.012-9.156-20.547-11.986-14.378-5.401-29.445-7.347-44.598-8.217-24.136-1.386-48.246-.845-72.075 3.852-10.699 2.108-21.081 5.292-30.505 10.997-11.916 7.216-20.058 17.177-20.229 31.618-.318 27.013-.106 54.034-.006 81.052.026 7.268 2.575 13.735 7.16 19.399 7.028 8.681 16.617 13.284 26.857 16.777 15.108 5.154 30.848 6.968 46.643 7.682 21.725.983 43.47.741 65.001-2.96 12.479-2.144 24.701-5.21 35.648-11.965 9.563-5.897 16.162-13.919 17.852-25.355 1.05-7.094-2.821-12.192-9.842-13.284-6.683-1.04-13.329-1.264-20.023-.015-5.816 1.087-10.158 3.667-11.481 9.91-1.17 5.522-4.828 9.088-9.88 10.862-5.093 1.788-10.372 3.348-15.699 4.113-16.017 2.298-32.176 2.636-48.314 1.948-10.042-.427-20.098-1.442-29.451-5.725-8.625-3.95-13.404-10.166-13.289-20.151.243-21.26.086-42.525.022-63.788-.031-10.279 4.348-18.072 13.595-22.371 5.721-2.66 11.92-4.743 18.125-5.837 18.36-3.233 36.882-3.24 55.372-.937 7.485.931 14.754 2.795 21.347 6.681 5.444 3.208 9.625 7.625 11.039 13.852 1.045 4.6 1.158 9.413 1.795 15.111m524.329-.364-5.935.004c-22.697.015-45.396-.083-68.091.148-4.209.042-8.542.974-12.569 2.271-4.525 1.458-5.242 5.659-5.123 9.846.123 4.329 2.254 7.41 6.415 8.526 3.513.94 7.212 1.64 10.832 1.656 27.172.115 54.346.133 81.517-.068 5.394-.04 10.86-.76 16.151-1.853 10.841-2.238 15.067-7.771 15.062-18.759-.003-5.435.057-10.87-.031-16.303-.175-10.939-4.133-20.177-12.394-27.523-5.715-5.081-12.384-8.43-19.44-11.096-14.66-5.542-30.047-7.488-45.524-8.364-23.978-1.356-47.919-.716-71.582 3.919-10.851 2.125-21.393 5.355-30.874 11.28-11.455 7.162-19.509 16.869-19.675 30.925-.323 27.329-.086 54.664-.016 81.996.016 6.43 2.247 12.173 6.002 17.365 6.783 9.383 16.559 14.278 27.089 17.957 15.533 5.428 31.745 7.29 48.021 8.004 21.398.941 42.81.671 64.031-2.901 12.342-2.078 24.391-5.125 35.306-11.548 9.825-5.781 16.579-13.856 18.692-25.366 1.316-7.167-2.585-12.651-9.818-13.759-6.518-1-12.984-1.191-19.546-.117-6.531 1.069-10.936 4.135-12.316 10.865-.757 3.69-3.02 6.421-6.187 8.14-3.059 1.661-6.309 3.386-9.671 3.989-8.148 1.462-16.383 2.588-24.631 3.305-16.747 1.456-33.525 1.64-50.142-1.335-4.657-.834-9.273-2.492-13.599-4.452-7.996-3.624-12.043-9.879-11.967-18.97.174-21.096 0-42.197.025-63.295.016-13.138 5.362-20.685 17.742-25.483 7.362-2.853 15.006-4.218 22.836-4.987 17.244-1.694 34.446-1.864 51.547 1.218 6.943 1.251 13.598 3.51 19.309 7.939 8.672 6.725 9.68 15.967 8.554 26.826m360.44 23.718.1.001c.009 12.621-.139 25.247.077 37.865.163 9.502 3.94 17.638 10.469 24.524 7.238 7.632 16.283 12.241 26.083 15.517 13.257 4.432 26.935 6.458 40.864 7.441 22.076 1.56 44.046 1.217 65.896-2.439 12.029-2.012 23.688-5.317 34.31-11.546 14.548-8.53 22.235-21.017 22.129-38.15-.138-22.376.11-44.757-.205-67.129a51.466 51.466 0 0 0-2.797-15.895c-3.825-11.011-12.255-18.098-22.343-23.257-17.765-9.081-37.115-11.491-56.626-12.581-18.676-1.042-37.382-.696-55.941 1.985-13 1.879-25.745 4.845-37.461 11.133-15.178 8.146-24.689 19.958-24.589 38.017.063 11.504.026 23.009.034 34.514M157.43 156.858c-33.06 1.898-76.113 32.712-77.331 85.056-1.176 50.506 38.887 89.583 86.738 90.455 48.451.883 90.207-37.439 90.03-88.628-.187-53.307-43.511-84.817-77.621-86.944l.06 86.001-21.816.015-.06-85.955ZM.461 668.35-.003.652l1683.64-1.171.464 667.698L.461 668.35Z" style="fill:#fffefc;fill-rule:nonzero"/><path d="m157.433 156.858.06 85.956 21.816-.016-.06-86.001c34.11 2.127 77.434 33.637 77.62 86.945.178 51.188-41.579 89.509-90.029 88.626-47.851-.872-87.914-39.948-86.738-90.454 1.218-52.345 44.271-83.158 77.331-85.056" style="fill:#018e4b;fill-rule:nonzero"/><path d="M1557.02 244.711c-.008-10.227-.087-20.453.002-30.679.063-7.143-2.739-12.671-8.719-16.562-6.444-4.192-13.738-5.978-21.189-7.03-17.489-2.468-35.064-2.257-52.576-.504-6.284.629-12.57 2.305-18.585 4.314-11.441 3.819-15.768 10.301-15.765 22.242.004 19.335.05 38.668.028 58.003-.009 8.705 3.889 14.887 11.615 18.822 6.363 3.241 13.219 4.76 20.183 5.684 16.699 2.215 33.477 2.068 50.201.501 8.245-.773 16.425-2.414 23.904-6.429 7.277-3.91 11.089-9.732 10.957-18.162-.158-10.064-.049-20.134-.056-30.2m-158.402-.139c-.008-11.505.03-23.009-.034-34.514-.101-18.059 9.411-29.87 24.589-38.016 11.716-6.289 24.461-9.256 37.461-11.134 18.559-2.682 37.265-3.026 55.941-1.984 19.511 1.089 38.86 3.498 56.625 12.581 10.089 5.158 18.519 12.245 22.344 23.255a51.45 51.45 0 0 1 2.796 15.895c.316 22.374.068 44.753.206 67.13.106 17.134-7.581 29.619-22.129 38.15-10.622 6.229-22.28 9.534-34.309 11.546-21.851 3.655-43.82 3.998-65.897 2.439-13.929-.984-27.606-3.009-40.864-7.442-9.8-3.276-18.846-7.884-26.082-15.516-6.53-6.886-10.307-15.021-10.47-24.524-.216-12.619-.068-25.243-.077-37.865l-.1-.001M1038.18 220.854c1.127-10.859.118-20.101-8.553-26.826-5.71-4.429-12.366-6.688-19.309-7.94-17.1-3.081-34.304-2.912-51.548-1.217-7.829.769-15.473 2.134-22.835 4.987-12.381 4.798-17.727 12.344-17.741 25.482-.026 21.099.148 42.199-.026 63.296-.076 9.091 3.972 15.346 11.967 18.97 4.326 1.96 8.942 3.617 13.599 4.451 16.617 2.977 33.395 2.792 50.142 1.335 8.247-.716 16.483-1.843 24.63-3.303 3.363-.604 6.613-2.328 9.672-3.989 3.166-1.719 5.43-4.451 6.187-8.142 1.38-6.728 5.785-9.795 12.316-10.864 6.562-1.074 13.028-.883 19.545.117 7.234 1.108 11.135 6.592 9.819 13.758-2.112 11.511-8.866 19.586-18.691 25.367-10.916 6.423-22.965 9.47-35.307 11.548-21.222 3.572-42.633 3.842-64.031 2.901-16.276-.714-32.488-2.576-48.021-8.004-10.529-3.679-20.306-8.574-27.09-17.957-3.753-5.192-5.985-10.935-6.002-17.365-.069-27.332-.307-54.667.016-81.996.166-14.057 8.221-23.764 19.677-30.925 9.479-5.926 20.022-9.154 30.873-11.28 23.662-4.635 47.603-5.275 71.582-3.919 15.478.876 30.863 2.822 45.524 8.363 7.056 2.667 13.725 6.016 19.439 11.097 8.262 7.346 12.219 16.584 12.396 27.522.088 5.434.027 10.87.03 16.304.006 10.987-4.221 16.521-15.061 18.759-5.292 1.093-10.758 1.814-16.151 1.853-27.172.201-54.346.183-81.518.068-3.62-.016-7.319-.715-10.831-1.656-4.162-1.116-6.294-4.197-6.417-8.526-.118-4.188.599-8.388 5.124-9.846 4.026-1.297 8.36-2.229 12.569-2.271 22.695-.231 45.393-.132 68.092-.148l5.933-.004ZM513.853 221.218c-.639-5.699-.751-10.511-1.796-15.112-1.414-6.226-5.595-10.643-11.039-13.852-6.593-3.885-13.862-5.749-21.348-6.68-18.489-2.303-37.011-2.297-55.372.938-6.205 1.093-12.403 3.175-18.124 5.836-9.247 4.299-13.626 12.091-13.596 22.371.065 21.262.222 42.528-.021 63.788-.115 9.984 4.663 16.201 13.288 20.151 9.355 4.283 19.41 5.298 29.452 5.725 16.137.688 32.297.35 48.314-1.949 5.327-.764 10.606-2.324 15.699-4.112 5.053-1.774 8.71-5.34 9.88-10.862 1.323-6.243 5.665-8.823 11.481-9.909 6.694-1.25 13.34-1.027 20.022.013 7.022 1.092 10.893 6.19 9.844 13.285-1.691 11.435-8.29 19.457-17.853 25.356-10.948 6.753-23.168 9.819-35.647 11.964-21.532 3.701-43.277 3.943-65.001 2.96-15.796-.714-31.535-2.528-46.643-7.682-10.241-3.492-19.829-8.096-26.858-16.778-4.584-5.664-7.134-12.13-7.161-19.398-.1-27.018-.31-54.039.008-81.053.169-14.439 8.312-24.402 20.228-31.618 9.424-5.705 19.807-8.888 30.505-10.996 23.828-4.697 47.939-5.238 72.075-3.852 15.153.87 30.22 2.816 44.598 8.217 7.535 2.83 14.603 6.416 20.546 11.986 7.241 6.785 11.172 15.071 11.378 25.005.142 6.872.102 13.748.065 20.623-.041 7.548-2.826 12.211-10.152 14.409-6.351 1.905-13.079 3.434-19.664 3.529-27.812.4-55.633.255-83.45.15-3.304-.013-6.679-.73-9.886-1.611-4.375-1.2-6.097-3.655-6.368-7.924-.288-4.548.085-9.085 5.147-10.679 4.035-1.271 8.395-2.055 12.619-2.094 22.701-.212 45.404-.124 68.105-.14l6.725-.005ZM1137.96 246.526c-.01-12.15.231-24.306-.085-36.448-.473-18.085 8.242-30.254 23.717-38.356 11.634-6.091 24.197-9.191 37.094-10.641 11.569-1.303 23.235-2.313 34.864-2.382 23.672-.139 47.302.857 70.006 8.755 9.312 3.24 17.921 7.692 24.571 15.219 7.943 8.991 10.274 19.524 8.513 31.214-.895 5.939-4.406 9.612-9.882 11.116-7.51 2.062-15.228 2.05-22.747.023-5.61-1.514-7.807-4.6-7.901-10.554-.131-8.395-4.183-14.148-11.31-18.098-6.838-3.79-14.324-5.611-21.953-6.333-18.82-1.78-37.692-2.223-56.285 1.886-5.673 1.254-11.286 3.559-16.408 6.339-7.096 3.85-10.549 10.16-10.46 18.564.216 20.3.29 40.607.024 60.906-.131 9.993 4.82 16.149 13.175 20.361 7.416 3.738 15.487 5.063 23.594 5.772 17.093 1.495 34.204 1.134 51.08-2.043 6.175-1.162 12.29-3.496 17.964-6.258 6.968-3.391 10.437-9.502 10.618-17.462.196-8.688 3.5-12.621 12.032-13.967 7.142-1.127 14.348-1.163 21.273 1.491 5.479 2.101 7.85 5.782 8.139 11.711 1.091 22.332-11.087 34.813-29.122 42.68-13.312 5.807-27.448 8.659-41.836 9.539-14.973.915-30.02 1.414-45.01 1.074-17.091-.387-34.107-2.255-50.491-7.69-8.556-2.839-16.61-6.607-23.195-13.02-6.519-6.349-9.877-14.044-9.931-23.113-.08-13.428-.037-26.857-.048-40.285M655.049 193.024l.004 5.927c.025 35.965-.519 71.944.317 107.891.416 17.791-11.154 21.532-22.76 21.174-3.11-.096-6.313-.997-9.256-2.108-6.847-2.587-10.117-7.522-10.097-15.115.109-44.437-.003-88.874-.015-133.312-.002-8.775 3.426-12.84 12.16-14.289a56.292 56.292 0 0 1 9.047-.752c27.014-.072 54.03-.09 81.043-.076 17.458.01 34.795 1.259 51.793 5.542 10.771 2.715 21.016 6.684 29.849 13.617 9.858 7.737 15.533 17.908 15.631 30.476.263 33.567.197 67.134.163 100.702-.006 7.054-3.8 11.698-11.576 14.009-7.081 2.103-14.17 1.965-21.027-1.323-5.927-2.841-8.903-7.286-8.885-14 .074-28.293-.447-56.595.141-84.874.368-17.706-8.989-25.621-22.586-29.421-8.527-2.384-17.547-3.839-26.39-4.089-21.402-.606-42.833-.264-64.252-.29-.79-.002-1.58.143-3.304.311M1182.73 479.755l-5.813.004-.04-56.379 6.273-.005 31.836 46.027.994-.251-.032-45.803 5.152-.295.039 56.698-5.548.343-31.65-45.732-1.243.411.032 44.982ZM159.395 434.857l.031 45.449-5.265.004-.039-56.241 6.026-.005 31.913 46.157.935-.379-.032-45.665 5.516-.003.039 56.271-6.154.004c-10.544-15.233-21.214-30.651-31.884-46.069l-1.086.477M447.302 423.894l5.644-.004.039 56.376-5.941.004-32.005-46.215c-.333.133-.667.268-1 .403l.032 45.766c-1.872.126-3.355.224-5.248.35l-.039-56.58 6.085-.004c10.302 14.887 20.87 30.161 31.441 45.435l1.024-.324-.032-45.207ZM284.133 456.254l-18.558.013-.34-4.371 23.988-.017.02 28.285-3.574.409-.877-8.006c-.718.257-1.231.281-1.476.55-12.888 14.166-35.029 10.683-42.388-7.172-4.755-11.537-4.073-23.298 3.48-33.736 8.905-12.308 29.391-13.174 39.276-1.987 2.705 3.061 4.362 6.587 5.053 11.079l-4.835.343c-.383-.692-.778-1.193-.958-1.761-2.395-7.594-7.989-11.449-15.478-12.435-8.123-1.068-14.765 1.952-19.371 8.846-5.917 8.853-5.554 24.119.68 32.718 5.675 7.824 14.622 9.448 23.662 6.716 8.024-2.426 12.371-9.892 11.696-19.474M712.549 450.028c7.891-.005 15.375.473 22.765-.161 6.454-.555 9.991-5.869 9.316-12.205-.625-5.858-4.448-9.263-11.159-9.471-6.203-.192-12.418-.053-18.625-.002-.726.006-1.448.39-2.311.637l.014 21.202Zm-5.294-26.497c9.832-.006 19.112-.509 28.318.104 12.156.808 18.241 11.159 13.019 21.762-1.442 2.928-4.422 5.1-6.758 7.685 6.081 2.241 7.157 7.875 7.5 14.065.235 4.249.919 8.474 1.43 12.952l-4.707.003c-2.194-3.023-1.542-6.656-2.092-10.037-.556-3.424-1.106-6.893-2.164-10.18-.894-2.779-3.317-4.398-6.262-4.449-7.322-.127-14.647-.033-22.72-.028l.017 24.642-5.542.004-.039-56.523ZM1583.55 439.244l-4.634.003c-.251-.478-.576-.867-.666-1.303-2.381-11.462-15.477-13.657-23.458-9.975-4.08 1.882-6.312 5.632-6.012 10.024.275 4.034 2.495 6.526 7.237 7.811 6.162 1.669 12.425 3.004 18.524 4.871 8.264 2.531 12.408 8.613 11.161 16.085-.932 5.58-3.943 9.851-9.34 11.852-8.74 3.242-17.576 3.235-26.085-.74-6.7-3.129-8.92-9.044-9.158-16.465l5.265-.003c.173.359.402.632.431.925.589 5.883 3.044 10.597 9.021 12.295 6.742 1.915 13.633 2.524 19.848-1.729 6.241-4.269 5.858-12.627-.882-15.987-3.515-1.753-7.529-2.534-11.353-3.634-3.527-1.014-7.132-1.759-10.644-2.817-4.951-1.492-8.449-4.657-9.468-9.833-1.1-5.588.621-10.545 4.824-14.335 7.646-6.898 23.782-6.174 30.922 1.262 2.96 3.083 4.913 6.638 4.467 11.693M830.45 439.721l-5.178.004c-1.019-6.07-4.205-10.272-10.24-12.017-4.642-1.344-9.163-1.149-13.547.879-4.117 1.903-6.25 5.616-5.923 10.039.291 3.918 2.623 6.434 7.348 7.718 6.317 1.716 12.779 2.99 18.959 5.096 10.549 3.593 14.039 14.542 7.587 22.968-1.04 1.36-2.377 2.718-3.881 3.461-9.792 4.843-19.809 4.949-29.462-.047-6.081-3.15-8.273-8.875-7.818-15.97l5.014-.003c.241 1.327.382 2.576.7 3.776.928 3.519 2.582 6.637 5.973 8.301 6.659 3.264 13.561 3.559 20.401.713 4.151-1.727 6.742-5.046 6.631-9.672-.106-4.364-3.03-7.066-6.902-8.312-5.614-1.806-11.373-3.157-17.071-4.705-1.079-.293-2.162-.572-3.23-.901-5.336-1.638-9.044-4.992-9.769-10.644-.735-5.743 1.067-10.753 5.901-14.329 7.527-5.566 21.063-5.296 28.381.571 3.955 3.17 6.101 7.263 6.126 13.074M583.297 475.44l.272 4.63-39.465.028-.039-56.277 38.735-.027c.165.694.436 1.415.483 2.152.036.588-.199 1.194-.404 2.258l-32.866.023.014 20.041 30.672-.021.527 5.212-31.214.022.015 21.982 33.27-.023ZM1350.91 427.668l.014 20.332 15.357-.011 15.42-.011.404 4.946-31.022.021.016 21.83 33.165-.023.417 4.846-39.377.028-.039-56.427 38.546-.027.584 4.473-33.485.023ZM1303.39 439.406l-4.956.003c-4.032-11.357-13.571-15.805-23.772-11.311-4.428 1.95-6.528 5.433-6.211 10.298.254 3.902 2.528 6.322 7.374 7.629 6.165 1.665 12.441 2.973 18.512 4.923 8.816 2.833 12.273 8.683 10.677 17.167-.816 4.34-3.082 7.821-7.064 9.705-9.509 4.497-19.213 4.534-28.637-.112-6.14-3.028-8.829-9.147-7.77-16.208l4.661-.004c.557 4.689 1.808 8.903 5.84 11.651 5.751 3.92 17.071 4.023 22.899.212 6.811-4.454 6.517-12.872-.823-16.413-3.403-1.641-7.235-2.418-10.909-3.468-3.527-1.007-7.139-1.734-10.643-2.814-4.892-1.507-8.595-4.457-9.454-9.776-.888-5.502.315-10.556 4.692-14.376 7.761-6.769 23.163-6.279 30.583.88 3.253 3.14 4.916 6.951 5.001 12.014M1111.29 426.639c-9.409.072-15.867 4.084-19.405 12.219-3.675 8.449-3.726 17.089.085 25.548 3.632 8.064 10.543 12.341 18.987 12.028 8.887-.329 15.174-4.539 18.453-12.831 3.258-8.237 3.186-16.617-.247-24.745-3.372-7.983-9.7-11.962-17.873-12.219m26.28 23.514c-.72 11.478-3.099 20.55-11.874 26.551-14.894 10.189-35.057 3.118-40.318-14.079-2.829-9.248-2.461-18.337 1.993-26.95 5.589-10.807 15.019-14.54 26.722-13.615 9.531.754 18.204 7.68 21.262 17.486 1.222 3.918 1.702 8.067 2.215 10.607M370.249 424.016l.003 4.545-33.219.023.014 19.793 30.836-.021c.196 1.84.333 3.148.541 5.118l-31.247.022.015 22.04 33.159-.023.003 4.863-38.73.027-.039-56.36 38.664-.027ZM1041.88 458.422l5.088-.003c-.436 13.392-10.401 21.385-19.24 22.482-14.992 1.86-26.704-6.083-30.001-20.983-2.254-10.184-.969-19.763 5.262-28.248 9.239-12.581 29.895-13.181 39.283-1.152 1.972 2.527 3.052 5.75 4.952 9.445l-5.77.424c-.439-.834-.856-1.484-1.141-2.188-3.029-7.481-8.673-11.26-16.634-11.395-8.483-.145-14.858 3.716-18.38 11.378-3.912 8.509-3.936 17.364-.369 26.044 3.545 8.631 11.11 12.857 20.77 11.962 7.905-.733 13.542-6.251 15.561-15.23.171-.76.368-1.512.619-2.536M621.088 423.655l5.175-.003c.076 1.671.201 3.196.205 4.723.026 9.581.008 19.165.043 28.748.008 2.234.01 4.485.277 6.696.881 7.302 5.514 11.773 12.831 12.557.476.049.953.105 1.43.135 12.09.74 18.019-4.478 18.312-16.634.247-10.215.051-20.442.051-30.663 0-1.718-.003-3.436-.004-5.452l5.272-.003c.134 1.003.358 1.914.36 2.828.027 11.339.139 22.68-.011 34.018-.161 12.175-7.2 19.793-19.362 20.608-4.054.272-8.384-.149-12.255-1.336-7.244-2.225-11.756-7.872-12.11-15.18-.656-13.506-.204-27.067-.214-41.042M1471.02 423.118l5.115-.004.036 51.814 31.498-.022.263 4.6-36.873.026-.039-56.414ZM1422.65 423.115l5.166-.003.039 56.486-5.165.263-.04-56.746ZM111.154 480.579l-4.926.004-.04-56.4c.865-.125 1.617-.314 2.372-.318.761-.003 1.524.179 2.555.315l.039 56.399Z" style="fill:#898989;fill-rule:nonzero"/><path d="m500.893 480.149-.039-56.286-4.579.003.039 56.286 4.579-.003Z" style="fill:#898989"/><path d="m900.409 460.143-.003-3.999 39.415-.027.342 3.998-39.754.028ZM344.287 419.04l8.057-10.79 5.559-.004c-4.403 7.104-8.894 10.911-13.616 10.794" style="fill:#898989;fill-rule:nonzero"/><path d="M1557.02 244.711c.007 10.066-.102 20.136.056 30.2.132 8.43-3.68 14.252-10.957 18.162-7.479 4.015-15.659 5.656-23.904 6.429-16.724 1.567-33.502 1.714-50.201-.501-6.964-.924-13.82-2.443-20.183-5.684-7.726-3.935-11.624-10.117-11.615-18.822.022-19.335-.024-38.668-.028-58.003-.003-11.941 4.324-18.423 15.765-22.242 6.015-2.009 12.301-3.685 18.585-4.314 17.512-1.753 35.087-1.964 52.576.504 7.451 1.052 14.745 2.838 21.189 7.03 5.98 3.891 8.782 9.419 8.719 16.562-.089 10.226-.01 20.452-.002 30.679M712.549 450.028l-.014-21.202c.863-.247 1.585-.631 2.311-.637 6.207-.051 12.422-.19 18.625.002 6.711.208 10.534 3.613 11.159 9.471.675 6.336-2.862 11.65-9.316 12.205-7.39.634-14.874.156-22.765.161M1111.29 426.639c8.173.257 14.501 4.236 17.873 12.219 3.433 8.128 3.505 16.508.247 24.745-3.279 8.292-9.566 12.502-18.453 12.831-8.444.313-15.355-3.964-18.987-12.028-3.811-8.459-3.76-17.099-.085-25.548 3.538-8.135 9.996-12.147 19.405-12.219" style="fill:#fffefc;fill-rule:nonzero"/></svg>