<?xml version="1.0" encoding="UTF-8" standalone="no"?><!DOCTYPE svg PUBLIC "-//W3C//DTD SVG 1.1//EN" "http://www.w3.org/Graphics/SVG/1.1/DTD/svg11.dtd"><svg width="100%" height="100%" viewBox="0 0 1684 667" version="1.1" xmlns="http://www.w3.org/2000/svg" xmlns:xlink="http://www.w3.org/1999/xlink" xml:space="preserve" xmlns:serif="http://www.serif.com/" style="fill-rule:evenodd;clip-rule:evenodd;stroke-linejoin:round;stroke-miterlimit:2;"><g id="Ebene-1" serif:id="Ebene 1"><g><path d="M344.287,419.04c4.722,0.117 9.213,-3.69 13.616,-10.794l-5.559,0.004c-2.484,3.327 -5.03,6.736 -8.057,10.79m556.122,41.103l39.754,-0.028c-0.136,-1.588 -0.238,-2.778 -0.342,-3.998l-39.415,0.028l0.003,3.998Zm-404.134,-36.276l0.039,56.286l4.579,-0.003l-0.04,-56.286l-4.578,0.003Zm-385.121,56.712l-0.039,-56.4c-1.031,-0.135 -1.794,-0.317 -2.555,-0.314c-0.754,0.004 -1.507,0.193 -2.372,0.317l0.04,56.401l4.926,-0.004Zm1311.5,-57.464l0.039,56.746c1.939,-0.098 3.569,-0.181 5.166,-0.263l-0.04,-56.486l-5.165,0.003Zm48.363,0.002l0.04,56.414l36.872,-0.025c-0.088,-1.545 -0.16,-2.81 -0.262,-4.6l-31.497,0.022l-0.036,-51.814l-5.117,0.003Zm-849.926,0.539c0.01,13.975 -0.442,27.535 0.214,41.041c0.353,7.308 4.866,12.956 12.11,15.179c3.871,1.189 8.201,1.608 12.255,1.338c12.162,-0.816 19.202,-8.434 19.363,-20.609c0.149,-11.338 0.037,-22.68 0.011,-34.019c-0.002,-0.913 -0.227,-1.825 -0.361,-2.828l-5.272,0.004c0.001,2.016 0.003,3.734 0.004,5.451c0,10.222 0.197,20.449 -0.05,30.665c-0.294,12.155 -6.224,17.373 -18.312,16.633c-0.479,-0.029 -0.954,-0.085 -1.431,-0.136c-7.317,-0.782 -11.95,-5.255 -12.831,-12.555c-0.267,-2.211 -0.269,-4.463 -0.276,-6.696c-0.036,-9.584 -0.018,-19.167 -0.044,-28.749c-0.004,-1.526 -0.129,-3.052 -0.205,-4.723l-5.175,0.004Zm420.787,34.767c-0.251,1.023 -0.448,1.776 -0.619,2.535c-2.02,8.979 -7.656,14.498 -15.561,15.23c-9.661,0.896 -17.225,-3.332 -20.771,-11.962c-3.566,-8.68 -3.543,-17.535 0.37,-26.045c3.522,-7.662 9.898,-11.522 18.38,-11.378c7.961,0.137 13.605,3.915 16.635,11.396c0.284,0.703 0.7,1.354 1.139,2.189c1.644,-0.122 3.131,-0.231 5.77,-0.424c-1.899,-3.695 -2.98,-6.918 -4.951,-9.445c-9.388,-12.029 -30.044,-11.429 -39.283,1.151c-6.232,8.486 -7.515,18.064 -5.263,28.247c3.298,14.901 15.01,22.843 30.002,20.984c8.838,-1.097 18.804,-9.09 19.24,-22.482l-5.088,0.004Zm-671.625,-34.407l-38.665,0.027l0.039,56.36l38.731,-0.027l-0.003,-4.863l-33.161,0.023l-0.015,-22.04l31.249,-0.022c-0.209,-1.97 -0.347,-3.278 -0.542,-5.117l-30.836,0.021l-0.014,-19.794l33.22,-0.023l-0.003,-4.545Zm767.321,26.138c-0.514,-2.541 -0.993,-6.691 -2.215,-10.608c-3.058,-9.805 -11.732,-16.733 -21.263,-17.485c-11.702,-0.926 -21.132,2.807 -26.722,13.615c-4.453,8.611 -4.82,17.701 -1.992,26.95c5.261,17.196 25.424,24.267 40.318,14.079c8.775,-6.001 11.155,-15.074 11.874,-26.551m165.817,-10.748c-0.085,-5.064 -1.748,-8.874 -5.001,-12.014c-7.42,-7.159 -22.822,-7.649 -30.583,-0.879c-4.377,3.818 -5.58,8.873 -4.692,14.375c0.859,5.32 4.562,8.269 9.454,9.777c3.504,1.079 7.116,1.805 10.643,2.813c3.674,1.05 7.506,1.827 10.909,3.468c7.34,3.542 7.634,11.959 0.823,16.413c-5.828,3.811 -17.148,3.709 -22.899,-0.212c-4.032,-2.748 -5.283,-6.962 -5.84,-11.651l-4.661,0.004c-1.059,7.062 1.63,13.18 7.77,16.208c9.424,4.646 19.128,4.61 28.637,0.111c3.982,-1.882 6.248,-5.364 7.064,-9.704c1.596,-8.483 -1.861,-14.334 -10.677,-17.167c-6.071,-1.95 -12.347,-3.258 -18.512,-4.923c-4.846,-1.307 -7.12,-3.727 -7.374,-7.629c-0.317,-4.865 1.783,-8.348 6.211,-10.297c10.201,-4.494 19.74,-0.047 23.772,11.31l4.956,-0.003Zm47.524,-11.738l33.484,-0.023c-0.262,-2.014 -0.429,-3.297 -0.582,-4.473l-38.547,0.027l0.04,56.427l39.376,-0.027c-0.143,-1.663 -0.256,-2.968 -0.417,-4.847l-33.165,0.023l-0.015,-21.83l31.022,-0.021c-0.16,-1.942 -0.276,-3.36 -0.405,-4.946l-30.777,0.022l-0.014,-20.332Zm-767.615,47.771l-33.27,0.023l-0.015,-21.982l31.214,-0.021c-0.201,-1.99 -0.335,-3.308 -0.527,-5.211l-30.673,0.021l-0.014,-20.041l32.868,-0.023c0.204,-1.065 0.438,-1.671 0.402,-2.26c-0.047,-0.735 -0.317,-1.457 -0.481,-2.151l-38.735,0.027l0.039,56.276l39.463,-0.027c-0.095,-1.633 -0.167,-2.842 -0.271,-4.631m247.153,-35.718c-0.025,-5.811 -2.172,-9.904 -6.126,-13.074c-7.318,-5.867 -20.854,-6.137 -28.38,-0.571c-4.835,3.577 -6.637,8.586 -5.901,14.328c0.724,5.654 4.432,9.007 9.768,10.645c1.068,0.328 2.152,0.607 3.23,0.9c5.697,1.548 11.457,2.899 17.071,4.706c3.872,1.247 6.797,3.948 6.902,8.312c0.112,4.625 -2.48,7.945 -6.63,9.672c-6.841,2.846 -13.743,2.55 -20.401,-0.714c-3.392,-1.663 -5.045,-4.781 -5.974,-8.299c-0.318,-1.201 -0.46,-2.45 -0.699,-3.778l-5.016,0.004c-0.455,7.095 1.739,12.82 7.82,15.969c9.652,4.998 19.669,4.89 29.461,0.048c1.504,-0.744 2.841,-2.101 3.881,-3.461c6.452,-8.426 2.962,-19.375 -7.586,-22.968c-6.181,-2.106 -12.644,-3.38 -18.961,-5.096c-4.724,-1.283 -7.056,-3.8 -7.347,-7.718c-0.328,-4.423 1.807,-8.136 5.924,-10.039c4.383,-2.028 8.903,-2.223 13.546,-0.879c6.036,1.744 9.221,5.946 10.24,12.016l5.178,-0.003Zm753.095,-0.477c0.446,-5.055 -1.507,-8.61 -4.467,-11.693c-7.139,-7.436 -23.276,-8.16 -30.922,-1.262c-4.203,3.79 -5.925,8.747 -4.824,14.335c1.02,5.176 4.517,8.341 9.468,9.833c3.512,1.058 7.117,1.803 10.645,2.817c3.823,1.1 7.836,1.881 11.352,3.634c6.74,3.36 7.122,11.718 0.883,15.987c-6.216,4.253 -13.107,3.644 -19.849,1.729c-5.977,-1.698 -8.432,-6.412 -9.021,-12.295c-0.029,-0.293 -0.258,-0.566 -0.43,-0.925l-5.266,0.003c0.238,7.421 2.458,13.336 9.158,16.465c8.51,3.975 17.345,3.982 26.085,0.74c5.397,-2.001 8.408,-6.272 9.34,-11.852c1.246,-7.472 -2.897,-13.554 -11.161,-16.085c-6.099,-1.867 -12.362,-3.202 -18.525,-4.871c-4.741,-1.285 -6.961,-3.777 -7.236,-7.811c-0.3,-4.392 1.933,-8.142 6.013,-10.024c7.98,-3.682 21.076,-1.487 23.457,9.975c0.09,0.436 0.415,0.825 0.666,1.303l4.634,-0.003Zm-876.29,-15.712l0.039,56.523l5.542,-0.004l-0.017,-24.643c8.073,-0.006 15.398,-0.099 22.72,0.027c2.945,0.052 5.368,1.67 6.262,4.45c1.058,3.287 1.608,6.756 2.164,10.18c0.55,3.381 -0.102,7.013 2.092,10.038l4.707,-0.004c-0.511,-4.478 -1.195,-8.703 -1.43,-12.952c-0.343,-6.189 -1.419,-11.824 -7.5,-14.065c2.336,-2.585 5.316,-4.756 6.758,-7.685c5.222,-10.602 -0.863,-20.954 -13.019,-21.762c-9.206,-0.612 -18.486,-0.11 -28.318,-0.103m-423.122,32.722c0.675,9.582 -3.671,17.047 -11.696,19.473c-9.039,2.733 -17.986,1.109 -23.661,-6.716c-6.236,-8.598 -6.597,-23.864 -0.681,-32.718c4.607,-6.892 11.248,-9.913 19.371,-8.845c7.489,0.987 13.083,4.841 15.479,12.435c0.178,0.568 0.573,1.069 0.958,1.761c1.623,-0.115 3.131,-0.222 4.834,-0.343c-0.692,-4.493 -2.347,-8.018 -5.052,-11.079c-9.886,-11.187 -30.372,-10.321 -39.278,1.987c-7.551,10.438 -8.234,22.199 -3.48,33.736c7.361,17.855 29.501,21.338 42.389,7.172c0.245,-0.268 0.757,-0.293 1.477,-0.55c0.296,2.709 0.565,5.167 0.876,8.006c1.414,-0.162 2.553,-0.293 3.574,-0.409l-0.02,-28.285l-23.988,0.017c0.122,1.569 0.215,2.756 0.34,4.371l18.558,-0.013Zm163.169,-32.36l0.032,45.207c-0.342,0.107 -0.684,0.216 -1.024,0.324c-10.571,-15.274 -21.139,-30.549 -31.441,-45.435l-6.085,0.004l0.039,56.58c1.893,-0.126 3.376,-0.225 5.248,-0.35l-0.032,-45.766c0.333,-0.135 0.667,-0.27 1,-0.404c10.738,15.507 21.477,31.012 32.005,46.217l5.941,-0.004l-0.039,-56.377l-5.644,0.004Zm-287.907,10.963c0.362,-0.159 0.723,-0.318 1.086,-0.476c10.67,15.417 21.341,30.835 31.884,46.069l6.155,-0.005l-0.039,-56.272l-5.518,0.004l0.032,45.665c-0.311,0.127 -0.623,0.253 -0.934,0.379c-10.648,-15.399 -21.295,-30.799 -31.914,-46.157l-6.025,0.004l0.039,56.242l5.266,-0.003l-0.032,-45.45Zm1023.33,44.898l-0.031,-44.982l1.243,-0.41c10.543,15.234 21.086,30.468 31.65,45.731c2.159,-0.134 3.972,-0.245 5.549,-0.343l-0.04,-56.698c-1.801,0.104 -3.177,0.183 -5.152,0.295l0.032,45.803c-0.331,0.084 -0.663,0.168 -0.993,0.252c-10.666,-15.42 -21.332,-30.839 -31.837,-46.027l-6.272,0.004l0.039,56.379l5.812,-0.004Zm-527.68,-286.732c1.723,-0.167 2.513,-0.311 3.304,-0.311c21.419,0.027 42.849,-0.314 64.251,0.291c8.845,0.25 17.863,1.706 26.391,4.088c13.597,3.8 22.954,11.716 22.586,29.421c-0.588,28.281 -0.067,56.583 -0.142,84.876c-0.017,6.714 2.959,11.158 8.885,13.999c6.858,3.289 13.946,3.426 21.027,1.322c7.777,-2.31 11.57,-6.954 11.577,-14.007c0.034,-33.568 0.101,-67.137 -0.164,-100.702c-0.098,-12.569 -5.771,-22.741 -15.63,-30.478c-8.833,-6.932 -19.077,-10.901 -29.849,-13.615c-16.998,-4.285 -34.336,-5.534 -51.793,-5.542c-27.014,-0.015 -54.029,0.003 -81.043,0.076c-3.018,0.008 -6.07,0.257 -9.048,0.751c-8.733,1.45 -12.162,5.513 -12.159,14.289c0.012,44.438 0.124,88.876 0.014,133.313c-0.019,7.592 3.251,12.527 10.099,15.115c2.942,1.111 6.145,2.012 9.256,2.108c11.605,0.356 23.174,-3.384 22.759,-21.175c-0.837,-35.947 -0.292,-71.926 -0.317,-107.891l-0.004,-5.928Zm482.917,53.502c0.009,13.429 -0.035,26.858 0.046,40.286c0.054,9.068 3.412,16.764 9.932,23.114c6.584,6.412 14.639,10.18 23.194,13.018c16.383,5.435 33.4,7.304 50.49,7.691c14.991,0.34 30.038,-0.159 45.011,-1.074c14.388,-0.88 28.525,-3.732 41.836,-9.539c18.036,-7.866 30.213,-20.347 29.123,-42.679c-0.29,-5.93 -2.661,-9.61 -8.14,-11.711c-6.925,-2.655 -14.131,-2.619 -21.273,-1.491c-8.532,1.346 -11.836,5.277 -12.033,13.966c-0.18,7.961 -3.649,14.07 -10.617,17.463c-5.674,2.761 -11.788,5.094 -17.964,6.258c-16.877,3.176 -33.987,3.537 -51.081,2.042c-8.107,-0.709 -16.177,-2.034 -23.593,-5.773c-8.356,-4.211 -13.306,-10.366 -13.175,-20.359c0.266,-20.299 0.193,-40.606 -0.024,-60.907c-0.09,-8.404 3.364,-14.713 10.46,-18.565c5.122,-2.779 10.735,-5.084 16.408,-6.338c18.594,-4.11 37.465,-3.666 56.285,-1.887c7.63,0.723 15.114,2.544 21.953,6.334c7.128,3.95 11.178,9.702 11.31,18.098c0.094,5.953 2.291,9.04 7.901,10.554c7.519,2.028 15.237,2.04 22.747,-0.022c5.475,-1.504 8.986,-5.179 9.882,-11.116c1.761,-11.692 -0.57,-22.225 -8.513,-31.214c-6.65,-7.527 -15.259,-11.98 -24.571,-15.219c-22.705,-7.899 -46.334,-8.896 -70.007,-8.756c-11.628,0.069 -23.295,1.08 -34.863,2.382c-12.896,1.451 -25.46,4.551 -37.094,10.641c-15.475,8.103 -24.189,20.27 -23.718,38.357c0.317,12.141 0.076,24.297 0.088,36.446m-624.114,-25.307l-6.723,0.005c-22.702,0.016 -45.406,-0.072 -68.106,0.14c-4.224,0.04 -8.583,0.823 -12.619,2.093c-5.062,1.596 -5.436,6.132 -5.148,10.68c0.272,4.269 1.995,6.724 6.369,7.925c3.208,0.88 6.582,1.597 9.886,1.61c27.817,0.105 55.637,0.25 83.45,-0.15c6.584,-0.095 13.313,-1.624 19.665,-3.529c7.325,-2.197 10.111,-6.861 10.152,-14.41c0.037,-6.874 0.076,-13.75 -0.065,-20.622c-0.206,-9.933 -4.138,-18.22 -11.378,-25.005c-5.945,-5.57 -13.012,-9.156 -20.547,-11.986c-14.378,-5.401 -29.445,-7.347 -44.598,-8.217c-24.136,-1.386 -48.246,-0.845 -72.075,3.852c-10.699,2.108 -21.081,5.292 -30.505,10.997c-11.916,7.216 -20.058,17.177 -20.229,31.618c-0.318,27.013 -0.106,54.034 -0.006,81.052c0.026,7.268 2.575,13.735 7.16,19.399c7.028,8.681 16.617,13.284 26.857,16.777c15.108,5.154 30.848,6.968 46.643,7.682c21.725,0.983 43.47,0.741 65.001,-2.96c12.479,-2.144 24.701,-5.21 35.648,-11.965c9.563,-5.897 16.162,-13.919 17.852,-25.355c1.05,-7.094 -2.821,-12.192 -9.842,-13.284c-6.683,-1.04 -13.329,-1.264 -20.023,-0.015c-5.816,1.087 -10.158,3.667 -11.481,9.91c-1.17,5.522 -4.828,9.088 -9.88,10.862c-5.093,1.788 -10.372,3.348 -15.699,4.113c-16.017,2.298 -32.176,2.636 -48.314,1.948c-10.042,-0.427 -20.098,-1.442 -29.451,-5.725c-8.625,-3.95 -13.404,-10.166 -13.289,-20.151c0.243,-21.26 0.086,-42.525 0.022,-63.788c-0.031,-10.279 4.348,-18.072 13.595,-22.371c5.721,-2.66 11.92,-4.743 18.125,-5.837c18.36,-3.233 36.882,-3.24 55.372,-0.937c7.485,0.931 14.754,2.795 21.347,6.681c5.444,3.208 9.625,7.625 11.039,13.852c1.045,4.6 1.158,9.413 1.795,15.111m524.329,-0.364l-5.935,0.004c-22.697,0.015 -45.396,-0.083 -68.091,0.148c-4.209,0.042 -8.542,0.974 -12.569,2.271c-4.525,1.458 -5.242,5.659 -5.123,9.846c0.123,4.329 2.254,7.41 6.415,8.526c3.513,0.94 7.212,1.64 10.832,1.656c27.172,0.115 54.346,0.133 81.517,-0.068c5.394,-0.04 10.86,-0.76 16.151,-1.853c10.841,-2.238 15.067,-7.771 15.062,-18.759c-0.003,-5.435 0.057,-10.87 -0.031,-16.303c-0.175,-10.939 -4.133,-20.177 -12.394,-27.523c-5.715,-5.081 -12.384,-8.43 -19.44,-11.096c-14.66,-5.542 -30.047,-7.488 -45.524,-8.364c-23.978,-1.356 -47.919,-0.716 -71.582,3.919c-10.851,2.125 -21.393,5.355 -30.874,11.28c-11.455,7.162 -19.509,16.869 -19.675,30.925c-0.323,27.329 -0.086,54.664 -0.016,81.996c0.016,6.43 2.247,12.173 6.002,17.365c6.783,9.383 16.559,14.278 27.089,17.957c15.533,5.428 31.745,7.29 48.021,8.004c21.398,0.941 42.81,0.671 64.031,-2.901c12.342,-2.078 24.391,-5.125 35.306,-11.548c9.825,-5.781 16.579,-13.856 18.692,-25.366c1.316,-7.167 -2.585,-12.651 -9.818,-13.759c-6.518,-1 -12.984,-1.191 -19.546,-0.117c-6.531,1.069 -10.936,4.135 -12.316,10.865c-0.757,3.69 -3.02,6.421 -6.187,8.14c-3.059,1.661 -6.309,3.386 -9.671,3.989c-8.148,1.462 -16.383,2.588 -24.631,3.305c-16.747,1.456 -33.525,1.64 -50.142,-1.335c-4.657,-0.834 -9.273,-2.492 -13.599,-4.452c-7.996,-3.624 -12.043,-9.879 -11.967,-18.97c0.174,-21.096 0,-42.197 0.025,-63.295c0.016,-13.138 5.362,-20.685 17.742,-25.483c7.362,-2.853 15.006,-4.218 22.836,-4.987c17.244,-1.694 34.446,-1.864 51.547,1.218c6.943,1.251 13.598,3.51 19.309,7.939c8.672,6.725 9.68,15.967 8.554,26.826m360.44,23.718c0.033,0 0.066,0 0.1,0.001c0.009,12.621 -0.139,25.247 0.077,37.865c0.163,9.502 3.94,17.638 10.469,24.524c7.238,7.632 16.283,12.241 26.083,15.517c13.257,4.432 26.935,6.458 40.864,7.441c22.076,1.56 44.046,1.217 65.896,-2.439c12.029,-2.012 23.688,-5.317 34.31,-11.546c14.548,-8.53 22.235,-21.017 22.129,-38.15c-0.138,-22.376 0.11,-44.757 -0.205,-67.129c-0.076,-5.327 -1.05,-10.867 -2.797,-15.895c-3.825,-11.011 -12.255,-18.098 -22.343,-23.257c-17.765,-9.081 -37.115,-11.491 -56.626,-12.581c-18.676,-1.042 -37.382,-0.696 -55.941,1.985c-13,1.879 -25.745,4.845 -37.461,11.133c-15.178,8.146 -24.689,19.958 -24.589,38.017c0.063,11.504 0.026,23.009 0.034,34.514m-1241.19,-87.714c-33.06,1.898 -76.113,32.712 -77.331,85.056c-1.176,50.506 38.887,89.583 86.738,90.455c48.451,0.883 90.207,-37.439 90.03,-88.628c-0.187,-53.307 -43.511,-84.817 -77.621,-86.944l0.06,86.001l-21.816,0.015l-0.06,-85.955Zm-156.969,511.492l-0.464,-667.698l1683.64,-1.171l0.464,667.698l-1683.64,1.171Z" style="fill:#fffefc;fill-rule:nonzero;"/><path d="M157.433,156.858l0.06,85.956l21.816,-0.016l-0.06,-86.001c34.11,2.127 77.434,33.637 77.62,86.945c0.178,51.188 -41.579,89.509 -90.029,88.626c-47.851,-0.872 -87.914,-39.948 -86.738,-90.454c1.218,-52.345 44.271,-83.158 77.331,-85.056" style="fill:#018e4b;fill-rule:nonzero;"/><path d="M1557.02,244.711c-0.008,-10.227 -0.087,-20.453 0.002,-30.679c0.063,-7.143 -2.739,-12.671 -8.719,-16.562c-6.444,-4.192 -13.738,-5.978 -21.189,-7.03c-17.489,-2.468 -35.064,-2.257 -52.576,-0.504c-6.284,0.629 -12.57,2.305 -18.585,4.314c-11.441,3.819 -15.768,10.301 -15.765,22.242c0.004,19.335 0.05,38.668 0.028,58.003c-0.009,8.705 3.889,14.887 11.615,18.822c6.363,3.241 13.219,4.76 20.183,5.684c16.699,2.215 33.477,2.068 50.201,0.501c8.245,-0.773 16.425,-2.414 23.904,-6.429c7.277,-3.91 11.089,-9.732 10.957,-18.162c-0.158,-10.064 -0.049,-20.134 -0.056,-30.2m-158.402,-0.139c-0.008,-11.505 0.03,-23.009 -0.034,-34.514c-0.101,-18.059 9.411,-29.87 24.589,-38.016c11.716,-6.289 24.461,-9.256 37.461,-11.134c18.559,-2.682 37.265,-3.026 55.941,-1.984c19.511,1.089 38.86,3.498 56.625,12.581c10.089,5.158 18.519,12.245 22.344,23.255c1.747,5.029 2.721,10.57 2.796,15.895c0.316,22.374 0.068,44.753 0.206,67.13c0.106,17.134 -7.581,29.619 -22.129,38.15c-10.622,6.229 -22.28,9.534 -34.309,11.546c-21.851,3.655 -43.82,3.998 -65.897,2.439c-13.929,-0.984 -27.606,-3.009 -40.864,-7.442c-9.8,-3.276 -18.846,-7.884 -26.082,-15.516c-6.53,-6.886 -10.307,-15.021 -10.47,-24.524c-0.216,-12.619 -0.068,-25.243 -0.077,-37.865c-0.033,-0.001 -0.067,-0.001 -0.1,-0.001" style="fill:#898989;fill-rule:nonzero;"/><path d="M1038.18,220.854c1.127,-10.859 0.118,-20.101 -8.553,-26.826c-5.71,-4.429 -12.366,-6.688 -19.309,-7.94c-17.1,-3.081 -34.304,-2.912 -51.548,-1.217c-7.829,0.769 -15.473,2.134 -22.835,4.987c-12.381,4.798 -17.727,12.344 -17.741,25.482c-0.026,21.099 0.148,42.199 -0.026,63.296c-0.076,9.091 3.972,15.346 11.967,18.97c4.326,1.96 8.942,3.617 13.599,4.451c16.617,2.977 33.395,2.792 50.142,1.335c8.247,-0.716 16.483,-1.843 24.63,-3.303c3.363,-0.604 6.613,-2.328 9.672,-3.989c3.166,-1.719 5.43,-4.451 6.187,-8.142c1.38,-6.728 5.785,-9.795 12.316,-10.864c6.562,-1.074 13.028,-0.883 19.545,0.117c7.234,1.108 11.135,6.592 9.819,13.758c-2.112,11.511 -8.866,19.586 -18.691,25.367c-10.916,6.423 -22.965,9.47 -35.307,11.548c-21.222,3.572 -42.633,3.842 -64.031,2.901c-16.276,-0.714 -32.488,-2.576 -48.021,-8.004c-10.529,-3.679 -20.306,-8.574 -27.09,-17.957c-3.753,-5.192 -5.985,-10.935 -6.002,-17.365c-0.069,-27.332 -0.307,-54.667 0.016,-81.996c0.166,-14.057 8.221,-23.764 19.677,-30.925c9.479,-5.926 20.022,-9.154 30.873,-11.28c23.662,-4.635 47.603,-5.275 71.582,-3.919c15.478,0.876 30.863,2.822 45.524,8.363c7.056,2.667 13.725,6.016 19.439,11.097c8.262,7.346 12.219,16.584 12.396,27.522c0.088,5.434 0.027,10.87 0.03,16.304c0.006,10.987 -4.221,16.521 -15.061,18.759c-5.292,1.093 -10.758,1.814 -16.151,1.853c-27.172,0.201 -54.346,0.183 -81.518,0.068c-3.62,-0.016 -7.319,-0.715 -10.831,-1.656c-4.162,-1.116 -6.294,-4.197 -6.417,-8.526c-0.118,-4.188 0.599,-8.388 5.124,-9.846c4.026,-1.297 8.36,-2.229 12.569,-2.271c22.695,-0.231 45.393,-0.132 68.092,-0.148l5.933,-0.004Z" style="fill:#898989;fill-rule:nonzero;"/><path d="M513.853,221.218c-0.639,-5.699 -0.751,-10.511 -1.796,-15.112c-1.414,-6.226 -5.595,-10.643 -11.039,-13.852c-6.593,-3.885 -13.862,-5.749 -21.348,-6.68c-18.489,-2.303 -37.011,-2.297 -55.372,0.938c-6.205,1.093 -12.403,3.175 -18.124,5.836c-9.247,4.299 -13.626,12.091 -13.596,22.371c0.065,21.262 0.222,42.528 -0.021,63.788c-0.115,9.984 4.663,16.201 13.288,20.151c9.355,4.283 19.41,5.298 29.452,5.725c16.137,0.688 32.297,0.35 48.314,-1.949c5.327,-0.764 10.606,-2.324 15.699,-4.112c5.053,-1.774 8.71,-5.34 9.88,-10.862c1.323,-6.243 5.665,-8.823 11.481,-9.909c6.694,-1.25 13.34,-1.027 20.022,0.013c7.022,1.092 10.893,6.19 9.844,13.285c-1.691,11.435 -8.29,19.457 -17.853,25.356c-10.948,6.753 -23.168,9.819 -35.647,11.964c-21.532,3.701 -43.277,3.943 -65.001,2.96c-15.796,-0.714 -31.535,-2.528 -46.643,-7.682c-10.241,-3.492 -19.829,-8.096 -26.858,-16.778c-4.584,-5.664 -7.134,-12.13 -7.161,-19.398c-0.1,-27.018 -0.31,-54.039 0.008,-81.053c0.169,-14.439 8.312,-24.402 20.228,-31.618c9.424,-5.705 19.807,-8.888 30.505,-10.996c23.828,-4.697 47.939,-5.238 72.075,-3.852c15.153,0.87 30.22,2.816 44.598,8.217c7.535,2.83 14.603,6.416 20.546,11.986c7.241,6.785 11.172,15.071 11.378,25.005c0.142,6.872 0.102,13.748 0.065,20.623c-0.041,7.548 -2.826,12.211 -10.152,14.409c-6.351,1.905 -13.079,3.434 -19.664,3.529c-27.812,0.4 -55.633,0.255 -83.45,0.15c-3.304,-0.013 -6.679,-0.73 -9.886,-1.611c-4.375,-1.2 -6.097,-3.655 -6.368,-7.924c-0.288,-4.548 0.085,-9.085 5.147,-10.679c4.035,-1.271 8.395,-2.055 12.619,-2.094c22.701,-0.212 45.404,-0.124 68.105,-0.14l6.725,-0.005Z" style="fill:#898989;fill-rule:nonzero;"/><path d="M1137.96,246.526c-0.01,-12.15 0.231,-24.306 -0.085,-36.448c-0.473,-18.085 8.242,-30.254 23.717,-38.356c11.634,-6.091 24.197,-9.191 37.094,-10.641c11.569,-1.303 23.235,-2.313 34.864,-2.382c23.672,-0.139 47.302,0.857 70.006,8.755c9.312,3.24 17.921,7.692 24.571,15.219c7.943,8.991 10.274,19.524 8.513,31.214c-0.895,5.939 -4.406,9.612 -9.882,11.116c-7.51,2.062 -15.228,2.05 -22.747,0.023c-5.61,-1.514 -7.807,-4.6 -7.901,-10.554c-0.131,-8.395 -4.183,-14.148 -11.31,-18.098c-6.838,-3.79 -14.324,-5.611 -21.953,-6.333c-18.82,-1.78 -37.692,-2.223 -56.285,1.886c-5.673,1.254 -11.286,3.559 -16.408,6.339c-7.096,3.85 -10.549,10.16 -10.46,18.564c0.216,20.3 0.29,40.607 0.024,60.906c-0.131,9.993 4.82,16.149 13.175,20.361c7.416,3.738 15.487,5.063 23.594,5.772c17.093,1.495 34.204,1.134 51.08,-2.043c6.175,-1.162 12.29,-3.496 17.964,-6.258c6.968,-3.391 10.437,-9.502 10.618,-17.462c0.196,-8.688 3.5,-12.621 12.032,-13.967c7.142,-1.127 14.348,-1.163 21.273,1.491c5.479,2.101 7.85,5.782 8.139,11.711c1.091,22.332 -11.087,34.813 -29.122,42.68c-13.312,5.807 -27.448,8.659 -41.836,9.539c-14.973,0.915 -30.02,1.414 -45.01,1.074c-17.091,-0.387 -34.107,-2.255 -50.491,-7.69c-8.556,-2.839 -16.61,-6.607 -23.195,-13.02c-6.519,-6.349 -9.877,-14.044 -9.931,-23.113c-0.08,-13.428 -0.037,-26.857 -0.048,-40.285" style="fill:#898989;fill-rule:nonzero;"/><path d="M655.049,193.024l0.004,5.927c0.025,35.965 -0.519,71.944 0.317,107.891c0.416,17.791 -11.154,21.532 -22.76,21.174c-3.11,-0.096 -6.313,-0.997 -9.256,-2.108c-6.847,-2.587 -10.117,-7.522 -10.097,-15.115c0.109,-44.437 -0.003,-88.874 -0.015,-133.312c-0.002,-8.775 3.426,-12.84 12.16,-14.289c2.976,-0.495 6.029,-0.744 9.047,-0.752c27.014,-0.072 54.03,-0.09 81.043,-0.076c17.458,0.01 34.795,1.259 51.793,5.542c10.771,2.715 21.016,6.684 29.849,13.617c9.858,7.737 15.533,17.908 15.631,30.476c0.263,33.567 0.197,67.134 0.163,100.702c-0.006,7.054 -3.8,11.698 -11.576,14.009c-7.081,2.103 -14.17,1.965 -21.027,-1.323c-5.927,-2.841 -8.903,-7.286 -8.885,-14c0.074,-28.293 -0.447,-56.595 0.141,-84.874c0.368,-17.706 -8.989,-25.621 -22.586,-29.421c-8.527,-2.384 -17.547,-3.839 -26.39,-4.089c-21.402,-0.606 -42.833,-0.264 -64.252,-0.29c-0.79,-0.002 -1.58,0.143 -3.304,0.311" style="fill:#898989;fill-rule:nonzero;"/><path d="M1182.73,479.755l-5.813,0.004l-0.04,-56.379l6.273,-0.005c10.505,15.189 21.171,30.609 31.836,46.027c0.332,-0.084 0.662,-0.167 0.994,-0.251l-0.032,-45.803c1.975,-0.113 3.352,-0.192 5.152,-0.295l0.039,56.698c-1.576,0.098 -3.39,0.209 -5.548,0.343c-10.563,-15.263 -21.107,-30.498 -31.65,-45.732l-1.243,0.411l0.032,44.982Z" style="fill:#898989;fill-rule:nonzero;"/><path d="M159.395,434.857l0.031,45.449l-5.265,0.004l-0.039,-56.241l6.026,-0.005c10.618,15.358 21.265,30.758 31.913,46.157c0.311,-0.126 0.623,-0.252 0.935,-0.379l-0.032,-45.665l5.516,-0.003l0.039,56.271l-6.154,0.004c-10.544,-15.233 -21.214,-30.651 -31.884,-46.069c-0.362,0.159 -0.725,0.318 -1.086,0.477" style="fill:#898989;fill-rule:nonzero;"/><path d="M447.302,423.894l5.644,-0.004l0.039,56.376l-5.941,0.004c-10.528,-15.204 -21.267,-30.71 -32.005,-46.215c-0.333,0.133 -0.667,0.268 -1,0.403l0.032,45.766c-1.872,0.126 -3.355,0.224 -5.248,0.35l-0.039,-56.58l6.085,-0.004c10.302,14.887 20.87,30.161 31.441,45.435c0.34,-0.108 0.682,-0.216 1.024,-0.324l-0.032,-45.207Z" style="fill:#898989;fill-rule:nonzero;"/><path d="M284.133,456.254l-18.558,0.013c-0.125,-1.615 -0.218,-2.803 -0.34,-4.371l23.988,-0.017l0.02,28.285c-1.022,0.116 -2.159,0.247 -3.574,0.409c-0.311,-2.839 -0.58,-5.297 -0.877,-8.006c-0.718,0.257 -1.231,0.281 -1.476,0.55c-12.888,14.166 -35.029,10.683 -42.388,-7.172c-4.755,-11.537 -4.073,-23.298 3.48,-33.736c8.905,-12.308 29.391,-13.174 39.276,-1.987c2.705,3.061 4.362,6.587 5.053,11.079c-1.702,0.121 -3.212,0.228 -4.835,0.343c-0.383,-0.692 -0.778,-1.193 -0.958,-1.761c-2.395,-7.594 -7.989,-11.449 -15.478,-12.435c-8.123,-1.068 -14.765,1.952 -19.371,8.846c-5.917,8.853 -5.554,24.119 0.68,32.718c5.675,7.824 14.622,9.448 23.662,6.716c8.024,-2.426 12.371,-9.892 11.696,-19.474" style="fill:#898989;fill-rule:nonzero;"/><path d="M712.549,450.028c7.891,-0.005 15.375,0.473 22.765,-0.161c6.454,-0.555 9.991,-5.869 9.316,-12.205c-0.625,-5.858 -4.448,-9.263 -11.159,-9.471c-6.203,-0.192 -12.418,-0.053 -18.625,-0.002c-0.726,0.006 -1.448,0.39 -2.311,0.637l0.014,21.202Zm-5.294,-26.497c9.832,-0.006 19.112,-0.509 28.318,0.104c12.156,0.808 18.241,11.159 13.019,21.762c-1.442,2.928 -4.422,5.1 -6.758,7.685c6.081,2.241 7.157,7.875 7.5,14.065c0.235,4.249 0.919,8.474 1.43,12.952l-4.707,0.003c-2.194,-3.023 -1.542,-6.656 -2.092,-10.037c-0.556,-3.424 -1.106,-6.893 -2.164,-10.18c-0.894,-2.779 -3.317,-4.398 -6.262,-4.449c-7.322,-0.127 -14.647,-0.033 -22.72,-0.028l0.017,24.642l-5.542,0.004l-0.039,-56.523Z" style="fill:#898989;fill-rule:nonzero;"/><path d="M1583.55,439.244l-4.634,0.003c-0.251,-0.478 -0.576,-0.867 -0.666,-1.303c-2.381,-11.462 -15.477,-13.657 -23.458,-9.975c-4.08,1.882 -6.312,5.632 -6.012,10.024c0.275,4.034 2.495,6.526 7.237,7.811c6.162,1.669 12.425,3.004 18.524,4.871c8.264,2.531 12.408,8.613 11.161,16.085c-0.932,5.58 -3.943,9.851 -9.34,11.852c-8.74,3.242 -17.576,3.235 -26.085,-0.74c-6.7,-3.129 -8.92,-9.044 -9.158,-16.465l5.265,-0.003c0.173,0.359 0.402,0.632 0.431,0.925c0.589,5.883 3.044,10.597 9.021,12.295c6.742,1.915 13.633,2.524 19.848,-1.729c6.241,-4.269 5.858,-12.627 -0.882,-15.987c-3.515,-1.753 -7.529,-2.534 -11.353,-3.634c-3.527,-1.014 -7.132,-1.759 -10.644,-2.817c-4.951,-1.492 -8.449,-4.657 -9.468,-9.833c-1.1,-5.588 0.621,-10.545 4.824,-14.335c7.646,-6.898 23.782,-6.174 30.922,1.262c2.96,3.083 4.913,6.638 4.467,11.693" style="fill:#898989;fill-rule:nonzero;"/><path d="M830.45,439.721l-5.178,0.004c-1.019,-6.07 -4.205,-10.272 -10.24,-12.017c-4.642,-1.344 -9.163,-1.149 -13.547,0.879c-4.117,1.903 -6.25,5.616 -5.923,10.039c0.291,3.918 2.623,6.434 7.348,7.718c6.317,1.716 12.779,2.99 18.959,5.096c10.549,3.593 14.039,14.542 7.587,22.968c-1.04,1.36 -2.377,2.718 -3.881,3.461c-9.792,4.843 -19.809,4.949 -29.462,-0.047c-6.081,-3.15 -8.273,-8.875 -7.818,-15.97l5.014,-0.003c0.241,1.327 0.382,2.576 0.7,3.776c0.928,3.519 2.582,6.637 5.973,8.301c6.659,3.264 13.561,3.559 20.401,0.713c4.151,-1.727 6.742,-5.046 6.631,-9.672c-0.106,-4.364 -3.03,-7.066 -6.902,-8.312c-5.614,-1.806 -11.373,-3.157 -17.071,-4.705c-1.079,-0.293 -2.162,-0.572 -3.23,-0.901c-5.336,-1.638 -9.044,-4.992 -9.769,-10.644c-0.735,-5.743 1.067,-10.753 5.901,-14.329c7.527,-5.566 21.063,-5.296 28.381,0.571c3.955,3.17 6.101,7.263 6.126,13.074" style="fill:#898989;fill-rule:nonzero;"/><path d="M583.297,475.44c0.105,1.787 0.176,2.996 0.272,4.63l-39.465,0.028l-0.039,-56.277l38.735,-0.027c0.165,0.694 0.436,1.415 0.483,2.152c0.036,0.588 -0.199,1.194 -0.404,2.258l-32.866,0.023l0.014,20.041l30.672,-0.021c0.192,1.904 0.326,3.223 0.527,5.212l-31.214,0.022l0.015,21.982l33.27,-0.023Z" style="fill:#898989;fill-rule:nonzero;"/><path d="M1350.91,427.668l0.014,20.332l15.357,-0.011l15.42,-0.011c0.13,1.586 0.246,3.004 0.404,4.946l-31.022,0.021l0.016,21.83l33.165,-0.023c0.162,1.879 0.274,3.184 0.417,4.846l-39.377,0.028l-0.039,-56.427l38.546,-0.027c0.154,1.176 0.322,2.459 0.584,4.473l-33.485,0.023Z" style="fill:#898989;fill-rule:nonzero;"/><path d="M1303.39,439.406l-4.956,0.003c-4.032,-11.357 -13.571,-15.805 -23.772,-11.311c-4.428,1.95 -6.528,5.433 -6.211,10.298c0.254,3.902 2.528,6.322 7.374,7.629c6.165,1.665 12.441,2.973 18.512,4.923c8.816,2.833 12.273,8.683 10.677,17.167c-0.816,4.34 -3.082,7.821 -7.064,9.705c-9.509,4.497 -19.213,4.534 -28.637,-0.112c-6.14,-3.028 -8.829,-9.147 -7.77,-16.208l4.661,-0.004c0.557,4.689 1.808,8.903 5.84,11.651c5.751,3.92 17.071,4.023 22.899,0.212c6.811,-4.454 6.517,-12.872 -0.823,-16.413c-3.403,-1.641 -7.235,-2.418 -10.909,-3.468c-3.527,-1.007 -7.139,-1.734 -10.643,-2.814c-4.892,-1.507 -8.595,-4.457 -9.454,-9.776c-0.888,-5.502 0.315,-10.556 4.692,-14.376c7.761,-6.769 23.163,-6.279 30.583,0.88c3.253,3.14 4.916,6.951 5.001,12.014" style="fill:#898989;fill-rule:nonzero;"/><path d="M1111.29,426.639c-9.409,0.072 -15.867,4.084 -19.405,12.219c-3.675,8.449 -3.726,17.089 0.085,25.548c3.632,8.064 10.543,12.341 18.987,12.028c8.887,-0.329 15.174,-4.539 18.453,-12.831c3.258,-8.237 3.186,-16.617 -0.247,-24.745c-3.372,-7.983 -9.7,-11.962 -17.873,-12.219m26.28,23.514c-0.72,11.478 -3.099,20.55 -11.874,26.551c-14.894,10.189 -35.057,3.118 -40.318,-14.079c-2.829,-9.248 -2.461,-18.337 1.993,-26.95c5.589,-10.807 15.019,-14.54 26.722,-13.615c9.531,0.754 18.204,7.68 21.262,17.486c1.222,3.918 1.702,8.067 2.215,10.607" style="fill:#898989;fill-rule:nonzero;"/><path d="M370.249,424.016l0.003,4.545l-33.219,0.023l0.014,19.793l30.836,-0.021c0.196,1.84 0.333,3.148 0.541,5.118l-31.247,0.022l0.015,22.04l33.159,-0.023l0.003,4.863l-38.73,0.027l-0.039,-56.36l38.664,-0.027Z" style="fill:#898989;fill-rule:nonzero;"/><path d="M1041.88,458.422l5.088,-0.003c-0.436,13.392 -10.401,21.385 -19.24,22.482c-14.992,1.86 -26.704,-6.083 -30.001,-20.983c-2.254,-10.184 -0.969,-19.763 5.262,-28.248c9.239,-12.581 29.895,-13.181 39.283,-1.152c1.972,2.527 3.052,5.75 4.952,9.445c-2.641,0.195 -4.126,0.303 -5.77,0.424c-0.439,-0.834 -0.856,-1.484 -1.141,-2.188c-3.029,-7.481 -8.673,-11.26 -16.634,-11.395c-8.483,-0.145 -14.858,3.716 -18.38,11.378c-3.912,8.509 -3.936,17.364 -0.369,26.044c3.545,8.631 11.11,12.857 20.77,11.962c7.905,-0.733 13.542,-6.251 15.561,-15.23c0.171,-0.76 0.368,-1.512 0.619,-2.536" style="fill:#898989;fill-rule:nonzero;"/><path d="M621.088,423.655l5.175,-0.003c0.076,1.671 0.201,3.196 0.205,4.723c0.026,9.581 0.008,19.165 0.043,28.748c0.008,2.234 0.01,4.485 0.277,6.696c0.881,7.302 5.514,11.773 12.831,12.557c0.476,0.049 0.953,0.105 1.43,0.135c12.09,0.74 18.019,-4.478 18.312,-16.634c0.247,-10.215 0.051,-20.442 0.051,-30.663c0,-1.718 -0.003,-3.436 -0.004,-5.452l5.272,-0.003c0.134,1.003 0.358,1.914 0.36,2.828c0.027,11.339 0.139,22.68 -0.011,34.018c-0.161,12.175 -7.2,19.793 -19.362,20.608c-4.054,0.272 -8.384,-0.149 -12.255,-1.336c-7.244,-2.225 -11.756,-7.872 -12.11,-15.18c-0.656,-13.506 -0.204,-27.067 -0.214,-41.042" style="fill:#898989;fill-rule:nonzero;"/><path d="M1471.02,423.118l5.115,-0.004l0.036,51.814l31.498,-0.022c0.102,1.79 0.175,3.055 0.263,4.6l-36.873,0.026l-0.039,-56.414Z" style="fill:#898989;fill-rule:nonzero;"/><path d="M1422.65,423.115l5.166,-0.003l0.039,56.486c-1.597,0.081 -3.227,0.165 -5.165,0.263l-0.04,-56.746Z" style="fill:#898989;fill-rule:nonzero;"/><path d="M111.154,480.579l-4.926,0.004l-0.04,-56.4c0.865,-0.125 1.617,-0.314 2.372,-0.318c0.761,-0.003 1.524,0.179 2.555,0.315l0.039,56.399Z" style="fill:#898989;fill-rule:nonzero;"/><path d="M500.893,480.149l-0.039,-56.286l-4.579,0.003l0.039,56.286l4.579,-0.003Z" style="fill:#898989;"/><path d="M900.409,460.143l-0.003,-3.999l39.415,-0.027c0.104,1.221 0.206,2.409 0.342,3.998l-39.754,0.028Z" style="fill:#898989;fill-rule:nonzero;"/><path d="M344.287,419.04c3.027,-4.054 5.573,-7.463 8.057,-10.79l5.559,-0.004c-4.403,7.104 -8.894,10.911 -13.616,10.794" style="fill:#898989;fill-rule:nonzero;"/><path d="M1557.02,244.711c0.007,10.066 -0.102,20.136 0.056,30.2c0.132,8.43 -3.68,14.252 -10.957,18.162c-7.479,4.015 -15.659,5.656 -23.904,6.429c-16.724,1.567 -33.502,1.714 -50.201,-0.501c-6.964,-0.924 -13.82,-2.443 -20.183,-5.684c-7.726,-3.935 -11.624,-10.117 -11.615,-18.822c0.022,-19.335 -0.024,-38.668 -0.028,-58.003c-0.003,-11.941 4.324,-18.423 15.765,-22.242c6.015,-2.009 12.301,-3.685 18.585,-4.314c17.512,-1.753 35.087,-1.964 52.576,0.504c7.451,1.052 14.745,2.838 21.189,7.03c5.98,3.891 8.782,9.419 8.719,16.562c-0.089,10.226 -0.01,20.452 -0.002,30.679" style="fill:#fffefc;fill-rule:nonzero;"/><path d="M712.549,450.028l-0.014,-21.202c0.863,-0.247 1.585,-0.631 2.311,-0.637c6.207,-0.051 12.422,-0.19 18.625,0.002c6.711,0.208 10.534,3.613 11.159,9.471c0.675,6.336 -2.862,11.65 -9.316,12.205c-7.39,0.634 -14.874,0.156 -22.765,0.161" style="fill:#fffefc;fill-rule:nonzero;"/><path d="M1111.29,426.639c8.173,0.257 14.501,4.236 17.873,12.219c3.433,8.128 3.505,16.508 0.247,24.745c-3.279,8.292 -9.566,12.502 -18.453,12.831c-8.444,0.313 -15.355,-3.964 -18.987,-12.028c-3.811,-8.459 -3.76,-17.099 -0.085,-25.548c3.538,-8.135 9.996,-12.147 19.405,-12.219" style="fill:#fffefc;fill-rule:nonzero;"/></g></g></svg>