<svg viewBox="0 0 64 75" xmlns="http://www.w3.org/2000/svg" xml:space="preserve" style="fill-rule:evenodd;clip-rule:evenodd;stroke-linejoin:round;stroke-miterlimit:2"><path d="M51.213.342.372 18.898l50.841-8.981V.342Z" style="fill:#ffd400;fill-rule:nonzero"/><path d="M5.64 62.853c0-.869-.601-1.249-.926-1.392.429-.231.713-.718.713-1.236 0-1.037-.709-1.631-1.943-1.631H.816v6.26h2.641c1.367 0 2.183-.748 2.183-2.001m-2.179.941H1.979v-1.782h1.482c.63 0 .949.299.949.887 0 .569-.346.895-.949.895m-.009-2.801H1.978v-1.338H3.39c.555 0 .824.221.824.674 0 .303-.132.664-.762.664m2.986 1.872v-2.584h1.13V62.8c0 .762.267 1.117.84 1.117.564 0 .85-.374.85-1.11v-2.526h1.129v4.573H9.258v-.366c-.278.308-.646.463-1.093.463-1.502 0-1.727-1.307-1.727-2.086m17.231 1.989h-1.13v-4.573h1.13v.385c.277-.313.68-.484 1.146-.484 1.095 0 1.674.721 1.674 2.087v2.585H25.36v-2.52c0-.762-.262-1.117-.823-1.117-.568 0-.868.384-.868 1.11v2.527Zm-11.137-2.287v2.287h-1.129v-4.573h1.129v2.286Zm1.007-3.623 1.129-.565v6.475h-1.129v-5.91Zm4.721 1.659a1.37 1.37 0 0 0-1.014-.42c-1.106 0-1.793.896-1.793 2.338 0 1.522.662 2.43 1.769 2.43.38 0 .735-.141 1.038-.446v.349h1.128v-6.475l-1.128.565v1.659Zm-.795 3.308c-.393 0-.861-.246-.861-1.417 0-1.055.461-1.276.847-1.276.423 0 .677.252.809.446v1.796c-.168.218-.376.451-.795.451m25.429-3.728c-.353 0-.727.158-1.015.425v-2.112l-1.128.564v5.794h1.128v-.342c.28.288.637.439 1.038.439 1.126 0 1.772-.885 1.772-2.43 0-1.442-.688-2.338-1.795-2.338m-.211 1.035c.412 0 .852.336.852 1.276 0 .953-.271 1.417-.829 1.417-.423 0-.704-.282-.827-.43v-1.798c.187-.289.472-.465.804-.465m-12.629-.617a1.42 1.42 0 0 0-1.015-.42c-1.104 0-1.792.896-1.792 2.338 0 1.522.663 2.43 1.769 2.43.398 0 .748-.148 1.038-.441v.106c0 .501-.001 1.187-1.461 1.213l-.051.001.399.887h.023c1.493-.024 2.218-.772 2.218-2.288v-4.148h-1.128v.322Zm0 1.061v1.796c-.18.234-.396.451-.801.451-.39 0-.855-.246-.855-1.417 0-1.055.46-1.276.846-1.276.424 0 .678.252.81.446m4.637-.259a2.22 2.22 0 0 1 1.17-.316c.534 0 .817.227.817.658v.309a2.307 2.307 0 0 0-.973-.216c-.84 0-1.823.392-1.823 1.499 0 1.192.914 1.614 1.696 1.614.322 0 .79-.125 1.1-.471v.374h1.128v-3.083c0-.994-.69-1.588-1.846-1.588-.625 0-1.179.14-1.709.442l.44.778Zm.322 1.934c0-.407.291-.65.778-.65.334 0 .625.066.887.226v.626a1.057 1.057 0 0 1-.887.482c-.48 0-.778-.262-.778-.684m13.3.189c-.204.186-.485.385-.901.385-.226 0-.96-.073-1.015-.997H49.2c.007-.094.013-.228.013-.342 0-1.451-.752-2.389-1.917-2.389-1.188 0-2.047 1.005-2.047 2.389 0 1.445.847 2.379 2.163 2.379a2.13 2.13 0 0 0 1.614-.717l-.713-.708Zm-1.9-1.439c.027-.559.373-.946.85-.946.596 0 .835.482.862.946h-1.712Zm12.8 1.439c-.204.186-.486.385-.901.385-.226 0-.96-.073-1.015-.997H60.1a5.77 5.77 0 0 0 .013-.342c0-1.451-.753-2.389-1.917-2.389-1.188 0-2.05 1.005-2.05 2.389 0 1.445.85 2.379 2.166 2.379.602 0 1.175-.235 1.614-.717l-.713-.708Zm-1.901-1.439c.028-.559.374-.946.851-.946.596 0 .835.482.861.946h-1.712Zm-2.724 1.179c0 .407.153.616.489.616.236 0 .475-.096.683-.208l-.132 1.066a2.063 2.063 0 0 1-.95.211c-.9 0-1.22-.755-1.22-1.402V61.34h-.702v-1.059h.702v-1.173l1.13-.565v1.738h1.028v1.059h-1.028v1.926Zm-2.19 1.474a2.056 2.056 0 0 1-.949.211c-.901 0-1.219-.755-1.219-1.402V61.34h-.707v-1.059h.707v-1.173l1.129-.565v1.738h.964v1.059h-.964v1.926c0 .407.153.616.488.616.237 0 .476-.096.684-.208l-.133 1.066Zm11.133-3.179a1.312 1.312 0 0 0-.746-.248c-.556 0-.815.337-.815 1.063v2.478h-1.13v-4.573h1.13v.396c.271-.343.61-.494 1.01-.494.301 0 .632.108.849.276l-.298 1.102Zm-51.001-2.37v.436h-1.127v-1.128h1.127v.692Zm7.866 1.09h1.129v4.573h-1.129v-4.573Zm1.128-1.218v.564h-1.128v-1.128h1.128v.564Zm31.022 9.527a1.37 1.37 0 0 0-1.014-.42c-1.106 0-1.793.896-1.793 2.338 0 1.522.662 2.43 1.769 2.43.38 0 .736-.142 1.038-.447v.35h1.129v-6.474l-1.129.565v1.658Zm-.795 3.307c-.393 0-.861-.245-.861-1.416 0-1.055.46-1.276.847-1.276.424 0 .677.252.809.446v1.796c-.167.218-.375.45-.795.45M14.18 69.548a1.326 1.326 0 0 0-.748-.248c-.557 0-.815.337-.815 1.063v2.478h-1.13v-4.573h1.13v.396c.271-.343.61-.494 1.009-.494.302 0 .636.108.852.276l-.298 1.102Zm-8.887-1.281H6.41L5.118 72.84h-.971l-.507-1.898c-.085-.334-.188-.736-.249-.995-.043.186-.171.75-.254 1.032l-.502 1.861h-.976l-.007-.024-1.284-4.549h1.163l.421 1.708c.064.268.172.777.229 1.121.064-.339.187-.832.271-1.145l.477-1.684h.96l.477 1.684c.081.301.204.797.272 1.151.052-.294.146-.721.242-1.152l.413-1.683Zm3.419-.103c-1.203 0-2.077 1.005-2.077 2.389s.874 2.389 2.077 2.389c1.205 0 2.079-1.005 2.079-2.389s-.874-2.389-2.079-2.389m0 3.711c-.562 0-.925-.519-.925-1.322 0-.804.363-1.322.925-1.322.563 0 .927.518.927 1.322 0 .803-.364 1.322-.927 1.322m38.272-2.327a1.326 1.326 0 0 0-.748-.248c-.557 0-.813.337-.813 1.063v2.478h-1.13v-4.573h1.13v.396a1.214 1.214 0 0 1 1.007-.494c.302 0 .635.108.852.276l-.298 1.102Zm-8.886-1.281h1.117l-1.291 4.573h-.971l-.508-1.898a57.822 57.822 0 0 1-.249-.995c-.043.186-.171.75-.254 1.032l-.502 1.861h-.976l-.007-.024-1.285-4.549h1.165l.42 1.708c.063.268.172.777.229 1.121.063-.339.187-.832.271-1.145l.477-1.684h.961l.477 1.684c.081.301.203.797.272 1.151.052-.294.145-.721.242-1.152l.412-1.683Zm3.412-.101c-1.204 0-2.078 1.005-2.078 2.389s.874 2.389 2.078 2.389c1.204 0 2.079-1.005 2.079-2.389s-.875-2.389-2.079-2.389m0 3.711c-.563 0-.927-.519-.927-1.322s.364-1.322.927-1.322c.562 0 .927.519.927 1.322s-.365 1.322-.927 1.322m-23.966-2.103 1.392 3.066h-1.248l-.962-2.123-.597.753v1.37h-1.125v-5.902l1.125-.564v3.64c.141-.202.307-.419.428-.574l.902-1.173h1.305l-1.22 1.507Zm5.364 3.067h-1.13v-4.573h1.13v.386c.277-.313.68-.485 1.145-.485 1.096 0 1.675.722 1.675 2.087v2.585h-1.129v-2.52c0-.762-.262-1.117-.824-1.117-.567 0-.867.384-.867 1.11v2.527Zm6.385-4.253a1.422 1.422 0 0 0-1.015-.42c-1.104 0-1.792.896-1.792 2.338 0 1.522.662 2.43 1.769 2.43a1.42 1.42 0 0 0 1.038-.441v.106c0 .501-.001 1.187-1.458 1.213l-.052.001.398.887h.021c1.493-.024 2.22-.772 2.22-2.288v-4.148h-1.129v.322Zm0 1.061v1.796c-.18.234-.397.451-.801.451-.39 0-.852-.246-.852-1.417 0-1.055.457-1.276.843-1.276.424 0 .678.252.81.446m-9.658-1.381h1.129v4.573h-1.129v-4.573Zm1.128-1.217v.563h-1.128v-1.127h1.128v.564Zm27.055-.113 1.129-.564v6.466h-1.129v-5.902ZM8.529 42.172h9.299v-5.4H8.529v-4.244h10.287l-3.413-5.915H.816V52.33h20.573v-5.915H8.529v-4.243Zm26.553-15.559-4.369 8.393-4.358-8.393h-8.527l8.985 15.559V52.33h7.69V42.172L43.5 26.613h-8.418Z" style="fill:#414042;fill-rule:nonzero"/></svg>