<?xml version="1.0" encoding="UTF-8" standalone="no"?><!DOCTYPE svg PUBLIC "-//W3C//DTD SVG 1.1//EN" "http://www.w3.org/Graphics/SVG/1.1/DTD/svg11.dtd"><svg width="100%" height="100%" viewBox="0 0 64 75" version="1.1" xmlns="http://www.w3.org/2000/svg" xmlns:xlink="http://www.w3.org/1999/xlink" xml:space="preserve" xmlns:serif="http://www.serif.com/" style="fill-rule:evenodd;clip-rule:evenodd;stroke-linejoin:round;stroke-miterlimit:2;"><g id="logo"><path d="M51.213,0.342l-50.841,18.556l50.841,-8.981l0,-9.575Z" style="fill:#ffd400;fill-rule:nonzero;"/><path d="M5.64,62.853c0,-0.869 -0.601,-1.249 -0.926,-1.392c0.429,-0.231 0.713,-0.718 0.713,-1.236c0,-1.037 -0.709,-1.631 -1.943,-1.631l-2.668,0l0,6.26l2.641,0c1.367,0 2.183,-0.748 2.183,-2.001m-2.179,0.941l-1.482,0l0,-1.782l1.482,0c0.63,0 0.949,0.299 0.949,0.887c0,0.569 -0.346,0.895 -0.949,0.895m-0.009,-2.801l-1.474,0l0,-1.338l1.412,0c0.555,0 0.824,0.221 0.824,0.674c0,0.303 -0.132,0.664 -0.762,0.664m2.986,1.872l0,-2.584l1.13,0l0,2.519c0,0.762 0.267,1.117 0.84,1.117c0.564,0 0.85,-0.374 0.85,-1.11l0,-2.526l1.129,0l0,4.573l-1.129,0l0,-0.366c-0.278,0.308 -0.646,0.463 -1.093,0.463c-1.502,0 -1.727,-1.307 -1.727,-2.086m17.231,1.989l-1.13,0l0,-4.573l1.13,0l0,0.385c0.277,-0.313 0.68,-0.484 1.146,-0.484c1.095,0 1.674,0.721 1.674,2.087l0,2.585l-1.129,0l0,-2.52c0,-0.762 -0.262,-1.117 -0.823,-1.117c-0.568,0 -0.868,0.384 -0.868,1.11l0,2.527Zm-11.137,-2.287l0,2.287l-1.129,0l0,-4.573l1.129,0l0,2.286Zm1.007,-3.623l1.129,-0.565l0,6.475l-1.129,0l0,-5.91Zm4.721,1.659c-0.275,-0.286 -0.63,-0.42 -1.014,-0.42c-1.106,0 -1.793,0.896 -1.793,2.338c0,1.522 0.662,2.43 1.769,2.43c0.38,0 0.735,-0.141 1.038,-0.446l0,0.349l1.128,0l0,-6.475l-1.128,0.565l0,1.659Zm-0.795,3.308c-0.393,0 -0.861,-0.246 -0.861,-1.417c0,-1.055 0.461,-1.276 0.847,-1.276c0.423,0 0.677,0.252 0.809,0.446l0,1.796c-0.168,0.218 -0.376,0.451 -0.795,0.451m25.429,-3.728c-0.353,0 -0.727,0.158 -1.015,0.425l0,-2.112l-1.128,0.564l0,5.794l1.128,0l0,-0.342c0.28,0.288 0.637,0.439 1.038,0.439c1.126,0 1.772,-0.885 1.772,-2.43c0,-1.442 -0.688,-2.338 -1.795,-2.338m-0.211,1.035c0.412,0 0.852,0.336 0.852,1.276c0,0.953 -0.271,1.417 -0.829,1.417c-0.423,0 -0.704,-0.282 -0.827,-0.43l0,-1.798c0.187,-0.289 0.472,-0.465 0.804,-0.465m-12.629,-0.617c-0.272,-0.272 -0.63,-0.42 -1.015,-0.42c-1.104,0 -1.792,0.896 -1.792,2.338c0,1.522 0.663,2.43 1.769,2.43c0.398,0 0.748,-0.148 1.038,-0.441l0,0.106c0,0.501 -0.001,1.187 -1.461,1.213l-0.051,0.001l0.399,0.887l0.023,0c1.493,-0.024 2.218,-0.772 2.218,-2.288l0,-4.148l-1.128,0l0,0.322Zm0,1.061l0,1.796c-0.18,0.234 -0.396,0.451 -0.801,0.451c-0.39,0 -0.855,-0.246 -0.855,-1.417c0,-1.055 0.46,-1.276 0.846,-1.276c0.424,0 0.678,0.252 0.81,0.446m4.637,-0.259c0.36,-0.202 0.697,-0.316 1.17,-0.316c0.534,0 0.817,0.227 0.817,0.658l0,0.309c-0.262,-0.132 -0.636,-0.216 -0.973,-0.216c-0.84,0 -1.823,0.392 -1.823,1.499c0,1.192 0.914,1.614 1.696,1.614c0.322,0 0.79,-0.125 1.1,-0.471l0,0.374l1.128,0l0,-3.083c0,-0.994 -0.69,-1.588 -1.846,-1.588c-0.625,0 -1.179,0.14 -1.709,0.442l0.44,0.778Zm0.322,1.934c0,-0.407 0.291,-0.65 0.778,-0.65c0.334,0 0.625,0.066 0.887,0.226l0,0.626c-0.144,0.239 -0.472,0.482 -0.887,0.482c-0.48,0 -0.778,-0.262 -0.778,-0.684m13.3,0.189c-0.204,0.186 -0.485,0.385 -0.901,0.385c-0.226,0 -0.96,-0.073 -1.015,-0.997l2.803,0c0.007,-0.094 0.013,-0.228 0.013,-0.342c0,-1.451 -0.752,-2.389 -1.917,-2.389c-1.188,0 -2.047,1.005 -2.047,2.389c0,1.445 0.847,2.379 2.163,2.379c0.603,0 1.185,-0.235 1.614,-0.717l-0.713,-0.708Zm-1.9,-1.439c0.027,-0.559 0.373,-0.946 0.85,-0.946c0.596,0 0.835,0.482 0.862,0.946l-1.712,0Zm12.8,1.439c-0.204,0.186 -0.486,0.385 -0.901,0.385c-0.226,0 -0.96,-0.073 -1.015,-0.997l2.803,0c0.006,-0.094 0.013,-0.228 0.013,-0.342c0,-1.451 -0.753,-2.389 -1.917,-2.389c-1.188,0 -2.05,1.005 -2.05,2.389c0,1.445 0.85,2.379 2.166,2.379c0.602,0 1.175,-0.235 1.614,-0.717l-0.713,-0.708Zm-1.901,-1.439c0.028,-0.559 0.374,-0.946 0.851,-0.946c0.596,0 0.835,0.482 0.861,0.946l-1.712,0Zm-2.724,1.179c0,0.407 0.153,0.616 0.489,0.616c0.236,0 0.475,-0.096 0.683,-0.208l-0.132,1.066c-0.264,0.138 -0.593,0.211 -0.95,0.211c-0.9,0 -1.22,-0.755 -1.22,-1.402l0,-2.209l-0.702,0l0,-1.059l0.702,0l0,-1.173l1.13,-0.565l0,1.738l1.028,0l0,1.059l-1.028,0l0,1.926Zm-2.19,1.474c-0.263,0.138 -0.592,0.211 -0.949,0.211c-0.901,0 -1.219,-0.755 -1.219,-1.402l0,-2.209l-0.707,0l0,-1.059l0.707,0l0,-1.173l1.129,-0.565l0,1.738l0.964,0l0,1.059l-0.964,0l0,1.926c0,0.407 0.153,0.616 0.488,0.616c0.237,0 0.476,-0.096 0.684,-0.208l-0.133,1.066Zm11.133,-3.179c-0.224,-0.155 -0.479,-0.248 -0.746,-0.248c-0.556,0 -0.815,0.337 -0.815,1.063l0,2.478l-1.13,0l0,-4.573l1.13,0l0,0.396c0.271,-0.343 0.61,-0.494 1.01,-0.494c0.301,0 0.632,0.108 0.849,0.276l-0.298,1.102Zm-51.001,-2.37l0,0.436l-1.127,0l0,-1.128l1.127,0l0,0.692Zm7.866,1.09l1.129,0l0,4.573l-1.129,0l0,-4.573Zm1.128,-1.218l0,0.564l-1.128,0l0,-1.128l1.128,0l0,0.564Zm31.022,9.527c-0.275,-0.286 -0.63,-0.42 -1.014,-0.42c-1.106,0 -1.793,0.896 -1.793,2.338c0,1.522 0.662,2.43 1.769,2.43c0.38,0 0.736,-0.142 1.038,-0.447l0,0.35l1.129,0l0,-6.474l-1.129,0.565l0,1.658Zm-0.795,3.307c-0.393,0 -0.861,-0.245 -0.861,-1.416c0,-1.055 0.46,-1.276 0.847,-1.276c0.424,0 0.677,0.252 0.809,0.446l0,1.796c-0.167,0.218 -0.375,0.45 -0.795,0.45m-37.571,-2.349c-0.227,-0.155 -0.481,-0.248 -0.748,-0.248c-0.557,0 -0.815,0.337 -0.815,1.063l0,2.478l-1.13,0l0,-4.573l1.13,0l0,0.396c0.271,-0.343 0.61,-0.494 1.009,-0.494c0.302,0 0.636,0.108 0.852,0.276l-0.298,1.102Zm-8.887,-1.281l1.117,0l-1.292,4.573l-0.971,0l-0.507,-1.898c-0.085,-0.334 -0.188,-0.736 -0.249,-0.995c-0.043,0.186 -0.171,0.75 -0.254,1.032l-0.502,1.861l-0.976,0l-0.007,-0.024l-1.284,-4.549l1.163,0l0.421,1.708c0.064,0.268 0.172,0.777 0.229,1.121c0.064,-0.339 0.187,-0.832 0.271,-1.145l0.477,-1.684l0.96,0l0.477,1.684c0.081,0.301 0.204,0.797 0.272,1.151c0.052,-0.294 0.146,-0.721 0.242,-1.152l0.413,-1.683Zm3.419,-0.103c-1.203,0 -2.077,1.005 -2.077,2.389c0,1.384 0.874,2.389 2.077,2.389c1.205,0 2.079,-1.005 2.079,-2.389c0,-1.384 -0.874,-2.389 -2.079,-2.389m0,3.711c-0.562,0 -0.925,-0.519 -0.925,-1.322c0,-0.804 0.363,-1.322 0.925,-1.322c0.563,0 0.927,0.518 0.927,1.322c0,0.803 -0.364,1.322 -0.927,1.322m38.272,-2.327c-0.227,-0.155 -0.481,-0.248 -0.748,-0.248c-0.557,0 -0.813,0.337 -0.813,1.063l0,2.478l-1.13,0l0,-4.573l1.13,0l0,0.396c0.268,-0.343 0.607,-0.494 1.007,-0.494c0.302,0 0.635,0.108 0.852,0.276l-0.298,1.102Zm-8.886,-1.281l1.117,0l-1.291,4.573l-0.971,0l-0.508,-1.898c-0.086,-0.334 -0.188,-0.736 -0.249,-0.995c-0.043,0.186 -0.171,0.75 -0.254,1.032l-0.502,1.861l-0.976,0l-0.007,-0.024l-1.285,-4.549l1.165,0l0.42,1.708c0.063,0.268 0.172,0.777 0.229,1.121c0.063,-0.339 0.187,-0.832 0.271,-1.145l0.477,-1.684l0.961,0l0.477,1.684c0.081,0.301 0.203,0.797 0.272,1.151c0.052,-0.294 0.145,-0.721 0.242,-1.152l0.412,-1.683Zm3.412,-0.101c-1.204,0 -2.078,1.005 -2.078,2.389c0,1.384 0.874,2.389 2.078,2.389c1.204,0 2.079,-1.005 2.079,-2.389c0,-1.384 -0.875,-2.389 -2.079,-2.389m0,3.711c-0.563,0 -0.927,-0.519 -0.927,-1.322c0,-0.803 0.364,-1.322 0.927,-1.322c0.562,0 0.927,0.519 0.927,1.322c0,0.803 -0.365,1.322 -0.927,1.322m-23.966,-2.103l1.392,3.066l-1.248,0l-0.962,-2.123l-0.597,0.753l0,1.37l-1.125,0l0,-5.902l1.125,-0.564l0,3.64c0.141,-0.202 0.307,-0.419 0.428,-0.574l0.902,-1.173l1.305,0l-1.22,1.507Zm5.364,3.067l-1.13,0l0,-4.573l1.13,0l0,0.386c0.277,-0.313 0.68,-0.485 1.145,-0.485c1.096,0 1.675,0.722 1.675,2.087l0,2.585l-1.129,0l0,-2.52c0,-0.762 -0.262,-1.117 -0.824,-1.117c-0.567,0 -0.867,0.384 -0.867,1.11l0,2.527Zm6.385,-4.253c-0.273,-0.272 -0.63,-0.42 -1.015,-0.42c-1.104,0 -1.792,0.896 -1.792,2.338c0,1.522 0.662,2.43 1.769,2.43c0.398,0 0.747,-0.148 1.038,-0.441l0,0.106c0,0.501 -0.001,1.187 -1.458,1.213l-0.052,0.001l0.398,0.887l0.021,0c1.493,-0.024 2.22,-0.772 2.22,-2.288l0,-4.148l-1.129,0l0,0.322Zm0,1.061l0,1.796c-0.18,0.234 -0.397,0.451 -0.801,0.451c-0.39,0 -0.852,-0.246 -0.852,-1.417c0,-1.055 0.457,-1.276 0.843,-1.276c0.424,0 0.678,0.252 0.81,0.446m-9.658,-1.381l1.129,0l0,4.573l-1.129,0l0,-4.573Zm1.128,-1.217l0,0.563l-1.128,0l0,-1.127l1.128,0l0,0.564Zm27.055,-0.113l1.129,-0.564l0,6.466l-1.129,0l0,-5.902Zm-39.289,-24.766l9.299,0l0,-5.4l-9.299,0l0,-4.244l10.287,0l-3.413,-5.915l-14.587,0l0,25.717l20.573,0l0,-5.915l-12.86,0l0,-4.243Zm26.553,-15.559l-4.369,8.393l-4.358,-8.393l-8.527,0l8.985,15.559l0,10.158l7.69,0l0,-10.158l8.997,-15.559l-8.418,0Z" style="fill:#414042;fill-rule:nonzero;"/></g></svg>