<svg xmlns="http://www.w3.org/2000/svg" viewBox="0 0 542.29 256.78"><defs><style>.cls-1,.cls-3{fill:#174775;}.cls-2{fill:#e2445e;}.cls-3{stroke:#174775;stroke-miterlimit:10;}</style></defs><g id="Calque_2" data-name="Calque 2"><g id="Calque_1-2" data-name="Calque 1"><path class="cls-1" d="M381.76,63.81c-1.12,4.16-2.19,8.24-3.31,12.31q-6.17,22.27-12.37,44.55-1.23,4.42-2.44,8.87a4,4,0,0,0-.32,1.71,4.41,4.41,0,0,0,1.09,2.2c.3.27,1.35,0,1.88-.34,7.74-4.75,15.42-9.61,23.18-14.33,9.07-5.51,18.21-10.9,27.31-16.37,3.29-2,6.5-4.12,9.8-6.09a6,6,0,0,1,2.83-.92c6.68-.07,13.36,0,20,0a5.54,5.54,0,0,1,1,.29c-2.6,1.64-4.92,3.15-7.29,4.58L391,131.7c-2.57,1.55-2.76,2.77-.68,4.94q17.25,18,34.52,36,4,4.17,8,8.37c.33.35.58.78,1.12,1.5h-4c-7.77,0-15.54,0-23.31,0a6.35,6.35,0,0,1-5-2.11q-17.58-18.57-35.22-37.11c-.8-.85-1.43-1.87-2.3-2.63-.64-.55-1.64-1.25-2.29-1.09a3.06,3.06,0,0,0-1.63,2c-2.08,7.46-4,15-6.09,22.42a51.27,51.27,0,0,1-2.71,8.55c-2.34,4.94-6.62,7.74-11.79,8.91-7.73,1.74-15.59.86-23.67,1,.15-.83.19-1.38.34-1.91,2.65-9.57,5.35-19.13,8-28.72,3.85-14.08,7.6-28.2,11.46-42.28q4.23-15.44,8.67-30.8a17.14,17.14,0,0,1,6.73-9.14c5.63-4.18,12.16-5.21,18.8-5.73C373.79,63.56,377.65,63.81,381.76,63.81Z"/><path class="cls-1" d="M209.17,182.3c1.67-3.69,4.08-6.39,7.55-7.48a45.26,45.26,0,0,1,10.84-1.93c8.4-.48,16.83-.42,25.23-.89A28.35,28.35,0,0,0,273,162c4.18-4.74,4.57-11.77.92-15.88a14,14,0,0,0-4-2.95,38.56,38.56,0,0,0-17.27-4c-11.83-.22-23.66-.17-35.5-.23a2.66,2.66,0,0,0-2.89,2.32c-3.55,13-7.19,26.06-10.77,39.09-.34,1.24-.73,2-2.28,2-9.65,0-19.31,0-29,0-.69,0-1.39-.14-2.27-.23.7-2.8,1.29-5.42,2-8q6.62-23.73,13.27-47.45c1.51-5.41,2.93-10.84,4.47-16.24,1.73-6.06,5.79-10,11.42-12.43a37.26,37.26,0,0,1,14.83-3c20.33.09,40.66,0,61,.16a40.25,40.25,0,0,1,17.35,3.62,23.47,23.47,0,0,1,6.4,4.38c4.9,4.87,4.52,10.5,1.18,16.27-4.39,7.6-11.79,10.79-19.82,12.87a19.66,19.66,0,0,0-3.52,1.07c-.61.3-1,1.12-1.43,1.71.65.47,1.25,1.22,2,1.37,2.77.54,5.65.64,8.36,1.38,5.15,1.39,9.82,3.63,12.13,9a14.59,14.59,0,0,1-.05,11.29c-3,7.78-9.13,12.47-16,16.34-9,5-18.74,7.05-28.86,7.3-14.51.36-29,.41-43.55.58C210.56,182.51,210.07,182.4,209.17,182.3Zm27-47.59v-.15c5-.23,10-.39,15-.71,5.66-.37,11.28-1.07,16.45-3.69,4.23-2.15,7.93-4.84,10-9.36a9.82,9.82,0,0,0-2.75-12.2,14.9,14.9,0,0,0-9.07-3.32c-10.29-.22-20.6-.21-30.89-.09a17.85,17.85,0,0,0-6.32,1.45c-2.84,1.17-5.43,2.84-6.37,6.14-1.76,6.18-3.56,12.35-5.31,18.53-.57,2,.6,3.41,2.71,3.41C225.16,134.7,230.68,134.71,236.19,134.71Z"/><path class="cls-1" d="M61.26,199c2.15-7.65,4.16-14.73,6.13-21.82q9.3-33.57,18.59-67.14c1.22-4.39,4.18-7.49,7.84-9.89,5.76-3.78,12.14-5.11,19-5.07,20.69.13,41.38.06,62.06.07.64,0,1.29.08,2.22.14a13.73,13.73,0,0,1-7,7.37c-4.23,2.21-8.85,2.87-13.49,3-7.54.24-15.1.13-22.64.19-4.77,0-9.23,1.08-13,4.17a7.07,7.07,0,0,0-1.74,2.14,18,18,0,0,0-1.38,3.45c-1.14,3.93-2.25,7.86-3.29,11.81-.92,3.49-.29,4.26,3.21,4.25l31.14,0h2.71c-3,1.88-5.5,3.5-8,5.07s-5.16,3.29-7.85,4.73a9.18,9.18,0,0,1-4.11,1.1c-6.16,0-12.33-.11-18.49-.26-2.37-.06-3.11,1.48-3.63,3.34q-3.12,11.07-6.21,22.16c-1.57,5.62-3.37,11.2-4.66,16.89-1.75,7.68-6.74,11.64-14,13.28C77,199.71,69.31,198.56,61.26,199Z"/><path class="cls-2" d="M405.84,68.46a64.33,64.33,0,0,1,5.5-26.8c10.59-23.35,28.51-37.42,53.71-41C500.83-4.4,534.13,19.81,541,55.48c5.65,29.41-7.49,58-32.49,72.73a67.87,67.87,0,0,1-32.5,9.34c-.55,0-1.62-.51-1.63-.81-.11-4.07-.07-8.14-.07-12.13,3.7-.49,7.1-.75,10.43-1.4a55.53,55.53,0,0,0,1-108.59C455,7.77,424.68,28.7,419.64,60c-.35,2.23-.34,4.52-.66,6.76-.09.61-.75,1.59-1.17,1.61C413.91,68.51,410,68.46,405.84,68.46Z"/><path class="cls-2" d="M431,58.38c2.73.41,5.32.76,7.89,1.17,3,.48,5.64,0,7.86-2.5,2.64-3,6.14-4.79,9.87-6.19a3.14,3.14,0,0,0,1.39-2.47,47.69,47.69,0,0,1,6.38-23.86,30.6,30.6,0,0,1,2.86-4.12c2.4-3,5.65-3.57,9.07-2.57,3.81,1.12,5.71,4.25,6.27,8a12.25,12.25,0,0,1-.7,5.73c-1.44,4.1-1.39,5.43,2,7.94,4.25,3.12,7.44,6.87,8.93,12.06.2.7,1.63,1.32,2.56,1.47,3.07.49,6.24.47,9.26,1.14,6.82,1.5,13.22,4,18.14,9.3,4.58,4.94,3.72,11.49-1.91,14.64a8,8,0,0,1-6.73.42,46.82,46.82,0,0,0-5-1.53,9.74,9.74,0,0,0-9.87,2.91A40.07,40.07,0,0,1,491,86.06c-1.75,1.06-2.8,2-2.6,4.2.87,9.6-2.48,18-7.7,25.71-2.71,4-6.54,5.33-10.55,3.73a10,10,0,0,1-5.71-10.55,51.94,51.94,0,0,1,1.57-6.37A3,3,0,0,0,464.71,99c-1.95-1.39-4.17-2.63-5.6-4.47a28.33,28.33,0,0,1-4.32-8c-.72-2.1-1.71-2.81-3.7-2.79-9.7.11-17.93-3.59-25.12-9.94a8.72,8.72,0,0,1-3-8.9,7.93,7.93,0,0,1,5.83-6.22C429.59,58.55,430.39,58.49,431,58.38Zm55.21,2a2.9,2.9,0,0,1-.22-.62c0-.74-.09-1.47,0-2.2.32-5.35-1.8-9.39-6.1-12.55-5.78-4.24-7-8.53-4.68-15.33a4.21,4.21,0,0,0,.34-2.12,14.22,14.22,0,0,0-1.23-2.74c-.89.47-2.16.69-2.6,1.43a51.33,51.33,0,0,0-3.74,7.4c-2.76,6.89-3.11,14.07-2.07,21.35.22,1.59,0,2.52-1.89,2.42a15.78,15.78,0,0,0-13.4,5.44A12.11,12.11,0,0,1,439.83,67c-2.37-.26-4.7-.85-7.07-1.12-.72-.08-1.93.22-2.15.69a3.12,3.12,0,0,0,.5,2.33,6,6,0,0,0,1.66,1.39c7.8,6.08,16.7,7.33,26.18,6,2.48-.36,2.79-.32,2.44,2.25-.87,6.38,1.36,11.13,6.82,14.41a11.08,11.08,0,0,1,1,.8c3.82,3,5.23,6.65,3.53,11.38A18.14,18.14,0,0,0,471.6,110c-.05,1,.77,1.94,1.19,2.91.88-.5,2-.8,2.57-1.55a42.49,42.49,0,0,0,2.57-4.81,27,27,0,0,0,3.34-15.19c-.33-4-.41-8.09-.6-12.07,5.86,1.48,8.35,1,12-2.43a46.57,46.57,0,0,1,3.94-3.77,17.89,17.89,0,0,1,5-2.81c4.72-1.5,9.28-.6,13.75,1.35.91.39,2.14,0,3.22,0-.28-1.19-.19-2.73-.92-3.5a16.79,16.79,0,0,0-4.85-3.6,39.67,39.67,0,0,0-16.55-4.13C493,60.35,489.65,60.41,486.25,60.41Z"/><path class="cls-2" d="M0,256.06a24.55,24.55,0,0,0,15.42-11.65,47.4,47.4,0,0,0,4.69-11.11q13.94-50,27.6-100.16c1.72-6.26,3.41-12.52,5.16-18.76,2.42-8.61,6.89-14.38,12.95-17.61a33,33,0,0,1,16.74-4.24c6,.22,12.06.85,16,1.14a89.07,89.07,0,0,0-11.24,4.64c-6.13,3.33-10.32,9.59-12.71,18.37q-15,55.11-30.14,110.12a119.58,119.58,0,0,1-4.27,13.75c-3.77,9.19-10.12,13.16-17,15-4.14,1.11-8.42,1.15-12.62,1.21C6.65,256.83,2.78,256.27,0,256.06Z"/><path class="cls-1" d="M369.15,231.38,378.51,244c-5,1.7-10.78.08-13.64-3.75-1.77-2.37-3.68-4.67-5.28-7.14-1.11-1.71-2.72-1.7-4.18-1.27a5.68,5.68,0,0,0-3,2.33,16.71,16.71,0,0,0-1.33,4.14c-1.36,4.6-3.4,6.08-8.52,6.15h-3.53c.16-.84.23-1.5.41-2.13q3.27-11.62,6.59-23.23c1.44-5,3-6.13,8.57-6.13,5.13,0,10.28-.2,15.4.1a28.82,28.82,0,0,1,8.69,1.85c4.33,1.7,5.37,5.34,3.13,9.29-1.85,3.28-5.07,4.88-8.61,6C372,230.65,370.74,230.94,369.15,231.38Zm-14.68-4.76c4.62,0,9,.21,13.32-.08,2.37-.15,3.76-2,4.38-4.15.73-2.58-.4-4.31-3.23-4.47a72.12,72.12,0,0,0-9.64,0,3.86,3.86,0,0,0-2.76,1.9A53,53,0,0,0,354.47,226.62Z"/><path class="cls-1" d="M113.68,244.69c.92-3.3,1.69-6,2.46-8.74,1.66-5.87,3.29-11.75,5-17.6,1.18-4,3-5.44,7.41-5.34,5.1.13,10.21.51,15.31.83a10.07,10.07,0,0,1,2.12.51c10.89,3.15,13.69,11.89,6.46,20.31-4.78,5.56-11.21,8.5-18.57,9.24C127.34,244.55,120.73,244.45,113.68,244.69Zm12-5.35c7.26,1.19,14.36-1.75,17.91-7.25,4.79-7.41,1.27-13.77-7.91-14.26-.36,0-.73,0-1.09,0a3.25,3.25,0,0,0-3.44,2.38C129.31,226.51,127.52,232.84,125.67,239.34Z"/><path class="cls-1" d="M303.64,244.44c-.3-2.08-.67-4-.87-6-.12-1.2-.61-1.69-1.92-1.66-2.64.07-5.29.14-7.92,0a7.23,7.23,0,0,0-6.89,3.14c-3.18,4.36-7.82,5.12-13.24,4.37.43-.7.75-1.29,1.13-1.84,5.65-8,11.33-16,17-24A12.12,12.12,0,0,1,302,213c2.48.1,5,0,7.67,0,.76,5.26,1.51,10.37,2.23,15.48.51,3.63,1.07,7.25,1.45,10.89s-.79,4.93-4.72,5.09C307,244.49,305.41,244.44,303.64,244.44Zm-3.36-23.65-.53-.08-7.92,11.22c3.2,0,5.88.06,8.55-.05.43,0,1.21-.77,1.17-1.12C301.2,227.43,300.72,224.11,300.28,220.79Z"/><path class="cls-1" d="M178.2,213c-1.63,5.82-3.23,11.34-4.73,16.89a17.61,17.61,0,0,0-.67,4.49c0,3.19,1.86,4.94,5.26,5.22a10.71,10.71,0,0,0,11.17-7.64c1.37-4.23,2.47-8.53,3.71-12.8,1.48-5.07,3-6.16,8.54-6.16H205c-.16.79-.24,1.37-.4,1.94-1.34,4.81-2.93,9.57-4,14.44-2,9.09-10,13.65-17.56,14.68a30.79,30.79,0,0,1-13.5-.69c-6.07-1.9-8.58-6.11-7-12,1.2-4.48,2.5-8.95,3.86-13.4,1.11-3.66,3-4.92,7-5C174.92,213,176.44,213,178.2,213Z"/><path class="cls-3" d="M385.56,244.47c1.89-6.67,3.65-12.93,5.43-19.19.79-2.73,1.56-5.47,2.44-8.18a5.27,5.27,0,0,1,5.06-4c10.11-.11,20.22,0,30.33,0,0,2.89-.88,4.06-3.78,4.39-2.61.29-5.27.25-7.9.29-3.08,0-6.16,0-9.24,0-3.84,0-4.39.43-5.38,3.86-.34,1.19-.65,2.39-1.07,3.93h21.14c-.29,3.58-1.33,4.63-5.19,4.8-4.1.18-8.21.09-12.31.1-4.85,0-5.21.26-6.43,4.73-.38,1.38-.7,2.78-1.11,4.39h23.8c-.28,3.6-1.32,4.69-5.29,4.78-7.18.16-14.37.1-21.55.12Z"/><path class="cls-1" d="M50,244.44c2.68-9.32,5.23-18.32,7.89-27.29a5.4,5.4,0,0,1,5.45-4.09c9.9-.07,19.79,0,29.69,0a1.25,1.25,0,0,1,.39.15c-.42,3.19-1.26,4.2-4.65,4.36-4.83.24-9.67.18-14.51.2-6.23,0-6.23,0-7.8,5.75-.16.6-.27,1.2-.46,2.08H86.88c.14,2.91-.55,4.1-3.25,4.45a92.06,92.06,0,0,1-9.41.43c-2.2.06-4.4,0-6.6,0a3.62,3.62,0,0,0-4,2.86c-.54,2-1.1,4-1.72,6-1.16,3.69-2.87,4.94-7,5.1C53.42,244.49,51.89,244.44,50,244.44Z"/><path class="cls-1" d="M252,213c-.4,3.26-1.2,4.24-4.31,4.48-3.35.27-6.78-.07-10.09.38a38.69,38.69,0,0,0-9.87,2.45c-4.39,1.86-6.56,5.61-7.2,10s1.88,8,6.65,8.76a77.07,77.07,0,0,0,9.63.46c2.49.07,5,0,7.48,0,0,3-.85,4.23-3.87,4.51-6.65.6-13.34.84-19.88-.84-13.52-3.48-12.39-13.85-7.33-20.24A25,25,0,0,1,221,217a36,36,0,0,1,16-3.9C242,212.93,246.9,213,252,213Z"/><path class="cls-1" d="M272,213l-4.49,15.86c-.89,3.14-1.76,6.28-2.66,9.41-1.32,4.59-3.43,6.13-8.47,6.22h-3.76c1.06-3.77,2-7.22,3-10.68,1.42-5,2.81-10,4.28-15,1.37-4.68,3-5.79,8.14-5.81Z"/><path class="cls-1" d="M338.45,213.2c-2.58,9.05-5.07,17.92-7.68,26.77a6,6,0,0,1-5.21,4.23c-2,.3-4.05.23-6.41.34.48-1.84.85-3.37,1.28-4.88,1.79-6.34,3.68-12.65,5.38-19C327.68,213.69,329.09,212.33,338.45,213.2Z"/><path class="cls-1" d="M94,244.47c1.57-5.58,3.06-10.9,4.57-16.22.9-3.2,1.8-6.4,2.74-9.59,1.3-4.42,3-5.64,7.81-5.68h4.22c-.67,2.45-1.26,4.69-1.89,6.93q-2.46,8.7-4.93,17.39c-1.69,5.91-3.45,7.18-9.89,7.17Z"/><path class="cls-2" d="M470.33,41.16c.73,5.61,4.9,8.55,8.81,11.7,2.81,2.27,3.35,4.22,2.23,7.49-1,2.79-3.5,3.47-5.79,4.46-.26.12-1-.28-1.16-.6C471.62,56.83,469.41,49.33,470.33,41.16Z"/><path class="cls-2" d="M444.24,71.43c5,.28,9-1.61,12.36-5.27,1.8-1.94,3.77-3.8,6.64-4.3a4.82,4.82,0,0,1,5.91,4.47,2.67,2.67,0,0,1-1.24,2A36.44,36.44,0,0,1,444.24,71.43Z"/><path class="cls-2" d="M502.84,65.17C496.56,65,491.94,68,488,72.59c-3.81,4.39-8.77,3.37-11.08-2.17C484.74,64.75,493.48,63.49,502.84,65.17Z"/><path class="cls-2" d="M477.17,93.92c-1.57-4.38-5.44-6.42-8.67-9.07s-3.78-5.29-2.19-9.09c.84-2,2.65-2.36,4.35-2.82.34-.09,1.18.9,1.46,1.54a53,53,0,0,1,4.49,15.92C476.73,91.58,477,92.75,477.17,93.92Z"/></g></g></svg>