<svg viewBox="0 0 218 121" xmlns="http://www.w3.org/2000/svg" xml:space="preserve" style="fill-rule:evenodd;clip-rule:evenodd;stroke-miterlimit:10"><path d="m123.04 56.245-29.5 51.079-88.5-51.095 88.5-51.096 29.5 51.112Zm-88.57 51.079 44.25-76.612L34.47 5.133l.07 102.191M34.47 5.133l29.541 51.045" style="fill:none;fill-rule:nonzero;stroke:#ed3142;stroke-width:1px"/><path d="M91.967 107.153a1.574 1.574 0 1 1 3.147.001 1.574 1.574 0 0 1-3.147-.001M62.466 56.245a1.574 1.574 0 1 1 3.147.001 1.574 1.574 0 0 1-3.147-.001M3.455 56.245a1.573 1.573 0 1 1 3.145 0 1.573 1.573 0 0 1-3.145 0M47.667 81.778a1.573 1.573 0 1 1 3.145 0 1.573 1.573 0 0 1-3.145 0M32.966 73.188a1.574 1.574 0 1 1 3.147.001 1.574 1.574 0 0 1-3.147-.001M32.896 39.259a1.574 1.574 0 1 1 3.149 0 1.574 1.574 0 0 1-3.149 0M32.966 5.127a1.574 1.574 0 1 1 3.149 0 1.574 1.574 0 0 1-3.149 0M47.725 30.733a1.574 1.574 0 1 1 3.147.001 1.574 1.574 0 0 1-3.147-.001M62.466 22.219a1.574 1.574 0 1 1 3.147.001 1.574 1.574 0 0 1-3.147-.001M77.146 30.733a1.574 1.574 0 1 1 3.147.001 1.574 1.574 0 0 1-3.147-.001M91.952 5.158a1.574 1.574 0 1 1 3.147 0 1.574 1.574 0 0 1-3.147 0M32.966 107.153a1.574 1.574 0 1 1 3.147.001 1.574 1.574 0 0 1-3.147-.001M121.252 56.144a1.573 1.573 0 1 1 3.145 0 1.573 1.573 0 0 1-3.145 0" style="fill:#ed3142;fill-rule:nonzero"/><path d="M60.667 89.996v13.796h-11.06V61.248h26.497v9.725H60.667v9.298h13.676v9.725H60.667M110.283 70.973H94.541v6.017h14.466v9.662H94.541v7.476h16.289v9.664H83.723V61.248h26.56v9.725M130.676 93.885h5.166c13.553 0 13.553-22.731 0-22.731h-5.166v22.731Zm5.166 9.907h-16.045V61.248h16.045c27.714.121 27.714 42.422 0 42.544" style="fill:#1b3968;fill-rule:nonzero"/><path d="M182.595 94.25v9.542H161.02V94.25h5.41V70.729h-4.985v-9.481h20.725v9.481h-4.983V94.25h5.408M201.031 94.006h15.436v9.786h-26.376V61.248h10.94v32.758M88.16 114.596a3.965 3.965 0 0 1-.425.032 3.41 3.41 0 0 1-.417-.032v-.44h-.633l-.656 3.757.568.08a4.321 4.321 0 0 1-.136.753h-2.083a3.92 3.92 0 0 1 .136-.753l.521-.08.657-3.757h-.657l-.176.472c-.265 0-.569-.024-.826-.08.057-.32.193-.865.297-1.201h4.046l-.216 1.249M92.652 118.242c-.08.448-.304.585-.681.585-.601 0-.857-.281-.857-.785 0-.121.016-.257.04-.393l.313-1.747c.008-.048.016-.144.016-.184 0-.249-.16-.417-.569-.417-.337 0-.593.088-.889.281l-.425 2.379.521.081c0 .128-.048.464-.12.704h-1.843c0-.128.048-.456.12-.704l.416-.081.762-4.342-.505-.04c0-.144.048-.473.12-.681a9.048 9.048 0 0 1 1.482-.113l-.192.85-.232 1.322h.048c.392-.353.721-.473 1.161-.473.617 0 1.082.281 1.082 1.002 0 .096-.016.24-.032.336l-.329 1.851c-.007.04-.015.104-.015.16 0 .112.072.152.208.152h.449l-.049.257M95.431 115.181c-.465 0-.778.312-.93 1.082h1.474c.033-.144.065-.361.065-.473 0-.416-.233-.609-.609-.609Zm1.338 1.731h-2.388c-.008.088-.016.2-.016.28 0 .553.256.793.881.793.345 0 .818-.12 1.106-.28.064.264.096.569.096.833-.352.201-.897.289-1.33.289-1.114 0-1.707-.585-1.707-1.667 0-.176.017-.377.049-.577.256-1.522 1.049-2.099 2.027-2.099.945 0 1.45.505 1.45 1.394 0 .224-.072.681-.168 1.034M104.442 114.099l-.369.081c-.713 1.538-1.45 3.06-2.228 4.566h-1.081a77.347 77.347 0 0 1-.601-4.566l-.408-.081c.023-.264.072-.52.144-.752h1.754c-.024.256-.064.52-.136.752l-.369.081.337 2.94c.016.136.016.345.016.537h.072c.032-.184.088-.417.144-.537l1.371-2.94-.393-.081c.024-.264.072-.52.136-.752h1.747c-.024.256-.073.52-.136.752M106.338 115.269c-.521 0-.889.305-1.073 1.378a3.09 3.09 0 0 0-.056.561c0 .617.312.834.753.834.561 0 .913-.337 1.089-1.379.032-.2.049-.384.049-.528 0-.642-.321-.866-.762-.866Zm1.675 1.483c-.249 1.434-1.042 2.075-2.107 2.075-.986 0-1.659-.529-1.659-1.651 0-.192.008-.393.048-.617.241-1.426 1.026-2.075 2.108-2.075.961 0 1.658.505 1.658 1.659 0 .184-.008.4-.048.609M110.254 113.963c-.304 0-.464-.208-.464-.44 0-.353.256-.625.625-.625.312 0 .456.208.456.44 0 .377-.24.625-.617.625Zm.241 1.411-.457 2.587.577.081c0 .128-.048.464-.12.704h-1.899c0-.128.048-.456.12-.704l.417-.081.456-2.603-.504-.041c0-.144.048-.472.12-.68a8.922 8.922 0 0 1 1.482-.113l-.192.85M114.596 115.838a2.965 2.965 0 0 1-.77 0v-.464a1.003 1.003 0 0 0-.368-.073c-.505 0-.809.409-.954 1.314a2.997 2.997 0 0 0-.048.513c0 .625.297.849.842.849.256 0 .609-.12.881-.272.056.256.088.569.096.857-.32.177-.817.265-1.13.265-1.081 0-1.674-.593-1.674-1.667 0-.184.008-.377.04-.577.264-1.57 1.066-2.099 2.059-2.099.441 0 .865.088 1.226.264l-.2 1.09M117.246 115.181c-.465 0-.777.312-.929 1.082h1.474c.032-.144.064-.361.064-.473 0-.416-.232-.609-.609-.609Zm1.338 1.731h-2.388c-.008.088-.016.2-.016.28 0 .553.257.793.882.793.344 0 .817-.12 1.105-.28.064.264.096.569.096.833-.352.201-.897.289-1.329.289-1.114 0-1.707-.585-1.707-1.667 0-.176.016-.377.048-.577.256-1.522 1.049-2.099 2.027-2.099.945 0 1.45.505 1.45 1.394 0 .224-.072.681-.168 1.034M123.485 115.269c-.521 0-.89.305-1.074 1.378a3.09 3.09 0 0 0-.056.561c0 .617.312.834.753.834.561 0 .913-.337 1.09-1.379.032-.2.048-.384.048-.528 0-.642-.321-.866-.761-.866Zm1.674 1.483c-.248 1.434-1.041 2.075-2.107 2.075-.985 0-1.659-.529-1.659-1.651 0-.192.008-.393.049-.617.24-1.426 1.025-2.075 2.107-2.075.961 0 1.658.505 1.658 1.659 0 .184-.008.4-.048.609M128.755 113.635a4.272 4.272 0 0 0-.433-.032c-.296 0-.449.144-.513.505l-.088.456h.913c-.048.265-.12.537-.2.794h-.849l-.657 3.741c-.184 1.025-.801 1.378-1.538 1.378-.153 0-.409-.024-.489-.04.016-.24.064-.545.152-.809.128.016.321.032.433.032.296 0 .456-.152.521-.513l.665-3.789h-.497l.152-.794h.481l.072-.4c.2-1.042.817-1.379 1.53-1.379.16 0 .377.017.497.041a3.87 3.87 0 0 1-.152.809M134.257 118.746h-3.694a3.92 3.92 0 0 1 .136-.753l.521-.08.657-3.733-.569-.081c.024-.264.072-.52.144-.752h2.1c-.016.256-.064.52-.129.752l-.544.081-.657 3.749h1.233l.169-.504a3.943 3.943 0 0 1 .865 0l-.232 1.321M139.158 118.242c-.08.424-.296.585-.673.585-.368 0-.665-.128-.809-.481h-.048c-.401.368-.761.481-1.25.481-.625 0-1.097-.297-1.097-1.018 0-.096.016-.216.031-.312l.369-2.139-.441-.041c0-.144.049-.472.121-.68.408-.081.953-.113 1.418-.113l-.185.85-.36 2.035a.973.973 0 0 0-.016.16c0 .28.176.44.577.44.28 0 .569-.072.849-.24l.425-2.428-.521-.08c0-.144.056-.489.128-.697h1.474l-.176.81-.401 2.299a.98.98 0 0 0-.016.152c0 .12.057.16.193.16h.456l-.048.257M143.875 115.269l-.36.08-1.018 1.298.513 1.098c.096.2.168.24.424.24h.233l-.048.257c-.073.4-.265.585-.649.585-.385 0-.585-.153-.778-.601l-.368-.85a1.204 1.204 0 0 1-.096-.36h-.048c-.048.12-.112.24-.208.369l-.433.576.288.081c0 .128-.04.464-.112.704h-1.618c0-.128.048-.456.12-.704l.369-.081 1.097-1.386-.561-1.217-.504-.041c0-.144.047-.472.12-.68a5.923 5.923 0 0 1 1.097-.113l.521 1.314c.048.128.08.233.096.361H142c.048-.12.112-.233.209-.369l.36-.481-.304-.08c.008-.128.048-.464.12-.705h1.61a3.3 3.3 0 0 1-.12.705M146.405 115.181c-.465 0-.777.312-.929 1.082h1.474c.032-.144.064-.361.064-.473 0-.416-.233-.609-.609-.609Zm1.338 1.731h-2.388c-.008.088-.016.2-.016.28 0 .553.257.793.882.793.344 0 .817-.12 1.105-.28.064.264.096.569.096.833-.352.201-.897.289-1.329.289-1.114 0-1.707-.585-1.707-1.667 0-.176.016-.377.048-.577.256-1.522 1.05-2.099 2.027-2.099.945 0 1.45.505 1.45 1.394 0 .224-.072.681-.168 1.034M154.96 118.242c-.08.448-.304.585-.681.585-.593 0-.849-.281-.849-.785 0-.121.016-.257.04-.393l.304-1.747c.008-.048.016-.144.016-.184 0-.256-.152-.417-.48-.417-.297 0-.537.097-.794.281l-.424 2.379.496.081a3.777 3.777 0 0 1-.128.704h-1.41l.505-2.868c.008-.048.016-.128.016-.176 0-.256-.144-.401-.465-.401a1.44 1.44 0 0 0-.817.281l-.425 2.379.489.081c0 .128-.04.464-.112.704h-1.819c0-.128.048-.456.12-.704l.417-.081.457-2.603-.505-.041c0-.144.048-.472.12-.68a8.463 8.463 0 0 1 1.442-.113l-.08.433h.048c.417-.377.737-.473 1.13-.473.408 0 .713.136.833.513.473-.401.841-.513 1.29-.513.577 0 1.034.288 1.034 1.002 0 .104-.017.232-.032.336l-.321 1.851a.9.9 0 0 0-.016.16c0 .112.064.152.2.152h.449l-.048.257M157.994 115.285c-.281 0-.537.089-.77.257l-.408 2.331c.168.096.465.144.673.144.577 0 .961-.304 1.13-1.289.04-.241.072-.457.072-.642 0-.593-.289-.801-.697-.801Zm1.61 1.41c-.216 1.427-.954 2.132-2.155 2.132-.577 0-1.218-.161-1.627-.489l.834-4.719-.505-.04c0-.144.048-.473.12-.681a9.048 9.048 0 0 1 1.482-.113l-.192.85-.216 1.226h.048c.312-.273.601-.377.969-.377.753 0 1.29.505 1.29 1.562 0 .177-.016.433-.048.649M162.446 115.269c-.52 0-.889.305-1.073 1.378a3.09 3.09 0 0 0-.056.561c0 .617.312.834.753.834.56 0 .913-.337 1.089-1.379.032-.2.048-.384.048-.528 0-.642-.32-.866-.761-.866Zm1.675 1.483c-.249 1.434-1.042 2.075-2.107 2.075-.986 0-1.659-.529-1.659-1.651 0-.192.008-.393.048-.617.24-1.426 1.026-2.075 2.107-2.075.962 0 1.659.505 1.659 1.659 0 .184-.008.4-.048.609M169.054 118.242c-.08.424-.296.585-.673.585-.368 0-.665-.128-.809-.481h-.048c-.401.368-.761.481-1.25.481-.625 0-1.098-.297-1.098-1.018 0-.096.016-.216.032-.312l.369-2.139-.441-.041c0-.144.048-.472.121-.68.408-.081.953-.113 1.418-.113l-.185.85-.36 2.035a.973.973 0 0 0-.016.16c0 .28.176.44.577.44.28 0 .569-.072.849-.24l.425-2.428-.521-.08c0-.144.056-.489.128-.697h1.474l-.176.81-.401 2.299a.98.98 0 0 0-.016.152c0 .12.056.16.192.16h.457l-.048.257M172.786 115.493a1.428 1.428 0 0 0-.433-.055 1.28 1.28 0 0 0-.841.296l-.393 2.227.585.081c0 .128-.048.464-.12.704h-1.907c0-.128.048-.456.12-.704l.417-.081.457-2.603-.505-.041c0-.144.048-.472.12-.68a8.463 8.463 0 0 1 1.442-.113l-.096.529h.048c.417-.505.737-.569.994-.569.104 0 .264.016.352.056a5.71 5.71 0 0 1-.24.953M175.108 115.181c-.521 0-.769.337-.769.921 0 .369.168.577.576.577.489 0 .77-.288.77-.889 0-.416-.193-.609-.577-.609Zm1.867.064-.545.032v.04c.08.136.128.329.128.521 0 1.026-.737 1.538-1.611 1.538-.224 0-.44-.031-.601-.095-.216.288-.272.408-.272.512 0 .096.064.12.176.12h.986c.769 0 1.194.297 1.194 1.074 0 .921-.73 1.49-2.043 1.49-1.162 0-1.587-.384-1.587-.905 0-.361.184-.601.625-.625l.345-.024a.819.819 0 0 0-.072.336c0 .281.2.441.801.441.673 0 1.049-.176 1.049-.593 0-.256-.112-.337-.336-.337h-1.082c-.697 0-.953-.336-.953-.889.128-.248.392-.633.601-.905-.201-.176-.329-.513-.329-.866 0-1.033.697-1.626 1.651-1.626.232 0 .545.032.729.08h1.314a3.583 3.583 0 0 1-.168.681M178.423 115.149c-.184.072-.425.096-.649.096l.232-2.211h.97l-.553 2.115M182.091 115.622a3.285 3.285 0 0 1-.777 0v-.353a1.612 1.612 0 0 0-.384-.048c-.393 0-.617.161-.617.481 0 .593 1.65.481 1.65 1.738 0 .866-.665 1.387-1.706 1.387-.465 0-1.026-.097-1.346-.273l.168-.937c.12-.016.257-.024.369-.024.12 0 .296.008.408.024v.385c.12.04.313.071.489.071.449 0 .649-.176.649-.488 0-.625-1.643-.537-1.643-1.691 0-.809.593-1.41 1.755-1.41.377 0 .841.064 1.17.176l-.185.962M187.385 114.099l-.521.081-.657 3.733.561.08a3.21 3.21 0 0 1-.136.753h-2.083a3.92 3.92 0 0 1 .136-.753l.521-.08.657-3.733-.569-.081c.024-.264.072-.52.144-.752h2.083a3.896 3.896 0 0 1-.136.752M192.071 118.242c-.08.448-.305.585-.681.585-.601 0-.858-.281-.858-.785 0-.121.016-.257.04-.393l.313-1.747c.008-.048.016-.144.016-.184 0-.272-.176-.417-.553-.417-.336 0-.601.088-.889.281l-.425 2.379.521.081c0 .128-.048.464-.12.704h-1.843c0-.128.048-.456.12-.704l.417-.081.457-2.603-.505-.041c0-.144.048-.472.12-.68.44-.081.977-.113 1.442-.113l-.08.433h.048c.416-.369.761-.473 1.162-.473.585 0 1.065.264 1.065 1.002 0 .096-.016.24-.032.336l-.328 1.851a.9.9 0 0 0-.016.16c0 .112.072.152.208.152h.449l-.048.257M194.953 115.285c-.433 0-.809.193-1.01.93a4.11 4.11 0 0 0-.152 1.001c0 .577.265.809.689.809.273 0 .529-.072.769-.232l.417-2.379a2.313 2.313 0 0 0-.713-.129Zm1.931-1.65-.705 4.038a.98.98 0 0 0-.016.152c0 .12.056.16.192.16h.457l-.048.257c-.081.424-.297.585-.674.585-.368 0-.657-.137-.777-.481h-.048c-.368.393-.713.481-1.137.481-.81 0-1.298-.545-1.298-1.563 0-.352.048-.737.128-1.057.32-1.218 1.033-1.723 2.003-1.723.256 0 .609.048.841.12l.176-.985-.504-.04c0-.144.048-.473.12-.681a9.108 9.108 0 0 1 1.482-.113l-.192.85M201.737 118.242c-.08.424-.297.585-.673.585-.368 0-.665-.128-.809-.481h-.048c-.401.368-.761.481-1.25.481-.625 0-1.098-.297-1.098-1.018 0-.096.016-.216.032-.312l.369-2.139-.441-.041c0-.144.048-.472.12-.68.409-.081.954-.113 1.418-.113l-.184.85-.36 2.035a.97.97 0 0 0-.017.16c0 .28.177.44.578.44.28 0 .568-.072.849-.24l.424-2.428-.52-.08c0-.144.056-.489.128-.697h1.474l-.176.81-.401 2.299a.98.98 0 0 0-.016.152c0 .12.056.16.192.16h.457l-.048.257M205.492 115.622a3.256 3.256 0 0 1-.776 0v-.353a1.628 1.628 0 0 0-.385-.048c-.393 0-.617.161-.617.481 0 .593 1.65.481 1.65 1.738 0 .866-.665 1.387-1.706 1.387-.465 0-1.026-.097-1.346-.273l.168-.937c.12-.016.257-.024.369-.024.12 0 .296.008.408.024v.385c.12.04.313.071.489.071.449 0 .649-.176.649-.488 0-.625-1.643-.537-1.643-1.691 0-.809.593-1.41 1.755-1.41.377 0 .841.064 1.17.176l-.185.962M208.856 115.358h-1.002l-.368 2.107a1.59 1.59 0 0 0-.016.176c0 .256.128.344.425.344.184 0 .472-.056.649-.136.016.12.024.264.024.385 0 .136-.008.296-.024.44-.257.105-.674.153-.882.153-.777 0-1.121-.377-1.121-1.018 0-.128.016-.265.04-.4l.36-2.051h-.505l.145-.794h.496l.152-.865a3.74 3.74 0 0 1 .946-.16l-.184 1.025h1.049a3.818 3.818 0 0 1-.184.794M212.404 115.493a1.423 1.423 0 0 0-.433-.055 1.28 1.28 0 0 0-.841.296l-.393 2.227.585.081c0 .128-.048.464-.12.704h-1.907c0-.128.048-.456.12-.704l.417-.081.457-2.603-.505-.041c0-.144.048-.472.12-.68a8.463 8.463 0 0 1 1.442-.113l-.096.529h.048c.417-.505.737-.569.994-.569.104 0 .264.016.352.056a5.71 5.71 0 0 1-.24.953M216.905 115.269l-.32.08a81.341 81.341 0 0 1-1.731 3.341c-.841 1.531-1.306 1.787-2.075 1.787-.201 0-.505-.04-.753-.168.064-.265.176-.577.288-.818.176.081.417.121.633.121.273 0 .457-.121.665-.465l.248-.408a51.108 51.108 0 0 1-.608-3.381l-.449-.041c0-.144.048-.472.12-.68a6.436 6.436 0 0 1 1.17-.113l.368 2.692c.024.184.032.369.032.537h.049a3.48 3.48 0 0 1 .208-.545l.913-1.859-.432-.08c0-.128.047-.464.12-.705h1.666c0 .128-.04.457-.112.705" style="fill:#1b3968;fill-rule:nonzero"/></svg>