<?xml version="1.0" encoding="UTF-8" standalone="no"?><!DOCTYPE svg PUBLIC "-//W3C//DTD SVG 1.1//EN" "http://www.w3.org/Graphics/SVG/1.1/DTD/svg11.dtd"><svg width="100%" height="100%" viewBox="0 0 218 121" version="1.1" xmlns="http://www.w3.org/2000/svg" xmlns:xlink="http://www.w3.org/1999/xlink" xml:space="preserve" xmlns:serif="http://www.serif.com/" style="fill-rule:evenodd;clip-rule:evenodd;stroke-miterlimit:10;"><g><path d="M123.04,56.245l-29.5,51.079l-88.5,-51.095l88.5,-51.096l29.5,51.112Zm-88.57,51.079l44.25,-76.612l-44.25,-25.579l0.07,102.191m-0.07,-102.191l29.541,51.045" style="fill:none;fill-rule:nonzero;stroke:#ed3142;stroke-width:1px;"/><path d="M91.967,107.153c0,-0.869 0.705,-1.573 1.574,-1.573c0.869,0 1.573,0.704 1.573,1.573c0,0.869 -0.704,1.574 -1.573,1.574c-0.869,0 -1.574,-0.705 -1.574,-1.574" style="fill:#ed3142;fill-rule:nonzero;"/><path d="M62.466,56.245c0,-0.869 0.705,-1.573 1.574,-1.573c0.869,0 1.574,0.704 1.574,1.573c0,0.869 -0.705,1.574 -1.574,1.574c-0.869,0 -1.574,-0.705 -1.574,-1.574" style="fill:#ed3142;fill-rule:nonzero;"/><path d="M3.455,56.245c0,-0.869 0.704,-1.573 1.573,-1.573c0.869,0 1.573,0.704 1.573,1.573c0,0.869 -0.704,1.574 -1.573,1.574c-0.869,0 -1.573,-0.705 -1.573,-1.574" style="fill:#ed3142;fill-rule:nonzero;"/><path d="M47.667,81.778c0,-0.869 0.704,-1.573 1.573,-1.573c0.869,0 1.574,0.704 1.574,1.573c0,0.869 -0.705,1.574 -1.574,1.574c-0.869,0 -1.573,-0.705 -1.573,-1.574" style="fill:#ed3142;fill-rule:nonzero;"/><path d="M32.966,73.188c0,-0.869 0.705,-1.573 1.574,-1.573c0.869,0 1.573,0.704 1.573,1.573c0,0.869 -0.704,1.574 -1.573,1.574c-0.869,0 -1.574,-0.705 -1.574,-1.574" style="fill:#ed3142;fill-rule:nonzero;"/><path d="M32.896,39.259c0,-0.869 0.705,-1.574 1.574,-1.574c0.869,0 1.573,0.705 1.573,1.574c0,0.869 -0.704,1.573 -1.573,1.573c-0.869,0 -1.574,-0.704 -1.574,-1.573" style="fill:#ed3142;fill-rule:nonzero;"/><path d="M32.966,5.127c0,-0.869 0.705,-1.574 1.574,-1.574c0.869,0 1.573,0.705 1.573,1.574c0,0.869 -0.704,1.573 -1.573,1.573c-0.869,0 -1.574,-0.704 -1.574,-1.573" style="fill:#ed3142;fill-rule:nonzero;"/><path d="M47.725,30.733c0,-0.869 0.705,-1.573 1.574,-1.573c0.869,0 1.573,0.704 1.573,1.573c0,0.87 -0.704,1.574 -1.573,1.574c-0.869,0 -1.574,-0.704 -1.574,-1.574" style="fill:#ed3142;fill-rule:nonzero;"/><path d="M62.466,22.219c0,-0.869 0.705,-1.573 1.574,-1.573c0.869,0 1.574,0.704 1.574,1.573c0,0.869 -0.705,1.574 -1.574,1.574c-0.869,0 -1.574,-0.705 -1.574,-1.574" style="fill:#ed3142;fill-rule:nonzero;"/><path d="M77.146,30.733c0,-0.869 0.705,-1.573 1.574,-1.573c0.869,0 1.573,0.704 1.573,1.573c0,0.87 -0.704,1.574 -1.573,1.574c-0.869,0 -1.574,-0.704 -1.574,-1.574" style="fill:#ed3142;fill-rule:nonzero;"/><path d="M91.952,5.158c0,-0.869 0.704,-1.574 1.573,-1.574c0.87,0 1.574,0.705 1.574,1.574c0,0.869 -0.704,1.573 -1.574,1.573c-0.869,0 -1.573,-0.704 -1.573,-1.573" style="fill:#ed3142;fill-rule:nonzero;"/><path d="M32.966,107.153c0,-0.869 0.705,-1.573 1.574,-1.573c0.869,0 1.573,0.704 1.573,1.573c0,0.869 -0.704,1.574 -1.573,1.574c-0.869,0 -1.574,-0.705 -1.574,-1.574" style="fill:#ed3142;fill-rule:nonzero;"/><path d="M121.252,56.144c0,-0.869 0.704,-1.573 1.573,-1.573c0.869,0 1.574,0.704 1.574,1.573c0,0.869 -0.705,1.574 -1.574,1.574c-0.869,0 -1.573,-0.705 -1.573,-1.574" style="fill:#ed3142;fill-rule:nonzero;"/><path d="M60.667,89.996l0,13.796l-11.06,0l0,-42.544l26.497,0l0,9.725l-15.437,0l0,9.298l13.676,0l0,9.725l-13.676,0" style="fill:#1b3968;fill-rule:nonzero;"/><path d="M110.283,70.973l-15.742,0l0,6.017l14.466,0l0,9.662l-14.466,0l0,7.476l16.289,0l0,9.664l-27.107,0l0,-42.544l26.56,0l0,9.725" style="fill:#1b3968;fill-rule:nonzero;"/><path d="M130.676,93.885l5.166,0c13.553,0 13.553,-22.731 0,-22.731l-5.166,0l0,22.731Zm5.166,9.907l-16.045,0l0,-42.544l16.045,0c27.714,0.121 27.714,42.422 0,42.544" style="fill:#1b3968;fill-rule:nonzero;"/><path d="M182.595,94.25l0,9.542l-21.575,0l0,-9.542l5.41,0l0,-23.521l-4.985,0l0,-9.481l20.725,0l0,9.481l-4.983,0l0,23.521l5.408,0" style="fill:#1b3968;fill-rule:nonzero;"/><path d="M201.031,94.006l15.436,0l0,9.786l-26.376,0l0,-42.544l10.94,0l0,32.758" style="fill:#1b3968;fill-rule:nonzero;"/><path d="M88.16,114.596c-0.129,0.016 -0.305,0.032 -0.425,0.032c-0.12,0 -0.312,-0.016 -0.417,-0.032l0,-0.44l-0.633,0l-0.656,3.757l0.568,0.08c-0.024,0.265 -0.072,0.521 -0.136,0.753l-2.083,0c0.024,-0.256 0.064,-0.512 0.136,-0.753l0.521,-0.08l0.657,-3.757l-0.657,0l-0.176,0.472c-0.265,0 -0.569,-0.024 -0.826,-0.08c0.057,-0.32 0.193,-0.865 0.297,-1.201l4.046,0l-0.216,1.249" style="fill:#1b3968;fill-rule:nonzero;"/><path d="M92.652,118.242c-0.08,0.448 -0.304,0.585 -0.681,0.585c-0.601,0 -0.857,-0.281 -0.857,-0.785c0,-0.121 0.016,-0.257 0.04,-0.393l0.313,-1.747c0.008,-0.048 0.016,-0.144 0.016,-0.184c0,-0.249 -0.16,-0.417 -0.569,-0.417c-0.337,0 -0.593,0.088 -0.889,0.281l-0.425,2.379l0.521,0.081c0,0.128 -0.048,0.464 -0.12,0.704l-1.843,0c0,-0.128 0.048,-0.456 0.12,-0.704l0.416,-0.081l0.762,-4.342l-0.505,-0.04c0,-0.144 0.048,-0.473 0.12,-0.681c0.441,-0.08 1.018,-0.113 1.482,-0.113l-0.192,0.85l-0.232,1.322l0.048,0c0.392,-0.353 0.721,-0.473 1.161,-0.473c0.617,0 1.082,0.281 1.082,1.002c0,0.096 -0.016,0.24 -0.032,0.336l-0.329,1.851c-0.007,0.04 -0.015,0.104 -0.015,0.16c0,0.112 0.072,0.152 0.208,0.152l0.449,0l-0.049,0.257" style="fill:#1b3968;fill-rule:nonzero;"/><path d="M95.431,115.181c-0.465,0 -0.778,0.312 -0.93,1.082l1.474,0c0.033,-0.144 0.065,-0.361 0.065,-0.473c0,-0.416 -0.233,-0.609 -0.609,-0.609Zm1.338,1.731l-2.388,0c-0.008,0.088 -0.016,0.2 -0.016,0.28c0,0.553 0.256,0.793 0.881,0.793c0.345,0 0.818,-0.12 1.106,-0.28c0.064,0.264 0.096,0.569 0.096,0.833c-0.352,0.201 -0.897,0.289 -1.33,0.289c-1.114,0 -1.707,-0.585 -1.707,-1.667c0,-0.176 0.017,-0.377 0.049,-0.577c0.256,-1.522 1.049,-2.099 2.027,-2.099c0.945,0 1.45,0.505 1.45,1.394c0,0.224 -0.072,0.681 -0.168,1.034" style="fill:#1b3968;fill-rule:nonzero;"/><path d="M104.442,114.099l-0.369,0.081c-0.713,1.538 -1.45,3.06 -2.228,4.566l-1.081,0c-0.24,-1.498 -0.449,-3.036 -0.601,-4.566l-0.408,-0.081c0.023,-0.264 0.072,-0.52 0.144,-0.752l1.754,0c-0.024,0.256 -0.064,0.52 -0.136,0.752l-0.369,0.081l0.337,2.94c0.016,0.136 0.016,0.345 0.016,0.537l0.072,0c0.032,-0.184 0.088,-0.417 0.144,-0.537l1.371,-2.94l-0.393,-0.081c0.024,-0.264 0.072,-0.52 0.136,-0.752l1.747,0c-0.024,0.256 -0.073,0.52 -0.136,0.752" style="fill:#1b3968;fill-rule:nonzero;"/><path d="M106.338,115.269c-0.521,0 -0.889,0.305 -1.073,1.378c-0.04,0.217 -0.056,0.401 -0.056,0.561c0,0.617 0.312,0.834 0.753,0.834c0.561,0 0.913,-0.337 1.089,-1.379c0.032,-0.2 0.049,-0.384 0.049,-0.528c0,-0.642 -0.321,-0.866 -0.762,-0.866Zm1.675,1.483c-0.249,1.434 -1.042,2.075 -2.107,2.075c-0.986,0 -1.659,-0.529 -1.659,-1.651c0,-0.192 0.008,-0.393 0.048,-0.617c0.241,-1.426 1.026,-2.075 2.108,-2.075c0.961,0 1.658,0.505 1.658,1.659c0,0.184 -0.008,0.4 -0.048,0.609" style="fill:#1b3968;fill-rule:nonzero;"/><path d="M110.254,113.963c-0.304,0 -0.464,-0.208 -0.464,-0.44c0,-0.353 0.256,-0.625 0.625,-0.625c0.312,0 0.456,0.208 0.456,0.44c0,0.377 -0.24,0.625 -0.617,0.625Zm0.241,1.411l-0.457,2.587l0.577,0.081c0,0.128 -0.048,0.464 -0.12,0.704l-1.899,0c0,-0.128 0.048,-0.456 0.12,-0.704l0.417,-0.081l0.456,-2.603l-0.504,-0.041c0,-0.144 0.048,-0.472 0.12,-0.68c0.44,-0.081 1.017,-0.113 1.482,-0.113l-0.192,0.85" style="fill:#1b3968;fill-rule:nonzero;"/><path d="M114.596,115.838c-0.121,0.016 -0.257,0.024 -0.369,0.024c-0.12,0 -0.288,-0.008 -0.401,-0.024l0,-0.464c-0.08,-0.04 -0.248,-0.073 -0.368,-0.073c-0.505,0 -0.809,0.409 -0.954,1.314c-0.032,0.177 -0.048,0.361 -0.048,0.513c0,0.625 0.297,0.849 0.842,0.849c0.256,0 0.609,-0.12 0.881,-0.272c0.056,0.256 0.088,0.569 0.096,0.857c-0.32,0.177 -0.817,0.265 -1.13,0.265c-1.081,0 -1.674,-0.593 -1.674,-1.667c0,-0.184 0.008,-0.377 0.04,-0.577c0.264,-1.57 1.066,-2.099 2.059,-2.099c0.441,0 0.865,0.088 1.226,0.264l-0.2,1.09" style="fill:#1b3968;fill-rule:nonzero;"/><path d="M117.246,115.181c-0.465,0 -0.777,0.312 -0.929,1.082l1.474,0c0.032,-0.144 0.064,-0.361 0.064,-0.473c0,-0.416 -0.232,-0.609 -0.609,-0.609Zm1.338,1.731l-2.388,0c-0.008,0.088 -0.016,0.2 -0.016,0.28c0,0.553 0.257,0.793 0.882,0.793c0.344,0 0.817,-0.12 1.105,-0.28c0.064,0.264 0.096,0.569 0.096,0.833c-0.352,0.201 -0.897,0.289 -1.329,0.289c-1.114,0 -1.707,-0.585 -1.707,-1.667c0,-0.176 0.016,-0.377 0.048,-0.577c0.256,-1.522 1.049,-2.099 2.027,-2.099c0.945,0 1.45,0.505 1.45,1.394c0,0.224 -0.072,0.681 -0.168,1.034" style="fill:#1b3968;fill-rule:nonzero;"/><path d="M123.485,115.269c-0.521,0 -0.89,0.305 -1.074,1.378c-0.04,0.217 -0.056,0.401 -0.056,0.561c0,0.617 0.312,0.834 0.753,0.834c0.561,0 0.913,-0.337 1.09,-1.379c0.032,-0.2 0.048,-0.384 0.048,-0.528c0,-0.642 -0.321,-0.866 -0.761,-0.866Zm1.674,1.483c-0.248,1.434 -1.041,2.075 -2.107,2.075c-0.985,0 -1.659,-0.529 -1.659,-1.651c0,-0.192 0.008,-0.393 0.049,-0.617c0.24,-1.426 1.025,-2.075 2.107,-2.075c0.961,0 1.658,0.505 1.658,1.659c0,0.184 -0.008,0.4 -0.048,0.609" style="fill:#1b3968;fill-rule:nonzero;"/><path d="M128.755,113.635c-0.137,-0.016 -0.313,-0.032 -0.433,-0.032c-0.296,0 -0.449,0.144 -0.513,0.505l-0.088,0.456l0.913,0c-0.048,0.265 -0.12,0.537 -0.2,0.794l-0.849,0l-0.657,3.741c-0.184,1.025 -0.801,1.378 -1.538,1.378c-0.153,0 -0.409,-0.024 -0.489,-0.04c0.016,-0.24 0.064,-0.545 0.152,-0.809c0.128,0.016 0.321,0.032 0.433,0.032c0.296,0 0.456,-0.152 0.521,-0.513l0.665,-3.789l-0.497,0l0.152,-0.794l0.481,0l0.072,-0.4c0.2,-1.042 0.817,-1.379 1.53,-1.379c0.16,0 0.377,0.017 0.497,0.041c-0.016,0.24 -0.072,0.545 -0.152,0.809" style="fill:#1b3968;fill-rule:nonzero;"/><path d="M134.257,118.746l-3.694,0c0.024,-0.256 0.064,-0.512 0.136,-0.753l0.521,-0.08l0.657,-3.733l-0.569,-0.081c0.024,-0.264 0.072,-0.52 0.144,-0.752l2.1,0c-0.016,0.256 -0.064,0.52 -0.129,0.752l-0.544,0.081l-0.657,3.749l1.233,0l0.169,-0.504c0.112,-0.016 0.32,-0.025 0.44,-0.025c0.121,0 0.305,0.009 0.425,0.025l-0.232,1.321" style="fill:#1b3968;fill-rule:nonzero;"/><path d="M139.158,118.242c-0.08,0.424 -0.296,0.585 -0.673,0.585c-0.368,0 -0.665,-0.128 -0.809,-0.481l-0.048,0c-0.401,0.368 -0.761,0.481 -1.25,0.481c-0.625,0 -1.097,-0.297 -1.097,-1.018c0,-0.096 0.016,-0.216 0.031,-0.312l0.369,-2.139l-0.441,-0.041c0,-0.144 0.049,-0.472 0.121,-0.68c0.408,-0.081 0.953,-0.113 1.418,-0.113l-0.185,0.85l-0.36,2.035c-0.008,0.047 -0.016,0.104 -0.016,0.16c0,0.28 0.176,0.44 0.577,0.44c0.28,0 0.569,-0.072 0.849,-0.24l0.425,-2.428l-0.521,-0.08c0,-0.144 0.056,-0.489 0.128,-0.697l1.474,0l-0.176,0.81l-0.401,2.299c-0.008,0.04 -0.016,0.112 -0.016,0.152c0,0.12 0.057,0.16 0.193,0.16l0.456,0l-0.048,0.257" style="fill:#1b3968;fill-rule:nonzero;"/><path d="M143.875,115.269l-0.36,0.08l-1.018,1.298l0.513,1.098c0.096,0.2 0.168,0.24 0.424,0.24l0.233,0l-0.048,0.257c-0.073,0.4 -0.265,0.585 -0.649,0.585c-0.385,0 -0.585,-0.153 -0.778,-0.601l-0.368,-0.85c-0.048,-0.12 -0.088,-0.24 -0.096,-0.36l-0.048,0c-0.048,0.12 -0.112,0.24 -0.208,0.369l-0.433,0.576l0.288,0.081c0,0.128 -0.04,0.464 -0.112,0.704l-1.618,0c0,-0.128 0.048,-0.456 0.12,-0.704l0.369,-0.081l1.097,-1.386l-0.561,-1.217l-0.504,-0.041c0,-0.144 0.047,-0.472 0.12,-0.68c0.352,-0.073 0.785,-0.113 1.097,-0.113l0.521,1.314c0.048,0.128 0.08,0.233 0.096,0.361l0.048,0c0.048,-0.12 0.112,-0.233 0.209,-0.369l0.36,-0.481l-0.304,-0.08c0.008,-0.128 0.048,-0.464 0.12,-0.705l1.61,0c0,0.128 -0.048,0.457 -0.12,0.705" style="fill:#1b3968;fill-rule:nonzero;"/><path d="M146.405,115.181c-0.465,0 -0.777,0.312 -0.929,1.082l1.474,0c0.032,-0.144 0.064,-0.361 0.064,-0.473c0,-0.416 -0.233,-0.609 -0.609,-0.609Zm1.338,1.731l-2.388,0c-0.008,0.088 -0.016,0.2 -0.016,0.28c0,0.553 0.257,0.793 0.882,0.793c0.344,0 0.817,-0.12 1.105,-0.28c0.064,0.264 0.096,0.569 0.096,0.833c-0.352,0.201 -0.897,0.289 -1.329,0.289c-1.114,0 -1.707,-0.585 -1.707,-1.667c0,-0.176 0.016,-0.377 0.048,-0.577c0.256,-1.522 1.05,-2.099 2.027,-2.099c0.945,0 1.45,0.505 1.45,1.394c0,0.224 -0.072,0.681 -0.168,1.034" style="fill:#1b3968;fill-rule:nonzero;"/><path d="M154.96,118.242c-0.08,0.448 -0.304,0.585 -0.681,0.585c-0.593,0 -0.849,-0.281 -0.849,-0.785c0,-0.121 0.016,-0.257 0.04,-0.393l0.304,-1.747c0.008,-0.048 0.016,-0.144 0.016,-0.184c0,-0.256 -0.152,-0.417 -0.48,-0.417c-0.297,0 -0.537,0.097 -0.794,0.281l-0.424,2.379l0.496,0.081c-0.016,0.192 -0.056,0.456 -0.128,0.704l-1.41,0l0.505,-2.868c0.008,-0.048 0.016,-0.128 0.016,-0.176c0,-0.256 -0.144,-0.401 -0.465,-0.401c-0.272,0 -0.553,0.097 -0.817,0.281l-0.425,2.379l0.489,0.081c0,0.128 -0.04,0.464 -0.112,0.704l-1.819,0c0,-0.128 0.048,-0.456 0.12,-0.704l0.417,-0.081l0.457,-2.603l-0.505,-0.041c0,-0.144 0.048,-0.472 0.12,-0.68c0.441,-0.081 0.978,-0.113 1.442,-0.113l-0.08,0.433l0.048,0c0.417,-0.377 0.737,-0.473 1.13,-0.473c0.408,0 0.713,0.136 0.833,0.513c0.473,-0.401 0.841,-0.513 1.29,-0.513c0.577,0 1.034,0.288 1.034,1.002c0,0.104 -0.017,0.232 -0.032,0.336l-0.321,1.851c-0.008,0.04 -0.016,0.104 -0.016,0.16c0,0.112 0.064,0.152 0.2,0.152l0.449,0l-0.048,0.257" style="fill:#1b3968;fill-rule:nonzero;"/><path d="M157.994,115.285c-0.281,0 -0.537,0.089 -0.77,0.257l-0.408,2.331c0.168,0.096 0.465,0.144 0.673,0.144c0.577,0 0.961,-0.304 1.13,-1.289c0.04,-0.241 0.072,-0.457 0.072,-0.642c0,-0.593 -0.289,-0.801 -0.697,-0.801Zm1.61,1.41c-0.216,1.427 -0.954,2.132 -2.155,2.132c-0.577,0 -1.218,-0.161 -1.627,-0.489l0.834,-4.719l-0.505,-0.04c0,-0.144 0.048,-0.473 0.12,-0.681c0.441,-0.08 1.018,-0.113 1.482,-0.113l-0.192,0.85l-0.216,1.226l0.048,0c0.312,-0.273 0.601,-0.377 0.969,-0.377c0.753,0 1.29,0.505 1.29,1.562c0,0.177 -0.016,0.433 -0.048,0.649" style="fill:#1b3968;fill-rule:nonzero;"/><path d="M162.446,115.269c-0.52,0 -0.889,0.305 -1.073,1.378c-0.04,0.217 -0.056,0.401 -0.056,0.561c0,0.617 0.312,0.834 0.753,0.834c0.56,0 0.913,-0.337 1.089,-1.379c0.032,-0.2 0.048,-0.384 0.048,-0.528c0,-0.642 -0.32,-0.866 -0.761,-0.866Zm1.675,1.483c-0.249,1.434 -1.042,2.075 -2.107,2.075c-0.986,0 -1.659,-0.529 -1.659,-1.651c0,-0.192 0.008,-0.393 0.048,-0.617c0.24,-1.426 1.026,-2.075 2.107,-2.075c0.962,0 1.659,0.505 1.659,1.659c0,0.184 -0.008,0.4 -0.048,0.609" style="fill:#1b3968;fill-rule:nonzero;"/><path d="M169.054,118.242c-0.08,0.424 -0.296,0.585 -0.673,0.585c-0.368,0 -0.665,-0.128 -0.809,-0.481l-0.048,0c-0.401,0.368 -0.761,0.481 -1.25,0.481c-0.625,0 -1.098,-0.297 -1.098,-1.018c0,-0.096 0.016,-0.216 0.032,-0.312l0.369,-2.139l-0.441,-0.041c0,-0.144 0.048,-0.472 0.121,-0.68c0.408,-0.081 0.953,-0.113 1.418,-0.113l-0.185,0.85l-0.36,2.035c-0.008,0.047 -0.016,0.104 -0.016,0.16c0,0.28 0.176,0.44 0.577,0.44c0.28,0 0.569,-0.072 0.849,-0.24l0.425,-2.428l-0.521,-0.08c0,-0.144 0.056,-0.489 0.128,-0.697l1.474,0l-0.176,0.81l-0.401,2.299c-0.008,0.04 -0.016,0.112 -0.016,0.152c0,0.12 0.056,0.16 0.192,0.16l0.457,0l-0.048,0.257" style="fill:#1b3968;fill-rule:nonzero;"/><path d="M172.786,115.493c-0.121,-0.04 -0.273,-0.055 -0.433,-0.055c-0.248,0 -0.545,0.055 -0.841,0.296l-0.393,2.227l0.585,0.081c0,0.128 -0.048,0.464 -0.12,0.704l-1.907,0c0,-0.128 0.048,-0.456 0.12,-0.704l0.417,-0.081l0.457,-2.603l-0.505,-0.041c0,-0.144 0.048,-0.472 0.12,-0.68c0.441,-0.081 0.978,-0.113 1.442,-0.113l-0.096,0.529l0.048,0c0.417,-0.505 0.737,-0.569 0.994,-0.569c0.104,0 0.264,0.016 0.352,0.056c-0.04,0.281 -0.136,0.649 -0.24,0.953" style="fill:#1b3968;fill-rule:nonzero;"/><path d="M175.108,115.181c-0.521,0 -0.769,0.337 -0.769,0.921c0,0.369 0.168,0.577 0.576,0.577c0.489,0 0.77,-0.288 0.77,-0.889c0,-0.416 -0.193,-0.609 -0.577,-0.609Zm1.867,0.064l-0.545,0.032l0,0.04c0.08,0.136 0.128,0.329 0.128,0.521c0,1.026 -0.737,1.538 -1.611,1.538c-0.224,0 -0.44,-0.031 -0.601,-0.095c-0.216,0.288 -0.272,0.408 -0.272,0.512c0,0.096 0.064,0.12 0.176,0.12l0.986,0c0.769,0 1.194,0.297 1.194,1.074c0,0.921 -0.73,1.49 -2.043,1.49c-1.162,0 -1.587,-0.384 -1.587,-0.905c0,-0.361 0.184,-0.601 0.625,-0.625l0.345,-0.024c-0.048,0.096 -0.072,0.232 -0.072,0.336c0,0.281 0.2,0.441 0.801,0.441c0.673,0 1.049,-0.176 1.049,-0.593c0,-0.256 -0.112,-0.337 -0.336,-0.337l-1.082,0c-0.697,0 -0.953,-0.336 -0.953,-0.889c0.128,-0.248 0.392,-0.633 0.601,-0.905c-0.201,-0.176 -0.329,-0.513 -0.329,-0.866c0,-1.033 0.697,-1.626 1.651,-1.626c0.232,0 0.545,0.032 0.729,0.08l1.314,0c-0.032,0.217 -0.089,0.465 -0.168,0.681" style="fill:#1b3968;fill-rule:nonzero;"/><path d="M178.423,115.149c-0.184,0.072 -0.425,0.096 -0.649,0.096l0.232,-2.211l0.97,0l-0.553,2.115" style="fill:#1b3968;fill-rule:nonzero;"/><path d="M182.091,115.622c-0.12,0.016 -0.256,0.024 -0.376,0.024c-0.12,0 -0.288,-0.008 -0.401,-0.024l0,-0.353c-0.088,-0.024 -0.24,-0.048 -0.384,-0.048c-0.393,0 -0.617,0.161 -0.617,0.481c0,0.593 1.65,0.481 1.65,1.738c0,0.866 -0.665,1.387 -1.706,1.387c-0.465,0 -1.026,-0.097 -1.346,-0.273l0.168,-0.937c0.12,-0.016 0.257,-0.024 0.369,-0.024c0.12,0 0.296,0.008 0.408,0.024l0,0.385c0.12,0.04 0.313,0.071 0.489,0.071c0.449,0 0.649,-0.176 0.649,-0.488c0,-0.625 -1.643,-0.537 -1.643,-1.691c0,-0.809 0.593,-1.41 1.755,-1.41c0.377,0 0.841,0.064 1.17,0.176l-0.185,0.962" style="fill:#1b3968;fill-rule:nonzero;"/><path d="M187.385,114.099l-0.521,0.081l-0.657,3.733l0.561,0.08c-0.016,0.265 -0.064,0.521 -0.136,0.753l-2.083,0c0.024,-0.256 0.064,-0.512 0.136,-0.753l0.521,-0.08l0.657,-3.733l-0.569,-0.081c0.024,-0.264 0.072,-0.52 0.144,-0.752l2.083,0c-0.024,0.256 -0.064,0.512 -0.136,0.752" style="fill:#1b3968;fill-rule:nonzero;"/><path d="M192.071,118.242c-0.08,0.448 -0.305,0.585 -0.681,0.585c-0.601,0 -0.858,-0.281 -0.858,-0.785c0,-0.121 0.016,-0.257 0.04,-0.393l0.313,-1.747c0.008,-0.048 0.016,-0.144 0.016,-0.184c0,-0.272 -0.176,-0.417 -0.553,-0.417c-0.336,0 -0.601,0.088 -0.889,0.281l-0.425,2.379l0.521,0.081c0,0.128 -0.048,0.464 -0.12,0.704l-1.843,0c0,-0.128 0.048,-0.456 0.12,-0.704l0.417,-0.081l0.457,-2.603l-0.505,-0.041c0,-0.144 0.048,-0.472 0.12,-0.68c0.44,-0.081 0.977,-0.113 1.442,-0.113l-0.08,0.433l0.048,0c0.416,-0.369 0.761,-0.473 1.162,-0.473c0.585,0 1.065,0.264 1.065,1.002c0,0.096 -0.016,0.24 -0.032,0.336l-0.328,1.851c-0.008,0.04 -0.016,0.104 -0.016,0.16c0,0.112 0.072,0.152 0.208,0.152l0.449,0l-0.048,0.257" style="fill:#1b3968;fill-rule:nonzero;"/><path d="M194.953,115.285c-0.433,0 -0.809,0.193 -1.01,0.93c-0.088,0.304 -0.152,0.721 -0.152,1.001c0,0.577 0.265,0.809 0.689,0.809c0.273,0 0.529,-0.072 0.769,-0.232l0.417,-2.379c-0.176,-0.073 -0.513,-0.129 -0.713,-0.129Zm1.931,-1.65l-0.705,4.038c-0.008,0.04 -0.016,0.112 -0.016,0.152c0,0.12 0.056,0.16 0.192,0.16l0.457,0l-0.048,0.257c-0.081,0.424 -0.297,0.585 -0.674,0.585c-0.368,0 -0.657,-0.137 -0.777,-0.481l-0.048,0c-0.368,0.393 -0.713,0.481 -1.137,0.481c-0.81,0 -1.298,-0.545 -1.298,-1.563c0,-0.352 0.048,-0.737 0.128,-1.057c0.32,-1.218 1.033,-1.723 2.003,-1.723c0.256,0 0.609,0.048 0.841,0.12l0.176,-0.985l-0.504,-0.04c0,-0.144 0.048,-0.473 0.12,-0.681c0.441,-0.08 1.025,-0.113 1.482,-0.113l-0.192,0.85" style="fill:#1b3968;fill-rule:nonzero;"/><path d="M201.737,118.242c-0.08,0.424 -0.297,0.585 -0.673,0.585c-0.368,0 -0.665,-0.128 -0.809,-0.481l-0.048,0c-0.401,0.368 -0.761,0.481 -1.25,0.481c-0.625,0 -1.098,-0.297 -1.098,-1.018c0,-0.096 0.016,-0.216 0.032,-0.312l0.369,-2.139l-0.441,-0.041c0,-0.144 0.048,-0.472 0.12,-0.68c0.409,-0.081 0.954,-0.113 1.418,-0.113l-0.184,0.85l-0.36,2.035c-0.008,0.047 -0.017,0.104 -0.017,0.16c0,0.28 0.177,0.44 0.578,0.44c0.28,0 0.568,-0.072 0.849,-0.24l0.424,-2.428l-0.52,-0.08c0,-0.144 0.056,-0.489 0.128,-0.697l1.474,0l-0.176,0.81l-0.401,2.299c-0.008,0.04 -0.016,0.112 -0.016,0.152c0,0.12 0.056,0.16 0.192,0.16l0.457,0l-0.048,0.257" style="fill:#1b3968;fill-rule:nonzero;"/><path d="M205.492,115.622c-0.12,0.016 -0.256,0.024 -0.376,0.024c-0.12,0 -0.288,-0.008 -0.4,-0.024l0,-0.353c-0.089,-0.024 -0.241,-0.048 -0.385,-0.048c-0.393,0 -0.617,0.161 -0.617,0.481c0,0.593 1.65,0.481 1.65,1.738c0,0.866 -0.665,1.387 -1.706,1.387c-0.465,0 -1.026,-0.097 -1.346,-0.273l0.168,-0.937c0.12,-0.016 0.257,-0.024 0.369,-0.024c0.12,0 0.296,0.008 0.408,0.024l0,0.385c0.12,0.04 0.313,0.071 0.489,0.071c0.449,0 0.649,-0.176 0.649,-0.488c0,-0.625 -1.643,-0.537 -1.643,-1.691c0,-0.809 0.593,-1.41 1.755,-1.41c0.377,0 0.841,0.064 1.17,0.176l-0.185,0.962" style="fill:#1b3968;fill-rule:nonzero;"/><path d="M208.856,115.358l-1.002,0l-0.368,2.107c-0.008,0.064 -0.016,0.128 -0.016,0.176c0,0.256 0.128,0.344 0.425,0.344c0.184,0 0.472,-0.056 0.649,-0.136c0.016,0.12 0.024,0.264 0.024,0.385c0,0.136 -0.008,0.296 -0.024,0.44c-0.257,0.105 -0.674,0.153 -0.882,0.153c-0.777,0 -1.121,-0.377 -1.121,-1.018c0,-0.128 0.016,-0.265 0.04,-0.4l0.36,-2.051l-0.505,0l0.145,-0.794l0.496,0l0.152,-0.865c0.273,-0.088 0.658,-0.153 0.946,-0.16l-0.184,1.025l1.049,0c-0.032,0.257 -0.096,0.553 -0.184,0.794" style="fill:#1b3968;fill-rule:nonzero;"/><path d="M212.404,115.493c-0.12,-0.04 -0.273,-0.055 -0.433,-0.055c-0.248,0 -0.545,0.055 -0.841,0.296l-0.393,2.227l0.585,0.081c0,0.128 -0.048,0.464 -0.12,0.704l-1.907,0c0,-0.128 0.048,-0.456 0.12,-0.704l0.417,-0.081l0.457,-2.603l-0.505,-0.041c0,-0.144 0.048,-0.472 0.12,-0.68c0.441,-0.081 0.978,-0.113 1.442,-0.113l-0.096,0.529l0.048,0c0.417,-0.505 0.737,-0.569 0.994,-0.569c0.104,0 0.264,0.016 0.352,0.056c-0.04,0.281 -0.136,0.649 -0.24,0.953" style="fill:#1b3968;fill-rule:nonzero;"/><path d="M216.905,115.269l-0.32,0.08c-0.385,0.786 -1.074,2.155 -1.731,3.341c-0.841,1.531 -1.306,1.787 -2.075,1.787c-0.201,0 -0.505,-0.04 -0.753,-0.168c0.064,-0.265 0.176,-0.577 0.288,-0.818c0.176,0.081 0.417,0.121 0.633,0.121c0.273,0 0.457,-0.121 0.665,-0.465l0.248,-0.408c-0.232,-1.042 -0.44,-2.26 -0.608,-3.381l-0.449,-0.041c0,-0.144 0.048,-0.472 0.12,-0.68c0.441,-0.081 0.825,-0.113 1.17,-0.113l0.368,2.692c0.024,0.184 0.032,0.369 0.032,0.537l0.049,0c0.047,-0.168 0.12,-0.361 0.208,-0.545l0.913,-1.859l-0.432,-0.08c0,-0.128 0.047,-0.464 0.12,-0.705l1.666,0c0,0.128 -0.04,0.457 -0.112,0.705" style="fill:#1b3968;fill-rule:nonzero;"/></g></svg>