<?xml version="1.0" encoding="UTF-8" standalone="no"?>
<!-- Created with Inkscape (http://www.inkscape.org/) -->

<svg
   xmlns:dc="http://purl.org/dc/elements/1.1/"
   xmlns:cc="http://creativecommons.org/ns#"
   xmlns:rdf="http://www.w3.org/1999/02/22-rdf-syntax-ns#"
   xmlns:svg="http://www.w3.org/2000/svg"
   xmlns="http://www.w3.org/2000/svg"
   xmlns:sodipodi="http://sodipodi.sourceforge.net/DTD/sodipodi-0.dtd"
   xmlns:inkscape="http://www.inkscape.org/namespaces/inkscape"
   version="1.1"
   id="svg2"
   xml:space="preserve"
   width="563.56183"
   height="187.37146"
   viewBox="0 0 563.56183 187.37146"
   sodipodi:docname="fortuna.svg"
   inkscape:version="0.92.5 (2060ec1f9f, 2020-04-08)"><metadata
     id="metadata8"><rdf:RDF><cc:Work
         rdf:about=""><dc:format>image/svg+xml</dc:format><dc:type
           rdf:resource="http://purl.org/dc/dcmitype/StillImage" /><dc:title></dc:title></cc:Work></rdf:RDF></metadata><defs
     id="defs6"><clipPath
       clipPathUnits="userSpaceOnUse"
       id="clipPath18"><path
         d="M 0,230.746 H 521.362 V 0 H 0 Z"
         id="path16"
         inkscape:connector-curvature="0" /></clipPath><clipPath
       clipPathUnits="userSpaceOnUse"
       id="clipPath26"><path
         d="M 0,230.746 H 521.362 V 0 H 0 Z"
         id="path24"
         inkscape:connector-curvature="0" /></clipPath></defs><sodipodi:namedview
     pagecolor="#ffffff"
     bordercolor="#666666"
     borderopacity="1"
     objecttolerance="10"
     gridtolerance="10"
     guidetolerance="10"
     inkscape:pageopacity="0"
     inkscape:pageshadow="2"
     inkscape:window-width="1408"
     inkscape:window-height="807"
     id="namedview4"
     showgrid="false"
     inkscape:pagecheckerboard="true"
     inkscape:zoom="0.51068162"
     inkscape:cx="223.95641"
     inkscape:cy="-43.138952"
     inkscape:window-x="6"
     inkscape:window-y="9"
     inkscape:window-maximized="0"
     inkscape:current-layer="g10" /><g
     id="g10"
     inkscape:groupmode="layer"
     inkscape:label="LOGO_FOR_2010_CMJN"
     transform="matrix(1.3333333,0,0,-1.3333333,-66.257245,245.08999)"><g
       id="g34"
       transform="translate(154.4238,148.6929)"><path
         d="m 0,0 h 11.935 c 4.104,0 6.48,2.214 6.48,6.102 0,3.78 -2.376,5.94 -6.48,5.94 L 0,12.042 Z m 0,16.902 h 11.016 c 3.24,0 5.671,1.89 5.671,5.346 0,3.888 -1.999,5.292 -5.671,5.292 H 0 Z m -6.75,16.146 h 18.738 c 6.912,0 11.449,-3.131 11.449,-9.558 0,-3.888 -1.999,-6.696 -5.509,-8.208 v -0.108 c 4.698,-1.026 7.237,-4.698 7.237,-9.936 0,-6.048 -4.212,-10.746 -14.203,-10.746 H -6.75 Z"
         style="fill:#414347;fill-opacity:1;fill-rule:nonzero;stroke:none"
         id="path36"
         inkscape:connector-curvature="0" /></g><g
       id="g38"
       transform="translate(193.6274,158.521)"><path
         d="M 0,0 H 11.772 L 5.994,16.578 H 5.833 Z m 2.376,23.22 h 7.183 l 14.85,-38.556 H 17.172 L 13.554,-5.13 h -15.39 l -3.618,-10.206 h -6.966 z"
         style="fill:#414347;fill-opacity:1;fill-rule:nonzero;stroke:none"
         id="path40"
         inkscape:connector-curvature="0" /></g><g
       id="g42"
       transform="translate(221.437,181.7412)"><path
         d="M 0,0 H 7.128 L 24.732,-28.404 H 24.84 V 0 h 6.427 V -38.557 H 24.139 L 6.588,-10.206 H 6.426 V -38.557 H 0 Z"
         style="fill:#414347;fill-opacity:1;fill-rule:nonzero;stroke:none"
         id="path44"
         inkscape:connector-curvature="0" /></g><g
       id="g46"
       transform="translate(277.543,152.0947)"><path
         d="m 0,0 3.24,3.726 4.698,-4.104 c 2.429,2.916 3.347,6.858 3.347,10.746 0,7.398 -3.455,14.688 -11.717,14.688 -8.262,0 -11.718,-7.29 -11.718,-14.688 0,-7.398 3.456,-14.688 11.718,-14.688 1.404,0 2.969,0.27 4.32,0.918 z M 17.55,-8.748 14.256,-12.42 8.64,-7.506 c -2.863,-1.62 -6.048,-2.322 -9.072,-2.322 -11.556,0 -18.468,9.18 -18.468,20.196 0,11.016 6.912,20.196 18.468,20.196 11.556,0 18.468,-9.18 18.468,-20.196 0,-5.292 -1.62,-11.124 -5.454,-14.796 z"
         style="fill:#414347;fill-opacity:1;fill-rule:nonzero;stroke:none"
         id="path48"
         inkscape:connector-curvature="0" /></g><g
       id="g50"
       transform="translate(301.3018,181.7412)"><path
         d="m 0,0 h 6.751 v -22.464 c 0,-5.184 0.323,-11.179 9.071,-11.179 8.749,0 9.073,5.995 9.073,11.179 V 0 h 6.75 v -24.678 c 0,-9.883 -6.318,-14.797 -15.823,-14.797 C 6.318,-39.475 0,-34.561 0,-24.678 Z"
         style="fill:#414347;fill-opacity:1;fill-rule:nonzero;stroke:none"
         id="path52"
         inkscape:connector-curvature="0" /></g><g
       id="g54"
       transform="translate(340.7207,181.7412)"><path
         d="M 0,0 H 27.758 V -5.832 H 6.75 V -15.93 h 19.441 v -5.508 H 6.75 v -11.287 h 21.385 v -5.832 H 0 Z"
         style="fill:#414347;fill-opacity:1;fill-rule:nonzero;stroke:none"
         id="path56"
         inkscape:connector-curvature="0" /></g><g
       id="g58"
       transform="translate(76.0933,153.6675)"><path
         d="m 0,0 h 18.15 c 3.398,0 5.949,0.6 7.65,1.8 1.699,1.2 2.55,3.499 2.55,6.9 l 1.5,0.6 5.85,-33.6 -1.5,-0.3 c -1.901,7.2 -4.901,11.925 -9,14.175 -4.101,2.25 -9.701,3.375 -16.8,3.375 H 0 V -53.7 c 0,-3.801 0.375,-6.825 1.125,-9.075 0.75,-2.25 1.849,-3.85 3.3,-4.8 1.449,-0.952 3.274,-1.575 5.475,-1.875 v -1.2 h -36.3 v 1.5 c 6.6,0.6 9.9,5.1 9.9,13.5 V 9.3 c 0,6.3 -0.802,10.674 -2.4,13.125 -1.601,2.45 -4.101,3.924 -7.5,4.425 v 1.2 h 65.1 c 0.698,0 1.249,-0.101 1.65,-0.3 2.7,0.3 4.749,1.099 6.15,2.4 L 53.25,-0.9 51.9,-1.2 C 50.198,3.999 47.273,8.25 43.125,11.55 38.974,14.85 34.249,17.299 28.95,18.9 23.648,20.499 18.6,21.3 13.8,21.3 7.898,21.3 4.125,20.524 2.475,18.975 0.825,17.423 0,14.199 0,9.3 Z"
         style="fill:#0daa4c;fill-opacity:1;fill-rule:nonzero;stroke:none"
         id="path60"
         inkscape:connector-curvature="0" /></g><g
       id="g62"
       transform="translate(125.3999,102.9297)"><path
         d="m 0,0 c 1.52,-5.574 3.901,-9.766 7.144,-12.578 3.242,-2.813 6.789,-4.27 10.64,-4.37 2.989,0.1 5.75,0.899 8.284,2.393 2.533,1.494 4.585,3.674 6.156,6.537 1.569,2.862 2.356,6.067 2.356,9.614 0,2.786 -0.431,5.7 -1.292,8.74 -0.862,3.04 -2.166,5.826 -3.914,8.36 -1.748,2.533 -3.864,4.547 -6.346,6.042 -2.483,1.494 -5.27,2.242 -8.36,2.242 -3.142,0 -5.903,-0.95 -8.284,-2.85 C 4.001,22.23 2.166,19.848 0.874,16.986 -0.418,14.123 -1.115,11.07 -1.216,7.828 -1.014,4.788 -0.608,2.178 0,0 m 16.492,31.16 c 4.509,-0.051 8.55,-0.849 12.122,-2.394 3.572,-1.546 6.46,-3.522 8.664,-5.928 2.204,-2.407 3.849,-5.219 4.94,-8.436 1.089,-3.218 1.608,-6.449 1.558,-9.69 -0.102,-4.864 -1.381,-9.285 -3.838,-13.263 -2.459,-3.977 -5.827,-7.105 -10.108,-9.385 -4.282,-2.281 -8.981,-3.344 -14.098,-3.192 -5.219,0.203 -9.728,1.507 -13.528,3.914 -3.8,2.405 -6.739,5.522 -8.816,9.348 -2.078,3.825 -3.243,7.815 -3.496,11.97 -0.254,4.458 0.684,8.79 2.812,12.996 2.128,4.205 5.206,7.6 9.234,10.184 4.028,2.584 8.676,3.876 13.946,3.876 z"
         style="fill:#0daa4c;fill-opacity:1;fill-rule:nonzero;stroke:none"
         id="path64"
         inkscape:connector-curvature="0" /></g><g
       id="g66"
       transform="translate(188.4033,110.1494)"><path
         d="m 0,0 c 6.181,1.874 11.032,4.116 14.554,6.726 3.521,2.609 4.851,5.434 3.99,8.474 -0.76,2.736 -3.42,4.154 -7.98,4.256 H 7.828 C 4.636,19.304 2.533,18.936 1.52,18.354 0.506,17.771 0,16.416 0,14.288 Z M 0,-3.495 V -19 c 0,-2.483 0.405,-4.269 1.216,-5.358 0.81,-1.09 2.026,-1.761 3.648,-2.014 v -0.76 h -18.24 v 0.76 c 1.722,0.353 2.976,1.051 3.762,2.09 0.785,1.038 1.178,2.951 1.178,5.738 v 32.528 c 0,3.192 -0.507,5.37 -1.52,6.536 -1.014,1.165 -2.154,1.748 -3.42,1.748 v 0.608 h 29.564 c 7.194,0 10.792,-2.382 10.792,-7.144 0,-4.966 -3.598,-9.298 -10.792,-12.996 4.61,-5.168 8.613,-11.805 12.008,-19.912 0.912,-2.28 1.621,-3.952 2.128,-5.016 0.506,-1.064 1.127,-1.989 1.862,-2.774 0.734,-0.786 1.583,-1.254 2.546,-1.406 v -0.76 H 18.696 v 0.76 c 1.773,0 2.66,1.038 2.66,3.116 0,3.09 -1.52,6.89 -4.56,11.4 L 8.74,-0.38 Z"
         style="fill:#0daa4c;fill-opacity:1;fill-rule:nonzero;stroke:none"
         id="path68"
         inkscape:connector-curvature="0" /></g><g
       id="g70"
       transform="translate(240.7661,129.1494)"><path
         d="m 0,0 c -3.04,-0.102 -5.662,-0.431 -7.866,-0.988 -2.204,-0.558 -4.142,-1.584 -5.814,-3.078 -1.672,-1.495 -3.091,-3.585 -4.256,-6.27 l -0.608,0.304 3.724,14.972 c 0.304,-0.608 1.241,-1.014 2.812,-1.216 0.405,0.101 0.912,0.152 1.52,0.152 h 29.336 c 0.608,0 1.013,-0.051 1.216,-0.152 1.519,0.152 2.609,0.557 3.268,1.216 l 3.724,-14.972 -0.76,-0.304 C 23.914,-3.446 17.986,0 8.512,0 v -37.696 c 0,-3.142 0.443,-5.181 1.33,-6.117 0.886,-0.939 2.064,-1.458 3.534,-1.559 v -0.76 h -18.24 v 0.76 c 1.57,0.101 2.774,0.62 3.61,1.559 0.836,0.936 1.254,2.824 1.254,5.662 z"
         style="fill:#0daa4c;fill-opacity:1;fill-rule:nonzero;stroke:none"
         id="path72"
         inkscape:connector-curvature="0" /></g><g
       id="g74"
       transform="translate(268.9609,133.0254)"><path
         d="m 0,0 h 18.316 v -0.608 c -3.295,-0.152 -4.94,-2.356 -4.94,-6.612 v -26.6 c 0,-4.307 1.114,-7.512 3.345,-9.614 2.228,-2.103 5.268,-3.154 9.119,-3.154 3.394,0 6.549,0.912 9.463,2.736 2.912,1.825 4.369,5.168 4.369,10.032 v 24.776 c 0,3.8 -0.38,6.105 -1.14,6.916 -0.761,0.81 -2.027,1.317 -3.8,1.52 V 0 h 14.896 v -0.608 c -1.672,-0.304 -2.914,-0.938 -3.724,-1.9 -0.81,-0.963 -1.216,-2.99 -1.216,-6.08 v -22.115 c 0,-13.479 -6.562,-20.217 -19.684,-20.217 -13.376,0 -20.065,5.346 -20.065,16.036 v 26.448 c 0,2.229 -0.291,4.053 -0.873,5.472 C 3.482,-1.546 2.128,-0.76 0,-0.608 Z"
         style="fill:#0daa4c;fill-opacity:1;fill-rule:nonzero;stroke:none"
         id="path76"
         inkscape:connector-curvature="0" /></g><g
       id="g78"
       transform="translate(359.5527,114.0254)"><path
         d="m 0,0 v 10.412 c 0,3.04 -0.418,5.066 -1.254,6.08 -0.836,1.013 -2.142,1.646 -3.914,1.9 V 19 H 9.804 V 18.392 C 8.283,18.088 7.092,17.48 6.231,16.568 5.369,15.656 4.939,13.756 4.939,10.868 v -33.972 c 0,-4.459 1.622,-6.839 4.865,-7.144 v -0.76 H -5.168 v 0.76 C -1.724,-29.895 0,-27.512 0,-23.104 v 7.676 c 0,2.686 -0.254,4.395 -0.761,5.13 -0.507,0.734 -1.722,1.888 -3.647,3.458 l -23.941,19.76 v -35.947 c 0,-4.815 1.673,-7.221 5.017,-7.221 v -0.76 h -14.82 v 0.76 c 1.824,0.305 3.102,1.014 3.838,2.129 0.734,1.113 1.101,2.785 1.101,5.015 v 33.516 c 0,2.381 -0.342,4.218 -1.025,5.51 -0.684,1.292 -1.99,2.115 -3.914,2.47 V 19 h 20.064 v -0.608 c -1.064,0 -1.673,-0.33 -1.824,-0.988 0.151,-0.659 0.912,-1.546 2.279,-2.66 z"
         style="fill:#0daa4c;fill-opacity:1;fill-rule:nonzero;stroke:none"
         id="path80"
         inkscape:connector-curvature="0" /></g><g
       id="g82"
       transform="translate(406.3633,134.6177)"><path
         d="m 0,0 c 12,0 22.201,-4.001 30.601,-12 l -16.8,48 z m -2.25,-7.35 -9.449,-26.4 c -0.701,-2.1 -1.252,-4.75 -1.651,-7.95 0.301,-5.301 3.099,-8.1 8.401,-8.4 v -1.5 h -30.75 v 1.5 c 3,0.3 5.474,1.575 7.425,3.825 1.95,2.25 3.975,6.124 6.075,11.625 L 4.5,36 c 0.601,1.5 0.9,2.948 0.9,4.35 0,3.098 -1.6,4.95 -4.799,5.55 v 1.2 h 33.45 v -1.2 c -2.801,-0.701 -4.35,-2.55 -4.651,-5.55 0.2,-0.502 0.399,-1.101 0.6,-1.8 0.199,-0.701 0.398,-1.65 0.601,-2.85 L 57.15,-40.8 c 2.2,-6.201 5.15,-9.3 8.851,-9.3 v -1.5 H 31.65 v 1.5 c 4.899,1.299 7.35,4.699 7.35,10.2 0,4.8 -1.799,9.698 -5.399,14.7 -3.601,4.999 -8.527,9.199 -14.775,12.6 -6.252,3.398 -13.275,5.149 -21.076,5.25"
         style="fill:#0daa4c;fill-opacity:1;fill-rule:nonzero;stroke:none"
         id="path84"
         inkscape:connector-curvature="0" /></g><g
       id="g86"
       transform="translate(51.8916,56.9854)"><path
         d="m 0,0 c -0.097,-4.727 3.312,-6.173 7.491,-6.173 2.411,0 6.076,1.318 6.076,4.661 0,2.605 -2.604,3.633 -4.726,4.148 L 3.729,3.89 c -2.7,0.675 -5.176,1.961 -5.176,5.53 0,2.25 1.447,6.462 7.909,6.462 4.533,0 8.52,-2.444 8.488,-7.138 h -2.186 c -0.129,3.505 -3.023,5.274 -6.27,5.274 -2.99,0 -5.755,-1.159 -5.755,-4.566 0,-2.154 1.608,-3.055 3.472,-3.505 L 9.806,4.565 c 3.247,-0.868 5.947,-2.283 5.947,-6.044 0,-1.576 -0.643,-6.559 -8.776,-6.559 -5.434,0 -9.42,2.443 -9.164,8.038 z"
         style="fill:#414347;fill-opacity:1;fill-rule:nonzero;stroke:none"
         id="path88"
         inkscape:connector-curvature="0" /></g><g
       id="g90"
       transform="translate(79.9536,57.7246)"><path
         d="m 0,0 c 0,-3.537 1.929,-7.073 5.819,-7.073 3.89,0 5.819,3.536 5.819,7.073 0,3.536 -1.929,7.073 -5.819,7.073 C 1.929,7.073 0,3.536 0,0 m 13.664,0 c 0,-4.759 -2.765,-8.777 -7.845,-8.777 -5.08,0 -7.844,4.018 -7.844,8.777 0,4.758 2.764,8.777 7.844,8.777 5.08,0 7.845,-4.019 7.845,-8.777"
         style="fill:#414347;fill-opacity:1;fill-rule:nonzero;stroke:none"
         id="path92"
         inkscape:connector-curvature="0" /></g><g
       id="g94"
       transform="translate(116.3755,60.8105)"><path
         d="m 0,0 c -0.547,2.476 -2.058,3.987 -4.694,3.987 -3.89,0 -5.819,-3.537 -5.819,-7.073 0,-3.537 1.929,-7.073 5.819,-7.073 2.507,0 4.565,1.961 4.822,4.726 h 2.026 c -0.547,-3.987 -3.151,-6.43 -6.848,-6.43 -5.08,0 -7.845,4.018 -7.845,8.777 0,4.758 2.765,8.777 7.845,8.777 3.536,0 6.269,-1.897 6.719,-5.691 z"
         style="fill:#414347;fill-opacity:1;fill-rule:nonzero;stroke:none"
         id="path96"
         inkscape:connector-curvature="0" /></g><path
       d="m 129.424,66.02 h 2.026 V 49.43 h -2.026 z m 0,6.365 h 2.026 v -3.247 h -2.026 z"
       style="fill:#414347;fill-opacity:1;fill-rule:nonzero;stroke:none"
       id="path98"
       inkscape:connector-curvature="0" /><g
       id="g100"
       transform="translate(149.5156,68.334)"><path
         d="m 0,0 h -1.64 l 3.376,4.533 h 2.508 z m 5.787,-9.452 c -0.097,3.055 -1.994,5.916 -5.273,5.916 -3.311,0 -5.144,-2.894 -5.465,-5.916 z m -10.738,-1.704 c 0.032,-2.958 1.575,-6.527 5.465,-6.527 2.958,0 4.566,1.737 5.209,4.245 H 7.748 C 6.88,-17.2 4.694,-19.387 0.514,-19.387 c -5.272,0 -7.491,4.051 -7.491,8.778 0,4.372 2.219,8.777 7.491,8.777 5.337,0 7.459,-4.662 7.299,-9.324 z"
         style="fill:#414347;fill-opacity:1;fill-rule:nonzero;stroke:none"
         id="path102"
         inkscape:connector-curvature="0" /></g><g
       id="g104"
       transform="translate(171.3096,66.0195)"><path
         d="M 0,0 H 3.376 V -1.704 H 0 v -11.189 c 0,-1.318 0.193,-2.089 1.64,-2.186 0.578,0 1.157,0.032 1.736,0.097 v -1.737 c -0.611,0 -1.19,-0.064 -1.801,-0.064 -2.7,0 -3.633,0.9 -3.6,3.729 v 11.35 H -4.919 V 0 h 2.894 V 4.983 H 0 Z"
         style="fill:#414347;fill-opacity:1;fill-rule:nonzero;stroke:none"
         id="path106"
         inkscape:connector-curvature="0" /></g><g
       id="g108"
       transform="translate(191.7861,68.334)"><path
         d="m 0,0 h -1.64 l 3.376,4.533 h 2.508 z m 5.787,-9.452 c -0.097,3.055 -1.994,5.916 -5.273,5.916 -3.311,0 -5.144,-2.894 -5.465,-5.916 z m -10.738,-1.704 c 0.032,-2.958 1.575,-6.527 5.465,-6.527 2.958,0 4.566,1.737 5.209,4.245 H 7.748 C 6.88,-17.2 4.694,-19.387 0.514,-19.387 c -5.272,0 -7.491,4.051 -7.491,8.778 0,4.372 2.219,8.777 7.491,8.777 5.337,0 7.459,-4.662 7.299,-9.324 z"
         style="fill:#414347;fill-opacity:1;fill-rule:nonzero;stroke:none"
         id="path110"
         inkscape:connector-curvature="0" /></g><g
       id="g112"
       transform="translate(244.5049,65.4404)"><path
         d="m 0,0 c -0.771,3.536 -3.697,5.563 -7.041,5.563 -6.076,0 -8.648,-5.081 -8.648,-10.096 0,-5.016 2.572,-10.095 8.648,-10.095 4.244,0 6.945,3.279 7.363,7.362 h 2.186 c -0.611,-5.627 -4.18,-9.227 -9.549,-9.227 -7.233,0 -10.834,5.69 -10.834,11.96 0,6.269 3.601,11.96 10.834,11.96 4.34,0 8.648,-2.605 9.228,-7.427 z"
         style="fill:#414347;fill-opacity:1;fill-rule:nonzero;stroke:none"
         id="path114"
         inkscape:connector-curvature="0" /></g><g
       id="g116"
       transform="translate(259.1924,57.7246)"><path
         d="m 0,0 c 0,-3.537 1.929,-7.073 5.819,-7.073 3.89,0 5.82,3.536 5.82,7.073 0,3.536 -1.93,7.073 -5.82,7.073 C 1.929,7.073 0,3.536 0,0 m 13.664,0 c 0,-4.759 -2.766,-8.777 -7.845,-8.777 -5.08,0 -7.844,4.018 -7.844,8.777 0,4.758 2.764,8.777 7.844,8.777 5.079,0 7.845,-4.019 7.845,-8.777"
         style="fill:#414347;fill-opacity:1;fill-rule:nonzero;stroke:none"
         id="path118"
         inkscape:connector-curvature="0" /></g><g
       id="g120"
       transform="translate(285.1006,57.7246)"><path
         d="m 0,0 c 0,-3.537 1.93,-7.073 5.819,-7.073 3.891,0 5.82,3.536 5.82,7.073 0,3.536 -1.929,7.073 -5.82,7.073 C 1.93,7.073 0,3.536 0,0 m 13.664,0 c 0,-4.759 -2.765,-8.777 -7.845,-8.777 -5.079,0 -7.844,4.018 -7.844,8.777 0,4.758 2.765,8.777 7.844,8.777 5.08,0 7.845,-4.019 7.845,-8.777"
         style="fill:#414347;fill-opacity:1;fill-rule:nonzero;stroke:none"
         id="path122"
         inkscape:connector-curvature="0" /></g><g
       id="g124"
       transform="translate(317.665,64.7979)"><path
         d="m 0,0 c -4.469,0 -5.819,-3.312 -5.819,-7.073 0,-3.441 1.511,-7.073 5.819,-7.073 3.858,0 5.434,3.632 5.434,7.073 C 5.434,-3.634 3.858,0 0,0 m -7.845,1.222 h 1.866 V -1.93 h 0.064 c 0.932,2.251 3.247,3.634 5.915,3.634 5.048,0 7.459,-4.084 7.459,-8.777 0,-4.695 -2.411,-8.778 -7.459,-8.778 -2.476,0 -4.887,1.254 -5.755,3.633 h -0.064 v -9.291 h -2.026 z"
         style="fill:#414347;fill-opacity:1;fill-rule:nonzero;stroke:none"
         id="path126"
         inkscape:connector-curvature="0" /></g><g
       id="g128"
       transform="translate(342.4473,68.334)"><path
         d="m 0,0 h -1.64 l 3.376,4.533 h 2.508 z m 5.787,-9.452 c -0.096,3.055 -1.993,5.916 -5.272,5.916 -3.312,0 -5.144,-2.894 -5.466,-5.916 z m -10.738,-1.704 c 0.032,-2.958 1.576,-6.527 5.466,-6.527 2.958,0 4.565,1.737 5.208,4.245 h 2.026 c -0.868,-3.762 -3.055,-5.949 -7.234,-5.949 -5.273,0 -7.492,4.051 -7.492,8.778 0,4.372 2.219,8.777 7.492,8.777 5.337,0 7.459,-4.662 7.298,-9.324 z"
         style="fill:#414347;fill-opacity:1;fill-rule:nonzero;stroke:none"
         id="path130"
         inkscape:connector-curvature="0" /></g><g
       id="g132"
       transform="translate(361.0264,66.0195)"><path
         d="M 0,0 H 1.865 V -3.891 H 1.93 c 1.028,2.669 3.279,4.245 6.268,4.116 V -1.801 C 4.533,-1.607 2.025,-4.309 2.025,-7.748 V -16.59 H 0 Z"
         style="fill:#414347;fill-opacity:1;fill-rule:nonzero;stroke:none"
         id="path134"
         inkscape:connector-curvature="0" /></g><g
       id="g136"
       transform="translate(389.7979,58.4961)"><path
         d="m 0,0 h -0.064 c -0.258,-0.482 -1.158,-0.643 -1.705,-0.739 -3.44,-0.612 -7.715,-0.579 -7.715,-3.826 0,-2.026 1.799,-3.28 3.697,-3.28 3.086,0 5.818,1.961 5.787,5.208 z m -10.803,2.443 c 0.193,3.891 2.926,5.563 6.719,5.563 2.926,0 6.109,-0.901 6.109,-5.338 v -8.809 c 0,-0.771 0.386,-1.221 1.19,-1.221 0.224,0 0.482,0.064 0.642,0.129 V -8.938 C 3.407,-9.034 3.086,-9.066 2.539,-9.066 0.481,-9.066 0.16,-7.909 0.16,-6.173 H 0.096 c -1.414,-2.154 -2.862,-3.376 -6.044,-3.376 -3.055,0 -5.563,1.512 -5.563,4.855 0,4.662 4.533,4.823 8.907,5.337 C -0.933,0.836 0,1.061 0,2.894 c 0,2.732 -1.962,3.408 -4.341,3.408 -2.508,0 -4.372,-1.158 -4.436,-3.859 z"
         style="fill:#414347;fill-opacity:1;fill-rule:nonzero;stroke:none"
         id="path138"
         inkscape:connector-curvature="0" /></g><g
       id="g140"
       transform="translate(407.1211,66.0195)"><path
         d="M 0,0 H 3.376 V -1.704 H 0 v -11.189 c 0,-1.318 0.193,-2.089 1.641,-2.186 0.578,0 1.157,0.032 1.735,0.097 v -1.737 c -0.61,0 -1.189,-0.064 -1.8,-0.064 -2.701,0 -3.633,0.9 -3.601,3.729 v 11.35 H -4.919 V 0 h 2.894 V 4.983 H 0 Z"
         style="fill:#414347;fill-opacity:1;fill-rule:nonzero;stroke:none"
         id="path142"
         inkscape:connector-curvature="0" /></g><path
       d="m 421.489,66.02 h 2.025 V 49.43 h -2.025 z m 0,6.365 h 2.025 v -3.247 h -2.025 z"
       style="fill:#414347;fill-opacity:1;fill-rule:nonzero;stroke:none"
       id="path144"
       inkscape:connector-curvature="0" /><g
       id="g146"
       transform="translate(433.5752,66.0195)"><path
         d="M 0,0 H 2.25 L 7.459,-14.564 H 7.523 L 12.667,0 h 2.09 L 8.552,-16.59 H 6.397 Z"
         style="fill:#414347;fill-opacity:1;fill-rule:nonzero;stroke:none"
         id="path148"
         inkscape:connector-curvature="0" /></g><g
       id="g150"
       transform="translate(470.2861,58.8818)"><path
         d="m 0,0 c -0.096,3.055 -1.993,5.916 -5.272,5.916 -3.312,0 -5.144,-2.894 -5.466,-5.916 z m -10.738,-1.704 c 0.032,-2.958 1.576,-6.526 5.466,-6.526 2.958,0 4.565,1.736 5.208,4.244 h 2.026 c -0.868,-3.762 -3.055,-5.949 -7.234,-5.949 -5.273,0 -7.492,4.051 -7.492,8.778 0,4.372 2.219,8.777 7.492,8.777 5.336,0 7.459,-4.662 7.297,-9.324 z"
         style="fill:#414347;fill-opacity:1;fill-rule:nonzero;stroke:none"
         id="path152"
         inkscape:connector-curvature="0" /></g></g></svg>