<svg xmlns="http://www.w3.org/2000/svg" xml:space="preserve" width="563.562" height="187.371" viewBox="0 0 563.562 187.371"><path d="M0 0h11.935c4.104 0 6.48 2.214 6.48 6.102 0 3.78-2.376 5.94-6.48 5.94H0Zm0 16.902h11.016c3.24 0 5.671 1.89 5.671 5.346 0 3.888-1.999 5.292-5.671 5.292H0Zm-6.75 16.146h18.738c6.912 0 11.449-3.131 11.449-9.558 0-3.888-1.999-6.696-5.509-8.208v-.108c4.698-1.026 7.237-4.698 7.237-9.936 0-6.048-4.212-10.746-14.203-10.746H-6.75Z" style="fill:#414347;fill-opacity:1;fill-rule:nonzero;stroke:none" transform="matrix(1.33333 0 0 -1.33333 139.641 46.833)"/><path d="M0 0h11.772L5.994 16.578h-.161Zm2.376 23.22h7.183l14.85-38.556h-7.237L13.554-5.13h-15.39l-3.618-10.206h-6.966z" style="fill:#414347;fill-opacity:1;fill-rule:nonzero;stroke:none" transform="matrix(1.33333 0 0 -1.33333 191.913 33.729)"/><path d="M0 0h7.128l17.604-28.404h.108V0h6.427v-38.557h-7.128L6.588-10.206h-.162v-28.351H0Z" style="fill:#414347;fill-opacity:1;fill-rule:nonzero;stroke:none" transform="matrix(1.33333 0 0 -1.33333 228.992 2.768)"/><path d="m0 0 3.24 3.726L7.938-.378c2.429 2.916 3.347 6.858 3.347 10.746 0 7.398-3.455 14.688-11.717 14.688s-11.718-7.29-11.718-14.688C-12.15 2.97-8.694-4.32-.432-4.32c1.404 0 2.969.27 4.32.918zm17.55-8.748-3.294-3.672L8.64-7.506C5.777-9.126 2.592-9.828-.432-9.828c-11.556 0-18.468 9.18-18.468 20.196 0 11.016 6.912 20.196 18.468 20.196 11.556 0 18.468-9.18 18.468-20.196 0-5.292-1.62-11.124-5.454-14.796z" style="fill:#414347;fill-opacity:1;fill-rule:nonzero;stroke:none" transform="matrix(1.33333 0 0 -1.33333 303.8 42.297)"/><path d="M0 0h6.751v-22.464c0-5.184.323-11.179 9.071-11.179 8.749 0 9.073 5.995 9.073 11.179V0h6.75v-24.678c0-9.883-6.318-14.797-15.823-14.797C6.318-39.475 0-34.561 0-24.678Z" style="fill:#414347;fill-opacity:1;fill-rule:nonzero;stroke:none" transform="matrix(1.33333 0 0 -1.33333 335.478 2.768)"/><path d="M0 0h27.758v-5.832H6.75V-15.93h19.441v-5.508H6.75v-11.287h21.385v-5.832H0Z" style="fill:#414347;fill-opacity:1;fill-rule:nonzero;stroke:none" transform="matrix(1.33333 0 0 -1.33333 388.037 2.768)"/><path d="M0 0h18.15c3.398 0 5.949.6 7.65 1.8 1.699 1.2 2.55 3.499 2.55 6.9l1.5.6 5.85-33.6-1.5-.3c-1.901 7.2-4.901 11.925-9 14.175-4.101 2.25-9.701 3.375-16.8 3.375H0V-53.7c0-3.801.375-6.825 1.125-9.075.75-2.25 1.849-3.85 3.3-4.8 1.449-.952 3.274-1.575 5.475-1.875v-1.2h-36.3v1.5c6.6.6 9.9 5.1 9.9 13.5V9.3c0 6.3-.802 10.674-2.4 13.125-1.601 2.45-4.101 3.924-7.5 4.425v1.2h65.1c.698 0 1.249-.101 1.65-.3 2.7.3 4.749 1.099 6.15 2.4L53.25-.9l-1.35-.3c-1.702 5.199-4.627 9.45-8.775 12.75-4.151 3.3-8.876 5.749-14.175 7.35-5.302 1.599-10.35 2.4-15.15 2.4-5.902 0-9.675-.776-11.325-2.325C.825 17.423 0 14.199 0 9.3Z" style="fill:#0daa4c;fill-opacity:1;fill-rule:nonzero;stroke:none" transform="matrix(1.33333 0 0 -1.33333 35.2 40.2)"/><path d="M0 0c1.52-5.574 3.901-9.766 7.144-12.578 3.242-2.813 6.789-4.27 10.64-4.37 2.989.1 5.75.899 8.284 2.393 2.533 1.494 4.585 3.674 6.156 6.537 1.569 2.862 2.356 6.067 2.356 9.614 0 2.786-.431 5.7-1.292 8.74a28.119 28.119 0 0 1-3.914 8.36c-1.748 2.533-3.864 4.547-6.346 6.042-2.483 1.494-5.27 2.242-8.36 2.242-3.142 0-5.903-.95-8.284-2.85-2.383-1.9-4.218-4.282-5.51-7.144-1.292-2.863-1.989-5.916-2.09-9.158C-1.014 4.788-.608 2.178 0 0m16.492 31.16c4.509-.051 8.55-.849 12.122-2.394 3.572-1.546 6.46-3.522 8.664-5.928 2.204-2.407 3.849-5.219 4.94-8.436 1.089-3.218 1.608-6.449 1.558-9.69-.102-4.864-1.381-9.285-3.838-13.263-2.459-3.977-5.827-7.105-10.108-9.385-4.282-2.281-8.981-3.344-14.098-3.192-5.219.203-9.728 1.507-13.528 3.914-3.8 2.405-6.739 5.522-8.816 9.348-2.078 3.825-3.243 7.815-3.496 11.97-.254 4.458.684 8.79 2.812 12.996 2.128 4.205 5.206 7.6 9.234 10.184 4.028 2.584 8.676 3.876 13.946 3.876z" style="fill:#0daa4c;fill-opacity:1;fill-rule:nonzero;stroke:none" transform="matrix(1.33333 0 0 -1.33333 100.943 107.85)"/><path d="M0 0c6.181 1.874 11.032 4.116 14.554 6.726 3.521 2.609 4.851 5.434 3.99 8.474-.76 2.736-3.42 4.154-7.98 4.256H7.828c-3.192-.152-5.295-.52-6.308-1.102C.506 17.771 0 16.416 0 14.288Zm0-3.495V-19c0-2.483.405-4.269 1.216-5.358.81-1.09 2.026-1.761 3.648-2.014v-.76h-18.24v.76c1.722.353 2.976 1.051 3.762 2.09.785 1.038 1.178 2.951 1.178 5.738v32.528c0 3.192-.507 5.37-1.52 6.536-1.014 1.165-2.154 1.748-3.42 1.748v.608h29.564c7.194 0 10.792-2.382 10.792-7.144 0-4.966-3.598-9.298-10.792-12.996 4.61-5.168 8.613-11.805 12.008-19.912.912-2.28 1.621-3.952 2.128-5.016a10.824 10.824 0 0 1 1.862-2.774c.734-.786 1.583-1.254 2.546-1.406v-.76H18.696v.76c1.773 0 2.66 1.038 2.66 3.116 0 3.09-1.52 6.89-4.56 11.4L8.74-.38Z" style="fill:#0daa4c;fill-opacity:1;fill-rule:nonzero;stroke:none" transform="matrix(1.33333 0 0 -1.33333 184.947 98.224)"/><path d="M0 0c-3.04-.102-5.662-.431-7.866-.988a13.606 13.606 0 0 1-5.814-3.078c-1.672-1.495-3.091-3.585-4.256-6.27l-.608.304L-14.82 4.94c.304-.608 1.241-1.014 2.812-1.216.405.101.912.152 1.52.152h29.336c.608 0 1.013-.051 1.216-.152 1.519.152 2.609.557 3.268 1.216l3.724-14.972-.76-.304C23.914-3.446 17.986 0 8.512 0v-37.696c0-3.142.443-5.181 1.33-6.117.886-.939 2.064-1.458 3.534-1.559v-.76h-18.24v.76c1.57.101 2.774.62 3.61 1.559C-.418-42.877 0-40.989 0-38.151z" style="fill:#0daa4c;fill-opacity:1;fill-rule:nonzero;stroke:none" transform="matrix(1.33333 0 0 -1.33333 254.764 72.89)"/><path d="M0 0h18.316v-.608c-3.295-.152-4.94-2.356-4.94-6.612v-26.6c0-4.307 1.114-7.512 3.345-9.614 2.228-2.103 5.268-3.154 9.119-3.154 3.394 0 6.549.912 9.463 2.736 2.912 1.825 4.369 5.168 4.369 10.032v24.776c0 3.8-.38 6.105-1.14 6.916-.761.81-2.027 1.317-3.8 1.52V0h14.896v-.608c-1.672-.304-2.914-.938-3.724-1.9-.81-.963-1.216-2.99-1.216-6.08v-22.115c0-13.479-6.562-20.217-19.684-20.217-13.376 0-20.065 5.346-20.065 16.036v26.448c0 2.229-.291 4.053-.873 5.472C3.482-1.546 2.128-.76 0-.608Z" style="fill:#0daa4c;fill-opacity:1;fill-rule:nonzero;stroke:none" transform="matrix(1.33333 0 0 -1.33333 292.357 67.723)"/><path d="M0 0v10.412c0 3.04-.418 5.066-1.254 6.08-.836 1.013-2.142 1.646-3.914 1.9V19H9.804v-.608c-1.521-.304-2.712-.912-3.573-1.824-.862-.912-1.292-2.812-1.292-5.7v-33.972c0-4.459 1.622-6.839 4.865-7.144v-.76H-5.168v.76C-1.724-29.895 0-27.512 0-23.104v7.676c0 2.686-.254 4.395-.761 5.13-.507.734-1.722 1.888-3.647 3.458l-23.941 19.76v-35.947c0-4.815 1.673-7.221 5.017-7.221v-.76h-14.82v.76c1.824.305 3.102 1.014 3.838 2.129.734 1.113 1.101 2.785 1.101 5.015v33.516c0 2.381-.342 4.218-1.025 5.51-.684 1.292-1.99 2.115-3.914 2.47V19h20.064v-.608c-1.064 0-1.673-.33-1.824-.988.151-.659.912-1.546 2.279-2.66z" style="fill:#0daa4c;fill-opacity:1;fill-rule:nonzero;stroke:none" transform="matrix(1.33333 0 0 -1.33333 413.146 93.056)"/><path d="M0 0c12 0 22.201-4.001 30.601-12l-16.8 48zm-2.25-7.35-9.449-26.4c-.701-2.1-1.252-4.75-1.651-7.95.301-5.301 3.099-8.1 8.401-8.4v-1.5h-30.75v1.5c3 .3 5.474 1.575 7.425 3.825 1.95 2.25 3.975 6.124 6.075 11.625L4.5 36c.601 1.5.9 2.948.9 4.35 0 3.098-1.6 4.95-4.799 5.55v1.2h33.45v-1.2c-2.801-.701-4.35-2.55-4.651-5.55.2-.502.399-1.101.6-1.8.199-.701.398-1.65.601-2.85L57.15-40.8c2.2-6.201 5.15-9.3 8.851-9.3v-1.5H31.65v1.5C36.549-48.801 39-45.401 39-39.9c0 4.8-1.799 9.698-5.399 14.7-3.601 4.999-8.527 9.199-14.775 12.6C12.574-9.202 5.551-7.451-2.25-7.35" style="fill:#0daa4c;fill-opacity:1;fill-rule:nonzero;stroke:none" transform="matrix(1.33333 0 0 -1.33333 475.56 65.6)"/><path d="M0 0c-.097-4.727 3.312-6.173 7.491-6.173 2.411 0 6.076 1.318 6.076 4.661 0 2.605-2.604 3.633-4.726 4.148L3.729 3.89c-2.7.675-5.176 1.961-5.176 5.53 0 2.25 1.447 6.462 7.909 6.462 4.533 0 8.52-2.444 8.488-7.138h-2.186c-.129 3.505-3.023 5.274-6.27 5.274-2.99 0-5.755-1.159-5.755-4.566 0-2.154 1.608-3.055 3.472-3.505l5.595-1.382c3.247-.868 5.947-2.283 5.947-6.044 0-1.576-.643-6.559-8.776-6.559-5.434 0-9.42 2.443-9.164 8.038z" style="fill:#414347;fill-opacity:1;fill-rule:nonzero;stroke:none" transform="matrix(1.33333 0 0 -1.33333 2.932 169.11)"/><path d="M0 0c0-3.537 1.929-7.073 5.819-7.073 3.89 0 5.819 3.536 5.819 7.073 0 3.536-1.929 7.073-5.819 7.073C1.929 7.073 0 3.536 0 0m13.664 0c0-4.759-2.765-8.777-7.845-8.777S-2.025-4.759-2.025 0c0 4.758 2.764 8.777 7.844 8.777S13.664 4.758 13.664 0" style="fill:#414347;fill-opacity:1;fill-rule:nonzero;stroke:none" transform="matrix(1.33333 0 0 -1.33333 40.348 168.124)"/><path d="M0 0c-.547 2.476-2.058 3.987-4.694 3.987-3.89 0-5.819-3.537-5.819-7.073 0-3.537 1.929-7.073 5.819-7.073 2.507 0 4.565 1.961 4.822 4.726h2.026c-.547-3.987-3.151-6.43-6.848-6.43-5.08 0-7.845 4.018-7.845 8.777 0 4.758 2.765 8.777 7.845 8.777 3.536 0 6.269-1.897 6.719-5.691z" style="fill:#414347;fill-opacity:1;fill-rule:nonzero;stroke:none" transform="matrix(1.33333 0 0 -1.33333 88.91 164.01)"/><path d="M129.424 66.02h2.026V49.43h-2.026zm0 6.365h2.026v-3.247h-2.026z" style="fill:#414347;fill-opacity:1;fill-rule:nonzero;stroke:none" transform="matrix(1.33333 0 0 -1.33333 -66.257 245.09)"/><path d="M0 0h-1.64l3.376 4.533h2.508zm5.787-9.452C5.69-6.397 3.793-3.536.514-3.536c-3.311 0-5.144-2.894-5.465-5.916zm-10.738-1.704c.032-2.958 1.575-6.527 5.465-6.527 2.958 0 4.566 1.737 5.209 4.245h2.025C6.88-17.2 4.694-19.387.514-19.387c-5.272 0-7.491 4.051-7.491 8.778 0 4.372 2.219 8.777 7.491 8.777 5.337 0 7.459-4.662 7.299-9.324z" style="fill:#414347;fill-opacity:1;fill-rule:nonzero;stroke:none" transform="matrix(1.33333 0 0 -1.33333 133.097 153.978)"/><path d="M0 0h3.376v-1.704H0v-11.189c0-1.318.193-2.089 1.64-2.186.578 0 1.157.032 1.736.097v-1.737c-.611 0-1.19-.064-1.801-.064-2.7 0-3.633.9-3.6 3.729v11.35h-2.894V0h2.894v4.983H0Z" style="fill:#414347;fill-opacity:1;fill-rule:nonzero;stroke:none" transform="matrix(1.33333 0 0 -1.33333 162.156 157.064)"/><path d="M0 0h-1.64l3.376 4.533h2.508zm5.787-9.452C5.69-6.397 3.793-3.536.514-3.536c-3.311 0-5.144-2.894-5.465-5.916zm-10.738-1.704c.032-2.958 1.575-6.527 5.465-6.527 2.958 0 4.566 1.737 5.209 4.245h2.025C6.88-17.2 4.694-19.387.514-19.387c-5.272 0-7.491 4.051-7.491 8.778 0 4.372 2.219 8.777 7.491 8.777 5.337 0 7.459-4.662 7.299-9.324z" style="fill:#414347;fill-opacity:1;fill-rule:nonzero;stroke:none" transform="matrix(1.33333 0 0 -1.33333 189.458 153.978)"/><path d="M0 0c-.771 3.536-3.697 5.563-7.041 5.563-6.076 0-8.648-5.081-8.648-10.096 0-5.016 2.572-10.095 8.648-10.095 4.244 0 6.945 3.279 7.363 7.362h2.186c-.611-5.627-4.18-9.227-9.549-9.227-7.233 0-10.834 5.69-10.834 11.96 0 6.269 3.601 11.96 10.834 11.96 4.34 0 8.648-2.605 9.228-7.427z" style="fill:#414347;fill-opacity:1;fill-rule:nonzero;stroke:none" transform="matrix(1.33333 0 0 -1.33333 259.75 157.836)"/><path d="M0 0c0-3.537 1.929-7.073 5.819-7.073 3.89 0 5.82 3.536 5.82 7.073 0 3.536-1.93 7.073-5.82 7.073C1.929 7.073 0 3.536 0 0m13.664 0c0-4.759-2.766-8.777-7.845-8.777-5.08 0-7.844 4.018-7.844 8.777 0 4.758 2.764 8.777 7.844 8.777 5.079 0 7.845-4.019 7.845-8.777" style="fill:#414347;fill-opacity:1;fill-rule:nonzero;stroke:none" transform="matrix(1.33333 0 0 -1.33333 279.333 168.124)"/><path d="M0 0c0-3.537 1.93-7.073 5.819-7.073 3.891 0 5.82 3.536 5.82 7.073 0 3.536-1.929 7.073-5.82 7.073C1.93 7.073 0 3.536 0 0m13.664 0c0-4.759-2.765-8.777-7.845-8.777C.74-8.777-2.025-4.759-2.025 0c0 4.758 2.765 8.777 7.844 8.777 5.08 0 7.845-4.019 7.845-8.777" style="fill:#414347;fill-opacity:1;fill-rule:nonzero;stroke:none" transform="matrix(1.33333 0 0 -1.33333 313.877 168.124)"/><path d="M0 0c-4.469 0-5.819-3.312-5.819-7.073 0-3.441 1.511-7.073 5.819-7.073 3.858 0 5.434 3.632 5.434 7.073C5.434-3.634 3.858 0 0 0m-7.845 1.222h1.866V-1.93h.064C-4.983.321-2.668 1.704 0 1.704c5.048 0 7.459-4.084 7.459-8.777 0-4.695-2.411-8.778-7.459-8.778-2.476 0-4.887 1.254-5.755 3.633h-.064v-9.291h-2.026z" style="fill:#414347;fill-opacity:1;fill-rule:nonzero;stroke:none" transform="matrix(1.33333 0 0 -1.33333 357.296 158.693)"/><path d="M0 0h-1.64l3.376 4.533h2.508zm5.787-9.452C5.691-6.397 3.794-3.536.515-3.536c-3.312 0-5.144-2.894-5.466-5.916zm-10.738-1.704c.032-2.958 1.576-6.527 5.466-6.527 2.958 0 4.565 1.737 5.208 4.245h2.026C6.881-17.2 4.694-19.387.515-19.387c-5.273 0-7.492 4.051-7.492 8.778 0 4.372 2.219 8.777 7.492 8.777 5.337 0 7.459-4.662 7.298-9.324z" style="fill:#414347;fill-opacity:1;fill-rule:nonzero;stroke:none" transform="matrix(1.33333 0 0 -1.33333 390.34 153.978)"/><path d="M0 0h1.865v-3.891h.065C2.958-1.222 5.209.354 8.198.225v-2.026c-3.665.194-6.173-2.508-6.173-5.947v-8.842H0Z" style="fill:#414347;fill-opacity:1;fill-rule:nonzero;stroke:none" transform="matrix(1.33333 0 0 -1.33333 415.111 157.064)"/><path d="M0 0h-.064c-.258-.482-1.158-.643-1.705-.739-3.44-.612-7.715-.579-7.715-3.826 0-2.026 1.799-3.28 3.697-3.28C-2.701-7.845.031-5.884 0-2.637zm-10.803 2.443c.193 3.891 2.926 5.563 6.719 5.563 2.926 0 6.109-.901 6.109-5.338v-8.809c0-.771.386-1.221 1.19-1.221.224 0 .482.064.642.129v-1.705a5.577 5.577 0 0 0-1.318-.128C.481-9.066.16-7.909.16-6.173H.096c-1.414-2.154-2.862-3.376-6.044-3.376-3.055 0-5.563 1.512-5.563 4.855 0 4.662 4.533 4.823 8.907 5.337C-.933.836 0 1.061 0 2.894c0 2.732-1.962 3.408-4.341 3.408-2.508 0-4.372-1.158-4.436-3.859z" style="fill:#414347;fill-opacity:1;fill-rule:nonzero;stroke:none" transform="matrix(1.33333 0 0 -1.33333 453.473 167.095)"/><path d="M0 0h3.376v-1.704H0v-11.189c0-1.318.193-2.089 1.641-2.186.578 0 1.157.032 1.735.097v-1.737c-.61 0-1.189-.064-1.8-.064-2.701 0-3.633.9-3.601 3.729v11.35h-2.894V0h2.894v4.983H0Z" style="fill:#414347;fill-opacity:1;fill-rule:nonzero;stroke:none" transform="matrix(1.33333 0 0 -1.33333 476.57 157.064)"/><path d="M421.489 66.02h2.025V49.43h-2.025zm0 6.365h2.025v-3.247h-2.025z" style="fill:#414347;fill-opacity:1;fill-rule:nonzero;stroke:none" transform="matrix(1.33333 0 0 -1.33333 -66.257 245.09)"/><path d="M0 0h2.25l5.209-14.564h.064L12.667 0h2.09L8.552-16.59H6.397Z" style="fill:#414347;fill-opacity:1;fill-rule:nonzero;stroke:none" transform="matrix(1.33333 0 0 -1.33333 511.843 157.064)"/><path d="M0 0c-.096 3.055-1.993 5.916-5.272 5.916-3.312 0-5.144-2.894-5.466-5.916zm-10.738-1.704c.032-2.958 1.576-6.526 5.466-6.526 2.958 0 4.565 1.736 5.208 4.244h2.026c-.868-3.762-3.055-5.949-7.234-5.949-5.273 0-7.492 4.051-7.492 8.778 0 4.372 2.219 8.777 7.492 8.777 5.336 0 7.459-4.662 7.297-9.324z" style="fill:#414347;fill-opacity:1;fill-rule:nonzero;stroke:none" transform="matrix(1.33333 0 0 -1.33333 560.79 166.58)"/></svg>