<svg viewBox="0 0 468 270" xmlns="http://www.w3.org/2000/svg" xml:space="preserve" style="fill-rule:evenodd;clip-rule:evenodd;stroke-linejoin:round;stroke-miterlimit:2"><path d="M27.457 103.123c20.902 16.06 52.253 23.792 76.149 26.171 23.884 2.378 25.647 1.764 25.647 1.764l.936.023s.923-20.16 32.557-56.809c28.931-33.545 60.8-53.384 90.712-65.768H8.504v71.68c4.647 9.353 11.31 17.07 18.953 22.939" style="fill:#dadada;fill-rule:nonzero"/><path d="M89.876 199.163c14.178 21.33 4.021 48.084-27.173 55.604-23.55 5.692-43.553 3.592-54.199 1.278v3.886h166.865c11.882-8.351 21.461-17.603 30.377-27.164 23.281-24.988 36.366-47.782 36.366-47.782s-31.95 29.686-70.751 24.553c-25.79-3.418-38.149-30.259-41.172-43.681-3.285-14.572-1.502-28.534-1.502-28.534-54.903-.582-97.193-15.408-120.183-39.244v75.674c33.109-3.698 70.103 8.454 81.372 25.41M152.926 129.045s43.067-4.162 89.878-23.202c11.347-4.62 21.567-9.101 30.828-13.632V18.206c-7.436 3.783-15.765 8.478-25.171 14.327-72.142 44.834-95.535 96.512-95.535 96.512" style="fill:#dadada;fill-rule:nonzero"/><path d="M33.142 252.392c25.081-.469 62.706-9.51 55.838-41.044-5.255-24.139-48.004-34.327-80.476-31.228v70.473c5.776 1.118 13.835 1.996 24.638 1.799M149.959 135.495s-8.067 21.965-4.837 40.478c3.586 20.515 23.774 37.379 59.31 25.186 30.358-10.413 43.132-26.09 46.717-31.439 3.584-5.349 5.975-8.922 5.975-8.922h16.508V98.211c-30.718 15.602-62.233 25.2-86.785 31.001-26.183 6.191-36.888 6.283-36.888 6.283M232.322 233.659a220.488 220.488 0 0 1-32.447 26.272h73.757V185.85c-9.523 13.117-23.247 30.106-41.31 47.809" style="fill:#dadada;fill-rule:nonzero"/><path d="M223.383 84.829c-6.514 9.17-15.724 14.729-31.184 21.071-15.567 6.382-29.894 7.777-29.894 7.777s7.782-17.321 31.775-32.348c14.784-9.262 21.646-9.978 26.279-9.886 4.629.092 9.846 3.786 3.024 13.386m-4.323-15.802c-11.721-.499-17.528 2.069-17.528 2.069-11.523 3.886-24.44 10.765-35.96 24.223-10.523 12.283-10.83 19.04-10.83 19.04l-.311-.008s-.587.207-8.532-.591c-7.95-.797-18.379-3.388-25.332-8.771-6.955-5.382-11.526-15.353-6.36-28.71 5.168-13.358 21.755-18.54 34.275-19.639 12.516-1.096 28.511 2.693 28.511 2.693l.199-1.396s-19.271-6.081-40.332-1.397c-20.093 4.471-29.506 15.771-29.011 32.001.496 16.246 18.58 27.613 46.393 27.911 0 0-.593 4.685.5 9.569 1.006 4.499 5.117 13.496 13.696 14.642 12.908 1.72 23.531-8.23 23.531-8.23s-4.347 7.64-12.092 16.015c-7.75 8.375-16.988 16.049-37.55 19.436-20.568 3.392-40.931.099-46.693-11.562-5.76-11.663.696-18.443 10.134-23.326 9.436-4.884 32.983-2.291 35.265 8.273 2.285 10.569-10.231 13.6-18.575 13.756-8.918.165-12.222-1.89-12.222-1.89l-.596 1.29s.901.629 2.373 1.195c2.031.779 10.175 2.662 20.279.202 10.377-2.52 13.755-11.489 9.039-18.637-4.273-6.479-19.668-10.866-31.591-7.675-11.921 3.189-19.671 11.063-18.081 21.829 1.591 10.764 12.814 20.578 39.639 19.937 25.034-.596 44.055-9.324 57.42-22.529 12.914-12.759 19.174-24.421 19.174-24.421h-10.931l-1.987 2.99c-1.192 1.793-5.437 7.048-15.535 10.537-11.821 4.088-18.537-1.566-19.729-8.441-1.075-6.205 1.609-13.573 1.609-13.573s3.561-.031 12.271-2.106c10.222-2.434 24.067-6.851 36.485-14.727 12.416-7.873 15.656-14.549 15.656-14.549 3.576-4.984 5.054-14.932-6.671-15.43M376.057 155.038c-7.878 5.967-19.599 7.347-16.572.449 2.454-5.593 10.781-10.754 15.829-13.648 5.205-2.986 13.009-5.298 13.009-5.298s-4.385 12.53-12.266 18.497m-134.451-7.382s-4.533 6.562-13.227 10.366c-8.694 3.806-10.554-1.641-9.142-6.635 1.413-4.998 4.906-11.56 15.534-19.764 10.627-8.205 17.54-5.667 16.867-1.491-.667 4.175-5.2 12.004-10.032 17.524m84.248-56.434c7.799-8.404 11.508-10.328 15.214-12.188 3.705-1.86 9.91-2.116 7.092 5.003-2.809 7.12-7.986 11.674-17.447 18.474-9.461 6.801-23.716 11.162-23.716 11.162s11.057-14.046 18.857-22.451m9.845 37.417c8.695-4.549 15.905-2.312 8.177 5.892-3.9 4.137-10.032 6.039-13.824 6.71-6.105 1.081-8.921.524-8.921.524s5.806-8.541 14.568-13.126m87.782-.224c-17.848-.357-30.249 4.25-30.249 4.25s-.367-1.195-.664-2.389c-.299-1.195-.82-2.609-1.567-5.07-.744-2.461 0-4.773 0-4.773s2.158-2.313 2.752-3.431c.593-1.119.223-1.789-.224-1.491-.447.297-2.528 2.759-9.511 8.203-6.985 5.446-20.444 17.225-33.824 24.684-13.375 7.46-20.362 10.74-27.572 11.261-7.211.523-7.658-4.846-6.913-8.055.746-3.206 3.341-7.011 3.341-7.011s9.962.076 15.535-1.714c5.573-1.791 9.888-3.728 13.38-8.725 4.233-6.051.224-10.516-5.872-10.069-6.091.45-10.182.896-18.804 7.011-8.622 6.117-11.002 11.934-11.002 11.934s-13.375 11.037-21.254 14.467c-7.352 3.199-10.927.373-9.666-4.999 1.267-5.369 4.612-10.067 9.071-16.18 4.459-6.117 15.605-20.659 15.605-20.659s10.779-2.238 21.631-9.024c8.698-5.439 17.913-12.678 21.182-19.914 2.891-6.393 2.751-11.251-3.123-11.113-6.245.151-17.985 8.13-26.98 17.007-8.994 8.875-19.55 22.073-19.55 22.073s-5.353 1.046-11.52.672c-6.17-.372-7.434-2.61-7.434-2.61l-2.674 2.833s.15.224 2.078 1.119c1.934.895 3.571 1.045 8.104 1.193 4.532.149 9.735-.672 9.735-.672s-18.432 21.704-28.838 30.278c-7.199 5.935-13.378 11.488-19.545 12.083-6.17.598-4.758-4.7-3.047-7.086 1.708-2.383 19.397-27.743 19.397-27.743h-7.654l-3.195 4.326s-.148-1.267-.521-2.312c-.373-1.042-2.304-2.386-4.98-2.76-2.677-.371-9.667-1.003-20.364 6.488-9.585 6.713-13.228 15.439-13.228 15.439s-2.005 1.863-9.07 6.414c-7.06 4.548-12.855 6.861-12.855 6.861l1.267 2.017s3.419-1.492 9.812-5.146c6.39-3.655 10.182-6.416 10.182-6.416s-.223 1.566-.223 3.729c0 2.164.82 7.01 6.169 8.129 5.35 1.119 10.406-1.714 12.859-3.431 2.449-1.715 5.943-5.068 5.943-5.068s-.074.744-.074 2.311c0 1.566.223 4.026 4.086 5.963 3.865 1.942 10.556-.071 16.723-4.174 6.17-4.1 19.029-15.735 19.029-15.735s-2.603 5.89-2.751 12.603c-.15 6.716 6.613 9.621 13.827 6.938 7.207-2.684 20.214-13.275 20.214-13.275s-.447 1.787-.669 4.022c-.223 2.241 1.78 10.255 8.695 10.596 12.191.594 24.813-6.43 38.723-15.664 14.942-9.918 31.443-23.941 31.443-23.941s.297 3.955.444 6.267c.152 2.311-.221 5.07-.221 5.07s-7.433 2.609-11.299 4.399c-3.862 1.789-9.439 5.074-15.979 10.89-6.539 5.817-6.396 11.933.518 12.753 6.338.751 19.476-3.955 26.463-11.71 6.983-7.753 5.2-15.807 5.2-15.807s10.405-3.731 21.184-4.402c10.777-.672 24.824.969 33.892 8.205 9.067 7.232 3.495 19.539 3.495 19.539-2.304 5.893-14.494 14.691-30.326 12.305-18.022-2.717-21.028-12.533-20.137-17.232.826-4.345 3.941-11.93 16.501-12.752 12.56-.818 20.587 5.297 20.587 5.297s.57.462 1.124-.192c.462-.547.064-1.151.064-1.151s-5.655-4.363-13.674-5.446c-7.73-1.043-15.389-.146-20.076 3.209-4.933 3.54-8.59 10.596-5.641 17.676 3.419 8.205 16.41 14.107 31.954 12.157 16.649-2.086 23.115-11.185 23.339-22.895.22-11.711-14.048-20.064-32.778-20.434M157.098 178.333a.363.363 0 0 1 .125-.587c.692.042 1.488.063 2.347.063.922 0 1.655-.021 2.598-.063.209.105.167.503 0 .587l-.692.146c-.293.063-.607.084-.691.273-.104.209-.104.733-.041 1.508.209 2.514.544 6.285.732 8.234 2.599-3.666 4.945-7.123 5.972-8.862.23-.378.356-.692.356-.839 0-.167-.105-.23-.503-.314l-.671-.146c-.146-.126-.104-.503.084-.587 1.09.042 1.823.063 2.619.063.733 0 1.404-.021 1.928-.063.167.126.167.461 0 .587l-.566.125c-.461.105-.943.273-1.278.65-.482.566-1.844 2.347-3.185 4.232l-2.199 3.101c-1.362 1.927-3.101 4.672-3.583 5.405-.126.083-.335.125-.503.125-.209 0-.335-.042-.419-.125-.084-.608-.125-1.697-.209-2.849-.21-2.808-.482-5.616-.755-8.422-.146-1.572-.23-2.033-.963-2.159l-.503-.083ZM172.309 180.24c0-.671.482-1.446 1.362-1.446.607 0 .963.335.963.985 0 .754-.565 1.445-1.362 1.445-.628 0-.963-.461-.963-.984m-1.006 9.825c-.083.21-.104.399.063.399.335 0 1.487-.797 2.095-1.447.231 0 .398.21.356.419-.586.88-2.597 2.493-4.19 2.493-.356 0-.67-.46-.67-.649 0-.23.042-.461.188-.816l2.326-5.511c.084-.209.084-.335-.042-.335-.251 0-1.131.545-1.802 1.132-.209 0-.356-.252-.293-.419 1.131-1.32 2.912-2.242 3.855-2.242.293 0 .628.293.691.587.042.167-.042.46-.23.9l-2.347 5.489ZM184.942 184.262c0 .398-.168 1.111-.377 1.655-.377 1.027-1.383 3.311-1.718 4.149-.105.251-.126.419.042.419.335 0 1.341-.754 1.927-1.425.251-.042.377.126.377.377-.712 1.174-2.388 2.493-4.022 2.493-.377 0-.712-.377-.712-.67 0-.252.083-.545.377-1.236a234.942 234.942 0 0 0 1.759-4.232c.168-.419.336-.922.336-1.258 0-.188-.042-.355-.294-.355-.356 0-1.257.649-2.22 1.864-1.132 1.467-2.158 3.394-3.185 5.552-.125.252-.377.335-.712.335-.377 0-1.111-.125-.922-.712.084-.272 2.011-5.468 2.221-6.055.125-.335.167-.629-.084-.629-.419 0-1.215.545-1.802 1.09a.33.33 0 0 1-.335-.335c.671-1.068 2.179-2.2 3.603-2.2.755 0 .818.629.629 1.09l-1.278 3.247h.084c1.32-1.864 3.247-4.337 5.049-4.337.922 0 1.257.587 1.257 1.173M185.991 190.568c0-.461.335-1.006.796-1.006.168 0 .314.126.461.293.545.587 1.006.943 1.593.943.44 0 .838-.314.838-.753 0-.692-.65-1.425-1.048-1.928-.587-.754-.88-1.467-.88-1.99 0-.88.461-1.593 1.215-2.243.587-.503 1.341-.795 1.886-.795.963 0 1.676.712 1.676 1.445 0 .566-.461.88-.671.88-.188 0-.335-.083-.461-.251-.586-.671-.922-.902-1.466-.902-.461 0-.712.357-.712.651 0 .691.691 1.299 1.068 1.802.608.816.922 1.403.901 2.22-.021.712-.377 1.508-1.174 2.157a3.68 3.68 0 0 1-2.346.838c-.88 0-1.676-.628-1.676-1.361M203.045 184.682c-.775.816-1.278 1.927-1.508 2.682 1.068-.378 1.717-.734 2.388-1.425.524-.525.775-1.236.775-1.571 0-.273-.126-.525-.398-.525-.294 0-.734.252-1.257.839m-4.085 4.965c0-1.571.984-3.918 2.975-5.426 1.152-.859 2.136-1.132 2.933-1.132 1.005 0 1.676.754 1.676 1.446 0 1.885-2.85 2.912-5.175 3.541-.105.293-.189.775-.189 1.361 0 .775.336 1.194.922 1.194.755 0 1.508-.439 2.472-1.319.21 0 .377.209.335.419-1.131 1.571-2.597 2.199-3.98 2.199s-1.969-1.131-1.969-2.283M211.719 184.43l-1.886 5.426c-.125.336-.083.503.126.503.335 0 1.551-.922 2.304-1.76.252.042.378.168.336.461-.922 1.383-2.975 2.87-4.316 2.87-.419 0-.754-.377-.754-.712 0-.293.063-.587.252-1.152l1.927-5.636h-1.593c-.125-.188 0-.545.21-.67l1.76-.336 1.341-2.032c.126-.083.293-.105.502-.105.294 0 .587.105.671.273l-.587 1.948h2.095c.252.252.084.796-.167.922h-2.221ZM219.723 189.625c0-1.382.859-3.456 2.367-4.943 1.111-1.09 2.221-1.593 3.332-1.593 1.089 0 1.822.587 1.801 1.425 0 .817-.775 1.152-1.257 1.152-.356 0-.607-.21-.628-.587-.042-.461.021-1.152-.524-1.152-.419 0-.964.419-1.55 1.341-.65 1.026-1.32 2.577-1.32 4.106 0 .942.356 1.257.859 1.257.628 0 1.382-.398 2.241-1.277.252 0 .419.167.378.418-.776 1.027-2.305 2.158-3.855 2.158-1.132 0-1.844-.796-1.844-2.305M231.686 185.268l-.733 2.158h.125c.629-1.152 1.341-2.346 1.865-2.996.67-.838 1.236-1.341 1.865-1.341.67 0 .963.587.963 1.173 0 .651-.482 1.677-1.131 1.677-.252 0-.335-.231-.419-.608-.084-.418-.21-.628-.419-.628-.252 0-.734.461-1.425 1.613-.775 1.257-1.655 3.289-2.514 5.279-.105.252-.377.335-.712.335-.419 0-1.153-.125-.964-.712.461-1.362 1.508-4.274 2.095-6.18.105-.335.084-.545-.126-.545-.461 0-1.131.587-1.634 1.173-.209 0-.377-.168-.335-.419.545-.943 1.592-2.158 2.891-2.158 1.131 0 .943 1.215.608 2.179M240.842 182.251c-.271 0-.461-.146-.502-.356l2.179-3.603c.313-.503.544-.629.754-.608.23.021.419.168.775.419.293.293.44.46.398.733-.021.209-.314.44-.586.691l-3.018 2.724Zm-1.11 2.431c-.775.816-1.278 1.926-1.508 2.681 1.068-.378 1.718-.733 2.388-1.424.524-.525.775-1.237.775-1.572 0-.272-.126-.524-.398-.524-.293 0-.733.252-1.257.839m-4.085 4.965c0-1.572.985-3.918 2.975-5.426 1.152-.86 2.137-1.132 2.933-1.132 1.006 0 1.676.754 1.676 1.445 0 1.886-2.85 2.912-5.175 3.541-.105.293-.189.776-.189 1.362 0 .775.336 1.194.922 1.194.755 0 1.509-.44 2.472-1.319.21 0 .378.209.336.418-1.132 1.572-2.598 2.2-3.981 2.2s-1.969-1.131-1.969-2.283M248.469 184.179l-1.215 3.101h.041c1.32-2.033 3.185-4.191 4.798-4.191 1.278 0 1.215 1.173 1.048 1.823-.126.44-.608 1.655-.943 2.452h.042c1.697-2.746 3.394-4.275 4.861-4.275.921 0 1.299.587 1.299 1.215 0 .398-.168 1.048-.378 1.613-.377 1.027-1.382 3.311-1.739 4.149-.104.251-.104.419.063.419.377 0 1.341-.754 1.928-1.425.251-.042.377.126.377.377-.629 1.194-2.389 2.493-4.023 2.493-.377 0-.754-.377-.754-.67 0-.252.125-.545.419-1.236a149.494 149.494 0 0 0 1.76-4.232c.167-.419.335-.922.335-1.236 0-.21-.042-.377-.314-.377-.398 0-1.173.607-2.179 1.885-1.089 1.383-2.074 3.415-3.143 5.489-.146.294-.314.377-.649.377-.587 0-1.215-.125-1.047-.628.041-.126 1.676-4.399 2.137-5.51.125-.294.377-.88.377-1.194 0-.252-.084-.419-.315-.419-.461 0-1.278.586-2.325 1.927-1.048 1.341-2.032 3.373-3.017 5.447-.126.294-.294.377-.629.377-.628 0-1.194-.125-1.047-.628.063-.21 2.011-5.552 2.2-6.139.188-.545.146-.712-.147-.712-.671 0-1.341.67-1.759 1.173a.376.376 0 0 1-.378-.377c.587-1.152 1.801-2.158 3.645-2.158.755 0 .859.608.671 1.09M264.455 185.163c-1.173 1.278-2.263 3.646-2.305 5.028 0 .231.084.419.252.419.335 0 1.236-.733 2.137-1.676 1.068-1.089 2.011-2.975 2.305-3.939-.168-.503-.503-.733-.922-.733-.461 0-.796.189-1.467.901m3.478-2.409c.084-.042.251-.084.418-.084.399 0 .986.126 1.174.503-.587 1.361-1.927 4.818-2.703 6.997-.104.272-.02.377.106.377.313 0 1.173-.482 2.094-1.362.168 0 .335.126.335.399-.922 1.173-2.555 2.346-3.896 2.346a.674.674 0 0 1-.692-.67c0-.21.042-.441.209-.86l.755-1.99h-.063c-1.466 1.99-3.562 3.52-4.777 3.52-.669 0-1.13-.586-1.13-1.257 0-.818.838-2.933 2.451-4.756a9.645 9.645 0 0 1 2.618-2.074c.629-.335 1.132-.461 1.635-.461.167 0 .335.084.481.147.105.063.315.231.441.398l.544-1.173ZM280.273 184.262c0 .398-.167 1.111-.377 1.655-.377 1.027-1.383 3.311-1.718 4.149-.104.251-.126.419.042.419.335 0 1.341-.754 1.928-1.425.251-.042.377.126.377.377-.713 1.174-2.389 2.493-4.023 2.493-.376 0-.712-.377-.712-.67 0-.252.084-.545.378-1.236a242.454 242.454 0 0 0 1.759-4.232c.167-.419.335-.922.335-1.258 0-.188-.042-.355-.293-.355-.356 0-1.258.649-2.22 1.864-1.132 1.467-2.159 3.394-3.185 5.552-.126.252-.378.335-.713.335-.377 0-1.11-.125-.922-.712.084-.272 2.012-5.468 2.221-6.055.126-.335.168-.629-.083-.629-.42 0-1.216.545-1.802 1.09a.331.331 0 0 1-.336-.335c.671-1.068 2.179-2.2 3.604-2.2.755 0 .817.629.629 1.09l-1.279 3.247h.084c1.321-1.864 3.247-4.337 5.049-4.337.922 0 1.257.587 1.257 1.173M286.58 184.43l-1.885 5.426c-.126.336-.084.503.125.503.336 0 1.551-.922 2.305-1.76.252.042.377.168.335.461-.921 1.383-2.975 2.87-4.316 2.87-.418 0-.753-.377-.753-.712 0-.293.062-.587.251-1.152l1.927-5.636h-1.592c-.126-.188 0-.545.209-.67l1.76-.336 1.341-2.032c.126-.083.293-.105.503-.105.293 0 .587.105.67.273l-.586 1.948h2.095c.252.252.084.796-.168.922h-2.221ZM288.194 190.568c0-.461.335-1.006.796-1.006.168 0 .314.126.461.293.545.587 1.006.943 1.592.943.44 0 .838-.314.838-.753 0-.692-.65-1.425-1.047-1.928-.587-.754-.88-1.467-.88-1.99 0-.88.461-1.593 1.215-2.243.587-.503 1.34-.795 1.885-.795.964 0 1.676.712 1.676 1.445 0 .566-.461.88-.67.88-.188 0-.336-.083-.461-.251-.587-.671-.922-.902-1.467-.902-.46 0-.711.357-.711.651 0 .691.69 1.299 1.068 1.802.607.816.922 1.403.9 2.22-.02.712-.377 1.508-1.173 2.157a3.68 3.68 0 0 1-2.346.838c-.88 0-1.676-.628-1.676-1.361M306.526 184.514c-.607.545-1.739 1.844-2.472 3.101-.839 1.403-1.216 2.493-1.216 2.954 0 .251.126.377.294.377.419 0 1.76-.86 2.871-2.075 1.11-1.214 1.801-2.535 2.094-3.54.231-.838.042-1.488-.377-1.488-.314 0-.733.252-1.194.671m2.137-.838 1.467-4.253c.334-.964.356-1.257.02-1.467l-.502-.335a.273.273 0 0 1 .083-.377c.503-.209 2.179-.544 3.143-.586.084.042.168.125.168.167-.377 1.048-.608 1.802-1.153 3.226-.838 2.221-2.849 8.359-3.058 9.051-.147.503-.252.817-.293 1.026-.042.189 0 .357.167.357.252 0 1.425-.796 2.094-1.592.21 0 .336.125.336.377-.545.942-2.346 2.66-3.938 2.66-.503 0-.755-.377-.755-.691 0-.356.126-.796.356-1.404l.692-1.885h-.042c-1.236 1.823-2.933 3.98-5.049 3.98-.922 0-1.467-.691-1.445-1.738.02-1.593 1.089-3.856 2.744-5.301 1.403-1.215 2.744-1.802 3.876-1.802.419 0 .88.252 1.089.587M316.206 184.682c-.774.816-1.277 1.927-1.508 2.682 1.069-.378 1.718-.734 2.388-1.425.524-.525.775-1.236.775-1.571 0-.273-.126-.525-.397-.525-.294 0-.734.252-1.258.839m-4.085 4.965c0-1.571.984-3.918 2.975-5.426 1.152-.859 2.137-1.132 2.933-1.132 1.006 0 1.676.754 1.676 1.446 0 1.885-2.85 2.912-5.175 3.541-.104.293-.188.775-.188 1.361 0 .775.335 1.194.922 1.194.754 0 1.508-.439 2.471-1.319.21 0 .378.209.336.419-1.132 1.571-2.597 2.199-3.98 2.199s-1.97-1.131-1.97-2.283M328.129 191.637a56.11 56.11 0 0 0-2.703.062c-.167-.104-.167-.523.042-.607l.587-.084c.942-.125 1.11-.355 1.76-2.388l2.471-7.794c.587-1.822.587-2.157-.481-2.367l-.545-.105c-.167-.125-.125-.523.126-.607a65.74 65.74 0 0 0 2.828.063c.943 0 1.739-.021 2.828-.063.168.126.168.524-.042.607l-.586.084c-1.026.147-1.174.356-1.802 2.388l-2.326 7.375c-.335 1.047-.481 1.697-.313 2.095.167.399.607.524 1.906.524 2.116 0 2.933-.125 4.421-2.284.251-.126.544-.084.67.126-.293.88-1.048 2.472-1.487 3.037-.692-.02-1.53-.041-2.389-.041-.859-.021-1.738-.021-2.535-.021h-2.43ZM340.491 185.143c.125-.336.104-.545-.063-.545-.419 0-1.362.816-1.927 1.403-.21-.042-.378-.168-.336-.419.671-.963 2.451-2.493 3.98-2.493.419 0 .797.377.797.754 0 .084-.042.336-.126.567l-2.158 5.383c-.146.377-.063.587.146.587.252 0 .797-.44 1.53-1.132 1.739-1.675 3.122-4.377 3.939-6.075.167-.062.377-.084.628-.084.461 0 .944.21 1.048.419-.523 1.363-1.634 4.107-2.473 6.39-.125.336-.104.566.106.566.377 0 1.466-.922 2.011-1.529.21 0 .377.083.377.377-.586 1.026-2.598 2.618-4.065 2.618-.461 0-.816-.419-.628-.922l1.299-3.373h-.042c-1.32 1.761-3.772 4.295-5.153 4.295-.587 0-1.006-.503-1.006-1.005 0-.294.104-.649.251-1.027l1.865-4.755ZM352.726 188.725c-.168.188-1.09 1.299-1.362 1.613-1.006 1.195-1.718 1.592-2.367 1.592-.503 0-.838-.377-.838-.922 0-.439.335-1.152.754-1.487.188-.147.293-.209.418-.209.168 0 .252.209.336.461.125.335.251.503.419.503.147 0 .544-.273 1.194-.964a35.91 35.91 0 0 0 1.174-1.425l-.776-2.137c-.188-.503-.335-.879-.503-.879-.293 0-.587.376-1.006 1.088-.251.084-.461-.042-.502-.293.335-1.005 1.382-2.577 2.388-2.577.461 0 .796.441 1.09 1.257l.712 1.948c.126-.083.545-.67 1.09-1.298 1.047-1.236 1.759-1.907 2.555-1.907.629 0 .922.545.922 1.09 0 .858-.545 1.487-.922 1.487-.21 0-.293-.168-.356-.419-.105-.293-.273-.544-.482-.544-.314 0-.837.418-1.781 1.529-.104.126-.565.691-.732.901l.754 2.095c.293.817.419 1.048.628 1.048.252 0 .671-.629 1.047-1.258.126-.167.461-.125.545.126-.377 1.383-1.256 2.786-2.346 2.786-.754 0-1.111-.67-1.425-1.529l-.628-1.676ZM362.804 184.682c-.774.816-1.277 1.927-1.508 2.682 1.069-.378 1.718-.734 2.388-1.425.524-.525.775-1.236.775-1.571 0-.273-.126-.525-.397-.525-.294 0-.734.252-1.258.839m-4.085 4.965c0-1.571.984-3.918 2.975-5.426 1.152-.859 2.137-1.132 2.933-1.132 1.006 0 1.676.754 1.676 1.446 0 1.885-2.85 2.912-5.175 3.541-.104.293-.188.775-.188 1.361 0 .775.335 1.194.922 1.194.754 0 1.508-.439 2.471-1.319.21 0 .378.209.336.419-1.132 1.571-2.597 2.199-3.98 2.199s-1.97-1.131-1.97-2.283M371.541 184.179l-1.215 3.101h.041c1.32-2.033 3.185-4.191 4.798-4.191 1.278 0 1.215 1.173 1.048 1.823-.126.44-.608 1.655-.943 2.452h.042c1.697-2.746 3.394-4.275 4.861-4.275.921 0 1.299.587 1.299 1.215 0 .398-.168 1.048-.378 1.613-.377 1.027-1.382 3.311-1.739 4.149-.104.251-.104.419.063.419.377 0 1.341-.754 1.928-1.425.251-.042.377.126.377.377-.629 1.194-2.389 2.493-4.023 2.493-.377 0-.754-.377-.754-.67 0-.252.125-.545.419-1.236a149.494 149.494 0 0 0 1.76-4.232c.167-.419.335-.922.335-1.236 0-.21-.042-.377-.315-.377-.397 0-1.172.607-2.178 1.885-1.089 1.383-2.074 3.415-3.143 5.489-.146.294-.314.377-.649.377-.587 0-1.215-.125-1.047-.628.041-.126 1.676-4.399 2.137-5.51.125-.294.377-.88.377-1.194 0-.252-.084-.419-.315-.419-.461 0-1.278.586-2.325 1.927-1.048 1.341-2.032 3.373-3.017 5.447-.126.294-.294.377-.629.377-.628 0-1.194-.125-1.047-.628.063-.21 2.011-5.552 2.2-6.139.188-.545.146-.712-.147-.712-.671 0-1.341.67-1.759 1.173a.376.376 0 0 1-.378-.377c.587-1.152 1.801-2.158 3.645-2.158.755 0 .859.608.671 1.09M387.381 186.357c-1.152 1.445-1.655 2.954-1.655 3.834 0 .649.293.984.587.984.356 0 1.089-.461 1.843-1.32 1.425-1.654 2.64-4.022 2.64-5.027 0-.525-.294-.734-.629-.734-.545 0-1.592.734-2.786 2.263m3.247 3.205c-1.55 1.613-3.309 2.367-4.776 2.367-1.341 0-2.054-.796-2.054-1.99 0-.922.356-2.157.922-3.645l2.577-6.851c.377-.984.398-1.278.063-1.487l-.502-.335c-.042-.126-.042-.294.083-.378.544-.209 2.22-.544 3.226-.586.084.042.147.125.147.209-.398 1.006-.712 1.76-1.131 2.828l-2.556 6.642h.042c1.257-1.802 2.702-3.248 4.169-3.248 1.508 0 1.969 1.09 1.969 1.991 0 1.174-.628 2.87-2.179 4.483M398.444 189.94c.754-1.089 1.76-3.604 1.76-4.965 0-.565-.084-1.132-.671-1.132-.377 0-.817.231-1.361.922-.986 1.279-2.075 3.772-2.075 5.321 0 .629.273 1.09.754 1.09.503 0 .964-.335 1.593-1.236m-2.074-5.447c1.215-1.111 2.241-1.404 3.184-1.404 1.865 0 2.598 1.279 2.577 2.85-.021 1.299-.65 3.205-2.053 4.546-1.215 1.194-2.389 1.445-3.311 1.445-1.76 0-2.639-1.215-2.597-2.744.042-1.529.921-3.499 2.2-4.693M406.322 185.143c.125-.336.104-.545-.063-.545-.419 0-1.362.816-1.927 1.403-.21-.042-.378-.168-.336-.419.671-.963 2.451-2.493 3.98-2.493.419 0 .797.377.797.754 0 .084-.042.336-.126.567l-2.158 5.383c-.146.377-.063.587.146.587.252 0 .797-.44 1.53-1.132 1.739-1.675 3.122-4.377 3.939-6.075.167-.062.377-.084.628-.084.461 0 .944.21 1.048.419-.523 1.363-1.634 4.107-2.473 6.39-.125.336-.104.566.106.566.377 0 1.466-.922 2.011-1.529.21 0 .377.083.377.377-.586 1.026-2.598 2.618-4.065 2.618-.461 0-.816-.419-.628-.922l1.299-3.373h-.042c-1.32 1.761-3.772 4.295-5.153 4.295-.587 0-1.006-.503-1.006-1.005 0-.294.104-.649.251-1.027l1.865-4.755ZM418.976 185.268l-.733 2.158h.126c.628-1.152 1.34-2.346 1.864-2.996.67-.838 1.236-1.341 1.864-1.341.671 0 .964.587.964 1.173 0 .651-.481 1.677-1.131 1.677-.252 0-.336-.231-.419-.608-.084-.418-.21-.628-.419-.628-.252 0-.733.461-1.425 1.613-.775 1.257-1.655 3.289-2.514 5.279-.105.252-.377.335-.712.335-.419 0-1.153-.125-.964-.712.461-1.362 1.509-4.274 2.095-6.18.105-.335.084-.545-.125-.545-.461 0-1.132.587-1.635 1.173-.209 0-.377-.168-.335-.419.545-.943 1.593-2.158 2.892-2.158 1.13 0 .942 1.215.607 2.179M428.342 183.843c-.335 0-.754.252-1.299.901-.713.86-1.593 2.62-1.593 3.604 0 .397.252.691.629.691s.88-.419 1.446-1.194c.775-1.068 1.404-2.661 1.404-3.269 0-.439-.294-.733-.587-.733m.209 11.376c0-.46-.335-.921-1.005-1.382-.817-.545-1.571-.922-1.802-.922-.23 0-.964.273-1.404.608-.544.419-.88.858-.88 1.361 0 .985 1.278 1.571 2.661 1.571 1.089 0 2.43-.419 2.43-1.236m-7.144.042c0-1.592 2.43-2.493 3.582-2.828-.523-.335-.774-.608-.774-1.047 0-.44.774-1.258 1.152-1.635-.671-.167-1.697-.712-1.697-2.157 0-1.027.608-2.41 1.738-3.373.86-.733 1.886-1.132 3.101-1.132.294 0 .566.063.881.189.293.126.523.272.69.272.21 0 .587-.042.922-.126.336-.083.755-.209.964-.209.336 0 .587.209.587.712 0 .587-.377.733-.587.733a2.22 2.22 0 0 1-.628-.104c-.21-.064-.503-.126-.671-.126-.084 0-.167.084-.167.146.041.168.125.503.125.692 0 1.802-1.235 3.331-2.89 4.128-.399.188-.944.313-1.53.397-.168.126-.378.377-.378.629 0 .231.399.65 1.09 1.026.545.293 1.321.712 1.99 1.131 1.006.65 1.425 1.299 1.425 2.096 0 1.655-2.703 2.598-5.259 2.598-1.529 0-3.666-.503-3.666-2.012" style="fill:#646363;fill-rule:nonzero"/><path d="M377.28 259.72h-.998l1.247-6.171-1.631 1.193.229-1.172 1.631-1.172h1.007l-1.485 7.322ZM383.089 253.22c-.811 0-1.257.771-1.257 1.502 0 .638.354 1.08.945 1.08.863 0 1.258-.844 1.258-1.502 0-.638-.353-1.08-.946-1.08m1.133 3.055-2.307 3.445h-1.101l2.171-3.198a1.504 1.504 0 0 1-.508.093c-1.019 0-1.653-.751-1.653-1.863 0-1.387.966-2.416 2.255-2.416 1.413 0 1.953.988 1.953 1.892 0 .699-.239 1.193-.81 2.047M388.232 259.72h-.998l1.247-6.171-1.631 1.193.229-1.172 1.631-1.172h1.007l-1.485 7.322ZM393.429 256.315c-.863 0-1.258.844-1.258 1.502 0 .638.354 1.079.946 1.079.81 0 1.267-.77 1.267-1.501 0-.638-.363-1.08-.955-1.08m-.302 3.466c-1.413 0-1.953-.987-1.953-1.893 0-.699.238-1.192.811-2.046l2.306-3.445h1.102l-2.162 3.198c.156-.051.291-.092.499-.092 1.018 0 1.663.75 1.663 1.861 0 1.389-.978 2.417-2.266 2.417M399.716 257.334h-2.879l.177-.937h2.889l-.187.937ZM404.88 256.048l-2.691 2.787h2.878l-.187.885h-4.156l.186-.885 3.336-3.445c.437-.452.645-.761.645-1.265 0-.586-.313-.905-.853-.905-.571 0-1.091.308-1.278 1.141h-1.018c.249-1.346 1.122-2.025 2.379-2.025 1.092 0 1.787.627 1.787 1.748 0 .936-.581 1.501-1.028 1.964M409.556 253.22c-.52 0-1.123.288-1.31 1.224l-.633 3.199a1.755 1.755 0 0 0-.053.411c0 .617.416.843.8.843.519 0 1.123-.287 1.309-1.224l.634-3.198c.031-.134.052-.277.052-.411 0-.617-.416-.844-.8-.844m1.745 1.286-.634 3.147c-.332 1.666-1.465 2.129-2.369 2.129-.976 0-1.735-.607-1.735-1.676 0-.145.02-.34.053-.494l.632-3.147c.333-1.667 1.466-2.129 2.37-2.129.977 0 1.736.607 1.736 1.676 0 .145-.022.34-.053.494M414.564 259.72h-.998l1.247-6.171-1.631 1.193.229-1.172 1.631-1.172h1.007l-1.485 7.322ZM419.761 256.315c-.863 0-1.258.844-1.258 1.502 0 .638.354 1.079.946 1.079.81 0 1.267-.77 1.267-1.501 0-.638-.363-1.08-.955-1.08m-.302 3.466c-1.413 0-1.953-.987-1.953-1.893 0-.699.238-1.192.811-2.046l2.306-3.445h1.102l-2.162 3.198c.156-.051.291-.092.499-.092 1.018 0 1.663.75 1.663 1.861 0 1.389-.978 2.417-2.266 2.417M425.691 243.471h-47.425l.645-1.819h47.425l-.645 1.819ZM425.043 245.793h-47.775l.184-.52h47.775l-.184.52ZM313.63 217.087l.026-.641-.138-.069c-.154-.076-.379-.191-.624-.096l-2.284.222c-1.335.157-2.616 1.558-3.462 2.483l-.056.061c-3.842 4.043-7.731 6.993-12.233 10.41l-1.488 1.129-.206.62.412.831h.525l.059-.036c3.782-2.309 7.43-5.011 11.115-8.237a5585.082 5585.082 0 0 0-8.058 14.404c-3.722 6.668-7.571 13.564-11.407 20.351l-.043.077.126.742.209.003c.043.001.184.041.268.064.157.045.292.083.422.083h.003c.189-.015.438-.027.718-.042 1.113-.054 2.637-.13 3.28-.516l.058-.034 22.401-41.053.377-.756ZM337.43 222.661c0 8.645-11.556 35.506-21.742 35.506-2.903 0-4.314-1.753-4.314-5.36 0-4.218 3.246-13.183 7.552-20.851 5.175-9.219 10.538-14.506 14.715-14.506 2.515 0 3.789 1.753 3.789 5.211m-3.863-7.133c-12.507 0-27.18 22.91-27.18 34.661 0 4.601 2.2 9.973 8.404 9.973 3.563 0 10.656-1.767 18.156-13.6 4.681-7.387 7.827-16.422 7.827-22.48 0-5.596-2.492-8.554-7.207-8.554M369.374 222.661c0 8.645-11.556 35.506-21.743 35.506-2.903 0-4.313-1.753-4.313-5.36 0-4.218 3.246-13.183 7.551-20.851 5.175-9.219 10.538-14.506 14.715-14.506 2.515 0 3.79 1.753 3.79 5.211m-3.864-7.133c-12.508 0-27.181 22.91-27.181 34.661 0 4.601 2.201 9.973 8.405 9.973 3.562 0 10.656-1.767 18.155-13.6 4.682-7.387 7.828-16.422 7.828-22.48 0-5.596-2.492-8.554-7.207-8.554M391.869 220.06l-4.591 8.677h5.733l-1.142-8.677Zm1.857 14.807-.477-3.874h-7.111l-2.043 3.874h-2.946l10.349-18.893h2.202l2.813 18.893h-2.787ZM412.562 234.866h-2.388l-5.678-13.533-2.734 13.533h-2.732l3.794-18.893h2.415l5.678 13.533 2.707-13.533h2.733l-3.795 18.893ZM429.276 219.715c-.85-1.009-1.885-1.539-3.583-1.539-2.547 0-4.06 1.777-4.06 3.529 0 1.326 1.062 1.91 2.362 2.229l1.645.398c2.998.716 4.193 2.096 4.193 4.75 0 3.98-3.397 5.944-7.324 5.944-2.812 0-4.564-.744-6.129-2.601l2.016-1.751c1.062 1.326 2.415 1.937 4.352 1.937 2.441 0 4.351-1.407 4.351-3.343 0-1.646-.981-2.176-2.335-2.494l-1.671-.399c-2.495-.584-4.193-2.043-4.193-4.378 0-3.132 2.389-6.182 7.111-6.182 2.097 0 3.902.663 5.175 2.228l-1.91 1.672Z" style="fill:#86764f;fill-rule:nonzero"/></svg>