<?xml version="1.0" encoding="UTF-8" standalone="no"?><!DOCTYPE svg PUBLIC "-//W3C//DTD SVG 1.1//EN" "http://www.w3.org/Graphics/SVG/1.1/DTD/svg11.dtd"><svg width="100%" height="100%" viewBox="0 0 468 270" version="1.1" xmlns="http://www.w3.org/2000/svg" xmlns:xlink="http://www.w3.org/1999/xlink" xml:space="preserve" xmlns:serif="http://www.serif.com/" style="fill-rule:evenodd;clip-rule:evenodd;stroke-linejoin:round;stroke-miterlimit:2;"><g id="Calque-4" serif:id="Calque 4"><path d="M27.457,103.123c20.902,16.06 52.253,23.792 76.149,26.171c23.884,2.378 25.647,1.764 25.647,1.764l0.936,0.023c0,0 0.923,-20.16 32.557,-56.809c28.931,-33.545 60.8,-53.384 90.712,-65.768l-244.954,0l0,71.68c4.647,9.353 11.31,17.07 18.953,22.939" style="fill:#dadada;fill-rule:nonzero;"/><path d="M89.876,199.163c14.178,21.33 4.021,48.084 -27.173,55.604c-23.55,5.692 -43.553,3.592 -54.199,1.278l0,3.886l166.865,0c11.882,-8.351 21.461,-17.603 30.377,-27.164c23.281,-24.988 36.366,-47.782 36.366,-47.782c0,0 -31.95,29.686 -70.751,24.553c-25.79,-3.418 -38.149,-30.259 -41.172,-43.681c-3.285,-14.572 -1.502,-28.534 -1.502,-28.534c-54.903,-0.582 -97.193,-15.408 -120.183,-39.244l0,75.674c33.109,-3.698 70.103,8.454 81.372,25.41" style="fill:#dadada;fill-rule:nonzero;"/><path d="M152.926,129.045c0,0 43.067,-4.162 89.878,-23.202c11.347,-4.62 21.567,-9.101 30.828,-13.632l0,-74.005c-7.436,3.783 -15.765,8.478 -25.171,14.327c-72.142,44.834 -95.535,96.512 -95.535,96.512" style="fill:#dadada;fill-rule:nonzero;"/><path d="M33.142,252.392c25.081,-0.469 62.706,-9.51 55.838,-41.044c-5.255,-24.139 -48.004,-34.327 -80.476,-31.228l0,70.473c5.776,1.118 13.835,1.996 24.638,1.799" style="fill:#dadada;fill-rule:nonzero;"/><path d="M149.959,135.495c0,0 -8.067,21.965 -4.837,40.478c3.586,20.515 23.774,37.379 59.31,25.186c30.358,-10.413 43.132,-26.09 46.717,-31.439c3.584,-5.349 5.975,-8.922 5.975,-8.922l16.508,0l0,-62.587c-30.718,15.602 -62.233,25.2 -86.785,31.001c-26.183,6.191 -36.888,6.283 -36.888,6.283" style="fill:#dadada;fill-rule:nonzero;"/><path d="M232.322,233.659c-9.796,9.607 -20.612,18.412 -32.447,26.272l73.757,0l0,-74.081c-9.523,13.117 -23.247,30.106 -41.31,47.809" style="fill:#dadada;fill-rule:nonzero;"/><path d="M223.383,84.829c-6.514,9.17 -15.724,14.729 -31.184,21.071c-15.567,6.382 -29.894,7.777 -29.894,7.777c0,0 7.782,-17.321 31.775,-32.348c14.784,-9.262 21.646,-9.978 26.279,-9.886c4.629,0.092 9.846,3.786 3.024,13.386m-4.323,-15.802c-11.721,-0.499 -17.528,2.069 -17.528,2.069c-11.523,3.886 -24.44,10.765 -35.96,24.223c-10.523,12.283 -10.83,19.04 -10.83,19.04l-0.311,-0.008c0,0 -0.587,0.207 -8.532,-0.591c-7.95,-0.797 -18.379,-3.388 -25.332,-8.771c-6.955,-5.382 -11.526,-15.353 -6.36,-28.71c5.168,-13.358 21.755,-18.54 34.275,-19.639c12.516,-1.096 28.511,2.693 28.511,2.693l0.199,-1.396c0,0 -19.271,-6.081 -40.332,-1.397c-20.093,4.471 -29.506,15.771 -29.011,32.001c0.496,16.246 18.58,27.613 46.393,27.911c0,0 -0.593,4.685 0.5,9.569c1.006,4.499 5.117,13.496 13.696,14.642c12.908,1.72 23.531,-8.23 23.531,-8.23c0,0 -4.347,7.64 -12.092,16.015c-7.75,8.375 -16.988,16.049 -37.55,19.436c-20.568,3.392 -40.931,0.099 -46.693,-11.562c-5.76,-11.663 0.696,-18.443 10.134,-23.326c9.436,-4.884 32.983,-2.291 35.265,8.273c2.285,10.569 -10.231,13.6 -18.575,13.756c-8.918,0.165 -12.222,-1.89 -12.222,-1.89l-0.596,1.29c0,0 0.901,0.629 2.373,1.195c2.031,0.779 10.175,2.662 20.279,0.202c10.377,-2.52 13.755,-11.489 9.039,-18.637c-4.273,-6.479 -19.668,-10.866 -31.591,-7.675c-11.921,3.189 -19.671,11.063 -18.081,21.829c1.591,10.764 12.814,20.578 39.639,19.937c25.034,-0.596 44.055,-9.324 57.42,-22.529c12.914,-12.759 19.174,-24.421 19.174,-24.421l-10.931,0c0,0 -0.795,1.197 -1.987,2.99c-1.192,1.793 -5.437,7.048 -15.535,10.537c-11.821,4.088 -18.537,-1.566 -19.729,-8.441c-1.075,-6.205 1.609,-13.573 1.609,-13.573c0,0 3.561,-0.031 12.271,-2.106c10.222,-2.434 24.067,-6.851 36.485,-14.727c12.416,-7.873 15.656,-14.549 15.656,-14.549c3.576,-4.984 5.054,-14.932 -6.671,-15.43" style="fill:#646363;fill-rule:nonzero;"/><path d="M376.057,155.038c-7.878,5.967 -19.599,7.347 -16.572,0.449c2.454,-5.593 10.781,-10.754 15.829,-13.648c5.205,-2.986 13.009,-5.298 13.009,-5.298c0,0 -4.385,12.53 -12.266,18.497m-134.451,-7.382c0,0 -4.533,6.562 -13.227,10.366c-8.694,3.806 -10.554,-1.641 -9.142,-6.635c1.413,-4.998 4.906,-11.56 15.534,-19.764c10.627,-8.205 17.54,-5.667 16.867,-1.491c-0.667,4.175 -5.2,12.004 -10.032,17.524m84.248,-56.434c7.799,-8.404 11.508,-10.328 15.214,-12.188c3.705,-1.86 9.91,-2.116 7.092,5.003c-2.809,7.12 -7.986,11.674 -17.447,18.474c-9.461,6.801 -23.716,11.162 -23.716,11.162c0,0 11.057,-14.046 18.857,-22.451m9.845,37.417c8.695,-4.549 15.905,-2.312 8.177,5.892c-3.9,4.137 -10.032,6.039 -13.824,6.71c-6.105,1.081 -8.921,0.524 -8.921,0.524c0,0 5.806,-8.541 14.568,-13.126m87.782,-0.224c-17.848,-0.357 -30.249,4.25 -30.249,4.25c0,0 -0.367,-1.195 -0.664,-2.389c-0.299,-1.195 -0.82,-2.609 -1.567,-5.07c-0.744,-2.461 0,-4.773 0,-4.773c0,0 2.158,-2.313 2.752,-3.431c0.593,-1.119 0.223,-1.789 -0.224,-1.491c-0.447,0.297 -2.528,2.759 -9.511,8.203c-6.985,5.446 -20.444,17.225 -33.824,24.684c-13.375,7.46 -20.362,10.74 -27.572,11.261c-7.211,0.523 -7.658,-4.846 -6.913,-8.055c0.746,-3.206 3.341,-7.011 3.341,-7.011c0,0 9.962,0.076 15.535,-1.714c5.573,-1.791 9.888,-3.728 13.38,-8.725c4.233,-6.051 0.224,-10.516 -5.872,-10.069c-6.091,0.45 -10.182,0.896 -18.804,7.011c-8.622,6.117 -11.002,11.934 -11.002,11.934c0,0 -13.375,11.037 -21.254,14.467c-7.352,3.199 -10.927,0.373 -9.666,-4.999c1.267,-5.369 4.612,-10.067 9.071,-16.18c4.459,-6.117 15.605,-20.659 15.605,-20.659c0,0 10.779,-2.238 21.631,-9.024c8.698,-5.439 17.913,-12.678 21.182,-19.914c2.891,-6.393 2.751,-11.251 -3.123,-11.113c-6.245,0.151 -17.985,8.13 -26.98,17.007c-8.994,8.875 -19.55,22.073 -19.55,22.073c0,0 -5.353,1.046 -11.52,0.672c-6.17,-0.372 -7.434,-2.61 -7.434,-2.61l-2.674,2.833c0,0 0.15,0.224 2.078,1.119c1.934,0.895 3.571,1.045 8.104,1.193c4.532,0.149 9.735,-0.672 9.735,-0.672c0,0 -18.432,21.704 -28.838,30.278c-7.199,5.935 -13.378,11.488 -19.545,12.083c-6.17,0.598 -4.758,-4.7 -3.047,-7.086c1.708,-2.383 19.397,-27.743 19.397,-27.743l-7.654,0l-3.195,4.326c0,0 -0.148,-1.267 -0.521,-2.312c-0.373,-1.042 -2.304,-2.386 -4.98,-2.76c-2.677,-0.371 -9.667,-1.003 -20.364,6.488c-9.585,6.713 -13.228,15.439 -13.228,15.439c0,0 -2.005,1.863 -9.07,6.414c-7.06,4.548 -12.855,6.861 -12.855,6.861l1.267,2.017c0,0 3.419,-1.492 9.812,-5.146c6.39,-3.655 10.182,-6.416 10.182,-6.416c0,0 -0.223,1.566 -0.223,3.729c0,2.164 0.82,7.01 6.169,8.129c5.35,1.119 10.406,-1.714 12.859,-3.431c2.449,-1.715 5.943,-5.068 5.943,-5.068c0,0 -0.074,0.744 -0.074,2.311c0,1.566 0.223,4.026 4.086,5.963c3.865,1.942 10.556,-0.071 16.723,-4.174c6.17,-4.1 19.029,-15.735 19.029,-15.735c0,0 -2.603,5.89 -2.751,12.603c-0.15,6.716 6.613,9.621 13.827,6.938c7.207,-2.684 20.214,-13.275 20.214,-13.275c0,0 -0.447,1.787 -0.669,4.022c-0.223,2.241 1.78,10.255 8.695,10.596c12.191,0.594 24.813,-6.43 38.723,-15.664c14.942,-9.918 31.443,-23.941 31.443,-23.941c0,0 0.297,3.955 0.444,6.267c0.152,2.311 -0.221,5.07 -0.221,5.07c0,0 -7.433,2.609 -11.299,4.399c-3.862,1.789 -9.439,5.074 -15.979,10.89c-6.539,5.817 -6.396,11.933 0.518,12.753c6.338,0.751 19.476,-3.955 26.463,-11.71c6.983,-7.753 5.2,-15.807 5.2,-15.807c0,0 10.405,-3.731 21.184,-4.402c10.777,-0.672 24.824,0.969 33.892,8.205c9.067,7.232 3.495,19.539 3.495,19.539c-2.304,5.893 -14.494,14.691 -30.326,12.305c-18.022,-2.717 -21.028,-12.533 -20.137,-17.232c0.826,-4.345 3.941,-11.93 16.501,-12.752c12.56,-0.818 20.587,5.297 20.587,5.297c0,0 0.57,0.462 1.124,-0.192c0.462,-0.547 0.064,-1.151 0.064,-1.151c0,0 -5.655,-4.363 -13.674,-5.446c-7.73,-1.043 -15.389,-0.146 -20.076,3.209c-4.933,3.54 -8.59,10.596 -5.641,17.676c3.419,8.205 16.41,14.107 31.954,12.157c16.649,-2.086 23.115,-11.185 23.339,-22.895c0.22,-11.711 -14.048,-20.064 -32.778,-20.434" style="fill:#646363;fill-rule:nonzero;"/><path d="M157.098,178.333c-0.167,-0.168 -0.126,-0.482 0.125,-0.587c0.692,0.042 1.488,0.063 2.347,0.063c0.922,0 1.655,-0.021 2.598,-0.063c0.209,0.105 0.167,0.503 0,0.587l-0.692,0.146c-0.293,0.063 -0.607,0.084 -0.691,0.273c-0.104,0.209 -0.104,0.733 -0.041,1.508c0.209,2.514 0.544,6.285 0.732,8.234c2.599,-3.666 4.945,-7.123 5.972,-8.862c0.23,-0.378 0.356,-0.692 0.356,-0.839c0,-0.167 -0.105,-0.23 -0.503,-0.314l-0.671,-0.146c-0.146,-0.126 -0.104,-0.503 0.084,-0.587c1.09,0.042 1.823,0.063 2.619,0.063c0.733,0 1.404,-0.021 1.928,-0.063c0.167,0.126 0.167,0.461 0,0.587l-0.566,0.125c-0.461,0.105 -0.943,0.273 -1.278,0.65c-0.482,0.566 -1.844,2.347 -3.185,4.232l-2.199,3.101c-1.362,1.927 -3.101,4.672 -3.583,5.405c-0.126,0.083 -0.335,0.125 -0.503,0.125c-0.209,0 -0.335,-0.042 -0.419,-0.125c-0.084,-0.608 -0.125,-1.697 -0.209,-2.849c-0.21,-2.808 -0.482,-5.616 -0.755,-8.422c-0.146,-1.572 -0.23,-2.033 -0.963,-2.159l-0.503,-0.083Z" style="fill:#646363;fill-rule:nonzero;"/><path d="M172.309,180.24c0,-0.671 0.482,-1.446 1.362,-1.446c0.607,0 0.963,0.335 0.963,0.985c0,0.754 -0.565,1.445 -1.362,1.445c-0.628,0 -0.963,-0.461 -0.963,-0.984m-1.006,9.825c-0.083,0.21 -0.104,0.399 0.063,0.399c0.335,0 1.487,-0.797 2.095,-1.447c0.231,0 0.398,0.21 0.356,0.419c-0.586,0.88 -2.597,2.493 -4.19,2.493c-0.356,0 -0.67,-0.46 -0.67,-0.649c0,-0.23 0.042,-0.461 0.188,-0.816l2.326,-5.511c0.084,-0.209 0.084,-0.335 -0.042,-0.335c-0.251,0 -1.131,0.545 -1.802,1.132c-0.209,0 -0.356,-0.252 -0.293,-0.419c1.131,-1.32 2.912,-2.242 3.855,-2.242c0.293,0 0.628,0.293 0.691,0.587c0.042,0.167 -0.042,0.46 -0.23,0.9l-2.347,5.489Z" style="fill:#646363;fill-rule:nonzero;"/><path d="M184.942,184.262c0,0.398 -0.168,1.111 -0.377,1.655c-0.377,1.027 -1.383,3.311 -1.718,4.149c-0.105,0.251 -0.126,0.419 0.042,0.419c0.335,0 1.341,-0.754 1.927,-1.425c0.251,-0.042 0.377,0.126 0.377,0.377c-0.712,1.174 -2.388,2.493 -4.022,2.493c-0.377,0 -0.712,-0.377 -0.712,-0.67c0,-0.252 0.083,-0.545 0.377,-1.236c0.544,-1.257 1.256,-2.996 1.759,-4.232c0.168,-0.419 0.336,-0.922 0.336,-1.258c0,-0.188 -0.042,-0.355 -0.294,-0.355c-0.356,0 -1.257,0.649 -2.22,1.864c-1.132,1.467 -2.158,3.394 -3.185,5.552c-0.125,0.252 -0.377,0.335 -0.712,0.335c-0.377,0 -1.111,-0.125 -0.922,-0.712c0.084,-0.272 2.011,-5.468 2.221,-6.055c0.125,-0.335 0.167,-0.629 -0.084,-0.629c-0.419,0 -1.215,0.545 -1.802,1.09c-0.209,0 -0.335,-0.168 -0.335,-0.335c0.671,-1.068 2.179,-2.2 3.603,-2.2c0.755,0 0.818,0.629 0.629,1.09l-1.278,3.247l0.084,0c1.32,-1.864 3.247,-4.337 5.049,-4.337c0.922,0 1.257,0.587 1.257,1.173" style="fill:#646363;fill-rule:nonzero;"/><path d="M185.991,190.568c0,-0.461 0.335,-1.006 0.796,-1.006c0.168,0 0.314,0.126 0.461,0.293c0.545,0.587 1.006,0.943 1.593,0.943c0.44,0 0.838,-0.314 0.838,-0.753c0,-0.692 -0.65,-1.425 -1.048,-1.928c-0.587,-0.754 -0.88,-1.467 -0.88,-1.99c0,-0.88 0.461,-1.593 1.215,-2.243c0.587,-0.503 1.341,-0.795 1.886,-0.795c0.963,0 1.676,0.712 1.676,1.445c0,0.566 -0.461,0.88 -0.671,0.88c-0.188,0 -0.335,-0.083 -0.461,-0.251c-0.586,-0.671 -0.922,-0.902 -1.466,-0.902c-0.461,0 -0.712,0.357 -0.712,0.651c0,0.691 0.691,1.299 1.068,1.802c0.608,0.816 0.922,1.403 0.901,2.22c-0.021,0.712 -0.377,1.508 -1.174,2.157c-0.628,0.525 -1.466,0.838 -2.346,0.838c-0.88,0 -1.676,-0.628 -1.676,-1.361" style="fill:#646363;fill-rule:nonzero;"/><path d="M203.045,184.682c-0.775,0.816 -1.278,1.927 -1.508,2.682c1.068,-0.378 1.717,-0.734 2.388,-1.425c0.524,-0.525 0.775,-1.236 0.775,-1.571c0,-0.273 -0.126,-0.525 -0.398,-0.525c-0.294,0 -0.734,0.252 -1.257,0.839m-4.085,4.965c0,-1.571 0.984,-3.918 2.975,-5.426c1.152,-0.859 2.136,-1.132 2.933,-1.132c1.005,0 1.676,0.754 1.676,1.446c0,1.885 -2.85,2.912 -5.175,3.541c-0.105,0.293 -0.189,0.775 -0.189,1.361c0,0.775 0.336,1.194 0.922,1.194c0.755,0 1.508,-0.439 2.472,-1.319c0.21,0 0.377,0.209 0.335,0.419c-1.131,1.571 -2.597,2.199 -3.98,2.199c-1.383,0 -1.969,-1.131 -1.969,-2.283" style="fill:#646363;fill-rule:nonzero;"/><path d="M211.719,184.43l-1.886,5.426c-0.125,0.336 -0.083,0.503 0.126,0.503c0.335,0 1.551,-0.922 2.304,-1.76c0.252,0.042 0.378,0.168 0.336,0.461c-0.922,1.383 -2.975,2.87 -4.316,2.87c-0.419,0 -0.754,-0.377 -0.754,-0.712c0,-0.293 0.063,-0.587 0.252,-1.152l1.927,-5.636l-1.593,0c-0.125,-0.188 0,-0.545 0.21,-0.67l1.76,-0.336l1.341,-2.032c0.126,-0.083 0.293,-0.105 0.502,-0.105c0.294,0 0.587,0.105 0.671,0.273l-0.587,1.948l2.095,0c0.252,0.252 0.084,0.796 -0.167,0.922l-2.221,0Z" style="fill:#646363;fill-rule:nonzero;"/><path d="M219.723,189.625c0,-1.382 0.859,-3.456 2.367,-4.943c1.111,-1.09 2.221,-1.593 3.332,-1.593c1.089,0 1.822,0.587 1.801,1.425c0,0.817 -0.775,1.152 -1.257,1.152c-0.356,0 -0.607,-0.21 -0.628,-0.587c-0.042,-0.461 0.021,-1.152 -0.524,-1.152c-0.419,0 -0.964,0.419 -1.55,1.341c-0.65,1.026 -1.32,2.577 -1.32,4.106c0,0.942 0.356,1.257 0.859,1.257c0.628,0 1.382,-0.398 2.241,-1.277c0.252,0 0.419,0.167 0.378,0.418c-0.776,1.027 -2.305,2.158 -3.855,2.158c-1.132,0 -1.844,-0.796 -1.844,-2.305" style="fill:#646363;fill-rule:nonzero;"/><path d="M231.686,185.268l-0.733,2.158l0.125,0c0.629,-1.152 1.341,-2.346 1.865,-2.996c0.67,-0.838 1.236,-1.341 1.865,-1.341c0.67,0 0.963,0.587 0.963,1.173c0,0.651 -0.482,1.677 -1.131,1.677c-0.252,0 -0.335,-0.231 -0.419,-0.608c-0.084,-0.418 -0.21,-0.628 -0.419,-0.628c-0.252,0 -0.734,0.461 -1.425,1.613c-0.775,1.257 -1.655,3.289 -2.514,5.279c-0.105,0.252 -0.377,0.335 -0.712,0.335c-0.419,0 -1.153,-0.125 -0.964,-0.712c0.461,-1.362 1.508,-4.274 2.095,-6.18c0.105,-0.335 0.084,-0.545 -0.126,-0.545c-0.461,0 -1.131,0.587 -1.634,1.173c-0.209,0 -0.377,-0.168 -0.335,-0.419c0.545,-0.943 1.592,-2.158 2.891,-2.158c1.131,0 0.943,1.215 0.608,2.179" style="fill:#646363;fill-rule:nonzero;"/><path d="M240.842,182.251c-0.271,0 -0.461,-0.146 -0.502,-0.356l2.179,-3.603c0.313,-0.503 0.544,-0.629 0.754,-0.608c0.23,0.021 0.419,0.168 0.775,0.419c0.293,0.293 0.44,0.46 0.398,0.733c-0.021,0.209 -0.314,0.44 -0.586,0.691l-3.018,2.724Zm-1.11,2.431c-0.775,0.816 -1.278,1.926 -1.508,2.681c1.068,-0.378 1.718,-0.733 2.388,-1.424c0.524,-0.525 0.775,-1.237 0.775,-1.572c0,-0.272 -0.126,-0.524 -0.398,-0.524c-0.293,0 -0.733,0.252 -1.257,0.839m-4.085,4.965c0,-1.572 0.985,-3.918 2.975,-5.426c1.152,-0.86 2.137,-1.132 2.933,-1.132c1.006,0 1.676,0.754 1.676,1.445c0,1.886 -2.85,2.912 -5.175,3.541c-0.105,0.293 -0.189,0.776 -0.189,1.362c0,0.775 0.336,1.194 0.922,1.194c0.755,0 1.509,-0.44 2.472,-1.319c0.21,0 0.378,0.209 0.336,0.418c-1.132,1.572 -2.598,2.2 -3.981,2.2c-1.383,0 -1.969,-1.131 -1.969,-2.283" style="fill:#646363;fill-rule:nonzero;"/><path d="M248.469,184.179l-1.215,3.101l0.041,0c1.32,-2.033 3.185,-4.191 4.798,-4.191c1.278,0 1.215,1.173 1.048,1.823c-0.126,0.44 -0.608,1.655 -0.943,2.452l0.042,0c1.697,-2.746 3.394,-4.275 4.861,-4.275c0.921,0 1.299,0.587 1.299,1.215c0,0.398 -0.168,1.048 -0.378,1.613c-0.377,1.027 -1.382,3.311 -1.739,4.149c-0.104,0.251 -0.104,0.419 0.063,0.419c0.377,0 1.341,-0.754 1.928,-1.425c0.251,-0.042 0.377,0.126 0.377,0.377c-0.629,1.194 -2.389,2.493 -4.023,2.493c-0.377,0 -0.754,-0.377 -0.754,-0.67c0,-0.252 0.125,-0.545 0.419,-1.236c0.545,-1.257 1.257,-2.954 1.76,-4.232c0.167,-0.419 0.335,-0.922 0.335,-1.236c0,-0.21 -0.042,-0.377 -0.314,-0.377c-0.398,0 -1.173,0.607 -2.179,1.885c-1.089,1.383 -2.074,3.415 -3.143,5.489c-0.146,0.294 -0.314,0.377 -0.649,0.377c-0.587,0 -1.215,-0.125 -1.047,-0.628c0.041,-0.126 1.676,-4.399 2.137,-5.51c0.125,-0.294 0.377,-0.88 0.377,-1.194c0,-0.252 -0.084,-0.419 -0.315,-0.419c-0.461,0 -1.278,0.586 -2.325,1.927c-1.048,1.341 -2.032,3.373 -3.017,5.447c-0.126,0.294 -0.294,0.377 -0.629,0.377c-0.628,0 -1.194,-0.125 -1.047,-0.628c0.063,-0.21 2.011,-5.552 2.2,-6.139c0.188,-0.545 0.146,-0.712 -0.147,-0.712c-0.671,0 -1.341,0.67 -1.759,1.173c-0.21,0 -0.378,-0.168 -0.378,-0.377c0.587,-1.152 1.801,-2.158 3.645,-2.158c0.755,0 0.859,0.608 0.671,1.09" style="fill:#646363;fill-rule:nonzero;"/><path d="M264.455,185.163c-1.173,1.278 -2.263,3.646 -2.305,5.028c0,0.231 0.084,0.419 0.252,0.419c0.335,0 1.236,-0.733 2.137,-1.676c1.068,-1.089 2.011,-2.975 2.305,-3.939c-0.168,-0.503 -0.503,-0.733 -0.922,-0.733c-0.461,0 -0.796,0.189 -1.467,0.901m3.478,-2.409c0.084,-0.042 0.251,-0.084 0.418,-0.084c0.399,0 0.986,0.126 1.174,0.503c-0.587,1.361 -1.927,4.818 -2.703,6.997c-0.104,0.272 -0.02,0.377 0.106,0.377c0.313,0 1.173,-0.482 2.094,-1.362c0.168,0 0.335,0.126 0.335,0.399c-0.922,1.173 -2.555,2.346 -3.896,2.346c-0.503,0 -0.692,-0.419 -0.692,-0.67c0,-0.21 0.042,-0.441 0.209,-0.86l0.755,-1.99l-0.063,0c-1.466,1.99 -3.562,3.52 -4.777,3.52c-0.669,0 -1.13,-0.586 -1.13,-1.257c0,-0.818 0.838,-2.933 2.451,-4.756c0.942,-1.047 1.906,-1.696 2.618,-2.074c0.629,-0.335 1.132,-0.461 1.635,-0.461c0.167,0 0.335,0.084 0.481,0.147c0.105,0.063 0.315,0.231 0.441,0.398l0.544,-1.173Z" style="fill:#646363;fill-rule:nonzero;"/><path d="M280.273,184.262c0,0.398 -0.167,1.111 -0.377,1.655c-0.377,1.027 -1.383,3.311 -1.718,4.149c-0.104,0.251 -0.126,0.419 0.042,0.419c0.335,0 1.341,-0.754 1.928,-1.425c0.251,-0.042 0.377,0.126 0.377,0.377c-0.713,1.174 -2.389,2.493 -4.023,2.493c-0.376,0 -0.712,-0.377 -0.712,-0.67c0,-0.252 0.084,-0.545 0.378,-1.236c0.543,-1.257 1.256,-2.996 1.759,-4.232c0.167,-0.419 0.335,-0.922 0.335,-1.258c0,-0.188 -0.042,-0.355 -0.293,-0.355c-0.356,0 -1.258,0.649 -2.22,1.864c-1.132,1.467 -2.159,3.394 -3.185,5.552c-0.126,0.252 -0.378,0.335 -0.713,0.335c-0.377,0 -1.11,-0.125 -0.922,-0.712c0.084,-0.272 2.012,-5.468 2.221,-6.055c0.126,-0.335 0.168,-0.629 -0.083,-0.629c-0.42,0 -1.216,0.545 -1.802,1.09c-0.21,0 -0.336,-0.168 -0.336,-0.335c0.671,-1.068 2.179,-2.2 3.604,-2.2c0.755,0 0.817,0.629 0.629,1.09l-1.279,3.247l0.084,0c1.321,-1.864 3.247,-4.337 5.049,-4.337c0.922,0 1.257,0.587 1.257,1.173" style="fill:#646363;fill-rule:nonzero;"/><path d="M286.58,184.43l-1.885,5.426c-0.126,0.336 -0.084,0.503 0.125,0.503c0.336,0 1.551,-0.922 2.305,-1.76c0.252,0.042 0.377,0.168 0.335,0.461c-0.921,1.383 -2.975,2.87 -4.316,2.87c-0.418,0 -0.753,-0.377 -0.753,-0.712c0,-0.293 0.062,-0.587 0.251,-1.152l1.927,-5.636l-1.592,0c-0.126,-0.188 0,-0.545 0.209,-0.67l1.76,-0.336l1.341,-2.032c0.126,-0.083 0.293,-0.105 0.503,-0.105c0.293,0 0.587,0.105 0.67,0.273l-0.586,1.948l2.095,0c0.252,0.252 0.084,0.796 -0.168,0.922l-2.221,0Z" style="fill:#646363;fill-rule:nonzero;"/><path d="M288.194,190.568c0,-0.461 0.335,-1.006 0.796,-1.006c0.168,0 0.314,0.126 0.461,0.293c0.545,0.587 1.006,0.943 1.592,0.943c0.44,0 0.838,-0.314 0.838,-0.753c0,-0.692 -0.65,-1.425 -1.047,-1.928c-0.587,-0.754 -0.88,-1.467 -0.88,-1.99c0,-0.88 0.461,-1.593 1.215,-2.243c0.587,-0.503 1.34,-0.795 1.885,-0.795c0.964,0 1.676,0.712 1.676,1.445c0,0.566 -0.461,0.88 -0.67,0.88c-0.188,0 -0.336,-0.083 -0.461,-0.251c-0.587,-0.671 -0.922,-0.902 -1.467,-0.902c-0.46,0 -0.711,0.357 -0.711,0.651c0,0.691 0.69,1.299 1.068,1.802c0.607,0.816 0.922,1.403 0.9,2.22c-0.02,0.712 -0.377,1.508 -1.173,2.157c-0.628,0.525 -1.466,0.838 -2.346,0.838c-0.88,0 -1.676,-0.628 -1.676,-1.361" style="fill:#646363;fill-rule:nonzero;"/><path d="M306.526,184.514c-0.607,0.545 -1.739,1.844 -2.472,3.101c-0.839,1.403 -1.216,2.493 -1.216,2.954c0,0.251 0.126,0.377 0.294,0.377c0.419,0 1.76,-0.86 2.871,-2.075c1.11,-1.214 1.801,-2.535 2.094,-3.54c0.231,-0.838 0.042,-1.488 -0.377,-1.488c-0.314,0 -0.733,0.252 -1.194,0.671m2.137,-0.838l1.467,-4.253c0.334,-0.964 0.356,-1.257 0.02,-1.467l-0.502,-0.335c-0.084,-0.126 -0.042,-0.293 0.083,-0.377c0.503,-0.209 2.179,-0.544 3.143,-0.586c0.084,0.042 0.168,0.125 0.168,0.167c-0.377,1.048 -0.608,1.802 -1.153,3.226c-0.838,2.221 -2.849,8.359 -3.058,9.051c-0.147,0.503 -0.252,0.817 -0.293,1.026c-0.042,0.189 0,0.357 0.167,0.357c0.252,0 1.425,-0.796 2.094,-1.592c0.21,0 0.336,0.125 0.336,0.377c-0.545,0.942 -2.346,2.66 -3.938,2.66c-0.503,0 -0.755,-0.377 -0.755,-0.691c0,-0.356 0.126,-0.796 0.356,-1.404l0.692,-1.885l-0.042,0c-1.236,1.823 -2.933,3.98 -5.049,3.98c-0.922,0 -1.467,-0.691 -1.445,-1.738c0.02,-1.593 1.089,-3.856 2.744,-5.301c1.403,-1.215 2.744,-1.802 3.876,-1.802c0.419,0 0.88,0.252 1.089,0.587" style="fill:#646363;fill-rule:nonzero;"/><path d="M316.206,184.682c-0.774,0.816 -1.277,1.927 -1.508,2.682c1.069,-0.378 1.718,-0.734 2.388,-1.425c0.524,-0.525 0.775,-1.236 0.775,-1.571c0,-0.273 -0.126,-0.525 -0.397,-0.525c-0.294,0 -0.734,0.252 -1.258,0.839m-4.085,4.965c0,-1.571 0.984,-3.918 2.975,-5.426c1.152,-0.859 2.137,-1.132 2.933,-1.132c1.006,0 1.676,0.754 1.676,1.446c0,1.885 -2.85,2.912 -5.175,3.541c-0.104,0.293 -0.188,0.775 -0.188,1.361c0,0.775 0.335,1.194 0.922,1.194c0.754,0 1.508,-0.439 2.471,-1.319c0.21,0 0.378,0.209 0.336,0.419c-1.132,1.571 -2.597,2.199 -3.98,2.199c-1.383,0 -1.97,-1.131 -1.97,-2.283" style="fill:#646363;fill-rule:nonzero;"/><path d="M328.129,191.637c-1.006,0 -1.802,0.021 -2.703,0.062c-0.167,-0.104 -0.167,-0.523 0.042,-0.607l0.587,-0.084c0.942,-0.125 1.11,-0.355 1.76,-2.388l2.471,-7.794c0.587,-1.822 0.587,-2.157 -0.481,-2.367l-0.545,-0.105c-0.167,-0.125 -0.125,-0.523 0.126,-0.607c1.006,0.042 1.886,0.063 2.828,0.063c0.943,0 1.739,-0.021 2.828,-0.063c0.168,0.126 0.168,0.524 -0.042,0.607l-0.586,0.084c-1.026,0.147 -1.174,0.356 -1.802,2.388l-2.326,7.375c-0.335,1.047 -0.481,1.697 -0.313,2.095c0.167,0.399 0.607,0.524 1.906,0.524c2.116,0 2.933,-0.125 4.421,-2.284c0.251,-0.126 0.544,-0.084 0.67,0.126c-0.293,0.88 -1.048,2.472 -1.487,3.037c-0.692,-0.02 -1.53,-0.041 -2.389,-0.041c-0.859,-0.021 -1.738,-0.021 -2.535,-0.021l-2.43,0Z" style="fill:#646363;fill-rule:nonzero;"/><path d="M340.491,185.143c0.125,-0.336 0.104,-0.545 -0.063,-0.545c-0.419,0 -1.362,0.816 -1.927,1.403c-0.21,-0.042 -0.378,-0.168 -0.336,-0.419c0.671,-0.963 2.451,-2.493 3.98,-2.493c0.419,0 0.797,0.377 0.797,0.754c0,0.084 -0.042,0.336 -0.126,0.567l-2.158,5.383c-0.146,0.377 -0.063,0.587 0.146,0.587c0.252,0 0.797,-0.44 1.53,-1.132c1.739,-1.675 3.122,-4.377 3.939,-6.075c0.167,-0.062 0.377,-0.084 0.628,-0.084c0.461,0 0.944,0.21 1.048,0.419c-0.523,1.363 -1.634,4.107 -2.473,6.39c-0.125,0.336 -0.104,0.566 0.106,0.566c0.377,0 1.466,-0.922 2.011,-1.529c0.21,0 0.377,0.083 0.377,0.377c-0.586,1.026 -2.598,2.618 -4.065,2.618c-0.461,0 -0.816,-0.419 -0.628,-0.922l1.299,-3.373l-0.042,0c-1.32,1.761 -3.772,4.295 -5.153,4.295c-0.587,0 -1.006,-0.503 -1.006,-1.005c0,-0.294 0.104,-0.649 0.251,-1.027l1.865,-4.755Z" style="fill:#646363;fill-rule:nonzero;"/><path d="M352.726,188.725c-0.168,0.188 -1.09,1.299 -1.362,1.613c-1.006,1.195 -1.718,1.592 -2.367,1.592c-0.503,0 -0.838,-0.377 -0.838,-0.922c0,-0.439 0.335,-1.152 0.754,-1.487c0.188,-0.147 0.293,-0.209 0.418,-0.209c0.168,0 0.252,0.209 0.336,0.461c0.125,0.335 0.251,0.503 0.419,0.503c0.147,0 0.544,-0.273 1.194,-0.964c0.356,-0.399 0.859,-1.026 1.174,-1.425l-0.776,-2.137c-0.188,-0.503 -0.335,-0.879 -0.503,-0.879c-0.293,0 -0.587,0.376 -1.006,1.088c-0.251,0.084 -0.461,-0.042 -0.502,-0.293c0.335,-1.005 1.382,-2.577 2.388,-2.577c0.461,0 0.796,0.441 1.09,1.257l0.712,1.948c0.126,-0.083 0.545,-0.67 1.09,-1.298c1.047,-1.236 1.759,-1.907 2.555,-1.907c0.629,0 0.922,0.545 0.922,1.09c0,0.858 -0.545,1.487 -0.922,1.487c-0.21,0 -0.293,-0.168 -0.356,-0.419c-0.105,-0.293 -0.273,-0.544 -0.482,-0.544c-0.314,0 -0.837,0.418 -1.781,1.529c-0.104,0.126 -0.565,0.691 -0.732,0.901l0.754,2.095c0.293,0.817 0.419,1.048 0.628,1.048c0.252,0 0.671,-0.629 1.047,-1.258c0.126,-0.167 0.461,-0.125 0.545,0.126c-0.377,1.383 -1.256,2.786 -2.346,2.786c-0.754,0 -1.111,-0.67 -1.425,-1.529l-0.628,-1.676Z" style="fill:#646363;fill-rule:nonzero;"/><path d="M362.804,184.682c-0.774,0.816 -1.277,1.927 -1.508,2.682c1.069,-0.378 1.718,-0.734 2.388,-1.425c0.524,-0.525 0.775,-1.236 0.775,-1.571c0,-0.273 -0.126,-0.525 -0.397,-0.525c-0.294,0 -0.734,0.252 -1.258,0.839m-4.085,4.965c0,-1.571 0.984,-3.918 2.975,-5.426c1.152,-0.859 2.137,-1.132 2.933,-1.132c1.006,0 1.676,0.754 1.676,1.446c0,1.885 -2.85,2.912 -5.175,3.541c-0.104,0.293 -0.188,0.775 -0.188,1.361c0,0.775 0.335,1.194 0.922,1.194c0.754,0 1.508,-0.439 2.471,-1.319c0.21,0 0.378,0.209 0.336,0.419c-1.132,1.571 -2.597,2.199 -3.98,2.199c-1.383,0 -1.97,-1.131 -1.97,-2.283" style="fill:#646363;fill-rule:nonzero;"/><path d="M371.541,184.179l-1.215,3.101l0.041,0c1.32,-2.033 3.185,-4.191 4.798,-4.191c1.278,0 1.215,1.173 1.048,1.823c-0.126,0.44 -0.608,1.655 -0.943,2.452l0.042,0c1.697,-2.746 3.394,-4.275 4.861,-4.275c0.921,0 1.299,0.587 1.299,1.215c0,0.398 -0.168,1.048 -0.378,1.613c-0.377,1.027 -1.382,3.311 -1.739,4.149c-0.104,0.251 -0.104,0.419 0.063,0.419c0.377,0 1.341,-0.754 1.928,-1.425c0.251,-0.042 0.377,0.126 0.377,0.377c-0.629,1.194 -2.389,2.493 -4.023,2.493c-0.377,0 -0.754,-0.377 -0.754,-0.67c0,-0.252 0.125,-0.545 0.419,-1.236c0.545,-1.257 1.257,-2.954 1.76,-4.232c0.167,-0.419 0.335,-0.922 0.335,-1.236c0,-0.21 -0.042,-0.377 -0.315,-0.377c-0.397,0 -1.172,0.607 -2.178,1.885c-1.089,1.383 -2.074,3.415 -3.143,5.489c-0.146,0.294 -0.314,0.377 -0.649,0.377c-0.587,0 -1.215,-0.125 -1.047,-0.628c0.041,-0.126 1.676,-4.399 2.137,-5.51c0.125,-0.294 0.377,-0.88 0.377,-1.194c0,-0.252 -0.084,-0.419 -0.315,-0.419c-0.461,0 -1.278,0.586 -2.325,1.927c-1.048,1.341 -2.032,3.373 -3.017,5.447c-0.126,0.294 -0.294,0.377 -0.629,0.377c-0.628,0 -1.194,-0.125 -1.047,-0.628c0.063,-0.21 2.011,-5.552 2.2,-6.139c0.188,-0.545 0.146,-0.712 -0.147,-0.712c-0.671,0 -1.341,0.67 -1.759,1.173c-0.21,0 -0.378,-0.168 -0.378,-0.377c0.587,-1.152 1.801,-2.158 3.645,-2.158c0.755,0 0.859,0.608 0.671,1.09" style="fill:#646363;fill-rule:nonzero;"/><path d="M387.381,186.357c-1.152,1.445 -1.655,2.954 -1.655,3.834c0,0.649 0.293,0.984 0.587,0.984c0.356,0 1.089,-0.461 1.843,-1.32c1.425,-1.654 2.64,-4.022 2.64,-5.027c0,-0.525 -0.294,-0.734 -0.629,-0.734c-0.545,0 -1.592,0.734 -2.786,2.263m3.247,3.205c-1.55,1.613 -3.309,2.367 -4.776,2.367c-1.341,0 -2.054,-0.796 -2.054,-1.99c0,-0.922 0.356,-2.157 0.922,-3.645l2.577,-6.851c0.377,-0.984 0.398,-1.278 0.063,-1.487l-0.502,-0.335c-0.042,-0.126 -0.042,-0.294 0.083,-0.378c0.544,-0.209 2.22,-0.544 3.226,-0.586c0.084,0.042 0.147,0.125 0.147,0.209c-0.398,1.006 -0.712,1.76 -1.131,2.828l-2.556,6.642l0.042,0c1.257,-1.802 2.702,-3.248 4.169,-3.248c1.508,0 1.969,1.09 1.969,1.991c0,1.174 -0.628,2.87 -2.179,4.483" style="fill:#646363;fill-rule:nonzero;"/><path d="M398.444,189.94c0.754,-1.089 1.76,-3.604 1.76,-4.965c0,-0.565 -0.084,-1.132 -0.671,-1.132c-0.377,0 -0.817,0.231 -1.361,0.922c-0.986,1.279 -2.075,3.772 -2.075,5.321c0,0.629 0.273,1.09 0.754,1.09c0.503,0 0.964,-0.335 1.593,-1.236m-2.074,-5.447c1.215,-1.111 2.241,-1.404 3.184,-1.404c1.865,0 2.598,1.279 2.577,2.85c-0.021,1.299 -0.65,3.205 -2.053,4.546c-1.215,1.194 -2.389,1.445 -3.311,1.445c-1.76,0 -2.639,-1.215 -2.597,-2.744c0.042,-1.529 0.921,-3.499 2.2,-4.693" style="fill:#646363;fill-rule:nonzero;"/><path d="M406.322,185.143c0.125,-0.336 0.104,-0.545 -0.063,-0.545c-0.419,0 -1.362,0.816 -1.927,1.403c-0.21,-0.042 -0.378,-0.168 -0.336,-0.419c0.671,-0.963 2.451,-2.493 3.98,-2.493c0.419,0 0.797,0.377 0.797,0.754c0,0.084 -0.042,0.336 -0.126,0.567l-2.158,5.383c-0.146,0.377 -0.063,0.587 0.146,0.587c0.252,0 0.797,-0.44 1.53,-1.132c1.739,-1.675 3.122,-4.377 3.939,-6.075c0.167,-0.062 0.377,-0.084 0.628,-0.084c0.461,0 0.944,0.21 1.048,0.419c-0.523,1.363 -1.634,4.107 -2.473,6.39c-0.125,0.336 -0.104,0.566 0.106,0.566c0.377,0 1.466,-0.922 2.011,-1.529c0.21,0 0.377,0.083 0.377,0.377c-0.586,1.026 -2.598,2.618 -4.065,2.618c-0.461,0 -0.816,-0.419 -0.628,-0.922l1.299,-3.373l-0.042,0c-1.32,1.761 -3.772,4.295 -5.153,4.295c-0.587,0 -1.006,-0.503 -1.006,-1.005c0,-0.294 0.104,-0.649 0.251,-1.027l1.865,-4.755Z" style="fill:#646363;fill-rule:nonzero;"/><path d="M418.976,185.268l-0.733,2.158l0.126,0c0.628,-1.152 1.34,-2.346 1.864,-2.996c0.67,-0.838 1.236,-1.341 1.864,-1.341c0.671,0 0.964,0.587 0.964,1.173c0,0.651 -0.481,1.677 -1.131,1.677c-0.252,0 -0.336,-0.231 -0.419,-0.608c-0.084,-0.418 -0.21,-0.628 -0.419,-0.628c-0.252,0 -0.733,0.461 -1.425,1.613c-0.775,1.257 -1.655,3.289 -2.514,5.279c-0.105,0.252 -0.377,0.335 -0.712,0.335c-0.419,0 -1.153,-0.125 -0.964,-0.712c0.461,-1.362 1.509,-4.274 2.095,-6.18c0.105,-0.335 0.084,-0.545 -0.125,-0.545c-0.461,0 -1.132,0.587 -1.635,1.173c-0.209,0 -0.377,-0.168 -0.335,-0.419c0.545,-0.943 1.593,-2.158 2.892,-2.158c1.13,0 0.942,1.215 0.607,2.179" style="fill:#646363;fill-rule:nonzero;"/><path d="M428.342,183.843c-0.335,0 -0.754,0.252 -1.299,0.901c-0.713,0.86 -1.593,2.62 -1.593,3.604c0,0.397 0.252,0.691 0.629,0.691c0.377,0 0.88,-0.419 1.446,-1.194c0.775,-1.068 1.404,-2.661 1.404,-3.269c0,-0.439 -0.294,-0.733 -0.587,-0.733m0.209,11.376c0,-0.46 -0.335,-0.921 -1.005,-1.382c-0.817,-0.545 -1.571,-0.922 -1.802,-0.922c-0.23,0 -0.964,0.273 -1.404,0.608c-0.544,0.419 -0.88,0.858 -0.88,1.361c0,0.985 1.278,1.571 2.661,1.571c1.089,0 2.43,-0.419 2.43,-1.236m-7.144,0.042c0,-1.592 2.43,-2.493 3.582,-2.828c-0.523,-0.335 -0.774,-0.608 -0.774,-1.047c0,-0.44 0.774,-1.258 1.152,-1.635c-0.671,-0.167 -1.697,-0.712 -1.697,-2.157c0,-1.027 0.608,-2.41 1.738,-3.373c0.86,-0.733 1.886,-1.132 3.101,-1.132c0.294,0 0.566,0.063 0.881,0.189c0.293,0.126 0.523,0.272 0.69,0.272c0.21,0 0.587,-0.042 0.922,-0.126c0.336,-0.083 0.755,-0.209 0.964,-0.209c0.336,0 0.587,0.209 0.587,0.712c0,0.587 -0.377,0.733 -0.587,0.733c-0.209,0 -0.419,-0.042 -0.628,-0.104c-0.21,-0.064 -0.503,-0.126 -0.671,-0.126c-0.084,0 -0.167,0.084 -0.167,0.146c0.041,0.168 0.125,0.503 0.125,0.692c0,1.802 -1.235,3.331 -2.89,4.128c-0.399,0.188 -0.944,0.313 -1.53,0.397c-0.168,0.126 -0.378,0.377 -0.378,0.629c0,0.231 0.399,0.65 1.09,1.026c0.545,0.293 1.321,0.712 1.99,1.131c1.006,0.65 1.425,1.299 1.425,2.096c0,1.655 -2.703,2.598 -5.259,2.598c-1.529,0 -3.666,-0.503 -3.666,-2.012" style="fill:#646363;fill-rule:nonzero;"/><path d="M377.28,259.72l-0.998,0l1.247,-6.171l-1.631,1.193l0.229,-1.172l1.631,-1.172l1.007,0l-1.485,7.322Z" style="fill:#86764f;fill-rule:nonzero;"/><path d="M383.089,253.22c-0.811,0 -1.257,0.771 -1.257,1.502c0,0.638 0.354,1.08 0.945,1.08c0.863,0 1.258,-0.844 1.258,-1.502c0,-0.638 -0.353,-1.08 -0.946,-1.08m1.133,3.055l-2.307,3.445l-1.101,0l2.171,-3.198c-0.156,0.051 -0.301,0.093 -0.508,0.093c-1.019,0 -1.653,-0.751 -1.653,-1.863c0,-1.387 0.966,-2.416 2.255,-2.416c1.413,0 1.953,0.988 1.953,1.892c0,0.699 -0.239,1.193 -0.81,2.047" style="fill:#86764f;fill-rule:nonzero;"/><path d="M388.232,259.72l-0.998,0l1.247,-6.171l-1.631,1.193l0.229,-1.172l1.631,-1.172l1.007,0l-1.485,7.322Z" style="fill:#86764f;fill-rule:nonzero;"/><path d="M393.429,256.315c-0.863,0 -1.258,0.844 -1.258,1.502c0,0.638 0.354,1.079 0.946,1.079c0.81,0 1.267,-0.77 1.267,-1.501c0,-0.638 -0.363,-1.08 -0.955,-1.08m-0.302,3.466c-1.413,0 -1.953,-0.987 -1.953,-1.893c0,-0.699 0.238,-1.192 0.811,-2.046l2.306,-3.445l1.102,0l-2.162,3.198c0.156,-0.051 0.291,-0.092 0.499,-0.092c1.018,0 1.663,0.75 1.663,1.861c0,1.389 -0.978,2.417 -2.266,2.417" style="fill:#86764f;fill-rule:nonzero;"/><path d="M399.716,257.334l-2.879,0l0.177,-0.937l2.889,0l-0.187,0.937Z" style="fill:#86764f;fill-rule:nonzero;"/><path d="M404.88,256.048l-2.691,2.787l2.878,0l-0.187,0.885l-4.156,0l0.186,-0.885l3.336,-3.445c0.437,-0.452 0.645,-0.761 0.645,-1.265c0,-0.586 -0.313,-0.905 -0.853,-0.905c-0.571,0 -1.091,0.308 -1.278,1.141l-1.018,0c0.249,-1.346 1.122,-2.025 2.379,-2.025c1.092,0 1.787,0.627 1.787,1.748c0,0.936 -0.581,1.501 -1.028,1.964" style="fill:#86764f;fill-rule:nonzero;"/><path d="M409.556,253.22c-0.52,0 -1.123,0.288 -1.31,1.224l-0.633,3.199c-0.033,0.134 -0.053,0.277 -0.053,0.411c0,0.617 0.416,0.843 0.8,0.843c0.519,0 1.123,-0.287 1.309,-1.224l0.634,-3.198c0.031,-0.134 0.052,-0.277 0.052,-0.411c0,-0.617 -0.416,-0.844 -0.8,-0.844m1.745,1.286l-0.634,3.147c-0.332,1.666 -1.465,2.129 -2.369,2.129c-0.976,0 -1.735,-0.607 -1.735,-1.676c0,-0.145 0.02,-0.34 0.053,-0.494l0.632,-3.147c0.333,-1.667 1.466,-2.129 2.37,-2.129c0.977,0 1.736,0.607 1.736,1.676c0,0.145 -0.022,0.34 -0.053,0.494" style="fill:#86764f;fill-rule:nonzero;"/><path d="M414.564,259.72l-0.998,0l1.247,-6.171l-1.631,1.193l0.229,-1.172l1.631,-1.172l1.007,0l-1.485,7.322Z" style="fill:#86764f;fill-rule:nonzero;"/><path d="M419.761,256.315c-0.863,0 -1.258,0.844 -1.258,1.502c0,0.638 0.354,1.079 0.946,1.079c0.81,0 1.267,-0.77 1.267,-1.501c0,-0.638 -0.363,-1.08 -0.955,-1.08m-0.302,3.466c-1.413,0 -1.953,-0.987 -1.953,-1.893c0,-0.699 0.238,-1.192 0.811,-2.046l2.306,-3.445l1.102,0l-2.162,3.198c0.156,-0.051 0.291,-0.092 0.499,-0.092c1.018,0 1.663,0.75 1.663,1.861c0,1.389 -0.978,2.417 -2.266,2.417" style="fill:#86764f;fill-rule:nonzero;"/><path d="M425.691,243.471l-47.425,0l0.645,-1.819l47.425,0l-0.645,1.819Z" style="fill:#86764f;fill-rule:nonzero;"/><path d="M425.043,245.793l-47.775,0l0.184,-0.52l47.775,0l-0.184,0.52Z" style="fill:#86764f;fill-rule:nonzero;"/><path d="M313.63,217.087l0.026,-0.641l-0.138,-0.069c-0.154,-0.076 -0.379,-0.191 -0.624,-0.096l-2.284,0.222c-1.335,0.157 -2.616,1.558 -3.462,2.483l-0.056,0.061c-3.842,4.043 -7.731,6.993 -12.233,10.41l-1.488,1.129l-0.206,0.62l0.412,0.831l0.525,0l0.059,-0.036c3.782,-2.309 7.43,-5.011 11.115,-8.237c-2.692,4.791 -5.374,9.594 -8.058,14.404c-3.722,6.668 -7.571,13.564 -11.407,20.351l-0.043,0.077l0.126,0.742l0.209,0.003c0.043,0.001 0.184,0.041 0.268,0.064c0.157,0.045 0.292,0.083 0.422,0.083l0.003,0c0.189,-0.015 0.438,-0.027 0.718,-0.042c1.113,-0.054 2.637,-0.13 3.28,-0.516l0.058,-0.034l22.401,-41.053l0.377,-0.756Z" style="fill:#86764f;fill-rule:nonzero;"/><path d="M337.43,222.661c0,8.645 -11.556,35.506 -21.742,35.506c-2.903,0 -4.314,-1.753 -4.314,-5.36c0,-4.218 3.246,-13.183 7.552,-20.851c5.175,-9.219 10.538,-14.506 14.715,-14.506c2.515,0 3.789,1.753 3.789,5.211m-3.863,-7.133c-12.507,0 -27.18,22.91 -27.18,34.661c0,4.601 2.2,9.973 8.404,9.973c3.563,0 10.656,-1.767 18.156,-13.6c4.681,-7.387 7.827,-16.422 7.827,-22.48c0,-5.596 -2.492,-8.554 -7.207,-8.554" style="fill:#86764f;fill-rule:nonzero;"/><path d="M369.374,222.661c0,8.645 -11.556,35.506 -21.743,35.506c-2.903,0 -4.313,-1.753 -4.313,-5.36c0,-4.218 3.246,-13.183 7.551,-20.851c5.175,-9.219 10.538,-14.506 14.715,-14.506c2.515,0 3.79,1.753 3.79,5.211m-3.864,-7.133c-12.508,0 -27.181,22.91 -27.181,34.661c0,4.601 2.201,9.973 8.405,9.973c3.562,0 10.656,-1.767 18.155,-13.6c4.682,-7.387 7.828,-16.422 7.828,-22.48c0,-5.596 -2.492,-8.554 -7.207,-8.554" style="fill:#86764f;fill-rule:nonzero;"/><path d="M391.869,220.06l-4.591,8.677l5.733,0l-1.142,-8.677Zm1.857,14.807l-0.477,-3.874l-7.111,0l-2.043,3.874l-2.946,0l10.349,-18.893l2.202,0l2.813,18.893l-2.787,0Z" style="fill:#86764f;fill-rule:nonzero;"/><path d="M412.562,234.866l-2.388,0l-5.678,-13.533l-2.734,13.533l-2.732,0l3.794,-18.893l2.415,0l5.678,13.533l2.707,-13.533l2.733,0l-3.795,18.893Z" style="fill:#86764f;fill-rule:nonzero;"/><path d="M429.276,219.715c-0.85,-1.009 -1.885,-1.539 -3.583,-1.539c-2.547,0 -4.06,1.777 -4.06,3.529c0,1.326 1.062,1.91 2.362,2.229l1.645,0.398c2.998,0.716 4.193,2.096 4.193,4.75c0,3.98 -3.397,5.944 -7.324,5.944c-2.812,0 -4.564,-0.744 -6.129,-2.601l2.016,-1.751c1.062,1.326 2.415,1.937 4.352,1.937c2.441,0 4.351,-1.407 4.351,-3.343c0,-1.646 -0.981,-2.176 -2.335,-2.494l-1.671,-0.399c-2.495,-0.584 -4.193,-2.043 -4.193,-4.378c0,-3.132 2.389,-6.182 7.111,-6.182c2.097,0 3.902,0.663 5.175,2.228l-1.91,1.672Z" style="fill:#86764f;fill-rule:nonzero;"/></g></svg>