<?xml version="1.0" encoding="UTF-8" standalone="no"?>
<!-- Created with Inkscape (http://www.inkscape.org/) -->

<svg
   xmlns:dc="http://purl.org/dc/elements/1.1/"
   xmlns:cc="http://creativecommons.org/ns#"
   xmlns:rdf="http://www.w3.org/1999/02/22-rdf-syntax-ns#"
   xmlns:svg="http://www.w3.org/2000/svg"
   xmlns="http://www.w3.org/2000/svg"
   xmlns:sodipodi="http://sodipodi.sourceforge.net/DTD/sodipodi-0.dtd"
   xmlns:inkscape="http://www.inkscape.org/namespaces/inkscape"
   version="1.1"
   id="svg2"
   xml:space="preserve"
   width="184.672"
   height="114.64093"
   viewBox="0 0 184.672 114.64093"
   sodipodi:docname="gla.svg"
   inkscape:version="0.92.5 (2060ec1f9f, 2020-04-08)"><metadata
     id="metadata8"><rdf:RDF><cc:Work
         rdf:about=""><dc:format>image/svg+xml</dc:format><dc:type
           rdf:resource="http://purl.org/dc/dcmitype/StillImage" /><dc:title></dc:title></cc:Work></rdf:RDF></metadata><defs
     id="defs6" /><sodipodi:namedview
     pagecolor="#ffffff"
     bordercolor="#666666"
     borderopacity="1"
     objecttolerance="10"
     gridtolerance="10"
     guidetolerance="10"
     inkscape:pageopacity="0"
     inkscape:pageshadow="2"
     inkscape:window-width="1429"
     inkscape:window-height="757"
     id="namedview4"
     showgrid="false"
     inkscape:zoom="1.0094224"
     inkscape:cx="94.043016"
     inkscape:cy="19.440133"
     inkscape:window-x="0"
     inkscape:window-y="0"
     inkscape:window-maximized="0"
     inkscape:current-layer="g10" /><g
     id="g10"
     inkscape:groupmode="layer"
     inkscape:label="ink_ext_XXXXXX"
     transform="matrix(1.3333333,0,0,-1.3333333,-121.96666,170.41066)"><path
       inkscape:connector-curvature="0"
       id="path14"
       style="fill:#bec1c3;fill-opacity:1;fill-rule:nonzero;stroke:none;stroke-width:0.1"
       d="m 161.112,90.2781 c -5.435,0 -9.844,4.4028 -9.844,9.8419 0,5.434 4.409,9.838 9.844,9.838 5.424,0 9.84,-4.404 9.84,-9.838 0,-5.4391 -4.416,-9.8419 -9.84,-9.8419 m -21.081,37.5299 -6.009,-51.1443 51.134,-6.0078 6.005,51.1381 -51.13,6.014" /><path
       inkscape:connector-curvature="0"
       id="path16"
       style="fill:#1a3374;fill-opacity:1;fill-rule:nonzero;stroke:none;stroke-width:0.1"
       d="m 127.872,124.239 15.731,-11.701 c -3.471,-2.909 -5.537,-6.864 -5.37,-11.174 0.326,-8.6117 9.434,-15.3972 20.353,-15.1394 5.45,0.1309 10.329,1.9895 13.796,4.9008 l 15.73,-11.7012 -1.742,46.1918 z m 30.574,-34.448 c -8.42,-0.1961 -15.446,5.0336 -15.701,11.683 -0.25,6.647 6.375,12.199 14.791,12.397 8.423,0.191 15.45,-5.035 15.705,-11.682 0.249,-6.6492 -6.377,-12.198 -14.795,-12.398" /><path
       inkscape:connector-curvature="0"
       id="path18"
       style="fill:#1b377c;fill-opacity:1;fill-rule:nonzero;stroke:none;stroke-width:0.1"
       d="m 95.0023,53.5227 c -2.5683,0 -3.5273,1.9828 -3.5273,4.2875 0,2.2695 0.6574,4.2605 3.2746,4.2605 1.5379,0 2.7625,-0.634 2.7625,-2.3152 h -1.5625 c 0,0.7437 -0.4187,1.3191 -1.2,1.3191 -1.6328,0 -1.7277,-2.0769 -1.7277,-3.2644 0,-1.3442 0.2277,-3.2895 1.9804,-3.2895 0.336,0 0.9473,0.0598 1.2012,0.3242 V 57.484 H 94.643 v 0.9961 h 2.9668 v -4.1992 c -0.6621,-0.5063 -1.7891,-0.7582 -2.6075,-0.7582" /><path
       inkscape:connector-curvature="0"
       id="path20"
       style="fill:#1b377c;fill-opacity:1;fill-rule:nonzero;stroke:none;stroke-width:0.1"
       d="m 101.27,58.5641 c -1.07,0 -1.104,-1.27 -1.104,-2.0508 0,-0.7817 0.034,-2.0531 1.104,-2.0531 1.067,0 1.104,1.2714 1.104,2.0531 0,0.7808 -0.037,2.0508 -1.104,2.0508 m 0,-5.0414 c -1.8145,0 -2.5216,1.3339 -2.5216,2.9906 0,1.6582 0.7071,2.9898 2.5216,2.9898 1.812,0 2.52,-1.3316 2.52,-2.9898 0,-1.6567 -0.708,-2.9906 -2.52,-2.9906" /><path
       inkscape:connector-curvature="0"
       id="path22"
       style="fill:#1b377c;fill-opacity:1;fill-rule:nonzero;stroke:none;stroke-width:0.1"
       d="m 107.366,58.6496 c -0.912,0 -1.055,-1.4773 -1.055,-2.1363 0,-0.7934 -0.035,-2.0531 1.055,-2.0531 0.939,0 0.998,1.3808 0.998,2.0531 0,0.6969 0,2.1363 -0.998,2.1363 m 0,-5.1269 c -1.621,0 -2.387,0.9867 -2.387,2.5578 v 5.8586 h 1.332 v -3.2524 h 0.022 c 0.324,0.5274 0.855,0.8164 1.48,0.8164 1.643,0 1.968,-1.6679 1.968,-2.9898 0,-1.6195 -0.577,-2.9906 -2.415,-2.9906" /><path
       inkscape:connector-curvature="0"
       id="path24"
       style="fill:#1b377c;fill-opacity:1;fill-rule:nonzero;stroke:none;stroke-width:0.1"
       d="m 111.159,53.6559 h 1.333 v 8.2832 h -1.333 v -8.2832" /><path
       inkscape:connector-curvature="0"
       id="path26"
       style="fill:#1b377c;fill-opacity:1;fill-rule:nonzero;stroke:none;stroke-width:0.1"
       d="m 116.213,58.6496 c -0.576,0 -1.02,-0.4082 -1.08,-0.9851 h 2.088 c 0,0.6121 -0.396,0.9851 -1.008,0.9851 m -1.117,-1.7891 c 0,-1.2128 0.853,-2.4003 2.149,-2.4003 0.363,0 0.757,0.0949 1.093,0.2168 v -0.9239 c -0.515,-0.1679 -1.056,-0.2304 -1.597,-0.2304 -2.028,0 -2.879,1.4062 -2.879,3.2914 0,1.6187 0.742,2.689 2.447,2.689 1.453,0 2.174,-0.9234 2.174,-2.3164 v -0.3262 h -3.387" /><path
       inkscape:connector-curvature="0"
       id="path28"
       style="fill:#1b377c;fill-opacity:1;fill-rule:nonzero;stroke:none;stroke-width:0.1"
       d="m 121.625,58.4457 v -2.7004 c 0,-0.6726 0.075,-1.2851 0.904,-1.2851 0.204,0 0.407,0.0492 0.612,0.0949 v -0.9348 c -0.361,-0.0601 -0.734,-0.0976 -1.095,-0.0976 -1.163,0 -1.751,0.3859 -1.751,1.5746 v 3.3484 h -1.117 v 0.9246 h 1.117 v 1.3567 l 1.33,0.8039 v -2.1606 h 1.697 v -0.9246 h -1.697" /><path
       inkscape:connector-curvature="0"
       id="path30"
       style="fill:#1b377c;fill-opacity:1;fill-rule:nonzero;stroke:none;stroke-width:0.1"
       d="m 127.832,53.6559 v 8.2832 h 1.406 v -7.2129 h 3.252 v -1.0703 h -4.658" /><path
       inkscape:connector-curvature="0"
       id="path32"
       style="fill:#1b377c;fill-opacity:1;fill-rule:nonzero;stroke:none;stroke-width:0.1"
       d="m 134.325,55.1457 c 0,-0.4559 0.267,-0.6855 0.709,-0.6855 0.888,0 1.191,0.9843 1.191,1.7168 -0.637,0 -1.9,-0.1676 -1.9,-1.0313 m 1.9,-1.4898 v 0.6597 h -0.026 c -0.288,-0.5879 -0.866,-0.7929 -1.488,-0.7929 -0.912,0 -1.68,0.5285 -1.68,1.5019 0,1.716 1.895,1.8957 3.194,1.9336 v 0.5637 c 0,0.5652 -0.146,1.0422 -0.805,1.0422 -0.578,0 -0.878,-0.3086 -0.878,-0.8743 h -1.297 c 0,1.3079 0.986,1.8133 2.175,1.8133 1.213,0 2.075,-0.4566 2.075,-1.7769 v -4.0703 h -1.27" /><path
       inkscape:connector-curvature="0"
       id="path34"
       style="fill:#1b377c;fill-opacity:1;fill-rule:nonzero;stroke:none;stroke-width:0.1"
       d="m 141.575,53.6559 h -1.295 l -2.03,5.7144 h 1.393 l 1.274,-3.914 h 0.025 l 1.283,3.914 h 1.391 l -2.041,-5.7144" /><path
       inkscape:connector-curvature="0"
       id="path36"
       style="fill:#1b377c;fill-opacity:1;fill-rule:nonzero;stroke:none;stroke-width:0.1"
       d="m 145.429,55.1457 c 0,-0.4559 0.265,-0.6855 0.707,-0.6855 0.89,0 1.189,0.9843 1.189,1.7168 -0.635,0 -1.896,-0.1676 -1.896,-1.0313 m 1.896,-1.4898 v 0.6597 h -0.022 c -0.29,-0.5879 -0.865,-0.7929 -1.49,-0.7929 -0.913,0 -1.68,0.5285 -1.68,1.5019 0,1.716 1.897,1.8957 3.192,1.9336 v 0.5637 c 0,0.5652 -0.144,1.0422 -0.803,1.0422 -0.575,0 -0.875,-0.3086 -0.875,-0.8743 h -1.298 c 0,1.3079 0.984,1.8133 2.173,1.8133 1.213,0 2.078,-0.4566 2.078,-1.7769 v -4.0703 h -1.275" /><path
       inkscape:connector-curvature="0"
       id="path38"
       style="fill:#1b377c;fill-opacity:1;fill-rule:nonzero;stroke:none;stroke-width:0.1"
       d="m 153.458,53.6559 v 3.2644 c 0,0.2766 0.026,1.0086 -0.202,1.2254 -0.099,0.0957 -0.252,0.1098 -0.386,0.1098 -0.959,0 -1.344,-1.3598 -1.344,-2.125 v -2.4746 h -1.33 v 5.7144 h 1.33 v -1.0699 h 0.024 c 0.299,0.7332 0.875,1.2027 1.691,1.2027 1.095,0 1.55,-0.9011 1.55,-1.8867 v -3.9605 h -1.333" /><path
       inkscape:connector-curvature="0"
       id="path40"
       style="fill:#1b377c;fill-opacity:1;fill-rule:nonzero;stroke:none;stroke-width:0.1"
       d="m 158.479,58.4699 c -0.963,0 -0.987,-1.2597 -0.987,-1.9566 0,-0.6594 0.061,-1.9582 0.987,-1.9582 0.85,0 1.008,1.3347 1.008,1.9582 0,0.659 -0.084,1.9566 -1.008,1.9566 m 1.008,-4.814 v 0.7925 h -0.024 c -0.205,-0.5039 -0.9,-0.9257 -1.43,-0.9257 -1.668,0 -1.958,1.6703 -1.958,2.9906 0,1.2605 0.373,2.9898 1.958,2.9898 0.613,0 1.13,-0.289 1.43,-0.8164 h 0.024 v 3.2524 h 1.332 v -8.2832 h -1.332" /><path
       inkscape:connector-curvature="0"
       id="path42"
       style="fill:#1b377c;fill-opacity:1;fill-rule:nonzero;stroke:none;stroke-width:0.1"
       d="m 162.487,59.3703 h 1.334 v -5.7144 h -1.334 z m 0,2.5688 h 1.334 v -1.3188 h -1.334 v 1.3188" /><path
       inkscape:connector-curvature="0"
       id="path44"
       style="fill:#1b377c;fill-opacity:1;fill-rule:nonzero;stroke:none;stroke-width:0.1"
       d="m 167.54,58.6496 c -0.577,0 -1.02,-0.4082 -1.082,-0.9851 h 2.09 c 0,0.6121 -0.394,0.9851 -1.008,0.9851 m -1.117,-1.7891 c 0,-1.2128 0.853,-2.4003 2.15,-2.4003 0.361,0 0.753,0.0949 1.091,0.2168 v -0.9239 c -0.514,-0.1679 -1.055,-0.2304 -1.595,-0.2304 -2.031,0 -2.881,1.4062 -2.881,3.2914 0,1.6187 0.742,2.689 2.449,2.689 1.45,0 2.171,-0.9234 2.171,-2.3164 v -0.3262 h -3.385" /><path
       inkscape:connector-curvature="0"
       id="path46"
       style="fill:#1b377c;fill-opacity:1;fill-rule:nonzero;stroke:none;stroke-width:0.1"
       d="m 172.402,56.1645 v -2.5086 h -1.333 v 5.7144 h 1.333 v -1.0562 h 0.023 c 0.443,0.7918 0.888,1.189 1.85,1.189 v -1.3933 c -1.369,0 -1.873,-0.6004 -1.873,-1.9453" /><path
       inkscape:connector-curvature="0"
       id="path48"
       style="fill:#1b377c;fill-opacity:1;fill-rule:nonzero;stroke:none;stroke-width:0.1"
       d="m 181.572,59.1496 0.101,0.0766 c 0.175,0.1316 0.318,0.25 0.433,0.3465 0.114,0.0988 0.197,0.1828 0.246,0.248 0.106,0.1348 0.16,0.2957 0.16,0.491 0,0.2168 -0.075,0.3946 -0.222,0.5305 -0.143,0.1367 -0.34,0.2043 -0.587,0.2043 -0.222,0 -0.412,-0.0703 -0.563,-0.2094 -0.152,-0.1316 -0.232,-0.3035 -0.232,-0.5113 0,-0.2426 0.097,-0.4824 0.29,-0.7199 l 0.309,-0.3758 c 0.011,-0.016 0.032,-0.0434 0.065,-0.0805 m -0.271,-1.5906 -0.068,-0.0469 c -0.514,-0.3555 -0.864,-0.6394 -1.049,-0.8555 -0.185,-0.2148 -0.276,-0.4425 -0.276,-0.6816 0,-0.343 0.141,-0.6594 0.415,-0.9441 0.287,-0.2754 0.602,-0.4145 0.944,-0.4145 0.485,0 1.042,0.3188 1.673,0.9504 z m 0.993,0.7117 1.493,-1.8047 0.048,0.0539 c 0.16,0.1739 0.316,0.3465 0.457,0.5156 0.143,0.168 0.282,0.3387 0.411,0.511 l 0.818,-0.8383 c -0.1,-0.1441 -0.231,-0.3105 -0.392,-0.5 -0.165,-0.1902 -0.358,-0.4078 -0.585,-0.657 l 1.536,-1.8953 h -1.556 l -0.828,1.0144 c -0.758,-0.7859 -1.549,-1.1789 -2.37,-1.1789 -0.733,0 -1.356,0.2363 -1.868,0.7031 -0.501,0.4746 -0.752,1.061 -0.752,1.7539 0,0.8262 0.4,1.5157 1.2,2.0649 l 0.542,0.3699 c 0.005,0.0012 0.019,0.0125 0.037,0.0266 0.016,0.0144 0.045,0.0332 0.074,0.0601 -0.547,0.5832 -0.82,1.1582 -0.82,1.7231 0,0.5625 0.18,1.0152 0.545,1.3672 0.373,0.3511 0.852,0.525 1.439,0.525 0.567,0 1.038,-0.17 1.41,-0.5094 0.369,-0.3418 0.558,-0.7707 0.558,-1.2895 0,-0.3593 -0.103,-0.6824 -0.306,-0.9722 -0.201,-0.2922 -0.563,-0.6379 -1.091,-1.0434" /><path
       inkscape:connector-curvature="0"
       id="path50"
       style="fill:#1b377c;fill-opacity:1;fill-rule:nonzero;stroke:none;stroke-width:0.1"
       d="m 193.322,60.6059 h -0.026 l -1.14,-3.636 h 2.304 z m 2.195,-6.95 -0.719,2.2449 h -2.976 L 191.1,53.6559 h -1.464 l 2.833,8.2832 h 1.692 l 2.823,-8.2832 h -1.467" /><path
       inkscape:connector-curvature="0"
       id="path52"
       style="fill:#1b377c;fill-opacity:1;fill-rule:nonzero;stroke:none;stroke-width:0.1"
       d="m 198.941,53.5227 c -0.518,0 -1.022,0.0746 -1.516,0.2304 v 1.1516 c 0.457,-0.2039 0.949,-0.3496 1.453,-0.3496 0.336,0 0.986,0.0613 0.986,0.5176 0,0.6726 -2.46,1.2375 -2.46,2.748 0,1.1887 0.982,1.6824 2.05,1.6824 0.447,0 0.867,-0.0972 1.296,-0.2168 v -1.1297 c -0.394,0.2039 -0.814,0.386 -1.271,0.386 -0.299,0 -0.888,-0.1469 -0.888,-0.5293 0,-0.7563 2.509,-1.1399 2.509,-2.7727 0,-1.2734 -1.046,-1.7179 -2.159,-1.7179" /><path
       inkscape:connector-curvature="0"
       id="path54"
       style="fill:#1b377c;fill-opacity:1;fill-rule:nonzero;stroke:none;stroke-width:0.1"
       d="m 203.381,53.5227 c -0.516,0 -1.019,0.0746 -1.515,0.2304 v 1.1516 c 0.458,-0.2039 0.951,-0.3496 1.456,-0.3496 0.334,0 0.983,0.0613 0.983,0.5176 0,0.6726 -2.461,1.2375 -2.461,2.748 0,1.1887 0.983,1.6824 2.053,1.6824 0.445,0 0.865,-0.0972 1.296,-0.2168 v -1.1297 c -0.396,0.2039 -0.818,0.386 -1.271,0.386 -0.303,0 -0.89,-0.1469 -0.89,-0.5293 0,-0.7563 2.508,-1.1399 2.508,-2.7727 0,-1.2734 -1.045,-1.7179 -2.159,-1.7179" /><path
       inkscape:connector-curvature="0"
       id="path56"
       style="fill:#1b377c;fill-opacity:1;fill-rule:nonzero;stroke:none;stroke-width:0.1"
       d="m 208.853,58.5641 c -1.068,0 -1.104,-1.27 -1.104,-2.0508 0,-0.7817 0.036,-2.0531 1.104,-2.0531 1.07,0 1.105,1.2714 1.105,2.0531 0,0.7808 -0.035,2.0508 -1.105,2.0508 m 0,-5.0414 c -1.813,0 -2.52,1.3339 -2.52,2.9906 0,1.6582 0.707,2.9898 2.52,2.9898 1.812,0 2.52,-1.3316 2.52,-2.9898 0,-1.6567 -0.708,-2.9906 -2.52,-2.9906" /><path
       inkscape:connector-curvature="0"
       id="path58"
       style="fill:#1a3374;fill-opacity:1;fill-rule:nonzero;stroke:none;stroke-width:0.1"
       d="m 215.683,57.4137 c 0,0.5894 -0.168,1.1504 -0.861,1.1504 -0.843,0 -1.093,-0.8743 -1.093,-1.5586 0,-1.4414 0.84,-2.5453 2.351,-2.5453 0.326,0 0.649,0.0363 0.96,0.1457 v -0.8172 c -0.54,-0.1684 -1.102,-0.266 -1.669,-0.266 -2.04,0 -3.058,1.25 -3.058,3.2421 0,1.6567 0.899,2.7383 2.617,2.7383 1.392,0 2.172,-0.6851 2.172,-2.0894 h -1.419" /><path
       inkscape:connector-curvature="0"
       id="path60"
       style="fill:#1b377c;fill-opacity:1;fill-rule:nonzero;stroke:none;stroke-width:0.1"
       d="m 218.073,59.3703 h 1.333 v -5.7144 h -1.333 z m 0,2.5688 h 1.333 v -1.3188 h -1.333 v 1.3188" /><path
       inkscape:connector-curvature="0"
       id="path62"
       style="fill:#1b377c;fill-opacity:1;fill-rule:nonzero;stroke:none;stroke-width:0.1"
       d="m 223.69,60.3656 h -0.996 l 0.55,2.0047 h 1.444 z m -0.566,-1.716 c -0.573,0 -1.018,-0.4082 -1.08,-0.9851 h 2.088 c 0,0.6121 -0.393,0.9851 -1.008,0.9851 m -1.117,-1.7891 c 0,-1.2128 0.856,-2.4003 2.151,-2.4003 0.36,0 0.754,0.0949 1.091,0.2168 v -0.9239 c -0.514,-0.1679 -1.053,-0.2304 -1.594,-0.2304 -2.031,0 -2.884,1.4062 -2.884,3.2914 0,1.6187 0.744,2.689 2.449,2.689 1.456,0 2.175,-0.9234 2.175,-2.3164 v -0.3262 h -3.388" /><path
       inkscape:connector-curvature="0"
       id="path64"
       style="fill:#1b377c;fill-opacity:1;fill-rule:nonzero;stroke:none;stroke-width:0.1"
       d="m 227.82,53.5227 c -0.517,0 -1.021,0.0746 -1.513,0.2304 v 1.1516 c 0.455,-0.2039 0.946,-0.3496 1.45,-0.3496 0.339,0 0.984,0.0613 0.984,0.5176 0,0.6726 -2.459,1.2375 -2.459,2.748 0,1.1887 0.984,1.6824 2.051,1.6824 0.447,0 0.866,-0.0972 1.3,-0.2168 v -1.1297 c -0.397,0.2039 -0.817,0.386 -1.273,0.386 -0.301,0 -0.889,-0.1469 -0.889,-0.5293 0,-0.7563 2.508,-1.1399 2.508,-2.7727 0,-1.2734 -1.043,-1.7179 -2.159,-1.7179" /><path
       inkscape:connector-curvature="0"
       id="path66"
       style="fill:#1b377c;fill-opacity:1;fill-rule:nonzero;stroke:none;stroke-width:0.1"
       d="m 120.502,43.1508 h 0.542 v 6.2129 h -0.542 v -6.2129" /><path
       inkscape:connector-curvature="0"
       id="path68"
       style="fill:#1b377c;fill-opacity:1;fill-rule:nonzero;stroke:none;stroke-width:0.1"
       d="m 125.167,43.1508 v 2.7012 c 0,0.541 -0.037,1.2531 -0.756,1.2531 -0.674,0 -1.082,-0.8305 -1.223,-1.3879 -0.082,-0.2957 -0.128,-0.6121 -0.128,-0.9277 v -1.6387 h -0.448 v 4.2859 h 0.448 v -1.0535 h 0.019 c 0.234,0.7219 0.603,1.1531 1.421,1.1531 0.145,0 0.299,-0.0359 0.433,-0.0918 0.486,-0.1961 0.683,-0.6211 0.683,-1.125 v -3.1687 h -0.449" /><path
       inkscape:connector-curvature="0"
       id="path70"
       style="fill:#1b377c;fill-opacity:1;fill-rule:nonzero;stroke:none;stroke-width:0.1"
       d="m 132.946,48.1852 h -0.488 l 0.371,1.0711 h 0.664 z m -0.236,-1.0801 c -0.594,0 -0.907,-0.352 -1.017,-0.9004 h 1.92 c 0,0.5113 -0.388,0.9004 -0.903,0.9004 m -1.07,-1.3324 c -0.011,-0.1446 -0.011,-0.2977 -0.011,-0.443 0,-1.0617 0.481,-1.8457 1.651,-1.8457 0.242,0 0.547,0.0457 0.783,0.1172 v -0.4399 c -0.31,-0.0722 -0.621,-0.1101 -0.938,-0.1101 -1.449,0 -2.036,1.0285 -2.036,2.3613 0,1.0984 0.361,2.1238 1.631,2.1238 0.917,0 1.432,-0.6558 1.432,-1.541 v -0.2226 h -2.512" /><path
       inkscape:connector-curvature="0"
       id="path72"
       style="fill:#1b377c;fill-opacity:1;fill-rule:nonzero;stroke:none;stroke-width:0.1"
       d="m 137.833,43.1508 v 2.7012 c 0,0.541 -0.037,1.2531 -0.756,1.2531 -0.675,0 -1.082,-0.8305 -1.223,-1.3879 -0.082,-0.2957 -0.128,-0.6121 -0.128,-0.9277 v -1.6387 h -0.45 v 4.2859 h 0.45 v -1.0535 h 0.017 c 0.236,0.7219 0.605,1.1531 1.424,1.1531 0.143,0 0.295,-0.0359 0.432,-0.0918 0.484,-0.1961 0.685,-0.6211 0.685,-1.125 v -3.1687 h -0.451" /><path
       inkscape:connector-curvature="0"
       id="path74"
       style="fill:#1b377c;fill-opacity:1;fill-rule:nonzero;stroke:none;stroke-width:0.1"
       d="m 139.793,47.4367 h 0.452 v -4.2859 h -0.452 z m -0.105,1.9262 h 0.666 v -0.727 h -0.666 v 0.727" /><path
       inkscape:connector-curvature="0"
       id="path76"
       style="fill:#1b377c;fill-opacity:1;fill-rule:nonzero;stroke:none;stroke-width:0.1"
       d="m 143.045,47.1051 c -0.596,0 -0.908,-0.352 -1.016,-0.9004 h 1.917 c 0,0.5113 -0.387,0.9004 -0.901,0.9004 m -1.07,-1.3324 c -0.013,-0.1446 -0.013,-0.2977 -0.013,-0.443 0,-1.0617 0.48,-1.8457 1.651,-1.8457 0.243,0 0.548,0.0457 0.783,0.1172 v -0.4399 c -0.308,-0.0722 -0.62,-0.1101 -0.938,-0.1101 -1.45,0 -2.034,1.0285 -2.034,2.3613 0,1.0984 0.359,2.1238 1.631,2.1238 0.915,0 1.432,-0.6558 1.432,-1.541 v -0.2226 h -2.512" /><path
       inkscape:connector-curvature="0"
       id="path78"
       style="fill:#1b377c;fill-opacity:1;fill-rule:nonzero;stroke:none;stroke-width:0.1"
       d="m 148.176,43.1508 v 1.0547 h -0.017 c -0.237,-0.7215 -0.613,-1.1543 -1.432,-1.1543 -0.144,0 -0.297,0.0379 -0.423,0.0898 -0.485,0.1992 -0.692,0.6145 -0.692,1.127 v 3.1687 h 0.449 V 44.734 c 0,-0.5383 0.034,-1.25 0.756,-1.25 0.674,0 1.08,0.8301 1.233,1.3875 0.08,0.2976 0.126,0.6101 0.126,0.925 v 1.6402 h 0.449 v -4.2859 h -0.449" /><path
       inkscape:connector-curvature="0"
       id="path80"
       style="fill:#1b377c;fill-opacity:1;fill-rule:nonzero;stroke:none;stroke-width:0.1"
       d="m 150.571,44.8805 v -1.7297 h -0.451 v 4.2859 h 0.451 v -0.8726 h 0.017 c 0.225,0.6382 0.676,0.9722 1.36,0.9722 v -0.4871 c -1.125,0 -1.377,-1.2765 -1.377,-2.1687" /><path
       inkscape:connector-curvature="0"
       id="path82"
       style="fill:#1b377c;fill-opacity:1;fill-rule:nonzero;stroke:none;stroke-width:0.1"
       d="m 153.658,43.0512 c -0.341,0 -0.8,0.073 -1.124,0.1797 v 0.4597 c 0.341,-0.1172 0.765,-0.2066 1.124,-0.2066 0.532,0 1.1,0.1883 1.1,0.8101 0,1.045 -2.199,0.8555 -2.199,2.1075 0,0.8468 0.657,1.1347 1.416,1.1347 0.358,0 0.7,-0.0633 1.043,-0.1441 v -0.468 c -0.324,0.1067 -0.666,0.1809 -1.009,0.1809 -0.379,0 -0.909,-0.1449 -0.909,-0.6137 0,-0.45 0.486,-0.6055 0.819,-0.7652 l 0.369,-0.1797 c 0.558,-0.2707 1.009,-0.4785 1.009,-1.1953 0,-0.9848 -0.767,-1.3 -1.639,-1.3" /><path
       inkscape:connector-curvature="0"
       id="path84"
       style="fill:#1b377c;fill-opacity:1;fill-rule:nonzero;stroke:none;stroke-width:0.1"
       d="m 156.044,45.0863 h 2.478 v 0.5039 h -2.478 v -0.5039" /><path
       inkscape:connector-curvature="0"
       id="path86"
       style="fill:#1b377c;fill-opacity:1;fill-rule:nonzero;stroke:none;stroke-width:0.1"
       d="m 162.958,47.6715 c 0,0.7832 -0.475,1.2769 -1.27,1.2769 -1.35,0 -1.602,-1.5195 -1.602,-2.575 0,-1.1433 0.279,-2.8078 1.747,-2.8078 0.593,0 1.033,0.1352 1.505,0.4961 v -0.6316 c -0.541,-0.261 -0.929,-0.3789 -1.542,-0.3789 -1.874,0 -2.305,1.8445 -2.305,3.3679 0,1.4954 0.497,3.045 2.259,3.045 0.489,0 0.983,-0.1715 1.333,-0.5157 0.371,-0.3496 0.49,-0.782 0.49,-1.2769 h -0.615" /><path
       inkscape:connector-curvature="0"
       id="path88"
       style="fill:#1b377c;fill-opacity:1;fill-rule:nonzero;stroke:none;stroke-width:0.1"
       d="m 165.86,47.1051 c -1.021,0 -1.201,-1.0735 -1.201,-1.875 0,-0.8285 0.18,-1.7461 1.201,-1.7461 1.006,0 1.232,0.9117 1.232,1.7461 0,0.8113 -0.218,1.875 -1.232,1.875 m 0.024,-4.0539 c -1.288,0 -1.764,1.0984 -1.764,2.2351 0,1.1328 0.467,2.25 1.764,2.25 1.295,0 1.746,-1.125 1.746,-2.25 0,-1.1265 -0.451,-2.2351 -1.746,-2.2351" /><path
       inkscape:connector-curvature="0"
       id="path90"
       style="fill:#1b377c;fill-opacity:1;fill-rule:nonzero;stroke:none;stroke-width:0.1"
       d="m 171.339,43.1508 v 2.7012 c 0,0.541 -0.034,1.2531 -0.756,1.2531 -0.675,0 -1.08,-0.8305 -1.223,-1.3879 -0.08,-0.2957 -0.126,-0.6121 -0.126,-0.9277 v -1.6387 h -0.451 v 4.2859 h 0.451 v -1.0535 h 0.016 c 0.237,0.7219 0.603,1.1531 1.423,1.1531 0.145,0 0.297,-0.0359 0.435,-0.0918 0.483,-0.1961 0.681,-0.6211 0.681,-1.125 v -3.1687 h -0.45" /><path
       inkscape:connector-curvature="0"
       id="path92"
       style="fill:#1b377c;fill-opacity:1;fill-rule:nonzero;stroke:none;stroke-width:0.1"
       d="m 173.993,43.0512 c -0.338,0 -0.797,0.073 -1.124,0.1797 v 0.4597 c 0.344,-0.1172 0.766,-0.2066 1.124,-0.2066 0.534,0 1.1,0.1883 1.1,0.8101 0,1.045 -2.197,0.8555 -2.197,2.1075 0,0.8468 0.659,1.1347 1.415,1.1347 0.361,0 0.701,-0.0633 1.043,-0.1441 v -0.468 c -0.323,0.1067 -0.666,0.1809 -1.008,0.1809 -0.38,0 -0.909,-0.1449 -0.909,-0.6137 0,-0.45 0.486,-0.6055 0.821,-0.7652 l 0.365,-0.1797 c 0.56,-0.2707 1.01,-0.4785 1.01,-1.1953 0,-0.9848 -0.767,-1.3 -1.64,-1.3" /><path
       inkscape:connector-curvature="0"
       id="path94"
       style="fill:#1b377c;fill-opacity:1;fill-rule:nonzero;stroke:none;stroke-width:0.1"
       d="m 177.884,47.1051 c -0.594,0 -0.909,-0.352 -1.018,-0.9004 h 1.918 c 0,0.5113 -0.387,0.9004 -0.9,0.9004 m -1.071,-1.3324 c -0.009,-0.1446 -0.009,-0.2977 -0.009,-0.443 0,-1.0617 0.477,-1.8457 1.647,-1.8457 0.246,0 0.549,0.0457 0.786,0.1172 v -0.4399 c -0.307,-0.0722 -0.623,-0.1101 -0.939,-0.1101 -1.448,0 -2.035,1.0285 -2.035,2.3613 0,1.0984 0.361,2.1238 1.63,2.1238 0.92,0 1.431,-0.6558 1.431,-1.541 v -0.2226 h -2.511" /><path
       inkscape:connector-curvature="0"
       id="path96"
       style="fill:#1b377c;fill-opacity:1;fill-rule:nonzero;stroke:none;stroke-width:0.1"
       d="m 180.467,47.4367 h 0.45 v -4.2859 h -0.45 z m -0.105,1.9262 h 0.664 v -0.727 h -0.664 v 0.727" /><path
       inkscape:connector-curvature="0"
       id="path98"
       style="fill:#1b377c;fill-opacity:1;fill-rule:nonzero;stroke:none;stroke-width:0.1"
       d="m 182.474,43.1508 h 0.451 v 6.2129 h -0.451 v -6.2129" /><path
       inkscape:connector-curvature="0"
       id="path100"
       style="fill:#1b377c;fill-opacity:1;fill-rule:nonzero;stroke:none;stroke-width:0.1"
       d="m 185.157,43.0512 c -0.34,0 -0.8,0.073 -1.125,0.1797 v 0.4597 c 0.341,-0.1172 0.764,-0.2066 1.125,-0.2066 0.531,0 1.098,0.1883 1.098,0.8101 0,1.045 -2.197,0.8555 -2.197,2.1075 0,0.8468 0.658,1.1347 1.415,1.1347 0.36,0 0.702,-0.0633 1.043,-0.1441 v -0.468 c -0.323,0.1067 -0.666,0.1809 -1.008,0.1809 -0.379,0 -0.908,-0.1449 -0.908,-0.6137 0,-0.45 0.483,-0.6055 0.819,-0.7652 l 0.367,-0.1797 c 0.56,-0.2707 1.011,-0.4785 1.011,-1.1953 0,-0.9848 -0.767,-1.3 -1.64,-1.3" /><path
       inkscape:connector-curvature="0"
       id="path102"
       style="fill:#1b377c;fill-opacity:1;fill-rule:nonzero;stroke:none;stroke-width:0.1"
       d="m 190.908,43.0512 c -0.45,0 -0.864,0.0644 -1.304,0.1543 v 0.55 c 0.469,-0.145 0.955,-0.1899 1.441,-0.1899 0.675,0 1.449,0.3684 1.449,1.1446 0,0.7367 -0.548,0.9882 -1.107,1.2953 l -0.514,0.2781 c -0.682,0.3699 -1.332,0.7019 -1.332,1.5969 0,0.1863 0.044,0.3828 0.108,0.5562 0.298,0.7641 1.007,1.0274 1.782,1.0274 0.407,0 0.839,-0.0555 1.233,-0.1551 v -0.5664 c -0.378,0.1355 -0.826,0.2058 -1.233,0.2058 -0.666,0 -1.352,-0.2515 -1.352,-1.0269 0,-0.602 0.642,-0.9067 1.1,-1.1508 l 0.532,-0.2793 c 0.738,-0.3863 1.323,-0.7652 1.323,-1.7019 0,-1.2688 -1.001,-1.7383 -2.126,-1.7383" /><path
       inkscape:connector-curvature="0"
       id="path104"
       style="fill:#1b377c;fill-opacity:1;fill-rule:nonzero;stroke:none;stroke-width:0.1"
       d="m 193.826,43.1508 h 0.747 v 0.748 h -0.747 v -0.748" /><path
       inkscape:connector-curvature="0"
       id="path106"
       style="fill:#1b377c;fill-opacity:1;fill-rule:nonzero;stroke:none;stroke-width:0.1"
       d="m 197.4,48.9223 h -0.017 l -0.945,-3.2688 h 2.008 z m 1.852,-5.7715 -0.654,2.009 h -2.322 l -0.633,-2.009 h -0.53 l 1.97,6.2121 h 0.697 l 2.005,-6.2121 h -0.533" /><path
       inkscape:connector-curvature="0"
       id="path108"
       style="fill:#1b377c;fill-opacity:1;fill-rule:nonzero;stroke:none;stroke-width:0.1"
       d="m 200.324,43.1508 h 0.748 v 0.748 h -0.748 v -0.748" /><path
       inkscape:connector-curvature="0"
       id="path110"
       style="fill:#1b377c;fill-opacity:1;fill-rule:nonzero;stroke:none;stroke-width:0.1"
       d="m 128.435,43.8117 c 0.579,0 1.051,0.7871 1.051,1.7563 0,0.6597 -0.373,1.6297 -1.051,1.6297 -0.662,0 -0.911,-0.8782 -0.911,-1.6614 0,-0.83 0.258,-1.7246 0.911,-1.7246 z m 1.505,-0.107 c 0,-1.2758 -0.504,-1.8774 -1.712,-1.8774 -0.372,0 -0.662,0.0411 -0.951,0.1489 v 0.5613 c 0.347,-0.173 0.645,-0.3215 1.067,-0.3215 1.083,0 1.142,0.9438 1.142,1.6469 v 0.5113 h -0.018 c -0.065,-0.2637 -0.379,-0.8828 -1.074,-0.8828 -0.953,0 -1.374,0.9414 -1.374,2.0512 0,1.0254 0.421,1.9773 1.382,1.9773 0.744,0 1.009,-0.6386 1.066,-0.8769 h 0.018 v 0.7871 h 0.454 v -3.7254" /></g></svg>