<svg xmlns="http://www.w3.org/2000/svg" xml:space="preserve" width="184.672" height="114.641" viewBox="0 0 184.672 114.641"><path style="fill:#bec1c3;fill-opacity:1;fill-rule:nonzero;stroke:none;stroke-width:.1" d="M161.112 90.278c-5.435 0-9.844 4.403-9.844 9.842 0 5.434 4.409 9.838 9.844 9.838 5.424 0 9.84-4.404 9.84-9.838 0-5.44-4.416-9.842-9.84-9.842m-21.081 37.53-6.009-51.144 51.134-6.008 6.005 51.138-51.13 6.014" transform="matrix(1.33333 0 0 -1.33333 -121.967 170.41)"/><path style="fill:#1a3374;fill-opacity:1;fill-rule:nonzero;stroke:none;stroke-width:.1" d="m127.872 124.239 15.731-11.701c-3.471-2.909-5.537-6.864-5.37-11.174.326-8.612 9.434-15.397 20.353-15.14 5.45.132 10.329 1.99 13.796 4.901l15.73-11.7-1.742 46.191zm30.574-34.448c-8.42-.196-15.446 5.034-15.701 11.683-.25 6.647 6.375 12.199 14.791 12.397 8.423.191 15.45-5.035 15.705-11.682.249-6.65-6.377-12.198-14.795-12.398" transform="matrix(1.33333 0 0 -1.33333 -121.967 170.41)"/><path style="fill:#1b377c;fill-opacity:1;fill-rule:nonzero;stroke:none;stroke-width:.1" d="M95.002 53.523c-2.568 0-3.527 1.982-3.527 4.287 0 2.27.657 4.26 3.275 4.26 1.538 0 2.762-.633 2.762-2.314H95.95c0 .743-.42 1.319-1.2 1.319-1.633 0-1.728-2.077-1.728-3.265 0-1.344.228-3.29 1.98-3.29.336 0 .948.06 1.202.325v2.639h-1.561v.996h2.967v-4.2c-.662-.505-1.79-.757-2.608-.757M101.27 58.564c-1.07 0-1.104-1.27-1.104-2.05 0-.782.034-2.054 1.104-2.054 1.067 0 1.104 1.272 1.104 2.053 0 .781-.037 2.051-1.104 2.051m0-5.041c-1.815 0-2.522 1.334-2.522 2.99 0 1.659.707 2.99 2.522 2.99 1.812 0 2.52-1.331 2.52-2.99 0-1.656-.708-2.99-2.52-2.99M107.366 58.65c-.912 0-1.055-1.478-1.055-2.137 0-.793-.035-2.053 1.055-2.053.939 0 .998 1.381.998 2.053 0 .697 0 2.137-.998 2.137m0-5.127c-1.621 0-2.387.986-2.387 2.557v5.86h1.332v-3.253h.022c.324.527.855.816 1.48.816 1.643 0 1.968-1.668 1.968-2.99 0-1.62-.577-2.99-2.415-2.99M111.159 53.656h1.333v8.283h-1.333v-8.283M116.213 58.65c-.576 0-1.02-.409-1.08-.985h2.088c0 .612-.396.985-1.008.985m-1.117-1.79c0-1.212.853-2.4 2.149-2.4.363 0 .757.095 1.093.217v-.924a5.14 5.14 0 0 0-1.597-.23c-2.028 0-2.879 1.406-2.879 3.291 0 1.619.742 2.69 2.447 2.69 1.453 0 2.174-.924 2.174-2.317v-.327h-3.387M121.625 58.446v-2.7c0-.673.075-1.286.904-1.286.204 0 .407.05.612.095v-.935a6.74 6.74 0 0 0-1.095-.097c-1.163 0-1.751.386-1.751 1.574v3.349h-1.117v.924h1.117v1.357l1.33.804v-2.16h1.697v-.925h-1.697M127.832 53.656v8.283h1.406v-7.213h3.252v-1.07h-4.658M134.325 55.146c0-.456.267-.686.709-.686.888 0 1.191.984 1.191 1.717-.637 0-1.9-.168-1.9-1.031m1.9-1.49v.66h-.026c-.288-.588-.866-.793-1.488-.793-.912 0-1.68.528-1.68 1.502 0 1.716 1.895 1.895 3.194 1.933v.564c0 .565-.146 1.042-.805 1.042-.578 0-.878-.309-.878-.874h-1.297c0 1.308.986 1.813 2.175 1.813 1.213 0 2.075-.457 2.075-1.777v-4.07h-1.27M141.575 53.656h-1.295l-2.03 5.714h1.393l1.274-3.914h.025l1.283 3.914h1.391l-2.041-5.714M145.429 55.146c0-.456.265-.686.707-.686.89 0 1.189.984 1.189 1.717-.635 0-1.896-.168-1.896-1.031m1.896-1.49v.66h-.022c-.29-.588-.865-.793-1.49-.793-.913 0-1.68.528-1.68 1.502 0 1.716 1.897 1.895 3.192 1.933v.564c0 .565-.144 1.042-.803 1.042-.575 0-.875-.309-.875-.874h-1.298c0 1.308.984 1.813 2.173 1.813 1.213 0 2.078-.457 2.078-1.777v-4.07h-1.275M153.458 53.656v3.264c0 .277.026 1.009-.202 1.226-.099.095-.252.11-.386.11-.959 0-1.344-1.36-1.344-2.125v-2.475h-1.33v5.714h1.33V58.3h.024c.299.734.875 1.203 1.691 1.203 1.095 0 1.55-.901 1.55-1.887v-3.96h-1.333M158.479 58.47c-.963 0-.987-1.26-.987-1.957 0-.66.061-1.958.987-1.958.85 0 1.008 1.335 1.008 1.958 0 .66-.084 1.957-1.008 1.957m1.008-4.814v.792h-.024c-.205-.504-.9-.925-1.43-.925-1.668 0-1.958 1.67-1.958 2.99 0 1.26.373 2.99 1.958 2.99.613 0 1.13-.289 1.43-.816h.024v3.252h1.332v-8.283h-1.332M162.487 59.37h1.334v-5.714h-1.334zm0 2.57h1.334v-1.32h-1.334v1.32M167.54 58.65c-.577 0-1.02-.409-1.082-.985h2.09c0 .612-.394.985-1.008.985m-1.117-1.79c0-1.212.853-2.4 2.15-2.4.361 0 .753.095 1.091.217v-.924a5.127 5.127 0 0 0-1.595-.23c-2.031 0-2.881 1.406-2.881 3.291 0 1.619.742 2.69 2.449 2.69 1.45 0 2.171-.924 2.171-2.317v-.327h-3.385M172.402 56.164v-2.508h-1.333v5.714h1.333v-1.056h.023c.443.792.888 1.19 1.85 1.19V58.11c-1.369 0-1.873-.6-1.873-1.946M181.572 59.15l.101.076c.175.132.318.25.433.347.114.098.197.182.246.248.106.134.16.295.16.49a.692.692 0 0 1-.222.531c-.143.137-.34.204-.587.204a.804.804 0 0 1-.563-.209.65.65 0 0 1-.232-.511c0-.243.097-.483.29-.72l.309-.376a.88.88 0 0 1 .065-.08m-.271-1.591-.068-.047c-.514-.355-.864-.64-1.049-.855-.185-.215-.276-.443-.276-.682 0-.343.141-.66.415-.944.287-.276.602-.415.944-.415.485 0 1.042.32 1.673.95zm.993.712 1.493-1.805.048.054a14.337 14.337 0 0 1 .868 1.026l.818-.838c-.1-.144-.231-.31-.392-.5-.165-.19-.358-.408-.585-.657l1.536-1.895h-1.556l-.828 1.014c-.758-.786-1.549-1.179-2.37-1.179-.733 0-1.356.237-1.868.703a2.324 2.324 0 0 0-.752 1.754c0 .827.4 1.516 1.2 2.065l.542.37c.005.001.019.013.037.027.016.014.045.033.074.06-.547.583-.82 1.158-.82 1.723 0 .563.18 1.015.545 1.367.373.351.852.525 1.439.525.567 0 1.038-.17 1.41-.51.369-.341.558-.77.558-1.289 0-.359-.103-.682-.306-.972-.201-.292-.563-.638-1.091-1.043M193.322 60.606h-.026l-1.14-3.636h2.304zm2.195-6.95-.719 2.245h-2.976l-.722-2.245h-1.464l2.833 8.283h1.692l2.823-8.283h-1.467M198.941 53.523c-.518 0-1.022.074-1.516.23v1.152c.457-.204.949-.35 1.453-.35.336 0 .986.061.986.518 0 .672-2.46 1.237-2.46 2.748 0 1.188.982 1.682 2.05 1.682.447 0 .867-.097 1.296-.217v-1.13c-.394.205-.814.387-1.271.387-.299 0-.888-.147-.888-.53 0-.756 2.509-1.14 2.509-2.772 0-1.274-1.046-1.718-2.159-1.718M203.381 53.523c-.516 0-1.019.074-1.515.23v1.152c.458-.204.951-.35 1.456-.35.334 0 .983.061.983.518 0 .672-2.461 1.237-2.461 2.748 0 1.188.983 1.682 2.053 1.682.445 0 .865-.097 1.296-.217v-1.13c-.396.205-.818.387-1.271.387-.303 0-.89-.147-.89-.53 0-.756 2.508-1.14 2.508-2.772 0-1.274-1.045-1.718-2.159-1.718M208.853 58.564c-1.068 0-1.104-1.27-1.104-2.05 0-.782.036-2.054 1.104-2.054 1.07 0 1.105 1.272 1.105 2.053 0 .781-.035 2.051-1.105 2.051m0-5.041c-1.813 0-2.52 1.334-2.52 2.99 0 1.659.707 2.99 2.52 2.99 1.812 0 2.52-1.331 2.52-2.99 0-1.656-.708-2.99-2.52-2.99" transform="matrix(1.33333 0 0 -1.33333 -121.967 170.41)"/><path style="fill:#1a3374;fill-opacity:1;fill-rule:nonzero;stroke:none;stroke-width:.1" d="M215.683 57.414c0 .59-.168 1.15-.861 1.15-.843 0-1.093-.874-1.093-1.559 0-1.44.84-2.545 2.351-2.545.326 0 .649.036.96.146v-.817a5.615 5.615 0 0 0-1.669-.266c-2.04 0-3.058 1.25-3.058 3.242 0 1.657.899 2.738 2.617 2.738 1.392 0 2.172-.685 2.172-2.09h-1.419" transform="matrix(1.33333 0 0 -1.33333 -121.967 170.41)"/><path style="fill:#1b377c;fill-opacity:1;fill-rule:nonzero;stroke:none;stroke-width:.1" d="M218.073 59.37h1.333v-5.714h-1.333zm0 2.57h1.333v-1.32h-1.333v1.32M223.69 60.366h-.996l.55 2.004h1.444zm-.566-1.716c-.573 0-1.018-.409-1.08-.985h2.088c0 .612-.393.985-1.008.985m-1.117-1.79c0-1.212.856-2.4 2.151-2.4.36 0 .754.095 1.091.217v-.924a5.117 5.117 0 0 0-1.594-.23c-2.031 0-2.884 1.406-2.884 3.291 0 1.619.744 2.69 2.449 2.69 1.456 0 2.175-.924 2.175-2.317v-.327h-3.388M227.82 53.523c-.517 0-1.021.074-1.513.23v1.152c.455-.204.946-.35 1.45-.35.339 0 .984.061.984.518 0 .672-2.459 1.237-2.459 2.748 0 1.188.984 1.682 2.051 1.682.447 0 .866-.097 1.3-.217v-1.13c-.397.205-.817.387-1.273.387-.301 0-.889-.147-.889-.53 0-.756 2.508-1.14 2.508-2.772 0-1.274-1.043-1.718-2.159-1.718M120.502 43.15h.542v6.214h-.542V43.15M125.167 43.15v2.702c0 .541-.037 1.253-.756 1.253-.674 0-1.082-.83-1.223-1.388a3.498 3.498 0 0 1-.128-.928v-1.638h-.448v4.286h.448v-1.054h.019c.234.722.603 1.153 1.421 1.153.145 0 .299-.036.433-.092.486-.196.683-.62.683-1.125v-3.168h-.449M132.946 48.185h-.488l.371 1.071h.664zm-.236-1.08c-.594 0-.907-.352-1.017-.9h1.92c0 .511-.388.9-.903.9m-1.07-1.332c-.011-.145-.011-.298-.011-.443 0-1.062.481-1.846 1.651-1.846.242 0 .547.046.783.117v-.44a4.113 4.113 0 0 0-.938-.11c-1.449 0-2.036 1.029-2.036 2.361 0 1.099.361 2.124 1.631 2.124.917 0 1.432-.656 1.432-1.54v-.223h-2.512M137.833 43.15v2.702c0 .541-.037 1.253-.756 1.253-.675 0-1.082-.83-1.223-1.388a3.498 3.498 0 0 1-.128-.928v-1.638h-.45v4.286h.45v-1.054h.017c.236.722.605 1.153 1.424 1.153.143 0 .295-.036.432-.092.484-.196.685-.62.685-1.125v-3.168h-.451M139.793 47.437h.452V43.15h-.452zm-.105 1.926h.666v-.727h-.666v.727M143.045 47.105c-.596 0-.908-.352-1.016-.9h1.917c0 .511-.387.9-.901.9m-1.07-1.332c-.013-.145-.013-.298-.013-.443 0-1.062.48-1.846 1.651-1.846.243 0 .548.046.783.117v-.44a4.094 4.094 0 0 0-.938-.11c-1.45 0-2.034 1.029-2.034 2.361 0 1.099.359 2.124 1.631 2.124.915 0 1.432-.656 1.432-1.54v-.223h-2.512M148.176 43.15v1.055h-.017c-.237-.721-.613-1.154-1.432-1.154-.144 0-.297.038-.423.09-.485.2-.692.614-.692 1.127v3.169h.449v-2.703c0-.538.034-1.25.756-1.25.674 0 1.08.83 1.233 1.387.08.298.126.61.126.926v1.64h.449V43.15h-.449M150.571 44.88v-1.73h-.451v4.287h.451v-.873h.017c.225.638.676.972 1.36.972v-.487c-1.125 0-1.377-1.276-1.377-2.169M153.658 43.051c-.341 0-.8.073-1.124.18v.46a3.695 3.695 0 0 1 1.124-.207c.532 0 1.1.188 1.1.81 0 1.045-2.199.856-2.199 2.108 0 .846.657 1.134 1.416 1.134.358 0 .7-.063 1.043-.144v-.468c-.324.107-.666.181-1.009.181-.379 0-.909-.145-.909-.614 0-.45.486-.605.819-.765l.369-.18c.558-.27 1.009-.478 1.009-1.195 0-.985-.767-1.3-1.639-1.3M156.044 45.086h2.478v.504h-2.478v-.504M162.958 47.672c0 .783-.475 1.276-1.27 1.276-1.35 0-1.602-1.52-1.602-2.575 0-1.143.279-2.807 1.747-2.807.593 0 1.033.135 1.505.496v-.632c-.541-.26-.929-.379-1.542-.379-1.874 0-2.305 1.845-2.305 3.368 0 1.495.497 3.045 2.259 3.045.489 0 .983-.171 1.333-.516.371-.35.49-.782.49-1.277h-.615M165.86 47.105c-1.021 0-1.201-1.073-1.201-1.875 0-.828.18-1.746 1.201-1.746 1.006 0 1.232.912 1.232 1.746 0 .811-.218 1.875-1.232 1.875m.024-4.054c-1.288 0-1.764 1.099-1.764 2.235 0 1.133.467 2.25 1.764 2.25 1.295 0 1.746-1.125 1.746-2.25 0-1.126-.451-2.235-1.746-2.235M171.339 43.15v2.702c0 .541-.034 1.253-.756 1.253-.675 0-1.08-.83-1.223-1.388a3.58 3.58 0 0 1-.126-.928v-1.638h-.451v4.286h.451v-1.054h.016c.237.722.603 1.153 1.423 1.153.145 0 .297-.036.435-.092.483-.196.681-.62.681-1.125v-3.168h-.45M173.993 43.051c-.338 0-.797.073-1.124.18v.46a3.718 3.718 0 0 1 1.124-.207c.534 0 1.1.188 1.1.81 0 1.045-2.197.856-2.197 2.108 0 .846.659 1.134 1.415 1.134.361 0 .701-.063 1.043-.144v-.468c-.323.107-.666.181-1.008.181-.38 0-.909-.145-.909-.614 0-.45.486-.605.821-.765l.365-.18c.56-.27 1.01-.478 1.01-1.195 0-.985-.767-1.3-1.64-1.3M177.884 47.105c-.594 0-.909-.352-1.018-.9h1.918c0 .511-.387.9-.9.9m-1.071-1.332c-.009-.145-.009-.298-.009-.443 0-1.062.477-1.846 1.647-1.846.246 0 .549.046.786.117v-.44a4.109 4.109 0 0 0-.939-.11c-1.448 0-2.035 1.029-2.035 2.361 0 1.099.361 2.124 1.63 2.124.92 0 1.431-.656 1.431-1.54v-.223h-2.511M180.467 47.437h.45V43.15h-.45zm-.105 1.926h.664v-.727h-.664v.727M182.474 43.15h.451v6.214h-.451V43.15M185.157 43.051c-.34 0-.8.073-1.125.18v.46a3.69 3.69 0 0 1 1.125-.207c.531 0 1.098.188 1.098.81 0 1.045-2.197.856-2.197 2.108 0 .846.658 1.134 1.415 1.134.36 0 .702-.063 1.043-.144v-.468c-.323.107-.666.181-1.008.181-.379 0-.908-.145-.908-.614 0-.45.483-.605.819-.765l.367-.18c.56-.27 1.011-.478 1.011-1.195 0-.985-.767-1.3-1.64-1.3M190.908 43.051c-.45 0-.864.065-1.304.154v.55c.469-.145.955-.19 1.441-.19.675 0 1.449.369 1.449 1.145 0 .737-.548.988-1.107 1.295l-.514.279c-.682.37-1.332.701-1.332 1.596 0 .187.044.383.108.557.298.764 1.007 1.027 1.782 1.027.407 0 .839-.055 1.233-.155v-.566a3.789 3.789 0 0 1-1.233.205c-.666 0-1.352-.251-1.352-1.027 0-.602.642-.906 1.1-1.15l.532-.28c.738-.386 1.323-.765 1.323-1.702 0-1.268-1.001-1.738-2.126-1.738M193.826 43.15h.747v.749h-.747v-.748M197.4 48.922h-.017l-.945-3.268h2.008zm1.852-5.771-.654 2.009h-2.322l-.633-2.01h-.53l1.97 6.213h.697l2.005-6.212h-.533M200.324 43.15h.748v.749h-.748v-.748M128.435 43.812c.579 0 1.051.787 1.051 1.756 0 .66-.373 1.63-1.051 1.63-.662 0-.911-.878-.911-1.662 0-.83.258-1.724.911-1.724zm1.505-.107c0-1.276-.504-1.878-1.712-1.878-.372 0-.662.041-.951.15v.56c.347-.172.645-.321 1.067-.321 1.083 0 1.142.944 1.142 1.647v.511h-.018c-.065-.264-.379-.883-1.074-.883-.953 0-1.374.942-1.374 2.052 0 1.025.421 1.977 1.382 1.977.744 0 1.009-.639 1.066-.877h.018v.787h.454v-3.725" transform="matrix(1.33333 0 0 -1.33333 -121.967 170.41)"/></svg>