<?xml version="1.0" encoding="UTF-8" standalone="no"?><!DOCTYPE svg PUBLIC "-//W3C//DTD SVG 1.1//EN" "http://www.w3.org/Graphics/SVG/1.1/DTD/svg11.dtd"><svg width="100%" height="100%" viewBox="0 0 147 30" version="1.1" xmlns="http://www.w3.org/2000/svg" xmlns:xlink="http://www.w3.org/1999/xlink" xml:space="preserve" xmlns:serif="http://www.serif.com/" style="fill-rule:evenodd;clip-rule:evenodd;stroke-linejoin:round;stroke-miterlimit:2;"><g id="goodyear"><rect x="0.115" y="0.005" width="146.469" height="28.858" style="fill:#004999;"/><path d="M17.514,8.33c-3.249,-0.962 -6.96,-0.154 -9.267,2.154c-1.981,1.96 -2.75,4.979 -2.039,7.768c0.346,1.287 1.866,2.652 3.596,2.634l8.748,0.018l0.193,-0.095l1.71,-6.653c-1.768,-0.02 -3.691,0.038 -5.614,0.02c0,0 -1.403,4.959 -1.423,5.075c-0.576,0.096 -1.23,0.211 -1.768,0c-0.347,-0.135 -0.481,-0.5 -0.385,-0.885l1.981,-7.537c0.058,-0.25 0.423,-0.672 0.768,-0.826c0.904,-0.385 2.058,-0.231 2.827,0.192c0,0 0.5,0.308 0.904,0.538c0.288,-0.557 0.634,-1.153 0.884,-1.787c-0.385,-0.328 -0.731,-0.385 -1.115,-0.616" style="fill:#ffdf00;fill-rule:nonzero;"/><path d="M84.289,8.177l0.039,0.154l2.076,6.979l-1.461,5.633c2.057,-0.019 3.98,-0.019 6.114,0.02l1.538,-5.595l5.94,-7.153l-0.038,-0.077c-0.981,0.02 -1.826,0.02 -2.787,0c-1.192,1.404 -2.48,2.942 -3.769,4.384c-0.211,0.173 -0.211,0.192 -0.287,-0.154c-0.443,-1.384 -0.828,-2.826 -1.309,-4.23l-6.056,0.039Z" style="fill:#ffdf00;fill-rule:nonzero;"/><path d="M99.824,8.157c-1.114,4.23 -2.134,8.364 -3.287,12.574l-0.058,0.192l10.536,0c0.191,-0.672 0.423,-1.384 0.481,-2.075l-4.326,-0.02l-0.269,-0.02l0.749,-2.999l0.25,-0.192l2.884,0l0.135,-0.135c0.153,-0.673 0.385,-1.404 0.481,-2.076l-3.019,-0.058l0,-0.135c0.289,-0.922 0.461,-1.98 0.788,-2.844c1.538,-0.097 3.288,0.057 4.692,-0.04c0.192,-0.672 0.365,-1.442 0.499,-2.172l-10.536,0Z" style="fill:#ffdf00;fill-rule:nonzero;"/><path d="M72.964,10.004l3.692,-2.173l0.057,-0.135c-0.385,-0.865 -0.095,-1.826 0.097,-2.691c-1.866,0.942 -3.519,1.999 -5.135,2.885l-0.038,0.134l1.154,1.922l0.173,0.058Zm3.98,0.327c0.039,-0.519 0.135,-1.193 0.25,-1.731c-0.961,0.443 -1.884,1.058 -2.806,1.635c0.864,0.057 1.691,0.192 2.556,0.096m-0.672,0.961l-2.866,-0.326c0.039,0.615 -0.057,1.287 -0.153,1.922c0.98,-0.404 1.979,-1.02 3.019,-1.596m-0.156,7.364c1.635,-1.538 3.559,-2.788 5.347,-3.942l-1.059,-1.826c-0.48,0.442 -0.922,1.307 -1.595,1.538c-0.769,-0.73 -1.288,-1.538 -1.577,-2.5c-1.25,0.616 -2.498,1.192 -3.633,1.923c0.692,1.634 1.596,3.21 2.365,4.807l0.152,0Zm-0.768,0.653c-0.731,-1.615 -1.614,-3.153 -2.384,-4.749l-0.193,-0.134c-1.096,2 -1.922,4.172 -2.595,6.364c-0.538,1.154 -1.538,2.057 -2.365,3.018c-0.25,0.288 -0.48,0.673 -0.346,1.154c0.058,0.134 0.154,0.325 0.346,0.288c3.076,-0.903 5.288,-3.653 7.537,-5.941m4.037,-2.287c-3.615,2.326 -5.959,6.305 -9.805,8.286c-0.519,0.229 -1.096,0.422 -1.538,0.75c0.154,0.21 0.154,0.537 0.442,0.498c1.539,-0.634 2.98,-1.499 4.269,-2.594c2.922,-2.788 5.999,-6.075 9.517,-8.037c-0.096,-0.191 -0.25,-0.384 -0.384,-0.538l-2.501,1.635Zm5.5,-14.497c-0.981,0 -2.057,-0.058 -3.076,0.019c-0.962,0.077 -1.865,0.288 -2.615,0.75c-0.559,0.327 -1.039,0.807 -1.385,1.48c-0.212,0.461 -0.327,0.98 -0.327,1.519l0,0.096c0.02,0.75 0.251,1.519 0.712,2.077c-0.193,1.153 -0.346,2.595 0.231,3.653c0.154,0.288 0.384,0.711 0.73,0.769c0,-0.019 0.018,-0.019 0.039,-0.039c0.461,-0.577 0.826,-1.268 1.018,-2.019c0.232,-1.057 0.616,0.327 1.096,0.231c0.193,-0.481 0.442,-0.961 0.385,-1.538c0.039,-0.096 0.077,-0.135 0.116,-0.153c0.173,-0.097 0.442,0.383 0.711,0.442c0.288,-0.289 0.423,-0.769 0.52,-1.154c0.191,-0.481 -0.136,-1 0.153,-1.385c0.634,0.231 1.442,0.443 2.173,0.154c0.288,-0.096 0.922,-0.269 0.769,-0.48c-0.347,-0.058 -0.635,-0.193 -0.769,-0.442c0.904,0.057 1.826,-0.039 2.402,-0.712c-0.48,-0.154 -1.056,-0.25 -1.249,-0.673c0.038,-0.097 0.096,-0.097 0.135,-0.154c2.594,0.289 5.729,0.692 7.941,-0.615c0.671,-0.481 1.287,-1.25 1.287,-2.115c-3.402,0.769 -7.402,0.615 -10.997,0.289m-5.019,5.748c-0.268,0.058 -0.557,-0.135 -0.654,-0.423c0,-0.077 -0.018,-0.134 -0.018,-0.172c-0.135,-0.405 -0.885,-0.385 -0.654,-0.885c0.229,0.019 0.423,0.096 0.654,0.134c0.135,0.039 0.269,0.059 0.442,0.059c0.039,0.287 0.192,1.076 0.25,1.152l-0.02,0.135Zm4,-4.172c-0.231,0.192 -0.577,0.289 -0.904,0.289c-0.269,0.384 -0.654,0.711 -1.153,0.672c-0.059,0 -0.116,-0.019 -0.173,-0.039c-0.289,0.289 -0.694,0.52 -1.135,0.462c-0.327,-0.038 -0.712,-0.096 -0.865,-0.384c0.481,-0.039 1.116,-0.135 1.306,-0.711c0.174,-0.346 0.578,-0.077 0.867,-0.154c0.038,0 0.057,-0.02 0.096,-0.039c0.287,-0.153 0.423,-0.346 0.615,-0.538c0.442,0.058 0.865,0.192 1.346,0.115c0.192,0.038 0.057,0.231 0,0.327" style="fill:#ffdf00;fill-rule:nonzero;"/><path d="M140.026,10.234c-0.48,-1.019 -1.806,-2.077 -3.537,-2.077c-1.191,-0.019 -2.326,-0.019 -3.538,-0.019c-1.654,0 -3.423,0 -5.672,0.019c-1.058,4.096 -2.288,8.287 -3.384,12.786c1.712,0.039 3.442,-0.019 5.442,-0.019l0.384,0l0.961,-3.499l0.116,-0.288c0.192,0 0.557,-0.039 0.653,0.095l0.923,3.692l0.577,0c2.192,-0.077 3.654,0 5.403,0c-0.346,-1.538 -0.749,-2.961 -0.981,-4.537c0.769,-0.539 1.769,-1.308 2.249,-2.115c0.731,-1.154 1.078,-2.788 0.404,-4.038m-5.421,0.999l-0.827,3.173c-0.116,0.442 -0.461,0.731 -0.827,0.788l-0.154,0c0,0 -1.096,0.02 -1.518,0.02l0.018,-0.097c-0.037,0.154 1.251,-5.21 1.251,-5.21c0.134,0 0.269,0 0.403,-0.019c0.615,-0.038 1.308,-0.115 1.597,0.384c0.172,0.423 0.057,0.961 0.057,0.961" style="fill:#ffdf00;fill-rule:nonzero;"/><path d="M121.3,8.484l-0.058,-0.327c-1.789,-0.019 -3.518,0 -5.249,0c-0.441,0.712 -0.865,1.423 -1.307,2.135c-2.172,3.518 -4.364,7.094 -6.518,10.555l-0.058,0.096c0.847,-0.019 1.732,-0.019 2.48,-0.019c0.405,-0.577 0.712,-1.289 1.269,-1.942l2.827,0.019l1.845,0l0,0.116c0.04,0.73 0.059,1.191 0.116,1.826c1.922,0 3.673,-0.038 5.691,-0.019l-1.038,-12.44Zm-5.038,8.441l-3.211,0c0.461,-0.903 1.039,-1.846 1.635,-2.769c0.364,-0.558 0.71,-1.096 1.038,-1.615c0.231,0.097 0.097,0.404 0.25,0.558l0.346,3.749l-0.058,0.077Z" style="fill:#ffdf00;fill-rule:nonzero;"/><path d="M68.695,11.195c-0.404,-1.577 -1.942,-3.134 -3.903,-3.134l-3.211,0l-4.864,0l-3.306,12.882l8.17,-0.019l0.75,0c0.885,0 1.884,-0.481 2.692,-1.019c2.692,-1.789 4.441,-5.307 3.672,-8.71m-4.941,0.115l-1.865,7.037c-0.058,0.212 -0.173,0.385 -0.308,0.52c-0.191,0.154 -0.442,0.249 -0.692,0.249c0,0 -1.077,0.02 -1.518,0.02l0.037,-0.096c-0.037,0.134 1.712,-6.826 2.173,-8.634c0.058,-0.268 0.097,-0.422 0.097,-0.422c0.653,0 1.653,-0.25 2.019,0.365c0.153,0.423 0.057,0.961 0.057,0.961" style="fill:#ffdf00;fill-rule:nonzero;"/><path d="M52.315,10.523c-0.385,-0.616 -0.846,-1.25 -1.731,-1.789c-1.48,-0.865 -3.287,-1.115 -4.979,-0.922c-1.058,0.135 -2.057,0.442 -2.885,0.922c-2.749,1.578 -4.479,4.75 -4.191,7.96c0.135,1.981 1.673,3.634 3.461,4.173c1.192,0.327 2.422,0.422 3.615,0.288c1.903,-0.212 3.672,-1.057 4.979,-2.518c1.923,-2.115 3,-6.096 1.731,-8.114m-4.557,0.365l-1.942,7.691c-0.058,0.153 -0.135,0.288 -0.211,0.404c-0.289,0.384 -0.731,0.634 -1.211,0.634c-0.635,0 -1.058,-0.655 -0.943,-1.096l1.962,-7.691c0.038,-0.173 0.096,-0.326 0.192,-0.461c0.25,-0.385 0.692,-0.653 1.153,-0.653c0.635,0 1.077,0.576 1,1.172" style="fill:#ffdf00;fill-rule:nonzero;"/><path d="M36.145,10.523c-0.385,-0.616 -0.827,-1.25 -1.731,-1.789c-1.48,-0.865 -3.306,-1.115 -4.998,-0.903c-1.039,0.116 -2.038,0.423 -2.865,0.903c-2.403,1.385 -4.038,4 -4.211,6.806l0,0.924c0.02,0.076 0.02,0.154 0.02,0.23c0.153,1.981 1.672,3.634 3.46,4.173c1.192,0.327 2.423,0.422 3.596,0.288c1.903,-0.212 3.691,-1.057 4.998,-2.518c1.943,-2.115 3,-6.096 1.731,-8.114m-4.614,0.307l-1.961,7.691c-0.039,0.154 -0.097,0.289 -0.154,0.404c-0.25,0.442 -0.692,0.692 -1.192,0.692c-0.635,0 -1.058,-0.655 -0.924,-1.096l1.943,-7.691c0.038,-0.153 0.096,-0.307 0.173,-0.442c0.249,-0.404 0.711,-0.672 1.172,-0.672c0.635,0 1.096,0.576 0.943,1.114" style="fill:#ffdf00;fill-rule:nonzero;"/></g></svg>