<svg viewBox="0 0 147 30" xmlns="http://www.w3.org/2000/svg" xml:space="preserve" style="fill-rule:evenodd;clip-rule:evenodd;stroke-linejoin:round;stroke-miterlimit:2"><path style="fill:#004999" d="M.115.005h146.469v28.858H.115z"/><path d="M17.514 8.33c-3.249-.962-6.96-.154-9.267 2.154-1.981 1.96-2.75 4.979-2.039 7.768.346 1.287 1.866 2.652 3.596 2.634l8.748.018.193-.095 1.71-6.653c-1.768-.02-3.691.038-5.614.02 0 0-1.403 4.959-1.423 5.075-.576.096-1.23.211-1.768 0-.347-.135-.481-.5-.385-.885l1.981-7.537c.058-.25.423-.672.768-.826.904-.385 2.058-.231 2.827.192 0 0 .5.308.904.538.288-.557.634-1.153.884-1.787-.385-.328-.731-.385-1.115-.616M84.289 8.177l.039.154 2.076 6.979-1.461 5.633c2.057-.019 3.98-.019 6.114.02l1.538-5.595 5.94-7.153-.038-.077c-.981.02-1.826.02-2.787 0-1.192 1.404-2.48 2.942-3.769 4.384-.211.173-.211.192-.287-.154-.443-1.384-.828-2.826-1.309-4.23l-6.056.039ZM99.824 8.157c-1.114 4.23-2.134 8.364-3.287 12.574l-.058.192h10.536c.191-.672.423-1.384.481-2.075l-4.326-.02-.269-.02.749-2.999.25-.192h2.884l.135-.135c.153-.673.385-1.404.481-2.076l-3.019-.058v-.135c.289-.922.461-1.98.788-2.844 1.538-.097 3.288.057 4.692-.04.192-.672.365-1.442.499-2.172H99.824Z" style="fill:#ffdf00;fill-rule:nonzero"/><path d="m72.964 10.004 3.692-2.173.057-.135c-.385-.865-.095-1.826.097-2.691-1.866.942-3.519 1.999-5.135 2.885l-.038.134 1.154 1.922.173.058Zm3.98.327c.039-.519.135-1.193.25-1.731-.961.443-1.884 1.058-2.806 1.635.864.057 1.691.192 2.556.096m-.672.961-2.866-.326c.039.615-.057 1.287-.153 1.922.98-.404 1.979-1.02 3.019-1.596m-.156 7.364c1.635-1.538 3.559-2.788 5.347-3.942l-1.059-1.826c-.48.442-.922 1.307-1.595 1.538-.769-.73-1.288-1.538-1.577-2.5-1.25.616-2.498 1.192-3.633 1.923.692 1.634 1.596 3.21 2.365 4.807h.152Zm-.768.653c-.731-1.615-1.614-3.153-2.384-4.749l-.193-.134c-1.096 2-1.922 4.172-2.595 6.364-.538 1.154-1.538 2.057-2.365 3.018-.25.288-.48.673-.346 1.154.058.134.154.325.346.288 3.076-.903 5.288-3.653 7.537-5.941m4.037-2.287c-3.615 2.326-5.959 6.305-9.805 8.286-.519.229-1.096.422-1.538.75.154.21.154.537.442.498a15.978 15.978 0 0 0 4.269-2.594c2.922-2.788 5.999-6.075 9.517-8.037a2.788 2.788 0 0 0-.384-.538l-2.501 1.635Zm5.5-14.497c-.981 0-2.057-.058-3.076.019-.962.077-1.865.288-2.615.75a3.563 3.563 0 0 0-1.385 1.48 3.64 3.64 0 0 0-.327 1.519v.096c.02.75.251 1.519.712 2.077-.193 1.153-.346 2.595.231 3.653.154.288.384.711.73.769 0-.019.018-.019.039-.039a5.41 5.41 0 0 0 1.018-2.019c.232-1.057.616.327 1.096.231.193-.481.442-.961.385-1.538.039-.096.077-.135.116-.153.173-.097.442.383.711.442.288-.289.423-.769.52-1.154.191-.481-.136-1 .153-1.385.634.231 1.442.443 2.173.154.288-.096.922-.269.769-.48-.347-.058-.635-.193-.769-.442.904.057 1.826-.039 2.402-.712-.48-.154-1.056-.25-1.249-.673.038-.097.096-.097.135-.154 2.594.289 5.729.692 7.941-.615.671-.481 1.287-1.25 1.287-2.115-3.402.769-7.402.615-10.997.289m-5.019 5.748c-.268.058-.557-.135-.654-.423 0-.077-.018-.134-.018-.172-.135-.405-.885-.385-.654-.885.229.019.423.096.654.134.135.039.269.059.442.059.039.287.192 1.076.25 1.152l-.02.135Zm4-4.172c-.231.192-.577.289-.904.289-.269.384-.654.711-1.153.672a.53.53 0 0 1-.173-.039c-.289.289-.694.52-1.135.462-.327-.038-.712-.096-.865-.384.481-.039 1.116-.135 1.306-.711.174-.346.578-.077.867-.154.038 0 .057-.02.096-.039.287-.153.423-.346.615-.538.442.058.865.192 1.346.115.192.038.057.231 0 .327M140.026 10.234c-.48-1.019-1.806-2.077-3.537-2.077-1.191-.019-2.326-.019-3.538-.019-1.654 0-3.423 0-5.672.019-1.058 4.096-2.288 8.287-3.384 12.786 1.712.039 3.442-.019 5.442-.019h.384l.961-3.499.116-.288c.192 0 .557-.039.653.095l.923 3.692h.577c2.192-.077 3.654 0 5.403 0-.346-1.538-.749-2.961-.981-4.537.769-.539 1.769-1.308 2.249-2.115.731-1.154 1.078-2.788.404-4.038m-5.421.999-.827 3.173c-.116.442-.461.731-.827.788h-.154s-1.096.02-1.518.02l.018-.097 1.251-5.21c.134 0 .269 0 .403-.019.615-.038 1.308-.115 1.597.384.172.423.057.961.057.961M121.3 8.484l-.058-.327c-1.789-.019-3.518 0-5.249 0-.441.712-.865 1.423-1.307 2.135-2.172 3.518-4.364 7.094-6.518 10.555l-.058.096c.847-.019 1.732-.019 2.48-.019.405-.577.712-1.289 1.269-1.942l2.827.019h1.845v.116c.04.73.059 1.191.116 1.826 1.922 0 3.673-.038 5.691-.019L121.3 8.484Zm-5.038 8.441h-3.211c.461-.903 1.039-1.846 1.635-2.769.364-.558.71-1.096 1.038-1.615.231.097.097.404.25.558l.346 3.749-.058.077ZM68.695 11.195c-.404-1.577-1.942-3.134-3.903-3.134h-8.075l-3.306 12.882 8.17-.019h.75c.885 0 1.884-.481 2.692-1.019 2.692-1.789 4.441-5.307 3.672-8.71m-4.941.115-1.865 7.037a1.173 1.173 0 0 1-.308.52 1.124 1.124 0 0 1-.692.249s-1.077.02-1.518.02l.037-.096c-.037.134 1.712-6.826 2.173-8.634.058-.268.097-.422.097-.422.653 0 1.653-.25 2.019.365.153.423.057.961.057.961M52.315 10.523c-.385-.616-.846-1.25-1.731-1.789-1.48-.865-3.287-1.115-4.979-.922-1.058.135-2.057.442-2.885.922-2.749 1.578-4.479 4.75-4.191 7.96.135 1.981 1.673 3.634 3.461 4.173a9.623 9.623 0 0 0 3.615.288c1.903-.212 3.672-1.057 4.979-2.518 1.923-2.115 3-6.096 1.731-8.114m-4.557.365-1.942 7.691a2.096 2.096 0 0 1-.211.404c-.289.384-.731.634-1.211.634-.635 0-1.058-.655-.943-1.096l1.962-7.691c.038-.173.096-.326.192-.461.25-.385.692-.653 1.153-.653.635 0 1.077.576 1 1.172M36.145 10.523c-.385-.616-.827-1.25-1.731-1.789-1.48-.865-3.306-1.115-4.998-.903-1.039.116-2.038.423-2.865.903-2.403 1.385-4.038 4-4.211 6.806v.924c.02.076.02.154.02.23.153 1.981 1.672 3.634 3.46 4.173a9.556 9.556 0 0 0 3.596.288c1.903-.212 3.691-1.057 4.998-2.518 1.943-2.115 3-6.096 1.731-8.114m-4.614.307-1.961 7.691a2.03 2.03 0 0 1-.154.404c-.25.442-.692.692-1.192.692-.635 0-1.058-.655-.924-1.096l1.943-7.691a1.76 1.76 0 0 1 .173-.442 1.42 1.42 0 0 1 1.172-.672c.635 0 1.096.576.943 1.114" style="fill:#ffdf00;fill-rule:nonzero"/></svg>