<?xml version="1.0" encoding="UTF-8" standalone="no"?><!DOCTYPE svg PUBLIC "-//W3C//DTD SVG 1.1//EN" "http://www.w3.org/Graphics/SVG/1.1/DTD/svg11.dtd"><svg width="100%" height="100%" viewBox="0 0 460 144" version="1.1" xmlns="http://www.w3.org/2000/svg" xmlns:xlink="http://www.w3.org/1999/xlink" xml:space="preserve" xmlns:serif="http://www.serif.com/" style="fill-rule:evenodd;clip-rule:evenodd;stroke-linejoin:round;stroke-miterlimit:1.41421;"><g id="Calque-1" serif:id="Calque 1"><path d="M65.821,40.175c-11.599,5.117 -8.892,12.001 -14.295,20.202c-6.971,10.582 -23.727,9.7 -29.087,-2.451c-5.36,-12.152 5.284,-25.121 17.799,-23.136c9.699,1.538 12.959,8.178 24.558,3.062c11.599,-5.117 8.892,-12.001 14.295,-20.203c6.972,-10.581 23.727,-9.7 29.087,2.452c5.361,12.151 -5.283,25.121 -17.799,23.136c-9.699,-1.539 -12.959,-8.179 -24.558,-3.062" style="fill:#27bdb9;"/><path d="M62.056,50.49c0,13.427 -10.884,24.311 -24.311,24.311c-13.427,0 -24.311,-10.884 -24.311,-24.311c0,-13.427 10.884,-24.311 24.311,-24.311c13.427,0 24.311,10.884 24.311,24.311" style="fill:#075e81;"/><path d="M67.447,65.757c12.892,5.687 9.884,13.34 15.889,22.455c7.749,11.762 26.373,10.782 32.331,-2.725c5.959,-13.506 -5.873,-27.922 -19.784,-25.715c-10.781,1.709 -14.405,9.09 -27.297,3.402c-12.892,-5.687 -9.884,-13.339 -15.889,-22.455c-7.749,-11.761 -26.372,-10.781 -32.331,2.725c-5.959,13.507 5.873,27.922 19.784,25.716c10.781,-1.71 14.405,-9.09 27.297,-3.403" style="fill:#075e81;"/><path d="M124.834,50.239c0,-12.849 10.613,-23.078 23.59,-23.078c5.434,0 10.613,1.854 14.576,4.986c1.663,1.215 1.918,3.581 0.703,5.179c-1.214,1.534 -3.58,1.853 -5.177,0.575c-2.75,-2.109 -6.266,-3.452 -10.102,-3.452c-4.602,0 -8.63,1.726 -11.507,4.666c-3.004,2.878 -4.795,6.777 -4.795,11.124c0,4.219 1.791,8.12 4.795,10.997c2.877,2.94 6.905,4.666 11.507,4.666c3.197,0 6.201,-0.959 8.759,-2.43l0,-8.758l-9.142,0c-1.982,0 -3.644,-1.661 -3.644,-3.643c0,-2.046 1.662,-3.581 3.644,-3.581l12.721,0c2.046,0 3.709,1.535 3.709,3.581l0,14.128c0,0.447 -0.128,0.703 -0.192,1.087c-0.064,0.128 -0.064,0.192 -0.128,0.319l0,0.064c-0.192,0.576 -0.575,1.087 -1.215,1.535c-4.027,3.132 -9.078,4.986 -14.512,4.986c-12.977,0 -23.59,-10.165 -23.59,-22.951" style="fill:#075e81;fill-rule:nonzero;"/><path d="M179.176,57.272c0,2.749 0.831,4.986 2.302,6.776c1.598,1.534 3.707,2.366 6.137,2.366c2.237,0 4.282,-0.832 5.881,-2.366c1.598,-1.79 2.493,-4.027 2.493,-6.776c0,-2.622 -0.895,-4.923 -2.493,-6.649c-1.599,-1.407 -3.644,-2.43 -5.881,-2.43c-2.43,0 -4.539,1.023 -6.137,2.43c-1.471,1.726 -2.302,4.027 -2.302,6.649m-2.558,11.252c-2.748,-2.814 -4.41,-6.777 -4.41,-11.252c0,-4.347 1.662,-8.12 4.41,-11.188c2.877,-3.005 6.586,-4.859 10.997,-4.859c4.218,0 8.055,1.854 10.676,4.859c2.876,3.068 4.475,6.841 4.475,11.188c0,4.475 -1.599,8.438 -4.475,11.252c-2.621,3.004 -6.458,4.858 -10.676,4.858c-4.411,0 -8.12,-1.854 -10.997,-4.858" style="fill:#075e81;fill-rule:nonzero;"/><path d="M233.773,46.339l-10.485,24.805c-0.065,0.192 -0.192,0.384 -0.256,0.448c0,0.063 -0.064,0.063 -0.064,0.063c-0.128,0.128 -0.256,0.32 -0.384,0.448c0,0.064 -0.063,0.064 -0.063,0.064c-0.128,0.192 -0.256,0.256 -0.384,0.384c0,0 -0.063,0 -0.063,0.064c-0.128,0.127 -0.256,0.255 -0.449,0.319l-0.126,0l0,0.064c-0.193,0 -0.384,0.064 -0.512,0.128l-0.128,0c-0.256,0.064 -0.447,0.064 -0.64,0.064c-0.128,0 -0.319,0 -0.575,-0.064l-0.128,0c-0.191,-0.064 -0.319,-0.128 -0.512,-0.128l0,-0.064l-0.128,0c-0.191,-0.064 -0.319,-0.192 -0.575,-0.319c0,-0.064 -0.063,-0.064 -0.063,-0.064c-0.128,-0.128 -0.256,-0.192 -0.384,-0.384c-0.065,0 -0.065,0 -0.128,-0.064c-0.065,-0.128 -0.193,-0.32 -0.319,-0.448c-0.065,0 -0.065,0 -0.065,-0.063c-0.128,-0.064 -0.191,-0.256 -0.256,-0.448l-10.356,-24.805c-0.766,-1.726 0.064,-3.58 1.854,-4.347c1.535,-0.767 3.517,0.128 4.284,1.854l7.351,17.389l7.417,-17.389c0.703,-1.726 2.62,-2.621 4.282,-1.854c1.79,0.767 2.621,2.621 1.855,4.347" style="fill:#075e81;fill-rule:nonzero;"/><path d="M246.622,60.02c1.152,3.516 4.475,6.073 8.376,6.073c4.857,0 8.821,-3.963 8.821,-8.759l0,-25.379c0,-1.982 1.599,-3.516 3.579,-3.516c1.918,0 3.517,1.534 3.517,3.516l0,25.379c0,8.759 -7.159,15.855 -15.917,15.855c-7.033,0 -13.042,-4.602 -15.088,-10.995c-0.64,-1.918 0.447,-3.9 2.237,-4.412c1.917,-0.639 3.9,0.384 4.475,2.238" style="fill:#27bdb9;fill-rule:nonzero;"/><path d="M282.808,57.272c0,2.749 0.831,4.986 2.302,6.776c1.597,1.534 3.707,2.366 6.137,2.366c2.237,0 4.282,-0.832 5.881,-2.366c1.599,-1.79 2.493,-4.027 2.493,-6.776c0,-2.622 -0.894,-4.923 -2.493,-6.649c-1.599,-1.407 -3.644,-2.43 -5.881,-2.43c-2.43,0 -4.54,1.023 -6.137,2.43c-1.471,1.726 -2.302,4.027 -2.302,6.649m-2.558,11.252c-2.748,-2.814 -4.41,-6.777 -4.41,-11.252c0,-4.347 1.662,-8.12 4.41,-11.188c2.877,-3.005 6.585,-4.859 10.997,-4.859c4.219,0 8.055,1.854 10.676,4.859c2.876,3.068 4.475,6.841 4.475,11.188c0,4.475 -1.599,8.438 -4.475,11.252c-2.621,3.004 -6.457,4.858 -10.676,4.858c-4.412,0 -8.12,-1.854 -10.997,-4.858" style="fill:#27bdb9;fill-rule:nonzero;"/><path d="M321.039,57.272c0,2.429 0.959,4.73 2.556,6.328c1.599,1.663 3.644,2.622 6.011,2.622c2.3,0 4.41,-0.959 6.009,-2.622c1.597,-1.598 2.556,-3.899 2.556,-6.328c0,-2.558 -0.959,-4.859 -2.556,-6.457c-1.599,-1.663 -3.709,-2.622 -6.009,-2.622c-2.367,0 -4.412,0.959 -6.011,2.622c-1.597,1.598 -2.556,3.899 -2.556,6.457m-6.968,0l0,-0.064l0,-25.317c0,-1.853 1.534,-3.451 3.451,-3.451c1.981,0 3.517,1.598 3.517,3.451l0,12.02c2.365,-1.663 5.434,-2.686 8.567,-2.686c8.63,0 15.533,7.288 15.533,16.047c0,8.63 -6.903,15.918 -15.533,15.918c-3.198,0 -6.265,-1.087 -8.695,-2.749c-0.321,1.534 -1.662,2.749 -3.389,2.749c-1.917,0 -3.451,-1.598 -3.451,-3.452l0,-12.466Z" style="fill:#27bdb9;fill-rule:nonzero;"/><path d="M351.53,64.048c1.152,-1.535 3.389,-1.726 4.794,-0.512c1.664,1.407 4.541,2.878 7.033,2.814c1.727,0 3.324,-0.576 4.348,-1.215c0.894,-0.767 1.15,-1.407 1.15,-1.918c0,-0.32 -0.063,-0.448 -0.191,-0.64c-0.065,-0.191 -0.319,-0.447 -0.831,-0.767c-0.896,-0.639 -2.814,-1.342 -5.115,-1.79l-0.064,0c-1.982,-0.383 -3.9,-0.894 -5.562,-1.661c-1.726,-0.832 -3.26,-1.983 -4.41,-3.709c-0.703,-1.151 -1.087,-2.557 -1.087,-4.027c0,-2.941 1.662,-5.435 3.771,-7.032c2.238,-1.535 4.924,-2.366 7.863,-2.366c4.411,0 7.544,2.11 9.589,3.516c1.536,1.023 1.983,3.133 1.024,4.731c-1.024,1.535 -3.132,1.982 -4.731,0.895c-2.046,-1.342 -3.836,-2.365 -5.882,-2.365c-1.598,0 -3.004,0.511 -3.835,1.15c-0.831,0.576 -1.022,1.151 -1.022,1.471c0,0.256 0,0.32 0.126,0.512c0.065,0.127 0.256,0.383 0.705,0.639c0.831,0.575 2.493,1.15 4.666,1.533l0.063,0.064l0.065,0c2.109,0.384 4.092,0.959 5.945,1.855c1.726,0.767 3.453,1.982 4.54,3.772c0.766,1.278 1.215,2.748 1.215,4.219c0,3.133 -1.727,5.753 -4.029,7.416c-2.301,1.598 -5.178,2.557 -8.311,2.557c-4.985,-0.064 -8.822,-2.366 -11.378,-4.412c-1.408,-1.15 -1.599,-3.323 -0.449,-4.73" style="fill:#27bdb9;fill-rule:nonzero;"/><path d="M13.758,128.296c-0.243,-0.242 -0.364,-0.57 -0.364,-0.983l0,-16.29c0,-0.412 0.121,-0.74 0.364,-0.983c0.242,-0.242 0.578,-0.363 1.01,-0.363l9.909,0c0.412,0 0.731,0.099 0.955,0.296c0.224,0.198 0.336,0.476 0.336,0.835c0,0.36 -0.112,0.633 -0.336,0.821c-0.224,0.189 -0.543,0.283 -0.955,0.283l-8.563,0l0,5.977l8.023,0c0.413,0 0.732,0.099 0.957,0.297c0.224,0.198 0.336,0.476 0.336,0.834c0,0.359 -0.112,0.637 -0.336,0.835c-0.225,0.198 -0.544,0.296 -0.957,0.296l-8.023,0l0,6.274l8.563,0c0.861,0 1.291,0.368 1.291,1.104c0,0.359 -0.112,0.637 -0.336,0.834c-0.224,0.199 -0.543,0.297 -0.955,0.297l-9.909,0c-0.432,0 -0.768,-0.121 -1.01,-0.364" style="fill:#075e81;fill-rule:nonzero;"/><path d="M40.616,120.502l0,7.001c0,0.412 -0.121,0.731 -0.364,0.956c-0.242,0.223 -0.578,0.336 -1.009,0.336c-0.413,0 -0.741,-0.117 -0.983,-0.35c-0.243,-0.233 -0.364,-0.547 -0.364,-0.942l0,-6.867c0,-1.112 -0.22,-1.929 -0.66,-2.45c-0.44,-0.52 -1.126,-0.781 -2.06,-0.781c-1.094,0 -1.974,0.341 -2.638,1.023c-0.664,0.683 -0.996,1.598 -0.996,2.747l0,6.328c0,0.395 -0.121,0.709 -0.364,0.942c-0.242,0.233 -0.57,0.35 -0.983,0.35c-0.412,0 -0.745,-0.117 -0.996,-0.35c-0.252,-0.233 -0.377,-0.547 -0.377,-0.942l0,-10.959c0,-0.377 0.13,-0.687 0.391,-0.929c0.259,-0.242 0.587,-0.364 0.982,-0.364c0.395,0 0.709,0.117 0.943,0.351c0.233,0.233 0.35,0.538 0.35,0.915l0,1.104c0.431,-0.79 1.032,-1.391 1.804,-1.804c0.771,-0.413 1.643,-0.62 2.612,-0.62c3.14,0 4.712,1.768 4.712,5.305" style="fill:#075e81;fill-rule:nonzero;"/><path d="M52.867,124.945c0.663,-0.772 0.996,-1.84 0.996,-3.204c0,-1.347 -0.328,-2.41 -0.983,-3.191c-0.655,-0.781 -1.575,-1.172 -2.76,-1.172c-1.184,0 -2.113,0.387 -2.786,1.158c-0.673,0.772 -1.01,1.841 -1.01,3.205c0,1.364 0.34,2.432 1.023,3.204c0.682,0.771 1.606,1.158 2.773,1.158c1.167,0 2.083,-0.387 2.747,-1.158m3.325,-9.33c0.242,0.242 0.363,0.561 0.363,0.956l0,11.039c0,2.01 -0.533,3.527 -1.602,4.551c-1.068,1.023 -2.643,1.535 -4.725,1.535c-1.939,0 -3.554,-0.368 -4.847,-1.104c-0.664,-0.377 -0.996,-0.826 -0.996,-1.347c0,-0.305 0.085,-0.556 0.256,-0.754c0.17,-0.198 0.381,-0.296 0.633,-0.296c0.233,0 0.601,0.135 1.103,0.404c0.646,0.305 1.248,0.543 1.804,0.714c0.557,0.17 1.221,0.256 1.993,0.256c2.477,0 3.716,-1.248 3.716,-3.743l0,-2.074c-0.377,0.791 -0.952,1.405 -1.723,1.845c-0.773,0.44 -1.67,0.659 -2.693,0.659c-1.149,0 -2.172,-0.269 -3.069,-0.807c-0.898,-0.539 -1.594,-1.301 -2.087,-2.289c-0.494,-0.987 -0.741,-2.127 -0.741,-3.419c0,-1.293 0.252,-2.433 0.754,-3.42c0.503,-0.987 1.198,-1.754 2.087,-2.302c0.888,-0.548 1.907,-0.822 3.056,-0.822c1.005,0 1.889,0.216 2.652,0.646c0.763,0.432 1.342,1.042 1.737,1.831l0,-1.13c0,-0.395 0.122,-0.709 0.363,-0.942c0.242,-0.234 0.57,-0.351 0.983,-0.351c0.413,0 0.741,0.122 0.983,0.364" style="fill:#075e81;fill-rule:nonzero;"/><path d="M67.46,125.819c0.628,-0.673 0.943,-1.539 0.943,-2.598l0,-0.7l-0.485,0c-1.4,0 -2.477,0.063 -3.231,0.188c-0.754,0.126 -1.292,0.337 -1.616,0.633c-0.323,0.296 -0.484,0.722 -0.484,1.279c0,0.646 0.233,1.176 0.7,1.588c0.466,0.414 1.05,0.62 1.75,0.62c0.987,0 1.795,-0.337 2.423,-1.01m2.303,-9.303c0.852,0.88 1.278,2.217 1.278,4.012l0,6.974c0,0.413 -0.116,0.732 -0.349,0.956c-0.234,0.224 -0.557,0.337 -0.97,0.337c-0.395,0 -0.709,-0.118 -0.942,-0.351c-0.234,-0.233 -0.351,-0.547 -0.351,-0.942l0,-0.997c-0.341,0.755 -0.847,1.333 -1.52,1.738c-0.673,0.404 -1.459,0.605 -2.356,0.605c-0.862,0 -1.653,-0.175 -2.37,-0.525c-0.718,-0.35 -1.279,-0.839 -1.683,-1.467c-0.403,-0.629 -0.606,-1.329 -0.606,-2.1c0,-0.952 0.246,-1.701 0.741,-2.249c0.493,-0.547 1.31,-0.937 2.45,-1.171c1.14,-0.233 2.706,-0.35 4.698,-0.35l0.62,0l0,-0.781c0,-1.005 -0.207,-1.732 -0.62,-2.181c-0.412,-0.448 -1.077,-0.673 -1.992,-0.673c-0.628,0 -1.221,0.081 -1.777,0.242c-0.557,0.161 -1.167,0.395 -1.831,0.7c-0.485,0.269 -0.826,0.404 -1.023,0.404c-0.269,0 -0.489,-0.099 -0.66,-0.296c-0.171,-0.197 -0.255,-0.449 -0.255,-0.754c0,-0.27 0.075,-0.507 0.228,-0.714c0.152,-0.206 0.399,-0.407 0.74,-0.606c0.629,-0.341 1.365,-0.614 2.208,-0.821c0.844,-0.206 1.661,-0.309 2.451,-0.309c1.741,0 3.038,0.44 3.891,1.319" style="fill:#075e81;fill-rule:nonzero;"/><path d="M83.293,124.945c0.664,-0.772 0.996,-1.84 0.996,-3.204c0,-1.347 -0.328,-2.41 -0.983,-3.191c-0.655,-0.781 -1.575,-1.172 -2.76,-1.172c-1.184,0 -2.113,0.387 -2.786,1.158c-0.673,0.772 -1.01,1.841 -1.01,3.205c0,1.364 0.34,2.432 1.023,3.204c0.682,0.771 1.606,1.158 2.773,1.158c1.167,0 2.083,-0.387 2.747,-1.158m3.325,-9.33c0.242,0.242 0.363,0.561 0.363,0.956l0,11.039c0,2.01 -0.533,3.527 -1.602,4.551c-1.068,1.023 -2.643,1.535 -4.725,1.535c-1.939,0 -3.554,-0.368 -4.847,-1.104c-0.664,-0.377 -0.996,-0.826 -0.996,-1.347c0,-0.305 0.085,-0.556 0.256,-0.754c0.17,-0.198 0.381,-0.296 0.633,-0.296c0.233,0 0.601,0.135 1.103,0.404c0.646,0.305 1.248,0.543 1.804,0.714c0.557,0.17 1.221,0.256 1.993,0.256c2.477,0 3.716,-1.248 3.716,-3.743l0,-2.074c-0.377,0.791 -0.952,1.405 -1.723,1.845c-0.773,0.44 -1.67,0.659 -2.693,0.659c-1.149,0 -2.172,-0.269 -3.069,-0.807c-0.898,-0.539 -1.594,-1.301 -2.087,-2.289c-0.494,-0.987 -0.741,-2.127 -0.741,-3.419c0,-1.293 0.252,-2.433 0.754,-3.42c0.503,-0.987 1.198,-1.754 2.087,-2.302c0.889,-0.548 1.907,-0.822 3.056,-0.822c1.005,0 1.889,0.216 2.652,0.646c0.763,0.432 1.342,1.042 1.737,1.831l0,-1.13c0,-0.395 0.122,-0.709 0.363,-0.942c0.242,-0.234 0.57,-0.351 0.983,-0.351c0.413,0 0.741,0.122 0.983,0.364" style="fill:#075e81;fill-rule:nonzero;"/><path d="M93.874,118.186c-0.628,0.664 -1.005,1.598 -1.131,2.8l6.947,0c-0.054,-1.221 -0.363,-2.158 -0.929,-2.813c-0.565,-0.656 -1.359,-0.984 -2.383,-0.984c-1.041,0 -1.876,0.333 -2.504,0.997m7.809,7.458c0.161,0.198 0.242,0.45 0.242,0.755c0,0.52 -0.323,0.96 -0.969,1.319c-0.629,0.359 -1.316,0.637 -2.061,0.834c-0.745,0.198 -1.458,0.297 -2.14,0.297c-2.083,0 -3.725,-0.606 -4.928,-1.818c-1.202,-1.212 -1.803,-2.867 -1.803,-4.967c0,-1.347 0.264,-2.54 0.794,-3.582c0.529,-1.041 1.274,-1.848 2.235,-2.423c0.96,-0.574 2.051,-0.862 3.272,-0.862c1.759,0 3.15,0.565 4.173,1.696c1.023,1.132 1.534,2.658 1.534,4.578c0,0.718 -0.322,1.077 -0.969,1.077l-8.32,0c0.179,2.782 1.517,4.173 4.012,4.173c0.664,0 1.239,-0.089 1.723,-0.269c0.485,-0.179 0.997,-0.413 1.535,-0.7c0.054,-0.036 0.202,-0.111 0.444,-0.229c0.243,-0.116 0.445,-0.175 0.606,-0.175c0.252,0 0.458,0.099 0.62,0.296" style="fill:#075e81;fill-rule:nonzero;"/><path d="M115.455,126.842c0.207,0.188 0.31,0.444 0.31,0.768c0,0.323 -0.103,0.578 -0.31,0.767c-0.206,0.188 -0.507,0.283 -0.902,0.283l-9.208,0c-0.396,0 -0.709,-0.112 -0.943,-0.337c-0.234,-0.224 -0.349,-0.506 -0.349,-0.848c0,-0.34 0.134,-0.673 0.403,-0.996l7.485,-8.859l-6.758,0c-0.377,0 -0.668,-0.094 -0.875,-0.283c-0.206,-0.188 -0.31,-0.444 -0.31,-0.767c0,-0.323 0.104,-0.579 0.31,-0.767c0.207,-0.189 0.498,-0.283 0.875,-0.283l8.94,0c0.377,0 0.686,0.117 0.929,0.35c0.242,0.233 0.363,0.512 0.363,0.834c0,0.342 -0.134,0.674 -0.404,0.997l-7.486,8.859l7.028,0c0.395,0 0.696,0.094 0.902,0.282" style="fill:#075e81;fill-rule:nonzero;"/><path d="M117.785,122.292c-0.216,-0.188 -0.323,-0.453 -0.323,-0.795c0,-0.34 0.107,-0.61 0.323,-0.807c0.215,-0.197 0.529,-0.296 0.942,-0.296l5.735,0c0.413,0 0.728,0.099 0.942,0.296c0.216,0.197 0.324,0.467 0.324,0.807c0,0.342 -0.108,0.607 -0.324,0.795c-0.214,0.188 -0.529,0.282 -0.942,0.282l-5.735,0c-0.413,0 -0.727,-0.094 -0.942,-0.282" style="fill:#075e81;fill-rule:nonzero;"/><path d="M138.664,115.466c0.206,-0.125 0.426,-0.188 0.659,-0.188c0.341,0 0.642,0.117 0.903,0.35c0.259,0.233 0.39,0.511 0.39,0.835c0,0.179 -0.036,0.349 -0.108,0.511l-5.142,10.905c-0.126,0.287 -0.319,0.507 -0.58,0.66c-0.26,0.152 -0.533,0.229 -0.821,0.229c-0.287,0 -0.561,-0.077 -0.821,-0.229c-0.26,-0.153 -0.453,-0.373 -0.579,-0.66l-5.143,-10.905c-0.072,-0.143 -0.108,-0.314 -0.108,-0.511c0,-0.324 0.144,-0.602 0.431,-0.835c0.287,-0.233 0.611,-0.35 0.971,-0.35c0.52,0 0.905,0.251 1.157,0.753l4.173,9.263l4.146,-9.236c0.108,-0.269 0.266,-0.466 0.472,-0.592" style="fill:#075e81;fill-rule:nonzero;"/><path d="M151.132,125.51c0.637,-0.79 0.955,-1.948 0.955,-3.474c0,-1.507 -0.322,-2.661 -0.969,-3.46c-0.646,-0.798 -1.561,-1.198 -2.746,-1.198c-1.185,0 -2.1,0.4 -2.746,1.198c-0.647,0.799 -0.97,1.953 -0.97,3.46c0,1.526 0.319,2.684 0.956,3.474c0.637,0.79 1.557,1.184 2.76,1.184c1.202,0 2.123,-0.394 2.76,-1.184m-6.166,2.504c-0.979,-0.556 -1.733,-1.351 -2.262,-2.383c-0.53,-1.032 -0.794,-2.23 -0.794,-3.595c0,-1.382 0.264,-2.589 0.794,-3.621c0.529,-1.032 1.283,-1.827 2.262,-2.383c0.978,-0.556 2.113,-0.835 3.406,-0.835c1.293,0 2.428,0.279 3.406,0.835c0.978,0.556 1.732,1.351 2.262,2.383c0.529,1.032 0.794,2.239 0.794,3.621c0,1.365 -0.265,2.563 -0.794,3.595c-0.53,1.032 -1.284,1.827 -2.262,2.383c-0.978,0.557 -2.113,0.835 -3.406,0.835c-1.293,0 -2.428,-0.278 -3.406,-0.835" style="fill:#075e81;fill-rule:nonzero;"/><path d="M169.01,115.601c0.242,0.233 0.364,0.557 0.364,0.969l0,10.959c0,0.377 -0.126,0.682 -0.378,0.915c-0.252,0.233 -0.583,0.351 -0.996,0.351c-0.377,0 -0.683,-0.113 -0.916,-0.337c-0.233,-0.224 -0.349,-0.525 -0.349,-0.902l0,-1.023c-0.413,0.753 -0.983,1.328 -1.71,1.723c-0.727,0.395 -1.54,0.592 -2.437,0.592c-3.195,0 -4.793,-1.759 -4.793,-5.277l0,-7.001c0,-0.412 0.121,-0.736 0.364,-0.969c0.242,-0.233 0.578,-0.351 1.01,-0.351c0.413,0 0.739,0.118 0.982,0.351c0.242,0.233 0.364,0.557 0.364,0.969l0,6.974c0,1.059 0.215,1.84 0.646,2.343c0.43,0.502 1.095,0.753 1.992,0.753c1.059,0 1.908,-0.34 2.545,-1.022c0.637,-0.682 0.957,-1.589 0.957,-2.72l0,-6.328c0,-0.395 0.125,-0.713 0.376,-0.956c0.251,-0.242 0.584,-0.364 0.996,-0.364c0.412,0 0.74,0.118 0.983,0.351" style="fill:#075e81;fill-rule:nonzero;"/><path d="M173.251,127.718c-0.323,-0.197 -0.552,-0.404 -0.687,-0.62c-0.134,-0.215 -0.202,-0.457 -0.202,-0.726c0,-0.288 0.081,-0.53 0.242,-0.728c0.162,-0.197 0.368,-0.296 0.62,-0.296c0.233,0 0.601,0.145 1.103,0.431c0.539,0.288 1.064,0.521 1.575,0.701c0.512,0.179 1.154,0.269 1.926,0.269c0.862,0 1.535,-0.153 2.02,-0.458c0.484,-0.305 0.726,-0.736 0.726,-1.293c0,-0.358 -0.094,-0.646 -0.282,-0.861c-0.189,-0.216 -0.516,-0.409 -0.983,-0.579c-0.467,-0.171 -1.158,-0.355 -2.073,-0.552c-1.58,-0.341 -2.716,-0.804 -3.407,-1.387c-0.691,-0.583 -1.036,-1.378 -1.036,-2.383c0,-0.771 0.224,-1.467 0.673,-2.087c0.449,-0.619 1.068,-1.099 1.858,-1.44c0.79,-0.341 1.687,-0.512 2.693,-0.512c0.717,0 1.418,0.095 2.1,0.283c0.682,0.189 1.283,0.462 1.803,0.822c0.593,0.394 0.889,0.852 0.889,1.372c0,0.288 -0.085,0.531 -0.256,0.728c-0.171,0.197 -0.372,0.296 -0.605,0.296c-0.162,0 -0.324,-0.036 -0.485,-0.108c-0.161,-0.072 -0.377,-0.188 -0.646,-0.35c-0.485,-0.287 -0.939,-0.511 -1.36,-0.674c-0.422,-0.161 -0.947,-0.241 -1.575,-0.241c-0.754,0 -1.36,0.161 -1.817,0.484c-0.458,0.323 -0.688,0.764 -0.688,1.319c0,0.503 0.212,0.893 0.633,1.171c0.422,0.279 1.217,0.544 2.383,0.795c1.203,0.252 2.145,0.538 2.828,0.862c0.682,0.322 1.171,0.722 1.467,1.198c0.296,0.476 0.445,1.082 0.445,1.817c0,1.168 -0.489,2.105 -1.468,2.814c-0.979,0.71 -2.285,1.064 -3.918,1.064c-1.831,0 -3.329,-0.377 -4.496,-1.131" style="fill:#075e81;fill-rule:nonzero;"/><path d="M200.364,125.819c0.628,-0.673 0.943,-1.539 0.943,-2.598l0,-0.7l-0.485,0c-1.4,0 -2.477,0.063 -3.231,0.188c-0.754,0.126 -1.292,0.337 -1.616,0.633c-0.323,0.296 -0.484,0.722 -0.484,1.279c0,0.646 0.233,1.176 0.7,1.588c0.466,0.414 1.05,0.62 1.75,0.62c0.987,0 1.796,-0.337 2.423,-1.01m2.303,-9.303c0.852,0.88 1.278,2.217 1.278,4.012l0,6.974c0,0.413 -0.115,0.732 -0.349,0.956c-0.234,0.224 -0.556,0.337 -0.97,0.337c-0.395,0 -0.709,-0.118 -0.942,-0.351c-0.233,-0.233 -0.351,-0.547 -0.351,-0.942l0,-0.997c-0.341,0.755 -0.846,1.333 -1.519,1.738c-0.673,0.404 -1.459,0.605 -2.357,0.605c-0.862,0 -1.653,-0.175 -2.369,-0.525c-0.719,-0.35 -1.28,-0.839 -1.684,-1.467c-0.403,-0.629 -0.606,-1.329 -0.606,-2.1c0,-0.952 0.246,-1.701 0.742,-2.249c0.493,-0.547 1.31,-0.937 2.45,-1.171c1.14,-0.233 2.706,-0.35 4.698,-0.35l0.62,0l0,-0.781c0,-1.005 -0.208,-1.732 -0.62,-2.181c-0.412,-0.448 -1.077,-0.673 -1.993,-0.673c-0.627,0 -1.22,0.081 -1.776,0.242c-0.557,0.161 -1.167,0.395 -1.831,0.7c-0.486,0.269 -0.827,0.404 -1.024,0.404c-0.268,0 -0.488,-0.099 -0.66,-0.296c-0.171,-0.197 -0.255,-0.449 -0.255,-0.754c0,-0.27 0.076,-0.507 0.228,-0.714c0.152,-0.206 0.399,-0.407 0.74,-0.606c0.629,-0.341 1.365,-0.614 2.208,-0.821c0.844,-0.206 1.661,-0.309 2.451,-0.309c1.741,0 3.038,0.44 3.891,1.319" style="fill:#075e81;fill-rule:nonzero;"/><path d="M218.823,115.601c0.242,0.233 0.364,0.557 0.364,0.969l0,10.959c0,0.377 -0.126,0.682 -0.378,0.915c-0.252,0.233 -0.583,0.351 -0.996,0.351c-0.377,0 -0.683,-0.113 -0.916,-0.337c-0.233,-0.224 -0.349,-0.525 -0.349,-0.902l0,-1.023c-0.413,0.753 -0.983,1.328 -1.71,1.723c-0.727,0.395 -1.54,0.592 -2.437,0.592c-3.195,0 -4.793,-1.759 -4.793,-5.277l0,-7.001c0,-0.412 0.121,-0.736 0.364,-0.969c0.242,-0.233 0.578,-0.351 1.01,-0.351c0.413,0 0.739,0.118 0.982,0.351c0.242,0.233 0.364,0.557 0.364,0.969l0,6.974c0,1.059 0.215,1.84 0.646,2.343c0.43,0.502 1.095,0.753 1.992,0.753c1.059,0 1.908,-0.34 2.545,-1.022c0.637,-0.682 0.956,-1.589 0.956,-2.72l0,-6.328c0,-0.395 0.125,-0.713 0.377,-0.956c0.251,-0.242 0.583,-0.364 0.996,-0.364c0.412,0 0.74,0.118 0.983,0.351" style="fill:#075e81;fill-rule:nonzero;"/><path d="M230.171,127.718c-0.323,-0.197 -0.552,-0.404 -0.687,-0.62c-0.134,-0.215 -0.202,-0.457 -0.202,-0.726c0,-0.288 0.081,-0.53 0.242,-0.728c0.162,-0.197 0.368,-0.296 0.62,-0.296c0.233,0 0.601,0.145 1.103,0.431c0.539,0.288 1.064,0.521 1.575,0.701c0.512,0.179 1.154,0.269 1.926,0.269c0.862,0 1.535,-0.153 2.02,-0.458c0.484,-0.305 0.726,-0.736 0.726,-1.293c0,-0.358 -0.094,-0.646 -0.282,-0.861c-0.189,-0.216 -0.516,-0.409 -0.983,-0.579c-0.467,-0.171 -1.158,-0.355 -2.073,-0.552c-1.58,-0.341 -2.716,-0.804 -3.407,-1.387c-0.691,-0.583 -1.036,-1.378 -1.036,-2.383c0,-0.771 0.224,-1.467 0.673,-2.087c0.449,-0.619 1.068,-1.099 1.858,-1.44c0.79,-0.341 1.687,-0.512 2.693,-0.512c0.717,0 1.418,0.095 2.1,0.283c0.682,0.189 1.283,0.462 1.803,0.822c0.593,0.394 0.889,0.852 0.889,1.372c0,0.288 -0.085,0.531 -0.256,0.728c-0.171,0.197 -0.372,0.296 -0.605,0.296c-0.162,0 -0.324,-0.036 -0.485,-0.108c-0.161,-0.072 -0.377,-0.188 -0.646,-0.35c-0.485,-0.287 -0.939,-0.511 -1.36,-0.674c-0.422,-0.161 -0.947,-0.241 -1.575,-0.241c-0.754,0 -1.36,0.161 -1.817,0.484c-0.458,0.323 -0.688,0.764 -0.688,1.319c0,0.503 0.212,0.893 0.633,1.171c0.422,0.279 1.217,0.544 2.383,0.795c1.203,0.252 2.145,0.538 2.828,0.862c0.682,0.322 1.171,0.722 1.467,1.198c0.296,0.476 0.445,1.082 0.445,1.817c0,1.168 -0.489,2.105 -1.468,2.814c-0.979,0.71 -2.285,1.064 -3.918,1.064c-1.831,0 -3.329,-0.377 -4.496,-1.131" style="fill:#075e81;fill-rule:nonzero;"/><path d="M246.165,118.186c-0.628,0.664 -1.005,1.598 -1.131,2.8l6.947,0c-0.054,-1.221 -0.363,-2.158 -0.929,-2.813c-0.565,-0.656 -1.359,-0.984 -2.383,-0.984c-1.041,0 -1.876,0.333 -2.504,0.997m7.809,7.458c0.161,0.198 0.242,0.45 0.242,0.755c0,0.52 -0.323,0.96 -0.969,1.319c-0.629,0.359 -1.316,0.637 -2.061,0.834c-0.745,0.198 -1.458,0.297 -2.14,0.297c-2.083,0 -3.725,-0.606 -4.928,-1.818c-1.202,-1.212 -1.803,-2.867 -1.803,-4.967c0,-1.347 0.264,-2.54 0.794,-3.582c0.529,-1.041 1.274,-1.848 2.235,-2.423c0.96,-0.574 2.051,-0.862 3.272,-0.862c1.759,0 3.15,0.565 4.173,1.696c1.023,1.132 1.534,2.658 1.534,4.578c0,0.718 -0.322,1.077 -0.969,1.077l-8.32,0c0.179,2.782 1.517,4.173 4.012,4.173c0.664,0 1.239,-0.089 1.723,-0.269c0.485,-0.179 0.997,-0.413 1.535,-0.7c0.054,-0.036 0.202,-0.111 0.444,-0.229c0.243,-0.116 0.445,-0.175 0.606,-0.175c0.252,0 0.458,0.099 0.62,0.296" style="fill:#075e81;fill-rule:nonzero;"/><path d="M265.498,116.355c0,0.395 -0.099,0.692 -0.296,0.889c-0.197,0.197 -0.538,0.314 -1.023,0.349l-0.808,0.081c-1.131,0.108 -1.97,0.503 -2.518,1.185c-0.547,0.682 -0.821,1.508 -0.821,2.477l0,6.166c0,0.432 -0.125,0.754 -0.377,0.97c-0.251,0.215 -0.575,0.323 -0.969,0.323c-0.395,0 -0.723,-0.108 -0.983,-0.323c-0.26,-0.216 -0.391,-0.538 -0.391,-0.97l0,-10.959c0,-0.412 0.131,-0.731 0.391,-0.956c0.26,-0.223 0.588,-0.336 0.983,-0.336c0.359,0 0.66,0.113 0.902,0.336c0.243,0.225 0.364,0.535 0.364,0.929l0,1.293c0.358,-0.79 0.879,-1.391 1.561,-1.804c0.682,-0.413 1.455,-0.655 2.316,-0.727l0.377,-0.027c0.862,-0.054 1.292,0.314 1.292,1.104" style="fill:#075e81;fill-rule:nonzero;"/><path d="M277.789,115.466c0.207,-0.125 0.428,-0.188 0.659,-0.188c0.344,0 0.642,0.117 0.905,0.35c0.259,0.233 0.389,0.511 0.389,0.835c0,0.179 -0.035,0.349 -0.109,0.511l-5.143,10.905c-0.123,0.287 -0.319,0.507 -0.579,0.66c-0.259,0.152 -0.533,0.229 -0.82,0.229c-0.288,0 -0.561,-0.077 -0.821,-0.229c-0.26,-0.153 -0.456,-0.373 -0.579,-0.66l-5.144,-10.905c-0.072,-0.143 -0.108,-0.314 -0.108,-0.511c0,-0.324 0.144,-0.602 0.432,-0.835c0.286,-0.233 0.61,-0.35 0.969,-0.35c0.521,0 0.906,0.251 1.159,0.753l4.173,9.263l4.147,-9.236c0.109,-0.269 0.263,-0.466 0.47,-0.592" style="fill:#075e81;fill-rule:nonzero;"/><path d="M282.368,128.472c-0.261,-0.216 -0.391,-0.538 -0.391,-0.969l0,-10.932c0,-0.431 0.13,-0.758 0.391,-0.983c0.259,-0.224 0.587,-0.337 0.983,-0.337c0.395,0 0.717,0.113 0.97,0.337c0.251,0.225 0.377,0.552 0.377,0.983l0,10.932c0,0.431 -0.126,0.753 -0.377,0.969c-0.253,0.216 -0.575,0.323 -0.97,0.323c-0.396,0 -0.724,-0.107 -0.983,-0.323m-0.256,-16.291c-0.305,-0.286 -0.457,-0.663 -0.457,-1.13c0,-0.467 0.152,-0.839 0.457,-1.118c0.305,-0.278 0.717,-0.417 1.239,-0.417c0.502,0 0.91,0.139 1.224,0.417c0.314,0.279 0.472,0.651 0.472,1.118c0,0.467 -0.153,0.844 -0.458,1.13c-0.305,0.288 -0.719,0.432 -1.238,0.432c-0.522,0 -0.934,-0.144 -1.239,-0.432" style="fill:#075e81;fill-rule:nonzero;"/><path d="M290.768,128.014c-0.961,-0.557 -1.706,-1.346 -2.235,-2.37c-0.529,-1.023 -0.794,-2.208 -0.794,-3.554c0,-1.364 0.273,-2.567 0.822,-3.608c0.547,-1.041 1.315,-1.848 2.302,-2.423c0.987,-0.575 2.117,-0.862 3.392,-0.862c0.682,0 1.369,0.099 2.059,0.296c0.691,0.198 1.306,0.467 1.845,0.808c0.575,0.395 0.862,0.852 0.862,1.373c0,0.306 -0.081,0.562 -0.242,0.768c-0.161,0.206 -0.368,0.309 -0.62,0.309c-0.162,0 -0.323,-0.04 -0.484,-0.121c-0.161,-0.08 -0.368,-0.202 -0.619,-0.364c-0.449,-0.286 -0.866,-0.506 -1.253,-0.66c-0.386,-0.151 -0.847,-0.228 -1.387,-0.228c-1.22,0 -2.167,0.413 -2.84,1.238c-0.673,0.827 -1.01,1.976 -1.01,3.447c0,1.472 0.332,2.608 0.996,3.407c0.664,0.798 1.608,1.198 2.828,1.198c0.538,0 1.013,-0.081 1.427,-0.243c0.413,-0.161 0.834,-0.377 1.265,-0.646c0.198,-0.125 0.395,-0.233 0.593,-0.323c0.198,-0.09 0.377,-0.135 0.538,-0.135c0.251,0 0.457,0.104 0.619,0.31c0.163,0.207 0.243,0.463 0.243,0.768c0,0.251 -0.068,0.48 -0.203,0.686c-0.133,0.207 -0.363,0.417 -0.685,0.633c-0.539,0.359 -1.168,0.637 -1.885,0.834c-0.719,0.197 -1.446,0.296 -2.182,0.296c-1.275,0 -2.391,-0.277 -3.352,-0.834" style="fill:#075e81;fill-rule:nonzero;"/><path d="M304.596,118.186c-0.629,0.664 -1.006,1.598 -1.132,2.8l6.947,0c-0.053,-1.221 -0.363,-2.158 -0.929,-2.813c-0.565,-0.656 -1.359,-0.984 -2.383,-0.984c-1.041,0 -1.875,0.333 -2.503,0.997m7.808,7.458c0.161,0.198 0.242,0.45 0.242,0.755c0,0.52 -0.323,0.96 -0.97,1.319c-0.627,0.359 -1.314,0.637 -2.059,0.834c-0.745,0.198 -1.459,0.297 -2.141,0.297c-2.082,0 -3.725,-0.606 -4.927,-1.818c-1.203,-1.212 -1.804,-2.867 -1.804,-4.967c0,-1.347 0.264,-2.54 0.794,-3.582c0.529,-1.041 1.274,-1.848 2.235,-2.423c0.96,-0.574 2.051,-0.862 3.271,-0.862c1.76,0 3.15,0.565 4.174,1.696c1.024,1.132 1.535,2.658 1.535,4.578c0,0.718 -0.324,1.077 -0.969,1.077l-8.321,0c0.18,2.782 1.518,4.173 4.012,4.173c0.665,0 1.24,-0.089 1.723,-0.269c0.486,-0.179 0.996,-0.413 1.536,-0.7c0.053,-0.036 0.202,-0.111 0.443,-0.229c0.242,-0.116 0.446,-0.175 0.607,-0.175c0.251,0 0.458,0.099 0.619,0.296" style="fill:#075e81;fill-rule:nonzero;"/><path d="M331.304,125.483c0.647,-0.808 0.969,-1.956 0.969,-3.446c0,-1.49 -0.319,-2.64 -0.955,-3.447c-0.638,-0.808 -1.548,-1.212 -2.733,-1.212c-1.185,0 -2.105,0.4 -2.761,1.198c-0.654,0.8 -0.982,1.935 -0.982,3.406c0,1.473 0.332,2.626 0.996,3.461c0.665,0.834 1.58,1.251 2.747,1.251c1.166,0 2.074,-0.403 2.719,-1.211m3.285,-15.59c0.251,0.234 0.377,0.548 0.377,0.942l0,16.64c0,0.414 -0.121,0.737 -0.363,0.97c-0.242,0.233 -0.57,0.35 -0.983,0.35c-0.412,0 -0.74,-0.117 -0.982,-0.35c-0.244,-0.233 -0.365,-0.556 -0.365,-0.97l0,-1.076c-0.394,0.79 -0.969,1.395 -1.723,1.817c-0.754,0.422 -1.625,0.633 -2.612,0.633c-1.13,0 -2.14,-0.287 -3.029,-0.862c-0.889,-0.574 -1.579,-1.382 -2.072,-2.423c-0.494,-1.041 -0.741,-2.235 -0.741,-3.582c0,-1.364 0.247,-2.557 0.741,-3.58c0.493,-1.024 1.18,-1.814 2.06,-2.37c0.878,-0.556 1.893,-0.835 3.041,-0.835c0.987,0 1.853,0.212 2.598,0.633c0.745,0.422 1.315,1.019 1.711,1.791l0,-6.839c0,-0.377 0.121,-0.678 0.363,-0.902c0.242,-0.225 0.57,-0.337 0.983,-0.337c0.412,0 0.745,0.117 0.996,0.35" style="fill:#075e81;fill-rule:nonzero;"/><path d="M349.924,115.601c0.242,0.233 0.363,0.557 0.363,0.969l0,10.959c0,0.377 -0.125,0.682 -0.377,0.915c-0.251,0.233 -0.584,0.351 -0.996,0.351c-0.377,0 -0.682,-0.113 -0.915,-0.337c-0.235,-0.224 -0.35,-0.525 -0.35,-0.902l0,-1.023c-0.414,0.753 -0.984,1.328 -1.71,1.723c-0.727,0.395 -1.54,0.592 -2.436,0.592c-3.196,0 -4.795,-1.759 -4.795,-5.277l0,-7.001c0,-0.412 0.123,-0.736 0.365,-0.969c0.242,-0.233 0.578,-0.351 1.01,-0.351c0.412,0 0.739,0.118 0.981,0.351c0.244,0.233 0.365,0.557 0.365,0.969l0,6.974c0,1.059 0.216,1.84 0.645,2.343c0.431,0.502 1.096,0.753 1.993,0.753c1.059,0 1.908,-0.34 2.546,-1.022c0.636,-0.682 0.955,-1.589 0.955,-2.72l0,-6.328c0,-0.395 0.124,-0.713 0.377,-0.956c0.251,-0.242 0.584,-0.364 0.996,-0.364c0.413,0 0.741,0.118 0.983,0.351" style="fill:#075e81;fill-rule:nonzero;"/><path d="M363.468,128.014c-0.961,-0.557 -1.706,-1.346 -2.235,-2.37c-0.529,-1.023 -0.794,-2.208 -0.794,-3.554c0,-1.364 0.273,-2.567 0.822,-3.608c0.547,-1.041 1.315,-1.848 2.302,-2.423c0.987,-0.575 2.117,-0.862 3.392,-0.862c0.682,0 1.369,0.099 2.059,0.296c0.691,0.198 1.306,0.467 1.845,0.808c0.575,0.395 0.862,0.852 0.862,1.373c0,0.306 -0.081,0.562 -0.242,0.768c-0.161,0.206 -0.368,0.309 -0.62,0.309c-0.162,0 -0.323,-0.04 -0.484,-0.121c-0.161,-0.08 -0.368,-0.202 -0.619,-0.364c-0.449,-0.286 -0.866,-0.506 -1.253,-0.66c-0.386,-0.151 -0.847,-0.228 -1.387,-0.228c-1.22,0 -2.167,0.413 -2.84,1.238c-0.673,0.827 -1.01,1.976 -1.01,3.447c0,1.472 0.332,2.608 0.996,3.407c0.664,0.798 1.608,1.198 2.828,1.198c0.538,0 1.013,-0.081 1.427,-0.243c0.413,-0.161 0.834,-0.377 1.265,-0.646c0.198,-0.125 0.395,-0.233 0.593,-0.323c0.198,-0.09 0.377,-0.135 0.538,-0.135c0.251,0 0.457,0.104 0.619,0.31c0.163,0.207 0.243,0.463 0.243,0.768c0,0.251 -0.068,0.48 -0.203,0.686c-0.133,0.207 -0.363,0.417 -0.685,0.633c-0.539,0.359 -1.168,0.637 -1.885,0.834c-0.719,0.197 -1.446,0.296 -2.182,0.296c-1.275,0 -2.391,-0.277 -3.352,-0.834" style="fill:#075e81;fill-rule:nonzero;"/><path d="M374.589,128.472c-0.261,-0.216 -0.391,-0.538 -0.391,-0.969l0,-10.932c0,-0.431 0.13,-0.758 0.391,-0.983c0.259,-0.224 0.587,-0.337 0.983,-0.337c0.395,0 0.717,0.113 0.97,0.337c0.251,0.225 0.377,0.552 0.377,0.983l0,10.932c0,0.431 -0.126,0.753 -0.377,0.969c-0.253,0.216 -0.575,0.323 -0.97,0.323c-0.396,0 -0.724,-0.107 -0.983,-0.323m-0.256,-16.291c-0.305,-0.286 -0.457,-0.663 -0.457,-1.13c0,-0.467 0.152,-0.839 0.457,-1.118c0.305,-0.278 0.717,-0.417 1.239,-0.417c0.502,0 0.91,0.139 1.224,0.417c0.314,0.279 0.472,0.651 0.472,1.118c0,0.467 -0.153,0.844 -0.458,1.13c-0.305,0.288 -0.719,0.432 -1.238,0.432c-0.522,0 -0.934,-0.144 -1.239,-0.432" style="fill:#075e81;fill-rule:nonzero;"/><path d="M387.998,127.031c0.17,0.171 0.256,0.409 0.256,0.714c0,0.359 -0.139,0.632 -0.417,0.821c-0.279,0.189 -0.687,0.264 -1.226,0.229l-0.727,-0.054c-1.453,-0.108 -2.54,-0.552 -3.257,-1.332c-0.719,-0.781 -1.078,-1.935 -1.078,-3.461l0,-6.327l-1.615,0c-0.79,0 -1.185,-0.351 -1.185,-1.05c0,-0.324 0.104,-0.579 0.31,-0.768c0.206,-0.188 0.498,-0.282 0.875,-0.282l1.615,0l0,-2.774c0,-0.412 0.121,-0.736 0.364,-0.969c0.242,-0.233 0.57,-0.35 0.982,-0.35c0.414,0 0.745,0.117 0.997,0.35c0.251,0.233 0.377,0.557 0.377,0.969l0,2.774l2.665,0c0.377,0 0.67,0.094 0.876,0.282c0.206,0.189 0.309,0.444 0.309,0.768c0,0.341 -0.103,0.601 -0.309,0.781c-0.206,0.18 -0.499,0.269 -0.876,0.269l-2.665,0l0,6.516c0,0.844 0.176,1.463 0.525,1.858c0.35,0.394 0.883,0.619 1.602,0.673l0.754,0.054c0.394,0.036 0.678,0.139 0.848,0.309" style="fill:#075e81;fill-rule:nonzero;"/><path d="M398.687,125.51c0.636,-0.79 0.955,-1.948 0.955,-3.474c0,-1.507 -0.322,-2.661 -0.969,-3.46c-0.645,-0.798 -1.562,-1.198 -2.745,-1.198c-1.185,0 -2.102,0.4 -2.747,1.198c-0.647,0.799 -0.97,1.953 -0.97,3.46c0,1.526 0.32,2.684 0.957,3.474c0.635,0.79 1.555,1.184 2.76,1.184c1.202,0 2.122,-0.394 2.76,-1.184m-6.167,2.504c-0.978,-0.556 -1.733,-1.351 -2.262,-2.383c-0.53,-1.032 -0.793,-2.23 -0.793,-3.595c0,-1.382 0.263,-2.589 0.793,-3.621c0.529,-1.032 1.284,-1.827 2.262,-2.383c0.977,-0.556 2.113,-0.835 3.407,-0.835c1.293,0 2.426,0.279 3.406,0.835c0.978,0.556 1.733,1.351 2.262,2.383c0.529,1.032 0.793,2.239 0.793,3.621c0,1.365 -0.264,2.563 -0.793,3.595c-0.529,1.032 -1.284,1.827 -2.262,2.383c-0.98,0.557 -2.113,0.835 -3.406,0.835c-1.293,0 -2.43,-0.278 -3.407,-0.835" style="fill:#075e81;fill-rule:nonzero;"/><path d="M415.031,115.466c0.207,-0.125 0.426,-0.188 0.659,-0.188c0.342,0 0.642,0.117 0.903,0.35c0.259,0.233 0.391,0.511 0.391,0.835c0,0.179 -0.037,0.349 -0.109,0.511l-7.485,15.886c-0.107,0.252 -0.265,0.444 -0.472,0.579c-0.207,0.135 -0.426,0.202 -0.659,0.202c-0.322,0 -0.615,-0.108 -0.875,-0.323c-0.261,-0.215 -0.39,-0.484 -0.39,-0.808c0,-0.143 0.043,-0.323 0.135,-0.538l1.858,-3.958l-5.198,-11.04c-0.072,-0.143 -0.107,-0.305 -0.107,-0.484c0,-0.341 0.144,-0.629 0.43,-0.862c0.287,-0.233 0.61,-0.35 0.969,-0.35c0.54,0 0.926,0.251 1.159,0.753l4.174,9.263l4.145,-9.236c0.109,-0.269 0.265,-0.466 0.472,-0.592" style="fill:#075e81;fill-rule:nonzero;"/><path d="M422.127,118.186c-0.629,0.664 -1.006,1.598 -1.132,2.8l6.947,0c-0.053,-1.221 -0.363,-2.158 -0.929,-2.813c-0.565,-0.656 -1.359,-0.984 -2.383,-0.984c-1.041,0 -1.875,0.333 -2.503,0.997m7.808,7.458c0.161,0.198 0.242,0.45 0.242,0.755c0,0.52 -0.323,0.96 -0.97,1.319c-0.627,0.359 -1.314,0.637 -2.059,0.834c-0.745,0.198 -1.459,0.297 -2.141,0.297c-2.082,0 -3.725,-0.606 -4.927,-1.818c-1.203,-1.212 -1.804,-2.867 -1.804,-4.967c0,-1.347 0.264,-2.54 0.794,-3.582c0.529,-1.041 1.274,-1.848 2.235,-2.423c0.96,-0.574 2.051,-0.862 3.271,-0.862c1.76,0 3.15,0.565 4.174,1.696c1.024,1.132 1.535,2.658 1.535,4.578c0,0.718 -0.324,1.077 -0.969,1.077l-8.321,0c0.18,2.782 1.518,4.173 4.012,4.173c0.665,0 1.24,-0.089 1.723,-0.269c0.486,-0.179 0.996,-0.413 1.536,-0.7c0.053,-0.036 0.202,-0.111 0.443,-0.229c0.242,-0.116 0.446,-0.175 0.607,-0.175c0.251,0 0.458,0.099 0.619,0.296" style="fill:#075e81;fill-rule:nonzero;"/><path d="M445.066,120.502l0,7.001c0,0.412 -0.121,0.731 -0.363,0.956c-0.244,0.223 -0.58,0.336 -1.01,0.336c-0.413,0 -0.741,-0.117 -0.983,-0.35c-0.242,-0.233 -0.363,-0.547 -0.363,-0.942l0,-6.867c0,-1.112 -0.221,-1.929 -0.661,-2.45c-0.44,-0.52 -1.127,-0.781 -2.06,-0.781c-1.095,0 -1.973,0.341 -2.638,1.023c-0.664,0.683 -0.995,1.598 -0.995,2.747l0,6.328c0,0.395 -0.123,0.709 -0.365,0.942c-0.242,0.233 -0.57,0.35 -0.982,0.35c-0.413,0 -0.745,-0.117 -0.997,-0.35c-0.251,-0.233 -0.377,-0.547 -0.377,-0.942l0,-10.959c0,-0.377 0.13,-0.687 0.391,-0.929c0.259,-0.242 0.587,-0.364 0.983,-0.364c0.395,0 0.708,0.117 0.942,0.351c0.233,0.233 0.35,0.538 0.35,0.915l0,1.104c0.431,-0.79 1.033,-1.391 1.804,-1.804c0.771,-0.413 1.643,-0.62 2.612,-0.62c3.141,0 4.712,1.768 4.712,5.305" style="fill:#075e81;fill-rule:nonzero;"/></g></svg>