<svg viewBox="0 0 460 144" xmlns="http://www.w3.org/2000/svg" xml:space="preserve" style="fill-rule:evenodd;clip-rule:evenodd;stroke-linejoin:round;stroke-miterlimit:1.41421"><path d="M65.821 40.175c-11.599 5.117-8.892 12.001-14.295 20.202-6.971 10.582-23.727 9.7-29.087-2.451-5.36-12.152 5.284-25.121 17.799-23.136 9.699 1.538 12.959 8.178 24.558 3.062 11.599-5.117 8.892-12.001 14.295-20.203 6.972-10.581 23.727-9.7 29.087 2.452 5.361 12.151-5.283 25.121-17.799 23.136-9.699-1.539-12.959-8.179-24.558-3.062" style="fill:#27bdb9"/><path d="M62.056 50.49c0 13.427-10.884 24.311-24.311 24.311S13.434 63.917 13.434 50.49s10.884-24.311 24.311-24.311S62.056 37.063 62.056 50.49" style="fill:#075e81"/><path d="M67.447 65.757c12.892 5.687 9.884 13.34 15.889 22.455 7.749 11.762 26.373 10.782 32.331-2.725 5.959-13.506-5.873-27.922-19.784-25.715-10.781 1.709-14.405 9.09-27.297 3.402-12.892-5.687-9.884-13.339-15.889-22.455-7.749-11.761-26.372-10.781-32.331 2.725-5.959 13.507 5.873 27.922 19.784 25.716 10.781-1.71 14.405-9.09 27.297-3.403" style="fill:#075e81"/><path d="M124.834 50.239c0-12.849 10.613-23.078 23.59-23.078 5.434 0 10.613 1.854 14.576 4.986 1.663 1.215 1.918 3.581.703 5.179-1.214 1.534-3.58 1.853-5.177.575-2.75-2.109-6.266-3.452-10.102-3.452-4.602 0-8.63 1.726-11.507 4.666-3.004 2.878-4.795 6.777-4.795 11.124 0 4.219 1.791 8.12 4.795 10.997 2.877 2.94 6.905 4.666 11.507 4.666 3.197 0 6.201-.959 8.759-2.43v-8.758h-9.142c-1.982 0-3.644-1.661-3.644-3.643 0-2.046 1.662-3.581 3.644-3.581h12.721c2.046 0 3.709 1.535 3.709 3.581v14.128c0 .447-.128.703-.192 1.087-.064.128-.064.192-.128.319v.064c-.192.576-.575 1.087-1.215 1.535a23.59 23.59 0 0 1-14.512 4.986c-12.977 0-23.59-10.165-23.59-22.951M179.176 57.272c0 2.749.831 4.986 2.302 6.776 1.598 1.534 3.707 2.366 6.137 2.366a8.374 8.374 0 0 0 5.881-2.366c1.598-1.79 2.493-4.027 2.493-6.776 0-2.622-.895-4.923-2.493-6.649-1.599-1.407-3.644-2.43-5.881-2.43-2.43 0-4.539 1.023-6.137 2.43-1.471 1.726-2.302 4.027-2.302 6.649m-2.558 11.252c-2.748-2.814-4.41-6.777-4.41-11.252 0-4.347 1.662-8.12 4.41-11.188 2.877-3.005 6.586-4.859 10.997-4.859 4.218 0 8.055 1.854 10.676 4.859 2.876 3.068 4.475 6.841 4.475 11.188 0 4.475-1.599 8.438-4.475 11.252a14.14 14.14 0 0 1-10.676 4.858c-4.411 0-8.12-1.854-10.997-4.858M233.773 46.339l-10.485 24.805a1.392 1.392 0 0 1-.256.448c0 .063-.064.063-.064.063-.128.128-.256.32-.384.448 0 .064-.063.064-.063.064-.128.192-.256.256-.384.384 0 0-.063 0-.063.064-.128.127-.256.255-.449.319h-.126v.064c-.193 0-.384.064-.512.128h-.128c-.256.064-.447.064-.64.064-.128 0-.319 0-.575-.064h-.128c-.191-.064-.319-.128-.512-.128v-.064h-.128c-.191-.064-.319-.192-.575-.319 0-.064-.063-.064-.063-.064-.128-.128-.256-.192-.384-.384-.065 0-.065 0-.128-.064a2.034 2.034 0 0 0-.319-.448c-.065 0-.065 0-.065-.063-.128-.064-.191-.256-.256-.448L206.73 46.339c-.766-1.726.064-3.58 1.854-4.347 1.535-.767 3.517.128 4.284 1.854l7.351 17.389 7.417-17.389c.703-1.726 2.62-2.621 4.282-1.854 1.79.767 2.621 2.621 1.855 4.347" style="fill:#075e81;fill-rule:nonzero"/><path d="M246.622 60.02c1.152 3.516 4.475 6.073 8.376 6.073 4.857 0 8.821-3.963 8.821-8.759V31.955c0-1.982 1.599-3.516 3.579-3.516a3.506 3.506 0 0 1 3.517 3.516v25.379c0 8.759-7.159 15.855-15.917 15.855-7.033 0-13.042-4.602-15.088-10.995-.64-1.918.447-3.9 2.237-4.412 1.917-.639 3.9.384 4.475 2.238M282.808 57.272c0 2.749.831 4.986 2.302 6.776 1.597 1.534 3.707 2.366 6.137 2.366a8.374 8.374 0 0 0 5.881-2.366c1.599-1.79 2.493-4.027 2.493-6.776 0-2.622-.894-4.923-2.493-6.649-1.599-1.407-3.644-2.43-5.881-2.43-2.43 0-4.54 1.023-6.137 2.43-1.471 1.726-2.302 4.027-2.302 6.649m-2.558 11.252c-2.748-2.814-4.41-6.777-4.41-11.252 0-4.347 1.662-8.12 4.41-11.188 2.877-3.005 6.585-4.859 10.997-4.859 4.219 0 8.055 1.854 10.676 4.859 2.876 3.068 4.475 6.841 4.475 11.188 0 4.475-1.599 8.438-4.475 11.252a14.138 14.138 0 0 1-10.676 4.858c-4.412 0-8.12-1.854-10.997-4.858M321.039 57.272c0 2.429.959 4.73 2.556 6.328 1.599 1.663 3.644 2.622 6.011 2.622 2.3 0 4.41-.959 6.009-2.622 1.597-1.598 2.556-3.899 2.556-6.328 0-2.558-.959-4.859-2.556-6.457-1.599-1.663-3.709-2.622-6.009-2.622-2.367 0-4.412.959-6.011 2.622-1.597 1.598-2.556 3.899-2.556 6.457m-6.968 0V31.891c0-1.853 1.534-3.451 3.451-3.451 1.981 0 3.517 1.598 3.517 3.451v12.02c2.365-1.663 5.434-2.686 8.567-2.686 8.63 0 15.533 7.288 15.533 16.047 0 8.63-6.903 15.918-15.533 15.918-3.198 0-6.265-1.087-8.695-2.749a3.444 3.444 0 0 1-3.389 2.749c-1.917 0-3.451-1.598-3.451-3.452V57.272ZM351.53 64.048c1.152-1.535 3.389-1.726 4.794-.512 1.664 1.407 4.541 2.878 7.033 2.814 1.727 0 3.324-.576 4.348-1.215.894-.767 1.15-1.407 1.15-1.918 0-.32-.063-.448-.191-.64-.065-.191-.319-.447-.831-.767-.896-.639-2.814-1.342-5.115-1.79h-.064c-1.982-.383-3.9-.894-5.562-1.661-1.726-.832-3.26-1.983-4.41-3.709-.703-1.151-1.087-2.557-1.087-4.027 0-2.941 1.662-5.435 3.771-7.032 2.238-1.535 4.924-2.366 7.863-2.366 4.411 0 7.544 2.11 9.589 3.516 1.536 1.023 1.983 3.133 1.024 4.731a3.383 3.383 0 0 1-4.731.895c-2.046-1.342-3.836-2.365-5.882-2.365-1.598 0-3.004.511-3.835 1.15-.831.576-1.022 1.151-1.022 1.471 0 .256 0 .32.126.512.065.127.256.383.705.639.831.575 2.493 1.15 4.666 1.533l.063.064h.065c2.109.384 4.092.959 5.945 1.855 1.726.767 3.453 1.982 4.54 3.772.766 1.278 1.215 2.748 1.215 4.219 0 3.133-1.727 5.753-4.029 7.416-2.301 1.598-5.178 2.557-8.311 2.557-4.985-.064-8.822-2.366-11.378-4.412-1.408-1.15-1.599-3.323-.449-4.73" style="fill:#27bdb9;fill-rule:nonzero"/><path d="M13.758 128.296c-.243-.242-.364-.57-.364-.983v-16.29c0-.412.121-.74.364-.983.242-.242.578-.363 1.01-.363h9.909c.412 0 .731.099.955.296.224.198.336.476.336.835 0 .36-.112.633-.336.821-.224.189-.543.283-.955.283h-8.563v5.977h8.023c.413 0 .732.099.957.297.224.198.336.476.336.834 0 .359-.112.637-.336.835-.225.198-.544.296-.957.296h-8.023v6.274h8.563c.861 0 1.291.368 1.291 1.104 0 .359-.112.637-.336.834-.224.199-.543.297-.955.297h-9.909c-.432 0-.768-.121-1.01-.364M40.616 120.502v7.001c0 .412-.121.731-.364.956-.242.223-.578.336-1.009.336-.413 0-.741-.117-.983-.35-.243-.233-.364-.547-.364-.942v-6.867c0-1.112-.22-1.929-.66-2.45-.44-.52-1.126-.781-2.06-.781-1.094 0-1.974.341-2.638 1.023-.664.683-.996 1.598-.996 2.747v6.328c0 .395-.121.709-.364.942-.242.233-.57.35-.983.35-.412 0-.745-.117-.996-.35-.252-.233-.377-.547-.377-.942v-10.959c0-.377.13-.687.391-.929.259-.242.587-.364.982-.364s.709.117.943.351c.233.233.35.538.35.915v1.104a4.368 4.368 0 0 1 1.804-1.804c.771-.413 1.643-.62 2.612-.62 3.14 0 4.712 1.768 4.712 5.305M52.867 124.945c.663-.772.996-1.84.996-3.204 0-1.347-.328-2.41-.983-3.191-.655-.781-1.575-1.172-2.76-1.172-1.184 0-2.113.387-2.786 1.158-.673.772-1.01 1.841-1.01 3.205s.34 2.432 1.023 3.204c.682.771 1.606 1.158 2.773 1.158s2.083-.387 2.747-1.158m3.325-9.33c.242.242.363.561.363.956v11.039c0 2.01-.533 3.527-1.602 4.551-1.068 1.023-2.643 1.535-4.725 1.535-1.939 0-3.554-.368-4.847-1.104-.664-.377-.996-.826-.996-1.347 0-.305.085-.556.256-.754a.8.8 0 0 1 .633-.296c.233 0 .601.135 1.103.404.646.305 1.248.543 1.804.714.557.17 1.221.256 1.993.256 2.477 0 3.716-1.248 3.716-3.743v-2.074a4.126 4.126 0 0 1-1.723 1.845c-.773.44-1.67.659-2.693.659-1.149 0-2.172-.269-3.069-.807-.898-.539-1.594-1.301-2.087-2.289-.494-.987-.741-2.127-.741-3.419 0-1.293.252-2.433.754-3.42.503-.987 1.198-1.754 2.087-2.302.888-.548 1.907-.822 3.056-.822 1.005 0 1.889.216 2.652.646a4.238 4.238 0 0 1 1.737 1.831v-1.13c0-.395.122-.709.363-.942.242-.234.57-.351.983-.351.413 0 .741.122.983.364M67.46 125.819c.628-.673.943-1.539.943-2.598v-.7h-.485c-1.4 0-2.477.063-3.231.188-.754.126-1.292.337-1.616.633-.323.296-.484.722-.484 1.279 0 .646.233 1.176.7 1.588.466.414 1.05.62 1.75.62.987 0 1.795-.337 2.423-1.01m2.303-9.303c.852.88 1.278 2.217 1.278 4.012v6.974c0 .413-.116.732-.349.956-.234.224-.557.337-.97.337-.395 0-.709-.118-.942-.351-.234-.233-.351-.547-.351-.942v-.997c-.341.755-.847 1.333-1.52 1.738-.673.404-1.459.605-2.356.605a5.333 5.333 0 0 1-2.37-.525c-.718-.35-1.279-.839-1.683-1.467a3.813 3.813 0 0 1-.606-2.1c0-.952.246-1.701.741-2.249.493-.547 1.31-.937 2.45-1.171 1.14-.233 2.706-.35 4.698-.35h.62v-.781c0-1.005-.207-1.732-.62-2.181-.412-.448-1.077-.673-1.992-.673-.628 0-1.221.081-1.777.242-.557.161-1.167.395-1.831.7-.485.269-.826.404-1.023.404a.834.834 0 0 1-.66-.296c-.171-.197-.255-.449-.255-.754 0-.27.075-.507.228-.714.152-.206.399-.407.74-.606.629-.341 1.365-.614 2.208-.821a10.325 10.325 0 0 1 2.451-.309c1.741 0 3.038.44 3.891 1.319M83.293 124.945c.664-.772.996-1.84.996-3.204 0-1.347-.328-2.41-.983-3.191-.655-.781-1.575-1.172-2.76-1.172-1.184 0-2.113.387-2.786 1.158-.673.772-1.01 1.841-1.01 3.205s.34 2.432 1.023 3.204c.682.771 1.606 1.158 2.773 1.158s2.083-.387 2.747-1.158m3.325-9.33c.242.242.363.561.363.956v11.039c0 2.01-.533 3.527-1.602 4.551-1.068 1.023-2.643 1.535-4.725 1.535-1.939 0-3.554-.368-4.847-1.104-.664-.377-.996-.826-.996-1.347 0-.305.085-.556.256-.754a.8.8 0 0 1 .633-.296c.233 0 .601.135 1.103.404.646.305 1.248.543 1.804.714.557.17 1.221.256 1.993.256 2.477 0 3.716-1.248 3.716-3.743v-2.074a4.126 4.126 0 0 1-1.723 1.845c-.773.44-1.67.659-2.693.659-1.149 0-2.172-.269-3.069-.807-.898-.539-1.594-1.301-2.087-2.289-.494-.987-.741-2.127-.741-3.419 0-1.293.252-2.433.754-3.42.503-.987 1.198-1.754 2.087-2.302.889-.548 1.907-.822 3.056-.822 1.005 0 1.889.216 2.652.646a4.238 4.238 0 0 1 1.737 1.831v-1.13c0-.395.122-.709.363-.942.242-.234.57-.351.983-.351.413 0 .741.122.983.364M93.874 118.186c-.628.664-1.005 1.598-1.131 2.8h6.947c-.054-1.221-.363-2.158-.929-2.813-.565-.656-1.359-.984-2.383-.984-1.041 0-1.876.333-2.504.997m7.809 7.458c.161.198.242.45.242.755 0 .52-.323.96-.969 1.319a8.542 8.542 0 0 1-2.061.834 8.327 8.327 0 0 1-2.14.297c-2.083 0-3.725-.606-4.928-1.818-1.202-1.212-1.803-2.867-1.803-4.967 0-1.347.264-2.54.794-3.582.529-1.041 1.274-1.848 2.235-2.423.96-.574 2.051-.862 3.272-.862 1.759 0 3.15.565 4.173 1.696 1.023 1.132 1.534 2.658 1.534 4.578 0 .718-.322 1.077-.969 1.077h-8.32c.179 2.782 1.517 4.173 4.012 4.173.664 0 1.239-.089 1.723-.269.485-.179.997-.413 1.535-.7.054-.036.202-.111.444-.229.243-.116.445-.175.606-.175.252 0 .458.099.62.296M115.455 126.842c.207.188.31.444.31.768 0 .323-.103.578-.31.767-.206.188-.507.283-.902.283h-9.208c-.396 0-.709-.112-.943-.337a1.121 1.121 0 0 1-.349-.848c0-.34.134-.673.403-.996l7.485-8.859h-6.758c-.377 0-.668-.094-.875-.283-.206-.188-.31-.444-.31-.767s.104-.579.31-.767c.207-.189.498-.283.875-.283h8.94c.377 0 .686.117.929.35.242.233.363.512.363.834 0 .342-.134.674-.404.997l-7.486 8.859h7.028c.395 0 .696.094.902.282M117.785 122.292c-.216-.188-.323-.453-.323-.795 0-.34.107-.61.323-.807.215-.197.529-.296.942-.296h5.735c.413 0 .728.099.942.296.216.197.324.467.324.807 0 .342-.108.607-.324.795-.214.188-.529.282-.942.282h-5.735c-.413 0-.727-.094-.942-.282M138.664 115.466a1.25 1.25 0 0 1 .659-.188c.341 0 .642.117.903.35.259.233.39.511.39.835 0 .179-.036.349-.108.511l-5.142 10.905a1.39 1.39 0 0 1-.58.66c-.26.152-.533.229-.821.229-.287 0-.561-.077-.821-.229a1.394 1.394 0 0 1-.579-.66l-5.143-10.905a1.126 1.126 0 0 1-.108-.511c0-.324.144-.602.431-.835.287-.233.611-.35.971-.35.52 0 .905.251 1.157.753l4.173 9.263 4.146-9.236c.108-.269.266-.466.472-.592M151.132 125.51c.637-.79.955-1.948.955-3.474 0-1.507-.322-2.661-.969-3.46-.646-.798-1.561-1.198-2.746-1.198s-2.1.4-2.746 1.198c-.647.799-.97 1.953-.97 3.46 0 1.526.319 2.684.956 3.474s1.557 1.184 2.76 1.184c1.202 0 2.123-.394 2.76-1.184m-6.166 2.504c-.979-.556-1.733-1.351-2.262-2.383-.53-1.032-.794-2.23-.794-3.595 0-1.382.264-2.589.794-3.621.529-1.032 1.283-1.827 2.262-2.383.978-.556 2.113-.835 3.406-.835 1.293 0 2.428.279 3.406.835.978.556 1.732 1.351 2.262 2.383.529 1.032.794 2.239.794 3.621 0 1.365-.265 2.563-.794 3.595-.53 1.032-1.284 1.827-2.262 2.383-.978.557-2.113.835-3.406.835-1.293 0-2.428-.278-3.406-.835M169.01 115.601c.242.233.364.557.364.969v10.959c0 .377-.126.682-.378.915-.252.233-.583.351-.996.351-.377 0-.683-.113-.916-.337-.233-.224-.349-.525-.349-.902v-1.023a4.224 4.224 0 0 1-1.71 1.723c-.727.395-1.54.592-2.437.592-3.195 0-4.793-1.759-4.793-5.277v-7.001c0-.412.121-.736.364-.969.242-.233.578-.351 1.01-.351.413 0 .739.118.982.351.242.233.364.557.364.969v6.974c0 1.059.215 1.84.646 2.343.43.502 1.095.753 1.992.753 1.059 0 1.908-.34 2.545-1.022.637-.682.957-1.589.957-2.72v-6.328c0-.395.125-.713.376-.956.251-.242.584-.364.996-.364.412 0 .74.118.983.351M173.251 127.718c-.323-.197-.552-.404-.687-.62a1.345 1.345 0 0 1-.202-.726c0-.288.081-.53.242-.728a.767.767 0 0 1 .62-.296c.233 0 .601.145 1.103.431.539.288 1.064.521 1.575.701.512.179 1.154.269 1.926.269.862 0 1.535-.153 2.02-.458.484-.305.726-.736.726-1.293 0-.358-.094-.646-.282-.861-.189-.216-.516-.409-.983-.579-.467-.171-1.158-.355-2.073-.552-1.58-.341-2.716-.804-3.407-1.387-.691-.583-1.036-1.378-1.036-2.383 0-.771.224-1.467.673-2.087.449-.619 1.068-1.099 1.858-1.44.79-.341 1.687-.512 2.693-.512.717 0 1.418.095 2.1.283a5.912 5.912 0 0 1 1.803.822c.593.394.889.852.889 1.372 0 .288-.085.531-.256.728-.171.197-.372.296-.605.296a1.18 1.18 0 0 1-.485-.108 6.376 6.376 0 0 1-.646-.35 9.275 9.275 0 0 0-1.36-.674c-.422-.161-.947-.241-1.575-.241-.754 0-1.36.161-1.817.484-.458.323-.688.764-.688 1.319 0 .503.212.893.633 1.171.422.279 1.217.544 2.383.795 1.203.252 2.145.538 2.828.862.682.322 1.171.722 1.467 1.198.296.476.445 1.082.445 1.817 0 1.168-.489 2.105-1.468 2.814-.979.71-2.285 1.064-3.918 1.064-1.831 0-3.329-.377-4.496-1.131M200.364 125.819c.628-.673.943-1.539.943-2.598v-.7h-.485c-1.4 0-2.477.063-3.231.188-.754.126-1.292.337-1.616.633-.323.296-.484.722-.484 1.279 0 .646.233 1.176.7 1.588.466.414 1.05.62 1.75.62.987 0 1.796-.337 2.423-1.01m2.303-9.303c.852.88 1.278 2.217 1.278 4.012v6.974c0 .413-.115.732-.349.956-.234.224-.556.337-.97.337-.395 0-.709-.118-.942-.351-.233-.233-.351-.547-.351-.942v-.997c-.341.755-.846 1.333-1.519 1.738-.673.404-1.459.605-2.357.605-.862 0-1.653-.175-2.369-.525-.719-.35-1.28-.839-1.684-1.467a3.813 3.813 0 0 1-.606-2.1c0-.952.246-1.701.742-2.249.493-.547 1.31-.937 2.45-1.171 1.14-.233 2.706-.35 4.698-.35h.62v-.781c0-1.005-.208-1.732-.62-2.181-.412-.448-1.077-.673-1.993-.673-.627 0-1.22.081-1.776.242-.557.161-1.167.395-1.831.7-.486.269-.827.404-1.024.404a.837.837 0 0 1-.66-.296c-.171-.197-.255-.449-.255-.754 0-.27.076-.507.228-.714.152-.206.399-.407.74-.606.629-.341 1.365-.614 2.208-.821a10.325 10.325 0 0 1 2.451-.309c1.741 0 3.038.44 3.891 1.319M218.823 115.601c.242.233.364.557.364.969v10.959c0 .377-.126.682-.378.915-.252.233-.583.351-.996.351-.377 0-.683-.113-.916-.337-.233-.224-.349-.525-.349-.902v-1.023a4.224 4.224 0 0 1-1.71 1.723c-.727.395-1.54.592-2.437.592-3.195 0-4.793-1.759-4.793-5.277v-7.001c0-.412.121-.736.364-.969.242-.233.578-.351 1.01-.351.413 0 .739.118.982.351.242.233.364.557.364.969v6.974c0 1.059.215 1.84.646 2.343.43.502 1.095.753 1.992.753 1.059 0 1.908-.34 2.545-1.022.637-.682.956-1.589.956-2.72v-6.328c0-.395.125-.713.377-.956.251-.242.583-.364.996-.364.412 0 .74.118.983.351M230.171 127.718c-.323-.197-.552-.404-.687-.62a1.345 1.345 0 0 1-.202-.726c0-.288.081-.53.242-.728a.767.767 0 0 1 .62-.296c.233 0 .601.145 1.103.431.539.288 1.064.521 1.575.701.512.179 1.154.269 1.926.269.862 0 1.535-.153 2.02-.458.484-.305.726-.736.726-1.293 0-.358-.094-.646-.282-.861-.189-.216-.516-.409-.983-.579-.467-.171-1.158-.355-2.073-.552-1.58-.341-2.716-.804-3.407-1.387-.691-.583-1.036-1.378-1.036-2.383 0-.771.224-1.467.673-2.087.449-.619 1.068-1.099 1.858-1.44.79-.341 1.687-.512 2.693-.512.717 0 1.418.095 2.1.283a5.912 5.912 0 0 1 1.803.822c.593.394.889.852.889 1.372 0 .288-.085.531-.256.728-.171.197-.372.296-.605.296a1.18 1.18 0 0 1-.485-.108 6.376 6.376 0 0 1-.646-.35 9.275 9.275 0 0 0-1.36-.674c-.422-.161-.947-.241-1.575-.241-.754 0-1.36.161-1.817.484-.458.323-.688.764-.688 1.319 0 .503.212.893.633 1.171.422.279 1.217.544 2.383.795 1.203.252 2.145.538 2.828.862.682.322 1.171.722 1.467 1.198.296.476.445 1.082.445 1.817 0 1.168-.489 2.105-1.468 2.814-.979.71-2.285 1.064-3.918 1.064-1.831 0-3.329-.377-4.496-1.131M246.165 118.186c-.628.664-1.005 1.598-1.131 2.8h6.947c-.054-1.221-.363-2.158-.929-2.813-.565-.656-1.359-.984-2.383-.984-1.041 0-1.876.333-2.504.997m7.809 7.458c.161.198.242.45.242.755 0 .52-.323.96-.969 1.319a8.542 8.542 0 0 1-2.061.834 8.327 8.327 0 0 1-2.14.297c-2.083 0-3.725-.606-4.928-1.818-1.202-1.212-1.803-2.867-1.803-4.967 0-1.347.264-2.54.794-3.582.529-1.041 1.274-1.848 2.235-2.423.96-.574 2.051-.862 3.272-.862 1.759 0 3.15.565 4.173 1.696 1.023 1.132 1.534 2.658 1.534 4.578 0 .718-.322 1.077-.969 1.077h-8.32c.179 2.782 1.517 4.173 4.012 4.173.664 0 1.239-.089 1.723-.269.485-.179.997-.413 1.535-.7.054-.036.202-.111.444-.229.243-.116.445-.175.606-.175.252 0 .458.099.62.296M265.498 116.355c0 .395-.099.692-.296.889-.197.197-.538.314-1.023.349l-.808.081c-1.131.108-1.97.503-2.518 1.185-.547.682-.821 1.508-.821 2.477v6.166c0 .432-.125.754-.377.97-.251.215-.575.323-.969.323-.395 0-.723-.108-.983-.323-.26-.216-.391-.538-.391-.97v-10.959c0-.412.131-.731.391-.956.26-.223.588-.336.983-.336.359 0 .66.113.902.336.243.225.364.535.364.929v1.293c.358-.79.879-1.391 1.561-1.804.682-.413 1.455-.655 2.316-.727l.377-.027c.862-.054 1.292.314 1.292 1.104M277.789 115.466c.207-.125.428-.188.659-.188.344 0 .642.117.905.35.259.233.389.511.389.835 0 .179-.035.349-.109.511l-5.143 10.905a1.379 1.379 0 0 1-.579.66 1.598 1.598 0 0 1-.82.229c-.288 0-.561-.077-.821-.229a1.379 1.379 0 0 1-.579-.66l-5.144-10.905a1.126 1.126 0 0 1-.108-.511c0-.324.144-.602.432-.835.286-.233.61-.35.969-.35.521 0 .906.251 1.159.753l4.173 9.263 4.147-9.236c.109-.269.263-.466.47-.592M282.368 128.472c-.261-.216-.391-.538-.391-.969v-10.932c0-.431.13-.758.391-.983.259-.224.587-.337.983-.337.395 0 .717.113.97.337.251.225.377.552.377.983v10.932c0 .431-.126.753-.377.969-.253.216-.575.323-.97.323-.396 0-.724-.107-.983-.323m-.256-16.291c-.305-.286-.457-.663-.457-1.13 0-.467.152-.839.457-1.118.305-.278.717-.417 1.239-.417.502 0 .91.139 1.224.417.314.279.472.651.472 1.118 0 .467-.153.844-.458 1.13-.305.288-.719.432-1.238.432-.522 0-.934-.144-1.239-.432M290.768 128.014c-.961-.557-1.706-1.346-2.235-2.37-.529-1.023-.794-2.208-.794-3.554 0-1.364.273-2.567.822-3.608a5.938 5.938 0 0 1 2.302-2.423c.987-.575 2.117-.862 3.392-.862.682 0 1.369.099 2.059.296a7.074 7.074 0 0 1 1.845.808c.575.395.862.852.862 1.373 0 .306-.081.562-.242.768a.753.753 0 0 1-.62.309c-.162 0-.323-.04-.484-.121a6.757 6.757 0 0 1-.619-.364 7.594 7.594 0 0 0-1.253-.66c-.386-.151-.847-.228-1.387-.228-1.22 0-2.167.413-2.84 1.238-.673.827-1.01 1.976-1.01 3.447 0 1.472.332 2.608.996 3.407.664.798 1.608 1.198 2.828 1.198.538 0 1.013-.081 1.427-.243a7.65 7.65 0 0 0 1.265-.646 4.95 4.95 0 0 1 .593-.323c.198-.09.377-.135.538-.135.251 0 .457.104.619.31.163.207.243.463.243.768 0 .251-.068.48-.203.686-.133.207-.363.417-.685.633a6.466 6.466 0 0 1-1.885.834 8.22 8.22 0 0 1-2.182.296c-1.275 0-2.391-.277-3.352-.834M304.596 118.186c-.629.664-1.006 1.598-1.132 2.8h6.947c-.053-1.221-.363-2.158-.929-2.813-.565-.656-1.359-.984-2.383-.984-1.041 0-1.875.333-2.503.997m7.808 7.458c.161.198.242.45.242.755 0 .52-.323.96-.97 1.319a8.494 8.494 0 0 1-2.059.834 8.335 8.335 0 0 1-2.141.297c-2.082 0-3.725-.606-4.927-1.818-1.203-1.212-1.804-2.867-1.804-4.967 0-1.347.264-2.54.794-3.582.529-1.041 1.274-1.848 2.235-2.423.96-.574 2.051-.862 3.271-.862 1.76 0 3.15.565 4.174 1.696 1.024 1.132 1.535 2.658 1.535 4.578 0 .718-.324 1.077-.969 1.077h-8.321c.18 2.782 1.518 4.173 4.012 4.173.665 0 1.24-.089 1.723-.269.486-.179.996-.413 1.536-.7.053-.036.202-.111.443-.229.242-.116.446-.175.607-.175.251 0 .458.099.619.296M331.304 125.483c.647-.808.969-1.956.969-3.446 0-1.49-.319-2.64-.955-3.447-.638-.808-1.548-1.212-2.733-1.212s-2.105.4-2.761 1.198c-.654.8-.982 1.935-.982 3.406 0 1.473.332 2.626.996 3.461.665.834 1.58 1.251 2.747 1.251 1.166 0 2.074-.403 2.719-1.211m3.285-15.59c.251.234.377.548.377.942v16.64c0 .414-.121.737-.363.97-.242.233-.57.35-.983.35-.412 0-.74-.117-.982-.35-.244-.233-.365-.556-.365-.97v-1.076a4.16 4.16 0 0 1-1.723 1.817c-.754.422-1.625.633-2.612.633-1.13 0-2.14-.287-3.029-.862-.889-.574-1.579-1.382-2.072-2.423-.494-1.041-.741-2.235-.741-3.582 0-1.364.247-2.557.741-3.58.493-1.024 1.18-1.814 2.06-2.37.878-.556 1.893-.835 3.041-.835.987 0 1.853.212 2.598.633a4.231 4.231 0 0 1 1.711 1.791v-6.839c0-.377.121-.678.363-.902.242-.225.57-.337.983-.337.412 0 .745.117.996.35M349.924 115.601c.242.233.363.557.363.969v10.959c0 .377-.125.682-.377.915-.251.233-.584.351-.996.351-.377 0-.682-.113-.915-.337-.235-.224-.35-.525-.35-.902v-1.023a4.236 4.236 0 0 1-1.71 1.723c-.727.395-1.54.592-2.436.592-3.196 0-4.795-1.759-4.795-5.277v-7.001c0-.412.123-.736.365-.969.242-.233.578-.351 1.01-.351.412 0 .739.118.981.351.244.233.365.557.365.969v6.974c0 1.059.216 1.84.645 2.343.431.502 1.096.753 1.993.753 1.059 0 1.908-.34 2.546-1.022.636-.682.955-1.589.955-2.72v-6.328c0-.395.124-.713.377-.956.251-.242.584-.364.996-.364.413 0 .741.118.983.351M363.468 128.014c-.961-.557-1.706-1.346-2.235-2.37-.529-1.023-.794-2.208-.794-3.554 0-1.364.273-2.567.822-3.608a5.938 5.938 0 0 1 2.302-2.423c.987-.575 2.117-.862 3.392-.862.682 0 1.369.099 2.059.296a7.074 7.074 0 0 1 1.845.808c.575.395.862.852.862 1.373 0 .306-.081.562-.242.768a.753.753 0 0 1-.62.309c-.162 0-.323-.04-.484-.121a6.757 6.757 0 0 1-.619-.364 7.594 7.594 0 0 0-1.253-.66c-.386-.151-.847-.228-1.387-.228-1.22 0-2.167.413-2.84 1.238-.673.827-1.01 1.976-1.01 3.447 0 1.472.332 2.608.996 3.407.664.798 1.608 1.198 2.828 1.198.538 0 1.013-.081 1.427-.243a7.65 7.65 0 0 0 1.265-.646 4.95 4.95 0 0 1 .593-.323c.198-.09.377-.135.538-.135.251 0 .457.104.619.31.163.207.243.463.243.768 0 .251-.068.48-.203.686-.133.207-.363.417-.685.633a6.466 6.466 0 0 1-1.885.834 8.22 8.22 0 0 1-2.182.296c-1.275 0-2.391-.277-3.352-.834M374.589 128.472c-.261-.216-.391-.538-.391-.969v-10.932c0-.431.13-.758.391-.983.259-.224.587-.337.983-.337.395 0 .717.113.97.337.251.225.377.552.377.983v10.932c0 .431-.126.753-.377.969-.253.216-.575.323-.97.323-.396 0-.724-.107-.983-.323m-.256-16.291c-.305-.286-.457-.663-.457-1.13 0-.467.152-.839.457-1.118.305-.278.717-.417 1.239-.417.502 0 .91.139 1.224.417.314.279.472.651.472 1.118 0 .467-.153.844-.458 1.13-.305.288-.719.432-1.238.432-.522 0-.934-.144-1.239-.432M387.998 127.031c.17.171.256.409.256.714 0 .359-.139.632-.417.821-.279.189-.687.264-1.226.229l-.727-.054c-1.453-.108-2.54-.552-3.257-1.332-.719-.781-1.078-1.935-1.078-3.461v-6.327h-1.615c-.79 0-1.185-.351-1.185-1.05 0-.324.104-.579.31-.768.206-.188.498-.282.875-.282h1.615v-2.774c0-.412.121-.736.364-.969.242-.233.57-.35.982-.35.414 0 .745.117.997.35.251.233.377.557.377.969v2.774h2.665c.377 0 .67.094.876.282.206.189.309.444.309.768 0 .341-.103.601-.309.781-.206.18-.499.269-.876.269h-2.665v6.516c0 .844.176 1.463.525 1.858.35.394.883.619 1.602.673l.754.054c.394.036.678.139.848.309M398.687 125.51c.636-.79.955-1.948.955-3.474 0-1.507-.322-2.661-.969-3.46-.645-.798-1.562-1.198-2.745-1.198-1.185 0-2.102.4-2.747 1.198-.647.799-.97 1.953-.97 3.46 0 1.526.32 2.684.957 3.474.635.79 1.555 1.184 2.76 1.184 1.202 0 2.122-.394 2.76-1.184m-6.167 2.504a5.63 5.63 0 0 1-2.262-2.383c-.53-1.032-.793-2.23-.793-3.595 0-1.382.263-2.589.793-3.621a5.63 5.63 0 0 1 2.262-2.383c.977-.556 2.113-.835 3.407-.835 1.293 0 2.426.279 3.406.835a5.63 5.63 0 0 1 2.262 2.383c.529 1.032.793 2.239.793 3.621 0 1.365-.264 2.563-.793 3.595a5.63 5.63 0 0 1-2.262 2.383c-.98.557-2.113.835-3.406.835-1.293 0-2.43-.278-3.407-.835M415.031 115.466c.207-.125.426-.188.659-.188.342 0 .642.117.903.35.259.233.391.511.391.835 0 .179-.037.349-.109.511l-7.485 15.886a1.256 1.256 0 0 1-.472.579 1.184 1.184 0 0 1-.659.202c-.322 0-.615-.108-.875-.323a1.003 1.003 0 0 1-.39-.808c0-.143.043-.323.135-.538l1.858-3.958-5.198-11.04a1.063 1.063 0 0 1-.107-.484c0-.341.144-.629.43-.862.287-.233.61-.35.969-.35.54 0 .926.251 1.159.753l4.174 9.263 4.145-9.236c.109-.269.265-.466.472-.592M422.127 118.186c-.629.664-1.006 1.598-1.132 2.8h6.947c-.053-1.221-.363-2.158-.929-2.813-.565-.656-1.359-.984-2.383-.984-1.041 0-1.875.333-2.503.997m7.808 7.458c.161.198.242.45.242.755 0 .52-.323.96-.97 1.319a8.494 8.494 0 0 1-2.059.834 8.335 8.335 0 0 1-2.141.297c-2.082 0-3.725-.606-4.927-1.818-1.203-1.212-1.804-2.867-1.804-4.967 0-1.347.264-2.54.794-3.582.529-1.041 1.274-1.848 2.235-2.423.96-.574 2.051-.862 3.271-.862 1.76 0 3.15.565 4.174 1.696 1.024 1.132 1.535 2.658 1.535 4.578 0 .718-.324 1.077-.969 1.077h-8.321c.18 2.782 1.518 4.173 4.012 4.173.665 0 1.24-.089 1.723-.269.486-.179.996-.413 1.536-.7.053-.036.202-.111.443-.229.242-.116.446-.175.607-.175.251 0 .458.099.619.296M445.066 120.502v7.001c0 .412-.121.731-.363.956-.244.223-.58.336-1.01.336-.413 0-.741-.117-.983-.35-.242-.233-.363-.547-.363-.942v-6.867c0-1.112-.221-1.929-.661-2.45-.44-.52-1.127-.781-2.06-.781-1.095 0-1.973.341-2.638 1.023-.664.683-.995 1.598-.995 2.747v6.328c0 .395-.123.709-.365.942-.242.233-.57.35-.982.35-.413 0-.745-.117-.997-.35-.251-.233-.377-.547-.377-.942v-10.959c0-.377.13-.687.391-.929.259-.242.587-.364.983-.364.395 0 .708.117.942.351.233.233.35.538.35.915v1.104a4.374 4.374 0 0 1 1.804-1.804c.771-.413 1.643-.62 2.612-.62 3.141 0 4.712 1.768 4.712 5.305" style="fill:#075e81;fill-rule:nonzero"/></svg>