<svg viewBox="0 0 377 377" xmlns="http://www.w3.org/2000/svg" xml:space="preserve" style="fill-rule:evenodd;clip-rule:evenodd;stroke-linejoin:round;stroke-miterlimit:2"><path style="fill:#ef3d34;fill-rule:nonzero" d="M0 .1h376.897V377H0z"/><path d="m117.81 337.683-.955-.405a165.808 165.808 0 0 1-24.509-14.538l-.587-.483c-2.994-2.296-13.592 5.723-19.124 2.596-6.381-3.608 1.537-17.049-1.942-20.658-.741-.769.748.768 0 0l-.586-.592c-6.562-6.744-12.824-14.59-18.163-22.375-2.062-3.16-14.606.549-18.787-4.232-4.824-5.521 7.097-15.578 5.015-20.135-.447-.974.451.97 0 0l-.365-.739c-3.751-8.353-6.827-17.394-9.16-26.411-.9-3.67-13.749-3.926-16.111-9.819-2.758-6.877 11.831-12.581 11.393-17.337l.006-.659c-.35-4.372-.525-8.799-.525-13.267 0-5.739.292-11.413.862-17.003l.066-.518c.558-3.737-13.245-6.835-12.38-14.527.985-8.734 15.844-6.788 17.344-11.586l.262-1.156a163.516 163.516 0 0 1 9.185-24.753l.258-.463c1.689-3.371-8.191-12.261-6.167-18.287 2.336-6.946 17.349-2.102 20.232-6.199l.563-.682c5.322-7.516 12.052-15.286 18.527-21.794.817-.822-.47.497.371-.301 2.736-2.6-5.199-14.301-.412-18.474 4.386-3.823 15.191 5.338 19.296 2.464.875-.613.542-.55 1.414-1.172a164.35 164.35 0 0 1 23.503-13.936l1.206-.627c.974-.446-.969.448 0 0 4.54-2.124 1.966-17.509 9.216-18.592 6.285-.936 13.423 9.837 17.041 8.766l1.284-.319a164.107 164.107 0 0 1 28.175-5.039l1.412-.327c1.065-.086-1.064.094 0 0 4.99-.45 7.815-15.788 15.002-14.334 6.223 1.26 8.977 14.264 12.748 14.49l.893.171a163.568 163.568 0 0 1 28.447 5.114l1.563.346c3.617 1.072 10.637-10.215 16.922-9.276 7.254 1.078 5.072 17.316 9.61 19.436 8.233 3.98 17.007 9.487 24.413 14.724 3.029 2.261 13.518-5.908 19.087-2.858 6.433 3.519-1.302 17.068 2.23 20.629l2.202 2.483a166.247 166.247 0 0 1 16.002 19.636l.663.888c2.884 4.094 17.582-1.138 19.92 5.812 2.017 6.023-7.86 14.912-6.168 18.29l.169.612a163.993 163.993 0 0 1 8.85 24.352l.295.935c1.504 4.798 16.438 3.319 17.424 12.057.867 7.69-13.162 10.684-12.6 14.42l.049.499a167.939 167.939 0 0 1 .184 30.186l-.03.926c-.459 4.991 14.543 10.475 11.825 17.276-2.368 5.9-15.659 6.256-16.555 9.924l-.27.646a163.683 163.683 0 0 1-9.441 26.093l-.394.798c-.448.965.449-.974 0 0-2.081 4.553 9.842 14.611 5.011 20.131-4.176 4.781-16.838.724-18.894 3.888l-.053.213a165.797 165.797 0 0 1-18.117 21.822c-3.479 3.608 4.165 17.227-2.211 20.83-5.533 3.129-16.135-4.895-19.127-2.592l-.645.466a164.567 164.567 0 0 1-24.037 14.175l-.926.515c-4.505 2.189-1.712 17.538-8.951 18.722-6.265 1.025-13.994-10.047-17.595-8.917l-.677.159a164.4 164.4 0 0 1-28.361 5.059l-1.134.216c-3.77.225-6.506 13.01-12.735 14.274-7.182 1.456-10.807-14.026-15.799-14.473l-.932-.104a164.042 164.042 0 0 1-27.942-5.107l-.805-.208c-3.597-1.136-10.816 10.027-17.08 8.98-7.233-1.207-4.389-16.545-8.888-18.745Z" style="fill:#fff;fill-rule:nonzero"/><path d="m119.791 333.496-.929-.396a159.675 159.675 0 0 1-23.823-14.132l-.569-.464c-2.911-2.238-13.213 5.56-18.589 2.527-6.202-3.506 1.494-16.572-1.886-20.082-.72-.748.727.742 0 0l-.571-.576c-6.378-6.557-12.465-14.178-17.654-21.75-2.005-3.071-14.194.537-18.258-4.115-4.693-5.362 6.897-15.138 4.871-19.57-.433-.943.439.945 0 0l-.352-.715c-3.647-8.123-6.635-16.898-8.905-25.671-.875-3.564-13.362-3.812-15.659-9.544-2.681-6.684 11.501-12.223 11.076-16.852l.002-.635c-.34-4.254-.511-8.555-.511-12.895 0-5.584.282-11.097.842-16.529l.061-.504c.543-3.632-12.873-6.644-12.031-14.121.956-8.488 15.399-6.597 16.857-11.259l.257-1.13a159.007 159.007 0 0 1 8.926-24.056l.248-.446c1.646-3.277-7.957-11.923-5.992-17.773 2.269-6.754 16.858-2.05 19.665-6.029l.547-.663c5.173-7.304 11.715-14.858 18.006-21.184.794-.796-.456.482.359-.29 2.664-2.531-5.05-13.9-.399-17.96 4.266-3.71 14.767 5.192 18.757 2.396.85-.596.526-.537 1.373-1.136a159.998 159.998 0 0 1 22.843-13.55l1.175-.608c.944-.432-.942.436 0 0 4.41-2.064 1.91-17.019 8.957-18.068 6.106-.913 13.047 9.561 16.563 8.515l1.249-.305a159.797 159.797 0 0 1 27.387-4.901l1.371-.315c1.035-.087-1.035.095 0 0 4.848-.437 7.595-15.352 14.576-13.938 6.053 1.232 8.729 13.868 12.389 14.085l.881.168a159.628 159.628 0 0 1 27.642 4.97l1.522.34c3.514 1.042 10.344-9.929 16.451-9.019 7.041 1.048 4.926 16.828 9.335 18.893 8.011 3.866 16.534 9.221 23.733 14.309 2.94 2.2 13.135-5.737 18.549-2.775 6.25 3.422-1.265 16.589 2.16 20.047l2.147 2.418a161.465 161.465 0 0 1 15.555 19.085l.638.864c2.809 3.98 17.089-1.106 19.364 5.648 1.966 5.851-7.638 14.497-5.995 17.774l.163.597a159.875 159.875 0 0 1 8.609 23.669l.283.911c1.459 4.664 15.983 3.221 16.934 11.719.845 7.47-12.785 10.385-12.244 14.013l.045.487c.5 5.151.755 10.369.755 15.651 0 4.61-.193 9.181-.576 13.696l-.023.891c-.446 4.851 14.131 10.179 11.48 16.795-2.294 5.728-15.208 6.082-16.084 9.644l-.263.627a158.93 158.93 0 0 1-9.18 25.362l-.375.776c-.439.938.433-.944 0 0-2.026 4.423 9.566 14.206 4.873 19.567-4.066 4.647-16.369.703-18.373 3.78l-.046.205a160.697 160.697 0 0 1-17.61 21.208c-3.383 3.506 4.047 16.748-2.153 20.251-5.373 3.037-15.679-4.758-18.586-2.524l-.631.449a160.124 160.124 0 0 1-23.356 13.784l-.903.505c-4.381 2.121-1.668 17.04-8.701 18.193-6.09.997-13.604-9.76-17.106-8.669l-.652.155a159.362 159.362 0 0 1-27.571 4.921l-1.103.21c-3.662.222-6.32 12.648-12.373 13.874-6.984 1.414-10.505-13.635-15.36-14.072l-.908-.098a159.527 159.527 0 0 1-27.153-4.967l-.783-.2c-3.497-1.104-10.513 9.749-16.604 8.732-7.025-1.173-4.265-16.082-8.636-18.225Z" style="fill:#005099;fill-rule:nonzero"/><path d="M39.207 188.626s13.567-40.701 14.895-44.692c3.723-7.184-4.521-25.404-19.019-1.064-1.329 2.264-4.654 16.094 3.192 15.428 3.991-2.395 5.583 9.179-9.312 6.519-15.96-7.446-9.444-40.434 28.862-40.434 34.582 1.595 21.282 27.53 21.282 27.53h12.234l8.515-23.938h27.665l-24.472 71.291s-5.322 25.005 29.26 19.15c14.363-4.255 83.531-25.004 122.367-23.407 21.276-1.066 73.594 8.395 86.186 28.729-44.694-19.686-64.91.533-64.91.533s-10.643-22.345-51.603-18.091c-20.747-1.594-96.828 19.153-114.917 17.558-43.63 1.441-31.921-30.326-31.921-30.326l11.172-34.582H77.511l-11.172 29.264-27.132.532Z" style="fill:#fff;fill-rule:nonzero"/><path d="M142.95 158.298c2.799-2.799 9.979-5.162 13.969-4.361 3.988.798 4.787 14.362-16.958 15.163 0 0-1.002-6.808 2.989-10.802Zm198.707 18.555c2.394 6.184-2.797 8.181-4.787 9.177-16.959.2-12.77-6.384-12.77-6.384l24.734-27.733s-14.164 1.398-27.325-2.791c-2.315-.737-11.292-2.3-16.362 3.989-4.988 6.185-10.49 22.607-15.961 25.536-5.59 2.994-7.381-1.596-5.59-6.583 1.008-2.788 6.192-16.758 6.192-16.758h7.779l1.594-5.185h-7.78l5.784-16.361-20.147 3.792-4.592 12.569h-6.781v4.985h5.387l-2.397 5.987s-6.384 15.361-11.17 17.554c-1.025.471-9.175 2.197-5.984-3.989 1.477-2.865 4.986-8.378 4.787-15.162-.103-3.589-1.629-8.46-10.174-9.575-9.176-1.2-15.564 3.787-18.556 3.19v-2.99h-17.555l-9.178 21.943s-2.394 7.783-8.379 6.583c-5.983-1.196-1.593-8.778-1.593-8.778l7.978-19.748h-19.95s-5.987 19.352-7.58 21.943c-1.597 2.594-7.185 12.172-19.752 11.57 0 0-12.37 1.799-11.574-9.377 26.734-2.193 28.531-15.356 28.531-15.356s1.994-10.976-19.952-8.78c-26.333 1.195-28.326 19.748-28.326 19.748s-2.996 18.155 26.733 18.757c15.162.307 22.143-7.983 22.143-7.983s3.99 9.975 14.563 8.179c6.682-1.131 13.768-5.986 13.768-5.986l-.598 3.994h19.551l9.576-24.939c2.39-5.587 13.564-7.582 10.769 0l-5.779 15.16c-1.197 2.996 1.809 12.146 13.361 11.375 11.973-.8 17.364-7.783 17.364-7.783s4.982 7.582 13.562 7.983c16.758-.802 21.758-16.353 23.342-18.556 3.592-4.987 7.982-17.756 15.361-18.157 7.381-.399 12.77 1.995 11.17 3.794l-27.527 32.117s9.375-1.393 19.549-.198c10.177 1.196 11.174 1.597 16.357 2.593 5.191.996 8.383-.395 10.379-1.994 1.994-1.594 2.397-1.199 3.592-6.584 1.197-5.387-6.989-6.386-5.787-4.788Z" style="fill:#fff;fill-rule:nonzero"/><path d="M192.028 145.825c5.922 0 10.719-3.348 10.719-7.475 0-4.13-4.797-7.48-10.719-7.48-5.92 0-10.72 3.35-10.72 7.48 0 4.127 4.8 7.475 10.72 7.475ZM64.146 253.601l6.434 11.496-2.718 1.519-8.148-14.559 22.679-12.69 1.715 3.062-19.962 11.172ZM106.623 273.272l-12.721 11.075c-4.013 3.49-9.586 3.927-14.266-1.454-4.587-5.265-3.174-10.479.484-13.663l13.078-11.384 2.304 2.649-12.34 10.741c-4.258 3.705-3.175 7.322-1.107 9.699 2.115 2.43 5.609 4.183 9.869.478l12.395-10.79 2.304 2.649ZM112.824 310.856l-3.5-2.569.695-12.74-12.129 4.337-3.412-2.507 15.384-5.227.474-15.371 3.558 2.616-.586 11.923 11.203-4.121 3.382 2.485-14.53 5.042-.539 16.132ZM139.509 323.698l-17.521-7.809 10.578-23.739 17.289 7.703-1.266 2.846-14.082-6.277-3.242 7.273 12.991 5.792-1.266 2.843-12.994-5.791-3.534 7.935 14.314 6.377-1.267 2.847ZM171.687 331.197l2.731-15.101c.137-.746.793-3.975 1.227-6.36l-.072-.013-11.079 20.173-3.421-.617-3.315-22.744-.072-.011c-.425 2.349-.939 5.603-1.073 6.353l-2.734 15.1-3.347-.604 4.626-25.574 4.95.896 3.391 22.94.071.013 11.176-20.303 4.916.889-4.628 25.571-3.347-.608ZM190.04 319.871l6.902-.386c2.85-.155 6.107.384 6.31 4.037.163 2.889-1.576 4.835-5.224 5.039l-7.482.417-.506-9.107Zm-2.831 12.304 11.165-.625c5.748-.322 8.623-3.997 8.388-8.156-.244-4.444-3.312-5.466-5.052-6.058 2.783-1.498 3.265-3.918 3.168-5.615-.196-3.541-2.858-6.403-7.703-6.129l-11.419.634 1.453 25.949Zm2.223-23.144 6.36-.359c3.904-.213 5.458 1.074 5.594 3.497.179 3.179-1.823 4.306-5.184 4.493l-6.325.355-.445-7.986ZM237.528 310.001c-1.586-5.38-6.719-12.285-16.02-9.54-9.306 2.742-9.865 11.322-8.277 16.701 1.582 5.383 6.709 12.286 16.012 9.542 9.308-2.743 9.873-11.323 8.285-16.703Zm-3.471 1.022c1.729 5.869-.279 11.102-5.691 12.696-5.418 1.598-9.942-1.711-11.668-7.578-1.729-5.868.273-11.096 5.687-12.696 5.418-1.595 9.94 1.713 11.672 7.578ZM256.12 284.971l8.468 14.586c2.67 4.601 2.046 10.155-4.121 13.733-6.043 3.511-10.894 1.136-13.328-3.057l-8.707-14.995 3.037-1.76 8.215 14.146c2.84 4.884 6.589 4.501 9.313 2.919 2.785-1.615 5.17-4.718 2.337-9.598l-8.255-14.211 3.041-1.763ZM274.393 289.182l6.191-5.83c3.057-2.876 5.086-1.354 6.549.201.67.709 3.455 3.507 4.91 4.32l3.139-2.95-.398-.423c-1.213.293-1.711.025-2.733-1.008l-3.383-3.273c-2.587-2.536-4.115-1.996-5.613-1.426.537-1.853.992-4.22-1.633-7.012-3.771-4.006-7.902-2.162-11.012.768l-8.745 8.236 17.806 18.922 2.561-2.406-7.639-8.119Zm-8.113-8.618 6.377-6.001c1.261-1.19 3.619-2.966 6.377-.04 2.63 2.795 1.097 5.13-.774 6.89l-5.931 5.581-6.049-6.43ZM296.887 259.246l6.235-9.545 11.632 7.604-1.244 1.908-3.275-1.145c1.09 2.83.64 6.428-1.297 9.399-2.438 3.726-4.988 4.656-6.81 5.063-5.331 1.273-9.114-1.073-11.42-2.575-5.303-3.465-9.168-10.576-4.538-17.671 2.655-4.056 7.907-7.065 13.2-4.515l-1.86 2.848c-4.402-1.537-7.267 1.131-8.834 3.524-2.554 3.908-1.533 9.158 4.164 12.881 4.426 2.892 9.92 4.406 13.698-1.379.714-1.092 1.74-2.928 1.519-5.366-.265-2.898-1.887-4.652-4.221-6.174l-4.437 6.786-2.512-1.643ZM101.633 104.949l4.809-4.491c3.223-3.009 2.954-7.501-1.37-12.13-4.324-4.63-8.622-4.975-11.998-1.821l-4.63 4.324 13.189 14.118ZM83.981 91.026l7.443-6.952c4.783-4.468 11.118-3.583 16.063 1.711 3.846 4.118 7.025 11.111.988 16.748l-7.34 6.857-17.154-18.364ZM135.083 83.429 119.314 93.2l-13.235-21.363 15.56-9.64 1.585 2.558-12.674 7.853 4.055 6.546 11.693-7.245 1.585 2.558-11.692 7.245 4.424 7.141 12.883-7.983 1.585 2.559ZM136.835 68.042l6.311-2.408c2.845-1.086 4.375-2.869 3.164-6.041-1.136-2.975-3.525-3.149-6.141-2.151l-6.442 2.459 3.108 8.141Zm4.818 12.622-3.171 1.211-8.962-23.477 10.562-4.032c4.348-1.661 8.038.154 9.486 3.947 1.248 3.269.794 7.676-4.307 9.623l-7.389 2.821 3.781 9.907ZM174.521 46.298l2.694 16.086c.85 5.074-1.609 9.887-8.409 11.027-6.662 1.115-10.244-2.685-11.019-7.311l-2.77-16.534 3.349-.562 2.613 15.603c.902 5.386 4.431 6.32 7.434 5.817 3.072-.514 6.287-2.508 5.384-7.893l-2.625-15.671 3.349-.562ZM186.918 71.098l-3.394.093-.681-25.121 3.394-.093.681 25.121ZM208.522 54.661c.223-3.882-2.855-5.429-5.676-5.719-2.123-.219-5.769.005-6.16 3.8-.219 2.124 1.207 2.974 2.634 3.472l6.97 2.37c3.159 1.099 5.396 3.299 4.988 7.268-.609 5.919-6.278 6.99-10.561 6.55-4.63-.476-6.297-2.055-7.308-3.179-1.926-2.133-2.129-4.265-1.89-6.598l3.168.326c-.465 4.526 3.09 6.228 6.293 6.557 2.437.251 6.61.046 6.978-3.54.269-2.611-.864-3.572-4.873-4.969l-4.996-1.71c-1.596-.55-5.17-2.079-4.722-6.431.401-3.9 3.336-7.468 9.393-6.846 8.74.899 9.073 6.21 8.93 8.975l-3.168-.326ZM231.345 79.146l-3.091-1.127 5.983-16.409-5.393-1.966.84-2.302c3.844 1.104 5.522 1.306 7.821-2.14l2.269.827-8.429 23.117ZM257.463 73.53c1.358-2.449 1.292-5.287-1.798-7.002-2.51-1.393-5.25-.351-6.846 2.526-2.292 4.132-.01 6.078 1.796 7.08 1.407.781 4.488 1.65 6.848-2.604Zm-11.498-5.899c2.174-3.917 6.481-6.051 11.01-3.538 6.856 3.804 3.93 10.665 1.992 14.154-1.272 2.295-7.121 11.899-14.527 7.79-5.05-2.801-4.359-7.221-3.204-9.302l2.693 1.494c-1.053 2.258-.514 4.317 1.689 5.54 2.939 1.63 5.875.017 9.638-5.18l-.027-.095c-1.713 1.211-4.364.941-6.354-.163-3.978-2.207-5.287-6.415-2.91-10.7ZM263.88 78.41c4.931-6.32 10.035-3.359 12.131-1.723 3.366 2.627 4.37 6.917 1.55 10.531-2.712 3.478-6.144 3.153-10.246 2.439l-2.876-.468c-3.791-.605-5.554.461-6.245 1.12l10.541 8.224-1.787 2.29-13.274-10.355c3.282-3.921 6.782-4.652 10.561-4.146l3.728.511c2.995.428 5.11.79 7.09-1.749 1.206-1.545 1.741-4.279-1.101-6.497-3.67-2.863-6.505.43-7.643 1.717l-2.429-1.894ZM290.096 93.318c-2.418-2.579-6.226-1.218-10.721 2.995-4.494 4.211-6.1 7.923-3.683 10.502 2.418 2.58 6.225 1.218 10.721-2.995 4.494-4.211 6.1-7.923 3.683-10.502Zm-16.422 15.389c-4.834-5.159-.277-11.3 3.451-14.795 3.729-3.494 10.153-7.644 14.989-2.485 4.834 5.158.277 11.299-3.451 14.794-3.729 3.495-10.154 7.644-14.989 2.486Z" style="fill:#fff;fill-rule:nonzero"/></svg>