<?xml version="1.0" encoding="UTF-8" standalone="no"?><!DOCTYPE svg PUBLIC "-//W3C//DTD SVG 1.1//EN" "http://www.w3.org/Graphics/SVG/1.1/DTD/svg11.dtd"><svg width="100%" height="100%" viewBox="0 0 377 377" version="1.1" xmlns="http://www.w3.org/2000/svg" xmlns:xlink="http://www.w3.org/1999/xlink" xml:space="preserve" xmlns:serif="http://www.serif.com/" style="fill-rule:evenodd;clip-rule:evenodd;stroke-linejoin:round;stroke-miterlimit:2;"><g><rect x="0" y="0.1" width="376.897" height="376.9" style="fill:#ef3d34;fill-rule:nonzero;"/><path d="M117.81,337.683l-0.955,-0.405c-8.61,-4.151 -16.807,-9.024 -24.509,-14.538l-0.587,-0.483c-2.994,-2.296 -13.592,5.723 -19.124,2.596c-6.381,-3.608 1.537,-17.049 -1.942,-20.658c-0.741,-0.769 0.748,0.768 0,0l-0.586,-0.592c-6.562,-6.744 -12.824,-14.59 -18.163,-22.375c-2.062,-3.16 -14.606,0.549 -18.787,-4.232c-4.824,-5.521 7.097,-15.578 5.015,-20.135c-0.447,-0.974 0.451,0.97 0,0l-0.365,-0.739c-3.751,-8.353 -6.827,-17.394 -9.16,-26.411c-0.9,-3.67 -13.749,-3.926 -16.111,-9.819c-2.758,-6.877 11.831,-12.581 11.393,-17.337l0.006,-0.659c-0.35,-4.372 -0.525,-8.799 -0.525,-13.267c0,-5.739 0.292,-11.413 0.862,-17.003l0.066,-0.518c0.558,-3.737 -13.245,-6.835 -12.38,-14.527c0.985,-8.734 15.844,-6.788 17.344,-11.586l0.262,-1.156c2.41,-8.555 5.491,-16.829 9.185,-24.753l0.258,-0.463c1.689,-3.371 -8.191,-12.261 -6.167,-18.287c2.336,-6.946 17.349,-2.102 20.232,-6.199l0.563,-0.682c5.322,-7.516 12.052,-15.286 18.527,-21.794c0.817,-0.822 -0.47,0.497 0.371,-0.301c2.736,-2.6 -5.199,-14.301 -0.412,-18.474c4.386,-3.823 15.191,5.338 19.296,2.464c0.875,-0.613 0.542,-0.55 1.414,-1.172c7.402,-5.265 15.262,-9.937 23.503,-13.936l1.206,-0.627c0.974,-0.446 -0.969,0.448 0,0c4.54,-2.124 1.966,-17.509 9.216,-18.592c6.285,-0.936 13.423,9.837 17.041,8.766l1.284,-0.319c9.104,-2.466 18.52,-4.168 28.175,-5.039l1.412,-0.327c1.065,-0.086 -1.064,0.094 0,0c4.99,-0.45 7.815,-15.788 15.002,-14.334c6.223,1.26 8.977,14.264 12.748,14.49l0.893,0.171c9.756,0.878 19.264,2.606 28.447,5.114l1.563,0.346c3.617,1.072 10.637,-10.215 16.922,-9.276c7.254,1.078 5.072,17.316 9.61,19.436c8.233,3.98 17.007,9.487 24.413,14.724c3.029,2.261 13.518,-5.908 19.087,-2.858c6.433,3.519 -1.302,17.068 2.23,20.629l2.202,2.483c5.815,6.121 11.171,12.683 16.002,19.636l0.663,0.888c2.884,4.094 17.582,-1.138 19.92,5.812c2.017,6.023 -7.86,14.912 -6.168,18.29l0.169,0.612c3.557,7.811 6.532,15.949 8.85,24.352l0.295,0.935c1.504,4.798 16.438,3.319 17.424,12.057c0.867,7.69 -13.162,10.684 -12.6,14.42l0.049,0.499c0.51,5.296 0.776,10.668 0.776,16.099c0,4.746 -0.2,9.445 -0.592,14.087l-0.03,0.926c-0.459,4.991 14.543,10.475 11.825,17.276c-2.368,5.9 -15.659,6.256 -16.555,9.924l-0.27,0.646c-2.425,9.031 -5.593,17.746 -9.441,26.093l-0.394,0.798c-0.448,0.965 0.449,-0.974 0,0c-2.081,4.553 9.842,14.611 5.011,20.131c-4.176,4.781 -16.838,0.724 -18.894,3.888l-0.053,0.213c-5.41,7.787 -11.477,15.09 -18.117,21.822c-3.479,3.608 4.165,17.227 -2.211,20.83c-5.533,3.129 -16.135,-4.895 -19.127,-2.592l-0.645,0.466c-7.564,5.369 -15.599,10.125 -24.037,14.175l-0.926,0.515c-4.505,2.189 -1.712,17.538 -8.951,18.722c-6.265,1.025 -13.994,-10.047 -17.595,-8.917l-0.677,0.159c-9.163,2.483 -18.64,4.189 -28.361,5.059l-1.134,0.216c-3.77,0.225 -6.506,13.01 -12.735,14.274c-7.182,1.456 -10.807,-14.026 -15.799,-14.473l-0.932,-0.104c-9.578,-0.908 -18.915,-2.63 -27.942,-5.107l-0.805,-0.208c-3.597,-1.136 -10.816,10.027 -17.08,8.98c-7.233,-1.207 -4.389,-16.545 -8.888,-18.745Z" style="fill:#fff;fill-rule:nonzero;"/><path d="M119.791,333.496l-0.929,-0.396c-8.369,-4.026 -16.337,-8.764 -23.823,-14.132l-0.569,-0.464c-2.911,-2.238 -13.213,5.56 -18.589,2.527c-6.202,-3.506 1.494,-16.572 -1.886,-20.082c-0.72,-0.748 0.727,0.742 0,0l-0.571,-0.576c-6.378,-6.557 -12.465,-14.178 -17.654,-21.75c-2.005,-3.071 -14.194,0.537 -18.258,-4.115c-4.693,-5.362 6.897,-15.138 4.871,-19.57c-0.433,-0.943 0.439,0.945 0,0l-0.352,-0.715c-3.647,-8.123 -6.635,-16.898 -8.905,-25.671c-0.875,-3.564 -13.362,-3.812 -15.659,-9.544c-2.681,-6.684 11.501,-12.223 11.076,-16.852l0.002,-0.635c-0.34,-4.254 -0.511,-8.555 -0.511,-12.895c0,-5.584 0.282,-11.097 0.842,-16.529l0.061,-0.504c0.543,-3.632 -12.873,-6.644 -12.031,-14.121c0.956,-8.488 15.399,-6.597 16.857,-11.259l0.257,-1.13c2.341,-8.313 5.335,-16.348 8.926,-24.056l0.248,-0.446c1.646,-3.277 -7.957,-11.923 -5.992,-17.773c2.269,-6.754 16.858,-2.05 19.665,-6.029l0.547,-0.663c5.173,-7.304 11.715,-14.858 18.006,-21.184c0.794,-0.796 -0.456,0.482 0.359,-0.29c2.664,-2.531 -5.05,-13.9 -0.399,-17.96c4.266,-3.71 14.767,5.192 18.757,2.396c0.85,-0.596 0.526,-0.537 1.373,-1.136c7.198,-5.122 14.833,-9.658 22.843,-13.55l1.175,-0.608c0.944,-0.432 -0.942,0.436 0,0c4.41,-2.064 1.91,-17.019 8.957,-18.068c6.106,-0.913 13.047,9.561 16.563,8.515l1.249,-0.305c8.85,-2.395 18.004,-4.054 27.387,-4.901l1.371,-0.315c1.035,-0.087 -1.035,0.095 0,0c4.848,-0.437 7.595,-15.352 14.576,-13.938c6.053,1.232 8.729,13.868 12.389,14.085l0.881,0.168c9.476,0.854 18.715,2.538 27.642,4.97l1.522,0.34c3.514,1.042 10.344,-9.929 16.451,-9.019c7.041,1.048 4.926,16.828 9.335,18.893c8.011,3.866 16.534,9.221 23.733,14.309c2.94,2.2 13.135,-5.737 18.549,-2.775c6.25,3.422 -1.265,16.589 2.16,20.047l2.147,2.418c5.653,5.945 10.857,12.328 15.555,19.085l0.638,0.864c2.809,3.98 17.089,-1.106 19.364,5.648c1.966,5.851 -7.638,14.497 -5.995,17.774l0.163,0.597c3.46,7.59 6.349,15.503 8.609,23.669l0.283,0.911c1.459,4.664 15.983,3.221 16.934,11.719c0.845,7.47 -12.785,10.385 -12.244,14.013l0.045,0.487c0.5,5.151 0.755,10.369 0.755,15.651c0,4.61 -0.193,9.181 -0.576,13.696l-0.023,0.891c-0.446,4.851 14.131,10.179 11.48,16.795c-2.294,5.728 -15.208,6.082 -16.084,9.644l-0.263,0.627c-2.356,8.774 -5.438,17.25 -9.18,25.362l-0.375,0.776c-0.439,0.938 0.433,-0.944 0,0c-2.026,4.423 9.566,14.206 4.873,19.567c-4.066,4.647 -16.369,0.703 -18.373,3.78l-0.046,0.205c-5.259,7.572 -11.157,14.67 -17.61,21.208c-3.383,3.506 4.047,16.748 -2.153,20.251c-5.373,3.037 -15.679,-4.758 -18.586,-2.524l-0.631,0.449c-7.347,5.222 -15.16,9.842 -23.356,13.784l-0.903,0.505c-4.381,2.121 -1.668,17.04 -8.701,18.193c-6.09,0.997 -13.604,-9.76 -17.106,-8.669l-0.652,0.155c-8.91,2.415 -18.119,4.079 -27.571,4.921l-1.103,0.21c-3.662,0.222 -6.32,12.648 -12.373,13.874c-6.984,1.414 -10.505,-13.635 -15.36,-14.072l-0.908,-0.098c-9.304,-0.883 -18.382,-2.56 -27.153,-4.967l-0.783,-0.2c-3.497,-1.104 -10.513,9.749 -16.604,8.732c-7.025,-1.173 -4.265,-16.082 -8.636,-18.225Z" style="fill:#005099;fill-rule:nonzero;"/><path d="M39.207,188.626c0,0 13.567,-40.701 14.895,-44.692c3.723,-7.184 -4.521,-25.404 -19.019,-1.064c-1.329,2.264 -4.654,16.094 3.192,15.428c3.991,-2.395 5.583,9.179 -9.312,6.519c-15.96,-7.446 -9.444,-40.434 28.862,-40.434c34.582,1.595 21.282,27.53 21.282,27.53l12.234,0l8.515,-23.938l27.665,0l-24.472,71.291c0,0 -5.322,25.005 29.26,19.15c14.363,-4.255 83.531,-25.004 122.367,-23.407c21.276,-1.066 73.594,8.395 86.186,28.729c-44.694,-19.686 -64.91,0.533 -64.91,0.533c0,0 -10.643,-22.345 -51.603,-18.091c-20.747,-1.594 -96.828,19.153 -114.917,17.558c-43.63,1.441 -31.921,-30.326 -31.921,-30.326l11.172,-34.582l-11.172,0l-11.172,29.264l-27.132,0.532Z" style="fill:#fff;fill-rule:nonzero;"/><path d="M142.95,158.298c2.799,-2.799 9.979,-5.162 13.969,-4.361c3.988,0.798 4.787,14.362 -16.958,15.163c0,0 -1.002,-6.808 2.989,-10.802Zm198.707,18.555c2.394,6.184 -2.797,8.181 -4.787,9.177c-16.959,0.2 -12.77,-6.384 -12.77,-6.384l24.734,-27.733c0,0 -14.164,1.398 -27.325,-2.791c-2.315,-0.737 -11.292,-2.3 -16.362,3.989c-4.988,6.185 -10.49,22.607 -15.961,25.536c-5.59,2.994 -7.381,-1.596 -5.59,-6.583c1.008,-2.788 6.192,-16.758 6.192,-16.758l7.779,0l1.594,-5.185l-7.78,0l5.784,-16.361l-20.147,3.792l-4.592,12.569l-6.781,0l0,4.985l5.387,0l-2.397,5.987c0,0 -6.384,15.361 -11.17,17.554c-1.025,0.471 -9.175,2.197 -5.984,-3.989c1.477,-2.865 4.986,-8.378 4.787,-15.162c-0.103,-3.589 -1.629,-8.46 -10.174,-9.575c-9.176,-1.2 -15.564,3.787 -18.556,3.19l0,-2.99l-17.555,0l-9.178,21.943c0,0 -2.394,7.783 -8.379,6.583c-5.983,-1.196 -1.593,-8.778 -1.593,-8.778l7.978,-19.748l-19.95,0c0,0 -5.987,19.352 -7.58,21.943c-1.597,2.594 -7.185,12.172 -19.752,11.57c0,0 -12.37,1.799 -11.574,-9.377c26.734,-2.193 28.531,-15.356 28.531,-15.356c0,0 1.994,-10.976 -19.952,-8.78c-26.333,1.195 -28.326,19.748 -28.326,19.748c0,0 -2.996,18.155 26.733,18.757c15.162,0.307 22.143,-7.983 22.143,-7.983c0,0 3.99,9.975 14.563,8.179c6.682,-1.131 13.768,-5.986 13.768,-5.986l-0.598,3.994l19.551,0l9.576,-24.939c2.39,-5.587 13.564,-7.582 10.769,0l-5.779,15.16c-1.197,2.996 1.809,12.146 13.361,11.375c11.973,-0.8 17.364,-7.783 17.364,-7.783c0,0 4.982,7.582 13.562,7.983c16.758,-0.802 21.758,-16.353 23.342,-18.556c3.592,-4.987 7.982,-17.756 15.361,-18.157c7.381,-0.399 12.77,1.995 11.17,3.794l-27.527,32.117c0,0 9.375,-1.393 19.549,-0.198c10.177,1.196 11.174,1.597 16.357,2.593c5.191,0.996 8.383,-0.395 10.379,-1.994c1.994,-1.594 2.397,-1.199 3.592,-6.584c1.197,-5.387 -6.989,-6.386 -5.787,-4.788Z" style="fill:#fff;fill-rule:nonzero;"/><path d="M192.028,145.825c5.922,0 10.719,-3.348 10.719,-7.475c0,-4.13 -4.797,-7.48 -10.719,-7.48c-5.92,0 -10.72,3.35 -10.72,7.48c0,4.127 4.8,7.475 10.72,7.475Z" style="fill:#fff;fill-rule:nonzero;"/><path d="M64.146,253.601l6.434,11.496l-2.718,1.519l-8.148,-14.559l22.679,-12.69l1.715,3.062l-19.962,11.172Z" style="fill:#fff;fill-rule:nonzero;"/><path d="M106.623,273.272l-12.721,11.075c-4.013,3.49 -9.586,3.927 -14.266,-1.454c-4.587,-5.265 -3.174,-10.479 0.484,-13.663l13.078,-11.384l2.304,2.649l-12.34,10.741c-4.258,3.705 -3.175,7.322 -1.107,9.699c2.115,2.43 5.609,4.183 9.869,0.478l12.395,-10.79l2.304,2.649Z" style="fill:#fff;fill-rule:nonzero;"/><path d="M112.824,310.856l-3.5,-2.569l0.695,-12.74l-12.129,4.337l-3.412,-2.507l15.384,-5.227l0.474,-15.371l3.558,2.616l-0.586,11.923l11.203,-4.121l3.382,2.485l-14.53,5.042l-0.539,16.132Z" style="fill:#fff;fill-rule:nonzero;"/><path d="M139.509,323.698l-17.521,-7.809l10.578,-23.739l17.289,7.703l-1.266,2.846l-14.082,-6.277l-3.242,7.273l12.991,5.792l-1.266,2.843l-12.994,-5.791l-3.534,7.935l14.314,6.377l-1.267,2.847Z" style="fill:#fff;fill-rule:nonzero;"/><path d="M171.687,331.197l2.731,-15.101c0.137,-0.746 0.793,-3.975 1.227,-6.36l-0.072,-0.013l-11.079,20.173l-3.421,-0.617l-3.315,-22.744l-0.072,-0.011c-0.425,2.349 -0.939,5.603 -1.073,6.353l-2.734,15.1l-3.347,-0.604l4.626,-25.574l4.95,0.896l3.391,22.94l0.071,0.013l11.176,-20.303l4.916,0.889l-4.628,25.571l-3.347,-0.608Z" style="fill:#fff;fill-rule:nonzero;"/><path d="M190.04,319.871l6.902,-0.386c2.85,-0.155 6.107,0.384 6.31,4.037c0.163,2.889 -1.576,4.835 -5.224,5.039l-7.482,0.417l-0.506,-9.107Zm-2.831,12.304l11.165,-0.625c5.748,-0.322 8.623,-3.997 8.388,-8.156c-0.244,-4.444 -3.312,-5.466 -5.052,-6.058c2.783,-1.498 3.265,-3.918 3.168,-5.615c-0.196,-3.541 -2.858,-6.403 -7.703,-6.129l-11.419,0.634l1.453,25.949Zm2.223,-23.144l6.36,-0.359c3.904,-0.213 5.458,1.074 5.594,3.497c0.179,3.179 -1.823,4.306 -5.184,4.493l-6.325,0.355l-0.445,-7.986Z" style="fill:#fff;fill-rule:nonzero;"/><path d="M237.528,310.001c-1.586,-5.38 -6.719,-12.285 -16.02,-9.54c-9.306,2.742 -9.865,11.322 -8.277,16.701c1.582,5.383 6.709,12.286 16.012,9.542c9.308,-2.743 9.873,-11.323 8.285,-16.703Zm-3.471,1.022c1.729,5.869 -0.279,11.102 -5.691,12.696c-5.418,1.598 -9.942,-1.711 -11.668,-7.578c-1.729,-5.868 0.273,-11.096 5.687,-12.696c5.418,-1.595 9.94,1.713 11.672,7.578Z" style="fill:#fff;fill-rule:nonzero;"/><path d="M256.12,284.971l8.468,14.586c2.67,4.601 2.046,10.155 -4.121,13.733c-6.043,3.511 -10.894,1.136 -13.328,-3.057l-8.707,-14.995l3.037,-1.76l8.215,14.146c2.84,4.884 6.589,4.501 9.313,2.919c2.785,-1.615 5.17,-4.718 2.337,-9.598l-8.255,-14.211l3.041,-1.763Z" style="fill:#fff;fill-rule:nonzero;"/><path d="M274.393,289.182l6.191,-5.83c3.057,-2.876 5.086,-1.354 6.549,0.201c0.67,0.709 3.455,3.507 4.91,4.32l3.139,-2.95l-0.398,-0.423c-1.213,0.293 -1.711,0.025 -2.733,-1.008l-3.383,-3.273c-2.587,-2.536 -4.115,-1.996 -5.613,-1.426c0.537,-1.853 0.992,-4.22 -1.633,-7.012c-3.771,-4.006 -7.902,-2.162 -11.012,0.768l-8.745,8.236l17.806,18.922l2.561,-2.406l-7.639,-8.119Zm-8.113,-8.618l6.377,-6.001c1.261,-1.19 3.619,-2.966 6.377,-0.04c2.63,2.795 1.097,5.13 -0.774,6.89l-5.931,5.581l-6.049,-6.43Z" style="fill:#fff;fill-rule:nonzero;"/><path d="M296.887,259.246l6.235,-9.545l11.632,7.604l-1.244,1.908l-3.275,-1.145c1.09,2.83 0.64,6.428 -1.297,9.399c-2.438,3.726 -4.988,4.656 -6.81,5.063c-5.331,1.273 -9.114,-1.073 -11.42,-2.575c-5.303,-3.465 -9.168,-10.576 -4.538,-17.671c2.655,-4.056 7.907,-7.065 13.2,-4.515l-1.86,2.848c-4.402,-1.537 -7.267,1.131 -8.834,3.524c-2.554,3.908 -1.533,9.158 4.164,12.881c4.426,2.892 9.92,4.406 13.698,-1.379c0.714,-1.092 1.74,-2.928 1.519,-5.366c-0.265,-2.898 -1.887,-4.652 -4.221,-6.174l-4.437,6.786l-2.512,-1.643Z" style="fill:#fff;fill-rule:nonzero;"/><path d="M101.633,104.949l4.809,-4.491c3.223,-3.009 2.954,-7.501 -1.37,-12.13c-4.324,-4.63 -8.622,-4.975 -11.998,-1.821l-4.63,4.324l13.189,14.118Zm-17.652,-13.923l7.443,-6.952c4.783,-4.468 11.118,-3.583 16.063,1.711c3.846,4.118 7.025,11.111 0.988,16.748l-7.34,6.857l-17.154,-18.364Z" style="fill:#fff;fill-rule:nonzero;"/><path d="M135.083,83.429l-15.769,9.771l-13.235,-21.363l15.56,-9.64l1.585,2.558l-12.674,7.853l4.055,6.546l11.693,-7.245l1.585,2.558l-11.692,7.245l4.424,7.141l12.883,-7.983l1.585,2.559Z" style="fill:#fff;fill-rule:nonzero;"/><path d="M136.835,68.042l6.311,-2.408c2.845,-1.086 4.375,-2.869 3.164,-6.041c-1.136,-2.975 -3.525,-3.149 -6.141,-2.151l-6.442,2.459l3.108,8.141Zm4.818,12.622l-3.171,1.211l-8.962,-23.477l10.562,-4.032c4.348,-1.661 8.038,0.154 9.486,3.947c1.248,3.269 0.794,7.676 -4.307,9.623l-7.389,2.821l3.781,9.907Z" style="fill:#fff;fill-rule:nonzero;"/><path d="M174.521,46.298l2.694,16.086c0.85,5.074 -1.609,9.887 -8.409,11.027c-6.662,1.115 -10.244,-2.685 -11.019,-7.311l-2.77,-16.534l3.349,-0.562l2.613,15.603c0.902,5.386 4.431,6.32 7.434,5.817c3.072,-0.514 6.287,-2.508 5.384,-7.893l-2.625,-15.671l3.349,-0.562Z" style="fill:#fff;fill-rule:nonzero;"/><path d="M186.918,71.098l-3.394,0.093l-0.681,-25.121l3.394,-0.093l0.681,25.121Z" style="fill:#fff;fill-rule:nonzero;"/><path d="M208.522,54.661c0.223,-3.882 -2.855,-5.429 -5.676,-5.719c-2.123,-0.219 -5.769,0.005 -6.16,3.8c-0.219,2.124 1.207,2.974 2.634,3.472l6.97,2.37c3.159,1.099 5.396,3.299 4.988,7.268c-0.609,5.919 -6.278,6.99 -10.561,6.55c-4.63,-0.476 -6.297,-2.055 -7.308,-3.179c-1.926,-2.133 -2.129,-4.265 -1.89,-6.598l3.168,0.326c-0.465,4.526 3.09,6.228 6.293,6.557c2.437,0.251 6.61,0.046 6.978,-3.54c0.269,-2.611 -0.864,-3.572 -4.873,-4.969l-4.996,-1.71c-1.596,-0.55 -5.17,-2.079 -4.722,-6.431c0.401,-3.9 3.336,-7.468 9.393,-6.846c8.74,0.899 9.073,6.21 8.93,8.975l-3.168,-0.326Z" style="fill:#fff;fill-rule:nonzero;"/><path d="M231.345,79.146l-3.091,-1.127l5.983,-16.409l-5.393,-1.966l0.84,-2.302c3.844,1.104 5.522,1.306 7.821,-2.14l2.269,0.827l-8.429,23.117Z" style="fill:#fff;fill-rule:nonzero;"/><path d="M257.463,73.53c1.358,-2.449 1.292,-5.287 -1.798,-7.002c-2.51,-1.393 -5.25,-0.351 -6.846,2.526c-2.292,4.132 -0.01,6.078 1.796,7.08c1.407,0.781 4.488,1.65 6.848,-2.604Zm-11.498,-5.899c2.174,-3.917 6.481,-6.051 11.01,-3.538c6.856,3.804 3.93,10.665 1.992,14.154c-1.272,2.295 -7.121,11.899 -14.527,7.79c-5.05,-2.801 -4.359,-7.221 -3.204,-9.302l2.693,1.494c-1.053,2.258 -0.514,4.317 1.689,5.54c2.939,1.63 5.875,0.017 9.638,-5.18l-0.027,-0.095c-1.713,1.211 -4.364,0.941 -6.354,-0.163c-3.978,-2.207 -5.287,-6.415 -2.91,-10.7Z" style="fill:#fff;fill-rule:nonzero;"/><path d="M263.88,78.41c4.931,-6.32 10.035,-3.359 12.131,-1.723c3.366,2.627 4.37,6.917 1.55,10.531c-2.712,3.478 -6.144,3.153 -10.246,2.439l-2.876,-0.468c-3.791,-0.605 -5.554,0.461 -6.245,1.12l10.541,8.224l-1.787,2.29l-13.274,-10.355c3.282,-3.921 6.782,-4.652 10.561,-4.146l3.728,0.511c2.995,0.428 5.11,0.79 7.09,-1.749c1.206,-1.545 1.741,-4.279 -1.101,-6.497c-3.67,-2.863 -6.505,0.43 -7.643,1.717l-2.429,-1.894Z" style="fill:#fff;fill-rule:nonzero;"/><path d="M290.096,93.318c-2.418,-2.579 -6.226,-1.218 -10.721,2.995c-4.494,4.211 -6.1,7.923 -3.683,10.502c2.418,2.58 6.225,1.218 10.721,-2.995c4.494,-4.211 6.1,-7.923 3.683,-10.502Zm-16.422,15.389c-4.834,-5.159 -0.277,-11.3 3.451,-14.795c3.729,-3.494 10.153,-7.644 14.989,-2.485c4.834,5.158 0.277,11.299 -3.451,14.794c-3.729,3.495 -10.154,7.644 -14.989,2.486Z" style="fill:#fff;fill-rule:nonzero;"/></g></svg>