<?xml version="1.0" encoding="UTF-8" standalone="no"?><!DOCTYPE svg PUBLIC "-//W3C//DTD SVG 1.1//EN" "http://www.w3.org/Graphics/SVG/1.1/DTD/svg11.dtd"><svg width="100%" height="100%" viewBox="0 0 5394 3193" version="1.1" xmlns="http://www.w3.org/2000/svg" xmlns:xlink="http://www.w3.org/1999/xlink" xml:space="preserve" xmlns:serif="http://www.serif.com/" style="fill-rule:evenodd;clip-rule:evenodd;stroke-linejoin:round;stroke-miterlimit:2;"><g id="Ebene-1" serif:id="Ebene 1"><g><path d="M1915.32,2493.27c-0.513,-22.441 -14.759,-37.364 -35.461,-37.144c-21.202,0.226 -35.653,16.957 -34.572,40.027c1.057,22.529 15.44,36.742 36.462,36.03c20.5,-0.695 34.085,-16.441 33.571,-38.914m40.613,370.826c-7.022,-1.201 -12.228,-2.291 -17.488,-2.956c-25.436,-3.214 -25.463,-3.174 -25.468,-29.26c-0.012,-73.889 -0.004,-147.777 -0.005,-221.668l0,-22.492c-29.847,7.772 -56.736,15.072 -83.796,21.68c-12.183,2.975 -14.533,9.623 -10.202,20.822c5.081,1.498 10.131,2.933 15.147,4.477c19.208,5.913 24.945,11.158 25.231,30.702c0.873,59.896 0.504,119.81 0.842,179.716c0.051,9.113 -4.407,13.423 -12.713,14.794c-8.953,1.477 -17.929,2.812 -26.912,4.212l0,20.367l137.206,0c-0.666,-7.368 -1.187,-13.143 -1.842,-20.393m-330.946,-242.522c0.39,5.939 0.767,8.549 0.701,11.146c-1.311,51.981 -2.865,103.956 -3.88,155.943c-0.233,11.931 0.384,24.053 2.275,35.822c6.078,37.817 31.61,60.15 69.975,61.171c33.093,0.881 60.642,-12.702 84.945,-34.265c7.372,-6.54 7.347,-13.213 2.686,-21.345c-11.404,3.819 -22.428,8.356 -33.874,11.195c-45.551,11.298 -73.162,-10.089 -73.832,-56.657c-0.019,-1.333 0.025,-2.667 0.064,-3.999c1.094,-37.315 2.085,-74.634 3.34,-111.945c0.531,-15.774 1.621,-31.53 2.537,-48.803l99.432,0c1.593,-11.168 2.959,-20.737 4.616,-32.345l-104.428,0l0,-52.849c-20.361,-6.32 -20.348,-6.304 -34.636,5.689c-19.911,16.713 -39.527,33.8 -59.907,49.923c-9.691,7.668 -13.105,15.904 -8.247,28.754c15.452,0.822 31.175,1.657 48.233,2.564m345.92,115.717c0.196,3.599 0.08,10.983 1.074,18.215c7.799,56.777 33.303,101.746 89.668,121.549c56.222,19.752 108.008,8.525 151.607,-32.62c48.696,-45.956 63.895,-123.052 37.24,-184.425c-16.558,-38.127 -44.607,-64.205 -84.804,-76.047c-98.418,-28.99 -194.74,45.102 -194.785,153.328m-1659.8,0.641c0.19,3.551 0.027,10.943 1.06,18.166c8.11,56.709 33.753,101.719 90.218,121.187c57.081,19.678 109.343,7.815 152.904,-34.671c47.439,-46.268 61.739,-122.619 35.148,-183.143c-16.726,-38.071 -44.875,-63.955 -85.13,-75.658c-98.468,-28.625 -194.43,45.746 -194.2,154.119m1165.41,-38.769c-24.126,7.265 -47.07,12.305 -68.455,21.127c-22.543,9.3 -45.961,19.222 -64.829,34.143c-44.353,35.072 -33.738,101.695 18.293,124.105c28.817,12.411 56.179,7.72 80.868,-11.118c10.94,-8.347 20.893,-17.989 32.389,-27.998c1.085,4.723 1.677,7.848 2.524,10.903c9.411,33.96 37.613,45.695 67.998,27.809c14.979,-8.817 27.211,-20.744 36.437,-36.588c-3.876,-4.252 -7.293,-7.999 -10.671,-11.705c-6.735,3.888 -12.238,7.609 -18.179,10.391c-16.454,7.704 -25.641,2.6 -27.687,-15.197c-0.454,-3.943 -0.198,-7.988 -0.03,-11.976c1.566,-37.273 4.302,-74.543 4.389,-111.819c0.056,-24.46 -2.048,-49.215 -6.24,-73.307c-3.584,-20.604 -16.848,-35.727 -37.084,-43.84c-51.242,-20.544 -134.489,5.07 -165.056,50.967c-9.961,14.957 -9.572,29.358 1.084,40.148c11.037,11.175 33.034,12.835 46.223,3.487c12.867,-9.118 16.325,-25.388 8.469,-40.995c-2.868,-5.698 -6.277,-11.121 -10.235,-18.066c27.661,-13.548 55.381,-19.844 81.203,-4.239c30.764,18.594 27.391,51.887 28.589,83.768m808.296,165.541l0,20.399l140.582,0c-0.717,-7.823 -1.337,-14.577 -1.968,-21.46c-11.39,-1.288 -20.615,-2.605 -29.888,-3.311c-11.406,-0.867 -16.244,-6.395 -16.183,-18.064c0.298,-57.29 -0.094,-114.584 0.481,-171.869c0.057,-5.618 3.543,-13.392 7.987,-16.402c20.708,-14.031 43.409,-23.168 69.19,-21.705c25.182,1.431 41.646,13.547 47.773,37.827c3.383,13.406 4.829,27.584 5.056,41.448c0.654,39.96 0.255,79.937 0.252,119.908c-0.002,26.098 -0.023,26.051 -26.662,30.334c-3.823,0.614 -7.532,1.939 -12.156,3.162l0,19.511l136.579,0c-0.953,-7.955 -1.71,-14.267 -2.51,-20.946c-8.359,-1.225 -15.575,-2.229 -22.773,-3.346c-17.925,-2.781 -19.573,-4.548 -19.628,-23.079c-0.115,-37.972 0.048,-75.944 -0.071,-113.915c-0.064,-20.645 0.689,-41.382 -0.953,-61.916c-4.274,-53.429 -45.608,-83.083 -97.988,-71.376c-24.499,5.475 -45.974,17.204 -66.103,31.756c-5.071,3.665 -10.158,7.309 -18.701,13.455l0,-47.363c-29.783,7.803 -57.209,15.296 -84.808,22.077c-12.103,2.973 -11.805,10.324 -9.144,20.125c5.743,1.766 11.383,3.451 16.99,5.236c17.76,5.656 22.133,10.982 23.646,29.93c0.635,7.954 0.583,15.974 0.594,23.965c0.056,45.3 0.077,90.6 0.031,135.9c-0.036,36.963 2.989,32.72 -32.245,37.711c-1.952,0.276 -3.836,1.027 -7.38,2.008m-1468.72,20.033l138.142,0c-0.869,-7.703 -1.582,-14.026 -2.359,-20.904c-7.442,-1.227 -13.934,-2.407 -20.46,-3.353c-20.796,-3.015 -22.052,-4.257 -22.093,-25.001c-0.085,-43.301 0.028,-86.6 -0.058,-129.899c-0.027,-13.984 0.254,-28.017 -0.771,-41.941c-4.115,-55.925 -45.871,-87.557 -99.564,-72.601c-22.55,6.281 -43.101,19.873 -64.379,30.503c-5.594,2.794 -10.513,6.937 -18.68,12.44l0,-46.386c-32.955,8.705 -63.568,16.792 -94.146,24.87l0,17.784c38.955,10.76 40.761,12.86 40.943,52.655c0.234,51.292 0.141,102.587 0.078,153.88c-0.026,21.134 -0.167,21.06 -22.167,24.324c-5.752,0.852 -11.413,2.316 -17.582,3.597l0,19.794l140.973,0c-0.988,-7.922 -1.772,-14.204 -2.616,-20.964c-11.107,-1.234 -20.978,-2.396 -30.865,-3.409c-9.327,-0.956 -14.405,-5.318 -14.381,-15.381c0.141,-58.621 -0.123,-117.244 0.377,-175.861c0.043,-5.026 3.342,-11.956 7.375,-14.692c19.535,-13.253 40.872,-22.249 65.141,-21.991c29.426,0.312 46.007,13.106 53.13,41.379c1.621,6.43 3.35,13.064 3.413,19.62c0.487,50.62 0.448,101.245 0.894,151.865c0.091,10.33 -5.262,14.141 -14.398,15.247c-7.824,0.947 -15.608,2.226 -23.941,3.435c-0.689,7.205 -1.246,13.034 -2.006,20.99m472.347,-26.756c-10.196,-3.153 -18.403,-5.722 -26.629,-8.229c-22.21,-6.769 -22.291,-6.759 -22.296,-30.104c-0.029,-123.191 -0.015,-246.38 -0.016,-369.57l0,-22.786c-33.563,4.883 -64.453,9.249 -95.296,13.929c-11.653,1.768 -9.47,10.144 -8.779,18.084c10.453,3.151 19.988,6.045 29.536,8.898c20.807,6.214 21.311,6.732 21.428,29.165c0.132,25.303 0.118,50.608 -0.039,75.911c-0.03,4.913 -1.012,9.82 -1.646,15.55c-6.416,-1.315 -10.95,-2.14 -15.434,-3.179c-26.409,-6.12 -52.693,-6.183 -79.013,0.82c-121.422,32.306 -143.787,183.947 -77.606,260.36c37.465,43.257 96.583,50.729 144.242,18.736c9.185,-6.166 17.489,-13.648 28.492,-22.331c0.681,14.928 1.264,27.71 1.935,42.426c33.866,-3.829 66.633,-7.532 99.801,-11.281c0.487,-6.04 0.848,-10.532 1.32,-16.399m1993.33,27.901c75.323,0 150.646,0.047 225.969,-0.039c15.323,-0.017 30.698,0.169 45.953,-0.992c22.51,-1.714 34.123,-12.07 37.656,-34.185c1.983,-12.417 2.051,-25.236 1.987,-37.869c-0.173,-34.338 -20.895,-59.154 -55.125,-65.435c-58.284,-10.695 -116.665,-20.858 -175.012,-31.215c-110.128,-19.549 -220.303,-38.846 -330.372,-58.731c-42.636,-7.702 -74.12,16.222 -75.323,59.951c-0.972,35.302 -0.408,70.653 -0.122,105.979c0.149,18.191 7.256,33.579 20.64,46.088c14.107,13.184 31.112,16.606 49.782,16.552c84.655,-0.251 169.311,-0.111 253.967,-0.104m-5.799,-474.448c-89.27,0 -178.539,-0.21 -267.807,0.109c-32.823,0.119 -60.556,22.379 -64.361,51.538c-5.366,41.119 4.682,65.652 42.176,83.15c8.199,3.826 18.051,4.29 27.219,5.837c146.332,24.697 292.676,49.311 439.015,73.962c28.212,4.752 56.277,10.695 84.651,14.098c43.238,5.187 71.128,-19.782 71.484,-62.528c0.283,-33.973 -0.217,-67.953 0.176,-101.925c0.186,-16.182 -4.698,-30.114 -15.401,-42.009c-14.22,-15.807 -31.996,-22.483 -53.342,-22.393c-87.935,0.369 -175.873,0.154 -263.81,0.161m-3212.14,-1604.04c-0.568,1.402 -1.136,2.803 -1.704,4.205c-0.9,10.519 -2.584,21.038 -2.587,31.558c-0.134,435.656 -0.121,871.313 -0.08,1306.97c0.001,7.298 0.585,14.596 0.896,21.895c-1.941,40.351 27.171,74.099 68.239,74.664c85.654,1.178 171.347,1.148 257.002,0.016c40.809,-0.541 70.216,-34.127 68.933,-74.44c0.292,-4.64 0.84,-9.279 0.841,-13.918c0.043,-441.255 -0.166,-882.509 0.373,-1323.76c0.054,-43.847 -33.221,-77.491 -76.69,-76.065c-47.94,1.573 -95.971,0.347 -143.962,0.354c-35.327,0.005 -70.662,-0.417 -105.979,0.184c-32.79,0.558 -55.961,18.256 -65.282,48.341m2548.37,992.062c1.109,3.791 1.969,7.674 3.36,11.358c104.624,277.183 358.196,459.355 654.27,469.919c213.097,7.604 402.58,-55.428 567.801,-190.524c7.689,-6.288 15.33,-13.046 21.376,-20.839c9.932,-12.803 16.76,-27.125 12.478,-44.24c2.805,-18.992 1.759,-37.274 -10.311,-53.357c-44.349,-59.101 -88.67,-118.221 -133.162,-177.213c-11.378,-15.085 -26.924,-20.868 -45.656,-19.058c-18.026,1.743 -32.801,10.422 -46.435,21.357c-97.786,78.421 -209.9,112.283 -334.363,107.413c-75.145,-2.941 -144.032,-25.482 -204.26,-70.673c-80.693,-60.546 -128.349,-140.698 -137.796,-242.183c307.226,-0.03 614.453,-0.58 921.675,0.474c45.668,0.156 84.114,-30.719 84.311,-76.491c8.211,-80.546 8.657,-160.973 -5.59,-240.933c-29.186,-163.804 -104.511,-301.604 -236.155,-405.013c-164.066,-128.879 -352.632,-166.39 -554.53,-131.427c-236.92,41.028 -409.392,174.649 -520.929,386.675c-57.455,109.22 -84.629,226.881 -86.739,349.908c-0.797,46.462 3.878,93.018 6.06,139.545c1.452,11.869 2.442,23.816 4.435,35.593c8.659,51.159 19.747,101.693 40.16,149.709m611.794,1400.54l-3220,0l0,-312c6.521,-0.674 13.04,-1.909 19.563,-1.931c47.312,-0.166 94.625,-0.052 141.937,-0.133c5.766,-0.011 11.531,-0.652 18.639,-1.083c-0.709,-7.735 -1.289,-14.064 -1.952,-21.305c-15.924,-1.465 -30.465,-2.722 -44.987,-4.166c-11.543,-1.147 -17.383,-6.096 -17.051,-19.287c0.872,-34.629 0.291,-69.295 0.289,-103.946c-0.001,-12.458 0,-24.917 0,-40.194c24.773,1.378 47.178,2.546 69.571,3.904c10.557,0.641 14.843,7.332 15.992,17.086c1.387,11.771 3.08,23.508 4.637,35.232l24.266,0c4.627,-46.375 9.087,-91.088 13.546,-135.783l-25.077,0c-4.589,13.065 -7.965,26.063 -13.775,37.859c-3.138,6.372 -9.735,14.029 -15.986,15.345c-23.958,5.048 -48.324,2.337 -72.017,2.679l0,-161.247c36.969,0 72.831,-1.354 108.538,0.408c31.28,1.544 37.358,8.374 44.491,38.436c4.12,17.366 7.944,34.801 12.021,52.731l29.588,0l0,-117.659c-2.672,-0.618 -4.532,-1.428 -6.392,-1.426c-101.947,0.117 -203.894,0.302 -305.841,0.48l0,-2480l1904,0c-42.913,15.699 -60.304,45.604 -60.027,91.916c1.332,221.93 0.599,443.872 0.599,665.81l0,24.17c-6.517,-1.766 -9.697,-2.467 -12.773,-3.483c-123.299,-40.722 -249.812,-59.79 -379.596,-54.263c-117.02,4.984 -227.592,34.596 -328.747,94.464c-177.377,104.98 -282.527,262.726 -331.489,460.345c-27.238,109.938 -29.93,221.653 -18.49,333.631c4.238,41.487 15.107,82.295 22.952,123.413c9.154,29.823 16.653,60.274 27.718,89.37c103.943,273.298 341.2,444.92 626.279,451.529c190.791,4.424 352.541,-63.703 485.028,-201.174c2.855,-2.962 6.489,-5.174 10.425,-8.258c11.58,36.881 21.904,72.02 33.809,106.615c5.135,14.923 12.28,29.525 20.778,42.825c10.61,16.606 27.249,25.718 47.158,25.96c41.984,0.508 84.03,1.406 125.954,-0.267c41.072,-1.64 68.122,-33.699 66.035,-74.532c0.319,-8.632 0.919,-17.265 0.919,-25.897c0.043,-665.728 0.038,-1331.46 0.037,-1997.19c-0.001,-22.658 0.097,-45.316 -0.03,-67.972c-0.215,-38.181 -18.018,-62.452 -54.267,-74.264c1.909,-0.917 3.819,-1.835 5.728,-2.752l3204,0l0,1220c-0.993,-0.024 -1.986,-0.029 -2.98,-0.013c-3.77,-66.074 -13.946,-131.077 -33.381,-194.431c-37.066,-120.841 -109.756,-210.059 -229.344,-257.522c-72.744,-28.871 -148.885,-40.448 -226.453,-43.732c-134.525,-5.696 -267.662,7.779 -399.496,33.446c-54.124,10.537 -107.783,24.247 -160.767,39.581c-37.736,10.921 -52.901,40.844 -45.772,79.685c4.567,24.887 9.377,49.733 14.371,74.538c8.912,44.262 18.045,88.481 27.086,132.718c8.185,46.439 34.9,63.699 79.4,51.374c9.594,-2.658 19.202,-5.304 28.897,-7.555c84.971,-19.729 171.166,-32.029 257.976,-39.006c48.963,-3.935 98.403,-6.323 147.412,-4.264c73.792,3.1 129.831,35.691 155.675,109.11c4.402,12.503 7.992,25.291 11.956,37.947c3.336,33.264 10.711,66.335 6.036,100.971c-4.604,-0.727 -7.918,-0.934 -11.053,-1.792c-77.298,-21.151 -155.961,-34.025 -236.031,-37c-111.463,-4.141 -220.934,7.841 -324.872,50.457c-161.509,66.224 -267.158,179.697 -287.925,358.364c-5.545,47.692 0.571,96.739 1.334,145.164c0.408,5.229 0.816,10.459 1.223,15.688c0.564,2.856 1.126,5.714 1.689,8.57c1.679,11.831 2.582,23.834 5.154,35.468c38.816,175.449 141.504,293.554 314.562,346.86c83.469,25.711 169.237,27.369 255.443,17.858c134.309,-14.817 253.191,-64.93 354.309,-155.469c4.418,-3.955 9.026,-7.697 14.751,-12.565c3.365,7.699 6.238,14.308 9.138,20.905c12.051,27.412 23.263,55.232 36.414,82.105c11.828,24.171 31.94,36.304 59.694,35.802c34.65,-0.627 69.324,0.058 103.984,-0.212c31.518,-0.244 54.924,-13.87 68.389,-43.042l1.591,0.007l1.59,-0.015l0,996l-2100,0c7.501,-2.63 14.82,-6.115 22.531,-7.761c95.014,-20.282 158.215,-75.004 184.167,-169.919c5.793,-21.188 0.765,-28.476 -19.555,-28.505c-142.441,-0.204 -284.882,-0.194 -427.323,-0.021c-19.873,0.026 -24.283,5.824 -20.728,26.209c12.735,73.019 53.651,124.643 120.28,155.977c14.341,6.744 29.836,11.035 44.8,16.455l19.828,7.565Z" style="fill:#feffff;fill-rule:nonzero;"/><path d="M1847.38,1192.57c4.309,-17.258 -4.127,-26.825 -18.767,-34.472c-51.575,-26.943 -105.661,-46.992 -162.798,-57.486c-55.374,-10.169 -110.861,-16.42 -167.799,-9.431c-49.843,6.118 -95.847,21.054 -138.871,45.592c-33.113,18.885 -61.944,43.716 -85.899,73.414c-43.318,53.704 -69.452,115.574 -83.439,182.774c-0.973,4.672 0.89,9.936 1.435,14.925c-0.688,2.83 -1.375,5.659 -2.063,8.488c-6.301,2.877 -5.897,6.889 -1.95,11.503c-0.152,3.302 -0.013,6.647 -0.498,9.9c-16.83,112.737 6.108,217.359 67.162,312.938c44.408,69.519 107.375,115.519 188.077,135.526c55.233,13.693 110.971,13.5 166.331,1.516c101.913,-22.059 179.499,-77.622 229.56,-170.072c7.43,-13.72 11.014,-27.792 10.969,-43.723c-0.425,-152.502 -0.236,-305.006 -0.305,-457.509c-0.003,-7.961 -0.747,-15.922 -1.145,-23.883m-1046.95,547.43c-7.845,-41.118 -18.714,-81.927 -22.952,-123.413c-11.44,-111.978 -8.748,-223.693 18.49,-333.632c48.962,-197.618 154.112,-355.364 331.489,-460.344c101.154,-59.869 211.727,-89.48 328.747,-94.465c129.783,-5.527 256.297,13.541 379.595,54.263c3.077,1.016 6.257,1.718 12.773,3.483l0,-24.17c0,-221.938 0.734,-443.88 -0.598,-665.81c-0.278,-46.312 17.113,-76.217 60.027,-91.916l272,0c3.424,0.917 6.848,1.835 10.271,2.753c36.25,11.812 54.053,36.082 54.268,74.263c0.127,22.657 0.029,45.314 0.029,67.972c0.002,665.729 0.007,1331.46 -0.036,1997.19c0,8.631 -0.6,17.264 -0.92,25.897c-4.682,7.946 -8.556,16.532 -14.219,23.705c-11.048,13.991 -24.733,24.22 -43.775,24.224c-45.307,0.009 -90.619,0.325 -135.918,-0.311c-7.482,-0.104 -16.356,-2.575 -22.075,-7.115c-15.141,-12.023 -27.871,-26.255 -34.188,-45.543c-12.21,-37.276 -25.249,-74.282 -38.074,-111.354c-1.572,-4.545 -3.943,-8.813 -7.327,-16.249c-9.543,10.531 -17.092,18.961 -24.75,27.291c-35.804,38.949 -77.46,70.452 -122.325,98.29c-83.487,51.802 -174.667,82.23 -271.764,89.949c-79.467,6.318 -159.127,1.306 -237.066,-20.552c-70.425,-19.753 -137.032,-47.445 -197.153,-89.047c-46.929,-32.472 -91.028,-68.175 -128.644,-112.104c-36.956,-43.16 -69.841,-88.657 -96.804,-138.453c-23.805,-43.965 -43.561,-89.721 -58.036,-137.712c-1.882,-6.241 -7.29,-11.418 -11.065,-17.087" style="fill:#182c34;fill-rule:nonzero;"/><path d="M4551.47,1731.91c-0.303,3.955 -0.316,7.957 -0.953,11.858c-15.044,92.263 39.724,180.88 129.27,207.741c50.91,15.27 102.37,15.526 153.423,0.513c68.145,-20.038 125.598,-56.75 170.451,-112.292c12.836,-15.896 19.95,-33.073 19.477,-54.755c-1.219,-55.833 -0.07,-111.717 0.133,-167.581c1.279,-24.393 0.664,-25.377 -19.205,-32.851c-52.465,-19.737 -106.959,-31.542 -162.53,-35.934c-47.664,-3.767 -95.675,-1.465 -142.078,12.283c-81.037,24.01 -135.799,73.153 -149.762,160.077c-0.557,3.462 1.131,7.286 1.774,10.941m-208.205,-643.644c-9.041,-44.237 -18.174,-88.455 -27.086,-132.718c-4.994,-24.805 -9.804,-49.651 -14.371,-74.538c-7.129,-38.841 8.036,-68.763 45.772,-79.684c52.984,-15.335 106.643,-29.045 160.767,-39.582c131.834,-25.667 264.971,-39.142 399.496,-33.445c77.568,3.284 153.709,14.861 226.453,43.731c119.588,47.463 192.278,136.682 229.344,257.522c19.434,63.354 29.611,128.358 33.38,194.431c-0.153,12.789 -0.305,25.578 -0.457,38.367c1.145,8.549 2.292,17.097 3.438,25.646l0,876c-1.248,2.264 -3.159,4.393 -3.644,6.81c-5.92,29.488 -28.834,49.039 -58.476,49.164c-39.974,0.169 -79.953,-0.291 -119.921,0.225c-13.664,0.177 -25.822,-2.96 -33.437,-14.119c-10.383,-15.215 -20.224,-31.057 -28.088,-47.674c-12.647,-26.726 -23.486,-54.308 -35.678,-82.903c-12.56,10.254 -23.734,18.465 -33.87,27.804c-49.558,45.662 -107.272,78.398 -168.747,104.351c-84.328,35.603 -172.645,49.974 -264.32,48.862c-74.764,-0.906 -145.959,-14.175 -215.211,-42.553c-65.198,-26.717 -118.744,-68.813 -162.979,-121.74c-49.768,-59.549 -80.681,-129.36 -95.754,-205.836c-0.699,-3.547 -3.22,-6.737 -4.894,-10.092c-0.563,-2.857 -1.125,-5.714 -1.689,-8.571c-0.407,-5.229 -0.815,-10.459 -1.223,-15.688c-0.763,-48.425 -6.879,-97.472 -1.334,-145.163c20.767,-178.667 126.416,-292.141 287.925,-358.364c103.938,-42.617 213.409,-54.599 324.871,-50.457c80.071,2.975 158.734,15.849 236.032,36.999c3.135,0.858 6.449,1.065 11.052,1.793c4.676,-34.637 -2.699,-67.707 -6.035,-100.971c0.608,-4.957 2.348,-10.096 1.588,-14.833c-1.571,-9.777 -4.219,-19.41 -6.872,-28.978c-22.239,-80.168 -75.351,-121.397 -154.458,-127.035c-53.348,-3.802 -107.373,1.519 -161.074,3.357c-15.145,0.519 -30.262,2.804 -45.31,4.88c-34.01,4.692 -68.106,8.968 -101.913,14.876c-40.998,7.165 -82.56,13.013 -122.343,24.674c-37.286,10.93 -67.575,9.628 -90.934,-24.548" style="fill:#182c34;fill-rule:nonzero;"/><path d="M3204.17,3192.44c-14.964,-5.421 -30.459,-9.712 -44.8,-16.456c-66.629,-31.334 -107.545,-82.957 -120.28,-155.977c-3.555,-20.385 0.854,-26.183 20.727,-26.209c142.442,-0.173 284.883,-0.183 427.324,0.021c20.32,0.029 25.348,7.317 19.554,28.505c-25.951,94.915 -89.152,149.636 -184.167,169.919c-7.711,1.646 -15.029,5.131 -22.53,7.76l-52,0l-43.828,-7.564Z" style="fill:#1e3139;fill-rule:nonzero;"/><path d="M4,2484c101.947,-0.178 203.894,-0.362 305.841,-0.479c1.86,-0.002 3.72,0.807 6.392,1.425l0,117.659l-29.588,0c-4.077,-17.929 -7.901,-35.365 -12.021,-52.731c-7.133,-30.061 -13.211,-36.892 -44.491,-38.436c-35.708,-1.761 -71.569,-0.408 -108.538,-0.408l0,161.247c23.693,-0.341 48.058,2.369 72.017,-2.678c6.25,-1.317 12.848,-8.974 15.986,-15.345c5.81,-11.797 9.186,-24.794 13.775,-37.859l25.077,0c-4.459,44.695 -8.92,89.408 -13.546,135.783l-24.266,0c-1.557,-11.725 -3.25,-23.461 -4.637,-35.233c-1.149,-9.754 -5.436,-16.445 -15.992,-17.086c-22.393,-1.357 -44.798,-2.526 -69.571,-3.904c0,15.277 -0.001,27.736 0,40.194c0.001,34.652 0.583,69.318 -0.289,103.947c-0.333,13.19 5.507,18.139 17.051,19.287c14.522,1.443 29.063,2.701 44.987,4.166c0.663,7.24 1.243,13.569 1.952,21.305c-7.109,0.43 -12.873,1.072 -18.639,1.083c-47.312,0.081 -94.625,-0.034 -141.937,0.132c-6.523,0.023 -13.042,1.257 -19.563,1.931l0,-12c6.225,-15.433 20.214,-14.541 33.255,-16.109c20.137,-2.42 22.24,-4.852 22.251,-24.888c0.051,-89.8 0.022,-179.599 0.022,-269.399c0,-12.638 -0.346,-25.29 0.107,-37.912c0.333,-9.283 -2.14,-15.276 -12.435,-16.674c-14.451,-1.964 -28.805,-4.645 -43.2,-7.018l0,-20Z" style="fill:#1e3139;fill-rule:nonzero;"/><path d="M4174.98,1876.3c1.674,3.355 4.195,6.545 4.895,10.092c15.072,76.476 45.985,146.287 95.753,205.837c44.235,52.926 97.782,95.022 162.979,121.739c69.252,28.378 140.447,41.647 215.211,42.554c91.676,1.111 179.992,-13.26 264.32,-48.863c61.475,-25.953 119.19,-58.689 168.747,-104.351c10.136,-9.339 21.31,-17.55 33.87,-27.804c12.192,28.595 23.032,56.177 35.678,82.903c7.864,16.618 17.705,32.459 28.088,47.674c7.615,11.159 19.773,14.296 33.438,14.119c39.967,-0.516 79.947,-0.056 119.92,-0.225c29.642,-0.125 52.556,-19.676 58.476,-49.163c0.485,-2.417 2.396,-4.547 3.645,-6.811l0,28l-3.182,12.009c-13.465,29.172 -36.871,42.798 -68.389,43.042c-34.66,0.269 -69.334,-0.415 -103.984,0.212c-27.754,0.502 -47.865,-11.631 -59.694,-35.802c-13.151,-26.873 -24.363,-54.693 -36.414,-82.105c-2.9,-6.597 -5.773,-13.206 -9.137,-20.906c-5.726,4.869 -10.333,8.611 -14.751,12.566c-101.118,90.539 -220,140.651 -354.31,155.469c-86.206,9.51 -171.973,7.853 -255.443,-17.858c-173.057,-53.307 -275.745,-171.411 -314.561,-346.86c-2.573,-11.634 -3.475,-23.637 -5.155,-35.468" style="fill:#212725;fill-rule:nonzero;"/><path d="M4,2504c14.395,2.373 28.749,5.054 43.2,7.018c10.295,1.398 12.768,7.391 12.435,16.674c-0.453,12.622 -0.107,25.274 -0.107,37.912c0,89.8 0.029,179.599 -0.022,269.399c-0.011,20.036 -2.114,22.468 -22.251,24.888c-13.041,1.568 -27.03,0.676 -33.255,16.109l0,-372Z" style="fill:#fdfefe;fill-rule:nonzero;"/><path d="M3204.17,3192.44l43.828,7.563l-24,0l-19.828,-7.564Z" style="fill:#fdfefe;fill-rule:nonzero;"/><path d="M2190.27,6.753c-3.424,-0.917 -6.848,-1.835 -10.271,-2.753l16,0c-1.91,0.918 -3.82,1.836 -5.729,2.753" style="fill:#fab717;fill-rule:nonzero;"/><path d="M2992.7,1251.88l-0.379,1.533c-3.955,15.16 -8.104,30.275 -11.623,45.535c-0.451,1.956 2.38,4.67 3.69,7.033c5.98,0.226 11.958,0.648 17.937,0.649c183.58,0.035 367.159,0.037 550.738,-0.008c5.304,-0.001 10.607,-0.552 15.91,-0.836c4.31,-22.476 -1.973,-43.428 -9.242,-64.238c-20.13,-71.665 -64.609,-124.898 -131.001,-155.484c-117.534,-54.145 -232.337,-43.656 -339.457,29.169c-45.122,30.675 -75.95,74.13 -92.985,126.586c-1.196,3.353 -2.392,6.707 -3.588,10.061m-425.096,362.266c-2.18,-46.513 -6.855,-93.069 -6.058,-139.531c2.11,-123.027 29.284,-240.688 86.739,-349.908c111.537,-212.026 284.009,-345.647 520.929,-386.675c201.898,-34.963 390.464,2.548 554.53,131.427c131.643,103.409 206.969,241.209 236.154,405.013c14.247,79.96 13.802,160.387 5.591,240.934c-1.613,0.984 -4.09,1.59 -4.713,3.009c-16.394,37.393 -45.935,49.32 -85.292,49.231c-297.943,-0.676 -595.888,-0.369 -893.833,-0.369l-25.152,0c1.222,9.82 2.113,16.982 3.004,24.145c9.447,101.485 57.102,181.637 137.796,242.183c60.228,45.192 129.115,67.733 204.259,70.673c124.463,4.87 236.578,-28.992 334.364,-107.413c13.633,-10.935 28.409,-19.614 46.434,-21.357c18.733,-1.81 34.279,3.973 45.656,19.058c44.493,58.992 88.814,118.112 133.163,177.213c12.07,16.083 13.116,34.365 10.31,53.355c-8.68,17.666 -21.683,31.423 -36.981,43.739c-180.626,145.41 -386.804,207.757 -616.884,183.388c-232.604,-24.636 -411.874,-139.125 -536.913,-336.518c-25.496,-40.249 -43.803,-85.052 -65.424,-127.756c-12.549,-44.401 -25.2,-88.774 -37.586,-133.222c-3.744,-13.434 -6.749,-27.074 -10.093,-40.619" style="fill:#fab717;fill-rule:nonzero;"/><path d="M60.361,2172.03c-0.312,-7.299 -0.896,-14.597 -0.896,-21.895c-0.041,-435.656 -0.054,-871.313 0.08,-1306.97c0.003,-10.52 1.687,-21.039 2.587,-31.559c0.568,-1.401 1.136,-2.803 1.704,-4.203c9.32,-30.086 32.492,-47.784 65.282,-48.342c35.317,-0.601 70.652,-0.178 105.979,-0.184c47.991,-0.007 96.022,1.219 143.962,-0.354c43.469,-1.426 76.744,32.218 76.69,76.066c-0.539,441.253 -0.33,882.507 -0.373,1323.76c-0.001,4.639 -0.549,9.279 -0.841,13.918c-3.997,6.083 -7.516,12.555 -12.082,18.176c-13.243,16.305 -27.966,29.766 -51.213,29.691c-90.261,-0.289 -180.524,0.09 -270.782,-0.46c-8.698,-0.052 -17.687,-4.055 -25.984,-7.547c-17.912,-7.54 -23.395,-26.148 -34.113,-40.1" style="fill:#182c34;fill-rule:nonzero;"/><path d="M3275.97,2411.43c87.938,-0.003 175.875,0.212 263.811,-0.157c21.345,-0.09 39.121,6.586 53.341,22.392c10.703,11.896 15.587,25.828 15.401,42.01c-0.393,33.972 0.107,67.952 -0.176,101.925c-0.356,42.746 -28.246,67.715 -71.484,62.528c-28.373,-3.403 -56.439,-9.346 -84.651,-14.098c-146.339,-24.651 -292.683,-49.265 -439.014,-73.962c-9.169,-1.547 -19.021,-2.011 -27.22,-5.837c-37.494,-17.498 -47.542,-42.031 -42.176,-83.151c3.805,-29.158 31.538,-51.419 64.361,-51.537c89.268,-0.319 178.537,-0.109 267.807,-0.113" style="fill:#182c34;fill-rule:nonzero;"/><path d="M3281.77,2885.88c-84.656,-0.004 -169.312,-0.145 -253.967,0.105c-18.67,0.055 -35.675,-3.368 -49.782,-16.551c-13.384,-12.509 -20.491,-27.898 -20.64,-46.087c-0.286,-35.326 -0.849,-70.678 0.122,-105.98c1.204,-43.729 32.687,-67.653 75.324,-59.951c110.068,19.886 220.243,39.183 330.372,58.732c58.346,10.357 116.727,20.52 175.011,31.214c34.23,6.282 54.953,31.098 55.125,65.436c0.064,12.633 -0.003,25.451 -1.987,37.869c-3.533,22.114 -15.145,32.471 -37.656,34.185c-15.255,1.161 -30.63,0.974 -45.952,0.992c-75.324,0.086 -150.647,0.039 -225.97,0.036" style="fill:#182c34;fill-rule:nonzero;"/><path d="M1186.48,2734.13c0,-23.295 0.309,-46.598 -0.205,-69.882c-0.138,-6.3 -0.825,-14.247 -4.579,-18.531c-19.955,-22.78 -43.698,-40.024 -75.962,-36.258c-32.714,3.818 -52.1,25.19 -62.346,54.798c-14.973,43.271 -13.944,86.76 5.689,128.25c23.612,49.899 81.754,63.301 126.563,31.051c7.819,-5.627 11.309,-11.768 11.039,-21.543c-0.627,-22.613 -0.199,-45.254 -0.199,-67.885m101.964,123.855c-0.472,5.868 -0.833,10.36 -1.319,16.4c-33.169,3.749 -65.936,7.452 -99.802,11.28c-0.671,-14.716 -1.254,-27.498 -1.935,-42.426c-11.003,8.684 -19.306,16.165 -28.492,22.331c-47.659,31.994 -106.776,24.522 -144.242,-18.736c-66.181,-76.412 -43.816,-228.054 77.606,-260.359c26.321,-7.003 52.604,-6.941 79.013,-0.821c4.484,1.039 9.019,1.865 15.435,3.179c0.633,-5.729 1.615,-10.637 1.645,-15.55c0.157,-25.302 0.171,-50.607 0.039,-75.911c-0.117,-22.432 -0.62,-22.95 -21.428,-29.165c-9.547,-2.852 -19.083,-5.747 -29.536,-8.897c-0.691,-7.941 -2.874,-16.317 8.779,-18.084c30.843,-4.68 61.733,-9.046 95.296,-13.929l0,22.785c0.001,123.191 -0.013,246.38 0.016,369.57c0.005,23.345 0.086,23.335 22.296,30.105c8.227,2.507 16.434,5.075 26.629,8.228" style="fill:#1e3139;fill-rule:nonzero;"/><path d="M816.093,2884.74c0.761,-7.956 1.318,-13.785 2.007,-20.99c8.332,-1.209 16.117,-2.488 23.941,-3.435c9.135,-1.106 14.489,-4.917 14.398,-15.247c-0.447,-50.62 -0.408,-101.245 -0.895,-151.865c-0.063,-6.556 -1.792,-13.19 -3.412,-19.62c-7.123,-28.273 -23.705,-41.067 -53.131,-41.379c-24.269,-0.258 -45.605,8.738 -65.141,21.991c-4.032,2.736 -7.331,9.666 -7.374,14.692c-0.5,58.618 -0.236,117.241 -0.377,175.861c-0.024,10.063 5.054,14.426 14.38,15.382c9.887,1.012 19.758,2.174 30.865,3.408c0.844,6.761 1.628,13.042 2.617,20.964l-140.973,0l0,-19.794c6.168,-1.28 11.829,-2.744 17.581,-3.597c22.001,-3.264 22.142,-3.189 22.168,-24.324c0.062,-51.293 0.156,-102.588 -0.079,-153.88c-0.182,-39.795 -1.987,-41.895 -40.943,-52.654l0,-17.784c30.579,-8.079 61.192,-16.166 94.146,-24.871l0,46.386c8.167,-5.503 13.087,-9.645 18.68,-12.439c21.279,-10.631 41.829,-24.223 64.38,-30.504c53.693,-14.956 95.448,16.677 99.564,72.601c1.025,13.924 0.743,27.957 0.771,41.941c0.086,43.3 -0.027,86.598 0.057,129.899c0.041,20.744 1.298,21.987 22.094,25.001c6.525,0.946 13.017,2.126 20.46,3.354c0.776,6.878 1.489,13.2 2.358,20.903l-138.142,0Z" style="fill:#1e3139;fill-rule:nonzero;"/><path d="M2284.81,2864.7c3.544,-0.98 5.428,-1.731 7.38,-2.008c35.234,-4.991 32.208,-0.748 32.245,-37.711c0.045,-45.3 0.025,-90.599 -0.032,-135.899c-0.01,-7.991 0.041,-16.012 -0.593,-23.966c-1.513,-18.947 -5.886,-24.273 -23.646,-29.93c-5.607,-1.785 -11.247,-3.469 -16.99,-5.236c-2.661,-9.801 -2.959,-17.151 9.143,-20.125c27.6,-6.78 55.026,-14.273 84.808,-22.076l0,47.362c8.544,-6.145 13.63,-9.79 18.702,-13.455c20.129,-14.552 41.604,-26.28 66.103,-31.756c52.38,-11.707 93.713,17.947 97.987,71.376c1.643,20.534 0.89,41.272 0.954,61.916c0.119,37.972 -0.044,75.944 0.07,113.915c0.056,18.531 1.703,20.298 19.628,23.079c7.199,1.118 14.414,2.121 22.774,3.346c0.8,6.68 1.556,12.991 2.509,20.946l-136.579,0l0,-19.51c4.624,-1.224 8.333,-2.548 12.157,-3.163c26.639,-4.283 26.66,-4.236 26.662,-30.334c0.003,-39.97 0.402,-79.948 -0.252,-119.908c-0.227,-13.864 -1.673,-28.042 -5.056,-41.448c-6.127,-24.279 -22.592,-36.395 -47.773,-37.826c-25.782,-1.464 -48.483,7.674 -69.191,21.704c-4.443,3.011 -7.929,10.784 -7.986,16.402c-0.575,57.285 -0.184,114.579 -0.482,171.869c-0.06,11.669 4.778,17.198 16.184,18.065c9.273,0.705 18.498,2.022 29.888,3.31c0.631,6.883 1.251,13.637 1.968,21.46l-140.582,0l0,-20.399Z" style="fill:#1e3139;fill-rule:nonzero;"/><path d="M800.429,1740c3.775,5.669 9.183,10.847 11.065,17.087c14.476,47.991 34.231,93.747 58.037,137.713c26.962,49.796 59.847,95.293 96.803,138.452c37.616,43.93 81.715,79.633 128.644,112.104c60.121,41.602 126.728,69.294 197.153,89.047c77.94,21.859 157.599,26.87 237.067,20.552c97.096,-7.719 188.276,-38.146 271.764,-89.949c44.864,-27.838 86.521,-59.341 122.324,-98.289c7.658,-8.33 15.207,-16.761 24.75,-27.291c3.384,7.435 5.755,11.703 7.327,16.248c12.826,37.072 25.864,74.078 38.074,111.354c6.317,19.288 19.047,33.52 34.188,45.543c5.719,4.54 14.594,7.011 22.075,7.116c45.299,0.635 90.611,0.319 135.918,0.31c19.042,-0.004 32.727,-10.232 43.775,-24.224c5.663,-7.172 9.537,-15.758 14.22,-23.705c2.087,40.832 -24.963,72.892 -66.035,74.532c-41.924,1.672 -83.97,0.775 -125.954,0.266c-19.909,-0.241 -36.548,-9.353 -47.158,-25.96c-8.498,-13.3 -15.643,-27.901 -20.778,-42.824c-11.905,-34.596 -22.229,-69.734 -33.809,-106.615c-3.936,3.084 -7.57,5.296 -10.425,8.258c-132.487,137.47 -294.237,205.597 -485.028,201.173c-285.079,-6.608 -522.336,-178.23 -626.279,-451.529c-11.065,-29.096 -18.564,-59.547 -27.718,-89.369" style="fill:#212725;fill-rule:nonzero;"/><path d="M1472.27,2723.16c-28.494,6.549 -56.764,15.348 -81.29,33.561c-3.704,2.75 -7.054,6.151 -9.998,9.721c-12.468,15.117 -14.59,37.318 -4.865,54.339c9.908,17.344 25.301,24.856 45.1,23.348c18.2,-1.385 32.651,-10.901 45.791,-22.423c2.982,-2.615 4.972,-7.937 5.036,-12.05c0.432,-27.914 0.226,-55.838 0.226,-86.496m4.25,-23.994c-1.199,-31.881 2.174,-65.174 -28.59,-83.768c-25.822,-15.605 -53.542,-9.308 -81.203,4.24c3.958,6.944 7.367,12.368 10.235,18.065c7.856,15.607 4.398,31.877 -8.468,40.995c-13.19,9.349 -35.186,7.689 -46.224,-3.486c-10.656,-10.79 -11.045,-25.192 -1.084,-40.149c30.567,-45.897 113.814,-71.51 165.056,-50.966c20.236,8.112 33.5,23.235 37.085,43.839c4.191,24.092 6.296,48.847 6.239,73.307c-0.087,37.276 -2.823,74.546 -4.389,111.819c-0.168,3.989 -0.424,8.034 0.03,11.976c2.046,17.797 11.233,22.901 27.687,15.197c5.941,-2.782 11.444,-6.503 18.179,-10.39c3.379,3.706 6.795,7.453 10.672,11.705c-9.227,15.843 -21.459,27.77 -36.438,36.588c-30.385,17.885 -58.587,6.15 -67.998,-27.81c-0.847,-3.055 -1.439,-6.18 -2.523,-10.902c-11.497,10.008 -21.45,19.65 -32.39,27.998c-24.689,18.838 -52.051,23.528 -80.868,11.117c-52.03,-22.409 -62.646,-89.032 -18.293,-124.105c18.868,-14.921 42.286,-24.842 64.829,-34.143c21.385,-8.821 44.33,-13.862 68.456,-21.127" style="fill:#1e3139;fill-rule:nonzero;"/><path d="M544.452,2750.23c-0.572,-36.409 -4.482,-65.941 -16.561,-93.874c-9.947,-23.006 -25.766,-40.258 -50.187,-48.129c-43.067,-13.882 -86.636,9.793 -100.661,57.304c-14.872,50.386 -9.223,100.373 12.714,147.758c13.626,29.434 37.963,46.387 71.205,45.978c33.201,-0.406 56.056,-18.437 70.551,-47.401c10.663,-21.308 13.835,-44.255 12.939,-61.637m-233.343,-12.296c-0.231,-108.373 95.732,-182.744 194.2,-154.119c40.254,11.703 68.403,37.587 85.13,75.658c26.59,60.524 12.29,136.875 -35.148,183.143c-43.562,42.486 -95.823,54.349 -152.904,34.671c-56.465,-19.467 -82.108,-64.477 -90.218,-121.186c-1.033,-7.223 -0.87,-14.615 -1.06,-18.166" style="fill:#1e3139;fill-rule:nonzero;"/><path d="M2204.4,2752.78c-0.696,-38.149 -4.478,-67.688 -16.394,-95.695c-9.818,-23.077 -25.447,-40.513 -49.737,-48.648c-43.558,-14.587 -87.721,9.782 -101.761,58.263c-14.425,49.809 -8.639,99.111 12.665,145.908c13.408,29.449 37.549,46.805 70.814,46.656c34.076,-0.151 57.273,-18.612 71.829,-48.498c10.126,-20.791 13.244,-43.058 12.584,-57.986m-233.488,-15.482c0.044,-108.227 96.366,-182.319 194.784,-153.329c40.197,11.842 68.246,37.92 84.805,76.047c26.654,61.373 11.456,138.469 -37.241,184.425c-43.598,41.145 -95.385,52.372 -151.607,32.62c-56.364,-19.802 -81.868,-64.772 -89.668,-121.549c-0.993,-7.232 -0.877,-14.616 -1.073,-18.214" style="fill:#1e3139;fill-rule:nonzero;"/><path d="M2615.29,1787.99c21.621,42.704 39.928,87.507 65.424,127.756c125.039,197.393 304.309,311.882 536.913,336.518c230.08,24.37 436.258,-37.978 616.884,-183.388c15.298,-12.316 28.301,-26.073 36.981,-43.739c4.282,17.117 -2.546,31.439 -12.477,44.242c-6.046,7.794 -13.687,14.551 -21.376,20.84c-165.221,135.095 -354.704,198.127 -567.801,190.523c-296.074,-10.564 -549.647,-192.735 -654.271,-469.919c-1.39,-3.684 -2.251,-7.566 -3.359,-11.357l3.082,-11.476Z" style="fill:#212725;fill-rule:nonzero;"/><path d="M1624.99,2621.58c-17.057,-0.906 -32.78,-1.742 -48.232,-2.563c-4.859,-12.851 -1.445,-21.086 8.247,-28.754c20.379,-16.123 39.996,-33.21 59.907,-49.923c14.288,-11.993 14.274,-12.01 34.635,-5.69l0,52.849l104.428,0c-1.656,11.608 -3.022,21.178 -4.616,32.346l-99.431,0c-0.917,17.272 -2.006,33.028 -2.537,48.802c-1.256,37.311 -2.246,74.63 -3.341,111.946c-0.039,1.332 -0.082,2.666 -0.063,3.999c0.669,46.567 28.28,67.954 73.831,56.656c11.446,-2.839 22.471,-7.376 33.875,-11.194c4.66,8.131 4.686,14.804 -2.687,21.344c-24.302,21.562 -51.852,35.146 -84.945,34.265c-38.365,-1.021 -63.896,-23.354 -69.974,-61.172c-1.892,-11.767 -2.509,-23.89 -2.276,-35.822c1.016,-51.986 2.57,-103.962 3.881,-155.943c0.066,-2.597 -0.312,-5.206 -0.702,-11.146" style="fill:#1e3139;fill-rule:nonzero;"/><path d="M2959.51,1591.42c-0.891,-7.163 -1.782,-14.325 -3.004,-24.145l25.152,0c297.945,0 595.89,-0.307 893.833,0.369c39.357,0.089 68.898,-11.838 85.292,-49.231c0.623,-1.419 3.1,-2.025 4.713,-3.009c-0.197,45.771 -38.643,76.646 -84.311,76.49c-307.222,-1.054 -614.449,-0.504 -921.675,-0.474" style="fill:#212725;fill-rule:nonzero;"/><path d="M1955.94,2864.1c0.655,7.25 1.176,13.024 1.842,20.393l-137.207,0l0.001,-20.368c8.983,-1.399 17.959,-2.734 26.912,-4.212c8.306,-1.371 12.764,-5.68 12.713,-14.793c-0.338,-59.906 0.031,-119.82 -0.842,-179.716c-0.286,-19.544 -6.023,-24.789 -25.231,-30.702c-5.016,-1.544 -10.066,-2.979 -15.147,-4.477c-4.331,-11.199 -1.98,-17.848 10.202,-20.822c27.06,-6.608 53.949,-13.908 83.797,-21.679l0,22.492c0,73.89 -0.008,147.779 0.004,221.668c0.005,26.086 0.032,26.046 25.468,29.26c5.26,0.665 10.467,1.755 17.488,2.956" style="fill:#1e3139;fill-rule:nonzero;"/><path d="M4343.26,1088.27c23.359,34.176 53.648,35.479 90.934,24.548c39.783,-11.661 81.345,-17.509 122.343,-24.674c33.807,-5.908 67.903,-10.184 101.913,-14.875c15.048,-2.077 30.165,-4.362 45.31,-4.881c53.701,-1.838 107.727,-7.159 161.074,-3.357c79.107,5.638 132.219,46.867 154.458,127.035c2.654,9.568 5.301,19.201 6.872,28.978c0.76,4.737 -0.98,9.876 -1.588,14.833c-3.964,-12.656 -7.554,-25.444 -11.956,-37.947c-25.844,-73.419 -81.882,-106.01 -155.674,-109.111c-49.01,-2.059 -98.45,0.329 -147.413,4.264c-86.81,6.977 -173.005,19.277 -257.976,39.007c-9.694,2.25 -19.303,4.897 -28.897,7.554c-44.5,12.326 -71.214,-4.934 -79.4,-51.374" style="fill:#212725;fill-rule:nonzero;"/><path d="M60.361,2172.03c10.718,13.952 16.201,32.56 34.113,40.1c8.297,3.492 17.286,7.495 25.984,7.547c90.258,0.55 180.521,0.171 270.782,0.46c23.247,0.075 37.97,-13.386 51.213,-29.691c4.566,-5.621 8.085,-12.093 12.082,-18.176c1.283,40.313 -28.124,73.899 -68.933,74.44c-85.656,1.133 -171.348,1.162 -257.002,-0.016c-41.068,-0.565 -70.18,-34.312 -68.239,-74.664" style="fill:#212725;fill-rule:nonzero;"/><path d="M1915.32,2493.27c0.514,22.472 -13.071,38.218 -33.571,38.913c-21.022,0.712 -35.405,-13.501 -36.462,-36.03c-1.081,-23.07 13.37,-39.802 34.572,-40.026c20.702,-0.221 34.948,14.701 35.461,37.142" style="fill:#1e3139;fill-rule:nonzero;"/><path d="M2615.29,1787.99l-3.082,11.476c-20.413,-48.017 -31.501,-98.551 -40.16,-149.709c-1.994,-11.778 -2.984,-23.725 -4.436,-35.601c3.343,13.538 6.348,27.178 10.092,40.612c12.386,44.448 25.037,88.821 37.586,133.222" style="fill:#1e3139;fill-rule:nonzero;"/><path d="M4172.07,1852.04c0.408,5.229 0.816,10.459 1.224,15.688c-0.408,-5.229 -0.816,-10.459 -1.224,-15.688" style="fill:#212725;fill-rule:nonzero;"/><path d="M63.836,807.399c-0.568,1.401 -1.136,2.802 -1.704,4.204c0.568,-1.401 1.136,-2.803 1.704,-4.204" style="fill:#212725;fill-rule:nonzero;"/><path d="M1189.17,1416.38c0.688,-2.83 1.375,-5.659 2.063,-8.488c6.978,-22.168 12.631,-44.86 21.157,-66.415c42.897,-108.459 117.003,-184.503 231.374,-216.105c76.203,-21.057 152.966,-14.851 229.348,0.766c61.696,12.615 119.364,35.922 174.259,66.438c0.399,7.961 1.142,15.922 1.145,23.883c0.069,152.503 -0.12,305.007 0.305,457.508c0.045,15.932 -3.539,30.003 -10.968,43.724c-50.062,92.45 -127.648,148.013 -229.561,170.072c-55.36,11.984 -111.098,12.177 -166.331,-1.516c-80.702,-20.007 -143.668,-66.007 -188.077,-135.527c-61.054,-95.578 -83.991,-200.2 -67.162,-312.938c0.486,-3.252 0.346,-6.597 0.498,-9.9c0.65,-3.834 1.301,-7.668 1.95,-11.502" style="fill:#feffff;fill-rule:nonzero;"/><path d="M1847.38,1192.57c-54.896,-30.516 -112.563,-53.823 -174.259,-66.438c-76.382,-15.617 -153.145,-21.823 -229.348,-0.766c-114.372,31.602 -188.477,107.646 -231.374,216.105c-8.526,21.556 -14.179,44.247 -21.157,66.415c-0.545,-4.989 -2.408,-10.253 -1.435,-14.925c13.987,-67.2 40.121,-129.07 83.439,-182.774c23.955,-29.698 52.786,-54.529 85.899,-73.414c43.024,-24.538 89.028,-39.474 138.871,-45.592c56.938,-6.989 112.425,-0.738 167.799,9.431c57.137,10.494 111.223,30.543 162.798,57.486c14.64,7.647 23.076,17.214 18.767,34.472" style="fill:#212725;fill-rule:nonzero;"/><path d="M1189.17,1416.38c-0.649,3.834 -1.3,7.668 -1.95,11.502c-3.947,-4.613 -4.351,-8.626 1.95,-11.502" style="fill:#212725;fill-rule:nonzero;"/><path d="M5023.27,1617.4c-0.204,55.863 -1.352,111.748 -0.133,167.581c0.472,21.682 -6.641,38.858 -19.477,54.755c-44.854,55.542 -102.307,92.254 -170.452,112.292c-51.052,15.013 -102.512,14.757 -153.422,-0.514c-89.546,-26.86 -144.315,-115.477 -129.271,-207.74c0.637,-3.901 0.65,-7.903 0.953,-11.858c21.412,-86.059 80.157,-132.806 163.447,-150.368c106.358,-22.425 209.004,-5.698 308.354,35.852" style="fill:#fdfefe;fill-rule:nonzero;"/><path d="M5023.27,1617.4c-99.351,-41.55 -201.997,-58.277 -308.355,-35.852c-83.29,17.562 -142.035,64.309 -163.447,150.368c-0.642,-3.656 -2.331,-7.479 -1.774,-10.942c13.965,-86.924 68.725,-136.066 149.764,-160.076c46.401,-13.748 94.413,-16.051 142.077,-12.283c55.57,4.392 110.064,16.197 162.529,35.933c19.869,7.475 20.485,8.458 19.206,32.852" style="fill:#212725;fill-rule:nonzero;"/><path d="M3568.98,1305.77c-5.305,0.294 -10.607,0.845 -15.91,0.846c-183.58,0.045 -367.159,0.043 -550.739,0.008c-5.979,-0.001 -11.957,-0.423 -17.937,-0.647c3.661,-14.057 7.323,-28.115 10.985,-42.174c1.932,-4.217 3.92,-8.41 5.788,-12.656c30.645,-69.613 81.078,-119.032 151.446,-147.883c58.548,-24.004 119.645,-30.922 181.908,-22.516c81.625,11.02 148.511,48.343 194.619,118.195c10.896,16.507 18.51,35.178 27.634,52.852c4.068,17.992 8.137,35.984 12.205,53.975" style="fill:#fdfefe;fill-rule:nonzero;"/><path d="M3556.77,1251.8c-9.124,-17.675 -16.738,-36.346 -27.634,-52.852c-46.108,-69.853 -112.994,-107.175 -194.619,-118.195c-62.263,-8.406 -123.36,-1.488 -181.908,22.516c-70.368,28.85 -120.801,78.27 -151.445,147.883c-1.869,4.245 -3.857,8.439 -5.789,12.656c-1.017,-3.465 -2.035,-6.931 -3.052,-10.396c0,0 0.379,-1.533 0.379,-1.531c1.195,-3.352 2.391,-6.708 3.588,-10.063c17.035,-52.456 47.863,-95.911 92.985,-126.587c107.12,-72.825 221.923,-83.314 339.457,-29.168c66.392,30.585 110.871,83.819 131.001,155.478c-0.988,3.417 -1.976,6.838 -2.963,10.259" style="fill:#212725;fill-rule:nonzero;"/><path d="M3556.77,1251.8c0.987,-3.421 1.975,-6.842 2.963,-10.259c7.268,20.816 13.552,41.768 9.242,64.238c-4.068,-17.996 -8.137,-35.987 -12.205,-53.979" style="fill:#1e3139;fill-rule:nonzero;"/><path d="M2992.33,1253.41c1.018,3.465 2.035,6.931 3.053,10.396c-3.662,14.059 -7.324,28.117 -10.986,42.173c-1.31,-2.364 -4.141,-5.078 -3.69,-7.034c3.519,-15.261 7.668,-30.375 11.623,-45.535" style="fill:#1e3139;fill-rule:nonzero;"/><path d="M2996.29,1241.82c-1.196,3.355 -2.393,6.711 -3.588,10.063c1.196,-3.356 2.392,-6.709 3.588,-10.063" style="fill:#1e3139;fill-rule:nonzero;"/><path d="M1186.48,2734.13c0,22.631 -0.427,45.272 0.199,67.885c0.271,9.775 -3.22,15.916 -11.038,21.543c-44.81,32.25 -102.951,18.848 -126.563,-31.051c-19.634,-41.49 -20.663,-84.979 -5.689,-128.25c10.245,-29.608 29.632,-50.98 62.345,-54.798c32.265,-3.766 56.008,13.478 75.963,36.258c3.753,4.284 4.44,12.231 4.579,18.531c0.514,23.284 0.204,46.587 0.204,69.882" style="fill:#fdfefe;fill-rule:nonzero;"/><path d="M1472.27,2723.16c0,30.658 0.206,58.582 -0.226,86.496c-0.064,4.113 -2.054,9.435 -5.036,12.05c-13.14,11.522 -27.591,21.038 -45.791,22.423c-19.799,1.508 -35.192,-6.004 -45.1,-23.348c-9.725,-17.021 -7.603,-39.222 4.865,-54.339c2.944,-3.57 6.294,-6.971 9.998,-9.721c24.526,-18.213 52.796,-27.012 81.29,-33.561" style="fill:#fdfefe;fill-rule:nonzero;"/><path d="M544.452,2750.23c0.896,17.381 -2.276,40.328 -12.939,61.636c-14.495,28.965 -37.35,46.995 -70.551,47.401c-33.242,0.409 -57.579,-16.543 -71.205,-45.977c-21.937,-47.386 -27.586,-97.372 -12.714,-147.758c14.025,-47.512 57.594,-71.187 100.661,-57.305c24.421,7.871 40.24,25.122 50.187,48.128c12.079,27.933 15.989,57.466 16.561,93.874" style="fill:#fdfefe;fill-rule:nonzero;"/><path d="M2204.4,2752.78c0.66,14.928 -2.458,37.195 -12.584,57.986c-14.556,29.886 -37.753,48.347 -71.829,48.498c-33.265,0.149 -57.406,-17.207 -70.814,-46.656c-21.304,-46.797 -27.09,-96.099 -12.665,-145.908c14.04,-48.481 58.203,-72.85 101.761,-58.263c24.29,8.135 39.919,25.571 49.737,48.648c11.916,28.007 15.698,57.546 16.394,95.695" style="fill:#fdfefe;fill-rule:nonzero;"/></g></g></svg>