<svg viewBox="0 0 5394 3193" xmlns="http://www.w3.org/2000/svg" xml:space="preserve" style="fill-rule:evenodd;clip-rule:evenodd;stroke-linejoin:round;stroke-miterlimit:2"><path d="M1915.32 2493.27c-.513-22.441-14.759-37.364-35.461-37.144-21.202.226-35.653 16.957-34.572 40.027 1.057 22.529 15.44 36.742 36.462 36.03 20.5-.695 34.085-16.441 33.571-38.914m40.613 370.826c-7.022-1.201-12.228-2.291-17.488-2.956-25.436-3.214-25.463-3.174-25.468-29.26-.012-73.889-.004-147.777-.005-221.668v-22.492c-29.847 7.772-56.736 15.072-83.796 21.68-12.183 2.975-14.533 9.623-10.202 20.822 5.081 1.498 10.131 2.933 15.147 4.477 19.208 5.913 24.945 11.158 25.231 30.702.873 59.896.504 119.81.842 179.716.051 9.113-4.407 13.423-12.713 14.794-8.953 1.477-17.929 2.812-26.912 4.212v20.367h137.206l-1.842-20.393m-330.946-242.522c.39 5.939.767 8.549.701 11.146-1.311 51.981-2.865 103.956-3.88 155.943-.233 11.931.384 24.053 2.275 35.822 6.078 37.817 31.61 60.15 69.975 61.171 33.093.881 60.642-12.702 84.945-34.265 7.372-6.54 7.347-13.213 2.686-21.345-11.404 3.819-22.428 8.356-33.874 11.195-45.551 11.298-73.162-10.089-73.832-56.657-.019-1.333.025-2.667.064-3.999 1.094-37.315 2.085-74.634 3.34-111.945.531-15.774 1.621-31.53 2.537-48.803h99.432l4.616-32.345h-104.428v-52.849c-20.361-6.32-20.348-6.304-34.636 5.689-19.911 16.713-39.527 33.8-59.907 49.923-9.691 7.668-13.105 15.904-8.247 28.754l48.233 2.564m345.92 115.717c.196 3.599.08 10.983 1.074 18.215 7.799 56.777 33.303 101.746 89.668 121.549 56.222 19.752 108.008 8.525 151.607-32.62 48.696-45.956 63.895-123.052 37.24-184.425-16.558-38.127-44.607-64.205-84.804-76.047-98.418-28.99-194.74 45.102-194.785 153.328m-1659.8.641c.19 3.551.027 10.943 1.06 18.166 8.11 56.709 33.753 101.719 90.218 121.187 57.081 19.678 109.343 7.815 152.904-34.671 47.439-46.268 61.739-122.619 35.148-183.143-16.726-38.071-44.875-63.955-85.13-75.658-98.468-28.625-194.43 45.746-194.2 154.119m1165.41-38.769c-24.126 7.265-47.07 12.305-68.455 21.127-22.543 9.3-45.961 19.222-64.829 34.143-44.353 35.072-33.738 101.695 18.293 124.105 28.817 12.411 56.179 7.72 80.868-11.118 10.94-8.347 20.893-17.989 32.389-27.998 1.085 4.723 1.677 7.848 2.524 10.903 9.411 33.96 37.613 45.695 67.998 27.809 14.979-8.817 27.211-20.744 36.437-36.588l-10.671-11.705c-6.735 3.888-12.238 7.609-18.179 10.391-16.454 7.704-25.641 2.6-27.687-15.197-.454-3.943-.198-7.988-.03-11.976 1.566-37.273 4.302-74.543 4.389-111.819a423.953 423.953 0 0 0-6.24-73.307c-3.584-20.604-16.848-35.727-37.084-43.84-51.242-20.544-134.489 5.07-165.056 50.967-9.961 14.957-9.572 29.358 1.084 40.148 11.037 11.175 33.034 12.835 46.223 3.487 12.867-9.118 16.325-25.388 8.469-40.995-2.868-5.698-6.277-11.121-10.235-18.066 27.661-13.548 55.381-19.844 81.203-4.239 30.764 18.594 27.391 51.887 28.589 83.768m808.296 165.541v20.399h140.582l-1.968-21.46c-11.39-1.288-20.615-2.605-29.888-3.311-11.406-.867-16.244-6.395-16.183-18.064.298-57.29-.094-114.584.481-171.869.057-5.618 3.543-13.392 7.987-16.402 20.708-14.031 43.409-23.168 69.19-21.705 25.182 1.431 41.646 13.547 47.773 37.827 3.383 13.406 4.829 27.584 5.056 41.448.654 39.96.255 79.937.252 119.908-.002 26.098-.023 26.051-26.662 30.334-3.823.614-7.532 1.939-12.156 3.162v19.511h136.579l-2.51-20.946c-8.359-1.225-15.575-2.229-22.773-3.346-17.925-2.781-19.573-4.548-19.628-23.079-.115-37.972.048-75.944-.071-113.915-.064-20.645.689-41.382-.953-61.916-4.274-53.429-45.608-83.083-97.988-71.376-24.499 5.475-45.974 17.204-66.103 31.756-5.071 3.665-10.158 7.309-18.701 13.455v-47.363c-29.783 7.803-57.209 15.296-84.808 22.077-12.103 2.973-11.805 10.324-9.144 20.125 5.743 1.766 11.383 3.451 16.99 5.236 17.76 5.656 22.133 10.982 23.646 29.93.635 7.954.583 15.974.594 23.965.056 45.3.077 90.6.031 135.9-.036 36.963 2.989 32.72-32.245 37.711-1.952.276-3.836 1.027-7.38 2.008m-1468.72 20.033h138.142l-2.359-20.904c-7.442-1.227-13.934-2.407-20.46-3.353-20.796-3.015-22.052-4.257-22.093-25.001-.085-43.301.028-86.6-.058-129.899-.027-13.984.254-28.017-.771-41.941-4.115-55.925-45.871-87.557-99.564-72.601-22.55 6.281-43.101 19.873-64.379 30.503-5.594 2.794-10.513 6.937-18.68 12.44v-46.386l-94.146 24.87v17.784c38.955 10.76 40.761 12.86 40.943 52.655.234 51.292.141 102.587.078 153.88-.026 21.134-.167 21.06-22.167 24.324-5.752.852-11.413 2.316-17.582 3.597v19.794H773.97l-2.616-20.964c-11.107-1.234-20.978-2.396-30.865-3.409-9.327-.956-14.405-5.318-14.381-15.381.141-58.621-.123-117.244.377-175.861.043-5.026 3.342-11.956 7.375-14.692 19.535-13.253 40.872-22.249 65.141-21.991 29.426.312 46.007 13.106 53.13 41.379 1.621 6.43 3.35 13.064 3.413 19.62.487 50.62.448 101.245.894 151.865.091 10.33-5.262 14.141-14.398 15.247-7.824.947-15.608 2.226-23.941 3.435l-2.006 20.99m472.347-26.756c-10.196-3.153-18.403-5.722-26.629-8.229-22.21-6.769-22.291-6.759-22.296-30.104-.029-123.191-.015-246.38-.016-369.57v-22.786c-33.563 4.883-64.453 9.249-95.296 13.929-11.653 1.768-9.47 10.144-8.779 18.084 10.453 3.151 19.988 6.045 29.536 8.898 20.807 6.214 21.311 6.732 21.428 29.165.132 25.303.118 50.608-.039 75.911-.03 4.913-1.012 9.82-1.646 15.55-6.416-1.315-10.95-2.14-15.434-3.179-26.409-6.12-52.693-6.183-79.013.82-121.422 32.306-143.787 183.947-77.606 260.36 37.465 43.257 96.583 50.729 144.242 18.736 9.185-6.166 17.489-13.648 28.492-22.331l1.935 42.426 99.801-11.281 1.32-16.399m1993.33 27.901c75.323 0 150.646.047 225.969-.039 15.323-.017 30.698.169 45.953-.992 22.51-1.714 34.123-12.07 37.656-34.185 1.983-12.417 2.051-25.236 1.987-37.869-.173-34.338-20.895-59.154-55.125-65.435-58.284-10.695-116.665-20.858-175.012-31.215-110.128-19.549-220.303-38.846-330.372-58.731-42.636-7.702-74.12 16.222-75.323 59.951-.972 35.302-.408 70.653-.122 105.979.149 18.191 7.256 33.579 20.64 46.088 14.107 13.184 31.112 16.606 49.782 16.552 84.655-.251 169.311-.111 253.967-.104m-5.799-474.448c-89.27 0-178.539-.21-267.807.109-32.823.119-60.556 22.379-64.361 51.538-5.366 41.119 4.682 65.652 42.176 83.15 8.199 3.826 18.051 4.29 27.219 5.837 146.332 24.697 292.676 49.311 439.015 73.962 28.212 4.752 56.277 10.695 84.651 14.098 43.238 5.187 71.128-19.782 71.484-62.528.283-33.973-.217-67.953.176-101.925.186-16.182-4.698-30.114-15.401-42.009-14.22-15.807-31.996-22.483-53.342-22.393-87.935.369-175.873.154-263.81.161M63.831 807.393l-1.704 4.205c-.9 10.519-2.584 21.038-2.587 31.558-.134 435.656-.121 871.313-.08 1306.97.001 7.298.585 14.596.896 21.895-1.941 40.351 27.171 74.099 68.239 74.664 85.654 1.178 171.347 1.148 257.002.016 40.809-.541 70.216-34.127 68.933-74.44.292-4.64.84-9.279.841-13.918.043-441.255-.166-882.509.373-1323.76.054-43.847-33.221-77.491-76.69-76.065-47.94 1.573-95.971.347-143.962.354-35.327.005-70.662-.417-105.979.184-32.79.558-55.961 18.256-65.282 48.341m2548.37 992.062c1.109 3.791 1.969 7.674 3.36 11.358 104.624 277.183 358.196 459.355 654.27 469.919 213.097 7.604 402.58-55.428 567.801-190.524 7.689-6.288 15.33-13.046 21.376-20.839 9.932-12.803 16.76-27.125 12.478-44.24 2.805-18.992 1.759-37.274-10.311-53.357-44.349-59.101-88.67-118.221-133.162-177.213-11.378-15.085-26.924-20.868-45.656-19.058-18.026 1.743-32.801 10.422-46.435 21.357-97.786 78.421-209.9 112.283-334.363 107.413-75.145-2.941-144.032-25.482-204.26-70.673-80.693-60.546-128.349-140.698-137.796-242.183 307.226-.03 614.453-.58 921.675.474 45.668.156 84.114-30.719 84.311-76.491 8.211-80.546 8.657-160.973-5.59-240.933-29.186-163.804-104.511-301.604-236.155-405.013-164.066-128.879-352.632-166.39-554.53-131.427-236.92 41.028-409.392 174.649-520.929 386.675-57.455 109.22-84.629 226.881-86.739 349.908-.797 46.462 3.878 93.018 6.06 139.545 1.452 11.869 2.442 23.816 4.435 35.593 8.659 51.159 19.747 101.693 40.16 149.709m611.794 1400.54h-3220v-312c6.521-.674 13.04-1.909 19.563-1.931 47.312-.166 94.625-.052 141.937-.133 5.766-.011 11.531-.652 18.639-1.083l-1.952-21.305c-15.924-1.465-30.465-2.722-44.987-4.166-11.543-1.147-17.383-6.096-17.051-19.287.872-34.629.291-69.295.289-103.946v-40.194c24.773 1.378 47.178 2.546 69.571 3.904 10.557.641 14.843 7.332 15.992 17.086 1.387 11.771 3.08 23.508 4.637 35.232h24.266l13.546-135.783h-25.077c-4.589 13.065-7.965 26.063-13.775 37.859-3.138 6.372-9.735 14.029-15.986 15.345-23.958 5.048-48.324 2.337-72.017 2.679v-161.247c36.969 0 72.831-1.354 108.538.408 31.28 1.544 37.358 8.374 44.491 38.436 4.12 17.366 7.944 34.801 12.021 52.731h29.588v-117.659c-2.672-.618-4.532-1.428-6.392-1.426-101.947.117-203.894.302-305.841.48v-2480h1904c-42.913 15.699-60.304 45.604-60.027 91.916 1.332 221.93.599 443.872.599 665.81v24.17c-6.517-1.766-9.697-2.467-12.773-3.483-123.299-40.722-249.812-59.79-379.596-54.263-117.02 4.984-227.592 34.596-328.747 94.464-177.377 104.98-282.527 262.726-331.489 460.345-27.238 109.938-29.93 221.653-18.49 333.631 4.238 41.487 15.107 82.295 22.952 123.413 9.154 29.823 16.653 60.274 27.718 89.37 103.943 273.298 341.2 444.92 626.279 451.529 190.791 4.424 352.541-63.703 485.028-201.174 2.855-2.962 6.489-5.174 10.425-8.258 11.58 36.881 21.904 72.02 33.809 106.615 5.135 14.923 12.28 29.525 20.778 42.825 10.61 16.606 27.249 25.718 47.158 25.96 41.984.508 84.03 1.406 125.954-.267 41.072-1.64 68.122-33.699 66.035-74.532.319-8.632.919-17.265.919-25.897.043-665.728.038-1331.46.037-1997.19-.001-22.658.097-45.316-.03-67.972-.215-38.181-18.018-62.452-54.267-74.264l5.728-2.752h3204v1220a74.005 74.005 0 0 0-2.98-.013c-3.77-66.074-13.946-131.077-33.381-194.431-37.066-120.841-109.756-210.059-229.344-257.522-72.744-28.871-148.885-40.448-226.453-43.732-134.525-5.696-267.662 7.779-399.496 33.446-54.124 10.537-107.783 24.247-160.767 39.581-37.736 10.921-52.901 40.844-45.772 79.685 4.567 24.887 9.377 49.733 14.371 74.538 8.912 44.262 18.045 88.481 27.086 132.718 8.185 46.439 34.9 63.699 79.4 51.374 9.594-2.658 19.202-5.304 28.897-7.555 84.971-19.729 171.166-32.029 257.976-39.006 48.963-3.935 98.403-6.323 147.412-4.264 73.792 3.1 129.831 35.691 155.675 109.11 4.402 12.503 7.992 25.291 11.956 37.947 3.336 33.264 10.711 66.335 6.036 100.971-4.604-.727-7.918-.934-11.053-1.792-77.298-21.151-155.961-34.025-236.031-37-111.463-4.141-220.934 7.841-324.872 50.457-161.509 66.224-267.158 179.697-287.925 358.364-5.545 47.692.571 96.739 1.334 145.164l1.223 15.688c.564 2.856 1.126 5.714 1.689 8.57 1.679 11.831 2.582 23.834 5.154 35.468 38.816 175.449 141.504 293.554 314.562 346.86 83.469 25.711 169.237 27.369 255.443 17.858 134.309-14.817 253.191-64.93 354.309-155.469 4.418-3.955 9.026-7.697 14.751-12.565 3.365 7.699 6.238 14.308 9.138 20.905 12.051 27.412 23.263 55.232 36.414 82.105 11.828 24.171 31.94 36.304 59.694 35.802 34.65-.627 69.324.058 103.984-.212 31.518-.244 54.924-13.87 68.389-43.042l1.591.007 1.59-.015v996h-2100c7.501-2.63 14.82-6.115 22.531-7.761 95.014-20.282 158.215-75.004 184.167-169.919 5.793-21.188.765-28.476-19.555-28.505-142.441-.204-284.882-.194-427.323-.021-19.873.026-24.283 5.824-20.728 26.209 12.735 73.019 53.651 124.643 120.28 155.977 14.341 6.744 29.836 11.035 44.8 16.455l19.828 7.565Z" style="fill:#feffff;fill-rule:nonzero"/><path d="M1847.38 1192.57c4.309-17.258-4.127-26.825-18.767-34.472-51.575-26.943-105.661-46.992-162.798-57.486-55.374-10.169-110.861-16.42-167.799-9.431-49.843 6.118-95.847 21.054-138.871 45.592-33.113 18.885-61.944 43.716-85.899 73.414-43.318 53.704-69.452 115.574-83.439 182.774-.973 4.672.89 9.936 1.435 14.925l-2.063 8.488c-6.301 2.877-5.897 6.889-1.95 11.503-.152 3.302-.013 6.647-.498 9.9-16.83 112.737 6.108 217.359 67.162 312.938 44.408 69.519 107.375 115.519 188.077 135.526 55.233 13.693 110.971 13.5 166.331 1.516 101.913-22.059 179.499-77.622 229.56-170.072 7.43-13.72 11.014-27.792 10.969-43.723-.425-152.502-.236-305.006-.305-457.509-.003-7.961-.747-15.922-1.145-23.883M800.43 1740c-7.845-41.118-18.714-81.927-22.952-123.413-11.44-111.978-8.748-223.693 18.49-333.632 48.962-197.618 154.112-355.364 331.489-460.344 101.154-59.869 211.727-89.48 328.747-94.465 129.783-5.527 256.297 13.541 379.595 54.263 3.077 1.016 6.257 1.718 12.773 3.483v-24.17c0-221.938.734-443.88-.598-665.81-.278-46.312 17.113-76.217 60.027-91.916h272l10.271 2.753c36.25 11.812 54.053 36.082 54.268 74.263.127 22.657.029 45.314.029 67.972.002 665.729.007 1331.46-.036 1997.19 0 8.631-.6 17.264-.92 25.897-4.682 7.946-8.556 16.532-14.219 23.705-11.048 13.991-24.733 24.22-43.775 24.224-45.307.009-90.619.325-135.918-.311-7.482-.104-16.356-2.575-22.075-7.115-15.141-12.023-27.871-26.255-34.188-45.543-12.21-37.276-25.249-74.282-38.074-111.354-1.572-4.545-3.943-8.813-7.327-16.249-9.543 10.531-17.092 18.961-24.75 27.291-35.804 38.949-77.46 70.452-122.325 98.29-83.487 51.802-174.667 82.23-271.764 89.949-79.467 6.318-159.127 1.306-237.066-20.552-70.425-19.753-137.032-47.445-197.153-89.047-46.929-32.472-91.028-68.175-128.644-112.104-36.956-43.16-69.841-88.657-96.804-138.453-23.805-43.965-43.561-89.721-58.036-137.712-1.882-6.241-7.29-11.418-11.065-17.087M4551.47 1731.91c-.303 3.955-.316 7.957-.953 11.858-15.044 92.263 39.724 180.88 129.27 207.741 50.91 15.27 102.37 15.526 153.423.513 68.145-20.038 125.598-56.75 170.451-112.292 12.836-15.896 19.95-33.073 19.477-54.755-1.219-55.833-.07-111.717.133-167.581 1.279-24.393.664-25.377-19.205-32.851-52.465-19.737-106.959-31.542-162.53-35.934-47.664-3.767-95.675-1.465-142.078 12.283-81.037 24.01-135.799 73.153-149.762 160.077-.557 3.462 1.131 7.286 1.774 10.941m-208.205-643.644c-9.041-44.237-18.174-88.455-27.086-132.718-4.994-24.805-9.804-49.651-14.371-74.538-7.129-38.841 8.036-68.763 45.772-79.684 52.984-15.335 106.643-29.045 160.767-39.582 131.834-25.667 264.971-39.142 399.496-33.445 77.568 3.284 153.709 14.861 226.453 43.731 119.588 47.463 192.278 136.682 229.344 257.522 19.434 63.354 29.611 128.358 33.38 194.431l-.457 38.367c1.145 8.549 2.292 17.097 3.438 25.646v876c-1.248 2.264-3.159 4.393-3.644 6.81-5.92 29.488-28.834 49.039-58.476 49.164-39.974.169-79.953-.291-119.921.225-13.664.177-25.822-2.96-33.437-14.119-10.383-15.215-20.224-31.057-28.088-47.674-12.647-26.726-23.486-54.308-35.678-82.903-12.56 10.254-23.734 18.465-33.87 27.804-49.558 45.662-107.272 78.398-168.747 104.351-84.328 35.603-172.645 49.974-264.32 48.862-74.764-.906-145.959-14.175-215.211-42.553-65.198-26.717-118.744-68.813-162.979-121.74-49.768-59.549-80.681-129.36-95.754-205.836-.699-3.547-3.22-6.737-4.894-10.092l-1.689-8.571-1.223-15.688c-.763-48.425-6.879-97.472-1.334-145.163 20.767-178.667 126.416-292.141 287.925-358.364 103.938-42.617 213.409-54.599 324.871-50.457 80.071 2.975 158.734 15.849 236.032 36.999 3.135.858 6.449 1.065 11.052 1.793 4.676-34.637-2.699-67.707-6.035-100.971.608-4.957 2.348-10.096 1.588-14.833-1.571-9.777-4.219-19.41-6.872-28.978-22.239-80.168-75.351-121.397-154.458-127.035-53.348-3.802-107.373 1.519-161.074 3.357-15.145.519-30.262 2.804-45.31 4.88-34.01 4.692-68.106 8.968-101.913 14.876-40.998 7.165-82.56 13.013-122.343 24.674-37.286 10.93-67.575 9.628-90.934-24.548" style="fill:#182c34;fill-rule:nonzero"/><path d="M3204.17 3192.44c-14.964-5.421-30.459-9.712-44.8-16.456-66.629-31.334-107.545-82.957-120.28-155.977-3.555-20.385.854-26.183 20.727-26.209 142.442-.173 284.883-.183 427.324.021 20.32.029 25.348 7.317 19.554 28.505-25.951 94.915-89.152 149.636-184.167 169.919-7.711 1.646-15.029 5.131-22.53 7.76h-52l-43.828-7.564ZM4 2484c101.947-.178 203.894-.362 305.841-.479 1.86-.002 3.72.807 6.392 1.425v117.659h-29.588c-4.077-17.929-7.901-35.365-12.021-52.731-7.133-30.061-13.211-36.892-44.491-38.436-35.708-1.761-71.569-.408-108.538-.408v161.247c23.693-.341 48.058 2.369 72.017-2.678 6.25-1.317 12.848-8.974 15.986-15.345 5.81-11.797 9.186-24.794 13.775-37.859h25.077l-13.546 135.783h-24.266c-1.557-11.725-3.25-23.461-4.637-35.233-1.149-9.754-5.436-16.445-15.992-17.086-22.393-1.357-44.798-2.526-69.571-3.904v40.194c.001 34.652.583 69.318-.289 103.947-.333 13.19 5.507 18.139 17.051 19.287 14.522 1.443 29.063 2.701 44.987 4.166l1.952 21.305c-7.109.43-12.873 1.072-18.639 1.083-47.312.081-94.625-.034-141.937.132-6.523.023-13.042 1.257-19.563 1.931v-12c6.225-15.433 20.214-14.541 33.255-16.109 20.137-2.42 22.24-4.852 22.251-24.888.051-89.8.022-179.599.022-269.399 0-12.638-.346-25.29.107-37.912.333-9.283-2.14-15.276-12.435-16.674-14.451-1.964-28.805-4.645-43.2-7.018v-20Z" style="fill:#1e3139;fill-rule:nonzero"/><path d="M4174.98 1876.3c1.674 3.355 4.195 6.545 4.895 10.092 15.072 76.476 45.985 146.287 95.753 205.837 44.235 52.926 97.782 95.022 162.979 121.739 69.252 28.378 140.447 41.647 215.211 42.554 91.676 1.111 179.992-13.26 264.32-48.863 61.475-25.953 119.19-58.689 168.747-104.351 10.136-9.339 21.31-17.55 33.87-27.804 12.192 28.595 23.032 56.177 35.678 82.903 7.864 16.618 17.705 32.459 28.088 47.674 7.615 11.159 19.773 14.296 33.438 14.119 39.967-.516 79.947-.056 119.92-.225 29.642-.125 52.556-19.676 58.476-49.163.485-2.417 2.396-4.547 3.645-6.811v28l-3.182 12.009c-13.465 29.172-36.871 42.798-68.389 43.042-34.66.269-69.334-.415-103.984.212-27.754.502-47.865-11.631-59.694-35.802-13.151-26.873-24.363-54.693-36.414-82.105-2.9-6.597-5.773-13.206-9.137-20.906-5.726 4.869-10.333 8.611-14.751 12.566-101.118 90.539-220 140.651-354.31 155.469-86.206 9.51-171.973 7.853-255.443-17.858-173.057-53.307-275.745-171.411-314.561-346.86-2.573-11.634-3.475-23.637-5.155-35.468" style="fill:#212725;fill-rule:nonzero"/><path d="M4 2504c14.395 2.373 28.749 5.054 43.2 7.018 10.295 1.398 12.768 7.391 12.435 16.674-.453 12.622-.107 25.274-.107 37.912 0 89.8.029 179.599-.022 269.399-.011 20.036-2.114 22.468-22.251 24.888-13.041 1.568-27.03.676-33.255 16.109v-372ZM3204.17 3192.44l43.828 7.563h-24l-19.828-7.564Z" style="fill:#fdfefe;fill-rule:nonzero"/><path d="M2190.27 6.753 2179.999 4h16l-5.729 2.753M2992.7 1251.88l-.379 1.533c-3.955 15.16-8.104 30.275-11.623 45.535-.451 1.956 2.38 4.67 3.69 7.033 5.98.226 11.958.648 17.937.649 183.58.035 367.159.037 550.738-.008 5.304-.001 10.607-.552 15.91-.836 4.31-22.476-1.973-43.428-9.242-64.238-20.13-71.665-64.609-124.898-131.001-155.484-117.534-54.145-232.337-43.656-339.457 29.169-45.122 30.675-75.95 74.13-92.985 126.586l-3.588 10.061m-425.096 362.266c-2.18-46.513-6.855-93.069-6.058-139.531 2.11-123.027 29.284-240.688 86.739-349.908 111.537-212.026 284.009-345.647 520.929-386.675 201.898-34.963 390.464 2.548 554.53 131.427 131.643 103.409 206.969 241.209 236.154 405.013 14.247 79.96 13.802 160.387 5.591 240.934-1.613.984-4.09 1.59-4.713 3.009-16.394 37.393-45.935 49.32-85.292 49.231-297.943-.676-595.888-.369-893.833-.369h-25.152l3.004 24.145c9.447 101.485 57.102 181.637 137.796 242.183 60.228 45.192 129.115 67.733 204.259 70.673 124.463 4.87 236.578-28.992 334.364-107.413 13.633-10.935 28.409-19.614 46.434-21.357 18.733-1.81 34.279 3.973 45.656 19.058 44.493 58.992 88.814 118.112 133.163 177.213 12.07 16.083 13.116 34.365 10.31 53.355-8.68 17.666-21.683 31.423-36.981 43.739-180.626 145.41-386.804 207.757-616.884 183.388-232.604-24.636-411.874-139.125-536.913-336.518-25.496-40.249-43.803-85.052-65.424-127.756-12.549-44.401-25.2-88.774-37.586-133.222-3.744-13.434-6.749-27.074-10.093-40.619" style="fill:#fab717;fill-rule:nonzero"/><path d="M60.361 2172.03c-.312-7.299-.896-14.597-.896-21.895-.041-435.656-.054-871.313.08-1306.97.003-10.52 1.687-21.039 2.587-31.559l1.704-4.203c9.32-30.086 32.492-47.784 65.282-48.342 35.317-.601 70.652-.178 105.979-.184 47.991-.007 96.022 1.219 143.962-.354 43.469-1.426 76.744 32.218 76.69 76.066-.539 441.253-.33 882.507-.373 1323.76-.001 4.639-.549 9.279-.841 13.918-3.997 6.083-7.516 12.555-12.082 18.176-13.243 16.305-27.966 29.766-51.213 29.691-90.261-.289-180.524.09-270.782-.46-8.698-.052-17.687-4.055-25.984-7.547-17.912-7.54-23.395-26.148-34.113-40.1M3275.97 2411.43c87.938-.003 175.875.212 263.811-.157 21.345-.09 39.121 6.586 53.341 22.392 10.703 11.896 15.587 25.828 15.401 42.01-.393 33.972.107 67.952-.176 101.925-.356 42.746-28.246 67.715-71.484 62.528-28.373-3.403-56.439-9.346-84.651-14.098-146.339-24.651-292.683-49.265-439.014-73.962-9.169-1.547-19.021-2.011-27.22-5.837-37.494-17.498-47.542-42.031-42.176-83.151 3.805-29.158 31.538-51.419 64.361-51.537 89.268-.319 178.537-.109 267.807-.113M3281.77 2885.88c-84.656-.004-169.312-.145-253.967.105-18.67.055-35.675-3.368-49.782-16.551-13.384-12.509-20.491-27.898-20.64-46.087-.286-35.326-.849-70.678.122-105.98 1.204-43.729 32.687-67.653 75.324-59.951 110.068 19.886 220.243 39.183 330.372 58.732 58.346 10.357 116.727 20.52 175.011 31.214 34.23 6.282 54.953 31.098 55.125 65.436.064 12.633-.003 25.451-1.987 37.869-3.533 22.114-15.145 32.471-37.656 34.185-15.255 1.161-30.63.974-45.952.992-75.324.086-150.647.039-225.97.036" style="fill:#182c34;fill-rule:nonzero"/><path d="M1186.48 2734.13c0-23.295.309-46.598-.205-69.882-.138-6.3-.825-14.247-4.579-18.531-19.955-22.78-43.698-40.024-75.962-36.258-32.714 3.818-52.1 25.19-62.346 54.798-14.973 43.271-13.944 86.76 5.689 128.25 23.612 49.899 81.754 63.301 126.563 31.051 7.819-5.627 11.309-11.768 11.039-21.543-.627-22.613-.199-45.254-.199-67.885m101.964 123.855-1.319 16.4-99.802 11.28-1.935-42.426c-11.003 8.684-19.306 16.165-28.492 22.331-47.659 31.994-106.776 24.522-144.242-18.736-66.181-76.412-43.816-228.054 77.606-260.359 26.321-7.003 52.604-6.941 79.013-.821 4.484 1.039 9.019 1.865 15.435 3.179.633-5.729 1.615-10.637 1.645-15.55.157-25.302.171-50.607.039-75.911-.117-22.432-.62-22.95-21.428-29.165-9.547-2.852-19.083-5.747-29.536-8.897-.691-7.941-2.874-16.317 8.779-18.084 30.843-4.68 61.733-9.046 95.296-13.929v22.785c.001 123.191-.013 246.38.016 369.57.005 23.345.086 23.335 22.296 30.105 8.227 2.507 16.434 5.075 26.629 8.228M816.093 2884.74l2.007-20.99c8.332-1.209 16.117-2.488 23.941-3.435 9.135-1.106 14.489-4.917 14.398-15.247-.447-50.62-.408-101.245-.895-151.865-.063-6.556-1.792-13.19-3.412-19.62-7.123-28.273-23.705-41.067-53.131-41.379-24.269-.258-45.605 8.738-65.141 21.991-4.032 2.736-7.331 9.666-7.374 14.692-.5 58.618-.236 117.241-.377 175.861-.024 10.063 5.054 14.426 14.38 15.382 9.887 1.012 19.758 2.174 30.865 3.408l2.617 20.964H632.998v-19.794c6.168-1.28 11.829-2.744 17.581-3.597 22.001-3.264 22.142-3.189 22.168-24.324.062-51.293.156-102.588-.079-153.88-.182-39.795-1.987-41.895-40.943-52.654v-17.784l94.146-24.871v46.386c8.167-5.503 13.087-9.645 18.68-12.439 21.279-10.631 41.829-24.223 64.38-30.504 53.693-14.956 95.448 16.677 99.564 72.601 1.025 13.924.743 27.957.771 41.941.086 43.3-.027 86.598.057 129.899.041 20.744 1.298 21.987 22.094 25.001 6.525.946 13.017 2.126 20.46 3.354l2.358 20.903H816.093ZM2284.81 2864.7c3.544-.98 5.428-1.731 7.38-2.008 35.234-4.991 32.208-.748 32.245-37.711.045-45.3.025-90.599-.032-135.899-.01-7.991.041-16.012-.593-23.966-1.513-18.947-5.886-24.273-23.646-29.93-5.607-1.785-11.247-3.469-16.99-5.236-2.661-9.801-2.959-17.151 9.143-20.125 27.6-6.78 55.026-14.273 84.808-22.076v47.362c8.544-6.145 13.63-9.79 18.702-13.455 20.129-14.552 41.604-26.28 66.103-31.756 52.38-11.707 93.713 17.947 97.987 71.376 1.643 20.534.89 41.272.954 61.916.119 37.972-.044 75.944.07 113.915.056 18.531 1.703 20.298 19.628 23.079 7.199 1.118 14.414 2.121 22.774 3.346l2.509 20.946h-136.579v-19.51c4.624-1.224 8.333-2.548 12.157-3.163 26.639-4.283 26.66-4.236 26.662-30.334.003-39.97.402-79.948-.252-119.908-.227-13.864-1.673-28.042-5.056-41.448-6.127-24.279-22.592-36.395-47.773-37.826-25.782-1.464-48.483 7.674-69.191 21.704-4.443 3.011-7.929 10.784-7.986 16.402-.575 57.285-.184 114.579-.482 171.869-.06 11.669 4.778 17.198 16.184 18.065 9.273.705 18.498 2.022 29.888 3.31l1.968 21.46H2284.81V2864.7Z" style="fill:#1e3139;fill-rule:nonzero"/><path d="M800.429 1740c3.775 5.669 9.183 10.847 11.065 17.087 14.476 47.991 34.231 93.747 58.037 137.713 26.962 49.796 59.847 95.293 96.803 138.452 37.616 43.93 81.715 79.633 128.644 112.104 60.121 41.602 126.728 69.294 197.153 89.047 77.94 21.859 157.599 26.87 237.067 20.552 97.096-7.719 188.276-38.146 271.764-89.949 44.864-27.838 86.521-59.341 122.324-98.289 7.658-8.33 15.207-16.761 24.75-27.291 3.384 7.435 5.755 11.703 7.327 16.248 12.826 37.072 25.864 74.078 38.074 111.354 6.317 19.288 19.047 33.52 34.188 45.543 5.719 4.54 14.594 7.011 22.075 7.116 45.299.635 90.611.319 135.918.31 19.042-.004 32.727-10.232 43.775-24.224 5.663-7.172 9.537-15.758 14.22-23.705 2.087 40.832-24.963 72.892-66.035 74.532-41.924 1.672-83.97.775-125.954.266-19.909-.241-36.548-9.353-47.158-25.96-8.498-13.3-15.643-27.901-20.778-42.824-11.905-34.596-22.229-69.734-33.809-106.615-3.936 3.084-7.57 5.296-10.425 8.258-132.487 137.47-294.237 205.597-485.028 201.173-285.079-6.608-522.336-178.23-626.279-451.529-11.065-29.096-18.564-59.547-27.718-89.369" style="fill:#212725;fill-rule:nonzero"/><path d="M1472.27 2723.16c-28.494 6.549-56.764 15.348-81.29 33.561-3.704 2.75-7.054 6.151-9.998 9.721-12.468 15.117-14.59 37.318-4.865 54.339 9.908 17.344 25.301 24.856 45.1 23.348 18.2-1.385 32.651-10.901 45.791-22.423 2.982-2.615 4.972-7.937 5.036-12.05.432-27.914.226-55.838.226-86.496m4.25-23.994c-1.199-31.881 2.174-65.174-28.59-83.768-25.822-15.605-53.542-9.308-81.203 4.24 3.958 6.944 7.367 12.368 10.235 18.065 7.856 15.607 4.398 31.877-8.468 40.995-13.19 9.349-35.186 7.689-46.224-3.486-10.656-10.79-11.045-25.192-1.084-40.149 30.567-45.897 113.814-71.51 165.056-50.966 20.236 8.112 33.5 23.235 37.085 43.839a423.952 423.952 0 0 1 6.239 73.307c-.087 37.276-2.823 74.546-4.389 111.819-.168 3.989-.424 8.034.03 11.976 2.046 17.797 11.233 22.901 27.687 15.197 5.941-2.782 11.444-6.503 18.179-10.39l10.672 11.705c-9.227 15.843-21.459 27.77-36.438 36.588-30.385 17.885-58.587 6.15-67.998-27.81-.847-3.055-1.439-6.18-2.523-10.902-11.497 10.008-21.45 19.65-32.39 27.998-24.689 18.838-52.051 23.528-80.868 11.117-52.03-22.409-62.646-89.032-18.293-124.105 18.868-14.921 42.286-24.842 64.829-34.143 21.385-8.821 44.33-13.862 68.456-21.127M544.452 2750.23c-.572-36.409-4.482-65.941-16.561-93.874-9.947-23.006-25.766-40.258-50.187-48.129-43.067-13.882-86.636 9.793-100.661 57.304-14.872 50.386-9.223 100.373 12.714 147.758 13.626 29.434 37.963 46.387 71.205 45.978 33.201-.406 56.056-18.437 70.551-47.401 10.663-21.308 13.835-44.255 12.939-61.637m-233.343-12.296c-.231-108.373 95.732-182.744 194.2-154.119 40.254 11.703 68.403 37.587 85.13 75.658 26.59 60.524 12.29 136.875-35.148 183.143-43.562 42.486-95.823 54.349-152.904 34.671-56.465-19.467-82.108-64.477-90.218-121.186-1.033-7.223-.87-14.615-1.06-18.166M2204.4 2752.78c-.696-38.149-4.478-67.688-16.394-95.695-9.818-23.077-25.447-40.513-49.737-48.648-43.558-14.587-87.721 9.782-101.761 58.263-14.425 49.809-8.639 99.111 12.665 145.908 13.408 29.449 37.549 46.805 70.814 46.656 34.076-.151 57.273-18.612 71.829-48.498 10.126-20.791 13.244-43.058 12.584-57.986m-233.488-15.482c.044-108.227 96.366-182.319 194.784-153.329 40.197 11.842 68.246 37.92 84.805 76.047 26.654 61.373 11.456 138.469-37.241 184.425-43.598 41.145-95.385 52.372-151.607 32.62-56.364-19.802-81.868-64.772-89.668-121.549-.993-7.232-.877-14.616-1.073-18.214" style="fill:#1e3139;fill-rule:nonzero"/><path d="M2615.29 1787.99c21.621 42.704 39.928 87.507 65.424 127.756 125.039 197.393 304.309 311.882 536.913 336.518 230.08 24.37 436.258-37.978 616.884-183.388 15.298-12.316 28.301-26.073 36.981-43.739 4.282 17.117-2.546 31.439-12.477 44.242-6.046 7.794-13.687 14.551-21.376 20.84-165.221 135.095-354.704 198.127-567.801 190.523-296.074-10.564-549.647-192.735-654.271-469.919-1.39-3.684-2.251-7.566-3.359-11.357l3.082-11.476Z" style="fill:#212725;fill-rule:nonzero"/><path d="m1624.99 2621.58-48.232-2.563c-4.859-12.851-1.445-21.086 8.247-28.754 20.379-16.123 39.996-33.21 59.907-49.923 14.288-11.993 14.274-12.01 34.635-5.69v52.849h104.428l-4.616 32.346h-99.431c-.917 17.272-2.006 33.028-2.537 48.802-1.256 37.311-2.246 74.63-3.341 111.946-.039 1.332-.082 2.666-.063 3.999.669 46.567 28.28 67.954 73.831 56.656 11.446-2.839 22.471-7.376 33.875-11.194 4.66 8.131 4.686 14.804-2.687 21.344-24.302 21.562-51.852 35.146-84.945 34.265-38.365-1.021-63.896-23.354-69.974-61.172-1.892-11.767-2.509-23.89-2.276-35.822 1.016-51.986 2.57-103.962 3.881-155.943.066-2.597-.312-5.206-.702-11.146" style="fill:#1e3139;fill-rule:nonzero"/><path d="m2959.51 1591.42-3.004-24.145h25.152c297.945 0 595.89-.307 893.833.369 39.357.089 68.898-11.838 85.292-49.231.623-1.419 3.1-2.025 4.713-3.009-.197 45.771-38.643 76.646-84.311 76.49-307.222-1.054-614.449-.504-921.675-.474" style="fill:#212725;fill-rule:nonzero"/><path d="m1955.94 2864.1 1.842 20.393h-137.207l.001-20.368c8.983-1.399 17.959-2.734 26.912-4.212 8.306-1.371 12.764-5.68 12.713-14.793-.338-59.906.031-119.82-.842-179.716-.286-19.544-6.023-24.789-25.231-30.702-5.016-1.544-10.066-2.979-15.147-4.477-4.331-11.199-1.98-17.848 10.202-20.822 27.06-6.608 53.949-13.908 83.797-21.679v22.492c0 73.89-.008 147.779.004 221.668.005 26.086.032 26.046 25.468 29.26 5.26.665 10.467 1.755 17.488 2.956" style="fill:#1e3139;fill-rule:nonzero"/><path d="M4343.26 1088.27c23.359 34.176 53.648 35.479 90.934 24.548 39.783-11.661 81.345-17.509 122.343-24.674 33.807-5.908 67.903-10.184 101.913-14.875 15.048-2.077 30.165-4.362 45.31-4.881 53.701-1.838 107.727-7.159 161.074-3.357 79.107 5.638 132.219 46.867 154.458 127.035 2.654 9.568 5.301 19.201 6.872 28.978.76 4.737-.98 9.876-1.588 14.833-3.964-12.656-7.554-25.444-11.956-37.947-25.844-73.419-81.882-106.01-155.674-109.111-49.01-2.059-98.45.329-147.413 4.264-86.81 6.977-173.005 19.277-257.976 39.007-9.694 2.25-19.303 4.897-28.897 7.554-44.5 12.326-71.214-4.934-79.4-51.374M60.361 2172.03c10.718 13.952 16.201 32.56 34.113 40.1 8.297 3.492 17.286 7.495 25.984 7.547 90.258.55 180.521.171 270.782.46 23.247.075 37.97-13.386 51.213-29.691 4.566-5.621 8.085-12.093 12.082-18.176 1.283 40.313-28.124 73.899-68.933 74.44-85.656 1.133-171.348 1.162-257.002-.016-41.068-.565-70.18-34.312-68.239-74.664" style="fill:#212725;fill-rule:nonzero"/><path d="M1915.32 2493.27c.514 22.472-13.071 38.218-33.571 38.913-21.022.712-35.405-13.501-36.462-36.03-1.081-23.07 13.37-39.802 34.572-40.026 20.702-.221 34.948 14.701 35.461 37.142M2615.29 1787.99l-3.082 11.476c-20.413-48.017-31.501-98.551-40.16-149.709-1.994-11.778-2.984-23.725-4.436-35.601 3.343 13.538 6.348 27.178 10.092 40.612 12.386 44.448 25.037 88.821 37.586 133.222" style="fill:#1e3139;fill-rule:nonzero"/><path d="m4172.07 1852.04 1.224 15.688-1.224-15.688M63.836 807.399l-1.704 4.204 1.704-4.204" style="fill:#212725;fill-rule:nonzero"/><path d="m1189.17 1416.38 2.063-8.488c6.978-22.168 12.631-44.86 21.157-66.415 42.897-108.459 117.003-184.503 231.374-216.105 76.203-21.057 152.966-14.851 229.348.766 61.696 12.615 119.364 35.922 174.259 66.438.399 7.961 1.142 15.922 1.145 23.883.069 152.503-.12 305.007.305 457.508.045 15.932-3.539 30.003-10.968 43.724-50.062 92.45-127.648 148.013-229.561 170.072-55.36 11.984-111.098 12.177-166.331-1.516-80.702-20.007-143.668-66.007-188.077-135.527-61.054-95.578-83.991-200.2-67.162-312.938.486-3.252.346-6.597.498-9.9l1.95-11.502" style="fill:#feffff;fill-rule:nonzero"/><path d="M1847.38 1192.57c-54.896-30.516-112.563-53.823-174.259-66.438-76.382-15.617-153.145-21.823-229.348-.766-114.372 31.602-188.477 107.646-231.374 216.105-8.526 21.556-14.179 44.247-21.157 66.415-.545-4.989-2.408-10.253-1.435-14.925 13.987-67.2 40.121-129.07 83.439-182.774 23.955-29.698 52.786-54.529 85.899-73.414 43.024-24.538 89.028-39.474 138.871-45.592 56.938-6.989 112.425-.738 167.799 9.431 57.137 10.494 111.223 30.543 162.798 57.486 14.64 7.647 23.076 17.214 18.767 34.472M1189.17 1416.38l-1.95 11.502c-3.947-4.613-4.351-8.626 1.95-11.502" style="fill:#212725;fill-rule:nonzero"/><path d="M5023.27 1617.4c-.204 55.863-1.352 111.748-.133 167.581.472 21.682-6.641 38.858-19.477 54.755-44.854 55.542-102.307 92.254-170.452 112.292-51.052 15.013-102.512 14.757-153.422-.514-89.546-26.86-144.315-115.477-129.271-207.74.637-3.901.65-7.903.953-11.858 21.412-86.059 80.157-132.806 163.447-150.368 106.358-22.425 209.004-5.698 308.354 35.852" style="fill:#fdfefe;fill-rule:nonzero"/><path d="M5023.27 1617.4c-99.351-41.55-201.997-58.277-308.355-35.852-83.29 17.562-142.035 64.309-163.447 150.368-.642-3.656-2.331-7.479-1.774-10.942 13.965-86.924 68.725-136.066 149.764-160.076 46.401-13.748 94.413-16.051 142.077-12.283 55.57 4.392 110.064 16.197 162.529 35.933 19.869 7.475 20.485 8.458 19.206 32.852" style="fill:#212725;fill-rule:nonzero"/><path d="M3568.98 1305.77c-5.305.294-10.607.845-15.91.846-183.58.045-367.159.043-550.739.008-5.979-.001-11.957-.423-17.937-.647l10.985-42.174c1.932-4.217 3.92-8.41 5.788-12.656 30.645-69.613 81.078-119.032 151.446-147.883 58.548-24.004 119.645-30.922 181.908-22.516 81.625 11.02 148.511 48.343 194.619 118.195 10.896 16.507 18.51 35.178 27.634 52.852l12.205 53.975" style="fill:#fdfefe;fill-rule:nonzero"/><path d="M3556.77 1251.8c-9.124-17.675-16.738-36.346-27.634-52.852-46.108-69.853-112.994-107.175-194.619-118.195-62.263-8.406-123.36-1.488-181.908 22.516-70.368 28.85-120.801 78.27-151.445 147.883-1.869 4.245-3.857 8.439-5.789 12.656l-3.052-10.396.379-1.531 3.588-10.063c17.035-52.456 47.863-95.911 92.985-126.587 107.12-72.825 221.923-83.314 339.457-29.168 66.392 30.585 110.871 83.819 131.001 155.478-.988 3.417-1.976 6.838-2.963 10.259" style="fill:#212725;fill-rule:nonzero"/><path d="M3556.77 1251.8c.987-3.421 1.975-6.842 2.963-10.259 7.268 20.816 13.552 41.768 9.242 64.238l-12.205-53.979M2992.33 1253.41l3.053 10.396-10.986 42.173c-1.31-2.364-4.141-5.078-3.69-7.034 3.519-15.261 7.668-30.375 11.623-45.535M2996.29 1241.82l-3.588 10.063 3.588-10.063" style="fill:#1e3139;fill-rule:nonzero"/><path d="M1186.48 2734.13c0 22.631-.427 45.272.199 67.885.271 9.775-3.22 15.916-11.038 21.543-44.81 32.25-102.951 18.848-126.563-31.051-19.634-41.49-20.663-84.979-5.689-128.25 10.245-29.608 29.632-50.98 62.345-54.798 32.265-3.766 56.008 13.478 75.963 36.258 3.753 4.284 4.44 12.231 4.579 18.531.514 23.284.204 46.587.204 69.882M1472.27 2723.16c0 30.658.206 58.582-.226 86.496-.064 4.113-2.054 9.435-5.036 12.05-13.14 11.522-27.591 21.038-45.791 22.423-19.799 1.508-35.192-6.004-45.1-23.348-9.725-17.021-7.603-39.222 4.865-54.339 2.944-3.57 6.294-6.971 9.998-9.721 24.526-18.213 52.796-27.012 81.29-33.561M544.452 2750.23c.896 17.381-2.276 40.328-12.939 61.636-14.495 28.965-37.35 46.995-70.551 47.401-33.242.409-57.579-16.543-71.205-45.977-21.937-47.386-27.586-97.372-12.714-147.758 14.025-47.512 57.594-71.187 100.661-57.305 24.421 7.871 40.24 25.122 50.187 48.128 12.079 27.933 15.989 57.466 16.561 93.874M2204.4 2752.78c.66 14.928-2.458 37.195-12.584 57.986-14.556 29.886-37.753 48.347-71.829 48.498-33.265.149-57.406-17.207-70.814-46.656-21.304-46.797-27.09-96.099-12.665-145.908 14.04-48.481 58.203-72.85 101.761-58.263 24.29 8.135 39.919 25.571 49.737 48.648 11.916 28.007 15.698 57.546 16.394 95.695" style="fill:#fdfefe;fill-rule:nonzero"/></svg>