<?xml version="1.0" encoding="UTF-8" standalone="no"?><!DOCTYPE svg PUBLIC "-//W3C//DTD SVG 1.1//EN" "http://www.w3.org/Graphics/SVG/1.1/DTD/svg11.dtd"><svg width="100%" height="100%" viewBox="0 0 374 62" version="1.1" xmlns="http://www.w3.org/2000/svg" xmlns:xlink="http://www.w3.org/1999/xlink" xml:space="preserve" xmlns:serif="http://www.serif.com/" style="fill-rule:evenodd;clip-rule:evenodd;stroke-linejoin:round;stroke-miterlimit:1.41421;"><g id="Calque-2" serif:id="Calque 2"><path d="M78.467,13.794l50.62,0l0,-3.031c-0.025,-1.544 -1.272,-1.961 -1.664,-1.961l-47.181,0c-0.495,0 -1.669,0.383 -1.775,1.886l0,3.106Zm58.497,22.261l-7.877,0l0,-14.422l-50.62,0l0,14.422l-7.396,0l0,-28.768c0.048,-4.634 2.415,-6.952 7.101,-6.952l52.505,0c4.19,0 6.287,2.489 6.287,7.469l0,28.251Z" style="fill:#7e8082;fill-rule:nonzero;"/><path d="M204.33,8.469l-46.587,0c-1.129,0.019 -1.998,0.843 -1.925,2.441l0,25.145l-7.69,0l0,-27.141c0,-5.818 1.749,-8.728 5.25,-8.728l54.946,0c3.746,0 5.621,2.91 5.621,8.728l0,27.141l-7.543,0l0,-25.219c-0.086,-1.936 -0.954,-2.394 -2.072,-2.367" style="fill:#7e8082;fill-rule:nonzero;"/><path d="M291.003,27.326c0,5.819 -1.925,8.729 -5.769,8.729l-59.651,0l0,-8.803l55.656,0c0.91,0.044 1.407,-0.104 1.779,-0.596c0.371,-0.493 0.431,-1.486 0.435,-2.231c0.011,-2.022 -0.343,-2.746 -2.067,-2.792l-51.026,0c-3.451,-0.1 -5.175,-2.737 -5.175,-7.913l0,-6.065c0,-4.978 1.748,-7.47 5.249,-7.47l60.021,0l0,8.431l-56.175,0c-0.444,0 -1.053,0.125 -1.399,0.642c-0.345,0.518 -0.3,1.319 -0.3,2.132c0,0.814 0.036,1.544 0.382,1.913c0.346,0.371 0.873,0.417 1.317,0.417l50.954,0c3.844,0 5.769,2.688 5.769,8.06l0,5.546Z" style="fill:#7e8082;fill-rule:nonzero;"/><path d="M52.138,24.737l0,-24.366l7.691,0l0,27.029c0,5.769 -1.897,8.654 -5.69,8.654l-53.969,0l0,-8.95l50.933,0c0,0 1.035,-0.201 1.035,-2.367" style="fill:#7e8082;fill-rule:nonzero;"/><rect x="306.193" y="0.22" width="66.817" height="16.471" style="fill:#ee3123;"/><rect x="306.193" y="19.7" width="66.817" height="16.355" style="fill:#ee3123;"/><path d="M76.9,58.053l0,-5.287l-4.913,0l0,5.287l-1.835,0l0,-12.103l1.835,0l0,5.168l4.913,0l0,-5.168l1.836,0l0,12.103l-1.836,0Z" style="fill:#7e8082;fill-rule:nonzero;"/><path d="M86.097,54.246l-2.023,0c-1.019,0 -1.547,0.459 -1.547,1.241c0,0.782 0.493,1.224 1.581,1.224c0.663,0 1.156,-0.051 1.615,-0.493c0.255,-0.255 0.374,-0.663 0.374,-1.275l0,-0.697Zm0.034,3.808l0,-0.782c-0.629,0.629 -1.224,0.884 -2.295,0.884c-1.071,0 -1.784,-0.255 -2.312,-0.783c-0.442,-0.458 -0.679,-1.121 -0.679,-1.852c0,-1.445 1.002,-2.482 2.974,-2.482l2.278,0l0,-0.612c0,-1.088 -0.544,-1.615 -1.887,-1.615c-0.952,0 -1.411,0.221 -1.886,0.833l-1.14,-1.07c0.816,-0.953 1.666,-1.242 3.094,-1.242c2.363,0 3.553,1.003 3.553,2.958l0,5.763l-1.7,0Z" style="fill:#7e8082;fill-rule:nonzero;"/><path d="M90.297,49.435l1.734,0l0,8.618l-1.734,0l0,-8.618Zm-0.051,-3.535l1.836,0l0,1.836l-1.836,0l0,-1.836Z" style="fill:#7e8082;fill-rule:nonzero;"/><path d="M97.368,58.155c-1.411,0 -2.601,-0.238 -3.621,-1.241l1.139,-1.139c0.697,0.714 1.632,0.901 2.482,0.901c1.054,0 1.887,-0.374 1.887,-1.19c0,-0.578 -0.323,-0.952 -1.156,-1.019l-1.377,-0.12c-1.615,-0.136 -2.55,-0.867 -2.55,-2.379c0,-1.683 1.445,-2.635 3.247,-2.635c1.292,0 2.397,0.272 3.196,0.968l-1.088,1.105c-0.544,-0.459 -1.309,-0.628 -2.125,-0.628c-1.037,0 -1.564,0.459 -1.564,1.105c0,0.509 0.272,0.9 1.19,0.985l1.36,0.12c1.615,0.135 2.567,0.9 2.567,2.43c0,1.802 -1.53,2.737 -3.587,2.737" style="fill:#7e8082;fill-rule:nonzero;"/><path d="M107.772,51.866c-0.272,-0.646 -0.884,-1.088 -1.7,-1.088c-0.816,0 -1.445,0.442 -1.717,1.088c-0.17,0.391 -0.204,0.646 -0.221,1.173l3.876,0c-0.017,-0.527 -0.068,-0.782 -0.238,-1.173m-3.638,2.38c0,1.479 0.782,2.413 2.193,2.413c0.969,0 1.479,-0.272 2.091,-0.883l1.104,1.037c-0.883,0.884 -1.716,1.343 -3.229,1.343c-2.159,0 -3.875,-1.14 -3.875,-4.42c0,-2.788 1.444,-4.403 3.654,-4.403c2.312,0 3.655,1.7 3.655,4.148l0,0.765l-5.593,0Z" style="fill:#7e8082;fill-rule:nonzero;"/><path d="M116.561,51.458c-0.391,-0.391 -0.697,-0.578 -1.292,-0.578c-0.935,0 -1.716,0.748 -1.716,1.938l0,5.235l-1.734,0l0,-8.618l1.7,0l0,0.935c0.441,-0.612 1.325,-1.037 2.294,-1.037c0.833,0 1.462,0.221 2.057,0.816l-1.309,1.309Z" style="fill:#7e8082;fill-rule:nonzero;"/><path d="M126.081,50.88c-1.564,0 -1.802,1.326 -1.802,2.856c0,1.53 0.238,2.873 1.802,2.873c1.563,0 1.784,-1.343 1.784,-2.873c0,-1.53 -0.221,-2.856 -1.784,-2.856m1.818,7.173l0,-0.918c-0.645,0.782 -1.342,1.02 -2.277,1.02c-0.867,0 -1.632,-0.289 -2.108,-0.765c-0.867,-0.866 -0.969,-2.345 -0.969,-3.654c0,-1.309 0.102,-2.771 0.969,-3.638c0.476,-0.476 1.224,-0.765 2.09,-0.765c0.918,0 1.632,0.221 2.261,0.969l0,-4.352l1.735,0l0,12.103l-1.701,0Z" style="fill:#7e8082;fill-rule:nonzero;"/><path d="M135.838,47.871l-1.309,0l1.275,-2.753l1.921,0l-1.887,2.753Zm1.224,3.995c-0.272,-0.646 -0.884,-1.088 -1.7,-1.088c-0.816,0 -1.445,0.442 -1.716,1.088c-0.17,0.391 -0.204,0.646 -0.222,1.172l3.876,0c-0.017,-0.526 -0.068,-0.781 -0.238,-1.172m-3.638,2.38c0,1.479 0.782,2.413 2.193,2.413c0.969,0 1.479,-0.272 2.091,-0.884l1.105,1.037c-0.884,0.884 -1.717,1.343 -3.23,1.343c-2.159,0 -3.876,-1.139 -3.876,-4.419c0,-2.788 1.445,-4.403 3.655,-4.403c2.312,0 3.655,1.7 3.655,4.147l0,0.766l-5.593,0Z" style="fill:#7e8082;fill-rule:nonzero;"/><path d="M141.109,49.435l1.733,0l0,8.618l-1.733,0l0,-8.618Zm-0.051,-3.535l1.836,0l0,1.836l-1.836,0l0,-1.836Z" style="fill:#7e8082;fill-rule:nonzero;"/><path d="M152.363,50.88c-1.564,0 -1.768,1.343 -1.768,2.703c0,1.359 0.204,2.702 1.768,2.702c1.563,0 1.751,-1.343 1.751,-2.702c0,-1.36 -0.189,-2.703 -1.751,-2.703m-0.204,10.76c-1.309,0 -2.142,-0.306 -3.043,-1.139l1.105,-1.105c0.544,0.51 1.02,0.765 1.87,0.765c1.461,0 2.023,-1.037 2.023,-2.193l0,-1.105c-0.629,0.748 -1.343,0.986 -2.228,0.986c-0.866,0 -1.58,-0.289 -2.056,-0.764c-0.833,-0.833 -0.969,-2.04 -0.969,-3.502c0,-1.462 0.136,-2.669 0.969,-3.502c0.476,-0.476 1.207,-0.748 2.074,-0.748c0.918,0 1.614,0.238 2.261,1.02l0,-0.918l1.682,0l0,8.568c0,2.107 -1.393,3.637 -3.688,3.637" style="fill:#7e8082;fill-rule:nonzero;"/><path d="M160.709,58.053c-1.648,0 -2.362,-1.105 -2.362,-2.38l0,-9.723l1.733,0l0,9.621c0,0.663 0.238,1.003 0.935,1.003l0.765,0l0,1.479l-1.071,0Z" style="fill:#7e8082;fill-rule:nonzero;"/><path d="M166.743,47.871l-1.309,0l1.275,-2.753l1.921,0l-1.887,2.753Zm1.224,3.995c-0.272,-0.646 -0.884,-1.088 -1.7,-1.088c-0.816,0 -1.445,0.442 -1.716,1.088c-0.17,0.391 -0.204,0.646 -0.222,1.172l3.876,0c-0.017,-0.526 -0.068,-0.781 -0.238,-1.172m-3.638,2.38c0,1.479 0.782,2.413 2.193,2.413c0.969,0 1.479,-0.272 2.091,-0.884l1.105,1.037c-0.884,0.884 -1.717,1.343 -3.23,1.343c-2.159,0 -3.876,-1.139 -3.876,-4.419c0,-2.788 1.445,-4.403 3.655,-4.403c2.312,0 3.655,1.7 3.655,4.147l0,0.766l-5.593,0Z" style="fill:#7e8082;fill-rule:nonzero;"/><path d="M175.413,58.155c-1.937,0 -3.842,-1.19 -3.842,-4.419c0,-3.23 1.905,-4.403 3.842,-4.403c1.19,0 2.022,0.34 2.839,1.207l-1.19,1.156c-0.544,-0.595 -0.969,-0.816 -1.649,-0.816c-0.663,0 -1.224,0.272 -1.598,0.765c-0.374,0.475 -0.509,1.088 -0.509,2.091c0,1.002 0.135,1.631 0.509,2.107c0.374,0.493 0.935,0.765 1.598,0.765c0.68,0 1.105,-0.221 1.649,-0.816l1.19,1.139c-0.817,0.867 -1.649,1.224 -2.839,1.224" style="fill:#7e8082;fill-rule:nonzero;"/><path d="M185.477,58.053l-2.413,-3.978l-1.275,1.445l0,2.533l-1.734,0l0,-12.103l1.734,0l0,7.462l3.348,-3.977l2.109,0l-2.993,3.383l3.367,5.235l-2.143,0Z" style="fill:#7e8082;fill-rule:nonzero;"/><path d="M191.478,58.053c-1.648,0 -2.362,-1.105 -2.362,-2.38l0,-9.723l1.733,0l0,9.621c0,0.663 0.238,1.003 0.935,1.003l0.765,0l0,1.479l-1.071,0Z" style="fill:#7e8082;fill-rule:nonzero;"/><path d="M198.737,51.866c-0.271,-0.646 -0.884,-1.088 -1.699,-1.088c-0.817,0 -1.446,0.442 -1.717,1.088c-0.17,0.391 -0.204,0.646 -0.222,1.173l3.876,0c-0.016,-0.527 -0.068,-0.782 -0.238,-1.173m-3.638,2.38c0,1.479 0.783,2.413 2.194,2.413c0.968,0 1.478,-0.272 2.09,-0.883l1.105,1.037c-0.884,0.884 -1.717,1.343 -3.23,1.343c-2.159,0 -3.875,-1.14 -3.875,-4.42c0,-2.788 1.445,-4.403 3.655,-4.403c2.311,0 3.654,1.7 3.654,4.148l0,0.765l-5.593,0Z" style="fill:#7e8082;fill-rule:nonzero;"/><path d="M206.183,58.155c-1.937,0 -3.842,-1.19 -3.842,-4.419c0,-3.23 1.905,-4.403 3.842,-4.403c1.19,0 2.022,0.34 2.839,1.207l-1.19,1.156c-0.544,-0.595 -0.969,-0.816 -1.649,-0.816c-0.663,0 -1.224,0.272 -1.598,0.765c-0.374,0.475 -0.509,1.088 -0.509,2.091c0,1.002 0.135,1.631 0.509,2.107c0.374,0.493 0.935,0.765 1.598,0.765c0.68,0 1.105,-0.221 1.649,-0.816l1.19,1.139c-0.817,0.867 -1.649,1.224 -2.839,1.224" style="fill:#7e8082;fill-rule:nonzero;"/><path d="M216.043,58.053l0,-5.287c0,-1.308 -0.766,-1.886 -1.734,-1.886c-0.969,0 -1.751,0.595 -1.751,1.886l0,5.287l-1.734,0l0,-12.103l1.734,0l0,4.352c0.595,-0.646 1.377,-0.969 2.227,-0.969c1.92,0 2.991,1.292 2.991,3.161l0,5.559l-1.733,0Z" style="fill:#7e8082;fill-rule:nonzero;"/><path d="M234.622,58.053l0,-5.252c0,-1.343 -0.765,-1.921 -1.733,-1.921c-0.936,0 -1.786,0.595 -1.786,1.836l0,5.337l-1.734,0l0,-5.252c0,-1.343 -0.765,-1.921 -1.733,-1.921c-0.969,0 -1.785,0.595 -1.785,1.921l0,5.252l-1.734,0l0,-8.618l1.7,0l0,0.867c0.577,-0.629 1.428,-0.969 2.294,-0.969c1.072,0 1.905,0.425 2.449,1.258c0.697,-0.85 1.563,-1.258 2.702,-1.258c0.884,0 1.666,0.289 2.175,0.782c0.664,0.646 0.918,1.461 0.918,2.431l0,5.507l-1.733,0Z" style="fill:#7e8082;fill-rule:nonzero;"/><path d="M243.429,54.246l-2.022,0c-1.021,0 -1.547,0.459 -1.547,1.241c0,0.782 0.492,1.224 1.58,1.224c0.663,0 1.156,-0.051 1.615,-0.493c0.255,-0.255 0.374,-0.663 0.374,-1.275l0,-0.697Zm0.034,3.808l0,-0.782c-0.629,0.629 -1.223,0.884 -2.295,0.884c-1.071,0 -1.785,-0.255 -2.311,-0.783c-0.443,-0.458 -0.681,-1.121 -0.681,-1.852c0,-1.445 1.003,-2.482 2.976,-2.482l2.277,0l0,-0.612c0,-1.088 -0.544,-1.615 -1.887,-1.615c-0.952,0 -1.411,0.221 -1.886,0.833l-1.139,-1.07c0.815,-0.953 1.665,-1.242 3.094,-1.242c2.362,0 3.551,1.003 3.551,2.958l0,5.763l-1.699,0Z" style="fill:#7e8082;fill-rule:nonzero;"/><path d="M252.236,54.246l-2.022,0c-1.021,0 -1.547,0.459 -1.547,1.241c0,0.782 0.492,1.224 1.58,1.224c0.663,0 1.156,-0.051 1.615,-0.493c0.255,-0.255 0.374,-0.663 0.374,-1.275l0,-0.697Zm0.034,3.808l0,-0.782c-0.629,0.629 -1.223,0.884 -2.295,0.884c-1.071,0 -1.785,-0.255 -2.311,-0.783c-0.443,-0.458 -0.681,-1.121 -0.681,-1.852c0,-1.445 1.003,-2.482 2.976,-2.482l2.277,0l0,-0.612c0,-1.088 -0.544,-1.615 -1.887,-1.615c-0.952,0 -1.411,0.221 -1.886,0.833l-1.139,-1.07c0.815,-0.953 1.665,-1.242 3.094,-1.242c2.362,0 3.551,1.003 3.551,2.958l0,5.763l-1.699,0Z" style="fill:#7e8082;fill-rule:nonzero;"/><path d="M259.834,58.155c-1.937,0 -3.842,-1.19 -3.842,-4.419c0,-3.23 1.905,-4.403 3.842,-4.403c1.19,0 2.023,0.34 2.839,1.207l-1.19,1.156c-0.544,-0.595 -0.969,-0.816 -1.649,-0.816c-0.663,0 -1.224,0.272 -1.598,0.765c-0.374,0.475 -0.509,1.088 -0.509,2.091c0,1.002 0.135,1.631 0.509,2.107c0.374,0.493 0.935,0.765 1.598,0.765c0.68,0 1.105,-0.221 1.649,-0.816l1.19,1.139c-0.816,0.867 -1.649,1.224 -2.839,1.224" style="fill:#7e8082;fill-rule:nonzero;"/><path d="M269.695,58.053l0,-5.287c0,-1.308 -0.766,-1.886 -1.734,-1.886c-0.969,0 -1.751,0.595 -1.751,1.886l0,5.287l-1.734,0l0,-12.103l1.734,0l0,4.352c0.595,-0.646 1.377,-0.969 2.227,-0.969c1.92,0 2.991,1.292 2.991,3.161l0,5.559l-1.733,0Z" style="fill:#7e8082;fill-rule:nonzero;"/><path d="M278.806,51.866c-0.271,-0.646 -0.884,-1.088 -1.699,-1.088c-0.817,0 -1.446,0.442 -1.717,1.088c-0.17,0.391 -0.204,0.646 -0.222,1.173l3.876,0c-0.016,-0.527 -0.068,-0.782 -0.238,-1.173m-3.638,2.38c0,1.479 0.783,2.413 2.194,2.413c0.968,0 1.478,-0.272 2.09,-0.883l1.105,1.037c-0.884,0.884 -1.717,1.343 -3.23,1.343c-2.159,0 -3.875,-1.14 -3.875,-4.42c0,-2.788 1.445,-4.403 3.655,-4.403c2.312,0 3.654,1.7 3.654,4.148l0,0.765l-5.593,0Z" style="fill:#7e8082;fill-rule:nonzero;"/><path d="M288.104,58.053l0,-5.252c0,-1.343 -0.766,-1.921 -1.734,-1.921c-0.969,0 -1.786,0.595 -1.786,1.921l0,5.252l-1.732,0l0,-8.618l1.699,0l0,0.867c0.596,-0.646 1.428,-0.969 2.295,-0.969c0.885,0 1.615,0.289 2.125,0.782c0.662,0.646 0.867,1.461 0.867,2.431l0,5.507l-1.734,0Z" style="fill:#7e8082;fill-rule:nonzero;"/></g></svg>