<svg viewBox="0 0 374 62" xmlns="http://www.w3.org/2000/svg" xml:space="preserve" style="fill-rule:evenodd;clip-rule:evenodd;stroke-linejoin:round;stroke-miterlimit:1.41421"><path d="M78.467 13.794h50.62v-3.031c-.025-1.544-1.272-1.961-1.664-1.961H80.242c-.495 0-1.669.383-1.775 1.886v3.106Zm58.497 22.261h-7.877V21.633h-50.62v14.422h-7.396V7.287c.048-4.634 2.415-6.952 7.101-6.952h52.505c4.19 0 6.287 2.489 6.287 7.469v28.251ZM204.33 8.469h-46.587c-1.129.019-1.998.843-1.925 2.441v25.145h-7.69V8.914c0-5.818 1.749-8.728 5.25-8.728h54.946c3.746 0 5.621 2.91 5.621 8.728v27.141h-7.543V10.836c-.086-1.936-.954-2.394-2.072-2.367M291.003 27.326c0 5.819-1.925 8.729-5.769 8.729h-59.651v-8.803h55.656c.91.044 1.407-.104 1.779-.596.371-.493.431-1.486.435-2.231.011-2.022-.343-2.746-2.067-2.792H230.36c-3.451-.1-5.175-2.737-5.175-7.913V7.655c0-4.978 1.748-7.47 5.249-7.47h60.021v8.431H234.28c-.444 0-1.053.125-1.399.642-.345.518-.3 1.319-.3 2.132 0 .814.036 1.544.382 1.913.346.371.873.417 1.317.417h50.954c3.844 0 5.769 2.688 5.769 8.06v5.546ZM52.138 24.737V.371h7.691V27.4c0 5.769-1.897 8.654-5.69 8.654H.17v-8.95h50.933s1.035-.201 1.035-2.367" style="fill:#7e8082;fill-rule:nonzero"/><path style="fill:#ee3123" d="M306.193.22h66.817v16.471h-66.817zM306.193 19.7h66.817v16.355h-66.817z"/><path d="M76.9 58.053v-5.287h-4.913v5.287h-1.835V45.95h1.835v5.168H76.9V45.95h1.836v12.103H76.9ZM86.097 54.246h-2.023c-1.019 0-1.547.459-1.547 1.241s.493 1.224 1.581 1.224c.663 0 1.156-.051 1.615-.493.255-.255.374-.663.374-1.275v-.697Zm.034 3.808v-.782c-.629.629-1.224.884-2.295.884s-1.784-.255-2.312-.783c-.442-.458-.679-1.121-.679-1.852 0-1.445 1.002-2.482 2.974-2.482h2.278v-.612c0-1.088-.544-1.615-1.887-1.615-.952 0-1.411.221-1.886.833l-1.14-1.07c.816-.953 1.666-1.242 3.094-1.242 2.363 0 3.553 1.003 3.553 2.958v5.763h-1.7ZM90.297 49.435h1.734v8.618h-1.734v-8.618Zm-.051-3.535h1.836v1.836h-1.836V45.9ZM97.368 58.155c-1.411 0-2.601-.238-3.621-1.241l1.139-1.139c.697.714 1.632.901 2.482.901 1.054 0 1.887-.374 1.887-1.19 0-.578-.323-.952-1.156-1.019l-1.377-.12c-1.615-.136-2.55-.867-2.55-2.379 0-1.683 1.445-2.635 3.247-2.635 1.292 0 2.397.272 3.196.968l-1.088 1.105c-.544-.459-1.309-.628-2.125-.628-1.037 0-1.564.459-1.564 1.105 0 .509.272.9 1.19.985l1.36.12c1.615.135 2.567.9 2.567 2.43 0 1.802-1.53 2.737-3.587 2.737M107.772 51.866c-.272-.646-.884-1.088-1.7-1.088s-1.445.442-1.717 1.088c-.17.391-.204.646-.221 1.173h3.876c-.017-.527-.068-.782-.238-1.173m-3.638 2.38c0 1.479.782 2.413 2.193 2.413.969 0 1.479-.272 2.091-.883l1.104 1.037c-.883.884-1.716 1.343-3.229 1.343-2.159 0-3.875-1.14-3.875-4.42 0-2.788 1.444-4.403 3.654-4.403 2.312 0 3.655 1.7 3.655 4.148v.765h-5.593ZM116.561 51.458c-.391-.391-.697-.578-1.292-.578-.935 0-1.716.748-1.716 1.938v5.235h-1.734v-8.618h1.7v.935c.441-.612 1.325-1.037 2.294-1.037.833 0 1.462.221 2.057.816l-1.309 1.309ZM126.081 50.88c-1.564 0-1.802 1.326-1.802 2.856 0 1.53.238 2.873 1.802 2.873 1.563 0 1.784-1.343 1.784-2.873 0-1.53-.221-2.856-1.784-2.856m1.818 7.173v-.918c-.645.782-1.342 1.02-2.277 1.02-.867 0-1.632-.289-2.108-.765-.867-.866-.969-2.345-.969-3.654 0-1.309.102-2.771.969-3.638.476-.476 1.224-.765 2.09-.765.918 0 1.632.221 2.261.969V45.95h1.735v12.103h-1.701ZM135.838 47.871h-1.309l1.275-2.753h1.921l-1.887 2.753Zm1.224 3.995c-.272-.646-.884-1.088-1.7-1.088s-1.445.442-1.716 1.088c-.17.391-.204.646-.222 1.172h3.876c-.017-.526-.068-.781-.238-1.172m-3.638 2.38c0 1.479.782 2.413 2.193 2.413.969 0 1.479-.272 2.091-.884l1.105 1.037c-.884.884-1.717 1.343-3.23 1.343-2.159 0-3.876-1.139-3.876-4.419 0-2.788 1.445-4.403 3.655-4.403 2.312 0 3.655 1.7 3.655 4.147v.766h-5.593ZM141.109 49.435h1.733v8.618h-1.733v-8.618Zm-.051-3.535h1.836v1.836h-1.836V45.9ZM152.363 50.88c-1.564 0-1.768 1.343-1.768 2.703 0 1.359.204 2.702 1.768 2.702 1.563 0 1.751-1.343 1.751-2.702 0-1.36-.189-2.703-1.751-2.703m-.204 10.76c-1.309 0-2.142-.306-3.043-1.139l1.105-1.105c.544.51 1.02.765 1.87.765 1.461 0 2.023-1.037 2.023-2.193v-1.105c-.629.748-1.343.986-2.228.986-.866 0-1.58-.289-2.056-.764-.833-.833-.969-2.04-.969-3.502 0-1.462.136-2.669.969-3.502.476-.476 1.207-.748 2.074-.748.918 0 1.614.238 2.261 1.02v-.918h1.682v8.568c0 2.107-1.393 3.637-3.688 3.637M160.709 58.053c-1.648 0-2.362-1.105-2.362-2.38V45.95h1.733v9.621c0 .663.238 1.003.935 1.003h.765v1.479h-1.071ZM166.743 47.871h-1.309l1.275-2.753h1.921l-1.887 2.753Zm1.224 3.995c-.272-.646-.884-1.088-1.7-1.088s-1.445.442-1.716 1.088c-.17.391-.204.646-.222 1.172h3.876c-.017-.526-.068-.781-.238-1.172m-3.638 2.38c0 1.479.782 2.413 2.193 2.413.969 0 1.479-.272 2.091-.884l1.105 1.037c-.884.884-1.717 1.343-3.23 1.343-2.159 0-3.876-1.139-3.876-4.419 0-2.788 1.445-4.403 3.655-4.403 2.312 0 3.655 1.7 3.655 4.147v.766h-5.593ZM175.413 58.155c-1.937 0-3.842-1.19-3.842-4.419 0-3.23 1.905-4.403 3.842-4.403 1.19 0 2.022.34 2.839 1.207l-1.19 1.156c-.544-.595-.969-.816-1.649-.816-.663 0-1.224.272-1.598.765-.374.475-.509 1.088-.509 2.091 0 1.002.135 1.631.509 2.107.374.493.935.765 1.598.765.68 0 1.105-.221 1.649-.816l1.19 1.139c-.817.867-1.649 1.224-2.839 1.224M185.477 58.053l-2.413-3.978-1.275 1.445v2.533h-1.734V45.95h1.734v7.462l3.348-3.977h2.109l-2.993 3.383 3.367 5.235h-2.143ZM191.478 58.053c-1.648 0-2.362-1.105-2.362-2.38V45.95h1.733v9.621c0 .663.238 1.003.935 1.003h.765v1.479h-1.071ZM198.737 51.866c-.271-.646-.884-1.088-1.699-1.088-.817 0-1.446.442-1.717 1.088-.17.391-.204.646-.222 1.173h3.876c-.016-.527-.068-.782-.238-1.173m-3.638 2.38c0 1.479.783 2.413 2.194 2.413.968 0 1.478-.272 2.09-.883l1.105 1.037c-.884.884-1.717 1.343-3.23 1.343-2.159 0-3.875-1.14-3.875-4.42 0-2.788 1.445-4.403 3.655-4.403 2.311 0 3.654 1.7 3.654 4.148v.765h-5.593ZM206.183 58.155c-1.937 0-3.842-1.19-3.842-4.419 0-3.23 1.905-4.403 3.842-4.403 1.19 0 2.022.34 2.839 1.207l-1.19 1.156c-.544-.595-.969-.816-1.649-.816-.663 0-1.224.272-1.598.765-.374.475-.509 1.088-.509 2.091 0 1.002.135 1.631.509 2.107.374.493.935.765 1.598.765.68 0 1.105-.221 1.649-.816l1.19 1.139c-.817.867-1.649 1.224-2.839 1.224M216.043 58.053v-5.287c0-1.308-.766-1.886-1.734-1.886-.969 0-1.751.595-1.751 1.886v5.287h-1.734V45.95h1.734v4.352a2.963 2.963 0 0 1 2.227-.969c1.92 0 2.991 1.292 2.991 3.161v5.559h-1.733ZM234.622 58.053v-5.252c0-1.343-.765-1.921-1.733-1.921-.936 0-1.786.595-1.786 1.836v5.337h-1.734v-5.252c0-1.343-.765-1.921-1.733-1.921-.969 0-1.785.595-1.785 1.921v5.252h-1.734v-8.618h1.7v.867c.577-.629 1.428-.969 2.294-.969 1.072 0 1.905.425 2.449 1.258.697-.85 1.563-1.258 2.702-1.258.884 0 1.666.289 2.175.782.664.646.918 1.461.918 2.431v5.507h-1.733ZM243.429 54.246h-2.022c-1.021 0-1.547.459-1.547 1.241s.492 1.224 1.58 1.224c.663 0 1.156-.051 1.615-.493.255-.255.374-.663.374-1.275v-.697Zm.034 3.808v-.782c-.629.629-1.223.884-2.295.884-1.071 0-1.785-.255-2.311-.783-.443-.458-.681-1.121-.681-1.852 0-1.445 1.003-2.482 2.976-2.482h2.277v-.612c0-1.088-.544-1.615-1.887-1.615-.952 0-1.411.221-1.886.833l-1.139-1.07c.815-.953 1.665-1.242 3.094-1.242 2.362 0 3.551 1.003 3.551 2.958v5.763h-1.699ZM252.236 54.246h-2.022c-1.021 0-1.547.459-1.547 1.241s.492 1.224 1.58 1.224c.663 0 1.156-.051 1.615-.493.255-.255.374-.663.374-1.275v-.697Zm.034 3.808v-.782c-.629.629-1.223.884-2.295.884-1.071 0-1.785-.255-2.311-.783-.443-.458-.681-1.121-.681-1.852 0-1.445 1.003-2.482 2.976-2.482h2.277v-.612c0-1.088-.544-1.615-1.887-1.615-.952 0-1.411.221-1.886.833l-1.139-1.07c.815-.953 1.665-1.242 3.094-1.242 2.362 0 3.551 1.003 3.551 2.958v5.763h-1.699ZM259.834 58.155c-1.937 0-3.842-1.19-3.842-4.419 0-3.23 1.905-4.403 3.842-4.403 1.19 0 2.023.34 2.839 1.207l-1.19 1.156c-.544-.595-.969-.816-1.649-.816-.663 0-1.224.272-1.598.765-.374.475-.509 1.088-.509 2.091 0 1.002.135 1.631.509 2.107.374.493.935.765 1.598.765.68 0 1.105-.221 1.649-.816l1.19 1.139c-.816.867-1.649 1.224-2.839 1.224M269.695 58.053v-5.287c0-1.308-.766-1.886-1.734-1.886-.969 0-1.751.595-1.751 1.886v5.287h-1.734V45.95h1.734v4.352a2.963 2.963 0 0 1 2.227-.969c1.92 0 2.991 1.292 2.991 3.161v5.559h-1.733ZM278.806 51.866c-.271-.646-.884-1.088-1.699-1.088-.817 0-1.446.442-1.717 1.088-.17.391-.204.646-.222 1.173h3.876c-.016-.527-.068-.782-.238-1.173m-3.638 2.38c0 1.479.783 2.413 2.194 2.413.968 0 1.478-.272 2.09-.883l1.105 1.037c-.884.884-1.717 1.343-3.23 1.343-2.159 0-3.875-1.14-3.875-4.42 0-2.788 1.445-4.403 3.655-4.403 2.312 0 3.654 1.7 3.654 4.148v.765h-5.593ZM288.104 58.053v-5.252c0-1.343-.766-1.921-1.734-1.921-.969 0-1.786.595-1.786 1.921v5.252h-1.732v-8.618h1.699v.867c.596-.646 1.428-.969 2.295-.969.885 0 1.615.289 2.125.782.662.646.867 1.461.867 2.431v5.507h-1.734Z" style="fill:#7e8082;fill-rule:nonzero"/></svg>