<svg viewBox="0 0 348 72" xmlns="http://www.w3.org/2000/svg" xml:space="preserve" style="fill-rule:evenodd;clip-rule:evenodd;stroke-linejoin:round;stroke-miterlimit:1.41421"><path d="M286.176 56.289a38.604 38.604 0 0 1 2.664-3.809 59.74 59.74 0 0 1 2.449-2.918l6.555 5.184c-.457.57-.879 1.109-1.27 1.609-.386.508-.769 1.012-1.144 1.512a68.281 68.281 0 0 0-1.137 1.563 87.67 87.67 0 0 0-1.219 1.8l-6.898-4.941ZM8.617 60.551a8.025 8.025 0 0 0 2.043 1c.676.199 1.449.304 2.317.304.8 0 1.511-.136 2.128-.406.618-.281 1.145-.719 1.579-1.324.437-.605.761-1.395.98-2.352.215-.961.324-2.117.324-3.468V20.672h8.407v31.164c0 3.43-.317 6.297-.957 8.594-.645 2.304-1.571 4.14-2.782 5.531a9.947 9.947 0 0 1-4.48 2.93c-1.77.57-3.793.859-6.055.859l-3.57-9.023.066-.176Zm8.168-49.176a39.502 39.502 0 0 1 2.664-3.813 57.26 57.26 0 0 1 2.449-2.914l6.559 5.18c-.461.57-.883 1.113-1.269 1.617-.391.5-.774 1-1.153 1.504a83.054 83.054 0 0 0-1.133 1.563c-.375.539-.785 1.14-1.218 1.8l-6.899-4.937ZM34.461 39.844c0-2.496.426-4.844 1.273-7.024a17.032 17.032 0 0 1 3.618-5.722c1.562-1.633 3.457-2.922 5.671-3.864 2.219-.945 4.696-1.418 7.434-1.418 2.695 0 5.105.438 7.223 1.321 2.117.879 3.906 2.097 5.367 3.652 1.449 1.551 2.562 3.391 3.324 5.508.758 2.117 1.137 4.406 1.137 6.863 0 2.434-.391 4.731-1.172 6.899a16.713 16.713 0 0 1-3.422 5.683c-1.5 1.633-3.336 2.922-5.496 3.867-2.16.942-4.621 1.418-7.383 1.418-2.89 0-5.437-.468-7.629-1.402-2.195-.934-4.027-2.199-5.496-3.785a16.018 16.018 0 0 1-3.324-5.477c-.75-2.062-1.125-4.238-1.125-6.519m8.121-.555c0 1.5.23 2.875.699 4.125s1.137 2.316 2.004 3.195a9.202 9.202 0 0 0 3.113 2.055c1.207.488 2.559.731 4.059.731 1.414 0 2.668-.239 3.766-.715a7.81 7.81 0 0 0 2.789-2.02c.758-.871 1.336-1.91 1.726-3.117.391-1.203.586-2.547.586-4.023 0-1.458-.207-2.809-.617-4.059-.414-1.254-1.023-2.332-1.824-3.246a8.302 8.302 0 0 0-2.953-2.133c-1.164-.512-2.496-.77-3.992-.77-1.567 0-2.934.29-4.11.868a8.888 8.888 0 0 0-2.933 2.261 9.39 9.39 0 0 0-1.747 3.196 12.067 12.067 0 0 0-.566 3.652M76.684 9.914h7.984v13.723a14.71 14.71 0 0 1 3.703-1.383 17.337 17.337 0 0 1 3.899-.438c2.019 0 3.925.414 5.718 1.25a14.59 14.59 0 0 1 4.727 3.528c1.359 1.508 2.43 3.336 3.215 5.476.777 2.141 1.172 4.512 1.172 7.121 0 2.829-.426 5.344-1.27 7.547-.848 2.211-2.016 4.071-3.488 5.594a14.97 14.97 0 0 1-5.203 3.484c-1.989.809-4.121 1.207-6.407 1.207-1.91 0-3.722-.265-5.429-.793-1.707-.539-3.196-1.351-4.465-2.449-1.274-1.097-2.281-2.484-3.031-4.16-.75-1.672-1.125-3.637-1.125-5.898V9.914Zm7.984 33.711c0 1.133.16 2.066.477 2.805.312.742.753 1.328 1.32 1.761.562.434 1.246.739 2.035.911.793.175 1.68.261 2.656.261a6.84 6.84 0 0 0 3.164-.75c.977-.496 1.821-1.211 2.528-2.136.707-.922 1.261-2.032 1.66-3.325.402-1.289.605-2.73.605-4.32 0-1.652-.211-3.074-.636-4.266-.422-1.199-1.008-2.187-1.758-2.968a6.836 6.836 0 0 0-2.66-1.731c-1.02-.371-2.118-.555-3.293-.555-.934 0-1.954.239-3.063.704a11.533 11.533 0 0 0-3.035 1.871v11.738Z" style="fill:#ea8c1b;fill-rule:nonzero"/><path d="M115.801 32.648h-4.324v-8.027h4.324v-.617c0-2.676.347-5.145 1.047-7.399.699-2.25 1.722-4.199 3.07-5.835a14.076 14.076 0 0 1 4.996-3.825c1.977-.91 4.25-1.375 6.813-1.375.457 0 .992.035 1.609.106.621.066 1.09.172 1.41.308l1.305 8.614-.071.172c-.367-.364-.914-.676-1.648-.926-.73-.254-1.543-.379-2.437-.379-1.211 0-2.293.226-3.243.672a6.833 6.833 0 0 0-2.418 1.886c-.664.813-1.168 1.797-1.511 2.95-.34 1.16-.512 2.433-.512 3.828v1.82h9.094c-.071.25-.133.774-.188 1.563-.058.789-.086 1.937-.086 3.445v3.019h-8.82v23.887h-8.41V32.648ZM139.543 13.629a37.512 37.512 0 0 1 2.527-3.617 55.849 55.849 0 0 1 2.328-2.774l6.227 4.926a124.306 124.306 0 0 0-2.297 2.969 60.64 60.64 0 0 0-2.234 3.191l-6.551-4.695Zm1.043 8.836h8.148v30.418c0 1.113.012 1.926.036 2.445.019.524.054.926.093 1.207h-8.277v-34.07ZM158.289 22.469h7.988v2.902c1.5-1.242 2.996-2.144 4.5-2.707 1.5-.566 3.063-.852 4.696-.852 1.781 0 3.394.317 4.839.95a10.463 10.463 0 0 1 3.704 2.687c1.015 1.164 1.808 2.555 2.363 4.176.555 1.617.828 3.414.828 5.395v12.957c0 1.363.012 2.503.035 3.425.02.926.047 1.657.067 2.2.015.546.05.968.097 1.273.086.566.219.957.403 1.172.191.215.347.414.476.586l-.066.133c-.305-.028-.664-.047-1.074-.078a28.132 28.132 0 0 0-1.356-.086c-.488-.02-1-.036-1.535-.047a70.074 70.074 0 0 0-1.578-.02 72.533 72.533 0 0 0-3.457.098V38.867c0-1.652-.133-3.082-.407-4.289-.273-1.203-.664-2.199-1.175-2.98-.508-.786-1.117-1.36-1.825-1.731a4.973 4.973 0 0 0-2.332-.551c-1.367 0-2.66.399-3.878 1.204-1.215.804-2.325 1.992-3.325 3.554v18.289c0 .977.016 1.785.047 2.414.035.629.106 1.215.211 1.758h-8.246V22.469ZM193.891 39.941c0-2.566.457-4.953 1.371-7.156.914-2.203 2.191-4.121 3.828-5.754 1.644-1.629 3.609-2.906 5.902-3.828 2.293-.926 4.809-1.387 7.547-1.387a19.1 19.1 0 0 1 4.926.653V9.914h7.988v32.898c0 1.477.035 2.692.113 3.649.075.957.211 1.758.411 2.394.191.645.461 1.172.796 1.586.336.414.77.805 1.286 1.172l-6.129 5.414c-1.176-.636-2.09-1.402-2.739-2.312-1.5.82-3.003 1.414-4.515 1.773-1.508.36-2.852.539-4.024.539-2.59 0-4.914-.437-6.98-1.304-2.063-.871-3.824-2.067-5.281-3.586-1.453-1.52-2.571-3.328-3.344-5.418-.77-2.082-1.156-4.344-1.156-6.778m7.89-.816c0 1.504.219 2.883.653 4.145a9.042 9.042 0 0 0 1.972 3.292c.879.934 1.981 1.665 3.293 2.18 1.317.524 2.84.785 4.582.785.93 0 1.832-.078 2.688-.242.859-.164 1.695-.43 2.496-.801V30.422c-1.567-.629-3.324-.945-5.281-.945-1.567 0-2.985.238-4.258.714-1.27.481-2.36 1.145-3.274 1.993a8.751 8.751 0 0 0-2.121 3.043c-.5 1.187-.75 2.488-.75 3.898M232.625 39.711c0-2.492.434-4.832 1.305-7.004a17.09 17.09 0 0 1 3.683-5.691c1.586-1.618 3.504-2.891 5.754-3.817 2.25-.922 4.766-1.383 7.547-1.383 2.344 0 4.469.403 6.356 1.219 1.89.817 3.496 1.934 4.812 3.36 1.316 1.421 2.332 3.089 3.047 5.003.719 1.914 1.074 3.969 1.074 6.164 0 .825-.031 1.551-.113 2.184-.07.629-.168 1.078-.274 1.34-.546.148-1.257.281-2.136.402-.879.121-1.891.219-3.035.297a83.084 83.084 0 0 1-3.766.16c-1.367.032-2.809.051-4.336.051h-2.688c-1.035 0-2.078-.008-3.128-.019a405.925 405.925 0 0 0-3.067-.012h-2.492c.566 2.367 1.855 4.191 3.879 5.476 2.019 1.282 4.691 1.922 8.015 1.922 1.266 0 2.45-.109 3.555-.328a19.234 19.234 0 0 0 3-.812 16.893 16.893 0 0 0 2.317-1.028c.652-.359 1.14-.679 1.472-.965-.051 1.071-.101 2.243-.168 3.524a150.845 150.845 0 0 1-.328 4.73c-.543.368-1.242.707-2.101 1.008-.856.309-1.793.57-2.805.801a31.003 31.003 0 0 1-3.129.535 24.563 24.563 0 0 1-3.113.195c-2.739 0-5.278-.418-7.614-1.265-2.336-.852-4.359-2.031-6.066-3.555a16.329 16.329 0 0 1-4.008-5.465c-.969-2.121-1.449-4.461-1.449-7.027m8.867-4.594c.524.043 1.153.078 1.891.098a73.72 73.72 0 0 0 2.281.031h4.008c.5 0 1.094-.004 1.777-.016.692-.007 1.403-.019 2.137-.031a74.753 74.753 0 0 0 2.172-.066c.707-.031 1.34-.071 1.906-.113-.394-2.024-1.199-3.586-2.43-4.7-1.226-1.105-3.004-1.66-5.332-1.66a8.536 8.536 0 0 0-2.871.473c-.89.32-1.691.754-2.41 1.32a9.149 9.149 0 0 0-1.875 2.035 10.48 10.48 0 0 0-1.254 2.629M273.051 22.469h7.988v2.183a13.48 13.48 0 0 1 2.734-1.988c1.028-.566 2.09-.852 3.204-.852.863 0 1.711.071 2.539.2.824.129 1.523.316 2.086.554l-.586 8.77-.129.098c-.367-.719-.992-1.235-1.86-1.547a8.114 8.114 0 0 0-2.804-.477c-.911 0-1.844.305-2.789.914-.942.61-1.743 1.438-2.395 2.477v20.082c0 1.109.012 1.929.035 2.449.02.52.055.922.098 1.203h-8.121V22.469ZM303.531 14.469h7.149v37.695c0 .973.011 1.684.027 2.145.023.457.051.808.09 1.058h-7.266V14.469ZM318.547 37.348v-4.364a129.568 129.568 0 0 0-.086-4.929c-.02-.477-.051-.848-.09-1.117a9.104 9.104 0 0 0-.195-.942 4.416 4.416 0 0 0-.231-.629c.496.055 1.141.086 1.946.098.797.008 1.679.015 2.632.015.325 0 .739-.007 1.243-.015a54.096 54.096 0 0 0 1.789-.07v16.558c0 1.465.129 2.656.398 3.574.266.918.641 1.641 1.117 2.172.477.535 1.035.899 1.684 1.086a7.307 7.307 0 0 0 2.117.289c.973 0 1.883-.242 2.731-.73.851-.485 1.652-1.196 2.418-2.129V25.48h7.007v26.227c0 .859.012 1.563.039 2.113.036.555.094 1.067.188 1.543h-7.234v-2.312a17.32 17.32 0 0 1-1.758 1.269 9.964 9.964 0 0 1-1.688.86 8.534 8.534 0 0 1-1.762.472c-.609.098-1.265.141-1.972.141-1.563 0-2.977-.27-4.246-.813a9.13 9.13 0 0 1-3.246-2.304c-.895-.988-1.586-2.192-2.075-3.602-.488-1.41-.726-2.984-.726-4.722v-7.004Z" style="fill:#2c3e50;fill-rule:nonzero"/></svg>