<?xml version="1.0" encoding="UTF-8" standalone="no"?><!DOCTYPE svg PUBLIC "-//W3C//DTD SVG 1.1//EN" "http://www.w3.org/Graphics/SVG/1.1/DTD/svg11.dtd"><svg width="100%" height="100%" viewBox="0 0 348 72" version="1.1" xmlns="http://www.w3.org/2000/svg" xmlns:xlink="http://www.w3.org/1999/xlink" xml:space="preserve" xmlns:serif="http://www.serif.com/" style="fill-rule:evenodd;clip-rule:evenodd;stroke-linejoin:round;stroke-miterlimit:1.41421;"><g><path d="M286.176,56.289c0.847,-1.375 1.734,-2.641 2.664,-3.809c0.926,-1.164 1.742,-2.14 2.449,-2.918l6.555,5.184c-0.457,0.57 -0.879,1.109 -1.27,1.609c-0.386,0.508 -0.769,1.012 -1.144,1.512c-0.379,0.504 -0.758,1.028 -1.137,1.563c-0.375,0.539 -0.781,1.136 -1.219,1.8l-6.898,-4.941Z" style="fill:#ea8c1b;fill-rule:nonzero;"/><path d="M8.617,60.551c0.688,0.457 1.367,0.789 2.043,1c0.676,0.199 1.449,0.304 2.317,0.304c0.8,0 1.511,-0.136 2.128,-0.406c0.618,-0.281 1.145,-0.719 1.579,-1.324c0.437,-0.605 0.761,-1.395 0.98,-2.352c0.215,-0.961 0.324,-2.117 0.324,-3.468l0,-33.633l8.407,0l0,31.164c0,3.43 -0.317,6.297 -0.957,8.594c-0.645,2.304 -1.571,4.14 -2.782,5.531c-1.215,1.379 -2.707,2.355 -4.48,2.93c-1.77,0.57 -3.793,0.859 -6.055,0.859l-3.57,-9.023l0.066,-0.176Zm8.168,-49.176c0.848,-1.371 1.735,-2.645 2.664,-3.813c0.922,-1.164 1.742,-2.136 2.449,-2.914l6.559,5.18c-0.461,0.57 -0.883,1.113 -1.269,1.617c-0.391,0.5 -0.774,1 -1.153,1.504c-0.375,0.508 -0.754,1.024 -1.133,1.563c-0.375,0.539 -0.785,1.14 -1.218,1.8l-6.899,-4.937Z" style="fill:#ea8c1b;fill-rule:nonzero;"/><path d="M34.461,39.844c0,-2.496 0.426,-4.844 1.273,-7.024c0.844,-2.187 2.055,-4.093 3.618,-5.722c1.562,-1.633 3.457,-2.922 5.671,-3.864c2.219,-0.945 4.696,-1.418 7.434,-1.418c2.695,0 5.105,0.438 7.223,1.321c2.117,0.879 3.906,2.097 5.367,3.652c1.449,1.551 2.562,3.391 3.324,5.508c0.758,2.117 1.137,4.406 1.137,6.863c0,2.434 -0.391,4.731 -1.172,6.899c-0.781,2.16 -1.926,4.054 -3.422,5.683c-1.5,1.633 -3.336,2.922 -5.496,3.867c-2.16,0.942 -4.621,1.418 -7.383,1.418c-2.89,0 -5.437,-0.468 -7.629,-1.402c-2.195,-0.934 -4.027,-2.199 -5.496,-3.785c-1.465,-1.582 -2.574,-3.41 -3.324,-5.477c-0.75,-2.062 -1.125,-4.238 -1.125,-6.519m8.121,-0.555c0,1.5 0.23,2.875 0.699,4.125c0.469,1.25 1.137,2.316 2.004,3.195c0.871,0.879 1.91,1.567 3.113,2.055c1.207,0.488 2.559,0.731 4.059,0.731c1.414,0 2.668,-0.239 3.766,-0.715c1.097,-0.477 2.027,-1.153 2.789,-2.02c0.758,-0.871 1.336,-1.91 1.726,-3.117c0.391,-1.203 0.586,-2.547 0.586,-4.023c0,-1.458 -0.207,-2.809 -0.617,-4.059c-0.414,-1.254 -1.023,-2.332 -1.824,-3.246c-0.805,-0.914 -1.789,-1.625 -2.953,-2.133c-1.164,-0.512 -2.496,-0.77 -3.992,-0.77c-1.567,0 -2.934,0.29 -4.11,0.868c-1.176,0.574 -2.148,1.332 -2.933,2.261c-0.786,0.938 -1.364,2.004 -1.747,3.196c-0.378,1.199 -0.566,2.414 -0.566,3.652" style="fill:#ea8c1b;fill-rule:nonzero;"/><path d="M76.684,9.914l7.984,0l0,13.723c1.176,-0.629 2.41,-1.09 3.703,-1.383c1.293,-0.297 2.59,-0.438 3.899,-0.438c2.019,0 3.925,0.414 5.718,1.25c1.793,0.84 3.371,2.012 4.727,3.528c1.359,1.508 2.43,3.336 3.215,5.476c0.777,2.141 1.172,4.512 1.172,7.121c0,2.829 -0.426,5.344 -1.27,7.547c-0.848,2.211 -2.016,4.071 -3.488,5.594c-1.481,1.523 -3.215,2.684 -5.203,3.484c-1.989,0.809 -4.121,1.207 -6.407,1.207c-1.91,0 -3.722,-0.265 -5.429,-0.793c-1.707,-0.539 -3.196,-1.351 -4.465,-2.449c-1.274,-1.097 -2.281,-2.484 -3.031,-4.16c-0.75,-1.672 -1.125,-3.637 -1.125,-5.898l0,-33.809Zm7.984,33.711c0,1.133 0.16,2.066 0.477,2.805c0.312,0.742 0.753,1.328 1.32,1.761c0.562,0.434 1.246,0.739 2.035,0.911c0.793,0.175 1.68,0.261 2.656,0.261c1.133,0 2.188,-0.25 3.164,-0.75c0.977,-0.496 1.821,-1.211 2.528,-2.136c0.707,-0.922 1.261,-2.032 1.66,-3.325c0.402,-1.289 0.605,-2.73 0.605,-4.32c0,-1.652 -0.211,-3.074 -0.636,-4.266c-0.422,-1.199 -1.008,-2.187 -1.758,-2.968c-0.754,-0.786 -1.637,-1.364 -2.66,-1.731c-1.02,-0.371 -2.118,-0.555 -3.293,-0.555c-0.934,0 -1.954,0.239 -3.063,0.704c-1.109,0.464 -2.121,1.093 -3.035,1.871l0,11.738Z" style="fill:#ea8c1b;fill-rule:nonzero;"/><path d="M115.801,32.648l-4.324,0l0,-8.027l4.324,0l0,-0.617c0,-2.676 0.347,-5.145 1.047,-7.399c0.699,-2.25 1.722,-4.199 3.07,-5.835c1.352,-1.629 3.016,-2.911 4.996,-3.825c1.977,-0.91 4.25,-1.375 6.813,-1.375c0.457,0 0.992,0.035 1.609,0.106c0.621,0.066 1.09,0.172 1.41,0.308l1.305,8.614l-0.071,0.172c-0.367,-0.364 -0.914,-0.676 -1.648,-0.926c-0.73,-0.254 -1.543,-0.379 -2.437,-0.379c-1.211,0 -2.293,0.226 -3.243,0.672c-0.949,0.445 -1.754,1.074 -2.418,1.886c-0.664,0.813 -1.168,1.797 -1.511,2.95c-0.34,1.16 -0.512,2.433 -0.512,3.828l0,1.82l9.094,0c-0.071,0.25 -0.133,0.774 -0.188,1.563c-0.058,0.789 -0.086,1.937 -0.086,3.445l0,3.019l-8.82,0l0,23.887l-8.41,0l0,-23.887Z" style="fill:#2c3e50;fill-rule:nonzero;"/><path d="M139.543,13.629c0.805,-1.301 1.645,-2.508 2.527,-3.617c0.875,-1.106 1.657,-2.032 2.328,-2.774l6.227,4.926c-0.434,0.543 -0.836,1.051 -1.203,1.531c-0.371,0.481 -0.734,0.957 -1.094,1.438c-0.359,0.476 -0.719,0.969 -1.074,1.48c-0.363,0.512 -0.746,1.082 -1.16,1.711l-6.551,-4.695Zm1.043,8.836l8.148,0l0,30.418c0,1.113 0.012,1.926 0.036,2.445c0.019,0.524 0.054,0.926 0.093,1.207l-8.277,0l0,-34.07Z" style="fill:#2c3e50;fill-rule:nonzero;"/><path d="M158.289,22.469l7.988,0l0,2.902c1.5,-1.242 2.996,-2.144 4.5,-2.707c1.5,-0.566 3.063,-0.852 4.696,-0.852c1.781,0 3.394,0.317 4.839,0.95c1.446,0.629 2.676,1.527 3.704,2.687c1.015,1.164 1.808,2.555 2.363,4.176c0.555,1.617 0.828,3.414 0.828,5.395l0,12.957c0,1.363 0.012,2.503 0.035,3.425c0.02,0.926 0.047,1.657 0.067,2.2c0.015,0.546 0.05,0.968 0.097,1.273c0.086,0.566 0.219,0.957 0.403,1.172c0.191,0.215 0.347,0.414 0.476,0.586l-0.066,0.133c-0.305,-0.028 -0.664,-0.047 -1.074,-0.078c-0.415,-0.036 -0.864,-0.067 -1.356,-0.086c-0.488,-0.02 -1,-0.036 -1.535,-0.047c-0.531,-0.012 -1.059,-0.02 -1.578,-0.02c-0.371,0 -0.844,0.008 -1.418,0.02c-0.578,0.011 -1.254,0.035 -2.039,0.078l0,-17.766c0,-1.652 -0.133,-3.082 -0.407,-4.289c-0.273,-1.203 -0.664,-2.199 -1.175,-2.98c-0.508,-0.786 -1.117,-1.36 -1.825,-1.731c-0.707,-0.367 -1.48,-0.551 -2.332,-0.551c-1.367,0 -2.66,0.399 -3.878,1.204c-1.215,0.804 -2.325,1.992 -3.325,3.554l0,18.289c0,0.977 0.016,1.785 0.047,2.414c0.035,0.629 0.106,1.215 0.211,1.758l-8.246,0l0,-34.066Z" style="fill:#2c3e50;fill-rule:nonzero;"/><path d="M193.891,39.941c0,-2.566 0.457,-4.953 1.371,-7.156c0.914,-2.203 2.191,-4.121 3.828,-5.754c1.644,-1.629 3.609,-2.906 5.902,-3.828c2.293,-0.926 4.809,-1.387 7.547,-1.387c1.652,0 3.293,0.219 4.926,0.653l0,-12.555l7.988,0l0,32.898c0,1.477 0.035,2.692 0.113,3.649c0.075,0.957 0.211,1.758 0.411,2.394c0.191,0.645 0.461,1.172 0.796,1.586c0.336,0.414 0.77,0.805 1.286,1.172l-6.129,5.414c-1.176,-0.636 -2.09,-1.402 -2.739,-2.312c-1.5,0.82 -3.003,1.414 -4.515,1.773c-1.508,0.36 -2.852,0.539 -4.024,0.539c-2.59,0 -4.914,-0.437 -6.98,-1.304c-2.063,-0.871 -3.824,-2.067 -5.281,-3.586c-1.453,-1.52 -2.571,-3.328 -3.344,-5.418c-0.77,-2.082 -1.156,-4.344 -1.156,-6.778m7.89,-0.816c0,1.504 0.219,2.883 0.653,4.145c0.433,1.261 1.093,2.355 1.972,3.292c0.879,0.934 1.981,1.665 3.293,2.18c1.317,0.524 2.84,0.785 4.582,0.785c0.93,0 1.832,-0.078 2.688,-0.242c0.859,-0.164 1.695,-0.43 2.496,-0.801l0,-18.062c-1.567,-0.629 -3.324,-0.945 -5.281,-0.945c-1.567,0 -2.985,0.238 -4.258,0.714c-1.27,0.481 -2.36,1.145 -3.274,1.993c-0.914,0.847 -1.621,1.863 -2.121,3.043c-0.5,1.187 -0.75,2.488 -0.75,3.898" style="fill:#2c3e50;fill-rule:nonzero;"/><path d="M232.625,39.711c0,-2.492 0.434,-4.832 1.305,-7.004c0.867,-2.176 2.097,-4.07 3.683,-5.691c1.586,-1.618 3.504,-2.891 5.754,-3.817c2.25,-0.922 4.766,-1.383 7.547,-1.383c2.344,0 4.469,0.403 6.356,1.219c1.89,0.817 3.496,1.934 4.812,3.36c1.316,1.421 2.332,3.089 3.047,5.003c0.719,1.914 1.074,3.969 1.074,6.164c0,0.825 -0.031,1.551 -0.113,2.184c-0.07,0.629 -0.168,1.078 -0.274,1.34c-0.546,0.148 -1.257,0.281 -2.136,0.402c-0.879,0.121 -1.891,0.219 -3.035,0.297c-1.141,0.074 -2.391,0.133 -3.766,0.16c-1.367,0.032 -2.809,0.051 -4.336,0.051l-2.688,0c-1.035,0 -2.078,-0.008 -3.128,-0.019c-1.059,-0.008 -2.079,-0.012 -3.067,-0.012l-2.492,0c0.566,2.367 1.855,4.191 3.879,5.476c2.019,1.282 4.691,1.922 8.015,1.922c1.266,0 2.45,-0.109 3.555,-0.328c1.11,-0.215 2.113,-0.484 3,-0.812c0.895,-0.325 1.664,-0.672 2.317,-1.028c0.652,-0.359 1.14,-0.679 1.472,-0.965c-0.051,1.071 -0.101,2.243 -0.168,3.524c-0.062,1.285 -0.176,2.859 -0.328,4.73c-0.543,0.368 -1.242,0.707 -2.101,1.008c-0.856,0.309 -1.793,0.57 -2.805,0.801c-1.008,0.227 -2.051,0.406 -3.129,0.535c-1.074,0.137 -2.113,0.195 -3.113,0.195c-2.739,0 -5.278,-0.418 -7.614,-1.265c-2.336,-0.852 -4.359,-2.031 -6.066,-3.555c-1.703,-1.523 -3.039,-3.34 -4.008,-5.465c-0.969,-2.121 -1.449,-4.461 -1.449,-7.027m8.867,-4.594c0.524,0.043 1.153,0.078 1.891,0.098c0.738,0.023 1.504,0.031 2.281,0.031l4.008,0c0.5,0 1.094,-0.004 1.777,-0.016c0.692,-0.007 1.403,-0.019 2.137,-0.031c0.742,-0.011 1.465,-0.035 2.172,-0.066c0.707,-0.031 1.34,-0.071 1.906,-0.113c-0.394,-2.024 -1.199,-3.586 -2.43,-4.7c-1.226,-1.105 -3.004,-1.66 -5.332,-1.66c-1.019,0 -1.976,0.156 -2.871,0.473c-0.89,0.32 -1.691,0.754 -2.41,1.32c-0.711,0.57 -1.34,1.242 -1.875,2.035c-0.531,0.801 -0.949,1.672 -1.254,2.629" style="fill:#2c3e50;fill-rule:nonzero;"/><path d="M273.051,22.469l7.988,0l0,2.183c0.805,-0.761 1.719,-1.425 2.734,-1.988c1.028,-0.566 2.09,-0.852 3.204,-0.852c0.863,0 1.711,0.071 2.539,0.2c0.824,0.129 1.523,0.316 2.086,0.554l-0.586,8.77l-0.129,0.098c-0.367,-0.719 -0.992,-1.235 -1.86,-1.547c-0.871,-0.317 -1.8,-0.477 -2.804,-0.477c-0.911,0 -1.844,0.305 -2.789,0.914c-0.942,0.61 -1.743,1.438 -2.395,2.477l0,20.082c0,1.109 0.012,1.929 0.035,2.449c0.02,0.52 0.055,0.922 0.098,1.203l-8.121,0l0,-34.066Z" style="fill:#2c3e50;fill-rule:nonzero;"/><path d="M303.531,14.469l7.149,0l0,37.695c0,0.973 0.011,1.684 0.027,2.145c0.023,0.457 0.051,0.808 0.09,1.058l-7.266,0l0,-40.898Z" style="fill:#2c3e50;fill-rule:nonzero;"/><path d="M318.547,37.348l0,-4.364c0,-1.191 -0.012,-2.191 -0.031,-3c-0.016,-0.816 -0.036,-1.453 -0.055,-1.929c-0.02,-0.477 -0.051,-0.848 -0.09,-1.117c-0.055,-0.36 -0.125,-0.676 -0.195,-0.942c-0.078,-0.269 -0.16,-0.476 -0.231,-0.629c0.496,0.055 1.141,0.086 1.946,0.098c0.797,0.008 1.679,0.015 2.632,0.015c0.325,0 0.739,-0.007 1.243,-0.015c0.504,-0.012 1.097,-0.031 1.789,-0.07l0,16.558c0,1.465 0.129,2.656 0.398,3.574c0.266,0.918 0.641,1.641 1.117,2.172c0.477,0.535 1.035,0.899 1.684,1.086c0.648,0.195 1.351,0.289 2.117,0.289c0.973,0 1.883,-0.242 2.731,-0.73c0.851,-0.485 1.652,-1.196 2.418,-2.129l0,-20.735l7.007,0l0,26.227c0,0.859 0.012,1.563 0.039,2.113c0.036,0.555 0.094,1.067 0.188,1.543l-7.234,0l0,-2.312c-0.614,0.496 -1.196,0.922 -1.758,1.269c-0.567,0.356 -1.125,0.641 -1.688,0.86c-0.562,0.218 -1.148,0.375 -1.762,0.472c-0.609,0.098 -1.265,0.141 -1.972,0.141c-1.563,0 -2.977,-0.27 -4.246,-0.813c-1.27,-0.542 -2.348,-1.308 -3.246,-2.304c-0.895,-0.988 -1.586,-2.192 -2.075,-3.602c-0.488,-1.41 -0.726,-2.984 -0.726,-4.722l0,-7.004Z" style="fill:#2c3e50;fill-rule:nonzero;"/></g></svg>