<svg xmlns="http://www.w3.org/2000/svg" xml:space="preserve" width="86.196" height="81.244" viewBox="0 0 86.196 81.244"><defs><clipPath clipPathUnits="userSpaceOnUse" id="a"><path d="M196.465 93.863h67.818v60.933h-67.818z"/></clipPath></defs><g clip-path="url(#a)" transform="matrix(1.33333 0 0 -1.33333 -266.18 206.395)"><path d="M0 0c-2.76.006-5.556.016-8.382.025-4.954.017-9.999.034-15.098.034L-47.066 0v2.86l24.136 11.28L.011 22.476c.015-3.085.004-6.688-.008-10.48C-.01 7.862-.024 3.594 0 0" style="fill:#0a8137;fill-opacity:1;fill-rule:nonzero;stroke:none" transform="translate(255.476 110.734)"/><path d="M0 0c-.015 3.085-.004 6.689.008 10.48.014 4.135.027 8.402.003 11.996 2.76-.006 5.557-.016 8.383-.025 4.954-.017 9.999-.034 15.098-.034l23.586.059v-2.86z" style="fill:#fee60e;fill-opacity:1;fill-rule:nonzero;stroke:none" transform="translate(208.417 131.285)"/><path d="M0 0c-.012-3.867-.025-7.849-.007-11.29-2.524.006-5.078.015-7.657.023-4.92.017-10.007.035-15.115.035l-22.876-.057v1.856c3.37 1.544 6.792 3.09 10.174 4.635C-31.186-2.887-26.858-.93-22.458.885-15.209 3.877-7.611 6.564.015 9.213.018 6.449.009 2.839 0 0m9.369 14.283c-.228 1.109-.997 1.769-2.447 1.756-.199-.025-.512-.034-.73-.099-.294-.086-.598-.189-.868-.276-.248-.08-.533-.177-.829-.276-.761-.256-1.536-.489-2.328-.809-5.249-1.693-10.646-3.636-15.864-5.525a264.6 264.6 0 0 1-7.755-2.92 221.693 221.693 0 0 1-7.577-3.197c-1.661-.733-3.325-1.449-4.972-2.19-2.162-.972-4.315-1.962-6.472-2.94-3.697-1.675-7.474-3.386-11.089-5.09-.728-.344-1.654-.717-2.368-1.086-.733-.378-1.33-1.156-1.184-2.249a2.82 2.82 0 0 1 .769-1.559c.4-.42 1.021-.664 1.737-.454.247.072.506.255.769.375 1.09.496 2.099 1.004 3.177 1.46.152.064.94.421 1.593.718v-2.629l24.293.06c8.259 0 16.375-.044 24.193-.061-.055 6.595.031 15.66.008 22.404l.012.004c1.032.311 2.08.734 3.157 1.071.523.163 1.077.299 1.598.493 1.462.545 3.615.89 3.177 3.019M-45.632 30.32c2.524-.006 45.648 0 45.648 0v-.386l-.088-.029c-2.935-.994-5.868-2.046-8.811-3.073-5.066-1.768-10.149-3.643-15.035-5.682-7.391-3.085-14.601-6.336-21.736-9.618-.001 2.336.04 15.346.022 18.788m54.251 1.307c-.628.481-1.635.54-2.427.296-1.632-.503-3.212-1.041-4.735-1.519l-.027-.008v1.342l-24.293-.061c-8.258 0-16.375.045-24.192.061.05-6.103-.02-14.32-.013-20.857l-.881-.425c-1.74-.752-3.494-1.707-5.35-2.527-.238-.105-.462-.177-.671-.295-.567-.324-1.109-.985-1.105-1.855.004-.578.242-1.089.494-1.48.236-.367.55-.79 1.066-.908.644-.148 1.129.102 1.538.296 2.683 1.273 5.389 2.509 8.051 3.749a701.24 701.24 0 0 0 17.344 7.794c5.925 2.57 11.849 4.808 18.094 7.044 3.092 1.108 6.215 2.228 9.313 3.217 2.112.673 4.341 1.412 6.473 2.15.205.072.422.1.611.178.719.295 1.391.787 1.559 1.598.192.93-.286 1.78-.849 2.21M-39.967 2.739A463.257 463.257 0 0 1-51.595-2.83l-.916 1.825a464.742 464.742 0 0 0 11.689 5.601zm15.342 6.714a403.796 403.796 0 0 1-11.841-5.117l-.837 1.866a403.931 403.931 0 0 0 11.904 5.146zm15.63 6.045a355.076 355.076 0 0 1-12.063-4.593l-.756 1.903a355.478 355.478 0 0 0 12.129 4.616zm15.917 5.271a314.65 314.65 0 0 1-12.284-3.987l-.671 1.931a316.847 316.847 0 0 0 12.351 4.004z" style="fill:#231f20;fill-opacity:1;fill-rule:nonzero;stroke:none" transform="translate(254.772 122.733)"/><path d="m0 0-.431 1.524h-2.548L-3.41 0h-1.92l2.525 8.03h2.258L1.978 0Zm-1.699 6.133-.873-3.107h1.745zM6.029 8.03c.745 0 1.396-.116 1.885-.431.524-.337.885-.873.885-1.862 0-1.105-.442-1.943-1.513-2.223C8.298 3.328 8.601 2.339 8.845 0H6.867c-.291 2.164-.454 2.723-1.176 2.723H4.633V0H2.747v8.03ZM4.633 4.306h.849c.896 0 1.362.197 1.362 1.21 0 .385-.07.605-.221.745-.14.128-.35.163-.699.163H4.633Zm8.566 3.724c.733 0 1.431-.128 1.944-.524.523-.407.873-1.059.873-2.234 0-1.129-.315-1.85-.861-2.281-.489-.384-1.141-.536-2.002-.536h-1.141V0h-1.885v8.03Zm-1.187-3.957h1.094c.373 0 .594.07.734.209.174.164.22.478.22.955 0 .594-.093.861-.255 1.001-.164.139-.385.174-.745.174h-1.048zm4.331.78h3.387V3.177h-3.387ZM30.717 8.03l2.56-5.481-.058 5.481h1.804V0h-2.386l-2.56 5.481L30.135 0h-1.804v8.03zm10.72 0V6.459H38.47V4.853h2.699V3.282H38.47V1.559h3.025V0h-4.864v8.03ZM44.778 0h-1.886v8.03h1.886zm4.667 8.03c.733 0 1.432-.128 1.944-.524.523-.407.873-1.059.873-2.234 0-1.129-.315-1.85-.861-2.281-.489-.384-1.141-.536-2.002-.536h-1.141V0h-1.885v8.03Zm-1.187-3.957h1.094c.373 0 .594.07.733.209.175.164.221.478.221.955 0 .594-.093.861-.255 1.001-.164.139-.384.174-.745.174h-1.048ZM-7.535 0h2.226l-3.169 4.448 2.962 3.582h-2.247l-2.48-3.241V8.03h-1.886V0h1.886v2.313l.575.695zM25.29 0h2.226l-3.169 4.448 2.961 3.582h-2.246l-2.48-3.241V8.03h-1.886V0h1.886v2.313l.574.695zM6.029 8.03c.745 0 1.396-.116 1.885-.431.524-.337.885-.873.885-1.862 0-1.105-.442-1.943-1.513-2.223C8.298 3.328 8.601 2.339 8.845 0H6.867c-.291 2.164-.454 2.723-1.176 2.723H4.633V0H2.747v8.03ZM4.633 4.306h.849c.896 0 1.362.197 1.362 1.21 0 .385-.07.605-.221.745-.14.128-.35.163-.699.163H4.633Z" style="fill:#231f20;fill-opacity:1;fill-rule:nonzero;stroke:none" transform="translate(211.85 93.863)"/></g></svg>