<svg viewBox="0 0 356 99" xmlns="http://www.w3.org/2000/svg" xml:space="preserve" style="fill-rule:evenodd;clip-rule:evenodd;stroke-linejoin:round;stroke-miterlimit:1.41421"><path d="M160.473.653v29.011l17.508 11.752 17.505-11.752V.653h-35.013Zm17.508 3.844h14.038v23.262l-14.038 9.427V4.497Z" style="fill:#1c5a7d;fill-rule:nonzero"/><path d="M183.568 14.589c0 .094.03.164.093.212a.355.355 0 0 0 .22.071v.283h-2.449v-.283c.229 0 .345-.096.345-.283V7.458c0-.187-.116-.283-.345-.283v-.283h2.449v.283a.357.357 0 0 0-.22.073c-.063.046-.093.116-.093.21v2.985l3.25-2.561c.146-.126.263-.227.346-.306.083-.078.126-.144.126-.196 0-.074-.022-.124-.071-.157a.296.296 0 0 0-.164-.048v-.283h3.299v.283c-.19 0-.379.081-.566.237l-3.614 2.874 3.298 3.816c.137.156.296.31.48.465.184.151.364.252.543.305v.283h-2.907v-.283c.137 0 .205-.038.205-.111 0-.051-.074-.167-.22-.343l-2.687-3.097-1.318 1.023v2.245ZM6.083 74.454c0 .268.088.467.268.604.179.133.388.199.626.199v.806H0v-.806c.656 0 .984-.267.984-.803V54.148c0-.538-.328-.805-.984-.805v-.806h6.977v.806c-.238 0-.447.068-.626.202-.18.134-.268.336-.268.603v8.498l9.257-7.291a32.2 32.2 0 0 0 .985-.871c.238-.224.357-.409.357-.56 0-.207-.066-.357-.2-.445a.817.817 0 0 0-.47-.136v-.806h9.392v.806c-.538 0-1.073.224-1.612.669l-10.285 8.187 9.392 10.869c.386.447.843.886 1.363 1.318.523.434 1.036.722 1.543.871v.806h-8.272v-.806c.386 0 .58-.103.58-.31 0-.149-.207-.48-.626-.985L9.84 65.151l-3.757 2.907v6.396ZM49.914 52.537c1.429 0 2.727.126 3.889.381 1.164.256 2.164.657 2.997 1.207a5.59 5.59 0 0 1 1.925 2.147c.446.879.671 1.96.671 3.243 0 1.967-.583 3.474-1.745 4.517-1.164 1.046-2.727 1.745-4.697 2.101l5.95 8.5c.207.296.454.475.737.536.283.06.543.088.783.088v.806H52.06v-.806c.268 0 .498-.043.695-.134.192-.088.29-.207.29-.358 0-.149-.063-.318-.179-.513a14.001 14.001 0 0 0-.538-.783l-4.919-6.974h-6.397v7.959c0 .268.099.467.293.604.192.133.543.199 1.05.199v.806h-7.737v-.806c.864 0 1.296-.267 1.296-.803V54.148c0-.538-.432-.805-1.296-.805v-.806h15.296Zm-1.165 10.467c1.074 0 1.968-.08 2.685-.247.715-.161 1.283-.394 1.7-.692.416-.3.714-.649.893-1.05.18-.404.268-.844.268-1.319 0-.479-.088-.919-.268-1.32-.179-.402-.477-.756-.893-1.051-.417-.298-.985-.53-1.7-.694-.717-.164-1.611-.248-2.685-.248h-7.737v6.621h7.737ZM85.2 52.27c1.639 0 3.308.245 5.01.737a15.574 15.574 0 0 1 4.649 2.215 11.99 11.99 0 0 1 3.445 3.735c.894 1.505 1.341 3.288 1.341 5.343 0 2.058-.447 3.839-1.341 5.346a11.987 11.987 0 0 1-3.445 3.734 14.408 14.408 0 0 1-4.649 2.148 19.664 19.664 0 0 1-5.01.669 19.63 19.63 0 0 1-5.01-.669 14.432 14.432 0 0 1-4.652-2.147 12.005 12.005 0 0 1-3.442-3.735c-.896-1.507-1.343-3.288-1.343-5.346 0-2.055.447-3.838 1.343-5.343a12.005 12.005 0 0 1 3.442-3.735 15.58 15.58 0 0 1 4.652-2.215c1.699-.492 3.368-.737 5.01-.737m0 4.114c-1.134 0-2.268.179-3.399.538a10.343 10.343 0 0 0-3.063 1.543 7.983 7.983 0 0 0-2.215 2.482c-.566.985-.851 2.103-.851 3.353 0 1.253.285 2.372.851 3.357a8.028 8.028 0 0 0 2.215 2.482 10.488 10.488 0 0 0 3.063 1.543c1.131.356 2.265.535 3.399.535s2.265-.179 3.399-.535a10.488 10.488 0 0 0 3.063-1.543 8.078 8.078 0 0 0 2.215-2.482c.566-.985.848-2.104.848-3.357 0-1.25-.282-2.368-.848-3.353a8.033 8.033 0 0 0-2.215-2.482 10.343 10.343 0 0 0-3.063-1.543 11.198 11.198 0 0 0-3.399-.538M111.139 75.257c.566 0 .851-.268.851-.803V54.148c0-.537-.285-.805-.851-.805v-.806h7.649v.806c-.24 0-.358.151-.358.449 0 .237.298.654.894 1.25l12.836 13.329V54.148c0-.537-.387-.805-1.165-.805v-.806h6.756v.806c-.566 0-.851.268-.851.805v20.306c0 .535.285.803.851.803v.806h-7.245v-.806c.386 0 .58-.131.58-.399 0-.212-.237-.553-.714-1.03L116.73 59.606v14.848c0 .535.344.803 1.028.803v.806h-6.619v-.806ZM151.928 68.683l.447.225c0 .267.058.507.179.717.207.356.617.707 1.23 1.05.611.341 1.311.647 2.102.917.79.268 1.618.482 2.481.649.864.162 1.642.245 2.327.245.507 0 1.164-.038 1.966-.114.806-.073 1.597-.23 2.372-.467.775-.24 1.447-.568 2.013-.985.565-.419.848-.969.848-1.656 0-.685-.26-1.192-.78-1.518-.523-.328-1.21-.568-2.059-.717a22.476 22.476 0 0 0-2.906-.291 92.14 92.14 0 0 1-3.333-.201 29.831 29.831 0 0 1-3.331-.448c-1.089-.207-2.058-.558-2.91-1.05a5.775 5.775 0 0 1-2.055-2.013c-.523-.851-.783-1.959-.783-3.331 0-.924.217-1.836.649-2.729.432-.897 1.096-1.685 1.99-2.372.894-.684 2.026-1.242 3.399-1.677 1.371-.431 2.98-.649 4.831-.649 1.578 0 2.949.119 4.114.359 1.164.24 2.169.49 3.018.763.851.268 1.565.52 2.146.757.583.238 1.068.359 1.455.359.419 0 .714-.091.896-.268l.535.356-3.086 5.594-.446-.182c-.061-.417-.18-.76-.359-1.028-.24-.356-.634-.707-1.184-1.05a10.354 10.354 0 0 0-1.945-.917 15.977 15.977 0 0 0-2.417-.649 14.137 14.137 0 0 0-2.593-.245c-.657 0-1.336.05-2.036.157a9.56 9.56 0 0 0-1.901.469c-.566.208-1.036.485-1.409.826a1.668 1.668 0 0 0-.558 1.275c0 .715.26 1.253.782 1.611.521.356 1.207.627 2.059.806.848.177 1.818.296 2.906.356 1.089.058 2.197.134 3.331.225 1.134.088 2.245.245 3.333.469 1.086.223 2.056.581 2.907 1.074a5.831 5.831 0 0 1 2.056 1.99c.522.835.782 1.921.782 3.265 0 1.548-.409 2.815-1.23 3.8a8.622 8.622 0 0 1-3.06 2.324 13.734 13.734 0 0 1-3.96 1.141 29.11 29.11 0 0 1-3.957.293c-1.702 0-3.126-.098-4.273-.293-1.146-.192-2.101-.429-2.86-.712a19.472 19.472 0 0 1-1.814-.762c-.447-.223-.833-.336-1.161-.336-.21 0-.404.118-.581.358l-.626-.358 2.459-5.412ZM205.239 54.148c0-.538-.329-.805-.985-.805v-.806h6.888v.806a.867.867 0 0 0-.56.201c-.164.135-.245.336-.245.604v20.306c0 .268.081.467.245.604a.865.865 0 0 0 .56.199v.806h-6.888v-.806c.656 0 .985-.268.985-.803v-8.409h-14.402v8.409c0 .268.081.467.245.604a.865.865 0 0 0 .56.199v.806h-6.755v-.806c.568 0 .852-.268.852-.803V54.148c0-.538-.284-.805-.852-.805v-.806h6.755v.806a.867.867 0 0 0-.56.201c-.164.135-.245.336-.245.604v7.604h14.402v-7.604ZM220.847 75.257a1.31 1.31 0 0 0 .917-.581 9.48 9.48 0 0 0 .648-1.116l8.274-17.399c.209-.389.396-.745.557-1.076.165-.326.249-.606.249-.849 0-.295-.104-.504-.314-.625a2.735 2.735 0 0 0-.672-.268v-.806h7.561v.806c-.209.06-.419.143-.626.245-.21.106-.314.323-.314.648 0 .243.051.48.157.718.104.237.26.551.467.937l9.303 18.204c.149.329.352.566.606.715.253.149.543.298.872.447v.806h-7.872v-.806c.119 0 .268-.043.448-.131.178-.091.267-.225.267-.404 0-.298-.119-.687-.356-1.162l-1.702-3.31h-10.911l-1.612 3.174c-.298.628-.447 1.073-.447 1.341 0 .33.283.492.852.492v.806h-6.352v-.806Zm16.861-8.318-3.757-8.316-4.205 8.316h7.962ZM279.48 59.784l-.895-.27a1.7 1.7 0 0 0 .092-.535c0-.45-.278-.849-.831-1.208-.551-.358-1.25-.664-2.101-.916a16.398 16.398 0 0 0-2.773-.561c-1-.118-1.944-.179-2.841-.179-1.1 0-2.197.159-3.285.472a8.562 8.562 0 0 0-2.906 1.452c-.851.657-1.536 1.508-2.058 2.551-.522 1.043-.784 2.308-.784 3.8 0 1.46.262 2.723.784 3.778.522 1.061 1.207 1.917 2.058 2.571a8.52 8.52 0 0 0 2.906 1.454c1.089.316 2.185.472 3.286.472 1.702 0 3.23-.141 4.586-.423 1.356-.286 2.51-.592 3.466-.92v-3.846h-5.725c-.418 0-.731.091-.938.268-.209.179-.344.565-.404 1.164h-.803v-5.725h.803c.06.508.195.826.404.962.207.134.52.2.938.2h11.18v.805c-.596.089-.968.195-1.118.314-.149.118-.223.373-.223.759v5.054c0 .298.089.492.269.583.178.089.385.195.625.313v.715a16.268 16.268 0 0 1-3.108 1.699c-1.089.447-2.19.796-3.31 1.051a19.606 19.606 0 0 1-3.354.47c-1.12.06-2.214.091-3.288.091-2.087 0-3.986-.263-5.702-.786-1.716-.52-3.182-1.296-4.404-2.323a10.552 10.552 0 0 1-2.839-3.758c-.671-1.477-1.007-3.152-1.007-5.03 0-1.879.336-3.558 1.007-5.033a10.737 10.737 0 0 1 2.839-3.78c1.222-1.043 2.688-1.841 4.404-2.392 1.716-.553 3.615-.828 5.702-.828 1.313 0 2.565.091 3.757.267 1.192.183 2.25.382 3.178.607.923.222 1.69.432 2.303.623.611.195.99.293 1.137.293.272 0 .478-.06.63-.179.149-.118.296-.225.447-.313l.536.313-2.639 5.904ZM316.915 57.368c0-.328-.129-.573-.382-.737-.253-.162-.694-.248-1.318-.248h-14.49v5.548h8.765c.596 0 1.058-.081 1.387-.245.328-.167.489-.591.489-1.277h.806v6.977h-.806c0-.685-.161-1.124-.489-1.318-.329-.192-.791-.291-1.387-.291h-8.765v6.172h14.937c.447 0 .811-.103 1.096-.313.283-.21.425-.493.425-.849h.804v6.126h-.804c0-.446-.142-.701-.425-.762a5.642 5.642 0 0 0-1.096-.088h-20.841v-.806a.86.86 0 0 0 .558-.2c.164-.136.245-.335.245-.603V54.148c0-.267-.081-.469-.245-.603a.861.861 0 0 0-.558-.202v-.806h20.394c.624 0 1.065-.093 1.318-.288a.938.938 0 0 0 .382-.785h.803v5.904h-.803ZM329.347 75.257c.565 0 .851-.268.851-.803V54.148c0-.537-.286-.805-.851-.805v-.806h7.648v.806c-.239 0-.358.151-.358.449 0 .237.298.654.894 1.25l12.836 13.329V54.148c0-.537-.386-.805-1.162-.805v-.806h6.753v.806c-.566 0-.851.268-.851.805v20.306c0 .535.285.803.851.803v.806h-7.245v-.806c.386 0 .58-.131.58-.399 0-.212-.237-.553-.714-1.03l-13.641-14.222v14.848c0 .535.343.803 1.027.803v.806h-6.618v-.806ZM82.186 98.016a.577.577 0 0 0 .371-.22c.096-.118.169-.229.22-.333l2.838-6.192.182-.429a.853.853 0 0 0 .066-.316c0-.075-.015-.124-.046-.141-.033-.02-.068-.041-.106-.068v-.342h2.876v.342a.373.373 0 0 1-.121.057c-.045.013-.068.064-.068.152 0 .076.028.169.086.278.058.106.119.233.181.371l3.086 6.48a.719.719 0 0 0 .21.248c.076.05.159.088.247.113v.344h-2.704v-.288a.422.422 0 0 0 .2-.056c.07-.038.106-.108.106-.209a.637.637 0 0 0-.038-.21c-.028-.063-.058-.146-.096-.248l-.515-1.085h-4.079l-.533 1.027a3.581 3.581 0 0 0-.126.278.653.653 0 0 0-.045.22c0 .101.03.164.096.189.06.025.149.038.265.038v.344h-2.553v-.344Zm6.364-3.162-1.543-3.202-1.354 3.202h2.897ZM104.54 90.317c-.177 0-.336.146-.475.437l-2.783 6.157a6.09 6.09 0 0 1-.315.666c-.069.114-.104.202-.104.268 0 .076.114.134.344.172v.343h-2.879v-.343c.063-.028.123-.056.181-.086a.16.16 0 0 0 .086-.144c0-.063-.043-.164-.126-.306a7.601 7.601 0 0 1-.293-.57l-2.896-6.233a.727.727 0 0 0-.202-.268.398.398 0 0 0-.238-.093v-.343h2.687v.343c-.152 0-.23.083-.23.248 0 .088.035.211.106.371.069.159.149.333.238.525l2.191 4.745 2.079-4.614c.139-.303.248-.532.323-.684.076-.154.109-.273.096-.363-.013-.152-.108-.228-.288-.228v-.343h2.498v.343ZM112.717 89.859c.699 0 1.356.088 1.972.268a4.708 4.708 0 0 1 1.611.8c.458.356.818.803 1.086 1.344.268.54.399 1.171.399 1.896 0 .725-.131 1.356-.399 1.897-.268.54-.628.987-1.086 1.343a4.373 4.373 0 0 1-1.611.77 7.819 7.819 0 0 1-1.972.238c-.7 0-1.356-.078-1.972-.238a4.358 4.358 0 0 1-1.611-.77 3.79 3.79 0 0 1-1.086-1.343c-.268-.541-.402-1.172-.402-1.897 0-.725.134-1.356.402-1.896a3.786 3.786 0 0 1 1.086-1.344 4.69 4.69 0 0 1 1.611-.8 6.993 6.993 0 0 1 1.972-.268m0 1.412c-.407 0-.803.065-1.192.199a3.318 3.318 0 0 0-1.038.571c-.306.247-.55.55-.735.904a2.628 2.628 0 0 0-.275 1.222c0 .457.091.864.275 1.217.185.359.429.66.735.907.303.247.651.437 1.038.57a3.606 3.606 0 0 0 2.381 0 3.366 3.366 0 0 0 1.04-.57 2.8 2.8 0 0 0 .733-.907 2.6 2.6 0 0 0 .278-1.217c0-.459-.094-.864-.278-1.222a2.841 2.841 0 0 0-.733-.904 3.328 3.328 0 0 0-1.04-.571 3.602 3.602 0 0 0-1.189-.199M128.628 92.375a.252.252 0 0 0-.01-.076.473.473 0 0 1-.008-.093c0-.066-.065-.152-.191-.26a2.219 2.219 0 0 0-.543-.313 4.468 4.468 0 0 0-.829-.258 5.023 5.023 0 0 0-1.048-.104c-.457 0-.873.059-1.25.18a2.842 2.842 0 0 0-.982.543c-.278.242-.493.54-.647.896a3.1 3.1 0 0 0-.227 1.22c0 .457.084.866.255 1.23.172.361.399.671.677.934.28.26.598.455.954.588.354.134.718.202 1.086.202a4.37 4.37 0 0 0 1.048-.133c.357-.089.68-.195.973-.316.29-.119.53-.25.714-.389.185-.142.276-.268.276-.381v-.154a.704.704 0 0 0-.02-.191l.209-.188 1.412 2.02-.19.094a1.008 1.008 0 0 0-.326-.094c-.101 0-.265.056-.495.169-.23.117-.517.245-.866.392-.351.146-.755.27-1.22.371a7.127 7.127 0 0 1-1.552.152 6.177 6.177 0 0 1-1.735-.248 4.209 4.209 0 0 1-1.526-.791 4.226 4.226 0 0 1-1.085-1.351c-.278-.543-.42-1.166-.42-1.878s.142-1.334.42-1.866c.28-.536.648-.983 1.105-1.344.458-.363.98-.634 1.574-.811a6.207 6.207 0 0 1 1.818-.267c.482 0 .924.045 1.326.134.399.088.752.189 1.058.303.303.116.558.217.76.305.205.091.351.134.44.134a.244.244 0 0 0 .161-.055.618.618 0 0 1 .144-.097l.227.134-1.258 1.808-.209-.151ZM133.242 98.016a.577.577 0 0 0 .371-.22c.096-.118.17-.229.22-.333l2.838-6.192.182-.429a.853.853 0 0 0 .066-.316c0-.075-.015-.124-.046-.141-.032-.02-.068-.041-.106-.068v-.342h2.876v.342a.373.373 0 0 1-.121.057c-.045.013-.068.064-.068.152 0 .076.028.169.086.278.058.106.119.233.182.371l3.086 6.48a.717.717 0 0 0 .209.248c.076.05.16.088.248.113v.344h-2.705v-.288a.422.422 0 0 0 .2-.056c.07-.038.106-.108.106-.209a.637.637 0 0 0-.038-.21c-.028-.063-.058-.146-.096-.248l-.515-1.085h-4.079l-.532 1.027a3.276 3.276 0 0 0-.127.278.653.653 0 0 0-.045.22c0 .101.03.164.096.189a.725.725 0 0 0 .265.038v.344h-2.553v-.344Zm6.364-3.162-1.543-3.202-1.354 3.202h2.897ZM149.021 98.016a.334.334 0 0 0 .189-.065c.066-.046.097-.119.097-.22v-6.346h-2.478a.57.57 0 0 0-.285.075c-.088.051-.134.134-.134.248h-.344v-2.192h.344c0 .179.046.298.134.361a.467.467 0 0 0 .285.098h6.786c.1 0 .197-.032.285-.098.088-.063.134-.182.134-.361h.343v2.192h-.343c0-.114-.046-.197-.134-.248a.573.573 0 0 0-.285-.075h-2.478v6.346c0 .192.114.285.343.285v.344h-2.459v-.344ZM159.006 95.444c0 .05-.002.104-.01.162-.005.058-.01.118-.01.179 0 .192.121.366.364.525.239.159.53.293.868.402.333.106.672.194 1.008.257.338.063.601.094.79.094.179 0 .399-.013.659-.038.261-.025.518-.079.773-.162.253-.083.467-.197.646-.343a.708.708 0 0 0 .266-.581c0-.278-.154-.482-.465-.609-.313-.129-.702-.227-1.172-.298a93.076 93.076 0 0 0-1.525-.209 7.706 7.706 0 0 1-1.525-.341 3.104 3.104 0 0 1-1.172-.687c-.31-.298-.467-.72-.467-1.268 0-.813.336-1.462 1.01-1.944.672-.483 1.621-.722 2.838-.722.599 0 1.109.045 1.536.141.426.096.785.199 1.076.316.293.113.53.219.717.313.182.096.318.144.409.144a.449.449 0 0 0 .227-.048c.053-.033.117-.069.192-.106l.21.209-.955 1.793-.341-.114a6.473 6.473 0 0 0-.04-.229c-.011-.076-.069-.152-.172-.228-.253-.217-.647-.401-1.179-.552a6.436 6.436 0 0 0-1.793-.23c-.253 0-.495.017-.722.048a2.29 2.29 0 0 0-.611.161 1.094 1.094 0 0 0-.42.296.676.676 0 0 0-.151.449c0 .278.154.48.464.599a5.45 5.45 0 0 0 1.175.285c.469.071.977.142 1.523.21.545.07 1.055.189 1.525.353.469.167.861.407 1.174.725.311.316.465.755.465 1.313 0 .561-.137 1.018-.41 1.374a2.908 2.908 0 0 1-1.02.838 4.19 4.19 0 0 1-1.343.399c-.49.066-.95.096-1.382.096a6.72 6.72 0 0 1-1.287-.123 11.468 11.468 0 0 1-2.046-.592c-.242-.095-.389-.141-.439-.141a.29.29 0 0 0-.23.113l-.265-.191.876-2.134.361.096ZM175.016 98.016a.577.577 0 0 0 .371-.22c.096-.118.17-.229.22-.333l2.838-6.192.182-.429a.853.853 0 0 0 .066-.316c0-.075-.015-.124-.046-.141-.032-.02-.068-.041-.106-.068v-.342h2.876v.342a.373.373 0 0 1-.121.057c-.045.013-.068.064-.068.152 0 .076.028.169.086.278.058.106.119.233.181.371l3.086 6.48a.73.73 0 0 0 .21.248c.076.05.159.088.247.113v.344h-2.704v-.288a.422.422 0 0 0 .2-.056c.07-.038.106-.108.106-.209a.637.637 0 0 0-.038-.21c-.028-.063-.058-.146-.096-.248l-.515-1.085h-4.079l-.532 1.027a3.276 3.276 0 0 0-.127.278.653.653 0 0 0-.045.22c0 .101.03.164.096.189.06.025.151.038.265.038v.344h-2.553v-.344Zm6.364-3.162-1.543-3.202-1.354 3.202h2.897ZM196.875 89.974v.344c-.293 0-.437.093-.437.285v6.346h5.144c.153 0 .28-.036.381-.106a.337.337 0 0 0 .154-.296h.341v2.003h-.341c0-.101-.053-.159-.154-.172a3.268 3.268 0 0 0-.381-.02h-7.47v-.343c.33 0 .494-.094.494-.283v-7.129c0-.192-.164-.285-.494-.285v-.344h2.763ZM205.451 98.016a.577.577 0 0 0 .371-.22c.097-.118.17-.229.22-.333l2.839-6.192c.075-.179.135-.323.181-.429a.853.853 0 0 0 .066-.316c0-.075-.015-.124-.045-.141-.033-.02-.069-.041-.107-.068v-.342h2.876v.342a.373.373 0 0 1-.121.057c-.045.013-.067.064-.067.152 0 .076.027.169.085.278.058.106.119.233.182.371l3.086 6.48a.717.717 0 0 0 .209.248c.077.05.16.088.248.113v.344h-2.705v-.288a.42.42 0 0 0 .2-.056c.071-.038.106-.108.106-.209a.637.637 0 0 0-.038-.21 6.091 6.091 0 0 1-.096-.248l-.515-1.085h-4.079l-.532 1.027a3.625 3.625 0 0 0-.127.278.653.653 0 0 0-.045.22c0 .101.031.164.096.189.061.025.15.038.266.038v.344h-2.554v-.344Zm6.364-3.162-1.543-3.202-1.353 3.202h2.896ZM230.511 92.375a.289.289 0 0 0-.01-.076.388.388 0 0 1-.011-.093c0-.066-.062-.152-.189-.26a2.18 2.18 0 0 0-.543-.313 4.432 4.432 0 0 0-.828-.258 5.032 5.032 0 0 0-1.051-.104c-.454 0-.871.059-1.247.18a2.832 2.832 0 0 0-.982.543c-.278.242-.493.54-.647.896a3.1 3.1 0 0 0-.227 1.22c0 .457.084.866.256 1.23.17.361.398.671.676.934.281.26.598.455.954.588a3.05 3.05 0 0 0 1.086.202c.341 0 .693-.045 1.048-.133.357-.089.68-.195.973-.316.29-.119.53-.25.715-.389.183-.142.274-.268.274-.381v-.154a.75.75 0 0 0-.019-.191l.209-.188 1.412 2.02-.19.094a1.008 1.008 0 0 0-.326-.094c-.101 0-.265.056-.495.169-.23.117-.518.245-.865.392a7.158 7.158 0 0 1-2.774.523 6.17 6.17 0 0 1-1.734-.248 4.209 4.209 0 0 1-1.526-.791 4.226 4.226 0 0 1-1.085-1.351c-.279-.543-.419-1.166-.419-1.878s.14-1.334.419-1.866c.28-.536.648-.983 1.106-1.344a4.619 4.619 0 0 1 1.573-.811 6.212 6.212 0 0 1 1.818-.267c.482 0 .924.045 1.323.134.402.088.756.189 1.06.303.304.116.559.217.761.305.204.091.351.134.44.134a.246.246 0 0 0 .161-.055.618.618 0 0 1 .144-.097l.227.134-1.257 1.808-.21-.151ZM240.65 89.859c.699 0 1.355.088 1.972.268a4.708 4.708 0 0 1 1.611.8 3.83 3.83 0 0 1 1.086 1.344c.268.54.399 1.171.399 1.896 0 .725-.131 1.356-.399 1.897-.268.54-.629.987-1.086 1.343a4.373 4.373 0 0 1-1.611.77 7.824 7.824 0 0 1-1.972.238 7.832 7.832 0 0 1-1.973-.238 4.358 4.358 0 0 1-1.611-.77 3.8 3.8 0 0 1-1.085-1.343c-.268-.541-.402-1.172-.402-1.897 0-.725.134-1.356.402-1.896a3.794 3.794 0 0 1 1.085-1.344 4.69 4.69 0 0 1 1.611-.8 7.01 7.01 0 0 1 1.973-.268m0 1.412c-.407 0-.803.065-1.192.199a3.33 3.33 0 0 0-1.038.571c-.305.247-.55.55-.735.904a2.665 2.665 0 0 0-.275 1.222c0 .457.094.864.275 1.217.185.359.43.66.735.907.303.247.652.437 1.038.57.389.134.785.203 1.192.203a3.626 3.626 0 0 0 2.229-.773c.306-.247.548-.548.733-.907a2.6 2.6 0 0 0 .278-1.217c0-.459-.094-.864-.278-1.222a2.828 2.828 0 0 0-.733-.904 3.34 3.34 0 0 0-1.038-.571 3.622 3.622 0 0 0-1.191-.199M252.522 90.317c-.28 0-.419.093-.419.286v4.363c0 .611.222 1.099.667 1.467.444.371 1.124.553 2.041.553.913 0 1.592-.182 2.036-.553.447-.368.668-.856.668-1.467v-4.363c0-.193-.159-.286-.475-.286v-.343h2.649v.343c-.279 0-.421.093-.421.286v4.823c0 .391-.089.77-.267 1.134a2.743 2.743 0 0 1-.81.962c-.361.277-.825.497-1.392.656-.565.16-1.228.238-1.988.238-.763 0-1.428-.078-1.994-.238-.565-.159-1.03-.379-1.391-.656a2.789 2.789 0 0 1-.811-.962 2.57 2.57 0 0 1-.268-1.134v-4.823c0-.101-.036-.175-.113-.22-.076-.043-.222-.066-.44-.066v-.343h2.728v.343ZM269.751 89.974c1.128 0 2.012.187 2.648.563.634.374.953 1.013.953 1.915 0 .343-.064.646-.19.914-.129.267-.296.5-.505.694-.21.2-.442.359-.697.477a3.966 3.966 0 0 1-.78.278l1.866 2.725c.103.139.212.245.336.313.119.071.25.126.389.162v.343h-2.916v-.343c.166 0 .25-.056.25-.169 0-.129-.097-.324-.289-.592l-1.504-2.25h-2.65v2.728c0 .101.043.174.124.217a.492.492 0 0 0 .239.066v.343h-2.535v-.343c.228 0 .344-.094.344-.283v-7.129c0-.192-.116-.285-.344-.285v-.344h5.261Zm-.038 3.622c1.245 0 1.866-.394 1.866-1.183 0-.317-.149-.567-.447-.752-.298-.185-.773-.278-1.419-.278H266.7v2.213h3.013Z" style="fill:#1c5a7d;fill-rule:nonzero"/></svg>