<?xml version="1.0" encoding="UTF-8" standalone="no"?><!DOCTYPE svg PUBLIC "-//W3C//DTD SVG 1.1//EN" "http://www.w3.org/Graphics/SVG/1.1/DTD/svg11.dtd"><svg width="100%" height="100%" viewBox="0 0 356 99" version="1.1" xmlns="http://www.w3.org/2000/svg" xmlns:xlink="http://www.w3.org/1999/xlink" xml:space="preserve" xmlns:serif="http://www.serif.com/" style="fill-rule:evenodd;clip-rule:evenodd;stroke-linejoin:round;stroke-miterlimit:1.41421;"><g id="Layer-1" serif:id="Layer 1"><path d="M160.473,0.653l0,29.011l17.508,11.752l17.505,-11.752l0,-29.011l-35.013,0Zm17.508,3.844l14.038,0l0,23.262l-14.038,9.427l0,-32.689Z" style="fill:#1c5a7d;fill-rule:nonzero;"/><path d="M183.568,14.589c0,0.094 0.03,0.164 0.093,0.212c0.064,0.048 0.137,0.071 0.22,0.071l0,0.283l-2.449,0l0,-0.283c0.229,0 0.345,-0.096 0.345,-0.283l0,-7.131c0,-0.187 -0.116,-0.283 -0.345,-0.283l0,-0.283l2.449,0l0,0.283c-0.083,0 -0.156,0.025 -0.22,0.073c-0.063,0.046 -0.093,0.116 -0.093,0.21l0,2.985l3.25,-2.561c0.146,-0.126 0.263,-0.227 0.346,-0.306c0.083,-0.078 0.126,-0.144 0.126,-0.196c0,-0.074 -0.022,-0.124 -0.071,-0.157c-0.047,-0.03 -0.1,-0.048 -0.164,-0.048l0,-0.283l3.299,0l0,0.283c-0.19,0 -0.379,0.081 -0.566,0.237l-3.614,2.874l3.298,3.816c0.137,0.156 0.296,0.31 0.48,0.465c0.184,0.151 0.364,0.252 0.543,0.305l0,0.283l-2.907,0l0,-0.283c0.137,0 0.205,-0.038 0.205,-0.111c0,-0.051 -0.074,-0.167 -0.22,-0.343l-2.687,-3.097l-1.318,1.023l0,2.245Z" style="fill:#1c5a7d;fill-rule:nonzero;"/><path d="M6.083,74.454c0,0.268 0.088,0.467 0.268,0.604c0.179,0.133 0.388,0.199 0.626,0.199l0,0.806l-6.977,0l0,-0.806c0.656,0 0.984,-0.267 0.984,-0.803l0,-20.306c0,-0.538 -0.328,-0.805 -0.984,-0.805l0,-0.806l6.977,0l0,0.806c-0.238,0 -0.447,0.068 -0.626,0.202c-0.18,0.134 -0.268,0.336 -0.268,0.603l0,8.498l9.257,-7.291c0.417,-0.358 0.745,-0.646 0.985,-0.871c0.238,-0.224 0.357,-0.409 0.357,-0.56c0,-0.207 -0.066,-0.357 -0.2,-0.445c-0.134,-0.091 -0.291,-0.136 -0.47,-0.136l0,-0.806l9.392,0l0,0.806c-0.538,0 -1.073,0.224 -1.612,0.669l-10.285,8.187l9.392,10.869c0.386,0.447 0.843,0.886 1.363,1.318c0.523,0.434 1.036,0.722 1.543,0.871l0,0.806l-8.272,0l0,-0.806c0.386,0 0.58,-0.103 0.58,-0.31c0,-0.149 -0.207,-0.48 -0.626,-0.985l-7.647,-8.811l-3.757,2.907l0,6.396Z" style="fill:#1c5a7d;fill-rule:nonzero;"/><path d="M49.914,52.537c1.429,0 2.727,0.126 3.889,0.381c1.164,0.256 2.164,0.657 2.997,1.207c0.836,0.554 1.475,1.268 1.925,2.147c0.446,0.879 0.671,1.96 0.671,3.243c0,1.967 -0.583,3.474 -1.745,4.517c-1.164,1.046 -2.727,1.745 -4.697,2.101l5.95,8.5c0.207,0.296 0.454,0.475 0.737,0.536c0.283,0.06 0.543,0.088 0.783,0.088l0,0.806l-8.364,0l0,-0.806c0.268,0 0.498,-0.043 0.695,-0.134c0.192,-0.088 0.29,-0.207 0.29,-0.358c0,-0.149 -0.063,-0.318 -0.179,-0.513c-0.121,-0.192 -0.298,-0.455 -0.538,-0.783l-4.919,-6.974l-6.397,0l0,7.959c0,0.268 0.099,0.467 0.293,0.604c0.192,0.133 0.543,0.199 1.05,0.199l0,0.806l-7.737,0l0,-0.806c0.864,0 1.296,-0.267 1.296,-0.803l0,-20.306c0,-0.538 -0.432,-0.805 -1.296,-0.805l0,-0.806l15.296,0Zm-1.165,10.467c1.074,0 1.968,-0.08 2.685,-0.247c0.715,-0.161 1.283,-0.394 1.7,-0.692c0.416,-0.3 0.714,-0.649 0.893,-1.05c0.18,-0.404 0.268,-0.844 0.268,-1.319c0,-0.479 -0.088,-0.919 -0.268,-1.32c-0.179,-0.402 -0.477,-0.756 -0.893,-1.051c-0.417,-0.298 -0.985,-0.53 -1.7,-0.694c-0.717,-0.164 -1.611,-0.248 -2.685,-0.248l-7.737,0l0,6.621l7.737,0Z" style="fill:#1c5a7d;fill-rule:nonzero;"/><path d="M85.2,52.27c1.639,0 3.308,0.245 5.01,0.737c1.697,0.493 3.248,1.23 4.649,2.215c1.402,0.985 2.551,2.23 3.445,3.735c0.894,1.505 1.341,3.288 1.341,5.343c0,2.058 -0.447,3.839 -1.341,5.346c-0.894,1.505 -2.043,2.749 -3.445,3.734c-1.401,0.986 -2.952,1.699 -4.649,2.148c-1.702,0.447 -3.371,0.669 -5.01,0.669c-1.642,0 -3.311,-0.222 -5.01,-0.669c-1.699,-0.449 -3.25,-1.162 -4.652,-2.147c-1.401,-0.985 -2.547,-2.23 -3.442,-3.735c-0.896,-1.507 -1.343,-3.288 -1.343,-5.346c0,-2.055 0.447,-3.838 1.343,-5.343c0.895,-1.505 2.041,-2.75 3.442,-3.735c1.402,-0.985 2.953,-1.722 4.652,-2.215c1.699,-0.492 3.368,-0.737 5.01,-0.737m0,4.114c-1.134,0 -2.268,0.179 -3.399,0.538c-1.134,0.358 -2.154,0.871 -3.063,1.543c-0.912,0.671 -1.649,1.497 -2.215,2.482c-0.566,0.985 -0.851,2.103 -0.851,3.353c0,1.253 0.285,2.372 0.851,3.357c0.566,0.982 1.303,1.81 2.215,2.482c0.909,0.669 1.929,1.182 3.063,1.543c1.131,0.356 2.265,0.535 3.399,0.535c1.134,0 2.265,-0.179 3.399,-0.535c1.134,-0.361 2.154,-0.874 3.063,-1.543c0.91,-0.672 1.647,-1.5 2.215,-2.482c0.566,-0.985 0.848,-2.104 0.848,-3.357c0,-1.25 -0.282,-2.368 -0.848,-3.353c-0.568,-0.985 -1.305,-1.811 -2.215,-2.482c-0.909,-0.672 -1.929,-1.185 -3.063,-1.543c-1.134,-0.359 -2.265,-0.538 -3.399,-0.538" style="fill:#1c5a7d;fill-rule:nonzero;"/><path d="M111.139,75.257c0.566,0 0.851,-0.268 0.851,-0.803l0,-20.306c0,-0.537 -0.285,-0.805 -0.851,-0.805l0,-0.806l7.649,0l0,0.806c-0.24,0 -0.358,0.151 -0.358,0.449c0,0.237 0.298,0.654 0.894,1.25l12.836,13.329l0,-14.223c0,-0.537 -0.387,-0.805 -1.165,-0.805l0,-0.806l6.756,0l0,0.806c-0.566,0 -0.851,0.268 -0.851,0.805l0,20.306c0,0.535 0.285,0.803 0.851,0.803l0,0.806l-7.245,0l0,-0.806c0.386,0 0.58,-0.131 0.58,-0.399c0,-0.212 -0.237,-0.553 -0.714,-1.03l-13.642,-14.222l0,14.848c0,0.535 0.344,0.803 1.028,0.803l0,0.806l-6.619,0l0,-0.806Z" style="fill:#1c5a7d;fill-rule:nonzero;"/><path d="M151.928,68.683l0.447,0.225c0,0.267 0.058,0.507 0.179,0.717c0.207,0.356 0.617,0.707 1.23,1.05c0.611,0.341 1.311,0.647 2.102,0.917c0.79,0.268 1.618,0.482 2.481,0.649c0.864,0.162 1.642,0.245 2.327,0.245c0.507,0 1.164,-0.038 1.966,-0.114c0.806,-0.073 1.597,-0.23 2.372,-0.467c0.775,-0.24 1.447,-0.568 2.013,-0.985c0.565,-0.419 0.848,-0.969 0.848,-1.656c0,-0.685 -0.26,-1.192 -0.78,-1.518c-0.523,-0.328 -1.21,-0.568 -2.059,-0.717c-0.851,-0.149 -1.817,-0.245 -2.906,-0.291c-1.091,-0.045 -2.199,-0.113 -3.333,-0.201c-1.134,-0.089 -2.245,-0.238 -3.331,-0.448c-1.089,-0.207 -2.058,-0.558 -2.91,-1.05c-0.848,-0.493 -1.535,-1.162 -2.055,-2.013c-0.523,-0.851 -0.783,-1.959 -0.783,-3.331c0,-0.924 0.217,-1.836 0.649,-2.729c0.432,-0.897 1.096,-1.685 1.99,-2.372c0.894,-0.684 2.026,-1.242 3.399,-1.677c1.371,-0.431 2.98,-0.649 4.831,-0.649c1.578,0 2.949,0.119 4.114,0.359c1.164,0.24 2.169,0.49 3.018,0.763c0.851,0.268 1.565,0.52 2.146,0.757c0.583,0.238 1.068,0.359 1.455,0.359c0.419,0 0.714,-0.091 0.896,-0.268l0.535,0.356l-3.086,5.594l-0.446,-0.182c-0.061,-0.417 -0.18,-0.76 -0.359,-1.028c-0.24,-0.356 -0.634,-0.707 -1.184,-1.05c-0.554,-0.344 -1.203,-0.649 -1.945,-0.917c-0.747,-0.268 -1.553,-0.485 -2.417,-0.649c-0.863,-0.161 -1.73,-0.245 -2.593,-0.245c-0.657,0 -1.336,0.05 -2.036,0.157c-0.702,0.103 -1.336,0.262 -1.901,0.469c-0.566,0.208 -1.036,0.485 -1.409,0.826c-0.371,0.343 -0.558,0.768 -0.558,1.275c0,0.715 0.26,1.253 0.782,1.611c0.521,0.356 1.207,0.627 2.059,0.806c0.848,0.177 1.818,0.296 2.906,0.356c1.089,0.058 2.197,0.134 3.331,0.225c1.134,0.088 2.245,0.245 3.333,0.469c1.086,0.223 2.056,0.581 2.907,1.074c0.849,0.492 1.535,1.154 2.056,1.99c0.522,0.835 0.782,1.921 0.782,3.265c0,1.548 -0.409,2.815 -1.23,3.8c-0.82,0.985 -1.84,1.761 -3.06,2.324c-1.225,0.568 -2.543,0.949 -3.96,1.141c-1.416,0.195 -2.734,0.293 -3.957,0.293c-1.702,0 -3.126,-0.098 -4.273,-0.293c-1.146,-0.192 -2.101,-0.429 -2.86,-0.712c-0.761,-0.285 -1.367,-0.538 -1.814,-0.762c-0.447,-0.223 -0.833,-0.336 -1.161,-0.336c-0.21,0 -0.404,0.118 -0.581,0.358l-0.626,-0.358l2.459,-5.412Z" style="fill:#1c5a7d;fill-rule:nonzero;"/><path d="M205.239,54.148c0,-0.538 -0.329,-0.805 -0.985,-0.805l0,-0.806l6.888,0l0,0.806c-0.209,0 -0.396,0.068 -0.56,0.201c-0.164,0.135 -0.245,0.336 -0.245,0.604l0,20.306c0,0.268 0.081,0.467 0.245,0.604c0.164,0.133 0.351,0.199 0.56,0.199l0,0.806l-6.888,0l0,-0.806c0.656,0 0.985,-0.268 0.985,-0.803l0,-8.409l-14.402,0l0,8.409c0,0.268 0.081,0.467 0.245,0.604c0.164,0.133 0.351,0.199 0.56,0.199l0,0.806l-6.755,0l0,-0.806c0.568,0 0.852,-0.268 0.852,-0.803l0,-20.306c0,-0.538 -0.284,-0.805 -0.852,-0.805l0,-0.806l6.755,0l0,0.806c-0.209,0 -0.396,0.068 -0.56,0.201c-0.164,0.135 -0.245,0.336 -0.245,0.604l0,7.604l14.402,0l0,-7.604Z" style="fill:#1c5a7d;fill-rule:nonzero;"/><path d="M220.847,75.257c0.387,-0.061 0.694,-0.252 0.917,-0.581c0.225,-0.328 0.439,-0.699 0.648,-1.116l8.274,-17.399c0.209,-0.389 0.396,-0.745 0.557,-1.076c0.165,-0.326 0.249,-0.606 0.249,-0.849c0,-0.295 -0.104,-0.504 -0.314,-0.625c-0.21,-0.117 -0.432,-0.208 -0.672,-0.268l0,-0.806l7.561,0l0,0.806c-0.209,0.06 -0.419,0.143 -0.626,0.245c-0.21,0.106 -0.314,0.323 -0.314,0.648c0,0.243 0.051,0.48 0.157,0.718c0.104,0.237 0.26,0.551 0.467,0.937l9.303,18.204c0.149,0.329 0.352,0.566 0.606,0.715c0.253,0.149 0.543,0.298 0.872,0.447l0,0.806l-7.872,0l0,-0.806c0.119,0 0.268,-0.043 0.448,-0.131c0.178,-0.091 0.267,-0.225 0.267,-0.404c0,-0.298 -0.119,-0.687 -0.356,-1.162l-1.702,-3.31l-10.911,0l-1.612,3.174c-0.298,0.628 -0.447,1.073 -0.447,1.341c0,0.33 0.283,0.492 0.852,0.492l0,0.806l-6.352,0l0,-0.806Zm16.861,-8.318l-3.757,-8.316l-4.205,8.316l7.962,0Z" style="fill:#1c5a7d;fill-rule:nonzero;"/><path d="M279.48,59.784l-0.895,-0.27c0.059,-0.179 0.092,-0.356 0.092,-0.535c0,-0.45 -0.278,-0.849 -0.831,-1.208c-0.551,-0.358 -1.25,-0.664 -2.101,-0.916c-0.848,-0.255 -1.776,-0.442 -2.773,-0.561c-1,-0.118 -1.944,-0.179 -2.841,-0.179c-1.1,0 -2.197,0.159 -3.285,0.472c-1.089,0.313 -2.058,0.796 -2.906,1.452c-0.851,0.657 -1.536,1.508 -2.058,2.551c-0.522,1.043 -0.784,2.308 -0.784,3.8c0,1.46 0.262,2.723 0.784,3.778c0.522,1.061 1.207,1.917 2.058,2.571c0.849,0.659 1.817,1.141 2.906,1.454c1.089,0.316 2.185,0.472 3.286,0.472c1.702,0 3.23,-0.141 4.586,-0.423c1.356,-0.286 2.51,-0.592 3.466,-0.92l0,-3.846l-5.725,0c-0.418,0 -0.731,0.091 -0.938,0.268c-0.209,0.179 -0.344,0.565 -0.404,1.164l-0.803,0l0,-5.725l0.803,0c0.06,0.508 0.195,0.826 0.404,0.962c0.207,0.134 0.52,0.2 0.938,0.2l11.18,0l0,0.805c-0.596,0.089 -0.968,0.195 -1.118,0.314c-0.149,0.118 -0.223,0.373 -0.223,0.759l0,5.054c0,0.298 0.089,0.492 0.269,0.583c0.178,0.089 0.385,0.195 0.625,0.313l0,0.715c-0.983,0.684 -2.021,1.252 -3.108,1.699c-1.089,0.447 -2.19,0.796 -3.31,1.051c-1.116,0.255 -2.236,0.412 -3.354,0.47c-1.12,0.06 -2.214,0.091 -3.288,0.091c-2.087,0 -3.986,-0.263 -5.702,-0.786c-1.716,-0.52 -3.182,-1.296 -4.404,-2.323c-1.223,-1.031 -2.17,-2.283 -2.839,-3.758c-0.671,-1.477 -1.007,-3.152 -1.007,-5.03c0,-1.879 0.336,-3.558 1.007,-5.033c0.669,-1.477 1.616,-2.735 2.839,-3.78c1.222,-1.043 2.688,-1.841 4.404,-2.392c1.716,-0.553 3.615,-0.828 5.702,-0.828c1.313,0 2.565,0.091 3.757,0.267c1.192,0.183 2.25,0.382 3.178,0.607c0.923,0.222 1.69,0.432 2.303,0.623c0.611,0.195 0.99,0.293 1.137,0.293c0.272,0 0.478,-0.06 0.63,-0.179c0.149,-0.118 0.296,-0.225 0.447,-0.313l0.536,0.313l-2.639,5.904Z" style="fill:#1c5a7d;fill-rule:nonzero;"/><path d="M316.915,57.368c0,-0.328 -0.129,-0.573 -0.382,-0.737c-0.253,-0.162 -0.694,-0.248 -1.318,-0.248l-14.49,0l0,5.548l8.765,0c0.596,0 1.058,-0.081 1.387,-0.245c0.328,-0.167 0.489,-0.591 0.489,-1.277l0.806,0l0,6.977l-0.806,0c0,-0.685 -0.161,-1.124 -0.489,-1.318c-0.329,-0.192 -0.791,-0.291 -1.387,-0.291l-8.765,0l0,6.172l14.937,0c0.447,0 0.811,-0.103 1.096,-0.313c0.283,-0.21 0.425,-0.493 0.425,-0.849l0.804,0l0,6.126l-0.804,0c0,-0.446 -0.142,-0.701 -0.425,-0.762c-0.285,-0.058 -0.649,-0.088 -1.096,-0.088l-20.841,0l0,-0.806c0.207,0 0.394,-0.066 0.558,-0.2c0.164,-0.136 0.245,-0.335 0.245,-0.603l0,-20.306c0,-0.267 -0.081,-0.469 -0.245,-0.603c-0.164,-0.134 -0.351,-0.202 -0.558,-0.202l0,-0.806l20.394,0c0.624,0 1.065,-0.093 1.318,-0.288c0.253,-0.194 0.382,-0.454 0.382,-0.785l0.803,0l0,5.904l-0.803,0Z" style="fill:#1c5a7d;fill-rule:nonzero;"/><path d="M329.347,75.257c0.565,0 0.851,-0.268 0.851,-0.803l0,-20.306c0,-0.537 -0.286,-0.805 -0.851,-0.805l0,-0.806l7.648,0l0,0.806c-0.239,0 -0.358,0.151 -0.358,0.449c0,0.237 0.298,0.654 0.894,1.25l12.836,13.329l0,-14.223c0,-0.537 -0.386,-0.805 -1.162,-0.805l0,-0.806l6.753,0l0,0.806c-0.566,0 -0.851,0.268 -0.851,0.805l0,20.306c0,0.535 0.285,0.803 0.851,0.803l0,0.806l-7.245,0l0,-0.806c0.386,0 0.58,-0.131 0.58,-0.399c0,-0.212 -0.237,-0.553 -0.714,-1.03l-13.641,-14.222l0,14.848c0,0.535 0.343,0.803 1.027,0.803l0,0.806l-6.618,0l0,-0.806Z" style="fill:#1c5a7d;fill-rule:nonzero;"/><path d="M82.186,98.016c0.151,-0.025 0.275,-0.098 0.371,-0.22c0.096,-0.118 0.169,-0.229 0.22,-0.333l2.838,-6.192c0.076,-0.179 0.136,-0.323 0.182,-0.429c0.043,-0.109 0.066,-0.212 0.066,-0.316c0,-0.075 -0.015,-0.124 -0.046,-0.141c-0.033,-0.02 -0.068,-0.041 -0.106,-0.068l0,-0.342l2.876,0l0,0.342c-0.037,0.027 -0.078,0.045 -0.121,0.057c-0.045,0.013 -0.068,0.064 -0.068,0.152c0,0.076 0.028,0.169 0.086,0.278c0.058,0.106 0.119,0.233 0.181,0.371l3.086,6.48c0.064,0.113 0.134,0.197 0.21,0.248c0.076,0.05 0.159,0.088 0.247,0.113l0,0.344l-2.704,0l0,-0.288c0.063,0 0.129,-0.018 0.2,-0.056c0.07,-0.038 0.106,-0.108 0.106,-0.209c0,-0.076 -0.016,-0.147 -0.038,-0.21c-0.028,-0.063 -0.058,-0.146 -0.096,-0.248l-0.515,-1.085l-4.079,0l-0.533,1.027c-0.052,0.104 -0.093,0.195 -0.126,0.278c-0.03,0.084 -0.045,0.154 -0.045,0.22c0,0.101 0.03,0.164 0.096,0.189c0.06,0.025 0.149,0.038 0.265,0.038l0,0.344l-2.553,0l0,-0.344Zm6.364,-3.162l-1.543,-3.202l-1.354,3.202l2.897,0Z" style="fill:#1c5a7d;fill-rule:nonzero;"/><path d="M104.54,90.317c-0.177,0 -0.336,0.146 -0.475,0.437l-2.783,6.157c-0.141,0.33 -0.245,0.552 -0.315,0.666c-0.069,0.114 -0.104,0.202 -0.104,0.268c0,0.076 0.114,0.134 0.344,0.172l0,0.343l-2.879,0l0,-0.343c0.063,-0.028 0.123,-0.056 0.181,-0.086c0.056,-0.033 0.086,-0.081 0.086,-0.144c0,-0.063 -0.043,-0.164 -0.126,-0.306c-0.081,-0.139 -0.179,-0.328 -0.293,-0.57l-2.896,-6.233c-0.053,-0.113 -0.119,-0.202 -0.202,-0.268c-0.084,-0.063 -0.162,-0.093 -0.238,-0.093l0,-0.343l2.687,0l0,0.343c-0.152,0 -0.23,0.083 -0.23,0.248c0,0.088 0.035,0.211 0.106,0.371c0.069,0.159 0.149,0.333 0.238,0.525l2.191,4.745l2.079,-4.614c0.139,-0.303 0.248,-0.532 0.323,-0.684c0.076,-0.154 0.109,-0.273 0.096,-0.363c-0.013,-0.152 -0.108,-0.228 -0.288,-0.228l0,-0.343l2.498,0l0,0.343Z" style="fill:#1c5a7d;fill-rule:nonzero;"/><path d="M112.717,89.859c0.699,0 1.356,0.088 1.972,0.268c0.616,0.176 1.152,0.444 1.611,0.8c0.458,0.356 0.818,0.803 1.086,1.344c0.268,0.54 0.399,1.171 0.399,1.896c0,0.725 -0.131,1.356 -0.399,1.897c-0.268,0.54 -0.628,0.987 -1.086,1.343c-0.459,0.353 -0.995,0.614 -1.611,0.77c-0.616,0.16 -1.273,0.238 -1.972,0.238c-0.7,0 -1.356,-0.078 -1.972,-0.238c-0.616,-0.156 -1.154,-0.417 -1.611,-0.77c-0.458,-0.356 -0.821,-0.803 -1.086,-1.343c-0.268,-0.541 -0.402,-1.172 -0.402,-1.897c0,-0.725 0.134,-1.356 0.402,-1.896c0.265,-0.541 0.628,-0.988 1.086,-1.344c0.457,-0.356 0.995,-0.624 1.611,-0.8c0.616,-0.18 1.272,-0.268 1.972,-0.268m0,1.412c-0.407,0 -0.803,0.065 -1.192,0.199c-0.387,0.131 -0.735,0.324 -1.038,0.571c-0.306,0.247 -0.55,0.55 -0.735,0.904c-0.184,0.358 -0.275,0.763 -0.275,1.222c0,0.457 0.091,0.864 0.275,1.217c0.185,0.359 0.429,0.66 0.735,0.907c0.303,0.247 0.651,0.437 1.038,0.57c0.389,0.134 0.785,0.203 1.192,0.203c0.406,0 0.803,-0.069 1.189,-0.203c0.389,-0.133 0.735,-0.323 1.04,-0.57c0.304,-0.247 0.549,-0.548 0.733,-0.907c0.184,-0.353 0.278,-0.76 0.278,-1.217c0,-0.459 -0.094,-0.864 -0.278,-1.222c-0.184,-0.354 -0.429,-0.657 -0.733,-0.904c-0.305,-0.247 -0.651,-0.44 -1.04,-0.571c-0.386,-0.134 -0.783,-0.199 -1.189,-0.199" style="fill:#1c5a7d;fill-rule:nonzero;"/><path d="M128.628,92.375c0,-0.025 -0.002,-0.05 -0.01,-0.076c-0.005,-0.025 -0.008,-0.055 -0.008,-0.093c0,-0.066 -0.065,-0.152 -0.191,-0.26c-0.127,-0.106 -0.309,-0.213 -0.543,-0.313c-0.235,-0.104 -0.511,-0.187 -0.829,-0.258c-0.318,-0.068 -0.669,-0.104 -1.048,-0.104c-0.457,0 -0.873,0.059 -1.25,0.18c-0.373,0.121 -0.702,0.303 -0.982,0.543c-0.278,0.242 -0.493,0.54 -0.647,0.896c-0.151,0.356 -0.227,0.763 -0.227,1.22c0,0.457 0.084,0.866 0.255,1.23c0.172,0.361 0.399,0.671 0.677,0.934c0.28,0.26 0.598,0.455 0.954,0.588c0.354,0.134 0.718,0.202 1.086,0.202c0.341,0 0.692,-0.045 1.048,-0.133c0.357,-0.089 0.68,-0.195 0.973,-0.316c0.29,-0.119 0.53,-0.25 0.714,-0.389c0.185,-0.142 0.276,-0.268 0.276,-0.381l0,-0.154c0,-0.076 -0.005,-0.139 -0.02,-0.191l0.209,-0.188l1.412,2.02l-0.19,0.094c-0.154,-0.064 -0.263,-0.094 -0.326,-0.094c-0.101,0 -0.265,0.056 -0.495,0.169c-0.23,0.117 -0.517,0.245 -0.866,0.392c-0.351,0.146 -0.755,0.27 -1.22,0.371c-0.464,0.104 -0.982,0.152 -1.552,0.152c-0.586,0 -1.165,-0.082 -1.735,-0.248c-0.573,-0.164 -1.081,-0.427 -1.526,-0.791c-0.444,-0.36 -0.805,-0.813 -1.085,-1.351c-0.278,-0.543 -0.42,-1.166 -0.42,-1.878c0,-0.712 0.142,-1.334 0.42,-1.866c0.28,-0.536 0.648,-0.983 1.105,-1.344c0.458,-0.363 0.98,-0.634 1.574,-0.811c0.588,-0.179 1.194,-0.267 1.818,-0.267c0.482,0 0.924,0.045 1.326,0.134c0.399,0.088 0.752,0.189 1.058,0.303c0.303,0.116 0.558,0.217 0.76,0.305c0.205,0.091 0.351,0.134 0.44,0.134c0.063,0 0.116,-0.018 0.161,-0.055c0.046,-0.041 0.091,-0.071 0.144,-0.097l0.227,0.134l-1.258,1.808l-0.209,-0.151Z" style="fill:#1c5a7d;fill-rule:nonzero;"/><path d="M133.242,98.016c0.151,-0.025 0.275,-0.098 0.371,-0.22c0.096,-0.118 0.17,-0.229 0.22,-0.333l2.838,-6.192c0.076,-0.179 0.136,-0.323 0.182,-0.429c0.043,-0.109 0.066,-0.212 0.066,-0.316c0,-0.075 -0.015,-0.124 -0.046,-0.141c-0.032,-0.02 -0.068,-0.041 -0.106,-0.068l0,-0.342l2.876,0l0,0.342c-0.037,0.027 -0.078,0.045 -0.121,0.057c-0.045,0.013 -0.068,0.064 -0.068,0.152c0,0.076 0.028,0.169 0.086,0.278c0.058,0.106 0.119,0.233 0.182,0.371l3.086,6.48c0.063,0.113 0.134,0.197 0.209,0.248c0.076,0.05 0.16,0.088 0.248,0.113l0,0.344l-2.705,0l0,-0.288c0.063,0 0.129,-0.018 0.2,-0.056c0.07,-0.038 0.106,-0.108 0.106,-0.209c0,-0.076 -0.016,-0.147 -0.038,-0.21c-0.028,-0.063 -0.058,-0.146 -0.096,-0.248l-0.515,-1.085l-4.079,0l-0.532,1.027c-0.053,0.104 -0.094,0.195 -0.127,0.278c-0.03,0.084 -0.045,0.154 -0.045,0.22c0,0.101 0.03,0.164 0.096,0.189c0.061,0.025 0.149,0.038 0.265,0.038l0,0.344l-2.553,0l0,-0.344Zm6.364,-3.162l-1.543,-3.202l-1.354,3.202l2.897,0Z" style="fill:#1c5a7d;fill-rule:nonzero;"/><path d="M149.021,98.016c0.063,0 0.126,-0.022 0.189,-0.065c0.066,-0.046 0.097,-0.119 0.097,-0.22l0,-6.346l-2.478,0c-0.101,0 -0.197,0.025 -0.285,0.075c-0.088,0.051 -0.134,0.134 -0.134,0.248l-0.344,0l0,-2.192l0.344,0c0,0.179 0.046,0.298 0.134,0.361c0.088,0.066 0.184,0.098 0.285,0.098l6.786,0c0.1,0 0.197,-0.032 0.285,-0.098c0.088,-0.063 0.134,-0.182 0.134,-0.361l0.343,0l0,2.192l-0.343,0c0,-0.114 -0.046,-0.197 -0.134,-0.248c-0.088,-0.05 -0.185,-0.075 -0.285,-0.075l-2.478,0l0,6.346c0,0.192 0.114,0.285 0.343,0.285l0,0.344l-2.459,0l0,-0.344Z" style="fill:#1c5a7d;fill-rule:nonzero;"/><path d="M159.006,95.444c0,0.05 -0.002,0.104 -0.01,0.162c-0.005,0.058 -0.01,0.118 -0.01,0.179c0,0.192 0.121,0.366 0.364,0.525c0.239,0.159 0.53,0.293 0.868,0.402c0.333,0.106 0.672,0.194 1.008,0.257c0.338,0.063 0.601,0.094 0.79,0.094c0.179,0 0.399,-0.013 0.659,-0.038c0.261,-0.025 0.518,-0.079 0.773,-0.162c0.253,-0.083 0.467,-0.197 0.646,-0.343c0.18,-0.147 0.266,-0.339 0.266,-0.581c0,-0.278 -0.154,-0.482 -0.465,-0.609c-0.313,-0.129 -0.702,-0.227 -1.172,-0.298c-0.469,-0.068 -0.979,-0.139 -1.525,-0.209c-0.548,-0.068 -1.055,-0.182 -1.525,-0.341c-0.47,-0.159 -0.861,-0.389 -1.172,-0.687c-0.31,-0.298 -0.467,-0.72 -0.467,-1.268c0,-0.813 0.336,-1.462 1.01,-1.944c0.672,-0.483 1.621,-0.722 2.838,-0.722c0.599,0 1.109,0.045 1.536,0.141c0.426,0.096 0.785,0.199 1.076,0.316c0.293,0.113 0.53,0.219 0.717,0.313c0.182,0.096 0.318,0.144 0.409,0.144c0.101,0 0.177,-0.018 0.227,-0.048c0.053,-0.033 0.117,-0.069 0.192,-0.106l0.21,0.209l-0.955,1.793l-0.341,-0.114c-0.012,-0.075 -0.025,-0.153 -0.04,-0.229c-0.011,-0.076 -0.069,-0.152 -0.172,-0.228c-0.253,-0.217 -0.647,-0.401 -1.179,-0.552c-0.535,-0.155 -1.132,-0.23 -1.793,-0.23c-0.253,0 -0.495,0.017 -0.722,0.048c-0.23,0.03 -0.435,0.085 -0.611,0.161c-0.177,0.076 -0.319,0.174 -0.42,0.296c-0.101,0.121 -0.151,0.27 -0.151,0.449c0,0.278 0.154,0.48 0.464,0.599c0.314,0.121 0.702,0.217 1.175,0.285c0.469,0.071 0.977,0.142 1.523,0.21c0.545,0.07 1.055,0.189 1.525,0.353c0.469,0.167 0.861,0.407 1.174,0.725c0.311,0.316 0.465,0.755 0.465,1.313c0,0.561 -0.137,1.018 -0.41,1.374c-0.272,0.356 -0.613,0.633 -1.02,0.838c-0.406,0.202 -0.853,0.336 -1.343,0.399c-0.49,0.066 -0.95,0.096 -1.382,0.096c-0.431,0 -0.861,-0.04 -1.287,-0.123c-0.425,-0.081 -0.811,-0.177 -1.162,-0.286c-0.349,-0.108 -0.644,-0.209 -0.884,-0.306c-0.242,-0.095 -0.389,-0.141 -0.439,-0.141c-0.091,0 -0.167,0.038 -0.23,0.113l-0.265,-0.191l0.876,-2.134l0.361,0.096Z" style="fill:#1c5a7d;fill-rule:nonzero;"/><path d="M175.016,98.016c0.151,-0.025 0.275,-0.098 0.371,-0.22c0.096,-0.118 0.17,-0.229 0.22,-0.333l2.838,-6.192c0.076,-0.179 0.136,-0.323 0.182,-0.429c0.043,-0.109 0.066,-0.212 0.066,-0.316c0,-0.075 -0.015,-0.124 -0.046,-0.141c-0.032,-0.02 -0.068,-0.041 -0.106,-0.068l0,-0.342l2.876,0l0,0.342c-0.037,0.027 -0.078,0.045 -0.121,0.057c-0.045,0.013 -0.068,0.064 -0.068,0.152c0,0.076 0.028,0.169 0.086,0.278c0.058,0.106 0.119,0.233 0.181,0.371l3.086,6.48c0.064,0.113 0.135,0.197 0.21,0.248c0.076,0.05 0.159,0.088 0.247,0.113l0,0.344l-2.704,0l0,-0.288c0.063,0 0.129,-0.018 0.2,-0.056c0.07,-0.038 0.106,-0.108 0.106,-0.209c0,-0.076 -0.016,-0.147 -0.038,-0.21c-0.028,-0.063 -0.058,-0.146 -0.096,-0.248l-0.515,-1.085l-4.079,0l-0.532,1.027c-0.053,0.104 -0.094,0.195 -0.127,0.278c-0.03,0.084 -0.045,0.154 -0.045,0.22c0,0.101 0.03,0.164 0.096,0.189c0.06,0.025 0.151,0.038 0.265,0.038l0,0.344l-2.553,0l0,-0.344Zm6.364,-3.162l-1.543,-3.202l-1.354,3.202l2.897,0Z" style="fill:#1c5a7d;fill-rule:nonzero;"/><path d="M196.875,89.974l0,0.344c-0.293,0 -0.437,0.093 -0.437,0.285l0,6.346l5.144,0c0.153,0 0.28,-0.036 0.381,-0.106c0.101,-0.068 0.154,-0.167 0.154,-0.296l0.341,0l0,2.003l-0.341,0c0,-0.101 -0.053,-0.159 -0.154,-0.172c-0.101,-0.012 -0.228,-0.02 -0.381,-0.02l-7.47,0l0,-0.343c0.33,0 0.494,-0.094 0.494,-0.283l0,-7.129c0,-0.192 -0.164,-0.285 -0.494,-0.285l0,-0.344l2.763,0Z" style="fill:#1c5a7d;fill-rule:nonzero;"/><path d="M205.451,98.016c0.151,-0.025 0.275,-0.098 0.371,-0.22c0.097,-0.118 0.17,-0.229 0.22,-0.333l2.839,-6.192c0.075,-0.179 0.135,-0.323 0.181,-0.429c0.043,-0.109 0.066,-0.212 0.066,-0.316c0,-0.075 -0.015,-0.124 -0.045,-0.141c-0.033,-0.02 -0.069,-0.041 -0.107,-0.068l0,-0.342l2.876,0l0,0.342c-0.037,0.027 -0.078,0.045 -0.121,0.057c-0.045,0.013 -0.067,0.064 -0.067,0.152c0,0.076 0.027,0.169 0.085,0.278c0.058,0.106 0.119,0.233 0.182,0.371l3.086,6.48c0.063,0.113 0.134,0.197 0.209,0.248c0.077,0.05 0.16,0.088 0.248,0.113l0,0.344l-2.705,0l0,-0.288c0.064,0 0.129,-0.018 0.2,-0.056c0.071,-0.038 0.106,-0.108 0.106,-0.209c0,-0.076 -0.016,-0.147 -0.038,-0.21c-0.027,-0.063 -0.058,-0.146 -0.096,-0.248l-0.515,-1.085l-4.079,0l-0.532,1.027c-0.053,0.104 -0.093,0.195 -0.127,0.278c-0.03,0.084 -0.045,0.154 -0.045,0.22c0,0.101 0.031,0.164 0.096,0.189c0.061,0.025 0.15,0.038 0.266,0.038l0,0.344l-2.554,0l0,-0.344Zm6.364,-3.162l-1.543,-3.202l-1.353,3.202l2.896,0Z" style="fill:#1c5a7d;fill-rule:nonzero;"/><path d="M230.511,92.375c0,-0.025 -0.003,-0.05 -0.01,-0.076c-0.006,-0.025 -0.011,-0.055 -0.011,-0.093c0,-0.066 -0.062,-0.152 -0.189,-0.26c-0.126,-0.106 -0.308,-0.213 -0.543,-0.313c-0.234,-0.104 -0.51,-0.187 -0.828,-0.258c-0.318,-0.068 -0.669,-0.104 -1.051,-0.104c-0.454,0 -0.871,0.059 -1.247,0.18c-0.374,0.121 -0.702,0.303 -0.982,0.543c-0.278,0.242 -0.493,0.54 -0.647,0.896c-0.151,0.356 -0.227,0.763 -0.227,1.22c0,0.457 0.084,0.866 0.256,1.23c0.17,0.361 0.398,0.671 0.676,0.934c0.281,0.26 0.598,0.455 0.954,0.588c0.354,0.134 0.717,0.202 1.086,0.202c0.341,0 0.693,-0.045 1.048,-0.133c0.357,-0.089 0.68,-0.195 0.973,-0.316c0.29,-0.119 0.53,-0.25 0.715,-0.389c0.183,-0.142 0.274,-0.268 0.274,-0.381l0,-0.154c0,-0.076 -0.005,-0.139 -0.019,-0.191l0.209,-0.188l1.412,2.02l-0.19,0.094c-0.154,-0.064 -0.263,-0.094 -0.326,-0.094c-0.101,0 -0.265,0.056 -0.495,0.169c-0.23,0.117 -0.518,0.245 -0.865,0.392c-0.352,0.146 -0.756,0.27 -1.22,0.371c-0.465,0.104 -0.982,0.152 -1.554,0.152c-0.586,0 -1.164,-0.082 -1.734,-0.248c-0.573,-0.164 -1.081,-0.427 -1.526,-0.791c-0.444,-0.36 -0.805,-0.813 -1.085,-1.351c-0.279,-0.543 -0.419,-1.166 -0.419,-1.878c0,-0.712 0.14,-1.334 0.419,-1.866c0.28,-0.536 0.648,-0.983 1.106,-1.344c0.457,-0.363 0.979,-0.634 1.573,-0.811c0.588,-0.179 1.195,-0.267 1.818,-0.267c0.482,0 0.924,0.045 1.323,0.134c0.402,0.088 0.756,0.189 1.06,0.303c0.304,0.116 0.559,0.217 0.761,0.305c0.204,0.091 0.351,0.134 0.44,0.134c0.062,0 0.116,-0.018 0.161,-0.055c0.046,-0.041 0.091,-0.071 0.144,-0.097l0.227,0.134l-1.257,1.808l-0.21,-0.151Z" style="fill:#1c5a7d;fill-rule:nonzero;"/><path d="M240.65,89.859c0.699,0 1.355,0.088 1.972,0.268c0.616,0.176 1.152,0.444 1.611,0.8c0.457,0.356 0.818,0.803 1.086,1.344c0.268,0.54 0.399,1.171 0.399,1.896c0,0.725 -0.131,1.356 -0.399,1.897c-0.268,0.54 -0.629,0.987 -1.086,1.343c-0.459,0.353 -0.995,0.614 -1.611,0.77c-0.617,0.16 -1.273,0.238 -1.972,0.238c-0.699,0 -1.356,-0.078 -1.973,-0.238c-0.616,-0.156 -1.154,-0.417 -1.611,-0.77c-0.457,-0.356 -0.82,-0.803 -1.085,-1.343c-0.268,-0.541 -0.402,-1.172 -0.402,-1.897c0,-0.725 0.134,-1.356 0.402,-1.896c0.265,-0.541 0.628,-0.988 1.085,-1.344c0.457,-0.356 0.995,-0.624 1.611,-0.8c0.617,-0.18 1.274,-0.268 1.973,-0.268m0,1.412c-0.407,0 -0.803,0.065 -1.192,0.199c-0.386,0.131 -0.735,0.324 -1.038,0.571c-0.305,0.247 -0.55,0.55 -0.735,0.904c-0.181,0.358 -0.275,0.763 -0.275,1.222c0,0.457 0.094,0.864 0.275,1.217c0.185,0.359 0.43,0.66 0.735,0.907c0.303,0.247 0.652,0.437 1.038,0.57c0.389,0.134 0.785,0.203 1.192,0.203c0.406,0 0.803,-0.069 1.191,-0.203c0.387,-0.133 0.733,-0.323 1.038,-0.57c0.306,-0.247 0.548,-0.548 0.733,-0.907c0.184,-0.353 0.278,-0.76 0.278,-1.217c0,-0.459 -0.094,-0.864 -0.278,-1.222c-0.185,-0.354 -0.427,-0.657 -0.733,-0.904c-0.305,-0.247 -0.651,-0.44 -1.038,-0.571c-0.388,-0.134 -0.785,-0.199 -1.191,-0.199" style="fill:#1c5a7d;fill-rule:nonzero;"/><path d="M252.522,90.317c-0.28,0 -0.419,0.093 -0.419,0.286l0,4.363c0,0.611 0.222,1.099 0.667,1.467c0.444,0.371 1.124,0.553 2.041,0.553c0.913,0 1.592,-0.182 2.036,-0.553c0.447,-0.368 0.668,-0.856 0.668,-1.467l0,-4.363c0,-0.193 -0.159,-0.286 -0.475,-0.286l0,-0.343l2.649,0l0,0.343c-0.279,0 -0.421,0.093 -0.421,0.286l0,4.823c0,0.391 -0.089,0.77 -0.267,1.134c-0.178,0.361 -0.445,0.681 -0.81,0.962c-0.361,0.277 -0.825,0.497 -1.392,0.656c-0.565,0.16 -1.228,0.238 -1.988,0.238c-0.763,0 -1.428,-0.078 -1.994,-0.238c-0.565,-0.159 -1.03,-0.379 -1.391,-0.656c-0.361,-0.281 -0.633,-0.601 -0.811,-0.962c-0.177,-0.364 -0.268,-0.743 -0.268,-1.134l0,-4.823c0,-0.101 -0.036,-0.175 -0.113,-0.22c-0.076,-0.043 -0.222,-0.066 -0.44,-0.066l0,-0.343l2.728,0l0,0.343Z" style="fill:#1c5a7d;fill-rule:nonzero;"/><path d="M269.751,89.974c1.128,0 2.012,0.187 2.648,0.563c0.634,0.374 0.953,1.013 0.953,1.915c0,0.343 -0.064,0.646 -0.19,0.914c-0.129,0.267 -0.296,0.5 -0.505,0.694c-0.21,0.2 -0.442,0.359 -0.697,0.477c-0.252,0.122 -0.513,0.212 -0.78,0.278l1.866,2.725c0.103,0.139 0.212,0.245 0.336,0.313c0.119,0.071 0.25,0.126 0.389,0.162l0,0.343l-2.916,0l0,-0.343c0.166,0 0.25,-0.056 0.25,-0.169c0,-0.129 -0.097,-0.324 -0.289,-0.592l-1.504,-2.25l-2.65,0l0,2.728c0,0.101 0.043,0.174 0.124,0.217c0.083,0.046 0.164,0.066 0.239,0.066l0,0.343l-2.535,0l0,-0.343c0.228,0 0.344,-0.094 0.344,-0.283l0,-7.129c0,-0.192 -0.116,-0.285 -0.344,-0.285l0,-0.344l5.261,0Zm-0.038,3.622c1.245,0 1.866,-0.394 1.866,-1.183c0,-0.317 -0.149,-0.567 -0.447,-0.752c-0.298,-0.185 -0.773,-0.278 -1.419,-0.278l-3.013,0l0,2.213l3.013,0Z" style="fill:#1c5a7d;fill-rule:nonzero;"/></g></svg>