<?xml version="1.0" encoding="UTF-8" standalone="no"?><!DOCTYPE svg PUBLIC "-//W3C//DTD SVG 1.1//EN" "http://www.w3.org/Graphics/SVG/1.1/DTD/svg11.dtd"><svg width="100%" height="100%" viewBox="0 0 165 88" version="1.1" xmlns="http://www.w3.org/2000/svg" xmlns:xlink="http://www.w3.org/1999/xlink" xml:space="preserve" xmlns:serif="http://www.serif.com/" style="fill-rule:evenodd;clip-rule:evenodd;stroke-linejoin:round;stroke-miterlimit:2;"><g id="Calque-1" serif:id="Calque 1"><rect x="0" y="0" width="164.409" height="87.874" style="fill:#f5821f;"/><path d="M17.663,50.799l0,-31.197l-5.621,0l0,31.529c0,4.133 2.314,7.716 7.661,7.716l3.472,0l0,-4.796l-2.48,0c-2.26,0 -3.032,-1.102 -3.032,-3.252" style="fill:#fff;fill-rule:nonzero;"/><path d="M44.644,48.759c0,1.984 -0.386,3.308 -1.214,4.135c-1.487,1.432 -3.087,1.599 -5.235,1.599c-3.529,0 -5.127,-1.433 -5.127,-3.97c0,-2.535 1.709,-4.024 5.016,-4.024l6.56,0l0,2.26Zm5.621,10.088l0,-18.688c0,-6.335 -3.857,-9.588 -11.52,-9.588c-4.629,0 -7.386,0.937 -10.032,4.024l3.694,3.473c1.544,-1.984 3.031,-2.701 6.118,-2.701c4.355,0 6.119,1.709 6.119,5.235l0,1.983l-7.387,0c-6.394,0 -9.646,3.362 -9.646,8.049c0,2.37 0.771,4.52 2.204,6.008c1.71,1.708 4.024,2.535 7.497,2.535c3.473,0 5.402,-0.827 7.443,-2.865l0,2.535l5.51,0Z" style="fill:#fff;fill-rule:nonzero;"/><path d="M61.816,50.799l0,-31.197l-5.622,0l0,31.529c0,4.133 2.314,7.716 7.662,7.716l3.473,0l0,-4.796l-2.481,0c-2.261,0 -3.032,-1.102 -3.032,-3.252" style="fill:#fff;fill-rule:nonzero;"/><path d="M89.157,47.933c0,4.301 -2.645,6.229 -5.788,6.229c-3.141,0 -5.623,-1.875 -5.623,-6.229l0,-17.031l-5.622,0l0,17.857c0,3.143 0.662,5.788 2.812,7.883c1.653,1.599 4.024,2.535 6.889,2.535c2.813,0 5.514,-1.047 7.443,-3.14l0,2.81l5.512,0l0,-27.945l-5.623,0l0,17.031Z" style="fill:#fff;fill-rule:nonzero;"/><path d="M124.819,30.901l-6.777,0l-5.457,9.095l-5.512,-9.095l-6.781,0l9.205,13.669l-9.59,14.276l6.779,0l5.899,-9.537l5.841,9.537l6.782,0l-9.537,-14.276l9.148,-13.669Z" style="fill:#fff;fill-rule:nonzero;"/><path d="M14.898,73.518l1.428,-4.062l1.386,4.062l-2.814,0Zm0.836,-6.132l-3.356,9.152l1.478,0l0.63,-1.837l3.613,0l0.629,1.837l1.479,0l-3.355,-9.152l-1.118,0Z" style="fill:#fff;fill-rule:nonzero;"/><path d="M28.288,71.371l-1.041,-0.154c-0.424,-0.065 -0.797,-0.219 -1.028,-0.424c-0.244,-0.22 -0.347,-0.516 -0.347,-0.849c0,-0.809 0.592,-1.427 1.67,-1.427c0.773,0 1.428,0.168 1.994,0.706l0.887,-0.873c-0.785,-0.734 -1.633,-1.041 -2.842,-1.041c-1.902,0 -3.059,1.092 -3.059,2.686c0,0.746 0.218,1.324 0.668,1.749c0.399,0.372 0.991,0.628 1.737,0.731l1.078,0.155c0.541,0.078 0.771,0.167 1.003,0.386c0.245,0.217 0.36,0.552 0.36,0.951c0,0.886 -0.694,1.4 -1.891,1.4c-0.936,0 -1.669,-0.204 -2.337,-0.874l-0.926,0.913c0.875,0.888 1.864,1.209 3.239,1.209c1.915,0 3.29,-1.003 3.29,-2.687c0,-0.785 -0.244,-1.441 -0.744,-1.876c-0.387,-0.347 -0.863,-0.553 -1.711,-0.681" style="fill:#fff;fill-rule:nonzero;"/><path d="M39.314,71.371l-1.041,-0.154c-0.425,-0.065 -0.797,-0.219 -1.027,-0.424c-0.245,-0.22 -0.348,-0.516 -0.348,-0.849c0,-0.809 0.592,-1.427 1.671,-1.427c0.772,0 1.427,0.168 1.992,0.706l0.886,-0.873c-0.783,-0.734 -1.631,-1.041 -2.84,-1.041c-1.902,0 -3.059,1.092 -3.059,2.686c0,0.746 0.218,1.324 0.669,1.749c0.398,0.372 0.988,0.628 1.736,0.731l1.078,0.155c0.542,0.078 0.771,0.167 1.003,0.386c0.245,0.217 0.36,0.552 0.36,0.951c0,0.886 -0.693,1.4 -1.89,1.4c-0.937,0 -1.669,-0.204 -2.338,-0.874l-0.926,0.913c0.875,0.888 1.864,1.209 3.239,1.209c1.915,0 3.29,-1.003 3.29,-2.687c0,-0.785 -0.244,-1.441 -0.744,-1.876c-0.387,-0.347 -0.862,-0.553 -1.711,-0.681" style="fill:#fff;fill-rule:nonzero;"/><path d="M52.19,73.389c0,1.221 -0.76,1.979 -1.902,1.979c-1.145,0 -1.889,-0.758 -1.889,-1.979l0,-6.003l-1.389,0l0,6.067c0,1.89 1.414,3.163 3.278,3.163c1.863,0 3.29,-1.273 3.29,-3.163l0,-6.067l-1.388,0l0,6.003Z" style="fill:#fff;fill-rule:nonzero;"/><path d="M60.733,71.499l0,-2.865l2.058,0c0.925,0 1.554,0.54 1.554,1.437c0,0.901 -0.629,1.428 -1.554,1.428l-2.058,0Zm5,-1.439c0,-1.556 -1.104,-2.674 -2.84,-2.674l-3.547,0l0,9.151l1.387,0l0,-3.856l1.736,0l1.928,3.856l1.62,0l-2.108,-4.048c1.029,-0.283 1.824,-1.118 1.824,-2.429" style="fill:#fff;fill-rule:nonzero;"/><path d="M72.712,73.518l1.427,-4.062l1.388,4.062l-2.815,0Zm0.835,-6.132l-3.355,9.152l1.479,0l0.63,-1.837l3.611,0l0.631,1.837l1.478,0l-3.356,-9.152l-1.118,0Z" style="fill:#fff;fill-rule:nonzero;"/><path d="M88.338,73.813l-4.229,-6.427l-1.272,0l0,9.152l1.389,0l0,-6.44l4.227,6.44l1.274,0l0,-9.152l-1.389,0l0,6.427Z" style="fill:#fff;fill-rule:nonzero;"/><path d="M98.594,68.555c1.014,0 1.631,0.644 1.85,1.569l1.414,0c-0.323,-1.826 -1.582,-2.814 -3.264,-2.814c-0.951,0 -1.775,0.347 -2.404,0.975c-0.901,0.901 -0.887,1.916 -0.887,3.677c0,1.761 -0.014,2.777 0.887,3.675c0.629,0.631 1.453,0.979 2.404,0.979c1.656,0 2.953,-0.992 3.264,-2.816l-1.401,0c-0.218,0.925 -0.849,1.567 -1.863,1.567c-0.541,0 -1.029,-0.204 -1.352,-0.551c-0.449,-0.49 -0.552,-1.016 -0.552,-2.854c0,-1.838 0.103,-2.366 0.552,-2.854c0.323,-0.346 0.811,-0.553 1.352,-0.553" style="fill:#fff;fill-rule:nonzero;"/><path d="M107.227,76.537l5.85,0l0,-1.247l-4.461,0l0,-2.749l3.804,0l0,-1.235l-3.804,0l0,-2.672l4.461,0l0,-1.248l-5.85,0l0,9.151Z" style="fill:#fff;fill-rule:nonzero;"/><path d="M121.762,71.371l-1.041,-0.154c-0.424,-0.065 -0.797,-0.219 -1.027,-0.424c-0.246,-0.22 -0.348,-0.516 -0.348,-0.849c0,-0.809 0.59,-1.427 1.67,-1.427c0.771,0 1.428,0.168 1.992,0.706l0.887,-0.873c-0.785,-0.734 -1.631,-1.041 -2.84,-1.041c-1.904,0 -3.059,1.092 -3.059,2.686c0,0.746 0.219,1.324 0.668,1.749c0.399,0.372 0.989,0.628 1.735,0.731l1.08,0.155c0.539,0.078 0.771,0.167 1.004,0.386c0.244,0.217 0.357,0.552 0.357,0.951c0,0.886 -0.693,1.4 -1.889,1.4c-0.939,0 -1.669,-0.204 -2.339,-0.874l-0.924,0.913c0.873,0.888 1.863,1.209 3.238,1.209c1.914,0 3.291,-1.003 3.291,-2.687c0,-0.785 -0.244,-1.441 -0.746,-1.876c-0.387,-0.347 -0.861,-0.553 -1.709,-0.681" style="fill:#fff;fill-rule:nonzero;"/><path d="M139.049,11.246l-7.428,7.429l0,14.86l14.854,-0.006l7.299,-7.298l-14.725,0l0,-14.985Z" style="fill:#fff;fill-rule:nonzero;"/><rect x="146.344" y="11.246" width="7.43" height="7.429" style="fill:#fff;"/></g></svg>