<svg viewBox="0 0 165 88" xmlns="http://www.w3.org/2000/svg" xml:space="preserve" style="fill-rule:evenodd;clip-rule:evenodd;stroke-linejoin:round;stroke-miterlimit:2"><path style="fill:#f5821f" d="M0 0h164.409v87.874H0z"/><path d="M17.663 50.799V19.602h-5.621v31.529c0 4.133 2.314 7.716 7.661 7.716h3.472v-4.796h-2.48c-2.26 0-3.032-1.102-3.032-3.252M44.644 48.759c0 1.984-.386 3.308-1.214 4.135-1.487 1.432-3.087 1.599-5.235 1.599-3.529 0-5.127-1.433-5.127-3.97 0-2.535 1.709-4.024 5.016-4.024h6.56v2.26Zm5.621 10.088V40.159c0-6.335-3.857-9.588-11.52-9.588-4.629 0-7.386.937-10.032 4.024l3.694 3.473c1.544-1.984 3.031-2.701 6.118-2.701 4.355 0 6.119 1.709 6.119 5.235v1.983h-7.387c-6.394 0-9.646 3.362-9.646 8.049 0 2.37.771 4.52 2.204 6.008 1.71 1.708 4.024 2.535 7.497 2.535s5.402-.827 7.443-2.865v2.535h5.51ZM61.816 50.799V19.602h-5.622v31.529c0 4.133 2.314 7.716 7.662 7.716h3.473v-4.796h-2.481c-2.261 0-3.032-1.102-3.032-3.252M89.157 47.933c0 4.301-2.645 6.229-5.788 6.229-3.141 0-5.623-1.875-5.623-6.229V30.902h-5.622v17.857c0 3.143.662 5.788 2.812 7.883 1.653 1.599 4.024 2.535 6.889 2.535 2.813 0 5.514-1.047 7.443-3.14v2.81h5.512V30.902h-5.623v17.031ZM124.819 30.901h-6.777l-5.457 9.095-5.512-9.095h-6.781l9.205 13.669-9.59 14.276h6.779l5.899-9.537 5.841 9.537h6.782l-9.537-14.276 9.148-13.669ZM14.898 73.518l1.428-4.062 1.386 4.062h-2.814Zm.836-6.132-3.356 9.152h1.478l.63-1.837h3.613l.629 1.837h1.479l-3.355-9.152h-1.118ZM28.288 71.371l-1.041-.154c-.424-.065-.797-.219-1.028-.424-.244-.22-.347-.516-.347-.849 0-.809.592-1.427 1.67-1.427.773 0 1.428.168 1.994.706l.887-.873c-.785-.734-1.633-1.041-2.842-1.041-1.902 0-3.059 1.092-3.059 2.686 0 .746.218 1.324.668 1.749.399.372.991.628 1.737.731l1.078.155c.541.078.771.167 1.003.386.245.217.36.552.36.951 0 .886-.694 1.4-1.891 1.4-.936 0-1.669-.204-2.337-.874l-.926.913c.875.888 1.864 1.209 3.239 1.209 1.915 0 3.29-1.003 3.29-2.687 0-.785-.244-1.441-.744-1.876-.387-.347-.863-.553-1.711-.681M39.314 71.371l-1.041-.154c-.425-.065-.797-.219-1.027-.424-.245-.22-.348-.516-.348-.849 0-.809.592-1.427 1.671-1.427.772 0 1.427.168 1.992.706l.886-.873c-.783-.734-1.631-1.041-2.84-1.041-1.902 0-3.059 1.092-3.059 2.686 0 .746.218 1.324.669 1.749.398.372.988.628 1.736.731l1.078.155c.542.078.771.167 1.003.386.245.217.36.552.36.951 0 .886-.693 1.4-1.89 1.4-.937 0-1.669-.204-2.338-.874l-.926.913c.875.888 1.864 1.209 3.239 1.209 1.915 0 3.29-1.003 3.29-2.687 0-.785-.244-1.441-.744-1.876-.387-.347-.862-.553-1.711-.681M52.19 73.389c0 1.221-.76 1.979-1.902 1.979-1.145 0-1.889-.758-1.889-1.979v-6.003H47.01v6.067c0 1.89 1.414 3.163 3.278 3.163 1.863 0 3.29-1.273 3.29-3.163v-6.067H52.19v6.003ZM60.733 71.499v-2.865h2.058c.925 0 1.554.54 1.554 1.437 0 .901-.629 1.428-1.554 1.428h-2.058Zm5-1.439c0-1.556-1.104-2.674-2.84-2.674h-3.547v9.151h1.387v-3.856h1.736l1.928 3.856h1.62l-2.108-4.048c1.029-.283 1.824-1.118 1.824-2.429M72.712 73.518l1.427-4.062 1.388 4.062h-2.815Zm.835-6.132-3.355 9.152h1.479l.63-1.837h3.611l.631 1.837h1.478l-3.356-9.152h-1.118ZM88.338 73.813l-4.229-6.427h-1.272v9.152h1.389v-6.44l4.227 6.44h1.274v-9.152h-1.389v6.427ZM98.594 68.555c1.014 0 1.631.644 1.85 1.569h1.414c-.323-1.826-1.582-2.814-3.264-2.814-.951 0-1.775.347-2.404.975-.901.901-.887 1.916-.887 3.677 0 1.761-.014 2.777.887 3.675.629.631 1.453.979 2.404.979 1.656 0 2.953-.992 3.264-2.816h-1.401c-.218.925-.849 1.567-1.863 1.567-.541 0-1.029-.204-1.352-.551-.449-.49-.552-1.016-.552-2.854s.103-2.366.552-2.854c.323-.346.811-.553 1.352-.553M107.227 76.537h5.85V75.29h-4.461v-2.749h3.804v-1.235h-3.804v-2.672h4.461v-1.248h-5.85v9.151ZM121.762 71.371l-1.041-.154c-.424-.065-.797-.219-1.027-.424-.246-.22-.348-.516-.348-.849 0-.809.59-1.427 1.67-1.427.771 0 1.428.168 1.992.706l.887-.873c-.785-.734-1.631-1.041-2.84-1.041-1.904 0-3.059 1.092-3.059 2.686 0 .746.219 1.324.668 1.749.399.372.989.628 1.735.731l1.08.155c.539.078.771.167 1.004.386.244.217.357.552.357.951 0 .886-.693 1.4-1.889 1.4-.939 0-1.669-.204-2.339-.874l-.924.913c.873.888 1.863 1.209 3.238 1.209 1.914 0 3.291-1.003 3.291-2.687 0-.785-.244-1.441-.746-1.876-.387-.347-.861-.553-1.709-.681M139.049 11.246l-7.428 7.429v14.86l14.854-.006 7.299-7.298h-14.725V11.246Z" style="fill:#fff;fill-rule:nonzero"/><path style="fill:#fff" d="M146.344 11.246h7.43v7.429h-7.43z"/></svg>