<svg viewBox="0 0 79 55" xmlns="http://www.w3.org/2000/svg" xml:space="preserve" style="fill-rule:evenodd;clip-rule:evenodd;stroke-linejoin:round;stroke-miterlimit:2"><path d="M1.47 23.97c0-.942-.042-.953-1.401-1.098v-.246l2.942-.258v6.296c0 .839 0 .839.937.839h1.206c.882 0 1.652-.044 1.652-1.097h.392l-.042 1.624H1.47v-6.06ZM10.012 27.173h3.097l-1.598-3.271-1.499 3.271Zm.63-3.248c.084-.19.24-.582.24-.66 0-.449-.519-.46-1.079-.528v-.245h2.633l3.416 7.539h-1.456l-1.05-2.331H9.775l-1.051 2.331h-.868l2.786-6.106ZM17.282 23.924c0-1.042-.197-.997-1.401-1.187v-.246h2.955l4.411 6.094h.029v-6.094h.882v7.539h-1.345l-4.622-6.374h-.027v6.374h-.882v-6.106ZM28.107 28.764c0 .436 0 .74.966.74 2.549 0 3.11-.976 3.11-3.238 0-1.984-.294-3.248-2.927-3.248-.813 0-1.149.077-1.149.605v5.141Zm-1.54-4.75c0-1.109-.042-1.109-1.33-1.276v-.246h3.879c2.661 0 4.607.581 4.607 3.751 0 3.541-2.338 3.788-5.07 3.788h-2.086v-6.017ZM35.656 24.014c0-1.109-.043-1.109-1.33-1.276v-.247h6.708l.042 1.658h-.393c0-.896-.587-1.132-1.511-1.132h-1.093c-.701 0-.882.045-.882.583v2.229h1.695c.965 0 1.064-.494 1.147-.862h.393v2.351h-.393c0-.604-.308-.963-1.147-.963h-1.695v2.498c0 .628.181.651.882.651h1.555c.798 0 1.176-.223 1.26-1.098h.392l-.043 1.625h-5.587v-6.017ZM42.771 23.924c-.294-1.018-.421-1.008-1.582-1.187v-.246h2.534l1.849 6.105h.028l2.211-6.105h.967l2.52 6.105h.028l1.54-6.105h.911l-1.975 7.539h-1.33l-2.436-5.97h-.028l-2.156 5.97h-1.303l-1.778-6.106Z" style="fill:#231f20;fill-rule:nonzero"/><path d="m57.488 26.512-2.256-3.025c-.49-.659-.84-.659-1.541-.75v-.246h2.606l2.38 3.304 2.451-3.304h.896l-2.996 4.021v3.518h-1.54v-3.518ZM69.739 29.739c-.351.11-1.483.415-2.871.415-2.871 0-3.976-1.469-3.976-3.977 0-2.072.77-3.809 3.893-3.809 2.184 0 3.037.76 3.193 1.658h-1.681c-.071-.37-.364-1.131-1.639-1.131-1.917 0-2.226 1.848-2.226 3.001 0 1.254.169 3.73 2.871 3.73 1.217 0 2.073-.391 2.436-.603v.716ZM71.517 23.97c0-.884-.111-.985-1.4-1.098v-.246l2.941-.258v3.73h.029l3.471-3.607h1.022l-3.178 3.293 3.753 4.246h-1.792l-3.276-3.798h-.029v3.798h-1.541v-6.06Z" style="fill:#231f20;fill-rule:nonzero"/><path style="fill:#231f20" d="M.329 33.848h29.793v.536H.329zM48.108 33.848h29.787v.536H48.108z"/><path d="M56.937 15.27c-2.779-.333-5.641-1.085-8.519-1.234.616-.151-.299-1.126-.807-1.215a53.46 53.46 0 0 0-4.419-.579l.45 4.265h13.977c.901-.054-.02-1.156-.682-1.237M35.306 12.242a54.01 54.01 0 0 0-4.422.58c-.508.089-1.422 1.064-.805 1.214-2.88.148-5.741.901-8.521 1.234-.662.08-1.583 1.184-.682 1.237h13.98l.45-4.265ZM61.281 17.724c-4.179-.334-8.419-.648-12.651-.691a508.888 508.888 0 0 1-4.94-.078l.215 2.028 16.543.002 1.248-.011c1.3-.018.583-1.169-.415-1.25M34.592 18.984l.214-2.029c-1.717.034-3.287.063-4.941.079-4.233.042-8.472.355-12.652.691-1 .079-1.716 1.231-.416 1.249l1.248.012 16.547-.002Z" style="fill:#f8992c;fill-rule:nonzero"/><path style="fill:#005d86" d="M37.598 9.337h1.286v1.939h-1.286zM37.598 14.569h1.286v1.939h-1.286z"/><path d="M44.074 18.984 42.618 5.203h-6.739l-.106 1.161s4.84-.04 4.84 4.166l.343 8.454h3.118ZM35.879 2.101h6.738L39.248.203l-3.369 1.898Z" style="fill:#005d86;fill-rule:nonzero"/><path d="m25.87 1.422 9.999 1.487v-.722l-9.981-.915-.018.15ZM35.788 3.254l-12.819 1.24.011.152 12.89-.679v-.721l-.082.008ZM35.771 4.455l-14.91 4.84.044.145 14.966-4.274v-.745l-.1.034ZM42.694 2.181l-.068.007v.721l9.998-1.487-.018-.15-9.912.909ZM42.626 3.33v.638l12.89.679.009-.153-12.899-1.248v.084ZM42.626 4.527v.64L57.59 9.44l.043-.144-15.007-4.874v.105Z" style="fill:#f8992c;fill-rule:nonzero"/><path d="m35.923 9.386-1.016 9.6-.481-.051 1.017-9.599.48.05Z" style="fill:#005d86"/><path d="M34.397 35.09v-3.063h-.235l-1.093.448-.02.008v.221l.08-.016c.102-.021.206-.044.302-.044.255 0 .301.123.301.367v2.079c0 .426-.082.507-.52.507h-.032v.196h1.775v-.196h-.032c-.42 0-.526-.061-.526-.507M37.749 33.85c.406-.11.628-.421.628-.888 0-.843-.858-.935-1.227-.935-.457 0-1.227.121-1.227.935 0 .447.212.744.629.883-.487.135-.687.415-.687.941 0 .707.433 1.067 1.285 1.067.867 0 1.286-.35 1.286-1.067 0-.513-.2-.791-.687-.936m-.599 1.688c-.473 0-.573-.409-.573-.752 0-.408.069-.786.573-.786.398 0 .574.242.574.786 0 .281-.074.752-.574.752m0-3.196c.425 0 .515.338.515.62 0 .493-.164.724-.515.724-.425 0-.515-.394-.515-.724 0-.416.169-.62.515-.62M41.508 32.086h-.625l-1.751 2.45-.005.009v.322h1.717v.223c0 .383-.035.507-.437.507h-.033v.196h1.604v-.196h-.032c-.403 0-.438-.124-.438-.507v-.223h.606v-.471h-.606v-2.31Zm-1.816 2.31 1.152-1.565v1.565h-1.152ZM42.779 32.086v.963h.235l.002-.029c.031-.407.212-.56.669-.56h.807l-1.348 3.289-.018.044h.794l1.369-3.334.003-.373h-2.513Z" style="fill:#231f20;fill-rule:nonzero"/><path d="M41.192 45.585c.375-.374.721-.794 1.298-.813a8.293 8.293 0 0 1 1.241-.006c.387.023.779.044 1.164.105.232.036 1.268.112 1.303.419-.1.264-.454.397-.312.692l.096.025c.318-.162 1.348-.696.701-1.089-.416-.252-.995-.305-1.464-.388-.395-.068-.8-.118-1.201-.142-.239-.015-.48-.04-.719-.043-.152-.004-.61.065-.714-.065.32-.277.636-.556.952-.834.149-.132.29-.263.431-.403.167-.166.237-.27.225-.508 0-.513-.91.251-1.034.354-.307.255-.6.528-.901.791-.235.207-.491.488-.783.605-.197.077-.538-.009-.762-.014-1.491-.031-2.336-.053-3.825-.053-.29 0-2.561-.06-2.511.32-.038.244.763.123.912.114.265-.017.526-.031.791-.019.681.03 1.356.025 2.038.015 1.17-.018 1.704.048 2.873.096-.058.235-.328.458-.489.63a4.843 4.843 0 0 1-.537.506l-.85.661c-.401.313-.867.561-1.309.81l-.127.063c-.698.432-1.451.852-2.274.977-.14.021-.543.098-.543-.157 0-.234.21-.506.356-.677.351-.413.812-.642 1.332-.753-.434.232-.013.613.335.499.312-.103.64-.605.264-.842a.577.577 0 0 0-.323-.098c0 .021-.011.001-.011.001-.755.113-1.533.326-2.03.956-.266.337-.897 1.334-.098 1.455.527.079 1.018-.053 1.499-.271.502-.23.991-.451 1.451-.756l.003.002c.473-.268.74-.417.902-.518.192-.119.387-.238.59-.337-.487.655-1.058 1.221-1.637 1.792-.192.189-1.095.8-.561 1.046.244-.008.472-.241.665-.369.213-.143.385-.322.571-.5.345-.329.671-.685.984-1.047.662-.759 1.344-1.5 2.038-2.232" style="fill:#005d86;fill-rule:nonzero"/><path d="M48.237 47.553c-.223-.077-.638.257-.845.358-.205.1-.711.196-.709-.178.174-.16.459-.229.66-.355.233-.146.456-.355.651-.549.206-.206.247-.441.014-.654-.27-.251-.763-.237-1.063-.041-.235.154-.408.424-.589.636-.143.164-.166.399-.309.566-.387.451-1.003.721-1.571.86.13-.429.519-.626.444-1.121-.023-.155-.123-.283-.165-.431-.046-.168-.039-.46-.289-.46 0 .022-.008 0-.008 0-.324.019-.422.455-.534.708-.116.259-.439.49-.654.664l-.031-.014c-.069.036-.799.493-.831.37-.086-.273.215-.62.351-.837.122-.194.419-.472.404-.712-.096-.082-.187-.109-.306-.145-.197.066-.272.283-.391.432-.121.151-.274.29-.419.417-.175.152-.343.307-.534.44-.197.139-.518.442-.779.37l-.017-.04c.014-.214.285-.46.429-.604.171-.17.314-.325.452-.522-.185-.135-.376-.213-.559-.002-.119.107-.23.227-.347.336a5.102 5.102 0 0 1-.378.328c-.109.085-.335.19-.329.353l.072.077c.04.004.081 0 .119-.015-.101.276-.106.474.127.63.625-.159 1.118-.453 1.668-.787-.131.297-.252.74.158.866.367-.151.682-.366 1.007-.59.162.054.402-.172.52-.266.167-.136.37-.437.58-.486.046 0 .127.055.133.103a4.176 4.176 0 0 1-.288.613c-.116.208-.459.586-.28.811.289.441 1.062-.165 1.345-.323.308-.174.616-.493.976-.463.163.465.632.602 1.071.465.218-.067 1.236-.517 1.044-.808m-1.002-1.009c.101.011.192.005.264.088.008.256-.636.533-.808.591 0-.246.295-.65.544-.679M55.928 47.553c-.223-.077-.639.257-.845.358-.205.1-.712.196-.709-.178.142-.131.39-.21.561-.299.227-.119.448-.319.638-.493.132-.123.316-.287.291-.483-.038-.3-.342-.436-.61-.458-.533-.044-1.005.387-1.253.841-.088.161-.139.377-.276.506-.172.161-.498.342-.452.604.189-.035.349-.072.54-.055.163.465.631.602 1.07.465.218-.067 1.236-.517 1.045-.808m-1.002-1.009c.101.011.192.005.264.088.008.256-.636.533-.809.591 0-.246.295-.65.545-.679M73.14 47.506c-.698.432-1.45.851-2.274.977-.14.022-.543.097-.543-.159 0-.232.21-.505.356-.676.351-.411.813-.64 1.333-.751-.435.23-.014.613.335.498.311-.103.64-.604.264-.841a.566.566 0 0 0-.324-.1c0 .022-.01 0-.01 0-.802.123-1.562.363-2.083 1.024-.207.263-.488.632-.436.986.048.327.346.396.626.437.534.082 1.142-.251 1.608-.464.443-.202 1.127-.433 1.341-.886l-.193-.045ZM55.143 44.452c.112-.429.091-.685-.099-1.085-.106-.224-.776-.083-.552.216.195.262.089.628.003.909-.204.676-.586 1.194-1.057 1.719-.36.403-.728.812-1.134 1.167-.48.423-1.469.892-1.655.886-.202-.049-.09-.923 1.82-1.494.04-.012.055-.141.03-.168-.196-.198-.538-.003-.8.074-.363.105-.618.242-.93.409-.305.165-.547.534-.712.888-.208.439-.082 1.014.496.876.566-.134 1.262-.504 1.704-.878.553-.47 1.093-.945 1.59-1.473.455-.488.956-.987 1.168-1.635l.127-.411ZM69.912 47.578l-.017-.035c-.341-.07-.656.39-1.033.352.049-.269.09-.502.261-.726.173-.226.338-.353.117-.614-.174-.03-.269.004-.402.114-.023-.083-.061-.159-.095-.239a.54.54 0 0 0-.201-.053l-.027.003c-.635.19-1.36.636-1.733 1.19-.141.016-.238.129-.365.182-.118.04-.261.041-.384.059.173-.281.403-.525.489-.85a.818.818 0 0 0 .008-.428c-.065-.235-.234-.239-.449-.234.29-.312.58-.625.888-.92.034.029.371.167.373.201-.1.263-.56.289-.417.584l.096.026c.197-.1.423-.198.589-.346.135-.119.318-.242.318-.444 0-.199-.42-.329-.592-.373.341-.33.699-.64 1.039-.97.205-.202 1.198-.827.557-1.037-.14-.046-.446.155-.544.238-.21.18-.406.368-.605.558-.345.331-.664.685-.989 1.034-.56-.169-1.196-.199-1.774-.265-.275-.032-.554-.038-.831-.054-.175-.01-.661.075-.775-.068.319-.278.636-.555.953-.835.146-.131.288-.262.429-.402.168-.165.238-.27.225-.509 0-.513-.908.252-1.034.356-.306.255-.599.526-.899.79-.235.208-.493.49-.784.606-.198.076-.539-.009-.763-.014l-.837-.015.001-.003a64.467 64.467 0 0 1-.739-.01l-.55-.009v.001c-.213-.002-.425-.004-.627-.004-.291 0-2.561-.06-2.511.319-.039.243.763.124.912.114.264-.018.525-.03.791-.019.526.023 1.047.023 1.573.019.755.018 1.51.049 2.265.078-.063.264-.384.525-.568.713a5.078 5.078 0 0 1-.515.469l-.867.673c-.242.19-.53.336-.79.5-.107.068-.857.399-.611.56.208.125.74-.326.903-.425.191-.119.386-.238.588-.338-.485.655-1.055 1.223-1.636 1.792-.192.19-1.094.8-.56 1.047.163-.006.273-.11.405-.199.142-.093.315-.178.439-.296.248-.236.501-.469.732-.722.507-.55.999-1.116 1.504-1.669.485-.529.972-1.056 1.48-1.564.322-.322.639-.494 1.11-.516.357-.02.708-.03 1.066-.006.651.039 1.344.062 1.973.248l-.729.78c-.252.269-.557.537-.753.852-.267.429-.86 1.13-1.444 1.07.049-.269.089-.502.26-.726.173-.226.337-.353.117-.614-.175-.03-.268.004-.402.114-.023-.083-.061-.159-.096-.239a.535.535 0 0 0-.2-.053l-.027.003c-.711.213-1.401.698-1.813 1.309-.337.496.28.815.704.688.404-.122.68-.466 1.014-.7-.085.335-.12.768.367.659.25-.058.565-.192.761-.358.037.212-.126.392-.167.589-.033.168-.036.348.001.516.109.069.213.127.332.18a4.9 4.9 0 0 0 1.089-.782c.183-.169.314-.301.566-.336a1.32 1.32 0 0 0 .547-.187c-.059.402.601.513.873.399.371-.157.629-.456.949-.68-.045.172-.141.413-.013.561.179.208.382.098.603.021.172-.059 1.015-.44.901-.681m-7.948.319c-.048 0 .111-.409.325-.571.262-.196.688-.392.857-.305l.001.008c-.042.314-.857.868-1.183.868m3.293.143c-.13.217-.413.585-.685.602-.117-.229.398-.958.436-1.017-.006.008-.013.014-.018.022.019-.025.024-.03.018-.022.831-1.053 1.45-.498.249.415m2.028-.141c-.05 0 .108-.409.324-.57.262-.196.688-.393.857-.306l.001.009c-.042.313-.858.867-1.182.867M34.569 47.716l-.017-.034c-.343-.065-.651.401-1.027.369.044-.269.081-.503.248-.729.17-.23.331-.36.107-.618-.175-.024-.269.01-.401.122-.024-.082-.063-.158-.099-.237a.517.517 0 0 0-.202-.049l-.027.003c-.551.176-1.337.611-1.646 1.118-.386.11-1.906.779-1.953.048.582-.751 1.249-1.269 1.951-1.901.743-.667 1.036-1.061 1.79-1.634l.062-.308c-.136-.462-1.392.667-1.561.809-.452.382-.493.756-.949 1.134-.27.222-.443.449-.725.657-.28.207-.436.425-.756.567-.173.078-.34.103-.511.19-.28.14-.555.219-.856.308-.231.069-.534.137-.528.44-.051.034-.499.327-.531.212-.089-.271.205-.623.338-.843.118-.196.409-.478.391-.719-.097-.08-.189-.104-.309-.139-.194.069-.266.288-.383.439a3.444 3.444 0 0 1-.413.424c-.171.155-.338.312-.524.449-.196.142-.512.452-.774.384l-.017-.04c.01-.214.277-.465.419-.611.167-.173.307-.331.442-.53-.095-.068-.191-.147-.318-.135-.185.003-.299.225-.421.337-.224.205-.441.406-.678.599a2.77 2.77 0 0 1-.607.358c-.21.099-.691.4-.915.3.069-.384.42-.722.589-1.076l-.049-.155c-.017-.046-.066-.121-.205-.12a2.752 2.752 0 0 0-.419.195c-.227.139-.491.388-.757.418.123-.237.446-.881-.116-.871 0 .021-.022.004-.022.004-.511.178-.992.448-1.454.726-.376.225-.967.761-1.43.722.044-.268.082-.504.249-.729.169-.229.331-.361.107-.618-.176-.025-.269.011-.401.123-.024-.084-.064-.158-.1-.237a.536.536 0 0 0-.201-.05l-.027.004c-.649.207-1.358.674-1.73 1.246.032-.06-.025.038-.025.038-.195.261-.182.516.103.665.154.08.352.137.521.084.428-.138.708-.481 1.06-.734-.08.335-.099.797.395.646a2.88 2.88 0 0 0 .859-.454c.225-.17.522-.291.768-.434.27-.155.546-.346.853-.424a.07.07 0 0 1 .03.06c.003.12-.297.34-.38.421-.112.111-.225.22-.342.326-.258.236-.94.71-.219.791.137.016.369-.202.479-.271.179-.108.362-.208.548-.302.196-.098.633-.507.865-.427.039.181-.179.291-.197.466.008.47.443.425.77.361.493-.098.981-.435 1.401-.702-.079.265-.072.434.152.579.62-.171 1.11-.474 1.653-.815-.127.297-.239.743.173.86.292-.126.549-.288.809-.472.016.206.04.424-.03.623-.112.318-.491.796-.798 1.065-.24.208-.607.597-.835.82a9.096 9.096 0 0 0-1.049 1.219c-.198.283-.994 1.462-1.047 1.73.035.57.636.072.817-.093.276-.252 1.254-1.081 1.384-1.206.761-.735 1.145-1.697 1.337-2.039.154-.276.296-.556.455-.83.167-.288.712-.747.925-.986.095-.106.163-.265.291-.34.158-.092.331-.001.494.042.58.152 1.317-.049 1.865-.259-.157.482.506.602.836.498.38-.122.644-.475.955-.703-.041.175-.133.414-.002.562.182.205.384.091.603.01.172-.063 1.008-.458.889-.697m-15.697-.217c-.102.254-.377.458-.66.608a1.496 1.496 0 0 1-.375.177l-.111.045c-.006 0-.003-.011.007-.027h-.004c-.05.002.105-.44.323-.617.265-.216.699-.433.873-.344l.002.009a.402.402 0 0 1-.055.149m7.438 4.003c-.155.245-.544.663-.744.877-.217.231-.858.765-1.155.889.1-.276.568-1.101 1.17-1.732.627-.656 1.117-1.151 1.393-1.351-.059.445-.496 1.053-.664 1.317m1.646-3.005c-.222-.351.243-.463.454-.539a.108.108 0 0 1 .066.066 1.416 1.416 0 0 1-.52.473m4.058-.444a1.465 1.465 0 0 0-.07.029c-.013-.001.018-.047.069-.11.036-.136.162-.407.322-.535.265-.216.699-.434.874-.346l.001.009c-.037.338-.861.945-1.196.953" style="fill:#005d86;fill-rule:nonzero"/><path d="M16.673 47.125c.428-.531.909-1.031 1.302-1.584.15-.209.33-.453.347-.698.021-.296-.369-.205-.598-.19-.752.047-1.367.287-2.006.59-.183.085-1.876 1.107-1.868 1.135.151-.194.487-.642.587-.795.182-.279.357-.561.54-.841.266-.411.55-1.132-.263-1.095-.757.032-1.392.52-2.049.895-.665.381-1.671 1.3-2.2 1.841.498-.769 1.415-1.953 1.923-2.717.235-.351.512-.791.442-1.189-.074-.423-.739-.318-1.109-.262-1.769.268-3.514 1.433-4.896 2.504-.682.531-1.463 1.133-1.934 1.837-.006.288.662.14.742-.009.182-.339.55-.65.837-.919a14.587 14.587 0 0 1 2.476-1.831c.818-.483 2.228-1.246 2.856-1.154.439.465-4.053 6.746-4.157 6.9-.132.196-.008.207.163.315.095.059.185.08.307.076.201-.004.221-.211.298-.368.161-.327.328-.653.537-.962.395-.584.829-1.188 1.35-1.691a15.27 15.27 0 0 1 1.863-1.506 8.798 8.798 0 0 1 1.103-.626c.281-.143.838-.457 1.156-.454-.037.339-.349.777-.527 1.083-.261.449-.634.886-.933 1.319-.263.381-.533.759-.81 1.131-.119.159-.267.34-.391.497-.132.169-.117.247-.027.398.193.324.515-.331.695-.568.286-.377.47-.703.853-.988.722-.534 1.169-.939 2.005-1.283.398-.164 1.189-.518 1.671-.576.491-.06.416.197.26.424-.376.55-1.007 1.201-1.391 1.747-.258.365-.881 1.219-.345 1.534.594.349 1.866-.734 2.28-1.112-.135-.242-.642.268-.749.353-.274.221-.65.489-1.012.442-.575-.075.503-1.394.672-1.603.247-.307-.375.464 0 0" style="fill:#005d86;fill-rule:nonzero"/></svg>