<?xml version="1.0" encoding="UTF-8" standalone="no"?><!DOCTYPE svg PUBLIC "-//W3C//DTD SVG 1.1//EN" "http://www.w3.org/Graphics/SVG/1.1/DTD/svg11.dtd"><svg width="100%" height="100%" viewBox="0 0 79 55" version="1.1" xmlns="http://www.w3.org/2000/svg" xmlns:xlink="http://www.w3.org/1999/xlink" xml:space="preserve" xmlns:serif="http://www.serif.com/" style="fill-rule:evenodd;clip-rule:evenodd;stroke-linejoin:round;stroke-miterlimit:2;"><g><path d="M1.47,23.97c0,-0.942 -0.042,-0.953 -1.401,-1.098l0,-0.246l2.942,-0.258l0,6.296c0,0.839 0,0.839 0.937,0.839l1.206,0c0.882,0 1.652,-0.044 1.652,-1.097l0.392,0l-0.042,1.624l-5.686,0l0,-6.06Z" style="fill:#231f20;fill-rule:nonzero;"/><path d="M10.012,27.173l3.097,0l-1.598,-3.271l-1.499,3.271Zm0.63,-3.248c0.084,-0.19 0.24,-0.582 0.24,-0.66c0,-0.449 -0.519,-0.46 -1.079,-0.528l0,-0.245l2.633,0l3.416,7.539l-1.456,0l-1.05,-2.331l-3.571,0l-1.051,2.331l-0.868,0l2.786,-6.106Z" style="fill:#231f20;fill-rule:nonzero;"/><path d="M17.282,23.924c0,-1.042 -0.197,-0.997 -1.401,-1.187l0,-0.246l2.955,0l4.411,6.094l0.029,0l0,-6.094l0.882,0l0,7.539l-1.345,0l-4.622,-6.374l-0.027,0l0,6.374l-0.882,0l0,-6.106Z" style="fill:#231f20;fill-rule:nonzero;"/><path d="M28.107,28.764c0,0.436 0,0.74 0.966,0.74c2.549,0 3.11,-0.976 3.11,-3.238c0,-1.984 -0.294,-3.248 -2.927,-3.248c-0.813,0 -1.149,0.077 -1.149,0.605l0,5.141Zm-1.54,-4.75c0,-1.109 -0.042,-1.109 -1.33,-1.276l0,-0.246l3.879,0c2.661,0 4.607,0.581 4.607,3.751c0,3.541 -2.338,3.788 -5.07,3.788l-2.086,0l0,-6.017Z" style="fill:#231f20;fill-rule:nonzero;"/><path d="M35.656,24.014c0,-1.109 -0.043,-1.109 -1.33,-1.276l0,-0.247l6.708,0l0.042,1.658l-0.393,0c0,-0.896 -0.587,-1.132 -1.511,-1.132l-1.093,0c-0.701,0 -0.882,0.045 -0.882,0.583l0,2.229l1.695,0c0.965,0 1.064,-0.494 1.147,-0.862l0.393,0l0,2.351l-0.393,0c0,-0.604 -0.308,-0.963 -1.147,-0.963l-1.695,0l0,2.498c0,0.628 0.181,0.651 0.882,0.651l1.555,0c0.798,0 1.176,-0.223 1.26,-1.098l0.392,0l-0.043,1.625l-5.587,0l0,-6.017Z" style="fill:#231f20;fill-rule:nonzero;"/><path d="M42.771,23.924c-0.294,-1.018 -0.421,-1.008 -1.582,-1.187l0,-0.246l2.534,0l1.849,6.105l0.028,0l2.211,-6.105l0.967,0l2.52,6.105l0.028,0l1.54,-6.105l0.911,0l-1.975,7.539l-1.33,0l-2.436,-5.97l-0.028,0l-2.156,5.97l-1.303,0l-1.778,-6.106Z" style="fill:#231f20;fill-rule:nonzero;"/><path d="M57.488,26.512l-2.256,-3.025c-0.49,-0.659 -0.84,-0.659 -1.541,-0.75l0,-0.246l2.606,0l2.38,3.304l2.451,-3.304l0.896,0l-2.996,4.021l0,3.518l-1.54,0l0,-3.518Z" style="fill:#231f20;fill-rule:nonzero;"/><path d="M69.739,29.739c-0.351,0.11 -1.483,0.415 -2.871,0.415c-2.871,0 -3.976,-1.469 -3.976,-3.977c0,-2.072 0.77,-3.809 3.893,-3.809c2.184,0 3.037,0.76 3.193,1.658l-1.681,0c-0.071,-0.37 -0.364,-1.131 -1.639,-1.131c-1.917,0 -2.226,1.848 -2.226,3.001c0,1.254 0.169,3.73 2.871,3.73c1.217,0 2.073,-0.391 2.436,-0.603l0,0.716Z" style="fill:#231f20;fill-rule:nonzero;"/><path d="M71.517,23.97c0,-0.884 -0.111,-0.985 -1.4,-1.098l0,-0.246l2.941,-0.258l0,3.73l0.029,0l3.471,-3.607l1.022,0l-3.178,3.293l3.753,4.246l-1.792,0l-3.276,-3.798l-0.029,0l0,3.798l-1.541,0l0,-6.06Z" style="fill:#231f20;fill-rule:nonzero;"/><rect x="0.329" y="33.848" width="29.793" height="0.536" style="fill:#231f20;"/><rect x="48.108" y="33.848" width="29.787" height="0.536" style="fill:#231f20;"/><path d="M56.937,15.27c-2.779,-0.333 -5.641,-1.085 -8.519,-1.234c0.616,-0.151 -0.299,-1.126 -0.807,-1.215c-1.381,-0.242 -2.803,-0.431 -4.419,-0.579l0.45,4.265l13.977,0c0.901,-0.054 -0.02,-1.156 -0.682,-1.237" style="fill:#f8992c;fill-rule:nonzero;"/><path d="M35.306,12.242c-1.618,0.15 -3.038,0.337 -4.422,0.58c-0.508,0.089 -1.422,1.064 -0.805,1.214c-2.88,0.148 -5.741,0.901 -8.521,1.234c-0.662,0.08 -1.583,1.184 -0.682,1.237l13.98,0l0.45,-4.265Z" style="fill:#f8992c;fill-rule:nonzero;"/><path d="M61.281,17.724c-4.179,-0.334 -8.419,-0.648 -12.651,-0.691c-1.654,-0.016 -3.222,-0.045 -4.94,-0.078l0.215,2.028l16.543,0.002c0.416,-0.004 0.833,-0.007 1.248,-0.011c1.3,-0.018 0.583,-1.169 -0.415,-1.25" style="fill:#f8992c;fill-rule:nonzero;"/><path d="M34.592,18.984l0.214,-2.029c-1.717,0.034 -3.287,0.063 -4.941,0.079c-4.233,0.042 -8.472,0.355 -12.652,0.691c-1,0.079 -1.716,1.231 -0.416,1.249c0.416,0.005 0.832,0.008 1.248,0.012l16.547,-0.002Z" style="fill:#f8992c;fill-rule:nonzero;"/><rect x="37.598" y="9.337" width="1.286" height="1.939" style="fill:#005d86;"/><rect x="37.598" y="14.569" width="1.286" height="1.939" style="fill:#005d86;"/><path d="M44.074,18.984l-1.456,-13.781l-6.739,0l-0.106,1.161c0,0 4.84,-0.04 4.84,4.166l0.343,8.454l3.118,0Z" style="fill:#005d86;fill-rule:nonzero;"/><path d="M35.879,2.101l6.738,0l-3.369,-1.898l-3.369,1.898Z" style="fill:#005d86;fill-rule:nonzero;"/><path d="M25.87,1.422l9.999,1.487l0,-0.722l-9.981,-0.915l-0.018,0.15Z" style="fill:#f8992c;fill-rule:nonzero;"/><path d="M35.788,3.254l-12.819,1.24l0.011,0.152l12.89,-0.679l0,-0.721l-0.082,0.008Z" style="fill:#f8992c;fill-rule:nonzero;"/><path d="M35.771,4.455l-14.91,4.84l0.044,0.145l14.966,-4.274l0,-0.745l-0.1,0.034Z" style="fill:#f8992c;fill-rule:nonzero;"/><path d="M42.694,2.181l-0.068,0.007l0,0.721l9.998,-1.487l-0.018,-0.15l-9.912,0.909Z" style="fill:#f8992c;fill-rule:nonzero;"/><path d="M42.626,3.33l0,0.638l12.89,0.679l0.009,-0.153l-12.899,-1.248l0,0.084Z" style="fill:#f8992c;fill-rule:nonzero;"/><path d="M42.626,4.527l0,0.64l14.964,4.273l0.043,-0.144l-15.007,-4.874l0,0.105Z" style="fill:#f8992c;fill-rule:nonzero;"/><path d="M35.923,9.386l-1.016,9.6l-0.481,-0.051l1.017,-9.599l0.48,0.05Z" style="fill:#005d86;"/><path d="M34.397,35.09l0,-3.063l-0.235,0l-1.093,0.448l-0.02,0.008l0,0.221l0.08,-0.016c0.102,-0.021 0.206,-0.044 0.302,-0.044c0.255,0 0.301,0.123 0.301,0.367l0,2.079c0,0.426 -0.082,0.507 -0.52,0.507l-0.032,0l0,0.196l1.775,0l0,-0.196l-0.032,0c-0.42,0 -0.526,-0.061 -0.526,-0.507" style="fill:#231f20;fill-rule:nonzero;"/><path d="M37.749,33.85c0.406,-0.11 0.628,-0.421 0.628,-0.888c0,-0.843 -0.858,-0.935 -1.227,-0.935c-0.457,0 -1.227,0.121 -1.227,0.935c0,0.447 0.212,0.744 0.629,0.883c-0.487,0.135 -0.687,0.415 -0.687,0.941c0,0.707 0.433,1.067 1.285,1.067c0.867,0 1.286,-0.35 1.286,-1.067c0,-0.513 -0.2,-0.791 -0.687,-0.936m-0.599,1.688c-0.473,0 -0.573,-0.409 -0.573,-0.752c0,-0.408 0.069,-0.786 0.573,-0.786c0.398,0 0.574,0.242 0.574,0.786c0,0.281 -0.074,0.752 -0.574,0.752m0,-3.196c0.425,0 0.515,0.338 0.515,0.62c0,0.493 -0.164,0.724 -0.515,0.724c-0.425,0 -0.515,-0.394 -0.515,-0.724c0,-0.416 0.169,-0.62 0.515,-0.62" style="fill:#231f20;fill-rule:nonzero;"/><path d="M41.508,32.086l-0.625,0l-1.751,2.45l-0.005,0.009l0,0.322l1.717,0l0,0.223c0,0.383 -0.035,0.507 -0.437,0.507l-0.033,0l0,0.196l1.604,0l0,-0.196l-0.032,0c-0.403,0 -0.438,-0.124 -0.438,-0.507l0,-0.223l0.606,0l0,-0.471l-0.606,0l0,-2.31Zm-1.816,2.31l1.152,-1.565l0,1.565l-1.152,0Z" style="fill:#231f20;fill-rule:nonzero;"/><path d="M42.779,32.086l0,0.963l0.235,0l0.002,-0.029c0.031,-0.407 0.212,-0.56 0.669,-0.56l0.807,0l-1.348,3.289l-0.018,0.044l0.794,0l1.369,-3.334l0.003,-0.373l-2.513,0Z" style="fill:#231f20;fill-rule:nonzero;"/><path d="M41.192,45.585c0.375,-0.374 0.721,-0.794 1.298,-0.813c0.415,-0.034 0.827,-0.034 1.241,-0.006c0.387,0.023 0.779,0.044 1.164,0.105c0.232,0.036 1.268,0.112 1.303,0.419c-0.1,0.264 -0.454,0.397 -0.312,0.692l0.096,0.025c0.318,-0.162 1.348,-0.696 0.701,-1.089c-0.416,-0.252 -0.995,-0.305 -1.464,-0.388c-0.395,-0.068 -0.8,-0.118 -1.201,-0.142c-0.239,-0.015 -0.48,-0.04 -0.719,-0.043c-0.152,-0.004 -0.61,0.065 -0.714,-0.065c0.32,-0.277 0.636,-0.556 0.952,-0.834c0.149,-0.132 0.29,-0.263 0.431,-0.403c0.167,-0.166 0.237,-0.27 0.225,-0.508c0,-0.513 -0.91,0.251 -1.034,0.354c-0.307,0.255 -0.6,0.528 -0.901,0.791c-0.235,0.207 -0.491,0.488 -0.783,0.605c-0.197,0.077 -0.538,-0.009 -0.762,-0.014c-1.491,-0.031 -2.336,-0.053 -3.825,-0.053c-0.29,0 -2.561,-0.06 -2.511,0.32c-0.038,0.244 0.763,0.123 0.912,0.114c0.265,-0.017 0.526,-0.031 0.791,-0.019c0.681,0.03 1.356,0.025 2.038,0.015c1.17,-0.018 1.704,0.048 2.873,0.096c-0.058,0.235 -0.328,0.458 -0.489,0.63c-0.168,0.178 -0.344,0.356 -0.537,0.506c-0.284,0.221 -0.567,0.441 -0.85,0.661c-0.401,0.313 -0.867,0.561 -1.309,0.81l-0.127,0.063c-0.698,0.432 -1.451,0.852 -2.274,0.977c-0.14,0.021 -0.543,0.098 -0.543,-0.157c0,-0.234 0.21,-0.506 0.356,-0.677c0.351,-0.413 0.812,-0.642 1.332,-0.753c-0.434,0.232 -0.013,0.613 0.335,0.499c0.312,-0.103 0.64,-0.605 0.264,-0.842c-0.097,-0.064 -0.205,-0.098 -0.323,-0.098c0,0.021 -0.011,0.001 -0.011,0.001c-0.755,0.113 -1.533,0.326 -2.03,0.956c-0.266,0.337 -0.897,1.334 -0.098,1.455c0.527,0.079 1.018,-0.053 1.499,-0.271c0.502,-0.23 0.991,-0.451 1.451,-0.756c0.001,0 0.001,0.001 0.003,0.002c0.473,-0.268 0.74,-0.417 0.902,-0.518c0.192,-0.119 0.387,-0.238 0.59,-0.337c-0.487,0.655 -1.058,1.221 -1.637,1.792c-0.192,0.189 -1.095,0.8 -0.561,1.046c0.244,-0.008 0.472,-0.241 0.665,-0.369c0.213,-0.143 0.385,-0.322 0.571,-0.5c0.345,-0.329 0.671,-0.685 0.984,-1.047c0.662,-0.759 1.344,-1.5 2.038,-2.232" style="fill:#005d86;fill-rule:nonzero;"/><path d="M48.237,47.553c-0.223,-0.077 -0.638,0.257 -0.845,0.358c-0.205,0.1 -0.711,0.196 -0.709,-0.178c0.174,-0.16 0.459,-0.229 0.66,-0.355c0.233,-0.146 0.456,-0.355 0.651,-0.549c0.206,-0.206 0.247,-0.441 0.014,-0.654c-0.27,-0.251 -0.763,-0.237 -1.063,-0.041c-0.235,0.154 -0.408,0.424 -0.589,0.636c-0.143,0.164 -0.166,0.399 -0.309,0.566c-0.387,0.451 -1.003,0.721 -1.571,0.86c0.13,-0.429 0.519,-0.626 0.444,-1.121c-0.023,-0.155 -0.123,-0.283 -0.165,-0.431c-0.046,-0.168 -0.039,-0.46 -0.289,-0.46c0,0.022 -0.008,0 -0.008,0c-0.324,0.019 -0.422,0.455 -0.534,0.708c-0.116,0.259 -0.439,0.49 -0.654,0.664l-0.031,-0.014c-0.069,0.036 -0.799,0.493 -0.831,0.37c-0.086,-0.273 0.215,-0.62 0.351,-0.837c0.122,-0.194 0.419,-0.472 0.404,-0.712c-0.096,-0.082 -0.187,-0.109 -0.306,-0.145c-0.197,0.066 -0.272,0.283 -0.391,0.432c-0.121,0.151 -0.274,0.29 -0.419,0.417c-0.175,0.152 -0.343,0.307 -0.534,0.44c-0.197,0.139 -0.518,0.442 -0.779,0.37l-0.017,-0.04c0.014,-0.214 0.285,-0.46 0.429,-0.604c0.171,-0.17 0.314,-0.325 0.452,-0.522c-0.185,-0.135 -0.376,-0.213 -0.559,-0.002c-0.119,0.107 -0.23,0.227 -0.347,0.336c-0.125,0.118 -0.243,0.223 -0.378,0.328c-0.109,0.085 -0.335,0.19 -0.329,0.353l0.072,0.077c0.04,0.004 0.081,0 0.119,-0.015c-0.101,0.276 -0.106,0.474 0.127,0.63c0.625,-0.159 1.118,-0.453 1.668,-0.787c-0.131,0.297 -0.252,0.74 0.158,0.866c0.367,-0.151 0.682,-0.366 1.007,-0.59c0.162,0.054 0.402,-0.172 0.52,-0.266c0.167,-0.136 0.37,-0.437 0.58,-0.486c0.046,0 0.127,0.055 0.133,0.103c-0.077,0.216 -0.178,0.413 -0.288,0.613c-0.116,0.208 -0.459,0.586 -0.28,0.811c0.289,0.441 1.062,-0.165 1.345,-0.323c0.308,-0.174 0.616,-0.493 0.976,-0.463c0.163,0.465 0.632,0.602 1.071,0.465c0.218,-0.067 1.236,-0.517 1.044,-0.808m-1.002,-1.009c0.101,0.011 0.192,0.005 0.264,0.088c0.008,0.256 -0.636,0.533 -0.808,0.591c0,-0.246 0.295,-0.65 0.544,-0.679" style="fill:#005d86;fill-rule:nonzero;"/><path d="M55.928,47.553c-0.223,-0.077 -0.639,0.257 -0.845,0.358c-0.205,0.1 -0.712,0.196 -0.709,-0.178c0.142,-0.131 0.39,-0.21 0.561,-0.299c0.227,-0.119 0.448,-0.319 0.638,-0.493c0.132,-0.123 0.316,-0.287 0.291,-0.483c-0.038,-0.3 -0.342,-0.436 -0.61,-0.458c-0.533,-0.044 -1.005,0.387 -1.253,0.841c-0.088,0.161 -0.139,0.377 -0.276,0.506c-0.172,0.161 -0.498,0.342 -0.452,0.604c0.189,-0.035 0.349,-0.072 0.54,-0.055c0.163,0.465 0.631,0.602 1.07,0.465c0.218,-0.067 1.236,-0.517 1.045,-0.808m-1.002,-1.009c0.101,0.011 0.192,0.005 0.264,0.088c0.008,0.256 -0.636,0.533 -0.809,0.591c0,-0.246 0.295,-0.65 0.545,-0.679" style="fill:#005d86;fill-rule:nonzero;"/><path d="M73.14,47.506c-0.698,0.432 -1.45,0.851 -2.274,0.977c-0.14,0.022 -0.543,0.097 -0.543,-0.159c0,-0.232 0.21,-0.505 0.356,-0.676c0.351,-0.411 0.813,-0.64 1.333,-0.751c-0.435,0.23 -0.014,0.613 0.335,0.498c0.311,-0.103 0.64,-0.604 0.264,-0.841c-0.097,-0.066 -0.206,-0.1 -0.324,-0.1c0,0.022 -0.01,0 -0.01,0c-0.802,0.123 -1.562,0.363 -2.083,1.024c-0.207,0.263 -0.488,0.632 -0.436,0.986c0.048,0.327 0.346,0.396 0.626,0.437c0.534,0.082 1.142,-0.251 1.608,-0.464c0.443,-0.202 1.127,-0.433 1.341,-0.886l-0.193,-0.045Z" style="fill:#005d86;fill-rule:nonzero;"/><path d="M55.143,44.452c0.112,-0.429 0.091,-0.685 -0.099,-1.085c-0.106,-0.224 -0.776,-0.083 -0.552,0.216c0.195,0.262 0.089,0.628 0.003,0.909c-0.204,0.676 -0.586,1.194 -1.057,1.719c-0.36,0.403 -0.728,0.812 -1.134,1.167c-0.48,0.423 -1.469,0.892 -1.655,0.886c-0.202,-0.049 -0.09,-0.923 1.82,-1.494c0.04,-0.012 0.055,-0.141 0.03,-0.168c-0.196,-0.198 -0.538,-0.003 -0.8,0.074c-0.363,0.105 -0.618,0.242 -0.93,0.409c-0.305,0.165 -0.547,0.534 -0.712,0.888c-0.208,0.439 -0.082,1.014 0.496,0.876c0.566,-0.134 1.262,-0.504 1.704,-0.878c0.553,-0.47 1.093,-0.945 1.59,-1.473c0.455,-0.488 0.956,-0.987 1.168,-1.635l0.127,-0.411Z" style="fill:#005d86;fill-rule:nonzero;"/><path d="M69.912,47.578l-0.017,-0.035c-0.341,-0.07 -0.656,0.39 -1.033,0.352c0.049,-0.269 0.09,-0.502 0.261,-0.726c0.173,-0.226 0.338,-0.353 0.117,-0.614c-0.174,-0.03 -0.269,0.004 -0.402,0.114c-0.023,-0.083 -0.061,-0.159 -0.095,-0.239c-0.063,-0.03 -0.131,-0.049 -0.201,-0.053l-0.027,0.003c-0.635,0.19 -1.36,0.636 -1.733,1.19c-0.141,0.016 -0.238,0.129 -0.365,0.182c-0.118,0.04 -0.261,0.041 -0.384,0.059c0.173,-0.281 0.403,-0.525 0.489,-0.85c0.037,-0.137 0.047,-0.288 0.008,-0.428c-0.065,-0.235 -0.234,-0.239 -0.449,-0.234c0.29,-0.312 0.58,-0.625 0.888,-0.92c0.034,0.029 0.371,0.167 0.373,0.201c-0.1,0.263 -0.56,0.289 -0.417,0.584l0.096,0.026c0.197,-0.1 0.423,-0.198 0.589,-0.346c0.135,-0.119 0.318,-0.242 0.318,-0.444c0,-0.199 -0.42,-0.329 -0.592,-0.373c0.341,-0.33 0.699,-0.64 1.039,-0.97c0.205,-0.202 1.198,-0.827 0.557,-1.037c-0.14,-0.046 -0.446,0.155 -0.544,0.238c-0.21,0.18 -0.406,0.368 -0.605,0.558c-0.345,0.331 -0.664,0.685 -0.989,1.034c-0.56,-0.169 -1.196,-0.199 -1.774,-0.265c-0.275,-0.032 -0.554,-0.038 -0.831,-0.054c-0.175,-0.01 -0.661,0.075 -0.775,-0.068c0.319,-0.278 0.636,-0.555 0.953,-0.835c0.146,-0.131 0.288,-0.262 0.429,-0.402c0.168,-0.165 0.238,-0.27 0.225,-0.509c0,-0.513 -0.908,0.252 -1.034,0.356c-0.306,0.255 -0.599,0.526 -0.899,0.79c-0.235,0.208 -0.493,0.49 -0.784,0.606c-0.198,0.076 -0.539,-0.009 -0.763,-0.014c-0.28,-0.006 -0.558,-0.01 -0.837,-0.015l0.001,-0.003c-0.238,-0.002 -0.488,-0.005 -0.739,-0.01c-0.183,-0.002 -0.367,-0.006 -0.55,-0.009l0,0.001c-0.213,-0.002 -0.425,-0.004 -0.627,-0.004c-0.291,0 -2.561,-0.06 -2.511,0.319c-0.039,0.243 0.763,0.124 0.912,0.114c0.264,-0.018 0.525,-0.03 0.791,-0.019c0.526,0.023 1.047,0.023 1.573,0.019c0.755,0.018 1.51,0.049 2.265,0.078c-0.063,0.264 -0.384,0.525 -0.568,0.713c-0.162,0.167 -0.332,0.326 -0.515,0.469c-0.289,0.225 -0.578,0.449 -0.867,0.673c-0.242,0.19 -0.53,0.336 -0.79,0.5c-0.107,0.068 -0.857,0.399 -0.611,0.56c0.208,0.125 0.74,-0.326 0.903,-0.425c0.191,-0.119 0.386,-0.238 0.588,-0.338c-0.485,0.655 -1.055,1.223 -1.636,1.792c-0.192,0.19 -1.094,0.8 -0.56,1.047c0.163,-0.006 0.273,-0.11 0.405,-0.199c0.142,-0.093 0.315,-0.178 0.439,-0.296c0.248,-0.236 0.501,-0.469 0.732,-0.722c0.507,-0.55 0.999,-1.116 1.504,-1.669c0.485,-0.529 0.972,-1.056 1.48,-1.564c0.322,-0.322 0.639,-0.494 1.11,-0.516c0.357,-0.02 0.708,-0.03 1.066,-0.006c0.651,0.039 1.344,0.062 1.973,0.248c-0.244,0.26 -0.487,0.52 -0.729,0.78c-0.252,0.269 -0.557,0.537 -0.753,0.852c-0.267,0.429 -0.86,1.13 -1.444,1.07c0.049,-0.269 0.089,-0.502 0.26,-0.726c0.173,-0.226 0.337,-0.353 0.117,-0.614c-0.175,-0.03 -0.268,0.004 -0.402,0.114c-0.023,-0.083 -0.061,-0.159 -0.096,-0.239c-0.062,-0.03 -0.131,-0.049 -0.2,-0.053l-0.027,0.003c-0.711,0.213 -1.401,0.698 -1.813,1.309c-0.337,0.496 0.28,0.815 0.704,0.688c0.404,-0.122 0.68,-0.466 1.014,-0.7c-0.085,0.335 -0.12,0.768 0.367,0.659c0.25,-0.058 0.565,-0.192 0.761,-0.358c0.037,0.212 -0.126,0.392 -0.167,0.589c-0.033,0.168 -0.036,0.348 0.001,0.516c0.109,0.069 0.213,0.127 0.332,0.18c0.403,-0.206 0.756,-0.475 1.089,-0.782c0.183,-0.169 0.314,-0.301 0.566,-0.336c0.212,-0.03 0.365,-0.077 0.547,-0.187c-0.059,0.402 0.601,0.513 0.873,0.399c0.371,-0.157 0.629,-0.456 0.949,-0.68c-0.045,0.172 -0.141,0.413 -0.013,0.561c0.179,0.208 0.382,0.098 0.603,0.021c0.172,-0.059 1.015,-0.44 0.901,-0.681m-7.948,0.319c-0.048,0 0.111,-0.409 0.325,-0.571c0.262,-0.196 0.688,-0.392 0.857,-0.305l0.001,0.008c-0.042,0.314 -0.857,0.868 -1.183,0.868m3.293,0.143c-0.13,0.217 -0.413,0.585 -0.685,0.602c-0.117,-0.229 0.398,-0.958 0.436,-1.017c-0.006,0.008 -0.013,0.014 -0.018,0.022c0.019,-0.025 0.024,-0.03 0.018,-0.022c0.831,-1.053 1.45,-0.498 0.249,0.415m2.028,-0.141c-0.05,0 0.108,-0.409 0.324,-0.57c0.262,-0.196 0.688,-0.393 0.857,-0.306l0.001,0.009c-0.042,0.313 -0.858,0.867 -1.182,0.867" style="fill:#005d86;fill-rule:nonzero;"/><path d="M34.569,47.716l-0.017,-0.034c-0.343,-0.065 -0.651,0.401 -1.027,0.369c0.044,-0.269 0.081,-0.503 0.248,-0.729c0.17,-0.23 0.331,-0.36 0.107,-0.618c-0.175,-0.024 -0.269,0.01 -0.401,0.122c-0.024,-0.082 -0.063,-0.158 -0.099,-0.237c-0.062,-0.03 -0.132,-0.046 -0.202,-0.049l-0.027,0.003c-0.551,0.176 -1.337,0.611 -1.646,1.118c-0.386,0.11 -1.906,0.779 -1.953,0.048c0.582,-0.751 1.249,-1.269 1.951,-1.901c0.743,-0.667 1.036,-1.061 1.79,-1.634l0.062,-0.308c-0.136,-0.462 -1.392,0.667 -1.561,0.809c-0.452,0.382 -0.493,0.756 -0.949,1.134c-0.27,0.222 -0.443,0.449 -0.725,0.657c-0.28,0.207 -0.436,0.425 -0.756,0.567c-0.173,0.078 -0.34,0.103 -0.511,0.19c-0.28,0.14 -0.555,0.219 -0.856,0.308c-0.231,0.069 -0.534,0.137 -0.528,0.44c-0.051,0.034 -0.499,0.327 -0.531,0.212c-0.089,-0.271 0.205,-0.623 0.338,-0.843c0.118,-0.196 0.409,-0.478 0.391,-0.719c-0.097,-0.08 -0.189,-0.104 -0.309,-0.139c-0.194,0.069 -0.266,0.288 -0.383,0.439c-0.119,0.152 -0.268,0.294 -0.413,0.424c-0.171,0.155 -0.338,0.312 -0.524,0.449c-0.196,0.142 -0.512,0.452 -0.774,0.384l-0.017,-0.04c0.01,-0.214 0.277,-0.465 0.419,-0.611c0.167,-0.173 0.307,-0.331 0.442,-0.53c-0.095,-0.068 -0.191,-0.147 -0.318,-0.135c-0.185,0.003 -0.299,0.225 -0.421,0.337c-0.224,0.205 -0.441,0.406 -0.678,0.599c-0.19,0.154 -0.382,0.253 -0.607,0.358c-0.21,0.099 -0.691,0.4 -0.915,0.3c0.069,-0.384 0.42,-0.722 0.589,-1.076l-0.049,-0.155c-0.017,-0.046 -0.066,-0.121 -0.205,-0.12c-0.148,0.059 -0.283,0.113 -0.419,0.195c-0.227,0.139 -0.491,0.388 -0.757,0.418c0.123,-0.237 0.446,-0.881 -0.116,-0.871c0,0.021 -0.022,0.004 -0.022,0.004c-0.511,0.178 -0.992,0.448 -1.454,0.726c-0.376,0.225 -0.967,0.761 -1.43,0.722c0.044,-0.268 0.082,-0.504 0.249,-0.729c0.169,-0.229 0.331,-0.361 0.107,-0.618c-0.176,-0.025 -0.269,0.011 -0.401,0.123c-0.024,-0.084 -0.064,-0.158 -0.1,-0.237c-0.062,-0.03 -0.132,-0.046 -0.201,-0.05l-0.027,0.004c-0.649,0.207 -1.358,0.674 -1.73,1.246c0.032,-0.06 -0.025,0.038 -0.025,0.038c-0.195,0.261 -0.182,0.516 0.103,0.665c0.154,0.08 0.352,0.137 0.521,0.084c0.428,-0.138 0.708,-0.481 1.06,-0.734c-0.08,0.335 -0.099,0.797 0.395,0.646c0.314,-0.096 0.597,-0.261 0.859,-0.454c0.225,-0.17 0.522,-0.291 0.768,-0.434c0.27,-0.155 0.546,-0.346 0.853,-0.424c0.02,0.014 0.03,0.035 0.03,0.06c0.003,0.12 -0.297,0.34 -0.38,0.421c-0.112,0.111 -0.225,0.22 -0.342,0.326c-0.258,0.236 -0.94,0.71 -0.219,0.791c0.137,0.016 0.369,-0.202 0.479,-0.271c0.179,-0.108 0.362,-0.208 0.548,-0.302c0.196,-0.098 0.633,-0.507 0.865,-0.427c0.039,0.181 -0.179,0.291 -0.197,0.466c0.008,0.47 0.443,0.425 0.77,0.361c0.493,-0.098 0.981,-0.435 1.401,-0.702c-0.079,0.265 -0.072,0.434 0.152,0.579c0.62,-0.171 1.11,-0.474 1.653,-0.815c-0.127,0.297 -0.239,0.743 0.173,0.86c0.292,-0.126 0.549,-0.288 0.809,-0.472c0.016,0.206 0.04,0.424 -0.03,0.623c-0.112,0.318 -0.491,0.796 -0.798,1.065c-0.24,0.208 -0.607,0.597 -0.835,0.82c-0.208,0.205 -0.662,0.665 -1.049,1.219c-0.198,0.283 -0.994,1.462 -1.047,1.73c0.035,0.57 0.636,0.072 0.817,-0.093c0.276,-0.252 1.254,-1.081 1.384,-1.206c0.761,-0.735 1.145,-1.697 1.337,-2.039c0.154,-0.276 0.296,-0.556 0.455,-0.83c0.167,-0.288 0.712,-0.747 0.925,-0.986c0.095,-0.106 0.163,-0.265 0.291,-0.34c0.158,-0.092 0.331,-0.001 0.494,0.042c0.58,0.152 1.317,-0.049 1.865,-0.259c-0.157,0.482 0.506,0.602 0.836,0.498c0.38,-0.122 0.644,-0.475 0.955,-0.703c-0.041,0.175 -0.133,0.414 -0.002,0.562c0.182,0.205 0.384,0.091 0.603,0.01c0.172,-0.063 1.008,-0.458 0.889,-0.697m-15.697,-0.217c-0.102,0.254 -0.377,0.458 -0.66,0.608c-0.135,0.084 -0.267,0.148 -0.375,0.177c-0.038,0.016 -0.076,0.031 -0.111,0.045c-0.006,0 -0.003,-0.011 0.007,-0.027l-0.004,0c-0.05,0.002 0.105,-0.44 0.323,-0.617c0.265,-0.216 0.699,-0.433 0.873,-0.344l0.002,0.009c-0.005,0.046 -0.025,0.096 -0.055,0.149m7.438,4.003c-0.155,0.245 -0.544,0.663 -0.744,0.877c-0.217,0.231 -0.858,0.765 -1.155,0.889c0.1,-0.276 0.568,-1.101 1.17,-1.732c0.627,-0.656 1.117,-1.151 1.393,-1.351c-0.059,0.445 -0.496,1.053 -0.664,1.317m1.646,-3.005c-0.222,-0.351 0.243,-0.463 0.454,-0.539c0.032,0.013 0.053,0.032 0.066,0.066c-0.103,0.172 -0.337,0.388 -0.52,0.473m4.058,-0.444c-0.024,0.009 -0.047,0.019 -0.07,0.029c-0.013,-0.001 0.018,-0.047 0.069,-0.11c0.036,-0.136 0.162,-0.407 0.322,-0.535c0.265,-0.216 0.699,-0.434 0.874,-0.346l0.001,0.009c-0.037,0.338 -0.861,0.945 -1.196,0.953" style="fill:#005d86;fill-rule:nonzero;"/><path d="M16.673,47.125c0.428,-0.531 0.909,-1.031 1.302,-1.584c0.15,-0.209 0.33,-0.453 0.347,-0.698c0.021,-0.296 -0.369,-0.205 -0.598,-0.19c-0.752,0.047 -1.367,0.287 -2.006,0.59c-0.183,0.085 -1.876,1.107 -1.868,1.135c0.151,-0.194 0.487,-0.642 0.587,-0.795c0.182,-0.279 0.357,-0.561 0.54,-0.841c0.266,-0.411 0.55,-1.132 -0.263,-1.095c-0.757,0.032 -1.392,0.52 -2.049,0.895c-0.665,0.381 -1.671,1.3 -2.2,1.841c0.498,-0.769 1.415,-1.953 1.923,-2.717c0.235,-0.351 0.512,-0.791 0.442,-1.189c-0.074,-0.423 -0.739,-0.318 -1.109,-0.262c-1.769,0.268 -3.514,1.433 -4.896,2.504c-0.682,0.531 -1.463,1.133 -1.934,1.837c-0.006,0.288 0.662,0.14 0.742,-0.009c0.182,-0.339 0.55,-0.65 0.837,-0.919c0.746,-0.688 1.589,-1.309 2.476,-1.831c0.818,-0.483 2.228,-1.246 2.856,-1.154c0.439,0.465 -4.053,6.746 -4.157,6.9c-0.132,0.196 -0.008,0.207 0.163,0.315c0.095,0.059 0.185,0.08 0.307,0.076c0.201,-0.004 0.221,-0.211 0.298,-0.368c0.161,-0.327 0.328,-0.653 0.537,-0.962c0.395,-0.584 0.829,-1.188 1.35,-1.691c0.567,-0.548 1.209,-1.049 1.863,-1.506c0.342,-0.239 0.729,-0.439 1.103,-0.626c0.281,-0.143 0.838,-0.457 1.156,-0.454c-0.037,0.339 -0.349,0.777 -0.527,1.083c-0.261,0.449 -0.634,0.886 -0.933,1.319c-0.263,0.381 -0.533,0.759 -0.81,1.131c-0.119,0.159 -0.267,0.34 -0.391,0.497c-0.132,0.169 -0.117,0.247 -0.027,0.398c0.193,0.324 0.515,-0.331 0.695,-0.568c0.286,-0.377 0.47,-0.703 0.853,-0.988c0.722,-0.534 1.169,-0.939 2.005,-1.283c0.398,-0.164 1.189,-0.518 1.671,-0.576c0.491,-0.06 0.416,0.197 0.26,0.424c-0.376,0.55 -1.007,1.201 -1.391,1.747c-0.258,0.365 -0.881,1.219 -0.345,1.534c0.594,0.349 1.866,-0.734 2.28,-1.112c-0.135,-0.242 -0.642,0.268 -0.749,0.353c-0.274,0.221 -0.65,0.489 -1.012,0.442c-0.575,-0.075 0.503,-1.394 0.672,-1.603c0.247,-0.307 -0.375,0.464 0,0" style="fill:#005d86;fill-rule:nonzero;"/></g></svg>