<svg viewBox="0 0 379 222" xmlns="http://www.w3.org/2000/svg" xml:space="preserve" style="fill-rule:evenodd;clip-rule:evenodd;stroke-miterlimit:2"><path d="M174.084 5.862c.758.085 1.443-.18 1.612-.89V2.85c3.225 1.679 5.686 5.402 7.983 8.059.591.529 1.184.794 2.036.62.934-1.064 1.446-2.215 1.871-3.545 4.924 7.53 2.63 18.78 6.709 26.931-.09 2.036 1.526 3.629 3.055 4.516.847.711 2.209.267 2.63.8 4.168.087 6.631-4.697 9.775-7.444 1.694-2.124 3.904-4.605 3.904-7.443 5.942-3.363 1.785-11.513 5.862-15.94 1.698-.801 3.307-4.609 5.088-1.861 3.4-.267 5.779-2.925 8.835-4.076 3.315-1.327 6.625-2.57 10.363-2.922-.936 2.305-2.714 4.872-1.444 7.615 6.117 2.658 12.658-1.681 18.604 1.244-.431 1.151-2.728 2.034-1.871 3.629 1.871 1.95 4.419 3.016 6.534 4.875-.677.972-1.864 2.125-.843 3.187.934 1.86 3.737 2.657 2.63 5.138 4.331 5.316 10.787 7.084 14.688 12.931.178.179.258.267.427.444-3.052 1.42-6.794 2.128-9.341 5.14 2.975 6.11 9.602 8.679 15.034 11.25-1.019.441-2.209 1.681-2.638 2.747 1.876 5.136 4.253 9.918 7.31 14.436-1.61.799-4.672 1.506-4.672 4.252 4.162 4.873 10.708 8.06 12.489 14.529-1.021.62-2.292 1.061-2.895 2.306.603 2.919 3.911 4.69 4.93 7.436 1.615 4.962 1.867 10.806 1.359 16.388-4.415 1.861-8.406-1.682-12.57-1.682-1.698 1.592-.512 3.72 0 5.492 2.039 3.367 5.097 6.468 7.475 9.567-1.362.442-3.138-.09-4.245 1.24 1.867 5.404 4.165 11.695 2.037 17.719-2.467.619-5.179-1.33-7.301 0 .848 2.654 1.522 5.49 1.783 8.504-1.87.618-3.741-3.192-5.271-.887 2.209 8.503-1.869 16.297-4.498 23.828-4.583-.975-6.881-6.201-9.345-9.83-2.972 0-1.781 7.348-5.525 3.629-5.177-1.862-9.763-7.178-13.245-11.692-1.954.088-.846 3.898-3.058 3.01-7.64-3.457-13.329-11.691-15.285-19.752-1.021-1.508-2.547-2.127-4.077-1.508-1.695 1.155-3.396 2.657-4.079 4.698-1.359 5.223 5.011 6.466 6.54 10.805 2.884 3.545 2.549 8.591 3.401 12.934-1.536-.357-2.55-1.775-4.245-1.239.421 9.388-2.466 17.359-6.969 24.625-.847-1.95-1.271-5.051-3.229-6.379-1.787 2.922-3.393 6.646-5.687 9.213-2.886-6.025-10.954-3.278-12.826-9.832-1.527.619-1.782 2.834-3.056 4.072-3.396 5.582-8.577 11.607-14.524 13.82 0-1.414-.505-3.102-2.039-3.81-6.201 4.341-10.446 10.984-17.321 13.819-2.974-.796-10.449 7.443-8.58-1.327-.765-1.772-2.891-1.595-4.415-1.241-3.827 1.948-8.071 2.924-11.892 4.874-.764-1.95-2.888-2.569-4.079-4.08-.252-.354-.85-.262-1.183 0-2.296 2.041-4.845 3.371-7.138 5.318-1.446-2.834-4.504-6.466-2.464-9.92-1.188-.887-2.123 1.328-3.227 1.86-2.461-4.252-4.159-8.946-5.093-13.818-1.786-.267-3.74 5.046-4.672.62-4.501-10.187-5.183-22.678-4.757-34.637-1.954-.886-4.335-.797-6.283-1.683-1.954-.354-3.485-1.684-5.096-3.012-.429-.439-.088-1.15 0-1.685 1.863-4.868 3.734-9.653 5.266-14.614-.598-1.506-3.655-.62-2.634-2.394 1.868-2.387 3.821-4.873 4.5-7.881-.34-1.858-5.352-.442-2.036-2.925 10.018-7.439 22.081-11.16 30.402-21.703.596-1.417-.249-2.657-.85-3.807-1.444-1.769-3.737-2.303-5.947-1.682-6.537 2.125-11.462 9.299-16.473 14.613 0-.529.083-1.417-.593-1.504-3.653.709-5.95 4.694-9.431 6.021.173-1.411 1.191-3.626-.341-4.517-5.179 0-8.659 3.985-13.246 5.318-3.906 1.237-8.069 1.86-12.058 2.741 1.103-9.121 4.075-17.98 6.111-26.924-.168-.18-.34-.535-.59-.445-2.381.534-5.356-.266-7.563.622 5.438-7.533 7.135-16.564 13.418-23.567v-.882c-1.782-1.508-4.415-1.24-6.111-3.19 3.312-.709 7.302-1.508 9.172-5.137-2.892-3.278-7.476-4.163-10.956-6.998-1.105-.977-2.717-2.039-3.059-3.369 6.369-5.491 14.015-7.968 20.555-13.018-5.777-7.974 6.114-1.417 9.169-3.99 3.911-.351 8.159-1.417 10.024-5.137-.847-4.252-4.837-7.087-6.962-10.806-1.193-2.744-3.739-5.05-4.247-8.062 10.699-4.696 24.035-2.922 35.671-1.505 2.462.175 4.84 1.505 7.302.441.593-1.593.426-3.895 1.869-5.313 3.653 2.391 7.218 4.96 11.805 5.047.427-.617.849-1.237 1.187-1.857-.169-4.432-1.27-8.683-.592-13.202 4.584 1.594 9.002 3.368 13.252 5.763Z" style="fill:url(#a)"/><path d="M76.782 105.82c0 1.435-.245 3.587.612 4.573 1.164 1.255 4.043 1.165 5.391 1.255h3.307l6.738-.538c2.941-.628 3.921-1.076 6.248-3.676.49-.538 1.532-1.973 2.267-1.973.735 0 1.042.807 1.042 1.794 0 .717-.797 6.455-1.042 7.173-.613 1.972-1.899 1.793-3.124 1.793h-28.3c-.98 0-2.144-.09-2.144-2.062 0-1.435.613-1.704 1.409-2.152 2.267-1.256 2.083-1.704 2.083-5.29v-49.85c0-1.345-1.226-1.704-2.021-1.973-.919-.358-1.777-.627-1.777-2.331 0-1.972 1.164-1.972 2.205-1.972h8.331c1.041 0 2.205.09 2.205 1.972 0 1.525-.674 1.704-1.47 2.152-2.267 1.256-1.96 1.704-1.96 5.29v45.815ZM109.063 96.765c5.022-.717 16.354-2.331 16.354-12.373 0-4.752-2.511-6.814-5.451-6.814-7.534 0-11.087 9.145-11.026 19.187h.123Zm.245 3.855c.919 7.352 5.267 11.835 10.168 11.835 6.799 0 8.882-7.531 10.535-7.531.612 0 1.164.717 1.164 1.613 0 2.511-2.572 5.649-3.859 6.904-2.633 2.6-5.635 4.124-8.82 4.124-8.025 0-14.456-8.427-14.456-20.441 0-13.18 7.167-23.939 16.232-23.939 2.144 0 4.411.627 6.248 2.331 2.144 1.973 3.797 5.29 3.797 9.056 0 6.455-3.674 10.221-7.35 12.283-3.92 2.241-8.269 2.869-12.434 3.586l-1.225.179ZM193.348 66.998c0 1.525-.307 3.049-1.532 3.049-.98 0-1.469-2.331-1.837-3.407-1.287-3.855-2.267-6.545-4.778-9.235-2.328-2.421-5.023-3.586-7.902-3.586-5.39 0-9.249 3.227-12.618 9.324-3.308 5.917-4.84 12.463-4.84 20.083 0 6.456 1.225 14.525 3.798 19.904 3.186 6.546 7.964 9.325 13.293 9.325 5.39 0 9.127-3.138 12.924-8.697.613-.897 1.287-2.421 2.328-2.421.796 0 1.347.987 1.347 2.152 0 2.959-4.593 8.069-6.125 9.414-3.308 3.049-7.534 4.662-11.454 4.662-12.251 0-22.358-13.269-22.358-31.649 0-19.366 10.352-36.67 23.95-36.67 4.104 0 8.024 1.435 11.7 4.214.858.717 2.818 2.242 3.368 3.407.552 1.166.674 2.421.736 3.676v6.455ZM202.167 96.765c5.023-.717 16.355-2.331 16.355-12.373 0-4.752-2.511-6.814-5.452-6.814-7.534 0-11.087 9.145-11.025 19.187h.122Zm.245 3.855c.919 7.352 5.269 11.835 10.169 11.835 6.799 0 8.882-7.531 10.535-7.531.613 0 1.164.717 1.164 1.613 0 2.511-2.572 5.649-3.859 6.904-2.634 2.6-5.635 4.124-8.82 4.124-8.025 0-14.456-8.427-14.456-20.441 0-13.18 7.167-23.939 16.232-23.939 2.144 0 4.41.627 6.248 2.331 2.144 1.973 3.798 5.29 3.798 9.056 0 6.455-3.676 10.221-7.351 12.283-3.921 2.241-8.269 2.869-12.434 3.586l-1.226.179ZM230.65 57.943c0-2.152-.979-3.049-2.143-3.587-.368-.179-.981-.627-.981-1.344 0-1.076.736-1.435 1.226-1.883 1.102-.807 4.043-2.78 5.206-2.78 1.471 0 1.287 2.062 1.287 3.587v53.257c0 1.524-.061 3.406.244 4.841.185 1.076.245 1.345.919 1.794l.674.537c.612.448 1.103.807 1.103 1.883 0 1.793-.368 1.973-1.654 1.973h-7.105c-1.042 0-1.655-.18-1.655-1.973 0-.986.491-1.435 1.042-1.883l1.102-.807c1.042-1.165.735-4.841.735-6.365v-47.25ZM244.126 57.943c0-2.152-.98-3.049-2.145-3.587-.367-.179-.979-.627-.979-1.344 0-1.076.734-1.435 1.225-1.883 1.102-.807 4.043-2.78 5.207-2.78 1.469 0 1.286 2.062 1.286 3.587v53.257c0 1.524-.062 3.406.245 4.841.183 1.076.245 1.345.919 1.794l.674.537c.612.448 1.102.807 1.102 1.883 0 1.793-.368 1.973-1.654 1.973H242.9c-1.041 0-1.653-.18-1.653-1.973 0-.986.489-1.435 1.041-1.883l1.103-.807c1.041-1.165.735-4.841.735-6.365v-47.25ZM256.56 61.35c0-2.869 1.531-4.842 3.429-4.842 1.838 0 3.308 1.973 3.308 4.663 0 3.137-1.47 5.11-3.554 5.11-1.897 0-3.183-2.242-3.183-4.931Zm.734 54.871c-.98 0-2.082-.18-2.082-1.973 0-1.166.49-1.614 1.164-1.883 1.776-.717 2.143-2.152 2.143-5.828V87.62c-.183-3.945.306-6.276-2.572-7.173-.613-.179-1.347-.538-1.347-1.614 0-.538.06-.896.367-1.255.612-.897 2.879-2.331 3.798-2.869.672-.448 1.775-1.524 2.45-1.524 1.531 0 1.531 2.51 1.715 4.124.367 3.317.183 6.635.183 9.952v17.932c0 1.434-.183 4.393.307 5.738.307.807.98 1.076 1.531 1.345.674.358 1.286.717 1.286 1.972 0 1.793-.919 1.973-2.021 1.973h-6.922ZM274.445 96.765c5.023-.717 16.355-2.331 16.355-12.373 0-4.752-2.512-6.814-5.451-6.814-7.535 0-11.088 9.145-11.027 19.187h.123Zm.245 3.855c.918 7.352 5.268 11.835 10.168 11.835 6.799 0 8.882-7.531 10.536-7.531.613 0 1.164.717 1.164 1.613 0 2.511-2.573 5.649-3.859 6.904-2.635 2.6-5.636 4.124-8.821 4.124-8.024 0-14.456-8.427-14.456-20.441 0-13.18 7.167-23.939 16.232-23.939 2.145 0 4.41.627 6.248 2.331 2.145 1.973 3.798 5.29 3.798 9.056 0 6.455-3.675 10.221-7.35 12.283-3.92 2.241-8.27 2.869-12.435 3.586l-1.225.179ZM308.563 108.869c0 2.689 1.287 3.048 1.838 3.317.613.448 1.103.807 1.103 1.883 0 1.972-.981 2.152-2.022 2.152h-6.554c-.98 0-2.082-.09-2.082-2.152 0-.987.49-1.435 1.041-1.793.551-.269 2.083-.538 2.083-3.407V87.351c0-3.587-1.471-5.738-2.634-6.545-.552-.359-1.409-.717-1.409-1.883 0-1.345.919-2.331 1.593-3.049.673-.716 2.572-2.689 3.429-2.689 2.39 0 3.064 8.697 3.309 11.297 1.224-4.304 4.777-11.297 8.208-11.297 2.388 0 3.491 2.152 3.491 5.469 0 1.255-.307 3.318-1.409 3.318-1.041 0-2.511-1.883-3.736-1.883-1.838 0-3.615 3.406-4.472 5.558-1.164 2.869-1.777 5.649-1.777 9.504v13.718ZM6.652 149.378c0 .249.343.315.577.382.271.082.505.131.505.414 0 .364-.342.381-.649.381H4.577c-.307 0-.65-.034-.65-.381 0-.266.217-.332.469-.398.686-.182.632-.332.632-.977v-8.5c0-.647.09-1.028-.794-1.028-.451 0-1.065.083-1.498.166-.74.15-1.065.398-1.624.829-.144.116-.361.347-.577.347-.253 0-.361-.181-.361-.381 0-.132.036-.264.054-.381.036-.231.09-1.424.523-1.424h10.015c.127.016.253.016.343.099.163.165.307 1.028.343 1.259.036.133.072.299.072.431 0 .182-.108.348-.325.348-.235 0-.433-.199-.595-.332-.523-.381-.758-.58-1.426-.761-.415-.117-1.118-.2-1.552-.2-1.01 0-.974.349-.974 1.127v8.98ZM22.116 144.49c1.931-.281 5.72-.645 5.72-3.081 0-1.872-2.201-2.121-3.771-2.121-.415 0-1.299 0-1.624.216-.343.215-.325.678-.325 1.027v3.959Zm0 4.904c0 .249.325.283.559.366.235.098.47.131.47.43 0 .365-.361.365-.668.365h-2.418c-.288 0-.65-.017-.65-.365 0-.282.217-.332.451-.414.686-.199.614-.315.632-.977v-9.196c0-.265-.361-.315-.595-.381-.271-.066-.523-.116-.523-.415 0-.364.342-.38.649-.38h5.612c.956 0 1.877.083 2.689.58.848.497 1.353 1.292 1.353 2.203 0 1.657-1.48 2.651-2.959 3.264 1.227 1.292 2.057 2.817 2.833 4.375.252.512.379.745.938.977.217.082.469.132.469.398 0 .331-.361.331-.613.331h-2.671c-.271 0-.722 0-.722-.348 0-.514.921-.332.921-.944 0-.912-2.021-3.629-2.833-4.391l-2.924.48v4.042ZM47.09 145.452l-.198-.415-2.491-4.986-2.598 5.401h5.287Zm-3.375-6.23c.235-.398.632-1.126.903-1.126.342 0 .884.927 1.01 1.126 1.534 2.402 2.96 5.55 3.88 8.217l.704 1.79c.144.331.289.431.631.597.181.082.307.165.307.364 0 .381-.415.365-.722.365h-2.237c-.289 0-.65-.034-.65-.381 0-.514.92-.332.92-.862 0-.315-.775-2.254-.956-2.684l-.126-.315h-5.865c-.199.646-.83 2.022-.83 2.601 0 1.027.957.779.957 1.276 0 .481-.759.365-1.083.365h-1.047c-.324 0-1.173.099-1.173-.381 0-.2.126-.299.289-.398.325-.199.415-.299.56-.63l.649-1.707c1.01-2.667 2.436-5.815 3.879-8.217ZM61.778 147.639c0 1.706-.054 2.071 1.985 2.071 3.519 0 5.72-1.905 5.72-5.17 0-1.425-.469-2.982-1.606-3.992-1.119-1.011-2.833-1.277-4.331-1.277-1.642 0-1.768.349-1.768 1.707v6.661Zm1.66-9.212c2.003 0 3.699.066 5.377 1.21 1.769 1.209 2.509 2.916 2.509 4.886 0 1.641-.632 3.199-1.895 4.374-1.444 1.31-3.068 1.658-5.035 1.658h-4.673c-.307 0-.65-.017-.65-.381 0-.266.217-.332.451-.398.686-.199.632-.332.632-.977v-9.212c0-.249-.343-.299-.577-.365-.253-.082-.488-.132-.488-.415 0-.347.343-.38.632-.38h3.717ZM80.671 139.587c0-.249-.343-.299-.578-.365-.252-.082-.505-.132-.505-.431 0-.364.361-.364.65-.364h2.49c.289 0 .631.016.631.364 0 .282-.198.332-.433.414-.685.199-.613.315-.631.977v9.196c0 .249.343.299.577.382.253.082.487.131.487.414 0 .364-.342.381-.649.381h-2.49c-.289 0-.65-.017-.65-.381 0-.266.217-.332.469-.398.686-.182.632-.332.632-.977v-9.212ZM97.597 149.378c0 .249.342.315.577.382.271.082.505.131.505.414 0 .364-.343.381-.649.381h-2.508c-.307 0-.65-.034-.65-.381 0-.266.216-.332.469-.398.686-.182.632-.332.632-.977v-8.5c0-.647.09-1.028-.794-1.028-.451 0-1.065.083-1.498.166-.74.15-1.065.398-1.624.829-.144.116-.361.347-.577.347-.253 0-.361-.181-.361-.381 0-.132.036-.264.054-.381.036-.231.09-1.424.523-1.424h10.015c.127.016.253.016.343.099.163.165.307 1.028.343 1.259.036.133.072.299.072.431 0 .182-.108.348-.324.348-.235 0-.434-.199-.596-.332-.523-.381-.758-.58-1.425-.761-.416-.117-1.12-.2-1.553-.2-1.01 0-.974.349-.974 1.127v8.98ZM111.347 139.587c0-.249-.343-.299-.577-.365-.253-.082-.505-.132-.505-.431 0-.364.36-.364.649-.364h2.49c.289 0 .632.016.632.364 0 .282-.199.332-.433.414-.686.199-.614.315-.632.977v9.196c0 .249.343.299.578.382.252.082.487.131.487.414 0 .364-.343.381-.65.381h-2.49c-.289 0-.649-.017-.649-.381 0-.266.216-.332.468-.398.686-.182.632-.332.632-.977v-9.212ZM132.423 148.185c.794-1.01 1.119-2.319 1.119-3.562 0-1.292-.307-2.767-1.137-3.827a4.561 4.561 0 0 0-3.573-1.739c-1.515 0-2.796.778-3.59 1.938-.741 1.044-1.029 2.303-1.029 3.545 0 1.276.307 2.585 1.119 3.662a4.27 4.27 0 0 0 3.464 1.739 4.632 4.632 0 0 0 3.627-1.756Zm-8.282.862c-1.282-1.242-1.768-2.8-1.768-4.49 0-3.496 2.507-6.378 6.459-6.378 1.787 0 3.483.628 4.728 1.822 1.299 1.225 1.823 2.849 1.823 4.539 0 3.562-2.743 6.263-6.678 6.263-1.731 0-3.355-.596-4.564-1.756ZM154.041 140.465c0-.216.018-.647-.036-.845-.054-.266-.235-.315-.487-.382-.289-.082-.578-.115-.578-.447 0-.281.235-.364.487-.364h2.22c.27 0 .523.099.523.38 0 .25-.253.316-.451.381-.217.083-.505.15-.577.366-.055.165-.037.645-.037.811v9.56c0 .315.091.878-.415.878-.252 0-.415-.315-.505-.481-.667-1.225-1.606-2.319-2.418-3.462-1.678-2.37-3.32-4.788-5.45-6.859v8.93c0 .447.018.663.542.795.325.067.578.1.578.448 0 .264-.217.381-.47.381h-2.454c-.271 0-.469-.117-.469-.381 0-.266.198-.348.433-.398.92-.166.776-.398.776-1.193v-8.135c0-.63 0-1.177-.794-1.325-.235-.05-.56-.083-.56-.382 0-.265.289-.314.524-.314h2.075c.505-.017 2.941 2.882 3.699 3.81l.921 1.127c.992 1.209 1.948 2.617 2.923 4.075v-6.974ZM184.139 140.663c0-1.06-.92-1.756-2.039-1.756-1.029 0-2.165.597-2.165 1.641 0 .977.739 1.971 1.371 2.717 1.065-.514 2.833-1.342 2.833-2.602Zm-3.627 3.927c-1.155.596-2.112 1.474-2.112 2.767 0 1.492 1.318 2.436 2.87 2.436 1.281 0 2.039-.399 3.013-1.111l-3.771-4.092Zm4.854 3.132c.613-.647 1.57-1.856 1.57-2.735 0-.662-1.173-.48-1.173-1.026 0-.365.343-.332.632-.332h2.724c.289 0 .722-.033.722.348 0 .232-.235.348-.451.414-.307.116-.577.215-.812.448-.253.281-.578.811-.776 1.142l-1.768 2.321c.83.745 1.894 1.341 3.085 1.341.506 0 .921-.149 1.3-.149.18 0 .343.116.343.299 0 .314-.451.529-.722.645-.56.216-1.011.283-1.606.283-1.408 0-2.491-.58-3.501-1.425-1.119.911-2.454 1.507-3.988 1.507-2.021 0-3.988-1.176-3.988-3.181 0-1.69 1.534-2.899 3.014-3.678-.722-.879-1.336-1.773-1.336-2.916 0-1.856 1.787-2.849 3.645-2.849.704 0 1.408.165 1.985.545.632.416 1.083 1.094 1.083 1.807 0 1.673-2.111 2.7-3.483 3.413l3.501 3.778ZM217.413 149.378c0 .249.343.315.577.382.271.082.506.131.506.414 0 .364-.344.381-.65.381h-2.508c-.307 0-.65-.034-.65-.381 0-.266.216-.332.469-.398.686-.182.632-.332.632-.977v-8.5c0-.647.09-1.028-.794-1.028-.451 0-1.064.083-1.498.166-.739.15-1.064.398-1.624.829-.144.116-.36.347-.577.347-.253 0-.361-.181-.361-.381 0-.132.036-.264.054-.381.036-.231.09-1.424.524-1.424h10.014c.126.016.253.016.343.099.162.165.307 1.028.343 1.259.036.133.072.299.072.431 0 .182-.108.348-.325.348-.234 0-.433-.199-.595-.332-.523-.381-.759-.58-1.426-.761-.415-.117-1.119-.2-1.551-.2-1.011 0-.975.349-.975 1.127v8.98ZM232.823 147.705c0 1.358.145 1.988 1.588 1.988h2.707c.92 0 1.552-.364 2.183-.911.163-.133.433-.415.668-.415.18 0 .289.133.289.282 0 .282-.127.779-.181 1.077-.162.845-.09.812-.902.829h-8.409c-.288 0-.631-.017-.631-.381 0-.266.198-.332.432-.398.686-.199.632-.332.632-.977v-8.748c0-.399-.054-.763-.577-.846-.253-.065-.487-.115-.487-.414 0-.348.343-.364.649-.364h7.994c.451.099.595.464.65.795l.144 1.01c-.018.166-.127.266-.306.266a.375.375 0 0 1-.308-.133c-.487-.563-1.263-1.077-2.057-1.077h-2.905c-.902 0-1.245.332-1.173 1.293v3.015h3.465c.487 0 .83-.017 1.209-.331.126-.117.198-.216.397-.216.487 0 .361.945.361 1.193.017.331.054.73-.434.73-.162 0-.288-.117-.396-.216-.362-.298-.578-.298-1.047-.298h-3.555v3.247ZM258.338 140.465c0-.216.017-.647-.036-.845-.055-.266-.236-.315-.487-.382-.289-.082-.578-.115-.578-.447 0-.281.234-.364.488-.364h2.219c.271 0 .523.099.523.38 0 .25-.252.316-.45.381-.218.083-.507.15-.578.366-.054.165-.036.645-.036.811v9.56c0 .315.09.878-.415.878-.254 0-.415-.315-.506-.481-.667-1.225-1.605-2.319-2.418-3.462-1.677-2.37-3.32-4.788-5.449-6.859v8.93c0 .447.018.663.541.795.325.067.577.1.577.448 0 .264-.215.381-.468.381h-2.454c-.271 0-.469-.117-.469-.381 0-.266.198-.348.432-.398.92-.166.777-.398.777-1.193v-8.135c0-.63 0-1.177-.794-1.325-.236-.05-.56-.083-.56-.382 0-.265.288-.314.524-.314h2.075c.505-.017 2.941 2.882 3.699 3.81l.92 1.127c.992 1.209 1.949 2.617 2.923 4.075v-6.974ZM271.456 147.639c0 1.706-.054 2.071 1.985 2.071 3.519 0 5.721-1.905 5.721-5.17 0-1.425-.47-2.982-1.606-3.992-1.119-1.011-2.833-1.277-4.331-1.277-1.642 0-1.769.349-1.769 1.707v6.661Zm1.66-9.212c2.004 0 3.699.066 5.378 1.21 1.769 1.209 2.508 2.916 2.508 4.886 0 1.641-.631 3.199-1.895 4.374-1.443 1.31-3.067 1.658-5.034 1.658h-4.674c-.306 0-.649-.017-.649-.381 0-.266.217-.332.451-.398.686-.199.631-.332.631-.977v-9.212c0-.249-.343-.299-.577-.365-.252-.082-.487-.132-.487-.415 0-.347.342-.38.631-.38h3.717ZM297.549 145.452l-.198-.415-2.491-4.986-2.598 5.401h5.287Zm-3.374-6.23c.234-.398.632-1.126.902-1.126.343 0 .884.927 1.011 1.126 1.533 2.402 2.959 5.55 3.879 8.217l.704 1.79c.144.331.289.431.632.597.18.082.306.165.306.364 0 .381-.415.365-.721.365h-2.239c-.288 0-.649-.034-.649-.381 0-.514.921-.332.921-.862 0-.315-.776-2.254-.957-2.684l-.126-.315h-5.864c-.2.646-.83 2.022-.83 2.601 0 1.027.956.779.956 1.276 0 .481-.758.365-1.083.365h-1.047c-.324 0-1.173.099-1.173-.381 0-.2.127-.299.289-.398.325-.199.415-.299.56-.63l.649-1.707c1.011-2.667 2.436-5.815 3.88-8.217ZM319.689 140.465c0-.216.019-.647-.036-.845-.053-.266-.234-.315-.487-.382-.288-.082-.577-.115-.577-.447 0-.281.234-.364.487-.364h2.22c.27 0 .523.099.523.38 0 .25-.253.316-.451.381-.217.083-.506.15-.578.366-.054.165-.035.645-.035.811v9.56c0 .315.09.878-.416.878-.252 0-.414-.315-.505-.481-.668-1.225-1.605-2.319-2.418-3.462-1.678-2.37-3.32-4.788-5.449-6.859v8.93c0 .447.017.663.541.795.325.067.577.1.577.448 0 .264-.216.381-.469.381h-2.454c-.27 0-.47-.117-.47-.381 0-.266.2-.348.434-.398.92-.166.775-.398.775-1.193v-8.135c0-.63 0-1.177-.794-1.325-.234-.05-.558-.083-.558-.382 0-.265.288-.314.522-.314h2.076c.505-.017 2.941 2.882 3.7 3.81l.92 1.127c.992 1.209 1.949 2.617 2.922 4.075v-6.974ZM341.938 141.459c0 .281-.089.563-.451.563-.288 0-.432-.431-.541-.63-.379-.712-.668-1.21-1.407-1.707-.685-.447-1.479-.662-2.328-.662-1.588 0-2.725.597-3.717 1.723-.974 1.094-1.426 2.303-1.426 3.712 0 1.192.361 2.683 1.119 3.678.938 1.209 2.346 1.722 3.916 1.722 1.587 0 2.688-.579 3.807-1.606.181-.166.379-.447.686-.447a.39.39 0 0 1 .397.397c0 .547-1.353 1.491-1.805 1.739-.974.564-2.219.862-3.374.862-3.609 0-6.586-2.452-6.586-5.848 0-3.579 3.049-6.776 7.055-6.776 1.209 0 2.364.264 3.446.778.253.133.831.414.994.63.162.215.198.447.215.679v1.193ZM353 147.705c0 1.358.145 1.988 1.588 1.988h2.707c.92 0 1.552-.364 2.183-.911.163-.133.433-.415.668-.415.18 0 .289.133.289.282 0 .282-.127.779-.181 1.077-.162.845-.09.812-.902.829h-8.41c-.288 0-.63-.017-.63-.381 0-.266.198-.332.432-.398.686-.199.632-.332.632-.977v-8.748c0-.399-.055-.763-.578-.846-.252-.065-.486-.115-.486-.414 0-.348.342-.364.649-.364h7.994c.45.099.595.464.649.795l.145 1.01c-.019.166-.127.266-.308.266a.373.373 0 0 1-.306-.133c-.488-.563-1.263-1.077-2.057-1.077h-2.905c-.902 0-1.245.332-1.173 1.293v3.015h3.465c.487 0 .83-.017 1.209-.331.126-.117.198-.216.396-.216.488 0 .362.945.362 1.193.017.331.053.73-.434.73-.162 0-.288-.117-.396-.216-.362-.298-.579-.298-1.047-.298H353v3.247ZM374.328 143.546c.849.182 1.896.448 2.599.944.83.613 1.281 1.525 1.281 2.485 0 1.094-.596 2.122-1.497 2.801-1.029.762-2.292 1.027-3.592 1.027-1.173 0-2.382-.215-3.338-.845-.632-.431-1.552-1.325-1.552-2.104 0-.265.163-.53.488-.53.306 0 .469.215.613.447.379.613.722 1.11 1.39 1.508.775.464 1.696.662 2.616.662 1.679 0 3.482-.844 3.482-2.584 0-3.512-8.084-1.243-8.084-5.683 0-.994.524-1.906 1.354-2.534.921-.73 2.021-.961 3.23-.961 1.101 0 2.382.264 3.321.811.198.116.324.215.396.414.055.199.055.745.055.961 0 .183.036.58-.289.58-.505 0-1.192-1.922-3.934-1.922-1.281 0-2.581.779-2.581 2.038 0 1.342 1.155 1.856 2.401 2.137l1.641.348Z" style="fill:#003976;fill-rule:nonzero"/><path d="M0 125.49h376.913" style="fill:none;fill-rule:nonzero"/><path d="M0 125.49h376.913" style="fill:none;stroke:#003976;stroke-width:1px"/><defs><radialGradient id="a" cx="0" cy="0" r="1" gradientUnits="userSpaceOnUse" gradientTransform="translate(188.466 111.05) scale(113.441)"><stop offset="0" style="stop-color:#fff;stop-opacity:1"/><stop offset="1" style="stop-color:#ffe376;stop-opacity:1"/></radialGradient></defs></svg>