<?xml version="1.0" encoding="UTF-8" standalone="no"?><!DOCTYPE svg PUBLIC "-//W3C//DTD SVG 1.1//EN" "http://www.w3.org/Graphics/SVG/1.1/DTD/svg11.dtd"><svg width="100%" height="100%" viewBox="0 0 379 222" version="1.1" xmlns="http://www.w3.org/2000/svg" xmlns:xlink="http://www.w3.org/1999/xlink" xml:space="preserve" xmlns:serif="http://www.serif.com/" style="fill-rule:evenodd;clip-rule:evenodd;stroke-miterlimit:2;"><g><path d="M174.084,5.862c0.758,0.085 1.443,-0.18 1.612,-0.89l0,-2.122c3.225,1.679 5.686,5.402 7.983,8.059c0.591,0.529 1.184,0.794 2.036,0.62c0.934,-1.064 1.446,-2.215 1.871,-3.545c4.924,7.53 2.63,18.78 6.709,26.931c-0.09,2.036 1.526,3.629 3.055,4.516c0.847,0.711 2.209,0.267 2.63,0.8c4.168,0.087 6.631,-4.697 9.775,-7.444c1.694,-2.124 3.904,-4.605 3.904,-7.443c5.942,-3.363 1.785,-11.513 5.862,-15.94c1.698,-0.801 3.307,-4.609 5.088,-1.861c3.4,-0.267 5.779,-2.925 8.835,-4.076c3.315,-1.327 6.625,-2.57 10.363,-2.922c-0.936,2.305 -2.714,4.872 -1.444,7.615c6.117,2.658 12.658,-1.681 18.604,1.244c-0.431,1.151 -2.728,2.034 -1.871,3.629c1.871,1.95 4.419,3.016 6.534,4.875c-0.677,0.972 -1.864,2.125 -0.843,3.187c0.934,1.86 3.737,2.657 2.63,5.138c4.331,5.316 10.787,7.084 14.688,12.931c0.178,0.179 0.258,0.267 0.427,0.444c-3.052,1.42 -6.794,2.128 -9.341,5.14c2.975,6.11 9.602,8.679 15.034,11.25c-1.019,0.441 -2.209,1.681 -2.638,2.747c1.876,5.136 4.253,9.918 7.31,14.436c-1.61,0.799 -4.672,1.506 -4.672,4.252c4.162,4.873 10.708,8.06 12.489,14.529c-1.021,0.62 -2.292,1.061 -2.895,2.306c0.603,2.919 3.911,4.69 4.93,7.436c1.615,4.962 1.867,10.806 1.359,16.388c-4.415,1.861 -8.406,-1.682 -12.57,-1.682c-1.698,1.592 -0.512,3.72 0,5.492c2.039,3.367 5.097,6.468 7.475,9.567c-1.362,0.442 -3.138,-0.09 -4.245,1.24c1.867,5.404 4.165,11.695 2.037,17.719c-2.467,0.619 -5.179,-1.33 -7.301,0c0.848,2.654 1.522,5.49 1.783,8.504c-1.87,0.618 -3.741,-3.192 -5.271,-0.887c2.209,8.503 -1.869,16.297 -4.498,23.828c-4.583,-0.975 -6.881,-6.201 -9.345,-9.83c-2.972,0 -1.781,7.348 -5.525,3.629c-5.177,-1.862 -9.763,-7.178 -13.245,-11.692c-1.954,0.088 -0.846,3.898 -3.058,3.01c-7.64,-3.457 -13.329,-11.691 -15.285,-19.752c-1.021,-1.508 -2.547,-2.127 -4.077,-1.508c-1.695,1.155 -3.396,2.657 -4.079,4.698c-1.359,5.223 5.011,6.466 6.54,10.805c2.884,3.545 2.549,8.591 3.401,12.934c-1.536,-0.357 -2.55,-1.775 -4.245,-1.239c0.421,9.388 -2.466,17.359 -6.969,24.625c-0.847,-1.95 -1.271,-5.051 -3.229,-6.379c-1.787,2.922 -3.393,6.646 -5.687,9.213c-2.886,-6.025 -10.954,-3.278 -12.826,-9.832c-1.527,0.619 -1.782,2.834 -3.056,4.072c-3.396,5.582 -8.577,11.607 -14.524,13.82c0,-1.414 -0.505,-3.102 -2.039,-3.81c-6.201,4.341 -10.446,10.984 -17.321,13.819c-2.974,-0.796 -10.449,7.443 -8.58,-1.327c-0.765,-1.772 -2.891,-1.595 -4.415,-1.241c-3.827,1.948 -8.071,2.924 -11.892,4.874c-0.764,-1.95 -2.888,-2.569 -4.079,-4.08c-0.252,-0.354 -0.85,-0.262 -1.183,0c-2.296,2.041 -4.845,3.371 -7.138,5.318c-1.446,-2.834 -4.504,-6.466 -2.464,-9.92c-1.188,-0.887 -2.123,1.328 -3.227,1.86c-2.461,-4.252 -4.159,-8.946 -5.093,-13.818c-1.786,-0.267 -3.74,5.046 -4.672,0.62c-4.501,-10.187 -5.183,-22.678 -4.757,-34.637c-1.954,-0.886 -4.335,-0.797 -6.283,-1.683c-1.954,-0.354 -3.485,-1.684 -5.096,-3.012c-0.429,-0.439 -0.088,-1.15 0,-1.685c1.863,-4.868 3.734,-9.653 5.266,-14.614c-0.598,-1.506 -3.655,-0.62 -2.634,-2.394c1.868,-2.387 3.821,-4.873 4.5,-7.881c-0.34,-1.858 -5.352,-0.442 -2.036,-2.925c10.018,-7.439 22.081,-11.16 30.402,-21.703c0.596,-1.417 -0.249,-2.657 -0.85,-3.807c-1.444,-1.769 -3.737,-2.303 -5.947,-1.682c-6.537,2.125 -11.462,9.299 -16.473,14.613c0,-0.529 0.083,-1.417 -0.593,-1.504c-3.653,0.709 -5.95,4.694 -9.431,6.021c0.173,-1.411 1.191,-3.626 -0.341,-4.517c-5.179,0 -8.659,3.985 -13.246,5.318c-3.906,1.237 -8.069,1.86 -12.058,2.741c1.103,-9.121 4.075,-17.98 6.111,-26.924c-0.168,-0.18 -0.34,-0.535 -0.59,-0.445c-2.381,0.534 -5.356,-0.266 -7.563,0.622c5.438,-7.533 7.135,-16.564 13.418,-23.567l0,-0.882c-1.782,-1.508 -4.415,-1.24 -6.111,-3.19c3.312,-0.709 7.302,-1.508 9.172,-5.137c-2.892,-3.278 -7.476,-4.163 -10.956,-6.998c-1.105,-0.977 -2.717,-2.039 -3.059,-3.369c6.369,-5.491 14.015,-7.968 20.555,-13.018c-5.777,-7.974 6.114,-1.417 9.169,-3.99c3.911,-0.351 8.159,-1.417 10.024,-5.137c-0.847,-4.252 -4.837,-7.087 -6.962,-10.806c-1.193,-2.744 -3.739,-5.05 -4.247,-8.062c10.699,-4.696 24.035,-2.922 35.671,-1.505c2.462,0.175 4.84,1.505 7.302,0.441c0.593,-1.593 0.426,-3.895 1.869,-5.313c3.653,2.391 7.218,4.96 11.805,5.047c0.427,-0.617 0.849,-1.237 1.187,-1.857c-0.169,-4.432 -1.27,-8.683 -0.592,-13.202c4.584,1.594 9.002,3.368 13.252,5.763Z" style="fill:url(#_Radial1);"/><path d="M76.782,105.82c0,1.435 -0.245,3.587 0.612,4.573c1.164,1.255 4.043,1.165 5.391,1.255l3.307,0l6.738,-0.538c2.941,-0.628 3.921,-1.076 6.248,-3.676c0.49,-0.538 1.532,-1.973 2.267,-1.973c0.735,0 1.042,0.807 1.042,1.794c0,0.717 -0.797,6.455 -1.042,7.173c-0.613,1.972 -1.899,1.793 -3.124,1.793l-28.3,0c-0.98,0 -2.144,-0.09 -2.144,-2.062c0,-1.435 0.613,-1.704 1.409,-2.152c2.267,-1.256 2.083,-1.704 2.083,-5.29l0,-49.85c0,-1.345 -1.226,-1.704 -2.021,-1.973c-0.919,-0.358 -1.777,-0.627 -1.777,-2.331c0,-1.972 1.164,-1.972 2.205,-1.972l8.331,0c1.041,0 2.205,0.09 2.205,1.972c0,1.525 -0.674,1.704 -1.47,2.152c-2.267,1.256 -1.96,1.704 -1.96,5.29l0,45.815Z" style="fill:#003976;fill-rule:nonzero;"/><path d="M109.063,96.765c5.022,-0.717 16.354,-2.331 16.354,-12.373c0,-4.752 -2.511,-6.814 -5.451,-6.814c-7.534,0 -11.087,9.145 -11.026,19.187l0.123,0Zm0.245,3.855c0.919,7.352 5.267,11.835 10.168,11.835c6.799,0 8.882,-7.531 10.535,-7.531c0.612,0 1.164,0.717 1.164,1.613c0,2.511 -2.572,5.649 -3.859,6.904c-2.633,2.6 -5.635,4.124 -8.82,4.124c-8.025,0 -14.456,-8.427 -14.456,-20.441c0,-13.18 7.167,-23.939 16.232,-23.939c2.144,0 4.411,0.627 6.248,2.331c2.144,1.973 3.797,5.29 3.797,9.056c0,6.455 -3.674,10.221 -7.35,12.283c-3.92,2.241 -8.269,2.869 -12.434,3.586l-1.225,0.179Z" style="fill:#003976;fill-rule:nonzero;"/><path d="M193.348,66.998c0,1.525 -0.307,3.049 -1.532,3.049c-0.98,0 -1.469,-2.331 -1.837,-3.407c-1.287,-3.855 -2.267,-6.545 -4.778,-9.235c-2.328,-2.421 -5.023,-3.586 -7.902,-3.586c-5.39,0 -9.249,3.227 -12.618,9.324c-3.308,5.917 -4.84,12.463 -4.84,20.083c0,6.456 1.225,14.525 3.798,19.904c3.186,6.546 7.964,9.325 13.293,9.325c5.39,0 9.127,-3.138 12.924,-8.697c0.613,-0.897 1.287,-2.421 2.328,-2.421c0.796,0 1.347,0.987 1.347,2.152c0,2.959 -4.593,8.069 -6.125,9.414c-3.308,3.049 -7.534,4.662 -11.454,4.662c-12.251,0 -22.358,-13.269 -22.358,-31.649c0,-19.366 10.352,-36.67 23.95,-36.67c4.104,0 8.024,1.435 11.7,4.214c0.858,0.717 2.818,2.242 3.368,3.407c0.552,1.166 0.674,2.421 0.736,3.676l0,6.455Z" style="fill:#003976;fill-rule:nonzero;"/><path d="M202.167,96.765c5.023,-0.717 16.355,-2.331 16.355,-12.373c0,-4.752 -2.511,-6.814 -5.452,-6.814c-7.534,0 -11.087,9.145 -11.025,19.187l0.122,0Zm0.245,3.855c0.919,7.352 5.269,11.835 10.169,11.835c6.799,0 8.882,-7.531 10.535,-7.531c0.613,0 1.164,0.717 1.164,1.613c0,2.511 -2.572,5.649 -3.859,6.904c-2.634,2.6 -5.635,4.124 -8.82,4.124c-8.025,0 -14.456,-8.427 -14.456,-20.441c0,-13.18 7.167,-23.939 16.232,-23.939c2.144,0 4.41,0.627 6.248,2.331c2.144,1.973 3.798,5.29 3.798,9.056c0,6.455 -3.676,10.221 -7.351,12.283c-3.921,2.241 -8.269,2.869 -12.434,3.586l-1.226,0.179Z" style="fill:#003976;fill-rule:nonzero;"/><path d="M230.65,57.943c0,-2.152 -0.979,-3.049 -2.143,-3.587c-0.368,-0.179 -0.981,-0.627 -0.981,-1.344c0,-1.076 0.736,-1.435 1.226,-1.883c1.102,-0.807 4.043,-2.78 5.206,-2.78c1.471,0 1.287,2.062 1.287,3.587l0,53.257c0,1.524 -0.061,3.406 0.244,4.841c0.185,1.076 0.245,1.345 0.919,1.794l0.674,0.537c0.612,0.448 1.103,0.807 1.103,1.883c0,1.793 -0.368,1.973 -1.654,1.973l-7.105,0c-1.042,0 -1.655,-0.18 -1.655,-1.973c0,-0.986 0.491,-1.435 1.042,-1.883l1.102,-0.807c1.042,-1.165 0.735,-4.841 0.735,-6.365l0,-47.25Z" style="fill:#003976;fill-rule:nonzero;"/><path d="M244.126,57.943c0,-2.152 -0.98,-3.049 -2.145,-3.587c-0.367,-0.179 -0.979,-0.627 -0.979,-1.344c0,-1.076 0.734,-1.435 1.225,-1.883c1.102,-0.807 4.043,-2.78 5.207,-2.78c1.469,0 1.286,2.062 1.286,3.587l0,53.257c0,1.524 -0.062,3.406 0.245,4.841c0.183,1.076 0.245,1.345 0.919,1.794l0.674,0.537c0.612,0.448 1.102,0.807 1.102,1.883c0,1.793 -0.368,1.973 -1.654,1.973l-7.106,0c-1.041,0 -1.653,-0.18 -1.653,-1.973c0,-0.986 0.489,-1.435 1.041,-1.883l1.103,-0.807c1.041,-1.165 0.735,-4.841 0.735,-6.365l0,-47.25Z" style="fill:#003976;fill-rule:nonzero;"/><path d="M256.56,61.35c0,-2.869 1.531,-4.842 3.429,-4.842c1.838,0 3.308,1.973 3.308,4.663c0,3.137 -1.47,5.11 -3.554,5.11c-1.897,0 -3.183,-2.242 -3.183,-4.931Zm0.734,54.871c-0.98,0 -2.082,-0.18 -2.082,-1.973c0,-1.166 0.49,-1.614 1.164,-1.883c1.776,-0.717 2.143,-2.152 2.143,-5.828l0,-18.917c-0.183,-3.945 0.306,-6.276 -2.572,-7.173c-0.613,-0.179 -1.347,-0.538 -1.347,-1.614c0,-0.538 0.06,-0.896 0.367,-1.255c0.612,-0.897 2.879,-2.331 3.798,-2.869c0.672,-0.448 1.775,-1.524 2.45,-1.524c1.531,0 1.531,2.51 1.715,4.124c0.367,3.317 0.183,6.635 0.183,9.952l0,17.932c0,1.434 -0.183,4.393 0.307,5.738c0.307,0.807 0.98,1.076 1.531,1.345c0.674,0.358 1.286,0.717 1.286,1.972c0,1.793 -0.919,1.973 -2.021,1.973l-6.922,0Z" style="fill:#003976;fill-rule:nonzero;"/><path d="M274.445,96.765c5.023,-0.717 16.355,-2.331 16.355,-12.373c0,-4.752 -2.512,-6.814 -5.451,-6.814c-7.535,0 -11.088,9.145 -11.027,19.187l0.123,0Zm0.245,3.855c0.918,7.352 5.268,11.835 10.168,11.835c6.799,0 8.882,-7.531 10.536,-7.531c0.613,0 1.164,0.717 1.164,1.613c0,2.511 -2.573,5.649 -3.859,6.904c-2.635,2.6 -5.636,4.124 -8.821,4.124c-8.024,0 -14.456,-8.427 -14.456,-20.441c0,-13.18 7.167,-23.939 16.232,-23.939c2.145,0 4.41,0.627 6.248,2.331c2.145,1.973 3.798,5.29 3.798,9.056c0,6.455 -3.675,10.221 -7.35,12.283c-3.92,2.241 -8.27,2.869 -12.435,3.586l-1.225,0.179Z" style="fill:#003976;fill-rule:nonzero;"/><path d="M308.563,108.869c0,2.689 1.287,3.048 1.838,3.317c0.613,0.448 1.103,0.807 1.103,1.883c0,1.972 -0.981,2.152 -2.022,2.152l-6.554,0c-0.98,0 -2.082,-0.09 -2.082,-2.152c0,-0.987 0.49,-1.435 1.041,-1.793c0.551,-0.269 2.083,-0.538 2.083,-3.407l0,-21.518c0,-3.587 -1.471,-5.738 -2.634,-6.545c-0.552,-0.359 -1.409,-0.717 -1.409,-1.883c0,-1.345 0.919,-2.331 1.593,-3.049c0.673,-0.716 2.572,-2.689 3.429,-2.689c2.39,0 3.064,8.697 3.309,11.297c1.224,-4.304 4.777,-11.297 8.208,-11.297c2.388,0 3.491,2.152 3.491,5.469c0,1.255 -0.307,3.318 -1.409,3.318c-1.041,0 -2.511,-1.883 -3.736,-1.883c-1.838,0 -3.615,3.406 -4.472,5.558c-1.164,2.869 -1.777,5.649 -1.777,9.504l0,13.718Z" style="fill:#003976;fill-rule:nonzero;"/><path d="M6.652,149.378c0,0.249 0.343,0.315 0.577,0.382c0.271,0.082 0.505,0.131 0.505,0.414c0,0.364 -0.342,0.381 -0.649,0.381l-2.508,0c-0.307,0 -0.65,-0.034 -0.65,-0.381c0,-0.266 0.217,-0.332 0.469,-0.398c0.686,-0.182 0.632,-0.332 0.632,-0.977l0,-8.5c0,-0.647 0.09,-1.028 -0.794,-1.028c-0.451,0 -1.065,0.083 -1.498,0.166c-0.74,0.15 -1.065,0.398 -1.624,0.829c-0.144,0.116 -0.361,0.347 -0.577,0.347c-0.253,0 -0.361,-0.181 -0.361,-0.381c0,-0.132 0.036,-0.264 0.054,-0.381c0.036,-0.231 0.09,-1.424 0.523,-1.424l10.015,0c0.127,0.016 0.253,0.016 0.343,0.099c0.163,0.165 0.307,1.028 0.343,1.259c0.036,0.133 0.072,0.299 0.072,0.431c0,0.182 -0.108,0.348 -0.325,0.348c-0.235,0 -0.433,-0.199 -0.595,-0.332c-0.523,-0.381 -0.758,-0.58 -1.426,-0.761c-0.415,-0.117 -1.118,-0.2 -1.552,-0.2c-1.01,0 -0.974,0.349 -0.974,1.127l0,8.98Z" style="fill:#003976;fill-rule:nonzero;"/><path d="M22.116,144.49c1.931,-0.281 5.72,-0.645 5.72,-3.081c0,-1.872 -2.201,-2.121 -3.771,-2.121c-0.415,0 -1.299,0 -1.624,0.216c-0.343,0.215 -0.325,0.678 -0.325,1.027l0,3.959Zm0,4.904c0,0.249 0.325,0.283 0.559,0.366c0.235,0.098 0.47,0.131 0.47,0.43c0,0.365 -0.361,0.365 -0.668,0.365l-2.418,0c-0.288,0 -0.65,-0.017 -0.65,-0.365c0,-0.282 0.217,-0.332 0.451,-0.414c0.686,-0.199 0.614,-0.315 0.632,-0.977l0,-9.196c0,-0.265 -0.361,-0.315 -0.595,-0.381c-0.271,-0.066 -0.523,-0.116 -0.523,-0.415c0,-0.364 0.342,-0.38 0.649,-0.38l5.612,0c0.956,0 1.877,0.083 2.689,0.58c0.848,0.497 1.353,1.292 1.353,2.203c0,1.657 -1.48,2.651 -2.959,3.264c1.227,1.292 2.057,2.817 2.833,4.375c0.252,0.512 0.379,0.745 0.938,0.977c0.217,0.082 0.469,0.132 0.469,0.398c0,0.331 -0.361,0.331 -0.613,0.331l-2.671,0c-0.271,0 -0.722,0 -0.722,-0.348c0,-0.514 0.921,-0.332 0.921,-0.944c0,-0.912 -2.021,-3.629 -2.833,-4.391l-2.924,0.48l0,4.042Z" style="fill:#003976;fill-rule:nonzero;"/><path d="M47.09,145.452l-0.198,-0.415l-2.491,-4.986l-2.598,5.401l5.287,0Zm-3.375,-6.23c0.235,-0.398 0.632,-1.126 0.903,-1.126c0.342,0 0.884,0.927 1.01,1.126c1.534,2.402 2.96,5.55 3.88,8.217l0.704,1.79c0.144,0.331 0.289,0.431 0.631,0.597c0.181,0.082 0.307,0.165 0.307,0.364c0,0.381 -0.415,0.365 -0.722,0.365l-2.237,0c-0.289,0 -0.65,-0.034 -0.65,-0.381c0,-0.514 0.92,-0.332 0.92,-0.862c0,-0.315 -0.775,-2.254 -0.956,-2.684l-0.126,-0.315l-5.865,0c-0.199,0.646 -0.83,2.022 -0.83,2.601c0,1.027 0.957,0.779 0.957,1.276c0,0.481 -0.759,0.365 -1.083,0.365l-1.047,0c-0.324,0 -1.173,0.099 -1.173,-0.381c0,-0.2 0.126,-0.299 0.289,-0.398c0.325,-0.199 0.415,-0.299 0.56,-0.63l0.649,-1.707c1.01,-2.667 2.436,-5.815 3.879,-8.217Z" style="fill:#003976;fill-rule:nonzero;"/><path d="M61.778,147.639c0,1.706 -0.054,2.071 1.985,2.071c3.519,0 5.72,-1.905 5.72,-5.17c0,-1.425 -0.469,-2.982 -1.606,-3.992c-1.119,-1.011 -2.833,-1.277 -4.331,-1.277c-1.642,0 -1.768,0.349 -1.768,1.707l0,6.661Zm1.66,-9.212c2.003,0 3.699,0.066 5.377,1.21c1.769,1.209 2.509,2.916 2.509,4.886c0,1.641 -0.632,3.199 -1.895,4.374c-1.444,1.31 -3.068,1.658 -5.035,1.658l-4.673,0c-0.307,0 -0.65,-0.017 -0.65,-0.381c0,-0.266 0.217,-0.332 0.451,-0.398c0.686,-0.199 0.632,-0.332 0.632,-0.977l0,-9.212c0,-0.249 -0.343,-0.299 -0.577,-0.365c-0.253,-0.082 -0.488,-0.132 -0.488,-0.415c0,-0.347 0.343,-0.38 0.632,-0.38l3.717,0Z" style="fill:#003976;fill-rule:nonzero;"/><path d="M80.671,139.587c0,-0.249 -0.343,-0.299 -0.578,-0.365c-0.252,-0.082 -0.505,-0.132 -0.505,-0.431c0,-0.364 0.361,-0.364 0.65,-0.364l2.49,0c0.289,0 0.631,0.016 0.631,0.364c0,0.282 -0.198,0.332 -0.433,0.414c-0.685,0.199 -0.613,0.315 -0.631,0.977l0,9.196c0,0.249 0.343,0.299 0.577,0.382c0.253,0.082 0.487,0.131 0.487,0.414c0,0.364 -0.342,0.381 -0.649,0.381l-2.49,0c-0.289,0 -0.65,-0.017 -0.65,-0.381c0,-0.266 0.217,-0.332 0.469,-0.398c0.686,-0.182 0.632,-0.332 0.632,-0.977l0,-9.212Z" style="fill:#003976;fill-rule:nonzero;"/><path d="M97.597,149.378c0,0.249 0.342,0.315 0.577,0.382c0.271,0.082 0.505,0.131 0.505,0.414c0,0.364 -0.343,0.381 -0.649,0.381l-2.508,0c-0.307,0 -0.65,-0.034 -0.65,-0.381c0,-0.266 0.216,-0.332 0.469,-0.398c0.686,-0.182 0.632,-0.332 0.632,-0.977l0,-8.5c0,-0.647 0.09,-1.028 -0.794,-1.028c-0.451,0 -1.065,0.083 -1.498,0.166c-0.74,0.15 -1.065,0.398 -1.624,0.829c-0.144,0.116 -0.361,0.347 -0.577,0.347c-0.253,0 -0.361,-0.181 -0.361,-0.381c0,-0.132 0.036,-0.264 0.054,-0.381c0.036,-0.231 0.09,-1.424 0.523,-1.424l10.015,0c0.127,0.016 0.253,0.016 0.343,0.099c0.163,0.165 0.307,1.028 0.343,1.259c0.036,0.133 0.072,0.299 0.072,0.431c0,0.182 -0.108,0.348 -0.324,0.348c-0.235,0 -0.434,-0.199 -0.596,-0.332c-0.523,-0.381 -0.758,-0.58 -1.425,-0.761c-0.416,-0.117 -1.12,-0.2 -1.553,-0.2c-1.01,0 -0.974,0.349 -0.974,1.127l0,8.98Z" style="fill:#003976;fill-rule:nonzero;"/><path d="M111.347,139.587c0,-0.249 -0.343,-0.299 -0.577,-0.365c-0.253,-0.082 -0.505,-0.132 -0.505,-0.431c0,-0.364 0.36,-0.364 0.649,-0.364l2.49,0c0.289,0 0.632,0.016 0.632,0.364c0,0.282 -0.199,0.332 -0.433,0.414c-0.686,0.199 -0.614,0.315 -0.632,0.977l0,9.196c0,0.249 0.343,0.299 0.578,0.382c0.252,0.082 0.487,0.131 0.487,0.414c0,0.364 -0.343,0.381 -0.65,0.381l-2.49,0c-0.289,0 -0.649,-0.017 -0.649,-0.381c0,-0.266 0.216,-0.332 0.468,-0.398c0.686,-0.182 0.632,-0.332 0.632,-0.977l0,-9.212Z" style="fill:#003976;fill-rule:nonzero;"/><path d="M132.423,148.185c0.794,-1.01 1.119,-2.319 1.119,-3.562c0,-1.292 -0.307,-2.767 -1.137,-3.827c-0.83,-1.061 -2.148,-1.739 -3.573,-1.739c-1.515,0 -2.796,0.778 -3.59,1.938c-0.741,1.044 -1.029,2.303 -1.029,3.545c0,1.276 0.307,2.585 1.119,3.662c0.793,1.061 2.021,1.739 3.464,1.739c1.461,0 2.761,-0.678 3.627,-1.756Zm-8.282,0.862c-1.282,-1.242 -1.768,-2.8 -1.768,-4.49c0,-3.496 2.507,-6.378 6.459,-6.378c1.787,0 3.483,0.628 4.728,1.822c1.299,1.225 1.823,2.849 1.823,4.539c0,3.562 -2.743,6.263 -6.678,6.263c-1.731,0 -3.355,-0.596 -4.564,-1.756Z" style="fill:#003976;fill-rule:nonzero;"/><path d="M154.041,140.465c0,-0.216 0.018,-0.647 -0.036,-0.845c-0.054,-0.266 -0.235,-0.315 -0.487,-0.382c-0.289,-0.082 -0.578,-0.115 -0.578,-0.447c0,-0.281 0.235,-0.364 0.487,-0.364l2.22,0c0.27,0 0.523,0.099 0.523,0.38c0,0.25 -0.253,0.316 -0.451,0.381c-0.217,0.083 -0.505,0.15 -0.577,0.366c-0.055,0.165 -0.037,0.645 -0.037,0.811l0,9.56c0,0.315 0.091,0.878 -0.415,0.878c-0.252,0 -0.415,-0.315 -0.505,-0.481c-0.667,-1.225 -1.606,-2.319 -2.418,-3.462c-1.678,-2.37 -3.32,-4.788 -5.45,-6.859l0,8.93c0,0.447 0.018,0.663 0.542,0.795c0.325,0.067 0.578,0.1 0.578,0.448c0,0.264 -0.217,0.381 -0.47,0.381l-2.454,0c-0.271,0 -0.469,-0.117 -0.469,-0.381c0,-0.266 0.198,-0.348 0.433,-0.398c0.92,-0.166 0.776,-0.398 0.776,-1.193l0,-8.135c0,-0.63 0,-1.177 -0.794,-1.325c-0.235,-0.05 -0.56,-0.083 -0.56,-0.382c0,-0.265 0.289,-0.314 0.524,-0.314l2.075,0c0.505,-0.017 2.941,2.882 3.699,3.81l0.921,1.127c0.992,1.209 1.948,2.617 2.923,4.075l0,-6.974Z" style="fill:#003976;fill-rule:nonzero;"/><path d="M184.139,140.663c0,-1.06 -0.92,-1.756 -2.039,-1.756c-1.029,0 -2.165,0.597 -2.165,1.641c0,0.977 0.739,1.971 1.371,2.717c1.065,-0.514 2.833,-1.342 2.833,-2.602Zm-3.627,3.927c-1.155,0.596 -2.112,1.474 -2.112,2.767c0,1.492 1.318,2.436 2.87,2.436c1.281,0 2.039,-0.399 3.013,-1.111l-3.771,-4.092Zm4.854,3.132c0.613,-0.647 1.57,-1.856 1.57,-2.735c0,-0.662 -1.173,-0.48 -1.173,-1.026c0,-0.365 0.343,-0.332 0.632,-0.332l2.724,0c0.289,0 0.722,-0.033 0.722,0.348c0,0.232 -0.235,0.348 -0.451,0.414c-0.307,0.116 -0.577,0.215 -0.812,0.448c-0.253,0.281 -0.578,0.811 -0.776,1.142l-1.768,2.321c0.83,0.745 1.894,1.341 3.085,1.341c0.506,0 0.921,-0.149 1.3,-0.149c0.18,0 0.343,0.116 0.343,0.299c0,0.314 -0.451,0.529 -0.722,0.645c-0.56,0.216 -1.011,0.283 -1.606,0.283c-1.408,0 -2.491,-0.58 -3.501,-1.425c-1.119,0.911 -2.454,1.507 -3.988,1.507c-2.021,0 -3.988,-1.176 -3.988,-3.181c0,-1.69 1.534,-2.899 3.014,-3.678c-0.722,-0.879 -1.336,-1.773 -1.336,-2.916c0,-1.856 1.787,-2.849 3.645,-2.849c0.704,0 1.408,0.165 1.985,0.545c0.632,0.416 1.083,1.094 1.083,1.807c0,1.673 -2.111,2.7 -3.483,3.413l3.501,3.778Z" style="fill:#003976;fill-rule:nonzero;"/><path d="M217.413,149.378c0,0.249 0.343,0.315 0.577,0.382c0.271,0.082 0.506,0.131 0.506,0.414c0,0.364 -0.344,0.381 -0.65,0.381l-2.508,0c-0.307,0 -0.65,-0.034 -0.65,-0.381c0,-0.266 0.216,-0.332 0.469,-0.398c0.686,-0.182 0.632,-0.332 0.632,-0.977l0,-8.5c0,-0.647 0.09,-1.028 -0.794,-1.028c-0.451,0 -1.064,0.083 -1.498,0.166c-0.739,0.15 -1.064,0.398 -1.624,0.829c-0.144,0.116 -0.36,0.347 -0.577,0.347c-0.253,0 -0.361,-0.181 -0.361,-0.381c0,-0.132 0.036,-0.264 0.054,-0.381c0.036,-0.231 0.09,-1.424 0.524,-1.424l10.014,0c0.126,0.016 0.253,0.016 0.343,0.099c0.162,0.165 0.307,1.028 0.343,1.259c0.036,0.133 0.072,0.299 0.072,0.431c0,0.182 -0.108,0.348 -0.325,0.348c-0.234,0 -0.433,-0.199 -0.595,-0.332c-0.523,-0.381 -0.759,-0.58 -1.426,-0.761c-0.415,-0.117 -1.119,-0.2 -1.551,-0.2c-1.011,0 -0.975,0.349 -0.975,1.127l0,8.98Z" style="fill:#003976;fill-rule:nonzero;"/><path d="M232.823,147.705c0,1.358 0.145,1.988 1.588,1.988l2.707,0c0.92,0 1.552,-0.364 2.183,-0.911c0.163,-0.133 0.433,-0.415 0.668,-0.415c0.18,0 0.289,0.133 0.289,0.282c0,0.282 -0.127,0.779 -0.181,1.077c-0.162,0.845 -0.09,0.812 -0.902,0.829l-8.409,0c-0.288,0 -0.631,-0.017 -0.631,-0.381c0,-0.266 0.198,-0.332 0.432,-0.398c0.686,-0.199 0.632,-0.332 0.632,-0.977l0,-8.748c0,-0.399 -0.054,-0.763 -0.577,-0.846c-0.253,-0.065 -0.487,-0.115 -0.487,-0.414c0,-0.348 0.343,-0.364 0.649,-0.364l7.994,0c0.451,0.099 0.595,0.464 0.65,0.795l0.144,1.01c-0.018,0.166 -0.127,0.266 -0.306,0.266c-0.145,0 -0.236,-0.05 -0.308,-0.133c-0.487,-0.563 -1.263,-1.077 -2.057,-1.077l-2.905,0c-0.902,0 -1.245,0.332 -1.173,1.293l0,3.015l3.465,0c0.487,0 0.83,-0.017 1.209,-0.331c0.126,-0.117 0.198,-0.216 0.397,-0.216c0.487,0 0.361,0.945 0.361,1.193c0.017,0.331 0.054,0.73 -0.434,0.73c-0.162,0 -0.288,-0.117 -0.396,-0.216c-0.362,-0.298 -0.578,-0.298 -1.047,-0.298l-3.555,0l0,3.247Z" style="fill:#003976;fill-rule:nonzero;"/><path d="M258.338,140.465c0,-0.216 0.017,-0.647 -0.036,-0.845c-0.055,-0.266 -0.236,-0.315 -0.487,-0.382c-0.289,-0.082 -0.578,-0.115 -0.578,-0.447c0,-0.281 0.234,-0.364 0.488,-0.364l2.219,0c0.271,0 0.523,0.099 0.523,0.38c0,0.25 -0.252,0.316 -0.45,0.381c-0.218,0.083 -0.507,0.15 -0.578,0.366c-0.054,0.165 -0.036,0.645 -0.036,0.811l0,9.56c0,0.315 0.09,0.878 -0.415,0.878c-0.254,0 -0.415,-0.315 -0.506,-0.481c-0.667,-1.225 -1.605,-2.319 -2.418,-3.462c-1.677,-2.37 -3.32,-4.788 -5.449,-6.859l0,8.93c0,0.447 0.018,0.663 0.541,0.795c0.325,0.067 0.577,0.1 0.577,0.448c0,0.264 -0.215,0.381 -0.468,0.381l-2.454,0c-0.271,0 -0.469,-0.117 -0.469,-0.381c0,-0.266 0.198,-0.348 0.432,-0.398c0.92,-0.166 0.777,-0.398 0.777,-1.193l0,-8.135c0,-0.63 0,-1.177 -0.794,-1.325c-0.236,-0.05 -0.56,-0.083 -0.56,-0.382c0,-0.265 0.288,-0.314 0.524,-0.314l2.075,0c0.505,-0.017 2.941,2.882 3.699,3.81l0.92,1.127c0.992,1.209 1.949,2.617 2.923,4.075l0,-6.974Z" style="fill:#003976;fill-rule:nonzero;"/><path d="M271.456,147.639c0,1.706 -0.054,2.071 1.985,2.071c3.519,0 5.721,-1.905 5.721,-5.17c0,-1.425 -0.47,-2.982 -1.606,-3.992c-1.119,-1.011 -2.833,-1.277 -4.331,-1.277c-1.642,0 -1.769,0.349 -1.769,1.707l0,6.661Zm1.66,-9.212c2.004,0 3.699,0.066 5.378,1.21c1.769,1.209 2.508,2.916 2.508,4.886c0,1.641 -0.631,3.199 -1.895,4.374c-1.443,1.31 -3.067,1.658 -5.034,1.658l-4.674,0c-0.306,0 -0.649,-0.017 -0.649,-0.381c0,-0.266 0.217,-0.332 0.451,-0.398c0.686,-0.199 0.631,-0.332 0.631,-0.977l0,-9.212c0,-0.249 -0.343,-0.299 -0.577,-0.365c-0.252,-0.082 -0.487,-0.132 -0.487,-0.415c0,-0.347 0.342,-0.38 0.631,-0.38l3.717,0Z" style="fill:#003976;fill-rule:nonzero;"/><path d="M297.549,145.452l-0.198,-0.415l-2.491,-4.986l-2.598,5.401l5.287,0Zm-3.374,-6.23c0.234,-0.398 0.632,-1.126 0.902,-1.126c0.343,0 0.884,0.927 1.011,1.126c1.533,2.402 2.959,5.55 3.879,8.217l0.704,1.79c0.144,0.331 0.289,0.431 0.632,0.597c0.18,0.082 0.306,0.165 0.306,0.364c0,0.381 -0.415,0.365 -0.721,0.365l-2.239,0c-0.288,0 -0.649,-0.034 -0.649,-0.381c0,-0.514 0.921,-0.332 0.921,-0.862c0,-0.315 -0.776,-2.254 -0.957,-2.684l-0.126,-0.315l-5.864,0c-0.2,0.646 -0.83,2.022 -0.83,2.601c0,1.027 0.956,0.779 0.956,1.276c0,0.481 -0.758,0.365 -1.083,0.365l-1.047,0c-0.324,0 -1.173,0.099 -1.173,-0.381c0,-0.2 0.127,-0.299 0.289,-0.398c0.325,-0.199 0.415,-0.299 0.56,-0.63l0.649,-1.707c1.011,-2.667 2.436,-5.815 3.88,-8.217Z" style="fill:#003976;fill-rule:nonzero;"/><path d="M319.689,140.465c0,-0.216 0.019,-0.647 -0.036,-0.845c-0.053,-0.266 -0.234,-0.315 -0.487,-0.382c-0.288,-0.082 -0.577,-0.115 -0.577,-0.447c0,-0.281 0.234,-0.364 0.487,-0.364l2.22,0c0.27,0 0.523,0.099 0.523,0.38c0,0.25 -0.253,0.316 -0.451,0.381c-0.217,0.083 -0.506,0.15 -0.578,0.366c-0.054,0.165 -0.035,0.645 -0.035,0.811l0,9.56c0,0.315 0.09,0.878 -0.416,0.878c-0.252,0 -0.414,-0.315 -0.505,-0.481c-0.668,-1.225 -1.605,-2.319 -2.418,-3.462c-1.678,-2.37 -3.32,-4.788 -5.449,-6.859l0,8.93c0,0.447 0.017,0.663 0.541,0.795c0.325,0.067 0.577,0.1 0.577,0.448c0,0.264 -0.216,0.381 -0.469,0.381l-2.454,0c-0.27,0 -0.47,-0.117 -0.47,-0.381c0,-0.266 0.2,-0.348 0.434,-0.398c0.92,-0.166 0.775,-0.398 0.775,-1.193l0,-8.135c0,-0.63 0,-1.177 -0.794,-1.325c-0.234,-0.05 -0.558,-0.083 -0.558,-0.382c0,-0.265 0.288,-0.314 0.522,-0.314l2.076,0c0.505,-0.017 2.941,2.882 3.7,3.81l0.92,1.127c0.992,1.209 1.949,2.617 2.922,4.075l0,-6.974Z" style="fill:#003976;fill-rule:nonzero;"/><path d="M341.938,141.459c0,0.281 -0.089,0.563 -0.451,0.563c-0.288,0 -0.432,-0.431 -0.541,-0.63c-0.379,-0.712 -0.668,-1.21 -1.407,-1.707c-0.685,-0.447 -1.479,-0.662 -2.328,-0.662c-1.588,0 -2.725,0.597 -3.717,1.723c-0.974,1.094 -1.426,2.303 -1.426,3.712c0,1.192 0.361,2.683 1.119,3.678c0.938,1.209 2.346,1.722 3.916,1.722c1.587,0 2.688,-0.579 3.807,-1.606c0.181,-0.166 0.379,-0.447 0.686,-0.447c0.234,0 0.397,0.181 0.397,0.397c0,0.547 -1.353,1.491 -1.805,1.739c-0.974,0.564 -2.219,0.862 -3.374,0.862c-3.609,0 -6.586,-2.452 -6.586,-5.848c0,-3.579 3.049,-6.776 7.055,-6.776c1.209,0 2.364,0.264 3.446,0.778c0.253,0.133 0.831,0.414 0.994,0.63c0.162,0.215 0.198,0.447 0.215,0.679l0,1.193Z" style="fill:#003976;fill-rule:nonzero;"/><path d="M353,147.705c0,1.358 0.145,1.988 1.588,1.988l2.707,0c0.92,0 1.552,-0.364 2.183,-0.911c0.163,-0.133 0.433,-0.415 0.668,-0.415c0.18,0 0.289,0.133 0.289,0.282c0,0.282 -0.127,0.779 -0.181,1.077c-0.162,0.845 -0.09,0.812 -0.902,0.829l-8.41,0c-0.288,0 -0.63,-0.017 -0.63,-0.381c0,-0.266 0.198,-0.332 0.432,-0.398c0.686,-0.199 0.632,-0.332 0.632,-0.977l0,-8.748c0,-0.399 -0.055,-0.763 -0.578,-0.846c-0.252,-0.065 -0.486,-0.115 -0.486,-0.414c0,-0.348 0.342,-0.364 0.649,-0.364l7.994,0c0.45,0.099 0.595,0.464 0.649,0.795l0.145,1.01c-0.019,0.166 -0.127,0.266 -0.308,0.266c-0.143,0 -0.234,-0.05 -0.306,-0.133c-0.488,-0.563 -1.263,-1.077 -2.057,-1.077l-2.905,0c-0.902,0 -1.245,0.332 -1.173,1.293l0,3.015l3.465,0c0.487,0 0.83,-0.017 1.209,-0.331c0.126,-0.117 0.198,-0.216 0.396,-0.216c0.488,0 0.362,0.945 0.362,1.193c0.017,0.331 0.053,0.73 -0.434,0.73c-0.162,0 -0.288,-0.117 -0.396,-0.216c-0.362,-0.298 -0.579,-0.298 -1.047,-0.298l-3.555,0l0,3.247Z" style="fill:#003976;fill-rule:nonzero;"/><path d="M374.328,143.546c0.849,0.182 1.896,0.448 2.599,0.944c0.83,0.613 1.281,1.525 1.281,2.485c0,1.094 -0.596,2.122 -1.497,2.801c-1.029,0.762 -2.292,1.027 -3.592,1.027c-1.173,0 -2.382,-0.215 -3.338,-0.845c-0.632,-0.431 -1.552,-1.325 -1.552,-2.104c0,-0.265 0.163,-0.53 0.488,-0.53c0.306,0 0.469,0.215 0.613,0.447c0.379,0.613 0.722,1.11 1.39,1.508c0.775,0.464 1.696,0.662 2.616,0.662c1.679,0 3.482,-0.844 3.482,-2.584c0,-3.512 -8.084,-1.243 -8.084,-5.683c0,-0.994 0.524,-1.906 1.354,-2.534c0.921,-0.73 2.021,-0.961 3.23,-0.961c1.101,0 2.382,0.264 3.321,0.811c0.198,0.116 0.324,0.215 0.396,0.414c0.055,0.199 0.055,0.745 0.055,0.961c0,0.183 0.036,0.58 -0.289,0.58c-0.505,0 -1.192,-1.922 -3.934,-1.922c-1.281,0 -2.581,0.779 -2.581,2.038c0,1.342 1.155,1.856 2.401,2.137l1.641,0.348Z" style="fill:#003976;fill-rule:nonzero;"/><path d="M0,125.49l376.913,0" style="fill:none;fill-rule:nonzero;"/><path d="M0,125.49l376.913,0" style="fill:none;stroke:#003976;stroke-width:1px;"/></g><defs><radialGradient id="_Radial1" cx="0" cy="0" r="1" gradientUnits="userSpaceOnUse" gradientTransform="matrix(113.441,0,0,113.441,188.466,111.05)"><stop offset="0" style="stop-color:#fff;stop-opacity:1"/><stop offset="1" style="stop-color:#ffe376;stop-opacity:1"/></radialGradient></defs></svg>