<?xml version="1.0" encoding="UTF-8" standalone="no"?>
<svg
   xmlns:dc="http://purl.org/dc/elements/1.1/"
   xmlns:cc="http://creativecommons.org/ns#"
   xmlns:rdf="http://www.w3.org/1999/02/22-rdf-syntax-ns#"
   xmlns:svg="http://www.w3.org/2000/svg"
   xmlns="http://www.w3.org/2000/svg"
   xmlns:sodipodi="http://sodipodi.sourceforge.net/DTD/sodipodi-0.dtd"
   xmlns:inkscape="http://www.inkscape.org/namespaces/inkscape"
   width="496.30374pt"
   height="118.25715pt"
   viewBox="0 0 496.30374 118.25715"
   version="1.2"
   id="svg350"
   sodipodi:docname="logomotif.svg"
   inkscape:version="0.92.5 (2060ec1f9f, 2020-04-08)">
  <metadata
     id="metadata354">
    <rdf:RDF>
      <cc:Work
         rdf:about="">
        <dc:format>image/svg+xml</dc:format>
        <dc:type
           rdf:resource="http://purl.org/dc/dcmitype/StillImage" />
        <dc:title></dc:title>
      </cc:Work>
    </rdf:RDF>
  </metadata>
  <sodipodi:namedview
     pagecolor="#ffffff"
     bordercolor="#666666"
     borderopacity="1"
     objecttolerance="10"
     gridtolerance="10"
     guidetolerance="10"
     inkscape:pageopacity="0"
     inkscape:pageshadow="2"
     inkscape:window-width="1172"
     inkscape:window-height="812"
     id="namedview352"
     showgrid="false"
     inkscape:pagecheckerboard="true"
     inkscape:zoom="0.59465202"
     inkscape:cx="443.10714"
     inkscape:cy="44.768428"
     inkscape:window-x="0"
     inkscape:window-y="0"
     inkscape:window-maximized="0"
     inkscape:current-layer="svg350" />
  <defs
     id="defs251">
    <clipPath
       id="clip1">
      <path
         d="m 47,301 h 43 v 62 H 47 Z m 0,0"
         id="path2"
         inkscape:connector-curvature="0" />
    </clipPath>
    <clipPath
       id="clip2">
      <path
         d="m 72.179688,301.71484 -24.484376,60.73047 h 35.078126 l 5.574218,-13.83594 H 70.648438 l 18.824218,-46.89453 z m 0,0"
         id="path5"
         inkscape:connector-curvature="0" />
    </clipPath>
    <linearGradient
       id="linear0"
       gradientUnits="userSpaceOnUse"
       x1="0.90663302"
       y1="0"
       x2="1.010217"
       y2="0"
       gradientTransform="matrix(-418.5379,-11.055594,11.055594,-418.5379,469.7211,342.67574)">
      <stop
         offset="0"
         style="stop-color:rgb(22.471619%,21.359253%,19.995117%);stop-opacity:1;"
         id="stop8" />
      <stop
         offset="0.125"
         style="stop-color:rgb(22.395325%,21.282959%,19.918823%);stop-opacity:1;"
         id="stop10" />
      <stop
         offset="0.25"
         style="stop-color:rgb(22.244263%,21.130371%,19.766235%);stop-opacity:1;"
         id="stop12" />
      <stop
         offset="0.375"
         style="stop-color:rgb(22.093201%,20.979309%,19.613647%);stop-opacity:1;"
         id="stop14" />
      <stop
         offset="0.5"
         style="stop-color:rgb(21.942139%,20.828247%,19.464111%);stop-opacity:1;"
         id="stop16" />
      <stop
         offset="0.625"
         style="stop-color:rgb(21.791077%,20.678711%,19.311523%);stop-opacity:1;"
         id="stop18" />
      <stop
         offset="0.75"
         style="stop-color:rgb(21.640015%,20.527649%,19.161987%);stop-opacity:1;"
         id="stop20" />
      <stop
         offset="1"
         style="stop-color:rgb(21.47522%,20.361328%,18.995667%);stop-opacity:1;"
         id="stop22" />
    </linearGradient>
    <clipPath
       id="clip3">
      <path
         d="m 92,301 h 57 v 63 H 92 Z m 0,0"
         id="path25"
         inkscape:connector-curvature="0" />
    </clipPath>
    <clipPath
       id="clip4">
      <path
         d="m 127.71875,301.64062 c -2.85937,0 -5.5,0.41797 -7.92187,1.26563 -2.42579,0.83984 -4.63672,2.01953 -6.62891,3.53516 -1.99609,1.52343 -3.74609,3.35546 -5.25391,5.49609 -1.51172,2.14453 -2.77734,4.51953 -3.79687,7.12109 -1.08203,2.66016 -2.15625,5.34766 -3.23438,8.0586 -1.078122,2.71484 -2.074216,5.21093 -2.992185,7.49218 l -3.070313,7.73047 c -1.5625,4.01563 -2.265624,7.36719 -2.101562,10.05078 0.164062,2.6875 0.890625,4.84375 2.183594,6.47266 1.292968,1.62891 2.988281,2.78125 5.09375,3.45703 2.097656,0.67969 4.308596,1.01953 6.624996,1.01953 h 8.16407 c 2.85547,0 5.375,-0.17578 7.55859,-0.52734 2.17969,-0.35547 4.14844,-1.11328 5.89844,-2.28125 1.75,-1.16406 3.36718,-2.86328 4.84765,-5.08594 1.48047,-2.22265 2.98047,-5.18359 4.48828,-8.87109 1.34766,-3.14453 2.70704,-6.36328 4.08204,-9.64844 1.37109,-3.28125 2.75781,-6.82422 4.16406,-10.62109 1.5039,-3.90625 2.27344,-7.39453 2.30078,-10.46094 0.0273,-3.06641 -0.60547,-5.65625 -1.89844,-7.77344 -1.29297,-2.11719 -3.20703,-3.71484 -5.73828,-4.80078 -2.53516,-1.08594 -5.60547,-1.62891 -9.21484,-1.62891 z m -16.20703,47.69922 c -0.35156,-0.59765 -0.12109,-1.92578 0.6875,-3.98828 l 10.10156,-25.23437 c 0.53906,-1.41016 1.10547,-2.375 1.69922,-2.88672 0.59375,-0.51953 1.5625,-0.77344 2.90625,-0.77344 0.97266,0 1.65625,0.35156 2.0625,1.05469 0.40625,0.70703 0.39062,1.54687 -0.0391,2.52344 l -10.50781,26.61718 c -0.53907,1.35938 -1.1836,2.29297 -1.94141,2.8125 -0.75391,0.51563 -1.72266,0.76953 -2.91016,0.76953 -1.02343,0 -1.71093,-0.29687 -2.05859,-0.89453"
         id="path28"
         inkscape:connector-curvature="0" />
    </clipPath>
    <linearGradient
       id="linear1"
       gradientUnits="userSpaceOnUse"
       x1="0.76648003"
       y1="0"
       x2="0.90311199"
       y2="0"
       gradientTransform="matrix(-418.53174,-11.055431,11.055431,-418.53174,469.741,341.75533)">
      <stop
         offset="0"
         style="stop-color:rgb(24.136353%,23.025513%,21.66748%);stop-opacity:1;"
         id="stop31" />
      <stop
         offset="0.125"
         style="stop-color:rgb(24.035645%,22.924805%,21.563721%);stop-opacity:1;"
         id="stop33" />
      <stop
         offset="0.25"
         style="stop-color:rgb(23.831177%,22.718811%,21.357727%);stop-opacity:1;"
         id="stop35" />
      <stop
         offset="0.375"
         style="stop-color:rgb(23.626709%,22.514343%,21.153259%);stop-opacity:1;"
         id="stop37" />
      <stop
         offset="0.5"
         style="stop-color:rgb(23.422241%,22.309875%,20.948792%);stop-opacity:1;"
         id="stop39" />
      <stop
         offset="0.625"
         style="stop-color:rgb(23.219299%,22.106934%,20.744324%);stop-opacity:1;"
         id="stop41" />
      <stop
         offset="0.75"
         style="stop-color:rgb(23.016357%,21.903992%,20.541382%);stop-opacity:1;"
         id="stop43" />
      <stop
         offset="0.875"
         style="stop-color:rgb(22.814941%,21.702576%,20.33844%);stop-opacity:1;"
         id="stop45" />
      <stop
         offset="1"
         style="stop-color:rgb(22.613525%,21.50116%,20.137024%);stop-opacity:1;"
         id="stop47" />
    </linearGradient>
    <clipPath
       id="clip5">
      <path
         d="m 196,301 h 57 v 63 h -57 z m 0,0"
         id="path50"
         inkscape:connector-curvature="0" />
    </clipPath>
    <clipPath
       id="clip6">
      <path
         d="m 231.60156,301.64062 c -2.85547,0 -5.49609,0.41797 -7.91797,1.26563 -2.42578,0.83984 -4.63672,2.01953 -6.6289,3.53516 -1.99219,1.52343 -3.7461,3.35546 -5.25391,5.49609 -1.50781,2.14453 -2.77734,4.51953 -3.79687,7.12109 -1.07813,2.66016 -2.15625,5.34766 -3.23438,8.0586 -1.07812,2.71484 -2.07422,5.21093 -2.99219,7.49218 l -3.07031,7.73047 c -1.5625,4.01563 -2.26172,7.36719 -2.10156,10.05078 0.16015,2.6875 0.88672,4.84375 2.17969,6.47266 1.29687,1.62891 2.99218,2.78125 5.09375,3.45703 2.10156,0.67969 4.3125,1.01953 6.6289,1.01953 h 8.16406 c 2.85547,0 5.375,-0.17578 7.5586,-0.52734 2.17969,-0.35547 4.14844,-1.11328 5.89844,-2.28125 1.75,-1.16406 3.36718,-2.86328 4.84765,-5.08594 1.48438,-2.22265 2.97656,-5.18359 4.48828,-8.87109 1.34375,-3.14453 2.70703,-6.36328 4.08203,-9.64844 1.3711,-3.28125 2.75782,-6.82422 4.16407,-10.62109 1.50781,-3.90625 2.27343,-7.39453 2.30078,-10.46094 0.0273,-3.06641 -0.60547,-5.65625 -1.90235,-7.77344 -1.29296,-2.11719 -3.20312,-3.71484 -5.73828,-4.80078 -2.53125,-1.08594 -5.60156,-1.62891 -9.21484,-1.62891 z m -16.20703,47.69922 c -0.34766,-0.59765 -0.12109,-1.92578 0.69141,-3.98828 l 10.10547,-25.23437 c 0.53515,-1.41016 1.10156,-2.375 1.69531,-2.88672 0.58984,-0.51953 1.5625,-0.77344 2.91015,-0.77344 0.96875,0 1.65625,0.35156 2.0586,1.05469 0.40234,0.70703 0.39062,1.54687 -0.0391,2.52344 l -10.50782,26.61718 c -0.53906,1.35938 -1.1875,2.29297 -1.9414,2.8125 -0.75391,0.51563 -1.72657,0.76953 -2.90625,0.76953 -1.02344,0 -1.71485,-0.29687 -2.06641,-0.89453"
         id="path53"
         inkscape:connector-curvature="0" />
    </clipPath>
    <linearGradient
       id="linear2"
       gradientUnits="userSpaceOnUse"
       x1="0.51843798"
       y1="0"
       x2="0.65506798"
       y2="0"
       gradientTransform="matrix(-418.54685,-11.05583,11.05583,-418.54685,469.82459,339.01338)">
      <stop
         offset="0"
         style="stop-color:rgb(27.180481%,26.078796%,24.734497%);stop-opacity:1;"
         id="stop56" />
      <stop
         offset="0.125"
         style="stop-color:rgb(27.073669%,25.971985%,24.627686%);stop-opacity:1;"
         id="stop58" />
      <stop
         offset="0.25"
         style="stop-color:rgb(26.860046%,25.756836%,24.412537%);stop-opacity:1;"
         id="stop60" />
      <stop
         offset="0.375"
         style="stop-color:rgb(26.647949%,25.544739%,24.197388%);stop-opacity:1;"
         id="stop62" />
      <stop
         offset="0.5"
         style="stop-color:rgb(26.435852%,25.331116%,23.983765%);stop-opacity:1;"
         id="stop64" />
      <stop
         offset="0.625"
         style="stop-color:rgb(26.223755%,25.119019%,23.770142%);stop-opacity:1;"
         id="stop66" />
      <stop
         offset="0.75"
         style="stop-color:rgb(26.013184%,24.906921%,23.556519%);stop-opacity:1;"
         id="stop68" />
      <stop
         offset="0.875"
         style="stop-color:rgb(25.802612%,24.69635%,23.344421%);stop-opacity:1;"
         id="stop70" />
      <stop
         offset="1"
         style="stop-color:rgb(25.593567%,24.485779%,23.13385%);stop-opacity:1;"
         id="stop72" />
    </linearGradient>
    <clipPath
       id="clip7">
      <path
         d="m 241,301 h 88 v 62 h -88 z m 0,0"
         id="path75"
         inkscape:connector-curvature="0" />
    </clipPath>
    <clipPath
       id="clip8">
      <path
         d="m 314.19141,301.71484 c -1.07813,0 -2.21485,0.32422 -3.39844,0.97657 -1.1875,0.65234 -2.15235,1.33203 -2.90625,2.03515 l -21.26172,20.35156 -5.32813,-18.96875 c -0.32812,-1.30078 -0.92187,-2.35937 -1.78125,-3.17187 -0.86328,-0.81641 -1.99609,-1.22266 -3.39843,-1.22266 h -9.85547 l -24.50391,60.73047 h 17.375 l 11.96485,-29.6289 4.36718,18.3164 c 0.15625,0.76172 0.64453,1.25781 1.44922,1.50391 0.8125,0.24609 1.56641,0.0156 2.26953,-0.69141 l 19.3125,-19.1289 -11.96484,29.6289 h 17.30078 l 24.5,-60.73047 z m 0,0"
         id="path78"
         inkscape:connector-curvature="0" />
    </clipPath>
    <linearGradient
       id="linear3"
       gradientUnits="userSpaceOnUse"
       x1="0.33633199"
       y1="0"
       x2="0.54687202"
       y2="0"
       gradientTransform="matrix(-418.53686,-11.055566,11.055566,-418.53686,469.87155,336.96193)">
      <stop
         offset="0"
         style="stop-color:rgb(29.48761%,28.398132%,27.072144%);stop-opacity:1;"
         id="stop81" />
      <stop
         offset="0.0625"
         style="stop-color:rgb(29.403687%,28.314209%,26.986694%);stop-opacity:1;"
         id="stop83" />
      <stop
         offset="0.125"
         style="stop-color:rgb(29.234314%,28.143311%,26.815796%);stop-opacity:1;"
         id="stop85" />
      <stop
         offset="0.1875"
         style="stop-color:rgb(29.066467%,27.975464%,26.644897%);stop-opacity:1;"
         id="stop87" />
      <stop
         offset="0.25"
         style="stop-color:rgb(28.898621%,27.806091%,26.473999%);stop-opacity:1;"
         id="stop89" />
      <stop
         offset="0.3125"
         style="stop-color:rgb(28.730774%,27.638245%,26.304626%);stop-opacity:1;"
         id="stop91" />
      <stop
         offset="0.375"
         style="stop-color:rgb(28.562927%,27.468872%,26.135254%);stop-opacity:1;"
         id="stop93" />
      <stop
         offset="0.4375"
         style="stop-color:rgb(28.395081%,27.301025%,25.965881%);stop-opacity:1;"
         id="stop95" />
      <stop
         offset="0.5"
         style="stop-color:rgb(28.230286%,27.133179%,25.796509%);stop-opacity:1;"
         id="stop97" />
      <stop
         offset="0.5625"
         style="stop-color:rgb(28.062439%,26.965332%,25.628662%);stop-opacity:1;"
         id="stop99" />
      <stop
         offset="0.625"
         style="stop-color:rgb(27.897644%,26.799011%,25.460815%);stop-opacity:1;"
         id="stop101" />
      <stop
         offset="0.6875"
         style="stop-color:rgb(27.731323%,26.63269%,25.292969%);stop-opacity:1;"
         id="stop103" />
      <stop
         offset="0.75"
         style="stop-color:rgb(27.566528%,26.46637%,25.125122%);stop-opacity:1;"
         id="stop105" />
      <stop
         offset="0.8125"
         style="stop-color:rgb(27.400208%,26.300049%,24.958801%);stop-opacity:1;"
         id="stop107" />
      <stop
         offset="0.875"
         style="stop-color:rgb(27.235413%,26.135254%,24.79248%);stop-opacity:1;"
         id="stop109" />
      <stop
         offset="0.9375"
         style="stop-color:rgb(27.070618%,25.968933%,24.62616%);stop-opacity:1;"
         id="stop111" />
      <stop
         offset="1"
         style="stop-color:rgb(26.907349%,25.805664%,24.459839%);stop-opacity:1;"
         id="stop113" />
    </linearGradient>
    <clipPath
       id="clip9">
      <path
         d="m 317,301 h 56 v 63 h -56 z m 0,0"
         id="path116"
         inkscape:connector-curvature="0" />
    </clipPath>
    <clipPath
       id="clip10">
      <path
         d="m 352.14062,301.64062 c -2.85937,0 -5.5,0.41797 -7.92187,1.26563 -2.42578,0.83984 -4.63281,2.01953 -6.62891,3.53516 -1.99218,1.52343 -3.74609,3.35546 -5.2539,5.49609 -1.50782,2.14453 -2.77344,4.51953 -3.80078,7.12109 -1.07813,2.66016 -2.14844,5.34766 -3.23047,8.0586 -1.07813,2.71484 -2.07422,5.21093 -2.98828,7.49218 l -3.07422,7.73047 c -1.5586,4.01563 -2.26172,7.36719 -2.09766,10.05078 0.16016,2.6875 0.88672,4.84375 2.17969,6.47266 1.29297,1.62891 2.99219,2.78125 5.08984,3.45703 2.10547,0.67969 4.3125,1.01953 6.63281,1.01953 h 8.16016 c 2.85547,0 5.375,-0.17578 7.55469,-0.52734 2.18359,-0.35547 4.15234,-1.11328 5.90234,-2.28125 1.75,-1.16406 3.36719,-2.86328 4.84766,-5.08594 1.48437,-2.22265 2.98047,-5.18359 4.48828,-8.87109 1.34766,-3.14453 2.70703,-6.36328 4.08203,-9.64844 1.375,-3.28125 2.76172,-6.82422 4.16016,-10.62109 1.51172,-3.90625 2.28125,-7.39453 2.30468,-10.46094 0.0274,-3.06641 -0.60156,-5.65625 -1.89843,-7.77344 -1.29297,-2.11719 -3.20313,-3.71484 -5.73828,-4.80078 -2.53125,-1.08594 -5.60547,-1.62891 -9.21485,-1.62891 z m -16.20703,47.69922 c -0.35156,-0.59765 -0.12109,-1.92578 0.6836,-3.98828 l 10.10547,-25.23437 c 0.53906,-1.41016 1.10546,-2.375 1.69921,-2.88672 0.59375,-0.51953 1.5625,-0.77344 2.90625,-0.77344 0.97266,0 1.66016,0.35156 2.0625,1.05469 0.40625,0.70703 0.39063,1.54687 -0.0391,2.52344 l -10.50781,26.61718 c -0.53516,1.35938 -1.1875,2.29297 -1.9375,2.8125 -0.75781,0.51563 -1.72656,0.76953 -2.91016,0.76953 -1.02343,0 -1.71484,-0.29687 -2.0625,-0.89453"
         id="path119"
         inkscape:connector-curvature="0" />
    </clipPath>
    <linearGradient
       id="linear4"
       gradientUnits="userSpaceOnUse"
       x1="0.23064899"
       y1="0"
       x2="0.367273"
       y2="0"
       gradientTransform="matrix(-418.53308,-11.055467,11.055467,-418.53308,469.90109,335.83144)">
      <stop
         offset="0"
         style="stop-color:rgb(30.854797%,29.774475%,28.459167%);stop-opacity:1;"
         id="stop122" />
      <stop
         offset="0.125"
         style="stop-color:rgb(30.744934%,29.663086%,28.347778%);stop-opacity:1;"
         id="stop124" />
      <stop
         offset="0.25"
         style="stop-color:rgb(30.522156%,29.438782%,28.121948%);stop-opacity:1;"
         id="stop126" />
      <stop
         offset="0.375"
         style="stop-color:rgb(30.300903%,29.216003%,27.896118%);stop-opacity:1;"
         id="stop128" />
      <stop
         offset="0.5"
         style="stop-color:rgb(30.079651%,28.993225%,27.671814%);stop-opacity:1;"
         id="stop130" />
      <stop
         offset="0.625"
         style="stop-color:rgb(29.858398%,28.771973%,27.449036%);stop-opacity:1;"
         id="stop132" />
      <stop
         offset="0.75"
         style="stop-color:rgb(29.638672%,28.55072%,27.224731%);stop-opacity:1;"
         id="stop134" />
      <stop
         offset="0.875"
         style="stop-color:rgb(29.418945%,28.329468%,27.003479%);stop-opacity:1;"
         id="stop136" />
      <stop
         offset="1"
         style="stop-color:rgb(29.200745%,28.109741%,26.780701%);stop-opacity:1;"
         id="stop138" />
    </linearGradient>
    <clipPath
       id="clip11">
      <path
         d="m 373,301 h 58 v 62 h -58 z m 0,0"
         id="path141"
         inkscape:connector-curvature="0" />
    </clipPath>
    <clipPath
       id="clip12">
      <path
         d="m 384.22266,301.71484 -5.89844,14.74219 h 14.0664 l -18.58984,45.98828 h 17.29688 l 18.58984,-45.98828 h 14.46875 l 5.89453,-14.74219 z m 0,0"
         id="path144"
         inkscape:connector-curvature="0" />
    </clipPath>
    <linearGradient
       id="linear5"
       gradientUnits="userSpaceOnUse"
       x1="0.093472503"
       y1="0"
       x2="0.231603"
       y2="0"
       gradientTransform="matrix(-418.53802,-11.055597,11.055597,-418.53802,469.95371,333.87673)">
      <stop
         offset="0"
         style="stop-color:rgb(32.661438%,31.593323%,30.2948%);stop-opacity:1;"
         id="stop147" />
      <stop
         offset="0.125"
         style="stop-color:rgb(32.546997%,31.477356%,30.178833%);stop-opacity:1;"
         id="stop149" />
      <stop
         offset="0.25"
         style="stop-color:rgb(32.318115%,31.246948%,29.946899%);stop-opacity:1;"
         id="stop151" />
      <stop
         offset="0.375"
         style="stop-color:rgb(32.089233%,31.016541%,29.71344%);stop-opacity:1;"
         id="stop153" />
      <stop
         offset="0.5"
         style="stop-color:rgb(31.861877%,30.787659%,29.483032%);stop-opacity:1;"
         id="stop155" />
      <stop
         offset="0.625"
         style="stop-color:rgb(31.634521%,30.558777%,29.251099%);stop-opacity:1;"
         id="stop157" />
      <stop
         offset="0.75"
         style="stop-color:rgb(31.407166%,30.329895%,29.020691%);stop-opacity:1;"
         id="stop159" />
      <stop
         offset="0.875"
         style="stop-color:rgb(31.181335%,30.102539%,28.791809%);stop-opacity:1;"
         id="stop161" />
      <stop
         offset="1"
         style="stop-color:rgb(30.955505%,29.875183%,28.561401%);stop-opacity:1;"
         id="stop163" />
    </linearGradient>
    <clipPath
       id="clip13">
      <path
         d="m 412,301 h 42 v 62 h -42 z m 0,0"
         id="path166"
         inkscape:connector-curvature="0" />
    </clipPath>
    <clipPath
       id="clip14">
      <path
         d="m 436.61719,301.71484 -24.48047,60.73047 h 17.29687 l 24.48047,-60.73047 z m 0,0"
         id="path169"
         inkscape:connector-curvature="0" />
    </clipPath>
    <linearGradient
       id="linear6"
       gradientUnits="userSpaceOnUse"
       x1="0.036494501"
       y1="0"
       x2="0.140073"
       y2="0"
       gradientTransform="matrix(-418.52188,-11.055171,11.055171,-418.52188,469.97369,333.05577)">
      <stop
         offset="0"
         style="stop-color:rgb(33.421326%,32.359314%,31.06842%);stop-opacity:1;"
         id="stop172" />
      <stop
         offset="0.125"
         style="stop-color:rgb(33.334351%,32.270813%,30.979919%);stop-opacity:1;"
         id="stop174" />
      <stop
         offset="0.25"
         style="stop-color:rgb(33.161926%,32.098389%,30.804443%);stop-opacity:1;"
         id="stop176" />
      <stop
         offset="0.375"
         style="stop-color:rgb(32.989502%,31.922913%,30.628967%);stop-opacity:1;"
         id="stop178" />
      <stop
         offset="0.5"
         style="stop-color:rgb(32.815552%,31.748962%,30.453491%);stop-opacity:1;"
         id="stop180" />
      <stop
         offset="0.625"
         style="stop-color:rgb(32.643127%,31.575012%,30.278015%);stop-opacity:1;"
         id="stop182" />
      <stop
         offset="0.75"
         style="stop-color:rgb(32.472229%,31.402588%,30.104065%);stop-opacity:1;"
         id="stop184" />
      <stop
         offset="0.875"
         style="stop-color:rgb(32.301331%,31.230164%,29.928589%);stop-opacity:1;"
         id="stop186" />
      <stop
         offset="1"
         style="stop-color:rgb(32.128906%,31.057739%,29.754639%);stop-opacity:1;"
         id="stop188" />
    </linearGradient>
    <clipPath
       id="clip15">
      <path
         d="m 144,301 h 64 v 90 h -64 z m 0,0"
         id="path191"
         inkscape:connector-curvature="0" />
    </clipPath>
    <clipPath
       id="clip16">
      <path
         d="m 180.98828,301.57031 c -6.53906,0 -12.08984,1.82031 -16.65234,5.45313 -4.56641,3.63281 -8.02344,8.46484 -10.36328,14.49218 -1.23829,2.98047 -2.26954,5.58985 -3.10157,7.82813 -0.83593,2.23047 -1.52734,4.06641 -2.08203,5.49609 -0.67969,1.74219 -1.23437,3.20313 -1.66797,4.37891 -1.84765,4.59766 -2.67968,8.43359 -2.5,11.50781 0.1875,3.07813 1.02344,5.54688 2.5,7.41016 1.48438,1.86328 3.44141,3.18359 5.87891,3.96094 1.66797,0.53125 3.39453,0.86718 5.16016,1.03515 h 6.91796 l -14.51953,27.09766 c 3.76563,0.16797 7.33594,-0.0937 10.00391,-0.85938 1.66797,-0.4375 3.40625,-1.12109 5.22656,-2.05078 1.82031,-0.93359 3.61328,-2.1914 5.36719,-3.77734 1.75781,-1.58203 3.47266,-3.5586 5.13672,-5.91406 1.66797,-2.36329 3.20703,-5.1875 4.6289,-8.48047 l 26.98047,-67.57813 z m -17.17187,45.66406 c -0.36719,-0.68359 -0.0898,-2.20703 0.83593,-4.57031 l 7.76953,-20.03125 c 0.67969,-1.55469 1.34375,-2.62109 1.99219,-3.21875 0.64844,-0.58594 1.74219,-0.88281 3.28516,-0.88281 1.10937,0 1.89453,0.39062 2.35937,1.16406 0.46094,0.77735 0.44922,1.72266 -0.043,2.84375 l -8.23828,21.61719 c -0.62109,1.55469 -1.375,2.62891 -2.26953,3.21875 -0.89453,0.58594 -2.01953,0.88281 -3.375,0.88281 -1.17187,0 -1.94531,-0.34375 -2.3164,-1.02344"
         id="path194"
         inkscape:connector-curvature="0" />
    </clipPath>
    <linearGradient
       id="linear7"
       gradientUnits="userSpaceOnUse"
       x1="0.62210703"
       y1="0"
       x2="0.77923501"
       y2="0"
       gradientTransform="matrix(-418.53531,-11.055525,11.055525,-418.53531,469.43121,353.57039)">
      <stop
         offset="0"
         style="stop-color:rgb(25.894165%,24.787903%,23.4375%);stop-opacity:1;"
         id="stop197" />
      <stop
         offset="0.0625"
         style="stop-color:rgb(25.834656%,24.728394%,23.376465%);stop-opacity:1;"
         id="stop199" />
      <stop
         offset="0.125"
         style="stop-color:rgb(25.712585%,24.606323%,23.254395%);stop-opacity:1;"
         id="stop201" />
      <stop
         offset="0.1875"
         style="stop-color:rgb(25.592041%,24.485779%,23.132324%);stop-opacity:1;"
         id="stop203" />
      <stop
         offset="0.25"
         style="stop-color:rgb(25.471497%,24.363708%,23.01178%);stop-opacity:1;"
         id="stop205" />
      <stop
         offset="0.3125"
         style="stop-color:rgb(25.350952%,24.243164%,22.889709%);stop-opacity:1;"
         id="stop207" />
      <stop
         offset="0.375"
         style="stop-color:rgb(25.231934%,24.124146%,22.769165%);stop-opacity:1;"
         id="stop209" />
      <stop
         offset="0.4375"
         style="stop-color:rgb(25.112915%,24.003601%,22.648621%);stop-opacity:1;"
         id="stop211" />
      <stop
         offset="0.5"
         style="stop-color:rgb(24.992371%,23.884583%,22.528076%);stop-opacity:1;"
         id="stop213" />
      <stop
         offset="0.5625"
         style="stop-color:rgb(24.873352%,23.764038%,22.407532%);stop-opacity:1;"
         id="stop215" />
      <stop
         offset="0.625"
         style="stop-color:rgb(24.754333%,23.64502%,22.288513%);stop-opacity:1;"
         id="stop217" />
      <stop
         offset="0.6875"
         style="stop-color:rgb(24.635315%,23.526001%,22.167969%);stop-opacity:1;"
         id="stop219" />
      <stop
         offset="0.75"
         style="stop-color:rgb(24.516296%,23.406982%,22.04895%);stop-opacity:1;"
         id="stop221" />
      <stop
         offset="0.8125"
         style="stop-color:rgb(24.397278%,23.287964%,21.929932%);stop-opacity:1;"
         id="stop223" />
      <stop
         offset="0.875"
         style="stop-color:rgb(24.279785%,23.168945%,21.810913%);stop-opacity:1;"
         id="stop225" />
      <stop
         offset="0.9375"
         style="stop-color:rgb(24.162292%,23.051453%,21.691895%);stop-opacity:1;"
         id="stop227" />
      <stop
         offset="1"
         style="stop-color:rgb(24.043274%,22.932434%,21.572876%);stop-opacity:1;"
         id="stop229" />
    </linearGradient>
    <clipPath
       id="clip17">
      <path
         d="m 437,301 h 56 v 62 h -56 z m 0,0"
         id="path232"
         inkscape:connector-curvature="0" />
    </clipPath>
    <clipPath
       id="clip18">
      <path
         d="m 479.41797,301.83984 h -17.76563 l -23.46093,59.37891 -0.53125,1.17969 h 17.64453 l 7.10547,-17.33985 h 13.88281 l 5.66797,-15.03906 h -13.63282 l 5.45704,-13.87109 h 13.5 l 5.66015,-14.3086 z m 0,0"
         id="path235"
         inkscape:connector-curvature="0" />
    </clipPath>
    <linearGradient
       id="linear8"
       gradientUnits="userSpaceOnUse"
       x1="-0.056973599"
       y1="0"
       x2="0.088967003"
       y2="0"
       gradientTransform="matrix(-389.51508,-10.288961,10.288961,-389.51508,471.53393,332.28374)">
      <stop
         offset="0"
         style="stop-color:rgb(33.906555%,32.847595%,31.562805%);stop-opacity:1;"
         id="stop238" />
      <stop
         offset="0.5"
         style="stop-color:rgb(33.80127%,32.74231%,31.455994%);stop-opacity:1;"
         id="stop240" />
      <stop
         offset="0.625"
         style="stop-color:rgb(33.573914%,32.513428%,31.225586%);stop-opacity:1;"
         id="stop242" />
      <stop
         offset="0.75"
         style="stop-color:rgb(33.329773%,32.267761%,30.976868%);stop-opacity:1;"
         id="stop244" />
      <stop
         offset="0.875"
         style="stop-color:rgb(33.085632%,32.020569%,30.726624%);stop-opacity:1;"
         id="stop246" />
      <stop
         offset="1"
         style="stop-color:rgb(32.843018%,31.776428%,30.479431%);stop-opacity:1;"
         id="stop248" />
    </linearGradient>
  </defs>
  <g
     id="surface675"
     transform="translate(-47.695312,-272.0241)">
    <path
       style="fill:#eb1923;fill-opacity:1;fill-rule:nonzero;stroke:none"
       d="M 433.40625,371.84375 H 188.11719 c 0,0 -4.96094,14.21094 -17.20703,18.4375 H 427.875 c 1.38672,-0.10547 2.66797,-0.38672 4.31641,-0.86328 1.66406,-0.4336 3.39843,-1.11328 5.21484,-2.04297 1.81641,-0.92969 3.60156,-2.18359 5.35547,-3.76563 1.7539,-1.58203 3.46094,-3.55078 5.12109,-5.90234 1.20703,-1.71094 2.34375,-3.66797 3.41797,-5.86328 z m 0,0"
       id="path253"
       inkscape:connector-curvature="0" />
    <path
       style="fill:#ffffff;fill-opacity:1;fill-rule:nonzero;stroke:none"
       d="m 198.46875,378.07812 -0.64453,1.61329 h 2.38281 c 0.10547,0 0.21094,-0.0195 0.32422,-0.0625 0.11328,-0.043 0.21484,-0.0977 0.31641,-0.17188 0.0977,-0.0703 0.18359,-0.15625 0.26562,-0.25391 0.0781,-0.0976 0.13672,-0.19921 0.17969,-0.30859 0.0469,-0.10937 0.0703,-0.21484 0.0664,-0.31641 0,-0.0976 -0.0195,-0.18359 -0.0586,-0.26171 -0.0391,-0.0742 -0.0977,-0.13282 -0.17578,-0.17579 -0.0781,-0.0391 -0.17188,-0.0625 -0.27344,-0.0625 z m 0.45312,5.82032 c 0.11719,0 0.23047,-0.0234 0.35157,-0.0703 0.11718,-0.0469 0.23047,-0.11328 0.33984,-0.19531 0.10547,-0.082 0.20313,-0.17578 0.29297,-0.28515 0.0859,-0.10547 0.15234,-0.21875 0.20312,-0.33985 0.0469,-0.11719 0.0703,-0.23047 0.0703,-0.33594 -0.004,-0.10546 -0.0234,-0.19531 -0.0664,-0.27343 -0.0469,-0.0742 -0.10937,-0.13672 -0.1875,-0.1836 -0.082,-0.0508 -0.17969,-0.0742 -0.29297,-0.0742 h -2.78515 l -0.70313,1.75782 z m -4.26562,2.4414 h -1.92969 L 197,375.63672 h 4.73828 c 0.45313,0 0.84375,0.0859 1.17578,0.2539 0.33594,0.16797 0.59375,0.40235 0.77344,0.69532 0.18359,0.29297 0.28125,0.63672 0.29297,1.03515 0.0156,0.39453 -0.0664,0.81641 -0.2461,1.26563 -0.0547,0.13281 -0.14453,0.29687 -0.26562,0.48437 -0.12109,0.1875 -0.26172,0.3711 -0.41797,0.55078 -0.15625,0.17579 -0.32031,0.33204 -0.49609,0.46875 -0.17969,0.13672 -0.35157,0.21875 -0.51563,0.25 0.19922,0.0234 0.35547,0.11719 0.46875,0.27344 0.11328,0.15625 0.19141,0.35156 0.22656,0.58203 0.0391,0.23047 0.043,0.48047 0.008,0.75 -0.0312,0.26953 -0.0977,0.52735 -0.19532,0.76953 -0.18359,0.46485 -0.44531,0.89844 -0.78515,1.30079 -0.33594,0.40234 -0.71875,0.7539 -1.14063,1.05468 -0.42187,0.29688 -0.875,0.53125 -1.35156,0.70313 -0.47656,0.17187 -0.94531,0.25781 -1.40625,0.25781 z m 0,0"
       id="path255"
       inkscape:connector-curvature="0" />
    <path
       style="fill:#ffffff;fill-opacity:1;fill-rule:nonzero;stroke:none"
       d="m 213.21094,380.625 c 0.14843,0 0.30859,-0.0352 0.47656,-0.10938 0.17187,-0.0742 0.33203,-0.17578 0.48828,-0.29296 0.15625,-0.11719 0.29688,-0.25391 0.42188,-0.40625 0.125,-0.15235 0.21875,-0.30469 0.27734,-0.46094 0.0625,-0.15235 0.0937,-0.3086 0.0898,-0.45703 -0.008,-0.15235 -0.0391,-0.28907 -0.0977,-0.41016 -0.0586,-0.11719 -0.14453,-0.21484 -0.25391,-0.28906 -0.10937,-0.0742 -0.23828,-0.11328 -0.38672,-0.11328 h -1.88281 l -1.01563,2.53906 z m -4.16407,5.71484 h -2.4414 l 4.27344,-10.70312 h 4.19921 c 0.40235,0 0.75391,0.0508 1.05469,0.15625 0.29688,0.10547 0.55078,0.24609 0.75781,0.42187 0.20313,0.17969 0.36329,0.38672 0.48047,0.62891 0.11328,0.23828 0.1875,0.5 0.21875,0.77734 0.0312,0.27735 0.0234,0.5625 -0.0195,0.85547 -0.0469,0.29297 -0.125,0.58594 -0.24219,0.8711 -0.11328,0.28515 -0.25781,0.5664 -0.42968,0.84765 -0.17578,0.28516 -0.38282,0.5586 -0.625,0.82813 -0.24219,0.26562 -0.51953,0.52343 -0.83203,0.76953 -0.3125,0.25 -0.66407,0.48047 -1.05469,0.6914 l 1.3164,3.85547 h -2.08593 c -0.043,0 -0.11719,-0.008 -0.21875,-0.0234 -0.10157,-0.0117 -0.20703,-0.0469 -0.32032,-0.10157 -0.11328,-0.0547 -0.21875,-0.13672 -0.32812,-0.25 -0.10547,-0.10937 -0.18359,-0.25781 -0.24219,-0.45312 l -0.82422,-2.42969 h -1.33593 z m 0,0"
       id="path257"
       inkscape:connector-curvature="0" />
    <path
       style="fill:#ffffff;fill-opacity:1;fill-rule:nonzero;stroke:none"
       d="m 224.90625,381.98437 h 2.28125 l -0.0391,-2.23828 c 0,-0.10547 0.004,-0.20312 0.0156,-0.29297 0.0117,-0.0898 0.0195,-0.16796 0.0352,-0.23828 0.0117,-0.082 0.0273,-0.15234 0.0508,-0.22265 -0.0352,0.0703 -0.082,0.14453 -0.13672,0.23047 -0.043,0.0703 -0.0977,0.14843 -0.16016,0.23828 -0.0625,0.0898 -0.13281,0.18359 -0.21093,0.28515 z m 2.62891,-6.34765 h 2.10546 l 0.40235,10.70312 h -1.57422 c -0.16406,0 -0.3125,-0.0195 -0.44922,-0.0625 -0.13672,-0.043 -0.25,-0.10547 -0.34766,-0.1875 -0.0977,-0.082 -0.17578,-0.17968 -0.23437,-0.29687 -0.0547,-0.11719 -0.0859,-0.25 -0.0937,-0.40235 l -0.0469,-1.1875 h -4.25781 l -0.98047,1.1875 c -0.11328,0.13672 -0.25,0.26172 -0.39843,0.375 -0.15625,0.11329 -0.31641,0.21485 -0.48438,0.30079 -0.17187,0.0898 -0.33984,0.15625 -0.51562,0.20312 -0.17188,0.0469 -0.33594,0.0703 -0.48829,0.0703 h -1.58593 z m 0,0"
       id="path259"
       inkscape:connector-curvature="0" />
    <path
       style="fill:#ffffff;fill-opacity:1;fill-rule:nonzero;stroke:none"
       d="m 244.21484,386.33984 h -2.42968 l -2.16016,-7.40234 -2.95703,7.40234 h -2.4336 l 4.27344,-10.70312 h 2.40625 c 0.23828,0 0.4375,0.0351 0.59375,0.10547 0.15625,0.0703 0.25391,0.17578 0.29688,0.32031 l 1.55468,5.48047 c 0.0234,0.082 0.0352,0.16797 0.0352,0.26172 0.004,0.0976 0.004,0.18359 0,0.26562 -0.004,0.082 -0.008,0.15235 -0.0195,0.21485 -0.008,0.0586 -0.0156,0.0976 -0.0195,0.11328 l 2.69922,-6.76172 h 2.43359 z m 0,0"
       id="path261"
       inkscape:connector-curvature="0" />
    <path
       style="fill:#ffffff;fill-opacity:1;fill-rule:nonzero;stroke:none"
       d="m 255.39062,383.89062 c 0.39063,0 0.79688,-0.0742 1.21485,-0.23046 0.41406,-0.14844 0.80859,-0.35547 1.1875,-0.61719 0.375,-0.26172 0.71094,-0.57031 1.01562,-0.92188 0.29688,-0.35547 0.52735,-0.73047 0.6875,-1.1289 0.16016,-0.39844 0.23047,-0.77344 0.21094,-1.12891 -0.0156,-0.35156 -0.10937,-0.66016 -0.27734,-0.92578 -0.16407,-0.26172 -0.39453,-0.46875 -0.69141,-0.625 -0.29297,-0.14844 -0.64062,-0.22656 -1.03125,-0.22656 h -1.98828 l -2.31641,5.80468 z m -5.41015,2.44922 4.27344,-10.70312 h 4.42968 c 0.49219,0 0.94532,0.0625 1.35547,0.1914 0.41016,0.125 0.76563,0.3086 1.07422,0.53907 0.30078,0.23437 0.55469,0.51562 0.75391,0.83984 0.20312,0.32813 0.33984,0.6875 0.41797,1.08594 0.0742,0.39453 0.0859,0.82031 0.0351,1.27734 -0.0508,0.45313 -0.17578,0.92969 -0.375,1.42188 -0.19531,0.49218 -0.45312,0.96875 -0.76172,1.42187 -0.3125,0.45703 -0.66406,0.88281 -1.05468,1.27735 -0.39063,0.39843 -0.82032,0.75781 -1.28125,1.08593 -0.46094,0.32422 -0.9375,0.60547 -1.42969,0.83594 -0.48828,0.23047 -0.99219,0.41016 -1.50391,0.53516 -0.50781,0.1289 -1.01172,0.1914 -1.5039,0.1914 z m 0,0"
       id="path263"
       inkscape:connector-curvature="0" />
    <path
       style="fill:#ffffff;fill-opacity:1;fill-rule:nonzero;stroke:none"
       d="m 277.10937,386.33984 h -1.48046 l 1.80859,-4.52343 c 0.043,-0.11329 0.0703,-0.20704 0.0859,-0.29297 0.0156,-0.0859 0.0195,-0.16407 0.0117,-0.24219 -0.008,-0.0781 -0.0234,-0.15625 -0.0469,-0.23438 -0.0234,-0.082 -0.0508,-0.16796 -0.0781,-0.26562 l -1.75,-5.14453 h 1.01562 c 0.28906,0 0.52344,0.0547 0.69922,0.16797 0.17578,0.11328 0.29297,0.28125 0.34766,0.5039 l 1.16406,3.42188 c 0.0156,0.0547 0.0156,0.11719 0.004,0.1914 -0.0117,0.0703 -0.0195,0.12891 -0.0273,0.17579 0.0156,-0.043 0.0469,-0.0977 0.0977,-0.17579 0.0508,-0.0742 0.10547,-0.13671 0.16797,-0.1914 l 3.89843,-3.42188 c 0.23438,-0.22265 0.48438,-0.39062 0.75,-0.5039 0.26563,-0.11328 0.54297,-0.16797 0.83203,-0.16797 h 1.01563 l -5.85547,5.14453 c -0.10937,0.0977 -0.20703,0.18359 -0.29297,0.26562 -0.0859,0.0781 -0.16406,0.15625 -0.23047,0.23438 -0.0703,0.0781 -0.1289,0.15625 -0.18359,0.24219 -0.0547,0.0859 -0.10156,0.17968 -0.14453,0.29297 z m 0,0"
       id="path265"
       inkscape:connector-curvature="0" />
    <path
       style="fill:#ffffff;fill-opacity:1;fill-rule:nonzero;stroke:none"
       d="m 288.00781,380.98437 c -0.21875,0.55079 -0.32031,1.07032 -0.30469,1.55469 0.0156,0.48047 0.12891,0.90235 0.34766,1.26563 0.21875,0.36328 0.52734,0.64453 0.92578,0.85547 0.39844,0.20703 0.875,0.3125 1.42969,0.3125 0.55078,0 1.11328,-0.10547 1.67578,-0.3125 0.57031,-0.21094 1.10547,-0.49219 1.60938,-0.85547 0.5039,-0.36328 0.95703,-0.78516 1.36328,-1.26563 0.39843,-0.48437 0.71093,-1.0039 0.93359,-1.55469 0.21875,-0.55078 0.32031,-1.07031 0.30469,-1.55468 -0.0156,-0.48047 -0.13281,-0.90235 -0.34766,-1.26563 -0.21875,-0.35937 -0.52734,-0.64453 -0.92578,-0.85547 -0.40234,-0.20703 -0.875,-0.3125 -1.42969,-0.3125 -0.55078,0 -1.10937,0.10547 -1.67968,0.3125 -0.5625,0.21094 -1.10157,0.4961 -1.60547,0.85547 -0.50782,0.36328 -0.95703,0.78516 -1.36328,1.26563 -0.40235,0.48437 -0.71094,1.0039 -0.9336,1.55468 m -1.47656,0 c 0.19922,-0.5039 0.45703,-0.98828 0.77344,-1.45312 0.3164,-0.46484 0.67578,-0.89844 1.07422,-1.30469 0.40234,-0.40625 0.83203,-0.77734 1.29687,-1.10547 0.46484,-0.33203 0.94531,-0.61718 1.44531,-0.85547 0.50391,-0.24218 1.01172,-0.42578 1.53125,-0.55468 0.51563,-0.12891 1.02735,-0.19532 1.53125,-0.19532 0.5,0 0.96094,0.0664 1.375,0.19532 0.41407,0.1289 0.77344,0.3125 1.08594,0.55468 0.30859,0.23829 0.5625,0.52344 0.76172,0.85547 0.19922,0.32813 0.33594,0.69922 0.41406,1.10547 0.0781,0.40625 0.0859,0.83985 0.0312,1.30469 -0.0586,0.46484 -0.1875,0.94922 -0.38672,1.45312 -0.19922,0.50391 -0.46093,0.98829 -0.77343,1.45313 -0.31641,0.46484 -0.67579,0.90234 -1.07813,1.30859 -0.39844,0.40625 -0.83203,0.77344 -1.29297,1.10547 -0.46484,0.32813 -0.94922,0.61328 -1.44922,0.85547 -0.5,0.23828 -1.00781,0.42188 -1.52734,0.55078 -0.51563,0.12891 -1.02734,0.19531 -1.52734,0.19531 -0.75782,0 -1.41016,-0.14453 -1.95704,-0.42968 -0.55078,-0.28907 -0.97265,-0.67969 -1.27343,-1.17188 -0.29688,-0.49609 -0.45313,-1.07422 -0.47657,-1.73828 -0.0234,-0.66406 0.1211,-1.37109 0.42188,-2.12891"
       id="path267"
       inkscape:connector-curvature="0" />
    <path
       style="fill:#ffffff;fill-opacity:1;fill-rule:nonzero;stroke:none"
       d="m 303.46094,382.15625 c -0.15625,0.39062 -0.23047,0.75391 -0.22266,1.10156 0.0117,0.33985 0.0937,0.64063 0.24609,0.89844 0.15625,0.25391 0.375,0.45703 0.66016,0.60547 0.28516,0.14453 0.62109,0.21875 1.00781,0.21875 0.39063,0 0.78516,-0.0742 1.1875,-0.21875 0.40235,-0.14844 0.78125,-0.35156 1.14063,-0.60547 0.35937,-0.25781 0.67969,-0.55859 0.96484,-0.89844 0.28516,-0.34765 0.50391,-0.71094 0.66016,-1.10156 l 2.60547,-6.51953 h 1.47656 l -2.60156,6.51953 c -0.16016,0.39844 -0.36328,0.78125 -0.61328,1.14844 -0.2461,0.36718 -0.52735,0.70703 -0.83985,1.02734 -0.3164,0.31641 -0.65625,0.60938 -1.02734,0.86719 -0.36719,0.26562 -0.7461,0.48828 -1.14063,0.67187 -0.39453,0.1875 -0.78906,0.33203 -1.19922,0.4375 -0.40625,0.0977 -0.80859,0.15235 -1.20703,0.15235 -0.39062,0 -0.75,-0.0547 -1.07422,-0.15235 -0.32812,-0.10547 -0.61328,-0.25 -0.85546,-0.4375 -0.24219,-0.18359 -0.44532,-0.40625 -0.60547,-0.67187 -0.16016,-0.25781 -0.26563,-0.55078 -0.32813,-0.86719 -0.0586,-0.32031 -0.0625,-0.66406 -0.0195,-1.03125 0.0469,-0.36719 0.14453,-0.75 0.30469,-1.14453 l 2.60547,-6.51953 h 1.47656 z m 0,0"
       id="path269"
       inkscape:connector-curvature="0" />
    <path
       style="fill:#ffffff;fill-opacity:1;fill-rule:nonzero;stroke:none"
       d="m 319.75391,377.11719 -1.31641,3.29297 h 2.35937 c 0.23047,0 0.46094,-0.043 0.69141,-0.12891 0.23438,-0.082 0.45703,-0.19922 0.66406,-0.35156 0.21094,-0.14844 0.39844,-0.32032 0.56641,-0.51953 0.16406,-0.19922 0.29687,-0.41407 0.38672,-0.64454 0.0898,-0.22656 0.13281,-0.4414 0.125,-0.64062 -0.008,-0.19922 -0.0547,-0.375 -0.14453,-0.52344 -0.0899,-0.14844 -0.21875,-0.26953 -0.38282,-0.35547 -0.16406,-0.0859 -0.35937,-0.1289 -0.58984,-0.1289 z m -3.6836,9.22265 h -1.48047 l 4.27344,-10.70312 h 3.83984 c 0.4336,0 0.8086,0.082 1.1211,0.24609 0.3164,0.16406 0.55859,0.38672 0.73047,0.66797 0.16797,0.28125 0.25781,0.61328 0.26953,0.99609 0.0117,0.37891 -0.0664,0.78516 -0.24219,1.21875 -0.13672,0.35157 -0.32422,0.6836 -0.55859,0.9961 -0.23438,0.3164 -0.5,0.60547 -0.79297,0.86328 -0.30078,0.26172 -0.6211,0.48437 -0.96094,0.67578 -0.34375,0.19141 -0.69531,0.33984 -1.04687,0.4375 l 1.5664,4.60156 h -1.01562 c -0.28907,0 -0.51953,-0.0547 -0.69922,-0.16797 -0.17578,-0.11328 -0.28906,-0.28125 -0.34375,-0.5039 l -1.29297,-3.78125 h -1.58984 z m 0,0"
       id="path271"
       inkscape:connector-curvature="0" />
    <path
       style="fill:#ffffff;fill-opacity:1;fill-rule:nonzero;stroke:none"
       d="m 337.97266,380.98437 c -0.22266,0.55079 -0.32422,1.07032 -0.3086,1.55469 0.0156,0.48047 0.13281,0.90235 0.35156,1.26563 0.21485,0.36328 0.52344,0.64453 0.92188,0.85547 0.40234,0.20703 0.87891,0.3125 1.42969,0.3125 0.42968,0 0.85937,-0.0625 1.28515,-0.1875 0.42578,-0.1211 0.85157,-0.29688 1.26953,-0.52344 0.23438,-0.1211 0.46485,-0.1836 0.69532,-0.1836 0.17968,0 0.32422,0.0274 0.42968,0.0899 0.10938,0.0586 0.19532,0.14453 0.26563,0.26172 l 0.16797,0.27343 c -0.35938,0.26954 -0.73047,0.51172 -1.11719,0.73047 -0.38672,0.21485 -0.78125,0.39844 -1.17969,0.54688 -0.39843,0.15234 -0.80078,0.26562 -1.20703,0.34765 -0.40625,0.082 -0.80859,0.125 -1.19922,0.125 -0.75781,0 -1.41015,-0.14453 -1.95703,-0.42968 -0.54687,-0.28907 -0.97265,-0.67969 -1.26953,-1.17188 -0.29687,-0.49609 -0.45703,-1.07422 -0.47656,-1.73828 -0.0234,-0.66406 0.11719,-1.37109 0.41797,-2.12891 0.20312,-0.5039 0.46093,-0.98828 0.77343,-1.45312 0.31641,-0.46484 0.67579,-0.89844 1.07422,-1.30469 0.40235,-0.40625 0.83594,-0.77734 1.30078,-1.10547 0.46094,-0.33203 0.94141,-0.61718 1.44532,-0.85547 0.5,-0.24218 1.00781,-0.42578 1.52734,-0.55468 0.51563,-0.12891 1.02734,-0.19532 1.53125,-0.19532 0.39063,0 0.76172,0.043 1.09766,0.125 0.34375,0.082 0.65234,0.19922 0.92968,0.34766 0.28125,0.14844 0.52735,0.33203 0.74219,0.54688 0.21485,0.21875 0.39453,0.46093 0.53516,0.73046 l -0.38672,0.27735 c -0.16016,0.11328 -0.32031,0.20312 -0.48047,0.26172 -0.16016,0.0625 -0.32422,0.0937 -0.5,0.0937 -0.22266,0 -0.40625,-0.0625 -0.54297,-0.19141 -0.23828,-0.22656 -0.52344,-0.39844 -0.85547,-0.52344 -0.32812,-0.125 -0.70703,-0.1875 -1.13281,-0.1875 -0.55078,0 -1.10937,0.10547 -1.67578,0.3125 -0.56641,0.21094 -1.10156,0.4961 -1.60938,0.85547 -0.5039,0.36328 -0.95703,0.78516 -1.35937,1.26563 -0.40234,0.48437 -0.71484,1.0039 -0.93359,1.55468"
       id="path273"
       inkscape:connector-curvature="0" />
    <path
       style="fill:#ffffff;fill-opacity:1;fill-rule:nonzero;stroke:none"
       d="m 351.51953,380.98437 c -0.21875,0.55079 -0.32031,1.07032 -0.30469,1.55469 0.0156,0.48047 0.12891,0.90235 0.34766,1.26563 0.21875,0.36328 0.52734,0.64453 0.92578,0.85547 0.39844,0.20703 0.875,0.3125 1.42969,0.3125 0.55078,0 1.11328,-0.10547 1.67578,-0.3125 0.57031,-0.21094 1.10547,-0.49219 1.60937,-0.85547 0.50391,-0.36328 0.95704,-0.78516 1.36329,-1.26563 0.39843,-0.48437 0.71093,-1.0039 0.93359,-1.55469 0.21875,-0.55078 0.32031,-1.07031 0.30469,-1.55468 -0.0156,-0.48047 -0.13282,-0.90235 -0.34766,-1.26563 -0.21875,-0.35937 -0.52734,-0.64453 -0.92578,-0.85547 -0.40234,-0.20703 -0.875,-0.3125 -1.42969,-0.3125 -0.55078,0 -1.10937,0.10547 -1.67969,0.3125 -0.5625,0.21094 -1.10156,0.4961 -1.60546,0.85547 -0.50782,0.36328 -0.95704,0.78516 -1.36329,1.26563 -0.40234,0.48437 -0.71093,1.0039 -0.93359,1.55468 m -1.47656,0 c 0.19922,-0.5039 0.45703,-0.98828 0.77344,-1.45312 0.3164,-0.46484 0.67578,-0.89844 1.07421,-1.30469 0.40235,-0.40625 0.83204,-0.77734 1.29688,-1.10547 0.46484,-0.33203 0.94531,-0.61718 1.44531,-0.85547 0.50391,-0.24218 1.01172,-0.42578 1.53125,-0.55468 0.51563,-0.12891 1.02735,-0.19532 1.53125,-0.19532 0.5,0 0.96094,0.0664 1.375,0.19532 0.41406,0.1289 0.77344,0.3125 1.08594,0.55468 0.30859,0.23829 0.5625,0.52344 0.76172,0.85547 0.19922,0.32813 0.33594,0.69922 0.41406,1.10547 0.0781,0.40625 0.0859,0.83985 0.0312,1.30469 -0.0586,0.46484 -0.1875,0.94922 -0.38672,1.45312 -0.19922,0.50391 -0.46094,0.98829 -0.77344,1.45313 -0.3164,0.46484 -0.67578,0.90234 -1.07812,1.30859 -0.39844,0.40625 -0.83203,0.77344 -1.29297,1.10547 -0.46484,0.32813 -0.94922,0.61328 -1.44922,0.85547 -0.5,0.23828 -1.00781,0.42188 -1.52734,0.55078 -0.51563,0.12891 -1.02735,0.19531 -1.52735,0.19531 -0.75781,0 -1.41015,-0.14453 -1.95703,-0.42968 -0.55078,-0.28907 -0.97265,-0.67969 -1.27343,-1.17188 -0.29688,-0.49609 -0.45313,-1.07422 -0.47657,-1.73828 -0.0234,-0.66406 0.1211,-1.37109 0.42188,-2.12891"
       id="path275"
       inkscape:connector-curvature="0" />
    <path
       style="fill:#ffffff;fill-opacity:1;fill-rule:nonzero;stroke:none"
       d="m 375.51172,386.33984 h -1.48047 l 3.40234,-8.51953 c -0.0117,0.0117 -0.0312,0.0469 -0.0625,0.0977 -0.0312,0.0508 -0.0664,0.11328 -0.10547,0.17969 -0.0391,0.0664 -0.0781,0.13671 -0.125,0.20312 -0.043,0.0664 -0.0859,0.12109 -0.12109,0.16797 l -6.58203,7.87109 h -1.44141 l -0.28906,-7.86718 c -0.004,-0.0312 -0.004,-0.0781 0.004,-0.13282 0.008,-0.0547 0.0156,-0.10937 0.0273,-0.16797 0.008,-0.0547 0.0195,-0.10937 0.0312,-0.15625 0.0117,-0.0469 0.0195,-0.082 0.0312,-0.10937 l -3.36719,8.43359 h -1.48047 l 4.27735,-10.70312 h 1.22265 c 0.23438,0 0.42188,0.0625 0.5625,0.1914 0.14063,0.125 0.21875,0.29297 0.22266,0.4961 l 0.28516,7.65625 c 0,0.0976 -0.0117,0.20312 -0.0352,0.30859 -0.0156,0.10938 -0.0508,0.22266 -0.0937,0.34766 0.11328,-0.25 0.25,-0.46875 0.40234,-0.65625 l 6.39844,-7.65625 c 0.17969,-0.21485 0.39063,-0.38281 0.63281,-0.50391 0.24219,-0.12109 0.47657,-0.18359 0.70313,-0.18359 h 1.25391 z m 0,0"
       id="path277"
       inkscape:connector-curvature="0" />
    <path
       style="fill:#ffffff;fill-opacity:1;fill-rule:nonzero;stroke:none"
       d="m 387.44531,380.87891 c 0.25781,0 0.52344,-0.0469 0.78906,-0.14454 0.26954,-0.0976 0.52344,-0.23046 0.76563,-0.40234 0.23828,-0.17187 0.45312,-0.37109 0.64062,-0.59766 0.1875,-0.22656 0.33204,-0.47265 0.4375,-0.73437 0.10157,-0.26172 0.15235,-0.50391 0.14844,-0.73438 -0.008,-0.23046 -0.0586,-0.42968 -0.16406,-0.60156 -0.10156,-0.17187 -0.25,-0.30469 -0.44141,-0.40234 -0.1914,-0.0977 -0.41406,-0.14844 -0.67187,-0.14844 h -2.34766 l -1.5039,3.76563 z m -4.52734,5.46093 h -1.47656 l 4.27343,-10.70312 h 3.82422 c 0.46485,0 0.86328,0.0898 1.20313,0.26562 0.33593,0.17578 0.59765,0.41797 0.77734,0.72266 0.18359,0.30078 0.28125,0.65625 0.29297,1.06641 0.0156,0.40625 -0.0703,0.84375 -0.25391,1.30859 -0.18359,0.46094 -0.44922,0.89844 -0.78906,1.30469 -0.33984,0.41015 -0.71875,0.76562 -1.14453,1.07031 -0.42578,0.30078 -0.87891,0.54297 -1.35938,0.71875 -0.47656,0.17578 -0.94921,0.26562 -1.41015,0.26562 h -2.34766 z m 0,0"
       id="path279"
       inkscape:connector-curvature="0" />
    <path
       style="fill:#ffffff;fill-opacity:1;fill-rule:nonzero;stroke:none"
       d="m 399.55469,377.99609 -3.73828,4.47657 h 4.17578 l -0.16407,-4.47657 c -0.008,-0.17187 0.0312,-0.38281 0.11329,-0.63281 -0.0586,0.125 -0.1211,0.23828 -0.1875,0.34375 -0.0625,0.10156 -0.12891,0.19922 -0.19922,0.28906 m 0.35937,-2.35937 h 1.44141 l 0.39453,10.70312 h -0.85156 c -0.23438,0 -0.42188,-0.0586 -0.5625,-0.18359 -0.14063,-0.12109 -0.21485,-0.28906 -0.22266,-0.50391 l -0.0703,-1.70312 h -5.46485 l -1.42187,1.70312 c -0.17188,0.21094 -0.37891,0.37891 -0.62109,0.5 -0.24219,0.125 -0.47657,0.1875 -0.71094,0.1875 h -0.85547 z m 0,0"
       id="path281"
       inkscape:connector-curvature="0" />
    <path
       style="fill:#ffffff;fill-opacity:1;fill-rule:nonzero;stroke:none"
       d="m 414.98437,386.33984 h -1.20312 l -2.77734,-8.35547 c -0.0195,-0.0586 -0.0274,-0.11718 -0.0274,-0.1875 -0.004,-0.0625 0,-0.13281 0.0117,-0.20312 0.008,-0.0742 0.0234,-0.15234 0.043,-0.23828 l -3.58984,8.98437 h -1.48047 l 4.27734,-10.70312 h 1.05078 c 0.23828,0 0.4336,0.0351 0.58594,0.10547 0.15234,0.0703 0.25,0.17578 0.29687,0.32031 l 2.33594,7.14844 c 0.0586,0.19531 0.043,0.4414 -0.0469,0.73828 l 3.32031,-8.3125 h 1.47656 z m 0,0"
       id="path283"
       inkscape:connector-curvature="0" />
    <path
       style="fill:#ffffff;fill-opacity:1;fill-rule:nonzero;stroke:none"
       d="m 425.17187,386.33984 h -1.47656 L 425.5,381.81641 c 0.0469,-0.11329 0.0742,-0.20704 0.0898,-0.29297 0.0117,-0.0859 0.0156,-0.16407 0.0117,-0.24219 -0.008,-0.0781 -0.0234,-0.15625 -0.0469,-0.23438 -0.0234,-0.082 -0.0508,-0.16796 -0.082,-0.26562 l -1.7461,-5.14453 h 1.01563 c 0.28906,0 0.52343,0.0547 0.69922,0.16797 0.17578,0.11328 0.29296,0.28125 0.34765,0.5039 l 1.16406,3.42188 c 0.0156,0.0547 0.0156,0.11719 0.004,0.1914 -0.0117,0.0703 -0.0195,0.12891 -0.0273,0.17579 0.0156,-0.043 0.0469,-0.0977 0.0976,-0.17579 0.0469,-0.0742 0.10547,-0.13671 0.16797,-0.1914 l 3.89844,-3.42188 c 0.23047,-0.22265 0.48047,-0.39062 0.75,-0.5039 0.26562,-0.11328 0.54297,-0.16797 0.83203,-0.16797 h 1.01563 l -5.85938,5.14453 c -0.10547,0.0977 -0.20312,0.18359 -0.28906,0.26562 -0.0859,0.0781 -0.16406,0.15625 -0.23047,0.23438 -0.0703,0.0781 -0.12891,0.15625 -0.1875,0.24219 -0.0508,0.0859 -0.0977,0.17968 -0.14453,0.29297 z m 0,0"
       id="path285"
       inkscape:connector-curvature="0" />
    <path
       style="fill:#eb1923;fill-opacity:1;fill-rule:nonzero;stroke:none"
       d="m 455.10156,272.14844 c -5.77344,0.80078 -12.97265,1.6914 -12.97265,1.6914 l -127.57813,19.6211 113.37891,0.008 23.42578,-0.008 c 23.89062,0.008 18.375,-23.33594 3.74609,-21.3125"
       id="path287"
       inkscape:connector-curvature="0" />
    <path
       style="fill:#eb1923;fill-opacity:1;fill-rule:nonzero;stroke:none"
       d="m 508.43359,301.68359 c 1.10938,0.0742 2.51953,0.79297 4.23438,2.16016 0.60156,0.60547 0.90625,1.19922 0.90234,1.78125 v 0.1875 c -0.008,0.96094 -0.98437,3.69531 -2.92578,8.19531 -3.81641,9.09766 -11.81641,29.08985 -13.76562,34.09375 -0.94922,2.32813 -1.75391,4.79688 -2.42969,7.39844 v 0.1875 c 0,0.25781 0.0859,0.37891 0.26562,0.37891 0.90625,0 3.60547,-2.71485 8.08203,-8.15235 4.63282,-5.86328 7.69141,-10.34375 9.17188,-13.42578 0.69141,-1.11328 1.26172,-1.67969 1.71484,-1.70703 0.28125,0.0508 0.41407,0.30078 0.41407,0.75781 -0.0586,1.89453 -2.59375,6.90625 -7.58594,15.02344 -5.91797,9.22266 -10.33985,13.83594 -13.27735,13.83594 h -0.375 c -2.125,0 -3.875,-1.04297 -5.25781,-3.14844 -0.5,-0.95703 -0.74219,-1.83984 -0.73828,-2.65234 v -0.45313 c 0,-0.66016 0.40234,-1.97266 1.19531,-3.94531 5.61719,-15.52344 14.45703,-38.53516 16.27735,-43.16016 1.2539,-3.13672 2.2539,-5.39844 2.99609,-6.78906 0.23047,-0.37891 0.59375,-0.56641 1.10156,-0.56641"
       id="path289"
       inkscape:connector-curvature="0" />
    <path
       style="fill:#eb1923;fill-opacity:1;fill-rule:nonzero;stroke:none"
       d="m 515.49609,325.08203 c 1.02344,0.18359 5.92578,1.48828 6.01172,3.03125 0.004,0.0742 -6.23828,12.75781 -8.51953,19.00391 -0.77344,2.35156 -1.16016,3.99609 -1.16797,4.92968 v 0.19141 c 0,0.66016 0.22266,0.98438 0.67578,0.98438 1.08985,-0.125 2.77735,-1.40235 5.06641,-3.82813 1.19531,-1.31641 2.22266,-2.58203 3.09375,-3.79297 0.98828,-1.44531 2.71484,-3.51953 4.04687,-7.35937 1.53907,-3.97266 2.61329,-6.23438 3.22266,-6.79297 0.22656,-0.15235 0.45703,-0.22656 0.68359,-0.22656 h 0.26563 c 0.90625,0 2.24609,0.67187 4.01172,2.01171 0.69922,0.62891 1.05078,1.30469 1.04687,2.00782 -0.004,0.98437 -0.97656,3.67968 -2.92187,8.08203 -2.40625,5.53515 -1.875,4.16015 -3.17969,7.85156 -0.89844,2.67969 -1.35547,4.18359 -1.35547,4.51172 v 0.0391 c 0,0.20313 0.0664,0.33203 0.1875,0.37891 h 0.15235 c 0.88671,0 3.5664,-2.70313 8.04296,-8.11719 4.66407,-5.91406 5.3086,-6.75391 7.23829,-10.04297 0.53125,-0.90625 1.0664,-1.28906 1.37109,-1.28906 h 0.11328 c 0.27734,0 0.44141,0.42969 0.41406,0.75781 -0.14843,1.6211 -0.32812,2.90235 -5.30468,11.07031 -1.96485,3.13282 -4.10157,6.10547 -6.42188,8.91016 -2.89844,3.39063 -5.17969,5.08203 -6.84766,5.08203 -2.45703,0 -4.26953,-1.1875 -5.4414,-3.5664 -0.42578,-0.98438 -0.64063,-1.9961 -0.63281,-3.03125 0,-0.60547 0.14843,-1.42969 0.42968,-2.46485 -1.19922,1.66406 -2.69531,3.44922 -4.5039,5.34375 -2.58985,2.48047 -4.66016,3.71875 -6.19532,3.71875 -0.76171,0 -1.69531,-0.4414 -2.80468,-1.32812 -1.6836,-1.66797 -2.51953,-3.96875 -2.5,-6.90235 0.008,-1.58984 0.69922,-4.46093 2.08984,-8.60547 2.61719,-7.9375 4.95313,-14.29687 7.23047,-18.96875 0.97656,-1.99609 2.40234,-1.58984 2.40234,-1.58984"
       id="path291"
       inkscape:connector-curvature="0" />
    <path
       style="fill:#eb1923;fill-opacity:1;fill-rule:nonzero;stroke:none"
       d="m 478.57031,362.47656 c -1.14062,0 -2.09375,-0.46094 -2.875,-1.38672 -0.77734,-0.92187 -1.17187,-2.03906 -1.16015,-3.35156 0.008,-1.31641 0.40625,-2.43359 1.19531,-3.35937 0.78906,-0.92188 1.75,-1.38282 2.89062,-1.38282 1.10938,0 2.0586,0.46094 2.83594,1.38282 0.77734,0.92578 1.16406,2.04296 1.16016,3.35937 -0.0117,1.3125 -0.41016,2.42969 -1.19532,3.35156 -0.78906,0.92578 -1.74218,1.38672 -2.85156,1.38672"
       id="path293"
       inkscape:connector-curvature="0" />
    <g
       clip-path="url(#clip1)"
       id="g299"
       style="clip-rule:nonzero">
      <g
         clip-path="url(#clip2)"
         id="g297"
         style="clip-rule:nonzero">
        <path
           style="fill:url(#linear0);fill-rule:nonzero;stroke:none"
           d="m 89.445312,363.54687 1.632813,-61.78906 -43.355469,-1.14453 -1.632812,61.78906 z m 0,0"
           id="path295"
           inkscape:connector-curvature="0" />
      </g>
    </g>
    <g
       clip-path="url(#clip3)"
       id="g305"
       style="clip-rule:nonzero">
      <g
         clip-path="url(#clip4)"
         id="g303"
         style="clip-rule:nonzero">
        <path
           style="fill:url(#linear1);fill-rule:nonzero;stroke:none"
           d="m 148.11328,364.80859 1.66797,-63.125 -57.1875,-1.50781 -1.667969,63.12109 z m 0,0"
           id="path301"
           inkscape:connector-curvature="0" />
      </g>
    </g>
    <g
       clip-path="url(#clip5)"
       id="g311"
       style="clip-rule:nonzero">
      <g
         clip-path="url(#clip6)"
         id="g309"
         style="clip-rule:nonzero">
        <path
           style="fill:url(#linear2);fill-rule:nonzero;stroke:none"
           d="m 252,364.80859 1.66797,-63.125 -57.1836,-1.50781 -1.66796,63.12109 z m 0,0"
           id="path307"
           inkscape:connector-curvature="0" />
      </g>
    </g>
    <g
       clip-path="url(#clip7)"
       id="g317"
       style="clip-rule:nonzero">
      <g
         clip-path="url(#clip8)"
         id="g315"
         style="clip-rule:nonzero">
        <path
           style="fill:url(#linear3);fill-rule:nonzero;stroke:none"
           d="m 328.27344,364.73047 1.66406,-62.97266 -88.12109,-2.32812 -1.66407,62.97265 z m 0,0"
           id="path313"
           inkscape:connector-curvature="0" />
      </g>
    </g>
    <g
       clip-path="url(#clip9)"
       id="g323"
       style="clip-rule:nonzero">
      <g
         clip-path="url(#clip10)"
         id="g321"
         style="clip-rule:nonzero">
        <path
           style="fill:url(#linear4);fill-rule:nonzero;stroke:none"
           d="m 372.53516,364.80859 1.66796,-63.125 -57.18359,-1.50781 -1.66797,63.12109 z m 0,0"
           id="path319"
           inkscape:connector-curvature="0" />
      </g>
    </g>
    <g
       clip-path="url(#clip11)"
       id="g329"
       style="clip-rule:nonzero">
      <g
         clip-path="url(#clip12)"
         id="g327"
         style="clip-rule:nonzero">
        <path
           style="fill:url(#linear5);fill-rule:nonzero;stroke:none"
           d="m 430.01172,363.92969 1.64062,-62.17188 -57.8125,-1.52734 -1.64062,62.17187 z m 0,0"
           id="path325"
           inkscape:connector-curvature="0" />
      </g>
    </g>
    <g
       clip-path="url(#clip13)"
       id="g335"
       style="clip-rule:nonzero">
      <g
         clip-path="url(#clip14)"
         id="g333"
         style="clip-rule:nonzero">
        <path
           style="fill:url(#linear6);fill-rule:nonzero;stroke:none"
           d="m 453.88281,363.54687 1.63281,-61.78906 -43.34765,-1.14453 -1.63281,61.78906 z m 0,0"
           id="path331"
           inkscape:connector-curvature="0" />
      </g>
    </g>
    <g
       clip-path="url(#clip15)"
       id="g341"
       style="clip-rule:nonzero">
      <g
         clip-path="url(#clip16)"
         id="g339"
         style="clip-rule:nonzero">
        <path
           style="fill:url(#linear7);fill-rule:nonzero;stroke:none"
           d="m 207.85937,392.07422 2.38672,-90.44141 -65.76172,-1.73828 -2.39062,90.44531 z m 0,0"
           id="path337"
           inkscape:connector-curvature="0" />
      </g>
    </g>
    <g
       clip-path="url(#clip17)"
       id="g347"
       style="clip-rule:nonzero">
      <g
         clip-path="url(#clip18)"
         id="g345"
         style="clip-rule:nonzero">
        <path
           style="fill:url(#linear8);fill-rule:nonzero;stroke:none"
           d="m 492.90625,363.85937 1.63672,-61.98046 -56.84375,-1.5 -1.63672,61.98046 z m 0,0"
           id="path343"
           inkscape:connector-curvature="0" />
      </g>
    </g>
  </g>
</svg>
