<svg xmlns="http://www.w3.org/2000/svg" width="661.738" height="157.676" viewBox="0 0 496.304 118.257" version="1.2"><defs><clipPath id="n"><path d="M352.14 301.64c-2.859 0-5.5.419-7.921 1.266a23.71 23.71 0 0 0-6.63 3.535 24.956 24.956 0 0 0-5.253 5.497c-1.508 2.144-2.774 4.519-3.8 7.12-1.079 2.66-2.15 5.348-3.231 8.06a2627.83 2627.83 0 0 1-2.989 7.491l-3.074 7.73c-1.558 4.016-2.262 7.368-2.097 10.052.16 2.687.886 4.843 2.18 6.472 1.292 1.63 2.991 2.782 5.09 3.457 2.105.68 4.312 1.02 6.632 1.02h8.16c2.855 0 5.375-.176 7.555-.527 2.183-.356 4.152-1.114 5.902-2.282 1.75-1.164 3.367-2.863 4.848-5.086 1.484-2.222 2.98-5.183 4.488-8.87 1.348-3.145 2.707-6.364 4.082-9.65a260.68 260.68 0 0 0 4.16-10.62c1.512-3.907 2.281-7.395 2.305-10.461.027-3.067-.602-5.656-1.899-7.774-1.293-2.117-3.203-3.715-5.738-4.8-2.531-1.086-5.605-1.63-9.215-1.63zm-16.206 47.7c-.352-.598-.121-1.926.683-3.988l10.106-25.235c.539-1.41 1.105-2.375 1.699-2.887.594-.52 1.562-.773 2.906-.773.973 0 1.66.352 2.063 1.055.406.707.39 1.547-.04 2.523l-10.507 26.617c-.535 1.36-1.188 2.293-1.938 2.813-.758.515-1.726.77-2.91.77-1.023 0-1.715-.298-2.062-.895"/></clipPath><clipPath id="a"><path d="M47 301h43v62H47Zm0 0"/></clipPath><clipPath id="z"><path d="M479.418 301.84h-17.766l-23.46 59.379-.532 1.18h17.645l7.105-17.34h13.883l5.668-15.04h-13.633l5.457-13.87h13.5l5.66-14.31zm0 0"/></clipPath><clipPath id="d"><path d="M92 301h57v63H92Zm0 0"/></clipPath><clipPath id="e"><path d="M127.719 301.64c-2.86 0-5.5.419-7.922 1.266a23.656 23.656 0 0 0-6.629 3.535c-1.996 1.524-3.746 3.356-5.254 5.497-1.512 2.144-2.777 4.519-3.797 7.12-1.082 2.66-2.156 5.348-3.234 8.06-1.078 2.714-2.074 5.21-2.992 7.491l-3.07 7.73c-1.563 4.016-2.266 7.368-2.102 10.052.164 2.687.89 4.843 2.183 6.472 1.293 1.63 2.989 2.782 5.094 3.457 2.098.68 4.309 1.02 6.625 1.02h8.164c2.856 0 5.375-.176 7.559-.527 2.18-.356 4.148-1.114 5.898-2.282 1.75-1.164 3.367-2.863 4.848-5.086 1.48-2.222 2.98-5.183 4.488-8.87 1.348-3.145 2.707-6.364 4.082-9.65a278.776 278.776 0 0 0 4.164-10.62c1.504-3.907 2.274-7.395 2.301-10.461.027-3.067-.605-5.656-1.898-7.774-1.293-2.117-3.207-3.715-5.739-4.8-2.535-1.086-5.605-1.63-9.215-1.63zm-16.207 47.7c-.352-.598-.121-1.926.687-3.988l10.102-25.235c.539-1.41 1.105-2.375 1.699-2.887.594-.52 1.563-.773 2.906-.773.973 0 1.656.352 2.063 1.055.406.707.39 1.547-.04 2.523l-10.507 26.617c-.54 1.36-1.184 2.293-1.942 2.813-.753.515-1.722.77-2.91.77-1.023 0-1.71-.298-2.058-.895"/></clipPath><clipPath id="y"><path d="M437 301h56v62h-56zm0 0"/></clipPath><clipPath id="g"><path d="M196 301h57v63h-57zm0 0"/></clipPath><clipPath id="h"><path d="M231.602 301.64c-2.856 0-5.497.419-7.918 1.266a23.656 23.656 0 0 0-6.63 3.535 24.955 24.955 0 0 0-5.253 5.497c-1.508 2.144-2.778 4.519-3.797 7.12-1.078 2.66-2.156 5.348-3.234 8.06-1.079 2.714-2.075 5.21-2.993 7.491l-3.07 7.73c-1.562 4.016-2.262 7.368-2.102 10.052.16 2.687.887 4.843 2.18 6.472 1.297 1.63 2.992 2.782 5.094 3.457 2.101.68 4.312 1.02 6.629 1.02h8.164c2.855 0 5.375-.176 7.558-.527 2.18-.356 4.149-1.114 5.899-2.282 1.75-1.164 3.367-2.863 4.848-5.086 1.484-2.222 2.976-5.183 4.488-8.87 1.344-3.145 2.707-6.364 4.082-9.65a278.758 278.758 0 0 0 4.164-10.62c1.508-3.907 2.273-7.395 2.3-10.461.028-3.067-.605-5.656-1.902-7.774-1.293-2.117-3.203-3.715-5.738-4.8-2.531-1.086-5.601-1.63-9.215-1.63zm-16.207 47.7c-.348-.598-.122-1.926.69-3.988l10.106-25.235c.536-1.41 1.102-2.375 1.696-2.887.59-.52 1.562-.773 2.91-.773.969 0 1.656.352 2.058 1.055.403.707.391 1.547-.039 2.523l-10.507 26.617c-.54 1.36-1.188 2.293-1.942 2.813-.754.515-1.726.77-2.906.77-1.024 0-1.715-.298-2.067-.895"/></clipPath><clipPath id="w"><path d="M180.988 301.57c-6.539 0-12.09 1.82-16.652 5.453-4.566 3.633-8.024 8.465-10.363 14.493a225.32 225.32 0 0 0-3.102 7.828 550.211 550.211 0 0 1-2.082 5.496 255.639 255.639 0 0 0-1.668 4.379c-1.848 4.597-2.68 8.433-2.5 11.508.188 3.078 1.024 5.546 2.5 7.41 1.484 1.863 3.441 3.183 5.879 3.96 1.668.532 3.395.868 5.16 1.036h6.918l-14.52 27.097c3.766.168 7.337-.093 10.004-.859 1.668-.437 3.407-1.121 5.227-2.05 1.82-.934 3.613-2.192 5.367-3.778 1.758-1.582 3.473-3.559 5.137-5.914 1.668-2.363 3.207-5.188 4.629-8.48l26.98-67.579zm-17.172 45.664c-.367-.683-.09-2.207.836-4.57l7.77-20.031c.68-1.555 1.344-2.621 1.992-3.219.649-.586 1.742-.883 3.285-.883 1.11 0 1.895.39 2.36 1.164.46.778.449 1.723-.043 2.844l-8.239 21.617c-.62 1.555-1.375 2.63-2.27 3.219-.894.586-2.019.883-3.374.883-1.172 0-1.946-.344-2.317-1.024"/></clipPath><clipPath id="j"><path d="M241 301h88v62h-88zm0 0"/></clipPath><clipPath id="k"><path d="M314.191 301.715c-1.078 0-2.214.324-3.398.976-1.188.653-2.152 1.332-2.906 2.036l-21.262 20.351-5.328-18.969c-.328-1.3-.922-2.359-1.781-3.172-.864-.816-1.996-1.222-3.399-1.222h-9.855l-24.504 60.73h17.375l11.965-29.629 4.367 18.317c.156.762.644 1.258 1.45 1.504.812.246 1.565.015 2.269-.692l19.312-19.129-11.965 29.63h17.301l24.5-60.731zm0 0"/></clipPath><clipPath id="v"><path d="M144 301h64v90h-64zm0 0"/></clipPath><clipPath id="m"><path d="M317 301h56v63h-56zm0 0"/></clipPath><clipPath id="b"><path d="m72.18 301.715-24.485 60.73h35.078l5.575-13.836h-17.7l18.825-46.894zm0 0"/></clipPath><clipPath id="t"><path d="m436.617 301.715-24.48 60.73h17.297l24.48-60.73zm0 0"/></clipPath><clipPath id="p"><path d="M373 301h58v62h-58zm0 0"/></clipPath><clipPath id="q"><path d="m384.223 301.715-5.899 14.742h14.067l-18.59 45.988h17.297l18.59-45.988h14.468l5.895-14.742zm0 0"/></clipPath><clipPath id="s"><path d="M412 301h42v62h-42zm0 0"/></clipPath><linearGradient id="r" gradientUnits="userSpaceOnUse" x1=".093" y1="0" x2=".232" y2="0" gradientTransform="rotate(-178.487 237.181 163.835) scale(418.68401)"><stop offset="0" style="stop-color:#53514d;stop-opacity:1"/><stop offset=".125" style="stop-color:#53504d;stop-opacity:1"/><stop offset=".25" style="stop-color:#52504c;stop-opacity:1"/><stop offset=".375" style="stop-color:#524f4c;stop-opacity:1"/><stop offset=".5" style="stop-color:#514f4b;stop-opacity:1"/><stop offset=".625" style="stop-color:#514e4b;stop-opacity:1"/><stop offset=".75" style="stop-color:#504d4a;stop-opacity:1"/><stop offset=".875" style="stop-color:#504d49;stop-opacity:1"/><stop offset="1" style="stop-color:#4f4c49;stop-opacity:1"/></linearGradient><linearGradient id="o" gradientUnits="userSpaceOnUse" x1=".231" y1="0" x2=".367" y2="0" gradientTransform="rotate(-178.487 237.168 164.813) scale(418.67907)"><stop offset="0" style="stop-color:#4f4c49;stop-opacity:1"/><stop offset=".125" style="stop-color:#4e4c48;stop-opacity:1"/><stop offset=".25" style="stop-color:#4e4b48;stop-opacity:1"/><stop offset=".375" style="stop-color:#4d4b47;stop-opacity:1"/><stop offset=".5" style="stop-color:#4d4a47;stop-opacity:1"/><stop offset=".625" style="stop-color:#4c4946;stop-opacity:1"/><stop offset=".75" style="stop-color:#4c4945;stop-opacity:1"/><stop offset=".875" style="stop-color:#4b4845;stop-opacity:1"/><stop offset="1" style="stop-color:#4a4844;stop-opacity:1"/></linearGradient><linearGradient id="u" gradientUnits="userSpaceOnUse" x1=".036" y1="0" x2=".14" y2="0" gradientTransform="scale(-418.66786) rotate(1.513 29.56 -42.902)"><stop offset="0" style="stop-color:#55534f;stop-opacity:1"/><stop offset=".125" style="stop-color:#55524f;stop-opacity:1"/><stop offset=".25" style="stop-color:#55524f;stop-opacity:1"/><stop offset=".375" style="stop-color:#54514e;stop-opacity:1"/><stop offset=".5" style="stop-color:#54514e;stop-opacity:1"/><stop offset=".625" style="stop-color:#53514d;stop-opacity:1"/><stop offset=".75" style="stop-color:#53504d;stop-opacity:1"/><stop offset=".875" style="stop-color:#52504c;stop-opacity:1"/><stop offset="1" style="stop-color:#524f4c;stop-opacity:1"/></linearGradient><linearGradient id="l" gradientUnits="userSpaceOnUse" x1=".336" y1="0" x2=".547" y2="0" gradientTransform="rotate(-178.487 237.16 165.379) scale(418.68285)"><stop offset="0" style="stop-color:#4b4845;stop-opacity:1"/><stop offset=".063" style="stop-color:#4b4845;stop-opacity:1"/><stop offset=".125" style="stop-color:#4b4844;stop-opacity:1"/><stop offset=".188" style="stop-color:#4a4744;stop-opacity:1"/><stop offset=".25" style="stop-color:#4a4744;stop-opacity:1"/><stop offset=".313" style="stop-color:#494643;stop-opacity:1"/><stop offset=".375" style="stop-color:#494643;stop-opacity:1"/><stop offset=".438" style="stop-color:#484642;stop-opacity:1"/><stop offset=".5" style="stop-color:#484542;stop-opacity:1"/><stop offset=".563" style="stop-color:#484541;stop-opacity:1"/><stop offset=".625" style="stop-color:#474441;stop-opacity:1"/><stop offset=".688" style="stop-color:#474440;stop-opacity:1"/><stop offset=".75" style="stop-color:#464340;stop-opacity:1"/><stop offset=".813" style="stop-color:#464340;stop-opacity:1"/><stop offset=".875" style="stop-color:#45433f;stop-opacity:1"/><stop offset=".938" style="stop-color:#45423f;stop-opacity:1"/><stop offset="1" style="stop-color:#45423e;stop-opacity:1"/></linearGradient><linearGradient id="i" gradientUnits="userSpaceOnUse" x1=".518" y1="0" x2=".655" y2="0" gradientTransform="scale(-418.69284) rotate(1.513 30.097 -42.893)"><stop offset="0" style="stop-color:#45433f;stop-opacity:1"/><stop offset=".125" style="stop-color:#45423f;stop-opacity:1"/><stop offset=".25" style="stop-color:#44423e;stop-opacity:1"/><stop offset=".375" style="stop-color:#44413e;stop-opacity:1"/><stop offset=".5" style="stop-color:#43413d;stop-opacity:1"/><stop offset=".625" style="stop-color:#43403d;stop-opacity:1"/><stop offset=".75" style="stop-color:#42403c;stop-opacity:1"/><stop offset=".875" style="stop-color:#423f3c;stop-opacity:1"/><stop offset="1" style="stop-color:#413e3b;stop-opacity:1"/></linearGradient><linearGradient id="x" gradientUnits="userSpaceOnUse" x1=".622" y1="0" x2=".779" y2="0" gradientTransform="rotate(-178.487 237.05 173.686) scale(418.6813)"><stop offset="0" style="stop-color:#423f3c;stop-opacity:1"/><stop offset=".063" style="stop-color:#423f3c;stop-opacity:1"/><stop offset=".125" style="stop-color:#423f3b;stop-opacity:1"/><stop offset=".188" style="stop-color:#413e3b;stop-opacity:1"/><stop offset=".25" style="stop-color:#413e3b;stop-opacity:1"/><stop offset=".313" style="stop-color:#413e3a;stop-opacity:1"/><stop offset=".375" style="stop-color:#403e3a;stop-opacity:1"/><stop offset=".438" style="stop-color:#403d3a;stop-opacity:1"/><stop offset=".5" style="stop-color:#403d39;stop-opacity:1"/><stop offset=".563" style="stop-color:#3f3d39;stop-opacity:1"/><stop offset=".625" style="stop-color:#3f3c39;stop-opacity:1"/><stop offset=".688" style="stop-color:#3f3c39;stop-opacity:1"/><stop offset=".75" style="stop-color:#3f3c38;stop-opacity:1"/><stop offset=".813" style="stop-color:#3e3b38;stop-opacity:1"/><stop offset=".875" style="stop-color:#3e3b38;stop-opacity:1"/><stop offset=".938" style="stop-color:#3e3b37;stop-opacity:1"/><stop offset="1" style="stop-color:#3d3a37;stop-opacity:1"/></linearGradient><linearGradient id="f" gradientUnits="userSpaceOnUse" x1=".766" y1="0" x2=".903" y2="0" gradientTransform="rotate(-178.487 237.127 167.776) scale(418.67773)"><stop offset="0" style="stop-color:#3e3b37;stop-opacity:1"/><stop offset=".125" style="stop-color:#3d3a37;stop-opacity:1"/><stop offset=".25" style="stop-color:#3d3a36;stop-opacity:1"/><stop offset=".375" style="stop-color:#3c3936;stop-opacity:1"/><stop offset=".5" style="stop-color:#3c3935;stop-opacity:1"/><stop offset=".625" style="stop-color:#3b3835;stop-opacity:1"/><stop offset=".75" style="stop-color:#3b3834;stop-opacity:1"/><stop offset=".875" style="stop-color:#3a3734;stop-opacity:1"/><stop offset="1" style="stop-color:#3a3733;stop-opacity:1"/></linearGradient><linearGradient id="c" gradientUnits="userSpaceOnUse" x1=".907" y1="0" x2="1.01" y2="0" gradientTransform="rotate(-178.487 237.123 168.237) scale(418.68389)"><stop offset="0" style="stop-color:#393633;stop-opacity:1"/><stop offset=".125" style="stop-color:#393633;stop-opacity:1"/><stop offset=".25" style="stop-color:#393632;stop-opacity:1"/><stop offset=".375" style="stop-color:#383532;stop-opacity:1"/><stop offset=".5" style="stop-color:#383532;stop-opacity:1"/><stop offset=".625" style="stop-color:#383531;stop-opacity:1"/><stop offset=".75" style="stop-color:#373431;stop-opacity:1"/><stop offset="1" style="stop-color:#373430;stop-opacity:1"/></linearGradient><linearGradient id="A" gradientUnits="userSpaceOnUse" x1="-.057" y1="0" x2=".089" y2="0" gradientTransform="scale(-389.65095) rotate(1.513 31.684 -46.248)"><stop offset="0" style="stop-color:#565450;stop-opacity:1"/><stop offset=".5" style="stop-color:#565350;stop-opacity:1"/><stop offset=".625" style="stop-color:#565350;stop-opacity:1"/><stop offset=".75" style="stop-color:#55524f;stop-opacity:1"/><stop offset=".875" style="stop-color:#54524e;stop-opacity:1"/><stop offset="1" style="stop-color:#54514e;stop-opacity:1"/></linearGradient></defs><path style="fill:#eb1923;fill-opacity:1;fill-rule:nonzero;stroke:none" d="M433.406 371.844H188.117s-4.96 14.21-17.207 18.437h256.965c1.387-.105 2.668-.386 4.316-.863 1.664-.434 3.399-1.113 5.215-2.043 1.817-.93 3.602-2.184 5.356-3.766 1.754-1.582 3.46-3.55 5.12-5.902 1.208-1.71 2.345-3.668 3.419-5.863zm0 0" transform="translate(-47.695 -272.024)"/><path style="fill:#fff;fill-opacity:1;fill-rule:nonzero;stroke:none" d="m198.469 378.078-.645 1.613h2.383c.106 0 .211-.02.324-.062.114-.043.215-.098.317-.172.097-.07.183-.156.265-.254.078-.097.137-.2.18-.308a.732.732 0 0 0 .066-.317.573.573 0 0 0-.058-.262.424.424 0 0 0-.176-.175.612.612 0 0 0-.273-.063zm.453 5.82c.117 0 .23-.023.351-.07.118-.047.23-.113.34-.195.106-.082.203-.176.293-.285.086-.106.153-.22.203-.34a.909.909 0 0 0 .07-.336.602.602 0 0 0-.066-.274.545.545 0 0 0-.48-.258h-2.785l-.703 1.758zm-4.266 2.442h-1.93L197 375.637h4.738c.453 0 .844.086 1.176.254.336.168.594.402.774.695.183.293.28.637.292 1.035.016.395-.066.817-.246 1.266a3.156 3.156 0 0 1-.265.484 4.873 4.873 0 0 1-.418.55 3.72 3.72 0 0 1-.496.47c-.18.136-.352.218-.516.25a.65.65 0 0 1 .469.273c.113.156.191.352.226.582.04.23.043.48.008.75-.03.27-.097.527-.195.77a4.664 4.664 0 0 1-.785 1.3 6.077 6.077 0 0 1-1.14 1.055 5.709 5.709 0 0 1-1.352.703 4.127 4.127 0 0 1-1.407.258zM213.21 380.625c.15 0 .31-.035.477-.11.172-.074.333-.175.489-.292.156-.118.297-.254.422-.407.125-.152.218-.304.277-.46.063-.153.094-.31.09-.458a1.059 1.059 0 0 0-.098-.41.754.754 0 0 0-.254-.289.673.673 0 0 0-.387-.113h-1.882l-1.016 2.539zm-4.163 5.715h-2.442l4.274-10.703h4.2c.401 0 .753.05 1.054.156.297.105.55.246.758.422.203.18.363.387.48.629.113.238.188.5.219.777s.023.563-.02.856a3.916 3.916 0 0 1-.242.87 5.58 5.58 0 0 1-1.055 1.676c-.242.266-.52.524-.832.77a7.03 7.03 0 0 1-1.054.691l1.316 3.856h-2.086c-.043 0-.117-.008-.219-.024a1.01 1.01 0 0 1-.32-.101 1.084 1.084 0 0 1-.57-.703l-.824-2.43h-1.336zM224.906 381.984h2.281l-.039-2.238c0-.105.004-.203.016-.293.012-.09.02-.168.035-.238.012-.082.028-.152.051-.223-.035.07-.082.145-.137.23a7.526 7.526 0 0 1-.371.523zm2.63-6.347h2.105l.402 10.703h-1.574c-.164 0-.313-.02-.45-.063a.992.992 0 0 1-.347-.187.918.918 0 0 1-.234-.297 1.068 1.068 0 0 1-.094-.402l-.047-1.188h-4.258l-.98 1.188c-.114.136-.25.261-.399.375a3.69 3.69 0 0 1-.484.3c-.172.09-.34.157-.516.204-.172.046-.336.07-.488.07h-1.586zM244.215 386.34h-2.43l-2.16-7.402-2.957 7.402h-2.434l4.274-10.703h2.406c.238 0 .438.035.594.105a.5.5 0 0 1 .297.32l1.554 5.481a.943.943 0 0 1 .036.262 2.936 2.936 0 0 1-.02.48 1.253 1.253 0 0 1-.02.113l2.7-6.761h2.433zM255.39 383.89c.391 0 .798-.074 1.215-.23a5.136 5.136 0 0 0 1.188-.617c.375-.262.71-.57 1.016-.922a4.21 4.21 0 0 0 .687-1.129c.16-.398.23-.773.211-1.129a1.855 1.855 0 0 0-.277-.925 1.761 1.761 0 0 0-.692-.625 2.266 2.266 0 0 0-1.031-.227h-1.988l-2.317 5.805zm-5.41 2.45 4.274-10.703h4.43c.492 0 .945.062 1.355.191.41.125.766.309 1.074.54a3.157 3.157 0 0 1 1.172 1.925c.074.394.086.82.035 1.277-.05.453-.176.93-.375 1.422a7.353 7.353 0 0 1-.761 1.422 9.163 9.163 0 0 1-1.055 1.277c-.39.399-.82.758-1.281 1.086-.461.325-.938.606-1.43.836-.488.23-.992.41-1.504.535a6.107 6.107 0 0 1-1.504.192zM277.11 386.34h-1.481l1.808-4.524c.043-.113.07-.207.086-.293a.856.856 0 0 0 .012-.242 1.256 1.256 0 0 0-.047-.234c-.023-.082-.05-.168-.078-.266l-1.75-5.144h1.016c.289 0 .523.054.699.168a.802.802 0 0 1 .348.504l1.164 3.421a.445.445 0 0 1 .004.192l-.028.176a.954.954 0 0 1 .098-.176c.05-.074.106-.137.168-.192l3.898-3.421c.235-.223.485-.391.75-.504.266-.114.543-.168.832-.168h1.016l-5.855 5.144c-.11.098-.207.184-.293.266a2.588 2.588 0 0 0-.414.476c-.055.086-.102.18-.145.293zM288.008 380.984c-.219.551-.32 1.07-.305 1.555.016.48.129.902.348 1.266.219.363.527.644.926.855.398.207.875.313 1.43.313.55 0 1.113-.106 1.675-.313a6.714 6.714 0 0 0 1.61-.855 7.6 7.6 0 0 0 1.363-1.266c.398-.484.71-1.004.933-1.555.219-.55.32-1.07.305-1.554a2.612 2.612 0 0 0-.348-1.266 2.336 2.336 0 0 0-.925-.855c-.403-.207-.875-.313-1.43-.313a4.9 4.9 0 0 0-1.68.313 6.987 6.987 0 0 0-1.605.855 7.471 7.471 0 0 0-1.364 1.266 5.858 5.858 0 0 0-.933 1.554m-1.477 0c.2-.504.457-.988.774-1.453a9.699 9.699 0 0 1 2.371-2.41 9.556 9.556 0 0 1 1.445-.855 7.926 7.926 0 0 1 1.531-.555 6.307 6.307 0 0 1 1.532-.195c.5 0 .96.066 1.375.195.414.129.773.312 1.086.555.308.238.562.523.761.855.2.328.336.7.414 1.106.078.406.086.84.032 1.304-.06.465-.188.95-.387 1.453-.2.504-.461.989-.774 1.454a9.271 9.271 0 0 1-1.078 1.308 9.96 9.96 0 0 1-1.293 1.106c-.465.328-.949.613-1.449.855-.5.238-1.008.422-1.527.55a6.3 6.3 0 0 1-1.528.196c-.757 0-1.41-.144-1.957-.43a3.19 3.19 0 0 1-1.273-1.171c-.297-.497-.453-1.075-.477-1.739-.023-.664.121-1.37.422-2.129M303.46 382.156c-.155.39-.23.754-.222 1.102.012.34.094.64.246.898.157.254.375.457.66.606.286.144.622.218 1.008.218.391 0 .785-.074 1.188-.218a4.927 4.927 0 0 0 1.14-.606c.36-.258.68-.558.965-.898.285-.348.504-.711.66-1.102l2.606-6.52h1.476l-2.601 6.52a6.03 6.03 0 0 1-.613 1.149 7.255 7.255 0 0 1-1.868 1.894 6.924 6.924 0 0 1-1.14.672c-.395.188-.79.332-1.2.438a5.16 5.16 0 0 1-1.206.152c-.391 0-.75-.055-1.075-.152a2.762 2.762 0 0 1-.855-.438 2.375 2.375 0 0 1-.606-.672 2.577 2.577 0 0 1-.328-.867 3.476 3.476 0 0 1-.02-1.031 4.58 4.58 0 0 1 .306-1.145l2.605-6.52h1.477zM319.754 377.117l-1.317 3.293h2.36c.23 0 .46-.043.691-.129.235-.082.457-.199.664-.351.211-.149.399-.32.567-.52.164-.2.297-.414.386-.644a1.58 1.58 0 0 0 .125-.641 1.08 1.08 0 0 0-.144-.523.963.963 0 0 0-.383-.356 1.253 1.253 0 0 0-.59-.129zm-3.684 9.223h-1.48l4.273-10.703h3.84c.434 0 .809.082 1.121.246.317.164.559.387.73.668.169.281.259.613.27.996.012.379-.066.785-.242 1.219a4.188 4.188 0 0 1-.559.996c-.234.316-.5.605-.793.863-.3.262-.62.484-.96.676-.344.191-.696.34-1.047.437l1.566 4.602h-1.016c-.289 0-.52-.055-.699-.168a.797.797 0 0 1-.344-.504l-1.293-3.781h-1.59zM337.973 380.984c-.223.551-.325 1.07-.309 1.555.016.48.133.902.352 1.266.214.363.523.644.921.855.403.207.88.313 1.43.313.43 0 .86-.063 1.285-.188a6.273 6.273 0 0 0 1.27-.523c.234-.121.465-.184.695-.184.18 0 .324.028.43.09.11.059.195.145.265.262l.168.273c-.359.27-.73.512-1.117.73a8.658 8.658 0 0 1-1.18.548c-.398.152-.8.265-1.206.347a6.076 6.076 0 0 1-1.2.125c-.757 0-1.41-.144-1.957-.43a3.18 3.18 0 0 1-1.27-1.171c-.296-.496-.456-1.075-.476-1.739-.023-.664.117-1.37.418-2.129.203-.503.461-.988.774-1.453a9.486 9.486 0 0 1 1.074-1.304 9.733 9.733 0 0 1 1.3-1.106c.462-.332.942-.617 1.446-.855a7.8 7.8 0 0 1 1.527-.555 6.307 6.307 0 0 1 1.532-.195c.39 0 .761.043 1.097.125.344.082.653.199.93.347.281.149.527.332.742.547.215.219.395.461.535.73l-.386.278c-.16.113-.32.203-.481.262-.16.062-.324.093-.5.093-.223 0-.406-.062-.543-.191a2.498 2.498 0 0 0-.855-.523 3.174 3.174 0 0 0-1.133-.188c-.551 0-1.11.106-1.676.313a7.013 7.013 0 0 0-1.61.855 7.449 7.449 0 0 0-1.359 1.266 5.756 5.756 0 0 0-.933 1.554M351.52 380.984c-.22.551-.32 1.07-.305 1.555.015.48.129.902.348 1.266.218.363.527.644.925.855.399.207.875.313 1.43.313.55 0 1.113-.106 1.676-.313a6.714 6.714 0 0 0 1.61-.855 7.6 7.6 0 0 0 1.362-1.266c.399-.484.711-1.004.934-1.555.219-.55.32-1.07.305-1.554a2.612 2.612 0 0 0-.348-1.266 2.336 2.336 0 0 0-.926-.855c-.402-.207-.875-.313-1.43-.313a4.9 4.9 0 0 0-1.68.313 6.987 6.987 0 0 0-1.605.855 7.471 7.471 0 0 0-1.363 1.266 5.858 5.858 0 0 0-.933 1.554m-1.477 0c.2-.504.457-.988.773-1.453a9.7 9.7 0 0 1 2.371-2.41 9.556 9.556 0 0 1 1.446-.855 7.926 7.926 0 0 1 1.531-.555 6.307 6.307 0 0 1 1.531-.195c.5 0 .961.066 1.375.195.414.129.774.312 1.086.555.309.238.563.523.762.855.2.328.336.7.414 1.106.078.406.086.84.031 1.304-.058.465-.187.95-.386 1.453-.2.504-.461.989-.774 1.454a9.27 9.27 0 0 1-1.078 1.308 9.96 9.96 0 0 1-1.293 1.106c-.465.328-.95.613-1.45.855-.5.238-1.007.422-1.527.55a6.3 6.3 0 0 1-1.527.196c-.758 0-1.41-.144-1.957-.43a3.19 3.19 0 0 1-1.273-1.171c-.297-.497-.454-1.075-.477-1.739-.023-.664.121-1.37.422-2.129M375.512 386.34h-1.48l3.402-8.52c-.012.012-.032.047-.063.098-.031.05-.066.113-.105.18-.04.066-.078.136-.125.203-.043.066-.086.12-.121.168l-6.583 7.87h-1.44l-.29-7.866a.514.514 0 0 1 .004-.133c.008-.055.016-.11.027-.168.008-.055.02-.11.032-.156.011-.047.019-.082.03-.11l-3.366 8.434h-1.48l4.276-10.703h1.223c.234 0 .422.062.563.191.14.125.218.293.222.496l.285 7.657c0 .097-.011.203-.035.308-.015.11-.05.223-.094.348.114-.25.25-.469.403-.656l6.398-7.657c.18-.215.39-.383.633-.504.242-.12.477-.183.703-.183h1.254zM387.445 380.879c.258 0 .524-.047.79-.145.269-.097.523-.23.765-.402.238-.172.453-.371.64-.598a2.77 2.77 0 0 0 .438-.734c.102-.262.152-.504.149-.734a1.203 1.203 0 0 0-.164-.602 1.052 1.052 0 0 0-.442-.402 1.456 1.456 0 0 0-.672-.149h-2.347l-1.504 3.766zm-4.527 5.46h-1.477l4.274-10.702h3.824c.465 0 .863.09 1.203.265.336.176.598.418.778.723.183.3.28.656.293 1.066.015.407-.07.844-.254 1.309-.184.46-.45.898-.79 1.305-.34.41-.718.765-1.144 1.07-.426.3-.879.543-1.36.719a4.07 4.07 0 0 1-1.41.265h-2.347zM399.555 377.996l-3.739 4.477h4.176l-.164-4.477c-.008-.172.031-.383.113-.633a3.156 3.156 0 0 1-.187.344c-.063.102-.129.2-.2.29m.36-2.36h1.441l.395 10.703h-.852c-.234 0-.421-.059-.562-.184a.664.664 0 0 1-.223-.504l-.07-1.703h-5.465l-1.422 1.703a1.88 1.88 0 0 1-.62.5 1.536 1.536 0 0 1-.712.188h-.855zM414.984 386.34h-1.203l-2.777-8.356a.573.573 0 0 1-.027-.187.908.908 0 0 1 .011-.203c.008-.074.024-.153.043-.239l-3.59 8.985h-1.48l4.277-10.703h1.051c.238 0 .434.035.586.105.152.07.25.176.297.32l2.336 7.149c.058.195.043.441-.047.738l3.32-8.312h1.477zM425.172 386.34h-1.477l1.805-4.524c.047-.113.074-.207.09-.293a1.29 1.29 0 0 0 .012-.242 1.256 1.256 0 0 0-.047-.234 9.071 9.071 0 0 0-.082-.266l-1.746-5.144h1.015c.29 0 .524.054.7.168a.802.802 0 0 1 .347.504l1.164 3.421a.445.445 0 0 1 .004.192c-.012.07-.02.129-.027.176a.958.958 0 0 1 .097-.176.883.883 0 0 1 .168-.192l3.899-3.421c.23-.223.48-.391.75-.504.265-.114.543-.168.832-.168h1.015l-5.859 5.144c-.105.098-.203.184-.289.266a2.588 2.588 0 0 0-.418.476c-.05.086-.098.18-.145.293zm0 0" transform="translate(-47.695 -272.024)"/><path style="fill:#eb1923;fill-opacity:1;fill-rule:nonzero;stroke:none" d="M455.102 272.148c-5.774.801-12.973 1.692-12.973 1.692L314.55 293.46l113.379.009 23.425-.008c23.891.008 18.375-23.336 3.747-21.313M508.434 301.684c1.109.074 2.52.793 4.234 2.16.602.605.906 1.199.902 1.781v.188c-.008.96-.984 3.695-2.925 8.195-3.817 9.097-11.817 29.09-13.766 34.094a58.62 58.62 0 0 0-2.43 7.398v.188c0 .257.086.378.266.378.906 0 3.605-2.714 8.082-8.152 4.633-5.863 7.691-10.344 9.172-13.426.691-1.113 1.261-1.68 1.715-1.707.28.051.414.301.414.758-.059 1.895-2.594 6.906-7.586 15.024-5.918 9.222-10.34 13.835-13.278 13.835h-.375c-2.125 0-3.875-1.043-5.257-3.148-.5-.957-.743-1.84-.739-2.652v-.453c0-.66.403-1.973 1.196-3.946 5.617-15.523 14.457-38.535 16.277-43.16 1.254-3.137 2.254-5.398 2.996-6.789.23-.379.594-.566 1.102-.566" transform="translate(-47.695 -272.024)"/><path style="fill:#eb1923;fill-opacity:1;fill-rule:nonzero;stroke:none" d="M515.496 325.082c1.024.184 5.926 1.488 6.012 3.031.004.074-6.238 12.758-8.52 19.004-.773 2.352-1.16 3.996-1.168 4.93v.191c0 .66.223.985.676.985 1.09-.125 2.777-1.403 5.066-3.828a43.217 43.217 0 0 0 3.094-3.793c.989-1.446 2.715-3.52 4.047-7.36 1.54-3.972 2.613-6.234 3.223-6.793a1.22 1.22 0 0 1 .683-.226h.266c.906 0 2.246.672 4.012 2.011.699.63 1.05 1.305 1.047 2.008-.004.985-.977 3.68-2.922 8.082-2.407 5.535-1.875 4.16-3.18 7.852-.898 2.68-1.355 4.183-1.355 4.511v.04c0 .203.066.332.187.379h.152c.887 0 3.567-2.704 8.043-8.118 4.664-5.914 5.309-6.754 7.239-10.043.53-.906 1.066-1.289 1.37-1.289h.114c.277 0 .441.43.414.758-.148 1.621-.328 2.902-5.305 11.07a83.821 83.821 0 0 1-6.421 8.91c-2.899 3.391-5.18 5.083-6.848 5.083-2.457 0-4.27-1.188-5.442-3.567a7.432 7.432 0 0 1-.632-3.031c0-.606.148-1.43.43-2.465-1.2 1.664-2.696 3.45-4.505 5.344-2.59 2.48-4.66 3.719-6.195 3.719-.762 0-1.695-.442-2.805-1.329-1.683-1.667-2.52-3.968-2.5-6.902.008-1.59.7-4.46 2.09-8.605 2.617-7.938 4.953-14.297 7.23-18.97.977-1.995 2.403-1.589 2.403-1.589M478.57 362.477c-1.14 0-2.093-.461-2.875-1.387-.777-.922-1.172-2.04-1.16-3.352.008-1.316.406-2.433 1.195-3.36.79-.921 1.75-1.382 2.891-1.382 1.11 0 2.059.461 2.836 1.383.777.926 1.164 2.043 1.16 3.36-.012 1.312-.41 2.429-1.195 3.35-.79.927-1.742 1.388-2.852 1.388" transform="translate(-47.695 -272.024)"/><g clip-path="url(#a)" style="clip-rule:nonzero" transform="translate(-47.695 -272.024)"><g clip-path="url(#b)" style="clip-rule:nonzero"><path style="fill:url(#c);fill-rule:nonzero;stroke:none" d="m89.445 363.547 1.633-61.79-43.355-1.144-1.633 61.79zm0 0"/></g></g><g clip-path="url(#d)" style="clip-rule:nonzero" transform="translate(-47.695 -272.024)"><g clip-path="url(#e)" style="clip-rule:nonzero"><path style="fill:url(#f);fill-rule:nonzero;stroke:none" d="m148.113 364.809 1.668-63.125-57.187-1.508-1.668 63.12zm0 0"/></g></g><g clip-path="url(#g)" style="clip-rule:nonzero" transform="translate(-47.695 -272.024)"><g clip-path="url(#h)" style="clip-rule:nonzero"><path style="fill:url(#i);fill-rule:nonzero;stroke:none" d="m252 364.809 1.668-63.125-57.184-1.508-1.668 63.12zm0 0"/></g></g><g clip-path="url(#j)" style="clip-rule:nonzero" transform="translate(-47.695 -272.024)"><g clip-path="url(#k)" style="clip-rule:nonzero"><path style="fill:url(#l);fill-rule:nonzero;stroke:none" d="m328.273 364.73 1.664-62.972-88.12-2.328-1.665 62.972zm0 0"/></g></g><g clip-path="url(#m)" style="clip-rule:nonzero" transform="translate(-47.695 -272.024)"><g clip-path="url(#n)" style="clip-rule:nonzero"><path style="fill:url(#o);fill-rule:nonzero;stroke:none" d="m372.535 364.809 1.668-63.125-57.183-1.508-1.668 63.12zm0 0"/></g></g><g clip-path="url(#p)" style="clip-rule:nonzero" transform="translate(-47.695 -272.024)"><g clip-path="url(#q)" style="clip-rule:nonzero"><path style="fill:url(#r);fill-rule:nonzero;stroke:none" d="m430.012 363.93 1.64-62.172-57.812-1.528-1.64 62.172zm0 0"/></g></g><g clip-path="url(#s)" style="clip-rule:nonzero" transform="translate(-47.695 -272.024)"><g clip-path="url(#t)" style="clip-rule:nonzero"><path style="fill:url(#u);fill-rule:nonzero;stroke:none" d="m453.883 363.547 1.633-61.79-43.348-1.144-1.633 61.79zm0 0"/></g></g><g clip-path="url(#v)" style="clip-rule:nonzero" transform="translate(-47.695 -272.024)"><g clip-path="url(#w)" style="clip-rule:nonzero"><path style="fill:url(#x);fill-rule:nonzero;stroke:none" d="m207.86 392.074 2.386-90.441-65.762-1.738-2.39 90.445zm0 0"/></g></g><g clip-path="url(#y)" style="clip-rule:nonzero" transform="translate(-47.695 -272.024)"><g clip-path="url(#z)" style="clip-rule:nonzero"><path style="fill:url(#A);fill-rule:nonzero;stroke:none" d="m492.906 363.86 1.637-61.981-56.844-1.5-1.636 61.98zm0 0"/></g></g></svg>