<?xml version="1.0" encoding="utf-8"?>
<!-- Generator: Adobe Illustrator 25.1.0, SVG Export Plug-In . SVG Version: 6.00 Build 0)  -->
<svg version="1.1" id="Layer_1" xmlns="http://www.w3.org/2000/svg" xmlns:xlink="http://www.w3.org/1999/xlink" x="0px" y="0px"
	 viewBox="0 0 341.7 104.1" style="enable-background:new 0 0 341.7 104.1;" xml:space="preserve">
<style type="text/css">
	.st0{fill:#263746;}
</style>
<g>
	<path class="st0" d="M312.5,58.7V29.4h-10v11.4h-16V29.4h-10v23l-27.1,0h-1c-1.2,0-2-0.1-2.3-0.3c-0.7-0.4-1-1.1-1-2.2
		c0,0,0-12.2,0-12.9c0-1,1.6-1.3,2.6-1.3c1,0,20.6,0,20.6,0v-6.3h-22.2c-4.7,0-7.9,0.5-9.7,1.4c-1.8,1-2.7,2.7-2.7,5.3
		c0,0,0,16.3,0,16.3h-8.5v-5.8c0-2.2-1.4-3.8-4.2-4.7c-1.9-0.7-4-1.1-6.5-1.1h-9c-1.7-0.1-2.6-0.5-2.9-1.3c0-0.1-0.1-2.4-0.1-2.4
		c0-0.9,0.8-1.3,2.5-1.4l20-0.1v-6.3H202c-5.7,0-9.2,1.4-10.5,4.3c-0.2,0.5-0.3,1-0.3,1.5v6.2c0,1.1,0.6,2.2,1.8,3.2
		c2.1,1.7,5.1,2.6,8.9,2.6h9.5c1.6,0.1,2.4,0.6,2.4,1.4v2.1c0,0.8-1.3,1.7-2.6,1.7c-1.3,0-27.3,0-27.3,0c0,0,0,0,0,0V35.6
		c0-4.2-3.9-6.3-11.8-6.3h-13.4c-6.6,0-10.4,1.6-11.7,4.7c-0.2,0.5-0.3,1.1-0.3,1.6l0.1,16.7h-15.4c-1.9,0-2.9-0.4-2.9-1.3V29.4
		h-10.7v22.2c0,2.3,0.9,4,2.6,5.2c2.9,2,9.9,2,10.6,2h155.6v0h0v-6.3h0v-5.2h16v11.6H312.5z M172.5,50.6c0,1.2-1.2,1.8-3.7,1.8h-7
		c-2.5,0-3.7-0.7-3.7-2L158,37.7c0-1.4,1.3-2,3.8-2h7c2.5,0,3.7,0.7,3.7,2V50.6z"/>
	<path class="st0" d="M309,71.4h2.1c-0.1,0.6-0.3,1.1-0.9,1.6c-0.5,0.4-1.1,0.6-1.7,0.6c-0.7,0-1.4-0.3-2.1-0.9
		c-0.7-0.6-1-1.4-1-2.4c0-0.9,0.3-1.7,0.9-2.3c0.6-0.6,1.4-0.9,2.3-0.9c1,0,1.9,0.5,2.6,1.4l0.9-0.9c-0.5-0.6-1.1-1.1-1.6-1.3
		c-0.6-0.3-1.2-0.4-1.9-0.4c-1.2,0-2.3,0.4-3.2,1.3c-0.9,0.9-1.3,1.9-1.3,3.2c0,1.2,0.4,2.3,1.3,3.1c0.9,0.9,1.9,1.3,3.1,1.3
		c1.2,0,2.2-0.4,3-1.3c0.4-0.4,0.6-0.8,0.8-1.3c0.2-0.5,0.2-1.1,0.2-1.7v-0.3H309V71.4z M286.2,67.3h0.5c1.2,0,1.8,0.4,1.8,1.3
		c0,0.9-0.6,1.4-1.8,1.4h-0.4V67.3z M289.2,70.2c0.3-0.4,0.5-1,0.5-1.6c0-0.8-0.3-1.4-0.8-1.9c-0.5-0.4-1.3-0.6-2.5-0.6h-1.5v8.6
		h1.3v-3.5h0.2l2.5,3.5h1.6l-2.7-3.7C288.4,70.9,288.8,70.6,289.2,70.2 M263.4,66.1v5.5c0,0.9,0.3,1.7,0.8,2.2c0.6,0.7,1.4,1,2.3,1
		c0.9,0,1.7-0.3,2.3-1c0.6-0.6,0.8-1.3,0.8-2.2v-5.5h-1.3v5.2c0,0.7-0.1,1.3-0.4,1.6c-0.4,0.5-0.9,0.7-1.5,0.7
		c-0.7,0-1.2-0.2-1.5-0.7c-0.2-0.3-0.4-0.9-0.4-1.6v-5.2H263.4z M242,68.1c0.6-0.6,1.4-0.9,2.3-0.9c0.9,0,1.6,0.3,2.3,0.9
		c0.6,0.6,0.9,1.4,0.9,2.3c0,0.9-0.3,1.7-0.9,2.3c-0.6,0.6-1.4,0.9-2.3,0.9c-0.8,0-1.6-0.3-2.2-0.9c-0.6-0.6-1-1.4-1-2.3
		C241.1,69.5,241.4,68.7,242,68.1 M241.3,73.7c0.9,0.8,1.9,1.1,3,1.1c1.3,0,2.3-0.4,3.2-1.3c0.9-0.9,1.3-1.9,1.3-3.1
		c0-1.2-0.4-2.3-1.3-3.2c-0.9-0.9-1.9-1.3-3.1-1.3c-1.2,0-2.3,0.4-3.2,1.3c-0.9,0.9-1.3,1.9-1.3,3.1
		C239.8,71.7,240.3,72.8,241.3,73.7 M221.8,70.9h0.7c0.7,0,1.2,0.1,1.4,0.4c0.3,0.3,0.4,0.6,0.4,0.9c0,0.4-0.1,0.7-0.4,0.9
		c-0.3,0.2-0.7,0.3-1.3,0.3h-0.8V70.9z M221.8,67.3h0.5c0.4,0,0.8,0.1,1,0.3c0.2,0.2,0.3,0.5,0.3,0.9c0,0.4-0.1,0.7-0.3,0.9
		c-0.2,0.2-0.6,0.3-1.1,0.3h-0.4V67.3z M222.5,74.7c0.6,0,1.1-0.1,1.5-0.2c0.4-0.1,0.7-0.3,1-0.6c0.5-0.5,0.7-1,0.7-1.7
		c0-0.5-0.1-1-0.4-1.3c-0.3-0.4-0.6-0.7-1.1-0.8c0.5-0.4,0.7-0.9,0.7-1.6c0-0.3-0.1-0.7-0.2-1c-0.1-0.3-0.3-0.6-0.6-0.8
		c-0.2-0.2-0.5-0.4-0.9-0.5c-0.3-0.1-0.8-0.1-1.4-0.1h-1.3v8.6H222.5z M197.6,74.7l0.9-5.2l2.5,5.6l2.5-5.6l0.8,5.2h1.3l-1.6-9.2
		l-3.1,6.7l-2.9-6.7l-1.8,9.2H197.6z M181.8,66.1h-4.7v8.6h4.7v-1.2h-3.4v-2.9h3.3v-1.2h-3.3v-2.1h3.4V66.1z M156.1,74.7h1.5l2-3.3
		l1.9,3.3h1.5l-2.6-4.5l2.5-4.1h-1.5l-1.7,2.9l-1.6-2.9h-1.5l2.4,4.1L156.1,74.7z M135.6,66.1v5.5c0,0.9,0.3,1.7,0.8,2.2
		c0.6,0.7,1.4,1,2.3,1c0.9,0,1.7-0.3,2.3-1c0.6-0.6,0.8-1.3,0.8-2.2v-5.5h-1.3v5.2c0,0.7-0.1,1.3-0.4,1.6c-0.4,0.5-0.9,0.7-1.5,0.7
		c-0.7,0-1.2-0.2-1.5-0.7c-0.2-0.3-0.4-0.9-0.4-1.6v-5.2H135.6z M117.7,66.1v8.6h3.8v-1.2H119v-7.4H117.7z"/>
	<path class="st0" d="M95.4,34c1.1,0,2.3,0.1,2.3,1v29.4h5.5V34.7c0-2.1-0.6-3.5-2.1-4.5c-1.8-1.2-8.4-1.1-8.4-1.2l-24.4,0l0,5
		L95.4,34z"/>
	<path class="st0" d="M36.8,70.1c-1.1,0-2.3-0.1-2.3-1V39.7h-5.5v29.7c0,2.1,0.6,3.5,2.1,4.5c1.8,1.2,8.4,1.1,8.4,1.2l24.4,0l0-5
		L36.8,70.1z"/>
	<path class="st0" d="M44.1,54.8c0,0.7,0.3,1.4,1,2c1,0.9,2.5,1.4,4.7,1.4h8.1v6.2h6.1l0-20.2h-6.2v9.1h-7.6l0.1-13.7h-6.2
		C44.1,39.7,44.1,54.4,44.1,54.8"/>
	<path class="st0" d="M88.7,56.5c0-1.6-1-2.8-3-3.5c2-0.7,3-1.8,3-3.4v-3.2c0-1.8-0.9-3.1-2.8-3.9c-0.8-0.3-2.1-0.5-3.8-0.5H75
		c-1.7,0-3,0.2-3.8,0.5c-1.9,0.7-2.8,2-2.8,3.9v3.2c0,1.6,1,2.8,3,3.4c-2,0.7-3,1.9-3,3.5v3.2c0,2,0.9,3.4,2.8,4.2
		c0.8,0.4,2.1,0.6,3.8,0.6h7.1c1.8,0,3.1-0.2,3.8-0.6c1.9-0.8,2.8-2.2,2.8-4.2V56.5z M74.6,47.9c0-0.7,0.6-1.1,1.8-1.1h4.4
		c1.2,0,1.8,0.4,1.8,1.1v1.8c0,0.2-0.1,0.3-0.2,0.4c-0.2,0.2-0.8,0.4-1.6,0.4h-4.4c-1.1,0-1.7-0.3-1.8-0.8V47.9z M81.4,59.6h-5.7
		c-0.2,0-0.4-0.1-0.7-0.3c-0.3-0.2-0.4-0.5-0.4-0.9v-1.9c0-0.1,0.1-0.2,0.2-0.4c0.2-0.4,0.7-0.6,1.3-0.7h5c0.7,0.1,1.1,0.3,1.4,0.7
		c0.1,0.2,0.1,0.4,0.1,0.4v1.9C82.5,59.1,82.1,59.5,81.4,59.6"/>
</g>
</svg>
