<svg version="1.1" id="Layer_1" xmlns="http://www.w3.org/2000/svg" x="0" y="0" viewBox="0 0 341.7 104.1" style="enable-background:new 0 0 341.7 104.1" xml:space="preserve"><style>.st0{fill:#263746}</style><path class="st0" d="M312.5 58.7V29.4h-10v11.4h-16V29.4h-10v23h-28.1c-1.2 0-2-.1-2.3-.3-.7-.4-1-1.1-1-2.2V37c0-1 1.6-1.3 2.6-1.3h20.6v-6.3h-22.2c-4.7 0-7.9.5-9.7 1.4-1.8 1-2.7 2.7-2.7 5.3v16.3h-8.5v-5.8c0-2.2-1.4-3.8-4.2-4.7-1.9-.7-4-1.1-6.5-1.1h-9c-1.7-.1-2.6-.5-2.9-1.3 0-.1-.1-2.4-.1-2.4 0-.9.8-1.3 2.5-1.4l20-.1v-6.3h-23c-5.7 0-9.2 1.4-10.5 4.3-.2.5-.3 1-.3 1.5v6.2c0 1.1.6 2.2 1.8 3.2 2.1 1.7 5.1 2.6 8.9 2.6h9.5c1.6.1 2.4.6 2.4 1.4v2.1c0 .8-1.3 1.7-2.6 1.7h-27.3V35.6c0-4.2-3.9-6.3-11.8-6.3h-13.4c-6.6 0-10.4 1.6-11.7 4.7-.2.5-.3 1.1-.3 1.6l.1 16.7h-15.4c-1.9 0-2.9-.4-2.9-1.3V29.4h-10.7v22.2c0 2.3.9 4 2.6 5.2 2.9 2 9.9 2 10.6 2h155.6V47.3h16v11.6h9.9zm-140-8.1c0 1.2-1.2 1.8-3.7 1.8h-7c-2.5 0-3.7-.7-3.7-2l-.1-12.7c0-1.4 1.3-2 3.8-2h7c2.5 0 3.7.7 3.7 2v12.9zM309 71.4h2.1c-.1.6-.3 1.1-.9 1.6-.5.4-1.1.6-1.7.6-.7 0-1.4-.3-2.1-.9-.7-.6-1-1.4-1-2.4 0-.9.3-1.7.9-2.3.6-.6 1.4-.9 2.3-.9 1 0 1.9.5 2.6 1.4l.9-.9c-.5-.6-1.1-1.1-1.6-1.3-.6-.3-1.2-.4-1.9-.4-1.2 0-2.3.4-3.2 1.3-.9.9-1.3 1.9-1.3 3.2 0 1.2.4 2.3 1.3 3.1.9.9 1.9 1.3 3.1 1.3 1.2 0 2.2-.4 3-1.3.4-.4.6-.8.8-1.3.2-.5.2-1.1.2-1.7v-.3H309v1.2zm-22.8-4.1h.5c1.2 0 1.8.4 1.8 1.3s-.6 1.4-1.8 1.4h-.4v-2.7zm3 2.9c.3-.4.5-1 .5-1.6 0-.8-.3-1.4-.8-1.9-.5-.4-1.3-.6-2.5-.6h-1.5v8.6h1.3v-3.5h.2l2.5 3.5h1.6l-2.7-3.7c.6-.1 1-.4 1.4-.8m-25.8-4.1v5.5c0 .9.3 1.7.8 2.2.6.7 1.4 1 2.3 1 .9 0 1.7-.3 2.3-1 .6-.6.8-1.3.8-2.2v-5.5h-1.3v5.2c0 .7-.1 1.3-.4 1.6-.4.5-.9.7-1.5.7-.7 0-1.2-.2-1.5-.7-.2-.3-.4-.9-.4-1.6v-5.2h-1.1zm-21.4 2c.6-.6 1.4-.9 2.3-.9.9 0 1.6.3 2.3.9.6.6.9 1.4.9 2.3 0 .9-.3 1.7-.9 2.3-.6.6-1.4.9-2.3.9-.8 0-1.6-.3-2.2-.9-.6-.6-1-1.4-1-2.3 0-.9.3-1.7.9-2.3m-.7 5.6c.9.8 1.9 1.1 3 1.1 1.3 0 2.3-.4 3.2-1.3.9-.9 1.3-1.9 1.3-3.1 0-1.2-.4-2.3-1.3-3.2-.9-.9-1.9-1.3-3.1-1.3-1.2 0-2.3.4-3.2 1.3-.9.9-1.3 1.9-1.3 3.1-.1 1.4.4 2.5 1.4 3.4m-19.5-2.8h.7c.7 0 1.2.1 1.4.4.3.3.4.6.4.9 0 .4-.1.7-.4.9-.3.2-.7.3-1.3.3h-.8v-2.5zm0-3.6h.5c.4 0 .8.1 1 .3.2.2.3.5.3.9s-.1.7-.3.9c-.2.2-.6.3-1.1.3h-.4v-2.4zm.7 7.4c.6 0 1.1-.1 1.5-.2.4-.1.7-.3 1-.6.5-.5.7-1 .7-1.7 0-.5-.1-1-.4-1.3-.3-.4-.6-.7-1.1-.8.5-.4.7-.9.7-1.6 0-.3-.1-.7-.2-1-.1-.3-.3-.6-.6-.8-.2-.2-.5-.4-.9-.5-.3-.1-.8-.1-1.4-.1h-1.3v8.6h2zm-24.9 0 .9-5.2 2.5 5.6 2.5-5.6.8 5.2h1.3l-1.6-9.2-3.1 6.7-2.9-6.7-1.8 9.2h1.4zm-15.8-8.6h-4.7v8.6h4.7v-1.2h-3.4v-2.9h3.3v-1.2h-3.3v-2.1h3.4v-1.2zm-25.7 8.6h1.5l2-3.3 1.9 3.3h1.5l-2.6-4.5 2.5-4.1h-1.5l-1.7 2.9-1.6-2.9h-1.5l2.4 4.1-2.9 4.5zm-20.5-8.6v5.5c0 .9.3 1.7.8 2.2.6.7 1.4 1 2.3 1 .9 0 1.7-.3 2.3-1 .6-.6.8-1.3.8-2.2v-5.5h-1.3v5.2c0 .7-.1 1.3-.4 1.6-.4.5-.9.7-1.5.7-.7 0-1.2-.2-1.5-.7-.2-.3-.4-.9-.4-1.6v-5.2h-1.1zm-17.9 0v8.6h3.8v-1.2H119v-7.4h-1.3zM95.4 34c1.1 0 2.3.1 2.3 1v29.4h5.5V34.7c0-2.1-.6-3.5-2.1-4.5-1.8-1.2-8.4-1.1-8.4-1.2H68.3v5h27.1zM36.8 70.1c-1.1 0-2.3-.1-2.3-1V39.7H29v29.7c0 2.1.6 3.5 2.1 4.5 1.8 1.2 8.4 1.1 8.4 1.2h24.4v-5H36.8z"/><path class="st0" d="M44.1 54.8c0 .7.3 1.4 1 2 1 .9 2.5 1.4 4.7 1.4h8.1v6.2H64V44.2h-6.2v9.1h-7.6l.1-13.7h-6.2v15.2M88.7 56.5c0-1.6-1-2.8-3-3.5 2-.7 3-1.8 3-3.4v-3.2c0-1.8-.9-3.1-2.8-3.9-.8-.3-2.1-.5-3.8-.5H75c-1.7 0-3 .2-3.8.5-1.9.7-2.8 2-2.8 3.9v3.2c0 1.6 1 2.8 3 3.4-2 .7-3 1.9-3 3.5v3.2c0 2 .9 3.4 2.8 4.2.8.4 2.1.6 3.8.6h7.1c1.8 0 3.1-.2 3.8-.6 1.9-.8 2.8-2.2 2.8-4.2v-3.2zm-14.1-8.6c0-.7.6-1.1 1.8-1.1h4.4c1.2 0 1.8.4 1.8 1.1v1.8c0 .2-.1.3-.2.4-.2.2-.8.4-1.6.4h-4.4c-1.1 0-1.7-.3-1.8-.8v-1.8zm6.8 11.7h-5.7c-.2 0-.4-.1-.7-.3-.3-.2-.4-.5-.4-.9v-1.9c0-.1.1-.2.2-.4.2-.4.7-.6 1.3-.7h5c.7.1 1.1.3 1.4.7.1.2.1.4.1.4v1.9c-.1.7-.5 1.1-1.2 1.2"/></svg>