<?xml version="1.0" encoding="UTF-8" standalone="no"?>
<!-- Created with Inkscape (http://www.inkscape.org/) -->

<svg
   xmlns:osb="http://www.openswatchbook.org/uri/2009/osb"
   xmlns:dc="http://purl.org/dc/elements/1.1/"
   xmlns:cc="http://creativecommons.org/ns#"
   xmlns:rdf="http://www.w3.org/1999/02/22-rdf-syntax-ns#"
   xmlns:svg="http://www.w3.org/2000/svg"
   xmlns="http://www.w3.org/2000/svg"
   xmlns:sodipodi="http://sodipodi.sourceforge.net/DTD/sodipodi-0.dtd"
   xmlns:inkscape="http://www.inkscape.org/namespaces/inkscape"
   version="1.1"
   id="svg2"
   xml:space="preserve"
   width="208.94012"
   height="56.278492"
   viewBox="0 0 208.94012 56.278492"
   sodipodi:docname="loyens-loeff.svg"
   inkscape:version="0.92.5 (2060ec1f9f, 2020-04-08)"><metadata
     id="metadata8"><rdf:RDF><cc:Work
         rdf:about=""><dc:format>image/svg+xml</dc:format><dc:type
           rdf:resource="http://purl.org/dc/dcmitype/StillImage" /><dc:title></dc:title></cc:Work></rdf:RDF></metadata><defs
     id="defs6"><linearGradient
       id="linearGradient1441"
       osb:paint="solid"><stop
         style="stop-color:#000000;stop-opacity:1;"
         offset="0"
         id="stop1439" /></linearGradient><clipPath
       clipPathUnits="userSpaceOnUse"
       id="clipPath18"><path
         d="M 13.181,482.598 H 340.157 V 12.047 H 13.181 Z"
         id="path16"
         inkscape:connector-curvature="0" /></clipPath><clipPath
       clipPathUnits="userSpaceOnUse"
       id="clipPath32"><path
         d="M 0,0 H 352.913 V 494.646 H 0 Z"
         id="path30"
         inkscape:connector-curvature="0" /></clipPath><clipPath
       clipPathUnits="userSpaceOnUse"
       id="clipPath40"><path
         d="M -7.5,275.353 H 325.425 V 44.9961 H -7.5 Z"
         id="path38"
         inkscape:connector-curvature="0" /></clipPath><clipPath
       clipPathUnits="userSpaceOnUse"
       id="clipPath210"><path
         d="M 98.104,429.716 H 254.81 v 42.34 H 98.104 Z"
         id="path208"
         inkscape:connector-curvature="0" /></clipPath><clipPath
       clipPathUnits="userSpaceOnUse"
       id="clipPath356"><path
         d="m 26.416,150.56 h 14.359 v 16.135 H 26.416 Z"
         id="path354"
         inkscape:connector-curvature="0" /></clipPath><clipPath
       clipPathUnits="userSpaceOnUse"
       id="clipPath424"><path
         d="m 75.565,119.45 h 22.539 v 11.343 H 75.565 Z"
         id="path422"
         inkscape:connector-curvature="0" /></clipPath><clipPath
       clipPathUnits="userSpaceOnUse"
       id="clipPath438"><path
         d="m 78.152,150.495 h 18.641 v 9.827 H 78.152 Z"
         id="path436"
         inkscape:connector-curvature="0" /></clipPath><clipPath
       clipPathUnits="userSpaceOnUse"
       id="clipPath470"><path
         d="m 28.675,119.984 h 12.253 v 13.143 H 28.675 Z"
         id="path468"
         inkscape:connector-curvature="0" /></clipPath></defs><sodipodi:namedview
     pagecolor="#ffffff"
     bordercolor="#666666"
     borderopacity="1"
     objecttolerance="10"
     gridtolerance="10"
     guidetolerance="10"
     inkscape:pageopacity="0"
     inkscape:pageshadow="2"
     inkscape:window-width="1920"
     inkscape:window-height="1055"
     id="namedview4"
     showgrid="false"
     inkscape:pagecheckerboard="true"
     inkscape:zoom="2.0242015"
     inkscape:cx="21.550012"
     inkscape:cy="133.61807"
     inkscape:window-x="0"
     inkscape:window-y="0"
     inkscape:window-maximized="1"
     inkscape:current-layer="g10" /><g
     id="g10"
     inkscape:groupmode="layer"
     inkscape:label="Brochure L&amp;L"
     transform="matrix(1.3333333,0,0,-1.3333333,-130.80533,629.23314)"><g
       id="g212"
       transform="translate(190.1114,448.4521)"
       style="fill:#bbb2a7;fill-opacity:1"><path
         d="m 0,0 -8.899,0.001 c 0,0.026 0.025,0.181 0.02,0.183 l 1.286,8.003 1.337,1.511 -1.35,-8.547 C -7.61,1.125 -7.613,1.086 -7.616,1.062 h 0.665 V 1.048 h 7.095 z m -3.607,18.188 0.085,0.347 c 0.255,1.165 1.441,3.769 2.676,4.303 0.615,0.266 1.028,0.122 1.316,-0.544 0.811,-1.874 -1.41,-5.631 -4.638,-9.264 -0.037,-0.041 -0.342,-0.371 -0.339,-0.33 0.278,1.604 0.489,3.651 0.9,5.488 m -2.492,-15.794 1.453,9.021 c 0,0 0.428,0.521 0.517,0.61 2.327,2.421 6.304,7.635 5.02,10.604 -0.36,0.831 -0.915,0.975 -1.817,0.746 -1.721,-0.437 -2.579,-1.82 -3.292,-3.292 0.031,0.063 -0.258,-0.622 -0.379,-1.001 -0.748,-2.341 -0.921,-5.035 -1.346,-7.37 -0.029,-0.167 -0.053,-0.317 -0.075,-0.464 l -1.322,-1.494 1.105,6.883 h -2.658 l -0.059,-0.302 c 0,0 0.494,0.016 0.856,-0.03 0.284,-0.034 0.365,-0.246 0.39,-0.34 0.018,-0.067 -0.004,-0.202 -0.004,-0.202 L -8.972,7.909 -14.036,2.188 -14.3,0.607 l 5.076,5.735 -1.241,-7.684 11.639,-0.004 0.511,3.74 z"
         style="fill:#bbb2a7;fill-opacity:1;fill-rule:evenodd;stroke:none"
         id="path214"
         inkscape:connector-curvature="0" /></g><g
       id="g216"
       transform="translate(196.8588,449.7913)"
       style="fill-opacity:1;fill:#063579"><path
         d="M 0,0 V 12.569 H 1.998 V 1.656 H 7.939 V 0 Z"
         style="fill:#063579;fill-opacity:1;fill-rule:nonzero;stroke:none"
         id="path218"
         inkscape:connector-curvature="0" /></g><g
       id="g220"
       transform="translate(219.9698,456.0757)"
       style="fill-opacity:1;fill:#063579"><path
         d="m 0,0 c 0,3.76 -2.946,6.521 -6.969,6.521 -4.049,0 -6.967,-2.761 -6.967,-6.521 0,-3.787 2.918,-6.521 6.967,-6.521 C -2.946,-6.521 0,-3.787 0,0 m -2.129,0 c 0,-2.762 -2.077,-4.865 -4.84,-4.865 -2.76,0 -4.863,2.103 -4.863,4.865 0,2.76 2.103,4.837 4.863,4.837 2.763,0 4.84,-2.077 4.84,-4.837"
         style="fill:#063579;fill-opacity:1;fill-rule:nonzero;stroke:none"
         id="path222"
         inkscape:connector-curvature="0" /></g><g
       id="g224"
       transform="translate(223.8085,449.7913)"
       style="fill-opacity:1;fill:#063579"><path
         d="M 0,0 V 12.569 H 7.782 V 10.911 H 1.998 V 7.283 H 6.783 V 5.627 H 1.998 V 1.656 H 7.94 V 0 Z"
         style="fill:#063579;fill-opacity:1;fill-rule:nonzero;stroke:none"
         id="path226"
         inkscape:connector-curvature="0" /></g><g
       id="g228"
       transform="translate(237.6138,460.7026)"
       style="fill-opacity:1;fill:#063579"><path
         d="M 0,0 V -3.813 H 4.784 V -5.469 H 0 v -5.442 H -1.999 V 1.657 H 5.784 V 0 Z"
         style="fill:#063579;fill-opacity:1;fill-rule:nonzero;stroke:none"
         id="path230"
         inkscape:connector-curvature="0" /></g><g
       id="g232"
       transform="translate(249.0241,460.7026)"
       style="fill-opacity:1;fill:#063579"><path
         d="M 0,0 V -3.813 H 4.785 V -5.469 H 0 v -5.442 H -1.998 V 1.657 H 5.785 V 0 Z"
         style="fill:#063579;fill-opacity:1;fill-rule:nonzero;stroke:none"
         id="path234"
         inkscape:connector-curvature="0" /></g><g
       id="g236"
       transform="translate(98.1039,449.7913)"
       style="fill-opacity:1;fill:#063579"><path
         d="M 0,0 V 12.569 H 1.998 V 1.656 H 7.941 V 0 Z"
         style="fill:#063579;fill-opacity:1;fill-rule:nonzero;stroke:none"
         id="path238"
         inkscape:connector-curvature="0" /></g><g
       id="g240"
       transform="translate(121.2164,456.0757)"
       style="fill-opacity:1;fill:#063579"><path
         d="m 0,0 c 0,3.76 -2.945,6.521 -6.968,6.521 -4.049,0 -6.968,-2.761 -6.968,-6.521 0,-3.787 2.919,-6.521 6.968,-6.521 C -2.945,-6.521 0,-3.787 0,0 m -2.13,0 c 0,-2.762 -2.077,-4.865 -4.838,-4.865 -2.761,0 -4.864,2.103 -4.864,4.865 0,2.76 2.103,4.837 4.864,4.837 2.761,0 4.838,-2.077 4.838,-4.837"
         style="fill:#063579;fill-opacity:1;fill-rule:nonzero;stroke:none"
         id="path242"
         inkscape:connector-curvature="0" /></g><g
       id="g244"
       transform="translate(129.0786,455.4183)"
       style="fill-opacity:1;fill:#063579"><path
         d="M 0,0 V -5.627 H -1.972 V 0 l -4.47,6.942 h 2.314 l 3.312,-5.129 3.314,5.129 h 2.313 z"
         style="fill:#063579;fill-opacity:1;fill-rule:nonzero;stroke:none"
         id="path246"
         inkscape:connector-curvature="0" /></g><g
       id="g248"
       transform="translate(136.8607,449.7913)"
       style="fill-opacity:1;fill:#063579"><path
         d="M 0,0 V 12.569 H 7.783 V 10.911 H 1.999 V 7.283 H 6.785 V 5.627 H 1.999 V 1.656 H 7.942 V 0 Z"
         style="fill:#063579;fill-opacity:1;fill-rule:nonzero;stroke:none"
         id="path250"
         inkscape:connector-curvature="0" /></g><g
       id="g252"
       transform="translate(158.265,449.6326)"
       style="fill-opacity:1;fill:#063579"><path
         d="m 0,0 -7.1,9.072 c -0.421,0.552 -0.578,0.814 -0.657,1.157 V 0.159 h -1.841 v 12.568 h 1.999 L -0.5,3.788 C -0.29,3.498 -0.053,3.024 0,2.631 V 12.727 H 1.813 V 0 Z"
         style="fill:#063579;fill-opacity:1;fill-rule:nonzero;stroke:none"
         id="path254"
         inkscape:connector-curvature="0" /></g><g
       id="g256"
       transform="translate(172.2534,459.8621)"
       style="fill-opacity:1;fill:#063579"><path
         d="m 0,0 c -0.657,0.447 -0.947,0.578 -1.578,0.763 -0.657,0.21 -1.209,0.262 -1.762,0.262 -1.604,0 -2.577,-0.578 -2.577,-1.551 0,-0.262 0.054,-0.5 0.159,-0.657 0.367,-0.552 0.788,-0.789 3.234,-1.972 2.366,-1.157 3.128,-2.025 3.128,-3.576 0,-2.236 -1.734,-3.576 -4.575,-3.576 -0.945,0 -1.841,0.131 -2.577,0.395 -0.525,0.21 -0.894,0.394 -1.787,0.945 l 0.893,1.71 c 0.789,-0.579 1.132,-0.789 1.63,-1 0.632,-0.262 1.369,-0.42 2.078,-0.42 1.473,0 2.34,0.631 2.34,1.682 0,0.842 -0.421,1.394 -1.419,1.867 l -2.288,1.105 c -1.92,0.92 -2.788,1.972 -2.788,3.312 0,2.077 1.789,3.419 4.575,3.419 0.816,0 1.63,-0.105 2.341,-0.315 0.578,-0.158 0.894,-0.316 1.682,-0.737 z"
         style="fill:#063579;fill-opacity:1;fill-rule:nonzero;stroke:none"
         id="path258"
         inkscape:connector-curvature="0" /></g><path
       d="m 117.385,439.057 h 1.637 v -7.443 h -1.637 z"
       style="fill:#bbb2a7;fill-opacity:1;fill-rule:nonzero;stroke:none"
       id="path260"
       inkscape:connector-curvature="0" /><g
       id="g262"
       transform="translate(122.3466,437.003)"
       style="fill:#bbb2a7;fill-opacity:1"><path
         d="M 0,0 H 1.084 V -0.99 H 0 v -2.669 c 0,-0.5 0.125,-0.626 0.625,-0.626 0.167,0 0.324,0.011 0.459,0.042 V -5.4 c -0.25,-0.042 -0.573,-0.052 -0.865,-0.052 -0.917,0 -1.7,0.198 -1.7,1.282 v 3.18 H -2.377 V 0 h 0.896 V 1.616 H 0 Z"
         style="fill:#bbb2a7;fill-opacity:1;fill-rule:nonzero;stroke:none"
         id="path264"
         inkscape:connector-curvature="0" /></g><g
       id="g266"
       transform="translate(124.4516,439.0566)"
       style="fill:#bbb2a7;fill-opacity:1"><path
         d="M 0,0 H 1.481 V -1.595 C 1.512,-2.512 0.865,-3.232 0,-3.346 v 0.688 c 0.532,0.177 0.688,0.542 0.688,1.053 H 0 Z"
         style="fill:#bbb2a7;fill-opacity:1;fill-rule:nonzero;stroke:none"
         id="path268"
         inkscape:connector-curvature="0" /></g><g
       id="g270"
       transform="translate(128.5168,433.3648)"
       style="fill:#bbb2a7;fill-opacity:1"><path
         d="m 0,0 c 0,-0.636 0.563,-0.907 1.136,-0.907 0.418,0 0.97,0.167 0.97,0.688 0,0.448 -0.626,0.615 -1.679,0.834 -0.865,0.198 -1.709,0.479 -1.709,1.439 0,1.376 1.188,1.73 2.346,1.73 1.167,0 2.262,-0.396 2.376,-1.72 H 2.033 c -0.042,0.573 -0.479,0.73 -1.011,0.73 -0.334,0 -0.824,-0.052 -0.824,-0.5 0,-0.532 0.845,-0.605 1.679,-0.803 0.865,-0.198 1.709,-0.511 1.709,-1.512 0,-1.418 -1.24,-1.876 -2.46,-1.876 -1.251,0 -2.481,0.469 -2.533,1.897 z"
         style="fill:#bbb2a7;fill-opacity:1;fill-rule:nonzero;stroke:none"
         id="path272"
         inkscape:connector-curvature="0" /></g><g
       id="g274"
       transform="translate(139.5549,434.2511)"
       style="fill:#bbb2a7;fill-opacity:1"><path
         d="m 0,0 c -0.25,-0.219 -0.771,-0.229 -1.23,-0.313 -0.459,-0.083 -0.876,-0.25 -0.876,-0.792 0,-0.542 0.428,-0.688 0.907,-0.688 1.157,0 1.199,0.907 1.199,1.24 z m -3.419,1.094 c 0.083,1.377 1.324,1.804 2.533,1.804 1.074,0 2.366,-0.24 2.366,-1.532 v -2.805 c 0,-0.489 0.052,-0.98 0.188,-1.198 H 0.167 c -0.052,0.166 -0.094,0.343 -0.105,0.521 -0.469,-0.49 -1.146,-0.667 -1.813,-0.667 -1.032,0 -1.835,0.51 -1.835,1.615 0.021,2.45 3.648,1.137 3.586,2.346 0,0.625 -0.438,0.73 -0.959,0.73 -0.573,0 -0.928,-0.23 -0.98,-0.814 z"
         style="fill:#bbb2a7;fill-opacity:1;fill-rule:nonzero;stroke:none"
         id="path276"
         inkscape:connector-curvature="0" /></g><path
       d="m 142.389,439.057 h 1.48 v -7.443 h -1.48 z"
       style="fill:#bbb2a7;fill-opacity:1;fill-rule:nonzero;stroke:none"
       id="path278"
       inkscape:connector-curvature="0" /><path
       d="m 145.245,439.057 h 1.48 v -7.443 h -1.48 z"
       style="fill:#bbb2a7;fill-opacity:1;fill-rule:nonzero;stroke:none"
       id="path280"
       inkscape:connector-curvature="0" /><g
       id="g282"
       transform="translate(154.4803,434.2511)"
       style="fill:#bbb2a7;fill-opacity:1"><path
         d="m 0,0 c -0.25,-0.219 -0.771,-0.229 -1.23,-0.313 -0.459,-0.083 -0.876,-0.25 -0.876,-0.792 0,-0.542 0.428,-0.688 0.907,-0.688 1.157,0 1.199,0.907 1.199,1.24 z m -3.419,1.094 c 0.083,1.377 1.324,1.804 2.533,1.804 1.074,0 2.366,-0.24 2.366,-1.532 v -2.805 c 0,-0.489 0.052,-0.98 0.188,-1.198 H 0.167 c -0.052,0.166 -0.094,0.343 -0.105,0.521 -0.469,-0.49 -1.146,-0.667 -1.813,-0.667 -1.032,0 -1.835,0.51 -1.835,1.615 0.021,2.45 3.648,1.137 3.586,2.346 0,0.625 -0.438,0.73 -0.959,0.73 -0.573,0 -0.928,-0.23 -0.98,-0.814 z"
         style="fill:#bbb2a7;fill-opacity:1;fill-rule:nonzero;stroke:none"
         id="path284"
         inkscape:connector-curvature="0" /></g><g
       id="g286"
       transform="translate(159.9627,436.0335)"
       style="fill:#bbb2a7;fill-opacity:1"><path
         d="m 0,0 c -0.876,0 -1.261,-0.813 -1.261,-1.73 0,-0.897 0.385,-1.72 1.261,-1.72 0.876,0 1.261,0.823 1.261,1.72 C 1.261,-0.813 0.876,0 0,0 m -2.69,3.023 h 1.481 v -2.71 h 0.021 c 0.365,0.552 1.032,0.803 1.699,0.803 1.074,0 2.231,-0.866 2.231,-2.836 0,-1.97 -1.157,-2.846 -2.231,-2.846 -0.793,0 -1.449,0.24 -1.772,0.834 H -1.282 V -4.42 H -2.69 Z"
         style="fill:#bbb2a7;fill-opacity:1;fill-rule:nonzero;stroke:none"
         id="path288"
         inkscape:connector-curvature="0" /></g><g
       id="g290"
       transform="translate(166.4248,432.5831)"
       style="fill:#bbb2a7;fill-opacity:1"><path
         d="M 0,0 C 1.011,0 1.313,0.855 1.313,1.72 1.313,2.585 1.011,3.45 0,3.45 -1.001,3.45 -1.303,2.585 -1.303,1.72 -1.303,0.855 -1.001,0 0,0 M 0,4.566 C 1.699,4.566 2.794,3.44 2.794,1.72 2.794,0.01 1.699,-1.116 0,-1.116 c -1.689,0 -2.783,1.126 -2.783,2.836 0,1.72 1.094,2.846 2.783,2.846"
         style="fill:#bbb2a7;fill-opacity:1;fill-rule:nonzero;stroke:none"
         id="path292"
         inkscape:connector-curvature="0" /></g><g
       id="g294"
       transform="translate(175.3992,431.6136)"
       style="fill:#bbb2a7;fill-opacity:1"><path
         d="m 0,0 h -1.407 v 0.75 h -0.032 c -0.375,-0.615 -1.021,-0.896 -1.647,-0.896 -1.574,0 -1.97,0.886 -1.97,2.221 v 3.314 h 1.48 V 2.345 c 0,-0.886 0.251,-1.323 0.949,-1.323 0.803,0 1.146,0.448 1.146,1.542 V 5.389 H 0 Z"
         style="fill:#bbb2a7;fill-opacity:1;fill-rule:nonzero;stroke:none"
         id="path296"
         inkscape:connector-curvature="0" /></g><g
       id="g298"
       transform="translate(178.5671,437.003)"
       style="fill:#bbb2a7;fill-opacity:1"><path
         d="M 0,0 H 1.084 V -0.99 H 0 v -2.669 c 0,-0.5 0.125,-0.626 0.626,-0.626 0.167,0 0.323,0.011 0.458,0.042 V -5.4 c -0.25,-0.042 -0.573,-0.052 -0.865,-0.052 -0.917,0 -1.699,0.198 -1.699,1.282 v 3.18 H -2.377 V 0 H -1.48 V 1.616 H 0 Z"
         style="fill:#bbb2a7;fill-opacity:1;fill-rule:nonzero;stroke:none"
         id="path300"
         inkscape:connector-curvature="0" /></g><g
       id="g302"
       transform="translate(187.5938,434.2926)"
       style="fill:#bbb2a7;fill-opacity:1"><path
         d="m 0,0 c 0,0.865 -0.344,1.741 -1.293,1.741 -0.969,0 -1.282,-0.865 -1.282,-1.741 0,-0.875 0.334,-1.709 1.293,-1.709 C -0.313,-1.709 0,-0.875 0,0 m -4.003,2.711 h 1.407 V 2.022 h 0.021 c 0.365,0.584 0.938,0.834 1.605,0.834 1.689,0 2.45,-1.365 2.45,-2.897 0,-1.439 -0.782,-2.784 -2.366,-2.784 -0.657,0 -1.251,0.282 -1.616,0.813 h -0.021 v -2.565 h -1.48 z"
         style="fill:#bbb2a7;fill-opacity:1;fill-rule:nonzero;stroke:none"
         id="path304"
         inkscape:connector-curvature="0" /></g><g
       id="g306"
       transform="translate(193.7534,434.8868)"
       style="fill:#bbb2a7;fill-opacity:1"><path
         d="m 0,0 c -0.136,0.751 -0.458,1.147 -1.178,1.147 -0.959,0 -1.199,-0.73 -1.23,-1.147 z m -2.408,-0.938 c 0.042,-0.949 0.49,-1.366 1.324,-1.366 0.594,0 1.073,0.365 1.167,0.699 H 1.386 C 0.97,-2.887 0.083,-3.419 -1.136,-3.419 c -1.699,0 -2.752,1.168 -2.752,2.835 0,1.616 1.115,2.846 2.752,2.846 1.834,0 2.731,-1.542 2.616,-3.2 z"
         style="fill:#bbb2a7;fill-opacity:1;fill-rule:nonzero;stroke:none"
         id="path308"
         inkscape:connector-curvature="0" /></g><g
       id="g310"
       transform="translate(196.2751,437.003)"
       style="fill:#bbb2a7;fill-opacity:1"><path
         d="m 0,0 h 1.407 v -1.001 h 0.021 c 0.281,0.678 0.98,1.147 1.72,1.147 0.115,0 0.219,-0.021 0.323,-0.052 V -1.282 C 3.336,-1.251 3.117,-1.23 2.94,-1.23 1.845,-1.23 1.48,-2.001 1.48,-2.96 V -5.389 H 0 Z"
         style="fill:#bbb2a7;fill-opacity:1;fill-rule:nonzero;stroke:none"
         id="path312"
         inkscape:connector-curvature="0" /></g><g
       id="g314"
       transform="translate(201.6432,433.3648)"
       style="fill:#bbb2a7;fill-opacity:1"><path
         d="m 0,0 c 0,-0.636 0.563,-0.907 1.136,-0.907 0.417,0 0.97,0.167 0.97,0.688 0,0.448 -0.626,0.615 -1.679,0.834 -0.865,0.198 -1.709,0.479 -1.709,1.439 0,1.376 1.188,1.73 2.345,1.73 1.168,0 2.262,-0.396 2.377,-1.72 H 2.033 c -0.042,0.573 -0.48,0.73 -1.011,0.73 -0.334,0 -0.824,-0.052 -0.824,-0.5 0,-0.532 0.844,-0.605 1.679,-0.803 0.865,-0.198 1.709,-0.511 1.709,-1.512 0,-1.418 -1.241,-1.876 -2.46,-1.876 -1.251,0 -2.481,0.469 -2.533,1.897 z"
         style="fill:#bbb2a7;fill-opacity:1;fill-rule:nonzero;stroke:none"
         id="path316"
         inkscape:connector-curvature="0" /></g><g
       id="g318"
       transform="translate(208.8766,432.5831)"
       style="fill:#bbb2a7;fill-opacity:1"><path
         d="M 0,0 C 1.011,0 1.314,0.855 1.314,1.72 1.314,2.585 1.011,3.45 0,3.45 -1.001,3.45 -1.303,2.585 -1.303,1.72 -1.303,0.855 -1.001,0 0,0 M 0,4.566 C 1.699,4.566 2.794,3.44 2.794,1.72 2.794,0.01 1.699,-1.116 0,-1.116 c -1.689,0 -2.783,1.126 -2.783,2.836 0,1.72 1.094,2.846 2.783,2.846"
         style="fill:#bbb2a7;fill-opacity:1;fill-rule:nonzero;stroke:none"
         id="path320"
         inkscape:connector-curvature="0" /></g><g
       id="g322"
       transform="translate(212.7953,437.003)"
       style="fill:#bbb2a7;fill-opacity:1"><path
         d="m 0,0 h 1.407 v -0.75 h 0.032 c 0.375,0.615 1.021,0.896 1.646,0.896 1.575,0 1.971,-0.886 1.971,-2.221 v -3.314 h -1.48 v 3.044 c 0,0.886 -0.251,1.323 -0.949,1.323 -0.803,0 -1.147,-0.448 -1.147,-1.542 V -5.389 H 0 Z"
         style="fill:#bbb2a7;fill-opacity:1;fill-rule:nonzero;stroke:none"
         id="path324"
         inkscape:connector-curvature="0" /></g><g
       id="g326"
       transform="translate(222.4994,434.2511)"
       style="fill:#bbb2a7;fill-opacity:1"><path
         d="m 0,0 c -0.25,-0.219 -0.771,-0.229 -1.23,-0.313 -0.459,-0.083 -0.876,-0.25 -0.876,-0.792 0,-0.542 0.427,-0.688 0.907,-0.688 1.157,0 1.199,0.907 1.199,1.24 z m -3.42,1.094 c 0.084,1.377 1.325,1.804 2.534,1.804 1.073,0 2.366,-0.24 2.366,-1.532 v -2.805 c 0,-0.489 0.052,-0.98 0.188,-1.198 H 0.167 c -0.053,0.166 -0.094,0.343 -0.105,0.521 -0.469,-0.49 -1.146,-0.667 -1.814,-0.667 -1.031,0 -1.834,0.51 -1.834,1.615 0.021,2.45 3.648,1.137 3.586,2.346 0,0.625 -0.438,0.73 -0.959,0.73 -0.574,0 -0.928,-0.23 -0.98,-0.814 z"
         style="fill:#bbb2a7;fill-opacity:1;fill-rule:nonzero;stroke:none"
         id="path328"
         inkscape:connector-curvature="0" /></g><path
       d="m 225.334,439.057 h 1.481 v -7.443 h -1.481 z"
       style="fill:#bbb2a7;fill-opacity:1;fill-rule:nonzero;stroke:none"
       id="path330"
       inkscape:connector-curvature="0" /><path
       d="m 228.19,437.003 h 1.481 v -5.389 h -1.481 z m 1.48,0.834 h -1.481 v 1.22 h 1.481 z"
       style="fill:#bbb2a7;fill-opacity:1;fill-rule:nonzero;stroke:none"
       id="path332"
       inkscape:connector-curvature="0" /><g
       id="g334"
       transform="translate(232.8801,437.003)"
       style="fill:#bbb2a7;fill-opacity:1"><path
         d="M 0,0 H 1.084 V -0.99 H 0 v -2.669 c 0,-0.5 0.125,-0.626 0.626,-0.626 0.167,0 0.323,0.011 0.458,0.042 V -5.4 c -0.25,-0.042 -0.573,-0.052 -0.865,-0.052 -0.917,0 -1.699,0.198 -1.699,1.282 v 3.18 H -2.377 V 0 H -1.48 V 1.616 H 0 Z"
         style="fill:#bbb2a7;fill-opacity:1;fill-rule:nonzero;stroke:none"
         id="path336"
         inkscape:connector-curvature="0" /></g><g
       id="g338"
       transform="translate(237.4974,430.9361)"
       style="fill:#bbb2a7;fill-opacity:1"><path
         d="m 0,0 c -0.323,-0.865 -0.844,-1.22 -1.856,-1.22 -0.302,0 -0.604,0.021 -0.906,0.052 v 1.22 C -2.481,0.021 -2.189,-0.011 -1.897,0 c 0.386,0.041 0.573,0.344 0.573,0.677 0,0.115 -0.021,0.23 -0.062,0.334 l -1.898,5.056 h 1.585 l 1.219,-3.69 h 0.021 l 1.178,3.69 h 1.533 z"
         style="fill:#bbb2a7;fill-opacity:1;fill-rule:nonzero;stroke:none"
         id="path340"
         inkscape:connector-curvature="0" /></g></g></svg>