<svg xmlns="http://www.w3.org/2000/svg" xml:space="preserve" width="208.94" height="56.278" viewBox="0 0 208.94 56.278"><g style="fill:#bbb2a7;fill-opacity:1"><path d="m0 0-8.899.001c0 .026.025.181.02.183l1.286 8.003 1.337 1.511-1.35-8.547c-.004-.026-.007-.065-.01-.089h.665v-.014H.144zm-3.607 18.188.085.347c.255 1.165 1.441 3.769 2.676 4.303.615.266 1.028.122 1.316-.544.811-1.874-1.41-5.631-4.638-9.264-.037-.041-.342-.371-.339-.33.278 1.604.489 3.651.9 5.488M-6.099 2.394l1.453 9.021s.428.521.517.61c2.327 2.421 6.304 7.635 5.02 10.604-.36.831-.915.975-1.817.746-1.721-.437-2.579-1.82-3.292-3.292.031.063-.258-.622-.379-1.001-.748-2.341-.921-5.035-1.346-7.37a19.78 19.78 0 0 1-.075-.464L-7.34 9.754l1.105 6.883h-2.658l-.059-.302s.494.016.856-.03a.437.437 0 0 0 .39-.34c.018-.067-.004-.202-.004-.202l-1.262-7.854-5.064-5.721L-14.3.607l5.076 5.735-1.241-7.684 11.639-.004.511 3.74z" style="fill:#bbb2a7;fill-opacity:1;fill-rule:evenodd;stroke:none" transform="matrix(1.33333 0 0 -1.33333 122.677 31.297)"/></g><g style="fill-opacity:1;fill:#063579"><path d="M0 0v12.569h1.998V1.656h5.941V0Z" style="fill:#063579;fill-opacity:1;fill-rule:nonzero;stroke:none" transform="matrix(1.33333 0 0 -1.33333 131.673 29.511)"/></g><g style="fill-opacity:1;fill:#063579"><path d="M0 0c0 3.76-2.946 6.521-6.969 6.521-4.049 0-6.967-2.761-6.967-6.521 0-3.787 2.918-6.521 6.967-6.521C-2.946-6.521 0-3.787 0 0m-2.129 0c0-2.762-2.077-4.865-4.84-4.865-2.76 0-4.863 2.103-4.863 4.865 0 2.76 2.103 4.837 4.863 4.837 2.763 0 4.84-2.077 4.84-4.837" style="fill:#063579;fill-opacity:1;fill-rule:nonzero;stroke:none" transform="matrix(1.33333 0 0 -1.33333 162.488 21.132)"/></g><g style="fill-opacity:1;fill:#063579"><path d="M0 0v12.569h7.782v-1.658H1.998V7.283h4.785V5.627H1.998V1.656H7.94V0Z" style="fill:#063579;fill-opacity:1;fill-rule:nonzero;stroke:none" transform="matrix(1.33333 0 0 -1.33333 167.606 29.511)"/></g><g style="fill-opacity:1;fill:#063579"><path d="M0 0v-3.813h4.784v-1.656H0v-5.442h-1.999V1.657h7.783V0Z" style="fill:#063579;fill-opacity:1;fill-rule:nonzero;stroke:none" transform="matrix(1.33333 0 0 -1.33333 186.013 14.963)"/></g><g style="fill-opacity:1;fill:#063579"><path d="M0 0v-3.813h4.785v-1.656H0v-5.442h-1.998V1.657h7.783V0Z" style="fill:#063579;fill-opacity:1;fill-rule:nonzero;stroke:none" transform="matrix(1.33333 0 0 -1.33333 201.227 14.963)"/></g><g style="fill-opacity:1;fill:#063579"><path d="M0 0v12.569h1.998V1.656h5.943V0Z" style="fill:#063579;fill-opacity:1;fill-rule:nonzero;stroke:none" transform="matrix(1.33333 0 0 -1.33333 0 29.511)"/></g><g style="fill-opacity:1;fill:#063579"><path d="M0 0c0 3.76-2.945 6.521-6.968 6.521-4.049 0-6.968-2.761-6.968-6.521 0-3.787 2.919-6.521 6.968-6.521C-2.945-6.521 0-3.787 0 0m-2.13 0c0-2.762-2.077-4.865-4.838-4.865S-11.832-2.762-11.832 0c0 2.76 2.103 4.837 4.864 4.837C-4.207 4.837-2.13 2.76-2.13 0" style="fill:#063579;fill-opacity:1;fill-rule:nonzero;stroke:none" transform="matrix(1.33333 0 0 -1.33333 30.817 21.132)"/></g><g style="fill-opacity:1;fill:#063579"><path d="M0 0v-5.627h-1.972V0l-4.47 6.942h2.314l3.312-5.129 3.314 5.129h2.313z" style="fill:#063579;fill-opacity:1;fill-rule:nonzero;stroke:none" transform="matrix(1.33333 0 0 -1.33333 41.3 22.009)"/></g><g style="fill-opacity:1;fill:#063579"><path d="M0 0v12.569h7.783v-1.658H1.999V7.283h4.786V5.627H1.999V1.656h5.943V0Z" style="fill:#063579;fill-opacity:1;fill-rule:nonzero;stroke:none" transform="matrix(1.33333 0 0 -1.33333 51.676 29.511)"/></g><g style="fill-opacity:1;fill:#063579"><path d="m0 0-7.1 9.072c-.421.552-.578.814-.657 1.157V.159h-1.841v12.568h1.999L-.5 3.788c.21-.29.447-.764.5-1.157v10.096h1.813V0Z" style="fill:#063579;fill-opacity:1;fill-rule:nonzero;stroke:none" transform="matrix(1.33333 0 0 -1.33333 80.215 29.723)"/></g><g style="fill-opacity:1;fill:#063579"><path d="M0 0c-.657.447-.947.578-1.578.763a5.516 5.516 0 0 1-1.762.262c-1.604 0-2.577-.578-2.577-1.551 0-.262.054-.5.159-.657.367-.552.788-.789 3.234-1.972C-.158-4.312.604-5.18.604-6.731c0-2.236-1.734-3.576-4.575-3.576-.945 0-1.841.131-2.577.395-.525.21-.894.394-1.787.945l.893 1.71c.789-.579 1.132-.789 1.63-1a5.557 5.557 0 0 1 2.078-.42c1.473 0 2.34.631 2.34 1.682 0 .842-.421 1.394-1.419 1.867l-2.288 1.105c-1.92.92-2.788 1.972-2.788 3.312 0 2.077 1.789 3.419 4.575 3.419a8.41 8.41 0 0 0 2.341-.315c.578-.158.894-.316 1.682-.737z" style="fill:#063579;fill-opacity:1;fill-rule:nonzero;stroke:none" transform="matrix(1.33333 0 0 -1.33333 98.866 16.084)"/></g><path d="M117.385 439.057h1.637v-7.443h-1.637z" style="fill:#bbb2a7;fill-opacity:1;fill-rule:nonzero;stroke:none" transform="matrix(1.33333 0 0 -1.33333 -130.805 629.233)"/><g style="fill:#bbb2a7;fill-opacity:1"><path d="M0 0h1.084v-.99H0v-2.669c0-.5.125-.626.625-.626.167 0 .324.011.459.042V-5.4a5.634 5.634 0 0 0-.865-.052c-.917 0-1.7.198-1.7 1.282v3.18h-.896V0h.896v1.616H0Z" style="fill:#bbb2a7;fill-opacity:1;fill-rule:nonzero;stroke:none" transform="matrix(1.33333 0 0 -1.33333 32.323 46.562)"/></g><g style="fill:#bbb2a7;fill-opacity:1"><path d="M0 0h1.481v-1.595A1.683 1.683 0 0 0 0-3.346v.688c.532.177.688.542.688 1.053H0Z" style="fill:#bbb2a7;fill-opacity:1;fill-rule:nonzero;stroke:none" transform="matrix(1.33333 0 0 -1.33333 35.13 43.824)"/></g><g style="fill:#bbb2a7;fill-opacity:1"><path d="M0 0c0-.636.563-.907 1.136-.907.418 0 .97.167.97.688 0 .448-.626.615-1.679.834-.865.198-1.709.479-1.709 1.439 0 1.376 1.188 1.73 2.346 1.73 1.167 0 2.262-.396 2.376-1.72H2.033c-.042.573-.479.73-1.011.73-.334 0-.824-.052-.824-.5 0-.532.845-.605 1.679-.803.865-.198 1.709-.511 1.709-1.512 0-1.418-1.24-1.876-2.46-1.876-1.251 0-2.481.469-2.533 1.897z" style="fill:#bbb2a7;fill-opacity:1;fill-rule:nonzero;stroke:none" transform="matrix(1.33333 0 0 -1.33333 40.55 51.413)"/></g><g style="fill:#bbb2a7;fill-opacity:1"><path d="M0 0c-.25-.219-.771-.229-1.23-.313-.459-.083-.876-.25-.876-.792s.428-.688.907-.688C-.042-1.793 0-.886 0-.553zm-3.419 1.094c.083 1.377 1.324 1.804 2.533 1.804 1.074 0 2.366-.24 2.366-1.532v-2.805c0-.489.052-.98.188-1.198H.167a2.22 2.22 0 0 0-.105.521c-.469-.49-1.146-.667-1.813-.667-1.032 0-1.835.51-1.835 1.615C-3.565 1.282.062-.031 0 1.178c0 .625-.438.73-.959.73-.573 0-.928-.23-.98-.814z" style="fill:#bbb2a7;fill-opacity:1;fill-rule:nonzero;stroke:none" transform="matrix(1.33333 0 0 -1.33333 55.268 50.232)"/></g><path d="M142.389 439.057h1.48v-7.443h-1.48zM145.245 439.057h1.48v-7.443h-1.48z" style="fill:#bbb2a7;fill-opacity:1;fill-rule:nonzero;stroke:none" transform="matrix(1.33333 0 0 -1.33333 -130.805 629.233)"/><g style="fill:#bbb2a7;fill-opacity:1"><path d="M0 0c-.25-.219-.771-.229-1.23-.313-.459-.083-.876-.25-.876-.792s.428-.688.907-.688C-.042-1.793 0-.886 0-.553zm-3.419 1.094c.083 1.377 1.324 1.804 2.533 1.804 1.074 0 2.366-.24 2.366-1.532v-2.805c0-.489.052-.98.188-1.198H.167a2.22 2.22 0 0 0-.105.521c-.469-.49-1.146-.667-1.813-.667-1.032 0-1.835.51-1.835 1.615C-3.565 1.282.062-.031 0 1.178c0 .625-.438.73-.959.73-.573 0-.928-.23-.98-.814z" style="fill:#bbb2a7;fill-opacity:1;fill-rule:nonzero;stroke:none" transform="matrix(1.33333 0 0 -1.33333 75.168 50.232)"/></g><g style="fill:#bbb2a7;fill-opacity:1"><path d="M0 0c-.876 0-1.261-.813-1.261-1.73 0-.897.385-1.72 1.261-1.72.876 0 1.261.823 1.261 1.72C1.261-.813.876 0 0 0m-2.69 3.023h1.481V.313h.021c.365.552 1.032.803 1.699.803 1.074 0 2.231-.866 2.231-2.836 0-1.97-1.157-2.846-2.231-2.846-.793 0-1.449.24-1.772.834h-.021v-.688H-2.69Z" style="fill:#bbb2a7;fill-opacity:1;fill-rule:nonzero;stroke:none" transform="matrix(1.33333 0 0 -1.33333 82.478 47.855)"/></g><g style="fill:#bbb2a7;fill-opacity:1"><path d="M0 0c1.011 0 1.313.855 1.313 1.72S1.011 3.45 0 3.45c-1.001 0-1.303-.865-1.303-1.73S-1.001 0 0 0m0 4.566c1.699 0 2.794-1.126 2.794-2.846C2.794.01 1.699-1.116 0-1.116c-1.689 0-2.783 1.126-2.783 2.836 0 1.72 1.094 2.846 2.783 2.846" style="fill:#bbb2a7;fill-opacity:1;fill-rule:nonzero;stroke:none" transform="matrix(1.33333 0 0 -1.33333 91.094 52.456)"/></g><g style="fill:#bbb2a7;fill-opacity:1"><path d="M0 0h-1.407v.75h-.032C-1.814.135-2.46-.146-3.086-.146c-1.574 0-1.97.886-1.97 2.221v3.314h1.48V2.345c0-.886.251-1.323.949-1.323.803 0 1.146.448 1.146 1.542v2.825H0Z" style="fill:#bbb2a7;fill-opacity:1;fill-rule:nonzero;stroke:none" transform="matrix(1.33333 0 0 -1.33333 103.06 53.748)"/></g><g style="fill:#bbb2a7;fill-opacity:1"><path d="M0 0h1.084v-.99H0v-2.669c0-.5.125-.626.626-.626.167 0 .323.011.458.042V-5.4a5.634 5.634 0 0 0-.865-.052c-.917 0-1.699.198-1.699 1.282v3.18h-.897V0h.897v1.616H0Z" style="fill:#bbb2a7;fill-opacity:1;fill-rule:nonzero;stroke:none" transform="matrix(1.33333 0 0 -1.33333 107.284 46.562)"/></g><g style="fill:#bbb2a7;fill-opacity:1"><path d="M0 0c0 .865-.344 1.741-1.293 1.741-.969 0-1.282-.865-1.282-1.741 0-.875.334-1.709 1.293-1.709C-.313-1.709 0-.875 0 0m-4.003 2.711h1.407v-.689h.021c.365.584.938.834 1.605.834 1.689 0 2.45-1.365 2.45-2.897 0-1.439-.782-2.784-2.366-2.784-.657 0-1.251.282-1.616.813h-.021v-2.565h-1.48z" style="fill:#bbb2a7;fill-opacity:1;fill-rule:nonzero;stroke:none" transform="matrix(1.33333 0 0 -1.33333 119.32 50.176)"/></g><g style="fill:#bbb2a7;fill-opacity:1"><path d="M0 0c-.136.751-.458 1.147-1.178 1.147-.959 0-1.199-.73-1.23-1.147zm-2.408-.938c.042-.949.49-1.366 1.324-1.366.594 0 1.073.365 1.167.699h1.303C.97-2.887.083-3.419-1.136-3.419c-1.699 0-2.752 1.168-2.752 2.835 0 1.616 1.115 2.846 2.752 2.846 1.834 0 2.731-1.542 2.616-3.2z" style="fill:#bbb2a7;fill-opacity:1;fill-rule:nonzero;stroke:none" transform="matrix(1.33333 0 0 -1.33333 127.533 49.384)"/></g><g style="fill:#bbb2a7;fill-opacity:1"><path d="M0 0h1.407v-1.001h.021c.281.678.98 1.147 1.72 1.147.115 0 .219-.021.323-.052v-1.376a2.714 2.714 0 0 1-.531.052c-1.095 0-1.46-.771-1.46-1.73v-2.429H0Z" style="fill:#bbb2a7;fill-opacity:1;fill-rule:nonzero;stroke:none" transform="matrix(1.33333 0 0 -1.33333 130.895 46.562)"/></g><g style="fill:#bbb2a7;fill-opacity:1"><path d="M0 0c0-.636.563-.907 1.136-.907.417 0 .97.167.97.688 0 .448-.626.615-1.679.834-.865.198-1.709.479-1.709 1.439 0 1.376 1.188 1.73 2.345 1.73 1.168 0 2.262-.396 2.377-1.72H2.033c-.042.573-.48.73-1.011.73-.334 0-.824-.052-.824-.5 0-.532.844-.605 1.679-.803.865-.198 1.709-.511 1.709-1.512 0-1.418-1.241-1.876-2.46-1.876-1.251 0-2.481.469-2.533 1.897z" style="fill:#bbb2a7;fill-opacity:1;fill-rule:nonzero;stroke:none" transform="matrix(1.33333 0 0 -1.33333 138.052 51.413)"/></g><g style="fill:#bbb2a7;fill-opacity:1"><path d="M0 0c1.011 0 1.314.855 1.314 1.72S1.011 3.45 0 3.45c-1.001 0-1.303-.865-1.303-1.73S-1.001 0 0 0m0 4.566c1.699 0 2.794-1.126 2.794-2.846C2.794.01 1.699-1.116 0-1.116c-1.689 0-2.783 1.126-2.783 2.836 0 1.72 1.094 2.846 2.783 2.846" style="fill:#bbb2a7;fill-opacity:1;fill-rule:nonzero;stroke:none" transform="matrix(1.33333 0 0 -1.33333 147.697 52.456)"/></g><g style="fill:#bbb2a7;fill-opacity:1"><path d="M0 0h1.407v-.75h.032c.375.615 1.021.896 1.646.896 1.575 0 1.971-.886 1.971-2.221v-3.314h-1.48v3.044c0 .886-.251 1.323-.949 1.323-.803 0-1.147-.448-1.147-1.542v-2.825H0Z" style="fill:#bbb2a7;fill-opacity:1;fill-rule:nonzero;stroke:none" transform="matrix(1.33333 0 0 -1.33333 152.922 46.562)"/></g><g style="fill:#bbb2a7;fill-opacity:1"><path d="M0 0c-.25-.219-.771-.229-1.23-.313-.459-.083-.876-.25-.876-.792s.427-.688.907-.688C-.042-1.793 0-.886 0-.553zm-3.42 1.094c.084 1.377 1.325 1.804 2.534 1.804 1.073 0 2.366-.24 2.366-1.532v-2.805c0-.489.052-.98.188-1.198H.167a2.17 2.17 0 0 0-.105.521c-.469-.49-1.146-.667-1.814-.667-1.031 0-1.834.51-1.834 1.615C-3.565 1.282.062-.031 0 1.178c0 .625-.438.73-.959.73-.574 0-.928-.23-.98-.814z" style="fill:#bbb2a7;fill-opacity:1;fill-rule:nonzero;stroke:none" transform="matrix(1.33333 0 0 -1.33333 165.86 50.232)"/></g><path d="M225.334 439.057h1.481v-7.443h-1.481zM228.19 437.003h1.481v-5.389h-1.481zm1.48.834h-1.481v1.22h1.481z" style="fill:#bbb2a7;fill-opacity:1;fill-rule:nonzero;stroke:none" transform="matrix(1.33333 0 0 -1.33333 -130.805 629.233)"/><g style="fill:#bbb2a7;fill-opacity:1"><path d="M0 0h1.084v-.99H0v-2.669c0-.5.125-.626.626-.626.167 0 .323.011.458.042V-5.4a5.634 5.634 0 0 0-.865-.052c-.917 0-1.699.198-1.699 1.282v3.18h-.897V0h.897v1.616H0Z" style="fill:#bbb2a7;fill-opacity:1;fill-rule:nonzero;stroke:none" transform="matrix(1.33333 0 0 -1.33333 179.701 46.562)"/></g><g style="fill:#bbb2a7;fill-opacity:1"><path d="M0 0c-.323-.865-.844-1.22-1.856-1.22-.302 0-.604.021-.906.052v1.22c.281-.031.573-.063.865-.052.386.041.573.344.573.677 0 .115-.021.23-.062.334l-1.898 5.056h1.585l1.219-3.69h.021l1.178 3.69h1.533z" style="fill:#bbb2a7;fill-opacity:1;fill-rule:nonzero;stroke:none" transform="matrix(1.33333 0 0 -1.33333 185.858 54.652)"/></g></svg>