<svg xmlns="http://www.w3.org/2000/svg" xml:space="preserve" width="340.158" height="90.738" viewBox="0 0 340.158 90.738"><defs><radialGradient fx="0" fy="0" cx="0" cy="0" r="1" gradientUnits="userSpaceOnUse" gradientTransform="scale(-560.557 560.557) rotate(-44.129 1.25 2.924)" spreadMethod="pad" id="b"><stop style="stop-opacity:1;stop-color:#66c76b" offset="0"/><stop style="stop-opacity:1;stop-color:#1a3576" offset=".734"/><stop style="stop-opacity:1;stop-color:#1a3576" offset="1"/></radialGradient><radialGradient fx="0" fy="0" cx="0" cy="0" r="1" gradientUnits="userSpaceOnUse" gradientTransform="scale(-560.557 560.557) rotate(-44.129 1.25 2.924)" spreadMethod="pad" id="d"><stop style="stop-opacity:1;stop-color:#66c76b" offset="0"/><stop style="stop-opacity:1;stop-color:#1a3576" offset=".734"/><stop style="stop-opacity:1;stop-color:#1a3576" offset="1"/></radialGradient><clipPath clipPathUnits="userSpaceOnUse" id="a"><path d="M669.711 680.578h78.598c33.906 0 61.492-27.582 61.492-61.488s-27.586-61.488-61.492-61.488H630.406c-12.258 0-22.187 9.929-22.187 22.179 0 12.258 9.929 22.188 22.187 22.188h117.903c9.445 0 17.125 7.683 17.125 17.121 0 9.437-7.68 17.121-17.125 17.121h-78.598c-33.906 0-61.492 27.574-61.492 61.48 0 33.907 27.586 61.493 61.492 61.493h117.906c12.246 0 22.184-9.934 22.184-22.184 0-12.25-9.938-22.187-22.184-22.187H669.711c-9.441 0-17.125-7.68-17.125-17.122 0-9.437 7.684-17.113 17.125-17.113zm198.156 76.914a22.172 22.172 0 0 0 24.168-4.804l142.645-142.645c9.47 31.254 14.61 64.395 14.61 98.742 0 187.926-152.352 340.265-340.278 340.265-187.922 0-340.266-152.339-340.266-340.265 0-34.344 5.137-67.48 14.598-98.734L525.98 752.688c8.657 8.656 22.715 8.656 31.372 0 8.664-8.668 8.664-22.711 0-31.375L438.016 601.969h103.652c12.25 0 22.184-9.93 22.184-22.188 0-12.25-9.934-22.179-22.184-22.179H404.176c55.683-112.047 171.234-189.09 304.836-189.09 136.406 0 254.011 80.304 308.268 196.183L898.535 683.441v-103.66c0-12.25-9.937-22.179-22.183-22.179-12.254 0-22.188 9.929-22.188 22.179V737a22.179 22.179 0 0 0 13.703 20.492z"/></clipPath><clipPath clipPathUnits="userSpaceOnUse" id="c"><path d="M669.711 680.578h78.598c33.906 0 61.492-27.582 61.492-61.488s-27.586-61.488-61.492-61.488H630.406c-12.258 0-22.187 9.929-22.187 22.179 0 12.258 9.929 22.188 22.187 22.188h117.903c9.445 0 17.125 7.683 17.125 17.121 0 9.437-7.68 17.121-17.125 17.121h-78.598c-33.906 0-61.492 27.574-61.492 61.48 0 33.907 27.586 61.493 61.492 61.493h117.906c12.246 0 22.184-9.934 22.184-22.184 0-12.25-9.938-22.187-22.184-22.187H669.711c-9.441 0-17.125-7.68-17.125-17.122 0-9.437 7.684-17.113 17.125-17.113zm198.156 76.914a22.172 22.172 0 0 0 24.168-4.804l142.645-142.645c9.47 31.254 14.61 64.395 14.61 98.742 0 187.926-152.352 340.265-340.278 340.265-187.922 0-340.266-152.339-340.266-340.265 0-34.344 5.137-67.48 14.598-98.734L525.98 752.688c8.657 8.656 22.715 8.656 31.372 0 8.664-8.668 8.664-22.711 0-31.375L438.016 601.969h103.652c12.25 0 22.184-9.93 22.184-22.188 0-12.25-9.934-22.179-22.184-22.179H404.176c55.683-112.047 171.234-189.09 304.836-189.09 136.406 0 254.011 80.304 308.268 196.183L898.535 683.441v-103.66c0-12.25-9.937-22.179-22.183-22.179-12.254 0-22.188 9.929-22.188 22.179V737a22.179 22.179 0 0 0 13.703 20.492z"/></clipPath></defs><path d="M1313.33 579.867h-62.64v100.586h-23.96V557.648h86.6v22.219M1456.31 610.004c0-20.719-10.94-33.094-29.26-33.094-19.42 0-31.01 12.375-31.01 33.094v70.277h-23.78v-70.277c0-33.395 21.43-54.961 54.61-54.961 15.68 0 28.89 4.789 38.19 13.859 9.83 9.582 15.03 23.801 15.03 41.102v70.277h-23.78v-70.277M1655.85 678.637l.09.125 1.11 1.691h-27.1l-30.19-45.027-30.04 44.816-.15.211h-27.11l1.11-1.691 40.97-59.012-42.09-60.633-.09-.125-.95-1.344h27.46l30.89 45.383 30.89-45.383h27.54l-1.03 1.344-42.36 60.758 41.05 58.887M1717.79 557.648h92.17v23.61h-68.39v26.512h65.96v22.394h-65.96v27.027h68.39v23.262h-92.17V557.648M1944.49 628.238l-37.72 51.836-.14.207h-27.2V557.473h23.96v87.558l37.91-51.855.15-.199h5.03l38.93 51.91v-87.414h23.96v122.808h-27.02l-37.86-52.043M2139.54 631.555h-34.66v27.027h34.66c14.75 0 18.66-9.465 18.66-14.469 0-5.726-3.24-12.558-18.66-12.558zm-34.66-21.176h34.66c9.35 0 22.31-5.641 22.31-16.215 0-13.437-18.58-14.121-22.31-14.121h-34.66zm62.1 10.84c9.68 4.742 15 13.011 15 23.418 0 22.761-15.47 35.816-42.44 35.816h-58.27V557.648h58.27c30.15 0 46.09 12.571 46.09 36.34 0 6.852-4.59 22.207-18.65 27.231M2348.06 618.02c-.35-19.868-10.87-41.11-39.35-41.11-28.37 0-39.02 21.145-39.55 40.938-.31 12.625 3.93 24.402 11.63 32.3 7.04 7.219 16.43 10.879 27.92 10.879 11.38 0 20.68-3.582 27.63-10.664 7.67-7.797 11.94-19.59 11.72-32.343zm5.53 47.414c-11.29 11.414-26.81 17.453-44.88 17.453-43.4 0-63.15-33.539-63.15-64.699 0-16.946 5.46-32.477 15.4-43.75 11.27-12.809 27.79-19.571 47.75-19.571 19.84 0 36.28 6.867 47.53 19.856 9.77 11.285 15.24 26.781 15.43 43.629.21 18.101-6.39 35.265-18.08 47.082M2544.55 610.004v70.277h-23.78v-70.277c0-20.719-10.94-33.094-29.27-33.094-19.41 0-31 12.375-31 33.094v70.277h-23.79v-70.277c0-33.395 21.44-54.961 54.62-54.961 15.68 0 28.88 4.789 38.19 13.859 9.83 9.582 15.03 23.801 15.03 41.102M2640.77 658.059h34.48c14.09 0 20.39-9.539 20.39-18.989 0-8.761-5.34-19-20.39-19h-34.48zm56.73-100.25.16-.161h29.96l-38.38 43.344c26.39 5.778 30.36 26.613 30.36 38.602 0 10.929-4 21.008-11.3 28.359-8.03 8.094-19.45 12.422-33.05 12.5-9.65 0-19.32.047-28.97.086-9.65.051-19.32.09-28.98.09h-.49V557.648h23.96v40.723h21.38l35.35-40.562M2892.46 576.957l.11.145v52.015h-53.19v-21.515h31.16V586.75c-8.48-6.738-16.33-9.492-27.02-9.492-30.56 0-41.45 20.789-41.45 40.234 0 26.149 17.06 44.406 41.45 44.406 11.13 0 22.87-4.621 30.65-12.046l.35-.336 14.61 14.961.34.355-.35.336c-12.27 12.105-28.46 18.762-45.6 18.762-20.18 0-37.02-7.012-48.68-20.285-10.45-11.879-16.2-28.278-16.2-46.153 0-30.277 17.04-62.625 64.88-62.625 20.21 0 35.76 7.02 48.94 22.09M1272.34 450.934c-15.13 1.796-25.21 4.859-25.21 13.972 0 9.125 8.95 14.797 23.34 14.797 12.68 0 23.11-6.324 26.87-12.574l.24-.399 18.09 9.293-.21.446c-7.43 15.125-23.21 23.125-45.65 23.125-11.67-.09-22.49-2.938-30.48-8.028-9.52-6.066-14.55-15.058-14.55-26.007 0-26.289 21.93-32.512 45.64-35.332 17.62-1.895 26.18-7.274 26.18-16.438 0-15.551-19.87-16.769-25.96-16.769-15.48 0-27.41 6.71-31.92 17.941l-.21.508-18.57-9.617-.39-.211.17-.411c7.81-19.242 24.36-28.589 50.59-28.589 13.71 0 25.48 3.05 34.05 8.789 9.67 6.5 14.77 16.289 14.77 28.359 0 27.574-22.49 34.152-46.79 37.145M1443.54 440.523c-3.68-4.046-8.95-6.187-15.23-6.187h-32.05v39.773h32.05c13.93 0 20.28-10.332 20.28-19.937 0-5.203-1.8-10.055-5.05-13.649zm-15.23 55.286c-9.04 0-18.08-.039-27.12-.079-9.04-.05-18.08-.089-27.12-.089h-.49V379.602h22.68v33.847h32.05c13.2 0 24.28 4.449 32.04 12.867 6.88 7.457 10.68 17.489 10.68 28.274 0 19.851-13.37 41.219-42.72 41.219M1585.83 422.5h-41.22l20.61 47.254zm-8.46 73.141h-24.3l-51.75-115.34-.3-.699h24.58l9.86 21.699h59.52l9.56-21.41.13-.289h24.76l-51.92 115.753-.14.286M1755.63 410.219l-.34-.348c-7.11-7.121-18.07-11.531-28.59-11.531-18.75 0-38.88 10.101-39.12 38.465-.1 11.156 3.91 21.644 10.98 28.773 6.92 6.977 16.65 10.672 28.14 10.672 10.64 0 20.38-3.812 27.44-10.715l.35-.332 14.8 14.305.36.359-.36.352c-11.75 11.601-26.48 17.722-42.59 17.722-18.01 0-33.34-5.824-44.31-16.855-11-11.063-17.26-27.203-17.16-44.281.09-16.075 5.29-30.703 14.65-41.215 10.85-12.18 27.04-18.621 46.82-18.621 17.39 0 32.64 5.961 44.07 17.25l.35.34-15.14 15.312-.35.348M1816.74 379.602h87.11v22.347h-64.59v24.992h62.3v21.207h-62.3v25.469h64.59v22.024h-87.11V379.602M2113.69 422.5h-41.22l20.61 47.254zm-8.46 73.141h-24.3l-51.75-115.34-.31-.699h24.59l9.85 21.699h59.53l9.55-21.41.14-.289h24.76l-51.92 115.753-.14.286M2251.94 426.781h29.43v-19.652c-8.01-6.359-15.41-8.949-25.49-8.949-18.91 0-39.12 9.968-39.12 37.968 0 24.68 16.1 41.911 39.12 41.911 10.51 0 21.6-4.356 28.92-11.368l.36-.336 13.82 14.153.34.355-.35.336c-11.59 11.442-26.9 17.731-43.09 17.731-42.36 0-61.31-31.535-61.31-62.782 0-28.609 16.11-59.179 61.31-59.179 19.1 0 33.78 6.64 46.24 20.871l.11.148v49.172h-50.29v-20.379M2360.75 379.602h87.11v22.347h-64.59v24.992h62.3v21.207h-62.3v25.469h64.59v22.024h-87.11V379.602M2750.66 410.219l-.35-.348c-7.11-7.121-18.06-11.531-28.58-11.531-18.74 0-38.86 10.101-39.12 38.465-.1 11.156 3.91 21.644 10.98 28.773 6.91 6.977 16.64 10.672 28.14 10.672 10.63 0 20.38-3.812 27.43-10.715l.35-.332 14.81 14.305.35.359-.35.352c-11.76 11.601-26.49 17.722-42.59 17.722-18.02 0-33.35-5.824-44.31-16.855-11-11.063-17.26-27.203-17.17-44.281.09-16.075 5.3-30.703 14.66-41.215 10.84-12.18 27.03-18.621 46.82-18.621 17.39 0 32.62 5.961 44.07 17.25l.34.34-15.13 15.312-.35.348M2891.87 495.641l-30.29-47.059-28.83 46.832-.15.227h-27.65l1.07-1.621 44.21-66.567v-47.851h22.68v47.843l45.78 66.438.08.129 1.16 1.629h-28.06" style="fill:#1a3476;fill-opacity:1;fill-rule:nonzero;stroke:none" transform="matrix(.13333 0 0 -.13333 -49.166 139.873)"/><g clip-path="url(#a)" transform="matrix(.13333 0 0 -.13333 -49.166 139.873)"><path d="M669.711 680.578h78.598c33.906 0 61.492-27.582 61.492-61.488s-27.586-61.488-61.492-61.488H630.406c-12.258 0-22.187 9.929-22.187 22.179 0 12.258 9.929 22.188 22.187 22.188h117.903c9.445 0 17.125 7.683 17.125 17.121 0 9.437-7.68 17.121-17.125 17.121h-78.598c-33.906 0-61.492 27.574-61.492 61.48 0 33.907 27.586 61.493 61.492 61.493h117.906c12.246 0 22.184-9.934 22.184-22.184 0-12.25-9.938-22.187-22.184-22.187H669.711c-9.441 0-17.125-7.68-17.125-17.122 0-9.437 7.684-17.113 17.125-17.113zm198.156 76.914a22.172 22.172 0 0 0 24.168-4.804l142.645-142.645c9.47 31.254 14.61 64.395 14.61 98.742 0 187.926-152.352 340.265-340.278 340.265-187.922 0-340.266-152.339-340.266-340.265 0-34.344 5.137-67.48 14.598-98.734L525.98 752.688c8.657 8.656 22.715 8.656 31.372 0 8.664-8.668 8.664-22.711 0-31.375L438.016 601.969h103.652c12.25 0 22.184-9.93 22.184-22.188 0-12.25-9.934-22.179-22.184-22.179H404.176c55.683-112.047 171.234-189.09 304.836-189.09 136.406 0 254.011 80.304 308.268 196.183L898.535 683.441v-103.66c0-12.25-9.937-22.179-22.183-22.179-12.254 0-22.188 9.929-22.188 22.179V737a22.179 22.179 0 0 0 13.703 20.492" style="fill:url(#b);fill-opacity:1;fill-rule:nonzero;stroke:none"/></g><path d="M2589.67 379.602H2604v116.207h-22.68V425.23l-55.64 70.411h-18.32V379.602h22.68v76.636l59.61-76.609.02-.027M1313.33 579.867h-62.64v100.586h-23.96V557.648h86.6v22.219M1456.31 610.004c0-20.719-10.94-33.094-29.26-33.094-19.42 0-31.01 12.375-31.01 33.094v70.277h-23.78v-70.277c0-33.395 21.43-54.961 54.61-54.961 15.68 0 28.89 4.789 38.19 13.859 9.83 9.582 15.03 23.801 15.03 41.102v70.277h-23.78v-70.277M1655.85 678.637l.09.125 1.11 1.691h-27.1l-30.19-45.027-30.04 44.816-.15.211h-27.11l1.11-1.691 40.97-59.012-42.09-60.633-.09-.125-.95-1.344h27.46l30.89 45.383 30.89-45.383h27.54l-1.03 1.344-42.36 60.758 41.05 58.887M1717.79 557.648h92.17v23.61h-68.39v26.512h65.96v22.394h-65.96v27.027h68.39v23.262h-92.17V557.648M1944.49 628.238l-37.72 51.836-.14.207h-27.2V557.473h23.96v87.558l37.91-51.855.15-.199h5.03l38.93 51.91v-87.414h23.96v122.808h-27.02l-37.86-52.043M2139.54 631.555h-34.66v27.027h34.66c14.75 0 18.66-9.465 18.66-14.469 0-5.726-3.24-12.558-18.66-12.558zm-34.66-21.176h34.66c9.35 0 22.31-5.641 22.31-16.215 0-13.437-18.58-14.121-22.31-14.121h-34.66zm62.1 10.84c9.68 4.742 15 13.011 15 23.418 0 22.761-15.47 35.816-42.44 35.816h-58.27V557.648h58.27c30.15 0 46.09 12.571 46.09 36.34 0 6.852-4.59 22.207-18.65 27.231M2348.06 618.02c-.35-19.868-10.87-41.11-39.35-41.11-28.37 0-39.02 21.145-39.55 40.938-.31 12.625 3.93 24.402 11.63 32.3 7.04 7.219 16.43 10.879 27.92 10.879 11.38 0 20.68-3.582 27.63-10.664 7.67-7.797 11.94-19.59 11.72-32.343zm5.53 47.414c-11.29 11.414-26.81 17.453-44.88 17.453-43.4 0-63.15-33.539-63.15-64.699 0-16.946 5.46-32.477 15.4-43.75 11.27-12.809 27.79-19.571 47.75-19.571 19.84 0 36.28 6.867 47.53 19.856 9.77 11.285 15.24 26.781 15.43 43.629.21 18.101-6.39 35.265-18.08 47.082M2544.55 610.004v70.277h-23.78v-70.277c0-20.719-10.94-33.094-29.27-33.094-19.41 0-31 12.375-31 33.094v70.277h-23.79v-70.277c0-33.395 21.44-54.961 54.62-54.961 15.68 0 28.88 4.789 38.19 13.859 9.83 9.582 15.03 23.801 15.03 41.102M2640.77 658.059h34.48c14.09 0 20.39-9.539 20.39-18.989 0-8.761-5.34-19-20.39-19h-34.48zm56.73-100.25.16-.161h29.96l-38.38 43.344c26.39 5.778 30.36 26.613 30.36 38.602 0 10.929-4 21.008-11.3 28.359-8.03 8.094-19.45 12.422-33.05 12.5-9.65 0-19.32.047-28.97.086-9.65.051-19.32.09-28.98.09h-.49V557.648h23.96v40.723h21.38l35.35-40.562M2892.46 576.957l.11.145v52.015h-53.19v-21.515h31.16V586.75c-8.48-6.738-16.33-9.492-27.02-9.492-30.56 0-41.45 20.789-41.45 40.234 0 26.149 17.06 44.406 41.45 44.406 11.13 0 22.87-4.621 30.65-12.046l.35-.336 14.61 14.961.34.355-.35.336c-12.27 12.105-28.46 18.762-45.6 18.762-20.18 0-37.02-7.012-48.68-20.285-10.45-11.879-16.2-28.278-16.2-46.153 0-30.277 17.04-62.625 64.88-62.625 20.21 0 35.76 7.02 48.94 22.09M1272.34 450.934c-15.13 1.796-25.21 4.859-25.21 13.972 0 9.125 8.95 14.797 23.34 14.797 12.68 0 23.11-6.324 26.87-12.574l.24-.399 18.09 9.293-.21.446c-7.43 15.125-23.21 23.125-45.65 23.125-11.67-.09-22.49-2.938-30.48-8.028-9.52-6.066-14.55-15.058-14.55-26.007 0-26.289 21.93-32.512 45.64-35.332 17.62-1.895 26.18-7.274 26.18-16.438 0-15.551-19.87-16.769-25.96-16.769-15.48 0-27.41 6.71-31.92 17.941l-.21.508-18.57-9.617-.39-.211.17-.411c7.81-19.242 24.36-28.589 50.59-28.589 13.71 0 25.48 3.05 34.05 8.789 9.67 6.5 14.77 16.289 14.77 28.359 0 27.574-22.49 34.152-46.79 37.145M1443.54 440.523c-3.68-4.046-8.95-6.187-15.23-6.187h-32.05v39.773h32.05c13.93 0 20.28-10.332 20.28-19.937 0-5.203-1.8-10.055-5.05-13.649zm-15.23 55.286c-9.04 0-18.08-.039-27.12-.079-9.04-.05-18.08-.089-27.12-.089h-.49V379.602h22.68v33.847h32.05c13.2 0 24.28 4.449 32.04 12.867 6.88 7.457 10.68 17.489 10.68 28.274 0 19.851-13.37 41.219-42.72 41.219M1585.83 422.5h-41.22l20.61 47.254zm-8.46 73.141h-24.3l-51.75-115.34-.3-.699h24.58l9.86 21.699h59.52l9.56-21.41.13-.289h24.76l-51.92 115.753-.14.286M1755.63 410.219l-.34-.348c-7.11-7.121-18.07-11.531-28.59-11.531-18.75 0-38.88 10.101-39.12 38.465-.1 11.156 3.91 21.644 10.98 28.773 6.92 6.977 16.65 10.672 28.14 10.672 10.64 0 20.38-3.812 27.44-10.715l.35-.332 14.8 14.305.36.359-.36.352c-11.75 11.601-26.48 17.722-42.59 17.722-18.01 0-33.34-5.824-44.31-16.855-11-11.063-17.26-27.203-17.16-44.281.09-16.075 5.29-30.703 14.65-41.215 10.85-12.18 27.04-18.621 46.82-18.621 17.39 0 32.64 5.961 44.07 17.25l.35.34-15.14 15.312-.35.348M1816.74 379.602h87.11v22.347h-64.59v24.992h62.3v21.207h-62.3v25.469h64.59v22.024h-87.11V379.602M2113.69 422.5h-41.22l20.61 47.254zm-8.46 73.141h-24.3l-51.75-115.34-.31-.699h24.59l9.85 21.699h59.53l9.55-21.41.14-.289h24.76l-51.92 115.753-.14.286M2251.94 426.781h29.43v-19.652c-8.01-6.359-15.41-8.949-25.49-8.949-18.91 0-39.12 9.968-39.12 37.968 0 24.68 16.1 41.911 39.12 41.911 10.51 0 21.6-4.356 28.92-11.368l.36-.336 13.82 14.153.34.355-.35.336c-11.59 11.442-26.9 17.731-43.09 17.731-42.36 0-61.31-31.535-61.31-62.782 0-28.609 16.11-59.179 61.31-59.179 19.1 0 33.78 6.64 46.24 20.871l.11.148v49.172h-50.29v-20.379M2360.75 379.602h87.11v22.347h-64.59v24.992h62.3v21.207h-62.3v25.469h64.59v22.024h-87.11V379.602M2750.66 410.219l-.35-.348c-7.11-7.121-18.06-11.531-28.58-11.531-18.74 0-38.86 10.101-39.12 38.465-.1 11.156 3.91 21.644 10.98 28.773 6.91 6.977 16.64 10.672 28.14 10.672 10.63 0 20.38-3.812 27.43-10.715l.35-.332 14.81 14.305.35.359-.35.352c-11.76 11.601-26.49 17.722-42.59 17.722-18.02 0-33.35-5.824-44.31-16.855-11-11.063-17.26-27.203-17.17-44.281.09-16.075 5.3-30.703 14.66-41.215 10.84-12.18 27.03-18.621 46.82-18.621 17.39 0 32.62 5.961 44.07 17.25l.34.34-15.13 15.312-.35.348M2891.87 495.641l-30.29-47.059-28.83 46.832-.15.227h-27.65l1.07-1.621 44.21-66.567v-47.851h22.68v47.843l45.78 66.438.08.129 1.16 1.629h-28.06" style="fill:#1a3476;fill-opacity:1;fill-rule:nonzero;stroke:none" transform="matrix(.13333 0 0 -.13333 -49.166 139.873)"/><g clip-path="url(#c)" transform="matrix(.13333 0 0 -.13333 -49.166 139.873)"><path d="M669.711 680.578h78.598c33.906 0 61.492-27.582 61.492-61.488s-27.586-61.488-61.492-61.488H630.406c-12.258 0-22.187 9.929-22.187 22.179 0 12.258 9.929 22.188 22.187 22.188h117.903c9.445 0 17.125 7.683 17.125 17.121 0 9.437-7.68 17.121-17.125 17.121h-78.598c-33.906 0-61.492 27.574-61.492 61.48 0 33.907 27.586 61.493 61.492 61.493h117.906c12.246 0 22.184-9.934 22.184-22.184 0-12.25-9.938-22.187-22.184-22.187H669.711c-9.441 0-17.125-7.68-17.125-17.122 0-9.437 7.684-17.113 17.125-17.113zm198.156 76.914a22.172 22.172 0 0 0 24.168-4.804l142.645-142.645c9.47 31.254 14.61 64.395 14.61 98.742 0 187.926-152.352 340.265-340.278 340.265-187.922 0-340.266-152.339-340.266-340.265 0-34.344 5.137-67.48 14.598-98.734L525.98 752.688c8.657 8.656 22.715 8.656 31.372 0 8.664-8.668 8.664-22.711 0-31.375L438.016 601.969h103.652c12.25 0 22.184-9.93 22.184-22.188 0-12.25-9.934-22.179-22.184-22.179H404.176c55.683-112.047 171.234-189.09 304.836-189.09 136.406 0 254.011 80.304 308.268 196.183L898.535 683.441v-103.66c0-12.25-9.937-22.179-22.183-22.179-12.254 0-22.188 9.929-22.188 22.179V737a22.179 22.179 0 0 0 13.703 20.492" style="fill:url(#d);fill-opacity:1;fill-rule:nonzero;stroke:none"/></g><path d="M2589.67 379.602H2604v116.207h-22.68V425.23l-55.64 70.411h-18.32V379.602h22.68v76.636l59.61-76.609.02-.027" style="fill:#1a3476;fill-opacity:1;fill-rule:nonzero;stroke:none" transform="matrix(.13333 0 0 -.13333 -49.166 139.873)"/></svg>