<?xml version="1.0" encoding="UTF-8" standalone="no"?>
<!-- Created with Inkscape (http://www.inkscape.org/) -->

<svg
   xmlns:dc="http://purl.org/dc/elements/1.1/"
   xmlns:cc="http://creativecommons.org/ns#"
   xmlns:rdf="http://www.w3.org/1999/02/22-rdf-syntax-ns#"
   xmlns:svg="http://www.w3.org/2000/svg"
   xmlns="http://www.w3.org/2000/svg"
   xmlns:sodipodi="http://sodipodi.sourceforge.net/DTD/sodipodi-0.dtd"
   xmlns:inkscape="http://www.inkscape.org/namespaces/inkscape"
   version="1.1"
   id="svg2"
   xml:space="preserve"
   width="340.15787"
   height="90.738396"
   viewBox="0 0 340.15787 90.738394"
   sodipodi:docname="lsa.svg"
   inkscape:version="0.92.5 (2060ec1f9f, 2020-04-08)"><metadata
     id="metadata8"><rdf:RDF><cc:Work
         rdf:about=""><dc:format>image/svg+xml</dc:format><dc:type
           rdf:resource="http://purl.org/dc/dcmitype/StillImage" /><dc:title></dc:title></cc:Work></rdf:RDF></metadata><defs
     id="defs6"><clipPath
       clipPathUnits="userSpaceOnUse"
       id="clipPath60"><path
         d="m 669.711,680.578 h 78.598 c 33.906,0 61.492,-27.582 61.492,-61.488 0,-33.906 -27.586,-61.488 -61.492,-61.488 H 630.406 c -12.258,0 -22.187,9.929 -22.187,22.179 0,12.258 9.929,22.188 22.187,22.188 h 117.903 c 9.445,0 17.125,7.683 17.125,17.121 0,9.437 -7.68,17.121 -17.125,17.121 h -78.598 c -33.906,0 -61.492,27.574 -61.492,61.48 0,33.907 27.586,61.493 61.492,61.493 h 117.906 c 12.246,0 22.184,-9.934 22.184,-22.184 0,-12.25 -9.938,-22.187 -22.184,-22.187 H 669.711 c -9.441,0 -17.125,-7.68 -17.125,-17.122 0,-9.437 7.684,-17.113 17.125,-17.113 z m 198.156,76.914 c 8.281,3.438 17.832,1.535 24.168,-4.804 L 1034.68,610.043 c 9.47,31.254 14.61,64.395 14.61,98.742 0,187.926 -152.352,340.265 -340.278,340.265 -187.922,0 -340.266,-152.339 -340.266,-340.265 0,-34.344 5.137,-67.48 14.598,-98.734 L 525.98,752.688 c 8.657,8.656 22.715,8.656 31.372,0 8.664,-8.668 8.664,-22.711 0,-31.375 L 438.016,601.969 h 103.652 c 12.25,0 22.184,-9.93 22.184,-22.188 0,-12.25 -9.934,-22.179 -22.184,-22.179 H 404.176 c 55.683,-112.047 171.234,-189.09 304.836,-189.09 136.406,0 254.011,80.304 308.268,196.183 L 898.535,683.441 v -103.66 c 0,-12.25 -9.937,-22.179 -22.183,-22.179 -12.254,0 -22.188,9.929 -22.188,22.179 V 737 c 0,8.969 5.406,17.059 13.703,20.492 z"
         id="path58"
         inkscape:connector-curvature="0" /></clipPath><radialGradient
       fx="0"
       fy="0"
       cx="0"
       cy="0"
       r="1"
       gradientUnits="userSpaceOnUse"
       gradientTransform="matrix(-402.355,-390.301,-390.301,402.355,943.321,950.511)"
       spreadMethod="pad"
       id="radialGradient68"><stop
         style="stop-opacity:1;stop-color:#66c76b"
         offset="0"
         id="stop62" /><stop
         style="stop-opacity:1;stop-color:#1a3576"
         offset="0.733591"
         id="stop64" /><stop
         style="stop-opacity:1;stop-color:#1a3576"
         offset="1"
         id="stop66" /></radialGradient><clipPath
       clipPathUnits="userSpaceOnUse"
       id="clipPath120"><path
         d="m 669.711,680.578 h 78.598 c 33.906,0 61.492,-27.582 61.492,-61.488 0,-33.906 -27.586,-61.488 -61.492,-61.488 H 630.406 c -12.258,0 -22.187,9.929 -22.187,22.179 0,12.258 9.929,22.188 22.187,22.188 h 117.903 c 9.445,0 17.125,7.683 17.125,17.121 0,9.437 -7.68,17.121 -17.125,17.121 h -78.598 c -33.906,0 -61.492,27.574 -61.492,61.48 0,33.907 27.586,61.493 61.492,61.493 h 117.906 c 12.246,0 22.184,-9.934 22.184,-22.184 0,-12.25 -9.938,-22.187 -22.184,-22.187 H 669.711 c -9.441,0 -17.125,-7.68 -17.125,-17.122 0,-9.437 7.684,-17.113 17.125,-17.113 z m 198.156,76.914 c 8.281,3.438 17.832,1.535 24.168,-4.804 L 1034.68,610.043 c 9.47,31.254 14.61,64.395 14.61,98.742 0,187.926 -152.352,340.265 -340.278,340.265 -187.922,0 -340.266,-152.339 -340.266,-340.265 0,-34.344 5.137,-67.48 14.598,-98.734 L 525.98,752.688 c 8.657,8.656 22.715,8.656 31.372,0 8.664,-8.668 8.664,-22.711 0,-31.375 L 438.016,601.969 h 103.652 c 12.25,0 22.184,-9.93 22.184,-22.188 0,-12.25 -9.934,-22.179 -22.184,-22.179 H 404.176 c 55.683,-112.047 171.234,-189.09 304.836,-189.09 136.406,0 254.011,80.304 308.268,196.183 L 898.535,683.441 v -103.66 c 0,-12.25 -9.937,-22.179 -22.183,-22.179 -12.254,0 -22.188,9.929 -22.188,22.179 V 737 c 0,8.969 5.406,17.059 13.703,20.492 z"
         id="path118"
         inkscape:connector-curvature="0" /></clipPath><radialGradient
       fx="0"
       fy="0"
       cx="0"
       cy="0"
       r="1"
       gradientUnits="userSpaceOnUse"
       gradientTransform="matrix(-402.355,-390.301,-390.301,402.355,943.321,950.511)"
       spreadMethod="pad"
       id="radialGradient128"><stop
         style="stop-opacity:1;stop-color:#66c76b"
         offset="0"
         id="stop122" /><stop
         style="stop-opacity:1;stop-color:#1a3576"
         offset="0.733591"
         id="stop124" /><stop
         style="stop-opacity:1;stop-color:#1a3576"
         offset="1"
         id="stop126" /></radialGradient></defs><sodipodi:namedview
     pagecolor="#ffffff"
     bordercolor="#666666"
     borderopacity="1"
     objecttolerance="10"
     gridtolerance="10"
     guidetolerance="10"
     inkscape:pageopacity="0"
     inkscape:pageshadow="2"
     inkscape:window-width="1492"
     inkscape:window-height="801"
     id="namedview4"
     showgrid="false"
     inkscape:pagecheckerboard="true"
     inkscape:zoom="0.72071523"
     inkscape:cx="170.43289"
     inkscape:cy="45.44949"
     inkscape:window-x="0"
     inkscape:window-y="0"
     inkscape:window-maximized="0"
     inkscape:current-layer="g10" /><g
     id="g10"
     inkscape:groupmode="layer"
     inkscape:label="ink_ext_XXXXXX"
     transform="matrix(1.3333333,0,0,-1.3333333,-49.166132,139.87333)"><g
       id="g12"
       transform="scale(0.1)"><path
         d="m 1313.33,579.867 h -62.64 v 100.586 h -23.96 V 557.648 h 86.6 v 22.219"
         style="fill:#1a3476;fill-opacity:1;fill-rule:nonzero;stroke:none"
         id="path14"
         inkscape:connector-curvature="0" /><path
         d="m 1456.31,610.004 c 0,-20.719 -10.94,-33.094 -29.26,-33.094 -19.42,0 -31.01,12.375 -31.01,33.094 v 70.277 h -23.78 v -70.277 c 0,-33.395 21.43,-54.961 54.61,-54.961 15.68,0 28.89,4.789 38.19,13.859 9.83,9.582 15.03,23.801 15.03,41.102 v 70.277 h -23.78 v -70.277"
         style="fill:#1a3476;fill-opacity:1;fill-rule:nonzero;stroke:none"
         id="path16"
         inkscape:connector-curvature="0" /><path
         d="m 1655.85,678.637 0.09,0.125 1.11,1.691 h -27.1 l -30.19,-45.027 -30.04,44.816 -0.15,0.211 h -27.11 l 1.11,-1.691 40.97,-59.012 -42.09,-60.633 -0.09,-0.125 -0.95,-1.344 h 27.46 l 30.89,45.383 30.89,-45.383 h 27.54 l -1.03,1.344 -42.36,60.758 41.05,58.887"
         style="fill:#1a3476;fill-opacity:1;fill-rule:nonzero;stroke:none"
         id="path18"
         inkscape:connector-curvature="0" /><path
         d="m 1717.79,557.648 h 92.17 v 23.61 h -68.39 v 26.512 h 65.96 v 22.394 h -65.96 v 27.027 h 68.39 v 23.262 h -92.17 V 557.648"
         style="fill:#1a3476;fill-opacity:1;fill-rule:nonzero;stroke:none"
         id="path20"
         inkscape:connector-curvature="0" /><path
         d="m 1944.49,628.238 -37.72,51.836 -0.14,0.207 h -27.2 V 557.473 h 23.96 v 87.558 l 37.91,-51.855 0.15,-0.199 h 5.03 l 38.93,51.91 v -87.414 h 23.96 v 122.808 h -27.02 l -37.86,-52.043"
         style="fill:#1a3476;fill-opacity:1;fill-rule:nonzero;stroke:none"
         id="path22"
         inkscape:connector-curvature="0" /><path
         d="m 2139.54,631.555 h -34.66 v 27.027 h 34.66 c 14.75,0 18.66,-9.465 18.66,-14.469 0,-5.726 -3.24,-12.558 -18.66,-12.558 z m -34.66,-21.176 h 34.66 c 9.35,0 22.31,-5.641 22.31,-16.215 0,-13.437 -18.58,-14.121 -22.31,-14.121 h -34.66 z m 62.1,10.84 c 9.68,4.742 15,13.011 15,23.418 0,22.761 -15.47,35.816 -42.44,35.816 h -58.27 V 557.648 h 58.27 c 30.15,0 46.09,12.571 46.09,36.34 0,6.852 -4.59,22.207 -18.65,27.231"
         style="fill:#1a3476;fill-opacity:1;fill-rule:nonzero;stroke:none"
         id="path24"
         inkscape:connector-curvature="0" /><path
         d="m 2348.06,618.02 c -0.35,-19.868 -10.87,-41.11 -39.35,-41.11 -28.37,0 -39.02,21.145 -39.55,40.938 -0.31,12.625 3.93,24.402 11.63,32.3 7.04,7.219 16.43,10.879 27.92,10.879 11.38,0 20.68,-3.582 27.63,-10.664 7.67,-7.797 11.94,-19.59 11.72,-32.343 z m 5.53,47.414 c -11.29,11.414 -26.81,17.453 -44.88,17.453 -43.4,0 -63.15,-33.539 -63.15,-64.699 0,-16.946 5.46,-32.477 15.4,-43.75 11.27,-12.809 27.79,-19.571 47.75,-19.571 19.84,0 36.28,6.867 47.53,19.856 9.77,11.285 15.24,26.781 15.43,43.629 0.21,18.101 -6.39,35.265 -18.08,47.082"
         style="fill:#1a3476;fill-opacity:1;fill-rule:nonzero;stroke:none"
         id="path26"
         inkscape:connector-curvature="0" /><path
         d="m 2544.55,610.004 v 70.277 h -23.78 v -70.277 c 0,-20.719 -10.94,-33.094 -29.27,-33.094 -19.41,0 -31,12.375 -31,33.094 v 70.277 h -23.79 v -70.277 c 0,-33.395 21.44,-54.961 54.62,-54.961 15.68,0 28.88,4.789 38.19,13.859 9.83,9.582 15.03,23.801 15.03,41.102"
         style="fill:#1a3476;fill-opacity:1;fill-rule:nonzero;stroke:none"
         id="path28"
         inkscape:connector-curvature="0" /><path
         d="m 2640.77,658.059 h 34.48 c 14.09,0 20.39,-9.539 20.39,-18.989 0,-8.761 -5.34,-19 -20.39,-19 h -34.48 z m 56.73,-100.25 0.16,-0.161 h 29.96 l -38.38,43.344 c 26.39,5.778 30.36,26.613 30.36,38.602 0,10.929 -4,21.008 -11.3,28.359 -8.03,8.094 -19.45,12.422 -33.05,12.5 -9.65,0 -19.32,0.047 -28.97,0.086 -9.65,0.051 -19.32,0.09 -28.98,0.09 h -0.49 V 557.648 h 23.96 v 40.723 h 21.38 l 35.35,-40.562"
         style="fill:#1a3476;fill-opacity:1;fill-rule:nonzero;stroke:none"
         id="path30"
         inkscape:connector-curvature="0" /><path
         d="m 2892.46,576.957 0.11,0.145 v 52.015 h -53.19 v -21.515 h 31.16 V 586.75 c -8.48,-6.738 -16.33,-9.492 -27.02,-9.492 -30.56,0 -41.45,20.789 -41.45,40.234 0,26.149 17.06,44.406 41.45,44.406 11.13,0 22.87,-4.621 30.65,-12.046 l 0.35,-0.336 14.61,14.961 0.34,0.355 -0.35,0.336 c -12.27,12.105 -28.46,18.762 -45.6,18.762 -20.18,0 -37.02,-7.012 -48.68,-20.285 -10.45,-11.879 -16.2,-28.278 -16.2,-46.153 0,-30.277 17.04,-62.625 64.88,-62.625 20.21,0 35.76,7.02 48.94,22.09"
         style="fill:#1a3476;fill-opacity:1;fill-rule:nonzero;stroke:none"
         id="path32"
         inkscape:connector-curvature="0" /><path
         d="m 1272.34,450.934 c -15.13,1.796 -25.21,4.859 -25.21,13.972 0,9.125 8.95,14.797 23.34,14.797 12.68,0 23.11,-6.324 26.87,-12.574 l 0.24,-0.399 18.09,9.293 -0.21,0.446 c -7.43,15.125 -23.21,23.125 -45.65,23.125 -11.67,-0.09 -22.49,-2.938 -30.48,-8.028 -9.52,-6.066 -14.55,-15.058 -14.55,-26.007 0,-26.289 21.93,-32.512 45.64,-35.332 17.62,-1.895 26.18,-7.274 26.18,-16.438 0,-15.551 -19.87,-16.769 -25.96,-16.769 -15.48,0 -27.41,6.71 -31.92,17.941 l -0.21,0.508 -18.57,-9.617 -0.39,-0.211 0.17,-0.411 c 7.81,-19.242 24.36,-28.589 50.59,-28.589 13.71,0 25.48,3.05 34.05,8.789 9.67,6.5 14.77,16.289 14.77,28.359 0,27.574 -22.49,34.152 -46.79,37.145"
         style="fill:#1a3476;fill-opacity:1;fill-rule:nonzero;stroke:none"
         id="path34"
         inkscape:connector-curvature="0" /><path
         d="m 1443.54,440.523 c -3.68,-4.046 -8.95,-6.187 -15.23,-6.187 h -32.05 v 39.773 h 32.05 c 13.93,0 20.28,-10.332 20.28,-19.937 0,-5.203 -1.8,-10.055 -5.05,-13.649 z m -15.23,55.286 c -9.04,0 -18.08,-0.039 -27.12,-0.079 -9.04,-0.05 -18.08,-0.089 -27.12,-0.089 h -0.49 V 379.602 h 22.68 v 33.847 h 32.05 c 13.2,0 24.28,4.449 32.04,12.867 6.88,7.457 10.68,17.489 10.68,28.274 0,19.851 -13.37,41.219 -42.72,41.219"
         style="fill:#1a3476;fill-opacity:1;fill-rule:nonzero;stroke:none"
         id="path36"
         inkscape:connector-curvature="0" /><path
         d="m 1585.83,422.5 h -41.22 l 20.61,47.254 z m -8.46,73.141 h -24.3 l -51.75,-115.34 -0.3,-0.699 h 24.58 l 9.86,21.699 h 59.52 l 9.56,-21.41 0.13,-0.289 h 24.76 l -51.92,115.753 -0.14,0.286"
         style="fill:#1a3476;fill-opacity:1;fill-rule:nonzero;stroke:none"
         id="path38"
         inkscape:connector-curvature="0" /><path
         d="m 1755.63,410.219 -0.34,-0.348 c -7.11,-7.121 -18.07,-11.531 -28.59,-11.531 -18.75,0 -38.88,10.101 -39.12,38.465 -0.1,11.156 3.91,21.644 10.98,28.773 6.92,6.977 16.65,10.672 28.14,10.672 10.64,0 20.38,-3.812 27.44,-10.715 l 0.35,-0.332 14.8,14.305 0.36,0.359 -0.36,0.352 c -11.75,11.601 -26.48,17.722 -42.59,17.722 -18.01,0 -33.34,-5.824 -44.31,-16.855 -11,-11.063 -17.26,-27.203 -17.16,-44.281 0.09,-16.075 5.29,-30.703 14.65,-41.215 10.85,-12.18 27.04,-18.621 46.82,-18.621 17.39,0 32.64,5.961 44.07,17.25 l 0.35,0.34 -15.14,15.312 -0.35,0.348"
         style="fill:#1a3476;fill-opacity:1;fill-rule:nonzero;stroke:none"
         id="path40"
         inkscape:connector-curvature="0" /><path
         d="m 1816.74,379.602 h 87.11 v 22.347 h -64.59 v 24.992 h 62.3 v 21.207 h -62.3 v 25.469 h 64.59 v 22.024 h -87.11 V 379.602"
         style="fill:#1a3476;fill-opacity:1;fill-rule:nonzero;stroke:none"
         id="path42"
         inkscape:connector-curvature="0" /><path
         d="m 2113.69,422.5 h -41.22 l 20.61,47.254 z m -8.46,73.141 h -24.3 l -51.75,-115.34 -0.31,-0.699 h 24.59 l 9.85,21.699 h 59.53 l 9.55,-21.41 0.14,-0.289 h 24.76 l -51.92,115.753 -0.14,0.286"
         style="fill:#1a3476;fill-opacity:1;fill-rule:nonzero;stroke:none"
         id="path44"
         inkscape:connector-curvature="0" /><path
         d="m 2251.94,426.781 h 29.43 v -19.652 c -8.01,-6.359 -15.41,-8.949 -25.49,-8.949 -18.91,0 -39.12,9.968 -39.12,37.968 0,24.68 16.1,41.911 39.12,41.911 10.51,0 21.6,-4.356 28.92,-11.368 l 0.36,-0.336 13.82,14.153 0.34,0.355 -0.35,0.336 c -11.59,11.442 -26.9,17.731 -43.09,17.731 -42.36,0 -61.31,-31.535 -61.31,-62.782 0,-28.609 16.11,-59.179 61.31,-59.179 19.1,0 33.78,6.64 46.24,20.871 l 0.11,0.148 v 49.172 h -50.29 v -20.379"
         style="fill:#1a3476;fill-opacity:1;fill-rule:nonzero;stroke:none"
         id="path46"
         inkscape:connector-curvature="0" /><path
         d="m 2360.75,379.602 h 87.11 v 22.347 h -64.59 v 24.992 h 62.3 v 21.207 h -62.3 v 25.469 h 64.59 v 22.024 h -87.11 V 379.602"
         style="fill:#1a3476;fill-opacity:1;fill-rule:nonzero;stroke:none"
         id="path48"
         inkscape:connector-curvature="0" /><path
         d="m 2750.66,410.219 -0.35,-0.348 c -7.11,-7.121 -18.06,-11.531 -28.58,-11.531 -18.74,0 -38.86,10.101 -39.12,38.465 -0.1,11.156 3.91,21.644 10.98,28.773 6.91,6.977 16.64,10.672 28.14,10.672 10.63,0 20.38,-3.812 27.43,-10.715 l 0.35,-0.332 14.81,14.305 0.35,0.359 -0.35,0.352 c -11.76,11.601 -26.49,17.722 -42.59,17.722 -18.02,0 -33.35,-5.824 -44.31,-16.855 -11,-11.063 -17.26,-27.203 -17.17,-44.281 0.09,-16.075 5.3,-30.703 14.66,-41.215 10.84,-12.18 27.03,-18.621 46.82,-18.621 17.39,0 32.62,5.961 44.07,17.25 l 0.34,0.34 -15.13,15.312 -0.35,0.348"
         style="fill:#1a3476;fill-opacity:1;fill-rule:nonzero;stroke:none"
         id="path50"
         inkscape:connector-curvature="0" /><path
         d="m 2891.87,495.641 -30.29,-47.059 -28.83,46.832 -0.15,0.227 h -27.65 l 1.07,-1.621 44.21,-66.567 v -47.851 h 22.68 v 47.843 l 45.78,66.438 0.08,0.129 1.16,1.629 h -28.06"
         style="fill:#1a3476;fill-opacity:1;fill-rule:nonzero;stroke:none"
         id="path52"
         inkscape:connector-curvature="0" /><g
         id="g54"><g
           id="g56"
           clip-path="url(#clipPath60)"><path
             d="m 669.711,680.578 h 78.598 c 33.906,0 61.492,-27.582 61.492,-61.488 0,-33.906 -27.586,-61.488 -61.492,-61.488 H 630.406 c -12.258,0 -22.187,9.929 -22.187,22.179 0,12.258 9.929,22.188 22.187,22.188 h 117.903 c 9.445,0 17.125,7.683 17.125,17.121 0,9.437 -7.68,17.121 -17.125,17.121 h -78.598 c -33.906,0 -61.492,27.574 -61.492,61.48 0,33.907 27.586,61.493 61.492,61.493 h 117.906 c 12.246,0 22.184,-9.934 22.184,-22.184 0,-12.25 -9.938,-22.187 -22.184,-22.187 H 669.711 c -9.441,0 -17.125,-7.68 -17.125,-17.122 0,-9.437 7.684,-17.113 17.125,-17.113 z m 198.156,76.914 c 8.281,3.438 17.832,1.535 24.168,-4.804 L 1034.68,610.043 c 9.47,31.254 14.61,64.395 14.61,98.742 0,187.926 -152.352,340.265 -340.278,340.265 -187.922,0 -340.266,-152.339 -340.266,-340.265 0,-34.344 5.137,-67.48 14.598,-98.734 L 525.98,752.688 c 8.657,8.656 22.715,8.656 31.372,0 8.664,-8.668 8.664,-22.711 0,-31.375 L 438.016,601.969 h 103.652 c 12.25,0 22.184,-9.93 22.184,-22.188 0,-12.25 -9.934,-22.179 -22.184,-22.179 H 404.176 c 55.683,-112.047 171.234,-189.09 304.836,-189.09 136.406,0 254.011,80.304 308.268,196.183 L 898.535,683.441 v -103.66 c 0,-12.25 -9.937,-22.179 -22.183,-22.179 -12.254,0 -22.188,9.929 -22.188,22.179 V 737 c 0,8.969 5.406,17.059 13.703,20.492"
             style="fill:url(#radialGradient68);fill-opacity:1;fill-rule:nonzero;stroke:none"
             id="path70"
             inkscape:connector-curvature="0" /></g></g><path
         d="M 2589.67,379.602 H 2604 v 116.207 h -22.68 V 425.23 l -55.64,70.411 h -18.32 V 379.602 h 22.68 v 76.636 l 59.61,-76.609 0.02,-0.027"
         style="fill:#1a3476;fill-opacity:1;fill-rule:nonzero;stroke:none"
         id="path72"
         inkscape:connector-curvature="0" /><path
         d="m 1313.33,579.867 h -62.64 v 100.586 h -23.96 V 557.648 h 86.6 v 22.219"
         style="fill:#1a3476;fill-opacity:1;fill-rule:nonzero;stroke:none"
         id="path74"
         inkscape:connector-curvature="0" /><path
         d="m 1456.31,610.004 c 0,-20.719 -10.94,-33.094 -29.26,-33.094 -19.42,0 -31.01,12.375 -31.01,33.094 v 70.277 h -23.78 v -70.277 c 0,-33.395 21.43,-54.961 54.61,-54.961 15.68,0 28.89,4.789 38.19,13.859 9.83,9.582 15.03,23.801 15.03,41.102 v 70.277 h -23.78 v -70.277"
         style="fill:#1a3476;fill-opacity:1;fill-rule:nonzero;stroke:none"
         id="path76"
         inkscape:connector-curvature="0" /><path
         d="m 1655.85,678.637 0.09,0.125 1.11,1.691 h -27.1 l -30.19,-45.027 -30.04,44.816 -0.15,0.211 h -27.11 l 1.11,-1.691 40.97,-59.012 -42.09,-60.633 -0.09,-0.125 -0.95,-1.344 h 27.46 l 30.89,45.383 30.89,-45.383 h 27.54 l -1.03,1.344 -42.36,60.758 41.05,58.887"
         style="fill:#1a3476;fill-opacity:1;fill-rule:nonzero;stroke:none"
         id="path78"
         inkscape:connector-curvature="0" /><path
         d="m 1717.79,557.648 h 92.17 v 23.61 h -68.39 v 26.512 h 65.96 v 22.394 h -65.96 v 27.027 h 68.39 v 23.262 h -92.17 V 557.648"
         style="fill:#1a3476;fill-opacity:1;fill-rule:nonzero;stroke:none"
         id="path80"
         inkscape:connector-curvature="0" /><path
         d="m 1944.49,628.238 -37.72,51.836 -0.14,0.207 h -27.2 V 557.473 h 23.96 v 87.558 l 37.91,-51.855 0.15,-0.199 h 5.03 l 38.93,51.91 v -87.414 h 23.96 v 122.808 h -27.02 l -37.86,-52.043"
         style="fill:#1a3476;fill-opacity:1;fill-rule:nonzero;stroke:none"
         id="path82"
         inkscape:connector-curvature="0" /><path
         d="m 2139.54,631.555 h -34.66 v 27.027 h 34.66 c 14.75,0 18.66,-9.465 18.66,-14.469 0,-5.726 -3.24,-12.558 -18.66,-12.558 z m -34.66,-21.176 h 34.66 c 9.35,0 22.31,-5.641 22.31,-16.215 0,-13.437 -18.58,-14.121 -22.31,-14.121 h -34.66 z m 62.1,10.84 c 9.68,4.742 15,13.011 15,23.418 0,22.761 -15.47,35.816 -42.44,35.816 h -58.27 V 557.648 h 58.27 c 30.15,0 46.09,12.571 46.09,36.34 0,6.852 -4.59,22.207 -18.65,27.231"
         style="fill:#1a3476;fill-opacity:1;fill-rule:nonzero;stroke:none"
         id="path84"
         inkscape:connector-curvature="0" /><path
         d="m 2348.06,618.02 c -0.35,-19.868 -10.87,-41.11 -39.35,-41.11 -28.37,0 -39.02,21.145 -39.55,40.938 -0.31,12.625 3.93,24.402 11.63,32.3 7.04,7.219 16.43,10.879 27.92,10.879 11.38,0 20.68,-3.582 27.63,-10.664 7.67,-7.797 11.94,-19.59 11.72,-32.343 z m 5.53,47.414 c -11.29,11.414 -26.81,17.453 -44.88,17.453 -43.4,0 -63.15,-33.539 -63.15,-64.699 0,-16.946 5.46,-32.477 15.4,-43.75 11.27,-12.809 27.79,-19.571 47.75,-19.571 19.84,0 36.28,6.867 47.53,19.856 9.77,11.285 15.24,26.781 15.43,43.629 0.21,18.101 -6.39,35.265 -18.08,47.082"
         style="fill:#1a3476;fill-opacity:1;fill-rule:nonzero;stroke:none"
         id="path86"
         inkscape:connector-curvature="0" /><path
         d="m 2544.55,610.004 v 70.277 h -23.78 v -70.277 c 0,-20.719 -10.94,-33.094 -29.27,-33.094 -19.41,0 -31,12.375 -31,33.094 v 70.277 h -23.79 v -70.277 c 0,-33.395 21.44,-54.961 54.62,-54.961 15.68,0 28.88,4.789 38.19,13.859 9.83,9.582 15.03,23.801 15.03,41.102"
         style="fill:#1a3476;fill-opacity:1;fill-rule:nonzero;stroke:none"
         id="path88"
         inkscape:connector-curvature="0" /><path
         d="m 2640.77,658.059 h 34.48 c 14.09,0 20.39,-9.539 20.39,-18.989 0,-8.761 -5.34,-19 -20.39,-19 h -34.48 z m 56.73,-100.25 0.16,-0.161 h 29.96 l -38.38,43.344 c 26.39,5.778 30.36,26.613 30.36,38.602 0,10.929 -4,21.008 -11.3,28.359 -8.03,8.094 -19.45,12.422 -33.05,12.5 -9.65,0 -19.32,0.047 -28.97,0.086 -9.65,0.051 -19.32,0.09 -28.98,0.09 h -0.49 V 557.648 h 23.96 v 40.723 h 21.38 l 35.35,-40.562"
         style="fill:#1a3476;fill-opacity:1;fill-rule:nonzero;stroke:none"
         id="path90"
         inkscape:connector-curvature="0" /><path
         d="m 2892.46,576.957 0.11,0.145 v 52.015 h -53.19 v -21.515 h 31.16 V 586.75 c -8.48,-6.738 -16.33,-9.492 -27.02,-9.492 -30.56,0 -41.45,20.789 -41.45,40.234 0,26.149 17.06,44.406 41.45,44.406 11.13,0 22.87,-4.621 30.65,-12.046 l 0.35,-0.336 14.61,14.961 0.34,0.355 -0.35,0.336 c -12.27,12.105 -28.46,18.762 -45.6,18.762 -20.18,0 -37.02,-7.012 -48.68,-20.285 -10.45,-11.879 -16.2,-28.278 -16.2,-46.153 0,-30.277 17.04,-62.625 64.88,-62.625 20.21,0 35.76,7.02 48.94,22.09"
         style="fill:#1a3476;fill-opacity:1;fill-rule:nonzero;stroke:none"
         id="path92"
         inkscape:connector-curvature="0" /><path
         d="m 1272.34,450.934 c -15.13,1.796 -25.21,4.859 -25.21,13.972 0,9.125 8.95,14.797 23.34,14.797 12.68,0 23.11,-6.324 26.87,-12.574 l 0.24,-0.399 18.09,9.293 -0.21,0.446 c -7.43,15.125 -23.21,23.125 -45.65,23.125 -11.67,-0.09 -22.49,-2.938 -30.48,-8.028 -9.52,-6.066 -14.55,-15.058 -14.55,-26.007 0,-26.289 21.93,-32.512 45.64,-35.332 17.62,-1.895 26.18,-7.274 26.18,-16.438 0,-15.551 -19.87,-16.769 -25.96,-16.769 -15.48,0 -27.41,6.71 -31.92,17.941 l -0.21,0.508 -18.57,-9.617 -0.39,-0.211 0.17,-0.411 c 7.81,-19.242 24.36,-28.589 50.59,-28.589 13.71,0 25.48,3.05 34.05,8.789 9.67,6.5 14.77,16.289 14.77,28.359 0,27.574 -22.49,34.152 -46.79,37.145"
         style="fill:#1a3476;fill-opacity:1;fill-rule:nonzero;stroke:none"
         id="path94"
         inkscape:connector-curvature="0" /><path
         d="m 1443.54,440.523 c -3.68,-4.046 -8.95,-6.187 -15.23,-6.187 h -32.05 v 39.773 h 32.05 c 13.93,0 20.28,-10.332 20.28,-19.937 0,-5.203 -1.8,-10.055 -5.05,-13.649 z m -15.23,55.286 c -9.04,0 -18.08,-0.039 -27.12,-0.079 -9.04,-0.05 -18.08,-0.089 -27.12,-0.089 h -0.49 V 379.602 h 22.68 v 33.847 h 32.05 c 13.2,0 24.28,4.449 32.04,12.867 6.88,7.457 10.68,17.489 10.68,28.274 0,19.851 -13.37,41.219 -42.72,41.219"
         style="fill:#1a3476;fill-opacity:1;fill-rule:nonzero;stroke:none"
         id="path96"
         inkscape:connector-curvature="0" /><path
         d="m 1585.83,422.5 h -41.22 l 20.61,47.254 z m -8.46,73.141 h -24.3 l -51.75,-115.34 -0.3,-0.699 h 24.58 l 9.86,21.699 h 59.52 l 9.56,-21.41 0.13,-0.289 h 24.76 l -51.92,115.753 -0.14,0.286"
         style="fill:#1a3476;fill-opacity:1;fill-rule:nonzero;stroke:none"
         id="path98"
         inkscape:connector-curvature="0" /><path
         d="m 1755.63,410.219 -0.34,-0.348 c -7.11,-7.121 -18.07,-11.531 -28.59,-11.531 -18.75,0 -38.88,10.101 -39.12,38.465 -0.1,11.156 3.91,21.644 10.98,28.773 6.92,6.977 16.65,10.672 28.14,10.672 10.64,0 20.38,-3.812 27.44,-10.715 l 0.35,-0.332 14.8,14.305 0.36,0.359 -0.36,0.352 c -11.75,11.601 -26.48,17.722 -42.59,17.722 -18.01,0 -33.34,-5.824 -44.31,-16.855 -11,-11.063 -17.26,-27.203 -17.16,-44.281 0.09,-16.075 5.29,-30.703 14.65,-41.215 10.85,-12.18 27.04,-18.621 46.82,-18.621 17.39,0 32.64,5.961 44.07,17.25 l 0.35,0.34 -15.14,15.312 -0.35,0.348"
         style="fill:#1a3476;fill-opacity:1;fill-rule:nonzero;stroke:none"
         id="path100"
         inkscape:connector-curvature="0" /><path
         d="m 1816.74,379.602 h 87.11 v 22.347 h -64.59 v 24.992 h 62.3 v 21.207 h -62.3 v 25.469 h 64.59 v 22.024 h -87.11 V 379.602"
         style="fill:#1a3476;fill-opacity:1;fill-rule:nonzero;stroke:none"
         id="path102"
         inkscape:connector-curvature="0" /><path
         d="m 2113.69,422.5 h -41.22 l 20.61,47.254 z m -8.46,73.141 h -24.3 l -51.75,-115.34 -0.31,-0.699 h 24.59 l 9.85,21.699 h 59.53 l 9.55,-21.41 0.14,-0.289 h 24.76 l -51.92,115.753 -0.14,0.286"
         style="fill:#1a3476;fill-opacity:1;fill-rule:nonzero;stroke:none"
         id="path104"
         inkscape:connector-curvature="0" /><path
         d="m 2251.94,426.781 h 29.43 v -19.652 c -8.01,-6.359 -15.41,-8.949 -25.49,-8.949 -18.91,0 -39.12,9.968 -39.12,37.968 0,24.68 16.1,41.911 39.12,41.911 10.51,0 21.6,-4.356 28.92,-11.368 l 0.36,-0.336 13.82,14.153 0.34,0.355 -0.35,0.336 c -11.59,11.442 -26.9,17.731 -43.09,17.731 -42.36,0 -61.31,-31.535 -61.31,-62.782 0,-28.609 16.11,-59.179 61.31,-59.179 19.1,0 33.78,6.64 46.24,20.871 l 0.11,0.148 v 49.172 h -50.29 v -20.379"
         style="fill:#1a3476;fill-opacity:1;fill-rule:nonzero;stroke:none"
         id="path106"
         inkscape:connector-curvature="0" /><path
         d="m 2360.75,379.602 h 87.11 v 22.347 h -64.59 v 24.992 h 62.3 v 21.207 h -62.3 v 25.469 h 64.59 v 22.024 h -87.11 V 379.602"
         style="fill:#1a3476;fill-opacity:1;fill-rule:nonzero;stroke:none"
         id="path108"
         inkscape:connector-curvature="0" /><path
         d="m 2750.66,410.219 -0.35,-0.348 c -7.11,-7.121 -18.06,-11.531 -28.58,-11.531 -18.74,0 -38.86,10.101 -39.12,38.465 -0.1,11.156 3.91,21.644 10.98,28.773 6.91,6.977 16.64,10.672 28.14,10.672 10.63,0 20.38,-3.812 27.43,-10.715 l 0.35,-0.332 14.81,14.305 0.35,0.359 -0.35,0.352 c -11.76,11.601 -26.49,17.722 -42.59,17.722 -18.02,0 -33.35,-5.824 -44.31,-16.855 -11,-11.063 -17.26,-27.203 -17.17,-44.281 0.09,-16.075 5.3,-30.703 14.66,-41.215 10.84,-12.18 27.03,-18.621 46.82,-18.621 17.39,0 32.62,5.961 44.07,17.25 l 0.34,0.34 -15.13,15.312 -0.35,0.348"
         style="fill:#1a3476;fill-opacity:1;fill-rule:nonzero;stroke:none"
         id="path110"
         inkscape:connector-curvature="0" /><path
         d="m 2891.87,495.641 -30.29,-47.059 -28.83,46.832 -0.15,0.227 h -27.65 l 1.07,-1.621 44.21,-66.567 v -47.851 h 22.68 v 47.843 l 45.78,66.438 0.08,0.129 1.16,1.629 h -28.06"
         style="fill:#1a3476;fill-opacity:1;fill-rule:nonzero;stroke:none"
         id="path112"
         inkscape:connector-curvature="0" /><g
         id="g114"><g
           id="g116"
           clip-path="url(#clipPath120)"><path
             d="m 669.711,680.578 h 78.598 c 33.906,0 61.492,-27.582 61.492,-61.488 0,-33.906 -27.586,-61.488 -61.492,-61.488 H 630.406 c -12.258,0 -22.187,9.929 -22.187,22.179 0,12.258 9.929,22.188 22.187,22.188 h 117.903 c 9.445,0 17.125,7.683 17.125,17.121 0,9.437 -7.68,17.121 -17.125,17.121 h -78.598 c -33.906,0 -61.492,27.574 -61.492,61.48 0,33.907 27.586,61.493 61.492,61.493 h 117.906 c 12.246,0 22.184,-9.934 22.184,-22.184 0,-12.25 -9.938,-22.187 -22.184,-22.187 H 669.711 c -9.441,0 -17.125,-7.68 -17.125,-17.122 0,-9.437 7.684,-17.113 17.125,-17.113 z m 198.156,76.914 c 8.281,3.438 17.832,1.535 24.168,-4.804 L 1034.68,610.043 c 9.47,31.254 14.61,64.395 14.61,98.742 0,187.926 -152.352,340.265 -340.278,340.265 -187.922,0 -340.266,-152.339 -340.266,-340.265 0,-34.344 5.137,-67.48 14.598,-98.734 L 525.98,752.688 c 8.657,8.656 22.715,8.656 31.372,0 8.664,-8.668 8.664,-22.711 0,-31.375 L 438.016,601.969 h 103.652 c 12.25,0 22.184,-9.93 22.184,-22.188 0,-12.25 -9.934,-22.179 -22.184,-22.179 H 404.176 c 55.683,-112.047 171.234,-189.09 304.836,-189.09 136.406,0 254.011,80.304 308.268,196.183 L 898.535,683.441 v -103.66 c 0,-12.25 -9.937,-22.179 -22.183,-22.179 -12.254,0 -22.188,9.929 -22.188,22.179 V 737 c 0,8.969 5.406,17.059 13.703,20.492"
             style="fill:url(#radialGradient128);fill-opacity:1;fill-rule:nonzero;stroke:none"
             id="path130"
             inkscape:connector-curvature="0" /></g></g><path
         d="M 2589.67,379.602 H 2604 v 116.207 h -22.68 V 425.23 l -55.64,70.411 h -18.32 V 379.602 h 22.68 v 76.636 l 59.61,-76.609 0.02,-0.027"
         style="fill:#1a3476;fill-opacity:1;fill-rule:nonzero;stroke:none"
         id="path132"
         inkscape:connector-curvature="0" /></g></g></svg>