<svg viewBox="0 0 365 127" xmlns="http://www.w3.org/2000/svg" xml:space="preserve" style="fill-rule:evenodd;clip-rule:evenodd;stroke-linejoin:round;stroke-miterlimit:2"><path d="M88.822 60.876v.166h38.277l-33.191-7.45c-3.895-11.987-14.719-20.845-27.754-21.838v6.532c11.96 1.148 21.478 10.642 22.668 22.59" style="fill:#004990;fill-rule:nonzero"/><path d="M66.641 88.468h-.538v38.276l7.438-33.139c11.982-3.899 20.836-14.719 21.827-27.751h-6.532C87.7 77.681 78.4 87.106 66.641 88.468" style="fill:#ed1b2e;fill-rule:nonzero"/><path d="M38.584 65.854h-.109v-.065H.2l33.324 7.481c3.906 11.968 14.722 20.808 27.743 21.799v-6.532c-11.992-1.152-21.533-10.69-22.683-22.683M32.052 60.969h6.532l-6.532-.001v.001ZM51.53 31.221 56.6 8.633H9.022v52.335h20.359l.015-.202A34.267 34.267 0 0 1 51.53 31.221" style="fill:#004990;fill-rule:nonzero"/><path d="m61.258.044-7.452 33.201c-11.944 3.915-20.765 14.72-21.754 27.724h6.532c1.144-11.912 10.567-21.395 22.446-22.65h.228v-.033h.009v-6.532c-.005 0-.007 0-.009.002V.044ZM68.353 63.393a4.705 4.705 0 0 1-9.408 0 4.705 4.705 0 0 1 9.408 0" style="fill:#ed1b2e;fill-rule:nonzero"/><path d="M61.355 56.395V40.983h-.181c-10.463 1.171-18.777 9.536-19.902 19.985h15.426a7.396 7.396 0 0 1 4.657-4.573M132.514 32.556h6.716v23.107h9.715V61.1h-16.431V32.556Z" style="fill:#004990;fill-rule:nonzero"/><path style="fill:#004990" d="M151.222 53.905h6.236v7.196h-6.236z"/><path d="M167.372 52.385v1c0 2.158.6 3.797 2.918 3.797 2.359 0 3.039-1.758 3.039-3.398 0-6.156-12.273-2.718-12.273-13.392 0-4.558 2.438-8.396 9.355-8.396 6.716 0 9.114 3.398 9.114 7.796v.68h-6.476c0-1.359-.16-2.359-.56-2.999-.4-.679-1.039-.999-2.038-.999-1.68 0-2.679.999-2.679 3.078 0 5.957 12.273 2.958 12.273 13.033 0 6.476-3.598 9.075-9.755 9.075-4.877 0-9.395-1.479-9.395-7.436v-1.839h6.477Z" style="fill:#004990;fill-rule:nonzero"/><path style="fill:#004990" d="M183.481 53.905h6.237v7.196h-6.237z"/><path d="M206.028 42.471c0-4.158-.479-5.997-2.718-5.997-2.679 0-2.919 2.559-2.919 10.035 0 8.475.28 10.674 3.078 10.674 2.479 0 2.759-2.838 2.799-7.276h6.476v1c0 6.156-1.719 10.753-10.034 10.753-8.596 0-9.275-6.436-9.275-15.031 0-7.316.4-14.632 9.914-14.632 5.917 0 9.156 2.558 9.156 9.275v1.199h-6.477Z" style="fill:#004990;fill-rule:nonzero"/><path style="fill:#004990" d="M215.74 53.905h6.237v7.196h-6.237z"/><path d="M132.548 89.447V68.035h10.706v2.141h-8.336v7.081h7.822v2.14h-7.822v7.908h8.393v2.142h-10.763ZM148.175 75.315h.057c1.085-1.37 2.256-2.17 3.968-2.17 2.37 0 3.912 1.256 3.912 4.054v12.248h-2.255V77.828c0-1.657-.543-2.77-2.37-2.77-.828 0-1.627.314-2.227.885-.914.828-1.028 1.741-1.028 2.884v10.62h-2.255V73.574h2.198v1.741ZM161.181 81.51c0 3.883.656 6.452 2.883 6.452 3.426 0 3.398-4.254 3.398-6.795 0-3.14-.657-6.109-3.169-6.109-2.998 0-3.112 4.31-3.112 6.452m6.281-7.937h2.255v13.96c0 1.942-.143 3.426-1.199 5.111-.999 1.57-2.627 2.198-4.368 2.198-2.541 0-4.425-1.17-4.74-3.883h2.199c.2 1.428 1.114 1.971 2.484 1.971 3.654 0 3.283-3.598 3.312-5.339h-.057c-.943 1.627-1.971 2.284-3.426 2.284-2.998 0-5.082-2.085-5.082-8.479 0-3.341.828-8.251 5.025-8.251 1.456 0 2.769.714 3.54 2.226h.057v-1.798ZM173.086 73.574h2.255v15.873h-2.255V73.574Zm0-5.539h2.255v2.855h-2.255v-2.855ZM180.848 75.315h.057c1.085-1.37 2.256-2.17 3.968-2.17 2.37 0 3.912 1.256 3.912 4.054v12.248h-2.255V77.828c0-1.657-.543-2.77-2.37-2.77-.828 0-1.627.314-2.227.885-.914.828-1.028 1.741-1.028 2.884v10.62h-2.255V73.574h2.198v1.741ZM199.193 79.854c-.086-1.855.028-4.796-2.598-4.796-2.627 0-2.684 2.912-2.769 4.796h5.367Zm2.227 4.312c.143 3.111-1.456 5.709-4.796 5.709-2.998 0-5.139-1.999-5.139-8.393 0-3.341.885-8.337 5.082-8.337 5.138 0 4.853 4.854 4.967 8.564h-7.708c.057 2.142-.315 6.253 2.854 6.253 2.17 0 2.77-1.999 2.627-3.796h2.113ZM211.379 79.854c-.086-1.855.028-4.796-2.598-4.796-2.627 0-2.684 2.912-2.769 4.796h5.367Zm2.227 4.312c.143 3.111-1.456 5.709-4.796 5.709-2.998 0-5.139-1.999-5.139-8.393 0-3.341.885-8.337 5.082-8.337 5.138 0 4.853 4.854 4.967 8.564h-7.708c.057 2.142-.315 6.253 2.854 6.253 2.17 0 2.77-1.999 2.627-3.796h2.113ZM218.79 76.171h.057c.942-2.084 2.284-2.969 4.653-2.77v2.228c-2.912-.515-4.625 1.313-4.625 4.196v9.621h-2.255V73.573h2.17v2.598ZM225.511 73.574h2.255v15.873h-2.255V73.574Zm0-5.539h2.255v2.855h-2.255v-2.855ZM233.277 75.315h.058c1.085-1.37 2.255-2.17 3.967-2.17 2.371 0 3.912 1.256 3.912 4.054v12.248h-2.255V77.828c0-1.657-.543-2.77-2.37-2.77-.828 0-1.627.314-2.227.885-.913.828-1.027 1.741-1.027 2.884v10.62h-2.256V73.574h2.198v1.741ZM246.283 81.51c0 3.883.656 6.452 2.883 6.452 3.427 0 3.397-4.254 3.397-6.795 0-3.14-.656-6.109-3.169-6.109-2.997 0-3.111 4.31-3.111 6.452m6.28-7.937h2.256v13.96c0 1.942-.142 3.426-1.199 5.111-.999 1.57-2.627 2.198-4.368 2.198-2.541 0-4.425-1.17-4.74-3.883h2.199c.2 1.428 1.113 1.971 2.484 1.971 3.654 0 3.283-3.598 3.312-5.339h-.058c-.941 1.627-1.97 2.284-3.426 2.284-2.997 0-5.081-2.085-5.081-8.479 0-3.341.827-8.251 5.025-8.251 1.456 0 2.769.714 3.54 2.226h.056v-1.798ZM278.347 89.618h-1.827v-3.34h-.058c-.628 2.427-2.541 3.683-4.91 3.683-6.366 0-6.851-6.338-6.851-11.363 0-4.996.884-10.991 7.08-10.991 4.082 0 6.423 2.656 6.366 6.652h-2.399c-.028-2.626-1.141-4.453-3.853-4.511-4.683-.085-4.739 5.282-4.739 8.936 0 3.254-.172 8.936 4.053 9.136 4.397.199 4.796-3.826 4.768-7.223h-4.768v-2.141h7.138v11.162ZM284.15 76.171h.057c.942-2.084 2.284-2.969 4.653-2.77v2.228c-2.911-.515-4.624 1.313-4.624 4.196v9.621h-2.256V73.573h2.17v2.598ZM295.811 75.058c-2.313 0-3.341 1.827-3.341 6.623 0 3.74.714 6.281 3.341 6.281 2.684 0 3.34-2.541 3.34-6.281 0-4.796-.971-6.623-3.34-6.623m0 14.817c-3.427 0-5.682-2.055-5.682-8.908 0-4.796 1.77-7.822 5.682-7.822 3.911 0 5.681 3.026 5.681 7.822 0 6.881-2.199 8.908-5.681 8.908M312.023 87.363h-.058c-.77 1.627-2.226 2.513-3.768 2.513-2.369 0-3.825-1.257-3.825-4.055V73.574h2.255v12.333c0 1.342.428 2.056 2.027 2.056 1.085 0 2.084-.486 2.712-1.4.514-.799.657-1.884.657-2.798V73.574h2.255v15.873h-2.255v-2.084ZM322.934 75.058c-2.94 0-2.998 4.168-2.998 6.424 0 2.198-.085 6.48 3.026 6.48 2.341 0 3.084-2.455 3.084-6.737 0-2.085-.228-6.167-3.112-6.167m-2.998 19.756h-2.255v-21.24h2.17v1.769h.057c.713-1.484 1.999-2.112 3.283-2.198 4.025 0 5.196 4.054 5.196 7.309 0 4.51-.8 9.421-5.082 9.421-1.599 0-2.513-.799-3.311-2.085h-.058v7.024ZM342.302 81.271c2.199.92 3.838 1.6 3.838 4.318 0 2.578-1.679 4.217-4.298 4.217-2.738 0-4.178-1.938-4.117-4.597h1.279c-.02 1.879.76 3.438 2.819 3.438 1.819 0 3.018-1.159 3.018-3.019 0-2.258-1.64-2.618-3.358-3.297-2.019-.8-3.458-1.7-3.458-4.098 0-2.439 1.459-4.138 3.897-4.138 2.339 0 3.878 1.619 3.818 3.978h-1.259c.08-1.659-.9-2.819-2.578-2.819-1.7 0-2.58 1.26-2.58 2.899 0 1.479.481 2.058 1.82 2.639l1.159.479Z" style="fill:#004990;fill-rule:nonzero"/><path style="fill:#004990" d="M348.558 87.688h1.379v1.759h-1.379z"/><path d="m358.552 83.671-1.979-7.576h-.04l-1.979 7.576h3.998Zm-1.239-9.216 4.017 14.992h-1.319l-1.179-4.617h-4.557l-1.22 4.617h-1.259l4.018-14.992h1.499Z" style="fill:#004990;fill-rule:nonzero"/><path style="fill:#004990" d="M363.189 87.688h1.379v1.759h-1.379z"/></svg>