<?xml version="1.0" encoding="UTF-8" standalone="no"?><!DOCTYPE svg PUBLIC "-//W3C//DTD SVG 1.1//EN" "http://www.w3.org/Graphics/SVG/1.1/DTD/svg11.dtd"><svg width="100%" height="100%" viewBox="0 0 365 127" version="1.1" xmlns="http://www.w3.org/2000/svg" xmlns:xlink="http://www.w3.org/1999/xlink" xml:space="preserve" xmlns:serif="http://www.serif.com/" style="fill-rule:evenodd;clip-rule:evenodd;stroke-linejoin:round;stroke-miterlimit:2;"><g id="Calque-1" serif:id="Calque 1"><path d="M88.822,60.876l0,0.166l38.277,0l-33.191,-7.45c-3.895,-11.987 -14.719,-20.845 -27.754,-21.838l0,6.532c11.96,1.148 21.478,10.642 22.668,22.59" style="fill:#004990;fill-rule:nonzero;"/><path d="M66.641,88.468l-0.538,0l0,38.276l7.438,-33.139c11.982,-3.899 20.836,-14.719 21.827,-27.751l-6.532,0c-1.136,11.827 -10.436,21.252 -22.195,22.614" style="fill:#ed1b2e;fill-rule:nonzero;"/><path d="M38.584,65.854l-0.109,0l0,-0.065l-38.275,0l33.324,7.481c3.906,11.968 14.722,20.808 27.743,21.799l0,-6.532c-11.992,-1.152 -21.533,-10.69 -22.683,-22.683" style="fill:#004990;fill-rule:nonzero;"/><path d="M32.052,60.969l6.532,0l-6.532,-0.001l0,0.001Z" style="fill:#004990;fill-rule:nonzero;"/><path d="M51.53,31.221l5.07,-22.588l-47.578,0l0,52.335l20.359,0l0.015,-0.202c1.019,-13.397 9.643,-24.835 22.134,-29.545" style="fill:#004990;fill-rule:nonzero;"/><path d="M61.258,0.044l-7.452,33.201c-11.944,3.915 -20.765,14.72 -21.754,27.724l6.532,0c1.144,-11.912 10.567,-21.395 22.446,-22.65l0.228,0l0,-0.033l0.009,0l0,-6.532c-0.005,0 -0.007,0 -0.009,0.002l0,-31.712Z" style="fill:#ed1b2e;fill-rule:nonzero;"/><path d="M68.353,63.393c0,2.597 -2.106,4.704 -4.705,4.704c-2.595,0 -4.703,-2.107 -4.703,-4.704c0,-2.597 2.108,-4.703 4.703,-4.703c2.599,0 4.705,2.106 4.705,4.703" style="fill:#ed1b2e;fill-rule:nonzero;"/><path d="M61.355,56.395l0,-15.412l-0.097,0l-0.084,0c-10.463,1.171 -18.777,9.536 -19.902,19.985l15.426,0c0.755,-2.157 2.482,-3.858 4.657,-4.573" style="fill:#004990;fill-rule:nonzero;"/><path d="M132.514,32.556l6.716,0l0,23.107l9.715,0l0,5.437l-16.431,0l0,-28.544Z" style="fill:#004990;fill-rule:nonzero;"/><rect x="151.222" y="53.905" width="6.236" height="7.196" style="fill:#004990;"/><path d="M167.372,52.385l0,1c0,2.158 0.6,3.797 2.918,3.797c2.359,0 3.039,-1.758 3.039,-3.398c0,-6.156 -12.273,-2.718 -12.273,-13.392c0,-4.558 2.438,-8.396 9.355,-8.396c6.716,0 9.114,3.398 9.114,7.796l0,0.68l-6.476,0c0,-1.359 -0.16,-2.359 -0.56,-2.999c-0.4,-0.679 -1.039,-0.999 -2.038,-0.999c-1.68,0 -2.679,0.999 -2.679,3.078c0,5.957 12.273,2.958 12.273,13.033c0,6.476 -3.598,9.075 -9.755,9.075c-4.877,0 -9.395,-1.479 -9.395,-7.436l0,-1.839l6.477,0Z" style="fill:#004990;fill-rule:nonzero;"/><rect x="183.481" y="53.905" width="6.237" height="7.196" style="fill:#004990;"/><path d="M206.028,42.471c0,-4.158 -0.479,-5.997 -2.718,-5.997c-2.679,0 -2.919,2.559 -2.919,10.035c0,8.475 0.28,10.674 3.078,10.674c2.479,0 2.759,-2.838 2.799,-7.276l6.476,0l0,1c0,6.156 -1.719,10.753 -10.034,10.753c-8.596,0 -9.275,-6.436 -9.275,-15.031c0,-7.316 0.4,-14.632 9.914,-14.632c5.917,0 9.156,2.558 9.156,9.275l0,1.199l-6.477,0Z" style="fill:#004990;fill-rule:nonzero;"/><rect x="215.74" y="53.905" width="6.237" height="7.196" style="fill:#004990;"/><path d="M132.548,89.447l0,-21.412l10.706,0l0,2.141l-8.336,0l0,7.081l7.822,0l0,2.14l-7.822,0l0,7.908l8.393,0l0,2.142l-10.763,0Z" style="fill:#004990;fill-rule:nonzero;"/><path d="M148.175,75.315l0.057,0c1.085,-1.37 2.256,-2.17 3.968,-2.17c2.37,0 3.912,1.256 3.912,4.054l0,12.248l-2.255,0l0,-11.619c0,-1.657 -0.543,-2.77 -2.37,-2.77c-0.828,0 -1.627,0.314 -2.227,0.885c-0.914,0.828 -1.028,1.741 -1.028,2.884l0,10.62l-2.255,0l0,-15.873l2.198,0l0,1.741Z" style="fill:#004990;fill-rule:nonzero;"/><path d="M161.181,81.51c0,3.883 0.656,6.452 2.883,6.452c3.426,0 3.398,-4.254 3.398,-6.795c0,-3.14 -0.657,-6.109 -3.169,-6.109c-2.998,0 -3.112,4.31 -3.112,6.452m6.281,-7.937l2.255,0l0,13.96c0,1.942 -0.143,3.426 -1.199,5.111c-0.999,1.57 -2.627,2.198 -4.368,2.198c-2.541,0 -4.425,-1.17 -4.74,-3.883l2.199,0c0.2,1.428 1.114,1.971 2.484,1.971c3.654,0 3.283,-3.598 3.312,-5.339l-0.057,0c-0.943,1.627 -1.971,2.284 -3.426,2.284c-2.998,0 -5.082,-2.085 -5.082,-8.479c0,-3.341 0.828,-8.251 5.025,-8.251c1.456,0 2.769,0.714 3.54,2.226l0.057,0l0,-1.798Z" style="fill:#004990;fill-rule:nonzero;"/><path d="M173.086,73.574l2.255,0l0,15.873l-2.255,0l0,-15.873Zm0,-5.539l2.255,0l0,2.855l-2.255,0l0,-2.855Z" style="fill:#004990;fill-rule:nonzero;"/><path d="M180.848,75.315l0.057,0c1.085,-1.37 2.256,-2.17 3.968,-2.17c2.37,0 3.912,1.256 3.912,4.054l0,12.248l-2.255,0l0,-11.619c0,-1.657 -0.543,-2.77 -2.37,-2.77c-0.828,0 -1.627,0.314 -2.227,0.885c-0.914,0.828 -1.028,1.741 -1.028,2.884l0,10.62l-2.255,0l0,-15.873l2.198,0l0,1.741Z" style="fill:#004990;fill-rule:nonzero;"/><path d="M199.193,79.854c-0.086,-1.855 0.028,-4.796 -2.598,-4.796c-2.627,0 -2.684,2.912 -2.769,4.796l5.367,0Zm2.227,4.312c0.143,3.111 -1.456,5.709 -4.796,5.709c-2.998,0 -5.139,-1.999 -5.139,-8.393c0,-3.341 0.885,-8.337 5.082,-8.337c5.138,0 4.853,4.854 4.967,8.564l-7.708,0c0.057,2.142 -0.315,6.253 2.854,6.253c2.17,0 2.77,-1.999 2.627,-3.796l2.113,0Z" style="fill:#004990;fill-rule:nonzero;"/><path d="M211.379,79.854c-0.086,-1.855 0.028,-4.796 -2.598,-4.796c-2.627,0 -2.684,2.912 -2.769,4.796l5.367,0Zm2.227,4.312c0.143,3.111 -1.456,5.709 -4.796,5.709c-2.998,0 -5.139,-1.999 -5.139,-8.393c0,-3.341 0.885,-8.337 5.082,-8.337c5.138,0 4.853,4.854 4.967,8.564l-7.708,0c0.057,2.142 -0.315,6.253 2.854,6.253c2.17,0 2.77,-1.999 2.627,-3.796l2.113,0Z" style="fill:#004990;fill-rule:nonzero;"/><path d="M218.79,76.171l0.057,0c0.942,-2.084 2.284,-2.969 4.653,-2.77l0,2.228c-2.912,-0.515 -4.625,1.313 -4.625,4.196l0,9.621l-2.255,0l0,-15.873l2.17,0l0,2.598Z" style="fill:#004990;fill-rule:nonzero;"/><path d="M225.511,73.574l2.255,0l0,15.873l-2.255,0l0,-15.873Zm0,-5.539l2.255,0l0,2.855l-2.255,0l0,-2.855Z" style="fill:#004990;fill-rule:nonzero;"/><path d="M233.277,75.315l0.058,0c1.085,-1.37 2.255,-2.17 3.967,-2.17c2.371,0 3.912,1.256 3.912,4.054l0,12.248l-2.255,0l0,-11.619c0,-1.657 -0.543,-2.77 -2.37,-2.77c-0.828,0 -1.627,0.314 -2.227,0.885c-0.913,0.828 -1.027,1.741 -1.027,2.884l0,10.62l-2.256,0l0,-15.873l2.198,0l0,1.741Z" style="fill:#004990;fill-rule:nonzero;"/><path d="M246.283,81.51c0,3.883 0.656,6.452 2.883,6.452c3.427,0 3.397,-4.254 3.397,-6.795c0,-3.14 -0.656,-6.109 -3.169,-6.109c-2.997,0 -3.111,4.31 -3.111,6.452m6.28,-7.937l2.256,0l0,13.96c0,1.942 -0.142,3.426 -1.199,5.111c-0.999,1.57 -2.627,2.198 -4.368,2.198c-2.541,0 -4.425,-1.17 -4.74,-3.883l2.199,0c0.2,1.428 1.113,1.971 2.484,1.971c3.654,0 3.283,-3.598 3.312,-5.339l-0.058,0c-0.941,1.627 -1.97,2.284 -3.426,2.284c-2.997,0 -5.081,-2.085 -5.081,-8.479c0,-3.341 0.827,-8.251 5.025,-8.251c1.456,0 2.769,0.714 3.54,2.226l0.056,0l0,-1.798Z" style="fill:#004990;fill-rule:nonzero;"/><path d="M278.347,89.618l-1.827,0l0,-3.34l-0.058,0c-0.628,2.427 -2.541,3.683 -4.91,3.683c-6.366,0 -6.851,-6.338 -6.851,-11.363c0,-4.996 0.884,-10.991 7.08,-10.991c4.082,0 6.423,2.656 6.366,6.652l-2.399,0c-0.028,-2.626 -1.141,-4.453 -3.853,-4.511c-4.683,-0.085 -4.739,5.282 -4.739,8.936c0,3.254 -0.172,8.936 4.053,9.136c4.397,0.199 4.796,-3.826 4.768,-7.223l-4.768,0l0,-2.141l7.138,0l0,11.162Z" style="fill:#004990;fill-rule:nonzero;"/><path d="M284.15,76.171l0.057,0c0.942,-2.084 2.284,-2.969 4.653,-2.77l0,2.228c-2.911,-0.515 -4.624,1.313 -4.624,4.196l0,9.621l-2.256,0l0,-15.873l2.17,0l0,2.598Z" style="fill:#004990;fill-rule:nonzero;"/><path d="M295.811,75.058c-2.313,0 -3.341,1.827 -3.341,6.623c0,3.74 0.714,6.281 3.341,6.281c2.684,0 3.34,-2.541 3.34,-6.281c0,-4.796 -0.971,-6.623 -3.34,-6.623m0,14.817c-3.427,0 -5.682,-2.055 -5.682,-8.908c0,-4.796 1.77,-7.822 5.682,-7.822c3.911,0 5.681,3.026 5.681,7.822c0,6.881 -2.199,8.908 -5.681,8.908" style="fill:#004990;fill-rule:nonzero;"/><path d="M312.023,87.363l-0.058,0c-0.77,1.627 -2.226,2.513 -3.768,2.513c-2.369,0 -3.825,-1.257 -3.825,-4.055l0,-12.247l2.255,0l0,12.333c0,1.342 0.428,2.056 2.027,2.056c1.085,0 2.084,-0.486 2.712,-1.4c0.514,-0.799 0.657,-1.884 0.657,-2.798l0,-10.191l2.255,0l0,15.873l-2.255,0l0,-2.084Z" style="fill:#004990;fill-rule:nonzero;"/><path d="M322.934,75.058c-2.94,0 -2.998,4.168 -2.998,6.424c0,2.198 -0.085,6.48 3.026,6.48c2.341,0 3.084,-2.455 3.084,-6.737c0,-2.085 -0.228,-6.167 -3.112,-6.167m-2.998,19.756l-2.255,0l0,-21.24l2.17,0l0,1.769l0.057,0c0.713,-1.484 1.999,-2.112 3.283,-2.198c4.025,0 5.196,4.054 5.196,7.309c0,4.51 -0.8,9.421 -5.082,9.421c-1.599,0 -2.513,-0.799 -3.311,-2.085l-0.058,0l0,7.024Z" style="fill:#004990;fill-rule:nonzero;"/><path d="M342.302,81.271c2.199,0.92 3.838,1.6 3.838,4.318c0,2.578 -1.679,4.217 -4.298,4.217c-2.738,0 -4.178,-1.938 -4.117,-4.597l1.279,0c-0.02,1.879 0.76,3.438 2.819,3.438c1.819,0 3.018,-1.159 3.018,-3.019c0,-2.258 -1.64,-2.618 -3.358,-3.297c-2.019,-0.8 -3.458,-1.7 -3.458,-4.098c0,-2.439 1.459,-4.138 3.897,-4.138c2.339,0 3.878,1.619 3.818,3.978l-1.259,0c0.08,-1.659 -0.9,-2.819 -2.578,-2.819c-1.7,0 -2.58,1.26 -2.58,2.899c0,1.479 0.481,2.058 1.82,2.639l1.159,0.479Z" style="fill:#004990;fill-rule:nonzero;"/><rect x="348.558" y="87.688" width="1.379" height="1.759" style="fill:#004990;"/><path d="M358.552,83.671l-1.979,-7.576l-0.04,0l-1.979,7.576l3.998,0Zm-1.239,-9.216l4.017,14.992l-1.319,0l-1.179,-4.617l-4.557,0l-1.22,4.617l-1.259,0l4.018,-14.992l1.499,0Z" style="fill:#004990;fill-rule:nonzero;"/><rect x="363.189" y="87.688" width="1.379" height="1.759" style="fill:#004990;"/></g></svg>