<svg xmlns="http://www.w3.org/2000/svg" xmlns:xlink="http://www.w3.org/1999/xlink" width="756.818" height="756.818" viewBox="0 0 567.613 567.613" version="1.2"><defs><symbol overflow="visible" id="r" style="overflow:visible"><path style="stroke:none" d="M39.734-1.719a84.533 84.533 0 0 1-3 3.86A51.319 51.319 0 0 1 33 6.266a39.464 39.464 0 0 1-4.297 3.687c-1.512 1.125-3.074 1.961-4.687 2.516a11.71 11.71 0 0 1-4.875.61c-1.637-.138-3.262-.798-4.875-1.985a10.645 10.645 0 0 1-2.329-2.297 9.997 9.997 0 0 1-1.5-2.875c-.523-1.649-.605-3.531-.25-5.656.364-2.125 1.004-4.344 1.922-6.657a59.373 59.373 0 0 1 3.391-7.03 130.047 130.047 0 0 1 4.125-6.86 164.068 164.068 0 0 1 4.156-6.14 461.107 461.107 0 0 1 3.485-4.829c.25-.344.609-.836 1.078-1.484.476-.657 1.015-1.38 1.61-2.172.593-.79 1.206-1.602 1.843-2.438.644-.832 1.27-1.617 1.875-2.36.601-.75 1.148-1.39 1.64-1.921.5-.531.899-.89 1.204-1.078.3-.188.562-.281.78-.281.22-.008.485.101.798.328.968.718 1.52 1.59 1.656 2.61.145 1.01-.137 2.007-.844 2.983a131.36 131.36 0 0 1-3.25 4.25 120.29 120.29 0 0 0-3.234 4.235c-.461.637-1.133 1.57-2.016 2.797a155.114 155.114 0 0 0-2.922 4.234 253.284 253.284 0 0 0-3.359 5.219 124.895 124.895 0 0 0-3.344 5.703 74.63 74.63 0 0 0-2.828 5.688c-.836 1.875-1.46 3.617-1.875 5.218-.418 1.602-.57 3.008-.453 4.219.113 1.219.598 2.133 1.453 2.75.8.594 1.727.79 2.781.594 1.063-.188 2.157-.633 3.282-1.328 1.132-.7 2.27-1.57 3.406-2.61A49.352 49.352 0 0 0 29.75.72c1-1.082 1.89-2.114 2.672-3.094a72.862 72.862 0 0 0 1.812-2.375 110.026 110.026 0 0 0 2.828-4.047 235.789 235.789 0 0 0 3.126-4.75 132.48 132.48 0 0 0 3.14-5.156c1.031-1.79 1.992-3.55 2.89-5.281a91.47 91.47 0 0 0 2.423-5.063c.718-1.644 1.273-3.176 1.672-4.594.082-.226.164-.547.25-.953.082-.414.19-.722.328-.922.257-.351.53-.554.812-.609.29-.05.582-.023.875.078.3.094.594.242.875.438.29.187.555.37.797.547.52.375.938.714 1.25 1.015.313.293.598.735.86 1.328.175.387.113 1.074-.188 2.063-.293.98-.758 2.156-1.39 3.531a79.254 79.254 0 0 1-2.313 4.563 254.294 254.294 0 0 1-2.828 5.078c-.993 1.718-2 3.422-3.032 5.109a356.14 356.14 0 0 1-2.89 4.656c-.899 1.418-1.7 2.653-2.407 3.703a61.303 61.303 0 0 1-1.578 2.297zm0 0"/></symbol><symbol overflow="visible" id="a" style="overflow:visible"><path style="stroke:none" d="M-41.719-8.516a46.579 46.579 0 0 1 7.36-4.312 30.39 30.39 0 0 1 7.828-2.5 25.243 25.243 0 0 1 8.062-.11c2.719.399 5.407 1.352 8.063 2.86.668.387 1.351.836 2.047 1.344.699.511 1.382 1.07 2.046 1.671a29.09 29.09 0 0 1 1.875 1.86 19.502 19.502 0 0 1 1.532 1.875c.18.242.37.512.578.812.2.305.355.618.469.938.117.312.148.621.093.922-.05.293-.226.547-.53.765-.259.188-.571.336-.938.438a4.54 4.54 0 0 1-1.141.14c-.395 0-.773-.03-1.14-.093A2.798 2.798 0 0 1-6.5-2.25c-.094.23-.508.688-1.25 1.375-.738.688-1.703 1.516-2.89 2.484-1.196.97-2.54 2.036-4.032 3.204-1.5 1.164-3.05 2.363-4.656 3.593a363.833 363.833 0 0 1-4.813 3.656c-1.613 1.208-3.097 2.32-4.453 3.344-1.363 1.02-2.547 1.899-3.547 2.64a235.126 235.126 0 0 1-8.36 5.86 198.716 198.716 0 0 0-6.155 4.266c.18.25.277.52.297.812.011.301-.114.547-.375.735-.344.25-.727.39-1.157.422-.425.039-.843.004-1.25-.11a3.857 3.857 0 0 1-1.172-.562 3.412 3.412 0 0 1-.874-.844 5.735 5.735 0 0 1-.547-.938c-.145-.312-.301-.648-.47-1-1.382-3.417-2.179-6.777-2.39-10.078-.218-3.293.14-6.445 1.078-9.453.93-3.011 2.383-5.84 4.36-8.484 1.98-2.656 4.46-5.05 7.437-7.188zm2.875 5.282C-41.02-1.66-42.89.082-44.454 2a23.148 23.148 0 0 0-3.64 6.172c-.863 2.195-1.347 4.523-1.453 6.984-.113 2.457.156 5.004.813 7.64l.14-.108a620.659 620.659 0 0 0 16.61-12.344 610.327 610.327 0 0 0 16.14-12.86c.805-.675 1.61-1.343 2.422-2a30.362 30.362 0 0 0 2.313-2.093c-2.157-1.563-4.446-2.532-6.875-2.907a21.007 21.007 0 0 0-7.297.125A28.834 28.834 0 0 0-32.421-7c-2.333 1.117-4.474 2.371-6.423 3.766zm0 0"/></symbol><symbol overflow="visible" id="c" style="overflow:visible"><path style="stroke:none" d="M-15.328-22.563c.586-.226 1.262-.14 2.031.266.762.406 1.555 1.008 2.375 1.797a30.523 30.523 0 0 1 2.469 2.703 51.472 51.472 0 0 1 2.281 3.047 47.674 47.674 0 0 1 1.797 2.828c.5.875.84 1.54 1.016 1.985.343.855.558 1.68.64 2.468.086.793.024 1.54-.187 2.235A4.598 4.598 0 0 1-4-3.375c-.531.543-1.258 1-2.188 1.375a2640.283 2640.283 0 0 1-20 7.86 2792.6 2792.6 0 0 0-20.093 7.906c-1.051.414-2.078.851-3.078 1.312-1.008.469-2.04.91-3.094 1.328a16.56 16.56 0 0 1-.922.297 4.964 4.964 0 0 1-1 .188c-.32.02-.625-.032-.906-.157-.282-.125-.492-.367-.64-.718a4.963 4.963 0 0 1-.282-1.157 4.144 4.144 0 0 1 .016-1.28c.062-.419.187-.813.375-1.188.18-.375.433-.7.765-.97a5.335 5.335 0 0 1 1.375-.75 47.411 47.411 0 0 0 1.563-.593 2254.905 2254.905 0 0 1 19.734-8.187 2477.01 2477.01 0 0 1 19.781-7.97c.742-.3 1.485-.6 2.235-.905.742-.313 1.476-.66 2.203-1.047-.29-.664-.727-1.446-1.313-2.344a32.566 32.566 0 0 0-1.953-2.64 25.56 25.56 0 0 0-2.187-2.36c-.75-.719-1.446-1.238-2.094-1.563a32.138 32.138 0 0 1-.969-.437c-.344-.156-.586-.422-.734-.797-.125-.32-.145-.707-.063-1.156.074-.457.219-.899.438-1.328.219-.438.48-.832.781-1.188.293-.351.602-.593.922-.718zm0 0"/></symbol><symbol overflow="visible" id="d" style="overflow:visible"><path style="stroke:none" d="M-15.156-28.484c.449-.094.922-.008 1.422.25.5.261 1 .601 1.5 1.015.492.418.96.856 1.406 1.313.45.46.812.84 1.094 1.14a41.81 41.81 0 0 1 2.203 2.313c.687.773 1.32 1.586 1.89 2.437.563.856 1.059 1.75 1.485 2.688.43.937.761 1.953 1 3.047l.203.61c.187.866.277 1.745.265 2.64a9.242 9.242 0 0 1-.39 2.594 7.929 7.929 0 0 1-1.14 2.312c-.509.719-1.177 1.336-2 1.844-.657.386-1.458.75-2.407 1.093-.945.344-1.938.668-2.969.97-1.039.292-2.066.57-3.078.827-1.02.25-1.914.477-2.687.672a1518.655 1518.655 0 0 1-23.97 6.172c-.913.25-1.831.484-2.75.703-.913.227-1.835.446-2.765.657-1.57.332-2.93.523-4.078.578-1.144.05-2.129-.121-2.953-.516-.832-.398-1.52-1.078-2.063-2.047-.539-.969-1-2.312-1.374-4.031a387.213 387.213 0 0 1-1.063-5.156c-.352-1.727-.719-3.461-1.094-5.204a24.477 24.477 0 0 0-.39-1.578 4.7 4.7 0 0 1-.188-1.625c-.02-.32 0-.613.063-.875.062-.257.293-.437.687-.53.95-.196 1.719-.024 2.313.515.593.531 1.07 1.215 1.422 2.047.343.824.609 1.71.796 2.656.188.937.352 1.71.485 2.312l1.11 5.141c.105.523.214 1.047.327 1.578.117.531.258 1.055.422 1.578.438.051.875.063 1.313.032a8.819 8.819 0 0 0 1.328-.204c2.867-.617 5.68-1.296 8.437-2.046 2.762-.75 5.563-1.5 8.407-2.25a210.169 210.169 0 0 0-1.516-4.75 157.031 157.031 0 0 0-1.688-4.735 4.038 4.038 0 0 0-.187-.64 5.617 5.617 0 0 1-.188-.61c-.113-.55-.046-.969.203-1.25.243-.289.626-.492 1.157-.61.367-.07.71-.124 1.031-.155a3.619 3.619 0 0 1 1 .046c.574.075 1.027.297 1.36.672.324.367.59.805.796 1.313.2.5.36 1.039.485 1.61.117.562.23 1.054.343 1.468.305 1.094.586 2.18.844 3.25.25 1.062.524 2.125.813 3.187a93.128 93.128 0 0 1 2.468-.656c1.094-.289 2.325-.617 3.688-.984 1.367-.364 2.777-.75 4.234-1.157a251.8 251.8 0 0 0 4.11-1.203 62.327 62.327 0 0 0 3.328-1.093c.949-.344 1.578-.618 1.89-.829.493-.406.782-.812.875-1.218.094-.407.075-.91-.062-1.516-.207-.976-.617-1.96-1.234-2.953-.614-1-1.329-1.945-2.141-2.844A28.125 28.125 0 0 0-13.906-21a25.218 25.218 0 0 0-2.625-1.984c-.301-.227-.61-.461-.922-.703a1.627 1.627 0 0 1-.61-.954c-.082-.394-.039-.8.125-1.218.157-.414.383-.805.672-1.172a4.515 4.515 0 0 1 1.016-.953c.375-.258.742-.426 1.094-.5zM-64.11 8.39c-.27.062-.493.015-.672-.141a1.808 1.808 0 0 1-.469-.64 3.777 3.777 0 0 1-.281-.813 24.253 24.253 0 0 1-.156-.734c-.051-.262-.11-.57-.172-.922a3.947 3.947 0 0 1-.047-1.047c.023-.336.105-.637.25-.907.148-.261.386-.43.719-.5.136-.03.421-.09.859-.171.437-.075.914-.164 1.422-.266.5-.094.96-.18 1.375-.25.406-.074.633-.094.672-.063.324.133.543.364.656.688.117.32.203.625.266.906.18.82.273 1.438.28 1.844 0 .414-.097.738-.296.969-.195.238-.504.426-.922.562-.414.133-.945.328-1.594.578-.3.133-.597.297-.89.485a2.95 2.95 0 0 1-1 .422zm-2.22-10.282c-.269.063-.491.024-.671-.125a1.773 1.773 0 0 1-.469-.64 4.094 4.094 0 0 1-.281-.813 41.809 41.809 0 0 1-.156-.734c-.051-.258-.11-.567-.172-.922a3.838 3.838 0 0 1-.047-1.031c.023-.344.11-.645.266-.907.148-.269.386-.44.718-.515.137-.031.422-.086.86-.172.43-.082.898-.172 1.406-.266.512-.093.969-.175 1.375-.25.406-.082.633-.109.672-.078.324.149.543.383.656.703.117.313.203.618.266.907.18.824.273 1.445.281 1.859 0 .406-.094.73-.281.969-.196.23-.504.414-.922.547-.426.136-.961.328-1.61.578-.3.136-.597.297-.89.484-.29.188-.625.324-1 .406zm0 0"/></symbol><symbol overflow="visible" id="e" style="overflow:visible"><path style="stroke:none" d="M-56.797-26.078c.98-.04 1.793.203 2.438.734.636.524 1.078 1.25 1.328 2.188.386 1.48.62 3.008.703 4.578.086 1.574.203 3.133.36 4.672l8-.344c6.78-.29 13.538-.79 20.265-1.5a265.669 265.669 0 0 0 20.14-2.906c.407-.102.813-.207 1.22-.313a5.52 5.52 0 0 1 1.187-.203c.648-.031 1.125.121 1.437.453.313.324.485.793.516 1.407.02.492-.016 1.093-.11 1.812-.093.719-.25 1.29-.468 1.703-.301.555-.614.914-.938 1.078-.332.156-.781.29-1.344.39a62.847 62.847 0 0 1-5.703.86c-1.906.188-3.812.39-5.718.61-4.082.5-8.149.945-12.204 1.328-4.05.386-8.128.668-12.234.844-2.226.093-4.445.18-6.656.25a420.94 420.94 0 0 0-6.766.25c.242 1.656.48 3.324.719 5 .23 1.68.383 3.363.453 5.062.024.406-.062.738-.25 1-.195.27-.5.41-.906.422-.938.039-1.68-.242-2.234-.844-.551-.594-.958-1.32-1.22-2.172a30.322 30.322 0 0 1-.75-4.156 82.815 82.815 0 0 0-.577-4.266c-.27.012-.532.012-.782 0a2.318 2.318 0 0 1-.703-.156 1.16 1.16 0 0 1-.515-.406c-.145-.188-.223-.453-.235-.797-.031-.645.09-1.313.36-2 .261-.688.652-1.234 1.172-1.64l-1-6.672c-.114-.633-.227-1.274-.344-1.922a13.59 13.59 0 0 1-.235-1.938 8.97 8.97 0 0 1 .016-.86c.012-.288.074-.546.188-.765.105-.219.273-.398.5-.547.218-.144.515-.222.89-.234zm0 0"/></symbol><symbol overflow="visible" id="f" style="overflow:visible"><path style="stroke:none" d="M-1.594-25.64c.774.085 1.469.359 2.094.828A3.199 3.199 0 0 1 1.75-23c.07.273.098.813.078 1.625-.023.805-.07 1.766-.14 2.89a118.338 118.338 0 0 1-.297 3.626c-.125 1.293-.25 2.527-.375 3.703C.89-9.976.773-8.93.672-8.016c-.106.907-.18 1.563-.219 1.97.281.179.504.429.672.75.164.323.227.679.188 1.062-.043.343-.18.746-.407 1.203-.23.46-.523.898-.875 1.312A5.8 5.8 0 0 1-1.094-.687c-.406.273-.812.386-1.218.343-.352-.039-.801-.176-1.344-.406a25.064 25.064 0 0 1-1.672-.781c-.582-.29-1.156-.578-1.719-.86l-1.39-.703-22.516-10.75L-42.75-19.5c-1.3-.645-2.617-1.266-3.953-1.86a35.09 35.09 0 0 1-3.906-2.078 63.59 63.59 0 0 1-.172 2.61c-.07.855-.16 1.71-.266 2.562-.02.243-.066.664-.14 1.266-.07.594-.157 1.277-.25 2.047-.102.762-.208 1.562-.313 2.406a64.872 64.872 0 0 1-.36 2.36c-.124.73-.242 1.355-.359 1.874-.113.524-.21.829-.297.922-.238.344-.554.493-.953.438-.781-.082-1.36-.399-1.734-.953a4.88 4.88 0 0 1-.766-1.969 10.78 10.78 0 0 1-.156-2.313c.031-.789.078-1.472.14-2.046a27.4 27.4 0 0 1 .329-1.907 23.86 23.86 0 0 0 .297-1.922c.156-1.332.257-2.66.297-3.984.042-1.332.136-2.64.28-3.922a8.88 8.88 0 0 1 .313-1.453 5.106 5.106 0 0 1 .657-1.422c.28-.414.624-.75 1.03-1 .407-.258.903-.351 1.485-.281.492.055.918.2 1.281.438.368.242.766.492 1.203.75a87.086 87.086 0 0 0 6.563 3.28c2.2.993 4.406 2.009 6.625 3.048 5.324 2.492 10.637 4.93 15.938 7.312A2943.251 2943.251 0 0 1-3.954-8.03c.062-1.094.14-2.192.234-3.297.094-1.102.164-2.207.203-3.313.043-1.539.043-3.086 0-4.64a32.73 32.73 0 0 1 .188-4.703c.062-.489.23-.899.5-1.235.262-.343.672-.484 1.234-.422zm0 0"/></symbol><symbol overflow="visible" id="g" style="overflow:visible"><path style="stroke:none" d="M.172-32.266c.445.125.828.422 1.14.891.313.469.586 1.008.829 1.61.238.605.445 1.214.625 1.828.175.617.32 1.12.437 1.515.32 1.043.598 2.07.828 3.078.239 1.012.407 2.028.5 3.047.094 1.024.102 2.047.032 3.078A15.883 15.883 0 0 1 4-14.062l-.11.624a11.29 11.29 0 0 1-1.015 2.454 9.534 9.534 0 0 1-1.578 2.093 7.783 7.783 0 0 1-2.094 1.5c-.781.387-1.66.61-2.64.672-.758.024-1.641-.039-2.641-.187-1-.145-2.02-.332-3.063-.563-1.05-.238-2.082-.484-3.093-.734-1.008-.25-1.907-.473-2.688-.672a1316.453 1316.453 0 0 1-24.047-5.938c-.914-.226-1.828-.457-2.734-.687a108.63 108.63 0 0 1-2.734-.75c-1.551-.457-2.844-.93-3.876-1.422-1.039-.488-1.832-1.11-2.374-1.86-.54-.75-.817-1.675-.829-2.78-.02-1.114.215-2.508.703-4.188.481-1.688.981-3.375 1.5-5.063a222.29 222.29 0 0 0 1.516-5.109c.156-.508.293-1.023.406-1.547a4.697 4.697 0 0 1 .594-1.515c.149-.301.313-.551.5-.75.18-.196.461-.239.844-.125.93.261 1.527.773 1.797 1.53.273.75.367 1.575.281 2.47a13.674 13.674 0 0 1-.547 2.734c-.289.918-.52 1.668-.687 2.25l-1.47 5.063c-.144.511-.288 1.027-.437 1.546a17.227 17.227 0 0 0-.39 1.578c.343.262.718.481 1.125.657.398.18.812.328 1.25.453 2.824.824 5.625 1.558 8.406 2.203 2.781.648 5.605 1.32 8.469 2.016.336-1.645.64-3.286.922-4.922a217.1 217.1 0 0 0 .765-4.938c.074-.238.121-.457.14-.656.024-.207.063-.414.126-.625.156-.54.414-.879.765-1.016.344-.132.778-.129 1.297.016.356.105.684.227.985.36a4.1 4.1 0 0 1 .875.5c.468.335.761.745.875 1.234.117.48.14.996.078 1.547a10.792 10.792 0 0 1-.328 1.656 46.15 46.15 0 0 0-.406 1.437c-.25 1.118-.508 2.204-.782 3.266a314.629 314.629 0 0 0-.828 3.188c.555.125 1.387.324 2.5.593 1.106.274 2.344.57 3.719.89 1.367.325 2.789.653 4.266.985 1.468.336 2.859.637 4.171.907 1.313.261 2.47.464 3.47.609.991.148 1.671.203 2.046.172.625-.125 1.078-.344 1.36-.656.273-.32.495-.774.671-1.36.274-.969.375-2.035.313-3.203a20.47 20.47 0 0 0-.531-3.516 29.232 29.232 0 0 0-1.079-3.453 24.466 24.466 0 0 0-1.375-2.984 91.57 91.57 0 0 1-.468-1.047 1.575 1.575 0 0 1-.079-1.125c.118-.395.344-.738.688-1.031.336-.29.719-.524 1.156-.703.43-.188.871-.301 1.328-.344.461-.05.856-.031 1.188.062zm0 0"/></symbol><symbol overflow="visible" id="h" style="overflow:visible"><path style="stroke:none" d="M-.578-34.266c2.82 1.418 5.055 3.102 6.703 5.047 1.645 1.95 2.766 4.078 3.36 6.39.593 2.306.671 4.747.234 7.329-.438 2.574-1.32 5.184-2.64 7.828l-.61 1.234c-.125.243-.313.602-.563 1.079-.242.48-.531.949-.875 1.406-.336.45-.695.808-1.078 1.078-.375.273-.73.324-1.062.156a2.77 2.77 0 0 1-1-.828 4.598 4.598 0 0 1-.657-1.219 4.965 4.965 0 0 1-.28-1.343 3.872 3.872 0 0 1 .14-1.297c-.336.062-.73.043-1.188-.063a15.866 15.866 0 0 1-1.437-.39c-.5-.157-.977-.329-1.438-.516-.469-.195-.863-.36-1.187-.484a381.582 381.582 0 0 1-11.719-4.454 153.242 153.242 0 0 1-11.484-5.156 280.499 280.499 0 0 1-7.094-3.687 961.605 961.605 0 0 0-7.078-3.782 64.205 64.205 0 0 0-2.907-1.5c-.968-.476-1.93-1-2.89-1.562-.02.168-.07.336-.156.5-.082.168-.176.352-.282.547a3.164 3.164 0 0 1-.718.969c-.313.28-.723.297-1.235.046-.625-.312-1.062-.695-1.312-1.156a2.983 2.983 0 0 1-.375-1.453c0-.52.105-1.05.312-1.594.2-.539.422-1.066.672-1.578A28.86 28.86 0 0 1-46.188-39c1.657-1.883 3.508-3.36 5.547-4.422 2.032-1.062 4.235-1.629 6.61-1.703 2.375-.082 4.855.523 7.437 1.812a18.058 18.058 0 0 1 5.5 4.204 17.066 17.066 0 0 1 3.422 5.953c1.262-1.07 2.602-1.86 4.016-2.36a13.866 13.866 0 0 1 4.328-.828c1.469-.05 2.95.11 4.437.485 1.48.367 2.918.898 4.313 1.593zm-29.266-3.812c-1.445-.727-2.843-1.14-4.187-1.234a10.142 10.142 0 0 0-3.89.468 10.744 10.744 0 0 0-3.5 1.907 17.828 17.828 0 0 0-3.048 3.124c.149.012.274.043.375.094.094.043.172.086.235.125a361.025 361.025 0 0 1 6.75 3.469c2.21 1.156 4.449 2.305 6.718 3.438l3.75 1.875c.493.242.993.476 1.5.703.5.23 1 .468 1.5.718.063-.77.246-1.472.547-2.109.305-.645.617-1.29.938-1.938-.227-2.382-1.035-4.488-2.422-6.312-1.383-1.82-3.14-3.266-5.266-4.328zm26.5 9.203a21.4 21.4 0 0 0-3.515-1.375 10.914 10.914 0 0 0-3.516-.438 8.707 8.707 0 0 0-3.328.829c-1.063.492-2.063 1.273-3 2.343a19.849 19.849 0 0 1-.844 6.907 250.292 250.292 0 0 0 8.516 3.375 117.033 117.033 0 0 0 8.703 2.89 49.7 49.7 0 0 0 2.062.516 13.3 13.3 0 0 1 2.079.625c.57-1.707.82-3.344.75-4.906-.075-1.57-.434-3.02-1.079-4.344-.636-1.332-1.543-2.54-2.718-3.625-1.176-1.082-2.547-2.016-4.11-2.797Zm0 0"/></symbol><symbol overflow="visible" id="i" style="overflow:visible"><path style="stroke:none" d="M-.844-39.75a82.817 82.817 0 0 1 3.797 3.078 51.84 51.84 0 0 1 4.031 3.828 37.65 37.65 0 0 1 3.61 4.375c1.082 1.532 1.883 3.11 2.406 4.735.52 1.625.691 3.257.516 4.89-.18 1.637-.875 3.25-2.094 4.844a10.744 10.744 0 0 1-2.344 2.266 10.696 10.696 0 0 1-2.937 1.437c-1.657.48-3.543.516-5.657.11-2.113-.415-4.316-1.11-6.609-2.079a58.304 58.304 0 0 1-6.953-3.53 139.073 139.073 0 0 1-6.781-4.282 163.07 163.07 0 0 1-6.032-4.281 1106.03 1106.03 0 0 1-6.203-4.703c-.644-.5-1.36-1.051-2.14-1.657a131.686 131.686 0 0 1-2.391-1.89 133.36 133.36 0 0 1-2.313-1.938 57.91 57.91 0 0 1-1.89-1.687c-.531-.508-.879-.914-1.047-1.22-.188-.3-.281-.562-.281-.78 0-.227.12-.493.36-.797.73-.957 1.605-1.492 2.624-1.61 1.024-.113 2.012.196 2.969.922a131.86 131.86 0 0 1 4.187 3.344 110.675 110.675 0 0 0 4.157 3.328c.625.469 1.543 1.156 2.75 2.063 1.199.906 2.59 1.918 4.172 3.03a235.03 235.03 0 0 0 5.156 3.485c1.855 1.211 3.73 2.36 5.625 3.453a78.28 78.28 0 0 0 5.625 2.953c1.855.875 3.574 1.543 5.156 2 1.594.45 3 .633 4.219.547 1.218-.082 2.144-.539 2.781-1.375.602-.8.82-1.734.656-2.797-.168-1.062-.59-2.16-1.265-3.296-.668-1.145-1.508-2.297-2.516-3.453a49.114 49.114 0 0 0-3.125-3.282 57.36 57.36 0 0 0-3.047-2.734 67.736 67.736 0 0 0-2.312-1.875 132.854 132.854 0 0 0-3.985-2.938 221.675 221.675 0 0 0-4.687-3.218 166.261 166.261 0 0 0-5.094-3.25 122.176 122.176 0 0 0-5.203-3 84.049 84.049 0 0 0-5.016-2.532c-1.625-.75-3.14-1.343-4.547-1.78-.226-.095-.547-.18-.953-.267-.414-.093-.718-.21-.906-.359-.344-.258-.535-.535-.578-.828-.05-.29-.024-.582.078-.875.105-.29.258-.578.453-.86.2-.288.387-.55.563-.78.398-.52.746-.926 1.047-1.22.304-.3.757-.578 1.359-.828.387-.175 1.07-.101 2.047.22.98.323 2.152.82 3.515 1.484a85.368 85.368 0 0 1 4.5 2.406c1.637.93 3.309 1.906 5.016 2.937 1.7 1.032 3.383 2.086 5.047 3.157a256.363 256.363 0 0 1 4.578 3 190.83 190.83 0 0 1 3.656 2.484 60.372 60.372 0 0 1 2.25 1.625zm0 0"/></symbol><symbol overflow="visible" id="j" style="overflow:visible"><path style="stroke:none" d="M17.188-27.328c.3.344.46.797.484 1.36a8.75 8.75 0 0 1-.14 1.812 19.818 19.818 0 0 1-.438 1.875c-.18.617-.324 1.12-.438 1.515a39.444 39.444 0 0 1-.922 3.063 22.56 22.56 0 0 1-1.187 2.86c-.45.905-.977 1.78-1.578 2.624a15.73 15.73 0 0 1-2.14 2.375l-.438.485a11.637 11.637 0 0 1-2.172 1.546 9.47 9.47 0 0 1-2.438.938c-.843.2-1.703.258-2.578.172-.867-.082-1.719-.36-2.562-.828-.676-.375-1.395-.883-2.157-1.532-.77-.656-1.539-1.359-2.312-2.109-.77-.758-1.516-1.508-2.235-2.25-.726-.75-1.378-1.414-1.953-2A1295.687 1295.687 0 0 1-25.28-33.14c-.664-.675-1.32-1.351-1.969-2.03a89.668 89.668 0 0 1-1.938-2.095c-1.082-1.195-1.93-2.273-2.546-3.234-.614-.969-.953-1.91-1.016-2.828-.07-.926.18-1.863.75-2.813.574-.945 1.512-2.004 2.813-3.172a388.576 388.576 0 0 1 3.953-3.515 467.871 467.871 0 0 0 3.968-3.531c.407-.364.797-.739 1.172-1.125a4.98 4.98 0 0 1 1.297-.97c.281-.163.555-.284.813-.358.261-.083.527.027.797.328.648.718.886 1.476.718 2.265-.176.782-.535 1.532-1.078 2.25a14.63 14.63 0 0 1-1.906 2.016c-.719.625-1.305 1.14-1.766 1.547l-3.922 3.531c-.382.355-.78.715-1.187 1.078-.406.356-.79.734-1.156 1.14.148.407.343.794.593 1.157.25.367.528.715.828 1.047a157.037 157.037 0 0 0 6 6.312 653.398 653.398 0 0 1 6.11 6.157 149.058 149.058 0 0 0 3.39-3.688 156.023 156.023 0 0 0 3.25-3.797c.188-.164.344-.328.47-.484.124-.156.273-.305.437-.453.418-.375.812-.524 1.187-.453.367.062.73.297 1.094.703.25.273.469.543.656.812.188.262.34.559.453.89.22.524.258 1.024.11 1.5a4.306 4.306 0 0 1-.75 1.345c-.344.43-.727.84-1.156 1.234-.426.387-.797.73-1.11 1.031-.8.805-1.598 1.586-2.39 2.344-.801.75-1.586 1.512-2.36 2.281.399.399.996 1 1.797 1.813.793.812 1.688 1.718 2.688 2.718.992 1 2.027 2.032 3.109 3.094A155.978 155.978 0 0 0 0-16.125a75.116 75.116 0 0 0 2.594 2.36c.77.648 1.328 1.054 1.672 1.218.593.219 1.086.274 1.484.156.406-.125.836-.39 1.297-.796.738-.665 1.39-1.516 1.953-2.547A19.32 19.32 0 0 0 10.406-19a27.58 27.58 0 0 0 .89-3.516c.227-1.187.368-2.27.423-3.25.039-.382.086-.77.14-1.156.063-.383.239-.71.532-.984.3-.27.671-.442 1.109-.516.445-.07.898-.07 1.36 0 .468.074.91.211 1.328.406.425.2.757.43 1 .688zm0 0"/></symbol><symbol overflow="visible" id="k" style="overflow:visible"><path style="stroke:none" d="M29.36-18.297c.163.281.171.602.015.953a4.24 4.24 0 0 1-.703 1.047 8.674 8.674 0 0 1-1 .938c-.344.273-.61.464-.797.578-.46.281-.855.476-1.187.578a6.726 6.726 0 0 1-1.282.203c-.148 0-.593-.125-1.343-.375-.743-.258-1.684-.61-2.829-1.047-1.136-.445-2.43-.953-3.875-1.515a494.182 494.182 0 0 0-4.437-1.735 405.481 405.481 0 0 1-4.531-1.797c-1.5-.613-2.883-1.172-4.141-1.672C1.988-22.648.895-23.1-.031-23.5c-.926-.395-1.582-.672-1.969-.828l-.156.187a329.158 329.158 0 0 0 5.562 7.86A85.383 85.383 0 0 0 9.5-8.906c.238.23.492.476.766.734.27.25.504.54.703.86.32.523.36.964.11 1.328a3.4 3.4 0 0 1-1 .921c-.231.137-.513.293-.845.47a8.143 8.143 0 0 1-2.203.797c-.344.073-.648.085-.906.03-.492-.082-.867-.242-1.125-.484-.262-.25-.559-.563-.89-.938a152.878 152.878 0 0 1-9.813-13.125 457.975 457.975 0 0 1-8.828-13.75c-1.25-2.019-2.461-4.007-3.64-5.968a585.927 585.927 0 0 1-3.579-6.016 2.071 2.071 0 0 1-.922.203 3.092 3.092 0 0 1-1.015-.203 3.397 3.397 0 0 1-.907-.484 2.642 2.642 0 0 1-.64-.688 2.046 2.046 0 0 1-.282-.875 3.203 3.203 0 0 1 .063-.984c.074-.332.168-.66.281-.984.117-.32.23-.598.344-.829l-.375-.625c-.145-.226-.3-.492-.469-.797-.176-.3-.305-.609-.39-.921a1.595 1.595 0 0 1-.016-.907c.086-.289.308-.547.672-.765a4.93 4.93 0 0 1 1.593-.64 3.255 3.255 0 0 1 1.766.093 17.264 17.264 0 0 1 4.813-4.39c1.668-1.032 3.398-1.634 5.187-1.813a12.815 12.815 0 0 1 5.188.5 14.12 14.12 0 0 1 4.64 2.5 15.866 15.866 0 0 1 3.625 4.11 15.766 15.766 0 0 1 2.125 5.608c.352 2.012.457 4.06.313 6.141A29.746 29.746 0 0 1 2.78-34.64 39.031 39.031 0 0 1 .72-29.016a571.513 571.513 0 0 0 11.797 4.47A525.273 525.273 0 0 0 24.5-20.345c.227.094.586.215 1.078.36.488.136 1 .304 1.531.5.532.187 1.008.39 1.438.609.426.21.695.402.812.578zM-4.017-49.953c-.52-.852-1.21-1.645-2.078-2.375a10.106 10.106 0 0 0-2.812-1.719 8.255 8.255 0 0 0-3.11-.61c-1.07 0-2.078.29-3.015.86a9.434 9.434 0 0 0-2.031 1.719 16.522 16.522 0 0 0-1.657 2.172c2.149 3.398 4.293 6.793 6.438 10.187 2.148 3.387 4.308 6.766 6.484 10.14l.656-.296a25.473 25.473 0 0 0 1.985-4.703 25.752 25.752 0 0 0 1.047-5.297c.168-1.813.109-3.586-.172-5.328-.281-1.75-.86-3.332-1.735-4.75zm0 0"/></symbol><symbol overflow="visible" id="l" style="overflow:visible"><path style="stroke:none" d="M21.578-39.156c.3.804.39 1.484.266 2.047a2.957 2.957 0 0 1-.782 1.437 5.417 5.417 0 0 1-1.453 1.016c-.574.281-1.156.543-1.75.781a17.627 17.627 0 0 1 5.078 3.672 15.13 15.13 0 0 1 3.375 5.25 18.212 18.212 0 0 1 1.157 6.062c.05 2.106-.258 4.106-.922 6A15.17 15.17 0 0 1 23.5-7.78c-1.355 1.523-3.063 2.668-5.125 3.437-1.637.625-3.23.871-4.781.735a12.752 12.752 0 0 1-4.5-1.25c-1.45-.707-2.84-1.641-4.172-2.797a34.096 34.096 0 0 1-3.766-3.907 48.365 48.365 0 0 1-3.312-4.609 68.658 68.658 0 0 1-2.813-4.844 72.843 72.843 0 0 1-2.265-4.656 76.394 76.394 0 0 1-1.688-4.062 52.984 52.984 0 0 1-1.5-4.61 49.278 49.278 0 0 1-1.14-5.14 36.578 36.578 0 0 1-.485-5.297 21.803 21.803 0 0 1 .5-5.125c.356-1.645.93-3.188 1.719-4.625.793-1.446 1.883-2.719 3.265-3.813.5-.426 1.024-.797 1.563-1.11.531-.32 1.09-.593 1.672-.812 2.523-.945 4.875-1.05 7.062-.312 2.196.73 4.149 2.094 5.86 4.094.281.293.539.605.781.937.238.324.43.68.578 1.063.164.449.11.797-.172 1.047-.281.242-.605.43-.969.562-.906.344-1.699.46-2.374.344a5.278 5.278 0 0 1-1.844-.672A9.7 9.7 0 0 1 4-54.406a12.63 12.63 0 0 0-1.578-1.235 4.835 4.835 0 0 0-1.781-.718c-.645-.125-1.407-.024-2.282.297-1.27.48-2.25 1.257-2.937 2.328-.688 1.062-1.164 2.304-1.438 3.718-.28 1.407-.382 2.93-.312 4.563.074 1.637.246 3.23.516 4.781.261 1.555.578 3.024.953 4.406a40.087 40.087 0 0 0 1.093 3.47c.375.98.954 2.32 1.735 4.015.781 1.687 1.699 3.5 2.75 5.437a80.796 80.796 0 0 0 3.515 5.782c1.29 1.93 2.63 3.609 4.016 5.046 1.395 1.43 2.805 2.493 4.234 3.188 1.426.7 2.82.793 4.188.281a5.634 5.634 0 0 0 2.812-2.25 10.26 10.26 0 0 0 1.453-3.531c.282-1.3.375-2.617.282-3.953-.094-1.332-.336-2.516-.719-3.547a11.589 11.589 0 0 0-1.531-2.766 12.931 12.931 0 0 0-2.219-2.328 14.222 14.222 0 0 0-2.734-1.734 11.565 11.565 0 0 0-3.047-.985 6.738 6.738 0 0 0-1.219-.172c-.43-.019-.852-.03-1.266-.03-.21.073-.617.198-1.218.374-.594.18-1.211.344-1.844.5-.625.149-1.211.23-1.75.25-.543.012-.875-.148-1-.484a4.98 4.98 0 0 1-.297-1.469c-.031-.539.023-1.05.172-1.531.156-.488.379-.93.672-1.328.289-.407.687-.703 1.187-.89.727-.282 1.555-.474 2.485-.579.925-.102 1.77-.14 2.53-.11 1.24-.538 2.458-1.085 3.657-1.64a78.28 78.28 0 0 0 3.531-1.766c.407-.207.801-.425 1.188-.656a7.569 7.569 0 0 1 1.265-.61c.614-.238 1.125-.273 1.532-.109.406.168.734.578.984 1.235zm0 0"/></symbol><symbol overflow="visible" id="m" style="overflow:visible"><path style="stroke:none" d="M29.11-13.938c.07.45-.04.918-.329 1.407-.281.492-.64.98-1.078 1.469-.43.48-.883.933-1.36 1.359-.48.418-.87.765-1.171 1.047a54.464 54.464 0 0 1-2.406 2.094 21.723 21.723 0 0 1-2.532 1.78c-.875.532-1.793.993-2.75 1.376-.96.386-1.984.672-3.078.86l-.625.187c-.875.148-1.761.199-2.656.156a9.408 9.408 0 0 1-2.563-.5 8.054 8.054 0 0 1-2.265-1.25c-.7-.54-1.281-1.227-1.75-2.063-.367-.687-.7-1.504-1-2.453a48.598 48.598 0 0 1-.813-3.015c-.25-1.063-.484-2.102-.703-3.125-.219-1.02-.414-1.922-.578-2.704A1396.734 1396.734 0 0 1-3.672-41.53a64.317 64.317 0 0 1-.594-2.766c-.187-.926-.363-1.86-.53-2.797-.27-1.582-.407-2.945-.407-4.093-.008-1.145.203-2.126.64-2.938.438-.813 1.153-1.469 2.141-1.969.992-.5 2.352-.894 4.078-1.187 1.719-.301 3.446-.586 5.188-.86 1.75-.27 3.504-.554 5.265-.859a26.914 26.914 0 0 0 1.579-.328 5.385 5.385 0 0 1 1.624-.125c.32 0 .614.039.876.11.269.073.44.312.515.718.156.95-.047 1.71-.61 2.281-.562.574-1.265 1.024-2.109 1.344-.843.313-1.742.543-2.687.688-.95.148-1.73.273-2.344.374l-5.187.891c-.524.086-1.047.172-1.579.266-.53.093-1.062.21-1.593.343-.074.43-.106.86-.094 1.297.02.438.066.883.14 1.328.5 2.899 1.063 5.743 1.688 8.532.633 2.781 1.266 5.61 1.89 8.484 1.626-.414 3.227-.851 4.813-1.312 1.594-.457 3.192-.946 4.797-1.47.25-.038.469-.093.656-.155a2.9 2.9 0 0 1 .61-.157c.55-.101.96-.023 1.234.235.281.25.461.648.547 1.187.063.367.102.711.125 1.032.02.324-.008.656-.078 1-.094.562-.336 1-.719 1.312-.387.313-.84.563-1.36.75a9.628 9.628 0 0 1-1.624.438c-.574.093-1.07.187-1.485.28-1.117.25-2.21.485-3.28.704-1.075.21-2.15.433-3.22.672.125.543.305 1.37.547 2.484.25 1.106.524 2.352.828 3.735.301 1.375.625 2.804.97 4.28.35 1.47.694 2.856 1.03 4.157.332 1.293.649 2.418.953 3.375.301.95.547 1.59.735 1.922.383.5.781.808 1.187.922.407.117.91.12 1.516.015.988-.164 1.992-.535 3.016-1.109 1.02-.57 2-1.242 2.937-2.016A28.3 28.3 0 0 0 21.578-13c.82-.883 1.52-1.734 2.094-2.547.25-.281.492-.57.734-.875.25-.312.57-.504.969-.578.406-.063.812 0 1.219.188.414.18.8.421 1.156.734.352.305.648.652.89 1.047.25.386.407.75.47 1.094zm0 0"/></symbol><symbol overflow="visible" id="n" style="overflow:visible"><path style="stroke:none" d="M34.594.406c0 .32-.168.586-.5.797-.324.207-.711.375-1.157.5a7.434 7.434 0 0 1-1.328.25c-.449.05-.78.078-1 .078-.543-.011-.98-.07-1.312-.172-.336-.093-.73-.265-1.188-.515-.125-.086-.433-.434-.922-1.047a80.93 80.93 0 0 1-1.828-2.39c-.718-.989-1.539-2.11-2.453-3.36a415.265 415.265 0 0 0-2.812-3.86 372.57 372.57 0 0 1-2.844-3.968c-.93-1.32-1.793-2.535-2.594-3.64a113.468 113.468 0 0 1-2.031-2.907c-.563-.832-.96-1.414-1.188-1.75l-.265.078c.113 3.21.273 6.414.484 9.61.207 3.199.594 6.367 1.156 9.5.07.324.149.667.235 1.03.094.356.14.72.14 1.094-.011.614-.218 1.004-.624 1.172-.407.164-.856.25-1.344.25a24.104 24.104 0 0 1-.969-.062A8.274 8.274 0 0 1 9.078.906a7.67 7.67 0 0 1-1.11-.312 2.222 2.222 0 0 1-.78-.485c-.368-.32-.594-.656-.688-1a17.491 17.491 0 0 1-.25-1.28A155.435 155.435 0 0 1 5.047-18.5a465.315 465.315 0 0 1-.031-16.344c.039-2.375.093-4.707.156-7 .062-2.289.14-4.617.234-6.984a2.062 2.062 0 0 1-.906-.344 3.436 3.436 0 0 1-.75-.719 3.42 3.42 0 0 1-.484-.89 2.398 2.398 0 0 1-.157-.922c0-.3.07-.598.22-.89.155-.29.347-.552.577-.782a9.29 9.29 0 0 1 .766-.688c.27-.218.52-.39.75-.515v-.719c.008-.27.02-.578.031-.922.02-.351.078-.68.172-.984.102-.313.266-.567.484-.766.227-.195.555-.297.985-.297.57.012 1.133.121 1.687.328.563.2 1.04.543 1.438 1.032a17.232 17.232 0 0 1 6.406-1.11c1.969.032 3.754.45 5.36 1.25a12.719 12.719 0 0 1 4.093 3.22c1.125 1.335 1.985 2.87 2.578 4.608.594 1.731.875 3.54.844 5.422a16.047 16.047 0 0 1-1.234 5.86 25.133 25.133 0 0 1-3.047 5.36A30.03 30.03 0 0 1 21-27.689a36.882 36.882 0 0 1-4.766 3.61 531.64 531.64 0 0 0 7.547 10.125c2.551 3.344 5.16 6.683 7.828 10.015.145.2.383.493.72.876.331.374.671.789 1.015 1.234.343.45.64.883.89 1.297.25.406.368.719.36.937zM23.516-44.25c.02-1-.137-2.04-.47-3.125a10.306 10.306 0 0 0-1.452-2.953 8.212 8.212 0 0 0-2.282-2.188 5.627 5.627 0 0 0-3-.906 9.824 9.824 0 0 0-2.656.344 15.26 15.26 0 0 0-2.547.953c-.011 4.012-.027 8.027-.046 12.047-.024 4.012-.028 8.023-.016 12.031l.719.11c1.414-.77 2.812-1.735 4.187-2.891a25.725 25.725 0 0 0 3.75-3.906 20.794 20.794 0 0 0 2.735-4.578c.695-1.626 1.054-3.27 1.078-4.938zm0 0"/></symbol><symbol overflow="visible" id="p" style="overflow:visible"><path style="stroke:none" d="M30-4.625c-.555 1.918-1.387 3.637-2.5 5.156-1.117 1.531-2.438 2.77-3.969 3.719-1.523.957-3.21 1.578-5.062 1.86-1.844.288-3.766.148-5.766-.423-1.762-.511-3.308-1.261-4.64-2.25-1.325-.98-2.387-2.132-3.188-3.453-.805-1.332-1.297-2.812-1.484-4.437-.18-1.625-.012-3.328.5-5.11.101-.363.25-.812.437-1.343a8.231 8.231 0 0 1 .703-1.5 3.85 3.85 0 0 1 1-1.11c.375-.27.82-.332 1.344-.187.406.125.836.351 1.297.672.457.312.863.68 1.219 1.094.363.406.632.855.812 1.343.176.492.195.969.063 1.438l-.657 2.25c-.511 1.781-.445 3.375.204 4.781.644 1.398 1.89 2.36 3.734 2.89 1.281.376 2.473.4 3.578.079a7.556 7.556 0 0 0 2.953-1.625 10.614 10.614 0 0 0 2.172-2.766 15.468 15.468 0 0 0 1.39-3.297c.626-2.164.786-4.398.485-6.703A37.642 37.642 0 0 0 23-20.516a76.502 76.502 0 0 0-2.719-7.03 109.326 109.326 0 0 1-2.765-6.892c-.805-2.25-1.383-4.437-1.735-6.562-.355-2.133-.25-4.172.313-6.11.457-1.581 1.164-2.859 2.125-3.828a8.587 8.587 0 0 1 3.343-2.093c1.27-.426 2.618-.617 4.047-.578 1.426.03 2.86.25 4.297.656 1.727.5 3.207 1.195 4.438 2.078 1.226.887 2.187 1.938 2.875 3.156.695 1.211 1.101 2.57 1.218 4.078.114 1.5-.078 3.118-.578 4.844-.074.262-.183.586-.328.969A7.267 7.267 0 0 1 37-36.75c-.21.344-.46.625-.75.844-.293.21-.617.261-.969.156a3.62 3.62 0 0 1-1.437-.844 6.616 6.616 0 0 1-.875-.968c-.211-.301-.356-.61-.438-.922a3.549 3.549 0 0 1-.078-1.032c.02-.363.078-.797.172-1.297.133-.968.207-1.859.219-2.671.008-.813-.121-1.536-.39-2.172-.274-.633-.704-1.192-1.298-1.672-.586-.477-1.402-.867-2.453-1.172a10.29 10.29 0 0 0-2.234-.39c-.719-.04-1.387.046-2 .265a4.078 4.078 0 0 0-1.625 1.063c-.469.5-.824 1.171-1.063 2.015-.344 1.2-.433 2.496-.265 3.89.175 1.4.507 2.872 1 4.423a58.767 58.767 0 0 0 1.812 4.828c.707 1.68 1.43 3.406 2.172 5.187a107.912 107.912 0 0 1 2.094 5.469 40.782 40.782 0 0 1 1.578 5.64c.394 1.907.598 3.829.61 5.766.019 1.93-.243 3.836-.782 5.719Zm0 0"/></symbol><symbol overflow="visible" id="q" style="overflow:visible"><path style="stroke:none" d="M49.89-37.64c-.43.874-1.027 1.468-1.796 1.78-.774.313-1.633.36-2.578.141a23.256 23.256 0 0 1-4.375-1.547 93.205 93.205 0 0 0-4.266-1.906l-3.484 7.203a335.047 335.047 0 0 0-8.297 18.547 256.38 256.38 0 0 0-6.969 19.14c-.105.407-.203.805-.297 1.204-.094.406-.23.785-.406 1.14-.281.583-.64.93-1.078 1.047-.43.125-.918.051-1.469-.218-.45-.211-.969-.524-1.563-.938-.585-.418-1.007-.824-1.265-1.219-.344-.523-.512-.968-.5-1.343.02-.375.117-.829.297-1.36a54.8 54.8 0 0 1 1.953-5.422c.738-1.77 1.46-3.55 2.172-5.343a454.393 454.393 0 0 1 4.594-11.375c1.582-3.75 3.269-7.47 5.062-11.157a447.706 447.706 0 0 1 2.938-5.984c.988-1.977 1.984-4 2.984-6.063-1.586-.582-3.168-1.164-4.75-1.75a54.522 54.522 0 0 1-4.672-2c-.367-.175-.621-.41-.766-.703-.136-.289-.117-.617.063-.984.406-.844 1-1.367 1.781-1.578.79-.207 1.625-.219 2.5-.031 1.363.336 2.707.765 4.031 1.297 1.32.53 2.664 1.039 4.032 1.515.113-.238.238-.469.375-.687.132-.22.285-.399.453-.547.176-.145.379-.235.61-.266.237-.031.507.031.812.188.582.28 1.113.699 1.593 1.25.477.554.774 1.156.891 1.812l6.344 2.281c.601.211 1.218.414 1.843.61.633.187 1.243.422 1.829.703.257.125.515.266.765.422.25.148.442.324.578.531.133.2.211.434.235.703.031.262-.04.563-.203.906zm0 0"/></symbol><symbol overflow="visible" id="b" style="overflow:visible"><path style="stroke:none" d="M-47.719 18.125a187.404 187.404 0 0 1 4.969-2.578c1.668-.824 3.32-1.672 4.953-2.547.274-.148.527-.277.766-.39a2.62 2.62 0 0 1 .718-.235c.243-.031.465 0 .672.094.2.101.383.312.547.625.418.781.594 1.586.532 2.422-.07.843-.504 1.55-1.297 2.125-.57.394-1.141.754-1.703 1.078-.563.32-1.141.672-1.735 1.047-1.082.726-2.16 1.453-3.234 2.172a43.637 43.637 0 0 1-3.328 2c-.477.25-.899.343-1.266.28-.375-.062-.695-.343-.969-.843a8.224 8.224 0 0 1-.578-1.344A6.08 6.08 0 0 1-49 20.547c-.04-.48.031-.934.219-1.36.187-.43.543-.78 1.062-1.062zm0 0"/></symbol><symbol overflow="visible" id="s" style="overflow:visible"><path style="stroke:none" d="M42.484 3.125a46.83 46.83 0 0 1-6.765 5.234c-2.387 1.532-4.867 2.692-7.438 3.485a25.202 25.202 0 0 1-8 1.125c-2.75-.043-5.531-.649-8.343-1.813a24.948 24.948 0 0 1-2.22-1.078 28.008 28.008 0 0 1-4.343-3 21.537 21.537 0 0 1-1.766-1.656c-.199-.219-.421-.469-.671-.75a3.73 3.73 0 0 1-.579-.86 1.82 1.82 0 0 1-.203-.906c.008-.304.156-.578.438-.828.226-.219.515-.402.86-.547.343-.148.71-.246 1.108-.297a5.79 5.79 0 0 1 1.157-.046c.375.019.71.093 1.015.218.063-.242.414-.746 1.063-1.515.644-.782 1.5-1.727 2.562-2.844a252.062 252.062 0 0 1 3.594-3.688 806.364 806.364 0 0 1 4.14-4.171 624.05 624.05 0 0 1 4.313-4.235 552.65 552.65 0 0 1 4-3.875c1.227-1.176 2.29-2.195 3.188-3.062a111.38 111.38 0 0 1 2-1.875 190.099 190.099 0 0 1 5.547-5 245.917 245.917 0 0 0 5.562-5 1.623 1.623 0 0 1-.406-.782c-.055-.3.039-.562.281-.78.313-.29.672-.477 1.078-.563a3.44 3.44 0 0 1 1.266-.047c.426.054.832.183 1.219.39.394.211.726.454 1 .735.25.273.468.558.656.86l.578.937c1.813 3.21 3.035 6.437 3.672 9.687.633 3.242.68 6.414.14 9.516-.542 3.105-1.624 6.094-3.25 8.969-1.624 2.875-3.777 5.562-6.453 8.062zM38.922-1.75c1.969-1.832 3.601-3.797 4.906-5.89 1.313-2.102 2.254-4.301 2.828-6.594.582-2.29.77-4.657.563-7.094-.2-2.445-.793-4.938-1.782-7.469l-.124.11a612.787 612.787 0 0 0-14.891 14.359A654.483 654.483 0 0 0 16.032.469c-.712.781-1.423 1.55-2.141 2.312a32.069 32.069 0 0 0-2.032 2.36c2.332 1.28 4.727 1.953 7.188 2.015a21.335 21.335 0 0 0 7.219-1.062 28.93 28.93 0 0 0 6.78-3.282c2.165-1.406 4.126-2.925 5.876-4.562zm0 0"/></symbol><symbol overflow="visible" id="t" style="overflow:visible"><path style="stroke:none" d="M24.125 21.438c-.387.238-.86.32-1.422.25a8.625 8.625 0 0 1-1.765-.438 16.75 16.75 0 0 1-1.782-.734c-.574-.274-1.047-.496-1.422-.672a48.682 48.682 0 0 1-2.859-1.407 23.122 23.122 0 0 1-2.625-1.64 18.155 18.155 0 0 1-2.328-2 15.514 15.514 0 0 1-2-2.516l-.406-.484A12.195 12.195 0 0 1 6.359 9.39a9.543 9.543 0 0 1-.546-2.563 7.842 7.842 0 0 1 .265-2.562c.227-.844.64-1.649 1.234-2.407.489-.605 1.114-1.23 1.875-1.875a45.982 45.982 0 0 1 2.47-1.921 92.628 92.628 0 0 1 2.593-1.844c.852-.594 1.61-1.125 2.266-1.594 6.75-4.77 13.53-9.473 20.343-14.11a73.851 73.851 0 0 1 2.313-1.609c.781-.531 1.57-1.05 2.375-1.562 1.351-.875 2.555-1.535 3.61-1.985 1.062-.445 2.05-.629 2.968-.547.914.086 1.797.493 2.64 1.22.852.718 1.75 1.812 2.688 3.28a247.16 247.16 0 0 1 2.797 4.485c.926 1.5 1.867 3 2.828 4.5.29.46.594.906.906 1.344.32.43.57.902.75 1.421.133.313.22.606.25.876.032.261-.125.5-.468.718-.825.524-1.606.637-2.344.344-.742-.3-1.418-.773-2.031-1.422a13.754 13.754 0 0 1-1.688-2.219c-.5-.82-.918-1.488-1.25-2l-2.828-4.437a74.192 74.192 0 0 1-.875-1.36 18.485 18.485 0 0 0-.938-1.328c-.43.086-.84.22-1.234.407-.398.18-.789.39-1.172.64a163.272 163.272 0 0 0-7.203 4.875 2824.951 2824.951 0 0 1-7.078 5.031c1 1.325 2.02 2.633 3.063 3.922a174.587 174.587 0 0 0 3.218 3.844c.133.211.266.39.39.547.134.148.267.313.392.5.3.469.382.879.25 1.234-.126.352-.418.676-.876.97a8.928 8.928 0 0 1-.906.5c-.281.144-.593.25-.937.312-.563.132-1.07.082-1.516-.157a4.538 4.538 0 0 1-1.219-.953A9.522 9.522 0 0 1 32.72.578a26.08 26.08 0 0 0-.828-1.265 92.51 92.51 0 0 1-1.922-2.735 160.225 160.225 0 0 0-1.86-2.719c-.46.336-1.152.829-2.078 1.485a489.26 489.26 0 0 0-3.125 2.203A306.534 306.534 0 0 0 19.344.094a376.765 376.765 0 0 0-3.438 2.547 75.871 75.871 0 0 0-2.75 2.187c-.761.656-1.258 1.133-1.484 1.438-.313.539-.445 1.02-.39 1.437.05.426.241.899.577 1.422.54.844 1.27 1.617 2.188 2.328a20.03 20.03 0 0 0 3 1.922c1.07.57 2.172 1.066 3.297 1.484 1.133.414 2.18.727 3.14.938.375.113.75.223 1.125.328.375.113.672.344.891.688.219.343.32.738.313 1.187 0 .445-.079.895-.235 1.344-.148.445-.351.86-.61 1.234-.261.375-.542.66-.843.86zm0 0"/></symbol><symbol overflow="visible" id="u" style="overflow:visible"><path style="stroke:none" d="M13.813 25.281c-.45.188-.915.32-1.391.407a3.465 3.465 0 0 1-1.344.015 2.544 2.544 0 0 1-1.14-.515c-.336-.262-.618-.668-.844-1.22-.274-.679-.352-1.28-.235-1.812.114-.523.368-1.062.766-1.625.469-.742 1.07-1.48 1.813-2.218a33.444 33.444 0 0 1 2.328-2.125c.82-.68 1.644-1.34 2.468-1.985.82-.637 1.586-1.242 2.297-1.812a360.162 360.162 0 0 1 11.032-8.86 374.893 374.893 0 0 0 11.03-8.797C35.134-3.203 29.704-1.113 24.298 1A1607.43 1607.43 0 0 0 8.078 7.453c-.273.113-.59.227-.953.344-.367.113-.727.18-1.078.203a2.255 2.255 0 0 1-.984-.125c-.305-.117-.532-.367-.688-.75-.512-1.273-.563-2.375-.156-3.313.414-.937 1.265-1.667 2.547-2.187A4424.297 4424.297 0 0 1 27.64-6.781a4383.26 4383.26 0 0 0 20.812-8.375l5.328-2.156c.57-.227 1.094-.317 1.563-.266.476.055.863.445 1.156 1.172.195.5.332 1.039.406 1.61a5.32 5.32 0 0 1-.047 1.655 3.504 3.504 0 0 1-.656 1.454c-.336.437-.797.777-1.39 1.015a44.856 44.856 0 0 1-5.125 5.14A393.94 393.94 0 0 1 44.14-.858c-2.743 2.238-5.48 4.46-8.22 6.671-2.73 2.22-5.483 4.454-8.265 6.704 4.657-2.055 9.305-4.118 13.953-6.188A224.58 224.58 0 0 0 55.344-.344a78.552 78.552 0 0 0 2.812-1.64 20.399 20.399 0 0 1 2.89-1.454c.532-.207.962-.175 1.298.094.332.274.586.633.765 1.078.32.782.524 1.477.61 2.079.094.593.066 1.132-.078 1.625-.149.5-.434.953-.86 1.359-.43.406-1.011.828-1.75 1.265a85.846 85.846 0 0 1-3.922 2 674.697 674.697 0 0 1-3.922 1.891 272.61 272.61 0 0 1-9.765 4.516 763.904 763.904 0 0 1-9.875 4.281c-3.293 1.426-6.57 2.863-9.828 4.313a307.739 307.739 0 0 1-9.907 4.218zm0 0"/></symbol><symbol overflow="visible" id="v" style="overflow:visible"><path style="stroke:none" d="M60.297 16.453c-.961.195-1.805.086-2.531-.328-.72-.406-1.274-1.055-1.657-1.938a23.925 23.925 0 0 1-1.453-4.421 96.448 96.448 0 0 0-1.11-4.547L45.72 6.875a329.692 329.692 0 0 0-19.75 4.781 256.648 256.648 0 0 0-19.422 6.172c-.375.164-.75.336-1.125.516a5.551 5.551 0 0 1-1.14.39c-.637.125-1.137.051-1.5-.218-.368-.274-.61-.711-.735-1.313-.094-.48-.156-1.086-.188-1.812-.03-.72.024-1.297.172-1.735.207-.605.461-1.011.766-1.219.3-.21.719-.414 1.25-.609a62.43 62.43 0 0 1 5.5-1.765 410.1 410.1 0 0 0 5.547-1.547 494.045 494.045 0 0 1 11.812-3.313 234.834 234.834 0 0 1 11.938-2.828 448.16 448.16 0 0 1 6.515-1.328 607.23 607.23 0 0 0 6.625-1.344c-.5-1.613-1.007-3.226-1.515-4.844a49.468 49.468 0 0 1-1.282-4.906c-.085-.406-.054-.754.094-1.047.145-.289.422-.476.828-.562.914-.188 1.692-.031 2.328.469.645.5 1.16 1.152 1.547 1.953a29.28 29.28 0 0 1 1.438 3.984c.383 1.375.805 2.75 1.266 4.125.257-.05.515-.094.765-.125.258-.04.5-.035.719.016.219.054.41.164.578.328.164.156.285.406.36.75.132.625.124 1.297-.032 2.015-.148.727-.445 1.336-.89 1.829l2.078 6.406c.218.601.437 1.219.656 1.844.226.624.41 1.25.547 1.874.062.29.11.579.14.86.032.281.008.535-.062.765-.074.239-.211.446-.406.626-.2.187-.48.316-.844.39zm0 0"/></symbol><symbol overflow="visible" id="w" style="overflow:visible"><path style="stroke:none" d="M9.938 30.719c-.461.008-.915-.164-1.36-.516a8.042 8.042 0 0 1-1.297-1.265c-.418-.493-.808-1-1.172-1.532-.355-.531-.648-.968-.875-1.312a56.857 56.857 0 0 1-1.765-2.657 21.562 21.562 0 0 1-1.422-2.75 19.625 19.625 0 0 1-1-2.906c-.25-1-.399-2.058-.438-3.172L.5 13.97c-.031-.887.035-1.766.203-2.64.176-.876.457-1.7.844-2.47a8.247 8.247 0 0 1 1.531-2.093c.625-.618 1.39-1.102 2.297-1.454.719-.261 1.57-.48 2.563-.656a50.072 50.072 0 0 1 3.078-.422c1.07-.105 2.129-.199 3.171-.28 1.04-.075 1.961-.142 2.766-.204 8.238-.688 16.469-1.309 24.688-1.86.945-.085 1.89-.156 2.828-.218a84.07 84.07 0 0 1 2.828-.14c1.613-.063 2.988-.024 4.125.124 1.144.157 2.094.5 2.844 1.032.75.539 1.3 1.335 1.656 2.39.363 1.05.578 2.453.64 4.203.063 1.739.11 3.489.141 5.25.04 1.77.098 3.547.172 5.328.008.54.04 1.078.094 1.61.062.539.035 1.086-.078 1.64-.043.32-.121.61-.235.86-.105.25-.36.379-.765.39-.97.032-1.704-.273-2.204-.906-.492-.625-.835-1.383-1.03-2.265-.2-.875-.31-1.793-.329-2.75a63.852 63.852 0 0 0-.062-2.36l-.188-5.265a187.63 187.63 0 0 1-.062-1.594 15.09 15.09 0 0 0-.125-1.625 5.187 5.187 0 0 0-1.282-.282 8.787 8.787 0 0 0-1.328-.03c-2.937.1-5.836.28-8.687.53-2.844.258-5.73.508-8.657.75.196 1.657.422 3.301.672 4.938.25 1.633.52 3.281.813 4.938.008.25.035.472.078.671.04.196.063.407.063.625.019.563-.118.961-.407 1.203-.281.239-.695.368-1.234.391a12.97 12.97 0 0 1-1.047-.016 3.495 3.495 0 0 1-.984-.218c-.543-.168-.946-.465-1.203-.89a4.58 4.58 0 0 1-.563-1.454 9.19 9.19 0 0 1-.203-1.672 30.142 30.142 0 0 0-.094-1.5 94.528 94.528 0 0 1-.25-3.344c-.062-1.086-.14-2.171-.234-3.265-.563.05-1.414.117-2.547.203-1.137.094-2.406.195-3.813.312-1.406.125-2.867.258-4.375.407-1.5.156-2.918.312-4.25.468-1.324.157-2.48.317-3.468.485-.993.176-1.657.336-2 .484-.555.3-.914.645-1.079 1.031-.167.383-.242.883-.218 1.5.039 1 .273 2.047.703 3.141a20.17 20.17 0 0 0 1.61 3.172 28.258 28.258 0 0 0 2.109 2.937 26.28 26.28 0 0 0 2.234 2.422c.258.282.52.563.781.844.258.29.395.64.406 1.047.02.406-.085.8-.312 1.187-.23.383-.523.727-.875 1.032a4.655 4.655 0 0 1-1.156.75c-.418.195-.805.304-1.156.328zm0 0"/></symbol><symbol overflow="visible" id="x" style="overflow:visible"><path style="stroke:none" d="M-.844 28.813a7.347 7.347 0 0 1-1.39-.36 3.728 3.728 0 0 1-1.172-.672 2.517 2.517 0 0 1-.735-1.031c-.164-.398-.207-.887-.125-1.469.118-.718.36-1.281.735-1.687.367-.399.855-.735 1.469-1.016.78-.406 1.68-.742 2.687-1a36.15 36.15 0 0 1 3.078-.656c1.05-.168 2.094-.32 3.125-.453 1.04-.137 2.016-.274 2.922-.407 4.688-.804 9.348-1.5 13.984-2.093a406.32 406.32 0 0 0 13.97-2.016 1551.29 1551.29 0 0 0-17.25-2.828A1425.523 1425.523 0 0 0 3.203 10.5a14.768 14.768 0 0 1-1-.188 4.04 4.04 0 0 1-1.017-.343 2.36 2.36 0 0 1-.796-.61c-.211-.261-.282-.593-.22-1C.368 7.004.884 6.023 1.72 5.422c.843-.606 1.941-.809 3.297-.61C12.516 5.907 19.94 7 27.296 8.095c7.352 1.101 14.75 2.195 22.188 3.281l5.672.828c.625.094 1.125.281 1.5.563.383.289.52.82.407 1.593a6.842 6.842 0 0 1-.47 1.594 4.96 4.96 0 0 1-.89 1.406c-.355.407-.789.711-1.297.922-.5.219-1.074.282-1.718.188a44.789 44.789 0 0 1-7 1.86c-2.376.425-4.766.831-7.172 1.218-3.48.55-6.961 1.086-10.438 1.61l-10.531 1.609c5.062.582 10.117 1.148 15.172 1.703 5.05.562 10.125.957 15.218 1.187 1.102.02 2.188.02 3.25 0 1.063-.023 2.141.047 3.235.203.57.082.926.328 1.062.735.145.406.188.847.125 1.328-.125.832-.297 1.531-.515 2.094-.211.562-.508 1.02-.89 1.375-.376.351-.856.593-1.438.718-.575.133-1.29.207-2.141.22a79.16 79.16 0 0 1-4.39-.25c-1.462-.118-2.903-.231-4.329-.345a322.25 322.25 0 0 1-10.734-1.047c-3.531-.406-7.094-.835-10.688-1.28a712.033 712.033 0 0 0-10.656-1.235c-3.543-.387-7.101-.84-10.672-1.36Zm0 0"/></symbol><symbol overflow="visible" id="z" style="overflow:visible"><path style="stroke:none" d="M-5.953 25a4.243 4.243 0 0 1-1.766-1.422 3.345 3.345 0 0 1-.687-2.094c.011-.273.148-.793.406-1.562.262-.762.594-1.672 1-2.735.398-1.062.84-2.195 1.328-3.39.492-1.2.969-2.344 1.438-3.438.468-1.086.886-2.046 1.25-2.89.367-.844.632-1.45.796-1.813a1.942 1.942 0 0 1-.421-.922c-.07-.355-.036-.71.109-1.062.148-.324.402-.672.766-1.047a6.885 6.885 0 0 1 1.203-.984c.449-.293.906-.512 1.375-.657.476-.148.898-.136 1.265.032.332.144.723.398 1.172.765.457.375.914.785 1.375 1.235.469.445.926.89 1.375 1.328.457.445.832.804 1.125 1.078l18.407 16.844 9.625 8.875c1.062.988 2.14 1.96 3.234 2.922a34.195 34.195 0 0 1 3.125 3.124c.3-.812.613-1.62.937-2.421.32-.805.657-1.606 1-2.407.094-.218.258-.605.5-1.156.239-.555.52-1.183.844-1.89.32-.7.66-1.434 1.016-2.204.351-.773.691-1.492 1.015-2.156.32-.668.614-1.23.875-1.687.27-.461.47-.72.594-.782.313-.273.649-.328 1.016-.172.718.313 1.18.79 1.39 1.438.207.656.258 1.36.157 2.11-.094.75-.278 1.5-.547 2.25a27.577 27.577 0 0 1-.735 1.921 17.76 17.76 0 0 1-.843 1.735c-.313.562-.602 1.14-.86 1.734a58.436 58.436 0 0 0-1.453 3.734 52.545 52.545 0 0 1-1.406 3.672 9.11 9.11 0 0 1-.734 1.297 4.983 4.983 0 0 1-1.032 1.172c-.386.32-.812.54-1.281.656-.46.125-.96.067-1.5-.172-.45-.199-.813-.464-1.094-.797a51.814 51.814 0 0 0-.937-1.046 81.806 81.806 0 0 0-5.297-5.078c-1.824-1.586-3.64-3.2-5.453-4.844-4.367-3.93-8.735-7.809-13.11-11.64-4.375-3.837-8.765-7.712-13.171-11.626A172.504 172.504 0 0 1 .25 11.906a99.046 99.046 0 0 0-1.172 3.125 75.766 75.766 0 0 0-1.328 4.453 31.345 31.345 0 0 1-1.563 4.422c-.187.446-.46.797-.828 1.047-.363.258-.8.274-1.312.047Zm0 0"/></symbol><symbol overflow="visible" id="A" style="overflow:visible"><path style="stroke:none" d="M3.469 39.625a87.691 87.691 0 0 1-3.985-2.828 52.286 52.286 0 0 1-4.296-3.547 37.597 37.597 0 0 1-3.875-4.14c-1.176-1.462-2.079-2.985-2.704-4.579a11.597 11.597 0 0 1-.843-4.843c.074-1.637.664-3.29 1.765-4.954a11.116 11.116 0 0 1 2.203-2.421 9.416 9.416 0 0 1 2.813-1.61c1.625-.605 3.508-.773 5.64-.5 2.133.27 4.38.813 6.735 1.625a58.7 58.7 0 0 1 7.172 3.078 126.33 126.33 0 0 1 7.047 3.828 163.882 163.882 0 0 1 6.312 3.875 524.346 524.346 0 0 1 4.969 3.25c.351.239.863.582 1.531 1.032.676.445 1.422.945 2.234 1.5.813.55 1.645 1.129 2.5 1.734.864.602 1.68 1.191 2.454 1.766.77.582 1.43 1.109 1.984 1.578.563.468.941.847 1.14 1.14.208.301.313.555.313.766.008.219-.09.488-.297.813-.668 1-1.508 1.593-2.515 1.78-1.012.188-2.016-.054-3.016-.718a128.215 128.215 0 0 1-4.406-3.063 115.093 115.093 0 0 0-4.36-3.046c-.656-.438-1.617-1.07-2.875-1.891a147.219 147.219 0 0 0-4.375-2.734c-1.656-1-3.449-2.047-5.375-3.141a119.323 119.323 0 0 0-5.843-3.078 77.27 77.27 0 0 0-5.813-2.563c-1.906-.75-3.668-1.304-5.281-1.656-1.602-.344-3.008-.433-4.219-.265-1.219.164-2.117.687-2.703 1.562-.55.832-.703 1.77-.453 2.813.242 1.05.73 2.125 1.469 3.218.742 1.094 1.652 2.188 2.734 3.282A49.395 49.395 0 0 0 .578 29.75a60.68 60.68 0 0 0 3.235 2.531A88.959 88.959 0 0 0 6.25 34c1.227.813 2.617 1.691 4.172 2.64 1.55.946 3.176 1.915 4.875 2.907a134.28 134.28 0 0 0 5.297 2.906c1.832.957 3.629 1.848 5.39 2.672a78.38 78.38 0 0 0 5.172 2.188c1.676.644 3.227 1.132 4.657 1.468.238.07.566.14.984.203.414.063.723.16.922.297.363.239.578.504.64.797.07.29.063.582-.03.875-.095.29-.231.586-.407.89-.18.302-.344.571-.5.813-.356.54-.672.969-.953 1.282-.282.32-.715.628-1.297.921-.387.196-1.078.164-2.078-.093-.992-.25-2.188-.664-3.594-1.235a88.494 88.494 0 0 1-4.656-2.093c-1.7-.825-3.43-1.696-5.188-2.61a259.88 259.88 0 0 1-5.25-2.812 358.41 358.41 0 0 1-4.765-2.688 262.227 262.227 0 0 1-3.813-2.234 81.117 81.117 0 0 1-2.36-1.469Zm0 0"/></symbol><symbol overflow="visible" id="B" style="overflow:visible"><path style="stroke:none" d="M28.219 16.563c-.242.425-.532.707-.875.843-.344.133-.758.063-1.235-.218a6.138 6.138 0 0 1-.765-.547 3.984 3.984 0 0 1-.657-.703c-.437-.461-.777-.84-1.015-1.141-.23-.305-.367-.606-.406-.906-.043-.293.004-.61.14-.954.145-.335.367-.78.672-1.343 2.363-4.45 4.688-8.867 6.969-13.25a279.741 279.741 0 0 0 6.562-13.438 361.541 361.541 0 0 0-3.422 3.875 327.951 327.951 0 0 1-3.453 3.938A299.524 299.524 0 0 0 27.11-2.97a28.063 28.063 0 0 1-4.03 4c-.595.477-1.165.79-1.704.938-.543.156-1.164.031-1.86-.375-.5-.305-.859-.637-1.078-1C18.22.227 18.07-.22 18-.75c-.117-.469-.086-1.21.094-2.234.176-1.032.422-2.211.734-3.547a98.472 98.472 0 0 1 1.094-4.25c.414-1.489.82-2.914 1.219-4.281.406-1.364.78-2.614 1.125-3.75.343-1.133.601-1.993.78-2.579l-2.515 4.313a249.84 249.84 0 0 0-4.765 8.515A167.993 167.993 0 0 0 11.437.126a20.51 20.51 0 0 0-.812 1.984c-.23.688-.527 1.336-.89 1.954-.325.55-.727.8-1.204.75a3.542 3.542 0 0 1-1.36-.454c-1.21-.71-1.984-1.511-2.327-2.406-.344-.898-.149-1.969.593-3.219A174.39 174.39 0 0 0 9.672-9a171.212 171.212 0 0 1 4.265-7.734c.208-.364.579-.989 1.11-1.875a290.04 290.04 0 0 1 1.906-3.125c.738-1.207 1.54-2.516 2.406-3.922.864-1.407 1.739-2.828 2.625-4.266a337.674 337.674 0 0 1 2.61-4.203c.863-1.363 1.64-2.582 2.328-3.656a134.129 134.129 0 0 1 1.734-2.672c.477-.695.797-1.11.953-1.234.29-.227.524-.344.703-.344.176-.008.415.074.72.25.812.468 1.382 1.039 1.718 1.703.332.668.348 1.465.047 2.39.039.637-.09 1.653-.39 3.047-.305 1.399-.7 3-1.188 4.813a199.962 199.962 0 0 1-1.688 5.812c-.625 2.075-1.23 4.063-1.812 5.97-.574 1.898-1.106 3.64-1.594 5.233a158.715 158.715 0 0 0-1.094 3.641c2.739-3.281 5.473-6.531 8.203-9.75a638.69 638.69 0 0 0 8.157-9.812c.476-.563.945-1.102 1.406-1.625.457-.52.867-1.094 1.234-1.72.219-.374.367-.753.453-1.14.082-.394.227-.77.438-1.125.258-.457.562-.648.906-.578a3.35 3.35 0 0 1 1.063.438c.332.187.695.476 1.093.859.407.387.766.813 1.078 1.281.313.461.532.938.657 1.438s.062.96-.188 1.375c-.43.742-.949 1.492-1.562 2.25a196.268 196.268 0 0 1-4.375 11.86 175.161 175.161 0 0 1-5.188 11.515 329.195 329.195 0 0 1-4.844 9.687 382 382 0 0 0-4.812 9.64 7.406 7.406 0 0 1-.234.579 5.58 5.58 0 0 1-.297.563zm0 0"/></symbol><symbol overflow="visible" id="C" style="overflow:visible"><path style="stroke:none" d="M34.266-11.703a94.51 94.51 0 0 1-1.625 4.14 47.195 47.195 0 0 1-2.22 4.579 33.514 33.514 0 0 1-2.812 4.312c-1.03 1.363-2.18 2.5-3.437 3.406a10.254 10.254 0 0 1-4.094 1.782c-1.469.289-3.062.129-4.781-.485a9.861 9.861 0 0 1-2.61-1.406A9.183 9.183 0 0 1 10.642 2.5C9.742 1.176 9.18-.453 8.953-2.39c-.219-1.938-.226-4.036-.015-6.297a55.206 55.206 0 0 1 1.156-7.016c.55-2.426 1.16-4.781 1.828-7.063.676-2.289 1.363-4.43 2.062-6.422.696-1.988 1.297-3.687 1.797-5.093.133-.364.328-.89.578-1.578.25-.696.532-1.461.844-2.297.313-.844.64-1.711.985-2.61.343-.894.68-1.742 1.015-2.547.344-.8.66-1.5.953-2.093.29-.602.547-1.02.766-1.25.219-.25.422-.399.61-.453.187-.063.44-.036.765.078 1.039.375 1.754.992 2.14 1.844.383.843.391 1.789.016 2.828a126.153 126.153 0 0 1-1.75 4.562c-.617 1.5-1.195 3.008-1.734 4.516-.242.668-.59 1.652-1.047 2.953-.45 1.293-.938 2.777-1.469 4.453a179.014 179.014 0 0 0-1.594 5.438 115.21 115.21 0 0 0-1.437 5.828 77.336 77.336 0 0 0-1.016 5.703c-.25 1.855-.351 3.531-.297 5.031.051 1.5.286 2.766.704 3.797.414 1.02 1.066 1.691 1.953 2.016.863.312 1.726.242 2.593-.204.875-.437 1.711-1.105 2.516-2 .8-.894 1.566-1.941 2.297-3.14a47.564 47.564 0 0 0 3.515-7c.438-1.063.766-1.906.985-2.531.457-1.258.937-2.68 1.437-4.266.5-1.582 1-3.235 1.5-4.953.5-1.719.97-3.489 1.407-5.313.445-1.82.843-3.601 1.187-5.343.344-1.739.613-3.422.813-5.047.195-1.625.297-3.098.297-4.422 0-.239-.024-.547-.063-.922-.031-.375-.012-.664.063-.875.132-.363.32-.61.562-.734.238-.126.5-.18.781-.172.29 0 .582.054.875.156.301.094.582.187.844.281.55.2 1 .387 1.344.563.343.18.703.492 1.078.937.258.305.383.922.375 1.86 0 .93-.106 2.074-.313 3.437a68.03 68.03 0 0 1-.843 4.563c-.356 1.68-.746 3.402-1.172 5.171-.418 1.762-.86 3.512-1.328 5.25-.47 1.73-.918 3.328-1.344 4.797-.418 1.461-.797 2.746-1.14 3.86a66.28 66.28 0 0 1-.766 2.406zm-7.891-44.89c.07-.227.21-.376.422-.438.207-.07.441-.094.703-.063.27.024.523.078.766.172.238.086.453.156.64.219.227.086.492.187.797.312.313.125.594.282.844.47.25.179.441.386.578.624.133.242.145.512.031.813-.043.125-.14.375-.297.75-.148.367-.304.773-.468 1.218-.168.438-.325.836-.47 1.188-.136.355-.218.531-.25.531-.273.2-.558.262-.858.188a6.875 6.875 0 0 1-.813-.25c-.719-.25-1.246-.47-1.578-.657-.324-.195-.531-.425-.625-.687-.086-.27-.078-.598.016-.984.101-.383.222-.891.359-1.516.02-.3.023-.61.016-.922 0-.32.062-.645.187-.969zm9.016 3.234c.07-.227.207-.375.406-.438.207-.07.441-.094.703-.062.27.023.523.074.766.156a30.966 30.966 0 0 1 1.438.547c.312.117.593.265.843.453.25.187.441.402.578.64.133.243.145.512.031.813-.043.125-.136.375-.281.75l-.484 1.203c-.168.438-.325.84-.47 1.203-.136.356-.214.532-.233.532-.274.199-.56.261-.86.187a6.52 6.52 0 0 1-.828-.25c-.719-.258-1.246-.484-1.578-.672-.324-.195-.531-.426-.625-.687-.086-.258-.078-.582.016-.97.101-.382.222-.89.359-1.515.02-.312.031-.625.031-.937 0-.313.063-.63.188-.953zm0 0"/></symbol><symbol overflow="visible" id="D" style="overflow:visible"><path style="stroke:none" d="M26.188 1.422c-.086.426-.211.844-.375 1.25a3.216 3.216 0 0 1-.625 1.047c-.25.289-.563.504-.938.64-.367.145-.813.172-1.344.079-.656-.106-1.164-.336-1.515-.688-.344-.344-.641-.805-.891-1.375a12.357 12.357 0 0 1-.844-2.453 30.364 30.364 0 0 1-.531-2.828 81.651 81.651 0 0 1-.36-2.86c-.105-.957-.203-1.843-.296-2.656a288.047 288.047 0 0 1-1.578-12.765c-.43-4.227-.946-8.477-1.547-12.75a1469.816 1469.816 0 0 0-2.938 15.624c-.949 5.18-1.87 10.391-2.765 15.641a7.81 7.81 0 0 1-.204.906c-.085.336-.199.649-.343.938a1.769 1.769 0 0 1-.578.687c-.243.176-.547.235-.922.172-1.23-.207-2.11-.695-2.64-1.468C4.43-2.22 4.28-3.224 4.5-4.454c1.156-6.79 2.316-13.52 3.484-20.188 1.164-6.675 2.32-13.39 3.47-20.14l.89-5.14c.094-.552.27-.993.531-1.329.27-.344.754-.453 1.453-.328.488.086.973.234 1.453.453.489.21.91.48 1.266.813.351.335.617.734.797 1.203.187.468.234.996.14 1.578a42.884 42.884 0 0 1 1.532 6.422c.343 2.168.656 4.343.937 6.53.438 3.188.852 6.372 1.25 9.548.406 3.18.817 6.383 1.235 9.61.632-4.595 1.257-9.18 1.875-13.767.625-4.582 1.093-9.18 1.406-13.796.062-1.008.093-2 .093-2.97 0-.976.086-1.968.266-2.968.082-.5.305-.805.672-.922a2.477 2.477 0 0 1 1.203-.078c.75.125 1.379.293 1.89.5.52.211.938.492 1.25.844.321.355.532.797.626 1.328.101.531.156 1.184.156 1.953a76.744 76.744 0 0 1-.328 3.984l-.438 3.954a274.112 274.112 0 0 1-1.172 9.718c-.437 3.211-.898 6.438-1.375 9.688a576.124 576.124 0 0 0-1.39 9.672 299.477 299.477 0 0 1-1.485 9.703zm0 0"/></symbol><symbol overflow="visible" id="E" style="overflow:visible"><path style="stroke:none" d="M30.031-11.375c0 .367-.054.73-.156 1.094-.105.355-.215.703-.328 1.047a20.873 20.873 0 0 1-1.922 3.906 14.105 14.105 0 0 1-2.672 3.125 12.156 12.156 0 0 1-3.469 2.078c-1.293.508-2.718.773-4.28.797-2.095.031-3.9-.383-5.407-1.235a12.665 12.665 0 0 1-3.875-3.375A20.08 20.08 0 0 1 5.25-8.625a33.816 33.816 0 0 1-1.672-5.203 72.689 72.689 0 0 1-1.5-7.563 61.514 61.514 0 0 1-.594-7.625c-.023-1.5.02-3.047.125-4.64.114-1.594.329-3.172.641-4.735.32-1.57.766-3.086 1.328-4.547a19.598 19.598 0 0 1 2.125-4.078 16.064 16.064 0 0 1 3.094-3.359c1.195-.977 2.61-1.75 4.234-2.313a8.092 8.092 0 0 1 1.813-.484 15.291 15.291 0 0 1 1.922-.156c1.27-.02 2.484.168 3.64.562 1.164.399 2.192.97 3.078 1.72a8.034 8.034 0 0 1 2.094 2.718c.52 1.074.79 2.273.813 3.594.007.449-.086.78-.282 1-.187.218-.53.336-1.03.343-.907.024-1.61-.113-2.11-.406a4.24 4.24 0 0 1-1.25-1.078 6.986 6.986 0 0 1-.813-1.422 7.163 7.163 0 0 0-.781-1.422 3.571 3.571 0 0 0-1.203-1.078c-.492-.289-1.164-.426-2.016-.406a5.93 5.93 0 0 0-2.422.531 7.889 7.889 0 0 0-2.03 1.328 11.23 11.23 0 0 0-1.657 1.86c-.492.68-.93 1.359-1.313 2.047a21.512 21.512 0 0 0-2.078 6.171 35.43 35.43 0 0 0-.515 6.532c.007.742.054 1.695.14 2.859a97.9 97.9 0 0 0 .36 3.844c.156 1.398.367 2.87.64 4.422A62.02 62.02 0 0 0 9-15.047a38.893 38.893 0 0 0 1.36 4.281c.53 1.368 1.128 2.559 1.796 3.579.664 1.023 1.41 1.835 2.235 2.437a4.522 4.522 0 0 0 2.796.86c1.063-.02 1.993-.313 2.797-.876a7.81 7.81 0 0 0 2.047-2.125 13.413 13.413 0 0 0 1.39-2.78c.364-1 .645-1.927.845-2.782.07-.25.14-.473.203-.672.062-.195.144-.367.25-.516a.914.914 0 0 1 .406-.343c.176-.082.422-.125.734-.125.344-.008.754.054 1.235.187a6.12 6.12 0 0 1 1.375.547c.437.242.8.531 1.093.875.301.336.458.71.47 1.125zm0 0"/></symbol><symbol overflow="visible" id="F" style="overflow:visible"><path style="stroke:none" d="M25.266-33.64c.195 1.085.054 1.902-.422 2.453-.48.542-1.211 1-2.188 1.375a257.06 257.06 0 0 1 2.422 11.015c.719 3.656 1.41 7.344 2.078 11.063.102.586.063 1.054-.125 1.406-.18.355-.578.59-1.203.703a6.94 6.94 0 0 1-1.61.094 4.833 4.833 0 0 1-1.5-.313 2.99 2.99 0 0 1-1.187-.828c-.324-.383-.539-.89-.64-1.516l-2.047-11.28c-.25-1.427-.508-2.848-.766-4.266A158.22 158.22 0 0 0 17.234-28a179.11 179.11 0 0 1-6.093 1.86 95.182 95.182 0 0 1-6.157 1.546A484.245 484.245 0 0 0 8.204-9.25c.257 1.043.523 2.063.796 3.063.27 1 .492 2.007.672 3.015.094.492.023.883-.203 1.172-.219.293-.574.48-1.063.563a7.57 7.57 0 0 1-1.172.109 7.296 7.296 0 0 1-1.265-.078A5.618 5.618 0 0 1 4.75-1.75a2.564 2.564 0 0 1-.922-.656c-.094-.102-.219-.453-.375-1.047-.156-.602-.34-1.36-.547-2.266-.199-.914-.418-1.953-.656-3.11-.23-1.155-.46-2.347-.688-3.577a650.071 650.071 0 0 0-.656-3.625C.696-17.227.5-18.332.312-19.344.133-20.364-.02-21.25-.156-22c-.133-.75-.227-1.266-.281-1.547-.333.063-.645.04-.938-.078-.3-.113-.484-.348-.547-.703a2.332 2.332 0 0 1 .172-1.313c.18-.437.418-.828.719-1.172L-4.97-48.672c-.093-.488-.07-.894.063-1.219.125-.32.445-.53.953-.625.824-.144 1.508-.14 2.047.016.543.156.976.422 1.297.797.324.375.578.851.765 1.422.196.574.367 1.199.516 1.875.601 2.937 1.18 5.883 1.734 8.828a572.006 572.006 0 0 0 1.75 8.781A797.98 797.98 0 0 0 10.22-30.5a63.693 63.693 0 0 0 6.047-2.047c-.586-2.52-1.196-5.02-1.828-7.5a114.323 114.323 0 0 0-2.157-7.484A76.53 76.53 0 0 0 10.937-51a16.68 16.68 0 0 1-1.046-3.578c-.086-.426.023-.727.328-.906a3.117 3.117 0 0 1 1.015-.36 5.976 5.976 0 0 1 1.813-.031 2.673 2.673 0 0 1 1.594.75c.27.273.617.887 1.046 1.844.426.96.868 2.11 1.329 3.453.457 1.344.922 2.797 1.39 4.36.477 1.554.922 3.042 1.328 4.468.414 1.43.782 2.719 1.094 3.875.32 1.156.54 2 .656 2.531.282-.125.57-.242.875-.36.313-.124.61-.21.891-.265.57-.101 1.023-.004 1.36.297.331.305.55.73.656 1.281zm0 0"/></symbol><symbol overflow="visible" id="G" style="overflow:visible"><path style="stroke:none" d="M23.75-17.266c.145.387.129.82-.047 1.297-.168.469-.414.961-.734 1.469-.313.512-.649.996-1 1.453-.356.461-.649.836-.875 1.125A50 50 0 0 1 19.28-9.64a19.18 19.18 0 0 1-1.968 2.016 17.01 17.01 0 0 1-2.235 1.688c-.793.492-1.664.914-2.61 1.265l-.515.281c-.762.274-1.547.461-2.36.563a8.59 8.59 0 0 1-2.39-.016 6.969 6.969 0 0 1-2.219-.719c-.71-.363-1.351-.89-1.921-1.578-.43-.55-.86-1.226-1.297-2.03-.43-.813-.84-1.665-1.235-2.563-.386-.907-.758-1.797-1.125-2.672-.363-.875-.687-1.649-.969-2.328a1301.894 1301.894 0 0 1-8.593-20.813c-.344-.8-.676-1.598-1-2.39-.32-.801-.633-1.602-.938-2.407-.5-1.375-.847-2.57-1.047-3.593-.195-1.032-.164-1.946.094-2.75.25-.801.781-1.508 1.594-2.126.812-.613 1.965-1.195 3.453-1.75 1.5-.539 3.012-1.078 4.531-1.609a252.055 252.055 0 0 0 4.531-1.64c.47-.165.926-.348 1.375-.547a5.11 5.11 0 0 1 1.422-.391 2.43 2.43 0 0 1 .813-.047c.25.031.437.219.562.563.313.836.258 1.554-.156 2.156-.406.605-.965 1.117-1.672 1.531A13.4 13.4 0 0 1 1.125-50.5c-.824.293-1.5.54-2.031.734l-4.485 1.657c-.468.168-.93.336-1.39.5-.457.168-.907.367-1.344.593-.008.399.031.79.125 1.172.086.375.195.762.328 1.157.93 2.511 1.902 4.964 2.922 7.359a1178.68 1178.68 0 0 1 3.094 7.281c1.386-.644 2.75-1.305 4.093-1.984a133.24 133.24 0 0 0 4.047-2.11c.196-.07.38-.148.547-.234.176-.094.36-.172.547-.234.477-.176.86-.176 1.14 0 .29.18.52.5.688.968.114.325.207.633.281.922.07.282.102.578.094.89.008.524-.136.954-.437 1.298a4.714 4.714 0 0 1-1.094.906c-.43.25-.89.469-1.39.656-.493.18-.915.344-1.266.5-.95.399-1.887.778-2.813 1.14-.93.368-1.855.747-2.781 1.142.207.48.508 1.195.906 2.14.406.95.86 2.016 1.36 3.203.507 1.188 1.039 2.414 1.593 3.672.551 1.25 1.082 2.434 1.594 3.547A58.048 58.048 0 0 0 6.86-10.75c.426.805.754 1.336.985 1.594.426.398.828.61 1.203.64.375.024.828-.066 1.36-.265.843-.313 1.675-.805 2.5-1.485a17.245 17.245 0 0 0 2.296-2.296 25.289 25.289 0 0 0 1.938-2.641 23.902 23.902 0 0 0 1.468-2.61c.164-.3.336-.609.516-.921a1.42 1.42 0 0 1 .797-.657 2 2 0 0 1 1.11-.062c.394.086.773.234 1.14.453.375.219.703.484.984.797.282.312.477.625.594.937zm0 0"/></symbol><symbol overflow="visible" id="H" style="overflow:visible"><path style="stroke:none" d="M21.078-15.578c.219.375.395.773.531 1.187.145.418.207.825.188 1.22-.012.386-.117.75-.313 1.093-.199.336-.53.637-1 .906-.586.336-1.12.48-1.609.438-.492-.04-1.008-.207-1.547-.5a12.077 12.077 0 0 1-2.25-1.344c-.75-.57-1.48-1.18-2.187-1.828-.711-.656-1.407-1.317-2.094-1.985a107.973 107.973 0 0 0-1.938-1.859 324.254 324.254 0 0 1-9.328-8.844 340.028 340.028 0 0 0-9.312-8.843c2.531 4.68 5.086 9.32 7.656 13.921 2.57 4.594 5.188 9.2 7.844 13.813.133.242.273.515.422.828.156.305.265.61.328.922.07.312.07.621 0 .922-.074.293-.274.531-.594.718-1.086.625-2.078.81-2.984.547-.899-.27-1.653-.945-2.266-2.03A3441.59 3441.59 0 0 1-9.547-24.079a4572.336 4572.336 0 0 0-10.156-17.735l-2.594-4.53c-.281-.489-.422-.946-.422-1.376-.008-.426.293-.816.907-1.172.43-.25.898-.441 1.406-.578a4.745 4.745 0 0 1 1.5-.156c.48.023.937.156 1.375.406.437.242.804.61 1.093 1.11a42.398 42.398 0 0 1 5.282 3.984 276.617 276.617 0 0 1 4.89 4.438C-3.898-37.5-1.55-35.306.781-33.11c2.332 2.187 4.692 4.39 7.078 6.609A2990.98 2990.98 0 0 0 .547-38.313a201.582 201.582 0 0 0-7.719-11.53A58.023 58.023 0 0 0-9-52.188a18.97 18.97 0 0 1-1.688-2.438c-.25-.438-.269-.82-.062-1.156.21-.332.5-.61.875-.828.656-.383 1.25-.657 1.781-.813.531-.164 1.031-.21 1.5-.14.469.074.914.28 1.328.624.418.336.868.797 1.344 1.391a69.97 69.97 0 0 1 2.313 3.281 251.855 251.855 0 0 1 2.171 3.328 252.638 252.638 0 0 1 5.297 8.235c1.696 2.762 3.395 5.547 5.094 8.36A988.777 988.777 0 0 0 16.047-24a332.873 332.873 0 0 1 5.031 8.422zm0 0"/></symbol></defs><path style="fill:#1c1935;fill-opacity:1;fill-rule:nonzero;stroke:none" d="M711.84 303.645c0-156.743-127.067-283.805-283.809-283.805-156.742 0-283.804 127.062-283.804 283.805 0 156.742 127.062 283.808 283.804 283.808 156.742 0 283.809-127.066 283.809-283.808" transform="translate(-144.227 -19.84)"/><path style="fill:#fff;fill-opacity:1;fill-rule:nonzero;stroke:none" d="M632.645 303.645c0-113.004-91.606-204.614-204.614-204.614-113.004 0-204.61 91.61-204.61 204.614 0 113.007 91.606 204.617 204.61 204.617 113.008 0 204.614-91.61 204.614-204.617" transform="translate(-144.227 -19.84)"/><use xlink:href="#a" x="263.819" y="441.221" width="100%" height="100%" style="fill:#fff;fill-opacity:1" transform="translate(-144.227 -19.84)"/><use xlink:href="#b" x="241.471" y="407.839" width="100%" height="100%" style="fill:#fff;fill-opacity:1" transform="translate(-144.227 -19.84)"/><use xlink:href="#c" x="234.139" y="394.297" width="100%" height="100%" style="fill:#fff;fill-opacity:1" transform="translate(-144.227 -19.84)"/><use xlink:href="#d" x="222.407" y="363.65" width="100%" height="100%" style="fill:#fff;fill-opacity:1" transform="translate(-144.227 -19.84)"/><use xlink:href="#e" x="215.207" y="326.642" width="100%" height="100%" style="fill:#fff;fill-opacity:1" transform="translate(-144.227 -19.84)"/><use xlink:href="#f" x="214.392" y="291.413" width="100%" height="100%" style="fill:#fff;fill-opacity:1" transform="translate(-144.227 -19.84)"/><use xlink:href="#g" x="218.649" y="258.519" width="100%" height="100%" style="fill:#fff;fill-opacity:1" transform="translate(-144.227 -19.84)"/><use xlink:href="#h" x="229.878" y="222.191" width="100%" height="100%" style="fill:#fff;fill-opacity:1" transform="translate(-144.227 -19.84)"/><use xlink:href="#i" x="247.99" y="187.421" width="100%" height="100%" style="fill:#fff;fill-opacity:1" transform="translate(-144.227 -19.84)"/><use xlink:href="#j" x="273.958" y="154.928" width="100%" height="100%" style="fill:#fff;fill-opacity:1" transform="translate(-144.227 -19.84)"/><use xlink:href="#k" x="302.631" y="129.979" width="100%" height="100%" style="fill:#fff;fill-opacity:1" transform="translate(-144.227 -19.84)"/><use xlink:href="#l" x="336.278" y="109.886" width="100%" height="100%" style="fill:#fff;fill-opacity:1" transform="translate(-144.227 -19.84)"/><use xlink:href="#m" x="376.841" y="95.658" width="100%" height="100%" style="fill:#fff;fill-opacity:1" transform="translate(-144.227 -19.84)"/><use xlink:href="#n" x="414.432" y="89.788" width="100%" height="100%" style="fill:#fff;fill-opacity:1" transform="translate(-144.227 -19.84)"/><use xlink:href="#o" x="453.801" y="91.485" width="100%" height="100%" style="fill:#fff;fill-opacity:1" transform="translate(-144.227 -19.84)"/><use xlink:href="#p" x="473.619" y="94.409" width="100%" height="100%" style="fill:#fff;fill-opacity:1" transform="translate(-144.227 -19.84)"/><use xlink:href="#q" x="508.656" y="105.296" width="100%" height="100%" style="fill:#fff;fill-opacity:1" transform="translate(-144.227 -19.84)"/><use xlink:href="#r" x="540.226" y="121.057" width="100%" height="100%" style="fill:#fff;fill-opacity:1" transform="translate(-144.227 -19.84)"/><use xlink:href="#s" x="573.313" y="146.216" width="100%" height="100%" style="fill:#fff;fill-opacity:1" transform="translate(-144.227 -19.84)"/><use xlink:href="#t" x="600.154" y="176.224" width="100%" height="100%" style="fill:#fff;fill-opacity:1" transform="translate(-144.227 -19.84)"/><use xlink:href="#u" x="620.075" y="208.613" width="100%" height="100%" style="fill:#fff;fill-opacity:1" transform="translate(-144.227 -19.84)"/><use xlink:href="#v" x="634.264" y="246.108" width="100%" height="100%" style="fill:#fff;fill-opacity:1" transform="translate(-144.227 -19.84)"/><use xlink:href="#w" x="640.959" y="280.75" width="100%" height="100%" style="fill:#fff;fill-opacity:1" transform="translate(-144.227 -19.84)"/><use xlink:href="#x" x="641.724" y="318.789" width="100%" height="100%" style="fill:#fff;fill-opacity:1" transform="translate(-144.227 -19.84)"/><use xlink:href="#y" x="634.702" y="358.207" width="100%" height="100%" style="fill:#fff;fill-opacity:1" transform="translate(-144.227 -19.84)"/><use xlink:href="#z" x="628.977" y="377.38" width="100%" height="100%" style="fill:#fff;fill-opacity:1" transform="translate(-144.227 -19.84)"/><use xlink:href="#A" x="615.396" y="407.69" width="100%" height="100%" style="fill:#fff;fill-opacity:1" transform="translate(-144.227 -19.84)"/><path style="fill:#1c1935;fill-opacity:1;fill-rule:nonzero;stroke:none" d="M629.645 303.645c0-111.348-90.262-201.614-201.614-201.614-111.347 0-201.61 90.266-201.61 201.614 0 111.351 90.263 201.617 201.61 201.617 111.352 0 201.614-90.266 201.614-201.617" transform="translate(-144.227 -19.84)"/><use xlink:href="#B" x="275.974" y="529.774" width="100%" height="100%" style="fill:#fff;fill-opacity:1" transform="translate(-144.227 -19.84)"/><use xlink:href="#C" x="321.784" y="554.479" width="100%" height="100%" style="fill:#fff;fill-opacity:1" transform="translate(-144.227 -19.84)"/><use xlink:href="#D" x="367.468" y="569.186" width="100%" height="100%" style="fill:#fff;fill-opacity:1" transform="translate(-144.227 -19.84)"/><use xlink:href="#E" x="413.685" y="575.793" width="100%" height="100%" style="fill:#fff;fill-opacity:1" transform="translate(-144.227 -19.84)"/><use xlink:href="#F" x="460.905" y="574.056" width="100%" height="100%" style="fill:#fff;fill-opacity:1" transform="translate(-144.227 -19.84)"/><use xlink:href="#G" x="509.078" y="563.63" width="100%" height="100%" style="fill:#fff;fill-opacity:1" transform="translate(-144.227 -19.84)"/><use xlink:href="#H" x="550.575" y="546.88" width="100%" height="100%" style="fill:#fff;fill-opacity:1" transform="translate(-144.227 -19.84)"/><path style="fill:#fff;fill-opacity:1;fill-rule:evenodd;stroke:none" d="M427.664 228.672c2.07.437 3.676 1.336 4.05 3.469-2.46 1.879-6.78-1.743-4.05-3.47M422.457 242.555c5.465 5.965 20.34 5.437 18.516 16.78-4.344 1.063-4.391-2.167-5.207-4.628-5.192-2.945-16.528-2.719-13.309-12.152M483.785 315.453c1.89.23 3.738.504 4.05 2.317-.843.894-2.964.507-4.628.578-.187-1.344.094-2.223.578-2.895M482.05 321.238c2.524 4.582-4.132 9.707-6.366 4.63.46-3.204 2.578-4.75 6.367-4.63M485.52 325.29c1.664.073 2.75.722 2.316 2.894-1.664-.075-2.75-.723-2.316-2.895M485.52 334.547c-2.172 1.453-5.77.223-6.942-1.156.168-3.95 7.438-2.36 6.942 1.156" transform="translate(-144.227 -19.84)"/><path style="fill:#fff;fill-opacity:1;fill-rule:evenodd;stroke:none" d="M466.43 359.426h3.468c.375-2.18 1.274-6.114 0-8.102-4.296.086-5.476 4.934-3.468 8.102m-11.575 0c1.653 1.238 2.918 2.87 6.368 2.312 1.785-1.46 1.468-7.566.578-9.836-5.305-2.668-8.293 1.645-6.946 7.524m-17.355-1.16c1.14.793 3.305.554 4.629 1.16-.25-2.64.586-6.371-.578-8.102-4.387-.738-5.465 3.664-4.051 6.942m9.836 2.316h4.05c.762-1.906.587-6.36-.577-9.258-5.32-4.406-6.918 6.637-3.473 9.258m120.918-5.207c3.758.871 6.613 2.645 10.992 2.89 1.274-12.59-9.601-14.015-10.992-2.89m-120.918-8.102h2.894c1.13-3.808-3.843-3.546-2.894 0m-7.523-.578c2.3.18 3.132-1.11 2.894-3.468-1.394.234-1.258-1.059-2.894-.582-.805 1.687-1.434 2.87 0 4.05m-17.356 13.887c-7.727-3.535-18.785.547-28.926-1.156-11.172-1.875-17.636-10.508-23.144-17.36-.871-1.566-2.496.922-3.473 1.16-2.113 14.504 18.02 13.473 19.094 23.72.504 4.796-2.496 6.034-3.473 10.413 4.168.657 11.399-1.75 12.153 2.317-1.141 3.488-6.497 2.758-8.68 5.207.5 2.305-.863 4.273 0 5.207 2.722-1 6.87.058 9.258 1.156.629 4.293-3.453 3.871-4.051 6.942 2.27 3.757 4.223-.313 6.941-.579 11.032-1.078 11.692 12.133 23.145 11.57.137.829.953.977 1.156 1.735 1.54 3.09-.457 9.719 5.207 8.68 2.324-1.145-.348-7.29 4.05-6.364 3.243.422.208 7.122 4.052 6.942 4.34.68 2.554-4.77 5.785-5.207 2.683.402 1.71 4.46 4.05 5.207 2.56.633 2.876-.98 4.63-1.156 1.41-3.133.296-7.227-1.739-8.676-22.699.746-39.55-5.055-34.715-28.352 3.207-3.55 9.672-2.039 13.887-3.472.457-4.985-6.871-4.957-5.785-8.676 6.348-3.309 9.43 4.308 12.726 4.047-2.617-5.078-7.285-11.082-12.148-13.305M317.16 340.91c-2.324-.57-5.078-.707-8.098-.578.989 2.652 7.192 4.078 8.098.578m138.856 4.05h3.468c-.214-2.292.532-5.542-.578-6.94h-1.734c-2.086 2.433.047 4.218-1.156 6.94m9.254 2.313h5.207c-.164-3.441 1.207-5.351 1.738-8.097-6.52-5.824-13.512 3.25-6.945 8.097m86.785-10.992c1.605 4.758 5.14 7.586 7.52 11.57 6.84-1.64 11.991-4.976 17.937-7.519-.532-17.941-16.137-6.918-25.457-4.05m-88.52-4.63c1.383.934 2.727 1.907 5.207 1.739 2.332-1.332 1.7-5.63 1.735-9.258-4.801-3.68-8.301 1.46-6.942 7.52m5.207-17.934h-6.363c.5 4.011 6.824 6.469 6.363 0m-45.707 2.312c1.926 1.742 5.457 1.871 9.258 1.739.883-1.055.883-4.735 0-5.786-3.781-1.515-8.242.91-9.258 4.047m57.277-1.156c-3.542-.89-2.527-6.34-6.94-6.363-.177 10.781-.321 21.535 1.733 30.086 1.57.355 4.59-.735 5.207.578.258 4.887-5.699 3.554-5.785 8.097 1.465 1.692 6.02 1.457 7.524 0 .187-2.125-.496-5.12.578-6.363 2.281-1.539 6.992.235 8.676-.578 4.23-5.039-1.395-13.238 2.894-17.934-3.37-4.093-3.547-9.039-4.629-14.464-8.304-3.871-5.02 5.46-9.258 6.941m-26.035-7.52c-.355 1.907 2.09 5.48 3.473 7.52 3.031-2.18.437-10.422-3.473-7.52m-18.511 1.735c.824 2.281 5.359.558 5.207-1.735-1.438-1.015-4.918-.21-5.207 1.735m-165.47 8.101c3.13 4.872 6.384 12.387 13.888 10.993 4.062-4.895-.395-12 .578-19.094-6.168 2-10.696-.774-13.887-3.473.922 3.098 1.078 9.25-.578 11.574m173.566-13.886c1.227 2.054 1.653 4.906 5.207 4.629 1.684-2.926-1.925-6.762-5.207-4.63m-23.718 7.52c3.34-1.285 7.453-1.804 8.675-5.207-4.644-1.523-6.879-5.46-12.726-5.781-1.793 4.61.996 9.328 4.05 10.988m-26.613-19.09c-.008.766-1.015.528-1.16 1.157-9.164 16.414-22.516 29.14-38.184 38.183-16.792 9.696-37.875 11.434-50.332 26.035 10.262-1.437 19.98-9.148 31.243-5.785-.766 8.496-12.578 2.164-17.36 6.942-2.867 2.867-3.148 8.894-1.156 13.886 6.598-.343 9.86-4.023 17.355-3.472 4.06-1.762 6.5-12.301 12.153-6.942-4.262 7.961-12.828 13.801-23.723 13.309-2.887 3.394-1.36 11.406 1.156 14.46 4.438-1.296 8.07-2.44 11.575-5.784 2.968-2.836 5.172-11.582 10.414-6.364-1.817 6.926-10.594 8.442-11.575 16.778-.308 2.644 1.149 5.324.579 8.101-.84 4.114-6.184 6.953-5.786 11.57.215 2.485 3.07 4.208 4.051 6.946 1.38 3.848.465 6.77 1.735 10.41 6.574 5.402 8.351-3.316 12.73-5.203 3.41.875.242 5.508 1.734 7.52 2.836 1.796 3.524-2.84 6.942-2.317 2.05.461.898 4.121 4.05 3.473 2.188-.84 2.977-4.38 1.739-6.942-9.352-3.382-21.274-4.187-18.516-19.672 1.985-3.609 6.38-4.804 11.57-5.207 3.153-3.503 1.801-8.144 3.473-11.57 5.352-10.976 24.614-10.746 21.985-27.191-6.207-3.133-13.97-5.227-16.778-12.153-7.125-17.578 15.09-18.109 23.72-24.879.608-3.949-7.935-17.152 1.16-19.09 4.171 2.66 1.648 9.407 2.312 13.305 1.27 7.446 9.515 12.293 8.68 20.828 10.648.043 15.453-5.757 18.511-13.304 2.262.054 4.211.418 4.629 2.312-1.316 4.512-6.71 10.051-2.312 15.043 9.125-.129 8.906-9.605 13.882-13.887 3.914.782 1.41 5.942 3.473 7.524 4.043.766.992-5.563 5.207-4.629 3.05 3.137 6.371 12.945 10.992 4.629.305-2.813-2.46-2.555-2.312-5.207 1.797-1.867 5.64-1.688 5.785-5.207-1.27-2.203-5.383-1.563-5.207-5.207 2.074-2.262 5.68.601 6.941-2.317 1.078-3.593-3.203-2.003-5.785-4.046-2.61-2.067-2.512-5.114-5.207-5.786-2.734-.683-5.414.47-8.102 2.313-1.582 3.082.653 6.703-2.89 8.101-13.34 1.16-22.098-4-24.3-13.886-.556-2.5 1.679-7.582-2.313-8.676-4.977-.352-2.465 6.793-6.364 7.52-6.718-1.965-2.336-15.024-10.414-15.622m131.332-10.414c-10.875 2.606-21.687-4.668-34.715-2.316-1.742 2.309-3.488 4.613-3.468 8.68 3.12 6.52 15.53 3.754 22.562 6.363-1.375 20.316.32 45.012 1.735 62.484-8.418 2.313-20.254-2.297-26.036 2.317-.699 2.02-1.078 6.722 0 8.675 6.07 2.872 18.23.137 23.72.579 2.437 14.343.503 33.054 1.737 48.601 5.13 1.235 12.454.274 18.512.578.38-16.086-3.273-34.02-.578-48.601 6.441-.516 16.39.601 23.723-.578.175-3.286.382-9.989-.578-13.883-8.036-3.399-17.586 3.601-23.145-1.16-3.055-2.614-.883-8.176-.578-12.727.95-14.125-2.973-34.91-1.734-45.703 1.863-.836 4.851-.55 7.52-.582-1.27-4.137-3.876-2.465-4.052-6.363-.191-4.371 8.13-7.926 5.207-11.57-4.36.363-5.797 4.238-9.832 5.206m17.934 6.364c3.312.027 7.601-5.938 9.258-.579-1.395 2.274-5.52 1.81-4.63 6.364 2.497 1.496 7.915-2.95 8.68 1.734-3.09 1.93-6.48 3.55-6.367 8.68-3.468.004-6.441.496-5.785 4.629 9.52 1.972 25.031-8.512 17.938-19.672.687-1.82 1.953-3.059 2.312-5.207-3.375-2.024-6.734-4.067-6.363-9.836-11.813-2.664-24.477 6.066-15.043 13.887m-271.922-21.985c17.406 4.727-5.48 17.102 0 30.664 1.5-15.09 11.098-22.074 19.672-30.086-6.942 5.852-12.633-5.222-19.672-.578m55.543-6.945c-5.121 25.933-45.977 16.125-46.863 46.285 6.476-1.719 11.937-9.598 20.828-7.52 3.652.852 4.543 4.344 8.097 6.364 4.012-1.516-.14-7.703 3.473-9.254 4.27 2.844 14.016 5.855 16.777-.582-2.933-3.813-9.593-3.906-13.304-6.942 1.793-1.843 2.93-4.855 1.734-8.101 3.016-4.121 10.926-3.344 12.149-9.254-.88-1.434-3.594-1.035-3.47-3.473 2.098-1.75 4.516-7.02 1.157-9.257-.031.738-.742.8-.578 1.734m22.562 4.05c2.137.41 6.27-1.695 7.524-4.05-.848-1.082-3.176-.68-2.895-2.89.5-2.391 4.215-1.567 4.63-4.052-.43-1.69-3.126-1.117-2.895-3.472 3.754-2.188 6.125-8.317 5.207-13.305-10 2.742-14.79 13.735-11.57 27.77m81.578-37.028c-9.907-.48-29.075 6.668-34.715 10.414 1.484 3.746 2.59 8.887 1.734 13.309-11.84 12.656-30.762 21.3-30.082 44.547 6.098-6.633 17.27-3.926 24.875-8.098 5.774-3.168 7.152-15.93 14.465-10.414.137 4.266-7.059 6.684-8.098 10.992-1.015 4.2.575 8.672 3.469 11.57 9.906 1.227 5.711-11.644 12.73-13.308.098.676.915.633 1.735.582 1.277 2.305-.367 3.934 0 6.942 5.77 5.05 11.273 13.382 21.984 11.57 2.739-3.102.29-8.52 1.739-12.149 4.144-.097 3.363 4.735 6.363 5.786 9.23 2.918 16.422 7.875 21.984 14.464 1.461-4.648-1.09-10.023-.578-15.62-4.516-4.981-4.203-9-7.52-12.731-11.206-12.586-35.343-7.067-46.867-19.09-3.785-3.953-6.586-8.656-8.675-15.043.855-.3 1.457-.855 2.312-1.16 5.59 2.297 4.332 5.535 6.363 8.68 12.028 18.597 51.133 6.609 54.965 31.82 3.121 1.508 3.95 5.308 9.836 4.05-1.328-4.327-6.61-7.577-4.05-13.886 20.902 2.77 12.144-9.36 7.523-17.356.258-2.441 2.48-2.918 1.734-6.363-6.418-1.297-8.793-6.637-11.57-11.57-11.352.719-19.899-4.375-26.613-6.367-.227 10.004-16.657 10.656-16.782 1.738-.062-4.77 4.075-7.145 9.258-8.102-.344-3.851-4.32-5.05-7.52-5.207m104.72 41.078c3.71-8.44 6.019-20.703 4.624-32.398-7.761-7.664-20.218-10.637-35.867-10.414-4.172 6.05-12.3 8.144-13.887 16.777 10.34 7.957 21.797-6.89 30.665-4.05 0 .582.468.69.578 1.156-1.047 5.316-8.922 3.808-10.993 8.101.09 8.25 5.297 12.211 12.727 13.309 3.105.457 8.352-1.727 9.836 2.312-9.867 5.024-25.871.86-27.191-9.836-3.454.985-4.825 4.047-10.415 2.895-2.484-.793-1.746-4.812-4.628-5.207-3.395 7.68 4.488 12.426 4.05 20.828 7.043 1.176 17.864-3.672 17.934 6.363 3.484 1.149 8.918.34 13.309.579 1.69-4.868 4.835-8.278 9.257-10.415m-253.41-29.507c2.703-1.54 1.098-7.387 4.63-8.098 6.648.102 1.741 11.754 5.784 14.465 3.875-.602 1.77-5.606 1.156-8.102.09-2.031 3.543-.703 3.473-2.894 1.469-6.742-6.203-7.2-5.785-10.992 2.828-3.754 6.355 2.113 8.102 1.16-2.387-5.332-6.973-8.457-11.575-11.575-.21 10.903-11.34 16.07-5.785 26.036m65.38-27.192c-2.352 2.637-1.99 5.633-5.208 6.364-4.004.914-9.812-5.977-12.148 0 1.52.601 3.546.695 5.785.582 2.34 1.707 1.676 6.421 1.734 10.41 4-1.969 5.465-6.293 9.258-8.676 3.61-2.27 8.035-1.461 11.57-4.629-6.289 1.273-7.898-2.133-10.992-4.05m2.89-5.786c1.286-.238.555-3.172-.577-2.89-.446.394-1.504 3.445.578 2.89m-2.313-13.887h1.735c-.13-1.023.586-2.894-1.157-2.312-.183.781-.824 1.105-.578 2.312m-57.277-1.156c1.406-2.644 4.672-3.43 5.207-6.941-2.856.82-5.906 4.492-5.207 6.941m57.277-4.05c-.05-1.88-.3-3.56-1.156-4.626-1.703 1.153-.66 3.86 1.156 4.625M308.48 173.13c1.415 1.746 4.079-.125 4.051-1.734-.965.96-4.222-.368-4.05 1.734m13.308-2.313c.734.786 2.832.895 2.895-.578-.739-.789-2.836-.894-2.895.578m15.043-1.738c-3.602.063-6.371.961-10.414.578 3.36 3.2 10.535 2.578 13.887 5.79-1.09-6.684 3.586-7.598 2.312-14.466h-1.734c-1.16 2.891-1.363 6.739-4.051 8.098m8.098 3.473c5.422 6.379 11.324 14.379 10.414 26.035-.262 3.367-1.434 6.371-2.313 9.836 1.754 3.187 6.258.066 8.68 2.312 1.543 1.703 1.617 7.418.578 9.836-5.476-1.25-12.496-1.125-17.36 3.473-2.741 2.594-3.679 6.96-5.784 10.414-15.192 24.926-58.086 29.426-63.641 61.328 3.594-2.172 5.242-9.492 9.258-12.73 7.933-6.395 25.21-9.348 32.976-19.09 1.2-1.508 2.64-4.504 4.051-6.945.453-.786 2.516-5.997 4.629-6.364 9.504-1.66 1.703 15.356 8.098 16.778-1.13 5.43-7.457 5.656-8.098 11.57 8.57-2.195 16.34-7.996 17.934-19.09.828-5.766-1.313-11.969.578-17.36 2.476-7.062 13.883-14.656 21.984-12.726.617 3.223-2.324 4.602-3.469 8.098-3.918 11.96 1.957 28.035-12.726 28.351-6.27 8.97-9.957 20.52-26.617 19.094 1.12 4.473 7.812 3.371 13.308 3.469-3.308 7.719-10.476 16.324-21.984 12.152-3.63 3.121-2.059 11.442-9.836 10.414-2.8-2.023-2.73-6.914-5.207-9.258-4.125-.847-8.453-.804-10.414 1.157-5.516 5.515 2.71 17.523-.578 23.718 7.996 9.399 23.422 10.848 38.183 9.258 13.184-1.418 24.5-9.82 34.137-17.355 10.258-8.024 20.031-16.649 25.453-26.035-6.371-2.57-14.312 1.058-17.934 5.785-1.511 1.972-.414 5.304-3.472 5.785-6.543-3.508-2.719-12.887-1.735-17.934 3.579-18.355 18.227-28.336 28.926-38.765-.715-10.723 4.692-24.711-5.207-26.035-4.015-.536-5.187 2.347-9.254 2.894-2.398 9.516.973 20.883 1.735 27.191-4.508 1.083-6.567 4.618-12.149 4.63-1.722-4.856 4.285-6.739 5.785-10.993 2.461-6.984.543-19.375-2.894-23.14 13.894-4.758 29.336-7.36 43.973-10.997 7.347-1.824 14.914-3.628 21.984-5.785 6.762-2.058 13.758-6.8 20.828-4.047-3.523 8.602-22.05 2.98-23.723 12.149-.925 5.105 7.496 13.965 8.102 14.465 1.348 1.113 5.473 3.242 8.68 5.207 6.027 3.691 14.171 9.367 25.457 5.785 8.75-2.777 8.453-16.29 15.039-20.25 1.691-1.016 3.91-.211 7.523-1.156 2.668-.7 4.688-3.145 6.363-3.473 1.86-.367 3.942.434 5.786 0 8.668-2.035 20.375-14.293 27.77-12.727 2.304.485 6.702 7.305 8.679 9.832 3.14 4.024 5.918 7.29 8.097 9.836 7.34 8.563 13.883 16.856 23.145 22.567-3.188 18.988-9.715 34.637-8.68 57.855-1.43 1.653-4.87 1.297-6.941 2.313.594 7.894 4.594 12.379 6.363 19.094 1.738.96 4.965.433 6.945 1.156 2.07 2.554 4.618 4.64 4.625 9.258 3.766 2.234 4.739 9.015.583 11.57.906 5.351 4.203 12.207 1.156 17.934-6.922.89-21.867.968-19.672-10.993-7.36-.566-4.965 6.223-4.05 10.993 3.187 16.636 1.944 40.566 4.628 57.859-8.16-.324-16.129-.844-24.879-.582-6.101 16.598 12.39 10.16 23.145 12.73 1.125 1.77 1.32 4.465 1.156 7.52-16.07.25-43.098 6.465-38.184-16.2-2.09-3.757-12.21-2.367-16.777-1.734-2.434 3.16-.578 10.606-1.16 15.621-5.883 5.024-21.696 5.926-30.66 4.047-.75-1.68-.75-4.105 0-5.785 5.75-4.512 17.066 2.75 20.246-4.629 1.199-2.773-.727-5.656 0-10.988-4.676-1.305-11.727-.23-17.356-.582v-53.805c0-5.133 1.934-12.664-3.472-14.465-2.352 1.977.832 8.715-1.157 12.153-5.187 1.441-25.28 3.812-34.714 1.734-8.598-1.894-6.977-10.625-6.942-22.562-4.683.843-8.332 9.765-17.355 6.363-.258-2.25-.438-4.578-1.157-6.363-8.277-2.36-11.625 4.863-18.515 5.785-3.52-5.684.062-15.614-6.942-17.36-5.047-1.254-9.324 3.196-13.886 5.207 1.738 11.739 11.84 17.555 24.3 19.094 11.063 1.367 22.114-2.7 29.504 2.895 7.063 5.343 13.961 15.492 12.153 24.875-4.23 1.964-5.364-3.79-7.524-5.786-1.289 1.692 1.121 5.368-1.156 6.946-5.14-1.309-12.73-3.535-14.465 1.734-1.805 5.48 2.524 13.024 5.207 15.043 8.902 6.688 21.746-.043 28.352 5.207 2.472 1.969 4.984 10.164 4.05 13.305-2.507 8.402-23.675 3.629-33.558 4.05-2.848-4.503-1.113-11.8-6.942-12.726-3.523-.562-3.714 2.16-8.101 2.313.215-11.414-9.23-16.309-13.305-5.786-5.77-.597-6.086-6.644-6.367-12.726-1.789-1.91-2.469 4.504-5.207 1.734-1.598-4.234.05-9.89 1.738-12.73-1.28-1.805-4.98-1.188-6.945-2.313-9.16 5.239-18.895 11.89-16.2 27.192-3.538 2.687-5.25-2.926-9.253-2.313-4.438.676-4.738 6.453-4.629 7.52.836 8.308 19.332 5.988 20.828 14.465.602 3.421-1.445 8.328-4.629 9.835-7.914 3.75-14.347-2.234-18.515-2.894-5.38-.852-9.903 2.953-15.043-1.734-.43-8.633-2.563-15.567-8.098-19.094 1.11-7.98 9.586-11.59 7.52-20.828-3.266-.996-4.942 2.148-7.52 1.738-6.621-1.055-3.781-7.941-5.785-16.2-.688-2.835-4.07-4.91-4.63-6.945-.976-3.546.79-9.058 0-10.992-9.347-3.129-7.394 7.852-16.776 6.364-1.711-13.473 7.558-15.965 13.304-21.985-6.262-4.453-15.422-4.68-21.984-8.68-2.805-1.707-4.367-4.144-6.942-5.785-10.207-.785-10.011-11.972-19.093-13.882-1.16-6.563 6.36-4.442 7.52-8.68.198-3.598-2.384-4.961-2.891-7.52-2.606-13.113 6.625-21.894 8.097-30.086-2.554-1.906-6.61 1.243-9.254-.578-1.246-8.691 5.485-11.386 12.149-10.992 2.867.168 4.949 2.488 7.52 2.89 8.113 1.27 17.109-5.1 24.878-10.992 7.656-5.804 15.27-10.718 19.672-15.62 3.05-3.395 7.395-8.891 5.207-15.622-4.383-.164-4.445 2.32-8.68 1.157-4.347-10.399 10.114-14.532 16.2-9.254 10.472-8.106 3.886-30.246-5.207-35.293-19.551-10.856-47.532 10.617-43.97 28.347 1.95 9.711 14.044 10.676 15.044 22.567-1.242 1.07-4.238.39-6.363.578.539 6.015 4.586 8.527 4.628 15.043-2.886-.008-3.714-2.074-6.945-1.738-3.41 3.34-3.433 10.07-10.414 9.835-1.367-2.574.738-6.027 0-9.835-6.68-1.086-4.308 6.875-9.836 6.945-2.316-2.832 1.211-5.742 1.156-8.68-.07-4.097-3.933-9.058-2.312-16.199.926-4.078 5.816-7.074 6.363-10.992 1.113-7.946-2.039-15.184 0-21.985 5.125-17.093 28.262-27.53 53.809-25.457 4.125-3.73-.117-8.476-1.16-12.148 9.949-2.496 16.379 10.91 10.414 19.09" transform="translate(-144.227 -19.84)"/></svg>