<?xml version="1.0" encoding="UTF-8" standalone="no"?><!DOCTYPE svg PUBLIC "-//W3C//DTD SVG 1.1//EN" "http://www.w3.org/Graphics/SVG/1.1/DTD/svg11.dtd"><svg width="100%" height="100%" viewBox="0 0 147 147" version="1.1" xmlns="http://www.w3.org/2000/svg" xmlns:xlink="http://www.w3.org/1999/xlink" xml:space="preserve" xmlns:serif="http://www.serif.com/" style="fill-rule:evenodd;clip-rule:evenodd;stroke-linejoin:round;stroke-miterlimit:2;"><g id="Calque-1" serif:id="Calque 1"><rect x="6.493" y="18" width="131.334" height="104.667" style="fill:#fff;"/><path d="M87.943,82.108l-10.762,0l15.698,-21.54l-16.712,-21.681l10.573,0l16.846,21.681l-15.643,21.54Zm-13.518,-9.276c0,5.192 -4.084,9.438 -9.152,9.438l-21.573,0c-5.136,0 -9.212,-4.246 -9.212,-9.438l0,-12.367l9.212,0l0,12.131c0,1.967 1.516,3.586 3.442,3.586l14.686,0c1.871,0 3.445,-1.619 3.445,-3.586l0,-12.131l9.152,0l0,12.367Zm-47.888,9.276c-5.446,0 -9.823,-4.484 -9.823,-10.059l0,-33.227l9.823,0l0,43.286Zm-26.33,64.088l145.984,0l0,-145.985l-145.984,0l0,145.985Z" style="fill:#dc1931;fill-rule:nonzero;"/><path d="M40.454,95.947l-0.003,12.133c-2.199,0 -3.971,-1.815 -3.971,-4.072l0,-8.061l3.974,0Zm-3.974,-5.084l3.974,0l0,3.057l-3.974,0l0,-3.057Z" style="fill:#c5ced3;fill-rule:nonzero;"/><path d="M49.01,98.585l0,9.494l-3.999,0l0,-9.598c0,-2.257 1.774,-4.093 3.999,-4.093l5.826,0c2.201,0 3.997,1.836 3.997,4.093l0,0.389l-3.997,0l0,-0.285c0,-0.854 -0.658,-1.551 -1.495,-1.551l-2.834,0c-0.839,0 -1.497,0.697 -1.497,1.551" style="fill:#c5ced3;fill-rule:nonzero;"/><path d="M75.32,103.904l0,-5.262c0,-0.834 -0.658,-1.506 -1.469,-1.506l-6.332,0c-0.811,0 -1.494,0.672 -1.494,1.506l0,6.791l7.826,0c0.811,0 1.469,-0.675 1.469,-1.529m-9.27,7.805l-3.973,0l0,-13.172c0,-2.233 1.772,-4.047 3.948,-4.047l9.295,0c2.203,0 3.977,1.814 3.977,4.047l0,5.471c0,2.257 -1.778,4.042 -3.977,4.042l-9.295,0l0.025,3.659Z" style="fill:#c5ced3;fill-rule:nonzero;"/><path d="M97.801,103.88l0,-5.295c0,-0.853 -0.68,-1.551 -1.492,-1.551l-6.381,0c-0.832,0 -1.496,0.698 -1.496,1.551l0,5.295c0,0.854 0.66,1.553 1.496,1.553l6.381,0c0.812,0 1.492,-0.699 1.492,-1.553m3.979,-5.398l0,5.502c0,2.253 -1.774,4.095 -3.979,4.095l-9.369,0c-2.227,0 -3.994,-1.842 -3.994,-4.095l0,-5.502c0,-2.258 1.767,-4.094 3.994,-4.094l9.369,0c2.205,0 3.979,1.836 3.979,4.094" style="fill:#c5ced3;fill-rule:nonzero;"/><path d="M110.234,98.585l0,9.494l-4.002,0l0.004,-9.598c0,-2.257 1.769,-4.093 3.998,-4.093l5.826,0c2.201,0 3.994,1.836 3.994,4.093l0,0.393l-3.994,-0.004l0,-0.285c0,-0.854 -0.664,-1.551 -1.496,-1.551l-2.836,0c-0.838,0 -1.494,0.697 -1.494,1.551" style="fill:#c5ced3;fill-rule:nonzero;"/><path d="M133.529,106.964l0,1.115l-6.004,0c-2.201,0 -3.975,-1.814 -3.975,-4.072l0,-13.145l3.975,0l0,5.909l3.193,0l0,2.644l-3.193,0l0,4.488c0,0.831 0.686,1.53 1.492,1.53l3.016,0c0.836,0 1.523,0.674 1.496,1.531" style="fill:#c5ced3;fill-rule:nonzero;"/><path d="M28.199,103.88c0,0.854 -0.683,1.551 -1.496,1.551l-6.405,0c-0.812,0 -1.491,-0.697 -1.491,-1.551c0,-0.834 0.679,-1.533 1.491,-1.533l7.901,0l0,1.533Zm0,-9.492l-10.889,0l0,1.111c0,0.86 0.686,1.535 1.523,1.535l7.87,0c0.813,0 1.496,0.698 1.496,1.551l0,1.117l-9.366,0c-2.208,0 -4.003,1.813 -4.003,4.1l0,0.182c0,2.253 1.795,4.095 4.003,4.095l9.366,0c2.201,0 4,-1.842 4,-4.095l0,-5.502c0,-2.258 -1.799,-4.094 -4,-4.094" style="fill:#c5ced3;fill-rule:nonzero;"/><path d="M134.648,81.748l-15.703,-21.538l16.719,-21.681l-10.577,0l-16.847,21.681l15.644,21.538l10.764,0Z" style="fill:#c5ced3;fill-rule:nonzero;"/></g></svg>