<svg viewBox="0 0 147 147" xmlns="http://www.w3.org/2000/svg" xml:space="preserve" style="fill-rule:evenodd;clip-rule:evenodd;stroke-linejoin:round;stroke-miterlimit:2"><path style="fill:#fff" d="M6.493 18h131.334v104.667H6.493z"/><path d="M87.943 82.108H77.181l15.698-21.54-16.712-21.681H86.74l16.846 21.681-15.643 21.54Zm-13.518-9.276c0 5.192-4.084 9.438-9.152 9.438H43.7c-5.136 0-9.212-4.246-9.212-9.438V60.465H43.7v12.131c0 1.967 1.516 3.586 3.442 3.586h14.686c1.871 0 3.445-1.619 3.445-3.586V60.465h9.152v12.367Zm-47.888 9.276c-5.446 0-9.823-4.484-9.823-10.059V38.822h9.823v43.286ZM.207 146.196h145.984V.211H.207v145.985Z" style="fill:#dc1931;fill-rule:nonzero"/><path d="m40.454 95.947-.003 12.133c-2.199 0-3.971-1.815-3.971-4.072v-8.061h3.974Zm-3.974-5.084h3.974v3.057H36.48v-3.057ZM49.01 98.585v9.494h-3.999v-9.598c0-2.257 1.774-4.093 3.999-4.093h5.826c2.201 0 3.997 1.836 3.997 4.093v.389h-3.997v-.285c0-.854-.658-1.551-1.495-1.551h-2.834c-.839 0-1.497.697-1.497 1.551M75.32 103.904v-5.262c0-.834-.658-1.506-1.469-1.506h-6.332c-.811 0-1.494.672-1.494 1.506v6.791h7.826c.811 0 1.469-.675 1.469-1.529m-9.27 7.805h-3.973V98.537c0-2.233 1.772-4.047 3.948-4.047h9.295c2.203 0 3.977 1.814 3.977 4.047v5.471c0 2.257-1.778 4.042-3.977 4.042h-9.295l.025 3.659ZM97.801 103.88v-5.295c0-.853-.68-1.551-1.492-1.551h-6.381c-.832 0-1.496.698-1.496 1.551v5.295c0 .854.66 1.553 1.496 1.553h6.381c.812 0 1.492-.699 1.492-1.553m3.979-5.398v5.502c0 2.253-1.774 4.095-3.979 4.095h-9.369c-2.227 0-3.994-1.842-3.994-4.095v-5.502c0-2.258 1.767-4.094 3.994-4.094h9.369c2.205 0 3.979 1.836 3.979 4.094M110.234 98.585v9.494h-4.002l.004-9.598c0-2.257 1.769-4.093 3.998-4.093h5.826c2.201 0 3.994 1.836 3.994 4.093v.393l-3.994-.004v-.285c0-.854-.664-1.551-1.496-1.551h-2.836c-.838 0-1.494.697-1.494 1.551M133.529 106.964v1.115h-6.004c-2.201 0-3.975-1.814-3.975-4.072V90.862h3.975v5.909h3.193v2.644h-3.193v4.488c0 .831.686 1.53 1.492 1.53h3.016c.836 0 1.523.674 1.496 1.531M28.199 103.88c0 .854-.683 1.551-1.496 1.551h-6.405c-.812 0-1.491-.697-1.491-1.551 0-.834.679-1.533 1.491-1.533h7.901v1.533Zm0-9.492H17.31v1.111c0 .86.686 1.535 1.523 1.535h7.87c.813 0 1.496.698 1.496 1.551v1.117h-9.366c-2.208 0-4.003 1.813-4.003 4.1v.182c0 2.253 1.795 4.095 4.003 4.095h9.366c2.201 0 4-1.842 4-4.095v-5.502c0-2.258-1.799-4.094-4-4.094M134.648 81.748 118.945 60.21l16.719-21.681h-10.577L108.24 60.21l15.644 21.538h10.764Z" style="fill:#c5ced3;fill-rule:nonzero"/></svg>