<svg viewBox="0 0 315 80" xmlns="http://www.w3.org/2000/svg" xml:space="preserve" style="fill-rule:evenodd;clip-rule:evenodd;stroke-linejoin:round;stroke-miterlimit:1.41421"><path d="M47.7 51.74V22.538h2.838V49.19h16.904v2.55H47.7ZM82.002 49.355c1.836 0 3.365-.349 4.585-1.049 1.22-.698 2.193-1.617 2.92-2.755.727-1.138 1.235-2.433 1.522-3.886.288-1.454.432-2.921.432-4.401V22.539h2.879v14.725c0 1.973-.22 3.845-.657 5.612-.44 1.77-1.146 3.327-2.119 4.669-.973 1.344-2.241 2.414-3.805 3.208-1.562.796-3.468 1.193-5.715 1.193-2.332 0-4.279-.418-5.841-1.254-1.564-.837-2.826-1.94-3.784-3.311-.96-1.371-1.646-2.934-2.057-4.689a23.724 23.724 0 0 1-.616-5.428V22.539h2.837v14.725c0 1.535.151 3.029.453 4.483.301 1.453.815 2.742 1.542 3.865.726 1.126 1.693 2.029 2.9 2.715 1.206.685 2.714 1.028 4.524 1.028M100.962 22.538l9.583 12.75 9.583-12.75h3.166l-11.228 14.807 10.898 14.395h-3.166l-9.253-12.338-9.254 12.338h-3.209l10.899-14.395-11.228-14.807h3.209ZM125.31 36.934c0-1.755.308-3.503.925-5.245a14.547 14.547 0 0 1 2.694-4.667c1.178-1.371 2.632-2.488 4.361-3.352 1.727-.864 3.688-1.296 5.881-1.296 2.605 0 4.826.59 6.663 1.768 1.835 1.18 3.207 2.715 4.112 4.607l-2.303 1.399c-.467-.96-1.029-1.769-1.686-2.427a9.038 9.038 0 0 0-2.139-1.604 9.16 9.16 0 0 0-2.385-.885 11.452 11.452 0 0 0-2.427-.267c-1.755 0-3.304.357-4.648 1.07a10.694 10.694 0 0 0-3.394 2.796 12.232 12.232 0 0 0-2.076 3.887c-.467 1.439-.7 2.9-.7 4.38 0 1.618.282 3.168.843 4.648a13.2 13.2 0 0 0 2.304 3.928 11.06 11.06 0 0 0 3.455 2.714c1.33.672 2.776 1.007 4.339 1.007.823 0 1.665-.102 2.529-.307a9.775 9.775 0 0 0 2.509-.987 10.646 10.646 0 0 0 2.242-1.687c.685-.672 1.261-1.488 1.727-2.448l2.386 1.235a8.946 8.946 0 0 1-1.975 2.9 12.968 12.968 0 0 1-2.837 2.117 14.166 14.166 0 0 1-3.312 1.316c-1.165.302-2.31.453-3.434.453-2.002 0-3.839-.438-5.511-1.316a14.439 14.439 0 0 1-4.319-3.435 15.907 15.907 0 0 1-2.816-4.811 15.539 15.539 0 0 1-1.008-5.491M156.239 37.14c0 1.589.26 3.119.782 4.585a12.454 12.454 0 0 0 2.22 3.908 10.953 10.953 0 0 0 3.414 2.715c1.316.671 2.783 1.007 4.401 1.007 1.645 0 3.139-.356 4.483-1.069a10.94 10.94 0 0 0 3.413-2.797 12.92 12.92 0 0 0 2.16-3.907 13.4 13.4 0 0 0 .761-4.442c0-1.591-.267-3.119-.802-4.586a12.53 12.53 0 0 0-2.242-3.887 11.061 11.061 0 0 0-3.413-2.694c-1.317-.671-2.77-1.007-4.36-1.007-1.645 0-3.139.348-4.483 1.049a10.667 10.667 0 0 0-3.414 2.775A12.944 12.944 0 0 0 157 32.698a13.396 13.396 0 0 0-.761 4.442m10.817 14.806c-2.03 0-3.886-.418-5.574-1.254a13.894 13.894 0 0 1-4.339-3.331 15.184 15.184 0 0 1-2.797-4.751 15.721 15.721 0 0 1-.985-5.47c0-1.947.348-3.812 1.048-5.593a15.396 15.396 0 0 1 2.899-4.73 14.031 14.031 0 0 1 4.36-3.27c1.673-.809 3.481-1.214 5.428-1.214 2.03 0 3.887.432 5.574 1.296a13.999 13.999 0 0 1 4.318 3.393 15.705 15.705 0 0 1 2.777 4.751c.658 1.768.987 3.571.987 5.408a15.16 15.16 0 0 1-1.049 5.593c-.698 1.783-1.658 3.352-2.879 4.71a13.958 13.958 0 0 1-4.339 3.25c-1.673.808-3.482 1.212-5.429 1.212M189.143 27.886V51.74h-2.838V22.538h2.221l19.331 24.308V22.58h2.838v29.16h-2.468l-19.084-23.854ZM235.247 28.008c-.822-.932-1.927-1.686-3.311-2.262-1.385-.575-2.941-.864-4.668-.864-2.606 0-4.498.488-5.675 1.461-1.18.973-1.77 2.297-1.77 3.969 0 .878.157 1.597.474 2.159.314.562.807 1.048 1.48 1.459.672.412 1.522.769 2.551 1.071 1.027.301 2.241.602 3.64.904a42.14 42.14 0 0 1 4.195 1.09c1.232.398 2.289.906 3.167 1.522.877.616 1.548 1.371 2.015 2.262.465.891.699 1.994.699 3.311 0 1.343-.261 2.508-.781 3.496a6.979 6.979 0 0 1-2.18 2.467c-.933.659-2.044 1.145-3.331 1.46-1.289.315-2.688.474-4.195.474-4.581 0-8.488-1.412-11.723-4.237l1.398-2.344c1.07 1.125 2.509 2.077 4.319 2.857 1.81.783 3.826 1.174 6.046 1.174 2.331 0 4.155-.419 5.471-1.256 1.315-.835 1.973-2.102 1.973-3.802 0-.906-.185-1.667-.555-2.284-.37-.618-.925-1.152-1.665-1.604-.74-.452-1.667-.844-2.776-1.173a62.214 62.214 0 0 0-3.847-.986 44.85 44.85 0 0 1-4.029-1.111c-1.152-.383-2.119-.863-2.9-1.44-.782-.575-1.373-1.267-1.769-2.076-.398-.809-.597-1.802-.597-2.983 0-1.342.254-2.543.761-3.597a7.143 7.143 0 0 1 2.14-2.633c.919-.699 2.014-1.234 3.29-1.604 1.274-.371 2.679-.556 4.216-.556 1.918 0 3.639.296 5.161.885a13.963 13.963 0 0 1 4.133 2.488l-1.357 2.303ZM255.071 49.355c1.836 0 3.366-.349 4.586-1.049a8.285 8.285 0 0 0 2.921-2.755c.725-1.138 1.232-2.433 1.521-3.886.288-1.454.432-2.921.432-4.401V22.539h2.879v14.725c0 1.973-.22 3.845-.658 5.612-.439 1.77-1.145 3.327-2.118 4.669-.974 1.344-2.243 2.414-3.805 3.208-1.564.796-3.469 1.193-5.717 1.193-2.331 0-4.276-.418-5.84-1.254-1.562-.837-2.824-1.94-3.784-3.311s-1.645-2.934-2.057-4.689a23.724 23.724 0 0 1-.617-5.428V22.539h2.839v14.725c0 1.535.149 3.029.452 4.483.301 1.453.817 2.742 1.542 3.865.727 1.126 1.694 2.029 2.9 2.715 1.207.685 2.714 1.028 4.524 1.028M274.318 51.74V22.538h2.839V49.19h16.903v2.55h-19.742ZM314.667 25.089h-10.405V51.74h-2.88V25.089h-10.405v-2.551h23.69v2.551Z" style="fill:#5a5c61;fill-rule:nonzero"/><path d="M54.988 71.731c-18.725 0-33.904-15.179-33.904-33.904S36.263 3.923 54.988 3.923c5.27 0 10.259 1.203 14.708 3.348V.069H.761v75.516h68.935v-7.202a33.76 33.76 0 0 1-14.708 3.348M106.032 71.499c0-.577.099-1.123.298-1.637.2-.513.48-.962.842-1.344a3.928 3.928 0 0 1 1.298-.905 4.139 4.139 0 0 1 1.666-.33c.776 0 1.452.175 2.029.528.575.35 1.012.826 1.305 1.421l-1.038.332a2.505 2.505 0 0 0-.959-.983 2.678 2.678 0 0 0-1.369-.353c-.419 0-.809.083-1.172.251a3.002 3.002 0 0 0-1.571 1.714 3.609 3.609 0 0 0-.228 1.306c0 .46.078.896.235 1.305.157.408.372.763.644 1.061.273.298.591.535.952.707.362.174.748.26 1.157.26.261 0 .52-.036.778-.109.256-.074.496-.176.715-.308.22-.13.409-.28.566-.448.157-.168.269-.346.331-.535l1.037.315a2.696 2.696 0 0 1-.503.811c-.221.246-.48.462-.778.644-.298.183-.63.325-.991.424-.362.101-.737.15-1.125.15a3.976 3.976 0 0 1-2.955-1.266 4.294 4.294 0 0 1-.858-1.362 4.415 4.415 0 0 1-.306-1.649M116.868 71.562c0 .46.075.888.228 1.281a3.3 3.3 0 0 0 .629 1.037c.267.3.581.535.943.701.362.168.747.252 1.157.252.407 0 .793-.086 1.155-.26.361-.172.679-.409.951-.707.273-.298.488-.648.645-1.046a3.47 3.47 0 0 0 .235-1.289c0-.451-.077-.878-.235-1.283a3.345 3.345 0 0 0-.645-1.053 3.094 3.094 0 0 0-.943-.708 2.582 2.582 0 0 0-1.148-.259c-.409 0-.795.085-1.156.259a2.934 2.934 0 0 0-.944.715 3.554 3.554 0 0 0-.872 2.36m2.972 4.215a3.935 3.935 0 0 1-2.933-1.26 4.121 4.121 0 0 1-.842-1.351 4.429 4.429 0 0 1-.299-1.621c0-.576.102-1.122.308-1.634a4.123 4.123 0 0 1 2.138-2.282 3.833 3.833 0 0 1 1.628-.345c.587 0 1.13.115 1.627.345.498.232.928.54 1.291.928.36.389.644.84.848 1.354a4.36 4.36 0 0 1 .307 1.634c0 .567-.102 1.107-.307 1.621a4.274 4.274 0 0 1-.848 1.351 3.995 3.995 0 0 1-1.291.921 3.886 3.886 0 0 1-1.627.339M133.726 75.618h-1.07v-4.576c0-.975-.141-1.684-.424-2.124-.283-.439-.724-.659-1.322-.659a2.7 2.7 0 0 0-.942.172 3.374 3.374 0 0 0-1.596 1.235c-.206.288-.36.6-.465.935v5.017h-1.07v-8.192h.975v1.855c.168-.294.375-.563.621-.811.247-.246.522-.458.826-.637a4.005 4.005 0 0 1 2.029-.55c.461 0 .847.084 1.155.252.31.168.559.403.748.707.189.305.325.676.409 1.116.084.442.126.928.126 1.463v4.797ZM139.875 75.776a5.7 5.7 0 0 1-1.872-.315 4.508 4.508 0 0 1-1.572-.913l.487-.722c.462.378.931.659 1.409.848a4.12 4.12 0 0 0 1.533.284c.661 0 1.187-.134 1.579-.401.395-.268.591-.647.591-1.14a.99.99 0 0 0-.157-.575 1.359 1.359 0 0 0-.465-.401 3.603 3.603 0 0 0-.77-.306 20.875 20.875 0 0 0-1.077-.275c-.471-.116-.88-.231-1.227-.347a3.762 3.762 0 0 1-.857-.392 1.419 1.419 0 0 1-.503-.542c-.11-.216-.165-.487-.165-.812 0-.409.081-.769.244-1.085.162-.314.382-.573.659-.777.279-.205.604-.359.976-.465a4.392 4.392 0 0 1 1.187-.157c.629 0 1.2.101 1.714.307.515.204.928.473 1.243.809l-.519.63a2.882 2.882 0 0 0-1.109-.708 3.974 3.974 0 0 0-1.36-.236c-.283 0-.546.03-.786.087a1.893 1.893 0 0 0-.637.275 1.353 1.353 0 0 0-.433.479 1.416 1.416 0 0 0-.157.684c0 .221.036.398.111.535a.918.918 0 0 0 .361.354c.168.1.379.189.637.268.256.078.568.159.935.243.524.125.986.251 1.385.377.398.126.731.274.998.441.268.168.469.372.605.613.137.241.206.535.206.881 0 .756-.29 1.352-.866 1.793-.576.44-1.352.661-2.328.661M148.494 75.776c-.86 0-1.511-.297-1.95-.889-.44-.592-.661-1.476-.661-2.65v-4.812h1.069v4.623c0 1.856.635 2.784 1.903 2.784a2.905 2.905 0 0 0 1.77-.614 3.618 3.618 0 0 0 1.187-1.634v-5.159h1.07v6.81c0 .292.131.439.393.439v.944c-.21.032-.357.047-.441.047a.927.927 0 0 1-.62-.219.692.692 0 0 1-.26-.552v-1.131a3.92 3.92 0 0 1-3.46 2.013M156.529 64.138h1.07v9.626c0 .304.084.542.252.715.168.174.403.259.707.259.116 0 .252-.015.409-.047a2.92 2.92 0 0 0 .441-.125l.188.864a3.437 3.437 0 0 1-.731.204 4.321 4.321 0 0 1-.748.079c-.492 0-.879-.139-1.162-.417-.283-.276-.426-.668-.426-1.172v-9.986ZM165.683 75.226a4.66 4.66 0 0 1-.275.126 4.763 4.763 0 0 1-.952.299c-.2.042-.409.062-.627.062-.232 0-.452-.031-.662-.094a1.57 1.57 0 0 1-.551-.29 1.435 1.435 0 0 1-.376-.497 1.582 1.582 0 0 1-.143-.691v-5.867h-1.132v-.848h1.132v-2.768h1.07v2.768h1.887v.848h-1.887v5.567c.021.305.126.529.315.669.188.143.414.213.676.213.304 0 .571-.05.801-.15.232-.099.378-.169.441-.213l.283.866ZM168.12 67.426h1.069v8.192h-1.069v-8.192Zm0-3.288h1.069v1.573h-1.069v-1.573ZM179.553 75.618h-1.068v-4.576c0-.975-.143-1.684-.426-2.124-.283-.439-.723-.659-1.32-.659a2.72 2.72 0 0 0-.945.172 3.385 3.385 0 0 0-1.595 1.235c-.205.288-.36.6-.465.935v5.017h-1.069v-8.192h.975v1.855c.167-.294.376-.563.621-.811a4.05 4.05 0 0 1 2.855-1.187c.46 0 .847.084 1.156.252.308.168.558.403.746.707.189.305.325.676.409 1.116.084.442.126.928.126 1.463v4.797ZM186.568 74.832c.314 0 .623-.058.928-.173.303-.115.579-.269.825-.464.246-.193.454-.411.622-.652.166-.241.277-.488.33-.739v-2.533a3.145 3.145 0 0 0-.479-.818 3.47 3.47 0 0 0-.686-.644 3.359 3.359 0 0 0-.809-.424 2.52 2.52 0 0 0-.873-.157c-.461 0-.87.096-1.226.29a2.95 2.95 0 0 0-.913.763 3.391 3.391 0 0 0-.574 1.069c-.13.398-.197.802-.197 1.211 0 .44.08.86.238 1.258.155.399.371.748.644 1.046.273.298.595.535.966.707.372.174.773.26 1.204.26m-.299.896a3.375 3.375 0 0 1-1.55-.354 3.984 3.984 0 0 1-1.21-.935 4.423 4.423 0 0 1-1.078-2.894c0-.567.092-1.109.276-1.627.183-.519.442-.973.778-1.361a3.815 3.815 0 0 1 1.203-.928 3.445 3.445 0 0 1 1.55-.346c.701 0 1.309.175 1.824.528.514.35.953.793 1.32 1.328v-1.713h.96v8.224c0 .567-.107 1.067-.323 1.501a3.227 3.227 0 0 1-.865 1.095c-.36.292-.788.512-1.281.659a5.42 5.42 0 0 1-1.557.22c-.934 0-1.687-.167-2.265-.503a4.007 4.007 0 0 1-1.399-1.352l.66-.518c.324.522.754.908 1.289 1.155.535.245 1.107.37 1.715.37.398 0 .779-.055 1.141-.167.36-.109.675-.272.943-.486.268-.215.481-.487.638-.818.157-.33.235-.715.235-1.156v-1.62a3.555 3.555 0 0 1-1.298 1.242 3.428 3.428 0 0 1-1.706.456" style="fill:#02b174;fill-rule:nonzero"/><path style="fill:#5a5c61" d="M199.165 63.43h.928v14.233h-.928z"/><path d="M215.52 71.09a3.332 3.332 0 0 0-.306-1.203 3.317 3.317 0 0 0-.661-.938 2.948 2.948 0 0 0-2.068-.833 2.94 2.94 0 0 0-2.068.833 3.009 3.009 0 0 0-.644.945c-.163.367-.26.765-.291 1.196h6.038Zm-3.02 4.687a3.99 3.99 0 0 1-2.955-1.267 4.385 4.385 0 0 1-1.164-3.011c0-.577.101-1.12.306-1.629.204-.509.49-.953.857-1.337a4.147 4.147 0 0 1 1.297-.911 3.935 3.935 0 0 1 1.644-.339 3.921 3.921 0 0 1 2.926 1.259 4.293 4.293 0 0 1 1.13 2.941c0 .084 0 .168-.006.252a.786.786 0 0 1-.023.171h-6.999a3.446 3.446 0 0 0 .967 2.187c.267.272.577.485.928.637.35.153.726.228 1.124.228.272 0 .541-.036.802-.109.261-.074.502-.174.724-.3.22-.126.418-.28.59-.463.173-.184.308-.386.401-.605l.928.251a2.752 2.752 0 0 1-.535.826 3.73 3.73 0 0 1-.802.644 3.94 3.94 0 0 1-1.007.424 4.252 4.252 0 0 1-1.133.151M226.215 75.618h-1.069v-4.576c0-.975-.142-1.684-.425-2.124-.284-.439-.723-.659-1.32-.659-.316 0-.63.056-.945.172a3.39 3.39 0 0 0-.882.487c-.272.212-.51.46-.714.748-.204.288-.36.6-.464.935v5.017h-1.07v-8.192h.975v1.855a3.89 3.89 0 0 1 .622-.811 4.05 4.05 0 0 1 2.854-1.187c.46 0 .847.084 1.156.252.309.168.559.403.747.707.188.305.325.676.409 1.116.084.442.126.928.126 1.463v4.797ZM233.227 74.832c.315 0 .625-.058.93-.173a3.107 3.107 0 0 0 1.446-1.116 2 2 0 0 0 .329-.739v-2.533a3.036 3.036 0 0 0-.479-.818 3.378 3.378 0 0 0-1.495-1.068 2.498 2.498 0 0 0-.872-.157c-.461 0-.87.096-1.227.29a2.978 2.978 0 0 0-.911.763 3.391 3.391 0 0 0-.574 1.069 3.852 3.852 0 0 0-.196 1.211c0 .44.077.86.236 1.258.157.399.371.748.644 1.046.274.298.595.535.969.707.37.174.773.26 1.201.26m-.298.896a3.378 3.378 0 0 1-1.55-.354 4.012 4.012 0 0 1-1.211-.935 4.422 4.422 0 0 1-1.076-2.894c0-.567.092-1.109.275-1.627.183-.519.444-.973.779-1.361a3.8 3.8 0 0 1 1.202-.928 3.448 3.448 0 0 1 1.55-.346c.703 0 1.311.175 1.823.528.515.35.955.793 1.322 1.328v-1.713h.959v8.224c0 .567-.107 1.067-.322 1.501a3.261 3.261 0 0 1-.864 1.095c-.363.292-.79.512-1.283.659a5.414 5.414 0 0 1-1.556.22c-.934 0-1.688-.167-2.266-.503a4.024 4.024 0 0 1-1.399-1.352l.66-.518c.325.522.756.908 1.291 1.155.534.245 1.106.37 1.714.37.397 0 .778-.055 1.139-.167a2.76 2.76 0 0 0 .944-.486c.267-.215.48-.487.637-.818.158-.33.235-.715.235-1.156v-1.62a3.534 3.534 0 0 1-1.296 1.242 3.432 3.432 0 0 1-1.707.456M240.479 67.426h1.07v8.192h-1.07v-8.192Zm0-3.288h1.07v1.573h-1.07v-1.573ZM251.911 75.618h-1.068v-4.576c0-.975-.143-1.684-.426-2.124-.283-.439-.722-.659-1.32-.659a2.71 2.71 0 0 0-.944.172 3.39 3.39 0 0 0-.882.487c-.272.212-.51.46-.714.748-.204.288-.36.6-.465.935v5.017h-1.069v-8.192h.975v1.855a3.89 3.89 0 0 1 .622-.811 4.081 4.081 0 0 1 1.792-1.044 3.944 3.944 0 0 1 1.062-.143c.46 0 .847.084 1.156.252.308.168.559.403.746.707.189.305.325.676.409 1.116.084.442.126.928.126 1.463v4.797ZM261.915 71.09a3.273 3.273 0 0 0-.308-1.203 3.239 3.239 0 0 0-.661-.938 2.948 2.948 0 0 0-2.067-.833 2.947 2.947 0 0 0-2.068.833 3.045 3.045 0 0 0-.645.945 3.596 3.596 0 0 0-.291 1.196h6.04Zm-3.02 4.687a4.005 4.005 0 0 1-1.652-.339 4.013 4.013 0 0 1-1.305-.928 4.315 4.315 0 0 1-.857-1.361 4.424 4.424 0 0 1-.306-1.65c0-.577.102-1.12.306-1.629.205-.509.49-.953.857-1.337a4.152 4.152 0 0 1 1.298-.911 3.927 3.927 0 0 1 1.643-.339 3.924 3.924 0 0 1 2.925 1.259 4.31 4.31 0 0 1 1.126 3.193.752.752 0 0 1-.025.171h-6.998c.031.441.133.847.307 1.22.173.372.392.694.659.967.269.272.577.485.93.637.35.153.725.228 1.124.228.272 0 .539-.036.801-.109.262-.074.503-.174.724-.3.221-.126.417-.28.589-.463.174-.184.308-.386.401-.605l.928.251a2.732 2.732 0 0 1-.535.826 3.682 3.682 0 0 1-.802.644 3.926 3.926 0 0 1-1.005.424 4.252 4.252 0 0 1-1.133.151M272.326 71.09a3.293 3.293 0 0 0-.308-1.203 3.239 3.239 0 0 0-.661-.938 2.948 2.948 0 0 0-2.067-.833 2.947 2.947 0 0 0-2.068.833 3.045 3.045 0 0 0-.645.945c-.162.367-.26.765-.291 1.196h6.04Zm-3.021 4.687a4.003 4.003 0 0 1-1.651-.339 4.013 4.013 0 0 1-1.305-.928 4.315 4.315 0 0 1-.857-1.361 4.424 4.424 0 0 1-.306-1.65c0-.577.102-1.12.306-1.629.205-.509.49-.953.857-1.337a4.152 4.152 0 0 1 1.298-.911 3.927 3.927 0 0 1 1.643-.339 3.924 3.924 0 0 1 2.925 1.259 4.31 4.31 0 0 1 1.126 3.193.815.815 0 0 1-.025.171h-6.999c.032.441.134.847.308 1.22.173.372.392.694.659.967.269.272.577.485.93.637.35.153.724.228 1.124.228.272 0 .539-.036.801-.109.262-.074.503-.174.724-.3.221-.126.417-.28.589-.463.174-.184.308-.386.401-.605l.928.251a2.732 2.732 0 0 1-.535.826 3.682 3.682 0 0 1-.802.644 3.926 3.926 0 0 1-1.005.424 4.254 4.254 0 0 1-1.134.151M280.221 68.368c-.724.021-1.354.221-1.887.598-.535.378-.913.896-1.133 1.557v5.095h-1.07v-8.192h1.007v1.964a4.316 4.316 0 0 1 1.117-1.439c.461-.382.959-.573 1.494-.573h.267c.084 0 .152.006.205.016v.974ZM282.831 67.426h1.068v8.192h-1.068v-8.192Zm0-3.288h1.068v1.573h-1.068v-1.573ZM294.265 75.618h-1.07v-4.576c0-.975-.141-1.684-.424-2.124-.283-.439-.724-.659-1.322-.659-.315 0-.628.056-.943.172a3.385 3.385 0 0 0-1.595 1.235c-.207.288-.361.6-.465.935v5.017h-1.071v-8.192h.976v1.855c.168-.294.375-.563.621-.811a4.04 4.04 0 0 1 2.855-1.187c.461 0 .846.084 1.155.252.31.168.559.403.748.707.188.305.325.676.409 1.116.084.442.126.928.126 1.463v4.797ZM301.278 74.832c.314 0 .623-.058.928-.173.303-.115.579-.269.825-.464.246-.193.454-.411.622-.652.166-.241.277-.488.33-.739v-2.533a3.145 3.145 0 0 0-.479-.818 3.47 3.47 0 0 0-.686-.644 3.359 3.359 0 0 0-.809-.424 2.52 2.52 0 0 0-.873-.157c-.461 0-.87.096-1.226.29a2.95 2.95 0 0 0-.913.763 3.391 3.391 0 0 0-.574 1.069c-.13.398-.197.802-.197 1.211 0 .44.08.86.238 1.258.155.399.371.748.644 1.046.273.298.595.535.966.707.372.174.773.26 1.204.26m-.299.896a3.368 3.368 0 0 1-1.549-.354 3.976 3.976 0 0 1-1.211-.935 4.423 4.423 0 0 1-1.078-2.894 4.8 4.8 0 0 1 .277-1.627c.182-.519.441-.973.777-1.361a3.815 3.815 0 0 1 1.203-.928 3.448 3.448 0 0 1 1.55-.346c.701 0 1.309.175 1.824.528.514.35.953.793 1.32 1.328v-1.713h.96v8.224c0 .567-.107 1.067-.323 1.501a3.227 3.227 0 0 1-.865 1.095c-.36.292-.788.512-1.281.659a5.42 5.42 0 0 1-1.557.22c-.934 0-1.687-.167-2.265-.503a4.007 4.007 0 0 1-1.399-1.352l.661-.518c.323.522.753.908 1.288 1.155.535.245 1.107.37 1.715.37.398 0 .779-.055 1.141-.167.361-.109.675-.272.943-.486.268-.215.481-.487.638-.818.157-.33.235-.715.235-1.156v-1.62a3.555 3.555 0 0 1-1.298 1.242 3.428 3.428 0 0 1-1.706.456" style="fill:#02b174;fill-rule:nonzero"/></svg>