<?xml version="1.0" encoding="UTF-8" standalone="no"?><!DOCTYPE svg PUBLIC "-//W3C//DTD SVG 1.1//EN" "http://www.w3.org/Graphics/SVG/1.1/DTD/svg11.dtd"><svg width="100%" height="100%" viewBox="0 0 315 80" version="1.1" xmlns="http://www.w3.org/2000/svg" xmlns:xlink="http://www.w3.org/1999/xlink" xml:space="preserve" xmlns:serif="http://www.serif.com/" style="fill-rule:evenodd;clip-rule:evenodd;stroke-linejoin:round;stroke-miterlimit:1.41421;"><g id="Calque-1" serif:id="Calque 1"><path d="M47.7,51.74l0,-29.202l2.838,0l0,26.652l16.904,0l0,2.55l-19.742,0Z" style="fill:#5a5c61;fill-rule:nonzero;"/><path d="M82.002,49.355c1.836,0 3.365,-0.349 4.585,-1.049c1.22,-0.698 2.193,-1.617 2.92,-2.755c0.727,-1.138 1.235,-2.433 1.522,-3.886c0.288,-1.454 0.432,-2.921 0.432,-4.401l0,-14.725l2.879,0l0,14.725c0,1.973 -0.22,3.845 -0.657,5.612c-0.44,1.77 -1.146,3.327 -2.119,4.669c-0.973,1.344 -2.241,2.414 -3.805,3.208c-1.562,0.796 -3.468,1.193 -5.715,1.193c-2.332,0 -4.279,-0.418 -5.841,-1.254c-1.564,-0.837 -2.826,-1.94 -3.784,-3.311c-0.96,-1.371 -1.646,-2.934 -2.057,-4.689c-0.411,-1.755 -0.616,-3.564 -0.616,-5.428l0,-14.725l2.837,0l0,14.725c0,1.535 0.151,3.029 0.453,4.483c0.301,1.453 0.815,2.742 1.542,3.865c0.726,1.126 1.693,2.029 2.9,2.715c1.206,0.685 2.714,1.028 4.524,1.028" style="fill:#5a5c61;fill-rule:nonzero;"/><path d="M100.962,22.538l9.583,12.75l9.583,-12.75l3.166,0l-11.228,14.807l10.898,14.395l-3.166,0l-9.253,-12.338l-9.254,12.338l-3.209,0l10.899,-14.395l-11.228,-14.807l3.209,0Z" style="fill:#5a5c61;fill-rule:nonzero;"/><path d="M125.31,36.934c0,-1.755 0.308,-3.503 0.925,-5.245c0.617,-1.74 1.515,-3.296 2.694,-4.667c1.178,-1.371 2.632,-2.488 4.361,-3.352c1.727,-0.864 3.688,-1.296 5.881,-1.296c2.605,0 4.826,0.59 6.663,1.768c1.835,1.18 3.207,2.715 4.112,4.607l-2.303,1.399c-0.467,-0.96 -1.029,-1.769 -1.686,-2.427c-0.657,-0.659 -1.371,-1.193 -2.139,-1.604c-0.767,-0.412 -1.563,-0.705 -2.385,-0.885c-0.822,-0.178 -1.632,-0.267 -2.427,-0.267c-1.755,0 -3.304,0.357 -4.648,1.07c-1.343,0.712 -2.475,1.644 -3.394,2.796c-0.918,1.152 -1.609,2.447 -2.076,3.887c-0.467,1.439 -0.7,2.9 -0.7,4.38c0,1.618 0.282,3.168 0.843,4.648c0.562,1.48 1.331,2.79 2.304,3.928c0.973,1.137 2.124,2.043 3.455,2.714c1.33,0.672 2.776,1.007 4.339,1.007c0.823,0 1.665,-0.102 2.529,-0.307c0.864,-0.206 1.7,-0.535 2.509,-0.987c0.808,-0.454 1.556,-1.015 2.242,-1.687c0.685,-0.672 1.261,-1.488 1.727,-2.448l2.386,1.235c-0.466,1.096 -1.125,2.063 -1.975,2.9c-0.849,0.835 -1.794,1.541 -2.837,2.117c-1.043,0.576 -2.146,1.014 -3.312,1.316c-1.165,0.302 -2.31,0.453 -3.434,0.453c-2.002,0 -3.839,-0.438 -5.511,-1.316c-1.673,-0.877 -3.112,-2.022 -4.319,-3.435c-1.206,-1.411 -2.145,-3.015 -2.816,-4.811c-0.673,-1.797 -1.008,-3.627 -1.008,-5.491" style="fill:#5a5c61;fill-rule:nonzero;"/><path d="M156.239,37.14c0,1.589 0.26,3.119 0.782,4.585c0.52,1.468 1.26,2.769 2.22,3.908c0.96,1.138 2.099,2.042 3.414,2.715c1.316,0.671 2.783,1.007 4.401,1.007c1.645,0 3.139,-0.356 4.483,-1.069c1.343,-0.713 2.48,-1.645 3.413,-2.797c0.933,-1.152 1.652,-2.453 2.16,-3.907c0.507,-1.454 0.761,-2.934 0.761,-4.442c0,-1.591 -0.267,-3.119 -0.802,-4.586c-0.534,-1.467 -1.282,-2.762 -2.242,-3.887c-0.96,-1.124 -2.097,-2.022 -3.413,-2.694c-1.317,-0.671 -2.77,-1.007 -4.36,-1.007c-1.645,0 -3.139,0.348 -4.483,1.049c-1.344,0.698 -2.482,1.624 -3.414,2.775c-0.932,1.151 -1.651,2.455 -2.159,3.908c-0.507,1.453 -0.761,2.934 -0.761,4.442m10.817,14.806c-2.03,0 -3.886,-0.418 -5.574,-1.254c-1.685,-0.837 -3.132,-1.947 -4.339,-3.331c-1.206,-1.385 -2.138,-2.969 -2.797,-4.751c-0.656,-1.782 -0.985,-3.606 -0.985,-5.47c0,-1.947 0.348,-3.812 1.048,-5.593c0.698,-1.782 1.665,-3.359 2.899,-4.73c1.234,-1.371 2.688,-2.461 4.36,-3.27c1.673,-0.809 3.481,-1.214 5.428,-1.214c2.03,0 3.887,0.432 5.574,1.296c1.686,0.864 3.126,1.995 4.318,3.393c1.192,1.399 2.119,2.982 2.777,4.751c0.658,1.768 0.987,3.571 0.987,5.408c0,1.947 -0.349,3.811 -1.049,5.593c-0.698,1.783 -1.658,3.352 -2.879,4.71c-1.22,1.356 -2.666,2.44 -4.339,3.25c-1.673,0.808 -3.482,1.212 -5.429,1.212" style="fill:#5a5c61;fill-rule:nonzero;"/><path d="M189.143,27.886l0,23.854l-2.838,0l0,-29.202l2.221,0l19.331,24.308l0,-24.266l2.838,0l0,29.16l-2.468,0l-19.084,-23.854Z" style="fill:#5a5c61;fill-rule:nonzero;"/><path d="M235.247,28.008c-0.822,-0.932 -1.927,-1.686 -3.311,-2.262c-1.385,-0.575 -2.941,-0.864 -4.668,-0.864c-2.606,0 -4.498,0.488 -5.675,1.461c-1.18,0.973 -1.77,2.297 -1.77,3.969c0,0.878 0.157,1.597 0.474,2.159c0.314,0.562 0.807,1.048 1.48,1.459c0.672,0.412 1.522,0.769 2.551,1.071c1.027,0.301 2.241,0.602 3.64,0.904c1.562,0.329 2.961,0.693 4.195,1.09c1.232,0.398 2.289,0.906 3.167,1.522c0.877,0.616 1.548,1.371 2.015,2.262c0.465,0.891 0.699,1.994 0.699,3.311c0,1.343 -0.261,2.508 -0.781,3.496c-0.522,0.987 -1.248,1.809 -2.18,2.467c-0.933,0.659 -2.044,1.145 -3.331,1.46c-1.289,0.315 -2.688,0.474 -4.195,0.474c-4.581,0 -8.488,-1.412 -11.723,-4.237l1.398,-2.344c1.07,1.125 2.509,2.077 4.319,2.857c1.81,0.783 3.826,1.174 6.046,1.174c2.331,0 4.155,-0.419 5.471,-1.256c1.315,-0.835 1.973,-2.102 1.973,-3.802c0,-0.906 -0.185,-1.667 -0.555,-2.284c-0.37,-0.618 -0.925,-1.152 -1.665,-1.604c-0.74,-0.452 -1.667,-0.844 -2.776,-1.173c-1.11,-0.328 -2.394,-0.657 -3.847,-0.986c-1.536,-0.356 -2.878,-0.727 -4.029,-1.111c-1.152,-0.383 -2.119,-0.863 -2.9,-1.44c-0.782,-0.575 -1.373,-1.267 -1.769,-2.076c-0.398,-0.809 -0.597,-1.802 -0.597,-2.983c0,-1.342 0.254,-2.543 0.761,-3.597c0.507,-1.056 1.22,-1.933 2.14,-2.633c0.919,-0.699 2.014,-1.234 3.29,-1.604c1.274,-0.371 2.679,-0.556 4.216,-0.556c1.918,0 3.639,0.296 5.161,0.885c1.522,0.589 2.899,1.419 4.133,2.488l-1.357,2.303Z" style="fill:#5a5c61;fill-rule:nonzero;"/><path d="M255.071,49.355c1.836,0 3.366,-0.349 4.586,-1.049c1.221,-0.698 2.193,-1.617 2.921,-2.755c0.725,-1.138 1.232,-2.433 1.521,-3.886c0.288,-1.454 0.432,-2.921 0.432,-4.401l0,-14.725l2.879,0l0,14.725c0,1.973 -0.22,3.845 -0.658,5.612c-0.439,1.77 -1.145,3.327 -2.118,4.669c-0.974,1.344 -2.243,2.414 -3.805,3.208c-1.564,0.796 -3.469,1.193 -5.717,1.193c-2.331,0 -4.276,-0.418 -5.84,-1.254c-1.562,-0.837 -2.824,-1.94 -3.784,-3.311c-0.96,-1.371 -1.645,-2.934 -2.057,-4.689c-0.411,-1.755 -0.617,-3.564 -0.617,-5.428l0,-14.725l2.839,0l0,14.725c0,1.535 0.149,3.029 0.452,4.483c0.301,1.453 0.817,2.742 1.542,3.865c0.727,1.126 1.694,2.029 2.9,2.715c1.207,0.685 2.714,1.028 4.524,1.028" style="fill:#5a5c61;fill-rule:nonzero;"/><path d="M274.318,51.74l0,-29.202l2.839,0l0,26.652l16.903,0l0,2.55l-19.742,0Z" style="fill:#5a5c61;fill-rule:nonzero;"/><path d="M314.667,25.089l-10.405,0l0,26.651l-2.88,0l0,-26.651l-10.405,0l0,-2.551l23.69,0l0,2.551Z" style="fill:#5a5c61;fill-rule:nonzero;"/><path d="M54.988,71.731c-18.725,0 -33.904,-15.179 -33.904,-33.904c0,-18.725 15.179,-33.904 33.904,-33.904c5.27,0 10.259,1.203 14.708,3.348l0,-7.202l-68.935,0l0,75.516l68.935,0l0,-7.202c-4.449,2.146 -9.438,3.348 -14.708,3.348" style="fill:#02b174;fill-rule:nonzero;"/><path d="M106.032,71.499c0,-0.577 0.099,-1.123 0.298,-1.637c0.2,-0.513 0.48,-0.962 0.842,-1.344c0.361,-0.382 0.794,-0.685 1.298,-0.905c0.501,-0.218 1.058,-0.33 1.666,-0.33c0.776,0 1.452,0.175 2.029,0.528c0.575,0.35 1.012,0.826 1.305,1.421l-1.038,0.332c-0.231,-0.419 -0.55,-0.748 -0.959,-0.983c-0.409,-0.237 -0.865,-0.353 -1.369,-0.353c-0.419,0 -0.809,0.083 -1.172,0.251c-0.36,0.167 -0.675,0.396 -0.942,0.683c-0.269,0.29 -0.478,0.633 -0.629,1.031c-0.153,0.398 -0.228,0.833 -0.228,1.306c0,0.46 0.078,0.896 0.235,1.305c0.157,0.408 0.372,0.763 0.644,1.061c0.273,0.298 0.591,0.535 0.952,0.707c0.362,0.174 0.748,0.26 1.157,0.26c0.261,0 0.52,-0.036 0.778,-0.109c0.256,-0.074 0.496,-0.176 0.715,-0.308c0.22,-0.13 0.409,-0.28 0.566,-0.448c0.157,-0.168 0.269,-0.346 0.331,-0.535l1.037,0.315c-0.115,0.293 -0.283,0.564 -0.503,0.811c-0.221,0.246 -0.48,0.462 -0.778,0.644c-0.298,0.183 -0.63,0.325 -0.991,0.424c-0.362,0.101 -0.737,0.15 -1.125,0.15c-0.597,0 -1.148,-0.113 -1.65,-0.339c-0.504,-0.224 -0.94,-0.534 -1.305,-0.927c-0.368,-0.393 -0.653,-0.847 -0.858,-1.362c-0.204,-0.511 -0.306,-1.063 -0.306,-1.649" style="fill:#02b174;fill-rule:nonzero;"/><path d="M116.868,71.562c0,0.46 0.075,0.888 0.228,1.281c0.151,0.393 0.361,0.74 0.629,1.037c0.267,0.3 0.581,0.535 0.943,0.701c0.362,0.168 0.747,0.252 1.157,0.252c0.407,0 0.793,-0.086 1.155,-0.26c0.361,-0.172 0.679,-0.409 0.951,-0.707c0.273,-0.298 0.488,-0.648 0.645,-1.046c0.158,-0.399 0.235,-0.829 0.235,-1.289c0,-0.451 -0.077,-0.878 -0.235,-1.283c-0.157,-0.403 -0.372,-0.754 -0.645,-1.053c-0.272,-0.299 -0.587,-0.535 -0.943,-0.708c-0.357,-0.174 -0.739,-0.259 -1.148,-0.259c-0.409,0 -0.795,0.085 -1.156,0.259c-0.362,0.173 -0.677,0.412 -0.944,0.715c-0.267,0.304 -0.479,0.658 -0.637,1.062c-0.157,0.403 -0.235,0.837 -0.235,1.298m2.972,4.215c-0.598,0 -1.145,-0.113 -1.644,-0.339c-0.498,-0.225 -0.928,-0.532 -1.289,-0.921c-0.363,-0.386 -0.643,-0.837 -0.842,-1.351c-0.2,-0.514 -0.299,-1.054 -0.299,-1.621c0,-0.576 0.102,-1.122 0.308,-1.634c0.203,-0.514 0.486,-0.965 0.848,-1.354c0.363,-0.388 0.791,-0.696 1.29,-0.928c0.498,-0.23 1.04,-0.345 1.628,-0.345c0.587,0 1.13,0.115 1.627,0.345c0.498,0.232 0.928,0.54 1.291,0.928c0.36,0.389 0.644,0.84 0.848,1.354c0.205,0.512 0.307,1.058 0.307,1.634c0,0.567 -0.102,1.107 -0.307,1.621c-0.204,0.514 -0.488,0.965 -0.848,1.351c-0.363,0.389 -0.793,0.696 -1.291,0.921c-0.497,0.226 -1.04,0.339 -1.627,0.339" style="fill:#02b174;fill-rule:nonzero;"/><path d="M133.726,75.618l-1.07,0l0,-4.576c0,-0.975 -0.141,-1.684 -0.424,-2.124c-0.283,-0.439 -0.724,-0.659 -1.322,-0.659c-0.314,0 -0.628,0.056 -0.942,0.172c-0.315,0.116 -0.609,0.279 -0.882,0.487c-0.273,0.212 -0.511,0.46 -0.714,0.748c-0.206,0.288 -0.36,0.6 -0.465,0.935l0,5.017l-1.07,0l0,-8.192l0.975,0l0,1.855c0.168,-0.294 0.375,-0.563 0.621,-0.811c0.247,-0.246 0.522,-0.458 0.826,-0.637c0.304,-0.177 0.626,-0.314 0.968,-0.407c0.34,-0.095 0.694,-0.143 1.061,-0.143c0.461,0 0.847,0.084 1.155,0.252c0.31,0.168 0.559,0.403 0.748,0.707c0.189,0.305 0.325,0.676 0.409,1.116c0.084,0.442 0.126,0.928 0.126,1.463l0,4.797Z" style="fill:#02b174;fill-rule:nonzero;"/><path d="M139.875,75.776c-0.64,0 -1.263,-0.105 -1.872,-0.315c-0.607,-0.21 -1.131,-0.514 -1.572,-0.913l0.487,-0.722c0.462,0.378 0.931,0.659 1.409,0.848c0.477,0.189 0.987,0.284 1.533,0.284c0.661,0 1.187,-0.134 1.579,-0.401c0.395,-0.268 0.591,-0.647 0.591,-1.14c0,-0.231 -0.052,-0.423 -0.157,-0.575c-0.105,-0.152 -0.26,-0.286 -0.465,-0.401c-0.204,-0.115 -0.46,-0.217 -0.77,-0.306c-0.309,-0.089 -0.669,-0.181 -1.077,-0.275c-0.471,-0.116 -0.88,-0.231 -1.227,-0.347c-0.346,-0.115 -0.632,-0.246 -0.857,-0.392c-0.226,-0.147 -0.393,-0.328 -0.503,-0.542c-0.11,-0.216 -0.165,-0.487 -0.165,-0.812c0,-0.409 0.081,-0.769 0.244,-1.085c0.162,-0.314 0.382,-0.573 0.659,-0.777c0.279,-0.205 0.604,-0.359 0.976,-0.465c0.372,-0.104 0.768,-0.157 1.187,-0.157c0.629,0 1.2,0.101 1.714,0.307c0.515,0.204 0.928,0.473 1.243,0.809l-0.519,0.63c-0.304,-0.315 -0.674,-0.55 -1.109,-0.708c-0.434,-0.157 -0.889,-0.236 -1.36,-0.236c-0.283,0 -0.546,0.03 -0.786,0.087c-0.241,0.058 -0.454,0.149 -0.637,0.275c-0.184,0.126 -0.328,0.285 -0.433,0.479c-0.105,0.194 -0.157,0.422 -0.157,0.684c0,0.221 0.036,0.398 0.111,0.535c0.072,0.137 0.193,0.255 0.361,0.354c0.168,0.1 0.379,0.189 0.637,0.268c0.256,0.078 0.568,0.159 0.935,0.243c0.524,0.125 0.986,0.251 1.385,0.377c0.398,0.126 0.731,0.274 0.998,0.441c0.268,0.168 0.469,0.372 0.605,0.613c0.137,0.241 0.206,0.535 0.206,0.881c0,0.756 -0.29,1.352 -0.866,1.793c-0.576,0.44 -1.352,0.661 -2.328,0.661" style="fill:#02b174;fill-rule:nonzero;"/><path d="M148.494,75.776c-0.86,0 -1.511,-0.297 -1.95,-0.889c-0.44,-0.592 -0.661,-1.476 -0.661,-2.65l0,-4.812l1.069,0l0,4.623c0,1.856 0.635,2.784 1.903,2.784c0.315,0 0.624,-0.053 0.928,-0.158c0.304,-0.105 0.585,-0.256 0.842,-0.456c0.256,-0.199 0.487,-0.434 0.692,-0.707c0.204,-0.273 0.369,-0.583 0.495,-0.927l0,-5.159l1.07,0l0,6.81c0,0.292 0.131,0.439 0.393,0.439l0,0.944c-0.21,0.032 -0.357,0.047 -0.441,0.047c-0.241,0 -0.448,-0.073 -0.62,-0.219c-0.174,-0.147 -0.26,-0.331 -0.26,-0.552l0,-1.131c-0.367,0.64 -0.856,1.134 -1.462,1.485c-0.609,0.352 -1.274,0.528 -1.998,0.528" style="fill:#02b174;fill-rule:nonzero;"/><path d="M156.529,64.138l1.07,0l0,9.626c0,0.304 0.084,0.542 0.252,0.715c0.168,0.174 0.403,0.259 0.707,0.259c0.116,0 0.252,-0.015 0.409,-0.047c0.158,-0.032 0.304,-0.074 0.441,-0.125l0.188,0.864c-0.199,0.084 -0.443,0.153 -0.731,0.204c-0.289,0.052 -0.538,0.079 -0.748,0.079c-0.492,0 -0.879,-0.139 -1.162,-0.417c-0.283,-0.276 -0.426,-0.668 -0.426,-1.172l0,-9.986Z" style="fill:#02b174;fill-rule:nonzero;"/><path d="M165.683,75.226c-0.062,0.032 -0.154,0.074 -0.275,0.126c-0.121,0.053 -0.259,0.105 -0.417,0.157c-0.158,0.053 -0.335,0.1 -0.535,0.142c-0.2,0.042 -0.409,0.062 -0.627,0.062c-0.232,0 -0.452,-0.031 -0.662,-0.094c-0.21,-0.063 -0.394,-0.161 -0.551,-0.29c-0.157,-0.132 -0.282,-0.297 -0.376,-0.497c-0.095,-0.199 -0.143,-0.428 -0.143,-0.691l0,-5.867l-1.132,0l0,-0.848l1.132,0l0,-2.768l1.07,0l0,2.768l1.887,0l0,0.848l-1.887,0l0,5.567c0.021,0.305 0.126,0.529 0.315,0.669c0.188,0.143 0.414,0.213 0.676,0.213c0.304,0 0.571,-0.05 0.801,-0.15c0.232,-0.099 0.378,-0.169 0.441,-0.213l0.283,0.866Z" style="fill:#02b174;fill-rule:nonzero;"/><path d="M168.12,67.426l1.069,0l0,8.192l-1.069,0l0,-8.192Zm0,-3.288l1.069,0l0,1.573l-1.069,0l0,-1.573Z" style="fill:#02b174;fill-rule:nonzero;"/><path d="M179.553,75.618l-1.068,0l0,-4.576c0,-0.975 -0.143,-1.684 -0.426,-2.124c-0.283,-0.439 -0.723,-0.659 -1.32,-0.659c-0.315,0 -0.629,0.056 -0.945,0.172c-0.314,0.116 -0.608,0.279 -0.881,0.487c-0.272,0.212 -0.51,0.46 -0.714,0.748c-0.205,0.288 -0.36,0.6 -0.465,0.935l0,5.017l-1.069,0l0,-8.192l0.975,0l0,1.855c0.167,-0.294 0.376,-0.563 0.621,-0.811c0.246,-0.246 0.522,-0.458 0.826,-0.637c0.305,-0.177 0.627,-0.314 0.967,-0.407c0.342,-0.095 0.695,-0.143 1.062,-0.143c0.46,0 0.847,0.084 1.156,0.252c0.308,0.168 0.558,0.403 0.746,0.707c0.189,0.305 0.325,0.676 0.409,1.116c0.084,0.442 0.126,0.928 0.126,1.463l0,4.797Z" style="fill:#02b174;fill-rule:nonzero;"/><path d="M186.568,74.832c0.314,0 0.623,-0.058 0.928,-0.173c0.303,-0.115 0.579,-0.269 0.825,-0.464c0.246,-0.193 0.454,-0.411 0.622,-0.652c0.166,-0.241 0.277,-0.488 0.33,-0.739l0,-2.533c-0.116,-0.293 -0.276,-0.566 -0.479,-0.818c-0.206,-0.252 -0.434,-0.466 -0.686,-0.644c-0.25,-0.178 -0.521,-0.32 -0.809,-0.424c-0.29,-0.106 -0.58,-0.157 -0.873,-0.157c-0.461,0 -0.87,0.096 -1.226,0.29c-0.358,0.193 -0.661,0.448 -0.913,0.763c-0.252,0.315 -0.443,0.671 -0.574,1.069c-0.13,0.398 -0.197,0.802 -0.197,1.211c0,0.44 0.08,0.86 0.238,1.258c0.155,0.399 0.371,0.748 0.644,1.046c0.273,0.298 0.595,0.535 0.966,0.707c0.372,0.174 0.773,0.26 1.204,0.26m-0.299,0.896c-0.566,0 -1.083,-0.117 -1.55,-0.354c-0.465,-0.235 -0.87,-0.547 -1.21,-0.935c-0.341,-0.388 -0.605,-0.834 -0.795,-1.336c-0.188,-0.504 -0.283,-1.023 -0.283,-1.558c0,-0.567 0.092,-1.109 0.276,-1.627c0.183,-0.519 0.442,-0.973 0.778,-1.361c0.336,-0.388 0.737,-0.697 1.203,-0.928c0.466,-0.231 0.984,-0.346 1.55,-0.346c0.701,0 1.309,0.175 1.824,0.528c0.514,0.35 0.953,0.793 1.32,1.328l0,-1.713l0.96,0l0,8.224c0,0.567 -0.107,1.067 -0.323,1.501c-0.215,0.435 -0.502,0.801 -0.865,1.095c-0.36,0.292 -0.788,0.512 -1.281,0.659c-0.493,0.147 -1.012,0.22 -1.557,0.22c-0.934,0 -1.687,-0.167 -2.265,-0.503c-0.577,-0.336 -1.043,-0.785 -1.399,-1.352l0.66,-0.518c0.324,0.522 0.754,0.908 1.289,1.155c0.535,0.245 1.107,0.37 1.715,0.37c0.398,0 0.779,-0.055 1.141,-0.167c0.36,-0.109 0.675,-0.272 0.943,-0.486c0.268,-0.215 0.481,-0.487 0.638,-0.818c0.157,-0.33 0.235,-0.715 0.235,-1.156l0,-1.62c-0.325,0.525 -0.759,0.938 -1.298,1.242c-0.54,0.304 -1.109,0.456 -1.706,0.456" style="fill:#02b174;fill-rule:nonzero;"/><rect x="199.165" y="63.43" width="0.928" height="14.233" style="fill:#5a5c61;"/><path d="M215.52,71.09c-0.032,-0.44 -0.134,-0.843 -0.306,-1.203c-0.173,-0.361 -0.394,-0.675 -0.661,-0.938c-0.266,-0.26 -0.58,-0.465 -0.935,-0.612c-0.357,-0.147 -0.735,-0.221 -1.133,-0.221c-0.399,0 -0.777,0.074 -1.133,0.221c-0.356,0.147 -0.668,0.352 -0.935,0.612c-0.267,0.263 -0.483,0.578 -0.644,0.945c-0.163,0.367 -0.26,0.765 -0.291,1.196l6.038,0Zm-3.02,4.687c-0.595,0 -1.148,-0.114 -1.649,-0.339c-0.505,-0.225 -0.94,-0.535 -1.306,-0.928c-0.367,-0.393 -0.653,-0.847 -0.857,-1.361c-0.206,-0.512 -0.307,-1.064 -0.307,-1.65c0,-0.577 0.101,-1.12 0.306,-1.629c0.204,-0.509 0.49,-0.953 0.857,-1.337c0.367,-0.382 0.799,-0.686 1.297,-0.911c0.499,-0.226 1.046,-0.339 1.644,-0.339c0.597,0 1.144,0.113 1.643,0.339c0.498,0.225 0.925,0.532 1.283,0.92c0.357,0.388 0.633,0.833 0.833,1.337c0.2,0.502 0.297,1.037 0.297,1.604c0,0.084 0,0.168 -0.006,0.252c-0.005,0.084 -0.013,0.14 -0.023,0.171l-6.999,0c0.031,0.441 0.133,0.847 0.306,1.22c0.174,0.372 0.394,0.694 0.661,0.967c0.267,0.272 0.577,0.485 0.928,0.637c0.35,0.153 0.726,0.228 1.124,0.228c0.272,0 0.541,-0.036 0.802,-0.109c0.261,-0.074 0.502,-0.174 0.724,-0.3c0.22,-0.126 0.418,-0.28 0.59,-0.463c0.173,-0.184 0.308,-0.386 0.401,-0.605l0.928,0.251c-0.126,0.304 -0.305,0.579 -0.535,0.826c-0.232,0.246 -0.498,0.462 -0.802,0.644c-0.305,0.183 -0.64,0.325 -1.007,0.424c-0.367,0.101 -0.745,0.151 -1.133,0.151" style="fill:#02b174;fill-rule:nonzero;"/><path d="M226.215,75.618l-1.069,0l0,-4.576c0,-0.975 -0.142,-1.684 -0.425,-2.124c-0.284,-0.439 -0.723,-0.659 -1.32,-0.659c-0.316,0 -0.63,0.056 -0.945,0.172c-0.315,0.116 -0.608,0.279 -0.882,0.487c-0.272,0.212 -0.51,0.46 -0.714,0.748c-0.204,0.288 -0.36,0.6 -0.464,0.935l0,5.017l-1.07,0l0,-8.192l0.975,0l0,1.855c0.168,-0.294 0.376,-0.563 0.622,-0.811c0.246,-0.246 0.521,-0.458 0.825,-0.637c0.305,-0.177 0.627,-0.314 0.967,-0.407c0.342,-0.095 0.695,-0.143 1.062,-0.143c0.46,0 0.847,0.084 1.156,0.252c0.309,0.168 0.559,0.403 0.747,0.707c0.188,0.305 0.325,0.676 0.409,1.116c0.084,0.442 0.126,0.928 0.126,1.463l0,4.797Z" style="fill:#02b174;fill-rule:nonzero;"/><path d="M233.227,74.832c0.315,0 0.625,-0.058 0.93,-0.173c0.302,-0.115 0.578,-0.269 0.825,-0.464c0.246,-0.193 0.453,-0.411 0.621,-0.652c0.168,-0.241 0.277,-0.488 0.329,-0.739l0,-2.533c-0.115,-0.293 -0.273,-0.566 -0.479,-0.818c-0.204,-0.252 -0.432,-0.466 -0.683,-0.644c-0.252,-0.178 -0.522,-0.32 -0.812,-0.424c-0.287,-0.106 -0.578,-0.157 -0.872,-0.157c-0.461,0 -0.87,0.096 -1.227,0.29c-0.355,0.193 -0.659,0.448 -0.911,0.763c-0.251,0.315 -0.444,0.671 -0.574,1.069c-0.131,0.398 -0.196,0.802 -0.196,1.211c0,0.44 0.077,0.86 0.236,1.258c0.157,0.399 0.371,0.748 0.644,1.046c0.274,0.298 0.595,0.535 0.969,0.707c0.37,0.174 0.773,0.26 1.201,0.26m-0.298,0.896c-0.566,0 -1.082,-0.117 -1.55,-0.354c-0.465,-0.235 -0.869,-0.547 -1.211,-0.935c-0.339,-0.388 -0.605,-0.834 -0.794,-1.336c-0.188,-0.504 -0.282,-1.023 -0.282,-1.558c0,-0.567 0.092,-1.109 0.275,-1.627c0.183,-0.519 0.444,-0.973 0.779,-1.361c0.335,-0.388 0.736,-0.697 1.202,-0.928c0.468,-0.231 0.983,-0.346 1.55,-0.346c0.703,0 1.311,0.175 1.823,0.528c0.515,0.35 0.955,0.793 1.322,1.328l0,-1.713l0.959,0l0,8.224c0,0.567 -0.107,1.067 -0.322,1.501c-0.216,0.435 -0.503,0.801 -0.864,1.095c-0.363,0.292 -0.79,0.512 -1.283,0.659c-0.492,0.147 -1.012,0.22 -1.556,0.22c-0.934,0 -1.688,-0.167 -2.266,-0.503c-0.575,-0.336 -1.043,-0.785 -1.399,-1.352l0.66,-0.518c0.325,0.522 0.756,0.908 1.291,1.155c0.534,0.245 1.106,0.37 1.714,0.37c0.397,0 0.778,-0.055 1.139,-0.167c0.363,-0.109 0.677,-0.272 0.944,-0.486c0.267,-0.215 0.48,-0.487 0.637,-0.818c0.158,-0.33 0.235,-0.715 0.235,-1.156l0,-1.62c-0.323,0.525 -0.757,0.938 -1.296,1.242c-0.541,0.304 -1.109,0.456 -1.707,0.456" style="fill:#02b174;fill-rule:nonzero;"/><path d="M240.479,67.426l1.07,0l0,8.192l-1.07,0l0,-8.192Zm0,-3.288l1.07,0l0,1.573l-1.07,0l0,-1.573Z" style="fill:#02b174;fill-rule:nonzero;"/><path d="M251.911,75.618l-1.068,0l0,-4.576c0,-0.975 -0.143,-1.684 -0.426,-2.124c-0.283,-0.439 -0.722,-0.659 -1.32,-0.659c-0.315,0 -0.629,0.056 -0.944,0.172c-0.315,0.116 -0.608,0.279 -0.882,0.487c-0.272,0.212 -0.51,0.46 -0.714,0.748c-0.204,0.288 -0.36,0.6 -0.465,0.935l0,5.017l-1.069,0l0,-8.192l0.975,0l0,1.855c0.168,-0.294 0.376,-0.563 0.622,-0.811c0.245,-0.246 0.521,-0.458 0.825,-0.637c0.305,-0.177 0.627,-0.314 0.967,-0.407c0.342,-0.095 0.695,-0.143 1.062,-0.143c0.46,0 0.847,0.084 1.156,0.252c0.308,0.168 0.559,0.403 0.746,0.707c0.189,0.305 0.325,0.676 0.409,1.116c0.084,0.442 0.126,0.928 0.126,1.463l0,4.797Z" style="fill:#02b174;fill-rule:nonzero;"/><path d="M261.915,71.09c-0.031,-0.44 -0.134,-0.843 -0.308,-1.203c-0.171,-0.361 -0.392,-0.675 -0.661,-0.938c-0.266,-0.26 -0.578,-0.465 -0.934,-0.612c-0.357,-0.147 -0.735,-0.221 -1.133,-0.221c-0.398,0 -0.776,0.074 -1.132,0.221c-0.356,0.147 -0.668,0.352 -0.936,0.612c-0.267,0.263 -0.482,0.578 -0.645,0.945c-0.162,0.367 -0.259,0.765 -0.291,1.196l6.04,0Zm-3.02,4.687c-0.598,0 -1.148,-0.114 -1.652,-0.339c-0.503,-0.225 -0.937,-0.535 -1.305,-0.928c-0.367,-0.393 -0.652,-0.847 -0.857,-1.361c-0.204,-0.512 -0.306,-1.064 -0.306,-1.65c0,-0.577 0.102,-1.12 0.306,-1.629c0.205,-0.509 0.49,-0.953 0.857,-1.337c0.368,-0.382 0.799,-0.686 1.298,-0.911c0.497,-0.226 1.046,-0.339 1.643,-0.339c0.598,0 1.146,0.113 1.643,0.339c0.498,0.225 0.925,0.532 1.282,0.92c0.356,0.388 0.635,0.833 0.835,1.337c0.198,0.502 0.297,1.037 0.297,1.604c0,0.084 -0.002,0.168 -0.006,0.252c-0.006,0.084 -0.014,0.14 -0.025,0.171l-6.998,0c0.031,0.441 0.133,0.847 0.307,1.22c0.173,0.372 0.392,0.694 0.659,0.967c0.269,0.272 0.577,0.485 0.93,0.637c0.35,0.153 0.725,0.228 1.124,0.228c0.272,0 0.539,-0.036 0.801,-0.109c0.262,-0.074 0.503,-0.174 0.724,-0.3c0.221,-0.126 0.417,-0.28 0.589,-0.463c0.174,-0.184 0.308,-0.386 0.401,-0.605l0.928,0.251c-0.126,0.304 -0.304,0.579 -0.535,0.826c-0.231,0.246 -0.497,0.462 -0.802,0.644c-0.304,0.183 -0.639,0.325 -1.005,0.424c-0.367,0.101 -0.745,0.151 -1.133,0.151" style="fill:#02b174;fill-rule:nonzero;"/><path d="M272.326,71.09c-0.032,-0.44 -0.134,-0.843 -0.308,-1.203c-0.171,-0.361 -0.392,-0.675 -0.661,-0.938c-0.266,-0.26 -0.578,-0.465 -0.934,-0.612c-0.357,-0.147 -0.735,-0.221 -1.133,-0.221c-0.398,0 -0.776,0.074 -1.132,0.221c-0.356,0.147 -0.668,0.352 -0.936,0.612c-0.267,0.263 -0.482,0.578 -0.645,0.945c-0.162,0.367 -0.26,0.765 -0.291,1.196l6.04,0Zm-3.021,4.687c-0.597,0 -1.147,-0.114 -1.651,-0.339c-0.503,-0.225 -0.937,-0.535 -1.305,-0.928c-0.367,-0.393 -0.652,-0.847 -0.857,-1.361c-0.204,-0.512 -0.306,-1.064 -0.306,-1.65c0,-0.577 0.102,-1.12 0.306,-1.629c0.205,-0.509 0.49,-0.953 0.857,-1.337c0.368,-0.382 0.799,-0.686 1.298,-0.911c0.497,-0.226 1.046,-0.339 1.643,-0.339c0.598,0 1.146,0.113 1.643,0.339c0.498,0.225 0.925,0.532 1.282,0.92c0.356,0.388 0.635,0.833 0.835,1.337c0.197,0.502 0.297,1.037 0.297,1.604c0,0.084 -0.002,0.168 -0.006,0.252c-0.007,0.084 -0.014,0.14 -0.025,0.171l-6.999,0c0.032,0.441 0.134,0.847 0.308,1.22c0.173,0.372 0.392,0.694 0.659,0.967c0.269,0.272 0.577,0.485 0.93,0.637c0.35,0.153 0.724,0.228 1.124,0.228c0.272,0 0.539,-0.036 0.801,-0.109c0.262,-0.074 0.503,-0.174 0.724,-0.3c0.221,-0.126 0.417,-0.28 0.589,-0.463c0.174,-0.184 0.308,-0.386 0.401,-0.605l0.928,0.251c-0.126,0.304 -0.304,0.579 -0.535,0.826c-0.231,0.246 -0.497,0.462 -0.802,0.644c-0.304,0.183 -0.639,0.325 -1.005,0.424c-0.367,0.101 -0.745,0.151 -1.134,0.151" style="fill:#02b174;fill-rule:nonzero;"/><path d="M280.221,68.368c-0.724,0.021 -1.354,0.221 -1.887,0.598c-0.535,0.378 -0.913,0.896 -1.133,1.557l0,5.095l-1.07,0l0,-8.192l1.007,0l0,1.964c0.283,-0.576 0.655,-1.055 1.117,-1.439c0.461,-0.382 0.959,-0.573 1.494,-0.573l0.267,0c0.084,0 0.152,0.006 0.205,0.016l0,0.974Z" style="fill:#02b174;fill-rule:nonzero;"/><path d="M282.831,67.426l1.068,0l0,8.192l-1.068,0l0,-8.192Zm0,-3.288l1.068,0l0,1.573l-1.068,0l0,-1.573Z" style="fill:#02b174;fill-rule:nonzero;"/><path d="M294.265,75.618l-1.07,0l0,-4.576c0,-0.975 -0.141,-1.684 -0.424,-2.124c-0.283,-0.439 -0.724,-0.659 -1.322,-0.659c-0.315,0 -0.628,0.056 -0.943,0.172c-0.314,0.116 -0.608,0.279 -0.881,0.487c-0.273,0.212 -0.511,0.46 -0.714,0.748c-0.207,0.288 -0.361,0.6 -0.465,0.935l0,5.017l-1.071,0l0,-8.192l0.976,0l0,1.855c0.168,-0.294 0.375,-0.563 0.621,-0.811c0.247,-0.246 0.522,-0.458 0.825,-0.637c0.305,-0.177 0.627,-0.314 0.968,-0.407c0.341,-0.095 0.694,-0.143 1.062,-0.143c0.461,0 0.846,0.084 1.155,0.252c0.31,0.168 0.559,0.403 0.748,0.707c0.188,0.305 0.325,0.676 0.409,1.116c0.084,0.442 0.126,0.928 0.126,1.463l0,4.797Z" style="fill:#02b174;fill-rule:nonzero;"/><path d="M301.278,74.832c0.314,0 0.623,-0.058 0.928,-0.173c0.303,-0.115 0.579,-0.269 0.825,-0.464c0.246,-0.193 0.454,-0.411 0.622,-0.652c0.166,-0.241 0.277,-0.488 0.33,-0.739l0,-2.533c-0.116,-0.293 -0.276,-0.566 -0.479,-0.818c-0.206,-0.252 -0.434,-0.466 -0.686,-0.644c-0.25,-0.178 -0.521,-0.32 -0.809,-0.424c-0.29,-0.106 -0.58,-0.157 -0.873,-0.157c-0.461,0 -0.87,0.096 -1.226,0.29c-0.358,0.193 -0.661,0.448 -0.913,0.763c-0.252,0.315 -0.443,0.671 -0.574,1.069c-0.13,0.398 -0.197,0.802 -0.197,1.211c0,0.44 0.08,0.86 0.238,1.258c0.155,0.399 0.371,0.748 0.644,1.046c0.273,0.298 0.595,0.535 0.966,0.707c0.372,0.174 0.773,0.26 1.204,0.26m-0.299,0.896c-0.566,0 -1.083,-0.117 -1.549,-0.354c-0.466,-0.235 -0.871,-0.547 -1.211,-0.935c-0.341,-0.388 -0.605,-0.834 -0.795,-1.336c-0.188,-0.504 -0.283,-1.023 -0.283,-1.558c0,-0.567 0.092,-1.109 0.277,-1.627c0.182,-0.519 0.441,-0.973 0.777,-1.361c0.336,-0.388 0.737,-0.697 1.203,-0.928c0.467,-0.231 0.984,-0.346 1.55,-0.346c0.701,0 1.309,0.175 1.824,0.528c0.514,0.35 0.953,0.793 1.32,1.328l0,-1.713l0.96,0l0,8.224c0,0.567 -0.107,1.067 -0.323,1.501c-0.215,0.435 -0.502,0.801 -0.865,1.095c-0.36,0.292 -0.788,0.512 -1.281,0.659c-0.493,0.147 -1.012,0.22 -1.557,0.22c-0.934,0 -1.687,-0.167 -2.265,-0.503c-0.577,-0.336 -1.043,-0.785 -1.399,-1.352l0.661,-0.518c0.323,0.522 0.753,0.908 1.288,1.155c0.535,0.245 1.107,0.37 1.715,0.37c0.398,0 0.779,-0.055 1.141,-0.167c0.361,-0.109 0.675,-0.272 0.943,-0.486c0.268,-0.215 0.481,-0.487 0.638,-0.818c0.157,-0.33 0.235,-0.715 0.235,-1.156l0,-1.62c-0.325,0.525 -0.759,0.938 -1.298,1.242c-0.54,0.304 -1.109,0.456 -1.706,0.456" style="fill:#02b174;fill-rule:nonzero;"/></g></svg>