<?xml version="1.0" encoding="UTF-8" standalone="no"?><!DOCTYPE svg PUBLIC "-//W3C//DTD SVG 1.1//EN" "http://www.w3.org/Graphics/SVG/1.1/DTD/svg11.dtd"><svg width="100%" height="100%" viewBox="0 0 283 169" version="1.1" xmlns="http://www.w3.org/2000/svg" xmlns:xlink="http://www.w3.org/1999/xlink" xml:space="preserve" xmlns:serif="http://www.serif.com/" style="fill-rule:evenodd;clip-rule:evenodd;stroke-linejoin:round;stroke-miterlimit:2;"><g id="Calque-2" serif:id="Calque 2"><path d="M36.054,154.326l-9.167,13.519l-3.672,-13.519l-2.274,0l-3.27,14.652l1.612,0l2.889,-12.941l3.506,12.941l2.084,0l9.167,-13.353l-3.056,13.353l1.708,0l3.268,-14.652l-2.795,0Z" style="fill:#1d1d1b;fill-rule:nonzero;"/><path d="M50.335,168.978l0.213,-0.845c-1.349,0.762 -2.77,1.113 -4.24,1.113c-3.553,0 -6.088,-2.205 -6.088,-5.318c0,-1.791 0.759,-3.42 2.133,-4.615c1.279,-1.111 2.961,-1.709 4.856,-1.709c2.439,0 4.146,0.782 5.163,2.368l0.475,-2.059l1.609,0l-2.439,11.065l-1.682,0Zm-3.007,-10.138c-1.232,0 -2.416,0.369 -3.365,1.071c-1.279,0.948 -2.061,2.473 -2.061,4.059c0,2.412 1.849,4.04 4.573,4.04c2.914,0 5.282,-2.143 5.282,-5.05c0,-2.494 -1.801,-4.12 -4.429,-4.12" style="fill:#1d1d1b;fill-rule:nonzero;"/><path d="M58.885,154.326l-3.269,14.652l1.518,0l0.614,-2.761l2.227,-2l3.435,4.761l1.871,0l-4.122,-5.813l5.828,-5.253l-2.039,0l-6.703,6.119l2.157,-9.705l-1.517,0Z" style="fill:#1d1d1b;fill-rule:nonzero;"/><path d="M73.298,169.267c-3.625,0 -6.134,-2.226 -6.134,-5.338c0,-1.895 0.876,-3.626 2.464,-4.862c1.23,-0.948 2.817,-1.464 4.618,-1.464c3.625,0 6.112,2.204 6.112,5.625c0,0.207 0,0.412 -0.025,0.638l-11.489,0c0,2.534 1.849,4.163 4.431,4.163c2.178,0 3.79,-0.907 4.809,-2.74l1.846,0c-1.232,2.659 -3.435,3.977 -6.632,3.977m0.9,-10.427c-2.463,0 -4.5,1.443 -5.164,3.812l9.689,0c-0.26,-2.391 -2.015,-3.812 -4.525,-3.812" style="fill:#1d1d1b;fill-rule:nonzero;"/><path d="M83.648,165.825l0,0.042c0,1.297 0.9,2.121 2.107,2.121c1.161,0 2.157,-0.927 2.157,-1.998c0,-1.071 -0.782,-1.506 -1.99,-2.205c-1.587,-0.927 -2.558,-1.607 -2.558,-3.111c0,-1.751 1.515,-3.092 3.481,-3.092c1.849,0 3.104,1.031 3.104,2.617c0,0.145 0,0.31 -0.023,0.454l-1.493,0l0.023,-0.268c0,-0.968 -0.64,-1.546 -1.634,-1.546c-1.09,0 -1.895,0.701 -1.895,1.649c0,0.969 0.876,1.421 2.275,2.266c1.373,0.826 2.344,1.403 2.344,2.946c0,2.083 -1.611,3.587 -3.956,3.587c-2.013,0 -3.483,-1.299 -3.483,-3.069c0,-0.124 0,-0.27 0.025,-0.393l1.516,0Z" style="fill:#1d1d1b;fill-rule:nonzero;"/><path d="M103.403,154.326l-0.805,3.586l-2.678,0l-0.261,1.236l2.678,0l-2.203,9.83l1.539,0l2.18,-9.83l2.677,0l0.282,-1.236l-2.675,0l0.806,-3.586l-1.54,0Z" style="fill:#1d1d1b;fill-rule:nonzero;"/><path d="M110.294,158.964c1.303,-0.845 2.558,-1.257 3.814,-1.257c2.772,0 4.619,1.504 4.619,3.627c0,0.741 -0.094,1.647 -0.331,2.616l-1.161,5.027l-1.564,0l1.303,-5.666c0.142,-0.598 0.213,-1.133 0.213,-1.629c0,-1.688 -1.136,-2.678 -3.056,-2.678c-2.628,0 -4.074,1.36 -4.714,4.081l-1.374,5.892l-1.492,0l3.293,-14.651l1.515,0l-1.065,4.638Z" style="fill:#1d1d1b;fill-rule:nonzero;"/><path d="M127.35,169.267c-3.626,0 -6.135,-2.226 -6.135,-5.338c0.001,-1.895 0.877,-3.626 2.465,-4.862c1.23,-0.948 2.817,-1.464 4.618,-1.464c3.625,0 6.112,2.204 6.112,5.625c0,0.207 0,0.412 -0.025,0.638l-11.489,0c0,2.534 1.849,4.163 4.431,4.163c2.178,0 3.79,-0.907 4.809,-2.74l1.846,0c-1.232,2.659 -3.435,3.977 -6.632,3.977m0.9,-10.427c-2.463,0 -4.5,1.443 -5.164,3.812l9.689,0c-0.261,-2.391 -2.016,-3.812 -4.525,-3.812" style="fill:#1d1d1b;fill-rule:nonzero;"/><path d="M154.21,168.978l0.285,-1.052c-1.279,0.887 -2.725,1.32 -4.289,1.32c-3.481,0 -6.04,-2.205 -6.04,-5.318c0,-1.791 0.758,-3.42 2.132,-4.615c1.279,-1.111 2.962,-1.709 4.856,-1.709c2.393,0 4.098,0.761 5.236,2.368l1.278,-5.645l1.54,0l-3.316,14.651l-1.682,0Zm-2.938,-10.138c-1.231,0 -2.415,0.369 -3.363,1.071c-1.28,0.948 -2.061,2.473 -2.061,4.059c0,2.412 1.848,4.04 4.573,4.04c2.913,0 5.281,-2.143 5.281,-5.05c0,-2.494 -1.801,-4.12 -4.43,-4.12" style="fill:#1d1d1b;fill-rule:nonzero;"/><path d="M162.854,154.326l-0.544,2.492l1.516,0l0.544,-2.492l-1.516,0Zm-0.781,3.586l-2.486,11.066l1.515,0l2.463,-11.066l-1.492,0Z" style="fill:#1d1d1b;fill-rule:nonzero;"/><path d="M166.005,159.067l0.308,-1.155l2.013,0c0.38,-2.617 1.729,-3.749 4.454,-3.749l0.284,0l-0.284,1.174l-0.237,0c-1.801,0 -2.418,0.701 -2.701,2.575l2.084,0l-0.283,1.155l-2.11,0l-2.155,9.912l-1.54,0l2.203,-9.912l-2.036,0Z" style="fill:#1d1d1b;fill-rule:nonzero;"/><path d="M173.418,159.067l0.309,-1.155l2.013,0c0.379,-2.617 1.728,-3.749 4.452,-3.749l0.286,0l-0.286,1.174l-0.236,0c-1.801,0 -2.417,0.701 -2.701,2.575l2.085,0l-0.284,1.155l-2.109,0l-2.155,9.912l-1.541,0l2.203,-9.912l-2.036,0Z" style="fill:#1d1d1b;fill-rule:nonzero;"/><path d="M186.423,169.267c-3.625,0 -6.135,-2.226 -6.135,-5.338c0,-1.895 0.876,-3.626 2.464,-4.862c1.23,-0.948 2.818,-1.464 4.619,-1.464c3.624,0 6.111,2.204 6.111,5.625c0,0.207 0,0.412 -0.025,0.638l-11.488,0c0,2.534 1.849,4.163 4.431,4.163c2.177,0 3.789,-0.907 4.808,-2.74l1.847,0c-1.232,2.659 -3.435,3.977 -6.632,3.977m0.9,-10.427c-2.463,0 -4.501,1.443 -5.165,3.812l9.69,0c-0.261,-2.391 -2.016,-3.812 -4.525,-3.812" style="fill:#1d1d1b;fill-rule:nonzero;"/><path d="M194.973,168.978l2.463,-11.065l1.492,0l-0.214,0.906c0.995,-0.845 2.228,-1.238 3.815,-1.238l0.356,0l-0.308,1.36l-0.072,0c-2.512,0 -4.075,1.175 -4.595,3.462l-1.446,6.575l-1.492,0Z" style="fill:#1d1d1b;fill-rule:nonzero;"/><path d="M209.479,169.267c-3.625,0 -6.137,-2.226 -6.137,-5.338c0,-1.895 0.878,-3.626 2.466,-4.862c1.231,-0.948 2.818,-1.464 4.619,-1.464c3.622,0 6.112,2.204 6.112,5.625c0,0.207 0,0.412 -0.026,0.638l-11.488,0c0,2.534 1.849,4.163 4.431,4.163c2.178,0 3.789,-0.907 4.808,-2.74l1.847,0c-1.232,2.659 -3.435,3.977 -6.632,3.977m0.9,-10.427c-2.463,0 -4.5,1.443 -5.165,3.812l9.69,0c-0.26,-2.391 -2.015,-3.812 -4.525,-3.812" style="fill:#1d1d1b;fill-rule:nonzero;"/><path d="M221.797,158.964c1.302,-0.845 2.557,-1.257 3.813,-1.257c2.773,0 4.62,1.504 4.62,3.627c0,0.741 -0.096,1.647 -0.331,2.616l-1.162,5.027l-1.563,0l1.303,-5.666c0.141,-0.598 0.213,-1.133 0.213,-1.629c0,-1.688 -1.139,-2.678 -3.056,-2.678c-2.631,0 -4.075,1.36 -4.715,4.081l-1.373,5.892l-1.493,0l2.464,-11.065l1.54,0l-0.26,1.052Z" style="fill:#1d1d1b;fill-rule:nonzero;"/><path d="M238.97,169.287c-3.625,0 -6.159,-2.226 -6.159,-5.358c0,-1.895 0.875,-3.627 2.464,-4.863c1.231,-0.967 2.817,-1.463 4.618,-1.463c3.223,0 5.472,1.607 6.063,4.389l-1.705,0c-0.354,-1.956 -2.038,-3.131 -4.381,-3.131c-3.055,0 -5.378,2.142 -5.378,5.006c0,2.535 1.799,4.184 4.478,4.184c2.226,0 3.979,-1.031 4.902,-2.967l1.801,0c-1.138,2.72 -3.529,4.203 -6.703,4.203" style="fill:#1d1d1b;fill-rule:nonzero;"/><path d="M254.104,169.267c-3.623,0 -6.136,-2.226 -6.136,-5.338c0,-1.895 0.877,-3.626 2.465,-4.862c1.231,-0.948 2.818,-1.464 4.619,-1.464c3.624,0 6.112,2.204 6.112,5.625c0,0.207 0,0.412 -0.026,0.638l-11.486,0c0,2.534 1.847,4.163 4.429,4.163c2.178,0 3.79,-0.907 4.806,-2.74l1.849,0c-1.232,2.659 -3.435,3.977 -6.632,3.977m0.9,-10.427c-2.463,0 -4.502,1.443 -5.165,3.812l9.69,0c-0.262,-2.391 -2.015,-3.812 -4.525,-3.812" style="fill:#1d1d1b;fill-rule:nonzero;"/><path d="M120.442,81.974l-91.321,0c-16.082,0 -29.121,14.571 -29.121,32.548c0,17.975 13.039,32.547 29.121,32.547l76.729,0l14.592,-65.095Z" style="fill:#1d1d1b;fill-rule:nonzero;"/><path d="M105.653,147.069l148.471,0c16.082,0 29.122,-14.571 29.122,-32.548c0,-17.975 -13.04,-32.547 -29.122,-32.547l-133.933,0l-14.538,65.095Z" style="fill:#0062a2;fill-rule:nonzero;"/><path d="M115.932,101.347l9.25,0l5.651,27.916l18.268,-27.916l9.763,0l-7.879,35.318l-5.939,0l6.682,-30.203l-19.696,30.203l-5.368,0l-5.995,-30.153l-6.736,30.153l-5.936,0l7.935,-35.318Z" style="fill:#fff;fill-rule:nonzero;"/><path d="M165.599,112.77c2.912,-2.285 6.682,-3.477 10.962,-3.477c8.678,0 14.843,5.364 14.843,12.814c0,4.226 -1.826,8.15 -5.023,11.031c-3.027,2.734 -7.251,4.22 -12.047,4.22c-8.62,0 -14.729,-5.361 -14.729,-12.814c0,-4.621 2.113,-8.743 5.994,-11.774m-0.171,11.774c0,4.768 3.769,8.196 9.135,8.196c6.279,0 11.189,-4.619 11.189,-10.581c0,-5.017 -3.823,-8.297 -9.42,-8.297c-6.051,0 -10.904,4.324 -10.904,10.682" style="fill:#fff;fill-rule:nonzero;"/><path d="M199.624,114.46l-5.138,0l1.027,-4.47l5.08,0l1.887,-8.643l5.652,0l-1.713,8.643l4.966,0l-1.028,4.47l-4.966,0l-5.139,22.205l-5.651,0l5.023,-22.205Z" style="fill:#fff;fill-rule:nonzero;"/><path d="M216.694,112.77c2.911,-2.285 6.678,-3.477 10.959,-3.477c8.681,0 14.844,5.364 14.844,12.814c0,4.226 -1.824,8.15 -5.022,11.031c-3.026,2.734 -7.251,4.22 -12.048,4.22c-8.621,0 -14.73,-5.361 -14.73,-12.814c0,-4.621 2.115,-8.743 5.997,-11.774m-0.173,11.774c0,4.768 3.771,8.196 9.134,8.196c6.282,0 11.19,-4.619 11.19,-10.581c0,-5.017 -3.824,-8.297 -9.42,-8.297c-6.049,0 -10.904,4.324 -10.904,10.682" style="fill:#fff;fill-rule:nonzero;"/><path d="M249.918,109.99l4.97,0l-0.628,2.533c2.797,-2.188 5.934,-3.18 9.762,-3.18c0.454,0 0.91,0 1.368,0.051l-1.14,4.669c-8.563,0.199 -10.223,3.228 -11.82,10.331l-2.797,12.271l-5.424,0l5.709,-26.675Z" style="fill:#fff;fill-rule:nonzero;"/><path d="M36.168,89.366c-1.205,0 -2.287,0.393 -3.109,1.107c-0.849,0.74 -1.329,1.799 -1.329,2.931c0,1.989 1.398,3.205 3.561,3.205c1.563,0 2.85,-0.632 3.728,-1.847l1.109,0c-0.904,1.669 -2.672,2.609 -4.904,2.609c-2.782,0 -4.521,-1.561 -4.521,-3.812c0,-1.429 0.534,-2.668 1.478,-3.513c1.07,-0.966 2.412,-1.466 3.891,-1.466c2.439,0 4.11,1.096 4.562,2.93l-1.054,0c-0.468,-1.382 -1.672,-2.144 -3.412,-2.144" style="fill:#fff;fill-rule:nonzero;"/><path d="M42.388,91.475c0.74,-0.56 1.657,-0.87 2.672,-0.87c2.068,0 3.562,1.31 3.562,3.098c0,1.013 -0.439,1.942 -1.22,2.644c-0.74,0.666 -1.753,1.036 -2.958,1.036c-2.014,0 -3.479,-1.322 -3.479,-3.109c0,-1.119 0.492,-2.096 1.423,-2.799m-0.452,2.872c0,1.31 1.082,2.344 2.521,2.344c0.74,0 1.439,-0.226 2,-0.653c0.753,-0.573 1.205,-1.454 1.205,-2.358c0,-1.408 -1.082,-2.349 -2.67,-2.349c-1.7,0 -3.056,1.228 -3.056,3.016" style="fill:#fff;fill-rule:nonzero;"/><path d="M51.115,91.416c0.753,-0.489 1.479,-0.728 2.205,-0.728c1.604,0 2.672,0.87 2.672,2.098c0,0.429 -0.055,0.952 -0.193,1.513l-0.671,2.906l-0.904,0l0.753,-3.276c0.082,-0.345 0.124,-0.655 0.124,-0.94c0,-0.977 -0.658,-1.55 -1.768,-1.55c-1.521,0 -2.356,0.788 -2.726,2.358l-0.795,3.408l-0.862,0l1.425,-6.396l0.891,0l-0.151,0.607Z" style="fill:#fff;fill-rule:nonzero;"/><path d="M60.525,97.383c-2.096,0 -3.562,-1.286 -3.562,-3.098c0,-1.095 0.506,-2.095 1.426,-2.81c0.713,-0.561 1.63,-0.845 2.67,-0.845c1.864,0 3.165,0.927 3.508,2.537l-0.986,0c-0.207,-1.133 -1.179,-1.811 -2.535,-1.811c-1.768,0 -3.109,1.239 -3.109,2.895c0,1.464 1.04,2.418 2.588,2.418c1.287,0 2.303,-0.597 2.835,-1.717l1.042,0c-0.659,1.573 -2.042,2.431 -3.877,2.431" style="fill:#fff;fill-rule:nonzero;"/><path d="M68.759,97.372c-2.096,0 -3.548,-1.288 -3.548,-3.086c0,-1.096 0.507,-2.096 1.425,-2.81c0.713,-0.549 1.63,-0.846 2.671,-0.846c2.096,0 3.535,1.272 3.535,3.251c0,0.119 0,0.24 -0.014,0.37l-6.644,0c0,1.464 1.069,2.406 2.561,2.406c1.261,0 2.192,-0.525 2.78,-1.584l1.069,0c-0.71,1.536 -1.986,2.299 -3.835,2.299m0.521,-6.027c-1.425,0 -2.604,0.833 -2.987,2.203l5.602,0c-0.15,-1.383 -1.163,-2.203 -2.615,-2.203" style="fill:#fff;fill-rule:nonzero;"/><path d="M74.225,95.382l-0.001,0.023c0.001,0.751 0.522,1.228 1.219,1.228c0.673,0 1.248,-0.537 1.248,-1.155c-0.001,-0.619 -0.453,-0.872 -1.153,-1.276c-0.915,-0.536 -1.478,-0.929 -1.478,-1.799c-0.001,-1.011 0.877,-1.786 2.014,-1.786c1.069,0 1.795,0.595 1.795,1.514l-0.014,0.261l-0.864,0l0.016,-0.156c-0.001,-0.559 -0.373,-0.893 -0.948,-0.893c-0.63,0 -1.095,0.405 -1.095,0.953c0,0.561 0.508,0.823 1.316,1.312c0.793,0.475 1.354,0.809 1.354,1.703c0,1.203 -0.931,2.071 -2.285,2.071c-1.165,0 -2.016,-0.749 -2.016,-1.774l0.014,-0.226l0.877,0Z" style="fill:#fff;fill-rule:nonzero;"/><path d="M79.239,95.382l0,0.023c0,0.751 0.521,1.228 1.218,1.228c0.673,0 1.247,-0.537 1.247,-1.155c0,-0.619 -0.452,-0.872 -1.151,-1.276c-0.918,-0.536 -1.479,-0.929 -1.479,-1.799c0,-1.011 0.877,-1.786 2.014,-1.786c1.068,0 1.795,0.595 1.795,1.514l-0.014,0.261l-0.864,0l0.015,-0.156c0,-0.559 -0.371,-0.893 -0.946,-0.893c-0.63,0 -1.096,0.405 -1.096,0.953c0,0.561 0.508,0.823 1.316,1.312c0.794,0.475 1.355,0.809 1.355,1.703c0,1.203 -0.931,2.071 -2.287,2.071c-1.164,0 -2.014,-0.749 -2.014,-1.774l0.014,-0.226l0.877,0Z" style="fill:#fff;fill-rule:nonzero;"/><path d="M84.294,97.205l-0.877,0l1.439,-6.397l0.861,0l-1.423,6.397Zm1.013,-8.47l0.878,0l-0.316,1.441l-0.876,0l0.314,-1.441Z" style="fill:#fff;fill-rule:nonzero;"/><path d="M87.718,91.475c0.739,-0.56 1.657,-0.87 2.672,-0.87c2.067,0 3.562,1.31 3.562,3.098c0,1.013 -0.439,1.942 -1.221,2.644c-0.739,0.666 -1.752,1.036 -2.957,1.036c-2.014,0 -3.479,-1.322 -3.479,-3.109c0,-1.119 0.492,-2.096 1.423,-2.799m-0.452,2.872c0,1.31 1.082,2.344 2.521,2.344c0.74,0 1.439,-0.226 2,-0.653c0.753,-0.573 1.205,-1.454 1.205,-2.358c0,-1.408 -1.083,-2.349 -2.67,-2.349c-1.7,0 -3.056,1.228 -3.056,3.016" style="fill:#fff;fill-rule:nonzero;"/><path d="M96.445,91.416c0.753,-0.489 1.479,-0.728 2.205,-0.728c1.604,0 2.672,0.87 2.672,2.098c0,0.429 -0.055,0.952 -0.193,1.513l-0.671,2.906l-0.904,0l0.753,-3.276c0.082,-0.345 0.125,-0.655 0.125,-0.94c0,-0.977 -0.659,-1.55 -1.769,-1.55c-1.519,0 -2.356,0.788 -2.726,2.358l-0.795,3.408l-0.862,0l1.426,-6.396l0.888,0l-0.149,0.607Z" style="fill:#fff;fill-rule:nonzero;"/><path d="M104.089,91.416c0.753,-0.489 1.479,-0.728 2.205,-0.728c1.603,0 2.672,0.87 2.672,2.098c0,0.429 -0.055,0.952 -0.193,1.513l-0.671,2.906l-0.904,0l0.753,-3.276c0.082,-0.345 0.124,-0.655 0.124,-0.94c0,-0.977 -0.658,-1.55 -1.768,-1.55c-1.519,0 -2.356,0.788 -2.726,2.358l-0.795,3.408l-0.862,0l1.425,-6.396l0.889,0l-0.149,0.607Z" style="fill:#fff;fill-rule:nonzero;"/><path d="M115.802,97.205l0.123,-0.489c-0.78,0.441 -1.602,0.644 -2.453,0.644c-2.053,0 -3.519,-1.276 -3.519,-3.075c0,-1.036 0.439,-1.977 1.232,-2.666c0.74,-0.644 1.713,-0.989 2.808,-0.989c1.411,0 2.397,0.452 2.987,1.368l0.274,-1.19l0.931,0l-1.41,6.397l-0.973,0Zm-1.739,-5.86c-0.713,0 -1.397,0.213 -1.947,0.618c-0.739,0.548 -1.191,1.429 -1.191,2.347c0,1.395 1.068,2.335 2.643,2.335c1.686,0 3.056,-1.239 3.056,-2.917c0,-1.443 -1.04,-2.383 -2.561,-2.383" style="fill:#fff;fill-rule:nonzero;"/><path d="M119.227,97.205l-0.877,0l1.439,-6.397l0.861,0l-1.423,6.397Zm1.014,-8.47l0.877,0l-0.316,1.441l-0.876,0l0.315,-1.441Z" style="fill:#fff;fill-rule:nonzero;"/><path d="M120.898,97.205l1.425,-6.397l0.863,0l-0.123,0.523c0.575,-0.488 1.287,-0.714 2.205,-0.714l0.207,0l-0.18,0.787l-0.041,0c-1.452,0 -2.356,0.678 -2.657,2l-0.835,3.801l-0.864,0Z" style="fill:#fff;fill-rule:nonzero;"/><path d="M128.767,97.372c-2.096,0 -3.548,-1.288 -3.548,-3.086c0,-1.096 0.508,-2.096 1.425,-2.81c0.713,-0.549 1.631,-0.846 2.671,-0.846c2.096,0 3.535,1.272 3.535,3.251c0,0.119 0,0.24 -0.014,0.37l-6.644,0c0,1.464 1.069,2.406 2.562,2.406c1.26,0 2.191,-0.525 2.78,-1.584l1.068,0c-0.71,1.536 -1.986,2.299 -3.835,2.299m0.521,-6.027c-1.425,0 -2.604,0.833 -2.986,2.203l5.601,0c-0.149,-1.383 -1.163,-2.203 -2.615,-2.203" style="fill:#fff;fill-rule:nonzero;"/><path d="M138.809,91.475c0.74,-0.56 1.657,-0.87 2.673,-0.87c2.067,0 3.561,1.31 3.561,3.098c0,1.013 -0.439,1.942 -1.22,2.644c-0.74,0.666 -1.754,1.036 -2.958,1.036c-2.013,0 -3.482,-1.322 -3.482,-3.109c0,-1.119 0.494,-2.096 1.425,-2.799m-0.452,2.872c0,1.31 1.083,2.344 2.521,2.344c0.74,0 1.44,-0.226 2,-0.653c0.754,-0.573 1.206,-1.454 1.206,-2.358c0,-1.408 -1.082,-2.349 -2.67,-2.349c-1.701,0 -3.056,1.228 -3.056,3.016" style="fill:#fff;fill-rule:nonzero;"/><path d="M146.002,91.475l0.178,-0.667l1.165,0c0.218,-1.513 0.998,-2.168 2.574,-2.168l0.165,0l-0.165,0.678l-0.138,0c-1.04,0 -1.396,0.406 -1.561,1.49l1.207,0l-0.165,0.667l-1.22,0l-1.245,5.73l-0.891,0l1.274,-5.73l-1.178,0Z" style="fill:#fff;fill-rule:nonzero;"/><path d="M149.769,91.475l0.178,-0.667l1.165,0c0.218,-1.513 1,-2.168 2.574,-2.168l0.165,0l-0.165,0.678l-0.138,0c-1.04,0 -1.396,0.406 -1.561,1.49l1.207,0l-0.165,0.667l-1.22,0l-1.245,5.73l-0.892,0l1.275,-5.73l-1.178,0Z" style="fill:#fff;fill-rule:nonzero;"/><path d="M153.974,97.205l-0.877,0l1.44,-6.397l0.862,0l-1.424,6.397Zm1.014,-8.47l0.876,0l-0.316,1.441l-0.877,0l0.317,-1.441Z" style="fill:#fff;fill-rule:nonzero;"/><path d="M159.591,97.383c-2.096,0 -3.562,-1.286 -3.562,-3.098c0,-1.095 0.506,-2.095 1.425,-2.81c0.713,-0.561 1.629,-0.845 2.671,-0.845c1.864,0 3.165,0.927 3.508,2.537l-0.986,0c-0.207,-1.133 -1.179,-1.811 -2.535,-1.811c-1.768,0 -3.109,1.239 -3.109,2.895c0,1.464 1.04,2.418 2.588,2.418c1.287,0 2.301,-0.597 2.835,-1.717l1.042,0c-0.659,1.573 -2.042,2.431 -3.877,2.431" style="fill:#fff;fill-rule:nonzero;"/><path d="M165.029,97.205l-0.877,0l1.439,-6.397l0.862,0l-1.424,6.397Zm1.014,-8.47l0.878,0l-0.317,1.441l-0.876,0l0.315,-1.441Z" style="fill:#fff;fill-rule:nonzero;"/><path d="M170.577,97.372c-2.096,0 -3.548,-1.288 -3.548,-3.086c0,-1.096 0.508,-2.096 1.425,-2.81c0.713,-0.549 1.631,-0.846 2.671,-0.846c2.096,0 3.534,1.272 3.534,3.251c0,0.119 0,0.24 -0.013,0.37l-6.644,0c0,1.464 1.069,2.406 2.561,2.406c1.261,0 2.192,-0.525 2.781,-1.584l1.068,0c-0.711,1.536 -1.986,2.299 -3.835,2.299m0.521,-6.027c-1.425,0 -2.603,0.833 -2.987,2.203l5.602,0c-0.15,-1.383 -1.163,-2.203 -2.615,-2.203" style="fill:#fff;fill-rule:nonzero;"/><path d="M176.071,97.205l-0.878,0l1.891,-8.47l0.878,0l-1.891,8.47Z" style="fill:#fff;fill-rule:nonzero;"/><path d="M28.531,101.347l3.883,0l-7.08,32.09l16.898,0l-0.741,3.228l-20.782,0l7.822,-35.318Z" style="fill:#fff;fill-rule:nonzero;"/><path d="M65.893,134.131c-2.912,2.136 -5.996,3.228 -9.249,3.228c-6.68,0 -11.132,-3.575 -11.132,-8.74c0,-1.839 0.228,-4.025 0.798,-6.358l2.912,-12.27l3.711,0l-3.197,13.858c-0.343,1.439 -0.514,2.734 -0.514,3.926c0,4.07 2.742,6.406 7.364,6.406c6.337,0 9.82,-3.228 11.361,-9.788l3.369,-14.402l3.598,0l-5.938,26.674l-3.711,0l0.628,-2.534Z" style="fill:#fff;fill-rule:nonzero;"/><path d="M88.499,123.054l7.309,13.611l-4.054,0l-5.767,-10.78l-10.22,10.78l-4.394,0l13.074,-13.511l-7.31,-13.163l4.113,0l5.651,10.329l9.82,-10.329l4.282,0l-12.504,13.063Z" style="fill:#fff;fill-rule:nonzero;"/><path d="M108.199,124.952l-13.161,0l0.686,-3.236l13.162,0l-0.687,3.236Z" style="fill:#fff;fill-rule:nonzero;"/><path d="M184.268,81.561c0,8.4 17.419,15.198 38.831,15.198c21.41,0 38.832,-6.818 38.832,-15.198c0,-8.381 -17.422,-15.2 -38.832,-15.2c-21.553,0 -38.831,6.745 -38.831,15.2Z" style="fill:url(#_Radial1);fill-rule:nonzero;"/><path d="M184.864,81.551c0,8.048 17.133,14.583 38.235,14.583c21.103,0 38.236,-6.535 38.236,-14.584c0,-8.048 -17.133,-14.583 -38.236,-14.583c-21.102,0 -38.235,6.535 -38.235,14.584Z" style="fill:url(#_Radial2);"/><path d="M187.742,81.556c0,0.548 0.105,1.083 0.309,1.613c-0.087,-0.348 -0.134,-0.7 -0.134,-1.054c0,-6.676 15.829,-12.089 35.356,-12.089c17.961,0 32.793,4.579 35.055,10.51c-1.509,-6.24 -16.705,-11.141 -35.231,-11.141c-19.527,0 -35.355,5.446 -35.355,12.161Z" style="fill:url(#_Linear3);fill-rule:nonzero;"/><path d="M259.737,81.556c0,7.351 -16.404,13.312 -36.64,13.312c-18.01,0 -32.982,-4.721 -36.064,-10.939c2.344,6.478 17.713,11.473 36.325,11.473c20.234,0 36.636,-5.905 36.636,-13.197c0,-0.738 -0.168,-1.465 -0.494,-2.171c0.156,0.5 0.237,1.006 0.237,1.522Z" style="fill:url(#_Linear4);fill-rule:nonzero;"/><path d="M184.268,81.561c0,8.4 17.419,15.198 38.831,15.198c21.41,0 38.832,-6.818 38.832,-15.198c0,-8.381 -17.422,-15.2 -38.832,-15.2c-21.553,0 -38.831,6.745 -38.831,15.2Zm0.265,0.166c-0.007,-1.778 0.743,-3.547 2.322,-5.209c5.56,-5.852 20.125,-9.808 36.177,-9.879c21.265,-0.091 38.597,6.526 38.632,14.755c0.008,1.776 -0.79,3.52 -2.368,5.185c-5.559,5.853 -20.08,9.831 -36.131,9.901c-0.148,0 -0.298,0.001 -0.446,0.001c-21.064,0 -38.15,-6.584 -38.186,-14.754Z" style="fill:url(#_Radial5);fill-rule:nonzero;"/><path d="M184.384,81.561c0,0.396 0.046,0.79 0.121,1.179c-0.056,-0.337 -0.091,-0.673 -0.092,-1.011c-0.007,-1.804 0.767,-3.623 2.358,-5.299c5.588,-5.887 20.17,-9.848 36.261,-9.919c2.233,-0.009 4.414,0.057 6.545,0.191c-2.108,-0.141 -4.272,-0.215 -6.48,-0.215c-21.465,0 -38.713,6.721 -38.713,15.074Z" style="fill:url(#_Linear6);fill-rule:nonzero;"/><path d="M261.786,81.398c0.008,1.799 -0.809,3.598 -2.403,5.272c-5.57,5.868 -20.147,9.866 -36.218,9.937c-2.272,0.01 -4.501,-0.054 -6.666,-0.193c2.143,0.145 4.35,0.218 6.6,0.218c21.346,0 38.711,-6.801 38.711,-15.068c0,-0.315 -0.028,-0.629 -0.078,-0.94c0.034,0.257 0.053,0.513 0.054,0.774Z" style="fill:url(#_Linear7);fill-rule:nonzero;"/><path d="M186.454,81.556c0,7.351 16.404,13.312 36.643,13.312c20.236,0 36.64,-5.961 36.64,-13.312c0,-7.353 -16.404,-13.311 -36.64,-13.311c-20.239,0 -36.643,5.958 -36.643,13.311Zm1.288,0c0,-6.715 15.828,-12.161 35.355,-12.161c19.526,0 35.353,5.446 35.353,12.161c0,6.715 -15.827,12.159 -35.353,12.159c-19.527,0 -35.355,-5.444 -35.355,-12.159Z" style="fill:url(#_Linear8);fill-rule:nonzero;"/><path d="M230.229,82.843c-0.858,0.894 -0.922,2.046 -0.361,2.568c0.203,0.184 0.429,0.271 0.68,0.283c-0.368,-0.463 -0.541,-1.371 -0.085,-2.091c-0.085,-0.212 -0.101,-0.452 -0.053,-0.691c0.013,-0.057 -0.033,-0.111 -0.093,-0.111c-0.028,0 -0.059,0.012 -0.088,0.042Z" style="fill:url(#_Linear9);fill-rule:nonzero;"/><path d="M239.072,84.751l-0.001,-0.01c0,0.003 0,0.007 0.001,0.01Zm0.076,0.573c0.044,-0.083 0.088,-0.174 0.135,-0.271c0.036,-0.072 0.019,-0.092 -0.013,-0.105c-0.088,-0.034 -0.18,-0.099 -0.189,-0.169c-0.005,-0.009 -0.008,-0.018 -0.009,-0.028c0.013,0.135 0.047,0.386 0.076,0.573Z" style="fill:url(#_Linear10);fill-rule:nonzero;"/><path d="M240.616,82.738c0.012,0.144 0.12,0.162 0.212,0.037c0.024,-0.037 0.051,-0.081 0.084,-0.13c-0.028,-0.033 -0.052,-0.066 -0.079,-0.1c-0.127,-0.149 -0.423,-0.467 -0.712,-0.719c0.286,0.274 0.462,0.606 0.495,0.912Z" style="fill:url(#_Linear11);fill-rule:nonzero;"/><path d="M228.568,82.6c-0.004,0.15 0.106,0.138 0.175,0.036c0.042,-0.055 0.077,-0.105 0.113,-0.158c-0.168,-0.514 -0.424,-1.024 -0.609,-1.212c0.231,0.311 0.336,0.761 0.321,1.334Z" style="fill:url(#_Linear12);fill-rule:nonzero;"/><path d="M246.95,77.114l0,-0.003l0,0.003Z" style="fill:url(#_Linear13);fill-rule:nonzero;"/><path d="M236.163,84.265c-0.802,0.978 -1.232,1.976 -1.25,2.95c-0.004,0.347 0.128,0.775 0.433,0.933c0.099,0.054 0.201,0.088 0.306,0.107c-0.038,-0.14 -0.053,-0.275 -0.054,-0.392c-0.012,-1.005 0.3,-2.008 1.099,-2.991c0.97,-1.193 1.989,-1.787 2.698,-1.459c-0.035,-0.262 -0.173,-0.49 -0.474,-0.631c-0.129,-0.062 -0.271,-0.092 -0.423,-0.092c-0.675,0 -1.54,0.594 -2.335,1.575Z" style="fill:url(#_Linear14);fill-rule:nonzero;"/><path d="M220.222,81.95c0.031,0.105 0.003,0.185 -0.12,0.23c-1.088,0.414 -2.175,1.053 -2.929,2.061c-0.853,1.143 -1.083,2.519 -0.512,3.311c0.136,0.185 0.297,0.322 0.478,0.414c-0.308,-0.949 -0.083,-2.219 0.638,-3.196c0.747,-1.007 1.586,-1.392 2.544,-1.805c0.125,-0.053 0.141,-0.127 0.119,-0.237c-0.044,-0.19 -0.178,-0.665 -0.216,-0.778l-0.002,0Z" style="fill:url(#_Linear15);fill-rule:nonzero;"/><path d="M228.217,85.226c-1.011,1.545 -1.957,3.038 -2.96,4.608c-0.051,0.07 -0.098,0.12 -0.201,0.124c-0.62,0 -1.299,-0.002 -1.983,0.001c-0.072,0 -0.122,-0.031 -0.139,-0.081c0.055,0.24 0.142,0.673 0.165,0.774c0.018,0.066 0.07,0.105 0.147,0.105c0.733,0 1.633,0 2.246,-0.006c0.092,-0.003 0.152,-0.056 0.201,-0.123c0.913,-1.427 1.887,-2.976 2.819,-4.407c0.206,0.719 0.309,1.056 0.69,1.396c0.387,0.346 0.744,0.436 1.273,0.442c0.478,0.005 0.948,-0.187 1.508,-0.42c0.203,-0.082 0.382,-0.186 0.543,-0.29c0,-0.264 0.027,-0.531 0.074,-0.784c0.003,-0.028 -0.021,-0.203 -0.173,-0.1c-0.258,0.188 -0.597,0.391 -1.015,0.546c-0.517,0.192 -0.758,0.266 -1.235,0.261c-0.602,-0.005 -1.143,-0.261 -1.528,-0.854c-0.211,-0.322 -0.299,-0.812 -0.32,-1.174c-0.002,-0.024 -0.024,-0.062 -0.055,-0.062c-0.017,0 -0.037,0.012 -0.057,0.044Z" style="fill:url(#_Linear16);fill-rule:nonzero;"/><path d="M245.632,86.021c-0.966,1.179 -2.034,2.291 -3.053,3.079c-1.594,1.229 -3.178,1.541 -3.962,0.754c-0.293,-0.295 -0.453,-0.715 -0.473,-1.066c-0.01,-0.195 -0.109,-0.202 -0.201,-0.113c-0.936,0.927 -2.566,1.953 -4.047,1.222c-0.759,-0.373 -1.16,-1.073 -1.305,-1.84l0,0.002c0.094,0.553 0.216,1.352 0.476,1.844c0.169,0.323 0.547,0.689 0.778,0.801c1.316,0.65 3.195,-0.084 4.401,-1.244c0.014,-0.016 0.016,-0.017 0.033,-0.036c0.055,0.209 0.121,0.461 0.133,0.495c0.082,0.271 0.211,0.515 0.324,0.642c0.824,0.934 2.577,0.51 4.402,-0.899c1.019,-0.788 1.775,-1.578 2.7,-2.658c0.037,-0.042 0.034,-0.109 0.011,-0.207c-0.053,-0.235 -0.134,-0.659 -0.18,-0.874c0,0.039 -0.017,0.072 -0.037,0.098Zm-13.041,2.036c-0.001,-0.009 -0.002,-0.017 -0.005,-0.024c0.002,0.008 0.003,0.016 0.005,0.024Z" style="fill:url(#_Linear17);fill-rule:nonzero;"/><path d="M233.055,82.775c-0.09,0.586 -0.409,1.104 -0.95,1.374c-0.459,0.224 -0.996,0.184 -1.371,-0.151c-0.116,-0.107 -0.201,-0.234 -0.259,-0.371c0.096,0.443 0.179,0.77 0.296,0.944c0.353,0.532 0.965,0.665 1.639,0.301c0.489,-0.263 0.92,-0.823 0.865,-1.731c-0.029,-0.455 -0.159,-0.919 -0.373,-1.294c0.145,0.277 0.204,0.594 0.153,0.928Z" style="fill:url(#_Linear18);fill-rule:nonzero;"/><path d="M246.934,77.202c-0.308,0.532 -6.251,9.569 -6.625,10.504c-0.12,0.296 -0.133,0.522 -0.013,0.686c0.124,0.162 0.302,0.226 0.503,0.222c0.019,-0.112 0.064,-0.242 0.118,-0.378c0.377,-0.938 5.941,-9.386 6.249,-9.922c0.024,-0.046 0.016,-0.096 0.006,-0.132c-0.018,-0.084 -0.203,-0.983 -0.222,-1.066c0.006,0.024 0,0.052 -0.016,0.086Z" style="fill:url(#_Linear19);fill-rule:nonzero;"/><path d="M222.315,81.464c0.358,0.529 0.551,1.279 0.572,2.052c0.022,0.163 0.092,0.166 0.172,0.084c0.071,-0.073 0.142,-0.151 0.211,-0.228c-0.105,-0.416 -0.266,-0.787 -0.435,-1.148c-0.059,-0.13 -0.332,-0.598 -0.568,-0.817c0.018,0.017 0.032,0.036 0.048,0.057Z" style="fill:url(#_Linear20);fill-rule:nonzero;"/><path d="M225.298,83.195c-1.283,0.97 -2.36,2.481 -2.904,3.157c-0.322,0.399 -0.625,0.985 -1.466,1.896c-1.322,1.433 -3.074,2.255 -4.761,1.688c-0.922,-0.312 -1.591,-1.053 -1.845,-1.959c-0.051,-0.178 -0.149,-0.227 -0.245,-0.112c-0.273,0.342 -0.831,0.841 -1.297,1.157c-0.051,0.035 -0.175,0.11 -0.285,0.055c-0.097,-0.042 -0.443,-0.531 -0.512,-0.67c-0.01,-0.015 -0.013,-0.034 -0.015,-0.049l0,0.006c0.12,0.603 0.137,0.673 0.301,0.949c0.187,0.308 0.367,0.525 0.407,0.543c0.109,0.055 0.223,0.005 0.276,-0.024c0.361,-0.187 1.067,-0.73 1.372,-1.108c0.09,-0.089 0.18,-0.028 0.208,0.065c0.128,0.402 0.313,0.712 0.523,1.043c0.228,0.366 0.685,0.745 1.275,0.907c0.766,0.215 1.591,0.253 2.675,-0.162c0.869,-0.332 1.78,-1.01 2.483,-1.771c0.842,-0.912 1.146,-1.498 1.466,-1.896c0.544,-0.676 1.394,-1.871 2.585,-2.884c0.416,-0.357 0.871,-0.586 1.158,-0.476c0.17,-0.442 0.089,-0.686 -0.093,-0.804c-0.062,-0.04 -0.136,-0.058 -0.22,-0.058c-0.3,0 -0.719,0.228 -1.086,0.507Z" style="fill:url(#_Linear21);fill-rule:nonzero;"/><path d="M203.967,81.986c-0.721,0.369 -1.589,0.996 -2.018,1.854c-0.348,0.703 -0.418,1.549 0.114,2.354c0.044,0.064 0.092,0.128 0.144,0.189c-0.169,-0.67 0.014,-1.387 0.282,-1.926c0.428,-0.861 1.027,-1.271 1.619,-1.642c0.254,-0.162 0.367,-0.317 0.215,-0.735c-0.043,-0.121 -0.067,-0.336 -0.114,-0.525c0.014,0.185 -0.077,0.348 -0.242,0.431Z" style="fill:url(#_Linear22);fill-rule:nonzero;"/><path d="M209.416,73.347c-2.084,0.777 -2.997,2.428 -2.557,3.531c0.085,0.209 0.22,0.375 0.393,0.49c-0.147,-1.019 0.615,-2.685 2.62,-3.346c2.619,-0.862 5.542,-0.317 7.888,0.185c0.33,-0.206 0.616,-0.348 0.904,-0.504c0.142,-0.074 -0.019,-0.164 -0.059,-0.164c-1.88,-0.354 -3.806,-0.771 -5.715,-0.771c-1.169,0 -2.332,0.156 -3.474,0.579Z" style="fill:url(#_Linear23);fill-rule:nonzero;"/><path d="M218.144,79.539c-0.944,0.054 -2.415,0.196 -3.414,0.322c-0.239,0.028 -0.275,0.074 -0.326,0.157c-1.589,2.617 -3.286,5.443 -5.149,7.334c-1.998,2.026 -3.659,2.559 -5.422,2.572c-2.037,0.015 -3.848,-1.138 -4.305,-3.163c0.243,1.131 0.976,2.493 1.818,3.087c0.858,0.606 1.704,0.805 2.693,0.822c2.003,0.034 3.834,-0.791 5.777,-2.763c1.862,-1.888 3.477,-4.529 5.069,-7.146c0.053,-0.093 0.108,-0.13 0.375,-0.166c0.997,-0.125 1.893,-0.18 2.773,-0.264c0.265,-0.025 0.464,-0.049 0.56,0.045c0.32,0.319 0.688,0.611 0.934,0.753c0.162,0.001 0.3,0.036 0.396,0.122c0.103,-0.012 0.198,-0.069 0.257,-0.129c0.115,-0.112 0.119,-0.241 0.1,-0.355c-0.038,-0.217 -0.099,-0.645 -0.168,-0.767c0.048,0.093 0.02,0.228 -0.077,0.335c-0.07,0.08 -0.179,0.154 -0.318,0.152c-0.113,-0.003 -0.184,-0.044 -0.328,-0.12c-0.296,-0.161 -0.663,-0.422 -0.91,-0.733c-0.065,-0.08 -0.104,-0.099 -0.213,-0.099c-0.033,0 -0.073,0.001 -0.122,0.004Z" style="fill:url(#_Linear24);fill-rule:nonzero;"/><path d="M209.537,81.122c-0.219,0.16 -0.537,0.137 -0.676,-0.072c-0.046,-0.074 -0.067,-0.15 -0.07,-0.228c-0.02,0.338 0.117,0.837 0.226,1.004c0.121,0.186 0.462,0.278 0.73,0.08c0.608,-0.452 1.157,-0.71 1.77,-0.827c0.16,-0.215 0.332,-0.455 0.526,-0.723c0.018,-0.021 0.021,-0.05 0.014,-0.066c-0.013,-0.023 -0.03,-0.029 -0.069,-0.03c-0.902,0.022 -1.69,0.291 -2.451,0.862Z" style="fill:url(#_Linear25);fill-rule:nonzero;"/><path d="M234.906,72.846c-0.011,-0.024 -0.024,-0.043 -0.038,-0.061c0.014,0.021 0.027,0.04 0.038,0.061Z" style="fill:url(#_Linear26);fill-rule:nonzero;"/><path d="M234.967,73.175c-0.035,0.581 -0.484,1.137 -1.593,1.741c-1.258,0.691 -2.577,0.899 -3.952,0.912c-3.328,0.025 -6.427,-1.271 -9.636,-1.964c0.005,0.139 0.041,0.305 -0.077,0.395c-1.777,1.307 -3.381,2.638 -4.459,4.507c-0.037,0.042 -0.016,0.084 0.046,0.079c0.285,-0.015 0.558,-0.027 0.83,-0.043c0.98,-1.531 2.027,-2.41 3.63,-3.593c0.118,-0.088 0.238,-0.154 0.198,-0.493c3.218,0.711 5.665,1.894 9.82,1.908c1.24,0.003 2.988,-0.411 3.929,-0.978c1.081,-0.649 1.368,-1.125 1.409,-1.63c0.011,-0.16 -0.028,-0.392 -0.055,-0.514c-0.036,-0.171 -0.062,-0.388 -0.111,-0.55c0.017,0.066 0.023,0.142 0.021,0.223Z" style="fill:url(#_Linear27);fill-rule:nonzero;"/><path d="M219.473,77.082c-0.04,0.039 -0.084,0.077 -0.13,0.117c-0.317,0.327 -0.413,0.762 -0.365,1.091c0.023,0.135 0.077,0.159 0.139,0.149c0.059,-0.011 0.12,-0.031 0.183,-0.058c0.023,-0.181 0.099,-0.357 0.282,-0.519c0.131,-0.117 0.297,-0.17 0.441,-0.145c0.121,-0.246 0.157,-0.538 0.008,-0.665c-0.065,-0.056 -0.147,-0.083 -0.234,-0.083c-0.107,0 -0.222,0.04 -0.324,0.113Z" style="fill:url(#_Linear28);fill-rule:nonzero;"/><path d="M220.752,78.221c-0.305,0.581 -0.808,0.895 -1.292,1.044c0,0 -0.099,0.024 -0.086,0.115c0.013,0.104 0.356,0.322 0.57,0.473c0.031,-0.009 0.075,-0.026 0.075,-0.026c0.25,-0.096 0.664,-0.348 0.9,-0.872c0.155,-0.338 0.239,-0.601 0.171,-1.179c-0.046,-0.403 -0.127,-0.769 -0.236,-0.958c0.207,0.423 0.122,0.968 -0.102,1.403Z" style="fill:url(#_Linear29);fill-rule:nonzero;"/><path d="M211.866,75.494c0.063,0.149 0.063,0.368 -0.054,0.643c-0.881,2.069 -2.563,3.707 -4.611,3.774c-1.234,0.044 -2.161,-0.588 -2.594,-1.524c0.318,0.698 0.967,1.32 1.535,1.676c0.445,0.278 0.992,0.432 1.617,0.41c2.135,-0.073 3.752,-1.83 4.289,-3.314c0.144,-0.401 0.034,-0.831 -0.035,-1.122c-0.027,-0.111 -0.063,-0.363 -0.145,-0.543l-0.002,0Z" style="fill:url(#_Linear30);fill-rule:nonzero;"/><path d="M244.762,77.041c-0.152,0 -0.229,0.02 -0.3,0.161c-0.235,0.448 -3.101,4.738 -3.634,5.573c-0.092,0.125 -0.2,0.107 -0.212,-0.037c-0.053,-0.496 -0.483,-1.064 -1.158,-1.336c-0.512,-0.208 -1.014,-0.246 -1.535,-0.176c-0.941,0.127 -1.783,0.623 -2.521,1.182c-1.112,0.846 -2.072,1.941 -3.311,2.751c-0.677,0.439 -1.604,0.823 -2.223,0.252c-0.561,-0.522 -0.497,-1.674 0.361,-2.568c0.09,-0.093 0.201,-0.015 0.181,0.069c-0.08,0.403 0.02,0.806 0.324,1.086c0.375,0.335 0.912,0.375 1.371,0.151c0.541,-0.27 0.86,-0.788 0.95,-1.374c0.145,-0.91 -0.558,-1.713 -1.435,-1.778c-0.713,-0.05 -1.397,0.199 -2.064,0.747c-0.333,0.278 -0.522,0.483 -0.813,0.892c-0.069,0.102 -0.179,0.114 -0.175,-0.036c0.033,-1.167 -0.449,-1.822 -1.415,-1.843c-0.749,-0.02 -1.548,0.387 -2.173,0.884c-0.684,0.547 -1.282,1.275 -1.921,1.959c-0.08,0.082 -0.15,0.079 -0.172,-0.084c-0.021,-0.773 -0.214,-1.523 -0.572,-2.052c-0.128,-0.186 -0.393,-0.275 -0.618,-0.153c-0.103,0.058 -0.463,0.223 -0.724,0.433c-0.13,0.106 -0.181,0.263 -0.124,0.461c0.346,1.154 0.27,2.468 -0.2,3.576c-0.43,1.015 -1.266,1.93 -2.249,2.24c-0.649,0.205 -1.321,0.104 -1.739,-0.469c-0.571,-0.792 -0.341,-2.168 0.512,-3.311c0.754,-1.008 1.841,-1.647 2.929,-2.061c0.127,-0.046 0.155,-0.13 0.117,-0.237c-0.059,-0.18 -0.153,-0.421 -0.191,-0.532c-0.101,-0.265 -0.379,-0.309 -0.72,-0.271c-0.788,0.092 -1.5,0.361 -2.203,0.737c-1.841,0.987 -2.766,2.89 -3.17,3.911c-0.194,0.49 -0.361,0.796 -0.577,1.068c-0.29,0.364 -0.653,0.696 -1.32,1.281c-0.061,0.055 -0.105,0.165 -0.055,0.27c0.069,0.139 0.415,0.628 0.512,0.67c0.11,0.055 0.234,-0.02 0.285,-0.055c0.466,-0.316 1.024,-0.815 1.297,-1.157c0.096,-0.115 0.194,-0.066 0.245,0.112c0.254,0.906 0.923,1.647 1.845,1.959c1.687,0.567 3.439,-0.255 4.761,-1.688c0.841,-0.911 1.144,-1.497 1.466,-1.896c0.544,-0.676 1.621,-2.187 2.904,-3.157c0.47,-0.358 1.026,-0.631 1.306,-0.449c0.225,0.143 0.299,0.482 -0.063,1.136c-1.307,2.386 -3.229,5.188 -3.584,5.867c-0.064,0.119 -0.007,0.21 0.116,0.21c0.684,-0.003 1.363,-0.001 1.983,-0.001c0.103,-0.004 0.15,-0.054 0.201,-0.124c1.003,-1.57 1.949,-3.063 2.96,-4.608c0.057,-0.09 0.109,-0.019 0.112,0.018c0.021,0.362 0.109,0.852 0.32,1.174c0.385,0.593 0.926,0.849 1.528,0.854c0.477,0.005 0.718,-0.069 1.235,-0.261c0.418,-0.155 0.757,-0.358 1.015,-0.546c0.152,-0.103 0.176,0.072 0.173,0.1c-0.231,1.246 0.056,2.721 1.296,3.332c1.481,0.731 3.111,-0.295 4.047,-1.222c0.092,-0.089 0.191,-0.082 0.201,0.113c0.02,0.351 0.18,0.771 0.473,1.066c0.784,0.787 2.368,0.475 3.962,-0.754c1.019,-0.788 2.087,-1.9 3.053,-3.079c0.036,-0.046 0.063,-0.118 -0.007,-0.193c-0.147,-0.154 -0.359,-0.331 -0.505,-0.465c-0.067,-0.056 -0.164,-0.041 -0.221,0.003c-0.988,0.938 -1.878,2.014 -3.167,2.898c-0.433,0.303 -1.126,0.546 -1.436,0.128c-0.12,-0.164 -0.107,-0.39 0.013,-0.686c0.374,-0.935 6.317,-9.972 6.625,-10.504c0.052,-0.094 -0.003,-0.162 -0.119,-0.162c-0.612,0 -1.416,0.001 -2.053,0.001Zm-9.416,11.107c-0.305,-0.158 -0.437,-0.586 -0.433,-0.933c0.018,-0.974 0.448,-1.972 1.25,-2.95c0.974,-1.201 2.051,-1.823 2.758,-1.483c0.733,0.35 0.499,1.196 0.174,1.861c-0.027,0.05 -0.03,0.095 -0.014,0.136c0.009,0.07 0.101,0.135 0.189,0.169c0.032,0.013 0.049,0.033 0.013,0.105c-0.252,0.542 -0.483,0.853 -0.801,1.326c-0.292,0.431 -0.62,0.769 -1.016,1.096c-0.463,0.384 -1.063,0.792 -1.63,0.792c-0.168,0 -0.333,-0.036 -0.49,-0.119Z" style="fill:url(#_Linear31);fill-rule:nonzero;"/><path d="M211.469,71.629c-3.651,0.307 -7.128,2.36 -7.133,5.479c-0.005,1.581 1.122,2.861 2.865,2.803c2.048,-0.067 3.73,-1.705 4.611,-3.774c0.334,-0.785 -0.286,-1.112 -0.578,-0.657c-0.527,0.813 -1.269,1.444 -2.069,1.835c-0.965,0.473 -1.995,0.346 -2.306,-0.437c-0.44,-1.103 0.473,-2.754 2.557,-3.531c3.007,-1.113 6.157,-0.379 9.189,0.192c0.04,0 0.201,0.09 0.059,0.164c-0.543,0.294 -1.076,0.536 -1.907,1.251c-0.598,0.51 -1.378,1.191 -1.983,1.93c-0.599,0.73 -1.024,1.38 -1.587,2.102c-0.078,0.103 -0.177,0.099 -0.174,0.099c-1.37,0.231 -2.715,0.386 -3.941,1.24c-0.255,0.176 -0.364,0.485 -0.211,0.725c0.139,0.209 0.457,0.232 0.676,0.072c0.761,-0.571 1.549,-0.84 2.451,-0.862c0.039,0.001 0.056,0.007 0.069,0.03c0.007,0.016 0.004,0.045 -0.014,0.066c-1.349,1.871 -1.688,2.291 -2.704,3.453c-0.519,0.596 -1.031,1.099 -1.601,1.623c-2.307,2.14 -4.785,2.104 -5.675,0.762c-0.532,-0.805 -0.462,-1.651 -0.114,-2.354c0.429,-0.858 1.297,-1.485 2.018,-1.854c0.266,-0.137 0.342,-0.478 0.076,-0.79c-0.171,-0.203 -0.584,-0.238 -0.89,-0.184c-0.946,0.177 -2.062,0.89 -2.721,1.747c-0.745,0.963 -1.115,2.132 -0.989,3.445c0.222,2.368 2.174,3.737 4.39,3.72c1.763,-0.013 3.424,-0.546 5.422,-2.572c1.863,-1.891 3.56,-4.717 5.149,-7.334c0.051,-0.083 0.087,-0.129 0.326,-0.157c0.999,-0.126 2.47,-0.268 3.414,-0.322c0.21,-0.011 0.25,-0.009 0.335,0.095c0.247,0.311 0.614,0.572 0.91,0.733c0.144,0.076 0.215,0.117 0.328,0.12c0.139,0.002 0.248,-0.072 0.318,-0.152c0.1,-0.112 0.128,-0.253 0.074,-0.347c-0.057,-0.097 -0.717,-0.46 -0.735,-0.608c-0.013,-0.091 0.086,-0.115 0.086,-0.115c0.484,-0.149 0.987,-0.463 1.292,-1.044c0.301,-0.577 0.35,-1.341 -0.201,-1.768c-0.479,-0.375 -1.208,-0.316 -1.785,0.203c-0.568,0.507 -0.755,1.239 -0.68,1.884c0.015,0.112 0.008,0.149 -0.143,0.16c-0.872,0.069 -1.713,0.096 -2.647,0.145c-0.062,0.005 -0.083,-0.037 -0.046,-0.079c1.078,-1.869 2.682,-3.2 4.459,-4.507c0.118,-0.09 0.082,-0.256 0.077,-0.395c3.209,0.693 6.308,1.989 9.636,1.964c1.375,-0.013 2.694,-0.221 3.952,-0.912c1.109,-0.604 1.558,-1.16 1.593,-1.741c0.023,-0.4 -0.255,-0.656 -0.652,-0.571c-3.364,0.775 -6.57,0.766 -9.917,0.36c-3.794,-0.461 -7.436,-1.405 -11.209,-1.405c-0.57,0 -1.143,0.022 -1.72,0.07Zm7.509,6.661c-0.049,-0.355 0.066,-0.831 0.446,-1.167c0.191,-0.168 0.448,-0.208 0.607,-0.071c0.177,0.152 0.094,0.529 -0.084,0.789c-0.197,0.29 -0.529,0.54 -0.83,0.598c-0.008,0.001 -0.016,0.002 -0.023,0.002c-0.052,0 -0.095,-0.033 -0.116,-0.151Z" style="fill:url(#_Linear32);fill-rule:nonzero;"/><g opacity="0.1"><path d="M151.38,10.963l6.502,-10.963l1.223,12.694l12.419,2.784l-11.692,5.068l1.209,12.759l-8.469,-9.608l-11.737,5.079l6.535,-11.023l-8.428,-9.577l12.438,2.787Z" style="fill:#0062a2;fill-rule:nonzero;"/></g><g opacity="0.2"><path d="M119.751,16.015l1.966,-8.268l3.292,7.84l8.457,-0.688l-6.438,5.541l3.295,7.882l-7.294,-4.439l-6.465,5.56l1.979,-8.312l-7.265,-4.427l8.473,-0.689Z" style="fill:#0062a2;fill-rule:nonzero;"/></g><g opacity="0.3"><path d="M97.375,22.825l-0.069,-7.435l4.446,5.965l7.038,-2.363l-4.301,6.062l4.455,6.001l-7.128,-2.235l-4.323,6.08l-0.068,-7.475l-7.1,-2.232l7.05,-2.368Z" style="fill:#0062a2;fill-rule:nonzero;"/></g><g opacity="0.4"><path d="M80.199,32.891l-1.362,-6.227l4.775,4.226l5.491,-3.218l-2.547,5.839l4.791,4.255l-6.371,-0.625l-2.561,5.859l-1.369,-6.26l-6.348,-0.626l5.501,-3.224Z" style="fill:#0062a2;fill-rule:nonzero;"/></g><g opacity="0.6"><path d="M68.615,43.877l-1.789,-4.624l4.175,2.678l3.836,-3.127l-1.261,4.791l4.19,2.699l-4.972,0.279l-1.268,4.81l-1.799,-4.649l-4.955,0.275l3.843,-3.132Z" style="fill:#0062a2;fill-rule:nonzero;"/></g><g opacity="0.75"><path d="M60.03,53.377l-1.962,-3.769l3.809,1.887l2.973,-3.027l-0.621,4.202l3.826,1.901l-4.211,0.707l-0.624,4.219l-1.972,-3.791l-4.195,0.704l2.977,-3.033Z" style="fill:#0062a2;fill-rule:nonzero;"/></g><g opacity="0.85"><path d="M52.94,62.228l-2.091,-3.287l3.629,1.421l2.474,-3.001l-0.233,3.887l3.644,1.432l-3.789,0.981l-0.237,3.901l-2.1,-3.304l-3.775,0.975l2.478,-3.005Z" style="fill:#0062a2;fill-rule:nonzero;"/></g><path d="M47.951,70.581l-1.886,-2.567l3.041,0.96l1.855,-2.585l0.021,3.185l3.053,0.971l-3.039,1.007l0.022,3.199l-1.897,-2.584l-3.029,1.002l1.859,-2.589Z" style="fill:#0062a2;fill-rule:nonzero;"/><path d="M147.274,54.238l-2.746,12.904c-1.042,4.898 -3.018,5.892 -7.295,5.892c-3.804,0 -6.14,-0.472 -5.224,-4.774l0.571,-2.685l3.431,0l-0.297,1.392c-0.518,2.438 -0.639,3.009 2.17,3.009c2.138,0 2.578,-0.547 3.065,-2.834l2.745,-12.904l3.58,0Z" style="fill:#0062a2;fill-rule:nonzero;"/><path d="M150.387,66.396c-0.74,3.482 -0.681,4.252 2.104,4.252c2.785,0 3.171,-0.77 3.913,-4.252c0.751,-3.53 0.696,-4.325 -2.088,-4.325c-2.785,0 -3.178,0.795 -3.929,4.325m9.154,-0.024c-1.073,5.047 -2.113,6.663 -7.558,6.663c-5.445,0 -5.797,-1.616 -4.724,-6.663c1.079,-5.072 2.119,-6.688 7.565,-6.688c5.444,0 5.796,1.616 4.717,6.688" style="fill:#0062a2;fill-rule:nonzero;"/><path d="M171.334,55.606l-0.466,2.188l2.462,0l0.466,-2.188l-2.462,0Zm-5.071,0l-0.466,2.188l2.462,0l0.465,-2.188l-2.461,0Zm4.698,9.348c0.572,-2.684 0.217,-2.883 -2.345,-2.883c-2.71,0 -3.005,0.571 -3.497,2.883l5.842,0Zm2.329,3.779c-0.873,4.102 -3.277,4.302 -7.007,4.302c-4.997,0 -5.678,-1.592 -4.604,-6.639c0.995,-4.673 2.175,-6.712 7.445,-6.712c5.37,0 5.758,1.566 4.546,7.259l-8.975,0c-0.597,2.81 -0.714,3.705 2.096,3.705c1.741,0 2.953,0.025 3.366,-1.915l3.133,0Z" style="fill:#0062a2;fill-rule:nonzero;"/><path d="M180.584,59.832l-0.439,1.716l0.124,0c0.928,-1.443 2.361,-1.865 3.878,-1.865c2.759,0 3.082,1.641 2.558,4.102l-0.223,1.045l-2.933,0l0.142,-0.671c0.281,-1.318 0.321,-2.089 -1.146,-2.089c-1.865,0 -2.639,1.069 -2.949,2.76l-1.714,8.055l-3.133,0l2.777,-13.053l3.058,0Z" style="fill:#0062a2;fill-rule:nonzero;"/><path d="M88.882,78.589l-6.119,0l6.027,-28.349l-10.64,8.775l-2.838,-4.005l12.962,-10.17l7.784,0l-7.176,33.749Z" style="fill:#1d1d1b;fill-rule:nonzero;"/><path d="M106.925,58.069l0.09,0c2.03,-2.564 5.948,-2.789 8.602,-2.789c8.73,0 10.336,3.239 8.537,11.699c-2.238,10.529 -5.945,11.879 -15.934,11.879c-8.235,0 -11.667,-1.215 -10.026,-9.989l6.12,0c-0.995,4.679 1.434,4.679 5.53,4.679c5.894,0 6.919,-0.584 8.162,-6.434c1.234,-5.805 0.487,-6.524 -5.362,-6.524c-3.285,0 -5.715,0 -6.734,2.25l-5.669,0l3.827,-18l23.534,0l-1.043,4.905l-17.864,0l-1.77,8.324Z" style="fill:#1d1d1b;fill-rule:nonzero;"/></g><defs><radialGradient id="_Radial1" cx="0" cy="0" r="1" gradientUnits="userSpaceOnUse" gradientTransform="matrix(29.49,0,0,29.4634,223.099,81.5598)"><stop offset="0" style="stop-color:#001;stop-opacity:1"/><stop offset="0.7" style="stop-color:#000f2f;stop-opacity:1"/><stop offset="0.9" style="stop-color:#003d7c;stop-opacity:1"/><stop offset="0.96" style="stop-color:#2ca5de;stop-opacity:1"/><stop offset="1" style="stop-color:#2ca5de;stop-opacity:1"/></radialGradient><radialGradient id="_Radial2" cx="0" cy="0" r="1" gradientUnits="userSpaceOnUse" gradientTransform="matrix(167.691,0,0,170.657,222.816,234.012)"><stop offset="0" style="stop-color:#001;stop-opacity:1"/><stop offset="0.7" style="stop-color:#000f2f;stop-opacity:1"/><stop offset="0.9" style="stop-color:#003d7c;stop-opacity:1"/><stop offset="0.96" style="stop-color:#2ca5de;stop-opacity:1"/><stop offset="1" style="stop-color:#2ca5de;stop-opacity:1"/></radialGradient><linearGradient id="_Linear3" x1="0" y1="0" x2="1" y2="0" gradientUnits="userSpaceOnUse" gradientTransform="matrix(0,-30.8954,30.8954,-0,223.035,97.0941)"><stop offset="0" style="stop-color:#061238;stop-opacity:1"/><stop offset="0.81" style="stop-color:#0c316f;stop-opacity:1"/><stop offset="1" style="stop-color:#0068a7;stop-opacity:1"/></linearGradient><linearGradient id="_Linear4" x1="0" y1="0" x2="1" y2="0" gradientUnits="userSpaceOnUse" gradientTransform="matrix(0,-30.8889,30.8889,-0,223.513,97.0912)"><stop offset="0" style="stop-color:#061238;stop-opacity:1"/><stop offset="0.81" style="stop-color:#0c316f;stop-opacity:1"/><stop offset="1" style="stop-color:#0068a7;stop-opacity:1"/></linearGradient><radialGradient id="_Radial5" cx="0" cy="0" r="1" gradientUnits="userSpaceOnUse" gradientTransform="matrix(29.49,0,0,29.4634,223.099,81.5598)"><stop offset="0" style="stop-color:#001;stop-opacity:1"/><stop offset="0.7" style="stop-color:#000f2f;stop-opacity:1"/><stop offset="0.9" style="stop-color:#003d7c;stop-opacity:1"/><stop offset="0.96" style="stop-color:#2ca5de;stop-opacity:1"/><stop offset="1" style="stop-color:#2ca5de;stop-opacity:1"/></radialGradient><linearGradient id="_Linear6" x1="0" y1="0" x2="1" y2="0" gradientUnits="userSpaceOnUse" gradientTransform="matrix(-9.57551,-35.7363,35.7363,-9.57551,215.123,104.881)"><stop offset="0" style="stop-color:#bdbcbc;stop-opacity:1"/><stop offset="0.35" style="stop-color:#e3e3e3;stop-opacity:1"/><stop offset="0.65" style="stop-color:#e3e3e3;stop-opacity:1"/><stop offset="1" style="stop-color:#bdbcbc;stop-opacity:1"/></linearGradient><linearGradient id="_Linear7" x1="0" y1="0" x2="1" y2="0" gradientUnits="userSpaceOnUse" gradientTransform="matrix(-9.53734,-35.5938,35.5938,-9.53734,238.061,84.5843)"><stop offset="0" style="stop-color:#bdbcbc;stop-opacity:1"/><stop offset="0.35" style="stop-color:#e3e3e3;stop-opacity:1"/><stop offset="0.65" style="stop-color:#e3e3e3;stop-opacity:1"/><stop offset="1" style="stop-color:#bdbcbc;stop-opacity:1"/></linearGradient><linearGradient id="_Linear8" x1="0" y1="0" x2="1" y2="0" gradientUnits="userSpaceOnUse" gradientTransform="matrix(0,31.0509,-31.0509,0,223.096,65.9976)"><stop offset="0" style="stop-color:#fff;stop-opacity:1"/><stop offset="0.69" style="stop-color:#fbfbfb;stop-opacity:1"/><stop offset="0.8" style="stop-color:#dadada;stop-opacity:1"/><stop offset="1" style="stop-color:#c6c6c6;stop-opacity:1"/></linearGradient><linearGradient id="_Linear9" x1="0" y1="0" x2="1" y2="0" gradientUnits="userSpaceOnUse" gradientTransform="matrix(0,-21.7155,21.7155,-0,230.026,91.8727)"><stop offset="0" style="stop-color:#061238;stop-opacity:1"/><stop offset="0.81" style="stop-color:#0c316f;stop-opacity:1"/><stop offset="1" style="stop-color:#0068a7;stop-opacity:1"/></linearGradient><linearGradient id="_Linear10" x1="0" y1="0" x2="1" y2="0" gradientUnits="userSpaceOnUse" gradientTransform="matrix(0,-21.6229,21.6229,-0,239.187,91.8464)"><stop offset="0" style="stop-color:#061238;stop-opacity:1"/><stop offset="0.81" style="stop-color:#0c316f;stop-opacity:1"/><stop offset="1" style="stop-color:#0068a7;stop-opacity:1"/></linearGradient><linearGradient id="_Linear11" x1="0" y1="0" x2="1" y2="0" gradientUnits="userSpaceOnUse" gradientTransform="matrix(0,-21.6591,21.6591,-0,240.516,91.8592)"><stop offset="0" style="stop-color:#061238;stop-opacity:1"/><stop offset="0.81" style="stop-color:#0c316f;stop-opacity:1"/><stop offset="1" style="stop-color:#0068a7;stop-opacity:1"/></linearGradient><linearGradient id="_Linear12" x1="0" y1="0" x2="1" y2="0" gradientUnits="userSpaceOnUse" gradientTransform="matrix(-8.88178e-16,-21.648,21.648,-8.88178e-16,228.552,91.8551)"><stop offset="0" style="stop-color:#061238;stop-opacity:1"/><stop offset="0.81" style="stop-color:#0c316f;stop-opacity:1"/><stop offset="1" style="stop-color:#0068a7;stop-opacity:1"/></linearGradient><linearGradient id="_Linear13" x1="0" y1="0" x2="1" y2="0" gradientUnits="userSpaceOnUse" gradientTransform="matrix(0,-0.0036679,0.0036679,-0,246.95,77.1143)"><stop offset="0" style="stop-color:#061238;stop-opacity:1"/><stop offset="0.81" style="stop-color:#0c316f;stop-opacity:1"/><stop offset="1" style="stop-color:#0068a7;stop-opacity:1"/></linearGradient><linearGradient id="_Linear14" x1="0" y1="0" x2="1" y2="0" gradientUnits="userSpaceOnUse" gradientTransform="matrix(0,-21.7049,21.7049,-0,237.154,91.8666)"><stop offset="0" style="stop-color:#061238;stop-opacity:1"/><stop offset="0.81" style="stop-color:#0c316f;stop-opacity:1"/><stop offset="1" style="stop-color:#0068a7;stop-opacity:1"/></linearGradient><linearGradient id="_Linear15" x1="0" y1="0" x2="1" y2="0" gradientUnits="userSpaceOnUse" gradientTransform="matrix(0,-21.6534,21.6534,-0,218.397,91.8559)"><stop offset="0" style="stop-color:#061238;stop-opacity:1"/><stop offset="0.81" style="stop-color:#0c316f;stop-opacity:1"/><stop offset="1" style="stop-color:#0068a7;stop-opacity:1"/></linearGradient><linearGradient id="_Linear16" x1="0" y1="0" x2="1" y2="0" gradientUnits="userSpaceOnUse" gradientTransform="matrix(0,-21.6776,21.6776,-0,227.768,91.8581)"><stop offset="0" style="stop-color:#061238;stop-opacity:1"/><stop offset="0.81" style="stop-color:#0c316f;stop-opacity:1"/><stop offset="1" style="stop-color:#0068a7;stop-opacity:1"/></linearGradient><linearGradient id="_Linear17" x1="0" y1="0" x2="1" y2="0" gradientUnits="userSpaceOnUse" gradientTransform="matrix(0,-21.8597,21.8597,-0,239.226,91.9107)"><stop offset="0" style="stop-color:#061238;stop-opacity:1"/><stop offset="0.81" style="stop-color:#0c316f;stop-opacity:1"/><stop offset="1" style="stop-color:#0068a7;stop-opacity:1"/></linearGradient><linearGradient id="_Linear18" x1="0" y1="0" x2="1" y2="0" gradientUnits="userSpaceOnUse" gradientTransform="matrix(0,-21.794,21.794,-0,231.877,91.9198)"><stop offset="0" style="stop-color:#061238;stop-opacity:1"/><stop offset="0.81" style="stop-color:#0c316f;stop-opacity:1"/><stop offset="1" style="stop-color:#0068a7;stop-opacity:1"/></linearGradient><linearGradient id="_Linear19" x1="0" y1="0" x2="1" y2="0" gradientUnits="userSpaceOnUse" gradientTransform="matrix(0,-21.6524,21.6524,-0,243.697,91.855)"><stop offset="0" style="stop-color:#061238;stop-opacity:1"/><stop offset="0.81" style="stop-color:#0c316f;stop-opacity:1"/><stop offset="1" style="stop-color:#0068a7;stop-opacity:1"/></linearGradient><linearGradient id="_Linear20" x1="0" y1="0" x2="1" y2="0" gradientUnits="userSpaceOnUse" gradientTransform="matrix(0,-21.6607,21.6607,-0,222.768,91.8604)"><stop offset="0" style="stop-color:#061238;stop-opacity:1"/><stop offset="0.81" style="stop-color:#0c316f;stop-opacity:1"/><stop offset="1" style="stop-color:#0068a7;stop-opacity:1"/></linearGradient><linearGradient id="_Linear21" x1="0" y1="0" x2="1" y2="0" gradientUnits="userSpaceOnUse" gradientTransform="matrix(0,-21.6653,21.6653,-0,219.379,91.8604)"><stop offset="0" style="stop-color:#061238;stop-opacity:1"/><stop offset="0.81" style="stop-color:#0c316f;stop-opacity:1"/><stop offset="1" style="stop-color:#0068a7;stop-opacity:1"/></linearGradient><linearGradient id="_Linear22" x1="0" y1="0" x2="1" y2="0" gradientUnits="userSpaceOnUse" gradientTransform="matrix(0,-21.6501,21.6501,-0,203.034,91.8549)"><stop offset="0" style="stop-color:#061238;stop-opacity:1"/><stop offset="0.81" style="stop-color:#0c316f;stop-opacity:1"/><stop offset="1" style="stop-color:#0068a7;stop-opacity:1"/></linearGradient><linearGradient id="_Linear23" x1="0" y1="0" x2="1" y2="0" gradientUnits="userSpaceOnUse" gradientTransform="matrix(0,-21.8611,21.8611,-0,212.736,91.9948)"><stop offset="0" style="stop-color:#061238;stop-opacity:1"/><stop offset="0.81" style="stop-color:#0c316f;stop-opacity:1"/><stop offset="1" style="stop-color:#0068a7;stop-opacity:1"/></linearGradient><linearGradient id="_Linear24" x1="0" y1="0" x2="1" y2="0" gradientUnits="userSpaceOnUse" gradientTransform="matrix(0,-21.6635,21.6635,-0,209.909,91.8572)"><stop offset="0" style="stop-color:#061238;stop-opacity:1"/><stop offset="0.81" style="stop-color:#0c316f;stop-opacity:1"/><stop offset="1" style="stop-color:#0068a7;stop-opacity:1"/></linearGradient><linearGradient id="_Linear25" x1="0" y1="0" x2="1" y2="0" gradientUnits="userSpaceOnUse" gradientTransform="matrix(0,-21.7504,21.7504,-0,210.425,91.908)"><stop offset="0" style="stop-color:#061238;stop-opacity:1"/><stop offset="0.81" style="stop-color:#0c316f;stop-opacity:1"/><stop offset="1" style="stop-color:#0068a7;stop-opacity:1"/></linearGradient><linearGradient id="_Linear26" x1="0" y1="0" x2="1" y2="0" gradientUnits="userSpaceOnUse" gradientTransform="matrix(0,-21.4504,21.4504,-0,234.887,91.6772)"><stop offset="0" style="stop-color:#061238;stop-opacity:1"/><stop offset="0.81" style="stop-color:#0c316f;stop-opacity:1"/><stop offset="1" style="stop-color:#0068a7;stop-opacity:1"/></linearGradient><linearGradient id="_Linear27" x1="0" y1="0" x2="1" y2="0" gradientUnits="userSpaceOnUse" gradientTransform="matrix(0,-21.6545,21.6545,-0,225.173,91.858)"><stop offset="0" style="stop-color:#061238;stop-opacity:1"/><stop offset="0.81" style="stop-color:#0c316f;stop-opacity:1"/><stop offset="1" style="stop-color:#0068a7;stop-opacity:1"/></linearGradient><linearGradient id="_Linear28" x1="0" y1="0" x2="1" y2="0" gradientUnits="userSpaceOnUse" gradientTransform="matrix(0,-21.6986,21.6986,-0,219.548,91.886)"><stop offset="0" style="stop-color:#061238;stop-opacity:1"/><stop offset="0.81" style="stop-color:#0c316f;stop-opacity:1"/><stop offset="1" style="stop-color:#0068a7;stop-opacity:1"/></linearGradient><linearGradient id="_Linear29" x1="0" y1="0" x2="1" y2="0" gradientUnits="userSpaceOnUse" gradientTransform="matrix(0,-21.6595,21.6595,-0,220.243,91.8599)"><stop offset="0" style="stop-color:#061238;stop-opacity:1"/><stop offset="0.81" style="stop-color:#0c316f;stop-opacity:1"/><stop offset="1" style="stop-color:#0068a7;stop-opacity:1"/></linearGradient><linearGradient id="_Linear30" x1="0" y1="0" x2="1" y2="0" gradientUnits="userSpaceOnUse" gradientTransform="matrix(0,-21.6631,21.6631,-0,208.363,91.8636)"><stop offset="0" style="stop-color:#061238;stop-opacity:1"/><stop offset="0.81" style="stop-color:#0c316f;stop-opacity:1"/><stop offset="1" style="stop-color:#0068a7;stop-opacity:1"/></linearGradient><linearGradient id="_Linear31" x1="0" y1="0" x2="1" y2="0" gradientUnits="userSpaceOnUse" gradientTransform="matrix(0,15.4504,-15.4504,0,229.457,75.9213)"><stop offset="0" style="stop-color:#fff;stop-opacity:1"/><stop offset="0.69" style="stop-color:#fbfbfb;stop-opacity:1"/><stop offset="0.8" style="stop-color:#dadada;stop-opacity:1"/><stop offset="1" style="stop-color:#c6c6c6;stop-opacity:1"/></linearGradient><linearGradient id="_Linear32" x1="0" y1="0" x2="1" y2="0" gradientUnits="userSpaceOnUse" gradientTransform="matrix(0,21.4189,-21.4189,0,217.193,70.0093)"><stop offset="0" style="stop-color:#fff;stop-opacity:1"/><stop offset="0.69" style="stop-color:#fbfbfb;stop-opacity:1"/><stop offset="0.8" style="stop-color:#dadada;stop-opacity:1"/><stop offset="1" style="stop-color:#c6c6c6;stop-opacity:1"/></linearGradient></defs></svg>