<svg viewBox="0 0 283 169" xmlns="http://www.w3.org/2000/svg" xml:space="preserve" style="fill-rule:evenodd;clip-rule:evenodd;stroke-linejoin:round;stroke-miterlimit:2"><path d="m36.054 154.326-9.167 13.519-3.672-13.519h-2.274l-3.27 14.652h1.612l2.889-12.941 3.506 12.941h2.084l9.167-13.353-3.056 13.353h1.708l3.268-14.652h-2.795ZM50.335 168.978l.213-.845a8.486 8.486 0 0 1-4.24 1.113c-3.553 0-6.088-2.205-6.088-5.318 0-1.791.759-3.42 2.133-4.615 1.279-1.111 2.961-1.709 4.856-1.709 2.439 0 4.146.782 5.163 2.368l.475-2.059h1.609l-2.439 11.065h-1.682Zm-3.007-10.138c-1.232 0-2.416.369-3.365 1.071-1.279.948-2.061 2.473-2.061 4.059 0 2.412 1.849 4.04 4.573 4.04 2.914 0 5.282-2.143 5.282-5.05 0-2.494-1.801-4.12-4.429-4.12M58.885 154.326l-3.269 14.652h1.518l.614-2.761 2.227-2 3.435 4.761h1.871l-4.122-5.813 5.828-5.253h-2.039l-6.703 6.119 2.157-9.705h-1.517ZM73.298 169.267c-3.625 0-6.134-2.226-6.134-5.338 0-1.895.876-3.626 2.464-4.862 1.23-.948 2.817-1.464 4.618-1.464 3.625 0 6.112 2.204 6.112 5.625 0 .207 0 .412-.025.638H68.844c0 2.534 1.849 4.163 4.431 4.163 2.178 0 3.79-.907 4.809-2.74h1.846c-1.232 2.659-3.435 3.977-6.632 3.977m.9-10.427c-2.463 0-4.5 1.443-5.164 3.812h9.689c-.26-2.391-2.015-3.812-4.525-3.812M83.648 165.825v.042c0 1.297.9 2.121 2.107 2.121 1.161 0 2.157-.927 2.157-1.998s-.782-1.506-1.99-2.205c-1.587-.927-2.558-1.607-2.558-3.111 0-1.751 1.515-3.092 3.481-3.092 1.849 0 3.104 1.031 3.104 2.617 0 .145 0 .31-.023.454h-1.493l.023-.268c0-.968-.64-1.546-1.634-1.546-1.09 0-1.895.701-1.895 1.649 0 .969.876 1.421 2.275 2.266 1.373.826 2.344 1.403 2.344 2.946 0 2.083-1.611 3.587-3.956 3.587-2.013 0-3.483-1.299-3.483-3.069 0-.124 0-.27.025-.393h1.516ZM103.403 154.326l-.805 3.586H99.92l-.261 1.236h2.678l-2.203 9.83h1.539l2.18-9.83h2.677l.282-1.236h-2.675l.806-3.586h-1.54ZM110.294 158.964c1.303-.845 2.558-1.257 3.814-1.257 2.772 0 4.619 1.504 4.619 3.627 0 .741-.094 1.647-.331 2.616l-1.161 5.027h-1.564l1.303-5.666a7.055 7.055 0 0 0 .213-1.629c0-1.688-1.136-2.678-3.056-2.678-2.628 0-4.074 1.36-4.714 4.081l-1.374 5.892h-1.492l3.293-14.651h1.515l-1.065 4.638ZM127.35 169.267c-3.626 0-6.135-2.226-6.135-5.338.001-1.895.877-3.626 2.465-4.862 1.23-.948 2.817-1.464 4.618-1.464 3.625 0 6.112 2.204 6.112 5.625 0 .207 0 .412-.025.638h-11.489c0 2.534 1.849 4.163 4.431 4.163 2.178 0 3.79-.907 4.809-2.74h1.846c-1.232 2.659-3.435 3.977-6.632 3.977m.9-10.427c-2.463 0-4.5 1.443-5.164 3.812h9.689c-.261-2.391-2.016-3.812-4.525-3.812M154.21 168.978l.285-1.052c-1.279.887-2.725 1.32-4.289 1.32-3.481 0-6.04-2.205-6.04-5.318 0-1.791.758-3.42 2.132-4.615 1.279-1.111 2.962-1.709 4.856-1.709 2.393 0 4.098.761 5.236 2.368l1.278-5.645h1.54l-3.316 14.651h-1.682Zm-2.938-10.138c-1.231 0-2.415.369-3.363 1.071a5.098 5.098 0 0 0-2.061 4.059c0 2.412 1.848 4.04 4.573 4.04 2.913 0 5.281-2.143 5.281-5.05 0-2.494-1.801-4.12-4.43-4.12M162.854 154.326l-.544 2.492h1.516l.544-2.492h-1.516Zm-.781 3.586-2.486 11.066h1.515l2.463-11.066h-1.492ZM166.005 159.067l.308-1.155h2.013c.38-2.617 1.729-3.749 4.454-3.749h.284l-.284 1.174h-.237c-1.801 0-2.418.701-2.701 2.575h2.084l-.283 1.155h-2.11l-2.155 9.912h-1.54l2.203-9.912h-2.036ZM173.418 159.067l.309-1.155h2.013c.379-2.617 1.728-3.749 4.452-3.749h.286l-.286 1.174h-.236c-1.801 0-2.417.701-2.701 2.575h2.085l-.284 1.155h-2.109l-2.155 9.912h-1.541l2.203-9.912h-2.036ZM186.423 169.267c-3.625 0-6.135-2.226-6.135-5.338 0-1.895.876-3.626 2.464-4.862 1.23-.948 2.818-1.464 4.619-1.464 3.624 0 6.111 2.204 6.111 5.625 0 .207 0 .412-.025.638h-11.488c0 2.534 1.849 4.163 4.431 4.163 2.177 0 3.789-.907 4.808-2.74h1.847c-1.232 2.659-3.435 3.977-6.632 3.977m.9-10.427c-2.463 0-4.501 1.443-5.165 3.812h9.69c-.261-2.391-2.016-3.812-4.525-3.812M194.973 168.978l2.463-11.065h1.492l-.214.906c.995-.845 2.228-1.238 3.815-1.238h.356l-.308 1.36h-.072c-2.512 0-4.075 1.175-4.595 3.462l-1.446 6.575h-1.492ZM209.479 169.267c-3.625 0-6.137-2.226-6.137-5.338 0-1.895.878-3.626 2.466-4.862 1.231-.948 2.818-1.464 4.619-1.464 3.622 0 6.112 2.204 6.112 5.625 0 .207 0 .412-.026.638h-11.488c0 2.534 1.849 4.163 4.431 4.163 2.178 0 3.789-.907 4.808-2.74h1.847c-1.232 2.659-3.435 3.977-6.632 3.977m.9-10.427c-2.463 0-4.5 1.443-5.165 3.812h9.69c-.26-2.391-2.015-3.812-4.525-3.812M221.797 158.964c1.302-.845 2.557-1.257 3.813-1.257 2.773 0 4.62 1.504 4.62 3.627 0 .741-.096 1.647-.331 2.616l-1.162 5.027h-1.563l1.303-5.666a7.11 7.11 0 0 0 .213-1.629c0-1.688-1.139-2.678-3.056-2.678-2.631 0-4.075 1.36-4.715 4.081l-1.373 5.892h-1.493l2.464-11.065h1.54l-.26 1.052ZM238.97 169.287c-3.625 0-6.159-2.226-6.159-5.358 0-1.895.875-3.627 2.464-4.863 1.231-.967 2.817-1.463 4.618-1.463 3.223 0 5.472 1.607 6.063 4.389h-1.705c-.354-1.956-2.038-3.131-4.381-3.131-3.055 0-5.378 2.142-5.378 5.006 0 2.535 1.799 4.184 4.478 4.184 2.226 0 3.979-1.031 4.902-2.967h1.801c-1.138 2.72-3.529 4.203-6.703 4.203M254.104 169.267c-3.623 0-6.136-2.226-6.136-5.338 0-1.895.877-3.626 2.465-4.862 1.231-.948 2.818-1.464 4.619-1.464 3.624 0 6.112 2.204 6.112 5.625 0 .207 0 .412-.026.638h-11.486c0 2.534 1.847 4.163 4.429 4.163 2.178 0 3.79-.907 4.806-2.74h1.849c-1.232 2.659-3.435 3.977-6.632 3.977m.9-10.427c-2.463 0-4.502 1.443-5.165 3.812h9.69c-.262-2.391-2.015-3.812-4.525-3.812M120.442 81.974H29.121C13.039 81.974 0 96.545 0 114.522c0 17.975 13.039 32.547 29.121 32.547h76.729l14.592-65.095Z" style="fill:#1d1d1b;fill-rule:nonzero"/><path d="M105.653 147.069h148.471c16.082 0 29.122-14.571 29.122-32.548 0-17.975-13.04-32.547-29.122-32.547H120.191l-14.538 65.095Z" style="fill:#0062a2;fill-rule:nonzero"/><path d="M115.932 101.347h9.25l5.651 27.916 18.268-27.916h9.763l-7.879 35.318h-5.939l6.682-30.203-19.696 30.203h-5.368l-5.995-30.153-6.736 30.153h-5.936l7.935-35.318ZM165.599 112.77c2.912-2.285 6.682-3.477 10.962-3.477 8.678 0 14.843 5.364 14.843 12.814 0 4.226-1.826 8.15-5.023 11.031-3.027 2.734-7.251 4.22-12.047 4.22-8.62 0-14.729-5.361-14.729-12.814 0-4.621 2.113-8.743 5.994-11.774m-.171 11.774c0 4.768 3.769 8.196 9.135 8.196 6.279 0 11.189-4.619 11.189-10.581 0-5.017-3.823-8.297-9.42-8.297-6.051 0-10.904 4.324-10.904 10.682M199.624 114.46h-5.138l1.027-4.47h5.08l1.887-8.643h5.652l-1.713 8.643h4.966l-1.028 4.47h-4.966l-5.139 22.205h-5.651l5.023-22.205ZM216.694 112.77c2.911-2.285 6.678-3.477 10.959-3.477 8.681 0 14.844 5.364 14.844 12.814 0 4.226-1.824 8.15-5.022 11.031-3.026 2.734-7.251 4.22-12.048 4.22-8.621 0-14.73-5.361-14.73-12.814 0-4.621 2.115-8.743 5.997-11.774m-.173 11.774c0 4.768 3.771 8.196 9.134 8.196 6.282 0 11.19-4.619 11.19-10.581 0-5.017-3.824-8.297-9.42-8.297-6.049 0-10.904 4.324-10.904 10.682M249.918 109.99h4.97l-.628 2.533c2.797-2.188 5.934-3.18 9.762-3.18.454 0 .91 0 1.368.051l-1.14 4.669c-8.563.199-10.223 3.228-11.82 10.331l-2.797 12.271h-5.424l5.709-26.675ZM36.168 89.366c-1.205 0-2.287.393-3.109 1.107a3.867 3.867 0 0 0-1.329 2.931c0 1.989 1.398 3.205 3.561 3.205 1.563 0 2.85-.632 3.728-1.847h1.109c-.904 1.669-2.672 2.609-4.904 2.609-2.782 0-4.521-1.561-4.521-3.812 0-1.429.534-2.668 1.478-3.513 1.07-.966 2.412-1.466 3.891-1.466 2.439 0 4.11 1.096 4.562 2.93H39.58c-.468-1.382-1.672-2.144-3.412-2.144M42.388 91.475c.74-.56 1.657-.87 2.672-.87 2.068 0 3.562 1.31 3.562 3.098 0 1.013-.439 1.942-1.22 2.644-.74.666-1.753 1.036-2.958 1.036-2.014 0-3.479-1.322-3.479-3.109 0-1.119.492-2.096 1.423-2.799m-.452 2.872c0 1.31 1.082 2.344 2.521 2.344.74 0 1.439-.226 2-.653.753-.573 1.205-1.454 1.205-2.358 0-1.408-1.082-2.349-2.67-2.349-1.7 0-3.056 1.228-3.056 3.016M51.115 91.416c.753-.489 1.479-.728 2.205-.728 1.604 0 2.672.87 2.672 2.098 0 .429-.055.952-.193 1.513l-.671 2.906h-.904l.753-3.276c.082-.345.124-.655.124-.94 0-.977-.658-1.55-1.768-1.55-1.521 0-2.356.788-2.726 2.358l-.795 3.408h-.862l1.425-6.396h.891l-.151.607ZM60.525 97.383c-2.096 0-3.562-1.286-3.562-3.098 0-1.095.506-2.095 1.426-2.81.713-.561 1.63-.845 2.67-.845 1.864 0 3.165.927 3.508 2.537h-.986c-.207-1.133-1.179-1.811-2.535-1.811-1.768 0-3.109 1.239-3.109 2.895 0 1.464 1.04 2.418 2.588 2.418 1.287 0 2.303-.597 2.835-1.717h1.042c-.659 1.573-2.042 2.431-3.877 2.431M68.759 97.372c-2.096 0-3.548-1.288-3.548-3.086 0-1.096.507-2.096 1.425-2.81.713-.549 1.63-.846 2.671-.846 2.096 0 3.535 1.272 3.535 3.251 0 .119 0 .24-.014.37h-6.644c0 1.464 1.069 2.406 2.561 2.406 1.261 0 2.192-.525 2.78-1.584h1.069c-.71 1.536-1.986 2.299-3.835 2.299m.521-6.027c-1.425 0-2.604.833-2.987 2.203h5.602c-.15-1.383-1.163-2.203-2.615-2.203M74.225 95.382l-.001.023c.001.751.522 1.228 1.219 1.228.673 0 1.248-.537 1.248-1.155-.001-.619-.453-.872-1.153-1.276-.915-.536-1.478-.929-1.478-1.799-.001-1.011.877-1.786 2.014-1.786 1.069 0 1.795.595 1.795 1.514l-.014.261h-.864l.016-.156c-.001-.559-.373-.893-.948-.893-.63 0-1.095.405-1.095.953 0 .561.508.823 1.316 1.312.793.475 1.354.809 1.354 1.703 0 1.203-.931 2.071-2.285 2.071-1.165 0-2.016-.749-2.016-1.774l.014-.226h.877ZM79.239 95.382v.023c0 .751.521 1.228 1.218 1.228.673 0 1.247-.537 1.247-1.155 0-.619-.452-.872-1.151-1.276-.918-.536-1.479-.929-1.479-1.799 0-1.011.877-1.786 2.014-1.786 1.068 0 1.795.595 1.795 1.514l-.014.261h-.864l.015-.156c0-.559-.371-.893-.946-.893-.63 0-1.096.405-1.096.953 0 .561.508.823 1.316 1.312.794.475 1.355.809 1.355 1.703 0 1.203-.931 2.071-2.287 2.071-1.164 0-2.014-.749-2.014-1.774l.014-.226h.877ZM84.294 97.205h-.877l1.439-6.397h.861l-1.423 6.397Zm1.013-8.47h.878l-.316 1.441h-.876l.314-1.441ZM87.718 91.475c.739-.56 1.657-.87 2.672-.87 2.067 0 3.562 1.31 3.562 3.098 0 1.013-.439 1.942-1.221 2.644-.739.666-1.752 1.036-2.957 1.036-2.014 0-3.479-1.322-3.479-3.109 0-1.119.492-2.096 1.423-2.799m-.452 2.872c0 1.31 1.082 2.344 2.521 2.344.74 0 1.439-.226 2-.653.753-.573 1.205-1.454 1.205-2.358 0-1.408-1.083-2.349-2.67-2.349-1.7 0-3.056 1.228-3.056 3.016M96.445 91.416c.753-.489 1.479-.728 2.205-.728 1.604 0 2.672.87 2.672 2.098 0 .429-.055.952-.193 1.513l-.671 2.906h-.904l.753-3.276c.082-.345.125-.655.125-.94 0-.977-.659-1.55-1.769-1.55-1.519 0-2.356.788-2.726 2.358l-.795 3.408h-.862l1.426-6.396h.888l-.149.607ZM104.089 91.416c.753-.489 1.479-.728 2.205-.728 1.603 0 2.672.87 2.672 2.098 0 .429-.055.952-.193 1.513l-.671 2.906h-.904l.753-3.276c.082-.345.124-.655.124-.94 0-.977-.658-1.55-1.768-1.55-1.519 0-2.356.788-2.726 2.358l-.795 3.408h-.862l1.425-6.396h.889l-.149.607ZM115.802 97.205l.123-.489a4.905 4.905 0 0 1-2.453.644c-2.053 0-3.519-1.276-3.519-3.075 0-1.036.439-1.977 1.232-2.666.74-.644 1.713-.989 2.808-.989 1.411 0 2.397.452 2.987 1.368l.274-1.19h.931l-1.41 6.397h-.973Zm-1.739-5.86c-.713 0-1.397.213-1.947.618a2.949 2.949 0 0 0-1.191 2.347c0 1.395 1.068 2.335 2.643 2.335 1.686 0 3.056-1.239 3.056-2.917 0-1.443-1.04-2.383-2.561-2.383M119.227 97.205h-.877l1.439-6.397h.861l-1.423 6.397Zm1.014-8.47h.877l-.316 1.441h-.876l.315-1.441ZM120.898 97.205l1.425-6.397h.863l-.123.523c.575-.488 1.287-.714 2.205-.714h.207l-.18.787h-.041c-1.452 0-2.356.678-2.657 2l-.835 3.801h-.864ZM128.767 97.372c-2.096 0-3.548-1.288-3.548-3.086 0-1.096.508-2.096 1.425-2.81.713-.549 1.631-.846 2.671-.846 2.096 0 3.535 1.272 3.535 3.251 0 .119 0 .24-.014.37h-6.644c0 1.464 1.069 2.406 2.562 2.406 1.26 0 2.191-.525 2.78-1.584h1.068c-.71 1.536-1.986 2.299-3.835 2.299m.521-6.027c-1.425 0-2.604.833-2.986 2.203h5.601c-.149-1.383-1.163-2.203-2.615-2.203M138.809 91.475c.74-.56 1.657-.87 2.673-.87 2.067 0 3.561 1.31 3.561 3.098 0 1.013-.439 1.942-1.22 2.644-.74.666-1.754 1.036-2.958 1.036-2.013 0-3.482-1.322-3.482-3.109 0-1.119.494-2.096 1.425-2.799m-.452 2.872c0 1.31 1.083 2.344 2.521 2.344.74 0 1.44-.226 2-.653.754-.573 1.206-1.454 1.206-2.358 0-1.408-1.082-2.349-2.67-2.349-1.701 0-3.056 1.228-3.056 3.016M146.002 91.475l.178-.667h1.165c.218-1.513.998-2.168 2.574-2.168h.165l-.165.678h-.138c-1.04 0-1.396.406-1.561 1.49h1.207l-.165.667h-1.22l-1.245 5.73h-.891l1.274-5.73h-1.178ZM149.769 91.475l.178-.667h1.165c.218-1.513 1-2.168 2.574-2.168h.165l-.165.678h-.138c-1.04 0-1.396.406-1.561 1.49h1.207l-.165.667h-1.22l-1.245 5.73h-.892l1.275-5.73h-1.178ZM153.974 97.205h-.877l1.44-6.397h.862l-1.424 6.397Zm1.014-8.47h.876l-.316 1.441h-.877l.317-1.441ZM159.591 97.383c-2.096 0-3.562-1.286-3.562-3.098 0-1.095.506-2.095 1.425-2.81.713-.561 1.629-.845 2.671-.845 1.864 0 3.165.927 3.508 2.537h-.986c-.207-1.133-1.179-1.811-2.535-1.811-1.768 0-3.109 1.239-3.109 2.895 0 1.464 1.04 2.418 2.588 2.418 1.287 0 2.301-.597 2.835-1.717h1.042c-.659 1.573-2.042 2.431-3.877 2.431M165.029 97.205h-.877l1.439-6.397h.862l-1.424 6.397Zm1.014-8.47h.878l-.317 1.441h-.876l.315-1.441ZM170.577 97.372c-2.096 0-3.548-1.288-3.548-3.086 0-1.096.508-2.096 1.425-2.81.713-.549 1.631-.846 2.671-.846 2.096 0 3.534 1.272 3.534 3.251 0 .119 0 .24-.013.37h-6.644c0 1.464 1.069 2.406 2.561 2.406 1.261 0 2.192-.525 2.781-1.584h1.068c-.711 1.536-1.986 2.299-3.835 2.299m.521-6.027c-1.425 0-2.603.833-2.987 2.203h5.602c-.15-1.383-1.163-2.203-2.615-2.203M176.071 97.205h-.878l1.891-8.47h.878l-1.891 8.47ZM28.531 101.347h3.883l-7.08 32.09h16.898l-.741 3.228H20.709l7.822-35.318ZM65.893 134.131c-2.912 2.136-5.996 3.228-9.249 3.228-6.68 0-11.132-3.575-11.132-8.74 0-1.839.228-4.025.798-6.358l2.912-12.27h3.711l-3.197 13.858c-.343 1.439-.514 2.734-.514 3.926 0 4.07 2.742 6.406 7.364 6.406 6.337 0 9.82-3.228 11.361-9.788l3.369-14.402h3.598l-5.938 26.674h-3.711l.628-2.534ZM88.499 123.054l7.309 13.611h-4.054l-5.767-10.78-10.22 10.78h-4.394l13.074-13.511-7.31-13.163h4.113l5.651 10.329 9.82-10.329h4.282l-12.504 13.063Z" style="fill:#fff;fill-rule:nonzero"/><path d="M108.199 124.952H95.038l.686-3.236h13.162l-.687 3.236Z" style="fill:#fff;fill-rule:nonzero"/><path d="M184.268 81.561c0 8.4 17.419 15.198 38.831 15.198 21.41 0 38.832-6.818 38.832-15.198 0-8.381-17.422-15.2-38.832-15.2-21.553 0-38.831 6.745-38.831 15.2Z" style="fill:url(#a);fill-rule:nonzero"/><path d="M184.864 81.551c0 8.048 17.133 14.583 38.235 14.583 21.103 0 38.236-6.535 38.236-14.584 0-8.048-17.133-14.583-38.236-14.583-21.102 0-38.235 6.535-38.235 14.584Z" style="fill:url(#b)"/><path d="M187.742 81.556c0 .548.105 1.083.309 1.613a4.338 4.338 0 0 1-.134-1.054c0-6.676 15.829-12.089 35.356-12.089 17.961 0 32.793 4.579 35.055 10.51-1.509-6.24-16.705-11.141-35.231-11.141-19.527 0-35.355 5.446-35.355 12.161Z" style="fill:url(#c);fill-rule:nonzero"/><path d="M259.737 81.556c0 7.351-16.404 13.312-36.64 13.312-18.01 0-32.982-4.721-36.064-10.939 2.344 6.478 17.713 11.473 36.325 11.473 20.234 0 36.636-5.905 36.636-13.197 0-.738-.168-1.465-.494-2.171.156.5.237 1.006.237 1.522Z" style="fill:url(#d);fill-rule:nonzero"/><path d="M184.268 81.561c0 8.4 17.419 15.198 38.831 15.198 21.41 0 38.832-6.818 38.832-15.198 0-8.381-17.422-15.2-38.832-15.2-21.553 0-38.831 6.745-38.831 15.2Zm.265.166c-.007-1.778.743-3.547 2.322-5.209 5.56-5.852 20.125-9.808 36.177-9.879 21.265-.091 38.597 6.526 38.632 14.755.008 1.776-.79 3.52-2.368 5.185-5.559 5.853-20.08 9.831-36.131 9.901l-.446.001c-21.064 0-38.15-6.584-38.186-14.754Z" style="fill:url(#e);fill-rule:nonzero"/><path d="M184.384 81.561c0 .396.046.79.121 1.179a6.272 6.272 0 0 1-.092-1.011c-.007-1.804.767-3.623 2.358-5.299 5.588-5.887 20.17-9.848 36.261-9.919a97.957 97.957 0 0 1 6.545.191 97.161 97.161 0 0 0-6.48-.215c-21.465 0-38.713 6.721-38.713 15.074Z" style="fill:url(#f);fill-rule:nonzero"/><path d="M261.786 81.398c.008 1.799-.809 3.598-2.403 5.272-5.57 5.868-20.147 9.866-36.218 9.937a97.522 97.522 0 0 1-6.666-.193 97.93 97.93 0 0 0 6.6.218c21.346 0 38.711-6.801 38.711-15.068 0-.315-.028-.629-.078-.94.034.257.053.513.054.774Z" style="fill:url(#g);fill-rule:nonzero"/><path d="M186.454 81.556c0 7.351 16.404 13.312 36.643 13.312 20.236 0 36.64-5.961 36.64-13.312 0-7.353-16.404-13.311-36.64-13.311-20.239 0-36.643 5.958-36.643 13.311Zm1.288 0c0-6.715 15.828-12.161 35.355-12.161 19.526 0 35.353 5.446 35.353 12.161s-15.827 12.159-35.353 12.159c-19.527 0-35.355-5.444-35.355-12.159Z" style="fill:url(#h);fill-rule:nonzero"/><path d="M230.229 82.843c-.858.894-.922 2.046-.361 2.568.203.184.429.271.68.283-.368-.463-.541-1.371-.085-2.091a1.214 1.214 0 0 1-.053-.691c.013-.057-.033-.111-.093-.111a.123.123 0 0 0-.088.042Z" style="fill:url(#i);fill-rule:nonzero"/><path d="m239.072 84.751-.001-.01.001.01Zm.076.573c.044-.083.088-.174.135-.271.036-.072.019-.092-.013-.105-.088-.034-.18-.099-.189-.169a.07.07 0 0 1-.009-.028c.013.135.047.386.076.573Z" style="fill:url(#j);fill-rule:nonzero"/><path d="M240.616 82.738c.012.144.12.162.212.037.024-.037.051-.081.084-.13-.028-.033-.052-.066-.079-.1a7.86 7.86 0 0 0-.712-.719c.286.274.462.606.495.912Z" style="fill:url(#k);fill-rule:nonzero"/><path d="M228.568 82.6c-.004.15.106.138.175.036.042-.055.077-.105.113-.158-.168-.514-.424-1.024-.609-1.212.231.311.336.761.321 1.334Z" style="fill:url(#l);fill-rule:nonzero"/><path d="M246.95 77.114v-.003.003Z" style="fill:url(#m);fill-rule:nonzero"/><path d="M236.163 84.265c-.802.978-1.232 1.976-1.25 2.95-.004.347.128.775.433.933.099.054.201.088.306.107a1.56 1.56 0 0 1-.054-.392c-.012-1.005.3-2.008 1.099-2.991.97-1.193 1.989-1.787 2.698-1.459a.779.779 0 0 0-.474-.631.966.966 0 0 0-.423-.092c-.675 0-1.54.594-2.335 1.575Z" style="fill:url(#n);fill-rule:nonzero"/><path d="M220.222 81.95c.031.105.003.185-.12.23-1.088.414-2.175 1.053-2.929 2.061-.853 1.143-1.083 2.519-.512 3.311.136.185.297.322.478.414-.308-.949-.083-2.219.638-3.196.747-1.007 1.586-1.392 2.544-1.805.125-.053.141-.127.119-.237-.044-.19-.178-.665-.216-.778h-.002Z" style="fill:url(#o);fill-rule:nonzero"/><path d="M228.217 85.226c-1.011 1.545-1.957 3.038-2.96 4.608-.051.07-.098.12-.201.124-.62 0-1.299-.002-1.983.001-.072 0-.122-.031-.139-.081.055.24.142.673.165.774.018.066.07.105.147.105.733 0 1.633 0 2.246-.006.092-.003.152-.056.201-.123.913-1.427 1.887-2.976 2.819-4.407.206.719.309 1.056.69 1.396.387.346.744.436 1.273.442.478.005.948-.187 1.508-.42.203-.082.382-.186.543-.29 0-.264.027-.531.074-.784.003-.028-.021-.203-.173-.1a4.214 4.214 0 0 1-1.015.546c-.517.192-.758.266-1.235.261-.602-.005-1.143-.261-1.528-.854-.211-.322-.299-.812-.32-1.174-.002-.024-.024-.062-.055-.062-.017 0-.037.012-.057.044Z" style="fill:url(#p);fill-rule:nonzero"/><path d="M245.632 86.021c-.966 1.179-2.034 2.291-3.053 3.079-1.594 1.229-3.178 1.541-3.962.754a1.714 1.714 0 0 1-.473-1.066c-.01-.195-.109-.202-.201-.113-.936.927-2.566 1.953-4.047 1.222-.759-.373-1.16-1.073-1.305-1.84v.002c.094.553.216 1.352.476 1.844.169.323.547.689.778.801 1.316.65 3.195-.084 4.401-1.244l.033-.036c.055.209.121.461.133.495.082.271.211.515.324.642.824.934 2.577.51 4.402-.899 1.019-.788 1.775-1.578 2.7-2.658.037-.042.034-.109.011-.207-.053-.235-.134-.659-.18-.874a.161.161 0 0 1-.037.098Zm-13.041 2.036a.085.085 0 0 0-.005-.024l.005.024Z" style="fill:url(#q);fill-rule:nonzero"/><path d="M233.055 82.775c-.09.586-.409 1.104-.95 1.374-.459.224-.996.184-1.371-.151a1.066 1.066 0 0 1-.259-.371c.096.443.179.77.296.944.353.532.965.665 1.639.301.489-.263.92-.823.865-1.731a3.06 3.06 0 0 0-.373-1.294c.145.277.204.594.153.928Z" style="fill:url(#r);fill-rule:nonzero"/><path d="M246.934 77.202c-.308.532-6.251 9.569-6.625 10.504-.12.296-.133.522-.013.686.124.162.302.226.503.222.019-.112.064-.242.118-.378.377-.938 5.941-9.386 6.249-9.922a.18.18 0 0 0 .006-.132c-.018-.084-.203-.983-.222-1.066.006.024 0 .052-.016.086Z" style="fill:url(#s);fill-rule:nonzero"/><path d="M222.315 81.464c.358.529.551 1.279.572 2.052.022.163.092.166.172.084.071-.073.142-.151.211-.228a6.345 6.345 0 0 0-.435-1.148c-.059-.13-.332-.598-.568-.817.018.017.032.036.048.057Z" style="fill:url(#t);fill-rule:nonzero"/><path d="M225.298 83.195c-1.283.97-2.36 2.481-2.904 3.157-.322.399-.625.985-1.466 1.896-1.322 1.433-3.074 2.255-4.761 1.688a2.869 2.869 0 0 1-1.845-1.959c-.051-.178-.149-.227-.245-.112-.273.342-.831.841-1.297 1.157-.051.035-.175.11-.285.055-.097-.042-.443-.531-.512-.67a.116.116 0 0 1-.015-.049v.006c.12.603.137.673.301.949.187.308.367.525.407.543.109.055.223.005.276-.024.361-.187 1.067-.73 1.372-1.108.09-.089.18-.028.208.065.128.402.313.712.523 1.043.228.366.685.745 1.275.907.766.215 1.591.253 2.675-.162.869-.332 1.78-1.01 2.483-1.771.842-.912 1.146-1.498 1.466-1.896.544-.676 1.394-1.871 2.585-2.884.416-.357.871-.586 1.158-.476.17-.442.089-.686-.093-.804a.397.397 0 0 0-.22-.058c-.3 0-.719.228-1.086.507Z" style="fill:url(#u);fill-rule:nonzero"/><path d="M203.967 81.986c-.721.369-1.589.996-2.018 1.854-.348.703-.418 1.549.114 2.354.044.064.092.128.144.189-.169-.67.014-1.387.282-1.926.428-.861 1.027-1.271 1.619-1.642.254-.162.367-.317.215-.735-.043-.121-.067-.336-.114-.525a.434.434 0 0 1-.242.431Z" style="fill:url(#v);fill-rule:nonzero"/><path d="M209.416 73.347c-2.084.777-2.997 2.428-2.557 3.531.085.209.22.375.393.49-.147-1.019.615-2.685 2.62-3.346 2.619-.862 5.542-.317 7.888.185.33-.206.616-.348.904-.504.142-.074-.019-.164-.059-.164-1.88-.354-3.806-.771-5.715-.771-1.169 0-2.332.156-3.474.579Z" style="fill:url(#w);fill-rule:nonzero"/><path d="M218.144 79.539a58.93 58.93 0 0 0-3.414.322c-.239.028-.275.074-.326.157-1.589 2.617-3.286 5.443-5.149 7.334-1.998 2.026-3.659 2.559-5.422 2.572-2.037.015-3.848-1.138-4.305-3.163.243 1.131.976 2.493 1.818 3.087.858.606 1.704.805 2.693.822 2.003.034 3.834-.791 5.777-2.763 1.862-1.888 3.477-4.529 5.069-7.146.053-.093.108-.13.375-.166.997-.125 1.893-.18 2.773-.264.265-.025.464-.049.56.045.32.319.688.611.934.753.162.001.3.036.396.122a.45.45 0 0 0 .257-.129c.115-.112.119-.241.1-.355-.038-.217-.099-.645-.168-.767.048.093.02.228-.077.335a.417.417 0 0 1-.318.152c-.113-.003-.184-.044-.328-.12-.296-.161-.663-.422-.91-.733-.065-.08-.104-.099-.213-.099-.033 0-.073.001-.122.004Z" style="fill:url(#x);fill-rule:nonzero"/><path d="M209.537 81.122c-.219.16-.537.137-.676-.072a.456.456 0 0 1-.07-.228c-.02.338.117.837.226 1.004.121.186.462.278.73.08.608-.452 1.157-.71 1.77-.827.16-.215.332-.455.526-.723.018-.021.021-.05.014-.066-.013-.023-.03-.029-.069-.03-.902.022-1.69.291-2.451.862Z" style="fill:url(#y);fill-rule:nonzero"/><path d="M234.906 72.846a.302.302 0 0 0-.038-.061c.014.021.027.04.038.061Z" style="fill:url(#z);fill-rule:nonzero"/><path d="M234.967 73.175c-.035.581-.484 1.137-1.593 1.741-1.258.691-2.577.899-3.952.912-3.328.025-6.427-1.271-9.636-1.964.005.139.041.305-.077.395-1.777 1.307-3.381 2.638-4.459 4.507-.037.042-.016.084.046.079.285-.015.558-.027.83-.043.98-1.531 2.027-2.41 3.63-3.593.118-.088.238-.154.198-.493 3.218.711 5.665 1.894 9.82 1.908 1.24.003 2.988-.411 3.929-.978 1.081-.649 1.368-1.125 1.409-1.63a2.132 2.132 0 0 0-.055-.514c-.036-.171-.062-.388-.111-.55a.825.825 0 0 1 .021.223Z" style="fill:url(#A);fill-rule:nonzero"/><path d="M219.473 77.082c-.04.039-.084.077-.13.117a1.33 1.33 0 0 0-.365 1.091c.023.135.077.159.139.149a.876.876 0 0 0 .183-.058.801.801 0 0 1 .282-.519.542.542 0 0 1 .441-.145c.121-.246.157-.538.008-.665a.353.353 0 0 0-.234-.083.568.568 0 0 0-.324.113Z" style="fill:url(#B);fill-rule:nonzero"/><path d="M220.752 78.221c-.305.581-.808.895-1.292 1.044 0 0-.099.024-.086.115.013.104.356.322.57.473a1.665 1.665 0 0 0 .975-.898c.155-.338.239-.601.171-1.179-.046-.403-.127-.769-.236-.958.207.423.122.968-.102 1.403Z" style="fill:url(#C);fill-rule:nonzero"/><path d="M211.866 75.494c.063.149.063.368-.054.643-.881 2.069-2.563 3.707-4.611 3.774-1.234.044-2.161-.588-2.594-1.524.318.698.967 1.32 1.535 1.676.445.278.992.432 1.617.41 2.135-.073 3.752-1.83 4.289-3.314.144-.401.034-.831-.035-1.122-.027-.111-.063-.363-.145-.543h-.002Z" style="fill:url(#D);fill-rule:nonzero"/><path d="M244.762 77.041c-.152 0-.229.02-.3.161-.235.448-3.101 4.738-3.634 5.573-.092.125-.2.107-.212-.037-.053-.496-.483-1.064-1.158-1.336a2.922 2.922 0 0 0-1.535-.176c-.941.127-1.783.623-2.521 1.182-1.112.846-2.072 1.941-3.311 2.751-.677.439-1.604.823-2.223.252-.561-.522-.497-1.674.361-2.568.09-.093.201-.015.181.069-.08.403.02.806.324 1.086.375.335.912.375 1.371.151.541-.27.86-.788.95-1.374.145-.91-.558-1.713-1.435-1.778-.713-.05-1.397.199-2.064.747a4.086 4.086 0 0 0-.813.892c-.069.102-.179.114-.175-.036.033-1.167-.449-1.822-1.415-1.843-.749-.02-1.548.387-2.173.884-.684.547-1.282 1.275-1.921 1.959-.08.082-.15.079-.172-.084-.021-.773-.214-1.523-.572-2.052a.48.48 0 0 0-.618-.153c-.103.058-.463.223-.724.433-.13.106-.181.263-.124.461a5.385 5.385 0 0 1-.2 3.576c-.43 1.015-1.266 1.93-2.249 2.24-.649.205-1.321.104-1.739-.469-.571-.792-.341-2.168.512-3.311.754-1.008 1.841-1.647 2.929-2.061.127-.046.155-.13.117-.237-.059-.18-.153-.421-.191-.532-.101-.265-.379-.309-.72-.271-.788.092-1.5.361-2.203.737-1.841.987-2.766 2.89-3.17 3.911-.194.49-.361.796-.577 1.068-.29.364-.653.696-1.32 1.281a.234.234 0 0 0-.055.27c.069.139.415.628.512.67.11.055.234-.02.285-.055.466-.316 1.024-.815 1.297-1.157.096-.115.194-.066.245.112a2.869 2.869 0 0 0 1.845 1.959c1.687.567 3.439-.255 4.761-1.688.841-.911 1.144-1.497 1.466-1.896.544-.676 1.621-2.187 2.904-3.157.47-.358 1.026-.631 1.306-.449.225.143.299.482-.063 1.136-1.307 2.386-3.229 5.188-3.584 5.867-.064.119-.007.21.116.21.684-.003 1.363-.001 1.983-.001.103-.004.15-.054.201-.124 1.003-1.57 1.949-3.063 2.96-4.608.057-.09.109-.019.112.018.021.362.109.852.32 1.174.385.593.926.849 1.528.854.477.005.718-.069 1.235-.261a4.214 4.214 0 0 0 1.015-.546c.152-.103.176.072.173.1-.231 1.246.056 2.721 1.296 3.332 1.481.731 3.111-.295 4.047-1.222.092-.089.191-.082.201.113.02.351.18.771.473 1.066.784.787 2.368.475 3.962-.754 1.019-.788 2.087-1.9 3.053-3.079.036-.046.063-.118-.007-.193-.147-.154-.359-.331-.505-.465-.067-.056-.164-.041-.221.003-.988.938-1.878 2.014-3.167 2.898-.433.303-1.126.546-1.436.128-.12-.164-.107-.39.013-.686.374-.935 6.317-9.972 6.625-10.504.052-.094-.003-.162-.119-.162l-2.053.001Zm-9.416 11.107c-.305-.158-.437-.586-.433-.933.018-.974.448-1.972 1.25-2.95.974-1.201 2.051-1.823 2.758-1.483.733.35.499 1.196.174 1.861a.156.156 0 0 0-.014.136c.009.07.101.135.189.169.032.013.049.033.013.105-.252.542-.483.853-.801 1.326-.292.431-.62.769-1.016 1.096-.463.384-1.063.792-1.63.792-.168 0-.333-.036-.49-.119Z" style="fill:url(#E);fill-rule:nonzero"/><path d="M211.469 71.629c-3.651.307-7.128 2.36-7.133 5.479-.005 1.581 1.122 2.861 2.865 2.803 2.048-.067 3.73-1.705 4.611-3.774.334-.785-.286-1.112-.578-.657a5.222 5.222 0 0 1-2.069 1.835c-.965.473-1.995.346-2.306-.437-.44-1.103.473-2.754 2.557-3.531 3.007-1.113 6.157-.379 9.189.192.04 0 .201.09.059.164-.543.294-1.076.536-1.907 1.251-.598.51-1.378 1.191-1.983 1.93-.599.73-1.024 1.38-1.587 2.102-.078.103-.177.099-.174.099-1.37.231-2.715.386-3.941 1.24-.255.176-.364.485-.211.725.139.209.457.232.676.072.761-.571 1.549-.84 2.451-.862.039.001.056.007.069.03.007.016.004.045-.014.066-1.349 1.871-1.688 2.291-2.704 3.453a19.959 19.959 0 0 1-1.601 1.623c-2.307 2.14-4.785 2.104-5.675.762-.532-.805-.462-1.651-.114-2.354.429-.858 1.297-1.485 2.018-1.854.266-.137.342-.478.076-.79-.171-.203-.584-.238-.89-.184-.946.177-2.062.89-2.721 1.747a4.76 4.76 0 0 0-.989 3.445c.222 2.368 2.174 3.737 4.39 3.72 1.763-.013 3.424-.546 5.422-2.572 1.863-1.891 3.56-4.717 5.149-7.334.051-.083.087-.129.326-.157a58.93 58.93 0 0 1 3.414-.322c.21-.011.25-.009.335.095.247.311.614.572.91.733.144.076.215.117.328.12a.417.417 0 0 0 .318-.152c.1-.112.128-.253.074-.347-.057-.097-.717-.46-.735-.608-.013-.091.086-.115.086-.115.484-.149.987-.463 1.292-1.044.301-.577.35-1.341-.201-1.768-.479-.375-1.208-.316-1.785.203-.568.507-.755 1.239-.68 1.884.015.112.008.149-.143.16-.872.069-1.713.096-2.647.145-.062.005-.083-.037-.046-.079 1.078-1.869 2.682-3.2 4.459-4.507.118-.09.082-.256.077-.395 3.209.693 6.308 1.989 9.636 1.964 1.375-.013 2.694-.221 3.952-.912 1.109-.604 1.558-1.16 1.593-1.741.023-.4-.255-.656-.652-.571-3.364.775-6.57.766-9.917.36-3.794-.461-7.436-1.405-11.209-1.405-.57 0-1.143.022-1.72.07Zm7.509 6.661a1.346 1.346 0 0 1 .446-1.167c.191-.168.448-.208.607-.071.177.152.094.529-.084.789-.197.29-.529.54-.83.598l-.023.002c-.052 0-.095-.033-.116-.151Z" style="fill:url(#F);fill-rule:nonzero"/><path d="M151.38 10.963 157.882 0l1.223 12.694 12.419 2.784-11.692 5.068 1.209 12.759-8.469-9.608-11.737 5.079 6.535-11.023-8.428-9.577 12.438 2.787Z" style="fill:#0062a2;fill-rule:nonzero" opacity=".1"/><path d="m119.751 16.015 1.966-8.268 3.292 7.84 8.457-.688-6.438 5.541 3.295 7.882-7.294-4.439-6.465 5.56 1.979-8.312-7.265-4.427 8.473-.689Z" style="fill:#0062a2;fill-rule:nonzero" opacity=".2"/><path d="m97.375 22.825-.069-7.435 4.446 5.965 7.038-2.363-4.301 6.062 4.455 6.001-7.128-2.235-4.323 6.08-.068-7.475-7.1-2.232 7.05-2.368Z" style="fill:#0062a2;fill-rule:nonzero" opacity=".3"/><path d="m80.199 32.891-1.362-6.227 4.775 4.226 5.491-3.218-2.547 5.839 4.791 4.255-6.371-.625L82.415 43l-1.369-6.26-6.348-.626 5.501-3.224Z" style="fill:#0062a2;fill-rule:nonzero" opacity=".4"/><path d="m68.615 43.877-1.789-4.624 4.175 2.678 3.836-3.127-1.261 4.791 4.19 2.699-4.972.279-1.268 4.81-1.799-4.649-4.955.275 3.843-3.132Z" style="fill:#0062a2;fill-rule:nonzero" opacity=".6"/><path d="m60.03 53.377-1.962-3.769 3.809 1.887 2.973-3.027-.621 4.202 3.826 1.901-4.211.707-.624 4.219-1.972-3.791-4.195.704 2.977-3.033Z" style="fill:#0062a2;fill-rule:nonzero" opacity=".75"/><path d="m52.94 62.228-2.091-3.287 3.629 1.421 2.474-3.001-.233 3.887 3.644 1.432-3.789.981-.237 3.901-2.1-3.304-3.775.975 2.478-3.005Z" style="fill:#0062a2;fill-rule:nonzero" opacity=".85"/><path d="m47.951 70.581-1.886-2.567 3.041.96 1.855-2.585.021 3.185 3.053.971-3.039 1.007.022 3.199-1.897-2.584-3.029 1.002 1.859-2.589ZM147.274 54.238l-2.746 12.904c-1.042 4.898-3.018 5.892-7.295 5.892-3.804 0-6.14-.472-5.224-4.774l.571-2.685h3.431l-.297 1.392c-.518 2.438-.639 3.009 2.17 3.009 2.138 0 2.578-.547 3.065-2.834l2.745-12.904h3.58ZM150.387 66.396c-.74 3.482-.681 4.252 2.104 4.252s3.171-.77 3.913-4.252c.751-3.53.696-4.325-2.088-4.325-2.785 0-3.178.795-3.929 4.325m9.154-.024c-1.073 5.047-2.113 6.663-7.558 6.663s-5.797-1.616-4.724-6.663c1.079-5.072 2.119-6.688 7.565-6.688 5.444 0 5.796 1.616 4.717 6.688M171.334 55.606l-.466 2.188h2.462l.466-2.188h-2.462Zm-5.071 0-.466 2.188h2.462l.465-2.188h-2.461Zm4.698 9.348c.572-2.684.217-2.883-2.345-2.883-2.71 0-3.005.571-3.497 2.883h5.842Zm2.329 3.779c-.873 4.102-3.277 4.302-7.007 4.302-4.997 0-5.678-1.592-4.604-6.639.995-4.673 2.175-6.712 7.445-6.712 5.37 0 5.758 1.566 4.546 7.259h-8.975c-.597 2.81-.714 3.705 2.096 3.705 1.741 0 2.953.025 3.366-1.915h3.133ZM180.584 59.832l-.439 1.716h.124c.928-1.443 2.361-1.865 3.878-1.865 2.759 0 3.082 1.641 2.558 4.102l-.223 1.045h-2.933l.142-.671c.281-1.318.321-2.089-1.146-2.089-1.865 0-2.639 1.069-2.949 2.76l-1.714 8.055h-3.133l2.777-13.053h3.058Z" style="fill:#0062a2;fill-rule:nonzero"/><path d="M88.882 78.589h-6.119L88.79 50.24l-10.64 8.775-2.838-4.005 12.962-10.17h7.784l-7.176 33.749ZM106.925 58.069h.09c2.03-2.564 5.948-2.789 8.602-2.789 8.73 0 10.336 3.239 8.537 11.699-2.238 10.529-5.945 11.879-15.934 11.879-8.235 0-11.667-1.215-10.026-9.989h6.12c-.995 4.679 1.434 4.679 5.53 4.679 5.894 0 6.919-.584 8.162-6.434 1.234-5.805.487-6.524-5.362-6.524-3.285 0-5.715 0-6.734 2.25h-5.669l3.827-18h23.534l-1.043 4.905h-17.864l-1.77 8.324Z" style="fill:#1d1d1b;fill-rule:nonzero"/><defs><linearGradient id="q" x1="0" y1="0" x2="1" y2="0" gradientUnits="userSpaceOnUse" gradientTransform="rotate(-90 165.568 -73.658) scale(21.8597)"><stop offset="0" style="stop-color:#061238;stop-opacity:1"/><stop offset=".81" style="stop-color:#0c316f;stop-opacity:1"/><stop offset="1" style="stop-color:#0068a7;stop-opacity:1"/></linearGradient><linearGradient id="F" x1="0" y1="0" x2="1" y2="0" gradientUnits="userSpaceOnUse" gradientTransform="rotate(90 73.592 143.601) scale(21.4189)"><stop offset="0" style="stop-color:#fff;stop-opacity:1"/><stop offset=".69" style="stop-color:#fbfbfb;stop-opacity:1"/><stop offset=".8" style="stop-color:#dadada;stop-opacity:1"/><stop offset="1" style="stop-color:#c6c6c6;stop-opacity:1"/></linearGradient><linearGradient id="c" x1="0" y1="0" x2="1" y2="0" gradientUnits="userSpaceOnUse" gradientTransform="rotate(-90 160.065 -62.97) scale(30.8954)"><stop offset="0" style="stop-color:#061238;stop-opacity:1"/><stop offset=".81" style="stop-color:#0c316f;stop-opacity:1"/><stop offset="1" style="stop-color:#0068a7;stop-opacity:1"/></linearGradient><linearGradient id="d" x1="0" y1="0" x2="1" y2="0" gradientUnits="userSpaceOnUse" gradientTransform="rotate(-90 160.302 -63.21) scale(30.8889)"><stop offset="0" style="stop-color:#061238;stop-opacity:1"/><stop offset=".81" style="stop-color:#0c316f;stop-opacity:1"/><stop offset="1" style="stop-color:#0068a7;stop-opacity:1"/></linearGradient><linearGradient id="E" x1="0" y1="0" x2="1" y2="0" gradientUnits="userSpaceOnUse" gradientTransform="rotate(90 76.768 152.69) scale(15.4504)"><stop offset="0" style="stop-color:#fff;stop-opacity:1"/><stop offset=".69" style="stop-color:#fbfbfb;stop-opacity:1"/><stop offset=".8" style="stop-color:#dadada;stop-opacity:1"/><stop offset="1" style="stop-color:#c6c6c6;stop-opacity:1"/></linearGradient><linearGradient id="f" x1="0" y1="0" x2="1" y2="0" gradientUnits="userSpaceOnUse" gradientTransform="rotate(-105 147.8 -30.094) scale(36.99694)"><stop offset="0" style="stop-color:#bdbcbc;stop-opacity:1"/><stop offset=".35" style="stop-color:#e3e3e3;stop-opacity:1"/><stop offset=".65" style="stop-color:#e3e3e3;stop-opacity:1"/><stop offset="1" style="stop-color:#bdbcbc;stop-opacity:1"/></linearGradient><linearGradient id="g" x1="0" y1="0" x2="1" y2="0" gradientUnits="userSpaceOnUse" gradientTransform="scale(-36.84942) rotate(75 -1.734 -5.357)"><stop offset="0" style="stop-color:#bdbcbc;stop-opacity:1"/><stop offset=".35" style="stop-color:#e3e3e3;stop-opacity:1"/><stop offset=".65" style="stop-color:#e3e3e3;stop-opacity:1"/><stop offset="1" style="stop-color:#bdbcbc;stop-opacity:1"/></linearGradient><linearGradient id="h" x1="0" y1="0" x2="1" y2="0" gradientUnits="userSpaceOnUse" gradientTransform="rotate(90 78.55 144.547) scale(31.0509)"><stop offset="0" style="stop-color:#fff;stop-opacity:1"/><stop offset=".69" style="stop-color:#fbfbfb;stop-opacity:1"/><stop offset=".8" style="stop-color:#dadada;stop-opacity:1"/><stop offset="1" style="stop-color:#c6c6c6;stop-opacity:1"/></linearGradient><linearGradient id="i" x1="0" y1="0" x2="1" y2="0" gradientUnits="userSpaceOnUse" gradientTransform="rotate(-90 160.95 -69.077) scale(21.7155)"><stop offset="0" style="stop-color:#061238;stop-opacity:1"/><stop offset=".81" style="stop-color:#0c316f;stop-opacity:1"/><stop offset="1" style="stop-color:#0068a7;stop-opacity:1"/></linearGradient><linearGradient id="j" x1="0" y1="0" x2="1" y2="0" gradientUnits="userSpaceOnUse" gradientTransform="rotate(-90 165.517 -73.67) scale(21.6229)"><stop offset="0" style="stop-color:#061238;stop-opacity:1"/><stop offset=".81" style="stop-color:#0c316f;stop-opacity:1"/><stop offset="1" style="stop-color:#0068a7;stop-opacity:1"/></linearGradient><linearGradient id="k" x1="0" y1="0" x2="1" y2="0" gradientUnits="userSpaceOnUse" gradientTransform="rotate(-90 166.188 -74.328) scale(21.6591)"><stop offset="0" style="stop-color:#061238;stop-opacity:1"/><stop offset=".81" style="stop-color:#0c316f;stop-opacity:1"/><stop offset="1" style="stop-color:#0068a7;stop-opacity:1"/></linearGradient><linearGradient id="l" x1="0" y1="0" x2="1" y2="0" gradientUnits="userSpaceOnUse" gradientTransform="rotate(-90 160.204 -68.348) scale(21.648)"><stop offset="0" style="stop-color:#061238;stop-opacity:1"/><stop offset=".81" style="stop-color:#0c316f;stop-opacity:1"/><stop offset="1" style="stop-color:#0068a7;stop-opacity:1"/></linearGradient><linearGradient id="m" x1="0" y1="0" x2="1" y2="0" gradientUnits="userSpaceOnUse" gradientTransform="matrix(0 -.00367 .00367 0 246.95 77.114)"><stop offset="0" style="stop-color:#061238;stop-opacity:1"/><stop offset=".81" style="stop-color:#0c316f;stop-opacity:1"/><stop offset="1" style="stop-color:#0068a7;stop-opacity:1"/></linearGradient><linearGradient id="n" x1="0" y1="0" x2="1" y2="0" gradientUnits="userSpaceOnUse" gradientTransform="rotate(-90 164.51 -72.644) scale(21.7049)"><stop offset="0" style="stop-color:#061238;stop-opacity:1"/><stop offset=".81" style="stop-color:#0c316f;stop-opacity:1"/><stop offset="1" style="stop-color:#0068a7;stop-opacity:1"/></linearGradient><linearGradient id="o" x1="0" y1="0" x2="1" y2="0" gradientUnits="userSpaceOnUse" gradientTransform="rotate(-90 155.126 -63.27) scale(21.6534)"><stop offset="0" style="stop-color:#061238;stop-opacity:1"/><stop offset=".81" style="stop-color:#0c316f;stop-opacity:1"/><stop offset="1" style="stop-color:#0068a7;stop-opacity:1"/></linearGradient><linearGradient id="p" x1="0" y1="0" x2="1" y2="0" gradientUnits="userSpaceOnUse" gradientTransform="rotate(-90 159.813 -67.955) scale(21.6776)"><stop offset="0" style="stop-color:#061238;stop-opacity:1"/><stop offset=".81" style="stop-color:#0c316f;stop-opacity:1"/><stop offset="1" style="stop-color:#0068a7;stop-opacity:1"/></linearGradient><linearGradient id="D" x1="0" y1="0" x2="1" y2="0" gradientUnits="userSpaceOnUse" gradientTransform="rotate(-90 150.113 -58.25) scale(21.6631)"><stop offset="0" style="stop-color:#061238;stop-opacity:1"/><stop offset=".81" style="stop-color:#0c316f;stop-opacity:1"/><stop offset="1" style="stop-color:#0068a7;stop-opacity:1"/></linearGradient><linearGradient id="r" x1="0" y1="0" x2="1" y2="0" gradientUnits="userSpaceOnUse" gradientTransform="matrix(0 -21.794 21.794 0 231.877 91.92)"><stop offset="0" style="stop-color:#061238;stop-opacity:1"/><stop offset=".81" style="stop-color:#0c316f;stop-opacity:1"/><stop offset="1" style="stop-color:#0068a7;stop-opacity:1"/></linearGradient><linearGradient id="s" x1="0" y1="0" x2="1" y2="0" gradientUnits="userSpaceOnUse" gradientTransform="rotate(-90 167.776 -75.921) scale(21.6524)"><stop offset="0" style="stop-color:#061238;stop-opacity:1"/><stop offset=".81" style="stop-color:#0c316f;stop-opacity:1"/><stop offset="1" style="stop-color:#0068a7;stop-opacity:1"/></linearGradient><linearGradient id="t" x1="0" y1="0" x2="1" y2="0" gradientUnits="userSpaceOnUse" gradientTransform="rotate(-90 157.314 -65.454) scale(21.6607)"><stop offset="0" style="stop-color:#061238;stop-opacity:1"/><stop offset=".81" style="stop-color:#0c316f;stop-opacity:1"/><stop offset="1" style="stop-color:#0068a7;stop-opacity:1"/></linearGradient><linearGradient id="u" x1="0" y1="0" x2="1" y2="0" gradientUnits="userSpaceOnUse" gradientTransform="rotate(-90 155.62 -63.76) scale(21.6653)"><stop offset="0" style="stop-color:#061238;stop-opacity:1"/><stop offset=".81" style="stop-color:#0c316f;stop-opacity:1"/><stop offset="1" style="stop-color:#0068a7;stop-opacity:1"/></linearGradient><linearGradient id="v" x1="0" y1="0" x2="1" y2="0" gradientUnits="userSpaceOnUse" gradientTransform="rotate(-90 147.444 -55.59) scale(21.6501)"><stop offset="0" style="stop-color:#061238;stop-opacity:1"/><stop offset=".81" style="stop-color:#0c316f;stop-opacity:1"/><stop offset="1" style="stop-color:#0068a7;stop-opacity:1"/></linearGradient><linearGradient id="w" x1="0" y1="0" x2="1" y2="0" gradientUnits="userSpaceOnUse" gradientTransform="rotate(-90 152.365 -60.37) scale(21.8611)"><stop offset="0" style="stop-color:#061238;stop-opacity:1"/><stop offset=".81" style="stop-color:#0c316f;stop-opacity:1"/><stop offset="1" style="stop-color:#0068a7;stop-opacity:1"/></linearGradient><linearGradient id="x" x1="0" y1="0" x2="1" y2="0" gradientUnits="userSpaceOnUse" gradientTransform="rotate(-90 150.883 -59.026) scale(21.6635)"><stop offset="0" style="stop-color:#061238;stop-opacity:1"/><stop offset=".81" style="stop-color:#0c316f;stop-opacity:1"/><stop offset="1" style="stop-color:#0068a7;stop-opacity:1"/></linearGradient><linearGradient id="y" x1="0" y1="0" x2="1" y2="0" gradientUnits="userSpaceOnUse" gradientTransform="rotate(-90 151.167 -59.259) scale(21.7504)"><stop offset="0" style="stop-color:#061238;stop-opacity:1"/><stop offset=".81" style="stop-color:#0c316f;stop-opacity:1"/><stop offset="1" style="stop-color:#0068a7;stop-opacity:1"/></linearGradient><linearGradient id="z" x1="0" y1="0" x2="1" y2="0" gradientUnits="userSpaceOnUse" gradientTransform="rotate(-90 163.282 -71.605) scale(21.4504)"><stop offset="0" style="stop-color:#061238;stop-opacity:1"/><stop offset=".81" style="stop-color:#0c316f;stop-opacity:1"/><stop offset="1" style="stop-color:#0068a7;stop-opacity:1"/></linearGradient><linearGradient id="A" x1="0" y1="0" x2="1" y2="0" gradientUnits="userSpaceOnUse" gradientTransform="rotate(-90 158.516 -66.657) scale(21.6545)"><stop offset="0" style="stop-color:#061238;stop-opacity:1"/><stop offset=".81" style="stop-color:#0c316f;stop-opacity:1"/><stop offset="1" style="stop-color:#0068a7;stop-opacity:1"/></linearGradient><linearGradient id="B" x1="0" y1="0" x2="1" y2="0" gradientUnits="userSpaceOnUse" gradientTransform="rotate(-90 155.717 -63.831) scale(21.6986)"><stop offset="0" style="stop-color:#061238;stop-opacity:1"/><stop offset=".81" style="stop-color:#0c316f;stop-opacity:1"/><stop offset="1" style="stop-color:#0068a7;stop-opacity:1"/></linearGradient><linearGradient id="C" x1="0" y1="0" x2="1" y2="0" gradientUnits="userSpaceOnUse" gradientTransform="rotate(-90 156.051 -64.192) scale(21.6595)"><stop offset="0" style="stop-color:#061238;stop-opacity:1"/><stop offset=".81" style="stop-color:#0c316f;stop-opacity:1"/><stop offset="1" style="stop-color:#0068a7;stop-opacity:1"/></linearGradient><radialGradient id="b" cx="0" cy="0" r="1" gradientUnits="userSpaceOnUse" gradientTransform="matrix(167.691 0 0 170.657 222.816 234.012)"><stop offset="0" style="stop-color:#001;stop-opacity:1"/><stop offset=".7" style="stop-color:#000f2f;stop-opacity:1"/><stop offset=".9" style="stop-color:#003d7c;stop-opacity:1"/><stop offset=".96" style="stop-color:#2ca5de;stop-opacity:1"/><stop offset="1" style="stop-color:#2ca5de;stop-opacity:1"/></radialGradient><radialGradient id="e" cx="0" cy="0" r="1" gradientUnits="userSpaceOnUse" gradientTransform="matrix(29.49 0 0 29.4634 223.099 81.56)"><stop offset="0" style="stop-color:#001;stop-opacity:1"/><stop offset=".7" style="stop-color:#000f2f;stop-opacity:1"/><stop offset=".9" style="stop-color:#003d7c;stop-opacity:1"/><stop offset=".96" style="stop-color:#2ca5de;stop-opacity:1"/><stop offset="1" style="stop-color:#2ca5de;stop-opacity:1"/></radialGradient><radialGradient id="a" cx="0" cy="0" r="1" gradientUnits="userSpaceOnUse" gradientTransform="matrix(29.49 0 0 29.4634 223.099 81.56)"><stop offset="0" style="stop-color:#001;stop-opacity:1"/><stop offset=".7" style="stop-color:#000f2f;stop-opacity:1"/><stop offset=".9" style="stop-color:#003d7c;stop-opacity:1"/><stop offset=".96" style="stop-color:#2ca5de;stop-opacity:1"/><stop offset="1" style="stop-color:#2ca5de;stop-opacity:1"/></radialGradient></defs></svg>