<svg viewBox="0 0 1084 526" xmlns="http://www.w3.org/2000/svg" xml:space="preserve" style="fill-rule:evenodd;clip-rule:evenodd;stroke-linejoin:round;stroke-miterlimit:1.41421"><path d="M482.471 492.026c-12.141 6.02-18.549 4.332-25.554-7.24-2.016-3.332-3.747-6.885-5.215-10.495-7.375-18.141-14.22-36.507-22.022-54.459-7.476-17.201-17.187-32.246-41.8-28.226 8.418-8.928 14.942-16.448 22.095-23.312 17.257-16.557 32.204-36.503 58.036-40.974.84-.146 1.791-.663 2.338-1.307 1.766-2.076 3.743-4.489 2.526-7.245-1.018-2.304-3.745-1.283-5.7-1.061-16.529 1.881-33.04 3.149-49.563-.071-2.62-.511-4.915.225-5.849 2.966-.733 2.15-3.273 4.942-.863 6.608 8.626 5.964 2.634 11.276-.861 15.798-13.643 17.655-29.628 33.224-45.68 50.717 0-15.353-.02-28.844.007-42.332.02-10.359.931-20.073 13.267-23.82 3.375-1.026 5.063-5.286 4.299-8.206-.973-3.723-5.218-1.972-7.853-1.641-15.934 1.998-31.888 2.257-47.879 1.215-4.508-.294-8.987-1.007-13.489-1.425-4.473-.413-5.167 3.181-6.508 6.194-1.19 2.673-.153 4.147 2.361 4.55 15.383 2.47 17.398 13.947 17.522 26.343.254 25.349.342 50.7.233 76.05-.093 21.715.809 43.451-1.357 65.137-.72 7.214-3.254 12.815-10.435 15.417-4.926 1.784-6.502 5.659-7.363 11.23 11.685-.782 22.762-1.845 33.86-2.177 11.456-.343 22.946-.015 34.299 1.877 5.127.855 7.107-2.007 8.205-6.219 1.37-5.258-3.183-4.091-5.547-4.768-9.089-2.605-12.988-8.527-13.551-17.876-1.4-23.227-.46-46.459-.703-69.686-.089-8.566 6.033-11.23 13.03-11.998 7.883-.865 11.943 4.859 15.394 10.639 7.154 11.982 11.06 25.361 15.978 38.304 6.628 17.437 11.709 35.523 21.208 51.77 8.377 14.327 19.606 17.092 33.274 7.794 7.954-5.411 15.373-11.619 22.932-17.596 1.359-1.074 2.636-2.616 3.229-4.209.912-2.453 2.683-5.514.799-7.695-2.448-2.832-4.905.34-7.1 1.429" style="fill:#0f447a;fill-rule:nonzero"/><path d="M860.828 317.704c-7.824.486-15.625 1.429-23.452 1.752-9.351.385-18.693.072-27.933-1.809-5.589-1.136-9.151 2.215-9.877 6.947-.784 5.114 4.441 3.506 7.188 4.143 13.123 3.042 18.82 7.869 19.199 21.322 1.018 36.171 2.608 72.44-1.746 108.489-1.598 13.23-5.82 25.993-18.324 33.855-30.599 19.243-66.971 3.027-71.449-32.602-4.262-33.93-1.569-68.104-1.513-102.169.02-12.679.059-25.911 16.303-30.498 3.027-.855 5.548-4.568 4.386-8.015-1.057-3.131-4.804-1.752-7.22-1.512-17.443 1.731-34.891 2.62-52.399 1.289-4.804-.365-9.586-1.056-14.393-1.355-4.628-.287-6.349 3.2-7.203 6.77-1.242 5.195 3.406 3.744 5.842 4.414 11.808 3.241 16.259 8.121 16.488 20.453.357 19.306.095 38.626.095 57.94h.148c0 9.958-.193 19.922.053 29.876.246 9.945.709 19.897 1.466 29.815 2.144 28.105 16.842 46.911 42.266 54.919 44.526 14.027 109.356-10.032 107.901-77.846-.647-30.159.032-60.355.516-90.526.175-11.019 1.027-22.285 15.009-25.574 1.031-.243 2.028-1.347 2.69-2.296 1.359-1.947 3.38-4.15 2.395-6.488-1.188-2.818-4.223-1.431-6.436-1.294" style="fill:#104479;fill-rule:nonzero"/><path d="M992.666 401.172c-7.25 10.038-31.255 15.326-42.383 9.265-4.079-2.222-5.875-5.772-5.82-10.454.105-9.052.03-18.105.03-27.157h.425c0-9.05.083-18.099-.037-27.148-.054-4.069.933-6.363 5.573-7.49 17.415-4.229 34.053-.019 42.025 11.289 8.916 12.642 9.012 39.475.187 51.695m7.168-83.189c-6.455-1.167-13.246-1.044-19.846-.731-20.787.985-41.521 3.366-62.38 2.305-7.827-.4-15.65-.97-23.453-1.702-4.417-.414-5.565 2.571-6.978 5.669-1.253 2.747.114 4.281 2.419 4.627 15.67 2.354 17.136 13.77 17.122 26.294-.047 43.466.036 86.933-.124 130.398-.042 11.555-.014 23.338-14.221 28.116-2.76.928-4.44 4.827-3.549 7.636 1.004 3.157 4.722 1.747 7.113 1.526 10.518-.969 21.011-2.389 31.596-1.904 11.148.512 22.298 1.107 33.412 2.068 5.607.485 9.342-2.162 9.924-6.931.554-4.549-4.621-3.472-7.432-4.161-13.597-3.332-18.093-8.355-18.72-22.586-.385-8.735-.072-17.501-.072-26.252h-.35c0-8.755.198-17.516-.077-26.261-.157-4.962 1.099-7.515 6.575-6.188 2.041.495 4.158.743 6.257.921 37.159 3.167 72.602-15.035 78.855-53.934 5.066-31.497-8.391-53.909-36.071-58.91" style="fill:#0f447a;fill-rule:nonzero"/><path d="M649.166 465.798c-3.716-.848-6.734 2.205-8.395 5.69-.893 1.876-1.228 4.014-1.876 6.015-4.62 14.267-14.227 22.538-29.163 24.861-12.03 1.872-24.009 1.991-36.014.186-14.819-2.228-19.803-7.572-20.276-22.69a632.665 632.665 0 0 1-.055-37.091c.277-10.113-4.538-23.786 2.038-29.385 6.834-5.819 20.21-2.069 30.719-1.708 16.424.564 21.326 5.108 23.887 21.052.397 2.475-.367 6.444 2.713 6.779 3.151.343 4.762-3.296 5.858-6.034.868-2.169 1.57-4.741 1.267-6.989-1.67-12.369-1.07-24.707.389-36.988.844-7.105-2.66-7.469-6.936-4.554-16.33 11.133-34.603 8.23-52.56 8.155-5.833-.025-7.705-2.588-7.53-8.269.43-13.86.456-27.736.449-41.605-.003-3.927.728-6.216 5.421-6.031 15.043.592 30.094-.498 45.163 1.386 16.355 2.046 26.416 10.482 30.739 26.207.69 2.514 1.105 6.395 4.114 6.109 1.993-.19 3.886-3.476 5.448-5.647 1.766-2.452.629-5.204.11-7.856-2.086-10.641-4.235-21.26-4.553-32.17-.335-11.54-.446-11.479-11.808-7.84-2.551.818-5.282 1.522-7.932 1.525-33.78.03-67.56-.023-101.338-.207-5.41-.029-10.81-.887-16.225-1.195-4.875-.278-5.897 3.811-6.844 7.102-1.213 4.207 2.842 3.844 5.119 4.368 7.974 1.836 12.606 6.62 13.9 14.678.568 3.539 1.149 7.075 1.725 10.613l.845-7.785.843.09v141.013l-.8.069-.886-7.752v-.002c-2.732 12.661 1.336 28.511-16.478 34.132-1.889.597-3.581 4.416-2.386 7.064.959 2.122 3.761 1.245 5.686 1.064 4.094-.384 8.362.395 12.251-1.578-5.205-2.33-1.133-1.995.621-2 18.374-.06 36.747-.067 55.121-.079 10.499-.008 20.999.005 31.54.678a.858.858 0 0 1 .274.016c1.916.124 3.832.264 5.751.437l-5.986.982h-.002c11.603 1.45 23.183 3.146 34.82 4.228 4.876.453 7.666-2.434 7.878-7.679.591-14.477 2.595-28.791 4.966-43.077.443-2.664 3.183-7.193-1.612-8.288" style="fill:#10447b;fill-rule:nonzero"/><path d="M517.228 480.646c.66.66.823.729.819.241-.339-42.483-.312-84.968-.035-127.451.008-1.206-.094-1.587-.127-.394-.006.225-.926.618-1.165 1.223l.002 125.633c.167.252.298.539.506.748" style="fill:#18375f;fill-rule:nonzero"/><path d="m517.608 487.653.799-.069V346.571c-.28-.03-.561-.062-.842-.091l-.846 7.785c.24-.605 1.16-.998 1.166-1.222.033-1.194.135-.813.126.393-.277 42.484-.303 84.968.036 127.451.003.488-.159.419-.819-.241-.209-.209-.34-.496-.506-.748v.002l.886 7.753" style="fill:#18375f;fill-rule:nonzero"/><path d="m603.351 519.196-.273-.017c-.422.032-.992.255-1.216.254-27.75-.073-55.5-.039-83.249-.05-1.089 0-2.416-.46-2.817 1.198l87.319.034c.606-.984.542-1.335.236-1.419" style="fill:#18375e;fill-rule:nonzero"/><path d="M609.101 519.632a232.787 232.787 0 0 0-5.751-.437c.306.084.37.435-.236 1.419h.002l5.985-.982M518.612 519.382c27.749.012 55.499-.022 83.249.051.225.001.794-.223 1.216-.254-10.541-.673-21.041-.686-31.54-.678-18.374.012-36.748.019-55.122.079-1.754.005-5.825-.33-.62 2 .401-1.658 1.729-1.198 2.817-1.198" style="fill:#18375e;fill-rule:nonzero"/><path d="M79.665 257.501c.346-1.88.621-3.763.747-5.656.238-3.594 1.104-7.227 1.842-10.744 1.547-7.375 3.371-14.753 3.132-22.349-9.489 7.424-16.144 17.048-24.959 24.559-15.614 13.305-25.621 8.222-34.159-7.154-.569-1.027-1.027-2.115-2.096-4.336-3.188 7.034-4.244 13.517-5.186 20.012-1.855 12.79-3.605 25.595-5.44 38.389-.431 3.014-1.488 5.833-3.527 8.138-1.986 2.245-4.864 2.739-7.481 2.257-3.502-.646-1.995-3.915-2.02-5.985-.305-25.937 3.24-51.562 6.354-77.23 1.158-9.547 1.948-19.166 2.307-28.774.36-9.586 4.452-16.342 13.071-20.446 4.811-2.291 7.697-2.104 8.1 4.464.918 14.944.61 30.114 6.364 44.378 1.116 2.765 2.147 5.58 3.487 8.236 4.013 7.955 9.979 9.767 17.431 4.716 12.55-8.509 20.805-21.024 29.444-33.068 3.816-5.322 7.091-11.134 12.971-14.358 2.411-1.321 5.615-3.454 8.341-1.716 3.036 1.938 2.927 5.597 2.654 9.046-1.301 16.434-5.747 32.259-9.65 48.142-3.842 15.63-9.311 30.866-12.985 46.529-1.513 6.449-6.869 8.477-10.16 12.756-.765.994-2.685 1.719-3.998.308-1.665-1.79-1.332-4.325-.448-5.981 3.292-6.178 2.566-12.871 3.146-19.404.438-4.937 1.816-9.82 2.718-14.729" style="fill:#f59e1a"/><path d="M358.988 282.669c12.146-13.885 24.047-27.997 36.593-41.511 3.634-3.915 8.958-7.721 14.488-1.577 3.078 4.187.717 8.458.196 12.7l-7.672 24.57c9.956-7.847 15.281-18.208 25.343-23.151 3.756-1.855 7.465-2.137 11.092.334 3.142 4.36 5.844 8.909 7.158 14.223 1.412 5.716 4.221 8.589 9.555 3.506 2.03-1.935 4.439-2.805 6.822-4.01 2.713-1.37 5.616-6.029 7.942-3.642 3.776 3.874-1.638 7.023-3.74 9.639-4.027 5.014-8.724 9.668-13.813 13.605-7.367 5.702-12.823 4.393-17.775-3.42-1.421-2.244-2.156-4.956-3.736-7.055-3.363-4.465-6.54-6.743-12.155-1.637-7.265 6.611-13.336 14.216-20.147 21.172-1.861 1.901-3.991 3.537-5.875 5.418-2.34 2.337-5.124 3.787-7.971 1.698-2.603-1.91-2.876-5.096-2.1-8.245 2.06-8.358 4.131-16.716 6.117-25.093.392-1.653 4.014-3.303.538-5.001-2.537-1.238-3.942.723-5.736 2.715-6.32 7.014-12.758 14.013-21.075 18.838-4.216 1.486-5.036-.397-4.049-4.077" style="fill:#f49f1a"/><path d="M218.417 202.221c-.424 7.538-3.304 13.2-8.872 17.325-3.979 2.948-9.476 3.819-12.313.373-2.883-3.503-2.631-9.265 1.499-13.051 3.719-3.41 7.551-6.873 11.865-9.41 5.497-3.232 8.569-1.341 7.821 4.763" style="fill:#f4a120"/><path d="M323.328 287.03c-4.414.832-6.215-1.837-6.504-5.5-.573-7.265 13.578-24.302 20.964-25.369 5.26-.76 8.064 2.188 8.208 7.076.256 8.636-14.201 23.528-22.668 23.793m27.305-45.517c-5.281-2.525-11.448.594-16.791-5.102-3.394-3.618-9.734 1.737-13.755 5.52-13.384 12.593-26.794 25.156-40.194 37.731-1.238.718-2.481 2.058-3.961.953-1.06-.791-.601-2.112-.104-3.211 2.363-11.368 6.848-22.249 7.425-34.049.226-4.637-.402-8.668-4.971-10.381-4.388-1.645-8.616-1.047-12.409 2.579-13.53 12.936-27.263 25.662-40.941 38.442-7.913 7.393-11.899 6.197-14.355-4.233-.895-3.803-1.896-7.585-2.727-11.401-.68-3.123-.07-7.034-4.564-7.772-4.435-.727-8.555-1.141-12.014 3.282-4.563 5.833-9.793 11.166-14.976 16.48-1.793 1.84-3.986 4.167-6.943 3.352-3.581-.985-2.111-4.499-2.507-6.892-.435-2.634.045-5.406-.057-8.111-.283-7.437-3.266-9.095-9.315-5.136-1.738 1.138-3.218 2.669-4.816 4.02-6.949 4.14-11.282 11.371-18.299 15.859 5.096-6.692 10.207-12.954 14.644-19.726 4.757-7.208 11.503-12.574 17.338-18.785 2.092-2.226 3.925-4.76 1.631-7.954-2.313-3.219-5.471-2.242-8.101-.947-2.625 1.293-4.991 3.268-7.177 5.264-10.063 9.187-20.475 17.969-29.337 28.464-6.62 7.842-15.272 13.924-20.803 22.735-1.038 1.651-3.125 4.6-1.058 6.538 2.86 2.679 3.691-1.629 5.608-2.462 2.483-1.08 3.551-5.177 8.252-3.116-3.084 4.987-1.205 9.293 3.024 12.399 5.031 3.697 8.495-1.49 11.943-3.449 4.255-2.419 7.932-6.298 11.014-10.211 3.083-3.915 6.426-7.097 10.9-9.653 1.424 9.715 4.819 14.789 10.691 16.828 6.975 2.423 10.145-3.396 14.508-6.591 1.435-1.05 2.674-2.381 3.954-3.634 6.857-6.71 10.954-5.925 14.823 2.863 6.209 14.095 14.539 16.425 26.247 6.793 10.582-8.706 20.67-18.009 31.156-26.834 1.905-1.604 3.822-4.95 6.619-3.657 2.857 1.322 1.372 4.891 1.241 7.34-.34 6.361 2.771 15.067-9.406 14.289-2.069-.132-5.078 3.399-4.727 7.592.404 4.826 1.11 9.366 2.831 13.97 3.048 8.151 5.296 9.246 12.48 3.795 12.044-9.139 23.842-18.601 36.196-28.282-.162 1.716-.359 3.087-.41 4.463-.579 15.845 7.426 21.069 22.78 17.214 16.414-4.12 27.254-14.947 35.79-27.848 8.029-12.136 9.087-21.932-6.377-29.328" style="fill:#f49e1b;fill-rule:nonzero"/><path d="M560.49 286.424s351 1.499 410.5.499 78 36.5 78 36.5l34.293 1.689L895.99 155.423 243.265.023 560.49 286.424Z" style="fill:url(#a);fill-rule:nonzero"/><path d="m78.47 159.98 38.521-.556L247.99 30.923l-17.499-17.5L78.47 159.98Z" style="fill:url(#b);fill-rule:nonzero"/><defs><linearGradient id="a" x1="0" y1="0" x2="1" y2="0" gradientUnits="userSpaceOnUse" gradientTransform="rotate(90 331.626 331.648) scale(325.089)"><stop offset="0" style="stop-color:#1b89cb;stop-opacity:1"/><stop offset=".04" style="stop-color:#1b89cb;stop-opacity:1"/><stop offset="1" style="stop-color:#0c488b;stop-opacity:1"/></linearGradient><linearGradient id="b" x1="0" y1="0" x2="1" y2="0" gradientUnits="userSpaceOnUse" gradientTransform="rotate(90 74.903 88.327) scale(146.557)"><stop offset="0" style="stop-color:#0c488b;stop-opacity:1"/><stop offset=".96" style="stop-color:#1b89cb;stop-opacity:1"/><stop offset="1" style="stop-color:#1b89cb;stop-opacity:1"/></linearGradient></defs></svg>