<?xml version="1.0" encoding="UTF-8" standalone="no"?><!DOCTYPE svg PUBLIC "-//W3C//DTD SVG 1.1//EN" "http://www.w3.org/Graphics/SVG/1.1/DTD/svg11.dtd"><svg width="100%" height="100%" viewBox="0 0 1084 526" version="1.1" xmlns="http://www.w3.org/2000/svg" xmlns:xlink="http://www.w3.org/1999/xlink" xml:space="preserve" xmlns:serif="http://www.serif.com/" style="fill-rule:evenodd;clip-rule:evenodd;stroke-linejoin:round;stroke-miterlimit:1.41421;"><g id="Layer-1" serif:id="Layer 1"><path d="M482.471,492.026c-12.141,6.02 -18.549,4.332 -25.554,-7.24c-2.016,-3.332 -3.747,-6.885 -5.215,-10.495c-7.375,-18.141 -14.22,-36.507 -22.022,-54.459c-7.476,-17.201 -17.187,-32.246 -41.8,-28.226c8.418,-8.928 14.942,-16.448 22.095,-23.312c17.257,-16.557 32.204,-36.503 58.036,-40.974c0.84,-0.146 1.791,-0.663 2.338,-1.307c1.766,-2.076 3.743,-4.489 2.526,-7.245c-1.018,-2.304 -3.745,-1.283 -5.7,-1.061c-16.529,1.881 -33.04,3.149 -49.563,-0.071c-2.62,-0.511 -4.915,0.225 -5.849,2.966c-0.733,2.15 -3.273,4.942 -0.863,6.608c8.626,5.964 2.634,11.276 -0.861,15.798c-13.643,17.655 -29.628,33.224 -45.68,50.717c0,-15.353 -0.02,-28.844 0.007,-42.332c0.02,-10.359 0.931,-20.073 13.267,-23.82c3.375,-1.026 5.063,-5.286 4.299,-8.206c-0.973,-3.723 -5.218,-1.972 -7.853,-1.641c-15.934,1.998 -31.888,2.257 -47.879,1.215c-4.508,-0.294 -8.987,-1.007 -13.489,-1.425c-4.473,-0.413 -5.167,3.181 -6.508,6.194c-1.19,2.673 -0.153,4.147 2.361,4.55c15.383,2.47 17.398,13.947 17.522,26.343c0.254,25.349 0.342,50.7 0.233,76.05c-0.093,21.715 0.809,43.451 -1.357,65.137c-0.72,7.214 -3.254,12.815 -10.435,15.417c-4.926,1.784 -6.502,5.659 -7.363,11.23c11.685,-0.782 22.762,-1.845 33.86,-2.177c11.456,-0.343 22.946,-0.015 34.299,1.877c5.127,0.855 7.107,-2.007 8.205,-6.219c1.37,-5.258 -3.183,-4.091 -5.547,-4.768c-9.089,-2.605 -12.988,-8.527 -13.551,-17.876c-1.4,-23.227 -0.46,-46.459 -0.703,-69.686c-0.089,-8.566 6.033,-11.23 13.03,-11.998c7.883,-0.865 11.943,4.859 15.394,10.639c7.154,11.982 11.06,25.361 15.978,38.304c6.628,17.437 11.709,35.523 21.208,51.77c8.377,14.327 19.606,17.092 33.274,7.794c7.954,-5.411 15.373,-11.619 22.932,-17.596c1.359,-1.074 2.636,-2.616 3.229,-4.209c0.912,-2.453 2.683,-5.514 0.799,-7.695c-2.448,-2.832 -4.905,0.34 -7.1,1.429" style="fill:#0f447a;fill-rule:nonzero;"/><path d="M860.828,317.704c-7.824,0.486 -15.625,1.429 -23.452,1.752c-9.351,0.385 -18.693,0.072 -27.933,-1.809c-5.589,-1.136 -9.151,2.215 -9.877,6.947c-0.784,5.114 4.441,3.506 7.188,4.143c13.123,3.042 18.82,7.869 19.199,21.322c1.018,36.171 2.608,72.44 -1.746,108.489c-1.598,13.23 -5.82,25.993 -18.324,33.855c-30.599,19.243 -66.971,3.027 -71.449,-32.602c-4.262,-33.93 -1.569,-68.104 -1.513,-102.169c0.02,-12.679 0.059,-25.911 16.303,-30.498c3.027,-0.855 5.548,-4.568 4.386,-8.015c-1.057,-3.131 -4.804,-1.752 -7.22,-1.512c-17.443,1.731 -34.891,2.62 -52.399,1.289c-4.804,-0.365 -9.586,-1.056 -14.393,-1.355c-4.628,-0.287 -6.349,3.2 -7.203,6.77c-1.242,5.195 3.406,3.744 5.842,4.414c11.808,3.241 16.259,8.121 16.488,20.453c0.357,19.306 0.095,38.626 0.095,57.94l0.148,0c0,9.958 -0.193,19.922 0.053,29.876c0.246,9.945 0.709,19.897 1.466,29.815c2.144,28.105 16.842,46.911 42.266,54.919c44.526,14.027 109.356,-10.032 107.901,-77.846c-0.647,-30.159 0.032,-60.355 0.516,-90.526c0.175,-11.019 1.027,-22.285 15.009,-25.574c1.031,-0.243 2.028,-1.347 2.69,-2.296c1.359,-1.947 3.38,-4.15 2.395,-6.488c-1.188,-2.818 -4.223,-1.431 -6.436,-1.294" style="fill:#104479;fill-rule:nonzero;"/><path d="M992.666,401.172c-7.25,10.038 -31.255,15.326 -42.383,9.265c-4.079,-2.222 -5.875,-5.772 -5.82,-10.454c0.105,-9.052 0.03,-18.105 0.03,-27.157l0.425,0c0,-9.05 0.083,-18.099 -0.037,-27.148c-0.054,-4.069 0.933,-6.363 5.573,-7.49c17.415,-4.229 34.053,-0.019 42.025,11.289c8.916,12.642 9.012,39.475 0.187,51.695m7.168,-83.189c-6.455,-1.167 -13.246,-1.044 -19.846,-0.731c-20.787,0.985 -41.521,3.366 -62.38,2.305c-7.827,-0.4 -15.65,-0.97 -23.453,-1.702c-4.417,-0.414 -5.565,2.571 -6.978,5.669c-1.253,2.747 0.114,4.281 2.419,4.627c15.67,2.354 17.136,13.77 17.122,26.294c-0.047,43.466 0.036,86.933 -0.124,130.398c-0.042,11.555 -0.014,23.338 -14.221,28.116c-2.76,0.928 -4.44,4.827 -3.549,7.636c1.004,3.157 4.722,1.747 7.113,1.526c10.518,-0.969 21.011,-2.389 31.596,-1.904c11.148,0.512 22.298,1.107 33.412,2.068c5.607,0.485 9.342,-2.162 9.924,-6.931c0.554,-4.549 -4.621,-3.472 -7.432,-4.161c-13.597,-3.332 -18.093,-8.355 -18.72,-22.586c-0.385,-8.735 -0.072,-17.501 -0.072,-26.252l-0.35,0c0,-8.755 0.198,-17.516 -0.077,-26.261c-0.157,-4.962 1.099,-7.515 6.575,-6.188c2.041,0.495 4.158,0.743 6.257,0.921c37.159,3.167 72.602,-15.035 78.855,-53.934c5.066,-31.497 -8.391,-53.909 -36.071,-58.91" style="fill:#0f447a;fill-rule:nonzero;"/><path d="M649.166,465.798c-3.716,-0.848 -6.734,2.205 -8.395,5.69c-0.893,1.876 -1.228,4.014 -1.876,6.015c-4.62,14.267 -14.227,22.538 -29.163,24.861c-12.03,1.872 -24.009,1.991 -36.014,0.186c-14.819,-2.228 -19.803,-7.572 -20.276,-22.69c-0.384,-12.355 -0.396,-24.737 -0.055,-37.091c0.277,-10.113 -4.538,-23.786 2.038,-29.385c6.834,-5.819 20.21,-2.069 30.719,-1.708c16.424,0.564 21.326,5.108 23.887,21.052c0.397,2.475 -0.367,6.444 2.713,6.779c3.151,0.343 4.762,-3.296 5.858,-6.034c0.868,-2.169 1.57,-4.741 1.267,-6.989c-1.67,-12.369 -1.07,-24.707 0.389,-36.988c0.844,-7.105 -2.66,-7.469 -6.936,-4.554c-16.33,11.133 -34.603,8.23 -52.56,8.155c-5.833,-0.025 -7.705,-2.588 -7.53,-8.269c0.43,-13.86 0.456,-27.736 0.449,-41.605c-0.003,-3.927 0.728,-6.216 5.421,-6.031c15.043,0.592 30.094,-0.498 45.163,1.386c16.355,2.046 26.416,10.482 30.739,26.207c0.69,2.514 1.105,6.395 4.114,6.109c1.993,-0.19 3.886,-3.476 5.448,-5.647c1.766,-2.452 0.629,-5.204 0.11,-7.856c-2.086,-10.641 -4.235,-21.26 -4.553,-32.17c-0.335,-11.54 -0.446,-11.479 -11.808,-7.84c-2.551,0.818 -5.282,1.522 -7.932,1.525c-33.78,0.03 -67.56,-0.023 -101.338,-0.207c-5.41,-0.029 -10.81,-0.887 -16.225,-1.195c-4.875,-0.278 -5.897,3.811 -6.844,7.102c-1.213,4.207 2.842,3.844 5.119,4.368c7.974,1.836 12.606,6.62 13.9,14.678c0.568,3.539 1.149,7.075 1.725,10.613c0.281,-2.596 0.563,-5.191 0.845,-7.785c0.281,0.029 0.562,0.06 0.843,0.09l0,141.013c-0.267,0.023 -0.534,0.047 -0.8,0.069c-0.295,-2.583 -0.59,-5.167 -0.886,-7.752l0,-0.002c-2.732,12.661 1.336,28.511 -16.478,34.132c-1.889,0.597 -3.581,4.416 -2.386,7.064c0.959,2.122 3.761,1.245 5.686,1.064c4.094,-0.384 8.362,0.395 12.251,-1.578c-5.205,-2.33 -1.133,-1.995 0.621,-2c18.374,-0.06 36.747,-0.067 55.121,-0.079c10.499,-0.008 20.999,0.005 31.54,0.678c0.102,-0.007 0.196,-0.005 0.274,0.016c1.916,0.124 3.832,0.264 5.751,0.437c-1.995,0.328 -3.989,0.655 -5.986,0.982l-0.002,0c11.603,1.45 23.183,3.146 34.82,4.228c4.876,0.453 7.666,-2.434 7.878,-7.679c0.591,-14.477 2.595,-28.791 4.966,-43.077c0.443,-2.664 3.183,-7.193 -1.612,-8.288" style="fill:#10447b;fill-rule:nonzero;"/><path d="M517.228,480.646c0.66,0.66 0.823,0.729 0.819,0.241c-0.339,-42.483 -0.312,-84.968 -0.035,-127.451c0.008,-1.206 -0.094,-1.587 -0.127,-0.394c-0.006,0.225 -0.926,0.618 -1.165,1.223c0.001,41.877 0.001,83.753 0.002,125.633c0.167,0.252 0.298,0.539 0.506,0.748" style="fill:#18375f;fill-rule:nonzero;"/><path d="M517.608,487.653c0.266,-0.022 0.533,-0.047 0.799,-0.069l0,-141.013c-0.28,-0.03 -0.561,-0.062 -0.842,-0.091c-0.282,2.595 -0.564,5.19 -0.846,7.785c0.24,-0.605 1.16,-0.998 1.166,-1.222c0.033,-1.194 0.135,-0.813 0.126,0.393c-0.277,42.484 -0.303,84.968 0.036,127.451c0.003,0.488 -0.159,0.419 -0.819,-0.241c-0.209,-0.209 -0.34,-0.496 -0.506,-0.748l0,0.002c0.296,2.586 0.591,5.17 0.886,7.753" style="fill:#18375f;fill-rule:nonzero;"/><path d="M603.351,519.196c-0.091,-0.006 -0.183,-0.011 -0.273,-0.017c-0.422,0.032 -0.992,0.255 -1.216,0.254c-27.75,-0.073 -55.5,-0.039 -83.249,-0.05c-1.089,0 -2.416,-0.46 -2.817,1.198c29.105,0.011 58.211,0.022 87.319,0.034c0.606,-0.984 0.542,-1.335 0.236,-1.419" style="fill:#18375e;fill-rule:nonzero;"/><path d="M609.101,519.632c-1.919,-0.173 -3.835,-0.312 -5.751,-0.437c0.306,0.084 0.37,0.435 -0.236,1.419l0.002,0c1.997,-0.327 3.991,-0.654 5.985,-0.982" style="fill:#18375e;fill-rule:nonzero;"/><path d="M518.612,519.382c27.749,0.012 55.499,-0.022 83.249,0.051c0.225,0.001 0.794,-0.223 1.216,-0.254c-10.541,-0.673 -21.041,-0.686 -31.54,-0.678c-18.374,0.012 -36.748,0.019 -55.122,0.079c-1.754,0.005 -5.825,-0.33 -0.62,2c0.401,-1.658 1.729,-1.198 2.817,-1.198" style="fill:#18375e;fill-rule:nonzero;"/><path d="M79.665,257.501c0.346,-1.88 0.621,-3.763 0.747,-5.656c0.238,-3.594 1.104,-7.227 1.842,-10.744c1.547,-7.375 3.371,-14.753 3.132,-22.349c-9.489,7.424 -16.144,17.048 -24.959,24.559c-15.614,13.305 -25.621,8.222 -34.159,-7.154c-0.569,-1.027 -1.027,-2.115 -2.096,-4.336c-3.188,7.034 -4.244,13.517 -5.186,20.012c-1.855,12.79 -3.605,25.595 -5.44,38.389c-0.431,3.014 -1.488,5.833 -3.527,8.138c-1.986,2.245 -4.864,2.739 -7.481,2.257c-3.502,-0.646 -1.995,-3.915 -2.02,-5.985c-0.305,-25.937 3.24,-51.562 6.354,-77.23c1.158,-9.547 1.948,-19.166 2.307,-28.774c0.36,-9.586 4.452,-16.342 13.071,-20.446c4.811,-2.291 7.697,-2.104 8.1,4.464c0.918,14.944 0.61,30.114 6.364,44.378c1.116,2.765 2.147,5.58 3.487,8.236c4.013,7.955 9.979,9.767 17.431,4.716c12.55,-8.509 20.805,-21.024 29.444,-33.068c3.816,-5.322 7.091,-11.134 12.971,-14.358c2.411,-1.321 5.615,-3.454 8.341,-1.716c3.036,1.938 2.927,5.597 2.654,9.046c-1.301,16.434 -5.747,32.259 -9.65,48.142c-3.842,15.63 -9.311,30.866 -12.985,46.529c-1.513,6.449 -6.869,8.477 -10.16,12.756c-0.765,0.994 -2.685,1.719 -3.998,0.308c-1.665,-1.79 -1.332,-4.325 -0.448,-5.981c3.292,-6.178 2.566,-12.871 3.146,-19.404c0.438,-4.937 1.816,-9.82 2.718,-14.729" style="fill:#f59e1a;"/><path d="M358.988,282.669c12.146,-13.885 24.047,-27.997 36.593,-41.511c3.634,-3.915 8.958,-7.721 14.488,-1.577c3.078,4.187 0.717,8.458 0.196,12.7c-2.363,7.57 -4.727,15.14 -7.672,24.57c9.956,-7.847 15.281,-18.208 25.343,-23.151c3.756,-1.855 7.465,-2.137 11.092,0.334c3.142,4.36 5.844,8.909 7.158,14.223c1.412,5.716 4.221,8.589 9.555,3.506c2.03,-1.935 4.439,-2.805 6.822,-4.01c2.713,-1.37 5.616,-6.029 7.942,-3.642c3.776,3.874 -1.638,7.023 -3.74,9.639c-4.027,5.014 -8.724,9.668 -13.813,13.605c-7.367,5.702 -12.823,4.393 -17.775,-3.42c-1.421,-2.244 -2.156,-4.956 -3.736,-7.055c-3.363,-4.465 -6.54,-6.743 -12.155,-1.637c-7.265,6.611 -13.336,14.216 -20.147,21.172c-1.861,1.901 -3.991,3.537 -5.875,5.418c-2.34,2.337 -5.124,3.787 -7.971,1.698c-2.603,-1.91 -2.876,-5.096 -2.1,-8.245c2.06,-8.358 4.131,-16.716 6.117,-25.093c0.392,-1.653 4.014,-3.303 0.538,-5.001c-2.537,-1.238 -3.942,0.723 -5.736,2.715c-6.32,7.014 -12.758,14.013 -21.075,18.838c-4.216,1.486 -5.036,-0.397 -4.049,-4.077" style="fill:#f49f1a;"/><path d="M218.417,202.221c-0.424,7.538 -3.304,13.2 -8.872,17.325c-3.979,2.948 -9.476,3.819 -12.313,0.373c-2.883,-3.503 -2.631,-9.265 1.499,-13.051c3.719,-3.41 7.551,-6.873 11.865,-9.41c5.497,-3.232 8.569,-1.341 7.821,4.763" style="fill:#f4a120;"/><path d="M323.328,287.03c-4.414,0.832 -6.215,-1.837 -6.504,-5.5c-0.573,-7.265 13.578,-24.302 20.964,-25.369c5.26,-0.76 8.064,2.188 8.208,7.076c0.256,8.636 -14.201,23.528 -22.668,23.793m27.305,-45.517c-5.281,-2.525 -11.448,0.594 -16.791,-5.102c-3.394,-3.618 -9.734,1.737 -13.755,5.52c-13.384,12.593 -26.794,25.156 -40.194,37.731c-1.238,0.718 -2.481,2.058 -3.961,0.953c-1.06,-0.791 -0.601,-2.112 -0.104,-3.211c2.363,-11.368 6.848,-22.249 7.425,-34.049c0.226,-4.637 -0.402,-8.668 -4.971,-10.381c-4.388,-1.645 -8.616,-1.047 -12.409,2.579c-13.53,12.936 -27.263,25.662 -40.941,38.442c-7.913,7.393 -11.899,6.197 -14.355,-4.233c-0.895,-3.803 -1.896,-7.585 -2.727,-11.401c-0.68,-3.123 -0.07,-7.034 -4.564,-7.772c-4.435,-0.727 -8.555,-1.141 -12.014,3.282c-4.563,5.833 -9.793,11.166 -14.976,16.48c-1.793,1.84 -3.986,4.167 -6.943,3.352c-3.581,-0.985 -2.111,-4.499 -2.507,-6.892c-0.435,-2.634 0.045,-5.406 -0.057,-8.111c-0.283,-7.437 -3.266,-9.095 -9.315,-5.136c-1.738,1.138 -3.218,2.669 -4.816,4.02c-6.949,4.14 -11.282,11.371 -18.299,15.859c5.096,-6.692 10.207,-12.954 14.644,-19.726c4.757,-7.208 11.503,-12.574 17.338,-18.785c2.092,-2.226 3.925,-4.76 1.631,-7.954c-2.313,-3.219 -5.471,-2.242 -8.101,-0.947c-2.625,1.293 -4.991,3.268 -7.177,5.264c-10.063,9.187 -20.475,17.969 -29.337,28.464c-6.62,7.842 -15.272,13.924 -20.803,22.735c-1.038,1.651 -3.125,4.6 -1.058,6.538c2.86,2.679 3.691,-1.629 5.608,-2.462c2.483,-1.08 3.551,-5.177 8.252,-3.116c-3.084,4.987 -1.205,9.293 3.024,12.399c5.031,3.697 8.495,-1.49 11.943,-3.449c4.255,-2.419 7.932,-6.298 11.014,-10.211c3.083,-3.915 6.426,-7.097 10.9,-9.653c1.424,9.715 4.819,14.789 10.691,16.828c6.975,2.423 10.145,-3.396 14.508,-6.591c1.435,-1.05 2.674,-2.381 3.954,-3.634c6.857,-6.71 10.954,-5.925 14.823,2.863c6.209,14.095 14.539,16.425 26.247,6.793c10.582,-8.706 20.67,-18.009 31.156,-26.834c1.905,-1.604 3.822,-4.95 6.619,-3.657c2.857,1.322 1.372,4.891 1.241,7.34c-0.34,6.361 2.771,15.067 -9.406,14.289c-2.069,-0.132 -5.078,3.399 -4.727,7.592c0.404,4.826 1.11,9.366 2.831,13.97c3.048,8.151 5.296,9.246 12.48,3.795c12.044,-9.139 23.842,-18.601 36.196,-28.282c-0.162,1.716 -0.359,3.087 -0.41,4.463c-0.579,15.845 7.426,21.069 22.78,17.214c16.414,-4.12 27.254,-14.947 35.79,-27.848c8.029,-12.136 9.087,-21.932 -6.377,-29.328" style="fill:#f49e1b;fill-rule:nonzero;"/><path d="M560.49,286.424c0,0 351,1.499 410.5,0.499c59.5,-1 78,36.5 78,36.5l34.293,1.689l-187.293,-169.689l-652.725,-155.4l317.225,286.401Z" style="fill:url(#_Linear1);fill-rule:nonzero;"/><path d="M78.47,159.98l38.521,-0.556l130.999,-128.501l-17.499,-17.5l-152.021,146.557Z" style="fill:url(#_Linear2);fill-rule:nonzero;"/></g><defs><linearGradient id="_Linear1" x1="0" y1="0" x2="1" y2="0" gradientUnits="userSpaceOnUse" gradientTransform="matrix(0,325.089,-325.089,0,663.274,0.0223145)"><stop offset="0" style="stop-color:#1b89cb;stop-opacity:1"/><stop offset="0.04" style="stop-color:#1b89cb;stop-opacity:1"/><stop offset="1" style="stop-color:#0c488b;stop-opacity:1"/></linearGradient><linearGradient id="_Linear2" x1="0" y1="0" x2="1" y2="0" gradientUnits="userSpaceOnUse" gradientTransform="matrix(4.44089e-16,146.557,-146.557,4.44089e-16,163.23,13.4233)"><stop offset="0" style="stop-color:#0c488b;stop-opacity:1"/><stop offset="0.96" style="stop-color:#1b89cb;stop-opacity:1"/><stop offset="1" style="stop-color:#1b89cb;stop-opacity:1"/></linearGradient></defs></svg>