<?xml version="1.0" encoding="UTF-8" standalone="no"?><!DOCTYPE svg PUBLIC "-//W3C//DTD SVG 1.1//EN" "http://www.w3.org/Graphics/SVG/1.1/DTD/svg11.dtd"><svg width="100%" height="100%" viewBox="0 0 250 97" version="1.1" xmlns="http://www.w3.org/2000/svg" xmlns:xlink="http://www.w3.org/1999/xlink" xml:space="preserve" xmlns:serif="http://www.serif.com/" style="fill-rule:evenodd;clip-rule:evenodd;stroke-miterlimit:1.41421;"><g><rect x="0" y="0.835" width="249.449" height="96.165" style="fill:#f4901d;fill-rule:nonzero;"/><path d="M22.727,34.312c2.916,0 5.256,-2.484 5.256,-9.396c0,-6.912 -2.34,-9.396 -5.256,-9.396c-2.916,0 -5.256,2.484 -5.256,9.396c0,6.912 2.34,9.396 5.256,9.396Zm0,-22.32c5.22,0 10.008,3.888 10.008,12.924c0,9.036 -4.788,12.924 -10.008,12.924c-5.22,0 -10.008,-3.888 -10.008,-12.924c0,-9.036 4.788,-12.924 10.008,-12.924Z" style="fill:#fff;fill-rule:nonzero;"/><path d="M49.044,27.904l-3.168,-11.736l-0.072,0l-3.456,11.736l6.696,0Zm0.972,3.528l-8.64,0l-1.8,6.048l-4.609,0l8.425,-25.128l5.04,0l8.1,25.128l-4.752,0l-1.764,-6.048Z" style="fill:#fff;fill-rule:nonzero;"/><rect x="60.713" y="12.352" width="4.608" height="25.128" style="fill:#fff;fill-rule:nonzero;"/><path d="M16.119,68.387c1.352,0 2.437,-1.152 2.437,-4.357c0,-3.207 -1.085,-4.36 -2.437,-4.36c-1.353,0 -2.438,1.153 -2.438,4.36c0,3.205 1.085,4.357 2.438,4.357Zm0,-10.353c2.421,0 4.641,1.802 4.641,5.996c0,4.189 -2.22,5.993 -4.641,5.993c-2.422,0 -4.642,-1.804 -4.642,-5.993c0,-4.194 2.22,-5.996 4.642,-5.996Z" style="fill:#231f20;fill-rule:nonzero;"/><path d="M26.238,63.277c1.136,0 1.904,-0.584 1.904,-1.771c0,-1.335 -0.702,-1.67 -1.904,-1.67l-0.868,0l0,3.441l0.868,0Zm-3.007,-5.076l3.642,0c2.069,0 3.473,0.934 3.473,3.072c0,1.52 -0.952,2.538 -2.255,2.738l0,0.051c0.435,0.067 0.919,0.266 1.286,1.354l1.52,4.44l-2.271,0l-1.152,-3.79c-0.284,-0.919 -0.835,-1.22 -1.62,-1.22l-0.484,0l0,5.01l-2.139,0l0,-11.655Z" style="fill:#231f20;fill-rule:nonzero;"/><path d="M35.221,68.219l0.718,0c2.405,0 3.491,-1.636 3.491,-4.189c0,-2.556 -1.086,-4.194 -3.491,-4.194l-0.718,0l0,8.383Zm-2.137,-10.018l3.039,0c3.641,0 5.578,1.97 5.578,5.829c0,3.921 -2.339,5.826 -5.578,5.826l-3.039,0l0,-11.655Z" style="fill:#231f20;fill-rule:nonzero;"/><path d="M47.179,63.277c1.135,0 1.904,-0.584 1.904,-1.771c0,-1.335 -0.703,-1.67 -1.904,-1.67l-0.869,0l0,3.441l0.869,0Zm-3.007,-5.076l3.641,0c2.07,0 3.474,0.934 3.474,3.072c0,1.52 -0.952,2.538 -2.256,2.738l0,0.051c0.436,0.067 0.92,0.266 1.287,1.354l1.519,4.44l-2.272,0l-1.151,-3.79c-0.284,-0.919 -0.834,-1.22 -1.62,-1.22l-0.484,0l0,5.01l-2.138,0l0,-11.655Z" style="fill:#231f20;fill-rule:nonzero;"/><path d="M54.125,58.201l6.129,0l0,1.702l-3.992,0l0,3.106l3.774,0l0,1.702l-3.774,0l0,3.441l4.158,0l0,1.704l-6.295,0l0,-11.655Z" style="fill:#231f20;fill-rule:nonzero;"/><path d="M70.429,68.219l0.718,0c2.404,0 3.49,-1.636 3.49,-4.189c0,-2.556 -1.086,-4.194 -3.49,-4.194l-0.718,0l0,8.383Zm-2.138,-10.018l3.039,0c3.64,0 5.578,1.97 5.578,5.829c0,3.921 -2.338,5.826 -5.578,5.826l-3.039,0l0,-11.655Z" style="fill:#231f20;fill-rule:nonzero;"/><path d="M79.479,58.201l6.128,0l0,1.702l-3.991,0l0,3.106l3.774,0l0,1.702l-3.774,0l0,3.441l4.158,0l0,1.704l-6.295,0l0,-11.655Z" style="fill:#231f20;fill-rule:nonzero;"/><path d="M88.246,67.603c0.417,0.265 1.336,0.717 2.471,0.717c0.935,0 1.77,-0.519 1.77,-1.688c0,-0.835 -0.485,-1.2 -1.519,-1.769l-1.085,-0.6c-1.152,-0.637 -1.905,-1.553 -1.905,-3.057c0,-2.087 1.721,-3.172 3.674,-3.172c1.236,0 2.104,0.317 2.438,0.417l-0.1,1.788c-0.518,-0.201 -1.202,-0.501 -2.187,-0.501c-1.069,0 -1.621,0.566 -1.621,1.368c0,0.869 0.585,1.201 1.236,1.569l1.253,0.701c1.369,0.77 2.02,1.505 2.02,3.142c0,2.368 -1.687,3.505 -3.907,3.505c-1.169,0 -2.071,-0.167 -2.655,-0.518l0.117,-1.902Z" style="fill:#231f20;fill-rule:nonzero;"/><path d="M107.128,65.416l-1.469,-5.446l-0.034,0l-1.603,5.446l3.106,0Zm0.451,1.635l-4.007,0l-0.836,2.805l-2.137,0l3.907,-11.655l2.338,0l3.758,11.655l-2.205,0l-0.818,-2.805Z" style="fill:#231f20;fill-rule:nonzero;"/><path d="M115.41,63.277c1.136,0 1.905,-0.584 1.905,-1.771c0,-1.335 -0.703,-1.67 -1.905,-1.67l-0.868,0l0,3.441l0.868,0Zm-3.006,-5.076l3.641,0c2.071,0 3.473,0.934 3.473,3.072c0,1.52 -0.952,2.538 -2.254,2.738l0,0.051c0.434,0.067 0.918,0.266 1.286,1.354l1.519,4.44l-2.271,0l-1.152,-3.79c-0.284,-0.919 -0.834,-1.22 -1.62,-1.22l-0.484,0l0,5.01l-2.138,0l0,-11.655Z" style="fill:#231f20;fill-rule:nonzero;"/><path d="M129.771,69.606c-0.434,0.233 -1.469,0.417 -2.521,0.417c-3.541,0 -5.36,-2.588 -5.36,-5.993c0,-3.407 1.819,-5.996 5.293,-5.996c1.185,0 2.154,0.317 2.588,0.484l-0.117,1.92c-0.434,-0.217 -1.119,-0.634 -2.204,-0.634c-1.77,0 -3.289,1.201 -3.289,4.226c0,3.021 1.519,4.223 3.289,4.223c1.035,0 1.719,-0.251 2.204,-0.602l0.117,1.955Z" style="fill:#231f20;fill-rule:nonzero;"/><path d="M132.209,58.201l2.138,0l0,4.743l3.457,0l0,-4.743l2.137,0l0,11.655l-2.137,0l0,-5.145l-3.457,0l0,5.145l-2.138,0l0,-11.655Z" style="fill:#231f20;fill-rule:nonzero;"/><rect x="142.996" y="58.201" width="2.138" height="11.655" style="fill:#231f20;fill-rule:nonzero;"/><path d="M149.91,59.903l-2.605,0l0,-1.702l7.332,0l0,1.702l-2.59,0l0,9.953l-2.137,0l0,-9.953Z" style="fill:#231f20;fill-rule:nonzero;"/><path d="M156.789,58.201l6.129,0l0,1.702l-3.992,0l0,3.106l3.774,0l0,1.702l-3.774,0l0,3.441l4.159,0l0,1.704l-6.296,0l0,-11.655Z" style="fill:#231f20;fill-rule:nonzero;"/><path d="M173.121,69.606c-0.433,0.233 -1.47,0.417 -2.521,0.417c-3.54,0 -5.36,-2.588 -5.36,-5.993c0,-3.407 1.82,-5.996 5.292,-5.996c1.187,0 2.156,0.317 2.589,0.484l-0.116,1.92c-0.435,-0.217 -1.119,-0.634 -2.204,-0.634c-1.771,0 -3.289,1.201 -3.289,4.226c0,3.021 1.518,4.223 3.289,4.223c1.035,0 1.719,-0.251 2.204,-0.602l0.116,1.955Z" style="fill:#231f20;fill-rule:nonzero;"/><path d="M177.279,59.903l-2.606,0l0,-1.702l7.332,0l0,1.702l-2.589,0l0,9.953l-2.137,0l0,-9.953Z" style="fill:#231f20;fill-rule:nonzero;"/><path d="M184.158,58.201l6.129,0l0,1.702l-3.991,0l0,3.106l3.774,0l0,1.702l-3.774,0l0,3.441l4.159,0l0,1.704l-6.297,0l0,-11.655Z" style="fill:#231f20;fill-rule:nonzero;"/><path d="M192.926,67.603c0.417,0.265 1.336,0.717 2.471,0.717c0.934,0 1.77,-0.519 1.77,-1.688c0,-0.835 -0.484,-1.2 -1.52,-1.769l-1.084,-0.6c-1.153,-0.637 -1.905,-1.553 -1.905,-3.057c0,-2.087 1.721,-3.172 3.673,-3.172c1.236,0 2.106,0.317 2.44,0.417l-0.101,1.788c-0.519,-0.201 -1.203,-0.501 -2.188,-0.501c-1.068,0 -1.62,0.566 -1.62,1.368c0,0.869 0.584,1.201 1.237,1.569l1.252,0.701c1.369,0.77 2.02,1.505 2.02,3.142c0,2.368 -1.687,3.505 -3.907,3.505c-1.169,0 -2.07,-0.167 -2.655,-0.518l0.117,-1.902Z" style="fill:#231f20;fill-rule:nonzero;"/><path d="M12.861,74.096l6.128,0l0,1.703l-3.991,0l0,3.106l3.774,0l0,1.703l-3.774,0l0,3.44l4.159,0l0,1.703l-6.296,0l0,-11.655Z" style="fill:#231f20;fill-rule:nonzero;"/><path d="M23.498,75.799l-2.605,0l0,-1.703l7.331,0l0,1.703l-2.589,0l0,9.952l-2.137,0l0,-9.952Z" style="fill:#231f20;fill-rule:nonzero;"/><path d="M37.758,84.116l0.722,0c2.402,0 3.49,-1.637 3.49,-4.191c0,-2.555 -1.088,-4.192 -3.49,-4.192l-0.722,0l0,8.383Zm-2.134,-10.02l3.037,0c3.641,0 5.577,1.972 5.577,5.829c0,3.922 -2.338,5.826 -5.577,5.826l-3.037,0l0,-11.655Z" style="fill:#231f20;fill-rule:nonzero;"/><path d="M46.81,74.096l6.128,0l0,1.703l-3.99,0l0,3.106l3.776,0l0,1.703l-3.776,0l0,3.44l4.16,0l0,1.703l-6.298,0l0,-11.655Z" style="fill:#231f20;fill-rule:nonzero;"/><path d="M55.576,83.499c0.417,0.265 1.338,0.717 2.472,0.717c0.934,0 1.771,-0.518 1.771,-1.688c0,-0.834 -0.485,-1.2 -1.522,-1.769l-1.083,-0.6c-1.152,-0.636 -1.902,-1.553 -1.902,-3.057c0,-2.087 1.717,-3.173 3.67,-3.173c1.236,0 2.106,0.318 2.439,0.417l-0.101,1.789c-0.515,-0.201 -1.2,-0.502 -2.185,-0.502c-1.069,0 -1.621,0.566 -1.621,1.369c0,0.869 0.584,1.202 1.236,1.569l1.251,0.701c1.369,0.77 2.022,1.505 2.022,3.141c0,2.37 -1.685,3.505 -3.907,3.505c-1.17,0 -2.073,-0.167 -2.656,-0.518l0.116,-1.901Z" style="fill:#231f20;fill-rule:nonzero;"/><rect x="70.01" y="74.096" width="2.137" height="11.655" style="fill:#231f20;fill-rule:nonzero;"/><path d="M75.188,74.096l2.536,0l3.874,9.152l0.032,0l0,-9.152l1.939,0l0,11.655l-2.555,0l-3.859,-9.084l-0.032,0l0,9.084l-1.935,0l0,-11.655Z" style="fill:#231f20;fill-rule:nonzero;"/><path d="M91.233,79.223l3.776,0l0,6.094c-0.601,0.317 -1.638,0.601 -3.156,0.601c-3.74,0 -5.729,-2.539 -5.729,-5.993c0,-3.458 1.989,-5.996 5.729,-5.996c1.334,0 2.388,0.301 2.838,0.502l-0.117,1.919c-0.684,-0.416 -1.619,-0.717 -2.689,-0.717c-2.272,0 -3.489,1.869 -3.489,4.292c0,2.621 1.185,4.291 3.374,4.291c0.5,0 0.949,-0.1 1.235,-0.217l0,-3.14l-1.772,0l0,-1.636Z" style="fill:#231f20;fill-rule:nonzero;"/><path d="M97.981,74.096l6.128,0l0,1.703l-3.99,0l0,3.106l3.772,0l0,1.703l-3.772,0l0,3.44l4.156,0l0,1.703l-6.294,0l0,-11.655Z" style="fill:#231f20;fill-rule:nonzero;"/><path d="M106.881,74.096l2.54,0l3.874,9.152l0.033,0l0,-9.152l1.935,0l0,11.655l-2.555,0l-3.856,-9.084l-0.032,0l0,9.084l-1.939,0l0,-11.655Z" style="fill:#231f20;fill-rule:nonzero;"/><rect x="118.303" y="74.096" width="2.137" height="11.655" style="fill:#231f20;fill-rule:nonzero;"/><path d="M123.495,74.096l6.128,0l0,1.703l-3.99,0l0,3.106l3.776,0l0,1.703l-3.776,0l0,3.44l4.161,0l0,1.703l-6.299,0l0,-11.655Z" style="fill:#231f20;fill-rule:nonzero;"/><path d="M134.45,74.096l0,7.548c0,1.937 0.583,2.572 1.837,2.572c1.218,0 1.818,-0.635 1.818,-2.572l0,-7.548l2.139,0l0,7.548c0,3.072 -1.768,4.274 -3.957,4.274c-2.203,0 -3.975,-1.202 -3.975,-4.274l0,-7.548l2.138,0Z" style="fill:#231f20;fill-rule:nonzero;"/><path d="M146.089,79.172c1.134,0 1.903,-0.585 1.903,-1.77c0,-1.334 -0.7,-1.669 -1.903,-1.669l-0.87,0l0,3.439l0.87,0Zm-3.004,-5.076l3.639,0c2.072,0 3.475,0.936 3.475,3.073c0,1.52 -0.953,2.538 -2.254,2.738l0,0.051c0.431,0.066 0.916,0.265 1.283,1.353l1.521,4.44l-2.272,0l-1.152,-3.79c-0.283,-0.919 -0.834,-1.218 -1.62,-1.218l-0.486,0l0,5.008l-2.134,0l0,-11.655Z" style="fill:#231f20;fill-rule:nonzero;"/><path d="M152.883,83.499c0.418,0.265 1.338,0.717 2.471,0.717c0.936,0 1.773,-0.518 1.773,-1.688c0,-0.834 -0.485,-1.2 -1.522,-1.769l-1.084,-0.6c-1.152,-0.636 -1.901,-1.553 -1.901,-3.057c0,-2.087 1.717,-3.173 3.67,-3.173c1.235,0 2.106,0.318 2.438,0.417l-0.101,1.789c-0.515,-0.201 -1.2,-0.502 -2.185,-0.502c-1.069,0 -1.619,0.566 -1.619,1.369c0,0.869 0.583,1.202 1.236,1.569l1.251,0.701c1.368,0.77 2.021,1.505 2.021,3.141c0,2.37 -1.685,3.505 -3.907,3.505c-1.17,0 -2.073,-0.167 -2.656,-0.518l0.115,-1.901Z" style="fill:#231f20;fill-rule:nonzero;"/><rect x="161.418" y="80.159" width="3.859" height="1.704" style="fill:#231f20;fill-rule:nonzero;"/><path d="M175.194,85.5c-0.434,0.235 -1.47,0.418 -2.521,0.418c-3.541,0 -5.36,-2.587 -5.36,-5.993c0,-3.407 1.819,-5.996 5.294,-5.996c1.186,0 2.153,0.318 2.587,0.485l-0.116,1.919c-0.434,-0.215 -1.118,-0.633 -2.206,-0.633c-1.768,0 -3.291,1.202 -3.291,4.225c0,3.023 1.523,4.224 3.291,4.224c1.036,0 1.721,-0.25 2.206,-0.603l0.116,1.954Z" style="fill:#231f20;fill-rule:nonzero;"/><path d="M181.809,84.282c1.35,0 2.438,-1.152 2.438,-4.357c0,-3.207 -1.088,-4.359 -2.438,-4.359c-1.353,0 -2.44,1.152 -2.44,4.359c0,3.205 1.087,4.357 2.44,4.357Zm0,-10.353c2.42,0 4.641,1.804 4.641,5.996c0,4.191 -2.221,5.993 -4.641,5.993c-2.422,0 -4.643,-1.802 -4.643,-5.993c0,-4.192 2.221,-5.996 4.643,-5.996Z" style="fill:#231f20;fill-rule:nonzero;"/><path d="M189.006,74.096l2.539,0l3.874,9.152l0.032,0l0,-9.152l1.935,0l0,11.655l-2.554,0l-3.856,-9.084l-0.033,0l0,9.084l-1.937,0l0,-11.655Z" style="fill:#231f20;fill-rule:nonzero;"/><path d="M200.26,83.499c0.417,0.265 1.333,0.717 2.471,0.717c0.936,0 1.769,-0.518 1.769,-1.688c0,-0.834 -0.482,-1.2 -1.519,-1.769l-1.085,-0.6c-1.153,-0.636 -1.905,-1.553 -1.905,-3.057c0,-2.087 1.722,-3.173 3.676,-3.173c1.234,0 2.101,0.318 2.438,0.417l-0.101,1.789c-0.52,-0.201 -1.203,-0.502 -2.189,-0.502c-1.07,0 -1.62,0.566 -1.62,1.369c0,0.869 0.587,1.202 1.236,1.569l1.254,0.701c1.369,0.77 2.021,1.505 2.021,3.141c0,2.37 -1.688,3.505 -3.909,3.505c-1.167,0 -2.069,-0.167 -2.653,-0.518l0.116,-1.901Z" style="fill:#231f20;fill-rule:nonzero;"/><path d="M209.326,74.096l6.128,0l0,1.703l-3.989,0l0,3.106l3.776,0l0,1.703l-3.776,0l0,3.44l4.159,0l0,1.703l-6.298,0l0,-11.655Z" style="fill:#231f20;fill-rule:nonzero;"/><rect x="218.259" y="74.096" width="2.137" height="11.655" style="fill:#231f20;fill-rule:nonzero;"/><path d="M223.354,74.096l2.137,0l0,9.952l3.842,0l0,1.703l-5.979,0l0,-11.655Z" style="fill:#231f20;fill-rule:nonzero;"/><path d="M231.286,83.499c0.416,0.265 1.334,0.717 2.473,0.717c0.933,0 1.767,-0.518 1.767,-1.688c0,-0.834 -0.482,-1.2 -1.519,-1.769l-1.087,-0.6c-1.152,-0.636 -1.901,-1.553 -1.901,-3.057c0,-2.087 1.721,-3.173 3.673,-3.173c1.237,0 2.101,0.318 2.44,0.417l-0.103,1.789c-0.517,-0.201 -1.202,-0.502 -2.188,-0.502c-1.069,0 -1.62,0.566 -1.62,1.369c0,0.869 0.588,1.202 1.235,1.569l1.255,0.701c1.37,0.77 2.021,1.505 2.021,3.141c0,2.37 -1.688,3.505 -3.909,3.505c-1.167,0 -2.069,-0.167 -2.652,-0.518l0.115,-1.901Z" style="fill:#231f20;fill-rule:nonzero;"/><path d="M11.102,47.801l227.007,0" style="fill:none;stroke:#fff;stroke-width:4.5px;"/></g></svg>