<svg viewBox="0 0 250 97" xmlns="http://www.w3.org/2000/svg" xml:space="preserve" style="fill-rule:evenodd;clip-rule:evenodd;stroke-miterlimit:1.41421"><path style="fill:#f4901d;fill-rule:nonzero" d="M0 .835h249.449V97H0z"/><path d="M22.727 34.312c2.916 0 5.256-2.484 5.256-9.396 0-6.912-2.34-9.396-5.256-9.396-2.916 0-5.256 2.484-5.256 9.396 0 6.912 2.34 9.396 5.256 9.396Zm0-22.32c5.22 0 10.008 3.888 10.008 12.924S27.947 37.84 22.727 37.84c-5.22 0-10.008-3.888-10.008-12.924s4.788-12.924 10.008-12.924ZM49.044 27.904l-3.168-11.736h-.072l-3.456 11.736h6.696Zm.972 3.528h-8.64l-1.8 6.048h-4.609l8.425-25.128h5.04l8.1 25.128H51.78l-1.764-6.048ZM60.713 12.352h4.608V37.48h-4.608z" style="fill:#fff;fill-rule:nonzero"/><path d="M16.119 68.387c1.352 0 2.437-1.152 2.437-4.357 0-3.207-1.085-4.36-2.437-4.36-1.353 0-2.438 1.153-2.438 4.36 0 3.205 1.085 4.357 2.438 4.357Zm0-10.353c2.421 0 4.641 1.802 4.641 5.996 0 4.189-2.22 5.993-4.641 5.993-2.422 0-4.642-1.804-4.642-5.993 0-4.194 2.22-5.996 4.642-5.996ZM26.238 63.277c1.136 0 1.904-.584 1.904-1.771 0-1.335-.702-1.67-1.904-1.67h-.868v3.441h.868Zm-3.007-5.076h3.642c2.069 0 3.473.934 3.473 3.072 0 1.52-.952 2.538-2.255 2.738v.051c.435.067.919.266 1.286 1.354l1.52 4.44h-2.271l-1.152-3.79c-.284-.919-.835-1.22-1.62-1.22h-.484v5.01h-2.139V58.201ZM35.221 68.219h.718c2.405 0 3.491-1.636 3.491-4.189 0-2.556-1.086-4.194-3.491-4.194h-.718v8.383Zm-2.137-10.018h3.039c3.641 0 5.578 1.97 5.578 5.829 0 3.921-2.339 5.826-5.578 5.826h-3.039V58.201ZM47.179 63.277c1.135 0 1.904-.584 1.904-1.771 0-1.335-.703-1.67-1.904-1.67h-.869v3.441h.869Zm-3.007-5.076h3.641c2.07 0 3.474.934 3.474 3.072 0 1.52-.952 2.538-2.256 2.738v.051c.436.067.92.266 1.287 1.354l1.519 4.44h-2.272l-1.151-3.79c-.284-.919-.834-1.22-1.62-1.22h-.484v5.01h-2.138V58.201ZM54.125 58.201h6.129v1.702h-3.992v3.106h3.774v1.702h-3.774v3.441h4.158v1.704h-6.295V58.201ZM70.429 68.219h.718c2.404 0 3.49-1.636 3.49-4.189 0-2.556-1.086-4.194-3.49-4.194h-.718v8.383Zm-2.138-10.018h3.039c3.64 0 5.578 1.97 5.578 5.829 0 3.921-2.338 5.826-5.578 5.826h-3.039V58.201ZM79.479 58.201h6.128v1.702h-3.991v3.106h3.774v1.702h-3.774v3.441h4.158v1.704h-6.295V58.201ZM88.246 67.603a4.789 4.789 0 0 0 2.471.717c.935 0 1.77-.519 1.77-1.688 0-.835-.485-1.2-1.519-1.769l-1.085-.6c-1.152-.637-1.905-1.553-1.905-3.057 0-2.087 1.721-3.172 3.674-3.172 1.236 0 2.104.317 2.438.417l-.1 1.788c-.518-.201-1.202-.501-2.187-.501-1.069 0-1.621.566-1.621 1.368 0 .869.585 1.201 1.236 1.569l1.253.701c1.369.77 2.02 1.505 2.02 3.142 0 2.368-1.687 3.505-3.907 3.505-1.169 0-2.071-.167-2.655-.518l.117-1.902ZM107.128 65.416l-1.469-5.446h-.034l-1.603 5.446h3.106Zm.451 1.635h-4.007l-.836 2.805h-2.137l3.907-11.655h2.338l3.758 11.655h-2.205l-.818-2.805ZM115.41 63.277c1.136 0 1.905-.584 1.905-1.771 0-1.335-.703-1.67-1.905-1.67h-.868v3.441h.868Zm-3.006-5.076h3.641c2.071 0 3.473.934 3.473 3.072 0 1.52-.952 2.538-2.254 2.738v.051c.434.067.918.266 1.286 1.354l1.519 4.44h-2.271l-1.152-3.79c-.284-.919-.834-1.22-1.62-1.22h-.484v5.01h-2.138V58.201ZM129.771 69.606c-.434.233-1.469.417-2.521.417-3.541 0-5.36-2.588-5.36-5.993 0-3.407 1.819-5.996 5.293-5.996 1.185 0 2.154.317 2.588.484l-.117 1.92c-.434-.217-1.119-.634-2.204-.634-1.77 0-3.289 1.201-3.289 4.226 0 3.021 1.519 4.223 3.289 4.223 1.035 0 1.719-.251 2.204-.602l.117 1.955ZM132.209 58.201h2.138v4.743h3.457v-4.743h2.137v11.655h-2.137v-5.145h-3.457v5.145h-2.138V58.201ZM142.996 58.201h2.138v11.655h-2.138zM149.91 59.903h-2.605v-1.702h7.332v1.702h-2.59v9.953h-2.137v-9.953ZM156.789 58.201h6.129v1.702h-3.992v3.106h3.774v1.702h-3.774v3.441h4.159v1.704h-6.296V58.201ZM173.121 69.606c-.433.233-1.47.417-2.521.417-3.54 0-5.36-2.588-5.36-5.993 0-3.407 1.82-5.996 5.292-5.996 1.187 0 2.156.317 2.589.484l-.116 1.92c-.435-.217-1.119-.634-2.204-.634-1.771 0-3.289 1.201-3.289 4.226 0 3.021 1.518 4.223 3.289 4.223 1.035 0 1.719-.251 2.204-.602l.116 1.955ZM177.279 59.903h-2.606v-1.702h7.332v1.702h-2.589v9.953h-2.137v-9.953ZM184.158 58.201h6.129v1.702h-3.991v3.106h3.774v1.702h-3.774v3.441h4.159v1.704h-6.297V58.201ZM192.926 67.603a4.789 4.789 0 0 0 2.471.717c.934 0 1.77-.519 1.77-1.688 0-.835-.484-1.2-1.52-1.769l-1.084-.6c-1.153-.637-1.905-1.553-1.905-3.057 0-2.087 1.721-3.172 3.673-3.172 1.236 0 2.106.317 2.44.417l-.101 1.788c-.519-.201-1.203-.501-2.188-.501-1.068 0-1.62.566-1.62 1.368 0 .869.584 1.201 1.237 1.569l1.252.701c1.369.77 2.02 1.505 2.02 3.142 0 2.368-1.687 3.505-3.907 3.505-1.169 0-2.07-.167-2.655-.518l.117-1.902ZM12.861 74.096h6.128v1.703h-3.991v3.106h3.774v1.703h-3.774v3.44h4.159v1.703h-6.296V74.096ZM23.498 75.799h-2.605v-1.703h7.331v1.703h-2.589v9.952h-2.137v-9.952ZM37.758 84.116h.722c2.402 0 3.49-1.637 3.49-4.191 0-2.555-1.088-4.192-3.49-4.192h-.722v8.383Zm-2.134-10.02h3.037c3.641 0 5.577 1.972 5.577 5.829 0 3.922-2.338 5.826-5.577 5.826h-3.037V74.096ZM46.81 74.096h6.128v1.703h-3.99v3.106h3.776v1.703h-3.776v3.44h4.16v1.703H46.81V74.096ZM55.576 83.499a4.796 4.796 0 0 0 2.472.717c.934 0 1.771-.518 1.771-1.688 0-.834-.485-1.2-1.522-1.769l-1.083-.6c-1.152-.636-1.902-1.553-1.902-3.057 0-2.087 1.717-3.173 3.67-3.173 1.236 0 2.106.318 2.439.417l-.101 1.789c-.515-.201-1.2-.502-2.185-.502-1.069 0-1.621.566-1.621 1.369 0 .869.584 1.202 1.236 1.569l1.251.701c1.369.77 2.022 1.505 2.022 3.141 0 2.37-1.685 3.505-3.907 3.505-1.17 0-2.073-.167-2.656-.518l.116-1.901ZM70.01 74.096h2.137v11.655H70.01zM75.188 74.096h2.536l3.874 9.152h.032v-9.152h1.939v11.655h-2.555l-3.859-9.084h-.032v9.084h-1.935V74.096ZM91.233 79.223h3.776v6.094c-.601.317-1.638.601-3.156.601-3.74 0-5.729-2.539-5.729-5.993 0-3.458 1.989-5.996 5.729-5.996 1.334 0 2.388.301 2.838.502l-.117 1.919c-.684-.416-1.619-.717-2.689-.717-2.272 0-3.489 1.869-3.489 4.292 0 2.621 1.185 4.291 3.374 4.291.5 0 .949-.1 1.235-.217v-3.14h-1.772v-1.636ZM97.981 74.096h6.128v1.703h-3.99v3.106h3.772v1.703h-3.772v3.44h4.156v1.703h-6.294V74.096ZM106.881 74.096h2.54l3.874 9.152h.033v-9.152h1.935v11.655h-2.555l-3.856-9.084h-.032v9.084h-1.939V74.096ZM118.303 74.096h2.137v11.655h-2.137zM123.495 74.096h6.128v1.703h-3.99v3.106h3.776v1.703h-3.776v3.44h4.161v1.703h-6.299V74.096ZM134.45 74.096v7.548c0 1.937.583 2.572 1.837 2.572 1.218 0 1.818-.635 1.818-2.572v-7.548h2.139v7.548c0 3.072-1.768 4.274-3.957 4.274-2.203 0-3.975-1.202-3.975-4.274v-7.548h2.138ZM146.089 79.172c1.134 0 1.903-.585 1.903-1.77 0-1.334-.7-1.669-1.903-1.669h-.87v3.439h.87Zm-3.004-5.076h3.639c2.072 0 3.475.936 3.475 3.073 0 1.52-.953 2.538-2.254 2.738v.051c.431.066.916.265 1.283 1.353l1.521 4.44h-2.272l-1.152-3.79c-.283-.919-.834-1.218-1.62-1.218h-.486v5.008h-2.134V74.096ZM152.883 83.499a4.798 4.798 0 0 0 2.471.717c.936 0 1.773-.518 1.773-1.688 0-.834-.485-1.2-1.522-1.769l-1.084-.6c-1.152-.636-1.901-1.553-1.901-3.057 0-2.087 1.717-3.173 3.67-3.173 1.235 0 2.106.318 2.438.417l-.101 1.789c-.515-.201-1.2-.502-2.185-.502-1.069 0-1.619.566-1.619 1.369 0 .869.583 1.202 1.236 1.569l1.251.701c1.368.77 2.021 1.505 2.021 3.141 0 2.37-1.685 3.505-3.907 3.505-1.17 0-2.073-.167-2.656-.518l.115-1.901ZM161.418 80.159h3.859v1.704h-3.859zM175.194 85.5c-.434.235-1.47.418-2.521.418-3.541 0-5.36-2.587-5.36-5.993 0-3.407 1.819-5.996 5.294-5.996a7.38 7.38 0 0 1 2.587.485l-.116 1.919c-.434-.215-1.118-.633-2.206-.633-1.768 0-3.291 1.202-3.291 4.225 0 3.023 1.523 4.224 3.291 4.224 1.036 0 1.721-.25 2.206-.603l.116 1.954ZM181.809 84.282c1.35 0 2.438-1.152 2.438-4.357 0-3.207-1.088-4.359-2.438-4.359-1.353 0-2.44 1.152-2.44 4.359 0 3.205 1.087 4.357 2.44 4.357Zm0-10.353c2.42 0 4.641 1.804 4.641 5.996 0 4.191-2.221 5.993-4.641 5.993-2.422 0-4.643-1.802-4.643-5.993 0-4.192 2.221-5.996 4.643-5.996ZM189.006 74.096h2.539l3.874 9.152h.032v-9.152h1.935v11.655h-2.554l-3.856-9.084h-.033v9.084h-1.937V74.096ZM200.26 83.499a4.779 4.779 0 0 0 2.471.717c.936 0 1.769-.518 1.769-1.688 0-.834-.482-1.2-1.519-1.769l-1.085-.6c-1.153-.636-1.905-1.553-1.905-3.057 0-2.087 1.722-3.173 3.676-3.173 1.234 0 2.101.318 2.438.417l-.101 1.789c-.52-.201-1.203-.502-2.189-.502-1.07 0-1.62.566-1.62 1.369 0 .869.587 1.202 1.236 1.569l1.254.701c1.369.77 2.021 1.505 2.021 3.141 0 2.37-1.688 3.505-3.909 3.505-1.167 0-2.069-.167-2.653-.518l.116-1.901ZM209.326 74.096h6.128v1.703h-3.989v3.106h3.776v1.703h-3.776v3.44h4.159v1.703h-6.298V74.096ZM218.259 74.096h2.137v11.655h-2.137zM223.354 74.096h2.137v9.952h3.842v1.703h-5.979V74.096ZM231.286 83.499a4.78 4.78 0 0 0 2.473.717c.933 0 1.767-.518 1.767-1.688 0-.834-.482-1.2-1.519-1.769l-1.087-.6c-1.152-.636-1.901-1.553-1.901-3.057 0-2.087 1.721-3.173 3.673-3.173 1.237 0 2.101.318 2.44.417l-.103 1.789c-.517-.201-1.202-.502-2.188-.502-1.069 0-1.62.566-1.62 1.369 0 .869.588 1.202 1.235 1.569l1.255.701c1.37.77 2.021 1.505 2.021 3.141 0 2.37-1.688 3.505-3.909 3.505-1.167 0-2.069-.167-2.652-.518l.115-1.901Z" style="fill:#231f20;fill-rule:nonzero"/><path d="M11.102 47.801h227.007" style="fill:none;stroke:#fff;stroke-width:4.5px"/></svg>