<svg xmlns="http://www.w3.org/2000/svg" xml:space="preserve" width="3893.543" height="783.112" viewBox="0 0 3893.543 783.112"><defs><clipPath clipPathUnits="userSpaceOnUse" id="a"><path d="M0 2976.713h3260.128V0H0Z"/></clipPath></defs><g clip-path="url(#a)" transform="matrix(1.33333 0 0 -1.33333 -226.647 2384.696)"><path d="M0 0c0 73.668 55.287 128.956 128.379 128.956 58.921 0 105.153-35.132 120.115-88.699h-38.517c-14.546 31.695-45.207 51.056-81.602 51.056-50.722 0-88.65-39.676-88.65-91.313 0-51.594 38.385-91.311 88.65-91.311 36.353 0 66.182 19.318 81.263 52.35h39.35c-15.081-54.523-62.228-89.989-120.613-89.989C55.325-128.95 0-73.585 0 0" style="fill:#8d9262;fill-opacity:1;fill-rule:nonzero;stroke:none" transform="translate(1615.843 1440.79)"/><path d="M0 0c-44.869 0-78.025-28.231-86.068-71.248H85.527C77.177-27.271 43.733 0 .004 0Zm123.685-107.217H-86.961c6.114-45.761 40.165-75.823 86.965-75.823 34.184 0 61.684 15.983 76.927 42.669h41.019C97.04-191.339 53.594-221.1.004-221.1c-71.678 0-126.008 55.366-126.008 128.993 0 73.548 54.33 128.914 126.008 128.914 74.976 0 124.513-57.79 124.513-129.967 0-4.672-.416-9.385-.832-14.057" style="fill:#8d9262;fill-opacity:1;fill-rule:nonzero;stroke:none" transform="translate(2033.578 1532.94)"/><path d="M0 0c-44.868 0-78.023-28.231-86.068-71.248H85.527C77.178-27.271 43.735 0 .005 0Zm123.685-107.217H-86.96c6.113-45.761 40.165-75.823 86.965-75.823 34.185 0 61.684 15.983 76.926 42.669h41.02C97.04-191.339 53.596-221.1.005-221.1c-71.677 0-126.009 55.366-126.009 128.993 0 73.548 54.332 128.914 126.009 128.914 74.977 0 124.513-57.79 124.513-129.967 0-4.672-.416-9.385-.833-14.057" style="fill:#8d9262;fill-opacity:1;fill-rule:nonzero;stroke:none" transform="translate(2788.327 1532.94)"/><path d="M0 0c-33.626 0-51.947 18.404-51.947 51.655V175.98h77.493v35.136h-77.493v52.309h-.02v.024h-39.179l-.001-52.364h-38.752V175.98h39.054V50.401c0-53.566 32.767-86.37 85.835-86.37h32.007V0Z" style="fill:#8d9262;fill-opacity:1;fill-rule:nonzero;stroke:none" transform="translate(2593.286 1353.217)"/><path d="M0 0c-32.269 0-59.787-11.824-78.799-32.02v26.833h-44.828v-.221h-.067v-247.085h38.892v134.807c0 46.361 32.515 82.133 74.777 82.133 42.96 0 66.502-27.994 66.502-78.115v-138.825H95.37v148.009C95.37-44.101 58.688 0 0 0" style="fill:#8d9262;fill-opacity:1;fill-rule:nonzero;stroke:none" transform="translate(2324.394 1569.741)"/><path d="M0 0c-28.779 0-51.23-8.933-68.018-25.724v24.74h-44.827v-.307h-.063v-247.085h38.891v134.25c0 48.008 25.454 77.318 70.677 77.318h25.226V0Z" style="fill:#8d9262;fill-opacity:1;fill-rule:nonzero;stroke:none" transform="translate(3068.257 1565.624)"/><path d="m0 0 .239-.683.088-.333C.872-2.298 5.771-12.598 25.193-22.88c.694.514 1.077 1.442.715 2.391C20.36-5.89 18.375 8.407 21.852 20.784c.409 1.458-.776 2.862-2.274 2.644-6.297-.921-14.048-2.116-21.207-3.548C-2.432 14.527-2.523 7.507 0 0" style="fill:#8d9262;fill-opacity:1;fill-rule:nonzero;stroke:none" transform="translate(486.764 1751.415)"/><path d="M0 0s-32.478 61.631 17.957 117.72c24.599 27.356 64.291 36.69 91.439 39.281 22.533 2.149 36.978 8.449 48.466 16.395 23.523 16.267 30.7 31.699 31.809 33.491 1.108 1.792-.115 3.79-2.67 3.925-2.556.133-70.232-1.242-119.648 32.229-38.201 25.874-21.261 64.578-20.303 66.652.959 2.074-1.071 2.814-2.83 2.006-1.76-.807-76.163-31.252-111.504-111.731-33.587-76.485-18.29-142.659-1.359-181.117C-34.212 18.937-3.891 2.374 0 0" style="fill:#8d9262;fill-opacity:1;fill-rule:nonzero;stroke:none" transform="translate(421.265 1476.503)"/><path d="M0 0c22.767-21.88 58.861-47.96 101.534-47.96 30.84 0 54.209 14.258 76.809 28.046l12.045 7.35C187.761 93.233 100.9 117.972 64.597 115.533c-24.517-1.646-30.026 22.008-23.209 33.315 0 0-92.55-25.943-43.214-147.13C-1.216 1.148-.604.581 0 0" style="fill:#8d9262;fill-opacity:1;fill-rule:evenodd;stroke:none" transform="translate(448.214 1455.074)"/><path d="M0 0c-7.453 2.828-14.295 5.927-21.063 8.994-7.673 3.478-15.607 7.074-24.016 10.059-24.735 8.779-51.247 13.231-78.799 13.231-20.601 0-39.576-2.528-55.269-5.981a197.634 197.634 0 0 0 7.881 19.322c17.1 36.266 42.879 62.751 76.62 78.719 24.431 11.562 47.286 17.426 67.928 17.426 5.447 0 10.769-.42 15.965-1.245C-.711 119.061 14.839 74.91 0 0m172.597 73.65c-47.953 0-88.191 27.398-115.392 53.539-27.129 26.072-77.494 54.472-160.408 15.233C-195.981 98.513-207.166-3.832-207.166-3.832-192.534 4.149-123.598 25.7-51.77.205-18.152-11.727 8.753-35.211 84.684-31.054c53.948 2.953 162.501 42.898 175.137 135.677-24.164-14.743-50.795-30.973-87.224-30.973" style="fill:#8d9262;fill-opacity:1;fill-rule:evenodd;stroke:none" transform="translate(377.151 1313.464)"/><path d="M0 0c0 31.994-23.102 55.748-54.532 55.748-31.431 0-54.532-23.754-54.532-55.748 0-32.004 23.101-55.757 54.532-55.757C-23.299-55.757 0-32.004 0 0m84.426-.01c0-75.894-53.247-130.041-127.734-130.041-22.029 0-42.196 5.79-59.388 16.175v-125.902h-82.95v361.569h57.062l10.508-19.347c20.039 17.322 45.817 27.33 74.768 27.33 74.487 0 127.734-53.889 127.734-129.784" style="fill:#8d9262;fill-opacity:1;fill-rule:nonzero;stroke:none" transform="translate(908.794 1440.966)"/><path d="M0 0c0 31.619-23.102 55.362-54.532 55.362-31.618 0-54.532-23.743-54.532-55.362 0-31.816 23.106-55.56 54.532-55.56C-23.102-55.56 0-31.816 0 0m79.808 121.988v-243.6H14.939l-7.182 17.231c-19.949-16.165-45.215-25.473-73.509-25.473-74.486 0-127.733 54.345-127.733 130.051 0 75.441 53.247 129.143 127.733 129.143 28.694 0 54.32-9.585 74.438-26.185l8.585 18.843z" style="fill:#8d9262;fill-opacity:1;fill-rule:nonzero;stroke:none" transform="translate(1208.462 1441.025)"/><path d="M1341.166 1680.725h83.908v-361.569h-83.908zM1477.862 1680.725h83.907v-361.569h-83.907z" style="fill:#8d9262;fill-opacity:1;fill-rule:nonzero;stroke:none"/></g></svg>