<?xml version="1.0" encoding="UTF-8" standalone="no"?>
<!-- Created with Inkscape (http://www.inkscape.org/) -->

<svg
   xmlns:dc="http://purl.org/dc/elements/1.1/"
   xmlns:cc="http://creativecommons.org/ns#"
   xmlns:rdf="http://www.w3.org/1999/02/22-rdf-syntax-ns#"
   xmlns:svg="http://www.w3.org/2000/svg"
   xmlns="http://www.w3.org/2000/svg"
   xmlns:sodipodi="http://sodipodi.sourceforge.net/DTD/sodipodi-0.dtd"
   xmlns:inkscape="http://www.inkscape.org/namespaces/inkscape"
   version="1.1"
   id="svg2"
   xml:space="preserve"
   width="3893.5432"
   height="783.11243"
   viewBox="0 0 3893.5432 783.11243"
   sodipodi:docname="pallcenter.svg"
   inkscape:version="0.92.5 (2060ec1f9f, 2020-04-08)"><metadata
     id="metadata8"><rdf:RDF><cc:Work
         rdf:about=""><dc:format>image/svg+xml</dc:format><dc:type
           rdf:resource="http://purl.org/dc/dcmitype/StillImage" /><dc:title></dc:title></cc:Work></rdf:RDF></metadata><defs
     id="defs6"><clipPath
       clipPathUnits="userSpaceOnUse"
       id="clipPath18"><path
         d="M 0,2976.713 H 3260.128 V 0 H 0 Z"
         id="path16"
         inkscape:connector-curvature="0" /></clipPath></defs><sodipodi:namedview
     pagecolor="#ffffff"
     bordercolor="#666666"
     borderopacity="1"
     objecttolerance="10"
     gridtolerance="10"
     guidetolerance="10"
     inkscape:pageopacity="0"
     inkscape:pageshadow="2"
     inkscape:window-width="1375"
     inkscape:window-height="747"
     id="namedview4"
     showgrid="false"
     inkscape:zoom="0.059461619"
     inkscape:cx="1946.7727"
     inkscape:cy="382.88975"
     inkscape:window-x="0"
     inkscape:window-y="0"
     inkscape:window-maximized="0"
     inkscape:current-layer="g10" /><g
     id="g10"
     inkscape:groupmode="layer"
     inkscape:label="PAL_LOGO_CENTER_CMJN_corporate"
     transform="matrix(1.3333333,0,0,-1.3333333,-226.64719,2384.696)"><g
       id="g12"><g
         id="g14"
         clip-path="url(#clipPath18)"><g
           id="g20"
           transform="translate(1615.8428,1440.7899)"><path
             d="m 0,0 c 0,73.668 55.287,128.956 128.379,128.956 58.921,0 105.153,-35.132 120.115,-88.699 H 209.977 C 195.431,71.952 164.77,91.313 128.375,91.313 77.653,91.313 39.725,51.637 39.725,0 c 0,-51.594 38.385,-91.311 88.65,-91.311 36.353,0 66.182,19.318 81.263,52.35 h 39.35 C 233.907,-93.484 186.76,-128.95 128.375,-128.95 55.325,-128.95 0,-73.585 0,0"
             style="fill:#8d9262;fill-opacity:1;fill-rule:nonzero;stroke:none"
             id="path22"
             inkscape:connector-curvature="0" /></g><g
           id="g24"
           transform="translate(2033.5781,1532.9393)"><path
             d="M 0,0 C -44.869,0 -78.025,-28.231 -86.068,-71.248 H 85.527 C 77.177,-27.271 43.733,0 0.004,0 Z M 123.685,-107.217 H -86.961 c 6.114,-45.761 40.165,-75.823 86.965,-75.823 34.184,0 61.684,15.983 76.927,42.669 H 117.95 C 97.04,-191.339 53.594,-221.1 0.004,-221.1 c -71.678,0 -126.008,55.366 -126.008,128.993 0,73.548 54.33,128.914 126.008,128.914 74.976,0 124.513,-57.79 124.513,-129.967 0,-4.672 -0.416,-9.385 -0.832,-14.057"
             style="fill:#8d9262;fill-opacity:1;fill-rule:nonzero;stroke:none"
             id="path26"
             inkscape:connector-curvature="0" /></g><g
           id="g28"
           transform="translate(2788.3271,1532.9393)"><path
             d="M 0,0 C -44.868,0 -78.023,-28.231 -86.068,-71.248 H 85.527 C 77.178,-27.271 43.735,0 0.005,0 Z M 123.685,-107.217 H -86.96 c 6.113,-45.761 40.165,-75.823 86.965,-75.823 34.185,0 61.684,15.983 76.926,42.669 h 41.02 C 97.04,-191.339 53.596,-221.1 0.005,-221.1 c -71.677,0 -126.009,55.366 -126.009,128.993 0,73.548 54.332,128.914 126.009,128.914 74.977,0 124.513,-57.79 124.513,-129.967 0,-4.672 -0.416,-9.385 -0.833,-14.057"
             style="fill:#8d9262;fill-opacity:1;fill-rule:nonzero;stroke:none"
             id="path30"
             inkscape:connector-curvature="0" /></g><g
           id="g32"
           transform="translate(2593.2861,1353.2167)"><path
             d="M 0,0 C -33.626,0 -51.947,18.404 -51.947,51.655 V 175.98 h 77.493 v 35.136 h -77.493 v 52.309 h -0.02 v 0.024 h -39.179 l -0.001,-52.364 h -38.752 V 175.98 h 39.054 V 50.401 c 0,-53.566 32.767,-86.37 85.835,-86.37 H 26.997 V 0 Z"
             style="fill:#8d9262;fill-opacity:1;fill-rule:nonzero;stroke:none"
             id="path34"
             inkscape:connector-curvature="0" /></g><g
           id="g36"
           transform="translate(2324.3945,1569.7411)"><path
             d="m 0,0 c -32.269,0 -59.787,-11.824 -78.799,-32.02 v 26.833 h -44.828 v -0.221 h -0.067 v -247.085 h 38.892 v 134.807 c 0,46.361 32.515,82.133 74.777,82.133 42.96,0 66.502,-27.994 66.502,-78.115 V -252.493 H 95.37 v 148.009 C 95.37,-44.101 58.688,0 0,0"
             style="fill:#8d9262;fill-opacity:1;fill-rule:nonzero;stroke:none"
             id="path38"
             inkscape:connector-curvature="0" /></g><g
           id="g40"
           transform="translate(3068.2568,1565.6239)"><path
             d="m 0,0 c -28.779,0 -51.23,-8.933 -68.018,-25.724 v 24.74 h -44.827 v -0.307 h -0.063 v -247.085 h 38.891 v 134.25 c 0,48.008 25.454,77.318 70.677,77.318 H 21.886 V 0 Z"
             style="fill:#8d9262;fill-opacity:1;fill-rule:nonzero;stroke:none"
             id="path42"
             inkscape:connector-curvature="0" /></g><g
           id="g44"
           transform="translate(486.7637,1751.4149)"><path
             d="m 0,0 0.239,-0.683 0.088,-0.333 c 0.545,-1.282 5.444,-11.582 24.866,-21.864 0.694,0.514 1.077,1.442 0.715,2.391 -5.548,14.599 -7.533,28.896 -4.056,41.273 0.409,1.458 -0.776,2.862 -2.274,2.644 C 13.281,22.507 5.53,21.312 -1.629,19.88 -2.432,14.527 -2.523,7.507 0,0"
             style="fill:#8d9262;fill-opacity:1;fill-rule:nonzero;stroke:none"
             id="path46"
             inkscape:connector-curvature="0" /></g><g
           id="g48"
           transform="translate(421.2646,1476.5028)"><path
             d="m 0,0 c 0,0 -32.478,61.631 17.957,117.72 24.599,27.356 64.291,36.69 91.439,39.281 22.533,2.149 36.978,8.449 48.466,16.395 23.523,16.267 30.7,31.699 31.809,33.491 1.108,1.792 -0.115,3.79 -2.67,3.925 -2.556,0.133 -70.232,-1.242 -119.648,32.229 -38.201,25.874 -21.261,64.578 -20.303,66.652 0.959,2.074 -1.071,2.814 -2.83,2.006 C 42.46,310.892 -31.943,280.447 -67.284,199.968 -100.871,123.483 -85.574,57.309 -68.643,18.851 -34.212,18.937 -3.891,2.374 0,0"
             style="fill:#8d9262;fill-opacity:1;fill-rule:nonzero;stroke:none"
             id="path50"
             inkscape:connector-curvature="0" /></g><g
           id="g52"
           transform="translate(448.2139,1455.0741)"><path
             d="m 0,0 c 22.767,-21.88 58.861,-47.96 101.534,-47.96 30.84,0 54.209,14.258 76.809,28.046 l 12.045,7.35 C 187.761,93.233 100.9,117.972 64.597,115.533 40.08,113.887 34.571,137.541 41.388,148.848 c 0,0 -92.55,-25.943 -43.214,-147.13 C -1.216,1.148 -0.604,0.581 0,0"
             style="fill:#8d9262;fill-opacity:1;fill-rule:evenodd;stroke:none"
             id="path54"
             inkscape:connector-curvature="0" /></g><g
           id="g56"
           transform="translate(377.1514,1313.4637)"><path
             d="m 0,0 c -7.453,2.828 -14.295,5.927 -21.063,8.994 -7.673,3.478 -15.607,7.074 -24.016,10.059 -24.735,8.779 -51.247,13.231 -78.799,13.231 -20.601,0 -39.576,-2.528 -55.269,-5.981 2.087,5.999 4.679,12.532 7.881,19.322 17.1,36.266 42.879,62.751 76.62,78.719 24.431,11.562 47.286,17.426 67.928,17.426 5.447,0 10.769,-0.42 15.965,-1.245 C -0.711,119.061 14.839,74.91 0,0 m 172.597,73.65 c -47.953,0 -88.191,27.398 -115.392,53.539 -27.129,26.072 -77.494,54.472 -160.408,15.233 C -195.981,98.513 -207.166,-3.832 -207.166,-3.832 -192.534,4.149 -123.598,25.7 -51.77,0.205 -18.152,-11.727 8.753,-35.211 84.684,-31.054 138.632,-28.101 247.185,11.844 259.821,104.623 235.657,89.88 209.026,73.65 172.597,73.65"
             style="fill:#8d9262;fill-opacity:1;fill-rule:evenodd;stroke:none"
             id="path58"
             inkscape:connector-curvature="0" /></g><g
           id="g60"
           transform="translate(908.7939,1440.9657)"><path
             d="m 0,0 c 0,31.994 -23.102,55.748 -54.532,55.748 -31.431,0 -54.532,-23.754 -54.532,-55.748 0,-32.004 23.101,-55.757 54.532,-55.757 C -23.299,-55.757 0,-32.004 0,0 m 84.426,-0.01 c 0,-75.894 -53.247,-130.041 -127.734,-130.041 -22.029,0 -42.196,5.79 -59.388,16.175 v -125.902 h -82.95 v 361.569 h 57.062 l 10.508,-19.347 c 20.039,17.322 45.817,27.33 74.768,27.33 74.487,0 127.734,-53.889 127.734,-129.784"
             style="fill:#8d9262;fill-opacity:1;fill-rule:nonzero;stroke:none"
             id="path62"
             inkscape:connector-curvature="0" /></g><g
           id="g64"
           transform="translate(1208.4619,1441.0253)"><path
             d="m 0,0 c 0,31.619 -23.102,55.362 -54.532,55.362 -31.618,0 -54.532,-23.743 -54.532,-55.362 0,-31.816 23.106,-55.56 54.532,-55.56 C -23.102,-55.56 0,-31.816 0,0 m 79.808,121.988 v -243.6 H 14.939 l -7.182,17.231 c -19.949,-16.165 -45.215,-25.473 -73.509,-25.473 -74.486,0 -127.733,54.345 -127.733,130.051 0,75.441 53.247,129.143 127.733,129.143 28.694,0 54.32,-9.585 74.438,-26.185 l 8.585,18.843 z"
             style="fill:#8d9262;fill-opacity:1;fill-rule:nonzero;stroke:none"
             id="path66"
             inkscape:connector-curvature="0" /></g><path
           d="m 1341.166,1680.725 h 83.908 v -361.569 h -83.908 z"
           style="fill:#8d9262;fill-opacity:1;fill-rule:nonzero;stroke:none"
           id="path68"
           inkscape:connector-curvature="0" /><path
           d="m 1477.862,1680.725 h 83.907 v -361.569 h -83.907 z"
           style="fill:#8d9262;fill-opacity:1;fill-rule:nonzero;stroke:none"
           id="path70"
           inkscape:connector-curvature="0" /></g></g></g></svg>