<svg viewBox="0 0 251 53" xmlns="http://www.w3.org/2000/svg" xml:space="preserve" style="fill-rule:evenodd;clip-rule:evenodd;stroke-linejoin:round;stroke-miterlimit:2"><path d="M182.505 48.37c0 1.579 1.335 2.497 3.466 2.497 2.498 0 3.8-.896 3.8-2.417 0-.761-.365-1.791-2.12-2.035l-2.108-.298c-.655-.09-1.071-.325-1.071-.895 0-.673.755-1.011 1.435-1.011 1.143 0 1.806.347 1.868 1.306h1.649c-.049-1.49-1.212-2.394-3.363-2.394-1.713 0-3.302.682-3.302 2.383 0 .969.642 1.795 2.589 2.06l1.518.203c.816.111 1.195.357 1.195.886 0 .532-.501 1.122-1.868 1.122-1.305 0-1.947-.529-2.037-1.407h-1.651ZM191.195 43.315v7.359h1.488v-6.319h.02l2.946 6.319h2.018l2.874-6.319h.021v6.319h1.649v-7.359h-2.75l-2.731 5.992-2.782-5.992h-2.753ZM203.634 48.37c0 1.579 1.335 2.497 3.465 2.497 2.496 0 3.801-.896 3.801-2.417 0-.761-.367-1.791-2.121-2.035l-2.107-.298c-.652-.09-1.073-.325-1.073-.895 0-.673.757-1.011 1.438-1.011 1.143 0 1.805.347 1.865 1.306h1.652c-.05-1.49-1.213-2.394-3.363-2.394-1.713 0-3.304.682-3.304 2.383 0 .969.643 1.795 2.59 2.06l1.518.203c.817.111 1.192.357 1.192.886 0 .532-.498 1.122-1.865 1.122-1.302 0-1.946-.529-2.037-1.407h-1.651Z" style="fill:#fff;fill-rule:nonzero"/><path d="M222.043 46.821c0-.355.02-.979.041-1.263h-1.467l-.063.703c-.478-.54-1.139-.897-2.14-.897-1.619 0-2.79 1.02-2.79 2.659 0 1.364 1.007 2.579 2.811 2.579.685 0 1.579-.275 2.038-.897h.021v.693c0 .928-.632 1.398-1.762 1.398-.724 0-1.286-.267-1.296-.765h-1.549c.061 1.264 1.274 1.682 2.876 1.682 2.058 0 3.28-.663 3.28-2.335v-3.557Zm-4.77 1.161c0-.937.57-1.639 1.61-1.639 1.041 0 1.611.702 1.611 1.639 0 .94-.57 1.642-1.611 1.642-1.04 0-1.61-.702-1.61-1.642" style="fill:#fff"/><path d="M223.599 50.673h1.551v-2.068c0-1.407.671-1.947 1.925-1.947a4.832 4.832 0 0 1 .724.06v-1.161a4.993 4.993 0 0 0-.999-.103c-1.192 0-1.539.693-1.691 1.04h-.022c0-.316-.019-.621-.04-.937h-1.489c.02.346.041.793.041 1.284v3.832Z" style="fill:#fff;fill-rule:nonzero"/><path d="M231.604 45.363c-2.599 0-3.333 1.346-3.333 2.753 0 1.406.734 2.751 3.333 2.751s3.334-1.345 3.334-2.751c0-1.407-.735-2.753-3.334-2.753m0 .979c1.172 0 1.723.772 1.723 1.774 0 .997-.551 1.773-1.723 1.773-1.171 0-1.721-.776-1.721-1.773 0-1.002.55-1.774 1.721-1.774" style="fill:#fff"/><path d="M242.15 45.558h-1.549v2.465c0 1.244-.785 1.806-1.59 1.806-.745 0-1.325-.297-1.325-1.561v-2.71h-1.551v3.148c0 1.662 1.428 2.161 2.345 2.161.937 0 1.643-.316 2.162-1.038h.02c0 .283.019.558.04.845h1.489c0-.327-.041-.765-.041-1.213v-3.903Z" style="fill:#fff;fill-rule:nonzero"/><path d="M245.154 48.116c0-.971.653-1.773 1.63-1.773.979 0 1.63.802 1.63 1.773 0 .967-.651 1.773-1.63 1.773-.977 0-1.63-.806-1.63-1.773m-1.549 4.515h1.549v-2.66h.02c.512.693 1.327.896 2.089.896 1.001 0 2.763-.499 2.763-2.792 0-1.447-.927-2.712-2.823-2.712-.816 0-1.651.235-2.09.898h-.02c0-.234-.019-.469-.042-.703h-1.487c.021.284.041.785.041 1.202v5.871Z" style="fill:#fff"/><path d="M182.505 48.37c0 1.579 1.335 2.497 3.466 2.497 2.498 0 3.8-.896 3.8-2.417 0-.761-.365-1.791-2.12-2.035l-2.108-.298c-.655-.09-1.071-.325-1.071-.895 0-.673.755-1.011 1.435-1.011 1.143 0 1.806.347 1.868 1.306h1.649c-.049-1.49-1.212-2.394-3.363-2.394-1.713 0-3.302.682-3.302 2.383 0 .969.642 1.795 2.589 2.06l1.518.203c.816.111 1.195.357 1.195.886 0 .532-.501 1.122-1.868 1.122-1.305 0-1.947-.529-2.037-1.407h-1.651ZM191.195 43.315v7.359h1.488v-6.319h.02l2.946 6.319h2.018l2.874-6.319h.021v6.319h1.649v-7.359h-2.75l-2.731 5.992-2.782-5.992h-2.753ZM203.634 48.37c0 1.579 1.335 2.497 3.465 2.497 2.496 0 3.801-.896 3.801-2.417 0-.761-.367-1.791-2.121-2.035l-2.107-.298c-.652-.09-1.073-.325-1.073-.895 0-.673.757-1.011 1.438-1.011 1.143 0 1.805.347 1.865 1.306h1.652c-.05-1.49-1.213-2.394-3.363-2.394-1.713 0-3.304.682-3.304 2.383 0 .969.643 1.795 2.59 2.06l1.518.203c.817.111 1.192.357 1.192.886 0 .532-.498 1.122-1.865 1.122-1.302 0-1.946-.529-2.037-1.407h-1.651ZM222.043 46.821c0-.355.02-.979.041-1.263h-1.467l-.063.703c-.478-.54-1.139-.897-2.14-.897-1.619 0-2.79 1.02-2.79 2.659 0 1.364 1.007 2.579 2.811 2.579.685 0 1.579-.275 2.038-.897h.021v.693c0 .928-.632 1.398-1.762 1.398-.724 0-1.286-.267-1.296-.765h-1.549c.061 1.264 1.274 1.682 2.876 1.682 2.058 0 3.28-.663 3.28-2.335v-3.557Zm-4.77 1.161c0-.937.57-1.639 1.61-1.639 1.041 0 1.611.702 1.611 1.639 0 .94-.57 1.642-1.611 1.642-1.04 0-1.61-.702-1.61-1.642M223.599 50.673h1.551v-2.068c0-1.407.671-1.947 1.925-1.947a4.832 4.832 0 0 1 .724.06v-1.161a4.993 4.993 0 0 0-.999-.103c-1.192 0-1.539.693-1.691 1.04h-.022c0-.316-.019-.621-.04-.937h-1.489c.02.346.041.793.041 1.284v3.832ZM231.604 45.363c-2.599 0-3.333 1.346-3.333 2.753 0 1.406.734 2.751 3.333 2.751s3.334-1.345 3.334-2.751c0-1.407-.735-2.753-3.334-2.753m0 .979c1.172 0 1.723.772 1.723 1.774 0 .997-.551 1.773-1.723 1.773-1.171 0-1.721-.776-1.721-1.773 0-1.002.55-1.774 1.721-1.774M242.15 45.558h-1.549v2.465c0 1.244-.785 1.806-1.59 1.806-.745 0-1.325-.297-1.325-1.561v-2.71h-1.551v3.148c0 1.662 1.428 2.161 2.345 2.161.937 0 1.643-.316 2.162-1.038h.02c0 .283.019.558.04.845h1.489c0-.327-.041-.765-.041-1.213v-3.903ZM245.154 48.116c0-.971.653-1.773 1.63-1.773.979 0 1.63.802 1.63 1.773 0 .967-.651 1.773-1.63 1.773-.977 0-1.63-.806-1.63-1.773m-1.549 4.515h1.549v-2.66h.02c.512.693 1.327.896 2.089.896 1.001 0 2.763-.499 2.763-2.792 0-1.447-.927-2.712-2.823-2.712-.816 0-1.651.235-2.09.898h-.02c0-.234-.019-.469-.042-.703h-1.487c.021.284.041.785.041 1.202v5.871Z" style="fill-rule:nonzero"/><path d="M59.435 33.27c0-.543.446-.989.989-.989h188.612c.545 0 .989.446.989.989v2.135a.992.992 0 0 1-.989.989H60.424a.993.993 0 0 1-.989-.989V33.27Z" style="fill:#e30613;fill-rule:nonzero"/><path d="m160.759 15.242 2.414-9.502 1.325-4.885h6.514l-7.344 24.222c0 .033-5.159 0-5.192 0l-2.776-7.974c-1.06 2.626-1.953 5.316-2.879 7.974h-5.06L140.22.855h6.583c1.356 4.618 2.546 9.371 3.868 13.989L155.733.125l5.026 15.117ZM83.865.201l11.047 24.92h-6.813c-1.39-3.588-2.878-7.41-4.069-11.099l-.131.068c-1.257 3.72-2.646 7.342-4.135 10.964l-.099.067H72.95L83.865.201ZM218.109 6.737c0-.034-4.829 0-4.86 0V.855h16.205v5.882h-4.731v18.372h-6.614V6.737ZM130.663 25.077h-13.594V.855h6.483v18.639h7.111v5.583ZM231.106.856V25.11c.032.034 6.549 0 6.549 0l-.032-9.568h5.983v9.568h6.42V.856h-6.42v9.106h-6.116c-.034 0 .033-9.074 0-9.106h-6.384ZM113.598 15.94c.066 3.455-1.323 6.812-4.432 8.44-3.009 1.628-7.308 1.395-10.319-.034-3.142-1.528-4.596-4.746-4.564-8.241V.856l6.462.006-.013 15.443c.099 1.43.529 2.66 1.754 3.289 1.058.367 2.018.335 2.778-.031 1.356-.499 1.72-1.828 1.852-3.19V.856h6.482V15.94ZM191.585 15.983c.066 3.454-1.325 6.809-4.465 8.436-2.976 1.629-7.276 1.396-10.283-.033-3.142-1.526-4.762-4.783-4.598-8.238V.904h6.449v15.443c.131 1.429.562 2.659 1.784 3.292 1.061.364 2.019.331 2.779-.036 1.356-.499 1.72-1.827 1.851-3.188V.904h6.449l.034 15.079ZM206.07 9.096c0-.698-.164-1.363-.594-1.828-.993-1.195-2.614-.93-4.169-.963v2.791l.034 2.791c1.521-.034 3.176.23 4.167-.964.398-.465.562-1.13.562-1.827m-4.729 7.174c.032.036-.067 8.817-.034 8.849 0 0-6.184.068-6.249 0V.855l9.957.069c2.975.068 5.753 1.692 6.776 4.583.958 2.624.696 6.115-1.291 8.141-.825.895-1.786 1.227-2.775 1.56l7.408 9.911-7.641-.01-6.151-8.839ZM65.793 11.776V6.333l1.899-.013c1.514-.01 2.837 1.204 2.754 2.775-.092 1.756-1.219 2.681-2.846 2.681h-1.807ZM59.656.856c4.364-.011 9.031.013 10.588.258 1.994.313 3.866 1.537 5.122 3.365 1.653 2.424 1.72 6.28.331 8.87-1.919 3.722-6.052 3.953-9.922 3.922v7.839h-6.119V.856Z"/><path style="fill:#1d1d1b" d="M.069.845h52.522v35.414H.069z"/><path style="fill:#fff" d="M.714 1.505h51.232v34.123H.714z"/><path d="M2.282 2.981h31.125L2.282 34.108V2.981Z" style="fill:#e30613"/><path d="M19.297 19.075 35.529 2.981h14.986L19.297 34.108V19.075Z" style="fill:#0075bf"/></svg>