<?xml version="1.0" encoding="UTF-8" standalone="no"?><!DOCTYPE svg PUBLIC "-//W3C//DTD SVG 1.1//EN" "http://www.w3.org/Graphics/SVG/1.1/DTD/svg11.dtd"><svg width="100%" height="100%" viewBox="0 0 251 53" version="1.1" xmlns="http://www.w3.org/2000/svg" xmlns:xlink="http://www.w3.org/1999/xlink" xml:space="preserve" xmlns:serif="http://www.serif.com/" style="fill-rule:evenodd;clip-rule:evenodd;stroke-linejoin:round;stroke-miterlimit:2;"><g id="logo"><path d="M182.505,48.37c0,1.579 1.335,2.497 3.466,2.497c2.498,0 3.8,-0.896 3.8,-2.417c0,-0.761 -0.365,-1.791 -2.12,-2.035l-2.108,-0.298c-0.655,-0.09 -1.071,-0.325 -1.071,-0.895c0,-0.673 0.755,-1.011 1.435,-1.011c1.143,0 1.806,0.347 1.868,1.306l1.649,0c-0.049,-1.49 -1.212,-2.394 -3.363,-2.394c-1.713,0 -3.302,0.682 -3.302,2.383c0,0.969 0.642,1.795 2.589,2.06l1.518,0.203c0.816,0.111 1.195,0.357 1.195,0.886c0,0.532 -0.501,1.122 -1.868,1.122c-1.305,0 -1.947,-0.529 -2.037,-1.407l-1.651,0Z" style="fill:#fff;fill-rule:nonzero;"/><path d="M191.195,43.315l0,7.359l1.488,0l0,-6.319l0.02,0l2.946,6.319l2.018,0l2.874,-6.319l0.021,0l0,6.319l1.649,0l0,-7.359l-2.75,0l-2.731,5.992l-2.782,-5.992l-2.753,0Z" style="fill:#fff;fill-rule:nonzero;"/><path d="M203.634,48.37c0,1.579 1.335,2.497 3.465,2.497c2.496,0 3.801,-0.896 3.801,-2.417c0,-0.761 -0.367,-1.791 -2.121,-2.035l-2.107,-0.298c-0.652,-0.09 -1.073,-0.325 -1.073,-0.895c0,-0.673 0.757,-1.011 1.438,-1.011c1.143,0 1.805,0.347 1.865,1.306l1.652,0c-0.05,-1.49 -1.213,-2.394 -3.363,-2.394c-1.713,0 -3.304,0.682 -3.304,2.383c0,0.969 0.643,1.795 2.59,2.06l1.518,0.203c0.817,0.111 1.192,0.357 1.192,0.886c0,0.532 -0.498,1.122 -1.865,1.122c-1.302,0 -1.946,-0.529 -2.037,-1.407l-1.651,0Z" style="fill:#fff;fill-rule:nonzero;"/><path d="M222.043,46.821c0,-0.355 0.02,-0.979 0.041,-1.263l-1.467,0l-0.063,0.703c-0.478,-0.54 -1.139,-0.897 -2.14,-0.897c-1.619,0 -2.79,1.02 -2.79,2.659c0,1.364 1.007,2.579 2.811,2.579c0.685,0 1.579,-0.275 2.038,-0.897l0.021,0l0,0.693c0,0.928 -0.632,1.398 -1.762,1.398c-0.724,0 -1.286,-0.267 -1.296,-0.765l-1.549,0c0.061,1.264 1.274,1.682 2.876,1.682c2.058,0 3.28,-0.663 3.28,-2.335l0,-3.557Zm-4.77,1.161c0,-0.937 0.57,-1.639 1.61,-1.639c1.041,0 1.611,0.702 1.611,1.639c0,0.94 -0.57,1.642 -1.611,1.642c-1.04,0 -1.61,-0.702 -1.61,-1.642" style="fill:#fff;"/><path d="M223.599,50.673l1.551,0l0,-2.068c0,-1.407 0.671,-1.947 1.925,-1.947c0.151,0 0.287,0.01 0.398,0.019c0.122,0.01 0.234,0.022 0.326,0.041l0,-1.161c-0.367,-0.072 -0.673,-0.103 -0.999,-0.103c-1.192,0 -1.539,0.693 -1.691,1.04l-0.022,0c0,-0.316 -0.019,-0.621 -0.04,-0.937l-1.489,0c0.02,0.346 0.041,0.793 0.041,1.284l0,3.832Z" style="fill:#fff;fill-rule:nonzero;"/><path d="M231.604,45.363c-2.599,0 -3.333,1.346 -3.333,2.753c0,1.406 0.734,2.751 3.333,2.751c2.599,0 3.334,-1.345 3.334,-2.751c0,-1.407 -0.735,-2.753 -3.334,-2.753m0,0.979c1.172,0 1.723,0.772 1.723,1.774c0,0.997 -0.551,1.773 -1.723,1.773c-1.171,0 -1.721,-0.776 -1.721,-1.773c0,-1.002 0.55,-1.774 1.721,-1.774" style="fill:#fff;"/><path d="M242.15,45.558l-1.549,0l0,2.465c0,1.244 -0.785,1.806 -1.59,1.806c-0.745,0 -1.325,-0.297 -1.325,-1.561l0,-2.71l-1.551,0l0,3.148c0,1.662 1.428,2.161 2.345,2.161c0.937,0 1.643,-0.316 2.162,-1.038l0.02,0c0,0.283 0.019,0.558 0.04,0.845l1.489,0c0,-0.327 -0.041,-0.765 -0.041,-1.213l0,-3.903Z" style="fill:#fff;fill-rule:nonzero;"/><path d="M245.154,48.116c0,-0.971 0.653,-1.773 1.63,-1.773c0.979,0 1.63,0.802 1.63,1.773c0,0.967 -0.651,1.773 -1.63,1.773c-0.977,0 -1.63,-0.806 -1.63,-1.773m-1.549,4.515l1.549,0l0,-2.66l0.02,0c0.512,0.693 1.327,0.896 2.089,0.896c1.001,0 2.763,-0.499 2.763,-2.792c0,-1.447 -0.927,-2.712 -2.823,-2.712c-0.816,0 -1.651,0.235 -2.09,0.898l-0.02,0c0,-0.234 -0.019,-0.469 -0.042,-0.703l-1.487,0c0.021,0.284 0.041,0.785 0.041,1.202l0,5.871Z" style="fill:#fff;"/><path d="M182.505,48.37c0,1.579 1.335,2.497 3.466,2.497c2.498,0 3.8,-0.896 3.8,-2.417c0,-0.761 -0.365,-1.791 -2.12,-2.035l-2.108,-0.298c-0.655,-0.09 -1.071,-0.325 -1.071,-0.895c0,-0.673 0.755,-1.011 1.435,-1.011c1.143,0 1.806,0.347 1.868,1.306l1.649,0c-0.049,-1.49 -1.212,-2.394 -3.363,-2.394c-1.713,0 -3.302,0.682 -3.302,2.383c0,0.969 0.642,1.795 2.589,2.06l1.518,0.203c0.816,0.111 1.195,0.357 1.195,0.886c0,0.532 -0.501,1.122 -1.868,1.122c-1.305,0 -1.947,-0.529 -2.037,-1.407l-1.651,0Z" style="fill-rule:nonzero;"/><path d="M191.195,43.315l0,7.359l1.488,0l0,-6.319l0.02,0l2.946,6.319l2.018,0l2.874,-6.319l0.021,0l0,6.319l1.649,0l0,-7.359l-2.75,0l-2.731,5.992l-2.782,-5.992l-2.753,0Z" style="fill-rule:nonzero;"/><path d="M203.634,48.37c0,1.579 1.335,2.497 3.465,2.497c2.496,0 3.801,-0.896 3.801,-2.417c0,-0.761 -0.367,-1.791 -2.121,-2.035l-2.107,-0.298c-0.652,-0.09 -1.073,-0.325 -1.073,-0.895c0,-0.673 0.757,-1.011 1.438,-1.011c1.143,0 1.805,0.347 1.865,1.306l1.652,0c-0.05,-1.49 -1.213,-2.394 -3.363,-2.394c-1.713,0 -3.304,0.682 -3.304,2.383c0,0.969 0.643,1.795 2.59,2.06l1.518,0.203c0.817,0.111 1.192,0.357 1.192,0.886c0,0.532 -0.498,1.122 -1.865,1.122c-1.302,0 -1.946,-0.529 -2.037,-1.407l-1.651,0Z" style="fill-rule:nonzero;"/><path d="M222.043,46.821c0,-0.355 0.02,-0.979 0.041,-1.263l-1.467,0l-0.063,0.703c-0.478,-0.54 -1.139,-0.897 -2.14,-0.897c-1.619,0 -2.79,1.02 -2.79,2.659c0,1.364 1.007,2.579 2.811,2.579c0.685,0 1.579,-0.275 2.038,-0.897l0.021,0l0,0.693c0,0.928 -0.632,1.398 -1.762,1.398c-0.724,0 -1.286,-0.267 -1.296,-0.765l-1.549,0c0.061,1.264 1.274,1.682 2.876,1.682c2.058,0 3.28,-0.663 3.28,-2.335l0,-3.557Zm-4.77,1.161c0,-0.937 0.57,-1.639 1.61,-1.639c1.041,0 1.611,0.702 1.611,1.639c0,0.94 -0.57,1.642 -1.611,1.642c-1.04,0 -1.61,-0.702 -1.61,-1.642" style="fill-rule:nonzero;"/><path d="M223.599,50.673l1.551,0l0,-2.068c0,-1.407 0.671,-1.947 1.925,-1.947c0.151,0 0.287,0.01 0.398,0.019c0.122,0.01 0.234,0.022 0.326,0.041l0,-1.161c-0.367,-0.072 -0.673,-0.103 -0.999,-0.103c-1.192,0 -1.539,0.693 -1.691,1.04l-0.022,0c0,-0.316 -0.019,-0.621 -0.04,-0.937l-1.489,0c0.02,0.346 0.041,0.793 0.041,1.284l0,3.832Z" style="fill-rule:nonzero;"/><path d="M231.604,45.363c-2.599,0 -3.333,1.346 -3.333,2.753c0,1.406 0.734,2.751 3.333,2.751c2.599,0 3.334,-1.345 3.334,-2.751c0,-1.407 -0.735,-2.753 -3.334,-2.753m0,0.979c1.172,0 1.723,0.772 1.723,1.774c0,0.997 -0.551,1.773 -1.723,1.773c-1.171,0 -1.721,-0.776 -1.721,-1.773c0,-1.002 0.55,-1.774 1.721,-1.774" style="fill-rule:nonzero;"/><path d="M242.15,45.558l-1.549,0l0,2.465c0,1.244 -0.785,1.806 -1.59,1.806c-0.745,0 -1.325,-0.297 -1.325,-1.561l0,-2.71l-1.551,0l0,3.148c0,1.662 1.428,2.161 2.345,2.161c0.937,0 1.643,-0.316 2.162,-1.038l0.02,0c0,0.283 0.019,0.558 0.04,0.845l1.489,0c0,-0.327 -0.041,-0.765 -0.041,-1.213l0,-3.903Z" style="fill-rule:nonzero;"/><path d="M245.154,48.116c0,-0.971 0.653,-1.773 1.63,-1.773c0.979,0 1.63,0.802 1.63,1.773c0,0.967 -0.651,1.773 -1.63,1.773c-0.977,0 -1.63,-0.806 -1.63,-1.773m-1.549,4.515l1.549,0l0,-2.66l0.02,0c0.512,0.693 1.327,0.896 2.089,0.896c1.001,0 2.763,-0.499 2.763,-2.792c0,-1.447 -0.927,-2.712 -2.823,-2.712c-0.816,0 -1.651,0.235 -2.09,0.898l-0.02,0c0,-0.234 -0.019,-0.469 -0.042,-0.703l-1.487,0c0.021,0.284 0.041,0.785 0.041,1.202l0,5.871Z" style="fill-rule:nonzero;"/><path d="M59.435,33.27c0,-0.543 0.446,-0.989 0.989,-0.989l188.612,0c0.545,0 0.989,0.446 0.989,0.989l0,2.135c0,0.543 -0.444,0.989 -0.989,0.989l-188.612,0c-0.543,0 -0.989,-0.446 -0.989,-0.989l0,-2.135Z" style="fill:#e30613;fill-rule:nonzero;"/><path d="M160.759,15.242l2.414,-9.502l1.325,-4.885l6.514,0l-7.344,24.222c0,0.033 -5.159,0 -5.192,0l-2.776,-7.974c-1.06,2.626 -1.953,5.316 -2.879,7.974l-5.06,0l-7.541,-24.222l6.583,0c1.356,4.618 2.546,9.371 3.868,13.989l5.062,-14.719l5.026,15.117Z"/><path d="M83.865,0.201l11.047,24.92l-6.813,0c-1.39,-3.588 -2.878,-7.41 -4.069,-11.099l-0.131,0.068c-1.257,3.72 -2.646,7.342 -4.135,10.964l-0.099,0.067l-6.715,0l10.915,-24.92Z"/><path d="M218.109,6.737c0,-0.034 -4.829,0 -4.86,0l0,-5.882l16.205,0l0,5.882l-4.731,0l0,18.372l-6.614,0l0,-18.372Z"/><path d="M130.663,25.077l-13.594,0l0,-24.222l6.483,0l0,18.639l7.111,0l0,5.583Z"/><path d="M231.106,0.856l0,24.254c0.032,0.034 6.549,0 6.549,0l-0.032,-9.568l5.983,0l0,9.568l6.42,0l0,-24.254l-6.42,0l0,9.106l-6.116,0c-0.034,0 0.033,-9.074 0,-9.106l-6.384,0Z"/><path d="M113.598,15.94c0.066,3.455 -1.323,6.812 -4.432,8.44c-3.009,1.628 -7.308,1.395 -10.319,-0.034c-3.142,-1.528 -4.596,-4.746 -4.564,-8.241l0,-15.249l6.462,0.006l-0.013,15.443c0.099,1.43 0.529,2.66 1.754,3.289c1.058,0.367 2.018,0.335 2.778,-0.031c1.356,-0.499 1.72,-1.828 1.852,-3.19l0,-15.517l6.482,0l0,15.084Z"/><path d="M191.585,15.983c0.066,3.454 -1.325,6.809 -4.465,8.436c-2.976,1.629 -7.276,1.396 -10.283,-0.033c-3.142,-1.526 -4.762,-4.783 -4.598,-8.238l0,-15.244l6.449,0l0,15.443c0.131,1.429 0.562,2.659 1.784,3.292c1.061,0.364 2.019,0.331 2.779,-0.036c1.356,-0.499 1.72,-1.827 1.851,-3.188l0,-15.511l6.449,0l0.034,15.079Z"/><path d="M206.07,9.096c0,-0.698 -0.164,-1.363 -0.594,-1.828c-0.993,-1.195 -2.614,-0.93 -4.169,-0.963l0,2.791l0.034,2.791c1.521,-0.034 3.176,0.23 4.167,-0.964c0.398,-0.465 0.562,-1.13 0.562,-1.827m-4.729,7.174c0.032,0.036 -0.067,8.817 -0.034,8.849c0,0 -6.184,0.068 -6.249,0l0,-24.264l9.957,0.069c2.975,0.068 5.753,1.692 6.776,4.583c0.958,2.624 0.696,6.115 -1.291,8.141c-0.825,0.895 -1.786,1.227 -2.775,1.56l7.408,9.911l-7.641,-0.01l-6.151,-8.839Z"/><path d="M65.793,11.776l0,-5.443l1.899,-0.013c1.514,-0.01 2.837,1.204 2.754,2.775c-0.092,1.756 -1.219,2.681 -2.846,2.681l-1.807,0Zm-6.137,-10.92c4.364,-0.011 9.031,0.013 10.588,0.258c1.994,0.313 3.866,1.537 5.122,3.365c1.653,2.424 1.72,6.28 0.331,8.87c-1.919,3.722 -6.052,3.953 -9.922,3.922l0,7.839l-6.119,0l0,-24.254Z"/><rect x="0.069" y="0.845" width="52.522" height="35.414" style="fill:#1d1d1b;"/><rect x="0.714" y="1.505" width="51.232" height="34.123" style="fill:#fff;"/><path d="M2.282,2.981l31.125,0l-31.125,31.127l0,-31.127Z" style="fill:#e30613;"/><path d="M19.297,19.075l16.232,-16.094l14.986,0l-31.218,31.127l0,-15.033Z" style="fill:#0075bf;"/></g></svg>