<svg viewBox="0 0 163 124" xmlns="http://www.w3.org/2000/svg" xml:space="preserve" style="fill-rule:evenodd;clip-rule:evenodd;stroke-linejoin:round;stroke-miterlimit:2"><clipPath id="a"><path d="m85.06 78.21-.54.03-.21.03-.54.09-.09.03-.24.06-.09.03-.12.02-.18.07-.06.03-.18.06-.06.03-.09.03-.06.03-.09.03-.54.27-.03.03-.06.03-.03.03-.06.03-.03.03-.12.05-.03.04-.06.03-.03.03-.06.03-.06.06-.06.03-.09.09-.06.03-.18.18-.06.03-.21.2-.03 12.1-.06.06-.03.06-.06.06-.03.06-.06.06-.03.06-.06.06-.03.06-.06.06-.03.06-.06.05-.03.07-.06.06-.03.06-.06.06-.03.06-.06.06-.03.06-.06.06-.03.06-.06.06-.03.06-.06.06-.03.06-.06.06-.03.06-.06.06-.03.06-.06.06-.03.06-.06.06-.03.06-.06.06-.03.06-.06.06-.03.05-.06.07-.03.06-.06.06-.03.06-.06.06-.03.06-.06.06-.03.06-.06.06-.03.06-.06.06-.03.06-.06.06-.03.06-.06.06-.03.06-.06.06-.03.06-.06.06-.03.06-.06.06-.03.06-.06.06-.03.06-.06.05-.03.07-.06.06-.03.06-.06.06-.03.06-.06.06-.03.06-.06.06-.03.06-.06.06-.03.06-.06.06-.03.06-.06.06-.03.06-.06.06-.03.06-.06.06-.03.06-.06.06-.03.06-.06.06-.03.06-.09.09-.03.06-.06.06-.03.06-.06.06-.03.06-.06.06-.03.06-.06.06-.03.06-.06.06-.03.06-.06.06-.03.05-.06.07-.03.06-.06.06-.03.06-.06.06-.03.06-.06.06-.03.06-.06.06-.03.06-.06.06-.03.06-.06.06-.03.06-.06.06-.03.06-.06.06-.03.06-.06.06-.03.06-.06.06-.03.06-.06.06-.03.06-.06.05-.03.07-.06.06-.03.06-.06.06-.03.06-.06.06-.03.06-.06.06-.03.06-.06.06-.03.06-.06.06-.03.06-.06.06-.03.06-.06.06-.03.06-.06.06-.03.06-.06.06-.03.06-.06.06-.03.06-.06.06-.03.05-.06.07-.03.06-.06.06-.03.06-.06.06-.03.06-.06.06-.03.06-.06.06-.03.06-.06.06-.03.06-.06.06-.03.06-.06.06-.03.06-.06.06-.03.06-.06.06-.03.06-.06.06V78.96h-7.29l-.03.03-.03.06-.03.03-.06.12-.03.03-.06.12-.03.03-.06.12-.03.03-.06.12-.03.03-.06.12-.03.03-.06.12-.03.03-.06.12-.03.03-.06.12-.03.03-.06.12-.03.03-.06.12-.03.03-.03.06-.03.03-.06.12-.03.03-.06.12-.03.03-.06.12-.03.03-.06.12-.03.03-.06.12-.03.03-.06.12-.03.03-.06.12-.03.03-.06.12-.03.03-.06.12-.03.03-.06.12-.03.03-.06.12-.03.03-.06.12-.03.03-.03.06-.03.03-.06.12-.03.03-.06.12-.03.03-.06.12-.03.02-.06.13-.03.03-.06.12-.03.03-.06.12-.03.03-.06.12-.03.03-.06.12-.03.02-.06.13-.03.03-.06.12-.03.03-.06.12-.03.03-.06.12-.03.03-.06.12-.03.02-.03.07-.03.03-.06.12-.03.03-.06.12-.03.03-.06.12-.03.03-.06.12-.03.03-.06.12-.03.03-.06.12-.03.03-.06.12-.03.03-.06.12-.03.03-.06.12-.03.03-.06.12-.03.03-.06.12-.03.03-.06.12-.03.03-.03.06-.03.03-.06.12-.03.03-.06.11-.03.04-.06.12-.03.03-.06.12-.03.03-.06.12-.03.03-.06.12-.03.03-.06.11-.03.04-.06.12-.03.03-.06.12-.03.03-.06.12-.03.03-.06.12-.03.03-.06.11-.03.04-.03.06-.03.03-.06.12-.03.03-.06.12-.03.03-.06.12-.03.03-.06.12-.03.03-.06.12-.03.03-.06.12-.03.03-.06.12-.03.03-.06.12-.03.03-.06.12-.03.03-.06.12-.03.03-.06.12-.03.03-.06.12-.03.03-.03.06-.03.03-.06.12-.03.03-.06.12-.03.03-.06.12-.03.03-.06.12-.03.03-.06.12-.03.03-.06.12-.03.03-.06.12-.03.03-.06.12-.03.03-.06.12-.03.03-.06.12-.03.03-.06.12-.03.03-.06.12-.03.03-.03.06-.03.03-.06.12-.03.03-.06.12-.03.03-.06.12-.03.03-.06.12-.03.02-.06.13-.03.03-.06.12-.03.03-.06.12-.03.03-.06.12-.03.03-.06.12-.03.02-.06.13-.03.03-.06.12-.03.03-.06.12-.03.03-.03.06-.03.03-.06.12-.03.03-.06.12-.03.03-.06.12-.03.03-.06.12-.03.03-.06.12-.03.03-.06.12-.03.03-.06.12-.03.03-.06.12-.03.03-.06.12-.03.03-.06.12-.03.03-.06.12-.03.03-.06.12-.03.03-.06.12-.03.03-.03.06-.03.03-.06.12-.03.03-.06.12-.03.03-.06.11-.03.04-.06.12-.03.03-.06.12-.03.03-.06.12-.03.03-.06.12-.03.03-.06.11-.03.04-.06.12-.03.03-.06.12-.03.03-.06.12-.03.03-.06.12-.03.03-.03.06-.03.03-.06.12-.03.03-.06.12-.03.03-.06.12-.03.03-.06.12-.03.03-.06.12-.03.03-.06.12-.03.03-.06.12-.03.03-.03.06V78.96h-4.17l-.12.03-.15.03-1.08.27-.15.03-.96.24-.15.03-1.08.27-.15.03-1.08.27-.15.03-1.08.27-.15.03-1.08.26-.15.04-.96.24-.15.03-1.08.27-.15.03-1.08.27-.09.03v2.82h.21l1.5.15.27.03 1.8.18.27.03 1.8.18.18.03v24.66l7.77-.03.03-.06.03-.03.06-.12.03-.03.06-.12.03-.03.06-.12.03-.03.03-.06.03-.03.06-.12.03-.03.06-.12.03-.03.06-.12.03-.03.06-.13.03-.02.03-.06.03-.03.06-.12.03-.03.06-.12.03-.03.06-.12.03-.03.06-.12.03-.03.03-.06.03-.03.06-.12.03-.03.06-.12.03-.03.06-.12.03-.03.06-.12.03-.03.03-.06.03-.04.06-.11.03-.03.06-.12.03-.03.06-.12.03-.03.06-.12.03-.03.03-.06.03-.03.06-.12.03-.03.06-.12.03-.03.06-.12.03-.03.06-.12.03-.03.06-.12.03-.03.03-.07.03-.02.06-.12.03-.03.06-.12.03-.03.06-.12.03-.03.06-.12.03-.03.03-.06.03-.03.06-.12.03-.03.06-.12.03-.03.06-.12.03-.03.06-.12.03-.03.03-.06.03-.03.06-.12.03-.03.06-.12.03-.03.06-.12.03-.03.06-.12.03-.03.03-.06.03-.03.06-.12.03-.04.06-.11.03-.03.06-.12.03-.03.06-.12.03-.03.03-.06.03-.03.06-.12.03-.03.06-.12.03-.03.06-.12.03-.03.06-.12.03-.03.03-.06.03-.03.06-.12.03-.03.06-.13.03-.02.06-.12.03-.03.06-.12.03-.03.03-.06.03-.03.06-.12.03-.03.06-.12.03-.03.06-.12.03-.03.06-.12.03-.03.03-.06.03-.03.06-.12.03-.03.06-.12.03-.03.06-.12.03-.03.06-.12.03-.03.03-.06.03-.03.06-.12.03-.03.06-.12.03-.03.06-.12.03-.04.06-.11.03-.03.06-.12.03-.03.03-.06.03-.03.06-.12.03-.03.06-.12.03-.03.06-.12.03-.03.06-.12.03-.03.03-.06.03-.03.06-.12.03-.03.06-.12.03-.03.06-.13.03-.02.06-.12.03-.03.03-.06.03-.03.06-.12.03-.03.06-.12.03-.03.06-.12.03-.03.06-.12.03-.03.03-.06.03-.03.06-.12.03-.03.06-.12.03-.03.06-.12.03-.03.06-.12.03-.03.03-.06.03-.03.06-.12.03-.03.06-.12.03-.03.06-.12.03-.03.06-.12.03-.04.03-.05.03-.03.06-.12.03-.03.06-.12.03-.03.06-.12.03-.03.06-.12.03-.03.03-.07.03-.02.06-.12.03-.03.06-.12.03-.03.06-.12.03-.03.06-.12.03-.03.03-.06.03-.03.06-.12.03-.03.06-.12.03-.03.06-.12.03-.03.06-.12.03-.03.03-.06.03-.03.06-.12.03-.03.06-.12.03-.03.06-.12.03-.03.06-.12.03-.03.06-.12.03-.03.03-.06.03-.04.06-.11.03-.03.06-.12.03-.03.06-.12.03-.03.06-.12.03-.03.03-.06.03-.03.06-.12.03-.03.06-.12.03-.03.06-.12.03-.03.06-.12.03-.03.03-.06.03-.03.06-.13.03-.02.06-.12.03-.03.06-.12.03-.03.06-.12.03-.03.03-.06.03-.03h.03v19.05h8.55v-.06l.09-.09.03-.06.06-.06.03-.06.09-.09.03-.07.09-.08.03-.06.06-.06.03-.06.09-.09.03-.06.06-.06.03-.06.09-.09.03-.06.09-.09.03-.06.06-.06.03-.06.09-.09.03-.06.06-.06.03-.06.09-.09.03-.06.06-.06.03-.07.09-.08.03-.06.09-.09.03-.06.06-.06.03-.06.09-.09.03-.06.06-.06.03-.06.09-.09.03-.06.09-.09.03-.06.06-.06.03-.06.09-.09.03-.06.06-.06.03-.06.09-.09.03-.06.06-.06.03-.06.09-.09.03-.06.09-.09.03-.06.06-.06.03-.06.09-.09.03-.06.06-.06.03-.06.09-.09.03-.06.09-.09.03-.06.06-.06.03-.06.09-.09.03-.06.06-.06.03-.06.09-.09.03-.06.06-.06.03-.06.09-.09.03-.06.09-.09.03-.06.06-.06.03-.06.09-.09.03-.06.06-.06.03-.06.09-.09.03-.06.09-.09.03-.06.06-.06.03-.06.09-.1.03-.05.06-.06.03-.06.09-.09.03-.06.06-.06.03-.06.09-.09.03-.06.09-.09.03-.07.06-.05.03-.06.09-.09.03-.06.06-.06.03-.06.09-.09.03-.06.09-.09.03-.06.06-.07.03-.05.09-.09.03-.06.06-.06.03-.06.09-.09.03-.06.06-.06.03-.06.09-.09.03-.07.09-.08.03-.06.06-.06.03-.06.09-.09.03-.06.06-.06.03-.06.09-.09.03-.06.09-.09.03-.06.06-.06.03-.06.09-.09.03-.06.06-.06.03-.06.09-.09.03-.06.06-.06.03-.07.09-.08.03-.06.09-.09.03-.06.06-.06.03-.06.09-.09.03-.06.06-.06.03-.06.09-.09.03-.06.09-.09.03-.06.06-.06.03-.06.09-.09.03-.06.06-.06.03-.06.09-.09.03-.06.06-.06.03-.06.09-.09.03-.06.09-.09.03-.06.06-.06.03-.06.09-.09.03-.06.06-.06.03-.06.09-.09.03-.06.09-.09.03-.06.06-.06.03-.06.09-.09.03-.06.06-.06.03-.06.09-.09.03-.06.06-.06.03-.06.09-.09.03-.06.09-.09.03-.06.06-.06.03-.06.09-.09.03-.06.06-.06.03-.06.09-.09.03-.06.09-.09.03-.06.06-.06.03-.06.09-.1.03-.05.06-.06.03-.06.09-.09.03-.06.06-.06.03-.06.09-.09.03-.06.09-.09.03-.07.09-.08.03-.06.09-.09.03-.06.06-.06.03-.06.09-.09.03-.06.09-.09.03-.06.09-.09.03-.06.06-.06.03-.06.09-.09.03-.06.06-.06.03-.06.09-.09.03-.06.09-.1.03-.05.06-.06.03-.06.09-.09.03-.06.06-.06.03-.06.06-.06.03-.06.06-.06.03-.06.09-.09.03-.06.06-.06.03-.06.06-.06.03-.06.09-.09.03-.06.06-.06.03-.06.06-.06.03-.06.06-.06.03-.06.06-.06.03-.06.06-.06.03-.06.06-.06.03-.06.06-.06.03-.06.03-.03.03-.06.06-.06.03-.06.06-.06.03-.06.03-.03.03-.06.06-.06.03-.06.06-.06.03-.06.03-.03.03-.06.06-.06.03-.06.03-.03.03-.06.03-.03.03-.06.03-.03.03-.06.06-.06.03-.06.03-.03.03-.06.03-.03.03-.06.03-.03.03-.06.03-.03.03-.06.03-.03.03-.06.03-.03.03-.06.03-.03.03-.06.03-.03.03-.06.03-.03.03-.06.03-.03.03-.06.03-.03.06-.12.03-.03.06-.12.03-.03.03-.06.03-.03.06-.12.03-.03.09-.18.03-.03.09-.18.03-.03.51-1.02.03-.09.06-.12.03-.09.03-.06.03-.09.03-.07.12-.35.03-.06.06-.24.03-.1.06-.23.09-.45.03-.21.03-.27.03-.57.03-.18h-.03v-.48h-.03v-.21h-.03v-.21h-.03v-.15h-.03v-.09h-.03v-.12h-.03v-.12h-.03v-.12h-.03v-.09h-.03v-.06h-.03v-.09h-.03v-.1h-.03v-.08h-.03v-.06h-.03v-.06h-.03v-.06h-.03v-.06h-.03v-.06h-.03v-.06h-.03v-.09l-.03-.03h-.03v-.06h-.03v-.06l-.03-.03h-.03v-.06h-.03v-.06l-.03-.03h-.03v-.06h-.03v-.06l-.06-.06h-.03v-.06l-.06-.06h-.03v-.06l-.06-.06h-.03v-.06l-.15-.16h-.03v-.05l-.36-.36-.06-.03-.18-.18-.06-.03-.06-.06-.06-.04-.03-.02-.06-.03-.06-.06-.06-.03-.03-.03-.12-.06-.03-.03-.12-.06-.03-.03-.42-.21-.09-.03-.12-.06-.27-.1-.06-.02-.09-.03-.48-.12-.15-.03-.42-.06-.51-.03h-.21Zm23.25 0-.96.03-.51.03-.36.03-.6.06-.27.03-.42.06-.18.03-.21.02-.18.04-.3.06-.18.03-.3.06-.12.03-.15.03-.36.09-.15.03-.09.03-.24.06-.09.03-.12.03-.09.03-.12.03-.09.03-.12.03-.72.24-.06.03-.18.06-.06.03-.09.03-.06.03-.18.06-.06.03-.09.03-.06.03-.09.03-.18.09-.09.03-.18.09-.09.03-1.08.54-.03.03-.24.12-.03.03-.18.09-.03.03-.12.06-.03.03-.06.03-.03.03-.06.03-.03.03-.12.06-.03.03-.06.03-.03.03-.12.06-.03.03-.06.03-.06.06-.06.03-.03.03-.06.03-.06.05-.06.04-.03.03-.06.03-.03.03-.06.03-.06.06-.06.03-.09.09-.06.03-.06.06-.06.03-.09.09-.06.03-.06.06-.06.03-.15.15-.06.03-.18.18-.06.03-.15.15-.06.03-.78.78-.03.06-.3.3-.03.06-.12.12-.03.06-.12.12-.03.06-.12.12-.03.06-.09.09-.03.06-.06.06-.03.06-.06.06-.03.06-.06.06-.03.06-.06.06-.03.06-.03.03-.03.06-.03.03-.03.06-.03.03-.03.06-.03.03-.03.06-.03.03-.03.06-.03.03-.03.06-.03.03-.03.06-.03.03-.06.12-.03.03-.06.12-.03.03-.06.12-.03.03-.06.12-.03.03-.18.36-.03.02-.3.61-.03.09-.12.24-.03.09-.09.18-.06.18-.03.06-.03.09-.03.06-.03.09-.03.06-.03.09-.03.06-.27.81-.03.12-.03.09-.06.24-.03.09-.12.48-.03.15-.03.12-.03.15-.03.12-.03.15-.12.72-.03.21-.03.24-.06.54-.06.84v1.77h.03v.48h.03v.39h.03v.27h.03v.27h.03v.24h.03v.18H91v.18h.03v.21h.03v.18h.03v.15h.03v.12h.03v.15h.03v.15h.03v.15h.03v.12h.03v.12h.03v.12h.03v.12h.03v.12h.03v.09h.03v.12h.03v.08h.03v.1h.03v.12h.03v.09h.03v.09h.03v.09h.03v.12h.03v.06h.03v.08h.03v.1h.03v.09h.03v.06h.03v.09h.03v.09h.03v.09h.03v.06h.03v.09h.03v.06h.03v.06h.03v.09h.03v.06h.03v.09h.03v.06h.03v.06h.03v.09h.03v.06h.03v.06h.03v.06h.03v.06h.03v.06h.03v.06h.03v.06h.03v.06h.03v.09h.03v.06h.03v.06h.03v.06h.03v.06h.03l.03.03v.06h.03v.06h.03v.05h.03v.07h.03v.06h.03l.03.03v.06h.03v.06h.03v.06h.03v.06h.03l.03.03v.06h.03v.06h.03l.03.03v.06h.03l.03.03v.06h.03v.06h.03l.03.03v.06h.03v.06h.03l.03.03v.06h.03l.03.03v.06h.03l.03.03v.06h.03l.03.03v.06h.03l.06.06v.06h.03l.03.03v.05h.03l.03.04v.06h.03l.03.03v.06h.03l.09.09v.06h.03l.06.06v.06h.03l.06.06v.06h.03l.09.09v.06h.03l.09.09v.06h.03l.15.15v.06h.03l.15.15v.06h.03l.33.33v.06h.03l.72.72.06.03.24.24.06.03.18.18.06.03.12.12.06.03.06.06.06.03.09.09.06.03.09.09.06.03.06.06.06.03.03.03.06.03.06.06.06.03.03.03.06.03.03.03.06.02.06.07.06.03.03.03.12.06.03.03.06.03.03.03.12.06.03.03.06.03.03.03.12.06.03.03.3.15.03.03.84.42.09.03.12.06.09.03.06.03.09.03.12.06.09.03.06.03.24.08.72.25.12.03.09.03.12.03.09.03.12.03.09.03.15.03.24.06.15.03.24.06.18.03.15.03.18.03.15.03.18.02.24.04.21.03.48.06.66.06.48.03.72.03 1.17.03v-.03l1.26-.03.36-.03.39-.03.36-.03.39-.03.27-.03.63-.09.18-.03.63-.09.45-.09.18-.03.15-.03.24-.06.15-.03.24-.06.15-.03.12-.03.09-.03.36-.09.09-.03.24-.06.09-.04.12-.02.18-.06.12-.03.18-.06.12-.03.99-.33.06-.03.36-.12.06-.03.27-.09.06-.03.18-.06.06-.03.09-.03.06-.03.09-.03.06-.03.18-.06.06-.03.09-.03.06-.03.09-.03.06-.03.09-.03.12-.06.09-.03.06-.03.09-.03.06-.03.09-.04.12-.05.09-.03.06-.03.09-.03.18-.09.09-.03.12-.06.09-.03.12-.06.09-.03.12-.06.09-.03.24-.12.09-.03.18-.09.09-.03.24-.12.09-.03h.06v-5.55h-.03l-.84.42-.09.03-.54.27-.09.03-.42.21-.09.03-.36.18-.09.03-.18.09-.09.03-.24.12-.09.03-.12.06-.09.03-.12.06-.09.03-.18.09-.09.03-.06.03-.09.03-.06.03-.09.03-.12.06-.09.03-.06.02-.09.04-.06.03-.09.03-.06.03-.18.06-.06.03-.09.03-.06.03-.45.15-.06.03-.18.06-.12.03-.18.06-.12.03-.18.06-.12.03-.18.06-.24.06-.15.03-.12.03-.15.03-.12.03-.15.03-.12.03-.42.06-.24.03-.21.03-.42.03-1.2.03v-.03l-.48-.03-.36-.06-.21-.03-.36-.06-.09-.03-.12-.03-.09-.03-.12-.03-.09-.03-.12-.03-.09-.03-.12-.04-.09-.02-.06-.03-.09-.03-.06-.03-.09-.03-.12-.06-.09-.03-.06-.03-.09-.03-.06-.03-.09-.03-.06-.03-.03-.03-.24-.12-.03-.03-.18-.09-.03-.03-.24-.12-.03-.03-.06-.03-.06-.06-.06-.03-.06-.06-.06-.03-.03-.03-.06-.03-.06-.06-.06-.03-.06-.06-.06-.03-.03-.03-.06-.03-.27-.27-.06-.03-.3-.3h-.06V102l-.18-.18h-.03v-.07l-.18-.17h-.03v-.06l-.18-.18h-.03v-.06l-.03-.03h-.03v-.06l-.03-.03h-.03v-.06l-.06-.06h-.03v-.06l-.03-.03h-.03v-.06l-.06-.06h-.03v-.06l-.03-.03h-.03v-.06l-.03-.03h-.03v-.06l-.03-.03h-.03v-.06l-.03-.03h-.03v-.06h-.03v-.06h-.03v-.06l-.03-.04h-.03v-.05h-.03v-.06h-.03v-.06l-.03-.03h-.03v-.06h-.03v-.06h-.03v-.06l-.03-.03h-.03v-.06h-.03v-.06h-.03v-.06h-.03v-.06h-.03v-.06h-.03v-.09h-.03v-.06h-.03v-.06h-.03v-.06h-.03v-.06h-.03v-.09h-.03v-.06h-.03V99h-.03v-.06h-.03v-.09h-.03v-.06h-.03v-.06h-.03v-.09H103v-.09h-.03v-.09h-.03v-.09h-.03v-.06h-.03v-.09h-.03v-.09h-.03v-.09h-.03v-.09h-.03v-.09h-.03v-.09h-.03v-.09h-.03v-.12h-.03v-.12h-.03v-.12h-.03v-.12h-.03v-.09h-.03v-.12h-.03v-.12h-.03v-.12h-.03v-.12h-.03v-.18h-.03v-.18h-.03v-.15h-.03v-.18h-.03v-.19h-.03v-.14h-.03v-.24h-.03v-.3h-.03v-.3h-.03v-.3h-.03v-.6h-.03v-1.83l.03-.51.03-.39.03-.36.03-.28.12-.83.03-.18.06-.3.03-.12.09-.45.03-.12.03-.09.03-.12.03-.09.03-.12.03-.09.03-.12.03-.09.03-.12.06-.18.03-.06.06-.18.03-.06.03-.09.03-.06.06-.18.03-.06.03-.09.3-.6.03-.1.09-.17.03-.03.03-.06.03-.03.06-.12.03-.03.06-.12.03-.03.03-.06.03-.03.06-.12.03-.03.03-.06.03-.03.03-.06.06-.06.03-.06.06-.06.03-.06.09-.09.03-.06.06-.06.03-.07.06-.05.03-.06.75-.75.06-.03.15-.15.06-.03.12-.12.06-.03.06-.06.06-.03.03-.03.06-.03.03-.03.06-.03.03-.03.06-.04.06-.05.06-.03.03-.03.06-.03.03-.03.06-.03.03-.03.42-.21.03-.03.42-.21.09-.03.06-.04.09-.02.06-.03.09-.03.06-.03.09-.03.06-.03.09-.03.06-.03.09-.03.12-.03.18-.06.12-.03.18-.06.12-.03.09-.03.9-.18h.06v8.22h.06l.06.03.03.03.24.12.03.03.9.45.09.03.12.06.09.03.12.06.09.03.06.03.45.15.06.03.09.03.36.09.09.03.12.03.15.03.18.03.15.03.18.03.3.03.27.03 1.14.02v-.02l.3-.03.27-.03.18-.03.45-.09.09-.03.12-.03.45-.15.06-.03.09-.03.06-.03.09-.03.42-.22.03-.02.18-.09.03-.03.06-.03.03-.03.06-.03.03-.03.06-.03.03-.03.06-.03.12-.12.06-.03.09-.09.06-.03.36-.36.03-.06.09-.09.03-.06.09-.09.03-.06.06-.06.03-.06.03-.04.06-.11.03-.03.03-.06.03-.03.27-.54.06-.18.03-.06.09-.27.12-.48.06-.42.03-.36.03-.54h-.03v-.48h-.03v-.27h-.03v-.15h-.03v-.15h-.03v-.15h-.03v-.15h-.03v-.12h-.03v-.09h-.03v-.09h-.03v-.09h-.03v-.09h-.03V84h-.03v-.09h-.03v-.09h-.03v-.09h-.03v-.09h-.03v-.06h-.03v-.06h-.03v-.06h-.03v-.06h-.03v-.06h-.03v-.06h-.03v-.06h-.03v-.06h-.03v-.06h-.03v-.06h-.03v-.06h-.03v-.06l-.03-.03h-.03v-.06l-.03-.03h-.03v-.06l-.03-.03h-.03v-.06l-.03-.03h-.03v-.06l-.03-.03h-.03v-.06l-.03-.03h-.03v-.06l-.03-.03h-.03v-.06l-.06-.06h-.03v-.06l-.15-.15h-.03v-.06l-.18-.18h-.03v-.06l-.45-.45-.06-.03-.3-.3-.06-.03-.06-.06-.06-.03-.03-.03-.06-.04-.06-.05-.06-.03-.06-.06-.06-.03-.06-.06-.06-.03-.06-.06-.06-.03-.03-.03-.12-.06-.03-.03-.12-.06-.03-.03-.12-.06-.03-.03-.12-.06-.03-.04-.12-.05-.03-.03-.3-.15-.09-.03-.54-.27-.09-.03-.06-.03-.09-.03-.06-.03-.18-.06-.06-.04-.09-.02-.06-.03-.18-.06-.06-.03-.09-.03-.12-.03-.18-.06-.12-.03-.18-.06-.12-.03-.18-.06-.24-.06-.15-.03-.24-.06-.15-.03-.12-.03-.15-.03-.12-.03-.18-.04-.21-.02-.18-.03-.21-.03-.18-.03-.21-.03-.3-.03-.33-.03-.72-.06-1.05-.03h-.48Zm-96.27.09-.12.03-.27.09-.12.03-.18.05-.12.04-.18.06-.12.03-.27.09-.12.03-.18.06-.12.03-.27.09-.12.03-.18.06-.12.03-.27.09-.12.03-.18.06-.12.02-.18.07-.12.03-.27.09-.12.03-.18.06-.12.03-.27.09-.12.03-.18.06-.12.03-.27.09-.12.03-.18.06-.12.03-.18.06-.12.03-.27.09-.12.03-.18.06-.12.03-.27.09-.12.03-.18.06-.12.03-.27.09-.12.03-.18.06-.12.03-.18.05-.12.04-.27.09-.12.03-.18.06-.12.03-.27.09-.12.03-.18.06-.12.03-.27.09-.12.03-.18.06-.12.03-.18.06-.12.02-.27.1-.12.03-.18.06-.12.03-.27.09-.12.03-.18.06-.12.03-.06.03v2.97h5.01l-.03 34.5-.96.24-.15.03-3.36.84v2.88h19.74v-2.88l-.12-.04-.15-.02-.12-.03-.15-.03-.12-.03-.15-.03-.12-.03-.15-.03-.12-.03-.15-.03-.12-.03-.15-.03-.12-.03-.15-.03-.12-.03-.15-.03-.12-.03-.15-.03-.12-.03-.15-.03-.12-.03-.15-.03-.12-.03-.15-.03-.12-.03-.15-.04-.12-.02-.15-.03-.12-.03-.15-.03-.12-.03-.15-.03-.12-.03-.15-.03-.12-.03-.15-.03-.12-.03h-.06v-9.99h.06l.6.06.33.03.3.03.33.03.42.03.45.03.54.03.69.03 2.55.03v-.03l.48-.03.42-.03.6-.06.27-.03.18-.03.63-.09.45-.09.18-.03.3-.07.96-.23.18-.06.12-.03.09-.03.12-.03.9-.3.06-.03.09-.04.06-.02.09-.03.06-.03.09-.03.06-.03.09-.03.06-.03.09-.03.12-.06.09-.03.3-.15.09-.03.6-.3.03-.03.36-.18.03-.03.12-.06.03-.03.12-.06.03-.03.12-.06.03-.03.12-.06.03-.03.06-.03.03-.03.06-.04.03-.02.06-.03.03-.03.06-.03.03-.03.06-.03.03-.03.06-.03.03-.03.06-.03.03-.03.06-.03.03-.03.06-.03.06-.06.06-.03.06-.06.06-.03.06-.06.06-.03.06-.07.06-.02.12-.12.06-.03.12-.12.06-.03.12-.12.06-.03.18-.18.06-.03.99-.99.03-.06.15-.15.03-.06.15-.15.03-.06.12-.12.03-.06.06-.06.03-.06.09-.09.03-.06.06-.06.03-.06.06-.06.03-.06.06-.06.03-.06.03-.04.03-.05.03-.03.03-.06.03-.03.03-.06.06-.06.03-.06.03-.03.03-.06.03-.03.06-.12.03-.03.03-.06.03-.03.06-.12.03-.03.06-.12.03-.03.06-.12.03-.03.12-.24.03-.03.15-.3.03-.03.12-.24.03-.09.24-.48.03-.09.03-.06.03-.09.06-.12.03-.09.03-.06.03-.09.03-.06.03-.09.03-.06.09-.27.03-.06.18-.54.03-.12.09-.27.03-.12.03-.09.21-.84.18-.9.03-.21.03-.18.06-.42.09-.81.03-.45.03-.48.03-1.44h-.03v-.84h-.03v-.42h-.03v-.27h-.03v-.27h-.03v-.27h-.03v-.27h-.03v-.24h-.03v-.15h-.03v-.19h-.03v-.14h-.03v-.15h-.03v-.15H37v-.18h-.03v-.15h-.03v-.15h-.03v-.15h-.03v-.12h-.03v-.12h-.03v-.09h-.03v-.12h-.03v-.12h-.03v-.09h-.03v-.12h-.03v-.12h-.03v-.09h-.03v-.12h-.03v-.12h-.03v-.09h-.03v-.12h-.03v-.06h-.03v-.09h-.03V87h-.03v-.09h-.03v-.06h-.03v-.1h-.03v-.08h-.03v-.09h-.03v-.06h-.03v-.09h-.03v-.09h-.03v-.06h-.03v-.09h-.03v-.09h-.03V86h-.03v-.05h-.03v-.06h-.03v-.06h-.03v-.09h-.03v-.06h-.03v-.06h-.03v-.06h-.03v-.06h-.03v-.06h-.03v-.06h-.03v-.09h-.03v-.06h-.03v-.06h-.03v-.06h-.03v-.06h-.03v-.06h-.03v-.06h-.03v-.09h-.03v-.06h-.03v-.06l-.03-.03h-.03v-.06h-.03v-.06l-.03-.03h-.03v-.06h-.03v-.06h-.03v-.06l-.03-.03h-.03v-.06h-.03v-.06l-.03-.03h-.03v-.06h-.03v-.06h-.03V84l-.03-.03h-.03v-.06h-.03v-.06h-.03v-.06l-.03-.04h-.03v-.05h-.03v-.06l-.06-.06h-.03v-.06l-.03-.03h-.03v-.06l-.06-.06h-.03v-.06l-.03-.03h-.03v-.06l-.06-.06h-.03v-.06l-.03-.03h-.03V83l-.06-.05h-.03v-.06l-.03-.03h-.03v-.06l-.06-.06h-.03v-.06l-.06-.06h-.03v-.06l-.18-.18h-.03v-.06l-.18-.18h-.03v-.06l-.18-.18h-.03v-.06l-.45-.45-.06-.03-.33-.33-.06-.03-.18-.18-.06-.03-.06-.06-.06-.03-.06-.06-.06-.03-.06-.06-.06-.03-.06-.06-.06-.03-.06-.06-.06-.03-.06-.06-.06-.03-.03-.03-.06-.03-.06-.06-.06-.03-.03-.03-.12-.07-.03-.02-.12-.06-.03-.03-.06-.03-.03-.03-.24-.12-.03-.03-.66-.33-.09-.03-.12-.07-.09-.02-.06-.03-.09-.03-.06-.03-.09-.03-.06-.03-.63-.21-.12-.03-.09-.03-.24-.06-.09-.03-.45-.09-.12-.03-.63-.1-.33-.02-.48-.03h-.87l-.72.03-.27.02-.24.04-.27.03-.21.03-.18.03-.3.06-.12.03-.15.03-.24.06-.09.03-.12.03-.18.06-.12.03-.45.15-.06.03-.18.06-.06.03-.09.02-.06.04-.18.06-.06.03-.09.03-.12.06-.09.03-.18.09-.09.03-.12.06-.09.03-.42.21-.09.03-.6.3-.03.03-.6.3-.03.03-.42.21-.03.03-.24.12-.03.03-.24.12-.03.03-.24.12-.03.03-.18.09-.03.03-.18.08-.03.04-.18.09-.03.03-.18.09-.03.03-.12.06-.03.03-.18.09-.03.03-.12.06-.03.03-.12.06-.03.03-.18.08-.03.04-.12.06-.03.03-.06.03V78.3h-3.18Zm6.03 6.63-.39.03-.36.03-.27.03-.3.03-.27.03-.24.03-.27.03-.48.06-.27.03v20.73h.48l1.77.03v-.03l.66-.03.48-.06.21-.03.24-.03.18-.03.12-.03.15-.03.12-.03.15-.03.24-.06.15-.03.27-.09.06-.03.63-.21.42-.21.09-.03.36-.18.03-.03.06-.04.03-.02.12-.06.03-.03.06-.03.03-.03.12-.06.03-.03.06-.03.03-.03.12-.06.09-.09.06-.03.09-.09.06-.03.09-.09.06-.04.12-.11.06-.03.63-.63.03-.06.15-.15.03-.06.06-.06.03-.06.06-.06.03-.06.06-.06.03-.06.06-.06.03-.06.06-.06.03-.06.03-.03.06-.12.03-.03.09-.18.03-.03.06-.12.03-.03.09-.18.03-.03.15-.3.03-.09.12-.24.03-.09.12-.24.09-.27.03-.06.27-.82.09-.35.03-.15.12-.48.03-.15.18-1.08.12-1.32.03-1.02.03-.66h-.03v-.9h-.03v-.36h-.03v-.33h-.03v-.33h-.03v-.18h-.03v-.21h-.03v-.18h-.03v-.18h-.03v-.21h-.03v-.12h-.03v-.15h-.03v-.12h-.03v-.12h-.03v-.12h-.03v-.15h-.03v-.13h-.03v-.11h-.03v-.09h-.03v-.09h-.03v-.09h-.03v-.09h-.03v-.09h-.03v-.09h-.03v-.1h-.03v-.08h-.03v-.09h-.03v-.09h-.03v-.06h-.03v-.06h-.03v-.09h-.03v-.06h-.03v-.06h-.03v-.09h-.03V89h-.03v-.05h-.03v-.09h-.03v-.06h-.03v-.06h-.03v-.06l-.03-.03h-.03v-.06h-.03v-.06h-.03v-.06h-.03v-.06l-.03-.03h-.03v-.06h-.03v-.07h-.03v-.05l-.03-.03h-.03v-.06h-.03v-.06l-.03-.03h-.03v-.06l-.03-.03h-.03v-.06l-.06-.06h-.03v-.06l-.03-.03h-.03v-.06l-.06-.06h-.03v-.06l-.03-.04h-.03v-.05l-.12-.12h-.03v-.06l-.27-.27h-.03v-.06l-.18-.19-.06-.02-.15-.15-.06-.03-.15-.15-.06-.03-.09-.09-.06-.03-.03-.03-.06-.03-.03-.03-.06-.03-.03-.03-.06-.03-.03-.03-.06-.04-.03-.02-.06-.03-.03-.03-.78-.39-.09-.03-.06-.03-.36-.12-.06-.03-.18-.07-.24-.05-.15-.03-.36-.09-.18-.03-.21-.03-.24-.03-.21-.03-.51-.03h-1.17Z"/></clipPath><g clip-path="url(#a)"><path style="fill:#1c1c1a" d="M.01 78.21h120.75v45.2H.01z"/></g><path style="fill:#eb5e96" d="M154.72 37.98h7.46V53.1h-7.46z"/><path style="fill:#303d85" d="M162.19 37.98h.17V53.1h-.17z"/><path style="fill:#f7b885" d="M133.48 6.09h5.94v9.17h-5.94z"/><path style="fill:#f2911f" d="M103.33.21h30.14v5.87h-30.14z"/><path style="fill:#335e1a" d="M103.33.18h30.14v.03h-30.14z"/><path style="fill:#eb690f" d="M103.33 6.09h30.14v9.17h-30.14z"/><path style="fill:#fab800" d="M139.42 15.27h15.3v22.71h-15.3z"/><path style="fill:#e64500" d="M139.42 37.98h15.3V53.1h-15.3z"/><path style="fill:#f28500" d="M133.48 15.27h5.94v22.71h-5.94z"/><path style="fill:#de3000" d="M133.48 37.98h5.94V53.1h-5.94z"/><clipPath id="b"><path d="M103.33 15.27v15.12h18.84v7.59h11.31V15.27h-30.15Z"/></clipPath><g clip-path="url(#b)"><path style="fill:#e84d00" d="M103.33 15.27h30.14v22.71h-30.14z"/></g><path style="fill:#d41c00" d="M122.17 37.98h11.3V53.1h-11.3z"/><path style="fill:#bd3600" d="M103.33 30.39h18.83v7.58h-18.83z"/><path style="fill:#ad1200" d="M103.33 37.98h18.83V53.1h-18.83z"/><path style="fill:#bf2414" d="M73.09 53.1h30.23v7.55H73.09z"/></svg>