<?xml version="1.0" encoding="UTF-8" standalone="no"?><!DOCTYPE svg PUBLIC "-//W3C//DTD SVG 1.1//EN" "http://www.w3.org/Graphics/SVG/1.1/DTD/svg11.dtd"><svg width="100%" height="100%" viewBox="0 0 163 124" version="1.1" xmlns="http://www.w3.org/2000/svg" xmlns:xlink="http://www.w3.org/1999/xlink" xml:space="preserve" xmlns:serif="http://www.serif.com/" style="fill-rule:evenodd;clip-rule:evenodd;stroke-linejoin:round;stroke-miterlimit:2;"><g id="pwc"><clipPath id="_clip1"><path d="M85.06,78.21l-0.54,0.03l-0.21,0.03l-0.54,0.09l-0.09,0.03l-0.24,0.06l-0.09,0.03l-0.12,0.02l-0.18,0.07l-0.06,0.03l-0.18,0.06l-0.06,0.03l-0.09,0.03l-0.06,0.03l-0.09,0.03l-0.54,0.27l-0.03,0.03l-0.06,0.03l-0.03,0.03l-0.06,0.03l-0.03,0.03l-0.12,0.05l-0.03,0.04l-0.06,0.03l-0.03,0.03l-0.06,0.03l-0.06,0.06l-0.06,0.03l-0.09,0.09l-0.06,0.03l-0.18,0.18l-0.06,0.03l-0.21,0.2l-0.03,12.1l-0.06,0.06l-0.03,0.06l-0.06,0.06l-0.03,0.06l-0.06,0.06l-0.03,0.06l-0.06,0.06l-0.03,0.06l-0.06,0.06l-0.03,0.06l-0.06,0.05l-0.03,0.07l-0.06,0.06l-0.03,0.06l-0.06,0.06l-0.03,0.06l-0.06,0.06l-0.03,0.06l-0.06,0.06l-0.03,0.06l-0.06,0.06l-0.03,0.06l-0.06,0.06l-0.03,0.06l-0.06,0.06l-0.03,0.06l-0.06,0.06l-0.03,0.06l-0.06,0.06l-0.03,0.06l-0.06,0.06l-0.03,0.06l-0.06,0.06l-0.03,0.06l-0.06,0.06l-0.03,0.05l-0.06,0.07l-0.03,0.06l-0.06,0.06l-0.03,0.06l-0.06,0.06l-0.03,0.06l-0.06,0.06l-0.03,0.06l-0.06,0.06l-0.03,0.06l-0.06,0.06l-0.03,0.06l-0.06,0.06l-0.03,0.06l-0.06,0.06l-0.03,0.06l-0.06,0.06l-0.03,0.06l-0.06,0.06l-0.03,0.06l-0.06,0.06l-0.03,0.06l-0.06,0.06l-0.03,0.06l-0.06,0.05l-0.03,0.07l-0.06,0.06l-0.03,0.06l-0.06,0.06l-0.03,0.06l-0.06,0.06l-0.03,0.06l-0.06,0.06l-0.03,0.06l-0.06,0.06l-0.03,0.06l-0.06,0.06l-0.03,0.06l-0.06,0.06l-0.03,0.06l-0.06,0.06l-0.03,0.06l-0.06,0.06l-0.03,0.06l-0.06,0.06l-0.03,0.06l-0.06,0.06l-0.03,0.06l-0.09,0.09l-0.03,0.06l-0.06,0.06l-0.03,0.06l-0.06,0.06l-0.03,0.06l-0.06,0.06l-0.03,0.06l-0.06,0.06l-0.03,0.06l-0.06,0.06l-0.03,0.06l-0.06,0.06l-0.03,0.05l-0.06,0.07l-0.03,0.06l-0.06,0.06l-0.03,0.06l-0.06,0.06l-0.03,0.06l-0.06,0.06l-0.03,0.06l-0.06,0.06l-0.03,0.06l-0.06,0.06l-0.03,0.06l-0.06,0.06l-0.03,0.06l-0.06,0.06l-0.03,0.06l-0.06,0.06l-0.03,0.06l-0.06,0.06l-0.03,0.06l-0.06,0.06l-0.03,0.06l-0.06,0.06l-0.03,0.06l-0.06,0.05l-0.03,0.07l-0.06,0.06l-0.03,0.06l-0.06,0.06l-0.03,0.06l-0.06,0.06l-0.03,0.06l-0.06,0.06l-0.03,0.06l-0.06,0.06l-0.03,0.06l-0.06,0.06l-0.03,0.06l-0.06,0.06l-0.03,0.06l-0.06,0.06l-0.03,0.06l-0.06,0.06l-0.03,0.06l-0.06,0.06l-0.03,0.06l-0.06,0.06l-0.03,0.06l-0.06,0.06l-0.03,0.05l-0.06,0.07l-0.03,0.06l-0.06,0.06l-0.03,0.06l-0.06,0.06l-0.03,0.06l-0.06,0.06l-0.03,0.06l-0.06,0.06l-0.03,0.06l-0.06,0.06l-0.03,0.06l-0.06,0.06l-0.03,0.06l-0.06,0.06l-0.03,0.06l-0.06,0.06l-0.03,0.06l-0.06,0.06l-0.03,0.06l-0.06,0.06l0,-23.31l-7.29,0l-0.03,0.03l-0.03,0.06l-0.03,0.03l-0.06,0.12l-0.03,0.03l-0.06,0.12l-0.03,0.03l-0.06,0.12l-0.03,0.03l-0.06,0.12l-0.03,0.03l-0.06,0.12l-0.03,0.03l-0.06,0.12l-0.03,0.03l-0.06,0.12l-0.03,0.03l-0.06,0.12l-0.03,0.03l-0.06,0.12l-0.03,0.03l-0.06,0.12l-0.03,0.03l-0.03,0.06l-0.03,0.03l-0.06,0.12l-0.03,0.03l-0.06,0.12l-0.03,0.03l-0.06,0.12l-0.03,0.03l-0.06,0.12l-0.03,0.03l-0.06,0.12l-0.03,0.03l-0.06,0.12l-0.03,0.03l-0.06,0.12l-0.03,0.03l-0.06,0.12l-0.03,0.03l-0.06,0.12l-0.03,0.03l-0.06,0.12l-0.03,0.03l-0.06,0.12l-0.03,0.03l-0.06,0.12l-0.03,0.03l-0.03,0.06l-0.03,0.03l-0.06,0.12l-0.03,0.03l-0.06,0.12l-0.03,0.03l-0.06,0.12l-0.03,0.02l-0.06,0.13l-0.03,0.03l-0.06,0.12l-0.03,0.03l-0.06,0.12l-0.03,0.03l-0.06,0.12l-0.03,0.03l-0.06,0.12l-0.03,0.02l-0.06,0.13l-0.03,0.03l-0.06,0.12l-0.03,0.03l-0.06,0.12l-0.03,0.03l-0.06,0.12l-0.03,0.03l-0.06,0.12l-0.03,0.02l-0.03,0.07l-0.03,0.03l-0.06,0.12l-0.03,0.03l-0.06,0.12l-0.03,0.03l-0.06,0.12l-0.03,0.03l-0.06,0.12l-0.03,0.03l-0.06,0.12l-0.03,0.03l-0.06,0.12l-0.03,0.03l-0.06,0.12l-0.03,0.03l-0.06,0.12l-0.03,0.03l-0.06,0.12l-0.03,0.03l-0.06,0.12l-0.03,0.03l-0.06,0.12l-0.03,0.03l-0.06,0.12l-0.03,0.03l-0.03,0.06l-0.03,0.03l-0.06,0.12l-0.03,0.03l-0.06,0.11l-0.03,0.04l-0.06,0.12l-0.03,0.03l-0.06,0.12l-0.03,0.03l-0.06,0.12l-0.03,0.03l-0.06,0.12l-0.03,0.03l-0.06,0.11l-0.03,0.04l-0.06,0.12l-0.03,0.03l-0.06,0.12l-0.03,0.03l-0.06,0.12l-0.03,0.03l-0.06,0.12l-0.03,0.03l-0.06,0.11l-0.03,0.04l-0.03,0.06l-0.03,0.03l-0.06,0.12l-0.03,0.03l-0.06,0.12l-0.03,0.03l-0.06,0.12l-0.03,0.03l-0.06,0.12l-0.03,0.03l-0.06,0.12l-0.03,0.03l-0.06,0.12l-0.03,0.03l-0.06,0.12l-0.03,0.03l-0.06,0.12l-0.03,0.03l-0.06,0.12l-0.03,0.03l-0.06,0.12l-0.03,0.03l-0.06,0.12l-0.03,0.03l-0.06,0.12l-0.03,0.03l-0.03,0.06l-0.03,0.03l-0.06,0.12l-0.03,0.03l-0.06,0.12l-0.03,0.03l-0.06,0.12l-0.03,0.03l-0.06,0.12l-0.03,0.03l-0.06,0.12l-0.03,0.03l-0.06,0.12l-0.03,0.03l-0.06,0.12l-0.03,0.03l-0.06,0.12l-0.03,0.03l-0.06,0.12l-0.03,0.03l-0.06,0.12l-0.03,0.03l-0.06,0.12l-0.03,0.03l-0.06,0.12l-0.03,0.03l-0.03,0.06l-0.03,0.03l-0.06,0.12l-0.03,0.03l-0.06,0.12l-0.03,0.03l-0.06,0.12l-0.03,0.03l-0.06,0.12l-0.03,0.02l-0.06,0.13l-0.03,0.03l-0.06,0.12l-0.03,0.03l-0.06,0.12l-0.03,0.03l-0.06,0.12l-0.03,0.03l-0.06,0.12l-0.03,0.02l-0.06,0.13l-0.03,0.03l-0.06,0.12l-0.03,0.03l-0.06,0.12l-0.03,0.03l-0.03,0.06l-0.03,0.03l-0.06,0.12l-0.03,0.03l-0.06,0.12l-0.03,0.03l-0.06,0.12l-0.03,0.03l-0.06,0.12l-0.03,0.03l-0.06,0.12l-0.03,0.03l-0.06,0.12l-0.03,0.03l-0.06,0.12l-0.03,0.03l-0.06,0.12l-0.03,0.03l-0.06,0.12l-0.03,0.03l-0.06,0.12l-0.03,0.03l-0.06,0.12l-0.03,0.03l-0.06,0.12l-0.03,0.03l-0.06,0.12l-0.03,0.03l-0.03,0.06l-0.03,0.03l-0.06,0.12l-0.03,0.03l-0.06,0.12l-0.03,0.03l-0.06,0.11l-0.03,0.04l-0.06,0.12l-0.03,0.03l-0.06,0.12l-0.03,0.03l-0.06,0.12l-0.03,0.03l-0.06,0.12l-0.03,0.03l-0.06,0.11l-0.03,0.04l-0.06,0.12l-0.03,0.03l-0.06,0.12l-0.03,0.03l-0.06,0.12l-0.03,0.03l-0.06,0.12l-0.03,0.03l-0.03,0.06l-0.03,0.03l-0.06,0.12l-0.03,0.03l-0.06,0.12l-0.03,0.03l-0.06,0.12l-0.03,0.03l-0.06,0.12l-0.03,0.03l-0.06,0.12l-0.03,0.03l-0.06,0.12l-0.03,0.03l-0.06,0.12l-0.03,0.03l-0.03,0.06l0,-20.13l-4.17,0l-0.12,0.03l-0.15,0.03l-1.08,0.27l-0.15,0.03l-0.96,0.24l-0.15,0.03l-1.08,0.27l-0.15,0.03l-1.08,0.27l-0.15,0.03l-1.08,0.27l-0.15,0.03l-1.08,0.26l-0.15,0.04l-0.96,0.24l-0.15,0.03l-1.08,0.27l-0.15,0.03l-1.08,0.27l-0.09,0.03l0,2.82l0.21,0l1.5,0.15l0.27,0.03l1.8,0.18l0.27,0.03l1.8,0.18l0.18,0.03l0,24.66l7.77,-0.03l0.03,-0.06l0.03,-0.03l0.06,-0.12l0.03,-0.03l0.06,-0.12l0.03,-0.03l0.06,-0.12l0.03,-0.03l0.03,-0.06l0.03,-0.03l0.06,-0.12l0.03,-0.03l0.06,-0.12l0.03,-0.03l0.06,-0.12l0.03,-0.03l0.06,-0.13l0.03,-0.02l0.03,-0.06l0.03,-0.03l0.06,-0.12l0.03,-0.03l0.06,-0.12l0.03,-0.03l0.06,-0.12l0.03,-0.03l0.06,-0.12l0.03,-0.03l0.03,-0.06l0.03,-0.03l0.06,-0.12l0.03,-0.03l0.06,-0.12l0.03,-0.03l0.06,-0.12l0.03,-0.03l0.06,-0.12l0.03,-0.03l0.03,-0.06l0.03,-0.04l0.06,-0.11l0.03,-0.03l0.06,-0.12l0.03,-0.03l0.06,-0.12l0.03,-0.03l0.06,-0.12l0.03,-0.03l0.03,-0.06l0.03,-0.03l0.06,-0.12l0.03,-0.03l0.06,-0.12l0.03,-0.03l0.06,-0.12l0.03,-0.03l0.06,-0.12l0.03,-0.03l0.06,-0.12l0.03,-0.03l0.03,-0.07l0.03,-0.02l0.06,-0.12l0.03,-0.03l0.06,-0.12l0.03,-0.03l0.06,-0.12l0.03,-0.03l0.06,-0.12l0.03,-0.03l0.03,-0.06l0.03,-0.03l0.06,-0.12l0.03,-0.03l0.06,-0.12l0.03,-0.03l0.06,-0.12l0.03,-0.03l0.06,-0.12l0.03,-0.03l0.03,-0.06l0.03,-0.03l0.06,-0.12l0.03,-0.03l0.06,-0.12l0.03,-0.03l0.06,-0.12l0.03,-0.03l0.06,-0.12l0.03,-0.03l0.03,-0.06l0.03,-0.03l0.06,-0.12l0.03,-0.04l0.06,-0.11l0.03,-0.03l0.06,-0.12l0.03,-0.03l0.06,-0.12l0.03,-0.03l0.03,-0.06l0.03,-0.03l0.06,-0.12l0.03,-0.03l0.06,-0.12l0.03,-0.03l0.06,-0.12l0.03,-0.03l0.06,-0.12l0.03,-0.03l0.03,-0.06l0.03,-0.03l0.06,-0.12l0.03,-0.03l0.06,-0.13l0.03,-0.02l0.06,-0.12l0.03,-0.03l0.06,-0.12l0.03,-0.03l0.03,-0.06l0.03,-0.03l0.06,-0.12l0.03,-0.03l0.06,-0.12l0.03,-0.03l0.06,-0.12l0.03,-0.03l0.06,-0.12l0.03,-0.03l0.03,-0.06l0.03,-0.03l0.06,-0.12l0.03,-0.03l0.06,-0.12l0.03,-0.03l0.06,-0.12l0.03,-0.03l0.06,-0.12l0.03,-0.03l0.03,-0.06l0.03,-0.03l0.06,-0.12l0.03,-0.03l0.06,-0.12l0.03,-0.03l0.06,-0.12l0.03,-0.04l0.06,-0.11l0.03,-0.03l0.06,-0.12l0.03,-0.03l0.03,-0.06l0.03,-0.03l0.06,-0.12l0.03,-0.03l0.06,-0.12l0.03,-0.03l0.06,-0.12l0.03,-0.03l0.06,-0.12l0.03,-0.03l0.03,-0.06l0.03,-0.03l0.06,-0.12l0.03,-0.03l0.06,-0.12l0.03,-0.03l0.06,-0.13l0.03,-0.02l0.06,-0.12l0.03,-0.03l0.03,-0.06l0.03,-0.03l0.06,-0.12l0.03,-0.03l0.06,-0.12l0.03,-0.03l0.06,-0.12l0.03,-0.03l0.06,-0.12l0.03,-0.03l0.03,-0.06l0.03,-0.03l0.06,-0.12l0.03,-0.03l0.06,-0.12l0.03,-0.03l0.06,-0.12l0.03,-0.03l0.06,-0.12l0.03,-0.03l0.03,-0.06l0.03,-0.03l0.06,-0.12l0.03,-0.03l0.06,-0.12l0.03,-0.03l0.06,-0.12l0.03,-0.03l0.06,-0.12l0.03,-0.04l0.03,-0.05l0.03,-0.03l0.06,-0.12l0.03,-0.03l0.06,-0.12l0.03,-0.03l0.06,-0.12l0.03,-0.03l0.06,-0.12l0.03,-0.03l0.03,-0.07l0.03,-0.02l0.06,-0.12l0.03,-0.03l0.06,-0.12l0.03,-0.03l0.06,-0.12l0.03,-0.03l0.06,-0.12l0.03,-0.03l0.03,-0.06l0.03,-0.03l0.06,-0.12l0.03,-0.03l0.06,-0.12l0.03,-0.03l0.06,-0.12l0.03,-0.03l0.06,-0.12l0.03,-0.03l0.03,-0.06l0.03,-0.03l0.06,-0.12l0.03,-0.03l0.06,-0.12l0.03,-0.03l0.06,-0.12l0.03,-0.03l0.06,-0.12l0.03,-0.03l0.06,-0.12l0.03,-0.03l0.03,-0.06l0.03,-0.04l0.06,-0.11l0.03,-0.03l0.06,-0.12l0.03,-0.03l0.06,-0.12l0.03,-0.03l0.06,-0.12l0.03,-0.03l0.03,-0.06l0.03,-0.03l0.06,-0.12l0.03,-0.03l0.06,-0.12l0.03,-0.03l0.06,-0.12l0.03,-0.03l0.06,-0.12l0.03,-0.03l0.03,-0.06l0.03,-0.03l0.06,-0.13l0.03,-0.02l0.06,-0.12l0.03,-0.03l0.06,-0.12l0.03,-0.03l0.06,-0.12l0.03,-0.03l0.03,-0.06l0.03,-0.03l0.03,0l0,19.05l8.55,0l0,-0.06l0.09,-0.09l0.03,-0.06l0.06,-0.06l0.03,-0.06l0.09,-0.09l0.03,-0.07l0.09,-0.08l0.03,-0.06l0.06,-0.06l0.03,-0.06l0.09,-0.09l0.03,-0.06l0.06,-0.06l0.03,-0.06l0.09,-0.09l0.03,-0.06l0.09,-0.09l0.03,-0.06l0.06,-0.06l0.03,-0.06l0.09,-0.09l0.03,-0.06l0.06,-0.06l0.03,-0.06l0.09,-0.09l0.03,-0.06l0.06,-0.06l0.03,-0.07l0.09,-0.08l0.03,-0.06l0.09,-0.09l0.03,-0.06l0.06,-0.06l0.03,-0.06l0.09,-0.09l0.03,-0.06l0.06,-0.06l0.03,-0.06l0.09,-0.09l0.03,-0.06l0.09,-0.09l0.03,-0.06l0.06,-0.06l0.03,-0.06l0.09,-0.09l0.03,-0.06l0.06,-0.06l0.03,-0.06l0.09,-0.09l0.03,-0.06l0.06,-0.06l0.03,-0.06l0.09,-0.09l0.03,-0.06l0.09,-0.09l0.03,-0.06l0.06,-0.06l0.03,-0.06l0.09,-0.09l0.03,-0.06l0.06,-0.06l0.03,-0.06l0.09,-0.09l0.03,-0.06l0.09,-0.09l0.03,-0.06l0.06,-0.06l0.03,-0.06l0.09,-0.09l0.03,-0.06l0.06,-0.06l0.03,-0.06l0.09,-0.09l0.03,-0.06l0.06,-0.06l0.03,-0.06l0.09,-0.09l0.03,-0.06l0.09,-0.09l0.03,-0.06l0.06,-0.06l0.03,-0.06l0.09,-0.09l0.03,-0.06l0.06,-0.06l0.03,-0.06l0.09,-0.09l0.03,-0.06l0.09,-0.09l0.03,-0.06l0.06,-0.06l0.03,-0.06l0.09,-0.1l0.03,-0.05l0.06,-0.06l0.03,-0.06l0.09,-0.09l0.03,-0.06l0.06,-0.06l0.03,-0.06l0.09,-0.09l0.03,-0.06l0.09,-0.09l0.03,-0.07l0.06,-0.05l0.03,-0.06l0.09,-0.09l0.03,-0.06l0.06,-0.06l0.03,-0.06l0.09,-0.09l0.03,-0.06l0.09,-0.09l0.03,-0.06l0.06,-0.07l0.03,-0.05l0.09,-0.09l0.03,-0.06l0.06,-0.06l0.03,-0.06l0.09,-0.09l0.03,-0.06l0.06,-0.06l0.03,-0.06l0.09,-0.09l0.03,-0.07l0.09,-0.08l0.03,-0.06l0.06,-0.06l0.03,-0.06l0.09,-0.09l0.03,-0.06l0.06,-0.06l0.03,-0.06l0.09,-0.09l0.03,-0.06l0.09,-0.09l0.03,-0.06l0.06,-0.06l0.03,-0.06l0.09,-0.09l0.03,-0.06l0.06,-0.06l0.03,-0.06l0.09,-0.09l0.03,-0.06l0.06,-0.06l0.03,-0.07l0.09,-0.08l0.03,-0.06l0.09,-0.09l0.03,-0.06l0.06,-0.06l0.03,-0.06l0.09,-0.09l0.03,-0.06l0.06,-0.06l0.03,-0.06l0.09,-0.09l0.03,-0.06l0.09,-0.09l0.03,-0.06l0.06,-0.06l0.03,-0.06l0.09,-0.09l0.03,-0.06l0.06,-0.06l0.03,-0.06l0.09,-0.09l0.03,-0.06l0.06,-0.06l0.03,-0.06l0.09,-0.09l0.03,-0.06l0.09,-0.09l0.03,-0.06l0.06,-0.06l0.03,-0.06l0.09,-0.09l0.03,-0.06l0.06,-0.06l0.03,-0.06l0.09,-0.09l0.03,-0.06l0.09,-0.09l0.03,-0.06l0.06,-0.06l0.03,-0.06l0.09,-0.09l0.03,-0.06l0.06,-0.06l0.03,-0.06l0.09,-0.09l0.03,-0.06l0.06,-0.06l0.03,-0.06l0.09,-0.09l0.03,-0.06l0.09,-0.09l0.03,-0.06l0.06,-0.06l0.03,-0.06l0.09,-0.09l0.03,-0.06l0.06,-0.06l0.03,-0.06l0.09,-0.09l0.03,-0.06l0.09,-0.09l0.03,-0.06l0.06,-0.06l0.03,-0.06l0.09,-0.1l0.03,-0.05l0.06,-0.06l0.03,-0.06l0.09,-0.09l0.03,-0.06l0.06,-0.06l0.03,-0.06l0.09,-0.09l0.03,-0.06l0.09,-0.09l0.03,-0.07l0.09,-0.08l0.03,-0.06l0.09,-0.09l0.03,-0.06l0.06,-0.06l0.03,-0.06l0.09,-0.09l0.03,-0.06l0.09,-0.09l0.03,-0.06l0.09,-0.09l0.03,-0.06l0.06,-0.06l0.03,-0.06l0.09,-0.09l0.03,-0.06l0.06,-0.06l0.03,-0.06l0.09,-0.09l0.03,-0.06l0.09,-0.1l0.03,-0.05l0.06,-0.06l0.03,-0.06l0.09,-0.09l0.03,-0.06l0.06,-0.06l0.03,-0.06l0.06,-0.06l0.03,-0.06l0.06,-0.06l0.03,-0.06l0.09,-0.09l0.03,-0.06l0.06,-0.06l0.03,-0.06l0.06,-0.06l0.03,-0.06l0.09,-0.09l0.03,-0.06l0.06,-0.06l0.03,-0.06l0.06,-0.06l0.03,-0.06l0.06,-0.06l0.03,-0.06l0.06,-0.06l0.03,-0.06l0.06,-0.06l0.03,-0.06l0.06,-0.06l0.03,-0.06l0.06,-0.06l0.03,-0.06l0.03,-0.03l0.03,-0.06l0.06,-0.06l0.03,-0.06l0.06,-0.06l0.03,-0.06l0.03,-0.03l0.03,-0.06l0.06,-0.06l0.03,-0.06l0.06,-0.06l0.03,-0.06l0.03,-0.03l0.03,-0.06l0.06,-0.06l0.03,-0.06l0.03,-0.03l0.03,-0.06l0.03,-0.03l0.03,-0.06l0.03,-0.03l0.03,-0.06l0.06,-0.06l0.03,-0.06l0.03,-0.03l0.03,-0.06l0.03,-0.03l0.03,-0.06l0.03,-0.03l0.03,-0.06l0.03,-0.03l0.03,-0.06l0.03,-0.03l0.03,-0.06l0.03,-0.03l0.03,-0.06l0.03,-0.03l0.03,-0.06l0.03,-0.03l0.03,-0.06l0.03,-0.03l0.03,-0.06l0.03,-0.03l0.03,-0.06l0.03,-0.03l0.06,-0.12l0.03,-0.03l0.06,-0.12l0.03,-0.03l0.03,-0.06l0.03,-0.03l0.06,-0.12l0.03,-0.03l0.09,-0.18l0.03,-0.03l0.09,-0.18l0.03,-0.03l0.51,-1.02l0.03,-0.09l0.06,-0.12l0.03,-0.09l0.03,-0.06l0.03,-0.09l0.03,-0.07l0.12,-0.35l0.03,-0.06l0.06,-0.24l0.03,-0.1l0.06,-0.23l0.09,-0.45l0.03,-0.21l0.03,-0.27l0.03,-0.57l0.03,-0.18l-0.03,0l0,-0.48l-0.03,0l0,-0.21l-0.03,0l0,-0.21l-0.03,0l0,-0.15l-0.03,0l0,-0.09l-0.03,0l0,-0.12l-0.03,0l0,-0.12l-0.03,0l0,-0.12l-0.03,0l0,-0.09l-0.03,0l0,-0.06l-0.03,0l0,-0.09l-0.03,0l0,-0.1l-0.03,0l0,-0.08l-0.03,0l0,-0.06l-0.03,0l0,-0.06l-0.03,0l0,-0.06l-0.03,0l0,-0.06l-0.03,0l0,-0.06l-0.03,0l0,-0.06l-0.03,0l0,-0.09l-0.03,-0.03l-0.03,0l0,-0.06l-0.03,0l0,-0.06l-0.03,-0.03l-0.03,0l0,-0.06l-0.03,0l0,-0.06l-0.03,-0.03l-0.03,0l0,-0.06l-0.03,0l0,-0.06l-0.06,-0.06l-0.03,0l0,-0.06l-0.06,-0.06l-0.03,0l0,-0.06l-0.06,-0.06l-0.03,0l0,-0.06l-0.15,-0.16l-0.03,0l0,-0.05l-0.36,-0.36l-0.06,-0.03l-0.18,-0.18l-0.06,-0.03l-0.06,-0.06l-0.06,-0.04l-0.03,-0.02l-0.06,-0.03l-0.06,-0.06l-0.06,-0.03l-0.03,-0.03l-0.12,-0.06l-0.03,-0.03l-0.12,-0.06l-0.03,-0.03l-0.42,-0.21l-0.09,-0.03l-0.12,-0.06l-0.27,-0.1l-0.06,-0.02l-0.09,-0.03l-0.48,-0.12l-0.15,-0.03l-0.42,-0.06l-0.51,-0.03l-0.21,0Zm23.25,0l-0.96,0.03l-0.51,0.03l-0.36,0.03l-0.6,0.06l-0.27,0.03l-0.42,0.06l-0.18,0.03l-0.21,0.02l-0.18,0.04l-0.3,0.06l-0.18,0.03l-0.3,0.06l-0.12,0.03l-0.15,0.03l-0.36,0.09l-0.15,0.03l-0.09,0.03l-0.24,0.06l-0.09,0.03l-0.12,0.03l-0.09,0.03l-0.12,0.03l-0.09,0.03l-0.12,0.03l-0.72,0.24l-0.06,0.03l-0.18,0.06l-0.06,0.03l-0.09,0.03l-0.06,0.03l-0.18,0.06l-0.06,0.03l-0.09,0.03l-0.06,0.03l-0.09,0.03l-0.18,0.09l-0.09,0.03l-0.18,0.09l-0.09,0.03l-1.08,0.54l-0.03,0.03l-0.24,0.12l-0.03,0.03l-0.18,0.09l-0.03,0.03l-0.12,0.06l-0.03,0.03l-0.06,0.03l-0.03,0.03l-0.06,0.03l-0.03,0.03l-0.12,0.06l-0.03,0.03l-0.06,0.03l-0.03,0.03l-0.12,0.06l-0.03,0.03l-0.06,0.03l-0.06,0.06l-0.06,0.03l-0.03,0.03l-0.06,0.03l-0.06,0.05l-0.06,0.04l-0.03,0.03l-0.06,0.03l-0.03,0.03l-0.06,0.03l-0.06,0.06l-0.06,0.03l-0.09,0.09l-0.06,0.03l-0.06,0.06l-0.06,0.03l-0.09,0.09l-0.06,0.03l-0.06,0.06l-0.06,0.03l-0.15,0.15l-0.06,0.03l-0.18,0.18l-0.06,0.03l-0.15,0.15l-0.06,0.03l-0.78,0.78l-0.03,0.06l-0.3,0.3l-0.03,0.06l-0.12,0.12l-0.03,0.06l-0.12,0.12l-0.03,0.06l-0.12,0.12l-0.03,0.06l-0.09,0.09l-0.03,0.06l-0.06,0.06l-0.03,0.06l-0.06,0.06l-0.03,0.06l-0.06,0.06l-0.03,0.06l-0.06,0.06l-0.03,0.06l-0.03,0.03l-0.03,0.06l-0.03,0.03l-0.03,0.06l-0.03,0.03l-0.03,0.06l-0.03,0.03l-0.03,0.06l-0.03,0.03l-0.03,0.06l-0.03,0.03l-0.03,0.06l-0.03,0.03l-0.03,0.06l-0.03,0.03l-0.06,0.12l-0.03,0.03l-0.06,0.12l-0.03,0.03l-0.06,0.12l-0.03,0.03l-0.06,0.12l-0.03,0.03l-0.18,0.36l-0.03,0.02l-0.3,0.61l-0.03,0.09l-0.12,0.24l-0.03,0.09l-0.09,0.18l-0.06,0.18l-0.03,0.06l-0.03,0.09l-0.03,0.06l-0.03,0.09l-0.03,0.06l-0.03,0.09l-0.03,0.06l-0.27,0.81l-0.03,0.12l-0.03,0.09l-0.06,0.24l-0.03,0.09l-0.12,0.48l-0.03,0.15l-0.03,0.12l-0.03,0.15l-0.03,0.12l-0.03,0.15l-0.12,0.72l-0.03,0.21l-0.03,0.24l-0.06,0.54l-0.06,0.84l0,1.77l0.03,0l0,0.48l0.03,0l0,0.39l0.03,0l0,0.27l0.03,0l0,0.27l0.03,0l0,0.24l0.03,0l0,0.18l0.03,0l0,0.18l0.03,0l0,0.21l0.03,0l0,0.18l0.03,0l0,0.15l0.03,0l0,0.12l0.03,0l0,0.15l0.03,0l0,0.15l0.03,0l0,0.15l0.03,0l0,0.12l0.03,0l0,0.12l0.03,0l0,0.12l0.03,0l0,0.12l0.03,0l0,0.12l0.03,0l0,0.09l0.03,0l0,0.12l0.03,0l0,0.08l0.03,0l0,0.1l0.03,0l0,0.12l0.03,0l0,0.09l0.03,0l0,0.09l0.03,0l0,0.09l0.03,0l0,0.12l0.03,0l0,0.06l0.03,0l0,0.08l0.03,0l0,0.1l0.03,0l0,0.09l0.03,0l0,0.06l0.03,0l0,0.09l0.03,0l0,0.09l0.03,0l0,0.09l0.03,0l0,0.06l0.03,0l0,0.09l0.03,0l0,0.06l0.03,0l0,0.06l0.03,0l0,0.09l0.03,0l0,0.06l0.03,0l0,0.09l0.03,0l0,0.06l0.03,0l0,0.06l0.03,0l0,0.09l0.03,0l0,0.06l0.03,0l0,0.06l0.03,0l0,0.06l0.03,0l0,0.06l0.03,0l0,0.06l0.03,0l0,0.06l0.03,0l0,0.06l0.03,0l0,0.06l0.03,0l0,0.09l0.03,0l0,0.06l0.03,0l0,0.06l0.03,0l0,0.06l0.03,0l0,0.06l0.03,0l0.03,0.03l0,0.06l0.03,0l0,0.06l0.03,0l0,0.05l0.03,0l0,0.07l0.03,0l0,0.06l0.03,0l0.03,0.03l0,0.06l0.03,0l0,0.06l0.03,0l0,0.06l0.03,0l0,0.06l0.03,0l0.03,0.03l0,0.06l0.03,0l0,0.06l0.03,0l0.03,0.03l0,0.06l0.03,0l0.03,0.03l0,0.06l0.03,0l0,0.06l0.03,0l0.03,0.03l0,0.06l0.03,0l0,0.06l0.03,0l0.03,0.03l0,0.06l0.03,0l0.03,0.03l0,0.06l0.03,0l0.03,0.03l0,0.06l0.03,0l0.03,0.03l0,0.06l0.03,0l0.06,0.06l0,0.06l0.03,0l0.03,0.03l0,0.05l0.03,0l0.03,0.04l0,0.06l0.03,0l0.03,0.03l0,0.06l0.03,0l0.09,0.09l0,0.06l0.03,0l0.06,0.06l0,0.06l0.03,0l0.06,0.06l0,0.06l0.03,0l0.09,0.09l0,0.06l0.03,0l0.09,0.09l0,0.06l0.03,0l0.15,0.15l0,0.06l0.03,0l0.15,0.15l0,0.06l0.03,0l0.33,0.33l0,0.06l0.03,0l0.72,0.72l0.06,0.03l0.24,0.24l0.06,0.03l0.18,0.18l0.06,0.03l0.12,0.12l0.06,0.03l0.06,0.06l0.06,0.03l0.09,0.09l0.06,0.03l0.09,0.09l0.06,0.03l0.06,0.06l0.06,0.03l0.03,0.03l0.06,0.03l0.06,0.06l0.06,0.03l0.03,0.03l0.06,0.03l0.03,0.03l0.06,0.02l0.06,0.07l0.06,0.03l0.03,0.03l0.12,0.06l0.03,0.03l0.06,0.03l0.03,0.03l0.12,0.06l0.03,0.03l0.06,0.03l0.03,0.03l0.12,0.06l0.03,0.03l0.3,0.15l0.03,0.03l0.84,0.42l0.09,0.03l0.12,0.06l0.09,0.03l0.06,0.03l0.09,0.03l0.12,0.06l0.09,0.03l0.06,0.03l0.24,0.08l0.72,0.25l0.12,0.03l0.09,0.03l0.12,0.03l0.09,0.03l0.12,0.03l0.09,0.03l0.15,0.03l0.24,0.06l0.15,0.03l0.24,0.06l0.18,0.03l0.15,0.03l0.18,0.03l0.15,0.03l0.18,0.02l0.24,0.04l0.21,0.03l0.48,0.06l0.66,0.06l0.48,0.03l0.72,0.03l1.17,0.03l0,-0.03l1.26,-0.03l0.36,-0.03l0.39,-0.03l0.36,-0.03l0.39,-0.03l0.27,-0.03l0.63,-0.09l0.18,-0.03l0.63,-0.09l0.45,-0.09l0.18,-0.03l0.15,-0.03l0.24,-0.06l0.15,-0.03l0.24,-0.06l0.15,-0.03l0.12,-0.03l0.09,-0.03l0.36,-0.09l0.09,-0.03l0.24,-0.06l0.09,-0.04l0.12,-0.02l0.18,-0.06l0.12,-0.03l0.18,-0.06l0.12,-0.03l0.99,-0.33l0.06,-0.03l0.36,-0.12l0.06,-0.03l0.27,-0.09l0.06,-0.03l0.18,-0.06l0.06,-0.03l0.09,-0.03l0.06,-0.03l0.09,-0.03l0.06,-0.03l0.18,-0.06l0.06,-0.03l0.09,-0.03l0.06,-0.03l0.09,-0.03l0.06,-0.03l0.09,-0.03l0.12,-0.06l0.09,-0.03l0.06,-0.03l0.09,-0.03l0.06,-0.03l0.09,-0.04l0.12,-0.05l0.09,-0.03l0.06,-0.03l0.09,-0.03l0.18,-0.09l0.09,-0.03l0.12,-0.06l0.09,-0.03l0.12,-0.06l0.09,-0.03l0.12,-0.06l0.09,-0.03l0.24,-0.12l0.09,-0.03l0.18,-0.09l0.09,-0.03l0.24,-0.12l0.09,-0.03l0.06,0l0,-5.55l-0.03,0l-0.84,0.42l-0.09,0.03l-0.54,0.27l-0.09,0.03l-0.42,0.21l-0.09,0.03l-0.36,0.18l-0.09,0.03l-0.18,0.09l-0.09,0.03l-0.24,0.12l-0.09,0.03l-0.12,0.06l-0.09,0.03l-0.12,0.06l-0.09,0.03l-0.18,0.09l-0.09,0.03l-0.06,0.03l-0.09,0.03l-0.06,0.03l-0.09,0.03l-0.12,0.06l-0.09,0.03l-0.06,0.02l-0.09,0.04l-0.06,0.03l-0.09,0.03l-0.06,0.03l-0.18,0.06l-0.06,0.03l-0.09,0.03l-0.06,0.03l-0.45,0.15l-0.06,0.03l-0.18,0.06l-0.12,0.03l-0.18,0.06l-0.12,0.03l-0.18,0.06l-0.12,0.03l-0.18,0.06l-0.24,0.06l-0.15,0.03l-0.12,0.03l-0.15,0.03l-0.12,0.03l-0.15,0.03l-0.12,0.03l-0.42,0.06l-0.24,0.03l-0.21,0.03l-0.42,0.03l-1.2,0.03l0,-0.03l-0.48,-0.03l-0.36,-0.06l-0.21,-0.03l-0.36,-0.06l-0.09,-0.03l-0.12,-0.03l-0.09,-0.03l-0.12,-0.03l-0.09,-0.03l-0.12,-0.03l-0.09,-0.03l-0.12,-0.04l-0.09,-0.02l-0.06,-0.03l-0.09,-0.03l-0.06,-0.03l-0.09,-0.03l-0.12,-0.06l-0.09,-0.03l-0.06,-0.03l-0.09,-0.03l-0.06,-0.03l-0.09,-0.03l-0.06,-0.03l-0.03,-0.03l-0.24,-0.12l-0.03,-0.03l-0.18,-0.09l-0.03,-0.03l-0.24,-0.12l-0.03,-0.03l-0.06,-0.03l-0.06,-0.06l-0.06,-0.03l-0.06,-0.06l-0.06,-0.03l-0.03,-0.03l-0.06,-0.03l-0.06,-0.06l-0.06,-0.03l-0.06,-0.06l-0.06,-0.03l-0.03,-0.03l-0.06,-0.03l-0.27,-0.27l-0.06,-0.03l-0.3,-0.3l-0.06,0l0,-0.06l-0.18,-0.18l-0.03,0l0,-0.07l-0.18,-0.17l-0.03,0l0,-0.06l-0.18,-0.18l-0.03,0l0,-0.06l-0.03,-0.03l-0.03,0l0,-0.06l-0.03,-0.03l-0.03,0l0,-0.06l-0.06,-0.06l-0.03,0l0,-0.06l-0.03,-0.03l-0.03,0l0,-0.06l-0.06,-0.06l-0.03,0l0,-0.06l-0.03,-0.03l-0.03,0l0,-0.06l-0.03,-0.03l-0.03,0l0,-0.06l-0.03,-0.03l-0.03,0l0,-0.06l-0.03,-0.03l-0.03,0l0,-0.06l-0.03,0l0,-0.06l-0.03,0l0,-0.06l-0.03,-0.04l-0.03,0l0,-0.05l-0.03,0l0,-0.06l-0.03,0l0,-0.06l-0.03,-0.03l-0.03,0l0,-0.06l-0.03,0l0,-0.06l-0.03,0l0,-0.06l-0.03,-0.03l-0.03,0l0,-0.06l-0.03,0l0,-0.06l-0.03,0l0,-0.06l-0.03,0l0,-0.06l-0.03,0l0,-0.06l-0.03,0l0,-0.09l-0.03,0l0,-0.06l-0.03,0l0,-0.06l-0.03,0l0,-0.06l-0.03,0l0,-0.06l-0.03,0l0,-0.09l-0.03,0l0,-0.06l-0.03,0l0,-0.06l-0.03,0l0,-0.06l-0.03,0l0,-0.09l-0.03,0l0,-0.06l-0.03,0l0,-0.06l-0.03,0l0,-0.09l-0.03,0l0,-0.09l-0.03,0l0,-0.09l-0.03,0l0,-0.09l-0.03,0l0,-0.06l-0.03,0l0,-0.09l-0.03,0l0,-0.09l-0.03,0l0,-0.09l-0.03,0l0,-0.09l-0.03,0l0,-0.09l-0.03,0l0,-0.09l-0.03,0l0,-0.09l-0.03,0l0,-0.12l-0.03,0l0,-0.12l-0.03,0l0,-0.12l-0.03,0l0,-0.12l-0.03,0l0,-0.09l-0.03,0l0,-0.12l-0.03,0l0,-0.12l-0.03,0l0,-0.12l-0.03,0l0,-0.12l-0.03,0l0,-0.18l-0.03,0l0,-0.18l-0.03,0l0,-0.15l-0.03,0l0,-0.18l-0.03,0l0,-0.19l-0.03,0l0,-0.14l-0.03,0l0,-0.24l-0.03,0l0,-0.3l-0.03,0l0,-0.3l-0.03,0l0,-0.3l-0.03,0l0,-0.6l-0.03,0l0,-1.83l0.03,-0.51l0.03,-0.39l0.03,-0.36l0.03,-0.28l0.12,-0.83l0.03,-0.18l0.06,-0.3l0.03,-0.12l0.09,-0.45l0.03,-0.12l0.03,-0.09l0.03,-0.12l0.03,-0.09l0.03,-0.12l0.03,-0.09l0.03,-0.12l0.03,-0.09l0.03,-0.12l0.06,-0.18l0.03,-0.06l0.06,-0.18l0.03,-0.06l0.03,-0.09l0.03,-0.06l0.06,-0.18l0.03,-0.06l0.03,-0.09l0.3,-0.6l0.03,-0.1l0.09,-0.17l0.03,-0.03l0.03,-0.06l0.03,-0.03l0.06,-0.12l0.03,-0.03l0.06,-0.12l0.03,-0.03l0.03,-0.06l0.03,-0.03l0.06,-0.12l0.03,-0.03l0.03,-0.06l0.03,-0.03l0.03,-0.06l0.06,-0.06l0.03,-0.06l0.06,-0.06l0.03,-0.06l0.09,-0.09l0.03,-0.06l0.06,-0.06l0.03,-0.07l0.06,-0.05l0.03,-0.06l0.75,-0.75l0.06,-0.03l0.15,-0.15l0.06,-0.03l0.12,-0.12l0.06,-0.03l0.06,-0.06l0.06,-0.03l0.03,-0.03l0.06,-0.03l0.03,-0.03l0.06,-0.03l0.03,-0.03l0.06,-0.04l0.06,-0.05l0.06,-0.03l0.03,-0.03l0.06,-0.03l0.03,-0.03l0.06,-0.03l0.03,-0.03l0.42,-0.21l0.03,-0.03l0.42,-0.21l0.09,-0.03l0.06,-0.04l0.09,-0.02l0.06,-0.03l0.09,-0.03l0.06,-0.03l0.09,-0.03l0.06,-0.03l0.09,-0.03l0.06,-0.03l0.09,-0.03l0.12,-0.03l0.18,-0.06l0.12,-0.03l0.18,-0.06l0.12,-0.03l0.09,-0.03l0.9,-0.18l0.06,0l0,8.22l0.06,0l0.06,0.03l0.03,0.03l0.24,0.12l0.03,0.03l0.9,0.45l0.09,0.03l0.12,0.06l0.09,0.03l0.12,0.06l0.09,0.03l0.06,0.03l0.45,0.15l0.06,0.03l0.09,0.03l0.36,0.09l0.09,0.03l0.12,0.03l0.15,0.03l0.18,0.03l0.15,0.03l0.18,0.03l0.3,0.03l0.27,0.03l1.14,0.02l0,-0.02l0.3,-0.03l0.27,-0.03l0.18,-0.03l0.45,-0.09l0.09,-0.03l0.12,-0.03l0.45,-0.15l0.06,-0.03l0.09,-0.03l0.06,-0.03l0.09,-0.03l0.42,-0.22l0.03,-0.02l0.18,-0.09l0.03,-0.03l0.06,-0.03l0.03,-0.03l0.06,-0.03l0.03,-0.03l0.06,-0.03l0.03,-0.03l0.06,-0.03l0.12,-0.12l0.06,-0.03l0.09,-0.09l0.06,-0.03l0.36,-0.36l0.03,-0.06l0.09,-0.09l0.03,-0.06l0.09,-0.09l0.03,-0.06l0.06,-0.06l0.03,-0.06l0.03,-0.04l0.06,-0.11l0.03,-0.03l0.03,-0.06l0.03,-0.03l0.27,-0.54l0.06,-0.18l0.03,-0.06l0.09,-0.27l0.12,-0.48l0.06,-0.42l0.03,-0.36l0.03,-0.54l-0.03,0l0,-0.48l-0.03,0l0,-0.27l-0.03,0l0,-0.15l-0.03,0l0,-0.15l-0.03,0l0,-0.15l-0.03,0l0,-0.15l-0.03,0l0,-0.12l-0.03,0l0,-0.09l-0.03,0l0,-0.09l-0.03,0l0,-0.09l-0.03,0l0,-0.09l-0.03,0l0,-0.09l-0.03,0l0,-0.09l-0.03,0l0,-0.09l-0.03,0l0,-0.09l-0.03,0l0,-0.09l-0.03,0l0,-0.06l-0.03,0l0,-0.06l-0.03,0l0,-0.06l-0.03,0l0,-0.06l-0.03,0l0,-0.06l-0.03,0l0,-0.06l-0.03,0l0,-0.06l-0.03,0l0,-0.06l-0.03,0l0,-0.06l-0.03,0l0,-0.06l-0.03,0l0,-0.06l-0.03,0l0,-0.06l-0.03,-0.03l-0.03,0l0,-0.06l-0.03,-0.03l-0.03,0l0,-0.06l-0.03,-0.03l-0.03,0l0,-0.06l-0.03,-0.03l-0.03,0l0,-0.06l-0.03,-0.03l-0.03,0l0,-0.06l-0.03,-0.03l-0.03,0l0,-0.06l-0.03,-0.03l-0.03,0l0,-0.06l-0.06,-0.06l-0.03,0l0,-0.06l-0.15,-0.15l-0.03,0l0,-0.06l-0.18,-0.18l-0.03,0l0,-0.06l-0.45,-0.45l-0.06,-0.03l-0.3,-0.3l-0.06,-0.03l-0.06,-0.06l-0.06,-0.03l-0.03,-0.03l-0.06,-0.04l-0.06,-0.05l-0.06,-0.03l-0.06,-0.06l-0.06,-0.03l-0.06,-0.06l-0.06,-0.03l-0.06,-0.06l-0.06,-0.03l-0.03,-0.03l-0.12,-0.06l-0.03,-0.03l-0.12,-0.06l-0.03,-0.03l-0.12,-0.06l-0.03,-0.03l-0.12,-0.06l-0.03,-0.04l-0.12,-0.05l-0.03,-0.03l-0.3,-0.15l-0.09,-0.03l-0.54,-0.27l-0.09,-0.03l-0.06,-0.03l-0.09,-0.03l-0.06,-0.03l-0.18,-0.06l-0.06,-0.04l-0.09,-0.02l-0.06,-0.03l-0.18,-0.06l-0.06,-0.03l-0.09,-0.03l-0.12,-0.03l-0.18,-0.06l-0.12,-0.03l-0.18,-0.06l-0.12,-0.03l-0.18,-0.06l-0.24,-0.06l-0.15,-0.03l-0.24,-0.06l-0.15,-0.03l-0.12,-0.03l-0.15,-0.03l-0.12,-0.03l-0.18,-0.04l-0.21,-0.02l-0.18,-0.03l-0.21,-0.03l-0.18,-0.03l-0.21,-0.03l-0.3,-0.03l-0.33,-0.03l-0.72,-0.06l-1.05,-0.03l-0.48,0Zm-96.27,0.09l-0.12,0.03l-0.27,0.09l-0.12,0.03l-0.18,0.05l-0.12,0.04l-0.18,0.06l-0.12,0.03l-0.27,0.09l-0.12,0.03l-0.18,0.06l-0.12,0.03l-0.27,0.09l-0.12,0.03l-0.18,0.06l-0.12,0.03l-0.27,0.09l-0.12,0.03l-0.18,0.06l-0.12,0.02l-0.18,0.07l-0.12,0.03l-0.27,0.09l-0.12,0.03l-0.18,0.06l-0.12,0.03l-0.27,0.09l-0.12,0.03l-0.18,0.06l-0.12,0.03l-0.27,0.09l-0.12,0.03l-0.18,0.06l-0.12,0.03l-0.18,0.06l-0.12,0.03l-0.27,0.09l-0.12,0.03l-0.18,0.06l-0.12,0.03l-0.27,0.09l-0.12,0.03l-0.18,0.06l-0.12,0.03l-0.27,0.09l-0.12,0.03l-0.18,0.06l-0.12,0.03l-0.18,0.05l-0.12,0.04l-0.27,0.09l-0.12,0.03l-0.18,0.06l-0.12,0.03l-0.27,0.09l-0.12,0.03l-0.18,0.06l-0.12,0.03l-0.27,0.09l-0.12,0.03l-0.18,0.06l-0.12,0.03l-0.18,0.06l-0.12,0.02l-0.27,0.1l-0.12,0.03l-0.18,0.06l-0.12,0.03l-0.27,0.09l-0.12,0.03l-0.18,0.06l-0.12,0.03l-0.06,0.03l0,2.97l5.01,0l-0.03,34.5l-0.96,0.24l-0.15,0.03l-3.36,0.84l0,2.88l19.74,0l0,-2.88l-0.12,-0.04l-0.15,-0.02l-0.12,-0.03l-0.15,-0.03l-0.12,-0.03l-0.15,-0.03l-0.12,-0.03l-0.15,-0.03l-0.12,-0.03l-0.15,-0.03l-0.12,-0.03l-0.15,-0.03l-0.12,-0.03l-0.15,-0.03l-0.12,-0.03l-0.15,-0.03l-0.12,-0.03l-0.15,-0.03l-0.12,-0.03l-0.15,-0.03l-0.12,-0.03l-0.15,-0.03l-0.12,-0.03l-0.15,-0.03l-0.12,-0.03l-0.15,-0.04l-0.12,-0.02l-0.15,-0.03l-0.12,-0.03l-0.15,-0.03l-0.12,-0.03l-0.15,-0.03l-0.12,-0.03l-0.15,-0.03l-0.12,-0.03l-0.15,-0.03l-0.12,-0.03l-0.06,0l0,-9.99l0.06,0l0.6,0.06l0.33,0.03l0.3,0.03l0.33,0.03l0.42,0.03l0.45,0.03l0.54,0.03l0.69,0.03l2.55,0.03l0,-0.03l0.48,-0.03l0.42,-0.03l0.6,-0.06l0.27,-0.03l0.18,-0.03l0.63,-0.09l0.45,-0.09l0.18,-0.03l0.3,-0.07l0.96,-0.23l0.18,-0.06l0.12,-0.03l0.09,-0.03l0.12,-0.03l0.9,-0.3l0.06,-0.03l0.09,-0.04l0.06,-0.02l0.09,-0.03l0.06,-0.03l0.09,-0.03l0.06,-0.03l0.09,-0.03l0.06,-0.03l0.09,-0.03l0.12,-0.06l0.09,-0.03l0.3,-0.15l0.09,-0.03l0.6,-0.3l0.03,-0.03l0.36,-0.18l0.03,-0.03l0.12,-0.06l0.03,-0.03l0.12,-0.06l0.03,-0.03l0.12,-0.06l0.03,-0.03l0.12,-0.06l0.03,-0.03l0.06,-0.03l0.03,-0.03l0.06,-0.04l0.03,-0.02l0.06,-0.03l0.03,-0.03l0.06,-0.03l0.03,-0.03l0.06,-0.03l0.03,-0.03l0.06,-0.03l0.03,-0.03l0.06,-0.03l0.03,-0.03l0.06,-0.03l0.03,-0.03l0.06,-0.03l0.06,-0.06l0.06,-0.03l0.06,-0.06l0.06,-0.03l0.06,-0.06l0.06,-0.03l0.06,-0.07l0.06,-0.02l0.12,-0.12l0.06,-0.03l0.12,-0.12l0.06,-0.03l0.12,-0.12l0.06,-0.03l0.18,-0.18l0.06,-0.03l0.99,-0.99l0.03,-0.06l0.15,-0.15l0.03,-0.06l0.15,-0.15l0.03,-0.06l0.12,-0.12l0.03,-0.06l0.06,-0.06l0.03,-0.06l0.09,-0.09l0.03,-0.06l0.06,-0.06l0.03,-0.06l0.06,-0.06l0.03,-0.06l0.06,-0.06l0.03,-0.06l0.03,-0.04l0.03,-0.05l0.03,-0.03l0.03,-0.06l0.03,-0.03l0.03,-0.06l0.06,-0.06l0.03,-0.06l0.03,-0.03l0.03,-0.06l0.03,-0.03l0.06,-0.12l0.03,-0.03l0.03,-0.06l0.03,-0.03l0.06,-0.12l0.03,-0.03l0.06,-0.12l0.03,-0.03l0.06,-0.12l0.03,-0.03l0.12,-0.24l0.03,-0.03l0.15,-0.3l0.03,-0.03l0.12,-0.24l0.03,-0.09l0.24,-0.48l0.03,-0.09l0.03,-0.06l0.03,-0.09l0.06,-0.12l0.03,-0.09l0.03,-0.06l0.03,-0.09l0.03,-0.06l0.03,-0.09l0.03,-0.06l0.09,-0.27l0.03,-0.06l0.18,-0.54l0.03,-0.12l0.09,-0.27l0.03,-0.12l0.03,-0.09l0.21,-0.84l0.18,-0.9l0.03,-0.21l0.03,-0.18l0.06,-0.42l0.09,-0.81l0.03,-0.45l0.03,-0.48l0.03,-1.44l-0.03,0l0,-0.84l-0.03,0l0,-0.42l-0.03,0l0,-0.27l-0.03,0l0,-0.27l-0.03,0l0,-0.27l-0.03,0l0,-0.27l-0.03,0l0,-0.24l-0.03,0l0,-0.15l-0.03,0l0,-0.19l-0.03,0l0,-0.14l-0.03,0l0,-0.15l-0.03,0l0,-0.15l-0.03,0l0,-0.18l-0.03,0l0,-0.15l-0.03,0l0,-0.15l-0.03,0l0,-0.15l-0.03,0l0,-0.12l-0.03,0l0,-0.12l-0.03,0l0,-0.09l-0.03,0l0,-0.12l-0.03,0l0,-0.12l-0.03,0l0,-0.09l-0.03,0l0,-0.12l-0.03,0l0,-0.12l-0.03,0l0,-0.09l-0.03,0l0,-0.12l-0.03,0l0,-0.12l-0.03,0l0,-0.09l-0.03,0l0,-0.12l-0.03,0l0,-0.06l-0.03,0l0,-0.09l-0.03,0l0,-0.09l-0.03,0l0,-0.09l-0.03,0l0,-0.06l-0.03,0l0,-0.1l-0.03,0l0,-0.08l-0.03,0l0,-0.09l-0.03,0l0,-0.06l-0.03,0l0,-0.09l-0.03,0l0,-0.09l-0.03,0l0,-0.06l-0.03,0l0,-0.09l-0.03,0l0,-0.09l-0.03,0l0,-0.1l-0.03,0l0,-0.05l-0.03,0l0,-0.06l-0.03,0l0,-0.06l-0.03,0l0,-0.09l-0.03,0l0,-0.06l-0.03,0l0,-0.06l-0.03,0l0,-0.06l-0.03,0l0,-0.06l-0.03,0l0,-0.06l-0.03,0l0,-0.06l-0.03,0l0,-0.09l-0.03,0l0,-0.06l-0.03,0l0,-0.06l-0.03,0l0,-0.06l-0.03,0l0,-0.06l-0.03,0l0,-0.06l-0.03,0l0,-0.06l-0.03,0l0,-0.09l-0.03,0l0,-0.06l-0.03,0l0,-0.06l-0.03,-0.03l-0.03,0l0,-0.06l-0.03,0l0,-0.06l-0.03,-0.03l-0.03,0l0,-0.06l-0.03,0l0,-0.06l-0.03,0l0,-0.06l-0.03,-0.03l-0.03,0l0,-0.06l-0.03,0l0,-0.06l-0.03,-0.03l-0.03,0l0,-0.06l-0.03,0l0,-0.06l-0.03,0l0,-0.06l-0.03,-0.03l-0.03,0l0,-0.06l-0.03,0l0,-0.06l-0.03,0l0,-0.06l-0.03,-0.04l-0.03,0l0,-0.05l-0.03,0l0,-0.06l-0.06,-0.06l-0.03,0l0,-0.06l-0.03,-0.03l-0.03,0l0,-0.06l-0.06,-0.06l-0.03,0l0,-0.06l-0.03,-0.03l-0.03,0l0,-0.06l-0.06,-0.06l-0.03,0l0,-0.06l-0.03,-0.03l-0.03,0l0,-0.07l-0.06,-0.05l-0.03,0l0,-0.06l-0.03,-0.03l-0.03,0l0,-0.06l-0.06,-0.06l-0.03,0l0,-0.06l-0.06,-0.06l-0.03,0l0,-0.06l-0.18,-0.18l-0.03,0l0,-0.06l-0.18,-0.18l-0.03,0l0,-0.06l-0.18,-0.18l-0.03,0l0,-0.06l-0.45,-0.45l-0.06,-0.03l-0.33,-0.33l-0.06,-0.03l-0.18,-0.18l-0.06,-0.03l-0.06,-0.06l-0.06,-0.03l-0.06,-0.06l-0.06,-0.03l-0.06,-0.06l-0.06,-0.03l-0.06,-0.06l-0.06,-0.03l-0.06,-0.06l-0.06,-0.03l-0.06,-0.06l-0.06,-0.03l-0.03,-0.03l-0.06,-0.03l-0.06,-0.06l-0.06,-0.03l-0.03,-0.03l-0.12,-0.07l-0.03,-0.02l-0.12,-0.06l-0.03,-0.03l-0.06,-0.03l-0.03,-0.03l-0.24,-0.12l-0.03,-0.03l-0.66,-0.33l-0.09,-0.03l-0.12,-0.07l-0.09,-0.02l-0.06,-0.03l-0.09,-0.03l-0.06,-0.03l-0.09,-0.03l-0.06,-0.03l-0.63,-0.21l-0.12,-0.03l-0.09,-0.03l-0.24,-0.06l-0.09,-0.03l-0.45,-0.09l-0.12,-0.03l-0.63,-0.1l-0.33,-0.02l-0.48,-0.03l-0.87,0l-0.72,0.03l-0.27,0.02l-0.24,0.04l-0.27,0.03l-0.21,0.03l-0.18,0.03l-0.3,0.06l-0.12,0.03l-0.15,0.03l-0.24,0.06l-0.09,0.03l-0.12,0.03l-0.18,0.06l-0.12,0.03l-0.45,0.15l-0.06,0.03l-0.18,0.06l-0.06,0.03l-0.09,0.02l-0.06,0.04l-0.18,0.06l-0.06,0.03l-0.09,0.03l-0.12,0.06l-0.09,0.03l-0.18,0.09l-0.09,0.03l-0.12,0.06l-0.09,0.03l-0.42,0.21l-0.09,0.03l-0.6,0.3l-0.03,0.03l-0.6,0.3l-0.03,0.03l-0.42,0.21l-0.03,0.03l-0.24,0.12l-0.03,0.03l-0.24,0.12l-0.03,0.03l-0.24,0.12l-0.03,0.03l-0.18,0.09l-0.03,0.03l-0.18,0.08l-0.03,0.04l-0.18,0.09l-0.03,0.03l-0.18,0.09l-0.03,0.03l-0.12,0.06l-0.03,0.03l-0.18,0.09l-0.03,0.03l-0.12,0.06l-0.03,0.03l-0.12,0.06l-0.03,0.03l-0.18,0.08l-0.03,0.04l-0.12,0.06l-0.03,0.03l-0.06,0.03l0,-4.11l-3.18,0Zm6.03,6.63l-0.39,0.03l-0.36,0.03l-0.27,0.03l-0.3,0.03l-0.27,0.03l-0.24,0.03l-0.27,0.03l-0.48,0.06l-0.27,0.03l0,20.73l0.48,0l1.77,0.03l0,-0.03l0.66,-0.03l0.48,-0.06l0.21,-0.03l0.24,-0.03l0.18,-0.03l0.12,-0.03l0.15,-0.03l0.12,-0.03l0.15,-0.03l0.24,-0.06l0.15,-0.03l0.27,-0.09l0.06,-0.03l0.63,-0.21l0.42,-0.21l0.09,-0.03l0.36,-0.18l0.03,-0.03l0.06,-0.04l0.03,-0.02l0.12,-0.06l0.03,-0.03l0.06,-0.03l0.03,-0.03l0.12,-0.06l0.03,-0.03l0.06,-0.03l0.03,-0.03l0.12,-0.06l0.09,-0.09l0.06,-0.03l0.09,-0.09l0.06,-0.03l0.09,-0.09l0.06,-0.04l0.12,-0.11l0.06,-0.03l0.63,-0.63l0.03,-0.06l0.15,-0.15l0.03,-0.06l0.06,-0.06l0.03,-0.06l0.06,-0.06l0.03,-0.06l0.06,-0.06l0.03,-0.06l0.06,-0.06l0.03,-0.06l0.06,-0.06l0.03,-0.06l0.03,-0.03l0.06,-0.12l0.03,-0.03l0.09,-0.18l0.03,-0.03l0.06,-0.12l0.03,-0.03l0.09,-0.18l0.03,-0.03l0.15,-0.3l0.03,-0.09l0.12,-0.24l0.03,-0.09l0.12,-0.24l0.09,-0.27l0.03,-0.06l0.27,-0.82l0.09,-0.35l0.03,-0.15l0.12,-0.48l0.03,-0.15l0.18,-1.08l0.12,-1.32l0.03,-1.02l0.03,-0.66l-0.03,0l0,-0.9l-0.03,0l0,-0.36l-0.03,0l0,-0.33l-0.03,0l0,-0.33l-0.03,0l0,-0.18l-0.03,0l0,-0.21l-0.03,0l0,-0.18l-0.03,0l0,-0.18l-0.03,0l0,-0.21l-0.03,0l0,-0.12l-0.03,0l0,-0.15l-0.03,0l0,-0.12l-0.03,0l0,-0.12l-0.03,0l0,-0.12l-0.03,0l0,-0.15l-0.03,0l0,-0.13l-0.03,0l0,-0.11l-0.03,0l0,-0.09l-0.03,0l0,-0.09l-0.03,0l0,-0.09l-0.03,0l0,-0.09l-0.03,0l0,-0.09l-0.03,0l0,-0.09l-0.03,0l0,-0.1l-0.03,0l0,-0.08l-0.03,0l0,-0.09l-0.03,0l0,-0.09l-0.03,0l0,-0.06l-0.03,0l0,-0.06l-0.03,0l0,-0.09l-0.03,0l0,-0.06l-0.03,0l0,-0.06l-0.03,0l0,-0.09l-0.03,0l0,-0.07l-0.03,0l0,-0.05l-0.03,0l0,-0.09l-0.03,0l0,-0.06l-0.03,0l0,-0.06l-0.03,0l0,-0.06l-0.03,-0.03l-0.03,0l0,-0.06l-0.03,0l0,-0.06l-0.03,0l0,-0.06l-0.03,0l0,-0.06l-0.03,-0.03l-0.03,0l0,-0.06l-0.03,0l0,-0.07l-0.03,0l0,-0.05l-0.03,-0.03l-0.03,0l0,-0.06l-0.03,0l0,-0.06l-0.03,-0.03l-0.03,0l0,-0.06l-0.03,-0.03l-0.03,0l0,-0.06l-0.06,-0.06l-0.03,0l0,-0.06l-0.03,-0.03l-0.03,0l0,-0.06l-0.06,-0.06l-0.03,0l0,-0.06l-0.03,-0.04l-0.03,0l0,-0.05l-0.12,-0.12l-0.03,0l0,-0.06l-0.27,-0.27l-0.03,0l0,-0.06l-0.18,-0.19l-0.06,-0.02l-0.15,-0.15l-0.06,-0.03l-0.15,-0.15l-0.06,-0.03l-0.09,-0.09l-0.06,-0.03l-0.03,-0.03l-0.06,-0.03l-0.03,-0.03l-0.06,-0.03l-0.03,-0.03l-0.06,-0.03l-0.03,-0.03l-0.06,-0.04l-0.03,-0.02l-0.06,-0.03l-0.03,-0.03l-0.78,-0.39l-0.09,-0.03l-0.06,-0.03l-0.36,-0.12l-0.06,-0.03l-0.18,-0.07l-0.24,-0.05l-0.15,-0.03l-0.36,-0.09l-0.18,-0.03l-0.21,-0.03l-0.24,-0.03l-0.21,-0.03l-0.51,-0.03l-1.17,0Z"/></clipPath><g clip-path="url(#_clip1)"><rect x="0.01" y="78.21" width="120.75" height="45.2" style="fill:#1c1c1a;"/></g><rect x="154.72" y="37.98" width="7.46" height="15.12" style="fill:#eb5e96;"/><rect x="162.19" y="37.98" width="0.17" height="15.12" style="fill:#303d85;"/><rect x="133.48" y="6.09" width="5.94" height="9.17" style="fill:#f7b885;"/><rect x="103.33" y="0.21" width="30.14" height="5.87" style="fill:#f2911f;"/><rect x="103.33" y="0.18" width="30.14" height="0.03" style="fill:#335e1a;"/><rect x="103.33" y="6.09" width="30.14" height="9.17" style="fill:#eb690f;"/><rect x="139.42" y="15.27" width="15.3" height="22.71" style="fill:#fab800;"/><rect x="139.42" y="37.98" width="15.3" height="15.12" style="fill:#e64500;"/><rect x="133.48" y="15.27" width="5.94" height="22.71" style="fill:#f28500;"/><rect x="133.48" y="37.98" width="5.94" height="15.12" style="fill:#de3000;"/><clipPath id="_clip2"><path d="M103.33,15.27l0,15.12l18.84,0l0,7.59l11.31,0l0,-22.71l-30.15,0Z"/></clipPath><g clip-path="url(#_clip2)"><rect x="103.33" y="15.27" width="30.14" height="22.71" style="fill:#e84d00;"/></g><rect x="122.17" y="37.98" width="11.3" height="15.12" style="fill:#d41c00;"/><rect x="103.33" y="30.39" width="18.83" height="7.58" style="fill:#bd3600;"/><rect x="103.33" y="37.98" width="18.83" height="15.12" style="fill:#ad1200;"/><rect x="73.09" y="53.1" width="30.23" height="7.55" style="fill:#bf2414;"/></g></svg>