<svg viewBox="0 0 140 113" xmlns="http://www.w3.org/2000/svg" xml:space="preserve" style="fill-rule:evenodd;clip-rule:evenodd;stroke-linejoin:round;stroke-miterlimit:2"><path d="M4.725 100.603c.599-.279 1.099-.437 2.794-.627 2.228-.253 3.733-1.317 3.733-3.577 0-2.135-1.192-3.512-4.33-3.512-.784 0-1.474.062-2.197.185v7.531Zm-4.61-10.95c2.038-.343 5.113-.469 6.933-.469 5.898 0 8.942 2.323 8.942 7.215 0 3.201-2.008 5.272-4.394 6.057 1.79 1.946 4.206 5.739 5.68 8.909h-5.144c-1.224-2.634-3.577-6.337-4.832-7.844l-.911.188c-1.318.284-1.664.663-1.664 3.452v4.204H.115V89.653ZM28.442 103.521c-.218.221-.502.378-1.002.503l-1.82.533c-1.695.502-2.07 1.192-2.07 2.135 0 1.067.784 1.757 1.849 1.757 1.885 0 3.043-1.098 3.043-2.859v-2.069Zm4.426 7.844h-3.702c-.25-.596-.315-1.318-.315-1.786-1.193 1.473-2.918 2.13-4.863 2.13-3.012 0-4.83-2.036-4.83-4.608 0-2.45 1.316-4.205 5.111-5.147l2.481-.63c1.286-.31 1.692-.752 1.692-1.502 0-.787-.719-1.351-2.259-1.351-2.07 0-4.361.564-5.739 1.129v-3.577c1.474-.661 3.607-1.067 6.087-1.067 3.825 0 6.337 1.444 6.337 5.899l.001 10.51ZM37.163 95.362h4.426v16.003h-4.426V95.362Zm2.199-7.558a2.795 2.795 0 0 1 2.791 2.789 2.798 2.798 0 0 1-2.791 2.796 2.8 2.8 0 0 1-2.793-2.796 2.796 2.796 0 0 1 2.793-2.789M57.87 98.722h-6.901v12.644h-4.424V98.722h-2.04v-3.359h2.04v-1.975c0-2.981 1.536-5.142 5.334-5.142 1.57 0 2.919.31 3.294.435v3.483c-.656-.159-1.38-.377-2.289-.377-1.411 0-1.915.845-1.915 2.007v1.569h6.901v-1.975c0-2.981 1.544-5.142 5.339-5.142 1.563 0 2.916.31 3.293.435v3.483c-.66-.159-1.381-.377-2.292-.377-1.412 0-1.914.845-1.914 2.007v1.569h3.389v3.359h-3.389v12.644H57.87V98.722ZM71.239 102.801v.315c.218-.221.594-.409 1.318-.597l1.947-.504c1.471-.373 2.129-.972 2.129-1.914 0-1.034-.721-1.663-1.974-1.663-2.168 0-3.42 1.728-3.42 4.363m1.752 2.51c-.815.187-1.158.567-1.158 1.221 0 .661.692 1.76 2.447 1.76 1.913 0 4.704-.659 6.685-1.508v3.548c-1.508.849-3.827 1.442-6.685 1.442-4.955 0-7.466-3.324-7.466-8.411 0-5.079 3.201-8.406 7.874-8.406 4.364 0 6.369 2.163 6.369 4.866 0 2.884-1.695 4.014-5.239 4.829l-2.827.659ZM84.603 95.362h4.423v16.003h-4.423V95.362Zm2.195-7.558a2.798 2.798 0 0 1 2.793 2.789 2.801 2.801 0 0 1-2.793 2.796 2.8 2.8 0 0 1-2.793-2.796 2.796 2.796 0 0 1 2.793-2.789M103.77 95.962v3.545c-1.538-.691-3.389-1.1-4.769-1.1-1.192 0-1.942.474-1.942 1.286 0 .786.502 1.161 2.036 1.663l1.476.474c2.731.875 3.988 2.351 3.988 4.673 0 3.356-2.392 5.271-6.811 5.271-1.946 0-3.512-.41-5.242-1.191v-3.703c1.634.878 3.612 1.443 5.271 1.443 1.508 0 2.26-.503 2.26-1.443 0-.783-.534-1.192-1.945-1.663l-1.473-.503c-2.479-.85-4.085-2.165-4.085-4.891 0-2.64 1.885-4.866 6.185-4.866 2.007 0 3.797.435 5.051 1.005M111.485 102.801v.315c.221-.221.598-.409 1.32-.597l1.944-.504c1.479-.373 2.133-.972 2.133-1.914 0-1.034-.719-1.663-1.974-1.663-2.166 0-3.423 1.728-3.423 4.363m1.758 2.51c-.816.187-1.16.567-1.16 1.221 0 .661.693 1.76 2.446 1.76 1.916 0 4.709-.659 6.684-1.508v3.548c-1.502.849-3.826 1.442-6.684 1.442-4.955 0-7.465-3.324-7.465-8.411 0-5.079 3.202-8.406 7.878-8.406 4.358 0 6.365 2.163 6.365 4.866 0 2.884-1.692 4.014-5.238 4.829l-2.826.659ZM138.563 97.78c.44 1.07.598 2.478.598 4.332v9.253h-4.425v-8.282c0-1.851-.098-2.51-.315-3.137-.312-.88-.971-1.318-2.005-1.318-2.012 0-3.168 1.195-3.168 4.642v8.095h-4.426V95.362h3.705c.247.629.308 1.726.308 2.2.728-1.414 2.511-2.606 4.927-2.606 2.354 0 4.018.879 4.801 2.824" style="fill:#001e48;fill-rule:nonzero"/><path d="M93.529 66.184a.541.541 0 0 0 .44-.862L78.843 44.339s-.76-1.181-1.65-1.828c-.901-.653-1.944-.775-2.294-.846-15.596-3.27-21.35-8.858-24.89-14.865-2.13-3.616-3.363-8.192-4.064-12.582-.081-.523-.807-.645-.807.263l.003 32.368c.002 5.254 1.217 10.376 5.225 14.383 3.534 3.668 9.265 4.952 14.516 4.952h28.647Z" style="fill:#ced400;fill-rule:nonzero"/><path d="M71.675.293 51.039.3c-1.005 0-.729.621-.183.768 5.319 1.412 16.17 5.213 20.876 11.609 8.651 11.754 5.947 25.711 5.705 27.187.064-.013.127-.031.189-.042a25.416 25.416 0 0 0 4.291-1.453c7.456-3.313 12.577-10.101 12.577-17.96C94.494 9.3 84.281.293 71.675.293" style="fill:#001e48;fill-rule:nonzero"/></svg>