<?xml version="1.0" encoding="UTF-8" standalone="no"?><!DOCTYPE svg PUBLIC "-//W3C//DTD SVG 1.1//EN" "http://www.w3.org/Graphics/SVG/1.1/DTD/svg11.dtd"><svg width="100%" height="100%" viewBox="0 0 140 113" version="1.1" xmlns="http://www.w3.org/2000/svg" xmlns:xlink="http://www.w3.org/1999/xlink" xml:space="preserve" xmlns:serif="http://www.serif.com/" style="fill-rule:evenodd;clip-rule:evenodd;stroke-linejoin:round;stroke-miterlimit:2;"><g id="logo"><path d="M4.725,100.603c0.599,-0.279 1.099,-0.437 2.794,-0.627c2.228,-0.253 3.733,-1.317 3.733,-3.577c0,-2.135 -1.192,-3.512 -4.33,-3.512c-0.784,0 -1.474,0.062 -2.197,0.185l0,7.531Zm-4.61,-10.95c2.038,-0.343 5.113,-0.469 6.933,-0.469c5.898,0 8.942,2.323 8.942,7.215c0,3.201 -2.008,5.272 -4.394,6.057c1.79,1.946 4.206,5.739 5.68,8.909l-5.144,0c-1.224,-2.634 -3.577,-6.337 -4.832,-7.844l-0.911,0.188c-1.318,0.284 -1.664,0.663 -1.664,3.452l0,4.204l-4.61,0l0,-21.712Z" style="fill:#001e48;fill-rule:nonzero;"/><path d="M28.442,103.521c-0.218,0.221 -0.502,0.378 -1.002,0.503l-1.82,0.533c-1.695,0.502 -2.07,1.192 -2.07,2.135c0,1.067 0.784,1.757 1.849,1.757c1.885,0 3.043,-1.098 3.043,-2.859l0,-2.069Zm4.426,7.844l-3.702,0c-0.25,-0.596 -0.315,-1.318 -0.315,-1.786c-1.193,1.473 -2.918,2.13 -4.863,2.13c-3.012,0 -4.83,-2.036 -4.83,-4.608c0,-2.45 1.316,-4.205 5.111,-5.147l2.481,-0.63c1.286,-0.31 1.692,-0.752 1.692,-1.502c0,-0.787 -0.719,-1.351 -2.259,-1.351c-2.07,0 -4.361,0.564 -5.739,1.129l0,-3.577c1.474,-0.661 3.607,-1.067 6.087,-1.067c3.825,0 6.337,1.444 6.337,5.899l0.001,10.51Z" style="fill:#001e48;fill-rule:nonzero;"/><path d="M37.163,95.362l4.426,0l0,16.003l-4.426,0l0,-16.003Zm2.199,-7.558c1.538,0 2.791,1.253 2.791,2.789c0,1.54 -1.253,2.796 -2.791,2.796c-1.539,0 -2.793,-1.256 -2.793,-2.796c0,-1.536 1.254,-2.789 2.793,-2.789" style="fill:#001e48;fill-rule:nonzero;"/><path d="M57.87,98.722l-6.901,0l0,12.644l-4.424,0l0,-12.644l-2.04,0l0,-3.359l2.04,0l0,-1.975c0,-2.981 1.536,-5.142 5.334,-5.142c1.57,0 2.919,0.31 3.294,0.435l0,3.483c-0.656,-0.159 -1.38,-0.377 -2.289,-0.377c-1.411,0 -1.915,0.845 -1.915,2.007l0,1.569l6.901,0l0,-1.975c0,-2.981 1.544,-5.142 5.339,-5.142c1.563,0 2.916,0.31 3.293,0.435l0,3.483c-0.66,-0.159 -1.381,-0.377 -2.292,-0.377c-1.412,0 -1.914,0.845 -1.914,2.007l0,1.569l3.389,0l0,3.359l-3.389,0l0,12.644l-4.426,0l0,-12.644Z" style="fill:#001e48;fill-rule:nonzero;"/><path d="M71.239,102.801l0,0.315c0.218,-0.221 0.594,-0.409 1.318,-0.597l1.947,-0.504c1.471,-0.373 2.129,-0.972 2.129,-1.914c0,-1.034 -0.721,-1.663 -1.974,-1.663c-2.168,0 -3.42,1.728 -3.42,4.363m1.752,2.51c-0.815,0.187 -1.158,0.567 -1.158,1.221c0,0.661 0.692,1.76 2.447,1.76c1.913,0 4.704,-0.659 6.685,-1.508l0,3.548c-1.508,0.849 -3.827,1.442 -6.685,1.442c-4.955,0 -7.466,-3.324 -7.466,-8.411c0,-5.079 3.201,-8.406 7.874,-8.406c4.364,0 6.369,2.163 6.369,4.866c0,2.884 -1.695,4.014 -5.239,4.829l-2.827,0.659Z" style="fill:#001e48;fill-rule:nonzero;"/><path d="M84.603,95.362l4.423,0l0,16.003l-4.423,0l0,-16.003Zm2.195,-7.558c1.536,0 2.793,1.253 2.793,2.789c0,1.54 -1.257,2.796 -2.793,2.796c-1.539,0 -2.793,-1.256 -2.793,-2.796c0,-1.536 1.254,-2.789 2.793,-2.789" style="fill:#001e48;fill-rule:nonzero;"/><path d="M103.77,95.962l0,3.545c-1.538,-0.691 -3.389,-1.1 -4.769,-1.1c-1.192,0 -1.942,0.474 -1.942,1.286c0,0.786 0.502,1.161 2.036,1.663l1.476,0.474c2.731,0.875 3.988,2.351 3.988,4.673c0,3.356 -2.392,5.271 -6.811,5.271c-1.946,0 -3.512,-0.41 -5.242,-1.191l0,-3.703c1.634,0.878 3.612,1.443 5.271,1.443c1.508,0 2.26,-0.503 2.26,-1.443c0,-0.783 -0.534,-1.192 -1.945,-1.663l-1.473,-0.503c-2.479,-0.85 -4.085,-2.165 -4.085,-4.891c0,-2.64 1.885,-4.866 6.185,-4.866c2.007,0 3.797,0.435 5.051,1.005" style="fill:#001e48;fill-rule:nonzero;"/><path d="M111.485,102.801l0,0.315c0.221,-0.221 0.598,-0.409 1.32,-0.597l1.944,-0.504c1.479,-0.373 2.133,-0.972 2.133,-1.914c0,-1.034 -0.719,-1.663 -1.974,-1.663c-2.166,0 -3.423,1.728 -3.423,4.363m1.758,2.51c-0.816,0.187 -1.16,0.567 -1.16,1.221c0,0.661 0.693,1.76 2.446,1.76c1.916,0 4.709,-0.659 6.684,-1.508l0,3.548c-1.502,0.849 -3.826,1.442 -6.684,1.442c-4.955,0 -7.465,-3.324 -7.465,-8.411c0,-5.079 3.202,-8.406 7.878,-8.406c4.358,0 6.365,2.163 6.365,4.866c0,2.884 -1.692,4.014 -5.238,4.829l-2.826,0.659Z" style="fill:#001e48;fill-rule:nonzero;"/><path d="M138.563,97.78c0.44,1.07 0.598,2.478 0.598,4.332l0,9.253l-4.425,0l0,-8.282c0,-1.851 -0.098,-2.51 -0.315,-3.137c-0.312,-0.88 -0.971,-1.318 -2.005,-1.318c-2.012,0 -3.168,1.195 -3.168,4.642l0,8.095l-4.426,0l0,-16.003l3.705,0c0.247,0.629 0.308,1.726 0.308,2.2c0.728,-1.414 2.511,-2.606 4.927,-2.606c2.354,0 4.018,0.879 4.801,2.824" style="fill:#001e48;fill-rule:nonzero;"/><path d="M93.529,66.184c0.196,0 0.388,-0.109 0.484,-0.294c0.097,-0.19 0.073,-0.411 -0.044,-0.568l-15.126,-20.983c0,0 -0.76,-1.181 -1.65,-1.828c-0.901,-0.653 -1.944,-0.775 -2.294,-0.846c-15.596,-3.27 -21.35,-8.858 -24.89,-14.865c-2.13,-3.616 -3.363,-8.192 -4.064,-12.582c-0.081,-0.523 -0.807,-0.645 -0.807,0.263c0,0.911 0.003,32.368 0.003,32.368c0.002,5.254 1.217,10.376 5.225,14.383c3.534,3.668 9.265,4.952 14.516,4.952l28.647,0Z" style="fill:#ced400;fill-rule:nonzero;"/><path d="M71.675,0.293c-0.037,0 -19.63,0.007 -20.636,0.007c-1.005,0 -0.729,0.621 -0.183,0.768c5.319,1.412 16.17,5.213 20.876,11.609c8.651,11.754 5.947,25.711 5.705,27.187c0.064,-0.013 0.127,-0.031 0.189,-0.042c1.497,-0.362 2.932,-0.853 4.291,-1.453c7.456,-3.313 12.577,-10.101 12.577,-17.96c0,-11.109 -10.213,-20.116 -22.819,-20.116" style="fill:#001e48;fill-rule:nonzero;"/></g></svg>