<?xml version="1.0" encoding="UTF-8" standalone="no"?><!DOCTYPE svg PUBLIC "-//W3C//DTD SVG 1.1//EN" "http://www.w3.org/Graphics/SVG/1.1/DTD/svg11.dtd"><svg width="100%" height="100%" viewBox="0 0 241 156" version="1.1" xmlns="http://www.w3.org/2000/svg" xmlns:xlink="http://www.w3.org/1999/xlink" xml:space="preserve" xmlns:serif="http://www.serif.com/" style="fill-rule:evenodd;clip-rule:evenodd;stroke-miterlimit:10;"><path d="M135.355,38.004c0.954,-0.133 2.93,0.785 3.852,1.093c4.555,1.52 8.922,3.457 13.535,4.84c0,-0.234 -3.414,-1.582 -3.949,-1.773c-3.094,-1.11 -6.133,-2.352 -9.27,-3.395c-1.136,-0.379 -2.246,-0.937 -3.449,-1.133l0,-0.101l0.102,0c0,-0.188 0.449,-0.402 0.613,-0.496c1.359,-0.781 4.117,-1.965 5.766,-0.996c0.73,0.425 0.586,1.246 0.937,1.898c0,0.188 0.543,0.059 0.684,0.02c1.941,-0.551 2.543,-1.867 4.703,-0.325l0,0.102l0.101,0c0,-0.277 -0.406,-0.551 -0.582,-0.742c-1.445,-1.539 -3.277,-0.11 -4.703,0.336c-0.05,-0.172 -0.109,-0.348 -0.164,-0.52c-0.332,-1.203 -1.031,-1.941 -2.379,-2.004c-0.332,-0.015 -0.738,-0.039 -1.015,0.086c-1.93,0 -3.121,1.516 -4.676,2.235l0,0.101c-0.031,-0.008 -0.063,-0.012 -0.098,-0.019c0.086,-0.403 0.172,-0.809 0.258,-1.211c0.188,-1.25 0.223,-2.957 -0.543,-3.891c-1.754,-2.125 -5.918,1.281 -7.035,2.887c-1.465,0 -0.879,-3.828 -1.992,-4.711c-1.461,-1.16 -4.528,1.488 -5.125,2.777l-0.301,0l0,-0.101l-0.102,0c0.086,-0.313 0.168,-0.625 0.254,-0.942c0.11,-0.566 0.219,-1.14 0.325,-1.707c0.285,-2.984 -0.727,-6.836 -3.54,-7.898c-0.851,-0.32 -1.656,-0.324 -2.632,-0.43c-0.496,0.164 -1.032,0.238 -1.485,0.477c-2.058,1.054 -2.902,3.695 -3.254,5.832c-0.129,0.781 -0.082,1.707 -0.343,2.429c0,-0.183 -0.344,-0.125 -0.496,-0.152c-0.606,-0.113 -4.993,-1.027 -5.223,-0.793c-0.012,0.07 0.051,0.125 0.113,0.152c1.102,0.477 5.145,0.668 5.711,1.407c-2.547,0 -5.23,3.105 -6.148,5.207c-0.18,0.437 -0.364,0.867 -0.543,1.304c-0.141,0.438 -0.282,0.875 -0.426,1.313l0,0.203l-0.102,0c0,-0.164 -0.464,-0.156 -0.617,-0.187c-0.64,-0.137 -6.172,-1.235 -6.476,-0.926c0.011,0.011 0.023,0.023 0.031,0.031c1.445,0.309 3.023,0.621 4.519,0.863c0.711,0.11 1.704,0.102 2.297,0.489c0.422,0.273 -0.285,3.144 1.059,4.101c0,0.168 0.058,0.102 0.203,0.102l0,-0.102l0.102,0l0,-0.203c-0.164,0 -0.2,-0.207 -0.266,-0.332c-0.559,-1.035 -0.527,-2.168 -0.445,-3.426c0.726,0 4.589,0.653 4.953,1.039c0.355,0.383 0.414,1.004 0.578,1.481c0.43,1.258 0.762,2.761 1.48,3.883c0,0.207 0.559,0.023 0.7,-0.028c0.871,-0.336 1.109,-1.789 1.742,-2.515c0,-0.153 0.058,-0.102 0.203,-0.102c0,0.828 0.195,4.781 1.351,4.32c0.231,-0.09 0.297,-0.347 0.313,-0.566c-0.043,-0.336 -0.082,-0.676 -0.125,-1.012c-0.07,-0.91 -0.195,-3.16 0.187,-3.859l0,-0.102c0.133,0 0.102,-0.035 0.102,0.102c0.164,0 0.187,0.094 0.234,0.226c0.375,1.18 0.141,2.696 0.786,3.739c0,0.179 0.261,0.074 0.39,0.047c0.684,-0.141 0.848,-0.856 0.93,-1.469l-0.102,0l0,-0.102l-0.101,0l0,0.102l-0.102,0l0,0.101c-0.773,0 -0.879,-1.847 -0.918,-2.441c0.715,0 2.676,0.5 3.254,0.812c0.152,0 0.137,0.086 0.16,0.211c0.207,1.227 -0.199,4.926 1.074,5.215c0.344,0.078 0.633,0.035 0.899,-0.156c0.844,-0.625 -0.219,-1.484 -0.332,-2.133c-0.16,-0.937 0.281,-1.922 1.25,-1.984c0.32,-0.02 0.617,0.023 0.84,0.246c0.394,0.394 0.113,1.234 0.082,1.754c-0.078,1.254 -0.403,5.429 0.199,6.336c0.113,0.168 0.391,0.246 0.594,0.246c0.347,0 0.722,-0.199 0.73,-0.582c0.008,-0.465 -0.449,-0.711 -0.621,-1.082c-0.066,-0.321 -0.133,-0.641 -0.203,-0.957c-0.211,-1.457 0.059,-3 0.105,-4.469l0.102,0c0.094,0.41 0.184,0.816 0.277,1.223c0.243,1.125 0.364,3.023 1.86,1.621l0,-0.102l0.101,0c0,0.637 0.086,2.848 0.328,3.274c0.129,0.222 0.442,0.289 0.692,0.308c0.289,0.02 0.613,-0.066 0.828,-0.226c0.574,-0.454 0.457,-1.895 0.215,-2.516c-0.184,-0.262 -0.371,-0.523 -0.555,-0.781c-0.391,-0.903 -0.074,-2.051 1.031,-2.051c2.403,0 -0.601,5.453 2.848,4.129c0,-0.137 -0.035,-0.106 0.102,-0.106c0,0.274 0.343,0.704 0.496,0.922c1.515,2.121 4.316,-2.133 6.695,-1.551c1.496,0.364 1.879,2.114 2.277,3.372c0.164,0.543 0.328,1.086 0.492,1.628l0.102,0c-0.094,-0.472 -0.184,-0.949 -0.277,-1.425c-0.274,-1.364 -0.699,-2.403 -1.352,-3.551l-0.097,0l0,-0.102c0.781,0 2.312,0.684 3.062,0.969c1.625,0.594 3.242,1.184 4.863,1.774l0.102,0c0,-0.227 -3.32,-1.555 -3.86,-1.747c-2.406,-0.902 -4.816,-1.808 -7.23,-2.71c-1.156,-0.395 -2.313,-0.797 -3.473,-1.196c-0.726,-0.269 -1.457,-0.535 -2.183,-0.808c-1.332,-0.704 0.582,-3.571 -1.446,-3.704l0,0.102c-0.14,0 -0.105,-0.035 -0.105,0.102c0.172,0 0.082,0.097 0.055,0.218c-0.118,0.547 0.152,2.676 -0.461,2.657c-0.61,-0.02 -1.789,-0.336 -2.11,-0.856c-0.609,-0.988 0.145,-2.387 -1.347,-2.73c0.113,-0.246 0.222,-0.493 0.328,-0.739c0.062,-0.699 0.121,-1.406 0.183,-2.109l0.204,0c0,0.137 -0.036,0.102 0.101,0.102c0,0.168 0.012,0.3 -0.101,0.406c0,0.191 0.238,0.39 0.324,0.555c0.254,0.496 0.523,1.593 1.355,1.343c0.52,-0.16 0.981,-2.879 0.656,-3.32c0,0.164 -0.117,0.289 -0.203,0.406c0,0.356 -0.203,-2.051 -0.203,-2.844l-0.101,0c0,-0.183 -0.348,-0.101 -0.508,-0.101l0,-0.106l0.101,0c0,-0.144 0.079,-0.125 0.211,-0.132c0.723,-0.063 2.918,0.601 3.145,1.254l0.101,0c0.036,-0.133 0.067,-0.27 0.102,-0.407c0.219,0 0.43,0.176 0.633,0.242c0.914,0.313 2.121,0.477 2.82,1.18c0,0.18 0.262,0.082 0.402,0.063m-4.058,9.289c0.976,0.058 1.801,0.383 2.66,0.656c1.316,0.426 2.629,0.852 3.945,1.273l0,0.102c-1.761,0 -2.902,2.164 -4.476,2.527c-0.324,0.071 -0.653,-0.125 -0.852,-0.343c-0.379,-0.414 -0.523,-1.047 -0.683,-1.567c-0.203,-0.637 -0.918,-2.031 -0.594,-2.648m-4.067,-1.016c0,-0.203 0.36,-0.226 0.508,-0.305l0.203,0c0,0.192 -0.371,0.289 -0.507,0.407c-0.102,-0.032 -0.204,-0.067 -0.305,-0.102l0.101,0Zm-6.199,-12.492l0,-0.113c0.047,0.023 0.059,0.05 0,0.113m-11.933,5.898c-0.231,-0.672 -0.5,-1.058 -1.282,-0.726c0.071,0.48 0.137,0.949 0.204,1.422l-0.102,0c0,-0.176 -0.266,-0.118 -0.402,-0.129c-0.75,-0.153 -1.5,-0.301 -2.25,-0.449c-0.645,-0.122 -1.356,-0.153 -1.922,-0.438l-0.102,0c0.223,-0.613 0.442,-1.234 0.664,-1.852c0.832,-2.031 2.285,-3.793 4.207,-4.964c0.446,-0.203 0.887,-0.403 1.328,-0.602c0.207,0.043 0.426,0.055 0.543,0.242c0.219,0.348 0.204,0.957 0.286,1.379c0.125,0.66 0.308,1.293 0.546,1.914c0.219,0.563 0.45,1.121 0.782,1.633c0.257,0.395 0.632,0.875 0.714,1.348c0.161,0.929 -0.351,1.769 -0.429,2.633c-0.856,0 -1.789,-0.336 -2.543,-0.61c-0.078,-0.269 -0.16,-0.535 -0.242,-0.801m2.277,-7.23c0,0.601 -0.078,1.23 0,1.828c0.102,-0.031 0.203,-0.066 0.301,-0.102l0,0.102c0.16,0 0.105,0.063 0.113,0.203c0.059,1 0.356,1.938 0.602,2.848l-0.102,0c-0.25,-0.414 -0.508,-0.836 -0.758,-1.25c-0.566,-1.235 -1.027,-2.563 -1.074,-4.035c0.391,0.074 0.594,0.211 0.918,0.406m-0.813,-1.219c0.235,0.035 0.473,0.067 0.711,0.102l0,0.203c-0.25,0 -0.554,-0.145 -0.711,-0.305m0.2,12.91l-0.098,0l0,-0.105c-0.226,0 -1,-2.281 -1.223,-2.641c0,-0.168 0.18,-0.16 0.305,-0.203c0.578,0.102 1.156,0.203 1.731,0.305l0.199,0c-0.301,0.883 -0.606,1.761 -0.914,2.644m0.613,0.098c-0.129,0 -0.121,-0.004 -0.098,-0.117c0.149,-0.864 0.578,-1.598 0.809,-2.422c1.109,0.488 -0.481,1.883 -0.711,2.539m1.016,-2.945c0,-0.137 0.031,-0.102 -0.102,-0.102l0,-0.101c0.133,0 0.102,0.031 0.102,-0.102c0.035,0.102 0.066,0.203 0.101,0.305l-0.101,0Zm0.304,-10.164c-0.183,0 -0.113,-0.161 -0.129,-0.305c-0.128,-1.168 0.032,-1.613 -1.293,-1.527l0,1.625c-0.269,-0.028 -0.543,-0.063 -0.816,-0.098l0,-0.106l-0.098,0c0,-2.632 0.614,-5.609 2.688,-7.164c0.473,-0.355 0.98,-0.484 1.476,-0.761c1.301,0 2.415,0.015 3.426,0.562c2.641,1.422 3.34,5.078 2.696,7.977c-0.122,0.519 -0.184,1.062 -0.43,1.523l0,0.102c-0.305,-0.094 -0.617,-0.188 -0.922,-0.282c-1.02,-0.257 -2.215,-0.371 -3.141,-0.835c-0.277,0 -0.07,-1.071 -0.101,-1.321c-1.098,0 -0.61,0.641 -1.153,1.028c-0.293,0.203 -1.953,-0.274 -2.203,-0.418m6.797,5.296c0.313,-0.613 0.621,-1.23 0.93,-1.843c0.109,0.785 -0.332,1.867 -0.61,2.543l0,0.203l-0.203,0c0,-0.297 -0.16,-0.594 -0.117,-0.903m-0.09,-1.128l-0.101,0l0,0.101l-0.102,0c0,-0.75 -0.304,-1.434 -0.304,-2.238c0.433,0.027 0.761,0.035 1.117,0.203l0.101,0c-0.234,0.644 -0.472,1.289 -0.711,1.934m1.02,-1.833l0,0.305c-0.192,0 -0.047,-0.191 0,-0.305m-2.746,-0.71l0,0.203c-0.098,0 -0.926,1.773 -1.121,2.035l0,0.098l-0.2,0c0,-0.864 -0.464,-1.602 -0.304,-2.54c0.48,0.012 1.011,0.032 1.422,0.204l0.203,0Zm-3.461,9.753c-0.039,0.762 -0.125,1.676 -0.403,2.344l0,0.203l-0.101,0l0,-0.101c-0.168,0 -0.207,-1.824 -0.121,-2.113c0.109,-0.176 0.215,-0.352 0.324,-0.532c0.137,0.035 0.27,0.067 0.406,0.102c-0.14,0 -0.101,-0.043 -0.105,0.097m0.41,-0.91c0.137,0 0.102,0.032 0.102,-0.101c0.07,0.101 0.136,0.203 0.203,0.304c-0.164,0 -0.219,-0.089 -0.305,-0.203m4.551,0.504c-0.008,0.176 -0.004,0.563 -0.168,0.649c-0.395,0.195 -3.078,-0.602 -3.227,-0.922c-0.465,-1.004 1.121,-1.317 1.692,-1.551c1.195,0.195 1.742,0.461 1.703,1.824m4.801,-0.504c0,-0.238 -0.446,-0.136 -0.61,-0.101c0,0.773 -0.078,1.566 -0.101,2.336c-0.137,0 -0.102,-0.035 -0.102,0.101c-0.172,-0.054 -0.344,-0.117 -0.516,-0.176c-0.613,-0.152 -1.492,-0.148 -1.925,-0.636c-0.219,0 -0.164,-0.364 -0.098,-0.508c0,0.101 0.027,0.07 0.098,0c0.187,0 0.105,-1.18 0.105,-1.422c-0.39,0 -0.305,1.008 -0.305,1.32c-0.449,0 0.461,-3.214 -1.425,-2.539c0,0.102 -0.032,0.071 -0.102,0c-0.351,0 -0.641,-0.258 -1.019,-0.281c-0.875,-0.059 -1.481,0.231 -2.235,0.383l0,0.098l-0.097,0c0,-0.348 -0.067,-0.637 -0.204,-0.915c0,-0.179 -0.351,-0.101 -0.511,-0.101l0,0.101c-0.149,0 -0.153,1.114 -0.102,1.325c0,0.136 -0.93,0.683 -1.117,0.914l-0.305,0l0,-0.102c-0.172,0 -0.105,-0.062 -0.105,-0.203c-0.012,-0.762 -0.008,-1.488 -0.008,-2.238c0,-0.375 -0.07,-0.77 0.012,-1.117c1.09,0 0.808,-1.266 0.66,-1.942c-0.078,-0.43 -0.16,-0.855 -0.238,-1.281c-0.075,-0.199 -0.274,-0.289 -0.387,-0.441c-0.094,-0.274 -0.184,-0.551 -0.278,-0.829c-0.113,-0.468 -0.082,-0.996 -0.062,-1.503c0.621,0.019 1.328,0.035 1.828,0.304c0.156,0 0.129,0.063 0.156,0.211c0.266,1.442 0.047,2.934 0.047,4.465c0,0.484 -0.015,0.992 0.102,1.422c0.652,0 0.937,-0.305 1.281,-0.766c0.168,-0.234 0.434,-0.336 0.566,-0.601c0.18,-0.375 0.157,-0.825 0.227,-1.27c0.156,-0.543 0.313,-1.09 0.469,-1.633l0.101,0c0,1.032 0.688,4.282 1.844,4.36c0.824,0.05 0.856,-1.68 0.902,-2.325l0.102,0c0,1.571 0.391,2.957 1.117,4.165c0,0.187 0.34,0.058 0.473,0.011c0.726,-0.261 0.308,-1.113 0.453,-1.707c0.031,-0.078 0.062,-0.156 0.09,-0.234l0.101,0l0,-0.102l0.102,0c0,0.895 0.777,0.895 1.07,1.45c0.485,0.906 0.141,2.863 1.676,2.617l0,0.203l0.098,0c-0.184,0.449 -0.024,2.121 -0.422,2.168c-0.227,0.019 -0.5,-0.098 -0.688,-0.164c-1.207,-0.438 -0.347,-1.793 -0.718,-2.817m0.711,-4.371c0.222,0.375 0.777,1.215 0.847,1.637c0.121,0.68 -0.094,1.449 -0.133,2.125l-0.207,0c-0.093,-0.441 -0.187,-0.883 -0.285,-1.324c-0.074,-0.813 -0.148,-1.625 -0.222,-2.438m1.207,10.668c-0.196,0.309 -0.395,0.613 -0.598,0.918c-0.402,0 -1.067,-3.133 -0.813,-3.656c0.375,0.043 0.918,0.066 1.172,0.34c0.239,0.269 0.414,1.972 0.239,2.398m-0.188,-9.347l-0.102,0c-0.195,-0.442 -0.39,-0.887 -0.585,-1.333c-0.075,-0.535 -0.153,-1.074 -0.231,-1.613l0.106,0c0,0.141 0.093,0.149 0.199,0.199l0,0.106l0.101,0c0,-0.301 -0.082,-0.578 -0.203,-0.816l0,-0.098c-0.238,0 -0.301,0.316 -0.304,0.508c-1.086,0 -0.708,1.742 -0.915,2.437l0,0.203l-0.101,0c-0.059,-0.34 -0.125,-0.679 -0.184,-1.019c-0.136,-0.946 -0.3,-2.047 -0.121,-2.946c0.547,0.153 1.317,0.239 1.778,0.579c0.363,0.269 0.71,2.039 0.695,2.57c-0.047,0.41 -0.09,0.816 -0.133,1.223m0.711,-4.27c0.102,0 0.07,0.031 0,0.102l0,0.101l-0.102,0c0,-0.629 -0.324,-1.019 -0.914,-1.117l0,0.101c-0.168,0 -0.172,0.461 -0.207,0.61l0.102,0c0,0.137 0.035,0.101 -0.102,0.101l0,0.102c-0.332,0 -1.597,-0.461 -1.754,-0.75c-0.234,-0.422 -0.129,-1.137 -0.683,-1.281c-0.133,0.035 -0.27,0.066 -0.406,0.101c-0.215,0 -0.047,0.746 0,0.914c-0.27,-0.031 -0.543,-0.066 -0.813,-0.101l0,0.101c-0.215,0 0.066,-0.3 0.129,-0.382c0.586,-0.786 1.461,-1.543 2.316,-1.934c0.305,-0.109 0.606,-0.219 0.911,-0.324c1.757,0.222 2.093,2.199 1.523,3.656m5.617,1.863c-0.144,-0.281 -0.055,-0.609 -0.078,-0.945c-0.031,-0.324 -0.129,-0.551 -0.254,-0.816l-0.305,0c-0.101,0.546 -0.203,1.085 -0.308,1.628c0,-0.148 0.015,-0.101 -0.098,-0.113c-0.762,-0.113 -1.672,-0.367 -2.34,-0.699l-0.101,0l0,-0.105c0.14,0 1.097,-1.032 1.332,-1.208c0.379,-0.253 0.758,-0.511 1.14,-0.769c0.633,-0.383 1.313,-0.582 2,-0.867c0.59,0 1.223,-0.004 1.676,0.285c1.149,0.734 0.899,3.59 0.254,4.594l0,0.101c-0.359,0 -2.801,-0.859 -2.918,-1.086" style="fill:#211e1e;fill-rule:nonzero;"/><path d="M129.16,37.433c0,0.793 0.07,2.403 1.262,1.903c0.726,-0.313 -0.387,-1.926 -0.957,-2.106c-0.102,0.071 -0.203,0.137 -0.305,0.203" style="fill:#211e1e;fill-rule:nonzero;"/><path d="M149.082,38.043l0,0.406c0.184,0 0.047,-0.281 0,-0.406" style="fill:#211e1e;fill-rule:nonzero;"/><path d="M132.008,39.16l0,0.101c0.226,0 0.14,-0.457 0.101,-0.609c-0.031,0.172 -0.066,0.34 -0.101,0.508" style="fill:#211e1e;fill-rule:nonzero;"/><path d="M132.211,39.363l0,-0.102c0.012,0.102 -0.102,0.102 0,0.102" style="fill:#211e1e;fill-rule:nonzero;"/><path d="M131.297,39.363l0,0.102c-0.145,0 0.055,0.082 0.101,0.101c0,-0.117 -0.035,-0.137 -0.101,-0.203" style="fill:#211e1e;fill-rule:nonzero;"/><path d="M131.195,39.976c0.094,0.114 0.098,0.024 0.203,0l-0.203,0Z" style="fill:#211e1e;fill-rule:nonzero;"/><path d="M132.414,40.484c0,-0.129 -0.023,-0.133 -0.102,-0.207l0,0.106c-0.144,0 0.059,0.078 0.102,0.101" style="fill:#211e1e;fill-rule:nonzero;"/><path d="M131.195,40.687c0.145,0 0.145,-0.086 0.203,-0.203l-0.203,0l0,0.203Z" style="fill:#211e1e;fill-rule:nonzero;"/><path d="M138.305,62.945c-0.746,-0.289 -1.668,-0.488 -2.301,-0.965c-0.305,-0.23 -0.402,-0.722 -0.606,-1.027c-0.355,-0.52 -0.878,-0.992 -1.398,-1.309c-0.984,-0.593 -2.266,-0.73 -3.434,-0.398c-0.433,0.125 -0.867,0.246 -1.304,0.367c-0.719,0 -2.637,-0.805 -3.324,-1.105c-0.344,-0.149 -0.477,-0.36 -0.516,-0.75c-0.141,-1.215 -0.086,-2.715 -1.266,-3.305c-0.379,-0.09 -0.758,-0.18 -1.133,-0.266c-0.476,-0.238 -0.461,-0.867 -0.765,-1.222c-0.356,-0.422 -0.887,-0.407 -1.227,-0.793l-0.308,0c0,0.175 -0.274,0.351 -0.352,0.531c-0.066,0.265 -0.137,0.531 -0.203,0.797c-0.039,0.351 0.144,0.59 0.168,0.844c0.07,0.73 0.18,1.449 -0.121,2.097l0,0.203l-0.102,0l0,-0.101c-0.183,0 -0.101,-0.629 -0.101,-0.813c-0.242,0 -0.082,0.528 -0.426,0.578c-0.652,0.094 -2.125,-0.629 -2.723,-0.882c0,-1.09 0.879,-2.157 -0.511,-2.747l0,0.102l-0.301,0c0,0.75 -0.102,1.441 -0.102,2.238l-0.105,0l0,-0.105c-0.344,-0.141 -0.692,-0.289 -1.039,-0.434c-0.5,-0.023 -1,-0.047 -1.5,-0.074l0,-0.098l-0.102,0c0,-0.578 0.84,-2.5 0.539,-2.902c-0.148,-0.195 -0.406,-0.223 -0.64,-0.25c-0.079,0.266 -0.161,0.535 -0.243,0.801c-0.156,0.715 -0.312,1.429 -0.468,2.144c-0.137,0 -0.102,-0.031 -0.102,0.102c-1.148,0 -0.91,-1.735 -1.25,-2.426c-0.269,-0.531 -0.687,-0.785 -1.191,-1.027c0.07,-0.242 0.14,-0.489 0.211,-0.731c0.105,-0.75 -0.485,-0.945 -1.125,-0.793c0,0.489 0.031,1.231 -0.25,1.606c-0.344,0.199 -0.688,0.398 -1.032,0.594c-0.351,0.25 -0.703,0.496 -1.054,0.746c0.011,-0.235 0.019,-0.473 0.031,-0.707c0.211,-1.637 0.289,-5.079 -0.59,-6.282c-1.484,-2.035 -4.203,2.114 -4.828,3.125l-0.309,0c0,-2.453 0.625,-6.504 -2.539,-6.605c-0.968,0.5 -1.875,0.914 -2.59,1.875c-1.144,1.519 -1.765,3.258 -2.386,5.035c-0.051,0.137 -0.09,0.324 -0.25,0.375c-0.606,0.168 -1.817,-0.324 -2.407,-0.445c-2.496,-0.516 -4.929,-1.024 -7.429,-1.614c-0.508,-0.121 -1.383,-0.425 -1.914,-0.246l-0.203,0c0,0.145 0.929,0.36 1.121,0.403c2.097,0.468 4.187,0.933 6.281,1.398c0.754,0.176 1.504,0.348 2.258,0.52c0.801,0.203 1.574,0.441 2.437,0.527c0.035,0.406 0.067,0.813 0.102,1.219l0.203,0l0,-0.102c0.176,0 0.144,-0.637 0.102,-0.816l0,-0.098c0.566,0 4.691,1.035 4.933,1.34c0.234,0.297 0.231,0.891 0.246,1.301c0.02,0.633 0.102,1.211 -0.023,1.824c-0.145,0.66 -0.946,1.848 -0.774,2.516c0.082,0.312 0.434,0.398 0.719,0.468c0.895,0.211 3.25,0.844 3.273,-0.644c0.008,-0.578 -0.441,-0.91 -0.691,-1.356c-0.527,-0.922 -0.402,-1.808 0.301,-2.281c-0.02,-0.008 -0.039,-0.012 -0.055,-0.019c0.031,0 0.059,-0.004 0.094,-0.008c0.195,-0.125 0.437,-0.223 0.723,-0.278c0.691,-0.14 1.519,-0.121 2.128,0.184c0.18,0 0.04,0.352 0.028,0.508c-0.016,0.746 -0.028,1.492 -0.039,2.234c-0.047,0.957 -0.449,2.133 0.011,3.051c0,0.176 0.426,0.109 0.606,0.125c0.355,0.027 0.852,-0.152 0.98,-0.492c0.168,-0.457 -0.195,-0.883 -0.203,-1.363c0.078,-0.54 0.16,-1.083 0.239,-1.626c0.211,-1.195 0.519,-2.257 2.023,-1.593c0.906,0.402 -0.5,6.219 0.668,7.242c0.191,0.168 0.48,0.258 0.762,0.207c1.297,-0.242 0.261,-1.754 0.543,-2.555c0.179,-0.199 0.351,-0.398 0.531,-0.597c0.324,-0.559 0.644,-1.121 0.969,-1.684l0.101,0l0,-0.102l0.102,0c0,0.809 -1.442,6.075 0.394,5.825c0.321,-0.047 0.614,-0.325 0.653,-0.653c0.078,-0.636 -0.399,-0.894 -0.492,-1.422c-0.157,-0.843 -0.032,-1.875 0.124,-2.644c0.379,-1.906 0.829,-2.309 2.79,-1.524c0.199,0.079 0.464,0.184 0.558,0.391c0.156,0.344 0.039,0.848 0.039,1.246c0.031,0.711 0.059,1.422 0.09,2.137c0.031,0.937 -0.207,2.301 0.215,3.047l0,0.101c1.051,0 1.191,-1.179 1.219,-2.031l-0.102,0c0,-0.187 -0.269,-0.035 -0.406,0l0,-0.101c-0.137,0 -0.102,0.031 -0.102,-0.102l0,-3.051l0.102,0c0,0.324 0.297,0.692 0.469,0.942c0.878,1.3 1.871,0.832 2.578,-0.332l0.101,0l0,-0.102l0.102,0c0,1.203 0.277,2.07 0.371,3.156c0.121,1.496 -0.477,2.856 1.141,3.285c0.496,0.133 1.019,0.137 1.523,0.008c0.395,-0.105 0.738,-0.39 0.941,-0.754c0.973,-1.765 -2.902,-3.156 0.903,-4.168c0,0.68 -0.184,3.278 0.433,3.43c1.094,0.27 2.864,-2.363 4.746,-2.09c0.704,0.102 1.399,0.403 2.063,0.633c1.23,0.422 2.445,0.953 3.66,1.387c2.156,0.765 4.246,1.515 6.352,2.386c1.164,0.458 2.324,0.911 3.484,1.368c0,-0.137 -0.035,-0.102 0.102,-0.102c0.035,-0.101 0.066,-0.203 0.101,-0.305c-0.652,-0.289 -1.305,-0.578 -1.961,-0.867c-1.922,-0.758 -3.847,-1.523 -5.769,-2.285m-38.012,-16.465c0,-0.316 -0.836,-0.5 -1.117,-0.406c-0.352,0 -0.637,0.082 -0.914,0.203c0,0.668 0.195,1.227 0.281,1.832c0.078,0.813 0.152,1.625 0.227,2.438l-0.102,0c0,-0.133 0.027,-0.098 -0.098,-0.125c-1.054,-0.254 -2.109,-0.508 -3.164,-0.762c-0.504,-0.121 -1.086,-0.188 -1.515,-0.434l-0.102,0c0,-0.824 0.473,-1.754 0.813,-2.441c1.011,-2.067 1.644,-3.234 3.761,-4.371c0.485,0.027 0.828,0.062 1.172,0.359c0.602,0.512 1.379,2.942 0.758,3.707m4.574,0.813c0,0.703 -0.015,4.203 -0.359,4.476c-0.223,0.172 -0.848,-0.078 -1.059,-0.133c-0.547,-0.136 -1.261,-0.257 -1.668,-0.652c-1.074,-1.039 1.434,-4.285 2.235,-5.055c0.25,-0.156 0.5,-0.312 0.75,-0.464c1.07,0.175 1.117,1.238 1.32,2.132l-0.098,0c0,-0.406 -0.824,-0.328 -1.121,-0.304m0.746,6.125c-0.008,-0.024 -0.011,-0.051 -0.019,-0.078c-0.008,-0.004 -0.008,-0.008 -0.016,-0.012c-0.008,-0.039 0.004,-0.039 0.004,-0.039c0.004,0.019 0.008,0.035 0.012,0.051c0.039,0.027 0.054,0.043 0.019,0.078m0.067,-1.145c0.105,-1.422 0.203,-2.844 0.308,-4.269c0.379,0.675 0.321,3.836 -0.308,4.269m2.949,0.813l-0.102,0c0,-0.082 -0.949,-0.317 -1.117,-0.407l-0.101,0l0,-0.101c0.14,0 0.953,-0.707 1.218,-0.813l0,-0.101c0.278,0.379 0.145,0.961 0.102,1.422m1.219,-1.524c0.238,0.141 0.461,0.219 0.632,0.469c0.5,0.73 0.481,2.07 -0.734,1.258l-0.101,0c0.07,-0.574 0.136,-1.153 0.203,-1.727m0.203,6.203l-0.203,0c-0.118,-0.312 -0.235,-0.629 -0.352,-0.945c0.012,-0.394 0.027,-0.797 0.039,-1.195c-0.027,-0.504 -0.062,-1.012 -0.094,-1.524c0.477,0.071 0.95,0.137 1.426,0.207c0,1.227 -0.527,2.36 -0.816,3.457m1.547,-2.32c-0.149,0.137 -0.301,0.27 -0.453,0.402c-0.243,-0.242 0.07,-1.054 0.128,-1.336c0.852,0.133 0.926,0.329 0.325,0.934m7.816,2.531c-1.019,1.469 -1.976,-0.687 -2.144,-1.535c0.937,0.059 1.699,0.383 2.539,0.61c0,0.359 -0.211,0.656 -0.395,0.925m1.309,-5.398c0,-0.137 0.019,-0.121 0.105,-0.203l0.098,0c0,0.148 -0.082,0.148 -0.203,0.203m4.066,5.59c0,-0.219 -2.668,-0.516 -1.809,-2.332c0.141,-0.301 0.332,-0.492 0.59,-0.715c0.965,0.515 1.578,1.844 1.219,3.047m3.762,2.031c-0.516,0 -1.899,1.598 -2.379,1.984c-0.188,0.121 -0.375,0.239 -0.57,0.356l-0.102,0l0,-0.102c-0.168,0 -0.102,-0.062 -0.102,-0.203c0.004,-0.945 0.004,-1.894 0.004,-2.844c1.121,0.032 2.102,0.411 3.149,0.61l0,0.199Zm6.812,1.629c-0.304,-0.106 -0.609,-0.211 -0.914,-0.32c-1.039,-0.348 -2.363,-0.668 -3.254,-1.309c0.102,-0.027 0.203,-0.063 0.305,-0.098c1.148,0 2.254,0.114 3.059,0.801c0.269,0.277 0.535,0.547 0.804,0.824l0,0.102Z" style="fill:#211e1e;fill-rule:nonzero;"/><path d="M122.961,43.633l0.101,0c-0.031,-0.336 -0.066,-0.676 -0.101,-1.016l0,1.016Z" style="fill:#211e1e;fill-rule:nonzero;"/><path d="M157.113,42.922c0.098,0.113 0.098,0.027 0.203,0l-0.203,0Z" style="fill:#211e1e;fill-rule:nonzero;"/><path d="M133.328,44.14l0,-0.097l0.102,0l0,-0.207l-0.305,0c-0.031,0.074 -0.066,0.136 -0.102,0.207c0.133,0 0.102,-0.039 0.102,0.097l0.203,0Z" style="fill:#211e1e;fill-rule:nonzero;"/><path d="M154.062,44.445l0,-0.098c-0.406,-0.136 -0.812,-0.273 -1.218,-0.41c0.383,0.227 0.781,0.395 1.218,0.508" style="fill:#211e1e;fill-rule:nonzero;"/><path d="M154.469,44.547c0,-0.168 -0.063,-0.098 -0.199,-0.098c0.097,0.066 0.199,0.133 0.304,0.203c0,-0.141 0.031,-0.105 -0.105,-0.105" style="fill:#211e1e;fill-rule:nonzero;"/><path d="M118.082,44.75c0.035,0.203 0.066,0.41 0.102,0.613l0.101,0c0,-0.242 -0.094,-0.426 -0.203,-0.613" style="fill:#211e1e;fill-rule:nonzero;"/><path d="M97.348,45.359c0.035,0.152 0.07,0.301 0.109,0.445c0.102,0.122 0.199,0.243 0.305,0.364c0.031,0.039 0.062,0.074 0.093,0.109l0,-0.101l0.102,0c0,-0.383 -0.301,-0.688 -0.609,-0.817" style="fill:#211e1e;fill-rule:nonzero;"/><path d="M97.348,47.191l0.101,0l0,-0.101l0.102,0c-0.067,-0.235 -0.137,-0.473 -0.203,-0.711c-0.039,0.25 -0.028,0.554 0,0.812" style="fill:#211e1e;fill-rule:nonzero;"/><path d="M101.922,52.984c0,-0.133 -0.102,-0.121 -0.211,-0.109c-0.016,0.008 -0.027,0.019 -0.039,0.027c0.082,0.027 0.164,0.055 0.25,0.082" style="fill:#211e1e;fill-rule:nonzero;"/><path d="M120.113,54.406c-0.031,0.375 -0.066,0.75 -0.101,1.121l0.101,0c0,-0.387 0.125,-0.746 0,-1.121" style="fill:#211e1e;fill-rule:nonzero;"/><path d="M128.145,56.644c0.101,0.102 0.203,0.203 0.304,0.305l0,-0.305l-0.304,0Z" style="fill:#211e1e;fill-rule:nonzero;"/><path d="M115.031,58.066l0,0.305c0.172,0 0.133,-0.258 0,-0.305" style="fill:#211e1e;fill-rule:nonzero;"/><path d="M119.707,58.676c-0.031,0.136 -0.066,0.273 -0.102,0.406c0.18,0 0.118,-0.27 0.102,-0.406" style="fill:#211e1e;fill-rule:nonzero;"/><path d="M99.988,58.98l0,-0.097c-0.168,-0.036 -0.34,-0.071 -0.508,-0.106c0.172,0.07 0.34,0.137 0.508,0.203" style="fill:#211e1e;fill-rule:nonzero;"/><path d="M119.605,60.203l0.102,0c-0.031,-0.336 -0.066,-0.68 -0.102,-1.02l0,1.02Z" style="fill:#211e1e;fill-rule:nonzero;"/><path d="M120.012,60l-0.203,0c0.097,0.113 0.097,0.023 0.203,0" style="fill:#211e1e;fill-rule:nonzero;"/><path d="M119.707,61.523c-0.172,0 0.043,-0.976 -0.102,-1.219c-0.113,0.45 -0.167,1.141 -0.101,1.625l0,0.102l0.101,0l0,0.102l0.102,0c0.035,-0.27 0.066,-0.543 0.105,-0.813c-0.171,0 -0.105,0.063 -0.105,0.203" style="fill:#211e1e;fill-rule:nonzero;"/><path d="M146.34,63.863l0,0.102c-0.145,0 0.058,0.078 0.101,0.097c0,-0.125 -0.023,-0.129 -0.101,-0.199" style="fill:#211e1e;fill-rule:nonzero;"/><path d="M121.234,65.59l0.102,0l0,0.101l0.102,0c-0.067,-0.406 -0.137,-0.812 -0.204,-1.219l0,1.118Z" style="fill:#211e1e;fill-rule:nonzero;"/><g><path d="M87.109,72.176l-0.5,0l-1.687,2.078l-1.688,-2.078l-0.5,0l0,4.75l0.516,0l0,-3.953l1.641,2.015l0.062,0l1.641,-2.015l0,3.953l0.515,0l0,-4.75Z" style="fill:#211e1e;fill-rule:nonzero;"/><path d="M93.07,76.379c-0.187,0.156 -0.328,0.219 -0.39,0.219c-0.078,0 -0.094,-0.032 -0.094,-0.172l0,-1.703c0,-0.36 -0.156,-0.985 -1.063,-0.985c-0.5,0 -0.859,0.25 -1.015,0.375l0,0.5c0.281,-0.25 0.562,-0.453 0.984,-0.453c0.578,0 0.61,0.406 0.61,0.61l0,0.281c-1.297,0.219 -1.704,0.64 -1.704,1.14c0,0.469 0.36,0.797 0.797,0.797c0.282,0 0.532,-0.062 0.922,-0.359c0.031,0.156 0.078,0.359 0.344,0.359c0.078,0 0.219,0 0.609,-0.281l0,-0.328Zm-0.968,-0.078c-0.11,0.109 -0.36,0.344 -0.704,0.344c-0.171,0 -0.515,-0.11 -0.515,-0.485c0,-0.39 0.422,-0.656 1.219,-0.797l0,0.938Z" style="fill:#211e1e;fill-rule:nonzero;"/><path d="M96.52,73.801l-0.485,0l0,3.125l0.485,0l0,-3.125Zm-0.235,-1.281c-0.187,0 -0.312,0.14 -0.312,0.312c0,0.172 0.125,0.313 0.312,0.313c0.172,0 0.313,-0.141 0.313,-0.313c0,-0.172 -0.141,-0.312 -0.313,-0.312Z" style="fill:#211e1e;fill-rule:nonzero;"/><path d="M101.621,74.004c-0.156,-0.094 -0.453,-0.266 -0.891,-0.266c-0.687,0 -1,0.453 -1,0.844c0,0.516 0.438,0.734 0.829,0.922c0.406,0.203 0.687,0.344 0.687,0.641c0,0.265 -0.281,0.421 -0.531,0.421c-0.156,0 -0.485,-0.046 -1,-0.359l0,0.5c0.328,0.172 0.625,0.281 1,0.281c0.781,0 1.031,-0.562 1.031,-0.875c0,-0.484 -0.406,-0.718 -0.578,-0.797c-0.734,-0.39 -0.953,-0.5 -0.953,-0.75c0,-0.218 0.203,-0.406 0.531,-0.406c0.297,0 0.578,0.125 0.875,0.313l0,-0.469Z" style="fill:#211e1e;fill-rule:nonzero;"/><path d="M106.367,73.738c-0.906,0 -1.625,0.719 -1.625,1.625c0,0.891 0.719,1.625 1.625,1.625c0.891,0 1.625,-0.734 1.625,-1.625c0,-0.906 -0.734,-1.625 -1.625,-1.625Zm0,0.422c0.656,0 1.125,0.531 1.125,1.203c0,0.657 -0.469,1.203 -1.125,1.203c-0.656,0 -1.14,-0.546 -1.14,-1.203c0,-0.672 0.484,-1.203 1.14,-1.203Z" style="fill:#211e1e;fill-rule:nonzero;"/><path d="M111.176,73.801l0,3.125l0.484,0l0,-2.219c0.281,-0.484 0.688,-0.547 0.875,-0.547c0.547,0 0.75,0.406 0.75,0.938l0,1.828l0.469,0l0,-1.875c0,-0.797 -0.406,-1.313 -1.109,-1.313c-0.454,0 -0.766,0.219 -0.985,0.532l0,-0.469l-0.484,0Z" style="fill:#211e1e;fill-rule:nonzero;"/><path d="M124.93,72.176l-0.516,0l-1.547,3.672l-1.562,-3.672l-0.532,0l2.032,4.797l0.125,0l2,-4.797Z" style="fill:#211e1e;fill-rule:nonzero;"/><path d="M128.312,73.801l-0.484,0l0,3.125l0.484,0l0,-3.125Zm-0.234,-1.281c-0.187,0 -0.312,0.14 -0.312,0.312c0,0.172 0.125,0.313 0.312,0.313c0.172,0 0.313,-0.141 0.313,-0.313c0,-0.172 -0.141,-0.312 -0.313,-0.312Z" style="fill:#211e1e;fill-rule:nonzero;"/><path d="M131.254,74.223l0.547,0l0,1.828c0,0.5 0.219,0.937 0.844,0.937c0.343,0 0.609,-0.125 0.734,-0.187l0,-0.453c-0.234,0.125 -0.391,0.187 -0.641,0.187c-0.437,0 -0.453,-0.265 -0.453,-0.672l0,-1.64l0.938,0l0,-0.422l-0.938,0l0,-0.735l-1.031,1.079l0,0.078Z" style="fill:#211e1e;fill-rule:nonzero;"/><path d="M136.742,73.801l-0.484,0l0,3.125l0.484,0l0,-3.125Zm-0.234,-1.281c-0.188,0 -0.313,0.14 -0.313,0.312c0,0.172 0.125,0.313 0.313,0.313c0.172,0 0.312,-0.141 0.312,-0.313c0,-0.172 -0.14,-0.312 -0.312,-0.312Z" style="fill:#211e1e;fill-rule:nonzero;"/><path d="M142.309,73.926c-0.204,-0.094 -0.485,-0.188 -0.86,-0.188c-0.859,0 -1.531,0.625 -1.531,1.641c0,0.906 0.547,1.609 1.578,1.609c0.406,0 0.734,-0.125 0.875,-0.172l0,-0.468c-0.141,0.062 -0.453,0.187 -0.828,0.187c-0.844,0 -1.141,-0.64 -1.141,-1.156c0,-0.406 0.219,-1.203 1.047,-1.203c0.406,0 0.688,0.156 0.86,0.265l0,-0.515Z" style="fill:#211e1e;fill-rule:nonzero;"/></g><g><path d="M146.867,73.738c-0.906,0 -1.625,0.719 -1.625,1.625c0,0.891 0.719,1.625 1.625,1.625c0.891,0 1.625,-0.734 1.625,-1.625c0,-0.906 -0.734,-1.625 -1.625,-1.625Zm0,0.422c0.656,0 1.125,0.531 1.125,1.203c0,0.657 -0.469,1.203 -1.125,1.203c-0.656,0 -1.14,-0.546 -1.14,-1.203c0,-0.672 0.484,-1.203 1.14,-1.203Z" style="fill:#211e1e;fill-rule:nonzero;"/><rect x="151.676" y="72.176" width="0.484" height="4.75" style="fill:#211e1e;"/><path d="M158.148,75.285c0,-0.922 -0.609,-1.547 -1.375,-1.547c-0.718,0 -1.437,0.532 -1.437,1.61c0,0.843 0.516,1.64 1.562,1.64c0.657,0 1,-0.25 1.204,-0.375l0,-0.484c-0.157,0.125 -0.547,0.437 -1.157,0.437c-0.593,0 -1.125,-0.421 -1.125,-1.171l2.328,0l0,-0.11Zm-2.296,-0.234c0.125,-0.641 0.546,-0.891 0.921,-0.891c0.344,0 0.813,0.203 0.875,0.891l-1.796,0Z" style="fill:#211e1e;fill-rule:nonzero;"/></g><path d="M95.121,107.48l-0.344,0l-2.109,4.781l0.547,0l0.672,-1.531l2.172,0l0.687,1.531l0.547,0l-2.172,-4.781Zm0.719,2.797l-1.75,0l0.859,-1.969l0.891,1.969Z" style="fill:#211e1e;fill-rule:nonzero;"/><path d="M99.695,107.511l0,4.75l0.485,0l0,-2.218c0.281,-0.485 0.687,-0.547 0.875,-0.547c0.547,0 0.75,0.406 0.75,0.937l0,1.828l0.468,0l0,-1.875c0,-0.796 -0.406,-1.312 -1.109,-1.312c-0.453,0 -0.766,0.219 -0.984,0.531l0,-2.094l-0.485,0Z" style="fill:#211e1e;fill-rule:nonzero;"/><path d="M105.059,109.136l0,3.125l0.484,0l0,-2.218c0.281,-0.485 0.687,-0.547 0.875,-0.547c0.547,0 0.75,0.406 0.75,0.937l0,1.828l0.469,0l0,-1.875c0,-0.796 -0.407,-1.312 -1.11,-1.312c-0.453,0 -0.765,0.219 -0.984,0.531l0,-0.469l-0.484,0Z" style="fill:#211e1e;fill-rule:nonzero;"/><path d="M112.816,107.449l-2.453,4.875l0.469,0l2.438,-4.875l-0.454,0Z" style="fill:#211e1e;fill-rule:nonzero;"/><path d="M120.543,107.511l-0.5,0l-1.688,2.079l-1.687,-2.079l-0.5,0l0,4.75l0.516,0l0,-3.953l1.64,2.016l0.063,0l1.64,-2.016l0,3.953l0.516,0l0,-4.75Z" style="fill:#211e1e;fill-rule:nonzero;"/><path d="M124.965,109.074c-0.906,0 -1.625,0.719 -1.625,1.625c0,0.891 0.719,1.625 1.625,1.625c0.89,0 1.625,-0.734 1.625,-1.625c0,-0.906 -0.735,-1.625 -1.625,-1.625Zm0,0.422c0.656,0 1.125,0.531 1.125,1.203c0,0.656 -0.469,1.203 -1.125,1.203c-0.656,0 -1.141,-0.547 -1.141,-1.203c0,-0.672 0.485,-1.203 1.141,-1.203Z" style="fill:#211e1e;fill-rule:nonzero;"/><path d="M131.043,109.34c-0.156,-0.094 -0.453,-0.266 -0.891,-0.266c-0.687,0 -1,0.453 -1,0.844c0,0.515 0.438,0.734 0.828,0.922c0.407,0.203 0.688,0.343 0.688,0.64c0,0.266 -0.281,0.422 -0.531,0.422c-0.157,0 -0.485,-0.047 -1,-0.359l0,0.5c0.328,0.172 0.625,0.281 1,0.281c0.781,0 1.031,-0.563 1.031,-0.875c0,-0.484 -0.406,-0.719 -0.578,-0.797c-0.735,-0.391 -0.953,-0.5 -0.953,-0.75c0,-0.219 0.203,-0.406 0.531,-0.406c0.297,0 0.578,0.125 0.875,0.312l0,-0.468Z" style="fill:#211e1e;fill-rule:nonzero;"/><path d="M136.484,110.621c0,-0.922 -0.609,-1.547 -1.375,-1.547c-0.718,0 -1.437,0.531 -1.437,1.609c0,0.844 0.516,1.641 1.562,1.641c0.657,0 1,-0.25 1.204,-0.375l0,-0.484c-0.157,0.125 -0.547,0.437 -1.157,0.437c-0.593,0 -1.125,-0.422 -1.125,-1.172l2.328,0l0,-0.109Zm-2.296,-0.235c0.124,-0.64 0.546,-0.89 0.921,-0.89c0.344,0 0.813,0.203 0.875,0.89l-1.796,0Z" style="fill:#211e1e;fill-rule:nonzero;"/><rect x="139.113" y="107.511" width="0.484" height="4.75" style="fill:#211e1e;"/><rect x="142.438" y="107.511" width="0.484" height="4.75" style="fill:#211e1e;"/><path d="M148.418,110.621c0,-0.922 -0.609,-1.547 -1.375,-1.547c-0.719,0 -1.438,0.531 -1.438,1.609c0,0.844 0.516,1.641 1.563,1.641c0.656,0 1,-0.25 1.203,-0.375l0,-0.484c-0.156,0.125 -0.547,0.437 -1.156,0.437c-0.594,0 -1.125,-0.422 -1.125,-1.172l2.328,0l0,-0.109Zm-2.297,-0.235c0.125,-0.64 0.547,-0.89 0.922,-0.89c0.344,0 0.812,0.203 0.875,0.89l-1.797,0Z" style="fill:#211e1e;fill-rule:nonzero;"/><path d="M61.883,100.058c0.937,0 1.875,-0.203 2.625,-0.734c1.203,-0.859 1.484,-2.172 1.484,-2.891c0,-1.39 -0.5,-2.468 -2.547,-4.093l-0.484,-0.391c-1.672,-1.297 -2.125,-1.922 -2.125,-2.922c0,-1.266 0.937,-2.016 2.141,-2.016c1.593,0 2.062,0.735 2.171,0.922c0.11,0.188 0.219,0.657 0.235,0.875c0.015,0.141 0.031,0.219 0.14,0.219c0.079,0 0.11,-0.125 0.11,-0.391c0,-1.187 0.078,-1.765 0.078,-1.859c0,-0.078 -0.031,-0.109 -0.172,-0.109c-0.141,0 -0.281,-0.032 -0.609,-0.094c-0.438,-0.109 -0.953,-0.172 -1.625,-0.172c-2.219,0 -3.61,1.266 -3.61,3.125c0,1.188 0.422,2.266 2.266,3.781l0.781,0.657c1.5,1.234 2,1.921 2,3.125c0,1.125 -0.812,2.328 -2.484,2.328c-1.172,0 -2.313,-0.5 -2.578,-1.782c-0.047,-0.25 -0.047,-0.484 -0.047,-0.64c0,-0.141 -0.016,-0.203 -0.125,-0.203c-0.094,0 -0.125,0.093 -0.141,0.281c-0.015,0.281 -0.094,0.984 -0.094,1.844c0,0.484 0.032,0.547 0.266,0.672c0.719,0.343 1.516,0.468 2.344,0.468Z" style="fill:#211e1e;fill-rule:nonzero;"/><path d="M61.871,100.059c0.941,0 1.883,-0.211 2.633,-0.735c1.199,-0.851 1.48,-2.176 1.48,-2.89c0,-1.391 -0.488,-2.473 -2.543,-4.094l-0.488,-0.383c-1.672,-1.305 -2.125,-1.934 -2.125,-2.926c0,-1.269 0.938,-2.019 2.141,-2.019c1.605,0 2.074,0.73 2.179,0.922c0.102,0.191 0.207,0.664 0.227,0.871c0.016,0.14 0.035,0.226 0.137,0.226c0.086,0 0.121,-0.121 0.121,-0.398c0,-1.184 0.07,-1.762 0.07,-1.848c0,-0.086 -0.035,-0.121 -0.172,-0.121c-0.14,0 -0.281,-0.019 -0.609,-0.086c-0.438,-0.105 -0.942,-0.176 -1.621,-0.176c-2.211,0 -3.606,1.274 -3.606,3.137c0,1.184 0.418,2.262 2.266,3.777l0.781,0.645c1.5,1.238 2.004,1.934 2.004,3.137c0,1.113 -0.82,2.316 -2.492,2.316c-1.164,0 -2.316,-0.488 -2.578,-1.777c-0.051,-0.242 -0.051,-0.489 -0.051,-0.645c0,-0.14 -0.016,-0.191 -0.121,-0.191c-0.086,0 -0.121,0.086 -0.141,0.277c-0.015,0.281 -0.086,0.977 -0.086,1.848c0,0.469 0.016,0.539 0.262,0.66c0.715,0.352 1.516,0.473 2.332,0.473Z" style="fill:none;fill-rule:nonzero;stroke:#211e1e;stroke-width:0.17px;"/><path d="M75.355,100.011c1,0 2.141,-0.093 2.766,-0.343c0.266,-0.094 0.297,-0.157 0.391,-0.422c0.156,-0.516 0.359,-1.797 0.359,-1.906c0,-0.11 -0.062,-0.204 -0.141,-0.204c-0.093,0 -0.125,0.047 -0.156,0.204c-0.047,0.281 -0.25,0.906 -0.594,1.234c-0.609,0.609 -1.375,0.703 -2.515,0.703c-3.281,0 -5.531,-2.531 -5.531,-5.375c0,-1.5 0.25,-2.812 1.375,-3.859c0.546,-0.516 1.484,-1.032 3.453,-1.032c1.359,0 2.468,0.36 3.015,0.813c0.407,0.328 0.641,0.906 0.641,1.484c0,0.219 0.016,0.313 0.125,0.313c0.094,0 0.156,-0.078 0.172,-0.313c0.015,-0.203 0.015,-1.031 0.031,-1.515c0.047,-0.532 0.078,-0.703 0.078,-0.828c0,-0.094 -0.031,-0.157 -0.187,-0.157c-0.516,-0.015 -1,-0.125 -1.578,-0.234c-0.75,-0.125 -1.61,-0.172 -2.219,-0.172c-2.36,0 -3.75,0.703 -4.672,1.578c-1.359,1.328 -1.734,3.063 -1.734,4.047c0,1.406 0.375,3.109 1.875,4.391c1.203,1.047 2.75,1.593 5.046,1.593Z" style="fill:#211e1e;fill-rule:nonzero;"/><path d="M75.352,100.004c0.996,0 2.144,-0.086 2.769,-0.328c0.262,-0.106 0.297,-0.156 0.383,-0.438c0.16,-0.504 0.367,-1.793 0.367,-1.898c0,-0.106 -0.07,-0.207 -0.137,-0.207c-0.105,0 -0.125,0.051 -0.16,0.207c-0.051,0.281 -0.258,0.906 -0.59,1.238c-0.609,0.61 -1.375,0.695 -2.527,0.695c-3.273,0 -5.519,-2.523 -5.519,-5.363c0,-1.5 0.242,-2.824 1.374,-3.867c0.54,-0.508 1.481,-1.027 3.45,-1.027c1.359,0 2.472,0.363 3.011,0.816c0.403,0.316 0.645,0.906 0.645,1.484c0,0.207 0.016,0.313 0.121,0.313c0.09,0 0.16,-0.09 0.176,-0.313c0.019,-0.211 0.019,-1.031 0.035,-1.519c0.035,-0.539 0.07,-0.711 0.07,-0.836c0,-0.086 -0.035,-0.152 -0.191,-0.152c-0.508,-0.02 -0.996,-0.125 -1.57,-0.231c-0.75,-0.121 -1.618,-0.172 -2.227,-0.172c-2.352,0 -3.746,0.696 -4.668,1.582c-1.359,1.328 -1.726,3.051 -1.726,4.043c0,1.41 0.367,3.102 1.863,4.387c1.203,1.047 2.754,1.586 5.051,1.586Z" style="fill:none;fill-rule:nonzero;stroke:#211e1e;stroke-width:0.17px;"/><path d="M91.195,92.902c0,-2.297 0,-2.719 0.032,-3.187c0.031,-0.532 0.125,-0.735 0.515,-0.829c0.203,-0.031 0.281,-0.031 0.391,-0.031c0.062,0 0.14,-0.062 0.14,-0.125c0,-0.078 -0.093,-0.125 -0.265,-0.125c-0.453,0 -1.422,0.047 -1.516,0.047c-0.062,0 -1.062,-0.047 -1.75,-0.047c-0.172,0 -0.234,0.047 -0.234,0.125c0,0.063 0.047,0.125 0.125,0.125c0.14,0 0.39,0.016 0.515,0.031c0.5,0.079 0.579,0.313 0.61,0.829c0.015,0.468 0.031,0.921 0.031,3.218l0,0.313c0,0.094 -0.031,0.094 -0.078,0.094l-6.391,0c-0.062,0 -0.093,0 -0.093,-0.094l0,-0.313c0,-2.297 0,-2.75 0.015,-3.218c0.031,-0.532 0.125,-0.735 0.547,-0.829c0.172,-0.031 0.281,-0.031 0.375,-0.031c0.063,0 0.125,-0.062 0.125,-0.125c0,-0.078 -0.062,-0.125 -0.25,-0.125c-0.469,0 -1.437,0.047 -1.516,0.047c-0.078,0 -1.062,-0.047 -1.75,-0.047c-0.171,0 -0.25,0.047 -0.25,0.125c0,0.063 0.079,0.125 0.125,0.125c0.141,0 0.407,0.016 0.516,0.031c0.516,0.079 0.594,0.313 0.641,0.829c0.031,0.468 0.031,0.89 0.031,3.187l0,2.609c0,1.422 0,2.594 -0.094,3.204c-0.062,0.437 -0.094,0.718 -0.39,0.781c-0.141,0.047 -0.344,0.078 -0.469,0.078c-0.094,0 -0.125,0.062 -0.125,0.125c0,0.078 0.078,0.109 0.234,0.109c0.469,0 1.453,-0.047 1.531,-0.047c0.079,0 1.047,0.047 1.907,0.047c0.172,0 0.25,-0.047 0.25,-0.109c0,-0.063 -0.047,-0.125 -0.125,-0.125c-0.141,0 -0.469,-0.031 -0.703,-0.078c-0.454,-0.063 -0.5,-0.344 -0.563,-0.781c-0.062,-0.61 -0.062,-1.735 -0.062,-3.172l0,-1.485c0,-0.062 0.031,-0.078 0.093,-0.078l6.391,0c0.047,0 0.078,0.016 0.078,0.078l0,1.485c0,1.437 0,2.547 -0.062,3.156c-0.047,0.437 -0.11,0.734 -0.422,0.797c-0.141,0.047 -0.313,0.078 -0.453,0.078c-0.079,0 -0.125,0.062 -0.125,0.125c0,0.078 0.078,0.109 0.25,0.109c0.453,0 1.453,-0.047 1.515,-0.047c0.094,0 1.063,0.047 1.906,0.047c0.172,0 0.25,-0.047 0.25,-0.109c0,-0.063 -0.031,-0.125 -0.14,-0.125c-0.11,0 -0.469,-0.031 -0.672,-0.078c-0.469,-0.063 -0.5,-0.344 -0.563,-0.781c-0.062,-0.61 -0.078,-1.782 -0.078,-3.204l0,-2.609Z" style="fill:#211e1e;fill-rule:nonzero;"/><path d="M91.188,92.898c0,-2.296 0,-2.714 0.035,-3.187c0.035,-0.523 0.121,-0.731 0.519,-0.816c0.192,-0.036 0.281,-0.036 0.387,-0.036c0.066,0 0.137,-0.07 0.137,-0.125c0,-0.086 -0.086,-0.121 -0.262,-0.121c-0.453,0 -1.426,0.035 -1.516,0.035c-0.066,0 -1.062,-0.035 -1.742,-0.035c-0.172,0 -0.242,0.035 -0.242,0.121c0,0.055 0.051,0.125 0.121,0.125c0.141,0 0.402,0.016 0.523,0.036c0.504,0.07 0.575,0.312 0.61,0.816c0.019,0.473 0.035,0.926 0.035,3.223l0,0.312c0,0.09 -0.035,0.09 -0.086,0.09l-6.395,0c-0.05,0 -0.085,0 -0.085,-0.09l0,-0.312c0,-2.297 0,-2.75 0.015,-3.223c0.035,-0.523 0.125,-0.731 0.543,-0.816c0.172,-0.036 0.277,-0.036 0.383,-0.036c0.051,0 0.121,-0.07 0.121,-0.125c0,-0.086 -0.07,-0.121 -0.242,-0.121c-0.473,0 -1.445,0.035 -1.516,0.035c-0.09,0 -1.062,-0.035 -1.761,-0.035c-0.172,0 -0.243,0.035 -0.243,0.121c0,0.055 0.071,0.125 0.121,0.125c0.141,0 0.403,0.016 0.524,0.036c0.504,0.07 0.59,0.312 0.625,0.816c0.035,0.473 0.035,0.891 0.035,3.187l0,2.614c0,1.429 0,2.593 -0.086,3.207c-0.07,0.433 -0.105,0.711 -0.402,0.781c-0.137,0.035 -0.328,0.07 -0.469,0.07c-0.086,0 -0.121,0.071 -0.121,0.121c0,0.09 0.086,0.121 0.242,0.121c0.473,0 1.445,-0.05 1.535,-0.05c0.071,0 1.043,0.05 1.899,0.05c0.172,0 0.242,-0.05 0.242,-0.121c0,-0.05 -0.035,-0.121 -0.121,-0.121c-0.141,0 -0.473,-0.035 -0.696,-0.07c-0.453,-0.07 -0.507,-0.348 -0.558,-0.781c-0.07,-0.614 -0.07,-1.742 -0.07,-3.172l0,-1.481c0,-0.07 0.035,-0.086 0.085,-0.086l6.395,0c0.051,0 0.086,0.016 0.086,0.086l0,1.481c0,1.43 0,2.543 -0.07,3.152c-0.051,0.438 -0.106,0.731 -0.418,0.801c-0.141,0.035 -0.313,0.07 -0.453,0.07c-0.086,0 -0.122,0.071 -0.122,0.121c0,0.09 0.071,0.121 0.243,0.121c0.453,0 1.449,-0.05 1.515,-0.05c0.09,0 1.063,0.05 1.899,0.05c0.175,0 0.261,-0.05 0.261,-0.121c0,-0.05 -0.035,-0.121 -0.136,-0.121c-0.125,0 -0.473,-0.035 -0.684,-0.07c-0.469,-0.07 -0.504,-0.348 -0.555,-0.781c-0.07,-0.614 -0.085,-1.778 -0.085,-3.207l0,-2.614Z" style="fill:none;fill-rule:nonzero;stroke:#211e1e;stroke-width:0.17px;"/><path d="M106.676,88.808c-0.047,-0.281 -0.125,-0.406 -0.235,-0.406c-0.093,0 -0.171,0.109 -0.234,0.25l-4.469,9.172l-4.625,-9.188c-0.093,-0.187 -0.218,-0.234 -0.312,-0.234c-0.094,0 -0.172,0.109 -0.188,0.266l-1.109,9.672c-0.063,0.546 -0.094,1.093 -0.594,1.171c-0.219,0.047 -0.328,0.063 -0.453,0.063c-0.078,0 -0.156,0.047 -0.156,0.094c0,0.109 0.109,0.14 0.265,0.14c0.422,0 1.141,-0.047 1.282,-0.047c0.125,0 0.859,0.047 1.437,0.047c0.172,0 0.281,-0.031 0.281,-0.14c0,-0.047 -0.078,-0.094 -0.125,-0.094c-0.109,0 -0.328,-0.016 -0.593,-0.094c-0.235,-0.047 -0.375,-0.187 -0.375,-0.422c0,-0.234 0,-0.515 0.031,-0.75l0.578,-6.687l0.078,0c0.266,0.609 1.5,3.109 1.953,4.047c0.375,0.797 1.391,2.703 1.797,3.437c0.297,0.531 0.375,0.672 0.516,0.672c0.14,0 0.234,-0.141 0.547,-0.781l3.687,-7.563l0.031,0l0.735,7.532c0.031,0.281 0.015,0.5 -0.063,0.515c-0.078,0.016 -0.109,0.078 -0.109,0.125c0,0.063 0.062,0.125 0.437,0.156c0.563,0.047 2.266,0.063 2.61,0.063c0.172,0 0.312,-0.047 0.312,-0.125c0,-0.078 -0.047,-0.109 -0.125,-0.109c-0.156,0 -0.547,0 -0.984,-0.141c-0.625,-0.203 -0.734,-1.016 -0.781,-1.531l-1.047,-9.11Z" style="fill:#211e1e;fill-rule:nonzero;"/><path d="M106.668,88.805c-0.031,-0.278 -0.121,-0.399 -0.227,-0.399c-0.101,0 -0.171,0.102 -0.242,0.242l-4.457,9.18l-4.633,-9.195c-0.089,-0.176 -0.211,-0.227 -0.316,-0.227c-0.086,0 -0.156,0.102 -0.172,0.262l-1.113,9.664c-0.07,0.559 -0.09,1.098 -0.594,1.184c-0.226,0.035 -0.332,0.054 -0.453,0.054c-0.09,0 -0.156,0.051 -0.156,0.106c0,0.101 0.101,0.136 0.261,0.136c0.418,0 1.149,-0.05 1.289,-0.05c0.122,0 0.852,0.05 1.426,0.05c0.176,0 0.281,-0.035 0.281,-0.136c0,-0.055 -0.07,-0.106 -0.124,-0.106c-0.106,0 -0.329,-0.019 -0.59,-0.086c-0.227,-0.054 -0.368,-0.191 -0.368,-0.418c0,-0.246 0,-0.523 0.016,-0.75l0.594,-6.687l0.07,0c0.262,0.609 1.496,3.098 1.949,4.039c0.383,0.801 1.395,2.699 1.797,3.43c0.293,0.543 0.383,0.679 0.524,0.679c0.136,0 0.222,-0.136 0.539,-0.781l3.691,-7.558l0.035,0l0.731,7.523c0.035,0.277 0.015,0.504 -0.071,0.523c-0.07,0.016 -0.105,0.067 -0.105,0.121c0,0.071 0.07,0.122 0.438,0.157c0.558,0.05 2.261,0.07 2.613,0.07c0.176,0 0.312,-0.055 0.312,-0.141c0,-0.07 -0.051,-0.101 -0.121,-0.101c-0.156,0 -0.558,0 -0.992,-0.141c-0.629,-0.211 -0.73,-1.011 -0.785,-1.535l-1.047,-9.109Z" style="fill:none;fill-rule:nonzero;stroke:#211e1e;stroke-width:0.17px;"/><path d="M115.203,92.902c0,-2.297 0,-2.719 0.016,-3.187c0.031,-0.532 0.125,-0.735 0.547,-0.829c0.172,-0.031 0.281,-0.031 0.375,-0.031c0.062,0 0.125,-0.062 0.125,-0.125c0,-0.078 -0.063,-0.125 -0.25,-0.125c-0.469,0 -1.454,0.047 -1.532,0.047c-0.078,0 -1.046,-0.047 -1.546,-0.047c-0.172,0 -0.25,0.047 -0.25,0.125c0,0.063 0.062,0.125 0.124,0.125c0.11,0 0.297,0.016 0.469,0.047c0.344,0.078 0.453,0.297 0.5,0.813c0.031,0.468 0.031,0.89 0.031,3.187l0,2.609c0,1.422 -0.015,2.594 -0.093,3.204c-0.047,0.437 -0.094,0.718 -0.391,0.781c-0.14,0.047 -0.344,0.078 -0.469,0.078c-0.093,0 -0.125,0.062 -0.125,0.125c0,0.078 0.078,0.109 0.235,0.109c0.469,0 1.437,-0.047 1.515,-0.047c0.078,0 1.063,0.047 1.922,0.047c0.172,0 0.25,-0.047 0.25,-0.109c0,-0.063 -0.047,-0.125 -0.125,-0.125c-0.14,0 -0.469,-0.031 -0.703,-0.078c-0.453,-0.063 -0.5,-0.344 -0.562,-0.781c-0.063,-0.61 -0.063,-1.782 -0.063,-3.204l0,-2.609Z" style="fill:#211e1e;fill-rule:nonzero;"/><path d="M115.203,92.898c0,-2.296 0,-2.714 0.02,-3.187c0.035,-0.523 0.121,-0.731 0.539,-0.816c0.176,-0.036 0.277,-0.036 0.383,-0.036c0.054,0 0.121,-0.07 0.121,-0.125c0,-0.086 -0.067,-0.121 -0.243,-0.121c-0.468,0 -1.464,0.035 -1.535,0.035c-0.086,0 -1.043,-0.035 -1.547,-0.035c-0.175,0 -0.246,0.035 -0.246,0.121c0,0.055 0.055,0.125 0.121,0.125c0.106,0 0.297,0.016 0.473,0.051c0.328,0.07 0.453,0.297 0.488,0.801c0.035,0.473 0.035,0.891 0.035,3.187l0,2.614c0,1.429 -0.019,2.593 -0.089,3.207c-0.051,0.433 -0.106,0.711 -0.399,0.781c-0.14,0.035 -0.332,0.07 -0.472,0.07c-0.086,0 -0.122,0.071 -0.122,0.121c0,0.09 0.086,0.121 0.247,0.121c0.468,0 1.425,-0.05 1.511,-0.05c0.071,0 1.067,0.05 1.918,0.05c0.176,0 0.242,-0.05 0.242,-0.121c0,-0.05 -0.031,-0.121 -0.121,-0.121c-0.14,0 -0.468,-0.035 -0.695,-0.07c-0.453,-0.07 -0.504,-0.348 -0.559,-0.781c-0.07,-0.614 -0.07,-1.778 -0.07,-3.207l0,-2.614Z" style="fill:none;fill-rule:nonzero;stroke:#211e1e;stroke-width:0.17px;"/><path d="M124.855,89.293l1.922,0.031c1.453,0.031 1.782,0.375 1.844,0.828l0.016,0.156c0.015,0.203 0.047,0.25 0.125,0.25c0.062,0 0.14,-0.062 0.14,-0.187c0,-0.172 0.047,-1.235 0.047,-1.688c0,-0.093 0,-0.172 -0.078,-0.172c-0.062,0 -0.203,0.032 -0.422,0.063c-0.25,0.031 -0.594,0.078 -1.109,0.078l-5.781,0c-0.172,0 -0.766,-0.016 -1.204,-0.078c-0.421,-0.047 -0.578,-0.172 -0.671,-0.172c-0.063,0 -0.141,0.188 -0.157,0.281c-0.047,0.125 -0.328,1.438 -0.328,1.594c0,0.094 0.063,0.125 0.094,0.125c0.078,0 0.125,-0.016 0.156,-0.141c0.063,-0.093 0.078,-0.203 0.25,-0.468c0.219,-0.344 0.594,-0.453 1.547,-0.469l2.219,-0.031l0,6.218c0,1.422 0,2.594 -0.078,3.204c-0.047,0.437 -0.141,0.734 -0.453,0.796c-0.141,0.047 -0.313,0.079 -0.454,0.079c-0.078,0 -0.125,0.046 -0.125,0.109c0,0.078 0.079,0.109 0.25,0.109c0.454,0 1.516,-0.047 1.594,-0.047c0.078,0 1.063,0.047 1.891,0.047c0.172,0 0.25,-0.047 0.25,-0.109c0,-0.063 -0.016,-0.125 -0.125,-0.125c-0.141,0 -0.485,-0.031 -0.703,-0.078c-0.469,-0.063 -0.532,-0.344 -0.594,-0.781c-0.063,-0.61 -0.063,-1.782 -0.063,-3.204l0,-6.218Z" style="fill:#211e1e;fill-rule:nonzero;"/><path d="M124.855,89.293l1.915,0.035c1.464,0.035 1.792,0.367 1.847,0.82l0.016,0.157c0.019,0.207 0.055,0.261 0.125,0.261c0.066,0 0.137,-0.07 0.137,-0.191c0,-0.176 0.05,-1.238 0.05,-1.691c0,-0.086 0,-0.176 -0.066,-0.176c-0.07,0 -0.211,0.039 -0.438,0.07c-0.242,0.035 -0.589,0.07 -1.097,0.07l-5.782,0c-0.175,0 -0.765,-0.015 -1.203,-0.07c-0.418,-0.051 -0.574,-0.172 -0.679,-0.172c-0.051,0 -0.137,0.192 -0.157,0.278c-0.035,0.121 -0.328,1.445 -0.328,1.601c0,0.09 0.067,0.125 0.102,0.125c0.07,0 0.125,-0.019 0.156,-0.14c0.055,-0.106 0.07,-0.211 0.246,-0.469c0.227,-0.352 0.59,-0.453 1.551,-0.473l2.211,-0.035l0,6.219c0,1.429 0,2.593 -0.07,3.203c-0.051,0.437 -0.137,0.734 -0.453,0.805c-0.137,0.035 -0.313,0.066 -0.454,0.066c-0.086,0 -0.121,0.055 -0.121,0.105c0,0.086 0.071,0.121 0.246,0.121c0.45,0 1.512,-0.05 1.582,-0.05c0.09,0 1.063,0.05 1.899,0.05c0.176,0 0.246,-0.05 0.246,-0.121c0,-0.05 -0.02,-0.121 -0.121,-0.121c-0.141,0 -0.488,-0.035 -0.699,-0.07c-0.469,-0.07 -0.539,-0.348 -0.59,-0.785c-0.071,-0.61 -0.071,-1.774 -0.071,-3.203l0,-6.219Z" style="fill:none;fill-rule:nonzero;stroke:#211e1e;stroke-width:0.17px;"/><path d="M130.699,93.359c-0.265,0 -0.344,0.016 -0.375,0.141l-0.265,0.984c-0.032,0.156 -0.016,0.25 0.093,0.25c0.078,0 0.375,-0.172 0.703,-0.25c0.594,-0.156 3.688,-0.578 4.157,-0.656c0.281,-0.047 0.609,-0.078 0.609,-0.297c0,-0.125 -0.234,-0.172 -0.531,-0.172l-4.391,0Z" style="fill:#211e1e;fill-rule:nonzero;"/><path d="M130.707,93.367c-0.281,0 -0.348,0.016 -0.383,0.141l-0.262,0.972c-0.035,0.157 -0.019,0.262 0.086,0.262c0.086,0 0.383,-0.172 0.715,-0.262c0.594,-0.156 3.676,-0.574 4.145,-0.644c0.281,-0.051 0.613,-0.086 0.613,-0.293c0,-0.141 -0.23,-0.176 -0.527,-0.176l-4.387,0Z" style="fill:none;fill-rule:nonzero;stroke:#211e1e;stroke-width:0.17px;"/><path d="M138.887,94.761c0,1.672 0,3.047 -0.078,3.782c-0.079,0.5 -0.157,0.89 -0.5,0.953c-0.157,0.047 -0.375,0.078 -0.532,0.078c-0.109,0 -0.14,0.047 -0.14,0.094c0,0.109 0.093,0.14 0.281,0.14c0.516,0 1.625,-0.047 1.703,-0.047c0.094,0 1.188,0.047 2.141,0.047c0.203,0 0.281,-0.047 0.281,-0.14c0,-0.047 -0.031,-0.094 -0.141,-0.094c-0.156,0 -0.531,-0.031 -0.781,-0.078c-0.516,-0.063 -0.625,-0.453 -0.672,-0.953c-0.094,-0.735 -0.094,-2.11 -0.094,-3.782l0,-1.484c0,-0.125 0.032,-0.156 0.125,-0.156c0.297,0 2.188,0 2.625,0.062c0.547,0.063 0.829,0.375 0.907,0.625c0.078,0.203 0.093,0.453 0.109,0.625c0,0.078 0.031,0.157 0.125,0.157c0.125,0 0.125,-0.172 0.125,-0.329c0,-0.125 0.031,-0.828 0.063,-1.171c0.046,-0.579 0.14,-0.875 0.14,-0.969c0,-0.094 -0.015,-0.141 -0.094,-0.141c-0.062,0 -0.109,0.078 -0.187,0.172c-0.156,0.219 -0.375,0.281 -0.797,0.313c-0.25,0.015 -0.484,0.015 -0.781,0.015l-2.235,0.016c-0.109,0 -0.125,-0.047 -0.125,-0.156l0,-4.813c0,-0.141 0.047,-0.187 0.157,-0.187l2.687,0.046c0.672,0.016 1.078,0.344 1.188,0.563c0.093,0.234 0.156,0.516 0.156,0.656c0,0.125 0.031,0.219 0.125,0.219c0.078,0 0.109,-0.109 0.125,-0.188c0.047,-0.218 0.078,-0.984 0.094,-1.156c0.047,-0.484 0.14,-0.703 0.14,-0.812c0,-0.094 -0.031,-0.172 -0.109,-0.172c-0.063,0 -0.141,0.078 -0.234,0.109c-0.157,0.063 -0.438,0.063 -0.766,0.078c-0.406,0.016 -3.938,0 -4.297,0l-0.703,-0.015c-0.391,-0.032 -0.859,-0.032 -1.266,-0.032c-0.187,0 -0.281,0.047 -0.281,0.141c0,0.078 0.078,0.109 0.141,0.109c0.156,0 0.453,0.016 0.593,0.047c0.579,0.125 0.719,0.407 0.75,1c0.032,0.563 0.032,1.047 0.032,3.766l0,3.062Z" style="fill:#211e1e;fill-rule:nonzero;"/><path d="M138.895,94.762c0,1.672 0,3.05 -0.09,3.781c-0.071,0.504 -0.157,0.887 -0.504,0.957c-0.156,0.035 -0.367,0.07 -0.524,0.07c-0.105,0 -0.136,0.051 -0.136,0.106c0,0.101 0.086,0.136 0.277,0.136c0.523,0 1.621,-0.05 1.707,-0.05c0.086,0 1.184,0.05 2.141,0.05c0.191,0 0.281,-0.05 0.281,-0.136c0,-0.055 -0.035,-0.106 -0.141,-0.106c-0.156,0 -0.543,-0.035 -0.785,-0.07c-0.519,-0.07 -0.625,-0.453 -0.676,-0.957c-0.09,-0.731 -0.09,-2.109 -0.09,-3.781l0,-1.481c0,-0.121 0.036,-0.156 0.122,-0.156c0.296,0 2.195,0 2.628,0.055c0.543,0.066 0.821,0.382 0.911,0.625c0.066,0.211 0.086,0.453 0.101,0.629c0,0.086 0.035,0.156 0.121,0.156c0.125,0 0.125,-0.176 0.125,-0.332c0,-0.121 0.032,-0.82 0.067,-1.168c0.054,-0.574 0.14,-0.871 0.14,-0.973c0,-0.09 -0.015,-0.14 -0.086,-0.14c-0.07,0 -0.121,0.085 -0.191,0.171c-0.156,0.227 -0.383,0.282 -0.801,0.317c-0.246,0.015 -0.488,0.015 -0.785,0.015l-2.23,0.02c-0.102,0 -0.122,-0.055 -0.122,-0.16l0,-4.805c0,-0.14 0.051,-0.191 0.157,-0.191l2.683,0.051c0.68,0.019 1.078,0.332 1.184,0.558c0.105,0.227 0.156,0.524 0.156,0.66c0,0.121 0.035,0.211 0.121,0.211c0.09,0 0.125,-0.105 0.141,-0.191c0.035,-0.211 0.07,-0.977 0.09,-1.153c0.051,-0.484 0.136,-0.695 0.136,-0.816c0,-0.086 -0.035,-0.156 -0.101,-0.156c-0.074,0 -0.141,0.07 -0.246,0.105c-0.156,0.051 -0.438,0.051 -0.766,0.067c-0.402,0.019 -3.937,0 -4.285,0l-0.715,-0.016c-0.383,-0.019 -0.851,-0.019 -1.254,-0.019c-0.191,0 -0.277,0.035 -0.277,0.14c0,0.07 0.066,0.106 0.137,0.106c0.156,0 0.453,0.015 0.593,0.05c0.575,0.121 0.715,0.403 0.75,0.993c0.036,0.558 0.036,1.046 0.036,3.765l0,3.063Z" style="fill:none;fill-rule:nonzero;stroke:#211e1e;stroke-width:0.17px;"/><path d="M146.883,94.183c0,2.672 1.797,5.828 6,5.828c3.687,0 6.14,-2.734 6.14,-6.046c0,-3.454 -2.609,-5.563 -6.062,-5.563c-4.219,0 -6.078,3.391 -6.078,5.781Zm1.594,-0.39c0,-3.235 1.843,-4.828 4.406,-4.828c2.422,0 4.578,1.859 4.578,5.406c0,4.297 -2.766,5.031 -4.141,5.031c-2.781,0 -4.843,-2.172 -4.843,-5.609Z" style="fill:#211e1e;fill-rule:nonzero;"/><path d="M146.887,94.188c0,2.664 1.793,5.82 5.992,5.82c3.691,0 6.148,-2.738 6.148,-6.047c0,-3.449 -2.613,-5.555 -6.062,-5.555c-4.231,0 -6.078,3.395 -6.078,5.782Zm1.586,-0.399c0,-3.223 1.847,-4.824 4.406,-4.824c2.422,0 4.582,1.863 4.582,5.414c0,4.285 -2.77,5.016 -4.145,5.016c-2.769,0 -4.843,-2.157 -4.843,-5.606Z" style="fill:none;fill-rule:nonzero;stroke:#211e1e;stroke-width:0.17px;"/><path d="M171.367,92.902c0,-2.297 0,-2.719 0.031,-3.187c0.032,-0.532 0.125,-0.735 0.516,-0.829c0.203,-0.031 0.281,-0.031 0.391,-0.031c0.062,0 0.14,-0.062 0.14,-0.125c0,-0.078 -0.093,-0.125 -0.265,-0.125c-0.453,0 -1.422,0.047 -1.516,0.047c-0.062,0 -1.062,-0.047 -1.75,-0.047c-0.172,0 -0.234,0.047 -0.234,0.125c0,0.063 0.047,0.125 0.125,0.125c0.14,0 0.39,0.016 0.515,0.031c0.5,0.079 0.578,0.313 0.61,0.829c0.015,0.468 0.031,0.921 0.031,3.218l0,0.313c0,0.094 -0.031,0.094 -0.078,0.094l-6.391,0c-0.062,0 -0.094,0 -0.094,-0.094l0,-0.313c0,-2.297 0,-2.75 0.016,-3.218c0.031,-0.532 0.125,-0.735 0.547,-0.829c0.172,-0.031 0.281,-0.031 0.375,-0.031c0.062,0 0.125,-0.062 0.125,-0.125c0,-0.078 -0.063,-0.125 -0.25,-0.125c-0.469,0 -1.438,0.047 -1.516,0.047c-0.078,0 -1.062,-0.047 -1.75,-0.047c-0.172,0 -0.25,0.047 -0.25,0.125c0,0.063 0.078,0.125 0.125,0.125c0.141,0 0.407,0.016 0.516,0.031c0.516,0.079 0.594,0.313 0.641,0.829c0.031,0.468 0.031,0.89 0.031,3.187l0,2.609c0,1.422 0,2.594 -0.094,3.204c-0.062,0.437 -0.094,0.718 -0.391,0.781c-0.14,0.047 -0.343,0.078 -0.468,0.078c-0.094,0 -0.125,0.062 -0.125,0.125c0,0.078 0.078,0.109 0.234,0.109c0.469,0 1.453,-0.047 1.531,-0.047c0.078,0 1.047,0.047 1.907,0.047c0.171,0 0.25,-0.047 0.25,-0.109c0,-0.063 -0.047,-0.125 -0.125,-0.125c-0.141,0 -0.469,-0.031 -0.704,-0.078c-0.453,-0.063 -0.5,-0.344 -0.562,-0.781c-0.063,-0.61 -0.063,-1.735 -0.063,-3.172l0,-1.485c0,-0.062 0.032,-0.078 0.094,-0.078l6.391,0c0.047,0 0.078,0.016 0.078,0.078l0,1.485c0,1.437 0,2.547 -0.063,3.156c-0.046,0.437 -0.109,0.734 -0.421,0.797c-0.141,0.047 -0.313,0.078 -0.454,0.078c-0.078,0 -0.125,0.062 -0.125,0.125c0,0.078 0.079,0.109 0.25,0.109c0.454,0 1.454,-0.047 1.516,-0.047c0.094,0 1.063,0.047 1.906,0.047c0.172,0 0.25,-0.047 0.25,-0.109c0,-0.063 -0.031,-0.125 -0.14,-0.125c-0.11,0 -0.469,-0.031 -0.672,-0.078c-0.469,-0.063 -0.5,-0.344 -0.563,-0.781c-0.062,-0.61 -0.078,-1.782 -0.078,-3.204l0,-2.609Z" style="fill:#211e1e;fill-rule:nonzero;"/><path d="M171.359,92.898c0,-2.296 0,-2.714 0.036,-3.187c0.035,-0.523 0.121,-0.731 0.519,-0.816c0.191,-0.036 0.281,-0.036 0.387,-0.036c0.066,0 0.137,-0.07 0.137,-0.125c0,-0.086 -0.086,-0.121 -0.262,-0.121c-0.453,0 -1.426,0.035 -1.516,0.035c-0.066,0 -1.062,-0.035 -1.738,-0.035c-0.176,0 -0.246,0.035 -0.246,0.121c0,0.055 0.051,0.125 0.121,0.125c0.141,0 0.402,0.016 0.523,0.036c0.504,0.07 0.575,0.312 0.61,0.816c0.019,0.473 0.035,0.926 0.035,3.223l0,0.312c0,0.09 -0.035,0.09 -0.086,0.09l-6.395,0c-0.05,0 -0.086,0 -0.086,-0.09l0,-0.312c0,-2.297 0,-2.75 0.02,-3.223c0.031,-0.523 0.121,-0.731 0.539,-0.816c0.172,-0.036 0.277,-0.036 0.383,-0.036c0.051,0 0.121,-0.07 0.121,-0.125c0,-0.086 -0.07,-0.121 -0.242,-0.121c-0.473,0 -1.446,0.035 -1.516,0.035c-0.09,0 -1.062,-0.035 -1.762,-0.035c-0.171,0 -0.242,0.035 -0.242,0.121c0,0.055 0.071,0.125 0.121,0.125c0.141,0 0.403,0.016 0.524,0.036c0.504,0.07 0.594,0.312 0.625,0.816c0.039,0.473 0.039,0.891 0.039,3.187l0,2.614c0,1.429 0,2.593 -0.09,3.207c-0.07,0.433 -0.106,0.711 -0.398,0.781c-0.141,0.035 -0.332,0.07 -0.473,0.07c-0.086,0 -0.121,0.071 -0.121,0.121c0,0.09 0.086,0.121 0.242,0.121c0.473,0 1.445,-0.05 1.535,-0.05c0.07,0 1.043,0.05 1.899,0.05c0.171,0 0.242,-0.05 0.242,-0.121c0,-0.05 -0.035,-0.121 -0.121,-0.121c-0.141,0 -0.473,-0.035 -0.696,-0.07c-0.453,-0.07 -0.507,-0.348 -0.558,-0.781c-0.071,-0.614 -0.071,-1.742 -0.071,-3.172l0,-1.481c0,-0.07 0.036,-0.086 0.086,-0.086l6.395,0c0.051,0 0.086,0.016 0.086,0.086l0,1.481c0,1.43 0,2.543 -0.07,3.152c-0.051,0.438 -0.106,0.731 -0.418,0.801c-0.137,0.035 -0.313,0.07 -0.454,0.07c-0.085,0 -0.121,0.071 -0.121,0.121c0,0.09 0.071,0.121 0.243,0.121c0.453,0 1.449,-0.05 1.515,-0.05c0.09,0 1.063,0.05 1.899,0.05c0.175,0 0.261,-0.05 0.261,-0.121c0,-0.05 -0.035,-0.121 -0.136,-0.121c-0.125,0 -0.473,-0.035 -0.68,-0.07c-0.473,-0.07 -0.508,-0.348 -0.559,-0.781c-0.07,-0.614 -0.086,-1.778 -0.086,-3.207l0,-2.614Z" style="fill:none;fill-rule:nonzero;stroke:#211e1e;stroke-width:0.17px;"/><path d="M177.977,92.902c0,-2.297 0,-2.719 0.015,-3.187c0.031,-0.532 0.125,-0.75 0.578,-0.844c0.172,-0.016 0.407,-0.031 0.5,-0.031c0.063,0 0.125,-0.047 0.125,-0.11c0,-0.078 -0.078,-0.125 -0.25,-0.125c-0.468,0 -1.609,0.047 -1.687,0.047c-0.078,0 -1.047,-0.047 -1.735,-0.047c-0.171,0 -0.25,0.047 -0.25,0.125c0,0.063 0.079,0.125 0.125,0.125c0.141,0 0.407,0.016 0.516,0.031c0.516,0.079 0.594,0.313 0.641,0.829c0.031,0.468 0.031,0.89 0.031,3.187l0,2.609c0,1.422 0,2.594 -0.094,3.204c-0.062,0.437 -0.094,0.718 -0.39,0.781c-0.141,0.047 -0.344,0.078 -0.469,0.078c-0.094,0 -0.125,0.062 -0.125,0.125c0,0.078 0.078,0.109 0.234,0.109c0.25,0 0.578,-0.015 0.891,-0.031c0.297,-0.016 0.562,-0.016 0.625,-0.016c0.453,0 0.984,0.016 1.672,0.032c0.718,0.031 1.578,0.062 2.672,0.062c0.812,0 0.875,-0.062 0.968,-0.406c0.125,-0.438 0.235,-1.328 0.235,-1.484c0,-0.157 -0.032,-0.219 -0.11,-0.219c-0.078,0 -0.14,0.078 -0.156,0.187c-0.047,0.297 -0.172,0.61 -0.359,0.828c-0.375,0.438 -1.047,0.454 -1.844,0.454c-1.203,0 -1.797,-0.094 -2.047,-0.344c-0.281,-0.266 -0.312,-1.141 -0.312,-3.328l0,-2.641Z" style="fill:#211e1e;fill-rule:nonzero;"/><path d="M177.977,92.898c0,-2.296 0,-2.714 0.019,-3.187c0.035,-0.523 0.121,-0.746 0.574,-0.836c0.172,-0.016 0.399,-0.035 0.504,-0.035c0.055,0 0.121,-0.051 0.121,-0.106c0,-0.086 -0.086,-0.121 -0.242,-0.121c-0.469,0 -1.621,0.035 -1.691,0.035c-0.086,0 -1.043,-0.035 -1.742,-0.035c-0.172,0 -0.243,0.035 -0.243,0.121c0,0.055 0.071,0.125 0.121,0.125c0.141,0 0.403,0.016 0.524,0.036c0.504,0.07 0.594,0.312 0.629,0.816c0.035,0.473 0.035,0.891 0.035,3.187l0,2.614c0,1.429 0,2.593 -0.09,3.207c-0.07,0.433 -0.105,0.711 -0.398,0.781c-0.141,0.035 -0.332,0.07 -0.473,0.07c-0.086,0 -0.121,0.071 -0.121,0.121c0,0.09 0.086,0.121 0.246,0.121c0.242,0 0.574,-0.015 0.887,-0.031c0.297,-0.019 0.558,-0.019 0.625,-0.019c0.453,0 0.976,0.019 1.672,0.035c0.714,0.035 1.57,0.051 2.668,0.051c0.816,0 0.871,-0.051 0.972,-0.399c0.125,-0.437 0.227,-1.324 0.227,-1.48c0,-0.157 -0.035,-0.227 -0.102,-0.227c-0.09,0 -0.14,0.086 -0.16,0.192c-0.051,0.296 -0.172,0.609 -0.363,0.836c-0.367,0.433 -1.047,0.453 -1.848,0.453c-1.199,0 -1.793,-0.106 -2.039,-0.348c-0.277,-0.262 -0.312,-1.152 -0.312,-3.328l0,-2.649Z" style="fill:none;fill-rule:nonzero;stroke:#211e1e;stroke-width:0.17px;"/><path d="M16.73,132.562c-0.562,0.016 -1.125,-0.281 -1.125,-0.984c0,-0.594 0.547,-0.906 1.125,-0.906c0.641,0 1.125,0.312 1.125,0.906c0,0.672 -0.546,1 -1.125,0.984Zm1.594,-0.984c0,-0.891 -0.812,-1.313 -1.594,-1.313c-0.781,0 -1.593,0.422 -1.593,1.313c0,0.578 0.312,0.984 0.859,1.156l0,0.016c-0.656,0.125 -1.047,0.656 -1.062,1.344c0,1.062 0.812,1.578 1.796,1.578c1,0 1.813,-0.516 1.813,-1.578c0,-0.719 -0.391,-1.204 -1.078,-1.344l0,-0.016c0.547,-0.156 0.859,-0.578 0.859,-1.156Zm-1.594,3.703c-0.734,0 -1.328,-0.406 -1.328,-1.187c0,-0.766 0.61,-1.157 1.328,-1.141c0.719,-0.016 1.344,0.391 1.344,1.141c0,0.812 -0.594,1.187 -1.344,1.187Z" style="fill:#211e1e;fill-rule:nonzero;"/><path d="M21.363,135.562l0.469,0l0,-2.062c0,-0.813 0.578,-1.422 1.438,-1.391l0,-0.469c-0.688,-0.031 -1.219,0.328 -1.454,0.954l-0.015,0l0,-0.907l-0.438,0l0,3.875Z" style="fill:#211e1e;fill-rule:nonzero;"/><path d="M26.852,131.687l-0.469,0l0,2.031c0,0.797 -0.344,1.563 -1.156,1.563c-0.75,0 -1.016,-0.375 -1.032,-1.063l0,-2.531l-0.484,0l0,2.516c0,0.906 0.375,1.469 1.359,1.469c0.578,0 1.094,-0.297 1.344,-0.813l0.016,0l0,0.703l0.422,0l0,-3.875Z" style="fill:#211e1e;fill-rule:nonzero;"/><path d="M28.035,133.359c0.078,-0.703 0.485,-1.375 1.266,-1.375c0.765,0 1.203,0.656 1.234,1.375l-2.5,0Zm2.969,0.391c0.047,-1.078 -0.469,-2.172 -1.703,-2.172c-1.235,0 -1.75,1.031 -1.75,2.047c0,1.109 0.515,2.047 1.75,2.047c0.984,0 1.484,-0.5 1.687,-1.391l-0.468,0c-0.157,0.594 -0.532,1 -1.219,1c-0.891,0 -1.266,-0.844 -1.266,-1.531l2.969,0Z" style="fill:#211e1e;fill-rule:nonzero;"/><path d="M37.137,130.203l-0.485,0l0,2.219c-0.203,-0.547 -0.781,-0.844 -1.343,-0.844c-1.188,0 -1.75,0.953 -1.75,2.047c0,1.109 0.562,2.047 1.75,2.047c0.562,0 1.171,-0.328 1.375,-0.844l0.015,0l0,0.734l0.438,0l0,-5.359Zm-3.11,3.422c0,-0.797 0.375,-1.641 1.282,-1.641c0.984,0 1.343,0.844 1.343,1.641c0,0.812 -0.359,1.656 -1.343,1.656c-0.907,0 -1.282,-0.844 -1.282,-1.656Z" style="fill:#211e1e;fill-rule:nonzero;"/><path d="M38.316,133.359c0.079,-0.703 0.485,-1.375 1.266,-1.375c0.766,0 1.203,0.656 1.234,1.375l-2.5,0Zm2.969,0.391c0.047,-1.078 -0.469,-2.172 -1.703,-2.172c-1.234,0 -1.75,1.031 -1.75,2.047c0,1.109 0.516,2.047 1.75,2.047c0.984,0 1.484,-0.5 1.688,-1.391l-0.469,0c-0.156,0.594 -0.531,1 -1.219,1c-0.891,0 -1.266,-0.844 -1.266,-1.531l2.969,0Z" style="fill:#211e1e;fill-rule:nonzero;"/><path d="M44.09,135.562l0.515,0l0,-4.531l0.016,0l3.109,4.531l0.579,0l0,-5.359l-0.516,0l0,4.531l-0.016,0l-3.109,-4.531l-0.578,0l0,5.359Z" style="fill:#211e1e;fill-rule:nonzero;"/><path d="M49.293,130.968l0.484,0l0,-0.765l-0.484,0l0,0.765Zm0,4.594l0.484,0l0,-3.875l-0.484,0l0,3.875Z" style="fill:#211e1e;fill-rule:nonzero;"/><path d="M50.961,133.359c0.078,-0.703 0.484,-1.375 1.266,-1.375c0.765,0 1.203,0.656 1.234,1.375l-2.5,0Zm2.969,0.391c0.047,-1.078 -0.469,-2.172 -1.703,-2.172c-1.235,0 -1.75,1.031 -1.75,2.047c0,1.109 0.515,2.047 1.75,2.047c0.984,0 1.484,-0.5 1.687,-1.391l-0.469,0c-0.156,0.594 -0.531,1 -1.218,1c-0.891,0 -1.266,-0.844 -1.266,-1.531l2.969,0Z" style="fill:#211e1e;fill-rule:nonzero;"/><path d="M57.977,130.203l-0.485,0l0,2.219c-0.203,-0.547 -0.781,-0.844 -1.344,-0.844c-1.187,0 -1.75,0.953 -1.75,2.047c0,1.109 0.563,2.047 1.75,2.047c0.563,0 1.172,-0.328 1.375,-0.844l0.016,0l0,0.734l0.438,0l0,-5.359Zm-3.11,3.422c0,-0.797 0.375,-1.641 1.281,-1.641c0.985,0 1.344,0.844 1.344,1.641c0,0.812 -0.359,1.656 -1.344,1.656c-0.906,0 -1.281,-0.844 -1.281,-1.656Z" style="fill:#211e1e;fill-rule:nonzero;"/><path d="M59.16,133.359c0.078,-0.703 0.485,-1.375 1.266,-1.375c0.765,0 1.203,0.656 1.234,1.375l-2.5,0Zm2.969,0.391c0.047,-1.078 -0.469,-2.172 -1.703,-2.172c-1.235,0 -1.75,1.031 -1.75,2.047c0,1.109 0.515,2.047 1.75,2.047c0.984,0 1.484,-0.5 1.687,-1.391l-0.468,0c-0.157,0.594 -0.532,1 -1.219,1c-0.891,0 -1.266,-0.844 -1.266,-1.531l2.969,0Z" style="fill:#211e1e;fill-rule:nonzero;"/><path d="M62.77,135.562l0.468,0l0,-2.062c0,-0.813 0.578,-1.422 1.438,-1.391l0,-0.469c-0.688,-0.031 -1.219,0.328 -1.453,0.954l-0.016,0l0,-0.907l-0.437,0l0,3.875Z" style="fill:#211e1e;fill-rule:nonzero;"/><path d="M68.402,130.203l-0.484,0l0,2.219c-0.203,-0.547 -0.781,-0.844 -1.344,-0.844c-1.187,0 -1.75,0.953 -1.75,2.047c0,1.109 0.563,2.047 1.75,2.047c0.563,0 1.172,-0.328 1.375,-0.844l0.016,0l0,0.734l0.437,0l0,-5.359Zm-3.109,3.422c0,-0.797 0.375,-1.641 1.281,-1.641c0.985,0 1.344,0.844 1.344,1.641c0,0.812 -0.359,1.656 -1.344,1.656c-0.906,0 -1.281,-0.844 -1.281,-1.656Z" style="fill:#211e1e;fill-rule:nonzero;"/><path d="M70.926,131.984c0.906,0 1.359,0.828 1.359,1.641c0,0.812 -0.453,1.656 -1.359,1.656c-0.891,0 -1.344,-0.844 -1.344,-1.656c0,-0.813 0.453,-1.641 1.344,-1.641Zm0,-0.406c-1.172,0 -1.828,0.937 -1.828,2.047c0,1.109 0.656,2.047 1.828,2.047c1.187,0 1.844,-0.938 1.844,-2.047c0,-1.11 -0.657,-2.047 -1.844,-2.047Z" style="fill:#211e1e;fill-rule:nonzero;"/><path d="M73.457,135.562l0.484,0l0,-2.25c0.016,-0.765 0.454,-1.328 1.204,-1.328c0.765,0 0.984,0.5 0.984,1.156l0,2.422l0.469,0l0,-2.484c0,-0.922 -0.328,-1.5 -1.407,-1.5c-0.546,0 -1.062,0.312 -1.234,0.781l-0.016,0l0,-0.672l-0.484,0l0,3.875Z" style="fill:#211e1e;fill-rule:nonzero;"/><path d="M78.547,135.562l0.515,0l1.438,-3.875l-0.484,0l-1.204,3.407l-0.015,0l-1.203,-3.407l-0.532,0l1.485,3.875Z" style="fill:#211e1e;fill-rule:nonzero;"/><path d="M81.254,133.359c0.078,-0.703 0.484,-1.375 1.266,-1.375c0.765,0 1.203,0.656 1.234,1.375l-2.5,0Zm2.969,0.391c0.047,-1.078 -0.469,-2.172 -1.703,-2.172c-1.235,0 -1.75,1.031 -1.75,2.047c0,1.109 0.515,2.047 1.75,2.047c0.984,0 1.484,-0.5 1.687,-1.391l-0.469,0c-0.156,0.594 -0.531,1 -1.218,1c-0.891,0 -1.266,-0.844 -1.266,-1.531l2.969,0Z" style="fill:#211e1e;fill-rule:nonzero;"/><path d="M84.848,135.562l0.484,0l0,-2.25c0.016,-0.765 0.453,-1.328 1.203,-1.328c0.766,0 0.985,0.5 0.985,1.156l0,2.422l0.468,0l0,-2.484c0,-0.922 -0.328,-1.5 -1.406,-1.5c-0.547,0 -1.062,0.312 -1.234,0.781l-0.016,0l0,-0.672l-0.484,0l0,3.875Z" style="fill:#211e1e;fill-rule:nonzero;"/><path d="M94.242,133.203c-0.172,0.265 -0.359,0.515 -0.672,0.515c-0.187,0 -0.437,-0.124 -0.734,-0.25c-0.266,-0.124 -0.578,-0.234 -0.859,-0.234c-0.5,0 -0.782,0.313 -0.938,0.641l0.266,0.265c0.125,-0.265 0.312,-0.515 0.64,-0.515c0.282,0 0.532,0.125 0.797,0.25c0.266,0.125 0.531,0.234 0.828,0.234c0.469,0 0.719,-0.312 0.938,-0.641l-0.266,-0.265Z" style="fill:#211e1e;fill-rule:nonzero;"/><path d="M97.656,135.562l3.5,0l0,-0.437l-3,0l0,-4.922l-0.5,0l0,5.359Z" style="fill:#211e1e;fill-rule:nonzero;"/><rect x="101.59" y="133.281" width="1.875" height="0.438" style="fill:#211e1e;"/><path d="M104.176,134.062c0.031,1 0.75,1.61 1.734,1.61c1,0 1.813,-0.75 1.813,-1.782c0,-1.046 -0.672,-1.812 -1.75,-1.812c-0.422,0 -0.86,0.187 -1.125,0.484l0.328,-1.75l2.297,0l0,-0.437l-2.625,0l-0.516,2.734l0.406,0c0.266,-0.406 0.703,-0.625 1.172,-0.625c0.781,0 1.344,0.594 1.344,1.36c0,0.765 -0.5,1.437 -1.313,1.437c-0.718,0 -1.265,-0.484 -1.281,-1.219l-0.484,0Z" style="fill:#211e1e;fill-rule:nonzero;"/><path d="M108.738,133.859l1.969,-2.859l0.016,0l0,2.859l-1.985,0Zm-0.437,0.391l2.422,0l0,1.312l0.437,0l0,-1.312l0.797,0l0,-0.391l-0.797,0l0,-3.547l-0.422,0l-2.437,3.485l0,0.453Z" style="fill:#211e1e;fill-rule:nonzero;"/><path d="M114.328,130.265c-1.516,0 -1.828,1.485 -1.828,2.703c0,1.235 0.312,2.704 1.828,2.704c1.531,0 1.844,-1.469 1.844,-2.704c0,-1.218 -0.313,-2.703 -1.844,-2.703Zm0,0.407c1.203,0 1.36,1.39 1.36,2.296c0,0.907 -0.157,2.313 -1.36,2.313c-1.187,0 -1.344,-1.406 -1.344,-2.313c0,-0.906 0.157,-2.296 1.344,-2.296Z" style="fill:#211e1e;fill-rule:nonzero;"/><path d="M117.156,131.656l1.375,0l0,3.906l0.485,0l0,-5.25l-0.391,0c-0.141,0.953 -0.656,0.985 -1.469,1.016l0,0.328Z" style="fill:#211e1e;fill-rule:nonzero;"/><path d="M125.051,130.718l1.031,2.75l-2.109,0l1.078,-2.75Zm-2.422,4.844l0.547,0l0.64,-1.672l2.438,0l0.656,1.672l0.547,0l-2.109,-5.359l-0.563,0l-2.156,5.359Z" style="fill:#211e1e;fill-rule:nonzero;"/><path d="M127.84,135.562l0.484,0l0,-2.25c0.016,-0.765 0.453,-1.328 1.203,-1.328c0.766,0 0.985,0.5 0.985,1.156l0,2.422l0.468,0l0,-2.484c0,-0.922 -0.328,-1.5 -1.406,-1.5c-0.547,0 -1.062,0.312 -1.234,0.781l-0.016,0l0,-2.156l-0.484,0l0,5.359Z" style="fill:#211e1e;fill-rule:nonzero;"/><path d="M131.867,135.562l0.485,0l0,-2.25c0.015,-0.765 0.453,-1.328 1.203,-1.328c0.765,0 0.984,0.5 0.984,1.156l0,2.422l0.469,0l0,-2.484c0,-0.922 -0.328,-1.5 -1.406,-1.5c-0.547,0 -1.063,0.312 -1.235,0.781l-0.015,0l0,-0.672l-0.485,0l0,3.875Z" style="fill:#211e1e;fill-rule:nonzero;"/><path d="M141.262,133.203c-0.172,0.265 -0.36,0.515 -0.672,0.515c-0.188,0 -0.438,-0.124 -0.735,-0.25c-0.265,-0.124 -0.578,-0.234 -0.859,-0.234c-0.5,0 -0.781,0.313 -0.937,0.641l0.265,0.265c0.125,-0.265 0.313,-0.515 0.641,-0.515c0.281,0 0.531,0.125 0.797,0.25c0.265,0.125 0.531,0.234 0.828,0.234c0.469,0 0.719,-0.312 0.937,-0.641l-0.265,-0.265Z" style="fill:#211e1e;fill-rule:nonzero;"/><path d="M144.188,131.015l1.687,0l0,4.547l0.937,0l0,-4.547l1.704,0l0,-0.812l-4.328,0l0,0.812Z" style="fill:#211e1e;fill-rule:nonzero;"/><path d="M151.035,130.812l2.906,0c-1.453,1.656 -2.031,2.969 -2.156,4.75l0.516,0c0.109,-2.437 1.453,-4.062 2.109,-4.75l0,-0.437l-3.375,0l0,0.437Z" style="fill:#211e1e;fill-rule:nonzero;"/><path d="M158.609,131.64c-0.109,-0.922 -0.671,-1.375 -1.609,-1.375c-1.719,0 -1.875,2 -1.875,2.625c0,2.047 0.563,2.782 1.844,2.782c1.047,0 1.781,-0.75 1.781,-1.782c0,-1.015 -0.688,-1.75 -1.734,-1.75c-0.61,0 -1.157,0.36 -1.407,0.875l-0.015,0c0,-0.953 0.218,-2.343 1.453,-2.343c0.609,0 1.015,0.39 1.094,0.968l0.468,0Zm-1.609,0.907c0.812,0 1.266,0.609 1.266,1.375c0,0.734 -0.5,1.359 -1.25,1.359c-0.922,0 -1.313,-0.609 -1.313,-1.359c0,-0.766 0.469,-1.375 1.297,-1.375Z" style="fill:#211e1e;fill-rule:nonzero;"/><path d="M163.164,130.265c-1.516,0 -1.828,1.485 -1.828,2.703c0,1.235 0.312,2.704 1.828,2.704c1.531,0 1.844,-1.469 1.844,-2.704c0,-1.218 -0.313,-2.703 -1.844,-2.703Zm0,0.407c1.203,0 1.359,1.39 1.359,2.296c0,0.907 -0.156,2.313 -1.359,2.313c-1.187,0 -1.344,-1.406 -1.344,-2.313c0,-0.906 0.157,-2.296 1.344,-2.296Z" style="fill:#211e1e;fill-rule:nonzero;"/><path d="M168.988,135.125l-2.922,0c0.125,-0.688 1.063,-1.172 1.579,-1.516c0.687,-0.437 1.312,-0.984 1.312,-1.859c0,-0.985 -0.703,-1.485 -1.625,-1.485c-1.141,0 -1.703,0.782 -1.687,1.86l0.484,0c-0.031,-0.766 0.312,-1.453 1.187,-1.453c0.625,0 1.172,0.39 1.172,1.062c0,0.422 -0.14,0.703 -0.437,1c-0.891,0.875 -2.5,1.266 -2.531,2.828l3.468,0l0,-0.437Z" style="fill:#211e1e;fill-rule:nonzero;"/><path d="M171.758,133.89c-0.078,1.125 0.703,1.782 1.797,1.782c0.953,0 1.797,-0.563 1.797,-1.594c0,-0.688 -0.391,-1.188 -1.079,-1.297l0,-0.016c0.579,-0.14 0.891,-0.593 0.891,-1.156c0,-0.937 -0.812,-1.344 -1.625,-1.344c-1.031,0 -1.656,0.735 -1.656,1.735l0.469,0c-0.032,-0.782 0.406,-1.328 1.187,-1.328c0.625,0 1.156,0.296 1.156,0.984c0,0.672 -0.578,0.953 -1.078,0.953l-0.39,0l0,0.391l0.39,0c0.703,0 1.266,0.359 1.266,1.109c0,0.75 -0.656,1.172 -1.344,1.172c-0.844,0 -1.344,-0.563 -1.312,-1.391l-0.469,0Z" style="fill:#211e1e;fill-rule:nonzero;"/><path d="M176.414,131.656l1.375,0l0,3.906l0.484,0l0,-5.25l-0.39,0c-0.141,0.953 -0.656,0.985 -1.469,1.016l0,0.328Z" style="fill:#211e1e;fill-rule:nonzero;"/><path d="M185.652,133.203c-0.172,0.265 -0.359,0.515 -0.672,0.515c-0.187,0 -0.437,-0.124 -0.734,-0.25c-0.266,-0.124 -0.578,-0.234 -0.859,-0.234c-0.5,0 -0.782,0.313 -0.938,0.641l0.266,0.265c0.125,-0.265 0.312,-0.515 0.64,-0.515c0.282,0 0.532,0.125 0.797,0.25c0.266,0.125 0.532,0.234 0.828,0.234c0.469,0 0.719,-0.312 0.938,-0.641l-0.266,-0.265Z" style="fill:#211e1e;fill-rule:nonzero;"/><path d="M189.082,135.562l0.938,0l0,-2.375l2.437,0l0,-0.765l-2.437,0l0,-1.407l2.765,0l0,-0.812l-3.703,0l0,5.359Z" style="fill:#211e1e;fill-rule:nonzero;"/><path d="M195.426,130.812l2.906,0c-1.453,1.656 -2.031,2.969 -2.156,4.75l0.515,0c0.11,-2.437 1.454,-4.062 2.11,-4.75l0,-0.437l-3.375,0l0,0.437Z" style="fill:#211e1e;fill-rule:nonzero;"/><path d="M203.004,131.64c-0.109,-0.922 -0.672,-1.375 -1.609,-1.375c-1.719,0 -1.875,2 -1.875,2.625c0,2.047 0.562,2.782 1.843,2.782c1.047,0 1.782,-0.75 1.782,-1.782c0,-1.015 -0.688,-1.75 -1.735,-1.75c-0.609,0 -1.156,0.36 -1.406,0.875l-0.016,0c0,-0.953 0.219,-2.343 1.453,-2.343c0.61,0 1.016,0.39 1.094,0.968l0.469,0Zm-1.609,0.907c0.812,0 1.265,0.609 1.265,1.375c0,0.734 -0.5,1.359 -1.25,1.359c-0.922,0 -1.312,-0.609 -1.312,-1.359c0,-0.766 0.468,-1.375 1.297,-1.375Z" style="fill:#211e1e;fill-rule:nonzero;"/><path d="M205.852,134.297c0.125,0.921 0.687,1.375 1.625,1.375c1.718,0 1.875,-1.985 1.875,-2.61c0,-2.047 -0.563,-2.797 -1.844,-2.797c-1.047,0 -1.781,0.766 -1.781,1.782c0,1.015 0.687,1.75 1.734,1.75c0.609,0 1.156,-0.344 1.391,-0.86l0.015,0c0,0.938 -0.203,2.344 -1.437,2.344c-0.61,0 -1.016,-0.406 -1.094,-0.984l-0.484,0Zm1.625,-0.891c-0.813,0 -1.266,-0.625 -1.266,-1.391c0,-0.734 0.5,-1.343 1.25,-1.343c0.922,0 1.312,0.593 1.312,1.343c0,0.766 -0.484,1.391 -1.296,1.391Z" style="fill:#211e1e;fill-rule:nonzero;"/><path d="M210.383,131.656l1.375,0l0,3.906l0.484,0l0,-5.25l-0.39,0c-0.141,0.953 -0.657,0.985 -1.469,1.016l0,0.328Z" style="fill:#211e1e;fill-rule:nonzero;"/><path d="M216.559,133.859l1.968,-2.859l0.016,0l0,2.859l-1.984,0Zm-0.438,0.391l2.422,0l0,1.312l0.437,0l0,-1.312l0.797,0l0,-0.391l-0.797,0l0,-3.547l-0.421,0l-2.438,3.485l0,0.453Z" style="fill:#211e1e;fill-rule:nonzero;"/><path d="M223.852,131.64c-0.11,-0.922 -0.672,-1.375 -1.61,-1.375c-1.719,0 -1.875,2 -1.875,2.625c0,2.047 0.563,2.782 1.844,2.782c1.047,0 1.781,-0.75 1.781,-1.782c0,-1.015 -0.687,-1.75 -1.734,-1.75c-0.61,0 -1.156,0.36 -1.406,0.875l-0.016,0c0,-0.953 0.219,-2.343 1.453,-2.343c0.609,0 1.016,0.39 1.094,0.968l0.469,0Zm-1.61,0.907c0.813,0 1.266,0.609 1.266,1.375c0,0.734 -0.5,1.359 -1.25,1.359c-0.922,0 -1.313,-0.609 -1.313,-1.359c0,-0.766 0.469,-1.375 1.297,-1.375Z" style="fill:#211e1e;fill-rule:nonzero;"/><path d="M78.781,145.558l0.485,0l0,-2.25c0.015,-0.765 0.453,-1.328 1.203,-1.328c0.765,0 0.984,0.5 0.984,1.156l0,2.422l0.469,0l0,-2.484c0,-0.922 -0.328,-1.5 -1.406,-1.5c-0.547,0 -1.063,0.312 -1.235,0.781l-0.015,0l0,-2.156l-0.485,0l0,5.359Z" style="fill:#211e1e;fill-rule:nonzero;"/><path d="M85.605,142.824c-0.031,-0.844 -0.625,-1.25 -1.406,-1.25c-0.687,0 -1.453,0.297 -1.453,1.094c0,0.64 0.453,0.875 1.078,1.031l0.61,0.141c0.421,0.093 0.843,0.25 0.843,0.703c0,0.531 -0.609,0.734 -1.062,0.734c-0.625,0 -1.094,-0.328 -1.141,-0.969l-0.469,0c0.079,0.953 0.688,1.36 1.594,1.36c0.719,0 1.547,-0.313 1.547,-1.157c0,-0.671 -0.562,-1 -1.109,-1.078l-0.625,-0.14c-0.328,-0.078 -0.797,-0.235 -0.797,-0.657c0,-0.5 0.484,-0.656 0.906,-0.656c0.547,0 1,0.25 1.016,0.844l0.468,0Z" style="fill:#211e1e;fill-rule:nonzero;"/><path d="M87.918,141.683l-0.766,0l0,-0.328c0,-0.422 0,-0.75 0.516,-0.75c0.125,0 0.219,0.016 0.359,0.031l0,-0.406c-0.156,-0.015 -0.265,-0.031 -0.406,-0.031c-0.766,0 -0.937,0.469 -0.937,1.141l0,0.343l-0.657,0l0,0.407l0.657,0l0,3.468l0.468,0l0,-3.468l0.766,0l0,-0.407Z" style="fill:#211e1e;fill-rule:nonzero;"/><path d="M93.281,141.48l-0.406,0l-0.187,0.485c-0.172,-0.454 -0.454,-0.625 -0.797,-0.625c-1.063,0 -1.766,1.125 -1.766,2.156c0,0.594 0.359,1.094 0.984,1.094c0.375,0 0.719,-0.25 0.953,-0.5l0.016,0c0.031,0.343 0.234,0.515 0.5,0.515c0.844,0 1.734,-0.969 1.734,-2.187c0,-1.375 -1.093,-2.328 -2.531,-2.328c-1.531,0 -2.75,1.203 -2.75,2.765c0,1.578 1.157,2.813 2.781,2.813c0.938,0 1.86,-0.516 2.313,-1.328l-0.391,0c-0.422,0.609 -1.187,1 -1.922,1c-1.374,0 -2.39,-1.079 -2.39,-2.422c0,-1.391 0.969,-2.485 2.375,-2.485c1.156,0 2.125,0.735 2.125,1.969c0,0.844 -0.594,1.859 -1.266,1.859c-0.25,0 -0.203,-0.296 -0.094,-0.625l0.719,-2.156Zm-1.422,0.25c0.297,0 0.594,0.344 0.594,0.703c0,0.657 -0.547,1.766 -1.234,1.766c-0.36,0 -0.625,-0.281 -0.625,-0.734c0,-0.704 0.515,-1.735 1.265,-1.735Z" style="fill:#211e1e;fill-rule:nonzero;"/><path d="M95.125,146.996l0.469,0l0,-2.172l0.015,0c0.203,0.562 0.766,0.844 1.344,0.844c1.172,0 1.735,-0.938 1.735,-2.047c0,-1.094 -0.563,-2.047 -1.735,-2.047c-0.625,0 -1.156,0.312 -1.375,0.844l-0.016,0l0,-0.735l-0.437,0l0,5.313Zm3.094,-3.375c0,0.812 -0.36,1.656 -1.266,1.656c-1,0 -1.359,-0.844 -1.359,-1.656c0,-0.875 0.312,-1.641 1.359,-1.641c0.906,0 1.266,0.844 1.266,1.641Z" style="fill:#211e1e;fill-rule:nonzero;"/><path d="M100.18,140.527l-0.469,0l0,1.156l-0.688,0l0,0.407l0.688,0l0,2.64c-0.016,0.656 0.203,0.875 0.828,0.875c0.141,0 0.281,-0.015 0.422,-0.015l0,-0.407c-0.125,0.016 -0.266,0.016 -0.406,0.016c-0.328,-0.016 -0.375,-0.203 -0.375,-0.5l0,-2.609l0.781,0l0,-0.407l-0.781,0l0,-1.156Z" style="fill:#211e1e;fill-rule:nonzero;"/><rect x="101.93" y="144.761" width="0.625" height="0.797" style="fill:#211e1e;"/><rect x="103.734" y="140.199" width="0.484" height="5.359" style="fill:#211e1e;"/><path d="M108.246,141.683l-0.469,0l0,2.032c0,0.796 -0.343,1.562 -1.156,1.562c-0.75,0 -1.016,-0.375 -1.031,-1.062l0,-2.532l-0.485,0l0,2.516c0,0.906 0.375,1.469 1.36,1.469c0.578,0 1.094,-0.297 1.344,-0.813l0.015,0l0,0.703l0.422,0l0,-3.875Z" style="fill:#211e1e;fill-rule:nonzero;"/><path d="M114.5,143.199c-0.172,0.266 -0.359,0.516 -0.672,0.516c-0.187,0 -0.437,-0.125 -0.734,-0.25c-0.266,-0.125 -0.578,-0.235 -0.86,-0.235c-0.5,0 -0.781,0.313 -0.937,0.641l0.265,0.265c0.126,-0.265 0.313,-0.515 0.641,-0.515c0.281,0 0.531,0.125 0.797,0.25c0.266,0.125 0.531,0.234 0.828,0.234c0.469,0 0.719,-0.312 0.938,-0.64l-0.266,-0.266Z" style="fill:#211e1e;fill-rule:nonzero;"/><path d="M120.602,142.824c-0.032,-0.844 -0.625,-1.25 -1.407,-1.25c-0.687,0 -1.453,0.297 -1.453,1.094c0,0.64 0.453,0.875 1.078,1.031l0.61,0.141c0.422,0.093 0.843,0.25 0.843,0.703c0,0.531 -0.609,0.734 -1.062,0.734c-0.625,0 -1.094,-0.328 -1.141,-0.969l-0.468,0c0.078,0.953 0.687,1.36 1.593,1.36c0.719,0 1.547,-0.313 1.547,-1.157c0,-0.671 -0.562,-1 -1.109,-1.078l-0.625,-0.14c-0.328,-0.078 -0.797,-0.235 -0.797,-0.657c0,-0.5 0.484,-0.656 0.906,-0.656c0.547,0 1,0.25 1.016,0.844l0.469,0Z" style="fill:#211e1e;fill-rule:nonzero;"/><path d="M124.629,142.902c-0.109,-0.891 -0.734,-1.328 -1.578,-1.328c-1.172,0 -1.828,0.937 -1.828,2.047c0,1.109 0.656,2.047 1.828,2.047c0.875,0 1.484,-0.563 1.609,-1.5l-0.484,0c-0.047,0.64 -0.547,1.109 -1.125,1.109c-0.891,0 -1.344,-0.844 -1.344,-1.656c0,-0.813 0.453,-1.641 1.344,-1.641c0.625,0 0.969,0.344 1.109,0.922l0.469,0Z" style="fill:#211e1e;fill-rule:nonzero;"/><path d="M125.305,145.558l0.484,0l0,-2.25c0.016,-0.765 0.453,-1.328 1.203,-1.328c0.766,0 0.985,0.5 0.985,1.156l0,2.422l0.468,0l0,-2.484c0,-0.922 -0.328,-1.5 -1.406,-1.5c-0.547,0 -1.062,0.312 -1.234,0.781l-0.016,0l0,-2.156l-0.484,0l0,5.359Z" style="fill:#211e1e;fill-rule:nonzero;"/><path d="M129.348,145.558l0.468,0l0,-2.156c0,-0.812 0.344,-1.422 1.157,-1.422c0.609,0 0.812,0.422 0.812,0.953l0,2.625l0.469,0l0,-2.187c0,-0.719 0.234,-1.391 1.047,-1.391c0.687,0 0.922,0.344 0.922,0.969l0,2.609l0.468,0l0,-2.625c0,-0.906 -0.421,-1.359 -1.281,-1.359c-0.515,0 -1,0.25 -1.234,0.766c-0.141,-0.516 -0.594,-0.766 -1.11,-0.766c-0.625,0 -1.015,0.297 -1.265,0.766l-0.016,0l0,-0.657l-0.437,0l0,3.875Z" style="fill:#211e1e;fill-rule:nonzero;"/><path d="M135.594,140.965l0.484,0l0,-0.766l-0.484,0l0,0.766Zm0,4.593l0.484,0l0,-3.875l-0.484,0l0,3.875Z" style="fill:#211e1e;fill-rule:nonzero;"/><path d="M137.73,140.527l-0.468,0l0,1.156l-0.688,0l0,0.407l0.688,0l0,2.64c-0.016,0.656 0.203,0.875 0.828,0.875c0.14,0 0.281,-0.015 0.422,-0.015l0,-0.407c-0.125,0.016 -0.266,0.016 -0.407,0.016c-0.328,-0.016 -0.375,-0.203 -0.375,-0.5l0,-2.609l0.782,0l0,-0.407l-0.782,0l0,-1.156Z" style="fill:#211e1e;fill-rule:nonzero;"/><rect x="139.203" y="143.277" width="1.875" height="0.438" style="fill:#211e1e;"/><path d="M143.461,141.683l-0.766,0l0,-0.328c0,-0.422 0,-0.75 0.516,-0.75c0.125,0 0.219,0.016 0.359,0.031l0,-0.406c-0.156,-0.015 -0.265,-0.031 -0.406,-0.031c-0.766,0 -0.937,0.469 -0.937,1.141l0,0.343l-0.657,0l0,0.407l0.657,0l0,3.468l0.468,0l0,-3.468l0.766,0l0,-0.407Z" style="fill:#211e1e;fill-rule:nonzero;"/><path d="M145.543,141.98c0.906,0 1.359,0.828 1.359,1.641c0,0.812 -0.453,1.656 -1.359,1.656c-0.891,0 -1.344,-0.844 -1.344,-1.656c0,-0.813 0.453,-1.641 1.344,-1.641Zm0,-0.406c-1.172,0 -1.828,0.937 -1.828,2.047c0,1.109 0.656,2.047 1.828,2.047c1.187,0 1.844,-0.938 1.844,-2.047c0,-1.11 -0.657,-2.047 -1.844,-2.047Z" style="fill:#211e1e;fill-rule:nonzero;"/><path d="M148.074,145.558l0.485,0l0,-2.25c0.015,-0.765 0.453,-1.328 1.203,-1.328c0.765,0 0.984,0.5 0.984,1.156l0,2.422l0.469,0l0,-2.484c0,-0.922 -0.328,-1.5 -1.406,-1.5c-0.547,0 -1.063,0.312 -1.235,0.781l-0.015,0l0,-2.156l-0.485,0l0,5.359Z" style="fill:#211e1e;fill-rule:nonzero;"/><rect x="152.117" y="140.199" width="0.484" height="5.359" style="fill:#211e1e;"/><rect x="153.785" y="144.761" width="0.625" height="0.797" style="fill:#211e1e;"/><rect x="155.59" y="140.199" width="0.484" height="5.359" style="fill:#211e1e;"/><path d="M160.102,141.683l-0.469,0l0,2.032c0,0.796 -0.344,1.562 -1.156,1.562c-0.75,0 -1.016,-0.375 -1.032,-1.062l0,-2.532l-0.484,0l0,2.516c0,0.906 0.375,1.469 1.359,1.469c0.578,0 1.094,-0.297 1.344,-0.813l0.016,0l0,0.703l0.422,0l0,-3.875Z" style="fill:#211e1e;fill-rule:nonzero;"/></svg>