<svg viewBox="0 0 241 156" xmlns="http://www.w3.org/2000/svg" xml:space="preserve" style="fill-rule:evenodd;clip-rule:evenodd;stroke-miterlimit:10"><path d="M135.355 38.004c.954-.133 2.93.785 3.852 1.093 4.555 1.52 8.922 3.457 13.535 4.84 0-.234-3.414-1.582-3.949-1.773-3.094-1.11-6.133-2.352-9.27-3.395-1.136-.379-2.246-.937-3.449-1.133v-.101h.102c0-.188.449-.402.613-.496 1.359-.781 4.117-1.965 5.766-.996.73.425.586 1.246.937 1.898 0 .188.543.059.684.02 1.941-.551 2.543-1.867 4.703-.325v.102h.101c0-.277-.406-.551-.582-.742-1.445-1.539-3.277-.11-4.703.336-.05-.172-.109-.348-.164-.52-.332-1.203-1.031-1.941-2.379-2.004-.332-.015-.738-.039-1.015.086-1.93 0-3.121 1.516-4.676 2.235v.101c-.031-.008-.063-.012-.098-.019l.258-1.211c.188-1.25.223-2.957-.543-3.891-1.754-2.125-5.918 1.281-7.035 2.887-1.465 0-.879-3.828-1.992-4.711-1.461-1.16-4.528 1.488-5.125 2.777h-.301v-.101h-.102c.086-.313.168-.625.254-.942.11-.566.219-1.14.325-1.707.285-2.984-.727-6.836-3.54-7.898-.851-.32-1.656-.324-2.632-.43-.496.164-1.032.238-1.485.477-2.058 1.054-2.902 3.695-3.254 5.832-.129.781-.082 1.707-.343 2.429 0-.183-.344-.125-.496-.152-.606-.113-4.993-1.027-5.223-.793-.012.07.051.125.113.152 1.102.477 5.145.668 5.711 1.407-2.547 0-5.23 3.105-6.148 5.207-.18.437-.364.867-.543 1.304-.141.438-.282.875-.426 1.313v.203h-.102c0-.164-.464-.156-.617-.187-.64-.137-6.172-1.235-6.476-.926l.031.031c1.445.309 3.023.621 4.519.863.711.11 1.704.102 2.297.489.422.273-.285 3.144 1.059 4.101 0 .168.058.102.203.102v-.102h.102v-.203c-.164 0-.2-.207-.266-.332-.559-1.035-.527-2.168-.445-3.426.726 0 4.589.653 4.953 1.039.355.383.414 1.004.578 1.481.43 1.258.762 2.761 1.48 3.883 0 .207.559.023.7-.028.871-.336 1.109-1.789 1.742-2.515 0-.153.058-.102.203-.102 0 .828.195 4.781 1.351 4.32.231-.09.297-.347.313-.566-.043-.336-.082-.676-.125-1.012-.07-.91-.195-3.16.187-3.859v-.102c.133 0 .102-.035.102.102.164 0 .187.094.234.226.375 1.18.141 2.696.786 3.739 0 .179.261.074.39.047.684-.141.848-.856.93-1.469h-.102v-.102h-.101v.102h-.102v.101c-.773 0-.879-1.847-.918-2.441.715 0 2.676.5 3.254.812.152 0 .137.086.16.211.207 1.227-.199 4.926 1.074 5.215.344.078.633.035.899-.156.844-.625-.219-1.484-.332-2.133-.16-.937.281-1.922 1.25-1.984.32-.02.617.023.84.246.394.394.113 1.234.082 1.754-.078 1.254-.403 5.429.199 6.336.113.168.391.246.594.246.347 0 .722-.199.73-.582.008-.465-.449-.711-.621-1.082a64.443 64.443 0 0 0-.203-.957c-.211-1.457.059-3 .105-4.469h.102c.094.41.184.816.277 1.223.243 1.125.364 3.023 1.86 1.621v-.102h.101c0 .637.086 2.848.328 3.274.129.222.442.289.692.308.289.02.613-.066.828-.226.574-.454.457-1.895.215-2.516-.184-.262-.371-.523-.555-.781-.391-.903-.074-2.051 1.031-2.051 2.403 0-.601 5.453 2.848 4.129 0-.137-.035-.106.102-.106 0 .274.343.704.496.922 1.515 2.121 4.316-2.133 6.695-1.551 1.496.364 1.879 2.114 2.277 3.372l.492 1.628h.102c-.094-.472-.184-.949-.277-1.425-.274-1.364-.699-2.403-1.352-3.551h-.097v-.102c.781 0 2.312.684 3.062.969 1.625.594 3.242 1.184 4.863 1.774h.102c0-.227-3.32-1.555-3.86-1.747-2.406-.902-4.816-1.808-7.23-2.71-1.156-.395-2.313-.797-3.473-1.196-.726-.269-1.457-.535-2.183-.808-1.332-.704.582-3.571-1.446-3.704v.102c-.14 0-.105-.035-.105.102.172 0 .082.097.055.218-.118.547.152 2.676-.461 2.657-.61-.02-1.789-.336-2.11-.856-.609-.988.145-2.387-1.347-2.73.113-.246.222-.493.328-.739.062-.699.121-1.406.183-2.109h.204c0 .137-.036.102.101.102 0 .168.012.3-.101.406 0 .191.238.39.324.555.254.496.523 1.593 1.355 1.343.52-.16.981-2.879.656-3.32 0 .164-.117.289-.203.406 0 .356-.203-2.051-.203-2.844h-.101c0-.183-.348-.101-.508-.101v-.106h.101c0-.144.079-.125.211-.132.723-.063 2.918.601 3.145 1.254h.101c.036-.133.067-.27.102-.407.219 0 .43.176.633.242.914.313 2.121.477 2.82 1.18 0 .18.262.082.402.063m-4.058 9.289c.976.058 1.801.383 2.66.656 1.316.426 2.629.852 3.945 1.273v.102c-1.761 0-2.902 2.164-4.476 2.527-.324.071-.653-.125-.852-.343-.379-.414-.523-1.047-.683-1.567-.203-.637-.918-2.031-.594-2.648m-4.067-1.016c0-.203.36-.226.508-.305h.203c0 .192-.371.289-.507.407a10.903 10.903 0 0 1-.305-.102h.101Zm-6.199-12.492v-.113c.047.023.059.05 0 .113m-11.933 5.898c-.231-.672-.5-1.058-1.282-.726.071.48.137.949.204 1.422h-.102c0-.176-.266-.118-.402-.129-.75-.153-1.5-.301-2.25-.449-.645-.122-1.356-.153-1.922-.438h-.102c.223-.613.442-1.234.664-1.852a10.431 10.431 0 0 1 4.207-4.964l1.328-.602c.207.043.426.055.543.242.219.348.204.957.286 1.379.125.66.308 1.293.546 1.914.219.563.45 1.121.782 1.633.257.395.632.875.714 1.348.161.929-.351 1.769-.429 2.633-.856 0-1.789-.336-2.543-.61-.078-.269-.16-.535-.242-.801m2.277-7.23c0 .601-.078 1.23 0 1.828.102-.031.203-.066.301-.102v.102c.16 0 .105.063.113.203.059 1 .356 1.938.602 2.848h-.102l-.758-1.25c-.566-1.235-1.027-2.563-1.074-4.035.391.074.594.211.918.406m-.813-1.219c.235.035.473.067.711.102v.203a1.12 1.12 0 0 1-.711-.305m.2 12.91h-.098v-.105c-.226 0-1-2.281-1.223-2.641 0-.168.18-.16.305-.203l1.731.305h.199c-.301.883-.606 1.761-.914 2.644m.613.098c-.129 0-.121-.004-.098-.117.149-.864.578-1.598.809-2.422 1.109.488-.481 1.883-.711 2.539m1.016-2.945c0-.137.031-.102-.102-.102v-.101c.133 0 .102.031.102-.102.035.102.066.203.101.305h-.101Zm.304-10.164c-.183 0-.113-.161-.129-.305-.128-1.168.032-1.613-1.293-1.527v1.625a34.784 34.784 0 0 1-.816-.098v-.106h-.098c0-2.632.614-5.609 2.688-7.164.473-.355.98-.484 1.476-.761 1.301 0 2.415.015 3.426.562 2.641 1.422 3.34 5.078 2.696 7.977-.122.519-.184 1.062-.43 1.523v.102l-.922-.282c-1.02-.257-2.215-.371-3.141-.835-.277 0-.07-1.071-.101-1.321-1.098 0-.61.641-1.153 1.028-.293.203-1.953-.274-2.203-.418m6.797 5.296c.313-.613.621-1.23.93-1.843.109.785-.332 1.867-.61 2.543v.203h-.203c0-.297-.16-.594-.117-.903m-.09-1.128h-.101v.101h-.102c0-.75-.304-1.434-.304-2.238.433.027.761.035 1.117.203h.101c-.234.644-.472 1.289-.711 1.934m1.02-1.833v.305c-.192 0-.047-.191 0-.305m-2.746-.71v.203c-.098 0-.926 1.773-1.121 2.035v.098h-.2c0-.864-.464-1.602-.304-2.54.48.012 1.011.032 1.422.204h.203Zm-3.461 9.753c-.039.762-.125 1.676-.403 2.344v.203h-.101v-.101c-.168 0-.207-1.824-.121-2.113.109-.176.215-.352.324-.532l.406.102c-.14 0-.101-.043-.105.097m.41-.91c.137 0 .102.032.102-.101.07.101.136.203.203.304-.164 0-.219-.089-.305-.203m4.551.504c-.008.176-.004.563-.168.649-.395.195-3.078-.602-3.227-.922-.465-1.004 1.121-1.317 1.692-1.551 1.195.195 1.742.461 1.703 1.824m4.801-.504c0-.238-.446-.136-.61-.101 0 .773-.078 1.566-.101 2.336-.137 0-.102-.035-.102.101-.172-.054-.344-.117-.516-.176-.613-.152-1.492-.148-1.925-.636-.219 0-.164-.364-.098-.508 0 .101.027.07.098 0 .187 0 .105-1.18.105-1.422-.39 0-.305 1.008-.305 1.32-.449 0 .461-3.214-1.425-2.539 0 .102-.032.071-.102 0-.351 0-.641-.258-1.019-.281-.875-.059-1.481.231-2.235.383v.098h-.097c0-.348-.067-.637-.204-.915 0-.179-.351-.101-.511-.101v.101c-.149 0-.153 1.114-.102 1.325 0 .136-.93.683-1.117.914h-.305v-.102c-.172 0-.105-.062-.105-.203-.012-.762-.008-1.488-.008-2.238 0-.375-.07-.77.012-1.117 1.09 0 .808-1.266.66-1.942-.078-.43-.16-.855-.238-1.281-.075-.199-.274-.289-.387-.441-.094-.274-.184-.551-.278-.829-.113-.468-.082-.996-.062-1.503.621.019 1.328.035 1.828.304.156 0 .129.063.156.211.266 1.442.047 2.934.047 4.465 0 .484-.015.992.102 1.422.652 0 .937-.305 1.281-.766.168-.234.434-.336.566-.601.18-.375.157-.825.227-1.27l.469-1.633h.101c0 1.032.688 4.282 1.844 4.36.824.05.856-1.68.902-2.325h.102c0 1.571.391 2.957 1.117 4.165 0 .187.34.058.473.011.726-.261.308-1.113.453-1.707.031-.078.062-.156.09-.234h.101v-.102h.102c0 .895.777.895 1.07 1.45.485.906.141 2.863 1.676 2.617v.203h.098c-.184.449-.024 2.121-.422 2.168-.227.019-.5-.098-.688-.164-1.207-.438-.347-1.793-.718-2.817m.711-4.371c.222.375.777 1.215.847 1.637.121.68-.094 1.449-.133 2.125h-.207c-.093-.441-.187-.883-.285-1.324l-.222-2.438m1.207 10.668c-.196.309-.395.613-.598.918-.402 0-1.067-3.133-.813-3.656.375.043.918.066 1.172.34.239.269.414 1.972.239 2.398m-.188-9.347h-.102l-.585-1.333c-.075-.535-.153-1.074-.231-1.613h.106c0 .141.093.149.199.199v.106h.101a1.8 1.8 0 0 0-.203-.816v-.098c-.238 0-.301.316-.304.508-1.086 0-.708 1.742-.915 2.437v.203h-.101c-.059-.34-.125-.679-.184-1.019-.136-.946-.3-2.047-.121-2.946.547.153 1.317.239 1.778.579.363.269.71 2.039.695 2.57-.047.41-.09.816-.133 1.223m.711-4.27c.102 0 .07.031 0 .102v.101h-.102c0-.629-.324-1.019-.914-1.117v.101c-.168 0-.172.461-.207.61h.102c0 .137.035.101-.102.101v.102c-.332 0-1.597-.461-1.754-.75-.234-.422-.129-1.137-.683-1.281-.133.035-.27.066-.406.101-.215 0-.047.746 0 .914-.27-.031-.543-.066-.813-.101v.101c-.215 0 .066-.3.129-.382.586-.786 1.461-1.543 2.316-1.934.305-.109.606-.219.911-.324 1.757.222 2.093 2.199 1.523 3.656m5.617 1.863c-.144-.281-.055-.609-.078-.945-.031-.324-.129-.551-.254-.816h-.305c-.101.546-.203 1.085-.308 1.628 0-.148.015-.101-.098-.113-.762-.113-1.672-.367-2.34-.699h-.101v-.105c.14 0 1.097-1.032 1.332-1.208.379-.253.758-.511 1.14-.769.633-.383 1.313-.582 2-.867.59 0 1.223-.004 1.676.285 1.149.734.899 3.59.254 4.594v.101c-.359 0-2.801-.859-2.918-1.086" style="fill:#211e1e;fill-rule:nonzero"/><path d="M129.16 37.433c0 .793.07 2.403 1.262 1.903.726-.313-.387-1.926-.957-2.106a10.75 10.75 0 0 1-.305.203M149.082 38.043v.406c.184 0 .047-.281 0-.406M132.008 39.16v.101c.226 0 .14-.457.101-.609-.031.172-.066.34-.101.508M132.211 39.363v-.102c.012.102-.102.102 0 .102M131.297 39.363v.102c-.145 0 .055.082.101.101 0-.117-.035-.137-.101-.203M131.195 39.976c.094.114.098.024.203 0h-.203ZM132.414 40.484c0-.129-.023-.133-.102-.207v.106c-.144 0 .059.078.102.101M131.195 40.687c.145 0 .145-.086.203-.203h-.203v.203ZM138.305 62.945c-.746-.289-1.668-.488-2.301-.965-.305-.23-.402-.722-.606-1.027A4.734 4.734 0 0 0 134 59.644c-.984-.593-2.266-.73-3.434-.398-.433.125-.867.246-1.304.367-.719 0-2.637-.805-3.324-1.105-.344-.149-.477-.36-.516-.75-.141-1.215-.086-2.715-1.266-3.305-.379-.09-.758-.18-1.133-.266-.476-.238-.461-.867-.765-1.222-.356-.422-.887-.407-1.227-.793h-.308c0 .175-.274.351-.352.531-.066.265-.137.531-.203.797-.039.351.144.59.168.844.07.73.18 1.449-.121 2.097v.203h-.102v-.101c-.183 0-.101-.629-.101-.813-.242 0-.082.528-.426.578-.652.094-2.125-.629-2.723-.882 0-1.09.879-2.157-.511-2.747v.102h-.301c0 .75-.102 1.441-.102 2.238h-.105v-.105c-.344-.141-.692-.289-1.039-.434-.5-.023-1-.047-1.5-.074v-.098h-.102c0-.578.84-2.5.539-2.902-.148-.195-.406-.223-.64-.25-.079.266-.161.535-.243.801l-.468 2.144c-.137 0-.102-.031-.102.102-1.148 0-.91-1.735-1.25-2.426-.269-.531-.687-.785-1.191-1.027.07-.242.14-.489.211-.731.105-.75-.485-.945-1.125-.793 0 .489.031 1.231-.25 1.606-.344.199-.688.398-1.032.594-.351.25-.703.496-1.054.746.011-.235.019-.473.031-.707.211-1.637.289-5.079-.59-6.282-1.484-2.035-4.203 2.114-4.828 3.125h-.309c0-2.453.625-6.504-2.539-6.605-.968.5-1.875.914-2.59 1.875-1.144 1.519-1.765 3.258-2.386 5.035-.051.137-.09.324-.25.375-.606.168-1.817-.324-2.407-.445-2.496-.516-4.929-1.024-7.429-1.614-.508-.121-1.383-.425-1.914-.246h-.203c0 .145.929.36 1.121.403 2.097.468 4.187.933 6.281 1.398.754.176 1.504.348 2.258.52.801.203 1.574.441 2.437.527.035.406.067.813.102 1.219h.203v-.102c.176 0 .144-.637.102-.816v-.098c.566 0 4.691 1.035 4.933 1.34.234.297.231.891.246 1.301.02.633.102 1.211-.023 1.824-.145.66-.946 1.848-.774 2.516.082.312.434.398.719.468.895.211 3.25.844 3.273-.644.008-.578-.441-.91-.691-1.356-.527-.922-.402-1.808.301-2.281-.02-.008-.039-.012-.055-.019.031 0 .059-.004.094-.008.195-.125.437-.223.723-.278.691-.14 1.519-.121 2.128.184.18 0 .04.352.028.508-.016.746-.028 1.492-.039 2.234-.047.957-.449 2.133.011 3.051 0 .176.426.109.606.125.355.027.852-.152.98-.492.168-.457-.195-.883-.203-1.363.078-.54.16-1.083.239-1.626.211-1.195.519-2.257 2.023-1.593.906.402-.5 6.219.668 7.242.191.168.48.258.762.207 1.297-.242.261-1.754.543-2.555.179-.199.351-.398.531-.597.324-.559.644-1.121.969-1.684h.101v-.102h.102c0 .809-1.442 6.075.394 5.825.321-.047.614-.325.653-.653.078-.636-.399-.894-.492-1.422-.157-.843-.032-1.875.124-2.644.379-1.906.829-2.309 2.79-1.524.199.079.464.184.558.391.156.344.039.848.039 1.246.031.711.059 1.422.09 2.137.031.937-.207 2.301.215 3.047v.101c1.051 0 1.191-1.179 1.219-2.031h-.102c0-.187-.269-.035-.406 0v-.101c-.137 0-.102.031-.102-.102v-3.051h.102c0 .324.297.692.469.942.878 1.3 1.871.832 2.578-.332h.101v-.102h.102c0 1.203.277 2.07.371 3.156.121 1.496-.477 2.856 1.141 3.285a3 3 0 0 0 1.523.008c.395-.105.738-.39.941-.754.973-1.765-2.902-3.156.903-4.168 0 .68-.184 3.278.433 3.43 1.094.27 2.864-2.363 4.746-2.09.704.102 1.399.403 2.063.633 1.23.422 2.445.953 3.66 1.387 2.156.765 4.246 1.515 6.352 2.386 1.164.458 2.324.911 3.484 1.368 0-.137-.035-.102.102-.102.035-.101.066-.203.101-.305l-1.961-.867c-1.922-.758-3.847-1.523-5.769-2.285M100.293 46.48c0-.316-.836-.5-1.117-.406-.352 0-.637.082-.914.203 0 .668.195 1.227.281 1.832.078.813.152 1.625.227 2.438h-.102c0-.133.027-.098-.098-.125l-3.164-.762c-.504-.121-1.086-.188-1.515-.434h-.102c0-.824.473-1.754.813-2.441 1.011-2.067 1.644-3.234 3.761-4.371.485.027.828.062 1.172.359.602.512 1.379 2.942.758 3.707m4.574.813c0 .703-.015 4.203-.359 4.476-.223.172-.848-.078-1.059-.133-.547-.136-1.261-.257-1.668-.652-1.074-1.039 1.434-4.285 2.235-5.055.25-.156.5-.312.75-.464 1.07.175 1.117 1.238 1.32 2.132h-.098c0-.406-.824-.328-1.121-.304m.746 6.125c-.008-.024-.011-.051-.019-.078-.008-.004-.008-.008-.016-.012-.008-.039.004-.039.004-.039l.012.051c.039.027.054.043.019.078m.067-1.145c.105-1.422.203-2.844.308-4.269.379.675.321 3.836-.308 4.269m2.949.813h-.102c0-.082-.949-.317-1.117-.407h-.101v-.101c.14 0 .953-.707 1.218-.813v-.101c.278.379.145.961.102 1.422m1.219-1.524c.238.141.461.219.632.469.5.73.481 2.07-.734 1.258h-.101c.07-.574.136-1.153.203-1.727m.203 6.203h-.203c-.118-.312-.235-.629-.352-.945l.039-1.195c-.027-.504-.062-1.012-.094-1.524.477.071.95.137 1.426.207 0 1.227-.527 2.36-.816 3.457m1.547-2.32c-.149.137-.301.27-.453.402-.243-.242.07-1.054.128-1.336.852.133.926.329.325.934m7.816 2.531c-1.019 1.469-1.976-.687-2.144-1.535.937.059 1.699.383 2.539.61 0 .359-.211.656-.395.925m1.309-5.398c0-.137.019-.121.105-.203h.098c0 .148-.082.148-.203.203m4.066 5.59c0-.219-2.668-.516-1.809-2.332.141-.301.332-.492.59-.715.965.515 1.578 1.844 1.219 3.047m3.762 2.031c-.516 0-1.899 1.598-2.379 1.984-.188.121-.375.239-.57.356h-.102v-.102c-.168 0-.102-.062-.102-.203.004-.945.004-1.894.004-2.844 1.121.032 2.102.411 3.149.61v.199Zm6.812 1.629c-.304-.106-.609-.211-.914-.32-1.039-.348-2.363-.668-3.254-1.309.102-.027.203-.063.305-.098 1.148 0 2.254.114 3.059.801l.804.824v.102ZM122.961 43.633h.101a96.936 96.936 0 0 0-.101-1.016v1.016ZM157.113 42.922c.098.113.098.027.203 0h-.203ZM133.328 44.14v-.097h.102v-.207h-.305c-.031.074-.066.136-.102.207.133 0 .102-.039.102.097h.203ZM154.062 44.445v-.098l-1.218-.41a4.63 4.63 0 0 0 1.218.508M154.469 44.547c0-.168-.063-.098-.199-.098.097.066.199.133.304.203 0-.141.031-.105-.105-.105M118.082 44.75c.035.203.066.41.102.613h.101c0-.242-.094-.426-.203-.613" style="fill:#211e1e;fill-rule:nonzero"/><path d="M97.348 45.359c.035.152.07.301.109.445.102.122.199.243.305.364.031.039.062.074.093.109v-.101h.102c0-.383-.301-.688-.609-.817M97.348 47.191h.101v-.101h.102c-.067-.235-.137-.473-.203-.711-.039.25-.028.554 0 .812M101.922 52.984c0-.133-.102-.121-.211-.109-.016.008-.027.019-.039.027.082.027.164.055.25.082M120.113 54.406c-.031.375-.066.75-.101 1.121h.101c0-.387.125-.746 0-1.121M128.145 56.644l.304.305v-.305h-.304ZM115.031 58.066v.305c.172 0 .133-.258 0-.305M119.707 58.676c-.031.136-.066.273-.102.406.18 0 .118-.27.102-.406M99.988 58.98v-.097l-.508-.106c.172.07.34.137.508.203M119.605 60.203h.102c-.031-.336-.066-.68-.102-1.02v1.02ZM120.012 60h-.203c.097.113.097.023.203 0M119.707 61.523c-.172 0 .043-.976-.102-1.219-.113.45-.167 1.141-.101 1.625v.102h.101v.102h.102c.035-.27.066-.543.105-.813-.171 0-.105.063-.105.203M146.34 63.863v.102c-.145 0 .058.078.101.097 0-.125-.023-.129-.101-.199M121.234 65.59h.102v.101h.102c-.067-.406-.137-.812-.204-1.219v1.118ZM87.109 72.176h-.5l-1.687 2.078-1.688-2.078h-.5v4.75h.516v-3.953l1.641 2.015h.062l1.641-2.015v3.953h.515v-4.75ZM93.07 76.379c-.187.156-.328.219-.39.219-.078 0-.094-.032-.094-.172v-1.703c0-.36-.156-.985-1.063-.985-.5 0-.859.25-1.015.375v.5c.281-.25.562-.453.984-.453.578 0 .61.406.61.61v.281c-1.297.219-1.704.64-1.704 1.14 0 .469.36.797.797.797.282 0 .532-.062.922-.359.031.156.078.359.344.359.078 0 .219 0 .609-.281v-.328Zm-.968-.078c-.11.109-.36.344-.704.344-.171 0-.515-.11-.515-.485 0-.39.422-.656 1.219-.797v.938ZM96.52 73.801h-.485v3.125h.485v-3.125Zm-.235-1.281a.303.303 0 0 0-.312.312c0 .172.125.313.312.313a.313.313 0 0 0 0-.625ZM101.621 74.004a1.658 1.658 0 0 0-.891-.266c-.687 0-1 .453-1 .844 0 .516.438.734.829.922.406.203.687.344.687.641 0 .265-.281.421-.531.421-.156 0-.485-.046-1-.359v.5c.328.172.625.281 1 .281.781 0 1.031-.562 1.031-.875 0-.484-.406-.718-.578-.797-.734-.39-.953-.5-.953-.75 0-.218.203-.406.531-.406.297 0 .578.125.875.313v-.469ZM106.367 73.738c-.906 0-1.625.719-1.625 1.625 0 .891.719 1.625 1.625 1.625.891 0 1.625-.734 1.625-1.625 0-.906-.734-1.625-1.625-1.625Zm0 .422c.656 0 1.125.531 1.125 1.203 0 .657-.469 1.203-1.125 1.203s-1.14-.546-1.14-1.203c0-.672.484-1.203 1.14-1.203ZM111.176 73.801v3.125h.484v-2.219c.281-.484.688-.547.875-.547.547 0 .75.406.75.938v1.828h.469v-1.875c0-.797-.406-1.313-1.109-1.313-.454 0-.766.219-.985.532v-.469h-.484ZM124.93 72.176h-.516l-1.547 3.672-1.562-3.672h-.532l2.032 4.797h.125l2-4.797ZM128.312 73.801h-.484v3.125h.484v-3.125Zm-.234-1.281a.303.303 0 0 0-.312.312c0 .172.125.313.312.313a.313.313 0 0 0 0-.625ZM131.254 74.223h.547v1.828c0 .5.219.937.844.937.343 0 .609-.125.734-.187v-.453c-.234.125-.391.187-.641.187-.437 0-.453-.265-.453-.672v-1.64h.938v-.422h-.938v-.735l-1.031 1.079v.078ZM136.742 73.801h-.484v3.125h.484v-3.125Zm-.234-1.281a.303.303 0 0 0-.313.312c0 .172.125.313.313.313a.313.313 0 0 0 0-.625ZM142.309 73.926a2.006 2.006 0 0 0-.86-.188c-.859 0-1.531.625-1.531 1.641 0 .906.547 1.609 1.578 1.609.406 0 .734-.125.875-.172v-.468a2.09 2.09 0 0 1-.828.187c-.844 0-1.141-.64-1.141-1.156 0-.406.219-1.203 1.047-1.203.406 0 .688.156.86.265v-.515ZM146.867 73.738c-.906 0-1.625.719-1.625 1.625 0 .891.719 1.625 1.625 1.625.891 0 1.625-.734 1.625-1.625 0-.906-.734-1.625-1.625-1.625Zm0 .422c.656 0 1.125.531 1.125 1.203 0 .657-.469 1.203-1.125 1.203s-1.14-.546-1.14-1.203c0-.672.484-1.203 1.14-1.203Z" style="fill:#211e1e;fill-rule:nonzero"/><path style="fill:#211e1e" d="M151.676 72.176h.484v4.75h-.484z"/><path d="M158.148 75.285c0-.922-.609-1.547-1.375-1.547-.718 0-1.437.532-1.437 1.61 0 .843.516 1.64 1.562 1.64.657 0 1-.25 1.204-.375v-.484c-.157.125-.547.437-1.157.437-.593 0-1.125-.421-1.125-1.171h2.328v-.11Zm-2.296-.234c.125-.641.546-.891.921-.891.344 0 .813.203.875.891h-1.796ZM95.121 107.48h-.344l-2.109 4.781h.547l.672-1.531h2.172l.687 1.531h.547l-2.172-4.781Zm.719 2.797h-1.75l.859-1.969.891 1.969ZM99.695 107.511v4.75h.485v-2.218c.281-.485.687-.547.875-.547.547 0 .75.406.75.937v1.828h.468v-1.875c0-.796-.406-1.312-1.109-1.312-.453 0-.766.219-.984.531v-2.094h-.485ZM105.059 109.136v3.125h.484v-2.218c.281-.485.687-.547.875-.547.547 0 .75.406.75.937v1.828h.469v-1.875c0-.796-.407-1.312-1.11-1.312-.453 0-.765.219-.984.531v-.469h-.484ZM112.816 107.449l-2.453 4.875h.469l2.438-4.875h-.454ZM120.543 107.511h-.5l-1.688 2.079-1.687-2.079h-.5v4.75h.516v-3.953l1.64 2.016h.063l1.64-2.016v3.953h.516v-4.75ZM124.965 109.074c-.906 0-1.625.719-1.625 1.625 0 .891.719 1.625 1.625 1.625.89 0 1.625-.734 1.625-1.625 0-.906-.735-1.625-1.625-1.625Zm0 .422c.656 0 1.125.531 1.125 1.203 0 .656-.469 1.203-1.125 1.203s-1.141-.547-1.141-1.203c0-.672.485-1.203 1.141-1.203ZM131.043 109.34a1.658 1.658 0 0 0-.891-.266c-.687 0-1 .453-1 .844 0 .515.438.734.828.922.407.203.688.343.688.64 0 .266-.281.422-.531.422-.157 0-.485-.047-1-.359v.5c.328.172.625.281 1 .281.781 0 1.031-.563 1.031-.875 0-.484-.406-.719-.578-.797-.735-.391-.953-.5-.953-.75 0-.219.203-.406.531-.406.297 0 .578.125.875.312v-.468ZM136.484 110.621c0-.922-.609-1.547-1.375-1.547-.718 0-1.437.531-1.437 1.609 0 .844.516 1.641 1.562 1.641.657 0 1-.25 1.204-.375v-.484c-.157.125-.547.437-1.157.437-.593 0-1.125-.422-1.125-1.172h2.328v-.109Zm-2.296-.235c.124-.64.546-.89.921-.89.344 0 .813.203.875.89h-1.796Z" style="fill:#211e1e;fill-rule:nonzero"/><path style="fill:#211e1e" d="M139.113 107.511h.484v4.75h-.484zM142.438 107.511h.484v4.75h-.484z"/><path d="M148.418 110.621c0-.922-.609-1.547-1.375-1.547-.719 0-1.438.531-1.438 1.609 0 .844.516 1.641 1.563 1.641.656 0 1-.25 1.203-.375v-.484a1.797 1.797 0 0 1-1.156.437c-.594 0-1.125-.422-1.125-1.172h2.328v-.109Zm-2.297-.235c.125-.64.547-.89.922-.89.344 0 .812.203.875.89h-1.797ZM61.883 100.058c.937 0 1.875-.203 2.625-.734 1.203-.859 1.484-2.172 1.484-2.891 0-1.39-.5-2.468-2.547-4.093l-.484-.391c-1.672-1.297-2.125-1.922-2.125-2.922 0-1.266.937-2.016 2.141-2.016 1.593 0 2.062.735 2.171.922.11.188.219.657.235.875.015.141.031.219.14.219.079 0 .11-.125.11-.391 0-1.187.078-1.765.078-1.859 0-.078-.031-.109-.172-.109s-.281-.032-.609-.094c-.438-.109-.953-.172-1.625-.172-2.219 0-3.61 1.266-3.61 3.125 0 1.188.422 2.266 2.266 3.781l.781.657c1.5 1.234 2 1.921 2 3.125 0 1.125-.812 2.328-2.484 2.328-1.172 0-2.313-.5-2.578-1.782-.047-.25-.047-.484-.047-.64 0-.141-.016-.203-.125-.203-.094 0-.125.093-.141.281-.015.281-.094.984-.094 1.844 0 .484.032.547.266.672.719.343 1.516.468 2.344.468Z" style="fill:#211e1e;fill-rule:nonzero"/><path d="M61.871 100.059c.941 0 1.883-.211 2.633-.735 1.199-.851 1.48-2.176 1.48-2.89 0-1.391-.488-2.473-2.543-4.094l-.488-.383c-1.672-1.305-2.125-1.934-2.125-2.926 0-1.269.938-2.019 2.141-2.019 1.605 0 2.074.73 2.179.922.102.191.207.664.227.871.016.14.035.226.137.226.086 0 .121-.121.121-.398 0-1.184.07-1.762.07-1.848 0-.086-.035-.121-.172-.121-.14 0-.281-.019-.609-.086a6.746 6.746 0 0 0-1.621-.176c-2.211 0-3.606 1.274-3.606 3.137 0 1.184.418 2.262 2.266 3.777l.781.645c1.5 1.238 2.004 1.934 2.004 3.137 0 1.113-.82 2.316-2.492 2.316-1.164 0-2.316-.488-2.578-1.777-.051-.242-.051-.489-.051-.645 0-.14-.016-.191-.121-.191-.086 0-.121.086-.141.277-.015.281-.086.977-.086 1.848 0 .469.016.539.262.66.715.352 1.516.473 2.332.473Z" style="fill:none;fill-rule:nonzero;stroke:#211e1e;stroke-width:.17px"/><path d="M75.355 100.011c1 0 2.141-.093 2.766-.343.266-.094.297-.157.391-.422.156-.516.359-1.797.359-1.906 0-.11-.062-.204-.141-.204-.093 0-.125.047-.156.204-.047.281-.25.906-.594 1.234-.609.609-1.375.703-2.515.703-3.281 0-5.531-2.531-5.531-5.375 0-1.5.25-2.812 1.375-3.859.546-.516 1.484-1.032 3.453-1.032 1.359 0 2.468.36 3.015.813.407.328.641.906.641 1.484 0 .219.016.313.125.313.094 0 .156-.078.172-.313.015-.203.015-1.031.031-1.515.047-.532.078-.703.078-.828 0-.094-.031-.157-.187-.157-.516-.015-1-.125-1.578-.234-.75-.125-1.61-.172-2.219-.172-2.36 0-3.75.703-4.672 1.578-1.359 1.328-1.734 3.063-1.734 4.047 0 1.406.375 3.109 1.875 4.391 1.203 1.047 2.75 1.593 5.046 1.593Z" style="fill:#211e1e;fill-rule:nonzero"/><path d="M75.352 100.004c.996 0 2.144-.086 2.769-.328.262-.106.297-.156.383-.438.16-.504.367-1.793.367-1.898 0-.106-.07-.207-.137-.207-.105 0-.125.051-.16.207-.051.281-.258.906-.59 1.238-.609.61-1.375.695-2.527.695-3.273 0-5.519-2.523-5.519-5.363 0-1.5.242-2.824 1.374-3.867.54-.508 1.481-1.027 3.45-1.027 1.359 0 2.472.363 3.011.816.403.316.645.906.645 1.484 0 .207.016.313.121.313.09 0 .16-.09.176-.313.019-.211.019-1.031.035-1.519.035-.539.07-.711.07-.836 0-.086-.035-.152-.191-.152-.508-.02-.996-.125-1.57-.231a15.13 15.13 0 0 0-2.227-.172c-2.352 0-3.746.696-4.668 1.582-1.359 1.328-1.726 3.051-1.726 4.043 0 1.41.367 3.102 1.863 4.387 1.203 1.047 2.754 1.586 5.051 1.586Z" style="fill:none;fill-rule:nonzero;stroke:#211e1e;stroke-width:.17px"/><path d="M91.195 92.902c0-2.297 0-2.719.032-3.187.031-.532.125-.735.515-.829.203-.031.281-.031.391-.031.062 0 .14-.062.14-.125 0-.078-.093-.125-.265-.125-.453 0-1.422.047-1.516.047-.062 0-1.062-.047-1.75-.047-.172 0-.234.047-.234.125 0 .063.047.125.125.125.14 0 .39.016.515.031.5.079.579.313.61.829.015.468.031.921.031 3.218v.313c0 .094-.031.094-.078.094H83.32c-.062 0-.093 0-.093-.094v-.313c0-2.297 0-2.75.015-3.218.031-.532.125-.735.547-.829.172-.031.281-.031.375-.031a.134.134 0 0 0 .125-.125c0-.078-.062-.125-.25-.125-.469 0-1.437.047-1.516.047-.078 0-1.062-.047-1.75-.047-.171 0-.25.047-.25.125 0 .063.079.125.125.125.141 0 .407.016.516.031.516.079.594.313.641.829.031.468.031.89.031 3.187v2.609c0 1.422 0 2.594-.094 3.204-.062.437-.094.718-.39.781a1.729 1.729 0 0 1-.469.078c-.094 0-.125.062-.125.125 0 .078.078.109.234.109.469 0 1.453-.047 1.531-.047.079 0 1.047.047 1.907.047.172 0 .25-.047.25-.109a.123.123 0 0 0-.125-.125c-.141 0-.469-.031-.703-.078-.454-.063-.5-.344-.563-.781-.062-.61-.062-1.735-.062-3.172v-1.485c0-.062.031-.078.093-.078h6.391c.047 0 .078.016.078.078v1.485c0 1.437 0 2.547-.062 3.156-.047.437-.11.734-.422.797a1.535 1.535 0 0 1-.453.078.122.122 0 0 0-.125.125c0 .078.078.109.25.109.453 0 1.453-.047 1.515-.047.094 0 1.063.047 1.906.047.172 0 .25-.047.25-.109 0-.063-.031-.125-.14-.125-.11 0-.469-.031-.672-.078-.469-.063-.5-.344-.563-.781-.062-.61-.078-1.782-.078-3.204v-2.609Z" style="fill:#211e1e;fill-rule:nonzero"/><path d="M91.188 92.898c0-2.296 0-2.714.035-3.187.035-.523.121-.731.519-.816.192-.036.281-.036.387-.036.066 0 .137-.07.137-.125 0-.086-.086-.121-.262-.121-.453 0-1.426.035-1.516.035-.066 0-1.062-.035-1.742-.035-.172 0-.242.035-.242.121 0 .055.051.125.121.125.141 0 .402.016.523.036.504.07.575.312.61.816.019.473.035.926.035 3.223v.312c0 .09-.035.09-.086.09h-6.395c-.05 0-.085 0-.085-.09v-.312c0-2.297 0-2.75.015-3.223.035-.523.125-.731.543-.816.172-.036.277-.036.383-.036.051 0 .121-.07.121-.125 0-.086-.07-.121-.242-.121-.473 0-1.445.035-1.516.035-.09 0-1.062-.035-1.761-.035-.172 0-.243.035-.243.121 0 .055.071.125.121.125.141 0 .403.016.524.036.504.07.59.312.625.816.035.473.035.891.035 3.187v2.614c0 1.429 0 2.593-.086 3.207-.07.433-.105.711-.402.781-.137.035-.328.07-.469.07-.086 0-.121.071-.121.121 0 .09.086.121.242.121.473 0 1.445-.05 1.535-.05.071 0 1.043.05 1.899.05.172 0 .242-.05.242-.121 0-.05-.035-.121-.121-.121-.141 0-.473-.035-.696-.07-.453-.07-.507-.348-.558-.781-.07-.614-.07-1.742-.07-3.172v-1.481c0-.07.035-.086.085-.086h6.395c.051 0 .086.016.086.086v1.481c0 1.43 0 2.543-.07 3.152-.051.438-.106.731-.418.801a2.04 2.04 0 0 1-.453.07.12.12 0 0 0-.122.121c0 .09.071.121.243.121.453 0 1.449-.05 1.515-.05.09 0 1.063.05 1.899.05.175 0 .261-.05.261-.121 0-.05-.035-.121-.136-.121-.125 0-.473-.035-.684-.07-.469-.07-.504-.348-.555-.781-.07-.614-.085-1.778-.085-3.207v-2.614Z" style="fill:none;fill-rule:nonzero;stroke:#211e1e;stroke-width:.17px"/><path d="M106.676 88.808c-.047-.281-.125-.406-.235-.406-.093 0-.171.109-.234.25l-4.469 9.172-4.625-9.188c-.093-.187-.218-.234-.312-.234s-.172.109-.188.266l-1.109 9.672c-.063.546-.094 1.093-.594 1.171a2.026 2.026 0 0 1-.453.063c-.078 0-.156.047-.156.094 0 .109.109.14.265.14.422 0 1.141-.047 1.282-.047.125 0 .859.047 1.437.047.172 0 .281-.031.281-.14 0-.047-.078-.094-.125-.094-.109 0-.328-.016-.593-.094-.235-.047-.375-.187-.375-.422 0-.234 0-.515.031-.75l.578-6.687h.078c.266.609 1.5 3.109 1.953 4.047.375.797 1.391 2.703 1.797 3.437.297.531.375.672.516.672.14 0 .234-.141.547-.781l3.687-7.563h.031l.735 7.532c.031.281.015.5-.063.515a.13.13 0 0 0-.109.125c0 .063.062.125.437.156.563.047 2.266.063 2.61.063.172 0 .312-.047.312-.125s-.047-.109-.125-.109c-.156 0-.547 0-.984-.141-.625-.203-.734-1.016-.781-1.531l-1.047-9.11Z" style="fill:#211e1e;fill-rule:nonzero"/><path d="M106.668 88.805c-.031-.278-.121-.399-.227-.399-.101 0-.171.102-.242.242l-4.457 9.18-4.633-9.195c-.089-.176-.211-.227-.316-.227-.086 0-.156.102-.172.262l-1.113 9.664c-.07.559-.09 1.098-.594 1.184-.226.035-.332.054-.453.054-.09 0-.156.051-.156.106 0 .101.101.136.261.136.418 0 1.149-.05 1.289-.05.122 0 .852.05 1.426.05.176 0 .281-.035.281-.136 0-.055-.07-.106-.124-.106-.106 0-.329-.019-.59-.086-.227-.054-.368-.191-.368-.418 0-.246 0-.523.016-.75l.594-6.687h.07c.262.609 1.496 3.098 1.949 4.039.383.801 1.395 2.699 1.797 3.43.293.543.383.679.524.679.136 0 .222-.136.539-.781l3.691-7.558h.035l.731 7.523c.035.277.015.504-.071.523-.07.016-.105.067-.105.121 0 .071.07.122.438.157.558.05 2.261.07 2.613.07.176 0 .312-.055.312-.141 0-.07-.051-.101-.121-.101-.156 0-.558 0-.992-.141-.629-.211-.73-1.011-.785-1.535l-1.047-9.109Z" style="fill:none;fill-rule:nonzero;stroke:#211e1e;stroke-width:.17px"/><path d="M115.203 92.902c0-2.297 0-2.719.016-3.187.031-.532.125-.735.547-.829.172-.031.281-.031.375-.031.062 0 .125-.062.125-.125 0-.078-.063-.125-.25-.125-.469 0-1.454.047-1.532.047-.078 0-1.046-.047-1.546-.047-.172 0-.25.047-.25.125 0 .063.062.125.124.125.11 0 .297.016.469.047.344.078.453.297.5.813.031.468.031.89.031 3.187v2.609c0 1.422-.015 2.594-.093 3.204-.047.437-.094.718-.391.781-.14.047-.344.078-.469.078-.093 0-.125.062-.125.125 0 .078.078.109.235.109.469 0 1.437-.047 1.515-.047.078 0 1.063.047 1.922.047.172 0 .25-.047.25-.109a.123.123 0 0 0-.125-.125c-.14 0-.469-.031-.703-.078-.453-.063-.5-.344-.562-.781-.063-.61-.063-1.782-.063-3.204v-2.609Z" style="fill:#211e1e;fill-rule:nonzero"/><path d="M115.203 92.898c0-2.296 0-2.714.02-3.187.035-.523.121-.731.539-.816.176-.036.277-.036.383-.036.054 0 .121-.07.121-.125 0-.086-.067-.121-.243-.121-.468 0-1.464.035-1.535.035-.086 0-1.043-.035-1.547-.035-.175 0-.246.035-.246.121 0 .055.055.125.121.125.106 0 .297.016.473.051.328.07.453.297.488.801.035.473.035.891.035 3.187v2.614c0 1.429-.019 2.593-.089 3.207-.051.433-.106.711-.399.781-.14.035-.332.07-.472.07a.12.12 0 0 0-.122.121c0 .09.086.121.247.121.468 0 1.425-.05 1.511-.05.071 0 1.067.05 1.918.05.176 0 .242-.05.242-.121 0-.05-.031-.121-.121-.121-.14 0-.468-.035-.695-.07-.453-.07-.504-.348-.559-.781-.07-.614-.07-1.778-.07-3.207v-2.614Z" style="fill:none;fill-rule:nonzero;stroke:#211e1e;stroke-width:.17px"/><path d="m124.855 89.293 1.922.031c1.453.031 1.782.375 1.844.828l.016.156c.015.203.047.25.125.25.062 0 .14-.062.14-.187 0-.172.047-1.235.047-1.688 0-.093 0-.172-.078-.172-.062 0-.203.032-.422.063-.25.031-.594.078-1.109.078h-5.781c-.172 0-.766-.016-1.204-.078-.421-.047-.578-.172-.671-.172-.063 0-.141.188-.157.281-.047.125-.328 1.438-.328 1.594 0 .094.063.125.094.125.078 0 .125-.016.156-.141.063-.093.078-.203.25-.468.219-.344.594-.453 1.547-.469l2.219-.031v6.218c0 1.422 0 2.594-.078 3.204-.047.437-.141.734-.453.796a1.537 1.537 0 0 1-.454.079c-.078 0-.125.046-.125.109 0 .078.079.109.25.109.454 0 1.516-.047 1.594-.047.078 0 1.063.047 1.891.047.172 0 .25-.047.25-.109 0-.063-.016-.125-.125-.125-.141 0-.485-.031-.703-.078-.469-.063-.532-.344-.594-.781-.063-.61-.063-1.782-.063-3.204v-6.218Z" style="fill:#211e1e;fill-rule:nonzero"/><path d="m124.855 89.293 1.915.035c1.464.035 1.792.367 1.847.82l.016.157c.019.207.055.261.125.261.066 0 .137-.07.137-.191 0-.176.05-1.238.05-1.691 0-.086 0-.176-.066-.176-.07 0-.211.039-.438.07-.242.035-.589.07-1.097.07h-5.782c-.175 0-.765-.015-1.203-.07-.418-.051-.574-.172-.679-.172-.051 0-.137.192-.157.278-.035.121-.328 1.445-.328 1.601 0 .09.067.125.102.125.07 0 .125-.019.156-.14.055-.106.07-.211.246-.469.227-.352.59-.453 1.551-.473l2.211-.035v6.219c0 1.429 0 2.593-.07 3.203-.051.437-.137.734-.453.805a2 2 0 0 1-.454.066c-.086 0-.121.055-.121.105 0 .086.071.121.246.121.45 0 1.512-.05 1.582-.05.09 0 1.063.05 1.899.05.176 0 .246-.05.246-.121 0-.05-.02-.121-.121-.121-.141 0-.488-.035-.699-.07-.469-.07-.539-.348-.59-.785-.071-.61-.071-1.774-.071-3.203v-6.219Z" style="fill:none;fill-rule:nonzero;stroke:#211e1e;stroke-width:.17px"/><path d="M130.699 93.359c-.265 0-.344.016-.375.141l-.265.984c-.032.156-.016.25.093.25.078 0 .375-.172.703-.25.594-.156 3.688-.578 4.157-.656.281-.047.609-.078.609-.297 0-.125-.234-.172-.531-.172h-4.391Z" style="fill:#211e1e;fill-rule:nonzero"/><path d="M130.707 93.367c-.281 0-.348.016-.383.141l-.262.972c-.035.157-.019.262.086.262.086 0 .383-.172.715-.262.594-.156 3.676-.574 4.145-.644.281-.051.613-.086.613-.293 0-.141-.23-.176-.527-.176h-4.387Z" style="fill:none;fill-rule:nonzero;stroke:#211e1e;stroke-width:.17px"/><path d="M138.887 94.761c0 1.672 0 3.047-.078 3.782-.079.5-.157.89-.5.953a2.08 2.08 0 0 1-.532.078c-.109 0-.14.047-.14.094 0 .109.093.14.281.14.516 0 1.625-.047 1.703-.047.094 0 1.188.047 2.141.047.203 0 .281-.047.281-.14 0-.047-.031-.094-.141-.094-.156 0-.531-.031-.781-.078-.516-.063-.625-.453-.672-.953-.094-.735-.094-2.11-.094-3.782v-1.484c0-.125.032-.156.125-.156.297 0 2.188 0 2.625.062.547.063.829.375.907.625.078.203.093.453.109.625 0 .078.031.157.125.157.125 0 .125-.172.125-.329 0-.125.031-.828.063-1.171.046-.579.14-.875.14-.969 0-.094-.015-.141-.094-.141-.062 0-.109.078-.187.172-.156.219-.375.281-.797.313-.25.015-.484.015-.781.015l-2.235.016c-.109 0-.125-.047-.125-.156v-4.813c0-.141.047-.187.157-.187l2.687.046c.672.016 1.078.344 1.188.563.093.234.156.516.156.656 0 .125.031.219.125.219.078 0 .109-.109.125-.188.047-.218.078-.984.094-1.156.047-.484.14-.703.14-.812 0-.094-.031-.172-.109-.172-.063 0-.141.078-.234.109-.157.063-.438.063-.766.078-.406.016-3.938 0-4.297 0l-.703-.015c-.391-.032-.859-.032-1.266-.032-.187 0-.281.047-.281.141 0 .078.078.109.141.109.156 0 .453.016.593.047.579.125.719.407.75 1 .032.563.032 1.047.032 3.766v3.062Z" style="fill:#211e1e;fill-rule:nonzero"/><path d="M138.895 94.762c0 1.672 0 3.05-.09 3.781-.071.504-.157.887-.504.957-.156.035-.367.07-.524.07-.105 0-.136.051-.136.106 0 .101.086.136.277.136.523 0 1.621-.05 1.707-.05.086 0 1.184.05 2.141.05.191 0 .281-.05.281-.136 0-.055-.035-.106-.141-.106-.156 0-.543-.035-.785-.07-.519-.07-.625-.453-.676-.957-.09-.731-.09-2.109-.09-3.781v-1.481c0-.121.036-.156.122-.156.296 0 2.195 0 2.628.055.543.066.821.382.911.625.066.211.086.453.101.629 0 .086.035.156.121.156.125 0 .125-.176.125-.332 0-.121.032-.82.067-1.168.054-.574.14-.871.14-.973 0-.09-.015-.14-.086-.14-.07 0-.121.085-.191.171-.156.227-.383.282-.801.317-.246.015-.488.015-.785.015l-2.23.02c-.102 0-.122-.055-.122-.16v-4.805c0-.14.051-.191.157-.191l2.683.051c.68.019 1.078.332 1.184.558.105.227.156.524.156.66 0 .121.035.211.121.211.09 0 .125-.105.141-.191.035-.211.07-.977.09-1.153.051-.484.136-.695.136-.816 0-.086-.035-.156-.101-.156-.074 0-.141.07-.246.105-.156.051-.438.051-.766.067-.402.019-3.937 0-4.285 0l-.715-.016c-.383-.019-.851-.019-1.254-.019-.191 0-.277.035-.277.14 0 .07.066.106.137.106.156 0 .453.015.593.05.575.121.715.403.75.993.036.558.036 1.046.036 3.765v3.063Z" style="fill:none;fill-rule:nonzero;stroke:#211e1e;stroke-width:.17px"/><path d="M146.883 94.183c0 2.672 1.797 5.828 6 5.828 3.687 0 6.14-2.734 6.14-6.046 0-3.454-2.609-5.563-6.062-5.563-4.219 0-6.078 3.391-6.078 5.781Zm1.594-.39c0-3.235 1.843-4.828 4.406-4.828 2.422 0 4.578 1.859 4.578 5.406 0 4.297-2.766 5.031-4.141 5.031-2.781 0-4.843-2.172-4.843-5.609Z" style="fill:#211e1e;fill-rule:nonzero"/><path d="M146.887 94.188c0 2.664 1.793 5.82 5.992 5.82 3.691 0 6.148-2.738 6.148-6.047 0-3.449-2.613-5.555-6.062-5.555-4.231 0-6.078 3.395-6.078 5.782Zm1.586-.399c0-3.223 1.847-4.824 4.406-4.824 2.422 0 4.582 1.863 4.582 5.414 0 4.285-2.77 5.016-4.145 5.016-2.769 0-4.843-2.157-4.843-5.606Z" style="fill:none;fill-rule:nonzero;stroke:#211e1e;stroke-width:.17px"/><path d="M171.367 92.902c0-2.297 0-2.719.031-3.187.032-.532.125-.735.516-.829.203-.031.281-.031.391-.031.062 0 .14-.062.14-.125 0-.078-.093-.125-.265-.125-.453 0-1.422.047-1.516.047-.062 0-1.062-.047-1.75-.047-.172 0-.234.047-.234.125 0 .063.047.125.125.125.14 0 .39.016.515.031.5.079.578.313.61.829.015.468.031.921.031 3.218v.313c0 .094-.031.094-.078.094h-6.391c-.062 0-.094 0-.094-.094v-.313c0-2.297 0-2.75.016-3.218.031-.532.125-.735.547-.829.172-.031.281-.031.375-.031.062 0 .125-.062.125-.125 0-.078-.063-.125-.25-.125-.469 0-1.438.047-1.516.047-.078 0-1.062-.047-1.75-.047-.172 0-.25.047-.25.125 0 .063.078.125.125.125.141 0 .407.016.516.031.516.079.594.313.641.829.031.468.031.89.031 3.187v2.609c0 1.422 0 2.594-.094 3.204-.062.437-.094.718-.391.781-.14.047-.343.078-.468.078-.094 0-.125.062-.125.125 0 .078.078.109.234.109.469 0 1.453-.047 1.531-.047.078 0 1.047.047 1.907.047.171 0 .25-.047.25-.109a.123.123 0 0 0-.125-.125c-.141 0-.469-.031-.704-.078-.453-.063-.5-.344-.562-.781-.063-.61-.063-1.735-.063-3.172v-1.485c0-.062.032-.078.094-.078h6.391c.047 0 .078.016.078.078v1.485c0 1.437 0 2.547-.063 3.156-.046.437-.109.734-.421.797a1.535 1.535 0 0 1-.454.078.123.123 0 0 0-.125.125c0 .078.079.109.25.109.454 0 1.454-.047 1.516-.047.094 0 1.063.047 1.906.047.172 0 .25-.047.25-.109 0-.063-.031-.125-.14-.125-.11 0-.469-.031-.672-.078-.469-.063-.5-.344-.563-.781-.062-.61-.078-1.782-.078-3.204v-2.609Z" style="fill:#211e1e;fill-rule:nonzero"/><path d="M171.359 92.898c0-2.296 0-2.714.036-3.187.035-.523.121-.731.519-.816.191-.036.281-.036.387-.036.066 0 .137-.07.137-.125 0-.086-.086-.121-.262-.121-.453 0-1.426.035-1.516.035-.066 0-1.062-.035-1.738-.035-.176 0-.246.035-.246.121 0 .055.051.125.121.125.141 0 .402.016.523.036.504.07.575.312.61.816.019.473.035.926.035 3.223v.312c0 .09-.035.09-.086.09h-6.395c-.05 0-.086 0-.086-.09v-.312c0-2.297 0-2.75.02-3.223.031-.523.121-.731.539-.816.172-.036.277-.036.383-.036.051 0 .121-.07.121-.125 0-.086-.07-.121-.242-.121-.473 0-1.446.035-1.516.035-.09 0-1.062-.035-1.762-.035-.171 0-.242.035-.242.121 0 .055.071.125.121.125.141 0 .403.016.524.036.504.07.594.312.625.816.039.473.039.891.039 3.187v2.614c0 1.429 0 2.593-.09 3.207-.07.433-.106.711-.398.781-.141.035-.332.07-.473.07-.086 0-.121.071-.121.121 0 .09.086.121.242.121.473 0 1.445-.05 1.535-.05.07 0 1.043.05 1.899.05.171 0 .242-.05.242-.121 0-.05-.035-.121-.121-.121-.141 0-.473-.035-.696-.07-.453-.07-.507-.348-.558-.781-.071-.614-.071-1.742-.071-3.172v-1.481c0-.07.036-.086.086-.086h6.395c.051 0 .086.016.086.086v1.481c0 1.43 0 2.543-.07 3.152-.051.438-.106.731-.418.801-.137.035-.313.07-.454.07-.085 0-.121.071-.121.121 0 .09.071.121.243.121.453 0 1.449-.05 1.515-.05.09 0 1.063.05 1.899.05.175 0 .261-.05.261-.121 0-.05-.035-.121-.136-.121a5.85 5.85 0 0 1-.68-.07c-.473-.07-.508-.348-.559-.781-.07-.614-.086-1.778-.086-3.207v-2.614Z" style="fill:none;fill-rule:nonzero;stroke:#211e1e;stroke-width:.17px"/><path d="M177.977 92.902c0-2.297 0-2.719.015-3.187.031-.532.125-.75.578-.844.172-.016.407-.031.5-.031.063 0 .125-.047.125-.11 0-.078-.078-.125-.25-.125-.468 0-1.609.047-1.687.047-.078 0-1.047-.047-1.735-.047-.171 0-.25.047-.25.125 0 .063.079.125.125.125.141 0 .407.016.516.031.516.079.594.313.641.829.031.468.031.89.031 3.187v2.609c0 1.422 0 2.594-.094 3.204-.062.437-.094.718-.39.781a1.729 1.729 0 0 1-.469.078c-.094 0-.125.062-.125.125 0 .078.078.109.234.109.25 0 .578-.015.891-.031.297-.016.562-.016.625-.016.453 0 .984.016 1.672.032a59.3 59.3 0 0 0 2.672.062c.812 0 .875-.062.968-.406.125-.438.235-1.328.235-1.484 0-.157-.032-.219-.11-.219s-.14.078-.156.187c-.047.297-.172.61-.359.828-.375.438-1.047.454-1.844.454-1.203 0-1.797-.094-2.047-.344-.281-.266-.312-1.141-.312-3.328v-2.641Z" style="fill:#211e1e;fill-rule:nonzero"/><path d="M177.977 92.898c0-2.296 0-2.714.019-3.187.035-.523.121-.746.574-.836.172-.016.399-.035.504-.035.055 0 .121-.051.121-.106 0-.086-.086-.121-.242-.121-.469 0-1.621.035-1.691.035-.086 0-1.043-.035-1.742-.035-.172 0-.243.035-.243.121 0 .055.071.125.121.125.141 0 .403.016.524.036.504.07.594.312.629.816.035.473.035.891.035 3.187v2.614c0 1.429 0 2.593-.09 3.207-.07.433-.105.711-.398.781-.141.035-.332.07-.473.07-.086 0-.121.071-.121.121 0 .09.086.121.246.121.242 0 .574-.015.887-.031.297-.019.558-.019.625-.019.453 0 .976.019 1.672.035.714.035 1.57.051 2.668.051.816 0 .871-.051.972-.399.125-.437.227-1.324.227-1.48 0-.157-.035-.227-.102-.227-.09 0-.14.086-.16.192-.051.296-.172.609-.363.836-.367.433-1.047.453-1.848.453-1.199 0-1.793-.106-2.039-.348-.277-.262-.312-1.152-.312-3.328v-2.649Z" style="fill:none;fill-rule:nonzero;stroke:#211e1e;stroke-width:.17px"/><path d="M16.73 132.562c-.562.016-1.125-.281-1.125-.984 0-.594.547-.906 1.125-.906.641 0 1.125.312 1.125.906 0 .672-.546 1-1.125.984Zm1.594-.984c0-.891-.812-1.313-1.594-1.313-.781 0-1.593.422-1.593 1.313 0 .578.312.984.859 1.156v.016c-.656.125-1.047.656-1.062 1.344 0 1.062.812 1.578 1.796 1.578 1 0 1.813-.516 1.813-1.578 0-.719-.391-1.204-1.078-1.344v-.016c.547-.156.859-.578.859-1.156Zm-1.594 3.703c-.734 0-1.328-.406-1.328-1.187 0-.766.61-1.157 1.328-1.141.719-.016 1.344.391 1.344 1.141 0 .812-.594 1.187-1.344 1.187ZM21.363 135.562h.469V133.5c0-.813.578-1.422 1.438-1.391v-.469c-.688-.031-1.219.328-1.454.954h-.015v-.907h-.438v3.875ZM26.852 131.687h-.469v2.031c0 .797-.344 1.563-1.156 1.563-.75 0-1.016-.375-1.032-1.063v-2.531h-.484v2.516c0 .906.375 1.469 1.359 1.469.578 0 1.094-.297 1.344-.813h.016v.703h.422v-3.875ZM28.035 133.359c.078-.703.485-1.375 1.266-1.375.765 0 1.203.656 1.234 1.375h-2.5Zm2.969.391c.047-1.078-.469-2.172-1.703-2.172-1.235 0-1.75 1.031-1.75 2.047 0 1.109.515 2.047 1.75 2.047.984 0 1.484-.5 1.687-1.391h-.468c-.157.594-.532 1-1.219 1-.891 0-1.266-.844-1.266-1.531h2.969ZM37.137 130.203h-.485v2.219c-.203-.547-.781-.844-1.343-.844-1.188 0-1.75.953-1.75 2.047 0 1.109.562 2.047 1.75 2.047.562 0 1.171-.328 1.375-.844h.015v.734h.438v-5.359Zm-3.11 3.422c0-.797.375-1.641 1.282-1.641.984 0 1.343.844 1.343 1.641 0 .812-.359 1.656-1.343 1.656-.907 0-1.282-.844-1.282-1.656ZM38.316 133.359c.079-.703.485-1.375 1.266-1.375.766 0 1.203.656 1.234 1.375h-2.5Zm2.969.391c.047-1.078-.469-2.172-1.703-2.172s-1.75 1.031-1.75 2.047c0 1.109.516 2.047 1.75 2.047.984 0 1.484-.5 1.688-1.391h-.469c-.156.594-.531 1-1.219 1-.891 0-1.266-.844-1.266-1.531h2.969ZM44.09 135.562h.515v-4.531h.016l3.109 4.531h.579v-5.359h-.516v4.531h-.016l-3.109-4.531h-.578v5.359ZM49.293 130.968h.484v-.765h-.484v.765Zm0 4.594h.484v-3.875h-.484v3.875ZM50.961 133.359c.078-.703.484-1.375 1.266-1.375.765 0 1.203.656 1.234 1.375h-2.5Zm2.969.391c.047-1.078-.469-2.172-1.703-2.172-1.235 0-1.75 1.031-1.75 2.047 0 1.109.515 2.047 1.75 2.047.984 0 1.484-.5 1.687-1.391h-.469c-.156.594-.531 1-1.218 1-.891 0-1.266-.844-1.266-1.531h2.969ZM57.977 130.203h-.485v2.219c-.203-.547-.781-.844-1.344-.844-1.187 0-1.75.953-1.75 2.047 0 1.109.563 2.047 1.75 2.047.563 0 1.172-.328 1.375-.844h.016v.734h.438v-5.359Zm-3.11 3.422c0-.797.375-1.641 1.281-1.641.985 0 1.344.844 1.344 1.641 0 .812-.359 1.656-1.344 1.656-.906 0-1.281-.844-1.281-1.656ZM59.16 133.359c.078-.703.485-1.375 1.266-1.375.765 0 1.203.656 1.234 1.375h-2.5Zm2.969.391c.047-1.078-.469-2.172-1.703-2.172-1.235 0-1.75 1.031-1.75 2.047 0 1.109.515 2.047 1.75 2.047.984 0 1.484-.5 1.687-1.391h-.468c-.157.594-.532 1-1.219 1-.891 0-1.266-.844-1.266-1.531h2.969ZM62.77 135.562h.468V133.5c0-.813.578-1.422 1.438-1.391v-.469c-.688-.031-1.219.328-1.453.954h-.016v-.907h-.437v3.875ZM68.402 130.203h-.484v2.219c-.203-.547-.781-.844-1.344-.844-1.187 0-1.75.953-1.75 2.047 0 1.109.563 2.047 1.75 2.047.563 0 1.172-.328 1.375-.844h.016v.734h.437v-5.359Zm-3.109 3.422c0-.797.375-1.641 1.281-1.641.985 0 1.344.844 1.344 1.641 0 .812-.359 1.656-1.344 1.656-.906 0-1.281-.844-1.281-1.656ZM70.926 131.984c.906 0 1.359.828 1.359 1.641 0 .812-.453 1.656-1.359 1.656-.891 0-1.344-.844-1.344-1.656 0-.813.453-1.641 1.344-1.641Zm0-.406c-1.172 0-1.828.937-1.828 2.047 0 1.109.656 2.047 1.828 2.047 1.187 0 1.844-.938 1.844-2.047 0-1.11-.657-2.047-1.844-2.047ZM73.457 135.562h.484v-2.25c.016-.765.454-1.328 1.204-1.328.765 0 .984.5.984 1.156v2.422h.469v-2.484c0-.922-.328-1.5-1.407-1.5-.546 0-1.062.312-1.234.781h-.016v-.672h-.484v3.875ZM78.547 135.562h.515l1.438-3.875h-.484l-1.204 3.407h-.015l-1.203-3.407h-.532l1.485 3.875ZM81.254 133.359c.078-.703.484-1.375 1.266-1.375.765 0 1.203.656 1.234 1.375h-2.5Zm2.969.391c.047-1.078-.469-2.172-1.703-2.172-1.235 0-1.75 1.031-1.75 2.047 0 1.109.515 2.047 1.75 2.047.984 0 1.484-.5 1.687-1.391h-.469c-.156.594-.531 1-1.218 1-.891 0-1.266-.844-1.266-1.531h2.969ZM84.848 135.562h.484v-2.25c.016-.765.453-1.328 1.203-1.328.766 0 .985.5.985 1.156v2.422h.468v-2.484c0-.922-.328-1.5-1.406-1.5-.547 0-1.062.312-1.234.781h-.016v-.672h-.484v3.875ZM94.242 133.203c-.172.265-.359.515-.672.515-.187 0-.437-.124-.734-.25-.266-.124-.578-.234-.859-.234-.5 0-.782.313-.938.641l.266.265c.125-.265.312-.515.64-.515.282 0 .532.125.797.25.266.125.531.234.828.234.469 0 .719-.312.938-.641l-.266-.265ZM97.656 135.562h3.5v-.437h-3v-4.922h-.5v5.359Z" style="fill:#211e1e;fill-rule:nonzero"/><path style="fill:#211e1e" d="M101.59 133.281h1.875v.438h-1.875z"/><path d="M104.176 134.062c.031 1 .75 1.61 1.734 1.61 1 0 1.813-.75 1.813-1.782 0-1.046-.672-1.812-1.75-1.812-.422 0-.86.187-1.125.484l.328-1.75h2.297v-.437h-2.625l-.516 2.734h.406a1.381 1.381 0 0 1 1.172-.625c.781 0 1.344.594 1.344 1.36 0 .765-.5 1.437-1.313 1.437-.718 0-1.265-.484-1.281-1.219h-.484ZM108.738 133.859l1.969-2.859h.016v2.859h-1.985Zm-.437.391h2.422v1.312h.437v-1.312h.797v-.391h-.797v-3.547h-.422l-2.437 3.485v.453ZM114.328 130.265c-1.516 0-1.828 1.485-1.828 2.703 0 1.235.312 2.704 1.828 2.704 1.531 0 1.844-1.469 1.844-2.704 0-1.218-.313-2.703-1.844-2.703Zm0 .407c1.203 0 1.36 1.39 1.36 2.296 0 .907-.157 2.313-1.36 2.313-1.187 0-1.344-1.406-1.344-2.313 0-.906.157-2.296 1.344-2.296ZM117.156 131.656h1.375v3.906h.485v-5.25h-.391c-.141.953-.656.985-1.469 1.016v.328ZM125.051 130.718l1.031 2.75h-2.109l1.078-2.75Zm-2.422 4.844h.547l.64-1.672h2.438l.656 1.672h.547l-2.109-5.359h-.563l-2.156 5.359ZM127.84 135.562h.484v-2.25c.016-.765.453-1.328 1.203-1.328.766 0 .985.5.985 1.156v2.422h.468v-2.484c0-.922-.328-1.5-1.406-1.5-.547 0-1.062.312-1.234.781h-.016v-2.156h-.484v5.359ZM131.867 135.562h.485v-2.25c.015-.765.453-1.328 1.203-1.328.765 0 .984.5.984 1.156v2.422h.469v-2.484c0-.922-.328-1.5-1.406-1.5-.547 0-1.063.312-1.235.781h-.015v-.672h-.485v3.875ZM141.262 133.203c-.172.265-.36.515-.672.515-.188 0-.438-.124-.735-.25-.265-.124-.578-.234-.859-.234-.5 0-.781.313-.937.641l.265.265c.125-.265.313-.515.641-.515.281 0 .531.125.797.25.265.125.531.234.828.234.469 0 .719-.312.937-.641l-.265-.265ZM144.188 131.015h1.687v4.547h.937v-4.547h1.704v-.812h-4.328v.812ZM151.035 130.812h2.906c-1.453 1.656-2.031 2.969-2.156 4.75h.516c.109-2.437 1.453-4.062 2.109-4.75v-.437h-3.375v.437ZM158.609 131.64c-.109-.922-.671-1.375-1.609-1.375-1.719 0-1.875 2-1.875 2.625 0 2.047.563 2.782 1.844 2.782 1.047 0 1.781-.75 1.781-1.782 0-1.015-.688-1.75-1.734-1.75-.61 0-1.157.36-1.407.875h-.015c0-.953.218-2.343 1.453-2.343.609 0 1.015.39 1.094.968h.468Zm-1.609.907c.812 0 1.266.609 1.266 1.375 0 .734-.5 1.359-1.25 1.359-.922 0-1.313-.609-1.313-1.359 0-.766.469-1.375 1.297-1.375ZM163.164 130.265c-1.516 0-1.828 1.485-1.828 2.703 0 1.235.312 2.704 1.828 2.704 1.531 0 1.844-1.469 1.844-2.704 0-1.218-.313-2.703-1.844-2.703Zm0 .407c1.203 0 1.359 1.39 1.359 2.296 0 .907-.156 2.313-1.359 2.313-1.187 0-1.344-1.406-1.344-2.313 0-.906.157-2.296 1.344-2.296ZM168.988 135.125h-2.922c.125-.688 1.063-1.172 1.579-1.516.687-.437 1.312-.984 1.312-1.859 0-.985-.703-1.485-1.625-1.485-1.141 0-1.703.782-1.687 1.86h.484c-.031-.766.312-1.453 1.187-1.453.625 0 1.172.39 1.172 1.062 0 .422-.14.703-.437 1-.891.875-2.5 1.266-2.531 2.828h3.468v-.437ZM171.758 133.89c-.078 1.125.703 1.782 1.797 1.782.953 0 1.797-.563 1.797-1.594 0-.688-.391-1.188-1.079-1.297v-.016c.579-.14.891-.593.891-1.156 0-.937-.812-1.344-1.625-1.344-1.031 0-1.656.735-1.656 1.735h.469c-.032-.782.406-1.328 1.187-1.328.625 0 1.156.296 1.156.984 0 .672-.578.953-1.078.953h-.39V133h.39c.703 0 1.266.359 1.266 1.109s-.656 1.172-1.344 1.172c-.844 0-1.344-.563-1.312-1.391h-.469ZM176.414 131.656h1.375v3.906h.484v-5.25h-.39c-.141.953-.656.985-1.469 1.016v.328ZM185.652 133.203c-.172.265-.359.515-.672.515-.187 0-.437-.124-.734-.25-.266-.124-.578-.234-.859-.234-.5 0-.782.313-.938.641l.266.265c.125-.265.312-.515.64-.515.282 0 .532.125.797.25.266.125.532.234.828.234.469 0 .719-.312.938-.641l-.266-.265ZM189.082 135.562h.938v-2.375h2.437v-.765h-2.437v-1.407h2.765v-.812h-3.703v5.359ZM195.426 130.812h2.906c-1.453 1.656-2.031 2.969-2.156 4.75h.515c.11-2.437 1.454-4.062 2.11-4.75v-.437h-3.375v.437ZM203.004 131.64c-.109-.922-.672-1.375-1.609-1.375-1.719 0-1.875 2-1.875 2.625 0 2.047.562 2.782 1.843 2.782 1.047 0 1.782-.75 1.782-1.782 0-1.015-.688-1.75-1.735-1.75-.609 0-1.156.36-1.406.875h-.016c0-.953.219-2.343 1.453-2.343.61 0 1.016.39 1.094.968h.469Zm-1.609.907c.812 0 1.265.609 1.265 1.375 0 .734-.5 1.359-1.25 1.359-.922 0-1.312-.609-1.312-1.359 0-.766.468-1.375 1.297-1.375ZM205.852 134.297c.125.921.687 1.375 1.625 1.375 1.718 0 1.875-1.985 1.875-2.61 0-2.047-.563-2.797-1.844-2.797-1.047 0-1.781.766-1.781 1.782 0 1.015.687 1.75 1.734 1.75.609 0 1.156-.344 1.391-.86h.015c0 .938-.203 2.344-1.437 2.344-.61 0-1.016-.406-1.094-.984h-.484Zm1.625-.891c-.813 0-1.266-.625-1.266-1.391 0-.734.5-1.343 1.25-1.343.922 0 1.312.593 1.312 1.343 0 .766-.484 1.391-1.296 1.391ZM210.383 131.656h1.375v3.906h.484v-5.25h-.39c-.141.953-.657.985-1.469 1.016v.328ZM216.559 133.859l1.968-2.859h.016v2.859h-1.984Zm-.438.391h2.422v1.312h.437v-1.312h.797v-.391h-.797v-3.547h-.421l-2.438 3.485v.453ZM223.852 131.64c-.11-.922-.672-1.375-1.61-1.375-1.719 0-1.875 2-1.875 2.625 0 2.047.563 2.782 1.844 2.782 1.047 0 1.781-.75 1.781-1.782 0-1.015-.687-1.75-1.734-1.75-.61 0-1.156.36-1.406.875h-.016c0-.953.219-2.343 1.453-2.343.609 0 1.016.39 1.094.968h.469Zm-1.61.907c.813 0 1.266.609 1.266 1.375 0 .734-.5 1.359-1.25 1.359-.922 0-1.313-.609-1.313-1.359 0-.766.469-1.375 1.297-1.375ZM78.781 145.558h.485v-2.25c.015-.765.453-1.328 1.203-1.328.765 0 .984.5.984 1.156v2.422h.469v-2.484c0-.922-.328-1.5-1.406-1.5-.547 0-1.063.312-1.235.781h-.015v-2.156h-.485v5.359ZM85.605 142.824c-.031-.844-.625-1.25-1.406-1.25-.687 0-1.453.297-1.453 1.094 0 .64.453.875 1.078 1.031l.61.141c.421.093.843.25.843.703 0 .531-.609.734-1.062.734-.625 0-1.094-.328-1.141-.969h-.469c.079.953.688 1.36 1.594 1.36.719 0 1.547-.313 1.547-1.157 0-.671-.562-1-1.109-1.078l-.625-.14c-.328-.078-.797-.235-.797-.657 0-.5.484-.656.906-.656.547 0 1 .25 1.016.844h.468ZM87.918 141.683h-.766v-.328c0-.422 0-.75.516-.75.125 0 .219.016.359.031v-.406c-.156-.015-.265-.031-.406-.031-.766 0-.937.469-.937 1.141v.343h-.657v.407h.657v3.468h.468v-3.468h.766v-.407ZM93.281 141.48h-.406l-.187.485c-.172-.454-.454-.625-.797-.625-1.063 0-1.766 1.125-1.766 2.156 0 .594.359 1.094.984 1.094.375 0 .719-.25.953-.5h.016c.031.343.234.515.5.515.844 0 1.734-.969 1.734-2.187 0-1.375-1.093-2.328-2.531-2.328-1.531 0-2.75 1.203-2.75 2.765 0 1.578 1.157 2.813 2.781 2.813.938 0 1.86-.516 2.313-1.328h-.391c-.422.609-1.187 1-1.922 1-1.374 0-2.39-1.079-2.39-2.422 0-1.391.969-2.485 2.375-2.485 1.156 0 2.125.735 2.125 1.969 0 .844-.594 1.859-1.266 1.859-.25 0-.203-.296-.094-.625l.719-2.156Zm-1.422.25c.297 0 .594.344.594.703 0 .657-.547 1.766-1.234 1.766-.36 0-.625-.281-.625-.734 0-.704.515-1.735 1.265-1.735ZM95.125 146.996h.469v-2.172h.015c.203.562.766.844 1.344.844 1.172 0 1.735-.938 1.735-2.047 0-1.094-.563-2.047-1.735-2.047-.625 0-1.156.312-1.375.844h-.016v-.735h-.437v5.313Zm3.094-3.375c0 .812-.36 1.656-1.266 1.656-1 0-1.359-.844-1.359-1.656 0-.875.312-1.641 1.359-1.641.906 0 1.266.844 1.266 1.641ZM100.18 140.527h-.469v1.156h-.688v.407h.688v2.64c-.016.656.203.875.828.875.141 0 .281-.015.422-.015v-.407c-.125.016-.266.016-.406.016-.328-.016-.375-.203-.375-.5v-2.609h.781v-.407h-.781v-1.156Z" style="fill:#211e1e;fill-rule:nonzero"/><path style="fill:#211e1e" d="M101.93 144.761h.625v.797h-.625zM103.734 140.199h.484v5.359h-.484z"/><path d="M108.246 141.683h-.469v2.032c0 .796-.343 1.562-1.156 1.562-.75 0-1.016-.375-1.031-1.062v-2.532h-.485v2.516c0 .906.375 1.469 1.36 1.469.578 0 1.094-.297 1.344-.813h.015v.703h.422v-3.875ZM114.5 143.199c-.172.266-.359.516-.672.516-.187 0-.437-.125-.734-.25-.266-.125-.578-.235-.86-.235-.5 0-.781.313-.937.641l.265.265c.126-.265.313-.515.641-.515.281 0 .531.125.797.25s.531.234.828.234c.469 0 .719-.312.938-.64l-.266-.266ZM120.602 142.824c-.032-.844-.625-1.25-1.407-1.25-.687 0-1.453.297-1.453 1.094 0 .64.453.875 1.078 1.031l.61.141c.422.093.843.25.843.703 0 .531-.609.734-1.062.734-.625 0-1.094-.328-1.141-.969h-.468c.078.953.687 1.36 1.593 1.36.719 0 1.547-.313 1.547-1.157 0-.671-.562-1-1.109-1.078l-.625-.14c-.328-.078-.797-.235-.797-.657 0-.5.484-.656.906-.656.547 0 1 .25 1.016.844h.469ZM124.629 142.902c-.109-.891-.734-1.328-1.578-1.328-1.172 0-1.828.937-1.828 2.047 0 1.109.656 2.047 1.828 2.047.875 0 1.484-.563 1.609-1.5h-.484c-.047.64-.547 1.109-1.125 1.109-.891 0-1.344-.844-1.344-1.656 0-.813.453-1.641 1.344-1.641.625 0 .969.344 1.109.922h.469ZM125.305 145.558h.484v-2.25c.016-.765.453-1.328 1.203-1.328.766 0 .985.5.985 1.156v2.422h.468v-2.484c0-.922-.328-1.5-1.406-1.5-.547 0-1.062.312-1.234.781h-.016v-2.156h-.484v5.359ZM129.348 145.558h.468v-2.156c0-.812.344-1.422 1.157-1.422.609 0 .812.422.812.953v2.625h.469v-2.187c0-.719.234-1.391 1.047-1.391.687 0 .922.344.922.969v2.609h.468v-2.625c0-.906-.421-1.359-1.281-1.359-.515 0-1 .25-1.234.766-.141-.516-.594-.766-1.11-.766-.625 0-1.015.297-1.265.766h-.016v-.657h-.437v3.875ZM135.594 140.965h.484v-.766h-.484v.766Zm0 4.593h.484v-3.875h-.484v3.875ZM137.73 140.527h-.468v1.156h-.688v.407h.688v2.64c-.016.656.203.875.828.875.14 0 .281-.015.422-.015v-.407c-.125.016-.266.016-.407.016-.328-.016-.375-.203-.375-.5v-2.609h.782v-.407h-.782v-1.156Z" style="fill:#211e1e;fill-rule:nonzero"/><path style="fill:#211e1e" d="M139.203 143.277h1.875v.438h-1.875z"/><path d="M143.461 141.683h-.766v-.328c0-.422 0-.75.516-.75.125 0 .219.016.359.031v-.406c-.156-.015-.265-.031-.406-.031-.766 0-.937.469-.937 1.141v.343h-.657v.407h.657v3.468h.468v-3.468h.766v-.407ZM145.543 141.98c.906 0 1.359.828 1.359 1.641 0 .812-.453 1.656-1.359 1.656-.891 0-1.344-.844-1.344-1.656 0-.813.453-1.641 1.344-1.641Zm0-.406c-1.172 0-1.828.937-1.828 2.047 0 1.109.656 2.047 1.828 2.047 1.187 0 1.844-.938 1.844-2.047 0-1.11-.657-2.047-1.844-2.047ZM148.074 145.558h.485v-2.25c.015-.765.453-1.328 1.203-1.328.765 0 .984.5.984 1.156v2.422h.469v-2.484c0-.922-.328-1.5-1.406-1.5-.547 0-1.063.312-1.235.781h-.015v-2.156h-.485v5.359Z" style="fill:#211e1e;fill-rule:nonzero"/><path style="fill:#211e1e" d="M152.117 140.199h.484v5.359h-.484zM153.785 144.761h.625v.797h-.625zM155.59 140.199h.484v5.359h-.484z"/><path d="M160.102 141.683h-.469v2.032c0 .796-.344 1.562-1.156 1.562-.75 0-1.016-.375-1.032-1.062v-2.532h-.484v2.516c0 .906.375 1.469 1.359 1.469.578 0 1.094-.297 1.344-.813h.016v.703h.422v-3.875Z" style="fill:#211e1e;fill-rule:nonzero"/></svg>