<?xml version="1.0" encoding="UTF-8" standalone="no"?><!DOCTYPE svg PUBLIC "-//W3C//DTD SVG 1.1//EN" "http://www.w3.org/Graphics/SVG/1.1/DTD/svg11.dtd"><svg width="100%" height="100%" viewBox="0 0 190 65" version="1.1" xmlns="http://www.w3.org/2000/svg" xmlns:xlink="http://www.w3.org/1999/xlink" xml:space="preserve" xmlns:serif="http://www.serif.com/" style="fill-rule:evenodd;clip-rule:evenodd;stroke-linejoin:round;stroke-miterlimit:1.41421;"><g id="Calque-1" serif:id="Calque 1"><rect x="55.096" y="0.176" width="133.937" height="51.024" style="fill:#243588;"/><rect x="0" y="0.281" width="51.024" height="51.024" style="fill:#243588;"/><path d="M38.153,36.206l0,-11.813l0,-0.012l-19.333,-0.008l0,-7.112l13.383,0.008l0,4.319l5.95,0l0,-6.222l-0.002,0l0,-0.004c0,-0.501 -0.405,-0.907 -0.905,-0.907c-0.014,0 -0.025,0.004 -0.037,0.005l-23.399,0c-0.012,-0.001 -0.025,-0.005 -0.036,-0.005c-0.5,0 -0.905,0.406 -0.905,0.907c0,0.015 0.002,0.029 0.002,0.043l0,11.785l19.332,-0.009l0,7.143l-13.383,0l0,-4.359l-5.949,0l0,6.259c0,0.5 0.405,0.905 0.905,0.905l0,0.003l23.465,0c0.003,0 0.005,0.001 0.009,0.001c0.5,0 0.906,-0.406 0.906,-0.907c0,-0.007 -0.003,-0.013 -0.003,-0.02" style="fill:#fff;fill-rule:nonzero;"/><path d="M0.037,56.704l4.395,0l0,1.173l-2.902,0l0,1.834l2.656,0l0,1.174l-2.656,0l0,2.09l2.923,0l0,1.173l-4.416,0l0,-7.444Z" style="fill:#243588;fill-rule:nonzero;"/><path d="M5.895,56.704l1.835,0l2.837,5.567l0.021,0l0,-5.567l1.43,0l0,7.444l-1.825,0l-2.847,-5.567l-0.021,0l0,5.567l-1.43,0l0,-7.444Z" style="fill:#243588;fill-rule:nonzero;"/><path d="M19.486,58.143c-0.576,-0.267 -1.322,-0.395 -1.92,-0.395c-1.738,0 -2.698,1.173 -2.698,2.699c0,1.514 0.938,2.656 2.528,2.656c0.405,0 0.725,-0.043 0.981,-0.107l0,-1.941l-1.579,0l0,-1.174l3.008,0l0,4.011c-0.789,0.213 -1.611,0.384 -2.41,0.384c-2.411,0 -4.085,-1.205 -4.085,-3.723c0,-2.549 1.557,-3.978 4.085,-3.978c0.863,0 1.546,0.118 2.186,0.309l-0.096,1.259Z" style="fill:#243588;fill-rule:nonzero;"/><rect x="21.249" y="56.704" width="1.493" height="7.444" style="fill:#243588;"/><path d="M24.269,56.704l1.835,0l2.837,5.567l0.021,0l0,-5.567l1.43,0l0,7.444l-1.825,0l-2.847,-5.567l-0.022,0l0,5.567l-1.429,0l0,-7.444Z" style="fill:#243588;fill-rule:nonzero;"/><path d="M32.047,56.704l4.395,0l0,1.173l-2.902,0l0,1.834l2.656,0l0,1.174l-2.656,0l0,2.09l2.923,0l0,1.173l-4.416,0l0,-7.444Z" style="fill:#243588;fill-rule:nonzero;"/><path d="M37.979,56.704l4.395,0l0,1.173l-2.902,0l0,1.834l2.656,0l0,1.174l-2.656,0l0,2.09l2.923,0l0,1.173l-4.416,0l0,-7.444Z" style="fill:#243588;fill-rule:nonzero;"/><path d="M45.277,59.882l0.491,0c0.736,0 1.578,-0.106 1.578,-1.034c0,-0.897 -0.832,-0.971 -1.578,-0.971l-0.491,0l0,2.005Zm-1.493,-3.178l1.611,0c1.599,0 3.508,-0.053 3.508,2.016c0,0.874 -0.586,1.599 -1.535,1.727l0,0.022c0.405,0.032 0.639,0.437 0.789,0.767l1.195,2.913l-1.664,0l-0.896,-2.326c-0.214,-0.554 -0.406,-0.767 -1.035,-0.767l-0.48,0l0,3.093l-1.493,0l0,-7.445Z" style="fill:#243588;fill-rule:nonzero;"/><rect x="50.304" y="56.704" width="1.493" height="7.444" style="fill:#243588;"/><path d="M53.323,56.704l1.835,0l2.837,5.567l0.021,0l0,-5.567l1.43,0l0,7.444l-1.825,0l-2.847,-5.567l-0.022,0l0,5.567l-1.429,0l0,-7.444Z" style="fill:#243588;fill-rule:nonzero;"/><path d="M66.915,58.143c-0.576,-0.267 -1.322,-0.395 -1.92,-0.395c-1.738,0 -2.698,1.173 -2.698,2.699c0,1.514 0.938,2.656 2.528,2.656c0.405,0 0.725,-0.043 0.981,-0.107l0,-1.941l-1.579,0l0,-1.174l3.008,0l0,4.011c-0.789,0.213 -1.611,0.384 -2.41,0.384c-2.411,0 -4.085,-1.205 -4.085,-3.723c0,-2.549 1.557,-3.978 4.085,-3.978c0.863,0 1.546,0.118 2.186,0.309l-0.096,1.259Z" style="fill:#243588;fill-rule:nonzero;"/><path d="M73.126,57.877l-2.133,0l0,-1.173l5.759,0l0,1.173l-2.133,0l0,6.271l-1.493,0l0,-6.271Z" style="fill:#243588;fill-rule:nonzero;"/><path d="M77.704,56.704l1.493,0l0,3.007l2.987,0l0,-3.007l1.493,0l0,7.444l-1.493,0l0,-3.263l-2.987,0l0,3.263l-1.493,0l0,-7.444Z" style="fill:#243588;fill-rule:nonzero;"/><path d="M85.408,56.704l4.395,0l0,1.173l-2.902,0l0,1.834l2.656,0l0,1.174l-2.656,0l0,2.09l2.923,0l0,1.173l-4.416,0l0,-7.444Z" style="fill:#243588;fill-rule:nonzero;"/><path d="M94.307,56.704l4.138,0l0,1.173l-2.645,0l0,1.834l2.517,0l0,1.174l-2.517,0l0,3.263l-1.493,0l0,-7.444Z" style="fill:#243588;fill-rule:nonzero;"/><path d="M99.588,56.704l1.493,0l0,4.298c0,1.269 0.405,2.101 1.547,2.101c1.141,0 1.546,-0.832 1.546,-2.101l0,-4.298l1.494,0l0,4.757c0,1.994 -1.131,2.815 -3.04,2.815c-1.909,0 -3.04,-0.821 -3.04,-2.815l0,-4.757Z" style="fill:#243588;fill-rule:nonzero;"/><path d="M108.699,57.877l-2.134,0l0,-1.173l5.76,0l0,1.173l-2.133,0l0,6.271l-1.493,0l0,-6.271Z" style="fill:#243588;fill-rule:nonzero;"/><path d="M113.224,56.704l1.493,0l0,4.298c0,1.269 0.405,2.101 1.547,2.101c1.141,0 1.546,-0.832 1.546,-2.101l0,-4.298l1.494,0l0,4.757c0,1.994 -1.131,2.815 -3.04,2.815c-1.909,0 -3.04,-0.821 -3.04,-2.815l0,-4.757Z" style="fill:#243588;fill-rule:nonzero;"/><path d="M122.346,59.882l0.49,0c0.737,0 1.579,-0.106 1.579,-1.034c0,-0.897 -0.832,-0.971 -1.579,-0.971l-0.49,0l0,2.005Zm-1.493,-3.178l1.61,0c1.6,0 3.509,-0.053 3.509,2.016c0,0.874 -0.587,1.599 -1.536,1.727l0,0.022c0.405,0.032 0.64,0.437 0.79,0.767l1.194,2.913l-1.664,0l-0.895,-2.326c-0.214,-0.554 -0.406,-0.767 -1.036,-0.767l-0.479,0l0,3.093l-1.493,0l0,-7.445Z" style="fill:#243588;fill-rule:nonzero;"/><path d="M127.5,56.704l4.394,0l0,1.173l-2.901,0l0,1.834l2.655,0l0,1.174l-2.655,0l0,2.09l2.922,0l0,1.173l-4.415,0l0,-7.444Z" style="fill:#243588;fill-rule:nonzero;"/><path d="M137.753,57.877l-2.134,0l0,-1.173l5.76,0l0,1.173l-2.133,0l0,6.271l-1.493,0l0,-6.271Z" style="fill:#243588;fill-rule:nonzero;"/><path d="M145.296,63.103c1.524,0 2.09,-1.354 2.09,-2.699c0,-1.312 -0.608,-2.655 -2.09,-2.655c-1.483,0 -2.091,1.343 -2.091,2.655c0,1.345 0.566,2.699 2.091,2.699m0,-6.528c2.336,0 3.647,1.579 3.647,3.829c0,2.251 -1.291,3.872 -3.647,3.872c-2.39,0 -3.648,-1.589 -3.648,-3.872c0,-2.282 1.28,-3.829 3.648,-3.829" style="fill:#243588;fill-rule:nonzero;"/><path d="M156.391,58.143c-0.576,-0.267 -1.322,-0.395 -1.92,-0.395c-1.738,0 -2.698,1.173 -2.698,2.699c0,1.514 0.938,2.656 2.527,2.656c0.405,0 0.726,-0.043 0.982,-0.107l0,-1.941l-1.579,0l0,-1.174l3.008,0l0,4.011c-0.789,0.213 -1.61,0.384 -2.411,0.384c-2.41,0 -4.085,-1.205 -4.085,-3.723c0,-2.549 1.558,-3.978 4.085,-3.978c0.864,0 1.547,0.118 2.187,0.309l-0.096,1.259Z" style="fill:#243588;fill-rule:nonzero;"/><path d="M158.281,56.704l4.394,0l0,1.173l-2.901,0l0,1.834l2.655,0l0,1.174l-2.655,0l0,2.09l2.922,0l0,1.173l-4.415,0l0,-7.444Z" style="fill:#243588;fill-rule:nonzero;"/><path d="M165.568,57.877l-2.134,0l0,-1.173l5.76,0l0,1.173l-2.133,0l0,6.271l-1.493,0l0,-6.271Z" style="fill:#243588;fill-rule:nonzero;"/><path d="M170.147,56.704l1.493,0l0,3.007l2.986,0l0,-3.007l1.494,0l0,7.444l-1.494,0l0,-3.263l-2.986,0l0,3.263l-1.493,0l0,-7.444Z" style="fill:#243588;fill-rule:nonzero;"/><path d="M177.85,56.704l4.394,0l0,1.173l-2.901,0l0,1.834l2.655,0l0,1.174l-2.655,0l0,2.09l2.922,0l0,1.173l-4.415,0l0,-7.444Z" style="fill:#243588;fill-rule:nonzero;"/><path d="M185.148,59.882l0.49,0c0.737,0 1.579,-0.106 1.579,-1.034c0,-0.897 -0.832,-0.971 -1.579,-0.971l-0.49,0l0,2.005Zm-1.493,-3.178l1.61,0c1.6,0 3.509,-0.053 3.509,2.016c0,0.874 -0.587,1.599 -1.536,1.727l0,0.022c0.405,0.032 0.64,0.437 0.79,0.767l1.194,2.913l-1.664,0l-0.895,-2.326c-0.214,-0.554 -0.406,-0.767 -1.036,-0.767l-0.479,0l0,3.093l-1.493,0l0,-7.445Z" style="fill:#243588;fill-rule:nonzero;"/><path d="M78.868,31.964c-0.027,0.616 -0.192,1.247 -0.63,1.726c-0.535,-0.52 -1.082,-1.027 -1.644,-1.52c1.014,-0.589 2.055,-1.206 2.055,-2.411c0,-1.781 -1.644,-2.357 -3.315,-2.357c-1.507,0 -3.178,0.604 -3.178,2.288c0,0.836 0.384,1.493 1.15,2.096c-1.177,0.548 -1.876,1.274 -1.876,2.602c0,1.973 1.795,2.905 3.617,2.905c1.04,0 2.15,-0.179 2.972,-0.891c0.205,0.219 0.383,0.466 0.575,0.726l2.726,0l-1.699,-1.89c0.891,-0.877 1.412,-2.055 1.466,-3.274l-2.219,0Zm-5.109,2.37c0,-0.685 0.329,-1.027 0.862,-1.315c0.727,0.671 1.439,1.356 2.124,2.11c-0.48,0.356 -0.877,0.52 -1.452,0.52c-0.767,0 -1.534,-0.494 -1.534,-1.315m0.589,-4.52c0,-0.48 0.424,-0.85 1.014,-0.85c0.589,0 1.068,0.288 1.068,0.85c0,0.629 -0.699,1.013 -1.165,1.287c-0.383,-0.302 -0.917,-0.74 -0.917,-1.287m11.437,7.314l2.589,0l0.754,-2.041l3.589,0l0.712,2.041l2.794,0l-3.684,-9.561l-3.124,0l-3.63,9.561Zm6.329,-3.849l-2.397,0l1.233,-3.739l0.027,0l1.137,3.739Zm4.918,3.603c0.849,0.274 1.958,0.411 2.849,0.411c2.123,0 4.205,-0.672 4.205,-3.151c0,-3.452 -4.52,-2.41 -4.52,-3.959c0,-0.835 1.068,-0.89 1.712,-0.89c0.726,0 1.466,0.137 2.123,0.438l0.165,-1.972c-0.644,-0.219 -1.549,-0.357 -2.466,-0.357c-1.918,0 -4.164,0.631 -4.164,2.932c0,3.48 4.52,2.356 4.52,4.137c0,0.767 -0.767,0.931 -1.575,0.931c-1.055,0 -1.973,-0.273 -2.63,-0.63l-0.219,2.11Zm8.369,0c0.849,0.274 1.958,0.411 2.849,0.411c2.123,0 4.205,-0.672 4.205,-3.151c0,-3.452 -4.52,-2.41 -4.52,-3.959c0,-0.835 1.069,-0.89 1.712,-0.89c0.726,0 1.466,0.137 2.123,0.438l0.164,-1.972c-0.643,-0.219 -1.547,-0.357 -2.464,-0.357c-1.918,0 -4.165,0.631 -4.165,2.932c0,3.48 4.52,2.356 4.52,4.137c0,0.767 -0.767,0.931 -1.575,0.931c-1.055,0 -1.972,-0.273 -2.63,-0.63l-0.219,2.11Zm8.205,-4.534c0,3.041 1.671,4.945 4.794,4.945c3.123,0 4.794,-1.904 4.794,-4.945c0,-3.069 -1.643,-4.946 -4.794,-4.946c-3.15,0 -4.794,1.877 -4.794,4.946m2.63,0c0,-1.658 0.616,-3.055 2.164,-3.055c1.548,0 2.164,1.397 2.164,3.055c0,1.575 -0.616,3.054 -2.164,3.054c-1.548,0 -2.164,-1.479 -2.164,-3.054m16.232,2.561c-0.699,0.274 -1.548,0.493 -2.383,0.493c-1.863,0 -3.193,-1.137 -3.193,-3.013c0,-1.781 1.179,-3.096 2.987,-3.096c0.877,0 1.671,0.219 2.493,0.671l0.205,-2.068c-0.917,-0.274 -1.862,-0.494 -2.835,-0.494c-3.15,0 -5.479,1.658 -5.479,4.987c0,3.616 2.945,4.904 5.493,4.904c1.3,0 2.109,-0.205 2.836,-0.384l-0.124,-2Zm1.921,2.219l2.548,0l0,-9.561l-2.548,0l0,9.561Zm6.804,-10.068l1.727,0l1.766,-1.972l-2.561,0l-0.932,1.972Zm-2.246,10.068l6.89,0l0,-1.808l-4.342,0l0,-2.164l3.958,0l0,-1.808l-3.958,0l0,-1.973l4.191,0l0,-1.808l-6.739,0l0,9.561Zm8.245,-0.246c0.85,0.274 1.959,0.411 2.85,0.411c2.123,0 4.205,-0.672 4.205,-3.151c0,-3.452 -4.52,-2.41 -4.52,-3.959c0,-0.835 1.069,-0.89 1.712,-0.89c0.726,0 1.466,0.137 2.123,0.438l0.165,-1.972c-0.644,-0.219 -1.548,-0.357 -2.465,-0.357c-1.918,0 -4.165,0.631 -4.165,2.932c0,3.48 4.52,2.356 4.52,4.137c0,0.767 -0.767,0.931 -1.575,0.931c-1.055,0 -1.972,-0.273 -2.63,-0.63l-0.22,2.11Z" style="fill:#fff;fill-rule:nonzero;"/><path d="M71.526,23.774c0.849,0.274 1.958,0.411 2.849,0.411c2.123,0 4.205,-0.671 4.205,-3.15c0,-3.453 -4.52,-2.411 -4.52,-3.96c0,-0.835 1.069,-0.889 1.713,-0.889c0.725,0 1.465,0.136 2.123,0.438l0.164,-1.973c-0.644,-0.219 -1.548,-0.356 -2.466,-0.356c-1.918,0 -4.164,0.63 -4.164,2.931c0,3.48 4.52,2.357 4.52,4.137c0,0.767 -0.767,0.932 -1.575,0.932c-1.055,0 -1.973,-0.274 -2.63,-0.63l-0.219,2.109Zm16.41,-1.973c-0.699,0.274 -1.548,0.494 -2.384,0.494c-1.862,0 -3.191,-1.137 -3.191,-3.014c0,-1.78 1.178,-3.095 2.986,-3.095c0.877,0 1.671,0.218 2.493,0.671l0.206,-2.069c-0.918,-0.274 -1.863,-0.493 -2.836,-0.493c-3.151,0 -5.479,1.657 -5.479,4.986c0,3.617 2.945,4.904 5.493,4.904c1.301,0 2.109,-0.205 2.835,-0.384l-0.123,-2Zm1.287,2.22l2.548,0l0,-4.096l3.014,0l0,4.096l2.547,0l0,-9.561l-2.547,0l0,3.657l-3.014,0l0,-3.657l-2.548,0l0,9.561Zm9.822,0l2.547,0l0,-3.781l0.535,0c0.945,0 1.274,0.411 1.794,2.055l0.548,1.726l2.658,0l-0.932,-2.603c-0.48,-1.165 -0.534,-1.891 -1.356,-2.109l0,-0.028c1.232,-0.288 1.835,-1.137 1.835,-2.411c0,-1.643 -1.383,-2.41 -3.082,-2.41l-4.547,0l0,9.561Zm2.547,-7.754l0.672,0c0.972,0 1.863,0.165 1.863,1.055c0,1.082 -1.041,1.11 -1.863,1.11l-0.672,0l0,-2.165Zm6.301,2.973c0,3.041 1.671,4.945 4.795,4.945c3.122,0 4.794,-1.904 4.794,-4.945c0,-3.068 -1.643,-4.945 -4.794,-4.945c-3.151,0 -4.795,1.877 -4.795,4.945m2.63,0c0,-1.658 0.616,-3.054 2.165,-3.054c1.547,0 2.163,1.396 2.163,3.054c0,1.575 -0.616,3.055 -2.163,3.055c-1.549,0 -2.165,-1.48 -2.165,-3.055m8.315,4.781l6.89,0l0,-1.809l-4.342,0l0,-2.164l3.958,0l0,-1.808l-3.958,0l0,-1.973l4.192,0l0,-1.807l-6.74,0l0,9.561Zm8.438,0l3.479,0c3.26,0 5.658,-1.247 5.658,-4.822c0,-3.699 -2.329,-4.739 -5.658,-4.739l-3.479,0l0,9.561Zm2.548,-7.671l0.986,0c1.862,0 2.972,0.986 2.972,2.89c0,1.904 -1.068,2.89 -2.972,2.89l-0.986,0l0,-5.78Zm8.041,7.671l6.89,0l0,-1.809l-4.343,0l0,-2.164l3.959,0l0,-1.808l-3.959,0l0,-1.973l4.191,0l0,-1.807l-6.738,0l0,9.561Zm8.368,0l2.549,0l0,-3.781l0.533,0c0.945,0 1.274,0.411 1.795,2.055l0.548,1.726l2.657,0l-0.931,-2.603c-0.48,-1.165 -0.535,-1.891 -1.356,-2.109l0,-0.028c1.232,-0.288 1.835,-1.137 1.835,-2.411c0,-1.643 -1.383,-2.41 -3.082,-2.41l-4.548,0l0,9.561Zm2.549,-7.754l0.671,0c0.972,0 1.863,0.165 1.863,1.055c0,1.082 -1.042,1.11 -1.863,1.11l-0.671,0l0,-2.165Z" style="fill:#fff;fill-rule:nonzero;"/></g></svg>