<svg viewBox="0 0 190 65" xmlns="http://www.w3.org/2000/svg" xml:space="preserve" style="fill-rule:evenodd;clip-rule:evenodd;stroke-linejoin:round;stroke-miterlimit:1.41421"><path style="fill:#243588" d="M55.096.176h133.937V51.2H55.096zM0 .281h51.024v51.024H0z"/><path d="M38.153 36.206V24.381l-19.333-.008v-7.112l13.383.008v4.319h5.95v-6.222h-.002v-.004a.906.906 0 0 0-.905-.907c-.014 0-.025.004-.037.005H13.81c-.012-.001-.025-.005-.036-.005-.5 0-.905.406-.905.907l.002.043V27.19l19.332-.009v7.143H18.82v-4.359h-5.949v6.259c0 .5.405.905.905.905v.003h23.465l.009.001c.5 0 .906-.406.906-.907 0-.007-.003-.013-.003-.02" style="fill:#fff;fill-rule:nonzero"/><path d="M.037 56.704h4.395v1.173H1.53v1.834h2.656v1.174H1.53v2.09h2.923v1.173H.037v-7.444ZM5.895 56.704H7.73l2.837 5.567h.021v-5.567h1.43v7.444h-1.825l-2.847-5.567h-.021v5.567h-1.43v-7.444ZM19.486 58.143c-.576-.267-1.322-.395-1.92-.395-1.738 0-2.698 1.173-2.698 2.699 0 1.514.938 2.656 2.528 2.656.405 0 .725-.043.981-.107v-1.941h-1.579v-1.174h3.008v4.011c-.789.213-1.611.384-2.41.384-2.411 0-4.085-1.205-4.085-3.723 0-2.549 1.557-3.978 4.085-3.978.863 0 1.546.118 2.186.309l-.096 1.259Z" style="fill:#243588;fill-rule:nonzero"/><path style="fill:#243588" d="M21.249 56.704h1.493v7.444h-1.493z"/><path d="M24.269 56.704h1.835l2.837 5.567h.021v-5.567h1.43v7.444h-1.825l-2.847-5.567h-.022v5.567h-1.429v-7.444ZM32.047 56.704h4.395v1.173H33.54v1.834h2.656v1.174H33.54v2.09h2.923v1.173h-4.416v-7.444ZM37.979 56.704h4.395v1.173h-2.902v1.834h2.656v1.174h-2.656v2.09h2.923v1.173h-4.416v-7.444ZM45.277 59.882h.491c.736 0 1.578-.106 1.578-1.034 0-.897-.832-.971-1.578-.971h-.491v2.005Zm-1.493-3.178h1.611c1.599 0 3.508-.053 3.508 2.016 0 .874-.586 1.599-1.535 1.727v.022c.405.032.639.437.789.767l1.195 2.913h-1.664l-.896-2.326c-.214-.554-.406-.767-1.035-.767h-.48v3.093h-1.493v-7.445Z" style="fill:#243588;fill-rule:nonzero"/><path style="fill:#243588" d="M50.304 56.704h1.493v7.444h-1.493z"/><path d="M53.323 56.704h1.835l2.837 5.567h.021v-5.567h1.43v7.444h-1.825l-2.847-5.567h-.022v5.567h-1.429v-7.444ZM66.915 58.143c-.576-.267-1.322-.395-1.92-.395-1.738 0-2.698 1.173-2.698 2.699 0 1.514.938 2.656 2.528 2.656.405 0 .725-.043.981-.107v-1.941h-1.579v-1.174h3.008v4.011c-.789.213-1.611.384-2.41.384-2.411 0-4.085-1.205-4.085-3.723 0-2.549 1.557-3.978 4.085-3.978.863 0 1.546.118 2.186.309l-.096 1.259ZM73.126 57.877h-2.133v-1.173h5.759v1.173h-2.133v6.271h-1.493v-6.271ZM77.704 56.704h1.493v3.007h2.987v-3.007h1.493v7.444h-1.493v-3.263h-2.987v3.263h-1.493v-7.444ZM85.408 56.704h4.395v1.173h-2.902v1.834h2.656v1.174h-2.656v2.09h2.923v1.173h-4.416v-7.444ZM94.307 56.704h4.138v1.173H95.8v1.834h2.517v1.174H95.8v3.263h-1.493v-7.444ZM99.588 56.704h1.493v4.298c0 1.269.405 2.101 1.547 2.101 1.141 0 1.546-.832 1.546-2.101v-4.298h1.494v4.757c0 1.994-1.131 2.815-3.04 2.815s-3.04-.821-3.04-2.815v-4.757ZM108.699 57.877h-2.134v-1.173h5.76v1.173h-2.133v6.271h-1.493v-6.271ZM113.224 56.704h1.493v4.298c0 1.269.405 2.101 1.547 2.101 1.141 0 1.546-.832 1.546-2.101v-4.298h1.494v4.757c0 1.994-1.131 2.815-3.04 2.815s-3.04-.821-3.04-2.815v-4.757ZM122.346 59.882h.49c.737 0 1.579-.106 1.579-1.034 0-.897-.832-.971-1.579-.971h-.49v2.005Zm-1.493-3.178h1.61c1.6 0 3.509-.053 3.509 2.016 0 .874-.587 1.599-1.536 1.727v.022c.405.032.64.437.79.767l1.194 2.913h-1.664l-.895-2.326c-.214-.554-.406-.767-1.036-.767h-.479v3.093h-1.493v-7.445ZM127.5 56.704h4.394v1.173h-2.901v1.834h2.655v1.174h-2.655v2.09h2.922v1.173H127.5v-7.444ZM137.753 57.877h-2.134v-1.173h5.76v1.173h-2.133v6.271h-1.493v-6.271ZM145.296 63.103c1.524 0 2.09-1.354 2.09-2.699 0-1.312-.608-2.655-2.09-2.655-1.483 0-2.091 1.343-2.091 2.655 0 1.345.566 2.699 2.091 2.699m0-6.528c2.336 0 3.647 1.579 3.647 3.829 0 2.251-1.291 3.872-3.647 3.872-2.39 0-3.648-1.589-3.648-3.872 0-2.282 1.28-3.829 3.648-3.829M156.391 58.143c-.576-.267-1.322-.395-1.92-.395-1.738 0-2.698 1.173-2.698 2.699 0 1.514.938 2.656 2.527 2.656.405 0 .726-.043.982-.107v-1.941h-1.579v-1.174h3.008v4.011c-.789.213-1.61.384-2.411.384-2.41 0-4.085-1.205-4.085-3.723 0-2.549 1.558-3.978 4.085-3.978.864 0 1.547.118 2.187.309l-.096 1.259ZM158.281 56.704h4.394v1.173h-2.901v1.834h2.655v1.174h-2.655v2.09h2.922v1.173h-4.415v-7.444ZM165.568 57.877h-2.134v-1.173h5.76v1.173h-2.133v6.271h-1.493v-6.271ZM170.147 56.704h1.493v3.007h2.986v-3.007h1.494v7.444h-1.494v-3.263h-2.986v3.263h-1.493v-7.444ZM177.85 56.704h4.394v1.173h-2.901v1.834h2.655v1.174h-2.655v2.09h2.922v1.173h-4.415v-7.444ZM185.148 59.882h.49c.737 0 1.579-.106 1.579-1.034 0-.897-.832-.971-1.579-.971h-.49v2.005Zm-1.493-3.178h1.61c1.6 0 3.509-.053 3.509 2.016 0 .874-.587 1.599-1.536 1.727v.022c.405.032.64.437.79.767l1.194 2.913h-1.664l-.895-2.326c-.214-.554-.406-.767-1.036-.767h-.479v3.093h-1.493v-7.445Z" style="fill:#243588;fill-rule:nonzero"/><path d="M78.868 31.964c-.027.616-.192 1.247-.63 1.726a43.804 43.804 0 0 0-1.644-1.52c1.014-.589 2.055-1.206 2.055-2.411 0-1.781-1.644-2.357-3.315-2.357-1.507 0-3.178.604-3.178 2.288 0 .836.384 1.493 1.15 2.096-1.177.548-1.876 1.274-1.876 2.602 0 1.973 1.795 2.905 3.617 2.905 1.04 0 2.15-.179 2.972-.891.205.219.383.466.575.726h2.726l-1.699-1.89a4.916 4.916 0 0 0 1.466-3.274h-2.219Zm-5.109 2.37c0-.685.329-1.027.862-1.315a33.782 33.782 0 0 1 2.124 2.11c-.48.356-.877.52-1.452.52-.767 0-1.534-.494-1.534-1.315m.589-4.52c0-.48.424-.85 1.014-.85.589 0 1.068.288 1.068.85 0 .629-.699 1.013-1.165 1.287-.383-.302-.917-.74-.917-1.287m11.437 7.314h2.589l.754-2.041h3.589l.712 2.041h2.794l-3.684-9.561h-3.124l-3.63 9.561Zm6.329-3.849h-2.397l1.233-3.739h.027l1.137 3.739Zm4.918 3.603c.849.274 1.958.411 2.849.411 2.123 0 4.205-.672 4.205-3.151 0-3.452-4.52-2.41-4.52-3.959 0-.835 1.068-.89 1.712-.89.726 0 1.466.137 2.123.438l.165-1.972c-.644-.219-1.549-.357-2.466-.357-1.918 0-4.164.631-4.164 2.932 0 3.48 4.52 2.356 4.52 4.137 0 .767-.767.931-1.575.931-1.055 0-1.973-.273-2.63-.63l-.219 2.11Zm8.369 0c.849.274 1.958.411 2.849.411 2.123 0 4.205-.672 4.205-3.151 0-3.452-4.52-2.41-4.52-3.959 0-.835 1.069-.89 1.712-.89.726 0 1.466.137 2.123.438l.164-1.972c-.643-.219-1.547-.357-2.464-.357-1.918 0-4.165.631-4.165 2.932 0 3.48 4.52 2.356 4.52 4.137 0 .767-.767.931-1.575.931-1.055 0-1.972-.273-2.63-.63l-.219 2.11Zm8.205-4.534c0 3.041 1.671 4.945 4.794 4.945 3.123 0 4.794-1.904 4.794-4.945 0-3.069-1.643-4.946-4.794-4.946-3.15 0-4.794 1.877-4.794 4.946m2.63 0c0-1.658.616-3.055 2.164-3.055s2.164 1.397 2.164 3.055c0 1.575-.616 3.054-2.164 3.054s-2.164-1.479-2.164-3.054m16.232 2.561c-.699.274-1.548.493-2.383.493-1.863 0-3.193-1.137-3.193-3.013 0-1.781 1.179-3.096 2.987-3.096.877 0 1.671.219 2.493.671l.205-2.068c-.917-.274-1.862-.494-2.835-.494-3.15 0-5.479 1.658-5.479 4.987 0 3.616 2.945 4.904 5.493 4.904 1.3 0 2.109-.205 2.836-.384l-.124-2Zm1.921 2.219h2.548v-9.561h-2.548v9.561Zm6.804-10.068h1.727l1.766-1.972h-2.561l-.932 1.972Zm-2.246 10.068h6.89V35.32h-4.342v-2.164h3.958v-1.808h-3.958v-1.973h4.191v-1.808h-6.739v9.561Zm8.245-.246c.85.274 1.959.411 2.85.411 2.123 0 4.205-.672 4.205-3.151 0-3.452-4.52-2.41-4.52-3.959 0-.835 1.069-.89 1.712-.89.726 0 1.466.137 2.123.438l.165-1.972c-.644-.219-1.548-.357-2.465-.357-1.918 0-4.165.631-4.165 2.932 0 3.48 4.52 2.356 4.52 4.137 0 .767-.767.931-1.575.931-1.055 0-1.972-.273-2.63-.63l-.22 2.11ZM71.526 23.774c.849.274 1.958.411 2.849.411 2.123 0 4.205-.671 4.205-3.15 0-3.453-4.52-2.411-4.52-3.96 0-.835 1.069-.889 1.713-.889.725 0 1.465.136 2.123.438l.164-1.973c-.644-.219-1.548-.356-2.466-.356-1.918 0-4.164.63-4.164 2.931 0 3.48 4.52 2.357 4.52 4.137 0 .767-.767.932-1.575.932-1.055 0-1.973-.274-2.63-.63l-.219 2.109Zm16.41-1.973c-.699.274-1.548.494-2.384.494-1.862 0-3.191-1.137-3.191-3.014 0-1.78 1.178-3.095 2.986-3.095.877 0 1.671.218 2.493.671l.206-2.069c-.918-.274-1.863-.493-2.836-.493-3.151 0-5.479 1.657-5.479 4.986 0 3.617 2.945 4.904 5.493 4.904 1.301 0 2.109-.205 2.835-.384l-.123-2Zm1.287 2.22h2.548v-4.096h3.014v4.096h2.547V14.46h-2.547v3.657h-3.014V14.46h-2.548v9.561Zm9.822 0h2.547V20.24h.535c.945 0 1.274.411 1.794 2.055l.548 1.726h2.658l-.932-2.603c-.48-1.165-.534-1.891-1.356-2.109v-.028c1.232-.288 1.835-1.137 1.835-2.411 0-1.643-1.383-2.41-3.082-2.41h-4.547v9.561Zm2.547-7.754h.672c.972 0 1.863.165 1.863 1.055 0 1.082-1.041 1.11-1.863 1.11h-.672v-2.165Zm6.301 2.973c0 3.041 1.671 4.945 4.795 4.945 3.122 0 4.794-1.904 4.794-4.945 0-3.068-1.643-4.945-4.794-4.945s-4.795 1.877-4.795 4.945m2.63 0c0-1.658.616-3.054 2.165-3.054 1.547 0 2.163 1.396 2.163 3.054 0 1.575-.616 3.055-2.163 3.055-1.549 0-2.165-1.48-2.165-3.055m8.315 4.781h6.89v-1.809h-4.342v-2.164h3.958V18.24h-3.958v-1.973h4.192V14.46h-6.74v9.561Zm8.438 0h3.479c3.26 0 5.658-1.247 5.658-4.822 0-3.699-2.329-4.739-5.658-4.739h-3.479v9.561Zm2.548-7.671h.986c1.862 0 2.972.986 2.972 2.89 0 1.904-1.068 2.89-2.972 2.89h-.986v-5.78Zm8.041 7.671h6.89v-1.809h-4.343v-2.164h3.959V18.24h-3.959v-1.973h4.191V14.46h-6.738v9.561Zm8.368 0h2.549V20.24h.533c.945 0 1.274.411 1.795 2.055l.548 1.726h2.657l-.931-2.603c-.48-1.165-.535-1.891-1.356-2.109v-.028c1.232-.288 1.835-1.137 1.835-2.411 0-1.643-1.383-2.41-3.082-2.41h-4.548v9.561Zm2.549-7.754h.671c.972 0 1.863.165 1.863 1.055 0 1.082-1.042 1.11-1.863 1.11h-.671v-2.165Z" style="fill:#fff;fill-rule:nonzero"/></svg>