<svg xmlns="http://www.w3.org/2000/svg" xml:space="preserve" width="106.668" height="31.855" viewBox="0 0 106.668 31.855"><defs><clipPath clipPathUnits="userSpaceOnUse" id="a"><path d="M61.771 59.945h80.002v23.891H61.771Z"/></clipPath></defs><g clip-path="url(#a)" style="fill:#0a4267;fill-opacity:1" transform="matrix(1.33333 0 0 -1.33333 -82.362 111.781)"><g style="fill:#0a4267;fill-opacity:1"><path d="M0 0c-1.197 0-3.248-.418-4.154-2.929C-5.159-5.71-7.223-7.124-9.87-7.124c-1.587 0-3.068.532-4.173 1.656a6.135 6.135 0 0 0-1.37 2.206.105.105 0 0 1-.098.069l-2.198.001a.104.104 0 0 1-.101-.13c.364-1.421 1.098-2.768 2.123-3.811 1.555-1.584 3.588-2.467 5.817-2.411 1.827.047 3.481.591 4.937 1.687 1.408 1.059 2.488 2.422 3.049 4.116 0 0 .408 1.363 1.905 1.363h1.445c.057 0 .104.047.104.105v2.168A.105.105 0 0 1 1.466 0Z" style="fill:#0a4267;fill-opacity:1;fill-rule:nonzero;stroke:none" transform="translate(82.927 72.602)"/></g><g style="fill:#0a4267;fill-opacity:1"><path d="m0 0-11.04-9.283a.107.107 0 0 1-.032-.116.106.106 0 0 1 .098-.069h9.145v-.995c0-.042.025-.08.064-.097a.105.105 0 0 1 .114.023l1.95 2.185a.104.104 0 0 1 0 .148l-1.95 2.184a.105.105 0 0 1-.114.023.103.103 0 0 1-.064-.096v-.998h-2.948C-4.462-6.83.109-2.993.109-2.993c.051.048.06.08.06.149L.171-.08A.104.104 0 0 1 0 0" style="fill:#0a4267;fill-opacity:1;fill-rule:nonzero;stroke:none" transform="translate(72.85 79.671)"/></g><g style="fill:#0a4267;fill-opacity:1"><path d="M0 0zm-1.593-1.06c-1.169-3.383-4.953-6.01-8.612-6.01-2.068 0-4.093.627-5.703 1.92a9.25 9.25 0 0 0-3.17 5.066.108.108 0 0 1-.103.083h-2.228a.106.106 0 0 1-.104-.126c1.004-5.438 5.759-9.34 11.308-9.34C-4.725-9.467.14-5.56 1.11-.124c.018.088-.039.124-.104.124H-.09c-1.166 0-1.362-.752-1.503-1.06" style="fill:#0a4267;fill-opacity:1;fill-rule:nonzero;stroke:none" transform="translate(83.287 69.412)"/></g><g style="fill:#0a4267;fill-opacity:1"><path d="m0 0-.435-1.339h-1.408a.102.102 0 0 1-.099-.072.096.096 0 0 1-.006-.033c0-.032.016-.064.043-.084l1.14-.827-.436-1.34a.119.119 0 0 1-.005-.032c0-.033.016-.064.043-.085a.107.107 0 0 1 .123 0l1.139.828 1.139-.828a.107.107 0 0 1 .123 0 .108.108 0 0 1 .043.085.119.119 0 0 1-.005.032l-.435 1.34 1.139.827a.103.103 0 0 1 .038.117.104.104 0 0 1-.1.072H.634L.198 0A.104.104 0 0 1 0 0" style="fill:#0a4267;fill-opacity:1;fill-rule:nonzero;stroke:none" transform="translate(75.756 83.765)"/></g><g style="fill:#0a4267;fill-opacity:1"><path d="M0 0a.105.105 0 0 1-.099-.073l-.435-1.339h-1.408a.103.103 0 0 1-.099-.072.087.087 0 0 1-.006-.032c0-.032.016-.064.044-.084l1.139-.828c-.043-.129-.435-1.339-.435-1.339a.09.09 0 0 1-.006-.032.105.105 0 0 1 .166-.084L0-3.056l1.139-.827a.104.104 0 0 1 .123 0c.028.02.043.051.043.084a.09.09 0 0 1-.005.032L.865-2.428l1.139.828a.103.103 0 0 1 .038.116.103.103 0 0 1-.1.072H.535L.099-.073A.103.103 0 0 1 0 0" style="fill:#0a4267;fill-opacity:1;fill-rule:nonzero;stroke:none" transform="translate(83.057 77.247)"/></g><g style="fill:#0a4267;fill-opacity:1"><path d="m0 0-.435-1.339h-1.408a.103.103 0 0 1-.099-.072.096.096 0 0 1-.006-.033c0-.032.016-.064.043-.084l1.14-.828-.436-1.339a.106.106 0 0 1 .038-.117.107.107 0 0 1 .123 0l1.139.828 1.139-.828a.107.107 0 0 1 .123 0c.028.02.043.052.043.084a.088.088 0 0 1-.006.033L.964-2.356l1.139.828a.106.106 0 0 1 .038.117.104.104 0 0 1-.099.072H.634L.198 0A.104.104 0 0 1 0 0" style="fill:#0a4267;fill-opacity:1;fill-rule:nonzero;stroke:none" transform="translate(80.156 81.373)"/></g><g style="fill:#0a4267;fill-opacity:1"><path d="M0 0h-3.153a.106.106 0 0 0-.099.069.107.107 0 0 0 .032.116L7.82 9.468a.103.103 0 0 0 .11.014.103.103 0 0 0 .06-.094l-.002-2.764c0-.07-.008-.1-.059-.149C7.929 6.475.598.34.282.08.21.021.147 0 0 0" style="fill:#0a4267;fill-opacity:1;fill-rule:nonzero;stroke:none" transform="translate(65.031 74.32)"/></g><g style="fill:#0a4267;fill-opacity:1"><path d="M0 0c1.016-.519 2.576-1.04 4.186-1.04 1.734 0 2.651.718 2.651 1.808 0 1.041-.793 1.635-2.799 2.353-2.774.966-4.582 2.502-4.582 4.93 0 2.849 2.378 5.028 6.316 5.028 1.882 0 3.269-.396 4.261-.842l-.842-3.046a7.964 7.964 0 0 1-3.494.792c-1.634 0-2.427-.743-2.427-1.61 0-1.065.942-1.536 3.096-2.353 2.948-1.09 4.335-2.626 4.335-4.98 0-2.799-2.154-5.201-6.737-5.201-1.908 0-3.79.52-4.732 1.039z" style="fill:#0a4267;fill-opacity:1;fill-rule:nonzero;stroke:none" transform="translate(96.99 67.427)"/></g><g style="fill:#0a4267;fill-opacity:1"><path d="M0 0h-6.142v-3.964h6.86V-7.06h-10.65V9.636H.373V6.54h-6.515V3.072H0Z" style="fill:#0a4267;fill-opacity:1;fill-rule:nonzero;stroke:none" transform="translate(120.181 70.597)"/></g><g style="fill:#0a4267;fill-opacity:1"><path d="M0 0c0-3.27 1.537-5.573 4.062-5.573 2.551 0 4.014 2.428 4.014 5.673 0 2.997-1.436 5.573-4.039 5.573C1.486 5.673 0 3.245 0 0m12.063.223c0-5.474-3.32-8.793-8.199-8.793-4.953 0-7.852 3.74-7.852 8.497 0 5.003 3.195 8.743 8.125 8.743 5.126 0 7.926-3.839 7.926-8.447" style="fill:#0a4267;fill-opacity:1;fill-rule:nonzero;stroke:none" transform="translate(126.705 71.835)"/></g><path d="M90.591 83.837h.29V59.945h-.29zM144.018 83.837h.291V59.945h-.291z" style="fill:#0a4267;fill-opacity:1;fill-rule:nonzero;stroke:none"/><g style="fill:#0a4267;fill-opacity:1"><path d="M0 0a3.595 3.595 0 0 1 1.562-.388c.648 0 .989.268.989.675 0 .388-.295.61-1.044.878-1.035.361-1.71.934-1.71 1.84 0 1.063.887 1.876 2.357 1.876.703 0 1.22-.148 1.591-.314L3.43 3.43c-.25.12-.694.296-1.304.296-.61 0-.906-.278-.906-.602 0-.397.352-.572 1.155-.877C3.476 1.84 3.994 1.266 3.994.388c0-1.045-.804-1.941-2.515-1.941-.712 0-1.414.194-1.766.388z" style="fill:#0a4267;fill-opacity:1;fill-rule:nonzero;stroke:none" transform="translate(150.264 75.465)"/></g><g style="fill:#0a4267;fill-opacity:1"><path d="M0 0c0-.777.324-1.359.925-1.359.545 0 .896.545.896 1.359 0 .675-.259 1.359-.896 1.359C.25 1.359 0 .666 0 0m3.273.046c0-1.655-1.174-2.413-2.385-2.413-1.323 0-2.339.869-2.339 2.33S-.49 2.357.961 2.357c1.387 0 2.312-.952 2.312-2.311" style="fill:#0a4267;fill-opacity:1;fill-rule:nonzero;stroke:none" transform="translate(156.424 76.279)"/></g><g style="fill:#0a4267;fill-opacity:1"><path d="M0 0c-.25-.111-.721-.213-1.258-.213-1.461 0-2.394.897-2.394 2.321 0 1.322.906 2.404 2.588 2.404.37 0 .778-.065 1.072-.175l-.221-1.046c-.167.074-.416.139-.785.139-.741 0-1.221-.527-1.212-1.267 0-.831.555-1.266 1.239-1.266.333 0 .591.055.804.148z" style="fill:#0a4267;fill-opacity:1;fill-rule:nonzero;stroke:none" transform="translate(163.99 74.124)"/></g><path d="M164.768 78.534h1.405v-4.521h-1.405zm1.451 1.257c0-.388-.296-.702-.758-.702-.444 0-.74.314-.731.702-.009.407.287.712.74.712s.74-.305.749-.712" style="fill:#0a4267;fill-opacity:1;fill-rule:nonzero;stroke:none"/><g style="fill:#0a4267;fill-opacity:1"><path d="m0 0-1.128-1.406h-.971L-1.303 0Zm-.777-3.717c0 .343-.148.916-.794.916-.592 0-.833-.536-.87-.916zm-1.655-.961c.047-.582.62-.86 1.276-.86.481 0 .87.065 1.249.185l.185-.952c-.463-.185-1.027-.287-1.637-.287-1.535 0-2.413.897-2.413 2.311 0 1.147.712 2.413 2.283 2.413 1.462 0 2.015-1.137 2.015-2.256 0-.24-.027-.453-.046-.554z" style="fill:#0a4267;fill-opacity:1;fill-rule:nonzero;stroke:none" transform="translate(170.815 80.504)"/></g><g style="fill:#0a4267;fill-opacity:1"><path d="M0 0v-1.23h1.008v-1.035H0v-1.636c0-.546.13-.796.555-.796.194 0 .277.01.416.038l.01-1.063c-.186-.075-.519-.13-.916-.13-.453 0-.832.166-1.054.398-.259.267-.388.702-.388 1.34v1.849h-.601v1.035h.601v.851z" style="fill:#0a4267;fill-opacity:1;fill-rule:nonzero;stroke:none" transform="translate(173.757 79.764)"/></g><g style="fill:#0a4267;fill-opacity:1"><path d="m0 0-1.128-1.406h-.971L-1.303 0Zm-.777-3.717c0 .343-.147.916-.794.916-.592 0-.833-.536-.87-.916zm-1.654-.961c.046-.582.619-.86 1.276-.86.48 0 .869.065 1.248.185l.184-.952c-.461-.185-1.026-.287-1.636-.287-1.535 0-2.413.897-2.413 2.311 0 1.147.712 2.413 2.284 2.413 1.46 0 2.015-1.137 2.015-2.256 0-.24-.028-.453-.046-.554z" style="fill:#0a4267;fill-opacity:1;fill-rule:nonzero;stroke:none" transform="translate(179.048 80.504)"/></g><g style="fill:#0a4267;fill-opacity:1"><path d="M0 0h-2.293v-1.479H.268v-1.156h-3.975v6.232H.138V2.441h-2.431V1.147H0Z" style="fill:#0a4267;fill-opacity:1;fill-rule:nonzero;stroke:none" transform="translate(186.041 76.648)"/></g><path d="M187.264 80.577h1.405v-6.564h-1.405z" style="fill:#0a4267;fill-opacity:1;fill-rule:nonzero;stroke:none"/><g style="fill:#0a4267;fill-opacity:1"><path d="M0 0c0 .342-.148.915-.796.915-.591 0-.831-.536-.868-.915Zm-1.655-.962c.046-.582.62-.859 1.276-.859.481 0 .869.065 1.248.185l.185-.952C.592-2.773.028-2.875-.583-2.875c-1.534 0-2.412.896-2.412 2.311 0 1.146.711 2.413 2.283 2.413 1.461 0 2.015-1.137 2.015-2.256 0-.24-.028-.453-.046-.555z" style="fill:#0a4267;fill-opacity:1;fill-rule:nonzero;stroke:none" transform="translate(192.544 76.787)"/></g><g style="fill:#0a4267;fill-opacity:1"><path d="M0 0c-.25-.111-.721-.213-1.258-.213-1.46 0-2.394.897-2.394 2.321 0 1.322.906 2.404 2.589 2.404.369 0 .776-.065 1.072-.175l-.222-1.046c-.166.074-.416.139-.786.139-.739 0-1.22-.527-1.211-1.267 0-.831.555-1.266 1.239-1.266.332 0 .592.055.804.148z" style="fill:#0a4267;fill-opacity:1;fill-rule:nonzero;stroke:none" transform="translate(198.084 74.124)"/></g><g style="fill:#0a4267;fill-opacity:1"><path d="M0 0v-1.23h1.008v-1.035H0v-1.636c0-.546.13-.796.555-.796.194 0 .277.01.416.038L.98-5.722c-.185-.075-.518-.13-.915-.13-.454 0-.832.166-1.054.398-.259.267-.389.702-.389 1.34v1.849h-.6v1.035h.6v.851z" style="fill:#0a4267;fill-opacity:1;fill-rule:nonzero;stroke:none" transform="translate(200.583 79.764)"/></g><g style="fill:#0a4267;fill-opacity:1"><path d="M0 0c0 .666-.019 1.1-.037 1.488h1.212l.046-.832h.037c.231.656.786.934 1.22.934.129 0 .194 0 .296-.019V.24a1.406 1.406 0 0 1-.38.046c-.517 0-.869-.277-.961-.711a1.63 1.63 0 0 1-.027-.315v-2.292H0Z" style="fill:#0a4267;fill-opacity:1;fill-rule:nonzero;stroke:none" transform="translate(202.405 77.046)"/></g><path d="M205.921 78.534h1.405v-4.521h-1.405zm1.451 1.257c0-.388-.296-.702-.758-.702-.443 0-.739.314-.731.702-.008.407.288.712.741.712.452 0 .739-.305.748-.712" style="fill:#0a4267;fill-opacity:1;fill-rule:nonzero;stroke:none"/><g style="fill:#0a4267;fill-opacity:1"><path d="M0 0c0 .074-.009.157-.027.231-.074.361-.379.675-.804.675-.648 0-.971-.546-.971-1.276 0-.758.361-1.248.952-1.248.398 0 .721.268.813.638.028.092.037.213.037.305Zm0-2.062h-.018c-.287-.425-.74-.665-1.341-.665-.98 0-1.876.859-1.876 2.302 0 1.617 1.035 2.422 1.997 2.422.582 0 1.007-.213 1.257-.629h.018l.038.527h1.359c-.01-.434-.029-.887-.029-1.359v-4.992H0Z" style="fill:#0a4267;fill-opacity:1;fill-rule:nonzero;stroke:none" transform="translate(211.432 76.639)"/></g><g style="fill:#0a4267;fill-opacity:1"><path d="M0 0c0-.592.018-1.072.036-1.451h-1.22l-.064.638h-.028c-.177-.278-.602-.74-1.415-.74-.915 0-1.591.573-1.591 1.969v2.653h1.415V.638c0-.657.213-1.054.703-1.054.389 0 .61.268.703.49a.803.803 0 0 1 .046.305v2.69H0Z" style="fill:#0a4267;fill-opacity:1;fill-rule:nonzero;stroke:none" transform="translate(218.221 75.465)"/></g><g style="fill:#0a4267;fill-opacity:1"><path d="M0 0c0 .342-.148.915-.795.915-.591 0-.832-.536-.869-.915Zm-1.655-.962c.047-.582.62-.859 1.276-.859.481 0 .869.065 1.248.185l.185-.952C.592-2.773.028-2.875-.582-2.875c-1.535 0-2.413.896-2.413 2.311 0 1.146.712 2.413 2.283 2.413 1.461 0 2.016-1.137 2.016-2.256 0-.24-.028-.453-.046-.555z" style="fill:#0a4267;fill-opacity:1;fill-rule:nonzero;stroke:none" transform="translate(222.088 76.787)"/></g><g style="fill:#0a4267;fill-opacity:1"><path d="M0 0c0 .074-.009.175-.018.25-.083.379-.388.693-.823.693-.638 0-.971-.573-.971-1.285 0-.767.379-1.248.962-1.248.406 0 .73.278.813.675.028.101.037.203.037.323Zm1.406 3.957v-5.214c0-.509.018-1.045.036-1.35H.195l-.065.666H.111c-.286-.509-.831-.768-1.414-.768-1.073 0-1.932.916-1.932 2.32-.01 1.526.943 2.404 2.024 2.404.555 0 .989-.194 1.193-.508H0v2.45z" style="fill:#0a4267;fill-opacity:1;fill-rule:nonzero;stroke:none" transform="translate(153.148 66.155)"/></g><g style="fill:#0a4267;fill-opacity:1"><path d="M0 0c0 .343-.148.915-.795.915-.592 0-.832-.536-.869-.915Zm-1.655-.962c.046-.581.619-.859 1.276-.859.481 0 .869.065 1.248.185l.185-.952C.591-2.773.028-2.875-.583-2.875c-1.534 0-2.412.896-2.412 2.311 0 1.146.712 2.413 2.283 2.413 1.461 0 2.015-1.137 2.015-2.256a3.3 3.3 0 0 0-.046-.555z" style="fill:#0a4267;fill-opacity:1;fill-rule:nonzero;stroke:none" transform="translate(158.421 66.321)"/></g><path d="M162.437 70.112h1.405v-6.564h-1.405z" style="fill:#0a4267;fill-opacity:1;fill-rule:nonzero;stroke:none"/><g style="fill:#0a4267;fill-opacity:1"><path d="M0 0a12.461 12.461 0 0 0-1.11-2.496l-.85-.084c.277.796.518 1.684.637 2.497z" style="fill:#0a4267;fill-opacity:1;fill-rule:nonzero;stroke:none" transform="translate(166.654 69.945)"/></g><g style="fill:#0a4267;fill-opacity:1"><path d="M0 0c0-1.221.573-2.08 1.516-2.08.952 0 1.498.906 1.498 2.117 0 1.119-.536 2.08-1.507 2.08C.555 2.117 0 1.211 0 0m4.502.083c0-2.043-1.238-3.282-3.06-3.282-1.849 0-2.93 1.397-2.93 3.172 0 1.867 1.193 3.263 3.031 3.263 1.914 0 2.959-1.433 2.959-3.153" style="fill:#0a4267;fill-opacity:1;fill-rule:nonzero;stroke:none" transform="translate(168.347 66.645)"/></g><g style="fill:#0a4267;fill-opacity:1"><path d="M0 0c0-.592.018-1.072.037-1.451h-1.22l-.065.638h-.028c-.176-.278-.601-.74-1.414-.74-.916 0-1.591.573-1.591 1.969V3.07h1.415V.638c0-.657.212-1.054.703-1.054.388 0 .61.268.703.49a.806.806 0 0 1 .045.305V3.07H0Z" style="fill:#0a4267;fill-opacity:1;fill-rule:nonzero;stroke:none" transform="translate(178.04 65)"/></g><g style="fill:#0a4267;fill-opacity:1"><path d="M0 0c0 .666-.019 1.1-.037 1.489h1.212l.046-.833h.037c.231.657.786.934 1.22.934.13 0 .194 0 .296-.018V.24a1.4 1.4 0 0 1-.379.047c-.518 0-.87-.278-.962-.712a1.709 1.709 0 0 1-.028-.315v-2.292H0Z" style="fill:#0a4267;fill-opacity:1;fill-rule:nonzero;stroke:none" transform="translate(179.17 66.58)"/></g></g></svg>