<?xml version="1.0" encoding="UTF-8" standalone="no"?>
<!-- Created with Inkscape (http://www.inkscape.org/) -->

<svg
   xmlns:dc="http://purl.org/dc/elements/1.1/"
   xmlns:cc="http://creativecommons.org/ns#"
   xmlns:rdf="http://www.w3.org/1999/02/22-rdf-syntax-ns#"
   xmlns:svg="http://www.w3.org/2000/svg"
   xmlns="http://www.w3.org/2000/svg"
   xmlns:sodipodi="http://sodipodi.sourceforge.net/DTD/sodipodi-0.dtd"
   xmlns:inkscape="http://www.inkscape.org/namespaces/inkscape"
   version="1.1"
   id="svg2"
   xml:space="preserve"
   width="106.66831"
   height="31.854666"
   viewBox="0 0 106.66831 31.854666"
   sodipodi:docname="seo.svg"
   inkscape:version="0.92.5 (2060ec1f9f, 2020-04-08)"><metadata
     id="metadata8"><rdf:RDF><cc:Work
         rdf:about=""><dc:format>image/svg+xml</dc:format><dc:type
           rdf:resource="http://purl.org/dc/dcmitype/StillImage" /><dc:title></dc:title></cc:Work></rdf:RDF></metadata><defs
     id="defs6"><clipPath
       clipPathUnits="userSpaceOnUse"
       id="clipPath20"><path
         d="M 15,15 H 564.921 V 329.646 H 15 Z"
         id="path18"
         inkscape:connector-curvature="0" /></clipPath><clipPath
       clipPathUnits="userSpaceOnUse"
       id="clipPath28"><path
         d="M 14,330.646 H 565.921 V 14 H 14 Z"
         id="path26"
         inkscape:connector-curvature="0" /></clipPath><clipPath
       clipPathUnits="userSpaceOnUse"
       id="clipPath32"><path
         d="M 15,15 H 564.921 V 329.646 H 15 Z"
         id="path30"
         inkscape:connector-curvature="0" /></clipPath><linearGradient
       x1="0"
       y1="0"
       x2="1"
       y2="0"
       gradientUnits="userSpaceOnUse"
       gradientTransform="matrix(0,238.91429,238.91429,0,390.04831,42.430904)"
       spreadMethod="pad"
       id="linearGradient40"><stop
         style="stop-opacity:1;stop-color:#0a3455"
         offset="0"
         id="stop34" /><stop
         style="stop-opacity:1;stop-color:#ffffff"
         offset="0.89603326"
         id="stop36" /><stop
         style="stop-opacity:1;stop-color:#ffffff"
         offset="1"
         id="stop38" /></linearGradient><clipPath
       clipPathUnits="userSpaceOnUse"
       id="clipPath62"><path
         d="M 14,330.646 H 565.921 V 161.402 H 14 Z"
         id="path60"
         inkscape:connector-curvature="0" /></clipPath><clipPath
       clipPathUnits="userSpaceOnUse"
       id="clipPath66"><path
         d="M 15,162.402 H 564.921 V 329.646 H 15 Z"
         id="path64"
         inkscape:connector-curvature="0" /></clipPath><clipPath
       clipPathUnits="userSpaceOnUse"
       id="clipPath86"><path
         d="m 61.771,59.945 h 80.002 V 83.836 H 61.771 Z"
         id="path84"
         inkscape:connector-curvature="0" /></clipPath><clipPath
       clipPathUnits="userSpaceOnUse"
       id="clipPath304"><path
         d="M 0,0 H 579.921 V 344.646 H 0 Z"
         id="path302"
         inkscape:connector-curvature="0" /></clipPath><clipPath
       clipPathUnits="userSpaceOnUse"
       id="clipPath328"><path
         d="M 0,0 H 579.921 V 344.646 H 0 Z"
         id="path326"
         inkscape:connector-curvature="0" /></clipPath></defs><sodipodi:namedview
     pagecolor="#ffffff"
     bordercolor="#666666"
     borderopacity="1"
     objecttolerance="10"
     gridtolerance="10"
     guidetolerance="10"
     inkscape:pageopacity="0"
     inkscape:pageshadow="2"
     inkscape:window-width="1920"
     inkscape:window-height="1055"
     id="namedview4"
     showgrid="false"
     inkscape:zoom="5.8103861"
     inkscape:cx="73.921726"
     inkscape:cy="1.6519654"
     inkscape:window-x="0"
     inkscape:window-y="0"
     inkscape:window-maximized="1"
     inkscape:current-layer="g10" /><g
     id="g10"
     inkscape:groupmode="layer"
     inkscape:label="SEO_ADAPT_ANN_BROCHURE_GROUPEMENT_ETUDIANTS_gtp"
     transform="matrix(1.3333333,0,0,-1.3333333,-82.362352,111.78133)"><g
       id="g80"
       style="fill:#0a4267;fill-opacity:1"><g
         id="g82"
         clip-path="url(#clipPath86)"
         style="fill:#0a4267;fill-opacity:1"><g
           id="g88"
           transform="translate(82.9274,72.6024)"
           style="fill:#0a4267;fill-opacity:1"><path
             d="m 0,0 c -1.197,0 -3.248,-0.418 -4.154,-2.929 -1.005,-2.781 -3.069,-4.195 -5.716,-4.195 -1.587,0 -3.068,0.532 -4.173,1.656 -0.605,0.616 -1.077,1.39 -1.37,2.206 -0.015,0.041 -0.054,0.069 -0.098,0.069 l -2.198,10e-4 c -0.032,0 -0.063,-0.015 -0.082,-0.04 -0.02,-0.026 -0.027,-0.059 -0.019,-0.09 0.364,-1.421 1.098,-2.768 2.123,-3.811 1.555,-1.584 3.588,-2.467 5.817,-2.411 1.827,0.047 3.481,0.591 4.937,1.687 1.408,1.059 2.488,2.422 3.049,4.116 0,0 0.408,1.363 1.905,1.363 h 1.445 c 0.057,0 0.104,0.047 0.104,0.105 v 2.168 C 1.57,-0.047 1.523,0 1.466,0 Z"
             style="fill:#0a4267;fill-opacity:1;fill-rule:nonzero;stroke:none"
             id="path90"
             inkscape:connector-curvature="0" /></g><g
           id="g92"
           transform="translate(72.8495,79.6712)"
           style="fill:#0a4267;fill-opacity:1"><path
             d="m 0,0 -11.04,-9.283 c -0.034,-0.029 -0.046,-0.075 -0.032,-0.116 0.015,-0.041 0.055,-0.069 0.098,-0.069 h 9.145 v -0.995 c 0,-0.042 0.025,-0.08 0.064,-0.097 0.039,-0.016 0.084,-0.007 0.114,0.023 l 1.95,2.185 c 0.02,0.02 0.031,0.047 0.031,0.074 0,0.028 -0.011,0.054 -0.031,0.074 l -1.95,2.184 c -0.03,0.03 -0.075,0.039 -0.114,0.023 -0.039,-0.016 -0.064,-0.054 -0.064,-0.096 v -0.998 h -2.948 c 0.315,0.261 4.886,4.098 4.886,4.098 0.051,0.048 0.06,0.08 0.06,0.149 l 0.002,2.764 c 0,0.04 -0.024,0.077 -0.06,0.094 C 0.074,0.031 0.031,0.026 0,0"
             style="fill:#0a4267;fill-opacity:1;fill-rule:nonzero;stroke:none"
             id="path94"
             inkscape:connector-curvature="0" /></g><g
           id="g96"
           transform="translate(83.2866,69.4118)"
           style="fill:#0a4267;fill-opacity:1"><path
             d="m 0,0 z m -1.593,-1.06 c -1.169,-3.383 -4.953,-6.01 -8.612,-6.01 -2.068,0 -4.093,0.627 -5.703,1.92 -1.586,1.276 -2.714,3.103 -3.17,5.066 -0.011,0.048 -0.054,0.082 -0.103,0.083 h -2.228 c -0.031,0 -0.061,-0.014 -0.081,-0.038 -0.02,-0.025 -0.029,-0.056 -0.023,-0.088 1.004,-5.438 5.759,-9.34 11.308,-9.34 5.48,0 10.345,3.907 11.315,9.343 C 1.128,-0.036 1.071,0 1.006,0 H -0.09 c -1.166,0 -1.362,-0.752 -1.503,-1.06"
             style="fill:#0a4267;fill-opacity:1;fill-rule:nonzero;stroke:none"
             id="path98"
             inkscape:connector-curvature="0" /></g><g
           id="g100"
           transform="translate(75.7558,83.7648)"
           style="fill:#0a4267;fill-opacity:1"><path
             d="m 0,0 c 0,0 -0.393,-1.209 -0.435,-1.339 h -1.408 c -0.046,0 -0.086,-0.029 -0.099,-0.072 -0.004,-0.011 -0.006,-0.022 -0.006,-0.033 0,-0.032 0.016,-0.064 0.043,-0.084 0,0 1.029,-0.747 1.14,-0.827 -0.042,-0.131 -0.436,-1.34 -0.436,-1.34 -0.003,-0.011 -0.005,-0.021 -0.005,-0.032 0,-0.033 0.016,-0.064 0.043,-0.085 0.037,-0.026 0.086,-0.026 0.123,0 0,0 1.029,0.748 1.139,0.828 0.111,-0.08 1.139,-0.828 1.139,-0.828 0.037,-0.026 0.086,-0.026 0.123,0 0.027,0.021 0.043,0.052 0.043,0.085 0,0.011 -0.002,0.021 -0.005,0.032 0,0 -0.393,1.209 -0.435,1.34 0.11,0.08 1.139,0.827 1.139,0.827 0.028,0.02 0.043,0.052 0.043,0.084 0,0.011 -0.002,0.022 -0.005,0.033 -0.014,0.043 -0.054,0.072 -0.1,0.072 H 0.634 C 0.591,-1.209 0.198,0 0.198,0 0.184,0.043 0.145,0.072 0.099,0.072 0.054,0.072 0.014,0.043 0,0"
             style="fill:#0a4267;fill-opacity:1;fill-rule:nonzero;stroke:none"
             id="path102"
             inkscape:connector-curvature="0" /></g><g
           id="g104"
           transform="translate(83.0569,77.2469)"
           style="fill:#0a4267;fill-opacity:1"><path
             d="m 0,0 c -0.045,0 -0.085,-0.03 -0.099,-0.073 0,0 -0.393,-1.208 -0.435,-1.339 h -1.408 c -0.045,0 -0.085,-0.028 -0.099,-0.072 -0.004,-0.01 -0.006,-0.021 -0.006,-0.032 0,-0.032 0.016,-0.064 0.044,-0.084 0,0 1.028,-0.747 1.139,-0.828 -0.043,-0.129 -0.435,-1.339 -0.435,-1.339 -0.004,-0.01 -0.006,-0.022 -0.006,-0.032 0,-0.033 0.016,-0.064 0.043,-0.084 0.037,-0.027 0.086,-0.027 0.123,0 0,0 1.029,0.747 1.139,0.827 0.111,-0.08 1.139,-0.827 1.139,-0.827 0.037,-0.027 0.086,-0.027 0.123,0 0.028,0.02 0.043,0.051 0.043,0.084 0,0.01 -10e-4,0.022 -0.005,0.032 0,0 -0.393,1.21 -0.435,1.339 0.11,0.081 1.139,0.828 1.139,0.828 0.028,0.02 0.043,0.052 0.043,0.084 0,0.011 -0.002,0.022 -0.005,0.032 -0.014,0.044 -0.054,0.072 -0.1,0.072 H 0.535 C 0.492,-1.281 0.099,-0.073 0.099,-0.073 0.086,-0.03 0.046,0 0,0"
             style="fill:#0a4267;fill-opacity:1;fill-rule:nonzero;stroke:none"
             id="path106"
             inkscape:connector-curvature="0" /></g><g
           id="g108"
           transform="translate(80.156,81.3734)"
           style="fill:#0a4267;fill-opacity:1"><path
             d="m 0,0 c 0,0 -0.393,-1.209 -0.435,-1.339 h -1.408 c -0.046,0 -0.085,-0.029 -0.099,-0.072 -0.004,-0.011 -0.006,-0.022 -0.006,-0.033 0,-0.032 0.016,-0.064 0.043,-0.084 0,0 1.029,-0.748 1.14,-0.828 -0.042,-0.13 -0.436,-1.339 -0.436,-1.339 -0.003,-0.01 -0.005,-0.021 -0.005,-0.033 0,-0.032 0.016,-0.064 0.043,-0.084 0.037,-0.026 0.087,-0.026 0.123,0 0,0 1.029,0.748 1.139,0.828 0.111,-0.08 1.139,-0.828 1.139,-0.828 0.037,-0.026 0.087,-0.026 0.123,0 0.028,0.02 0.043,0.052 0.043,0.084 0,0.012 -0.002,0.023 -0.006,0.033 0,0 -0.392,1.209 -0.434,1.339 0.11,0.08 1.139,0.828 1.139,0.828 0.027,0.02 0.043,0.052 0.043,0.084 0,0.011 -0.002,0.022 -0.005,0.033 -0.014,0.043 -0.054,0.072 -0.099,0.072 H 0.634 C 0.591,-1.209 0.198,0 0.198,0 0.184,0.043 0.144,0.072 0.099,0.072 0.054,0.072 0.014,0.043 0,0"
             style="fill:#0a4267;fill-opacity:1;fill-rule:nonzero;stroke:none"
             id="path110"
             inkscape:connector-curvature="0" /></g><g
           id="g112"
           transform="translate(65.031,74.3191)"
           style="fill:#0a4267;fill-opacity:1"><path
             d="M 0,0 H -3.153 C -3.197,0 -3.236,0.027 -3.252,0.069 -3.266,0.11 -3.254,0.156 -3.22,0.185 L 7.82,9.468 C 7.851,9.494 7.894,9.499 7.93,9.482 7.967,9.465 7.99,9.428 7.99,9.388 L 7.988,6.624 c 0,-0.07 -0.008,-0.1 -0.059,-0.149 0,0 -7.331,-6.135 -7.647,-6.395 C 0.21,0.021 0.147,0 0,0"
             style="fill:#0a4267;fill-opacity:1;fill-rule:nonzero;stroke:none"
             id="path114"
             inkscape:connector-curvature="0" /></g><g
           id="g116"
           transform="translate(96.9892,67.4265)"
           style="fill:#0a4267;fill-opacity:1"><path
             d="m 0,0 c 1.016,-0.519 2.576,-1.04 4.186,-1.04 1.734,0 2.651,0.718 2.651,1.808 0,1.041 -0.793,1.635 -2.799,2.353 -2.774,0.966 -4.582,2.502 -4.582,4.93 0,2.849 2.378,5.028 6.316,5.028 1.882,0 3.269,-0.396 4.261,-0.842 L 9.191,9.191 C 8.521,9.512 7.332,9.983 5.697,9.983 4.063,9.983 3.27,9.24 3.27,8.373 3.27,7.308 4.212,6.837 6.366,6.02 9.314,4.93 10.701,3.394 10.701,1.04 c 0,-2.799 -2.154,-5.201 -6.737,-5.201 -1.908,0 -3.79,0.52 -4.732,1.039 z"
             style="fill:#0a4267;fill-opacity:1;fill-rule:nonzero;stroke:none"
             id="path118"
             inkscape:connector-curvature="0" /></g><g
           id="g120"
           transform="translate(120.1812,70.5974)"
           style="fill:#0a4267;fill-opacity:1"><path
             d="m 0,0 h -6.142 v -3.964 h 6.86 V -7.06 H -9.932 V 9.636 H 0.373 V 6.54 H -6.142 V 3.072 H 0 Z"
             style="fill:#0a4267;fill-opacity:1;fill-rule:nonzero;stroke:none"
             id="path122"
             inkscape:connector-curvature="0" /></g><g
           id="g124"
           transform="translate(126.7049,71.8354)"
           style="fill:#0a4267;fill-opacity:1"><path
             d="m 0,0 c 0,-3.27 1.537,-5.573 4.062,-5.573 2.551,0 4.014,2.428 4.014,5.673 0,2.997 -1.436,5.573 -4.039,5.573 C 1.486,5.673 0,3.245 0,0 m 12.063,0.223 c 0,-5.474 -3.32,-8.793 -8.199,-8.793 -4.953,0 -7.852,3.74 -7.852,8.497 0,5.003 3.195,8.743 8.125,8.743 5.126,0 7.926,-3.839 7.926,-8.447"
             style="fill:#0a4267;fill-opacity:1;fill-rule:nonzero;stroke:none"
             id="path126"
             inkscape:connector-curvature="0" /></g><path
           d="m 90.591,83.837 h 0.29 V 59.945 h -0.29 z"
           style="fill:#0a4267;fill-opacity:1;fill-rule:nonzero;stroke:none"
           id="path128"
           inkscape:connector-curvature="0" /><path
           d="m 144.018,83.837 h 0.291 V 59.945 h -0.291 z"
           style="fill:#0a4267;fill-opacity:1;fill-rule:nonzero;stroke:none"
           id="path130"
           inkscape:connector-curvature="0" /><g
           id="g132"
           transform="translate(150.264,75.4648)"
           style="fill:#0a4267;fill-opacity:1"><path
             d="m 0,0 c 0.379,-0.194 0.961,-0.388 1.562,-0.388 0.648,0 0.989,0.268 0.989,0.675 0,0.388 -0.295,0.61 -1.044,0.878 -1.035,0.361 -1.71,0.934 -1.71,1.84 0,1.063 0.887,1.876 2.357,1.876 0.703,0 1.22,-0.148 1.591,-0.314 L 3.43,3.43 C 3.18,3.55 2.736,3.726 2.126,3.726 1.516,3.726 1.22,3.448 1.22,3.124 1.22,2.727 1.572,2.552 2.375,2.247 3.476,1.84 3.994,1.266 3.994,0.388 c 0,-1.045 -0.804,-1.941 -2.515,-1.941 -0.712,0 -1.414,0.194 -1.766,0.388 z"
             style="fill:#0a4267;fill-opacity:1;fill-rule:nonzero;stroke:none"
             id="path134"
             inkscape:connector-curvature="0" /></g><g
           id="g136"
           transform="translate(156.4237,76.2787)"
           style="fill:#0a4267;fill-opacity:1"><path
             d="m 0,0 c 0,-0.777 0.324,-1.359 0.925,-1.359 0.545,0 0.896,0.545 0.896,1.359 0,0.675 -0.259,1.359 -0.896,1.359 C 0.25,1.359 0,0.666 0,0 m 3.273,0.046 c 0,-1.655 -1.174,-2.413 -2.385,-2.413 -1.323,0 -2.339,0.869 -2.339,2.33 0,1.461 0.961,2.394 2.412,2.394 1.387,0 2.312,-0.952 2.312,-2.311"
             style="fill:#0a4267;fill-opacity:1;fill-rule:nonzero;stroke:none"
             id="path138"
             inkscape:connector-curvature="0" /></g><g
           id="g140"
           transform="translate(163.9893,74.1241)"
           style="fill:#0a4267;fill-opacity:1"><path
             d="m 0,0 c -0.25,-0.111 -0.721,-0.213 -1.258,-0.213 -1.461,0 -2.394,0.897 -2.394,2.321 0,1.322 0.906,2.404 2.588,2.404 0.37,0 0.778,-0.065 1.072,-0.175 L -0.213,3.291 C -0.38,3.365 -0.629,3.43 -0.998,3.43 c -0.741,0 -1.221,-0.527 -1.212,-1.267 0,-0.831 0.555,-1.266 1.239,-1.266 0.333,0 0.591,0.055 0.804,0.148 z"
             style="fill:#0a4267;fill-opacity:1;fill-rule:nonzero;stroke:none"
             id="path142"
             inkscape:connector-curvature="0" /></g><path
           d="m 164.768,78.534 h 1.405 v -4.521 h -1.405 z m 1.451,1.257 c 0,-0.388 -0.296,-0.702 -0.758,-0.702 -0.444,0 -0.74,0.314 -0.731,0.702 -0.009,0.407 0.287,0.712 0.74,0.712 0.453,0 0.74,-0.305 0.749,-0.712"
           style="fill:#0a4267;fill-opacity:1;fill-rule:nonzero;stroke:none"
           id="path144"
           inkscape:connector-curvature="0" /><g
           id="g146"
           transform="translate(170.8153,80.5035)"
           style="fill:#0a4267;fill-opacity:1"><path
             d="M 0,0 -1.128,-1.406 H -2.099 L -1.303,0 Z m -0.777,-3.717 c 0,0.343 -0.148,0.916 -0.794,0.916 -0.592,0 -0.833,-0.536 -0.87,-0.916 z m -1.655,-0.961 c 0.047,-0.582 0.62,-0.86 1.276,-0.86 0.481,0 0.87,0.065 1.249,0.185 l 0.185,-0.952 c -0.463,-0.185 -1.027,-0.287 -1.637,-0.287 -1.535,0 -2.413,0.897 -2.413,2.311 0,1.147 0.712,2.413 2.283,2.413 1.462,0 2.015,-1.137 2.015,-2.256 0,-0.24 -0.027,-0.453 -0.046,-0.554 z"
             style="fill:#0a4267;fill-opacity:1;fill-rule:nonzero;stroke:none"
             id="path148"
             inkscape:connector-curvature="0" /></g><g
           id="g150"
           transform="translate(173.7575,79.7637)"
           style="fill:#0a4267;fill-opacity:1"><path
             d="M 0,0 V -1.23 H 1.008 V -2.265 H 0 v -1.636 c 0,-0.546 0.13,-0.796 0.555,-0.796 0.194,0 0.277,0.01 0.416,0.038 l 0.01,-1.063 c -0.186,-0.075 -0.519,-0.13 -0.916,-0.13 -0.453,0 -0.832,0.166 -1.054,0.398 -0.259,0.267 -0.388,0.702 -0.388,1.34 v 1.849 h -0.601 v 1.035 h 0.601 v 0.851 z"
             style="fill:#0a4267;fill-opacity:1;fill-rule:nonzero;stroke:none"
             id="path152"
             inkscape:connector-curvature="0" /></g><g
           id="g154"
           transform="translate(179.048,80.5035)"
           style="fill:#0a4267;fill-opacity:1"><path
             d="M 0,0 -1.128,-1.406 H -2.099 L -1.303,0 Z m -0.777,-3.717 c 0,0.343 -0.147,0.916 -0.794,0.916 -0.592,0 -0.833,-0.536 -0.87,-0.916 z m -1.654,-0.961 c 0.046,-0.582 0.619,-0.86 1.276,-0.86 0.48,0 0.869,0.065 1.248,0.185 l 0.184,-0.952 c -0.461,-0.185 -1.026,-0.287 -1.636,-0.287 -1.535,0 -2.413,0.897 -2.413,2.311 0,1.147 0.712,2.413 2.284,2.413 1.46,0 2.015,-1.137 2.015,-2.256 0,-0.24 -0.028,-0.453 -0.046,-0.554 z"
             style="fill:#0a4267;fill-opacity:1;fill-rule:nonzero;stroke:none"
             id="path156"
             inkscape:connector-curvature="0" /></g><g
           id="g158"
           transform="translate(186.0411,76.6479)"
           style="fill:#0a4267;fill-opacity:1"><path
             d="M 0,0 H -2.293 V -1.479 H 0.268 V -2.635 H -3.707 V 3.597 H 0.138 V 2.441 H -2.293 V 1.147 H 0 Z"
             style="fill:#0a4267;fill-opacity:1;fill-rule:nonzero;stroke:none"
             id="path160"
             inkscape:connector-curvature="0" /></g><path
           d="m 187.264,80.577 h 1.405 v -6.564 h -1.405 z"
           style="fill:#0a4267;fill-opacity:1;fill-rule:nonzero;stroke:none"
           id="path162"
           inkscape:connector-curvature="0" /><g
           id="g164"
           transform="translate(192.5438,76.7868)"
           style="fill:#0a4267;fill-opacity:1"><path
             d="M 0,0 C 0,0.342 -0.148,0.915 -0.796,0.915 -1.387,0.915 -1.627,0.379 -1.664,0 Z m -1.655,-0.962 c 0.046,-0.582 0.62,-0.859 1.276,-0.859 0.481,0 0.869,0.065 1.248,0.185 l 0.185,-0.952 c -0.462,-0.185 -1.026,-0.287 -1.637,-0.287 -1.534,0 -2.412,0.896 -2.412,2.311 0,1.146 0.711,2.413 2.283,2.413 1.461,0 2.015,-1.137 2.015,-2.256 0,-0.24 -0.028,-0.453 -0.046,-0.555 z"
             style="fill:#0a4267;fill-opacity:1;fill-rule:nonzero;stroke:none"
             id="path166"
             inkscape:connector-curvature="0" /></g><g
           id="g168"
           transform="translate(198.0844,74.1241)"
           style="fill:#0a4267;fill-opacity:1"><path
             d="m 0,0 c -0.25,-0.111 -0.721,-0.213 -1.258,-0.213 -1.46,0 -2.394,0.897 -2.394,2.321 0,1.322 0.906,2.404 2.589,2.404 0.369,0 0.776,-0.065 1.072,-0.175 L -0.213,3.291 c -0.166,0.074 -0.416,0.139 -0.786,0.139 -0.739,0 -1.22,-0.527 -1.211,-1.267 0,-0.831 0.555,-1.266 1.239,-1.266 0.332,0 0.592,0.055 0.804,0.148 z"
             style="fill:#0a4267;fill-opacity:1;fill-rule:nonzero;stroke:none"
             id="path170"
             inkscape:connector-curvature="0" /></g><g
           id="g172"
           transform="translate(200.5827,79.7637)"
           style="fill:#0a4267;fill-opacity:1"><path
             d="M 0,0 V -1.23 H 1.008 V -2.265 H 0 v -1.636 c 0,-0.546 0.13,-0.796 0.555,-0.796 0.194,0 0.277,0.01 0.416,0.038 L 0.98,-5.722 c -0.185,-0.075 -0.518,-0.13 -0.915,-0.13 -0.454,0 -0.832,0.166 -1.054,0.398 -0.259,0.267 -0.389,0.702 -0.389,1.34 v 1.849 h -0.6 v 1.035 h 0.6 v 0.851 z"
             style="fill:#0a4267;fill-opacity:1;fill-rule:nonzero;stroke:none"
             id="path174"
             inkscape:connector-curvature="0" /></g><g
           id="g176"
           transform="translate(202.4054,77.0459)"
           style="fill:#0a4267;fill-opacity:1"><path
             d="M 0,0 C 0,0.666 -0.019,1.1 -0.037,1.488 H 1.175 L 1.221,0.656 h 0.037 c 0.231,0.656 0.786,0.934 1.22,0.934 0.129,0 0.194,0 0.296,-0.019 V 0.24 C 2.672,0.268 2.552,0.286 2.394,0.286 1.877,0.286 1.525,0.009 1.433,-0.425 1.414,-0.518 1.406,-0.629 1.406,-0.74 V -3.032 H 0 Z"
             style="fill:#0a4267;fill-opacity:1;fill-rule:nonzero;stroke:none"
             id="path178"
             inkscape:connector-curvature="0" /></g><path
           d="m 205.921,78.534 h 1.405 v -4.521 h -1.405 z m 1.451,1.257 c 0,-0.388 -0.296,-0.702 -0.758,-0.702 -0.443,0 -0.739,0.314 -0.731,0.702 -0.008,0.407 0.288,0.712 0.741,0.712 0.452,0 0.739,-0.305 0.748,-0.712"
           style="fill:#0a4267;fill-opacity:1;fill-rule:nonzero;stroke:none"
           id="path180"
           inkscape:connector-curvature="0" /><g
           id="g182"
           transform="translate(211.4319,76.6389)"
           style="fill:#0a4267;fill-opacity:1"><path
             d="m 0,0 c 0,0.074 -0.009,0.157 -0.027,0.231 -0.074,0.361 -0.379,0.675 -0.804,0.675 -0.648,0 -0.971,-0.546 -0.971,-1.276 0,-0.758 0.361,-1.248 0.952,-1.248 0.398,0 0.721,0.268 0.813,0.638 C -0.009,-0.888 0,-0.767 0,-0.675 Z m 0,-2.062 h -0.018 c -0.287,-0.425 -0.74,-0.665 -1.341,-0.665 -0.98,0 -1.876,0.859 -1.876,2.302 0,1.617 1.035,2.422 1.997,2.422 0.582,0 1.007,-0.213 1.257,-0.629 H 0.037 L 0.075,1.895 H 1.434 C 1.424,1.461 1.405,1.008 1.405,0.536 V -4.456 H 0 Z"
             style="fill:#0a4267;fill-opacity:1;fill-rule:nonzero;stroke:none"
             id="path184"
             inkscape:connector-curvature="0" /></g><g
           id="g186"
           transform="translate(218.2215,75.4648)"
           style="fill:#0a4267;fill-opacity:1"><path
             d="m 0,0 c 0,-0.592 0.018,-1.072 0.036,-1.451 h -1.22 l -0.064,0.638 h -0.028 c -0.177,-0.278 -0.602,-0.74 -1.415,-0.74 -0.915,0 -1.591,0.573 -1.591,1.969 v 2.653 h 1.415 V 0.638 c 0,-0.657 0.213,-1.054 0.703,-1.054 0.389,0 0.61,0.268 0.703,0.49 0.036,0.083 0.046,0.194 0.046,0.305 v 2.69 H 0 Z"
             style="fill:#0a4267;fill-opacity:1;fill-rule:nonzero;stroke:none"
             id="path188"
             inkscape:connector-curvature="0" /></g><g
           id="g190"
           transform="translate(222.0882,76.7868)"
           style="fill:#0a4267;fill-opacity:1"><path
             d="M 0,0 C 0,0.342 -0.148,0.915 -0.795,0.915 -1.386,0.915 -1.627,0.379 -1.664,0 Z m -1.655,-0.962 c 0.047,-0.582 0.62,-0.859 1.276,-0.859 0.481,0 0.869,0.065 1.248,0.185 l 0.185,-0.952 c -0.462,-0.185 -1.026,-0.287 -1.636,-0.287 -1.535,0 -2.413,0.896 -2.413,2.311 0,1.146 0.712,2.413 2.283,2.413 1.461,0 2.016,-1.137 2.016,-2.256 0,-0.24 -0.028,-0.453 -0.046,-0.555 z"
             style="fill:#0a4267;fill-opacity:1;fill-rule:nonzero;stroke:none"
             id="path192"
             inkscape:connector-curvature="0" /></g><g
           id="g194"
           transform="translate(153.1481,66.155)"
           style="fill:#0a4267;fill-opacity:1"><path
             d="m 0,0 c 0,0.074 -0.009,0.175 -0.018,0.25 -0.083,0.379 -0.388,0.693 -0.823,0.693 -0.638,0 -0.971,-0.573 -0.971,-1.285 0,-0.767 0.379,-1.248 0.962,-1.248 0.406,0 0.73,0.278 0.813,0.675 C -0.009,-0.814 0,-0.712 0,-0.592 Z m 1.406,3.957 v -5.214 c 0,-0.509 0.018,-1.045 0.036,-1.35 H 0.195 L 0.13,-1.941 H 0.111 c -0.286,-0.509 -0.831,-0.768 -1.414,-0.768 -1.073,0 -1.932,0.916 -1.932,2.32 -0.01,1.526 0.943,2.404 2.024,2.404 0.555,0 0.989,-0.194 1.193,-0.508 H 0 v 2.45 z"
             style="fill:#0a4267;fill-opacity:1;fill-rule:nonzero;stroke:none"
             id="path196"
             inkscape:connector-curvature="0" /></g><g
           id="g198"
           transform="translate(158.4211,66.3211)"
           style="fill:#0a4267;fill-opacity:1"><path
             d="M 0,0 C 0,0.343 -0.148,0.915 -0.795,0.915 -1.387,0.915 -1.627,0.379 -1.664,0 Z m -1.655,-0.962 c 0.046,-0.581 0.619,-0.859 1.276,-0.859 0.481,0 0.869,0.065 1.248,0.185 l 0.185,-0.952 c -0.463,-0.185 -1.026,-0.287 -1.637,-0.287 -1.534,0 -2.412,0.896 -2.412,2.311 0,1.146 0.712,2.413 2.283,2.413 1.461,0 2.015,-1.137 2.015,-2.256 0,-0.24 -0.027,-0.453 -0.046,-0.555 z"
             style="fill:#0a4267;fill-opacity:1;fill-rule:nonzero;stroke:none"
             id="path200"
             inkscape:connector-curvature="0" /></g><path
           d="m 162.437,70.112 h 1.405 v -6.564 h -1.405 z"
           style="fill:#0a4267;fill-opacity:1;fill-rule:nonzero;stroke:none"
           id="path202"
           inkscape:connector-curvature="0" /><g
           id="g204"
           transform="translate(166.654,69.9453)"
           style="fill:#0a4267;fill-opacity:1"><path
             d="M 0,0 C -0.287,-0.896 -0.694,-1.802 -1.11,-2.496 L -1.96,-2.58 c 0.277,0.796 0.518,1.684 0.637,2.497 z"
             style="fill:#0a4267;fill-opacity:1;fill-rule:nonzero;stroke:none"
             id="path206"
             inkscape:connector-curvature="0" /></g><g
           id="g208"
           transform="translate(168.347,66.645)"
           style="fill:#0a4267;fill-opacity:1"><path
             d="m 0,0 c 0,-1.221 0.573,-2.08 1.516,-2.08 0.952,0 1.498,0.906 1.498,2.117 0,1.119 -0.536,2.08 -1.507,2.08 C 0.555,2.117 0,1.211 0,0 m 4.502,0.083 c 0,-2.043 -1.238,-3.282 -3.06,-3.282 -1.849,0 -2.93,1.397 -2.93,3.172 0,1.867 1.193,3.263 3.031,3.263 1.914,0 2.959,-1.433 2.959,-3.153"
             style="fill:#0a4267;fill-opacity:1;fill-rule:nonzero;stroke:none"
             id="path210"
             inkscape:connector-curvature="0" /></g><g
           id="g212"
           transform="translate(178.0398,64.9993)"
           style="fill:#0a4267;fill-opacity:1"><path
             d="m 0,0 c 0,-0.592 0.018,-1.072 0.037,-1.451 h -1.22 l -0.065,0.638 h -0.028 c -0.176,-0.278 -0.601,-0.74 -1.414,-0.74 -0.916,0 -1.591,0.573 -1.591,1.969 V 3.07 h 1.415 V 0.638 c 0,-0.657 0.212,-1.054 0.703,-1.054 0.388,0 0.61,0.268 0.703,0.49 0.036,0.084 0.045,0.194 0.045,0.305 V 3.07 H 0 Z"
             style="fill:#0a4267;fill-opacity:1;fill-rule:nonzero;stroke:none"
             id="path214"
             inkscape:connector-curvature="0" /></g><g
           id="g216"
           transform="translate(179.1701,66.5802)"
           style="fill:#0a4267;fill-opacity:1"><path
             d="M 0,0 C 0,0.666 -0.019,1.1 -0.037,1.489 H 1.175 L 1.221,0.656 h 0.037 c 0.231,0.657 0.786,0.934 1.22,0.934 0.13,0 0.194,0 0.296,-0.018 V 0.24 C 2.672,0.268 2.552,0.287 2.395,0.287 1.877,0.287 1.525,0.009 1.433,-0.425 1.415,-0.518 1.405,-0.629 1.405,-0.74 V -3.032 H 0 Z"
             style="fill:#0a4267;fill-opacity:1;fill-rule:nonzero;stroke:none"
             id="path218"
             inkscape:connector-curvature="0" /></g></g></g></g></svg>