<svg viewBox="0 0 142 81" xmlns="http://www.w3.org/2000/svg" xml:space="preserve" style="fill-rule:evenodd;clip-rule:evenodd;stroke-linejoin:round;stroke-miterlimit:2"><path d="M106.908 39.669c0 .802.254 1.203 1.114 1.203.649 0 1.036-.291 1.036-.998 0-1.429-2.618-.722-2.618-2.551 0-.94.642-1.421 1.553-1.421.947 0 1.517.59 1.517 1.588h-.57c0-.728-.335-1.107-1.019-1.107-.532 0-.911.313-.911.889 0 1.414 2.616.583 2.616 2.58 0 1.049-.759 1.501-1.662 1.501-1.115 0-1.625-.62-1.625-1.684h.569M110.603 37.257h.54v4.008h-.54v-4.008Zm0-1.238h.54v.656h-.54v-.656ZM112.375 41.266v-4.009h.539v.554h.015c.108-.393.437-.627.998-.627.867 0 1.217.554 1.217 1.21v2.872h-.54v-2.711c0-.583-.262-.889-.743-.889-.612 0-.947.444-.947.954v2.646h-.539M118.293 38.686c-.028-.496-.248-1.02-.779-1.02-.599 0-.89.568-.89 1.595 0 1.072.365 1.596.89 1.596.553 0 .743-.437.823-.983h.531c-.072.867-.444 1.464-1.384 1.464-.947 0-1.4-.757-1.4-2.077 0-1.26.437-2.077 1.43-2.077.903 0 1.303.671 1.318 1.502h-.539M121.821 38.978c0-.788-.27-1.312-.853-1.312-.481 0-.889.524-.896 1.312h1.749Zm-1.749.48c0 .744.343 1.399.961 1.399.526 0 .751-.502.81-.969h.516c0 .693-.56 1.45-1.333 1.45-.903 0-1.493-.743-1.493-2.084 0-1.195.539-2.07 1.457-2.07.86 0 1.369.714 1.369 1.932v.342h-2.287M126.106 35.989h1.415v5.277h-.569V36.47h-.846v-.481M131.363 36.426c-.729 0-1.05.627-1.05 1.21 0 .627.321 1.254 1.05 1.254.729 0 1.049-.627 1.049-1.254 0-.583-.32-1.21-1.049-1.21Zm-1.021 3.411c.052.503.226.948.963.991.808 0 1.202-.779 1.246-2.084l-.015-.015c-.233.409-.598.686-1.238.686-.839 0-1.597-.605-1.597-1.721 0-1.064.605-1.792 1.705-1.792 1.109 0 1.757.896 1.757 2.471 0 1.821-.547 2.98-1.902 2.98-.889 0-1.488-.612-1.488-1.516h.569M135.671 36.426c-.73 0-1.05.627-1.05 1.21 0 .627.32 1.254 1.05 1.254.728 0 1.05-.627 1.05-1.254 0-.583-.322-1.21-1.05-1.21Zm-1.021 3.411c.051.503.226.948.962.991.809 0 1.202-.779 1.246-2.084l-.014-.015c-.234.409-.597.686-1.239.686-.838 0-1.596-.605-1.596-1.721 0-1.064.605-1.792 1.705-1.792 1.108 0 1.757.896 1.757 2.471 0 1.821-.547 2.98-1.903 2.98-.888 0-1.487-.612-1.487-1.516h.569M140.4 39.589v-2.857h-.014l-1.566 2.857h1.58Zm-2.178.481v-.451l2.026-3.63h.722v3.6h.7v.481h-.7v1.196h-.57V40.07h-2.178M139.422 76.83c-.62-.268-.842-.537-.842-1.221 0-.757.406-1.339 1.191-1.339.778 0 1.231.535 1.194 1.303h.581c.029-1.091-.684-1.841-1.765-1.841-1.127 0-1.802.787-1.802 1.914 0 1.109.667 1.526 1.6 1.896.792.315 1.553.48 1.553 1.525 0 .861-.554 1.398-1.397 1.398-.952 0-1.314-.723-1.301-1.592h-.595c-.027 1.231.639 2.127 1.904 2.127 1.212 0 1.989-.757 1.989-1.951 0-1.257-.758-1.571-1.774-1.997l-.536-.222Zm-8.551-2.331h.02l1.737 6.335h.637l1.719-6.335h.021v6.335h.599v-6.935h-.98l-1.681 6.045h-.019l-1.646-6.045h-1.007v6.935h.6v-6.335Zm-2.772 6.335v-.536h-2.588v-2.83h2.311v-.537h-2.311v-2.494h2.542v-.538h-3.141v6.935h3.187Zm-7.356-6.397v6.397h.6v-6.397h1.571v-.538h-3.742v.538h1.571Zm-5.631 2.393c-.619-.268-.841-.537-.841-1.221 0-.757.409-1.339 1.195-1.339.777 0 1.228.535 1.193 1.303h.58c.029-1.091-.683-1.841-1.764-1.841-1.13 0-1.804.787-1.804 1.914 0 1.109.665 1.526 1.598 1.896.795.315 1.554.48 1.554 1.525 0 .861-.555 1.398-1.397 1.398-.95 0-1.312-.723-1.301-1.592h-.593c-.026 1.231.637 2.127 1.905 2.127 1.209 0 1.987-.757 1.987-1.951 0-1.257-.759-1.571-1.776-1.997l-.536-.222Zm-5.47.369-1.46-3.3h-.666l1.83 3.985v2.95h.6v-2.95l1.85-3.985h-.629l-1.525 3.3Zm-6.176-.369c-.619-.268-.842-.537-.842-1.221 0-.757.407-1.339 1.193-1.339.777 0 1.229.535 1.194 1.303h.581c.028-1.091-.683-1.841-1.765-1.841-1.128 0-1.801.787-1.801 1.914 0 1.109.665 1.526 1.599 1.896.794.315 1.55.48 1.55 1.525 0 .861-.552 1.398-1.394 1.398-.953 0-1.312-.723-1.302-1.592h-.592c-.03 1.231.638 2.127 1.903 2.127 1.212 0 1.987-.757 1.987-1.951 0-1.257-.758-1.571-1.773-1.997l-.538-.222Zm-9.074 0c-.621-.268-.842-.537-.842-1.221 0-.757.406-1.339 1.192-1.339.777 0 1.229.535 1.192 1.303h.584c.026-1.091-.685-1.841-1.769-1.841-1.126 0-1.802.787-1.802 1.914 0 1.109.668 1.526 1.601 1.896.795.315 1.554.48 1.554 1.525 0 .861-.556 1.398-1.4 1.398-.949 0-1.31-.723-1.3-1.592h-.591c-.028 1.231.636 2.127 1.904 2.127 1.21 0 1.985-.757 1.985-1.951 0-1.257-.758-1.571-1.773-1.997l-.535-.222Zm-4.347 1.655c-.026.851-.257 1.98-1.292 1.98-1.527 0-1.471-2.09-1.471-3.153 0-.935-.056-3.042 1.406-3.042.934 0 1.248.803 1.303 1.626h.601c-.01-1.174-.637-2.164-1.887-2.164-1.838 0-2.021 2.015-2.021 3.44 0 1.471 0 3.828 2.004 3.828 1.385 0 1.988-1.331 1.96-2.515h-.603Zm-6.468 2.349h.6v-6.935h-.6v6.935Zm-4.28-6.397v6.397h.601v-6.397h1.572v-.538h-3.743v.538h1.57Zm-5.102-.538-1.858 6.935h.582l.565-2.136h2.107l.544 2.136h.61l-1.856-6.935h-.694Zm-.583 4.263.915-3.504h.019l.914 3.504h-1.848Zm-7.985-3.663h.017l1.739 6.335h.638l1.719-6.335h.019v6.335h.6v-6.935h-.98l-1.681 6.045h-.018l-1.646-6.045h-1.008v6.935h.601v-6.335Zm-2.771 6.335v-.536h-2.589v-2.83h2.31v-.537h-2.31v-2.494h2.542v-.538h-3.143v6.935h3.19Zm-5.261 0v-.536h-2.568v-6.399h-.603v6.935h3.171Zm-5.352 0v-.536h-2.588v-2.83h2.311v-.537h-2.311v-2.494h2.542v-.538h-3.142v6.935h3.188Zm-7.356-6.397v6.397h.6v-6.397h1.573v-.538h-3.745v.538h1.572" style="fill:#6d6f74;fill-rule:nonzero"/><path style="fill:#6d6f74" d="M43.315 69.198h98.309v.503H43.315z"/><path d="M139.402 63.258v-11.08c0-.581-.195-.972-.587-1.172a2.687 2.687 0 0 0-1.241-.301h-1.445c-.71 0-1.358.046-1.952.136-.59.092-1.031.183-1.323.272v12.145h-2.181v-11.08c0-.581-.195-.972-.588-1.172a2.68 2.68 0 0 0-1.239-.301h-1.612c-.638 0-1.217.046-1.745.136-.527.092-.979.183-1.364.272v12.145h-2.182V49.067h2.073l.083.983a4.213 4.213 0 0 1 1.759-1.011 7.047 7.047 0 0 1 1.978-.3h1.447a4.95 4.95 0 0 1 1.922.369c.591.246 1.03.669 1.324 1.27.417-.546 1.002-.955 1.758-1.227a6.861 6.861 0 0 1 2.359-.412h1.366c.454 0 .894.056 1.321.166.426.108.811.284 1.146.531.337.246.605.572.806.982.197.411.298.914.298 1.515v11.325h-2.181Zm-24.006-10.177c0-.33-.041-.648-.122-.957a2.636 2.636 0 0 0-.382-.832 1.957 1.957 0 0 0-.653-.587 1.955 1.955 0 0 0-.943-.218h-3.546c-.803 0-1.368.25-1.705.751-.337.499-.505 1.115-.505 1.843v6.14c0 .726.168 1.346.505 1.854.337.51.902.765 1.705.765h3.546c.363 0 .676-.073.943-.219.262-.145.481-.341.653-.587.172-.245.299-.523.382-.832.081-.308.122-.626.122-.955v-6.166Zm.984 9.236c-.803.845-1.957 1.271-3.466 1.271h-2.727c-1.474 0-2.647-.383-3.521-1.148-.872-.764-1.31-1.912-1.31-3.439v-5.676c0-1.528.438-2.674 1.31-3.439.874-.763 2.047-1.147 3.521-1.147h2.727c1.509 0 2.663.425 3.466 1.269.799.847 1.2 2.007 1.2 3.48v5.35c0 1.472-.401 2.634-1.2 3.479m-14.692.915a6.372 6.372 0 0 1-1.676.326c-.292.018-.546.03-.766.03h-4.337c-2.146 0-3.686-.557-4.623-1.667-.936-1.108-1.405-2.711-1.405-4.803v-6.604c0-2.093.469-3.693 1.405-4.802.937-1.11 2.477-1.667 4.623-1.667h4.337c.22 0 .474.01.766.029.291.018.577.056.857.109.283.054.557.128.819.216.264.092.487.211.668.357v1.309h-7.554c-.766 0-1.385.115-1.856.341a2.695 2.695 0 0 0-1.106.942c-.263.399-.437.878-.517 1.433a12.663 12.663 0 0 0-.123 1.843v6.386c0 .674.041 1.286.123 1.842.08.554.254 1.032.517 1.432.264.399.634.714 1.106.943.471.227 1.09.338 1.856.338h7.554v1.312a2.17 2.17 0 0 1-.668.355" style="fill:#158dcd;fill-rule:nonzero"/><path d="M79.619 67.099h-2.072l1.678-4.058-5.565-13.974h2.292l4.336 11.162h.083l3.873-11.162h2.128l-6.753 18.032Zm-9.042-3.841-4.801-6.987-2.235 2.485v4.502h-2.185V43.283h2.185v13.071l6.355-7.287h2.455l-5.13 5.731 5.783 8.46h-2.427Zm-14.512-.504c-.691.555-1.636.831-2.836.831h-6.792c-.219 0-.475-.008-.765-.027a6.458 6.458 0 0 1-.86-.109 5.45 5.45 0 0 1-.817-.219 2.143 2.143 0 0 1-.668-.353v-1.202h9.656c.4 0 .723-.054.967-.163.246-.109.437-.245.573-.41.138-.163.233-.354.287-.574.055-.217.082-.436.082-.654v-2.51c0-.763-.177-1.306-.532-1.623-.355-.319-.968-.533-1.841-.641l-4.938-.656c-1.381-.2-2.405-.56-3.069-1.079-.664-.516-.996-1.36-.996-2.524v-2.673c0-.53.066-1.039.192-1.527.126-.493.355-.931.682-1.313.325-.381.786-.69 1.378-.927.59-.237 1.35-.354 2.275-.354h5.074c.22 0 .475.01.765.026.292.019.578.051.861.097.28.045.554.112.817.203.264.092.487.218.669.383v1.201h-8.375c-.856 0-1.428.191-1.718.572-.291.382-.437.864-.437 1.447v2.538c0 .327.073.601.218.82.146.216.34.395.587.53.246.138.519.243.818.315.301.074.604.127.913.163l4.775.629c1.383.181 2.409.563 3.081 1.145.674.582 1.011 1.475 1.011 2.674v3.057c0 1.384-.346 2.351-1.037 2.907" style="fill:#6d6f74;fill-rule:nonzero"/><path d="M30.128 37.643c-4.388 0-7.957-3.572-7.957-7.961 0-4.388 3.569-7.96 7.957-7.96 4.389 0 7.957 3.572 7.957 7.96 0 4.389-3.568 7.961-7.957 7.961" style="fill:#fff;fill-rule:nonzero"/><path d="M54.346 10.196 49.532 5.38s-1.49-1.49-2.981 0l-16.34 16.347c4.273.044 7.742 3.473 7.863 7.73l16.272-16.28s1.49-1.49 0-2.981M22.174 29.767l-16.9 16.907s-1.489 1.49 0 2.98l4.813 4.818s1.491 1.491 2.982 0l16.834-16.84c-4.256-.12-7.683-3.592-7.729-7.865" style="fill:#bad1ed;fill-rule:nonzero"/><path d="M59.845 22.268c-.653-2.619-3.917-4.378-9.17-5.062l3.849-3.851c.017-.016.416-.422.62-1.031.192-.577.24-1.446-.62-2.305L49.71 5.203c-.03-.031-.748-.736-1.723-.736-.583 0-1.126.246-1.613.736l-3.017 3.016C42.786 3.903 41.319.986 38.98.271a4.007 4.007 0 0 0-1.182-.175c-4.961 0-11.495 8.634-16.149 20.831-5.639 1.816-10.675 4.093-14.543 6.603-5.212 3.382-7.694 6.804-6.988 9.636.656 2.628 3.946 4.39 9.239 5.068l-4.259 4.263c-.579.575-1.32 2.016 0 3.335l4.813 4.816c.029.032.746.737 1.723.737.581 0 1.123-.248 1.613-.737l3.333-3.334c.591 4.396 2.114 7.146 4.403 7.848.379.113.746.201 1.184.173 4.96 0 11.494-8.634 16.147-20.83 5.641-1.818 10.677-4.095 14.544-6.604 5.213-3.38 7.694-6.802 6.987-9.633M46.728 5.557c.392-.39.814-.589 1.259-.589.763 0 1.362.584 1.367.589l4.814 4.817c1.29 1.291.052 2.573 0 2.625l-4.127 4.13a43.606 43.606 0 0 0-4.733-.245c-.612 0-1.235.014-1.865.035.251-2.991.246-5.719-.008-8.067l3.293-3.295Zm-3.33 11.866a53.826 53.826 0 0 1 1.91-.036c1.528 0 2.957.07 4.274.201l-7.306 7.308c.531-2.61.905-5.12 1.122-7.473m-.432-.485c-2.7.111-5.559.41-8.504.891l8.569-8.573c.209 2.244.187 4.842-.065 7.682M37.798.6c.357 0 .707.05 1.035.151 2.249.687 3.629 3.579 4.128 7.865l-9.36 9.364a87.764 87.764 0 0 0-6.215 1.312 87.614 87.614 0 0 0-5.112 1.445C26.812 9.07 33.163.6 37.798.6M.605 37.044c-.649-2.608 1.756-5.837 6.775-9.092 3.744-2.43 8.604-4.637 14.045-6.419a88.577 88.577 0 0 0-1.713 5.042 87.418 87.418 0 0 0-1.853 7.153l-8.045 8.049C4.561 41.16 1.215 39.49.605 37.044m15.9 13.637-3.613 3.613c-.392.39-.814.589-1.258.589-.765 0-1.363-.584-1.369-.589l-4.814-4.817c-1.29-1.291-.051-2.572 0-2.626l4.54-4.542c1.427.156 2.982.239 4.669.239h.002c.606 0 1.224-.015 1.848-.035-.171 2.002-.243 3.919-.182 5.694.029.873.091 1.693.177 2.474m.051-8.672c-.64.021-1.274.036-1.894.036h-.002c-1.505 0-2.911-.065-4.21-.193l7.215-7.22a70.282 70.282 0 0 0-1.109 7.377m.274 6.181c-.061-1.775.012-3.692.184-5.698a71.037 71.037 0 0 0 8.577-.904l-8.629 8.635a32.118 32.118 0 0 1-.132-2.033m5.337 10.642c-.359 0-.706-.052-1.036-.152-2.16-.66-3.57-3.419-4.092-7.826l9.418-9.419c2.013-.354 4.06-.78 6.124-1.294a87.958 87.958 0 0 0 5.109-1.447C33.152 50.361 26.8 58.832 22.167 58.832m15.761-20.734a89.67 89.67 0 0 1-5.47 1.556 86.97 86.97 0 0 1-5.383 1.159l3.177-3.178c-.042.001-.082.007-.124.007-.191 0-.377-.014-.563-.028l-3.353 3.354c-3.173.55-6.254.895-9.149 1.02a70.862 70.862 0 0 1 1.255-8.009l3.874-3.874c-.008-.142-.022-.28-.022-.422 0-.096.012-.189.016-.282l-3.675 3.674a88.015 88.015 0 0 1 1.68-6.354 84.76 84.76 0 0 1 1.845-5.386 86.733 86.733 0 0 1 10.944-2.732l-3.134 3.133c.094-.003.188-.014.282-.014.143 0 .28.013.421.021l3.294-3.296c3.148-.541 6.204-.882 9.077-1.003a71.397 71.397 0 0 1-1.279 8.089l-3.584 3.586c.012.188.028.373.028.564 0 .041-.005.081-.007.124l3.359-3.36a86.979 86.979 0 0 1-3.509 11.651m14.655-6.617c-3.742 2.427-8.602 4.634-14.042 6.419a89.423 89.423 0 0 0 1.711-5.043 85.702 85.702 0 0 0 1.838-7.064l8.127-8.13c5.214.623 8.534 2.291 9.141 4.725.651 2.608-1.755 5.837-6.775 9.093" style="fill:#158dcd;fill-rule:nonzero"/><path d="M30.128 23.581a6.107 6.107 0 0 0-6.098 6.101 6.107 6.107 0 0 0 6.098 6.101 6.106 6.106 0 0 0 6.098-6.101 6.106 6.106 0 0 0-6.098-6.101" style="fill:#faa627;fill-rule:nonzero"/></svg>