<?xml version="1.0" encoding="UTF-8" standalone="no"?><!DOCTYPE svg PUBLIC "-//W3C//DTD SVG 1.1//EN" "http://www.w3.org/Graphics/SVG/1.1/DTD/svg11.dtd"><svg width="100%" height="100%" viewBox="0 0 142 81" version="1.1" xmlns="http://www.w3.org/2000/svg" xmlns:xlink="http://www.w3.org/1999/xlink" xml:space="preserve" xmlns:serif="http://www.serif.com/" style="fill-rule:evenodd;clip-rule:evenodd;stroke-linejoin:round;stroke-miterlimit:2;"><path d="M106.908,39.669c0,0.802 0.254,1.203 1.114,1.203c0.649,0 1.036,-0.291 1.036,-0.998c0,-1.429 -2.618,-0.722 -2.618,-2.551c0,-0.94 0.642,-1.421 1.553,-1.421c0.947,0 1.517,0.59 1.517,1.588l-0.57,0c0,-0.728 -0.335,-1.107 -1.019,-1.107c-0.532,0 -0.911,0.313 -0.911,0.889c0,1.414 2.616,0.583 2.616,2.58c0,1.049 -0.759,1.501 -1.662,1.501c-1.115,0 -1.625,-0.62 -1.625,-1.684l0.569,0" style="fill:#6d6f74;fill-rule:nonzero;"/><path d="M110.603,37.257l0.54,0l0,4.008l-0.54,0l0,-4.008Zm0,-1.238l0.54,0l0,0.656l-0.54,0l0,-0.656Z" style="fill:#6d6f74;fill-rule:nonzero;"/><path d="M112.375,41.266l0,-4.009l0.539,0l0,0.554l0.015,0c0.108,-0.393 0.437,-0.627 0.998,-0.627c0.867,0 1.217,0.554 1.217,1.21l0,2.872l-0.54,0l0,-2.711c0,-0.583 -0.262,-0.889 -0.743,-0.889c-0.612,0 -0.947,0.444 -0.947,0.954l0,2.646l-0.539,0" style="fill:#6d6f74;fill-rule:nonzero;"/><path d="M118.293,38.686c-0.028,-0.496 -0.248,-1.02 -0.779,-1.02c-0.599,0 -0.89,0.568 -0.89,1.595c0,1.072 0.365,1.596 0.89,1.596c0.553,0 0.743,-0.437 0.823,-0.983l0.531,0c-0.072,0.867 -0.444,1.464 -1.384,1.464c-0.947,0 -1.4,-0.757 -1.4,-2.077c0,-1.26 0.437,-2.077 1.43,-2.077c0.903,0 1.303,0.671 1.318,1.502l-0.539,0" style="fill:#6d6f74;fill-rule:nonzero;"/><path d="M121.821,38.978c0,-0.788 -0.27,-1.312 -0.853,-1.312c-0.481,0 -0.889,0.524 -0.896,1.312l1.749,0Zm-1.749,0.48c0,0.744 0.343,1.399 0.961,1.399c0.526,0 0.751,-0.502 0.81,-0.969l0.516,0c0,0.693 -0.56,1.45 -1.333,1.45c-0.903,0 -1.493,-0.743 -1.493,-2.084c0,-1.195 0.539,-2.07 1.457,-2.07c0.86,0 1.369,0.714 1.369,1.932l0,0.342l-2.287,0" style="fill:#6d6f74;fill-rule:nonzero;"/><path d="M126.106,35.989l1.415,0l0,5.277l-0.569,0l0,-4.796l-0.846,0l0,-0.481" style="fill:#6d6f74;fill-rule:nonzero;"/><path d="M131.363,36.426c-0.729,0 -1.05,0.627 -1.05,1.21c0,0.627 0.321,1.254 1.05,1.254c0.729,0 1.049,-0.627 1.049,-1.254c0,-0.583 -0.32,-1.21 -1.049,-1.21Zm-1.021,3.411c0.052,0.503 0.226,0.948 0.963,0.991c0.808,0 1.202,-0.779 1.246,-2.084l-0.015,-0.015c-0.233,0.409 -0.598,0.686 -1.238,0.686c-0.839,0 -1.597,-0.605 -1.597,-1.721c0,-1.064 0.605,-1.792 1.705,-1.792c1.109,0 1.757,0.896 1.757,2.471c0,1.821 -0.547,2.98 -1.902,2.98c-0.889,0 -1.488,-0.612 -1.488,-1.516l0.569,0" style="fill:#6d6f74;fill-rule:nonzero;"/><path d="M135.671,36.426c-0.73,0 -1.05,0.627 -1.05,1.21c0,0.627 0.32,1.254 1.05,1.254c0.728,0 1.05,-0.627 1.05,-1.254c0,-0.583 -0.322,-1.21 -1.05,-1.21Zm-1.021,3.411c0.051,0.503 0.226,0.948 0.962,0.991c0.809,0 1.202,-0.779 1.246,-2.084l-0.014,-0.015c-0.234,0.409 -0.597,0.686 -1.239,0.686c-0.838,0 -1.596,-0.605 -1.596,-1.721c0,-1.064 0.605,-1.792 1.705,-1.792c1.108,0 1.757,0.896 1.757,2.471c0,1.821 -0.547,2.98 -1.903,2.98c-0.888,0 -1.487,-0.612 -1.487,-1.516l0.569,0" style="fill:#6d6f74;fill-rule:nonzero;"/><path d="M140.4,39.589l0,-2.857l-0.014,0l-1.566,2.857l1.58,0Zm-2.178,0.481l0,-0.451l2.026,-3.63l0.722,0l0,3.6l0.7,0l0,0.481l-0.7,0l0,1.196l-0.57,0l0,-1.196l-2.178,0" style="fill:#6d6f74;fill-rule:nonzero;"/><path d="M139.422,76.83c-0.62,-0.268 -0.842,-0.537 -0.842,-1.221c0,-0.757 0.406,-1.339 1.191,-1.339c0.778,0 1.231,0.535 1.194,1.303l0.581,0c0.029,-1.091 -0.684,-1.841 -1.765,-1.841c-1.127,0 -1.802,0.787 -1.802,1.914c0,1.109 0.667,1.526 1.6,1.896c0.792,0.315 1.553,0.48 1.553,1.525c0,0.861 -0.554,1.398 -1.397,1.398c-0.952,0 -1.314,-0.723 -1.301,-1.592l-0.595,0c-0.027,1.231 0.639,2.127 1.904,2.127c1.212,0 1.989,-0.757 1.989,-1.951c0,-1.257 -0.758,-1.571 -1.774,-1.997l-0.536,-0.222Zm-8.551,-2.331l0.02,0l1.737,6.335l0.637,0l1.719,-6.335l0.021,0l0,6.335l0.599,0l0,-6.935l-0.98,0l-1.681,6.045l-0.019,0l-1.646,-6.045l-1.007,0l0,6.935l0.6,0l0,-6.335Zm-2.772,6.335l0,-0.536l-2.588,0l0,-2.83l2.311,0l0,-0.537l-2.311,0l0,-2.494l2.542,0l0,-0.538l-3.141,0l0,6.935l3.187,0Zm-7.356,-6.397l0,6.397l0.6,0l0,-6.397l1.571,0l0,-0.538l-3.742,0l0,0.538l1.571,0Zm-5.631,2.393c-0.619,-0.268 -0.841,-0.537 -0.841,-1.221c0,-0.757 0.409,-1.339 1.195,-1.339c0.777,0 1.228,0.535 1.193,1.303l0.58,0c0.029,-1.091 -0.683,-1.841 -1.764,-1.841c-1.13,0 -1.804,0.787 -1.804,1.914c0,1.109 0.665,1.526 1.598,1.896c0.795,0.315 1.554,0.48 1.554,1.525c0,0.861 -0.555,1.398 -1.397,1.398c-0.95,0 -1.312,-0.723 -1.301,-1.592l-0.593,0c-0.026,1.231 0.637,2.127 1.905,2.127c1.209,0 1.987,-0.757 1.987,-1.951c0,-1.257 -0.759,-1.571 -1.776,-1.997l-0.536,-0.222Zm-5.47,0.369l-1.46,-3.3l-0.666,0l1.83,3.985l0,2.95l0.6,0l0,-2.95l1.85,-3.985l-0.629,0l-1.525,3.3Zm-6.176,-0.369c-0.619,-0.268 -0.842,-0.537 -0.842,-1.221c0,-0.757 0.407,-1.339 1.193,-1.339c0.777,0 1.229,0.535 1.194,1.303l0.581,0c0.028,-1.091 -0.683,-1.841 -1.765,-1.841c-1.128,0 -1.801,0.787 -1.801,1.914c0,1.109 0.665,1.526 1.599,1.896c0.794,0.315 1.55,0.48 1.55,1.525c0,0.861 -0.552,1.398 -1.394,1.398c-0.953,0 -1.312,-0.723 -1.302,-1.592l-0.592,0c-0.03,1.231 0.638,2.127 1.903,2.127c1.212,0 1.987,-0.757 1.987,-1.951c0,-1.257 -0.758,-1.571 -1.773,-1.997l-0.538,-0.222Zm-9.074,0c-0.621,-0.268 -0.842,-0.537 -0.842,-1.221c0,-0.757 0.406,-1.339 1.192,-1.339c0.777,0 1.229,0.535 1.192,1.303l0.584,0c0.026,-1.091 -0.685,-1.841 -1.769,-1.841c-1.126,0 -1.802,0.787 -1.802,1.914c0,1.109 0.668,1.526 1.601,1.896c0.795,0.315 1.554,0.48 1.554,1.525c0,0.861 -0.556,1.398 -1.4,1.398c-0.949,0 -1.31,-0.723 -1.3,-1.592l-0.591,0c-0.028,1.231 0.636,2.127 1.904,2.127c1.21,0 1.985,-0.757 1.985,-1.951c0,-1.257 -0.758,-1.571 -1.773,-1.997l-0.535,-0.222Zm-4.347,1.655c-0.026,0.851 -0.257,1.98 -1.292,1.98c-1.527,0 -1.471,-2.09 -1.471,-3.153c0,-0.935 -0.056,-3.042 1.406,-3.042c0.934,0 1.248,0.803 1.303,1.626l0.601,0c-0.01,-1.174 -0.637,-2.164 -1.887,-2.164c-1.838,0 -2.021,2.015 -2.021,3.44c0,1.471 0,3.828 2.004,3.828c1.385,0 1.988,-1.331 1.96,-2.515l-0.603,0Zm-6.468,2.349l0.6,0l0,-6.935l-0.6,0l0,6.935Zm-4.28,-6.397l0,6.397l0.601,0l0,-6.397l1.572,0l0,-0.538l-3.743,0l0,0.538l1.57,0Zm-5.102,-0.538l-1.858,6.935l0.582,0l0.565,-2.136l2.107,0l0.544,2.136l0.61,0l-1.856,-6.935l-0.694,0Zm-0.583,4.263l0.915,-3.504l0.019,0l0.914,3.504l-1.848,0Zm-7.985,-3.663l0.017,0l1.739,6.335l0.638,0l1.719,-6.335l0.019,0l0,6.335l0.6,0l0,-6.935l-0.98,0l-1.681,6.045l-0.018,0l-1.646,-6.045l-1.008,0l0,6.935l0.601,0l0,-6.335Zm-2.771,6.335l0,-0.536l-2.589,0l0,-2.83l2.31,0l0,-0.537l-2.31,0l0,-2.494l2.542,0l0,-0.538l-3.143,0l0,6.935l3.19,0Zm-5.261,0l0,-0.536l-2.568,0l0,-6.399l-0.603,0l0,6.935l3.171,0Zm-5.352,0l0,-0.536l-2.588,0l0,-2.83l2.311,0l0,-0.537l-2.311,0l0,-2.494l2.542,0l0,-0.538l-3.142,0l0,6.935l3.188,0Zm-7.356,-6.397l0,6.397l0.6,0l0,-6.397l1.573,0l0,-0.538l-3.745,0l0,0.538l1.572,0" style="fill:#6d6f74;fill-rule:nonzero;"/><rect x="43.315" y="69.198" width="98.309" height="0.503" style="fill:#6d6f74;"/><path d="M139.402,63.258l0,-11.08c0,-0.581 -0.195,-0.972 -0.587,-1.172c-0.392,-0.2 -0.803,-0.301 -1.241,-0.301l-1.445,0c-0.71,0 -1.358,0.046 -1.952,0.136c-0.59,0.092 -1.031,0.183 -1.323,0.272l0,12.145l-2.181,0l0,-11.08c0,-0.581 -0.195,-0.972 -0.588,-1.172c-0.391,-0.2 -0.802,-0.301 -1.239,-0.301l-1.612,0c-0.638,0 -1.217,0.046 -1.745,0.136c-0.527,0.092 -0.979,0.183 -1.364,0.272l0,12.145l-2.182,0l0,-14.191l2.073,0l0.083,0.983c0.492,-0.473 1.077,-0.81 1.759,-1.011c0.681,-0.199 1.341,-0.3 1.978,-0.3l1.447,0c0.691,0 1.331,0.123 1.922,0.369c0.591,0.246 1.03,0.669 1.324,1.27c0.417,-0.546 1.002,-0.955 1.758,-1.227c0.754,-0.274 1.542,-0.412 2.359,-0.412l1.366,0c0.454,0 0.894,0.056 1.321,0.166c0.426,0.108 0.811,0.284 1.146,0.531c0.337,0.246 0.605,0.572 0.806,0.982c0.197,0.411 0.298,0.914 0.298,1.515l0,11.325l-2.181,0Zm-24.006,-10.177c0,-0.33 -0.041,-0.648 -0.122,-0.957c-0.083,-0.309 -0.21,-0.585 -0.382,-0.832c-0.172,-0.245 -0.391,-0.44 -0.653,-0.587c-0.267,-0.144 -0.58,-0.218 -0.943,-0.218l-3.546,0c-0.803,0 -1.368,0.25 -1.705,0.751c-0.337,0.499 -0.505,1.115 -0.505,1.843l0,6.14c0,0.726 0.168,1.346 0.505,1.854c0.337,0.51 0.902,0.765 1.705,0.765l3.546,0c0.363,0 0.676,-0.073 0.943,-0.219c0.262,-0.145 0.481,-0.341 0.653,-0.587c0.172,-0.245 0.299,-0.523 0.382,-0.832c0.081,-0.308 0.122,-0.626 0.122,-0.955l0,-6.166Zm0.984,9.236c-0.803,0.845 -1.957,1.271 -3.466,1.271l-2.727,0c-1.474,0 -2.647,-0.383 -3.521,-1.148c-0.872,-0.764 -1.31,-1.912 -1.31,-3.439l0,-5.676c0,-1.528 0.438,-2.674 1.31,-3.439c0.874,-0.763 2.047,-1.147 3.521,-1.147l2.727,0c1.509,0 2.663,0.425 3.466,1.269c0.799,0.847 1.2,2.007 1.2,3.48l0,5.35c0,1.472 -0.401,2.634 -1.2,3.479m-14.692,0.915c-0.262,0.089 -0.536,0.165 -0.819,0.218c-0.28,0.055 -0.566,0.091 -0.857,0.108c-0.292,0.018 -0.546,0.03 -0.766,0.03l-4.337,0c-2.146,0 -3.686,-0.557 -4.623,-1.667c-0.936,-1.108 -1.405,-2.711 -1.405,-4.803l0,-6.604c0,-2.093 0.469,-3.693 1.405,-4.802c0.937,-1.11 2.477,-1.667 4.623,-1.667l4.337,0c0.22,0 0.474,0.01 0.766,0.029c0.291,0.018 0.577,0.056 0.857,0.109c0.283,0.054 0.557,0.128 0.819,0.216c0.264,0.092 0.487,0.211 0.668,0.357l0,1.309l-7.554,0c-0.766,0 -1.385,0.115 -1.856,0.341c-0.472,0.228 -0.842,0.542 -1.106,0.942c-0.263,0.399 -0.437,0.878 -0.517,1.433c-0.082,0.555 -0.123,1.169 -0.123,1.843l0,6.386c0,0.674 0.041,1.286 0.123,1.842c0.08,0.554 0.254,1.032 0.517,1.432c0.264,0.399 0.634,0.714 1.106,0.943c0.471,0.227 1.09,0.338 1.856,0.338l7.554,0l0,1.312c-0.181,0.145 -0.404,0.266 -0.668,0.355" style="fill:#158dcd;fill-rule:nonzero;"/><path d="M79.619,67.099l-2.072,0l1.678,-4.058l-5.565,-13.974l2.292,0l4.336,11.162l0.083,0l3.873,-11.162l2.128,0l-6.753,18.032Zm-9.042,-3.841l-4.801,-6.987l-2.235,2.485l0,4.502l-2.185,0l0,-19.975l2.185,0l0,13.071l6.355,-7.287l2.455,0l-5.13,5.731l5.783,8.46l-2.427,0Zm-14.512,-0.504c-0.691,0.555 -1.636,0.831 -2.836,0.831l-6.792,0c-0.219,0 -0.475,-0.008 -0.765,-0.027c-0.291,-0.017 -0.578,-0.054 -0.86,-0.109c-0.282,-0.052 -0.555,-0.127 -0.817,-0.219c-0.266,-0.09 -0.489,-0.208 -0.668,-0.353l0,-1.202l9.656,0c0.4,0 0.723,-0.054 0.967,-0.163c0.246,-0.109 0.437,-0.245 0.573,-0.41c0.138,-0.163 0.233,-0.354 0.287,-0.574c0.055,-0.217 0.082,-0.436 0.082,-0.654l0,-2.51c0,-0.763 -0.177,-1.306 -0.532,-1.623c-0.355,-0.319 -0.968,-0.533 -1.841,-0.641l-4.938,-0.656c-1.381,-0.2 -2.405,-0.56 -3.069,-1.079c-0.664,-0.516 -0.996,-1.36 -0.996,-2.524l0,-2.673c0,-0.53 0.066,-1.039 0.192,-1.527c0.126,-0.493 0.355,-0.931 0.682,-1.313c0.325,-0.381 0.786,-0.69 1.378,-0.927c0.59,-0.237 1.35,-0.354 2.275,-0.354l5.074,0c0.22,0 0.475,0.01 0.765,0.026c0.292,0.019 0.578,0.051 0.861,0.097c0.28,0.045 0.554,0.112 0.817,0.203c0.264,0.092 0.487,0.218 0.669,0.383l0,1.201l-8.375,0c-0.856,0 -1.428,0.191 -1.718,0.572c-0.291,0.382 -0.437,0.864 -0.437,1.447l0,2.538c0,0.327 0.073,0.601 0.218,0.82c0.146,0.216 0.34,0.395 0.587,0.53c0.246,0.138 0.519,0.243 0.818,0.315c0.301,0.074 0.604,0.127 0.913,0.163l4.775,0.629c1.383,0.181 2.409,0.563 3.081,1.145c0.674,0.582 1.011,1.475 1.011,2.674l0,3.057c0,1.384 -0.346,2.351 -1.037,2.907" style="fill:#6d6f74;fill-rule:nonzero;"/><path d="M30.128,37.643c-4.388,0 -7.957,-3.572 -7.957,-7.961c0,-4.388 3.569,-7.96 7.957,-7.96c4.389,0 7.957,3.572 7.957,7.96c0,4.389 -3.568,7.961 -7.957,7.961" style="fill:#fff;fill-rule:nonzero;"/><path d="M54.346,10.196l-4.814,-4.816c0,0 -1.49,-1.49 -2.981,0l-16.34,16.347c4.273,0.044 7.742,3.473 7.863,7.73l16.272,-16.28c0,0 1.49,-1.49 0,-2.981" style="fill:#bad1ed;fill-rule:nonzero;"/><path d="M22.174,29.767l-16.9,16.907c0,0 -1.489,1.49 0,2.98l4.813,4.818c0,0 1.491,1.491 2.982,0l16.834,-16.84c-4.256,-0.12 -7.683,-3.592 -7.729,-7.865" style="fill:#bad1ed;fill-rule:nonzero;"/><path d="M59.845,22.268c-0.653,-2.619 -3.917,-4.378 -9.17,-5.062l3.849,-3.851c0.017,-0.016 0.416,-0.422 0.62,-1.031c0.192,-0.577 0.24,-1.446 -0.62,-2.305l-4.814,-4.816c-0.03,-0.031 -0.748,-0.736 -1.723,-0.736c-0.583,0 -1.126,0.246 -1.613,0.736l-3.017,3.016c-0.571,-4.316 -2.038,-7.233 -4.377,-7.948c-0.376,-0.116 -0.774,-0.175 -1.182,-0.175c-4.961,0 -11.495,8.634 -16.149,20.831c-5.639,1.816 -10.675,4.093 -14.543,6.603c-5.212,3.382 -7.694,6.804 -6.988,9.636c0.656,2.628 3.946,4.39 9.239,5.068l-4.259,4.263c-0.579,0.575 -1.32,2.016 0,3.335l4.813,4.816c0.029,0.032 0.746,0.737 1.723,0.737c0.581,0 1.123,-0.248 1.613,-0.737l3.333,-3.334c0.591,4.396 2.114,7.146 4.403,7.848c0.379,0.113 0.746,0.201 1.184,0.173c4.96,0 11.494,-8.634 16.147,-20.83c5.641,-1.818 10.677,-4.095 14.544,-6.604c5.213,-3.38 7.694,-6.802 6.987,-9.633m-13.117,-16.711c0.392,-0.39 0.814,-0.589 1.259,-0.589c0.763,0 1.362,0.584 1.367,0.589l4.814,4.817c1.29,1.291 0.052,2.573 0,2.625l-4.127,4.13c-1.445,-0.158 -3.022,-0.245 -4.733,-0.245c-0.612,0 -1.235,0.014 -1.865,0.035c0.251,-2.991 0.246,-5.719 -0.008,-8.067l3.293,-3.295Zm-3.33,11.866c0.647,-0.023 1.284,-0.036 1.91,-0.036c1.528,0 2.957,0.07 4.274,0.201l-7.306,7.308c0.531,-2.61 0.905,-5.12 1.122,-7.473m-0.432,-0.485c-2.7,0.111 -5.559,0.41 -8.504,0.891l8.569,-8.573c0.209,2.244 0.187,4.842 -0.065,7.682m-5.168,-16.338c0.357,0 0.707,0.05 1.035,0.151c2.249,0.687 3.629,3.579 4.128,7.865l-9.36,9.364c-2.044,0.356 -4.122,0.789 -6.215,1.312c-1.748,0.435 -3.451,0.923 -5.112,1.445c4.538,-11.667 10.889,-20.137 15.524,-20.137m-37.193,36.444c-0.649,-2.608 1.756,-5.837 6.775,-9.092c3.744,-2.43 8.604,-4.637 14.045,-6.419c-0.606,1.626 -1.182,3.305 -1.713,5.042c-0.738,2.413 -1.348,4.809 -1.853,7.153l-8.045,8.049c-5.253,-0.617 -8.599,-2.287 -9.209,-4.733m15.9,13.637l-3.613,3.613c-0.392,0.39 -0.814,0.589 -1.258,0.589c-0.765,0 -1.363,-0.584 -1.369,-0.589l-4.814,-4.817c-1.29,-1.291 -0.051,-2.572 0,-2.626l4.54,-4.542c1.427,0.156 2.982,0.239 4.669,0.239l0.002,0c0.606,0 1.224,-0.015 1.848,-0.035c-0.171,2.002 -0.243,3.919 -0.182,5.694c0.029,0.873 0.091,1.693 0.177,2.474m0.051,-8.672c-0.64,0.021 -1.274,0.036 -1.894,0.036l-0.002,0c-1.505,0 -2.911,-0.065 -4.21,-0.193l7.215,-7.22c-0.519,2.553 -0.887,5.024 -1.109,7.377m0.274,6.181c-0.061,-1.775 0.012,-3.692 0.184,-5.698c2.724,-0.112 5.607,-0.415 8.577,-0.904l-8.629,8.635c-0.063,-0.647 -0.108,-1.322 -0.132,-2.033m5.337,10.642c-0.359,0 -0.706,-0.052 -1.036,-0.152c-2.16,-0.66 -3.57,-3.419 -4.092,-7.826l9.418,-9.419c2.013,-0.354 4.06,-0.78 6.124,-1.294c1.746,-0.436 3.448,-0.924 5.109,-1.447c-4.538,11.667 -10.89,20.138 -15.523,20.138m15.761,-20.734c-1.772,0.564 -3.596,1.088 -5.47,1.556c-1.81,0.452 -3.606,0.833 -5.383,1.159l3.177,-3.178c-0.042,0.001 -0.082,0.007 -0.124,0.007c-0.191,0 -0.377,-0.014 -0.563,-0.028l-3.353,3.354c-3.173,0.55 -6.254,0.895 -9.149,1.02c0.242,-2.545 0.664,-5.234 1.255,-8.009l3.874,-3.874c-0.008,-0.142 -0.022,-0.28 -0.022,-0.422c0,-0.096 0.012,-0.189 0.016,-0.282l-3.675,3.674c0.471,-2.088 1.026,-4.214 1.68,-6.354c0.566,-1.852 1.185,-3.653 1.845,-5.386c1.771,-0.566 3.597,-1.09 5.471,-1.556c1.841,-0.46 3.669,-0.848 5.473,-1.176l-3.134,3.133c0.094,-0.003 0.188,-0.014 0.282,-0.014c0.143,0 0.28,0.013 0.421,0.021l3.294,-3.296c3.148,-0.541 6.204,-0.882 9.077,-1.003c-0.244,2.532 -0.67,5.253 -1.279,8.089l-3.584,3.586c0.012,0.188 0.028,0.373 0.028,0.564c0,0.041 -0.005,0.081 -0.007,0.124l3.359,-3.36c-0.462,2.041 -1.014,4.138 -1.664,6.263c-0.567,1.853 -1.187,3.653 -1.845,5.388m14.655,-6.617c-3.742,2.427 -8.602,4.634 -14.042,6.419c0.605,-1.628 1.181,-3.307 1.711,-5.043c0.735,-2.403 1.345,-4.768 1.838,-7.064l8.127,-8.13c5.214,0.623 8.534,2.291 9.141,4.725c0.651,2.608 -1.755,5.837 -6.775,9.093" style="fill:#158dcd;fill-rule:nonzero;"/><path d="M30.128,23.581c-3.362,0 -6.098,2.737 -6.098,6.101c0,3.364 2.736,6.101 6.098,6.101c3.363,0 6.098,-2.737 6.098,-6.101c0,-3.364 -2.735,-6.101 -6.098,-6.101" style="fill:#faa627;fill-rule:nonzero;"/></svg>