<?xml version="1.0" encoding="UTF-8" standalone="no"?>
<!-- Created with Inkscape (http://www.inkscape.org/) -->

<svg
   xmlns:dc="http://purl.org/dc/elements/1.1/"
   xmlns:cc="http://creativecommons.org/ns#"
   xmlns:rdf="http://www.w3.org/1999/02/22-rdf-syntax-ns#"
   xmlns:svg="http://www.w3.org/2000/svg"
   xmlns="http://www.w3.org/2000/svg"
   xmlns:sodipodi="http://sodipodi.sourceforge.net/DTD/sodipodi-0.dtd"
   xmlns:inkscape="http://www.inkscape.org/namespaces/inkscape"
   version="1.1"
   id="svg2"
   xml:space="preserve"
   width="536.3573"
   height="119.74533"
   viewBox="0 0 536.3573 119.74533"
   sodipodi:docname="sudenergie.svg"
   inkscape:version="0.92.5 (2060ec1f9f, 2020-04-08)"><metadata
     id="metadata8"><rdf:RDF><cc:Work
         rdf:about=""><dc:format>image/svg+xml</dc:format><dc:type
           rdf:resource="http://purl.org/dc/dcmitype/StillImage" /><dc:title></dc:title></cc:Work></rdf:RDF></metadata><defs
     id="defs6"><clipPath
       clipPathUnits="userSpaceOnUse"
       id="clipPath18"><path
         d="M 0,0 H 493.92 V 138.898 H 0 Z"
         id="path16"
         inkscape:connector-curvature="0" /></clipPath></defs><sodipodi:namedview
     pagecolor="#ffffff"
     bordercolor="#666666"
     borderopacity="1"
     objecttolerance="10"
     gridtolerance="10"
     guidetolerance="10"
     inkscape:pageopacity="0"
     inkscape:pageshadow="2"
     inkscape:window-width="1668"
     inkscape:window-height="735"
     id="namedview4"
     showgrid="false"
     inkscape:zoom="0.62560739"
     inkscape:cx="269.27093"
     inkscape:cy="60.525067"
     inkscape:window-x="0"
     inkscape:window-y="0"
     inkscape:window-maximized="0"
     inkscape:current-layer="g10" /><g
     id="g10"
     inkscape:groupmode="layer"
     inkscape:label="SUDenergie_Logo_deepblue_CMYK"
     transform="matrix(1.3333333,0,0,-1.3333333,-60.009065,151.81893)"><g
       id="g12"><g
         id="g14"
         clip-path="url(#clipPath18)"><g
           id="g20"
           transform="translate(447.2748,72.5752)"><path
             d="m 0,0 c 0,11.513 -4.569,19.463 -15.318,19.463 -12.542,0 -20.695,-10.691 -20.695,-24.123 0,-12.61 7.346,-22.387 20.157,-22.387 5.553,0 10.929,1.919 14.153,3.746 0.807,1.371 1.344,3.838 1.166,5.209 -3.315,-1.279 -8.69,-2.559 -12.542,-2.559 -8.422,0 -14.423,6.031 -14.603,15.808 H -0.269 C -0.089,-3.198 0,-1.553 0,0 m -7.973,0.457 h -19.709 c 0.538,8.315 4.659,13.98 11.019,13.98 7.525,0 9.317,-7.675 8.69,-13.98 m -28.989,-25.95 c 0.09,0.548 0.09,1.005 0.09,1.553 0,1.005 -0.09,2.101 -0.269,2.833 -1.881,0.548 -4.837,1.096 -7.077,1.279 v 38.194 c -1.344,0.366 -3.045,0.548 -4.658,0.548 -2.956,0 -6.002,-0.548 -8.062,-1.279 -0.896,-1.37 -1.523,-3.289 -1.613,-4.843 h 6.539 v -32.438 c -1.791,-0.365 -4.299,-1.096 -5.733,-1.736 -0.627,-1.188 -1.075,-2.741 -1.254,-4.111 z m -6.096,56.095 c 0,3.198 -2.061,5.025 -5.016,5.025 -2.956,0 -5.107,-2.01 -5.107,-5.025 0,-3.564 1.792,-5.392 5.107,-5.392 2.955,0 5.016,1.919 5.016,5.392 M -70.805,12.61 h 8.869 c 0,1.553 -0.358,4.203 -0.717,5.482 -1.075,0.366 -2.419,0.548 -3.852,0.548 -3.314,0 -7.077,-0.822 -8.69,-1.736 -2.597,1.554 -6.091,2.559 -10.123,2.559 -9.764,0 -17.2,-6.214 -17.2,-16.356 0,-6.122 2.062,-10.691 5.734,-12.975 v -0.457 c -2.777,-1.554 -4.927,-4.66 -4.927,-7.767 0,-3.29 1.971,-5.757 4.3,-6.488 v -0.457 c -3.673,-0.913 -7.794,-4.568 -7.794,-9.777 0,-9.229 9.586,-13.706 20.157,-13.706 12.094,0 22.485,5.391 22.485,16.356 0,9.777 -7.973,12.062 -18.365,12.062 -8.152,0 -12.99,0.639 -12.99,4.203 0,1.37 0.538,2.924 1.344,3.746 2.061,-0.731 4.748,-1.005 7.256,-1.005 10.661,0 17.111,6.122 17.111,16.265 0,3.929 -0.985,7.035 -2.598,9.503 m -22.127,-38.743 c 3.225,-0.731 6.988,-0.914 10.212,-0.914 9.228,0 12.631,-2.284 12.631,-6.853 0,-6.213 -6.629,-9.412 -13.706,-9.412 -6.629,0 -13.885,3.199 -13.885,9.595 0,3.107 1.434,6.03 4.748,7.584 m 16.752,29.24 c 0,-6.945 -2.956,-11.422 -9.138,-11.422 -5.822,0 -9.316,4.569 -9.316,11.422 0,7.218 2.956,11.421 9.316,11.421 5.644,0 9.138,-4.751 9.138,-11.421 m -29.938,7.675 c 0.18,0.731 0.269,1.553 0.269,2.467 0,2.285 -0.537,4.386 -1.164,5.483 -1.075,0.457 -2.956,0.731 -4.031,0.731 -5.824,0 -10.392,-4.204 -11.646,-9.777 h -0.896 v 8.68 c -1.254,0.366 -2.687,0.548 -4.21,0.548 -2.598,0 -5.465,-0.548 -7.436,-1.279 -0.896,-1.37 -1.523,-3.289 -1.612,-4.843 h 6.539 v -32.438 c -1.792,-0.365 -4.3,-1.096 -5.733,-1.736 -0.627,-1.188 -1.075,-2.741 -1.254,-4.111 h 23.829 c 0.179,1.279 0.089,3.106 -0.179,4.203 -2.06,0.731 -6.361,1.462 -8.869,1.644 V 4.843 c 2.24,5.208 6.181,7.492 10.302,7.492 2.15,0 4.479,-0.548 6.091,-1.553 m -34.847,-15.625 c 0.18,1.645 0.269,3.29 0.269,4.843 0,11.513 -4.568,19.463 -15.318,19.463 -12.542,0 -20.694,-10.691 -20.694,-24.123 0,-12.61 7.345,-22.387 20.156,-22.387 5.554,0 10.929,1.919 14.155,3.746 0.805,1.371 1.343,3.838 1.164,5.209 -3.315,-1.279 -8.69,-2.559 -12.542,-2.559 -8.42,0 -14.423,6.031 -14.603,15.808 z m -7.704,5.3 h -19.709 c 0.538,8.315 4.66,13.98 11.02,13.98 7.525,0 9.316,-7.675 8.689,-13.98 m -28.926,-25.95 c 0.09,0.548 0.09,1.005 0.09,1.553 0,1.005 -0.09,2.101 -0.269,2.833 -1.791,0.548 -4.837,1.005 -7.256,1.187 0.358,7.767 0.537,15.26 0.537,22.935 0,14.163 -6.27,16.448 -13.347,16.448 -8.063,0 -12.81,-4.66 -14.424,-7.767 h -0.895 v 6.67 c -1.255,0.366 -2.688,0.548 -4.211,0.548 -2.687,0 -5.554,-0.548 -7.435,-1.279 -0.896,-1.37 -1.523,-3.289 -1.612,-4.843 h 6.539 v -32.438 c -1.791,-0.365 -4.3,-1.096 -5.733,-1.736 -0.627,-1.188 -1.075,-2.741 -1.254,-4.111 h 21.5 c 0.178,1.279 0.089,3.289 -0.179,4.386 -1.613,0.548 -4.301,1.005 -6.54,1.187 V 7.401 c 1.882,2.559 6.629,5.848 11.198,5.848 6.27,0 8.42,-4.477 8.42,-11.513 v -21.382 c -1.523,-0.365 -3.762,-1.096 -5.106,-1.736 -0.627,-1.188 -1.075,-2.741 -1.254,-4.111 z m -52.943,20.65 c 0.179,1.645 0.269,3.29 0.269,4.843 0,11.513 -4.568,19.463 -15.319,19.463 -12.541,0 -20.693,-10.691 -20.693,-24.123 0,-12.61 7.345,-22.387 20.155,-22.387 5.555,0 10.93,1.919 14.155,3.746 0.806,1.371 1.344,3.838 1.164,5.209 -3.314,-1.279 -8.689,-2.559 -12.541,-2.559 -8.421,0 -14.423,6.031 -14.602,15.808 z m -7.704,5.3 h -19.708 c 0.537,8.315 4.658,13.98 11.019,13.98 7.525,0 9.316,-7.675 8.689,-13.98 M -271.808,-9.558 V 3.756 c 0,4.88 -1.805,8.804 -5.364,11.662 -3.515,2.821 -8.387,4.251 -14.48,4.251 h -19.967 v -45.141 h 20.027 c 6.054,0 10.906,1.431 14.42,4.251 3.559,2.857 5.364,6.781 5.364,11.663 m -10.743,0.801 c 0,-2.064 -0.709,-3.655 -2.169,-4.864 -1.476,-1.224 -3.605,-1.845 -6.328,-1.845 h -9.827 v 25.13 h 9.887 c 2.681,0 4.791,-0.621 6.268,-1.846 1.46,-1.209 2.169,-2.801 2.169,-4.864 z m -26.699,50.046 c -3.918,-2.215 -9.675,-3.551 -15.759,-4.963 -7.841,-1.823 -16.714,-3.885 -23.421,-8.303 -8.812,-5.802 -10.02,-16.041 -10.185,-18.697 5.293,2.85 14.205,4.246 22.092,5.481 7.096,1.111 13.79,2.158 17.697,4.082 8.658,4.265 9.497,19.151 9.576,22.4 m -47.33,-36.451 -2.59,-1.487 v -13.834 c 0,-4.885 1.837,-8.81 5.459,-11.665 3.471,-2.739 8.956,-4.248 15.445,-4.248 6.449,0 11.902,1.509 15.355,4.249 3.601,2.856 5.427,6.78 5.427,11.664 v 24.582 c -2.892,-1.264 -6.618,-2.145 -10.743,-2.9 V -9.379 c 0,-2.199 -0.835,-4.037 -2.353,-5.176 -1.508,-1.133 -4.476,-1.835 -7.747,-1.835 -3.271,0 -6.239,0.702 -7.747,1.835 -1.518,1.139 -2.353,2.977 -2.353,5.176 V 7.663 C -351.688,6.9 -354.57,5.991 -356.58,4.838 m -34.386,1.692 c 0,1.217 0.643,2.159 1.966,2.878 1.445,0.784 3.317,1.181 5.565,1.181 2.479,0 4.567,-0.496 6.204,-1.475 0.186,-0.111 0.36,-0.225 0.523,-0.342 0.385,-0.183 0.771,-0.392 1.152,-0.654 1.447,-0.996 2.405,-2.292 2.65,-3.396 l 8.38,4.363 c -0.622,2.984 -2.128,5.498 -4.508,7.496 -3.176,2.662 -7.96,4.013 -14.219,4.013 -6.227,0 -10.915,-1.355 -13.933,-4.026 -3.041,-2.693 -4.583,-6.071 -4.583,-10.038 0,-2.424 0.554,-4.528 1.648,-6.254 1.088,-1.721 2.51,-3.038 4.226,-3.913 1.646,-0.839 3.5,-1.541 5.511,-2.085 1.987,-0.539 4.007,-0.96 6.003,-1.25 1.943,-0.283 3.735,-0.612 5.325,-0.976 1.518,-0.348 2.772,-0.853 3.725,-1.5 0.834,-0.569 1.239,-1.29 1.239,-2.206 0,-1.542 -0.746,-2.672 -2.283,-3.455 -1.667,-0.851 -3.636,-1.281 -5.852,-1.281 -2.509,0 -4.705,0.488 -6.569,1.409 -0.773,0.197 -1.61,0.577 -2.416,1.132 -1.511,1.04 -2.491,2.408 -2.678,3.54 l -8.378,-4.36 c 0.78,-2.869 2.434,-5.349 4.988,-7.385 3.613,-2.881 8.576,-4.342 14.751,-4.342 6.02,0 10.773,1.412 14.128,4.196 3.392,2.816 5.112,6.405 5.112,10.669 0,3.252 -1.02,5.954 -3.034,8.03 -1.97,2.03 -4.4,3.47 -7.223,4.281 -2.733,0.784 -5.5,1.432 -8.225,1.927 -2.676,0.485 -4.97,1.057 -6.818,1.699 -1.578,0.546 -2.377,1.261 -2.377,2.124"
             style="fill:#1a3657;fill-opacity:1;fill-rule:nonzero;stroke:none"
             id="path22"
             inkscape:connector-curvature="0" /></g></g></g></g></svg>