<svg xmlns="http://www.w3.org/2000/svg" xml:space="preserve" width="536.357" height="119.745" viewBox="0 0 536.357 119.745"><defs><clipPath clipPathUnits="userSpaceOnUse" id="a"><path d="M0 0h493.92v138.898H0Z"/></clipPath></defs><g clip-path="url(#a)" transform="matrix(1.33333 0 0 -1.33333 -60.01 151.819)"><path d="M0 0c0 11.513-4.569 19.463-15.318 19.463-12.542 0-20.695-10.691-20.695-24.123 0-12.61 7.346-22.387 20.157-22.387 5.553 0 10.929 1.919 14.153 3.746.807 1.371 1.344 3.838 1.166 5.209-3.315-1.279-8.69-2.559-12.542-2.559-8.422 0-14.423 6.031-14.603 15.808H-.269C-.089-3.198 0-1.553 0 0m-7.973.457h-19.709c.538 8.315 4.659 13.98 11.019 13.98 7.525 0 9.317-7.675 8.69-13.98m-28.989-25.95c.09.548.09 1.005.09 1.553 0 1.005-.09 2.101-.269 2.833-1.881.548-4.837 1.096-7.077 1.279v38.194c-1.344.366-3.045.548-4.658.548-2.956 0-6.002-.548-8.062-1.279-.896-1.37-1.523-3.289-1.613-4.843h6.539v-32.438c-1.791-.365-4.299-1.096-5.733-1.736-.627-1.188-1.075-2.741-1.254-4.111zm-6.096 56.095c0 3.198-2.061 5.025-5.016 5.025-2.956 0-5.107-2.01-5.107-5.025 0-3.564 1.792-5.392 5.107-5.392 2.955 0 5.016 1.919 5.016 5.392M-70.805 12.61h8.869c0 1.553-.358 4.203-.717 5.482-1.075.366-2.419.548-3.852.548-3.314 0-7.077-.822-8.69-1.736-2.597 1.554-6.091 2.559-10.123 2.559-9.764 0-17.2-6.214-17.2-16.356 0-6.122 2.062-10.691 5.734-12.975v-.457c-2.777-1.554-4.927-4.66-4.927-7.767 0-3.29 1.971-5.757 4.3-6.488v-.457c-3.673-.913-7.794-4.568-7.794-9.777 0-9.229 9.586-13.706 20.157-13.706 12.094 0 22.485 5.391 22.485 16.356 0 9.777-7.973 12.062-18.365 12.062-8.152 0-12.99.639-12.99 4.203 0 1.37.538 2.924 1.344 3.746 2.061-.731 4.748-1.005 7.256-1.005 10.661 0 17.111 6.122 17.111 16.265 0 3.929-.985 7.035-2.598 9.503m-22.127-38.743c3.225-.731 6.988-.914 10.212-.914 9.228 0 12.631-2.284 12.631-6.853 0-6.213-6.629-9.412-13.706-9.412-6.629 0-13.885 3.199-13.885 9.595 0 3.107 1.434 6.03 4.748 7.584m16.752 29.24c0-6.945-2.956-11.422-9.138-11.422-5.822 0-9.316 4.569-9.316 11.422 0 7.218 2.956 11.421 9.316 11.421 5.644 0 9.138-4.751 9.138-11.421m-29.938 7.675c.18.731.269 1.553.269 2.467 0 2.285-.537 4.386-1.164 5.483-1.075.457-2.956.731-4.031.731-5.824 0-10.392-4.204-11.646-9.777h-.896v8.68c-1.254.366-2.687.548-4.21.548-2.598 0-5.465-.548-7.436-1.279-.896-1.37-1.523-3.289-1.612-4.843h6.539v-32.438c-1.792-.365-4.3-1.096-5.733-1.736-.627-1.188-1.075-2.741-1.254-4.111h23.829c.179 1.279.089 3.106-.179 4.203-2.06.731-6.361 1.462-8.869 1.644V4.843c2.24 5.208 6.181 7.492 10.302 7.492 2.15 0 4.479-.548 6.091-1.553m-34.847-15.625c.18 1.645.269 3.29.269 4.843 0 11.513-4.568 19.463-15.318 19.463-12.542 0-20.694-10.691-20.694-24.123 0-12.61 7.345-22.387 20.156-22.387 5.554 0 10.929 1.919 14.155 3.746.805 1.371 1.343 3.838 1.164 5.209-3.315-1.279-8.69-2.559-12.542-2.559-8.42 0-14.423 6.031-14.603 15.808zm-7.704 5.3h-19.709c.538 8.315 4.66 13.98 11.02 13.98 7.525 0 9.316-7.675 8.689-13.98m-28.926-25.95c.09.548.09 1.005.09 1.553 0 1.005-.09 2.101-.269 2.833-1.791.548-4.837 1.005-7.256 1.187.358 7.767.537 15.26.537 22.935 0 14.163-6.27 16.448-13.347 16.448-8.063 0-12.81-4.66-14.424-7.767h-.895v6.67c-1.255.366-2.688.548-4.211.548-2.687 0-5.554-.548-7.435-1.279-.896-1.37-1.523-3.289-1.612-4.843h6.539v-32.438c-1.791-.365-4.3-1.096-5.733-1.736-.627-1.188-1.075-2.741-1.254-4.111h21.5c.178 1.279.089 3.289-.179 4.386-1.613.548-4.301 1.005-6.54 1.187V7.401c1.882 2.559 6.629 5.848 11.198 5.848 6.27 0 8.42-4.477 8.42-11.513v-21.382c-1.523-.365-3.762-1.096-5.106-1.736-.627-1.188-1.075-2.741-1.254-4.111zm-52.943 20.65A45.19 45.19 0 0 1-230.269 0c0 11.513-4.568 19.463-15.319 19.463-12.541 0-20.693-10.691-20.693-24.123 0-12.61 7.345-22.387 20.155-22.387 5.555 0 10.93 1.919 14.155 3.746.806 1.371 1.344 3.838 1.164 5.209-3.314-1.279-8.689-2.559-12.541-2.559-8.421 0-14.423 6.031-14.602 15.808zm-7.704 5.3h-19.708c.537 8.315 4.658 13.98 11.019 13.98 7.525 0 9.316-7.675 8.689-13.98m-33.566-10.015V3.756c0 4.88-1.805 8.804-5.364 11.662-3.515 2.821-8.387 4.251-14.48 4.251h-19.967v-45.141h20.027c6.054 0 10.906 1.431 14.42 4.251 3.559 2.857 5.364 6.781 5.364 11.663m-10.743.801c0-2.064-.709-3.655-2.169-4.864-1.476-1.224-3.605-1.845-6.328-1.845h-9.827v25.13h9.887c2.681 0 4.791-.621 6.268-1.846 1.46-1.209 2.169-2.801 2.169-4.864zm-26.699 50.046c-3.918-2.215-9.675-3.551-15.759-4.963-7.841-1.823-16.714-3.885-23.421-8.303-8.812-5.802-10.02-16.041-10.185-18.697 5.293 2.85 14.205 4.246 22.092 5.481 7.096 1.111 13.79 2.158 17.697 4.082 8.658 4.265 9.497 19.151 9.576 22.4m-47.33-36.451-2.59-1.487v-13.834c0-4.885 1.837-8.81 5.459-11.665 3.471-2.739 8.956-4.248 15.445-4.248 6.449 0 11.902 1.509 15.355 4.249 3.601 2.856 5.427 6.78 5.427 11.664v24.582c-2.892-1.264-6.618-2.145-10.743-2.9V-9.379c0-2.199-.835-4.037-2.353-5.176-1.508-1.133-4.476-1.835-7.747-1.835s-6.239.702-7.747 1.835c-1.518 1.139-2.353 2.977-2.353 5.176V7.663c-3.261-.763-6.143-1.672-8.153-2.825m-34.386 1.692c0 1.217.643 2.159 1.966 2.878 1.445.784 3.317 1.181 5.565 1.181 2.479 0 4.567-.496 6.204-1.475.186-.111.36-.225.523-.342a8.286 8.286 0 0 0 1.152-.654c1.447-.996 2.405-2.292 2.65-3.396l8.38 4.363c-.622 2.984-2.128 5.498-4.508 7.496-3.176 2.662-7.96 4.013-14.219 4.013-6.227 0-10.915-1.355-13.933-4.026-3.041-2.693-4.583-6.071-4.583-10.038 0-2.424.554-4.528 1.648-6.254 1.088-1.721 2.51-3.038 4.226-3.913 1.646-.839 3.5-1.541 5.511-2.085a51.073 51.073 0 0 1 6.003-1.25 68.05 68.05 0 0 0 5.325-.976c1.518-.348 2.772-.853 3.725-1.5.834-.569 1.239-1.29 1.239-2.206 0-1.542-.746-2.672-2.283-3.455-1.667-.851-3.636-1.281-5.852-1.281-2.509 0-4.705.488-6.569 1.409-.773.197-1.61.577-2.416 1.132-1.511 1.04-2.491 2.408-2.678 3.54l-8.378-4.36c.78-2.869 2.434-5.349 4.988-7.385 3.613-2.881 8.576-4.342 14.751-4.342 6.02 0 10.773 1.412 14.128 4.196 3.392 2.816 5.112 6.405 5.112 10.669 0 3.252-1.02 5.954-3.034 8.03-1.97 2.03-4.4 3.47-7.223 4.281a85.14 85.14 0 0 1-8.225 1.927c-2.676.485-4.97 1.057-6.818 1.699-1.578.546-2.377 1.261-2.377 2.124" style="fill:#1a3657;fill-opacity:1;fill-rule:nonzero;stroke:none" transform="translate(447.275 72.575)"/></g></svg>