<svg viewBox="0 0 246 33" xmlns="http://www.w3.org/2000/svg" xml:space="preserve" style="fill-rule:evenodd;clip-rule:evenodd;stroke-linejoin:round;stroke-miterlimit:2"><path d="M7.377 29.967c-.291.365-.222.393-.534 0-1.329-1.667-2.553-3.54-2.553-6.509 0-3.21 1.425-5.469 2.834-6.96h.002c1.086 1.29 2.121 2.712 2.569 4.704.151.665.236 1.393.236 2.199 0 2.953-1.211 4.877-2.554 6.566m6.733-14.366C13.609 8.739 10.501 4.084 7.124.14c-.413.406-.875 1.045-1.319 1.599C2.921 5.34.551 9.758.109 15.685A23.691 23.691 0 0 0 1.4 25.449a25.148 25.148 0 0 0 3.367 6.453c.132.183.514.717.645.758.395.128 1.149 0 1.684 0h1.739c3.177-4.174 5.828-9.508 5.275-17.059M52.075 15.291c-.468-.587-1.174-1.13-2.047-1.207-.779-.067-1.881 0-2.526 0h-5.049c-.746 0-1.887.148-2.469-.084-.713-.283-1.216-1.268-1.49-1.879-.725-1.622-.733-3.78 0-5.388.31-.677.808-1.601 1.46-1.853.417-.157 1.035-.083 1.627-.083h9.428c.534 0 1.14.08 1.517-.056.231-.085.42-.333.561-.562.331-.546.55-1.4.421-2.216-.121-.754-.469-1.581-1.013-1.77-.584-.2-1.761-.053-2.579-.053H36.645c-1.789 0-3.84-.085-5.333.027-1.569.116-2.197 1.054-2.89 2.132-1.196 1.861-2.133 4.127-2.133 7.043 0 2.896.888 5.289 2.047 7.099.402.624.842 1.323 1.349 1.712.573.439 1.289.561 2.384.561h5.921c1.019 0 2.131-.115 2.946.028.849.15 1.334 1.112 1.686 1.854.724 1.531.819 3.653.11 5.33-.307.726-.777 1.591-1.345 1.909-.453.248-1.211.167-1.937.167H29.151c-.608 0-1.254-.065-1.712.03-.735.149-1.162 1.458-1.15 2.326.012.827.398 2.004.981 2.245.403.169 1.068.057 1.573.057h20.315c1.102 0 1.882-.206 2.442-.702.511-.451.969-1.182 1.372-1.85 1.195-1.964 2.127-4.664 1.855-7.831-.247-2.829-1.34-5.221-2.752-6.986M92.201 2.075c-.01-.99-.491-1.636-1.207-1.853C90.384.038 89.485.14 88.75.14h-4.658c-.795 0-1.586-.102-2.247.082-.656.184-1.121.68-1.233 1.433-.136.895-.027 2.027-.027 2.974v19.64c0 .541.06 1.069-.028 1.488-.167.783-1.133 1.302-1.909 1.655-1.648.757-3.775.723-5.387 0-.905-.403-1.896-.927-1.966-1.993-.121-1.854 0-3.922 0-6.002V4.405c0-.961.153-2.17-.054-2.976-.165-.632-.637-1.091-1.348-1.234C69.284.072 68.545.14 67.818.14h-2.161c-1.51 0-3.199-.09-4.322.027-.869.09-1.229.486-1.457.982-.21.451-.17 1.121-.17 1.823v22.812c0 1.07.167 1.826.591 2.444.385.565.99 1.005 1.596 1.429 2.464 1.724 5.274 2.821 9.178 3.003 1.987.095 4.074 0 6.089 0 2.035 0 4.089.074 5.865-.194 1.735-.266 3.335-.768 4.656-1.431 1.336-.675 2.691-1.461 3.621-2.471a3.347 3.347 0 0 0 .897-2.134c.057-.916 0-1.939 0-3.056 0-6.893.074-14.315 0-21.299M125.927 3.197c-.856-1.207-1.662-2.302-3.141-2.807-1.401-.475-3.879-.249-5.67-.249h-14.814c-.952 0-2.106-.068-3.001.025-.768.08-1.457.536-1.602 1.43-.093.575-.027 1.217-.027 1.825v26.265c0 .676-.059 1.362.084 1.794.146.448.568.895 1.04 1.068.68.253 1.934.113 2.831.113h17.791c1.023 0 2.047.071 2.864-.113 1.579-.355 2.49-1.399 3.366-2.554.866-1.142 1.622-2.419 2.245-3.676 1.307-2.649 2.273-5.869 2.273-9.597 0-4.1-.799-6.986-2.05-9.793-.65-1.458-1.376-2.589-2.189-3.731m-7.52 15.489a16.29 16.29 0 0 1-2.273 6.257c-.797 1.295-1.603 2.681-3.395 3.003-.565.1-1.392.147-2.048.028a1.766 1.766 0 0 1-1.345-1.207c-.187-.623-.058-1.731-.058-2.58V8.444c0-.847-.103-1.908.112-2.495.22-.603.654-1.023 1.376-1.125 1.642-.23 3.054.178 3.815.925.681.671 1.299 1.639 1.796 2.5 1.462 2.531 2.585 6.444 2.02 10.437M167.035 14.842c-.646-.625-1.434-.758-2.722-.758h-8.725c-.56 0-1.309-.112-1.741.028-.505.163-1.042 1.314-1.039 2.302.004.859.405 2.02 1.039 2.244.639.227 2.069-.193 2.862.224.64.337 1.069 1.229 1.348 1.852a6.45 6.45 0 0 1 .559 2.666c-.005.975-.211 1.787-.588 2.638-.298.677-.758 1.574-1.375 1.853-.473.215-1.332.11-1.964.11h-1.655c-2.242 0-3.038-1.362-3.93-2.691-1.313-1.965-2.29-4.369-2.608-7.325-.457-4.242.902-7.978 2.581-10.494.899-1.348 1.798-2.695 3.928-2.695h11.588c.539 0 1.185.09 1.628-.029.675-.176 1.127-1.484 1.122-2.326-.003-.896-.477-2.151-1.205-2.273-.825-.14-1.827-.03-2.779-.03h-14.113c-1.905 0-4.056-.075-5.669.03-2.301.146-3.261 1.31-4.293 2.72-1.996 2.735-3.535 5.827-4.153 9.793-.308 1.985-.389 4.448-.14 6.512.5 4.119 1.986 7.446 3.844 10.1.978 1.396 1.792 2.694 3.76 3.199.92.236 2.098.167 3.312.167h17.452c1.22 0 2.403.046 3.115-.363.733-.422 1.159-1.152 1.627-1.853.875-1.305 1.625-2.977 1.965-5.023.544-3.272-.348-6.442-1.573-8.529-.437-.747-.897-1.505-1.458-2.049M211.397 28.928a3829.48 3829.48 0 0 1-9.288-26.067c-.413-1.172-.601-2.416-1.879-2.665-.585-.116-1.308-.057-2.021-.057h-10.382c-1.369 0-2.76-.102-4.153 0-1.476.108-1.655 1.312-2.02 2.61a5967.978 5967.978 0 0 1-7.492 26.291c-.179.625-.498 1.362-.477 1.937.029.804.578 1.455 1.376 1.629.792.169 1.933.055 2.946.055h3.001c1.025 0 2.175.152 2.946-.086 1.173-.356 1.302-1.832 1.628-2.972.618-2.154 1.155-4.057 1.825-6.23h10.409c.809 2.247 1.505 4.231 2.301 6.452.239.668.432 1.557.814 2.106.572.827 1.739.73 3.17.73h4.322c.744 0 1.498.083 2.132-.029a1.757 1.757 0 0 0 1.458-1.796c-.02-.527-.404-1.319-.616-1.908m-22.7-10.213c1.115-3.841 2.205-7.709 3.311-11.561 1.415 3.814 2.741 7.716 4.153 11.532-2.431.065-4.985.01-7.464.029M245.601 2.44c.324-1.019-.315-1.88-1.038-2.189-.687-.294-2.423-.112-3.394-.112h-20.4c-1.138 0-2.34-.127-3.422 0-.427.047-.683.4-.869.727-.315.551-.482 1.404-.338 2.19.138.746.494 1.512.98 1.685.458.16 1.238.056 1.853.056h13.526c-5.12 7.999-10.232 16.021-15.462 24.075-.347.534-.864 1.178-.954 1.711a1.738 1.738 0 0 0 1.349 2.02c.924.205 2.219.057 3.337.057h22.11c.606 0 1.243.076 1.684-.027.657-.155 1.129-1.524 1.124-2.33-.007-.906-.437-2.036-1.097-2.246-.484-.155-1.224-.055-1.849-.055h-13.498c4.966-7.802 10.262-16 15.347-23.936.338-.522.854-1.132 1.011-1.626" style="fill:#1a171b;fill-rule:nonzero"/></svg>