<?xml version="1.0" encoding="UTF-8" standalone="no"?><!DOCTYPE svg PUBLIC "-//W3C//DTD SVG 1.1//EN" "http://www.w3.org/Graphics/SVG/1.1/DTD/svg11.dtd"><svg width="100%" height="100%" viewBox="0 0 246 33" version="1.1" xmlns="http://www.w3.org/2000/svg" xmlns:xlink="http://www.w3.org/1999/xlink" xml:space="preserve" xmlns:serif="http://www.serif.com/" style="fill-rule:evenodd;clip-rule:evenodd;stroke-linejoin:round;stroke-miterlimit:2;"><g><path d="M7.377,29.967c-0.291,0.365 -0.222,0.393 -0.534,0c-1.329,-1.667 -2.553,-3.54 -2.553,-6.509c0,-3.21 1.425,-5.469 2.834,-6.96l0.002,0c1.086,1.29 2.121,2.712 2.569,4.704c0.151,0.665 0.236,1.393 0.236,2.199c0,2.953 -1.211,4.877 -2.554,6.566m6.733,-14.366c-0.501,-6.862 -3.609,-11.517 -6.986,-15.461c-0.413,0.406 -0.875,1.045 -1.319,1.599c-2.884,3.601 -5.254,8.019 -5.696,13.946c-0.276,3.701 0.294,6.933 1.291,9.764c0.844,2.4 1.968,4.515 3.367,6.453c0.132,0.183 0.514,0.717 0.645,0.758c0.395,0.128 1.149,0 1.684,0l1.739,0c3.177,-4.174 5.828,-9.508 5.275,-17.059" style="fill:#1a171b;fill-rule:nonzero;"/><path d="M52.075,15.291c-0.468,-0.587 -1.174,-1.13 -2.047,-1.207c-0.779,-0.067 -1.881,0 -2.526,0l-5.049,0c-0.746,0 -1.887,0.148 -2.469,-0.084c-0.713,-0.283 -1.216,-1.268 -1.49,-1.879c-0.725,-1.622 -0.733,-3.78 0,-5.388c0.31,-0.677 0.808,-1.601 1.46,-1.853c0.417,-0.157 1.035,-0.083 1.627,-0.083l9.428,0c0.534,0 1.14,0.08 1.517,-0.056c0.231,-0.085 0.42,-0.333 0.561,-0.562c0.331,-0.546 0.55,-1.4 0.421,-2.216c-0.121,-0.754 -0.469,-1.581 -1.013,-1.77c-0.584,-0.2 -1.761,-0.053 -2.579,-0.053l-13.271,0c-1.789,0 -3.84,-0.085 -5.333,0.027c-1.569,0.116 -2.197,1.054 -2.89,2.132c-1.196,1.861 -2.133,4.127 -2.133,7.043c0,2.896 0.888,5.289 2.047,7.099c0.402,0.624 0.842,1.323 1.349,1.712c0.573,0.439 1.289,0.561 2.384,0.561l5.921,0c1.019,0 2.131,-0.115 2.946,0.028c0.849,0.15 1.334,1.112 1.686,1.854c0.724,1.531 0.819,3.653 0.11,5.33c-0.307,0.726 -0.777,1.591 -1.345,1.909c-0.453,0.248 -1.211,0.167 -1.937,0.167l-10.299,0c-0.608,0 -1.254,-0.065 -1.712,0.03c-0.735,0.149 -1.162,1.458 -1.15,2.326c0.012,0.827 0.398,2.004 0.981,2.245c0.403,0.169 1.068,0.057 1.573,0.057l20.315,0c1.102,0 1.882,-0.206 2.442,-0.702c0.511,-0.451 0.969,-1.182 1.372,-1.85c1.195,-1.964 2.127,-4.664 1.855,-7.831c-0.247,-2.829 -1.34,-5.221 -2.752,-6.986" style="fill:#1a171b;fill-rule:nonzero;"/><path d="M92.201,2.075c-0.01,-0.99 -0.491,-1.636 -1.207,-1.853c-0.61,-0.184 -1.509,-0.082 -2.244,-0.082l-4.658,0c-0.795,0 -1.586,-0.102 -2.247,0.082c-0.656,0.184 -1.121,0.68 -1.233,1.433c-0.136,0.895 -0.027,2.027 -0.027,2.974l0,19.64c0,0.541 0.06,1.069 -0.028,1.488c-0.167,0.783 -1.133,1.302 -1.909,1.655c-1.648,0.757 -3.775,0.723 -5.387,0c-0.905,-0.403 -1.896,-0.927 -1.966,-1.993c-0.121,-1.854 0,-3.922 0,-6.002l0,-15.012c0,-0.961 0.153,-2.17 -0.054,-2.976c-0.165,-0.632 -0.637,-1.091 -1.348,-1.234c-0.609,-0.123 -1.348,-0.055 -2.075,-0.055l-2.161,0c-1.51,0 -3.199,-0.09 -4.322,0.027c-0.869,0.09 -1.229,0.486 -1.457,0.982c-0.21,0.451 -0.17,1.121 -0.17,1.823l0,22.812c0,1.07 0.167,1.826 0.591,2.444c0.385,0.565 0.99,1.005 1.596,1.429c2.464,1.724 5.274,2.821 9.178,3.003c1.987,0.095 4.074,0 6.089,0c2.035,0 4.089,0.074 5.865,-0.194c1.735,-0.266 3.335,-0.768 4.656,-1.431c1.336,-0.675 2.691,-1.461 3.621,-2.471c0.506,-0.551 0.842,-1.238 0.897,-2.134c0.057,-0.916 0,-1.939 0,-3.056c0,-6.893 0.074,-14.315 0,-21.299" style="fill:#1a171b;fill-rule:nonzero;"/><path d="M125.927,3.197c-0.856,-1.207 -1.662,-2.302 -3.141,-2.807c-1.401,-0.475 -3.879,-0.249 -5.67,-0.249l-14.814,0c-0.952,0 -2.106,-0.068 -3.001,0.025c-0.768,0.08 -1.457,0.536 -1.602,1.43c-0.093,0.575 -0.027,1.217 -0.027,1.825l0,26.265c0,0.676 -0.059,1.362 0.084,1.794c0.146,0.448 0.568,0.895 1.04,1.068c0.68,0.253 1.934,0.113 2.831,0.113l17.791,0c1.023,0 2.047,0.071 2.864,-0.113c1.579,-0.355 2.49,-1.399 3.366,-2.554c0.866,-1.142 1.622,-2.419 2.245,-3.676c1.307,-2.649 2.273,-5.869 2.273,-9.597c0,-4.1 -0.799,-6.986 -2.05,-9.793c-0.65,-1.458 -1.376,-2.589 -2.189,-3.731m-7.52,15.489c-0.337,2.378 -1.183,4.487 -2.273,6.257c-0.797,1.295 -1.603,2.681 -3.395,3.003c-0.565,0.1 -1.392,0.147 -2.048,0.028c-0.661,-0.119 -1.181,-0.644 -1.345,-1.207c-0.187,-0.623 -0.058,-1.731 -0.058,-2.58l0,-15.743c0,-0.847 -0.103,-1.908 0.112,-2.495c0.22,-0.603 0.654,-1.023 1.376,-1.125c1.642,-0.23 3.054,0.178 3.815,0.925c0.681,0.671 1.299,1.639 1.796,2.5c1.462,2.531 2.585,6.444 2.02,10.437" style="fill:#1a171b;fill-rule:nonzero;"/><path d="M167.035,14.842c-0.646,-0.625 -1.434,-0.758 -2.722,-0.758l-8.725,0c-0.56,0 -1.309,-0.112 -1.741,0.028c-0.505,0.163 -1.042,1.314 -1.039,2.302c0.004,0.859 0.405,2.02 1.039,2.244c0.639,0.227 2.069,-0.193 2.862,0.224c0.64,0.337 1.069,1.229 1.348,1.852c0.349,0.786 0.566,1.69 0.559,2.666c-0.005,0.975 -0.211,1.787 -0.588,2.638c-0.298,0.677 -0.758,1.574 -1.375,1.853c-0.473,0.215 -1.332,0.11 -1.964,0.11l-1.655,0c-2.242,0 -3.038,-1.362 -3.93,-2.691c-1.313,-1.965 -2.29,-4.369 -2.608,-7.325c-0.457,-4.242 0.902,-7.978 2.581,-10.494c0.899,-1.348 1.798,-2.695 3.928,-2.695l11.588,0c0.539,0 1.185,0.09 1.628,-0.029c0.675,-0.176 1.127,-1.484 1.122,-2.326c-0.003,-0.896 -0.477,-2.151 -1.205,-2.273c-0.825,-0.14 -1.827,-0.03 -2.779,-0.03l-14.113,0c-1.905,0 -4.056,-0.075 -5.669,0.03c-2.301,0.146 -3.261,1.31 -4.293,2.72c-1.996,2.735 -3.535,5.827 -4.153,9.793c-0.308,1.985 -0.389,4.448 -0.14,6.512c0.5,4.119 1.986,7.446 3.844,10.1c0.978,1.396 1.792,2.694 3.76,3.199c0.92,0.236 2.098,0.167 3.312,0.167l17.452,0c1.22,0 2.403,0.046 3.115,-0.363c0.733,-0.422 1.159,-1.152 1.627,-1.853c0.875,-1.305 1.625,-2.977 1.965,-5.023c0.544,-3.272 -0.348,-6.442 -1.573,-8.529c-0.437,-0.747 -0.897,-1.505 -1.458,-2.049" style="fill:#1a171b;fill-rule:nonzero;"/><path d="M211.397,28.928c-3.174,-8.797 -6.204,-17.324 -9.288,-26.067c-0.413,-1.172 -0.601,-2.416 -1.879,-2.665c-0.585,-0.116 -1.308,-0.057 -2.021,-0.057l-10.382,0c-1.369,0 -2.76,-0.102 -4.153,0c-1.476,0.108 -1.655,1.312 -2.02,2.61c-2.48,8.793 -4.978,17.531 -7.492,26.291c-0.179,0.625 -0.498,1.362 -0.477,1.937c0.029,0.804 0.578,1.455 1.376,1.629c0.792,0.169 1.933,0.055 2.946,0.055l3.001,0c1.025,0 2.175,0.152 2.946,-0.086c1.173,-0.356 1.302,-1.832 1.628,-2.972c0.618,-2.154 1.155,-4.057 1.825,-6.23l10.409,0c0.809,2.247 1.505,4.231 2.301,6.452c0.239,0.668 0.432,1.557 0.814,2.106c0.572,0.827 1.739,0.73 3.17,0.73l4.322,0c0.744,0 1.498,0.083 2.132,-0.029c0.871,-0.152 1.495,-0.925 1.458,-1.796c-0.02,-0.527 -0.404,-1.319 -0.616,-1.908m-22.7,-10.213c1.115,-3.841 2.205,-7.709 3.311,-11.561c1.415,3.814 2.741,7.716 4.153,11.532c-2.431,0.065 -4.985,0.01 -7.464,0.029" style="fill:#1a171b;fill-rule:nonzero;"/><path d="M245.601,2.44c0.324,-1.019 -0.315,-1.88 -1.038,-2.189c-0.687,-0.294 -2.423,-0.112 -3.394,-0.112l-20.4,0c-1.138,0 -2.34,-0.127 -3.422,0c-0.427,0.047 -0.683,0.4 -0.869,0.727c-0.315,0.551 -0.482,1.404 -0.338,2.19c0.138,0.746 0.494,1.512 0.98,1.685c0.458,0.16 1.238,0.056 1.853,0.056l13.526,0c-5.12,7.999 -10.232,16.021 -15.462,24.075c-0.347,0.534 -0.864,1.178 -0.954,1.711c-0.173,1.037 0.508,1.836 1.349,2.02c0.924,0.205 2.219,0.057 3.337,0.057l22.11,0c0.606,0 1.243,0.076 1.684,-0.027c0.657,-0.155 1.129,-1.524 1.124,-2.33c-0.007,-0.906 -0.437,-2.036 -1.097,-2.246c-0.484,-0.155 -1.224,-0.055 -1.849,-0.055l-13.498,0c4.966,-7.802 10.262,-16 15.347,-23.936c0.338,-0.522 0.854,-1.132 1.011,-1.626" style="fill:#1a171b;fill-rule:nonzero;"/></g></svg>