<?xml version="1.0" encoding="UTF-8" standalone="no"?>
<!-- Created with Inkscape (http://www.inkscape.org/) -->

<svg
   xmlns:dc="http://purl.org/dc/elements/1.1/"
   xmlns:cc="http://creativecommons.org/ns#"
   xmlns:rdf="http://www.w3.org/1999/02/22-rdf-syntax-ns#"
   xmlns:svg="http://www.w3.org/2000/svg"
   xmlns="http://www.w3.org/2000/svg"
   xmlns:sodipodi="http://sodipodi.sourceforge.net/DTD/sodipodi-0.dtd"
   xmlns:inkscape="http://www.inkscape.org/namespaces/inkscape"
   version="1.1"
   id="svg2"
   xml:space="preserve"
   width="7559.0532"
   height="2205.9734"
   viewBox="0 0 7559.0532 2205.9734"
   sodipodi:docname="technoport.svg"
   inkscape:version="0.92.5 (2060ec1f9f, 2020-04-08)"><metadata
     id="metadata8"><rdf:RDF><cc:Work
         rdf:about=""><dc:format>image/svg+xml</dc:format><dc:type
           rdf:resource="http://purl.org/dc/dcmitype/StillImage" /><dc:title></dc:title></cc:Work></rdf:RDF></metadata><defs
     id="defs6" /><sodipodi:namedview
     pagecolor="#ffffff"
     bordercolor="#666666"
     borderopacity="1"
     objecttolerance="10"
     gridtolerance="10"
     guidetolerance="10"
     inkscape:pageopacity="0"
     inkscape:pageshadow="2"
     inkscape:window-width="1416"
     inkscape:window-height="836"
     id="namedview4"
     showgrid="false"
     inkscape:pagecheckerboard="true"
     inkscape:zoom="0.041804177"
     inkscape:cx="3779.5266"
     inkscape:cy="1102.9867"
     inkscape:window-x="0"
     inkscape:window-y="0"
     inkscape:window-maximized="0"
     inkscape:current-layer="g10" /><g
     id="g10"
     inkscape:groupmode="layer"
     inkscape:label="ink_ext_XXXXXX"
     transform="matrix(1.3333333,0,0,-1.3333333,0,2205.9733)"><g
       id="g12"
       transform="scale(0.1)"><path
         d="m 7784.8,11194.4 c 0,1036.8 -346.2,1571.2 -989.4,1571.2 -690.6,0 -1046.6,-546.8 -1118,-1676.8 h 2107.4 z m -2084.4,-975.6 c 59.8,-1141.96 607.6,-1725.16 1607.8,-1725.16 498,0 999.2,140.8 1487.8,441.2 v -1106.6 c -523.2,-262.4 -1082.4,-392.2 -1704,-392.2 -1793.4,0 -2830.6,1128.8 -2830.6,3152.16 0,1951.4 963.2,3200.4 2558.6,3200.4 1332.4,0 2308,-1130.6 2308,-3058.8 0,-47 0,-225.2 -11.6,-511 h -3416"
         style="fill:#32373c;fill-opacity:1;fill-rule:nonzero;stroke:none"
         id="path14"
         inkscape:connector-curvature="0" /><path
         d="m 14090.1,12374.1 c -320.6,177.8 -702,273.6 -1046.6,273.6 -964.4,0 -1522.8,-678 -1522.8,-1953.2 0,-1379.2 569.2,-2117.61 1548.4,-2117.61 392,0 772.2,105.6 1117,297.81 l 57,-1165.6 c -509.6,-190.4 -1009.2,-273.21 -1544.2,-273.21 -1642.8,0 -2678.4,1225.01 -2678.4,3140.41 0,2047.8 1057.6,3211.4 2808.4,3211.4 429,0 882.2,-93.8 1332.4,-260.6 l -71.2,-1153"
         style="fill:#32373c;fill-opacity:1;fill-rule:nonzero;stroke:none"
         id="path16"
         inkscape:connector-curvature="0" /><g
         id="g18"
         transform="scale(1.2171)"><path
           d="m 13631,13593.6 v -2939.3 c 302.9,460.1 724.4,674.1 1300.3,674.1 830.2,0 1368.7,-555.5 1368.7,-1659.71 V 6205.71 H 15126.6 V 9434.2 c 0,605 -195.3,898.5 -685.4,898.5 -468.5,0 -810.2,-410.95 -810.2,-1172.92 V 6205.71 H 12456.5 V 13593.6 H 13631"
           style="fill:#32373c;fill-opacity:1;fill-rule:nonzero;stroke:none"
           id="path20"
           inkscape:connector-curvature="0" /></g><g
         id="g22"
         transform="scale(1.59606)"><path
           d="m 16300,4732.23 h -895.5 v 2461.94 c 0,461.38 -148.1,685.31 -522.6,685.31 -355.4,0 -617.3,-313.15 -617.3,-894.83 V 4732.23 h -895.8 v 2938.86 c 0,275.3 -7.3,572.66 -36.7,886.43 h 812.6 c 14.8,-194.48 37.6,-380.81 37.6,-567.02 185.7,409.64 581.5,648.6 1044.1,648.6 686.3,0 1073.6,-424.05 1073.6,-1266.12 V 4732.23"
           style="fill:#32373c;fill-opacity:1;fill-rule:nonzero;stroke:none"
           id="path24"
           inkscape:connector-curvature="0" /></g><g
         id="g26"
         transform="scale(1.99101)"><path
           d="m 14405.6,5323.93 c 0,-692.82 216.7,-1051.73 573.2,-1051.73 364.8,0 568.7,352.58 568.7,1051.73 0,699.34 -209.9,1064.08 -568.7,1064.08 -356.5,0 -573.2,-364.74 -573.2,-1064.08 m 1894.4,6.12 c 0,-1033.94 -483.2,-1595.27 -1326.5,-1595.27 -837,0 -1320.2,566.95 -1320.2,1595.27 0,1027.62 478.3,1595.37 1320.2,1595.37 843.3,0 1326.5,-562.22 1326.5,-1595.37"
           style="fill:#32373c;fill-opacity:1;fill-rule:nonzero;stroke:none"
           id="path28"
           inkscape:connector-curvature="0" /></g><g
         id="g30"
         transform="scale(2.37948)"><path
           d="m 15210.2,3590.19 c 299.1,0 454.3,290.06 454.3,869.68 0,580.05 -155.2,870.36 -454.3,870.36 -280.1,0 -456.1,-244.85 -456.1,-734.95 v -265.27 c 0,-490.94 176,-739.82 456.1,-739.82 m -456.1,-1542.35 h -599.4 v 3027.12 c 0,54.81 -9.9,279.9 -20.6,665.1 h 570.2 c 10.2,-119.94 20.1,-249.8 20.1,-385.2 164.7,300.65 375.4,439.59 680.3,439.59 570.7,0 895.3,-449.26 895.3,-1334.58 0,-884.73 -319.9,-1340.37 -900.5,-1340.37 -294.9,0 -489.7,124.73 -645.4,399.41 V 2047.84"
           style="fill:#32373c;fill-opacity:1;fill-rule:nonzero;stroke:none"
           id="path32"
           inkscape:connector-curvature="0" /></g><g
         id="g34"
         transform="scale(2.75769)"><path
           d="m 14931.2,3843.79 c 0,-500.2 155.6,-759.33 414.6,-759.33 263.3,0 410.3,254.56 410.3,759.33 0,504.92 -150.8,768.25 -410.3,768.25 -259,0 -414.6,-263.33 -414.6,-768.25 m 1368.8,4.43 c 0,-746.5 -349.9,-1151.76 -958.1,-1151.76 -603.7,0 -954,409.32 -954,1151.76 0,741.92 345.4,1151.83 954,1151.83 608.2,0 958.1,-405.92 958.1,-1151.83"
           style="fill:#32373c;fill-opacity:1;fill-rule:nonzero;stroke:none"
           id="path36"
           inkscape:connector-curvature="0" /></g><g
         id="g38"
         transform="scale(3.02258)"><path
           d="m 16300,4109.93 c -38.7,3.63 -78.9,11.77 -118.2,11.77 -294.8,0 -428.7,-189.9 -428.7,-567.92 V 2498.85 h -472.6 V 4050.7 c 0,145.38 -3.7,302.33 -19.9,468.08 h 429.5 c 8,-98.32 15.5,-192.48 15.5,-287.5 v -59.09 c 102.9,252.17 283.3,386.16 535.6,386.16 3.8,0 23.7,-4.1 58.8,-4.1 v -444.32"
           style="fill:#32373c;fill-opacity:1;fill-rule:nonzero;stroke:none"
           id="path40"
           inkscape:connector-curvature="0" /></g><path
         d="M 964.199,14872.7 V 13658.3 H 0 V 12624.1 H 964.199 V 9647.72 c 0,-1415.41 190.001,-2189.41 1667.401,-2189.41 331.8,0 666,47.6 1012,131.61 v 1058.6 c -191.4,-60.4 -370.6,-94.61 -559.2,-94.61 -608.8,0 -690.6,332.21 -690.6,1106.61 v 2963.58 h 1190 v 1034.2 h -1190 v 1561.8 c -468.6,-136.4 -944.6,-251 -1429.601,-347.4"
         style="fill:#32373c;fill-opacity:1;fill-rule:nonzero;stroke:none"
         id="path42"
         inkscape:connector-curvature="0" /><g
         id="g44"
         transform="scale(3.28879)"><path
           d="M 15485.4,4522.25 V 4153 h -293 v -314.46 h 293 v -905.02 c 0,-430.37 58.1,-665.72 506.8,-665.72 101.5,0 202.8,14.47 307.8,40.02 v 321.88 c -57.9,-18.36 -112.4,-28.77 -170.2,-28.77 -184.6,0 -209.6,101.02 -209.6,336.48 v 901.13 h 361.6 V 4153 h -361.6 v 474.89 c -142.8,-41.48 -286.8,-76.32 -434.8,-105.64"
           style="fill:#32373c;fill-opacity:1;fill-rule:nonzero;stroke:none"
           id="path46"
           inkscape:connector-curvature="0" /></g><g
         id="g48"
         transform="scale(3.47809)"><path
           d="m 15859.5,4038.02 h 85.5 c 32.9,0 60,15.41 60,50.14 0,35.08 -23.6,51.81 -66.9,51.81 h -78.6 z m -70.6,169.92 h 130.7 c 74.7,0 159.5,-12.31 159.5,-125.82 0,-69.69 -43,-83.72 -68.2,-96.43 l 73.2,-168.6 h -79.1 l -61.5,157.1 h -84 v -157.1 h -70.6 z m 140.3,-520.46 c 173.5,0 316.2,141.63 316.2,315.23 0,173.66 -142.7,315.87 -316.2,315.87 -174.3,0 -316,-142.21 -316,-315.87 0,-173.6 141.7,-315.23 316,-315.23 m -371.3,315.23 c 0,203.22 167.5,371.41 371.3,371.41 203.9,0 370.8,-168.19 370.8,-371.41 0,-204.77 -166.9,-370.43 -370.8,-370.43 -203.8,0 -371.3,165.66 -371.3,370.43"
           style="fill:#32373c;fill-opacity:1;fill-rule:nonzero;stroke:none"
           id="path50"
           inkscape:connector-curvature="0" /></g><path
         d="m 1834.38,815.203 c 3.3,-13.301 6.6,-23.101 6.6,-33 0,-42.902 -247.5,-135.402 -425.7,-135.402 -141.9,0 -260.7,52.902 -310.2,115.5 -95.7,102.402 -95.7,250.799 -95.7,372.999 v 937.2 H 761.879 c -23.102,0 -23.102,23.1 -23.102,39.6 v 125.4 c 0,23.1 0,39.6 23.102,39.6 h 247.501 v 452.1 c 0,19.8 13.2,33 36.3,39.6 l 174.9,49.5 c 9.9,0 16.5,3.3 23.1,3.3 16.5,0 16.5,-16.5 16.5,-36.3 v -508.2 h 488.41 c 19.8,0 36.29,-3.3 36.29,-23.1 0,-6.6 -3.3,-13.2 -3.3,-23.1 l -42.9,-128.7 c -6.6,-16.5 -23.1,-29.7 -42.9,-29.7 h -435.6 v -937.2 c 0,-132 0,-267.3 198,-267.3 155.1,0 287.1,89.102 316.8,89.102 13.21,0 23.1,-9.899 23.1,-19.899 l 36.3,-122"
         style="fill:#c11430;fill-opacity:1;fill-rule:nonzero;stroke:none"
         id="path52"
         inkscape:connector-curvature="0" /><path
         d="m 3411.75,1636.9 c 0,171.6 -56.1,481.8 -343.2,481.8 -303.61,0 -369.6,-316.8 -369.6,-481.8 z m 224.4,-792.099 c 3.3,-9.801 9.9,-16.399 9.9,-26.301 0,-36.297 -277.2,-171.699 -521.4,-171.699 -438.91,3.402 -696.31,336.699 -696.31,838.299 0,485.1 244.21,838.2 653.41,838.2 551.1,0 600.6,-534.6 600.6,-818.4 0,-46.2 0,-72.6 -36.3,-72.6 h -947.1 c 0,-201.3 79.2,-564.3 455.4,-564.3 214.5,0 386.1,135.3 405.9,135.3 9.9,0 13.2,-9.898 19.8,-19.8 l 56.1,-138.699"
         style="fill:#c11430;fill-opacity:1;fill-rule:nonzero;stroke:none"
         id="path54"
         inkscape:connector-curvature="0" /><path
         d="m 5576.54,844.801 c 3.31,-9.801 9.9,-16.399 9.9,-26.301 0,-36.297 -277.2,-171.699 -521.4,-171.699 -392.7,0 -620.4,307 -620.4,788.799 0,551.1 264,887.7 669.9,887.7 221.1,0 475.2,-155.1 475.2,-204.6 0,-9.9 -6.59,-16.5 -9.89,-26.4 l -75.91,-138.6 c -6.59,-9.9 -9.9,-19.8 -19.8,-19.8 -13.2,0 -155.1,168.3 -349.8,168.3 -323.4,0 -419.1,-240.9 -419.1,-617.1 0,-300.4 59.4,-617.1 379.5,-617.1 214.5,0 386.1,135.3 405.9,135.3 9.9,0 13.2,-9.898 19.8,-19.8 l 56.1,-138.699"
         style="fill:#c11430;fill-opacity:1;fill-rule:nonzero;stroke:none"
         id="path56"
         inkscape:connector-curvature="0" /><path
         d="m 6391.62,2996.5 c 0,23.1 9.9,36.3 23.1,39.6 l 165,39.6 c 26.4,6.6 16.5,3.3 39.6,6.6 23.1,0 23.1,-26.4 23.1,-42.9 v -940.5 c 105.6,85.8 277.2,224.4 518.1,224.4 366.3,0 392.7,-257.4 392.7,-495 V 732.703 c 0,-26.402 -13.2,-39.601 -39.6,-39.601 h -171.6 c -26.4,0 -39.6,13.199 -39.6,39.601 V 1834.9 c 0,141.9 -36.3,267.3 -214.5,267.3 -214.5,0 -363,-128.7 -445.5,-201.3 V 732.703 c 0,-26.402 -13.2,-39.601 -39.6,-39.601 h -171.6 c -26.4,0 -39.6,13.199 -39.6,39.601 V 2996.5"
         style="fill:#c11430;fill-opacity:1;fill-rule:nonzero;stroke:none"
         id="path58"
         inkscape:connector-curvature="0" /><path
         d="m 9711.42,732.703 c 0,-26.402 -13.21,-39.601 -39.6,-39.601 h -171.6 c -26.4,0 -39.6,13.199 -39.6,39.601 V 1834.9 c 0,141.9 -36.31,267.3 -214.5,267.3 -214.51,0 -353.11,-128.7 -435.61,-201.3 V 732.703 c 0,-26.402 -13.2,-39.601 -39.6,-39.601 h -171.6 c -26.4,0 -39.6,13.199 -39.6,39.601 V 1871.2 c 0,108.9 0,145.2 -13.2,194.7 -26.4,99 -52.8,122.1 -52.8,138.6 0,6.6 3.3,13.2 16.5,23.1 l 148.5,82.5 c 6.6,3.3 16.5,13.2 26.4,13.2 59.4,0 99,-198 102.3,-224.4 108.9,85.8 280.5,224.4 531.3,224.4 366.31,0 392.71,-257.4 392.71,-495 V 732.703"
         style="fill:#c11430;fill-opacity:1;fill-rule:nonzero;stroke:none"
         id="path60"
         inkscape:connector-curvature="0" /><path
         d="m 11582.5,1498.3 c 0,323.4 -89.1,620.4 -386.1,620.4 -297,0 -386.1,-283.8 -386.1,-610.5 0,-376.2 85.8,-656.798 389.4,-656.798 293.7,0 382.8,267.398 382.8,646.898 z m -405.9,-851.499 c -445.5,0 -636.9,359.799 -636.9,831.699 0,455.4 191.4,844.8 669.9,844.8 452.1,0 643.5,-363 643.5,-828.3 0,-462 -194.7,-848.199 -676.5,-848.199"
         style="fill:#c11430;fill-opacity:1;fill-rule:nonzero;stroke:none"
         id="path62"
         inkscape:connector-curvature="0" /><path
         d="m 13344.7,752.5 c 3.3,-6.598 6.6,-16.5 6.6,-23.199 0,-36.199 -158.4,-82.5 -280.5,-82.5 -161.7,0 -270.6,66.101 -310.2,158.402 -46.2,108.996 -46.2,363.097 -46.2,478.597 v 1712.7 c 0,23.1 9.9,36.3 23.1,39.6 l 165,39.6 c 26.4,6.6 16.5,3.3 39.6,6.6 23.1,0 23.1,-26.4 23.1,-42.9 V 1277.2 c 0,-102.3 3.3,-270.6 9.9,-310.2 6.6,-36.398 36.3,-115.598 132,-115.598 85.8,0 148.5,42.899 171.6,42.899 19.8,0 19.8,-9.899 23.1,-19.699 l 42.9,-122.102"
         style="fill:#c11430;fill-opacity:1;fill-rule:nonzero;stroke:none"
         id="path64"
         inkscape:connector-curvature="0" /><path
         d="m 14978.2,1498.3 c 0,323.4 -89.1,620.4 -386.1,620.4 -297,0 -386.1,-283.8 -386.1,-610.5 0,-376.2 85.8,-656.798 389.4,-656.798 293.7,0 382.8,267.398 382.8,646.898 z m -405.9,-851.499 c -445.5,0 -636.9,359.799 -636.9,831.699 0,455.4 191.4,844.8 669.9,844.8 452.1,0 643.5,-363 643.5,-828.3 0,-462 -194.7,-848.199 -676.5,-848.199"
         style="fill:#c11430;fill-opacity:1;fill-rule:nonzero;stroke:none"
         id="path66"
         inkscape:connector-curvature="0" /><g
         id="g68"
         transform="scale(1.06306)"><path
           d="m 15967.8,1893.69 c -52.7,24.84 -161.4,83.82 -285.5,83.82 -236,0 -347.7,-207.99 -347.7,-540.14 0,-329.06 59,-537.039 270,-537.039 161.5,0 291.8,105.549 363.2,155.209 z m 236,-642.58 c 0,-173.83 21.7,-537.13 21.7,-704.664 C 16225.5,263.958 16098.2,0 15679.1,0 c -232.8,0 -521.5,105.548 -521.5,164.528 0,15.521 3.1,21.823 12.4,40.354 l 49.7,105.64 c 3.1,9.219 9.3,18.53 21.7,18.53 24.9,0 211.1,-121.065 425.3,-121.065 288.7,0 322.9,167.629 322.9,335.354 0,155.213 -9.3,282.488 -9.3,319.737 -71.4,-59.072 -214.2,-170.734 -422.2,-170.734 -282.5,0 -478.1,248.341 -478.1,686.046 0,487.37 189.4,807.1 583.6,807.1 204.9,0 326,-102.44 366.3,-133.48 28,77.61 62.1,133.48 90.1,133.48 12.4,0 21.7,-3.1 27.9,-6.21 l 139.7,-86.91 c 12.4,-9.32 12.4,-12.42 12.4,-18.63 0,-24.83 -27.9,-40.35 -55.9,-114.86 -27.9,-77.6 -40.3,-117.96 -40.3,-229.71 v -478.06"
           style="fill:#c11430;fill-opacity:1;fill-rule:nonzero;stroke:none"
           id="path70"
           inkscape:connector-curvature="0" /></g><g
         id="g72"
         transform="scale(1.18858)"><path
           d="M 15977.9,755.276 C 15933.5,602.487 15869.7,377.681 15786.4,202.764 15730.8,86.07 15611.4,0 15458.7,0 c -158.2,0 -349.8,97.2605 -349.8,138.907 0,5.469 2.8,11.02 5.6,16.574 l 55.5,111.057 c 2.8,8.413 11.1,13.968 19.4,13.968 30.6,0 130.5,-108.281 266.6,-108.281 102.7,0 166.6,102.726 211,235.997 l 58.3,174.914 h -100 c -25,0 -30.5,5.554 -36.1,24.905 l -430.3,1207.829 c -2.8,13.88 -8.3,22.21 -5.6,38.87 0,13.88 11.1,16.66 22.2,22.21 l 116.7,47.2 c 13.8,5.55 27.7,11.11 38.8,11.11 19.5,0 25,-8.33 30.6,-22.21 l 349.8,-1049.494 c 27.8,-80.601 41.6,-141.599 55.5,-199.904 h 5.6 c 11.1,66.633 25,127.716 41.6,194.267 l 277.7,1055.131 c 2.7,13.88 13.9,22.21 30.5,22.21 11.1,0 25,-5.56 38.9,-11.11 l 116.6,-47.2 c 11.1,-5.55 22.2,-8.33 22.2,-22.21 0,-16.66 -2.8,-24.99 -5.6,-38.87 L 15977.9,755.276"
           style="fill:#c11430;fill-opacity:1;fill-rule:nonzero;stroke:none"
           id="path74"
           inkscape:connector-curvature="0" /></g><g
         id="g76"
         transform="scale(1.3971)"><path
           d="m 15617.4,711.047 c 54.3,-37.793 141.7,-89.759 245.6,-89.759 222.1,0 243.3,271.634 243.3,517.282 0,181.88 -18.9,366.12 -210.2,366.12 -137,0 -181.9,-51.96 -278.7,-118.1 z m 0,831.433 c 63.7,66.14 191.3,120.47 300,120.47 285.8,0 382.6,-238.57 382.6,-529.1 0,-340.132 -89.8,-670.89 -403.9,-670.89 -165.3,0 -252.7,42.588 -328.3,115.74 -11.8,-33.068 -49.6,-115.74 -75.6,-115.74 -9.5,0 -23.6,9.52 -33.1,16.605 l -59,37.724 c -18.9,11.88 -35.5,18.965 -35.5,30.705 0,11.883 18.9,28.346 35.5,68.571 21.2,37.791 37.8,92.119 37.8,167.633 V 2144.8 c 0,16.54 7,25.99 16.5,28.35 l 118.1,28.34 c 18.9,4.73 11.8,2.36 28.3,4.73 16.6,0 16.6,-18.9 16.6,-30.71 v -633.03"
           style="fill:#c11430;fill-opacity:1;fill-rule:nonzero;stroke:none"
           id="path78"
           inkscape:connector-curvature="0" /></g><g
         id="g80"
         transform="scale(1.52606)"><path
           d="m 16070.8,1466.19 c 0,15.14 6.5,23.79 15.1,25.95 l 108.1,25.95 c 17.3,4.33 10.9,2.16 26,4.33 15.1,0 15.1,-17.3 15.1,-28.11 V 724.48 c 0,-49.734 2.2,-97.309 23.8,-142.784 13,-25.951 41.1,-69.133 41.1,-82.174 0,-8.586 -10.8,-12.909 -19.5,-17.235 l -84.3,-51.898 c -8.6,-4.323 -13,-6.552 -17.3,-6.552 -32.4,0 -56.2,77.848 -80,127.582 -60.6,-49.734 -177.3,-127.582 -300.6,-127.582 -291.9,0 -315.7,168.735 -315.7,324.364 v 717.989 c 0,15.14 6.5,23.79 15.1,25.95 l 108.2,25.95 c 17.3,4.33 10.8,2.16 25.9,4.33 15.1,0 15.1,-17.3 15.1,-28.11 V 743.942 c 0,-92.984 36.8,-175.158 177.4,-175.158 67,0 205.4,71.296 246.5,110.285 v 787.121"
           style="fill:#c11430;fill-opacity:1;fill-rule:nonzero;stroke:none"
           id="path82"
           inkscape:connector-curvature="0" /></g><g
         id="g84"
         transform="scale(1.63356)"><path
           d="m 16229.3,1260.62 c -8.1,-16.16 -12.1,-24.24 -24.2,-24.24 -14.2,0 -99,54.54 -204.1,54.54 -80.8,0 -149.5,-40.4 -149.5,-133.33 0,-222.212 448.5,-159.588 448.5,-474.727 0,-189.951 -149.5,-286.919 -323.2,-286.919 -97,0 -307.1,56.625 -307.1,96.968 0,10.16 4.1,16.22 8.1,24.24 l 28.3,62.686 c 6,14.08 12.1,18.119 18.2,18.119 18.1,0 123.2,-70.642 260.6,-70.642 86.8,0 161.6,48.482 161.6,145.387 0,210.155 -448.5,163.69 -448.5,468.728 0,163.63 127.3,280.8 305,280.8 68.7,0 185.9,-32.32 238.4,-60.61 16.2,-8.08 22.2,-16.16 22.2,-26.26 0,-6.06 -6,-12.12 -8,-20.2 l -26.3,-54.54"
           style="fill:#c11430;fill-opacity:1;fill-rule:nonzero;stroke:none"
           id="path86"
           inkscape:connector-curvature="0" /></g><g
         id="g88"
         transform="scale(1.71151)"><path
           d="m 16182.4,1552.2 c -65.6,0 -117.6,52.06 -117.6,117.61 0,65.56 52,117.62 117.6,117.62 65.5,0 117.6,-53.99 117.6,-117.62 0,-63.63 -52.1,-117.61 -117.6,-117.61 z m 82.9,-1124.097 c 0,-15.426 -7.7,-23.138 -23.1,-23.138 h -100.3 c -15.4,0 -23.1,7.712 -23.1,23.138 v 782.817 h -150.4 c -15.5,0 -23.2,7.71 -23.2,23.14 v 73.27 c 0,15.42 7.7,23.13 23.2,23.13 h 271.8 c 21.2,0 25.1,-11.57 25.1,-28.92 V 428.103"
           style="fill:#c11430;fill-opacity:1;fill-rule:nonzero;stroke:none"
           id="path90"
           inkscape:connector-curvature="0" /></g><g
         id="g92"
         transform="scale(1.84128)"><path
           d="m 16300,397.931 c 0,-14.339 -7.2,-21.508 -21.5,-21.508 h -93.2 c -14.3,0 -21.5,7.169 -21.5,21.508 v 598.604 c 0,77.065 -19.7,145.175 -116.5,145.175 -116.5,0 -191.8,-69.9 -236.6,-109.33 V 397.931 c 0,-14.339 -7.1,-21.508 -21.5,-21.508 h -93.2 c -14.3,0 -21.5,7.169 -21.5,21.508 v 618.319 c 0,59.14 0,78.86 -7.2,105.74 -14.3,53.77 -28.6,66.31 -28.6,75.27 0,3.59 1.8,7.17 8.9,12.55 l 80.7,44.81 c 3.6,1.79 8.9,7.16 14.3,7.16 32.3,0 53.8,-107.53 55.6,-121.87 59.1,46.6 152.3,121.87 288.5,121.87 199,0 213.3,-139.79 213.3,-268.83 V 397.931"
           style="fill:#c11430;fill-opacity:1;fill-rule:nonzero;stroke:none"
           id="path94"
           inkscape:connector-curvature="0" /></g><g
         id="g96"
         transform="scale(1.96721)"><path
           d="m 16162.4,832.094 c 0,87.229 -28.5,244.916 -174.4,244.916 -154.3,0 -187.9,-161.041 -187.9,-244.916 z m 114.1,-402.653 c 1.7,-4.982 5,-8.336 5,-13.369 0,-18.451 -140.9,-87.281 -265,-87.281 -223.1,1.73 -354,171.156 -354,426.137 0,246.592 124.2,426.082 332.2,426.082 280.1,0 305.3,-271.751 305.3,-416.016 0,-23.485 0,-36.906 -18.5,-36.906 h -481.4 c 0,-102.328 40.3,-286.854 231.5,-286.854 109,0 196.3,68.778 206.3,68.778 5.1,0 6.7,-5.031 10.1,-10.065 l 28.5,-70.506"
           style="fill:#c11430;fill-opacity:1;fill-rule:nonzero;stroke:none"
           id="path98"
           inkscape:connector-curvature="0" /></g><g
         id="g100"
         transform="scale(2.07309)"><path
           d="m 16244.3,993.348 c -6.4,-12.734 -9.6,-19.101 -19.1,-19.101 -11.2,0 -78,42.973 -160.8,42.973 -63.7,0 -117.8,-31.832 -117.8,-105.056 0,-175.101 353.4,-125.754 353.4,-374.079 0,-149.678 -117.8,-226.087 -254.7,-226.087 -76.4,0 -241.9,44.619 -241.9,76.409 0,8.006 3.1,12.781 6.3,19.101 l 22.3,49.396 c 4.8,11.094 9.6,14.277 14.3,14.277 14.4,0 97.1,-55.665 205.4,-55.665 68.4,0 127.3,38.203 127.3,114.563 0,165.598 -353.4,128.985 -353.4,369.351 0,128.94 100.3,221.26 240.4,221.26 54.1,0 146.4,-25.47 187.8,-47.75 12.8,-6.37 17.5,-12.74 17.5,-20.69 0,-4.78 -4.7,-9.56 -6.3,-15.92 l -20.7,-42.982"
           style="fill:#c11430;fill-opacity:1;fill-rule:nonzero;stroke:none"
           id="path102"
           inkscape:connector-curvature="0" /></g><g
         id="g104"
         transform="scale(2.17918)"><path
           d="m 16247,944.99 c -6.1,-12.114 -9.1,-18.171 -18.2,-18.171 -10.6,0 -74.2,40.886 -152.9,40.886 -60.6,0 -112.1,-30.287 -112.1,-99.947 0,-166.576 336.2,-119.632 336.2,-355.868 0,-142.391 -112.1,-215.08 -242.3,-215.08 -72.7,0 -230.2,42.447 -230.2,72.689 0,7.616 3.1,12.158 6.1,18.17 l 21.2,46.992 c 4.5,10.554 9.1,13.582 13.6,13.582 13.6,0 92.4,-52.955 195.4,-52.955 65.1,0 121.1,36.343 121.1,108.986 0,157.537 -336.2,122.706 -336.2,351.37 0,122.662 95.4,210.496 228.7,210.496 51.5,0 139.3,-24.23 178.7,-45.43 12.1,-6.06 16.6,-12.12 16.6,-19.69 0,-4.543 -4.5,-9.086 -6,-15.143 L 16247,944.99"
           style="fill:#c11430;fill-opacity:1;fill-rule:nonzero;stroke:none"
           id="path106"
           inkscape:connector-curvature="0" /></g><g
         id="g108"
         transform="scale(2.34437)"><path
           d="m 16214.1,1133.18 c -47.8,0 -85.8,38.01 -85.8,85.87 0,47.86 38,85.86 85.8,85.86 47.9,0 85.9,-39.41 85.9,-85.86 0,-46.46 -38,-85.87 -85.9,-85.87 z m 60.6,-820.643 c 0,-11.262 -5.7,-16.892 -16.9,-16.892 h -73.2 c -11.3,0 -16.9,5.63 -16.9,16.892 v 571.494 h -109.8 c -11.3,0 -16.9,5.63 -16.9,16.892 v 53.489 c 0,11.262 5.6,16.893 16.9,16.893 h 198.5 c 15.4,0 18.3,-8.446 18.3,-21.115 V 312.537"
           style="fill:#c11430;fill-opacity:1;fill-rule:nonzero;stroke:none"
           id="path110"
           inkscape:connector-curvature="0" /></g><g
         id="g112"
         transform="scale(2.47415)"><path
           d="m 16300,296.144 c 0,-10.672 -5.3,-16.006 -16,-16.006 h -69.4 c -10.6,0 -16,5.334 -16,16.006 V 741.63 c 0,57.353 -14.6,108.038 -86.7,108.038 -86.7,0 -142.7,-52.019 -176,-81.362 V 296.144 c 0,-10.672 -5.4,-16.006 -16,-16.006 h -69.4 c -10.7,0 -16,5.334 -16,16.006 v 460.158 c 0,44.015 0,58.687 -5.3,78.694 -10.7,40.013 -21.4,49.349 -21.4,56.018 0,2.668 1.4,5.336 6.7,9.337 l 60,33.345 c 2.7,1.334 6.7,5.335 10.7,5.335 24,0 40,-80.028 41.3,-90.697 44.1,34.679 113.4,90.697 214.8,90.697 148,0 158.7,-104.035 158.7,-200.069 V 296.144"
           style="fill:#c11430;fill-opacity:1;fill-rule:nonzero;stroke:none"
           id="path114"
           inkscape:connector-curvature="0" /></g><g
         id="g116"
         transform="scale(2.59602)"><path
           d="m 16294.9,325.421 c 1.3,-3.775 3.8,-6.317 3.8,-10.131 0,-13.982 -106.7,-66.14 -200.8,-66.14 -151.3,0 -239,118.258 -239,303.85 0,212.285 101.7,341.946 258.1,341.946 85.1,0 183,-59.746 183,-78.812 0,-3.815 -2.5,-6.356 -3.8,-10.171 l -29.3,-53.388 c -2.5,-3.814 -3.8,-7.627 -7.6,-7.627 -5.1,0 -59.7,64.83 -134.7,64.83 -124.6,0 -161.5,-92.797 -161.5,-237.71 0,-115.715 22.9,-237.711 146.2,-237.711 82.7,0 148.8,52.119 156.4,52.119 3.8,0 5.1,-3.813 7.6,-7.627 l 21.6,-53.428"
           style="fill:#c11430;fill-opacity:1;fill-rule:nonzero;stroke:none"
           id="path118"
           inkscape:connector-curvature="0" /></g><g
         id="g120"
         transform="scale(2.71952)"><path
           d="m 16171.4,822.755 c 0,8.495 3.6,13.348 8.5,14.562 l 60.6,14.561 c 9.7,2.427 6.1,1.213 14.6,2.427 8.5,0 8.5,-9.707 8.5,-15.774 V 406.543 c 0,-27.909 1.2,-54.606 13.3,-80.124 7.3,-14.562 23.1,-38.794 23.1,-46.112 0,-4.818 -6.1,-7.244 -10.9,-9.671 l -47.3,-29.123 c -4.9,-2.426 -7.3,-3.677 -9.8,-3.677 -18.2,0 -31.5,43.685 -44.9,71.593 -33.9,-27.908 -99.5,-71.593 -168.6,-71.593 -163.8,0 -177.2,94.686 -177.2,182.018 v 402.901 c 0,8.495 3.7,13.348 8.5,14.562 l 60.7,14.561 c 9.7,2.427 6,1.213 14.5,2.427 8.5,0 8.5,-9.707 8.5,-15.774 V 417.463 c 0,-52.177 20.7,-98.289 99.5,-98.289 37.7,0 115.3,40.007 138.4,61.886 v 441.695"
           style="fill:#c11430;fill-opacity:1;fill-rule:nonzero;stroke:none"
           id="path122"
           inkscape:connector-curvature="0" /></g><g
         id="g124"
         transform="scale(2.84767)"><path
           d="m 15965.1,348.847 c 26.6,-18.542 69.5,-44.037 120.5,-44.037 108.9,0 119.4,133.267 119.4,253.786 0,89.231 -9.3,179.621 -103.2,179.621 -67.2,0 -89.2,-25.495 -136.7,-57.942 z m 0,407.911 c 31.3,32.448 93.9,59.101 147.2,59.101 140.2,0 187.7,-117.043 187.7,-259.58 0,-166.873 -44,-329.146 -198.2,-329.146 -81.1,0 -124,20.894 -161,56.783 -5.8,-16.224 -24.4,-56.783 -37.1,-56.783 -4.7,0 -11.6,4.671 -16.2,8.147 l -29,18.507 c -9.3,5.829 -17.4,9.305 -17.4,15.064 0,5.83 9.3,13.907 17.4,33.642 10.4,18.541 18.5,45.195 18.5,82.242 v 667.525 c 0,8.11 3.5,12.75 8.1,13.91 l 58,13.9 c 9.2,2.32 5.8,1.16 13.9,2.32 8.1,0 8.1,-9.27 8.1,-15.06 V 756.758"
           style="fill:#c11430;fill-opacity:1;fill-rule:nonzero;stroke:none"
           id="path126"
           inkscape:connector-curvature="0" /></g><g
         id="g128"
         transform="scale(2.96915)"><path
           d="m 16182.2,499.066 c -48.9,-1.112 -207.9,-1.112 -207.9,-117.812 0,-44.457 24.5,-94.504 81.2,-94.504 57.8,0 108.9,53.382 126.7,68.908 z m 84.5,-90.026 c 0,-70.02 3.3,-80.056 13.3,-111.176 4.4,-13.338 20,-34.42 20,-41.123 0,-4.413 -5.6,-6.635 -10,-8.858 l -43.3,-26.674 c -4.5,-2.223 -6.7,-3.368 -8.9,-3.368 -16.7,0 -36.7,58.939 -42.3,74.499 -13.3,-12.226 -67.8,-74.499 -160,-74.499 -87.8,0 -144.5,57.827 -144.5,156.746 0,187.831 222.3,191.165 291.2,193.388 v 40.012 c 0,64.462 -20,100.029 -98.9,100.029 -74.5,0 -125.6,-35.567 -135.6,-35.567 -3.4,0 -6.7,2.223 -7.8,5.558 l -14.5,38.9 c -2.2,5.557 -3.3,8.891 -3.3,14.448 0,18.895 102.3,51.126 173.4,51.126 127.8,0 171.2,-62.241 171.2,-155.6 V 409.04"
           style="fill:#c11430;fill-opacity:1;fill-rule:nonzero;stroke:none"
           id="path130"
           inkscape:connector-curvature="0" /></g><g
         id="g132"
         transform="scale(3.07746)"><path
           d="m 16297.9,264.895 c 1,-4.322 2.1,-7.507 2.1,-10.723 0,-13.941 -80.4,-43.998 -138.3,-43.998 -46.1,0 -84.7,17.19 -100.8,37.531 -31.1,33.274 -31.1,81.496 -31.1,121.203 v 304.537 h -80.4 c -7.6,0 -7.6,7.507 -7.6,12.868 v 40.748 c 0,7.506 0,12.868 7.6,12.868 h 80.4 v 146.906 c 0,6.434 4.3,10.724 11.8,12.868 l 56.8,16.085 c 3.2,0 5.4,1.073 7.5,1.073 5.4,0 5.4,-5.362 5.4,-11.796 V 739.929 h 158.7 c 6.4,0 11.8,-1.073 11.8,-7.507 0,-2.144 -1.1,-4.289 -1.1,-7.505 l -13.9,-41.82 c -2.2,-5.363 -7.5,-9.652 -14,-9.652 h -141.5 V 368.908 c 0,-42.892 0,-86.857 64.3,-86.857 50.4,0 93.3,28.953 103,28.953 4.2,0 7.5,-3.217 7.5,-6.466 l 11.8,-39.643"
           style="fill:#c11430;fill-opacity:1;fill-rule:nonzero;stroke:none"
           id="path134"
           inkscape:connector-curvature="0" /></g><g
         id="g136"
         transform="scale(3.1959)"><path
           d="m 16215.3,468.82 c 0,101.192 -27.9,194.125 -120.8,194.125 -92.9,0 -120.8,-88.802 -120.8,-191.027 0,-117.714 26.9,-205.513 121.9,-205.513 91.8,0 119.7,83.669 119.7,202.415 z m -127,-266.435 c -139.4,0 -199.3,112.582 -199.3,260.24 0,142.496 59.9,264.339 209.6,264.339 141.5,0 201.4,-113.583 201.4,-259.177 0,-144.56 -60.9,-265.402 -211.7,-265.402"
           style="fill:#c11430;fill-opacity:1;fill-rule:nonzero;stroke:none"
           id="path138"
           inkscape:connector-curvature="0" /></g><g
         id="g140"
         transform="scale(3.29814)"><path
           d="m 16141.9,222.157 c 0,-8.005 -4,-12.007 -12,-12.007 h -52 c -8,0 -12,4.002 -12,12.007 V 565.35 c 0,18.01 -3,51.029 -17,76.043 -8,14.008 -11,22.012 -11,25.015 1,6.003 5,9.004 7,10.005 l 37,23.013 c 4,3.001 8,5.003 10,5.003 18,0 35,-62.035 39,-84.048 26,28.016 62,84.048 120.1,84.048 23,0 49,-8.004 49,-17.009 0,-2.002 -2,-5.004 -3,-8.005 l -22,-51.03 c -1,-2 -2,-7.003 -6,-7.003 -5,0 -14,9.005 -33,9.005 -35.1,0 -70.1,-52.03 -94.1,-78.045 V 222.157"
           style="fill:#c11430;fill-opacity:1;fill-rule:nonzero;stroke:none"
           id="path142"
           inkscape:connector-curvature="0" /></g></g></g></svg>