<svg viewBox="0 0 284 83" xmlns="http://www.w3.org/2000/svg" xml:space="preserve" style="fill-rule:evenodd;clip-rule:evenodd;stroke-linejoin:round;stroke-miterlimit:2"><path d="M92.828 19.964v4.183H82.54v7.274h9.85v4.182h-9.85v7.869h10.516v4.182H78.151v-27.69h14.677ZM99.139 19.964 112.63 39.29V19.964h4.29v27.69h-3.77L99.578 28.011v19.643h-4.291v-27.69h3.852ZM131.96 19.608c2.795 0 5.569.76 8.322 2.279v4.896c-2.753-1.705-5.462-2.557-8.127-2.557-1.658 0-3.132.403-4.421 1.209-1.29.806-2.289 1.966-2.999 3.479-.71 1.513-1.065 3.201-1.065 5.064 0 2.828.772 5.104 2.317 6.829 1.544 1.724 3.578 2.586 6.103 2.586a8.85 8.85 0 0 0 1.991-.218c.634-.145 1.39-.422 2.267-.832v-4.599h-3.754v-4.182h8.143v11.417c-1.116.951-2.457 1.695-4.023 2.23a15.003 15.003 0 0 1-4.884.803c-2.395 0-4.565-.601-6.51-1.804-1.945-1.203-3.462-2.887-4.551-5.055-1.089-2.167-1.633-4.585-1.633-7.254 0-2.709.55-5.16 1.65-7.354 1.099-2.193 2.632-3.898 4.599-5.114 1.967-1.215 4.158-1.823 6.575-1.823" style="fill:#231f20;fill-rule:nonzero"/><path style="fill:#231f20" d="M143.652 19.964h4.388v27.69h-4.388z"/><path d="m155.131 19.964 13.491 19.326V19.964h4.29v27.69h-3.77L155.57 28.011v19.643h-4.291v-27.69h3.852ZM190.715 19.964v4.183h-10.288v7.274h9.85v4.182h-9.85v7.869h10.516v4.182h-14.905v-27.69h14.677ZM207.851 19.964v4.183h-10.288v7.274h9.85v4.182h-9.85v7.869h10.516v4.182h-14.905v-27.69h14.677ZM217.495 31.778c1.148 0 2.05-.35 2.706-1.05.656-.7.983-1.658.983-2.874 0-1.269-.324-2.217-.975-2.845-.65-.627-1.576-.941-2.779-.941h-2.73v7.71h2.795Zm.992-11.813c2.134 0 3.873.72 5.217 2.16 1.343 1.441 2.015 3.317 2.015 5.63 0 1.572-.333 2.943-.999 4.112-.667 1.17-1.656 2.092-2.967 2.765.726.476 1.371 1.124 1.934 1.943.564.819 1.263 2.2 2.097 4.142 1.387 3.357 2.417 5.669 3.088 6.938h-4.892c-.336-.607-.791-1.579-1.365-2.914-1.257-2.946-2.178-4.932-2.763-5.956-.586-1.024-1.149-1.751-1.69-2.18a2.925 2.925 0 0 0-1.87-.644H214.7v11.694h-4.389v-27.69h8.176Z" style="fill:#231f20;fill-rule:nonzero"/><path style="fill:#231f20" d="M229.983 19.964h4.388v27.69h-4.388z"/><path d="m241.462 19.964 13.491 19.326V19.964h4.29v27.69h-3.77l-13.572-19.643v19.643h-4.291v-27.69h3.852ZM274.284 19.608c2.795 0 5.569.76 8.322 2.279v4.896c-2.753-1.705-5.462-2.557-8.127-2.557-1.658 0-3.132.403-4.421 1.209-1.29.806-2.289 1.966-2.999 3.479-.71 1.513-1.065 3.201-1.065 5.064 0 2.828.772 5.104 2.317 6.829 1.544 1.724 3.578 2.586 6.103 2.586a8.85 8.85 0 0 0 1.991-.218c.634-.145 1.39-.422 2.267-.832v-4.599h-3.754v-4.182h8.143v11.417c-1.116.951-2.457 1.695-4.023 2.23a15.003 15.003 0 0 1-4.884.803c-2.395 0-4.565-.601-6.51-1.804-1.945-1.203-3.462-2.887-4.551-5.055-1.089-2.167-1.633-4.585-1.633-7.254 0-2.709.55-5.16 1.65-7.354 1.099-2.193 2.632-3.898 4.599-5.114 1.967-1.215 4.158-1.823 6.575-1.823" style="fill:#231f20;fill-rule:nonzero"/><path d="M37.575 31.178c1.027-1.465 1.45-3.282 2.628-4.771.578-.311-.211 1.281.396 1.717.454-.043.381-.52.544-.8.205-.347.28-.768.469-1.125.468-.88 2.213-1.742 2.874-1.382 1.257.689.825 1.775.315 2.585-2.457 3.899-3.268 8.287-3.981 12.72-.132.822-.288 1.616-1.315 1.835-.374.079-.502.485-.604.844-.21.737-.432 1.47-.648 2.204-.262.237-.363-.153-.566-.145-1.87 1.985-2.135 4.493-2.277 7.034-.059 1.049-.22 2.076-.642 3.03-2.438 5.533-4.315 11.222-5.01 17.263-.059.521.059 1.551-.721 1.411-.884-.159-.323-1.041-.236-1.615.303-1.961.646-3.916.937-5.88.146-.993-.126-1.791-1.013-2.443-.613-.449-.683-1.422-1.477-1.833-.242-.124.048-.484.168-.716 1.058-2.048 2.107-4.103 3.183-6.142.924-1.757 1.347-3.608 1.159-5.591.034-.631.034-.631-.413-.491-2.209 4.286-3.61 8.873-4.969 13.47-.938 3.175-1.753 6.386-2.629 9.578-.424 1.545-.451 3.141-.524 4.715-.09 1.982-.923 3.674-1.751 5.388-.067.138-.364.484-.474.415-.174-.005.163-3.097.514-4.511.25-1.004-.14-1.743-.754-2.128-.808-.505-.96-1.178-1.129-1.942-.036-.164-.042-.47-.092-.474-1.776-.223-.586-1.335-.557-2.018.032-.711.327-1.411.49-2.119.061-.26.205-.627.09-.784-1.88-2.572-.85-5.383-.702-8.117.213-3.917 1.467-7.638 2.228-11.45.728-3.647 2.146-7.076 3.394-10.566 1.096-3.06 1.66-6.308 2.485-9.464.435-1.666.917-3.32 1.397-4.975.216-.744 1.105-1.974 1.301-1.952.393-.012.079 3.346.415 3.419.519.095 1.741-2.483 2.134-3.867.621-2.192 1.556-4.238 2.474-6.311 1.397-3.151 2.549-6.41 3.856-9.602.666-1.626 1.3-3.259 2.693-4.504.635-.567 1.481-1.17 1.969-.794.809.625 2.339 1.036 1.928 2.531-.952 3.483-1.014 7.089-1.6 10.621-.013.075-.098.137-.199.267-.626-.495-.027-1.352-.701-1.952-1.183 4.134-3.326 7.83-4.58 11.88-.281.91-.496 1.841-.791 2.746-.249.761-.371 1.426.154 2.182.533.769-.292 1.543-.26 2.346-.326.616-.124.781.14.62" style="fill:#427ea9;fill-rule:nonzero"/><path d="M.052 19.966v7.587h7.596l-.02 35.051 7.582.07.021-35.051 6.594.002.029-7.659H.052ZM47.472 45.779l9.111 16.911h8.327s-9.288-16.931-9.393-16.911M47.472 19.949v7.599c3.588.046 6.529.897 6.529 5.118 0 4.289-2.886 4.856-6.529 4.894v6.597h3.274c9.03 0 10.964-5.923 10.964-11.491 0-8.732-6.168-12.596-14.238-12.717" style="fill-rule:nonzero"/><path d="M149.887 54.931h1.511v7.637h-1.511v-7.637Zm.747-3.213c.249 0 .462.086.639.258a.839.839 0 0 1 .266.63.858.858 0 0 1-.266.631.868.868 0 0 1-1.253-.004.858.858 0 0 1 0-1.245.837.837 0 0 1 .614-.27M155.415 54.931v.971c.675-.747 1.441-1.12 2.299-1.12.476 0 .919.123 1.328.369.41.246.721.584.934 1.012.213.43.32 1.109.32 2.039v4.366h-1.511v-4.35c0-.78-.119-1.338-.357-1.673-.238-.334-.636-.502-1.195-.502-.714 0-1.32.357-1.818 1.071v5.454h-1.544v-7.637h1.544ZM165.175 56.243c-.41 0-.758.138-1.046.415a1.337 1.337 0 0 0-.432.996c0 .393.142.718.424.976.282.257.639.385 1.071.385.426 0 .781-.131 1.066-.394.285-.263.428-.59.428-.983a1.3 1.3 0 0 0-.432-.997c-.287-.265-.647-.398-1.079-.398m-.357 6.682c-.509 0-.925.108-1.249.324-.324.216-.486.493-.486.83 0 .786.709 1.179 2.125 1.179.67 0 1.189-.098 1.557-.295.368-.197.552-.474.552-.834 0-.354-.233-.644-.698-.867-.465-.225-1.065-.337-1.801-.337m-2.482-5.354c0-.813.297-1.457.893-1.93.594-.473 1.406-.71 2.436-.71h3.146v1.179h-1.544c.299.304.506.581.622.83.117.249.175.534.175.855 0 .399-.114.79-.341 1.175a2.41 2.41 0 0 1-.875.884c-.358.204-.943.368-1.756.49-.57.083-.855.279-.855.589 0 .177.106.322.32.436.213.113.598.231 1.158.353.935.204 1.537.365 1.805.481.268.116.51.282.726.498.366.365.548.825.548 1.378 0 .725-.322 1.303-.967 1.735-.645.431-1.506.647-2.586.647-1.09 0-1.96-.217-2.61-.652-.65-.434-.976-1.016-.976-1.747 0-1.034.64-1.701 1.918-2-.509-.327-.764-.651-.764-.971 0-.244.11-.465.328-.664.219-.2.514-.346.884-.44-1.123-.498-1.685-1.304-1.685-2.416M175.168 50.789l-1.876 2.49h-.93l1.121-2.49h1.685Zm-3.694 7.188h3.843c-.038-.603-.218-1.067-.539-1.394-.321-.327-.753-.49-1.295-.49-.543 0-.986.163-1.332.49-.346.327-.572.791-.677 1.394m5.338.905h-5.371c.039.731.284 1.312.734 1.743.451.432 1.034.648 1.748.648.996 0 1.914-.31 2.756-.93v1.478c-.465.31-.926.531-1.383.664-.456.133-.991.199-1.606.199-.841 0-1.522-.174-2.042-.523a3.814 3.814 0 0 1-1.249-1.407c-.313-.59-.469-1.271-.469-2.046 0-1.162.329-2.107.988-2.835.659-.728 1.514-1.091 2.565-1.091 1.013 0 1.821.354 2.424 1.062.603.709.905 1.657.905 2.847v.191ZM180.28 54.931v.971c.675-.747 1.441-1.12 2.299-1.12.476 0 .919.123 1.328.369.41.246.721.584.934 1.012.213.43.32 1.109.32 2.039v4.366h-1.511v-4.35c0-.78-.119-1.338-.357-1.673-.238-.334-.636-.502-1.195-.502-.714 0-1.32.357-1.818 1.071v5.454h-1.544v-7.637h1.544ZM187.625 54.931h1.511v7.637h-1.511v-7.637Zm.747-3.213c.249 0 .462.086.639.258a.839.839 0 0 1 .266.63.858.858 0 0 1-.266.631.868.868 0 0 1-1.253-.004.858.858 0 0 1 0-1.245.837.837 0 0 1 .614-.27M192.812 57.978l3.843-.001c-.038-.602-.218-1.068-.539-1.395-.321-.325-.753-.489-1.295-.489-.543 0-.987.163-1.332.489-.346.328-.572.793-.677 1.395m5.337.905h-5.37c.038.73.283 1.311.734 1.743.451.432 1.034.647 1.748.647.996 0 1.914-.31 2.756-.929v1.477a5.022 5.022 0 0 1-1.383.665c-.456.133-.991.2-1.606.2-.841-.001-1.522-.175-2.042-.523a3.822 3.822 0 0 1-1.249-1.407c-.313-.59-.469-1.272-.469-2.047 0-1.162.329-2.106.988-2.834.659-.728 1.514-1.092 2.565-1.092 1.012 0 1.821.354 2.424 1.063.603.708.904 1.657.904 2.847v.191ZM204.971 62.568v-.971a3.526 3.526 0 0 1-1.1.813 2.874 2.874 0 0 1-1.233.291c-.481 0-.925-.12-1.332-.362a2.335 2.335 0 0 1-.921-.979c-.207-.412-.311-1.097-.311-2.054v-4.375h1.51v4.358c0 .802.115 1.363.345 1.681.229.318.632.477 1.208.477.719 0 1.331-.351 1.834-1.054v-5.462h1.511v7.637h-1.511ZM210.548 54.931v1.751l.083-.132c.73-1.179 1.461-1.768 2.191-1.768.57 0 1.165.287 1.785.863l-.797 1.328c-.526-.498-1.012-.747-1.461-.747-.487 0-.908.232-1.266.697-.356.465-.535 1.016-.535 1.652v3.993h-1.519v-7.637h1.519ZM215.61 62.02v-1.627c.426.299.862.541 1.308.727.445.185.82.277 1.124.277.316 0 .587-.077.814-.232.227-.155.34-.34.34-.556a.748.748 0 0 0-.22-.552c-.147-.147-.464-.358-.95-.635-.975-.543-1.612-1.006-1.914-1.39a2 2 0 0 1-.452-1.258c0-.587.228-1.066.684-1.436.457-.371 1.045-.556 1.765-.556.747 0 1.513.21 2.299.631v1.494c-.897-.543-1.63-.814-2.2-.814-.293 0-.53.063-.709.187a.574.574 0 0 0-.27.495c0 .177.081.346.244.507.163.16.45.354.859.581l.54.307c1.273.719 1.909 1.516 1.909 2.39a1.9 1.9 0 0 1-.734 1.539c-.49.401-1.12.602-1.889.602a4.6 4.6 0 0 1-1.212-.146c-.354-.097-.799-.275-1.336-.535" style="fill:#231f20;fill-rule:nonzero"/><path style="fill:#231f20" d="M222.458 57.994h4.134v1.619h-4.134z"/><path d="M234.393 60.783v1.494c-.758.282-1.5.423-2.225.423-1.195 0-2.148-.354-2.859-1.062-.711-.709-1.067-1.657-1.067-2.847 0-1.201.346-2.17 1.038-2.905.692-.736 1.602-1.104 2.731-1.104.393 0 .745.037 1.058.112.313.074.699.214 1.158.419v1.61c-.764-.487-1.472-.73-2.125-.73-.681 0-1.24.239-1.677.717-.437.479-.656 1.089-.656 1.831 0 .78.237 1.4.71 1.859.473.46 1.111.689 1.914.689.581 0 1.248-.169 2-.506M240.003 56.276c-.725 0-1.32.238-1.785.714-.465.476-.697 1.082-.697 1.818 0 .73.238 1.326.714 1.788.476.463 1.087.694 1.834.694.742 0 1.35-.234 1.822-.702.474-.467.71-1.066.71-1.797 0-.725-.246-1.325-.739-1.801-.492-.476-1.112-.714-1.859-.714m.083-1.361c1.162 0 2.128.375 2.897 1.125.769.749 1.154 1.692 1.154 2.826 0 1.101-.39 2.015-1.171 2.743-.78.728-1.762 1.092-2.946 1.092-1.146 0-2.103-.369-2.872-1.109-.77-.738-1.154-1.661-1.154-2.768 0-1.117.388-2.048 1.166-2.793.778-.744 1.753-1.116 2.926-1.116M247.646 54.931v.971c.675-.747 1.441-1.12 2.299-1.12.476 0 .919.123 1.328.369.41.246.721.584.934 1.012.213.43.32 1.109.32 2.039v4.366h-1.511v-4.35c0-.78-.119-1.338-.357-1.673-.238-.334-.636-.502-1.195-.502-.714 0-1.32.357-1.818 1.071v5.454h-1.544v-7.637h1.544ZM254.585 62.02v-1.627c.426.299.862.541 1.308.727.445.185.82.277 1.124.277.316 0 .587-.077.814-.232.227-.155.34-.34.34-.556a.748.748 0 0 0-.22-.552c-.147-.147-.464-.358-.95-.635-.975-.543-1.612-1.006-1.914-1.39a2 2 0 0 1-.452-1.258c0-.587.228-1.066.684-1.436.457-.371 1.045-.556 1.765-.556.747 0 1.513.21 2.299.631v1.494c-.897-.543-1.63-.814-2.2-.814-.293 0-.53.063-.709.187a.574.574 0 0 0-.27.495c0 .177.081.346.244.507.163.16.45.354.859.581l.54.307c1.273.719 1.909 1.516 1.909 2.39a1.9 1.9 0 0 1-.734 1.539c-.49.401-1.12.602-1.889.602a4.6 4.6 0 0 1-1.212-.146c-.354-.097-.799-.275-1.336-.535M262.992 57.978l3.843-.001c-.038-.602-.218-1.068-.539-1.395-.321-.325-.753-.489-1.295-.489-.543 0-.987.163-1.332.489-.346.328-.572.793-.677 1.395m5.337.905h-5.37c.038.73.283 1.311.734 1.743.451.432 1.034.647 1.748.647.996 0 1.914-.31 2.756-.929v1.477a5.022 5.022 0 0 1-1.383.665c-.456.133-.991.2-1.606.2-.841-.001-1.522-.175-2.042-.523a3.822 3.822 0 0 1-1.249-1.407c-.313-.59-.469-1.272-.469-2.047 0-1.162.329-2.106.988-2.834.659-.728 1.514-1.092 2.565-1.092 1.012 0 1.821.354 2.424 1.063.603.708.904 1.657.904 2.847v.191ZM270.321 54.931h1.511v7.637h-1.511v-7.637Zm.747-3.213c.249 0 .462.086.639.258a.842.842 0 0 1 .266.63.862.862 0 0 1-.266.631.868.868 0 0 1-1.253-.004.864.864 0 0 1 0-1.245.835.835 0 0 1 .614-.27" style="fill:#231f20;fill-rule:nonzero"/><path style="fill:#231f20" d="M274.37 50.971h1.511v11.596h-1.511z"/><path d="M278.013 62.02v-1.627c.426.299.862.541 1.308.727.445.185.82.277 1.124.277.316 0 .587-.077.814-.232.227-.155.34-.34.34-.556a.748.748 0 0 0-.22-.552c-.147-.147-.464-.358-.95-.635-.975-.543-1.612-1.006-1.914-1.39a2 2 0 0 1-.452-1.258c0-.587.228-1.066.684-1.436.457-.371 1.045-.556 1.765-.556.747 0 1.513.21 2.299.631v1.494c-.897-.543-1.63-.814-2.2-.814-.293 0-.53.063-.709.187a.574.574 0 0 0-.27.495c0 .177.081.346.244.507.163.16.45.354.859.581l.54.307c1.273.719 1.909 1.516 1.909 2.39a1.9 1.9 0 0 1-.734 1.539c-.49.401-1.12.602-1.889.602a4.6 4.6 0 0 1-1.212-.146c-.354-.097-.799-.275-1.336-.535" style="fill:#231f20;fill-rule:nonzero"/></svg>