<?xml version="1.0" encoding="UTF-8" standalone="no"?><!DOCTYPE svg PUBLIC "-//W3C//DTD SVG 1.1//EN" "http://www.w3.org/Graphics/SVG/1.1/DTD/svg11.dtd"><svg width="100%" height="100%" viewBox="0 0 284 83" version="1.1" xmlns="http://www.w3.org/2000/svg" xmlns:xlink="http://www.w3.org/1999/xlink" xml:space="preserve" xmlns:serif="http://www.serif.com/" style="fill-rule:evenodd;clip-rule:evenodd;stroke-linejoin:round;stroke-miterlimit:2;"><g id="Calque-1" serif:id="Calque 1"><path d="M92.828,19.964l0,4.183l-10.288,0l0,7.274l9.85,0l0,4.182l-9.85,0l0,7.869l10.516,0l0,4.182l-14.905,0l0,-27.69l14.677,0Z" style="fill:#231f20;fill-rule:nonzero;"/><path d="M99.139,19.964l13.491,19.326l0,-19.326l4.29,0l0,27.69l-3.77,0l-13.572,-19.643l0,19.643l-4.291,0l0,-27.69l3.852,0Z" style="fill:#231f20;fill-rule:nonzero;"/><path d="M131.96,19.608c2.795,0 5.569,0.76 8.322,2.279l0,4.896c-2.753,-1.705 -5.462,-2.557 -8.127,-2.557c-1.658,0 -3.132,0.403 -4.421,1.209c-1.29,0.806 -2.289,1.966 -2.999,3.479c-0.71,1.513 -1.065,3.201 -1.065,5.064c0,2.828 0.772,5.104 2.317,6.829c1.544,1.724 3.578,2.586 6.103,2.586c0.693,0 1.357,-0.072 1.991,-0.218c0.634,-0.145 1.39,-0.422 2.267,-0.832l0,-4.599l-3.754,0l0,-4.182l8.143,0l0,11.417c-1.116,0.951 -2.457,1.695 -4.023,2.23c-1.566,0.535 -3.194,0.803 -4.884,0.803c-2.395,0 -4.565,-0.601 -6.51,-1.804c-1.945,-1.203 -3.462,-2.887 -4.551,-5.055c-1.089,-2.167 -1.633,-4.585 -1.633,-7.254c0,-2.709 0.55,-5.16 1.65,-7.354c1.099,-2.193 2.632,-3.898 4.599,-5.114c1.967,-1.215 4.158,-1.823 6.575,-1.823" style="fill:#231f20;fill-rule:nonzero;"/><rect x="143.652" y="19.964" width="4.388" height="27.69" style="fill:#231f20;"/><path d="M155.131,19.964l13.491,19.326l0,-19.326l4.29,0l0,27.69l-3.77,0l-13.572,-19.643l0,19.643l-4.291,0l0,-27.69l3.852,0Z" style="fill:#231f20;fill-rule:nonzero;"/><path d="M190.715,19.964l0,4.183l-10.288,0l0,7.274l9.85,0l0,4.182l-9.85,0l0,7.869l10.516,0l0,4.182l-14.905,0l0,-27.69l14.677,0Z" style="fill:#231f20;fill-rule:nonzero;"/><path d="M207.851,19.964l0,4.183l-10.288,0l0,7.274l9.85,0l0,4.182l-9.85,0l0,7.869l10.516,0l0,4.182l-14.905,0l0,-27.69l14.677,0Z" style="fill:#231f20;fill-rule:nonzero;"/><path d="M217.495,31.778c1.148,0 2.05,-0.35 2.706,-1.05c0.656,-0.7 0.983,-1.658 0.983,-2.874c0,-1.269 -0.324,-2.217 -0.975,-2.845c-0.65,-0.627 -1.576,-0.941 -2.779,-0.941l-2.73,0l0,7.71l2.795,0Zm0.992,-11.813c2.134,0 3.873,0.72 5.217,2.16c1.343,1.441 2.015,3.317 2.015,5.63c0,1.572 -0.333,2.943 -0.999,4.112c-0.667,1.17 -1.656,2.092 -2.967,2.765c0.726,0.476 1.371,1.124 1.934,1.943c0.564,0.819 1.263,2.2 2.097,4.142c1.387,3.357 2.417,5.669 3.088,6.938l-4.892,0c-0.336,-0.607 -0.791,-1.579 -1.365,-2.914c-1.257,-2.946 -2.178,-4.932 -2.763,-5.956c-0.586,-1.024 -1.149,-1.751 -1.69,-2.18c-0.542,-0.43 -1.166,-0.644 -1.87,-0.644l-1.592,0l0,11.694l-4.389,0l0,-27.69l8.176,0Z" style="fill:#231f20;fill-rule:nonzero;"/><rect x="229.983" y="19.964" width="4.388" height="27.69" style="fill:#231f20;"/><path d="M241.462,19.964l13.491,19.326l0,-19.326l4.29,0l0,27.69l-3.77,0l-13.572,-19.643l0,19.643l-4.291,0l0,-27.69l3.852,0Z" style="fill:#231f20;fill-rule:nonzero;"/><path d="M274.284,19.608c2.795,0 5.569,0.76 8.322,2.279l0,4.896c-2.753,-1.705 -5.462,-2.557 -8.127,-2.557c-1.658,0 -3.132,0.403 -4.421,1.209c-1.29,0.806 -2.289,1.966 -2.999,3.479c-0.71,1.513 -1.065,3.201 -1.065,5.064c0,2.828 0.772,5.104 2.317,6.829c1.544,1.724 3.578,2.586 6.103,2.586c0.693,0 1.357,-0.072 1.991,-0.218c0.634,-0.145 1.39,-0.422 2.267,-0.832l0,-4.599l-3.754,0l0,-4.182l8.143,0l0,11.417c-1.116,0.951 -2.457,1.695 -4.023,2.23c-1.566,0.535 -3.194,0.803 -4.884,0.803c-2.395,0 -4.565,-0.601 -6.51,-1.804c-1.945,-1.203 -3.462,-2.887 -4.551,-5.055c-1.089,-2.167 -1.633,-4.585 -1.633,-7.254c0,-2.709 0.55,-5.16 1.65,-7.354c1.099,-2.193 2.632,-3.898 4.599,-5.114c1.967,-1.215 4.158,-1.823 6.575,-1.823" style="fill:#231f20;fill-rule:nonzero;"/><path d="M37.575,31.178c1.027,-1.465 1.45,-3.282 2.628,-4.771c0.578,-0.311 -0.211,1.281 0.396,1.717c0.454,-0.043 0.381,-0.52 0.544,-0.8c0.205,-0.347 0.28,-0.768 0.469,-1.125c0.468,-0.88 2.213,-1.742 2.874,-1.382c1.257,0.689 0.825,1.775 0.315,2.585c-2.457,3.899 -3.268,8.287 -3.981,12.72c-0.132,0.822 -0.288,1.616 -1.315,1.835c-0.374,0.079 -0.502,0.485 -0.604,0.844c-0.21,0.737 -0.432,1.47 -0.648,2.204c-0.262,0.237 -0.363,-0.153 -0.566,-0.145c-1.87,1.985 -2.135,4.493 -2.277,7.034c-0.059,1.049 -0.22,2.076 -0.642,3.03c-2.438,5.533 -4.315,11.222 -5.01,17.263c-0.059,0.521 0.059,1.551 -0.721,1.411c-0.884,-0.159 -0.323,-1.041 -0.236,-1.615c0.303,-1.961 0.646,-3.916 0.937,-5.88c0.146,-0.993 -0.126,-1.791 -1.013,-2.443c-0.613,-0.449 -0.683,-1.422 -1.477,-1.833c-0.242,-0.124 0.048,-0.484 0.168,-0.716c1.058,-2.048 2.107,-4.103 3.183,-6.142c0.924,-1.757 1.347,-3.608 1.159,-5.591c0.034,-0.631 0.034,-0.631 -0.413,-0.491c-2.209,4.286 -3.61,8.873 -4.969,13.47c-0.938,3.175 -1.753,6.386 -2.629,9.578c-0.424,1.545 -0.451,3.141 -0.524,4.715c-0.09,1.982 -0.923,3.674 -1.751,5.388c-0.067,0.138 -0.364,0.484 -0.474,0.415c-0.174,-0.005 0.163,-3.097 0.514,-4.511c0.25,-1.004 -0.14,-1.743 -0.754,-2.128c-0.808,-0.505 -0.96,-1.178 -1.129,-1.942c-0.036,-0.164 -0.042,-0.47 -0.092,-0.474c-1.776,-0.223 -0.586,-1.335 -0.557,-2.018c0.032,-0.711 0.327,-1.411 0.49,-2.119c0.061,-0.26 0.205,-0.627 0.09,-0.784c-1.88,-2.572 -0.85,-5.383 -0.702,-8.117c0.213,-3.917 1.467,-7.638 2.228,-11.45c0.728,-3.647 2.146,-7.076 3.394,-10.566c1.096,-3.06 1.66,-6.308 2.485,-9.464c0.435,-1.666 0.917,-3.32 1.397,-4.975c0.216,-0.744 1.105,-1.974 1.301,-1.952c0.393,-0.012 0.079,3.346 0.415,3.419c0.519,0.095 1.741,-2.483 2.134,-3.867c0.621,-2.192 1.556,-4.238 2.474,-6.311c1.397,-3.151 2.549,-6.41 3.856,-9.602c0.666,-1.626 1.3,-3.259 2.693,-4.504c0.635,-0.567 1.481,-1.17 1.969,-0.794c0.809,0.625 2.339,1.036 1.928,2.531c-0.952,3.483 -1.014,7.089 -1.6,10.621c-0.013,0.075 -0.098,0.137 -0.199,0.267c-0.626,-0.495 -0.027,-1.352 -0.701,-1.952c-1.183,4.134 -3.326,7.83 -4.58,11.88c-0.281,0.91 -0.496,1.841 -0.791,2.746c-0.249,0.761 -0.371,1.426 0.154,2.182c0.533,0.769 -0.292,1.543 -0.26,2.346c-0.326,0.616 -0.124,0.781 0.14,0.62" style="fill:#427ea9;fill-rule:nonzero;"/><path d="M0.052,19.966l0,7.587l7.596,0l-0.02,35.051l7.582,0.07l0.021,-35.051l6.594,0.002l0.029,-7.659l-21.802,0Z" style="fill-rule:nonzero;"/><path d="M47.472,45.779l9.111,16.911l8.327,0c0,0 -9.288,-16.931 -9.393,-16.911" style="fill-rule:nonzero;"/><path d="M47.472,19.949l0,7.599c3.588,0.046 6.529,0.897 6.529,5.118c0,4.289 -2.886,4.856 -6.529,4.894l0,6.597l3.274,0c9.03,0 10.964,-5.923 10.964,-11.491c0,-8.732 -6.168,-12.596 -14.238,-12.717" style="fill-rule:nonzero;"/><path d="M149.887,54.931l1.511,0l0,7.637l-1.511,0l0,-7.637Zm0.747,-3.213c0.249,0 0.462,0.086 0.639,0.258c0.178,0.171 0.266,0.381 0.266,0.63c0,0.244 -0.088,0.454 -0.266,0.631c-0.177,0.178 -0.39,0.266 -0.639,0.266c-0.232,0 -0.437,-0.09 -0.614,-0.27c-0.177,-0.18 -0.266,-0.389 -0.266,-0.627c0,-0.232 0.089,-0.438 0.266,-0.618c0.177,-0.18 0.382,-0.27 0.614,-0.27" style="fill:#231f20;fill-rule:nonzero;"/><path d="M155.415,54.931l0,0.971c0.675,-0.747 1.441,-1.12 2.299,-1.12c0.476,0 0.919,0.123 1.328,0.369c0.41,0.246 0.721,0.584 0.934,1.012c0.213,0.43 0.32,1.109 0.32,2.039l0,4.366l-1.511,0l0,-4.35c0,-0.78 -0.119,-1.338 -0.357,-1.673c-0.238,-0.334 -0.636,-0.502 -1.195,-0.502c-0.714,0 -1.32,0.357 -1.818,1.071l0,5.454l-1.544,0l0,-7.637l1.544,0Z" style="fill:#231f20;fill-rule:nonzero;"/><path d="M165.175,56.243c-0.41,0 -0.758,0.138 -1.046,0.415c-0.287,0.277 -0.432,0.609 -0.432,0.996c0,0.393 0.142,0.718 0.424,0.976c0.282,0.257 0.639,0.385 1.071,0.385c0.426,0 0.781,-0.131 1.066,-0.394c0.285,-0.263 0.428,-0.59 0.428,-0.983c0,-0.399 -0.144,-0.731 -0.432,-0.997c-0.287,-0.265 -0.647,-0.398 -1.079,-0.398m-0.357,6.682c-0.509,0 -0.925,0.108 -1.249,0.324c-0.324,0.216 -0.486,0.493 -0.486,0.83c0,0.786 0.709,1.179 2.125,1.179c0.67,0 1.189,-0.098 1.557,-0.295c0.368,-0.197 0.552,-0.474 0.552,-0.834c0,-0.354 -0.233,-0.644 -0.698,-0.867c-0.465,-0.225 -1.065,-0.337 -1.801,-0.337m-2.482,-5.354c0,-0.813 0.297,-1.457 0.893,-1.93c0.594,-0.473 1.406,-0.71 2.436,-0.71l3.146,0l0,1.179l-1.544,0c0.299,0.304 0.506,0.581 0.622,0.83c0.117,0.249 0.175,0.534 0.175,0.855c0,0.399 -0.114,0.79 -0.341,1.175c-0.227,0.384 -0.519,0.679 -0.875,0.884c-0.358,0.204 -0.943,0.368 -1.756,0.49c-0.57,0.083 -0.855,0.279 -0.855,0.589c0,0.177 0.106,0.322 0.32,0.436c0.213,0.113 0.598,0.231 1.158,0.353c0.935,0.204 1.537,0.365 1.805,0.481c0.268,0.116 0.51,0.282 0.726,0.498c0.366,0.365 0.548,0.825 0.548,1.378c0,0.725 -0.322,1.303 -0.967,1.735c-0.645,0.431 -1.506,0.647 -2.586,0.647c-1.09,0 -1.96,-0.217 -2.61,-0.652c-0.65,-0.434 -0.976,-1.016 -0.976,-1.747c0,-1.034 0.64,-1.701 1.918,-2c-0.509,-0.327 -0.764,-0.651 -0.764,-0.971c0,-0.244 0.11,-0.465 0.328,-0.664c0.219,-0.2 0.514,-0.346 0.884,-0.44c-1.123,-0.498 -1.685,-1.304 -1.685,-2.416" style="fill:#231f20;fill-rule:nonzero;"/><path d="M175.168,50.789l-1.876,2.49l-0.93,0l1.121,-2.49l1.685,0Zm-3.694,7.188l3.843,0c-0.038,-0.603 -0.218,-1.067 -0.539,-1.394c-0.321,-0.327 -0.753,-0.49 -1.295,-0.49c-0.543,0 -0.986,0.163 -1.332,0.49c-0.346,0.327 -0.572,0.791 -0.677,1.394m5.338,0.905l-5.371,0c0.039,0.731 0.284,1.312 0.734,1.743c0.451,0.432 1.034,0.648 1.748,0.648c0.996,0 1.914,-0.31 2.756,-0.93l0,1.478c-0.465,0.31 -0.926,0.531 -1.383,0.664c-0.456,0.133 -0.991,0.199 -1.606,0.199c-0.841,0 -1.522,-0.174 -2.042,-0.523c-0.52,-0.349 -0.936,-0.818 -1.249,-1.407c-0.313,-0.59 -0.469,-1.271 -0.469,-2.046c0,-1.162 0.329,-2.107 0.988,-2.835c0.659,-0.728 1.514,-1.091 2.565,-1.091c1.013,0 1.821,0.354 2.424,1.062c0.603,0.709 0.905,1.657 0.905,2.847l0,0.191Z" style="fill:#231f20;fill-rule:nonzero;"/><path d="M180.28,54.931l0,0.971c0.675,-0.747 1.441,-1.12 2.299,-1.12c0.476,0 0.919,0.123 1.328,0.369c0.41,0.246 0.721,0.584 0.934,1.012c0.213,0.43 0.32,1.109 0.32,2.039l0,4.366l-1.511,0l0,-4.35c0,-0.78 -0.119,-1.338 -0.357,-1.673c-0.238,-0.334 -0.636,-0.502 -1.195,-0.502c-0.714,0 -1.32,0.357 -1.818,1.071l0,5.454l-1.544,0l0,-7.637l1.544,0Z" style="fill:#231f20;fill-rule:nonzero;"/><path d="M187.625,54.931l1.511,0l0,7.637l-1.511,0l0,-7.637Zm0.747,-3.213c0.249,0 0.462,0.086 0.639,0.258c0.178,0.171 0.266,0.381 0.266,0.63c0,0.244 -0.088,0.454 -0.266,0.631c-0.177,0.178 -0.39,0.266 -0.639,0.266c-0.232,0 -0.437,-0.09 -0.614,-0.27c-0.177,-0.18 -0.266,-0.389 -0.266,-0.627c0,-0.232 0.089,-0.438 0.266,-0.618c0.177,-0.18 0.382,-0.27 0.614,-0.27" style="fill:#231f20;fill-rule:nonzero;"/><path d="M192.812,57.978l3.843,-0.001c-0.038,-0.602 -0.218,-1.068 -0.539,-1.395c-0.321,-0.325 -0.753,-0.489 -1.295,-0.489c-0.543,0 -0.987,0.163 -1.332,0.489c-0.346,0.328 -0.572,0.793 -0.677,1.395m5.337,0.905l-5.37,0c0.038,0.73 0.283,1.311 0.734,1.743c0.451,0.432 1.034,0.647 1.748,0.647c0.996,0 1.914,-0.31 2.756,-0.929l0,1.477c-0.465,0.311 -0.926,0.532 -1.383,0.665c-0.456,0.133 -0.991,0.2 -1.606,0.2c-0.841,-0.001 -1.522,-0.175 -2.042,-0.523c-0.52,-0.349 -0.936,-0.819 -1.249,-1.407c-0.313,-0.59 -0.469,-1.272 -0.469,-2.047c0,-1.162 0.329,-2.106 0.988,-2.834c0.659,-0.728 1.514,-1.092 2.565,-1.092c1.012,0 1.821,0.354 2.424,1.063c0.603,0.708 0.904,1.657 0.904,2.847l0,0.191Z" style="fill:#231f20;fill-rule:nonzero;"/><path d="M204.971,62.568l0,-0.971c-0.321,0.348 -0.687,0.619 -1.1,0.813c-0.412,0.194 -0.823,0.291 -1.233,0.291c-0.481,0 -0.925,-0.12 -1.332,-0.362c-0.407,-0.24 -0.713,-0.566 -0.921,-0.979c-0.207,-0.412 -0.311,-1.097 -0.311,-2.054l0,-4.375l1.51,0l0,4.358c0,0.802 0.115,1.363 0.345,1.681c0.229,0.318 0.632,0.477 1.208,0.477c0.719,0 1.331,-0.351 1.834,-1.054l0,-5.462l1.511,0l0,7.637l-1.511,0Z" style="fill:#231f20;fill-rule:nonzero;"/><path d="M210.548,54.931l0,1.751l0.083,-0.132c0.73,-1.179 1.461,-1.768 2.191,-1.768c0.57,0 1.165,0.287 1.785,0.863l-0.797,1.328c-0.526,-0.498 -1.012,-0.747 -1.461,-0.747c-0.487,0 -0.908,0.232 -1.266,0.697c-0.356,0.465 -0.535,1.016 -0.535,1.652l0,3.993l-1.519,0l0,-7.637l1.519,0Z" style="fill:#231f20;fill-rule:nonzero;"/><path d="M215.61,62.02l0,-1.627c0.426,0.299 0.862,0.541 1.308,0.727c0.445,0.185 0.82,0.277 1.124,0.277c0.316,0 0.587,-0.077 0.814,-0.232c0.227,-0.155 0.34,-0.34 0.34,-0.556c0,-0.221 -0.073,-0.405 -0.22,-0.552c-0.147,-0.147 -0.464,-0.358 -0.95,-0.635c-0.975,-0.543 -1.612,-1.006 -1.914,-1.39c-0.301,-0.385 -0.452,-0.804 -0.452,-1.258c0,-0.587 0.228,-1.066 0.684,-1.436c0.457,-0.371 1.045,-0.556 1.765,-0.556c0.747,0 1.513,0.21 2.299,0.631l0,1.494c-0.897,-0.543 -1.63,-0.814 -2.2,-0.814c-0.293,0 -0.53,0.063 -0.709,0.187c-0.181,0.125 -0.27,0.29 -0.27,0.495c0,0.177 0.081,0.346 0.244,0.507c0.163,0.16 0.45,0.354 0.859,0.581l0.54,0.307c1.273,0.719 1.909,1.516 1.909,2.39c0,0.625 -0.244,1.138 -0.734,1.539c-0.49,0.401 -1.12,0.602 -1.889,0.602c-0.453,0 -0.858,-0.049 -1.212,-0.146c-0.354,-0.097 -0.799,-0.275 -1.336,-0.535" style="fill:#231f20;fill-rule:nonzero;"/><rect x="222.458" y="57.994" width="4.134" height="1.619" style="fill:#231f20;"/><path d="M234.393,60.783l0,1.494c-0.758,0.282 -1.5,0.423 -2.225,0.423c-1.195,0 -2.148,-0.354 -2.859,-1.062c-0.711,-0.709 -1.067,-1.657 -1.067,-2.847c0,-1.201 0.346,-2.17 1.038,-2.905c0.692,-0.736 1.602,-1.104 2.731,-1.104c0.393,0 0.745,0.037 1.058,0.112c0.313,0.074 0.699,0.214 1.158,0.419l0,1.61c-0.764,-0.487 -1.472,-0.73 -2.125,-0.73c-0.681,0 -1.24,0.239 -1.677,0.717c-0.437,0.479 -0.656,1.089 -0.656,1.831c0,0.78 0.237,1.4 0.71,1.859c0.473,0.46 1.111,0.689 1.914,0.689c0.581,0 1.248,-0.169 2,-0.506" style="fill:#231f20;fill-rule:nonzero;"/><path d="M240.003,56.276c-0.725,0 -1.32,0.238 -1.785,0.714c-0.465,0.476 -0.697,1.082 -0.697,1.818c0,0.73 0.238,1.326 0.714,1.788c0.476,0.463 1.087,0.694 1.834,0.694c0.742,0 1.35,-0.234 1.822,-0.702c0.474,-0.467 0.71,-1.066 0.71,-1.797c0,-0.725 -0.246,-1.325 -0.739,-1.801c-0.492,-0.476 -1.112,-0.714 -1.859,-0.714m0.083,-1.361c1.162,0 2.128,0.375 2.897,1.125c0.769,0.749 1.154,1.692 1.154,2.826c0,1.101 -0.39,2.015 -1.171,2.743c-0.78,0.728 -1.762,1.092 -2.946,1.092c-1.146,0 -2.103,-0.369 -2.872,-1.109c-0.77,-0.738 -1.154,-1.661 -1.154,-2.768c0,-1.117 0.388,-2.048 1.166,-2.793c0.778,-0.744 1.753,-1.116 2.926,-1.116" style="fill:#231f20;fill-rule:nonzero;"/><path d="M247.646,54.931l0,0.971c0.675,-0.747 1.441,-1.12 2.299,-1.12c0.476,0 0.919,0.123 1.328,0.369c0.41,0.246 0.721,0.584 0.934,1.012c0.213,0.43 0.32,1.109 0.32,2.039l0,4.366l-1.511,0l0,-4.35c0,-0.78 -0.119,-1.338 -0.357,-1.673c-0.238,-0.334 -0.636,-0.502 -1.195,-0.502c-0.714,0 -1.32,0.357 -1.818,1.071l0,5.454l-1.544,0l0,-7.637l1.544,0Z" style="fill:#231f20;fill-rule:nonzero;"/><path d="M254.585,62.02l0,-1.627c0.426,0.299 0.862,0.541 1.308,0.727c0.445,0.185 0.82,0.277 1.124,0.277c0.316,0 0.587,-0.077 0.814,-0.232c0.227,-0.155 0.34,-0.34 0.34,-0.556c0,-0.221 -0.073,-0.405 -0.22,-0.552c-0.147,-0.147 -0.464,-0.358 -0.95,-0.635c-0.975,-0.543 -1.612,-1.006 -1.914,-1.39c-0.301,-0.385 -0.452,-0.804 -0.452,-1.258c0,-0.587 0.228,-1.066 0.684,-1.436c0.457,-0.371 1.045,-0.556 1.765,-0.556c0.747,0 1.513,0.21 2.299,0.631l0,1.494c-0.897,-0.543 -1.63,-0.814 -2.2,-0.814c-0.293,0 -0.53,0.063 -0.709,0.187c-0.181,0.125 -0.27,0.29 -0.27,0.495c0,0.177 0.081,0.346 0.244,0.507c0.163,0.16 0.45,0.354 0.859,0.581l0.54,0.307c1.273,0.719 1.909,1.516 1.909,2.39c0,0.625 -0.244,1.138 -0.734,1.539c-0.49,0.401 -1.12,0.602 -1.889,0.602c-0.453,0 -0.858,-0.049 -1.212,-0.146c-0.354,-0.097 -0.799,-0.275 -1.336,-0.535" style="fill:#231f20;fill-rule:nonzero;"/><path d="M262.992,57.978l3.843,-0.001c-0.038,-0.602 -0.218,-1.068 -0.539,-1.395c-0.321,-0.325 -0.753,-0.489 -1.295,-0.489c-0.543,0 -0.987,0.163 -1.332,0.489c-0.346,0.328 -0.572,0.793 -0.677,1.395m5.337,0.905l-5.37,0c0.038,0.73 0.283,1.311 0.734,1.743c0.451,0.432 1.034,0.647 1.748,0.647c0.996,0 1.914,-0.31 2.756,-0.929l0,1.477c-0.465,0.311 -0.926,0.532 -1.383,0.665c-0.456,0.133 -0.991,0.2 -1.606,0.2c-0.841,-0.001 -1.522,-0.175 -2.042,-0.523c-0.52,-0.349 -0.936,-0.819 -1.249,-1.407c-0.313,-0.59 -0.469,-1.272 -0.469,-2.047c0,-1.162 0.329,-2.106 0.988,-2.834c0.659,-0.728 1.514,-1.092 2.565,-1.092c1.012,0 1.821,0.354 2.424,1.063c0.603,0.708 0.904,1.657 0.904,2.847l0,0.191Z" style="fill:#231f20;fill-rule:nonzero;"/><path d="M270.321,54.931l1.511,0l0,7.637l-1.511,0l0,-7.637Zm0.747,-3.213c0.249,0 0.462,0.086 0.639,0.258c0.177,0.171 0.266,0.381 0.266,0.63c0,0.244 -0.089,0.454 -0.266,0.631c-0.177,0.178 -0.39,0.266 -0.639,0.266c-0.233,0 -0.437,-0.09 -0.614,-0.27c-0.178,-0.18 -0.266,-0.389 -0.266,-0.627c0,-0.232 0.088,-0.438 0.266,-0.618c0.177,-0.18 0.381,-0.27 0.614,-0.27" style="fill:#231f20;fill-rule:nonzero;"/><rect x="274.37" y="50.971" width="1.511" height="11.596" style="fill:#231f20;"/><path d="M278.013,62.02l0,-1.627c0.426,0.299 0.862,0.541 1.308,0.727c0.445,0.185 0.82,0.277 1.124,0.277c0.316,0 0.587,-0.077 0.814,-0.232c0.227,-0.155 0.34,-0.34 0.34,-0.556c0,-0.221 -0.073,-0.405 -0.22,-0.552c-0.147,-0.147 -0.464,-0.358 -0.95,-0.635c-0.975,-0.543 -1.612,-1.006 -1.914,-1.39c-0.301,-0.385 -0.452,-0.804 -0.452,-1.258c0,-0.587 0.228,-1.066 0.684,-1.436c0.457,-0.371 1.045,-0.556 1.765,-0.556c0.747,0 1.513,0.21 2.299,0.631l0,1.494c-0.897,-0.543 -1.63,-0.814 -2.2,-0.814c-0.293,0 -0.53,0.063 -0.709,0.187c-0.181,0.125 -0.27,0.29 -0.27,0.495c0,0.177 0.081,0.346 0.244,0.507c0.163,0.16 0.45,0.354 0.859,0.581l0.54,0.307c1.273,0.719 1.909,1.516 1.909,2.39c0,0.625 -0.244,1.138 -0.734,1.539c-0.49,0.401 -1.12,0.602 -1.889,0.602c-0.453,0 -0.858,-0.049 -1.212,-0.146c-0.354,-0.097 -0.799,-0.275 -1.336,-0.535" style="fill:#231f20;fill-rule:nonzero;"/></g></svg>