<svg viewBox="0 0 228 63" xmlns="http://www.w3.org/2000/svg" xml:space="preserve" style="fill-rule:evenodd;clip-rule:evenodd"><g transform="matrix(45.2015 0 0 -41.7594 2.729 24.13)"><clipPath id="a"><path d="m.455-.185-.121.27H.078L0 .263h.403L.469.114l.098-.221h.057l.228.534H1L.771-.107.759-.134.737-.185.638-.414.572-.427l-.117.242Z" clip-rule="nonzero"/></clipPath><g clip-path="url(#a)"><path style="fill:url(#b)" d="M0-.427h1v.855H0z"/></g></g><g transform="matrix(45.2019 0 0 -41.7598 3.013 29.665)"><clipPath id="c"><path d="m.491-.356-.036.082-.121.27H.078L0 .174h.403L.469.025l.098-.221h.056l.229.534H1L.771-.196.759-.224l-.022-.05-.036-.082h-.21Z" clip-rule="nonzero"/></clipPath><g clip-path="url(#c)"><path style="fill:url(#d)" d="M0-.356h1v.694H0z"/></g></g><path d="M72.852 56.239h6.437l-.031.219c-.5.055-.867.133-1.094.234a1.45 1.45 0 0 0-.594.454 1.427 1.427 0 0 0-.297.656 2.032 2.032 0 0 0-.062.469c.008.125.055.406.141.843l1.343 7.86 4.157-6.907c.57-.968.906-1.671 1-2.109.039-.25.039-.477 0-.687-.032-.219-.094-.383-.188-.5a.935.935 0 0 0-.391-.235 1.8 1.8 0 0 0-.578-.078l.032-.219h4.343l-.031.219a2.72 2.72 0 0 0-1 .266 3.471 3.471 0 0 0-.875.656 6.207 6.207 0 0 0-.687.859 31 31 0 0 0-1.063 1.672l-5.922 9.656h-.406l-1.922-9.984c-.242-1.301-.48-2.129-.719-2.484a1.301 1.301 0 0 0-.625-.485c-.261-.101-.593-.156-1-.156l.032-.219Z" style="fill:#bf974f;fill-rule:nonzero" transform="translate(-15 -49.767)"/><path d="M88.141 62.988a7.956 7.956 0 0 1 1.297-3.031c.656-.937 1.5-1.754 2.531-2.453a10.416 10.416 0 0 1 2.406-1.172 7.596 7.596 0 0 1 2.437-.422c1 0 1.922.219 2.766.656a5.714 5.714 0 0 1 2.11 1.86c.882 1.304 1.164 2.781.843 4.437a7.82 7.82 0 0 1-.937 2.422 9.226 9.226 0 0 1-1.735 2.11A9.609 9.609 0 0 1 97 69.238c-1.043.438-2.086.657-3.125.657-1.043 0-1.996-.211-2.859-.625a5.385 5.385 0 0 1-2.078-1.797 5.403 5.403 0 0 1-.844-2.078 6.416 6.416 0 0 1 .047-2.407Zm2.328.157c-.375 1.886-.172 3.476.609 4.765.344.586.75 1.012 1.219 1.281.469.262 1.039.391 1.719.391.675 0 1.3-.129 1.875-.391.57-.257 1.148-.687 1.734-1.281 1.289-1.301 2.125-2.906 2.5-4.812.195-1.039.242-2.032.141-2.969-.094-.938-.336-1.727-.719-2.375-.313-.539-.699-.93-1.156-1.172-.461-.238-1.039-.359-1.735-.359a4.77 4.77 0 0 0-1.875.359c-.554.242-1.101.633-1.64 1.172-.637.648-1.188 1.437-1.657 2.375a11.688 11.688 0 0 0-1.015 3.016Z" style="fill:#bf974f;fill-rule:nonzero" transform="translate(-15 -49.766)"/><path d="m107.594 69.567.047-.218c.375-.02.687-.071.937-.157.258-.093.5-.234.719-.421.238-.208.426-.469.562-.782.133-.32.27-.816.407-1.484l.375-1.906c.05-.27.054-.571.015-.907-.043-.382-.199-.867-.468-1.453l-1.782-3.797-.328-.687c-.242-.488-.496-.828-.766-1.016a1.675 1.675 0 0 0-.453-.203 3.442 3.442 0 0 0-.656-.078l.031-.219h6.36l-.032.219c-.554.031-.906.086-1.062.156-.398.157-.637.438-.719.844-.031.148-.027.32.016.516.051.187.141.422.265.703l1.829 4.14 2.968-3.531.329-.406c.312-.375.503-.742.578-1.109.082-.415.015-.739-.204-.969-.218-.227-.574-.344-1.062-.344l.031-.219h4.5l-.031.219a3.98 3.98 0 0 0-.828.172 2.297 2.297 0 0 0-.625.375c-.524.418-1.137 1.039-1.844 1.859l-2.906 3.391c-.336.406-.547.703-.641.891-.094.187-.187.511-.281.968l-.469 2.391c-.148.699-.215 1.199-.203 1.5.008.305.098.558.266.766.281.386.754.578 1.422.578l-.047.218h-6.25ZM132.945 69.567h-6.422l.047-.218c.594-.051 1.02-.149 1.282-.297.437-.258.703-.614.796-1.063.051-.258.032-.613-.062-1.062l-.078-.422-.485-2.297h-4.296l-.766 1.344-.375.609c-.438.719-.695 1.281-.766 1.688a1.3 1.3 0 0 0 .016.672c.07.21.187.382.344.515.218.168.523.274.922.313l-.047.218h-4.391l.047-.218c.351-.02.676-.102.969-.25.289-.157.586-.399.89-.735.258-.269.532-.613.813-1.031.289-.414.679-1.047 1.172-1.891l5.39-9.203h.547l2.235 10.266c.164.773.304 1.324.421 1.656.125.336.282.586.469.75.133.117.297.203.485.266.195.062.492.121.89.172l-.047.218Zm-5-5.765-1.047-5.063-2.937 5.063h3.984Z" style="fill:#bf974f;fill-rule:nonzero" transform="translate(-15 -49.767)"/><path d="m149.852 56.253-.704 4.25-.25.016c-.156-1.445-.515-2.52-1.078-3.219-.562-.707-1.34-1.062-2.328-1.062-.781 0-1.484.156-2.109.468-.617.313-1.235.825-1.86 1.532a10.76 10.76 0 0 0-2.453 4.984c-.179.898-.23 1.742-.156 2.531.082.793.289 1.492.625 2.094.645 1.168 1.598 1.75 2.859 1.75.489 0 .973-.102 1.454-.312a3.893 3.893 0 0 0 1.25-.86 3.605 3.605 0 0 0 .921-1.797c.133-.644.051-1.109-.25-1.39-.293-.289-.839-.438-1.64-.438l.047-.234h6.234l-.047.234c-.586.055-1.008.133-1.265.235-.25.105-.45.289-.594.546-.188.293-.367.868-.531 1.719-.055.231-.118.594-.188 1.094l-.016.219c-.23-.094-.402-.141-.515-.141-.149 0-.344.078-.594.234a8.276 8.276 0 0 1-2.156.891 9.424 9.424 0 0 1-2.422.313c-1.148 0-2.141-.196-2.984-.579-.844-.394-1.485-.957-1.922-1.687-.325-.539-.528-1.188-.61-1.938-.086-.757-.039-1.566.141-2.421a9.451 9.451 0 0 1 1.25-3.235c.625-1.008 1.379-1.836 2.266-2.484a8.22 8.22 0 0 1 2.375-1.219 8.261 8.261 0 0 1 2.64-.437 6.145 6.145 0 0 1 2.75.625l.516.265a.974.974 0 0 0 .375.078c.258 0 .5-.207.719-.625h.25Z" style="fill:#bf974f;fill-rule:nonzero" transform="translate(-15 -49.78)"/><path d="m164.953 56.239-.469 3.219-.218.016c.019-.551-.032-1.004-.157-1.36a2.21 2.21 0 0 0-.656-.953 2.422 2.422 0 0 0-1-.484c-.398-.094-.937-.141-1.625-.141h-2.234l-1.156 5.86h.578c.593 0 1.046-.036 1.359-.11.32-.082.594-.223.813-.422.218-.187.394-.41.531-.672.144-.257.297-.64.453-1.14l.219.015-1.063 5.235h-.234c.039-.5.035-.899-.016-1.203a1.836 1.836 0 0 0-.328-.797 1.248 1.248 0 0 0-.656-.453c-.293-.094-.684-.141-1.172-.141h-.547l-.453 2.234c-.168.887-.274 1.532-.313 1.938-.031.406-.011.75.063 1.031.125.469.39.813.797 1.031.414.219.992.329 1.734.329.781 0 1.453-.098 2.016-.297a4.006 4.006 0 0 0 1.484-.938c.281-.269.531-.582.75-.937.219-.364.445-.836.688-1.422h.218l-.89 3.89h-11.641l.047-.218c.363-.02.672-.071.922-.157.258-.093.492-.234.703-.421.25-.208.441-.473.578-.797.133-.321.27-.813.406-1.469l1.422-7.203c.125-.664.18-1.16.172-1.485 0-.32-.09-.586-.266-.796a1.16 1.16 0 0 0-.531-.407c-.211-.082-.496-.133-.859-.156l.031-.219h10.5Z" style="fill:#bf974f;fill-rule:nonzero" transform="translate(-15 -49.767)"/><path d="m166.543 69.52.828-4.031h.234c.071 1.031.239 1.844.5 2.437.489 1.094 1.27 1.641 2.344 1.641.75 0 1.414-.25 2-.75a3.264 3.264 0 0 0 1.11-1.906c.07-.332.086-.672.046-1.016a2.461 2.461 0 0 0-.265-.89c-.137-.258-.356-.504-.656-.735-.293-.238-.75-.535-1.375-.89-.563-.313-.993-.571-1.282-.782a2.99 2.99 0 0 1-.656-.672c-.437-.601-.57-1.347-.391-2.234a4.542 4.542 0 0 1 .625-1.562c.321-.5.707-.926 1.157-1.282.832-.633 1.718-.953 2.656-.953.312 0 .586.031.828.094.25.055.57.172.969.359.301.125.504.211.609.25.114.032.219.047.313.047.226 0 .41-.164.547-.5h.234l-.703 3.891h-.219c-.055-.625-.117-1.098-.187-1.422a6.085 6.085 0 0 0-.25-.922c-.231-.508-.512-.883-.844-1.125-.336-.238-.75-.359-1.25-.359a2.7 2.7 0 0 0-1.891.734 3.52 3.52 0 0 0-.547.719 2.626 2.626 0 0 0-.312.812c-.219 1.094.312 1.969 1.594 2.625l1.234.672c.969.5 1.625 1.055 1.969 1.656.406.68.519 1.465.343 2.36a5.1 5.1 0 0 1-.703 1.719 5.267 5.267 0 0 1-1.89 1.765 5.096 5.096 0 0 1-2.5.625 5.412 5.412 0 0 1-2.328-.5 10.06 10.06 0 0 0-.672-.297.64.64 0 0 0-.25-.047c-.313 0-.559.157-.735.469h-.234Z" style="fill:#bf974f;fill-rule:nonzero" transform="translate(-15 -49.75)"/><path d="M75.848 31.444c.414 0 .764-.056 1.045-.164.285-.107.528-.283.722-.52.311-.382.718-1.276 1.229-2.69l3.911-10.784h.414l4.027 10.436a34.2 34.2 0 0 0 .741 1.809c.18.391.352.696.519.92.24.318.494.554.76.709.265.155.576.249.937.284l.003.245h-4.375l.001-.245c.25 0 .45-.026.611-.073a1.18 1.18 0 0 0 .432-.254c.128-.125.234-.305.311-.537.081-.232.122-.482.119-.748 0-.481-.196-1.242-.589-2.291l-2.821-7.448-2.906 8.493c-.167.472-.264.778-.298.919a2.23 2.23 0 0 0-.047.482c0 .262.062.503.186.726.125.219.291.383.49.49.219.112.571.193 1.063.241l-.001.245h-6.485l.001-.245Z" style="fill:none;fill-rule:nonzero;stroke:#c2974f;stroke-width:.89px" transform="matrix(1 0 .1794 -.90887 -23.786 35.512)"/><path d="M92.912 21.782a7.113 7.113 0 0 1 1.252-2.231 7.134 7.134 0 0 1 2.454-1.943 6.785 6.785 0 0 1 2.99-.687c1.051 0 2.063.236 3.029.709a7.377 7.377 0 0 1 2.51 1.994 7.445 7.445 0 0 1 1.315 2.291c.304.834.456 1.706.455 2.604-.002 1.797-.578 3.396-1.729 4.805a7.548 7.548 0 0 1-2.478 2.008 6.392 6.392 0 0 1-5.286.266 7.894 7.894 0 0 1-2.18-1.281 7.602 7.602 0 0 1-2.064-2.647c-.472-1.006-.704-2.106-.707-3.288a7.788 7.788 0 0 1 .439-2.6Zm2.364 5.703c.279 1.014.68 1.87 1.195 2.566.435.584.906 1.005 1.41 1.268.507.262 1.109.391 1.805.391.699 0 1.305-.133 1.821-.396.516-.266.981-.683 1.402-1.263.517-.705.917-1.56 1.203-2.57.287-1.01.428-2.081.429-3.215-.002-2.059-.519-3.795-1.555-5.205-.473-.632-.969-1.087-1.488-1.371-.521-.279-1.124-.421-1.812-.421-.683 0-1.283.142-1.802.425-.521.288-1.017.744-1.48 1.367-1.037 1.401-1.553 3.125-1.552 5.166-.001 1.161.14 2.248.424 3.258Z" style="fill:none;fill-rule:nonzero;stroke:#c2974f;stroke-width:.89px" transform="matrix(1 0 .1794 -.90887 -23.784 35.504)"/><path d="m119.521 17.291.003.245c-.668 0-1.185.202-1.543.611-.21.232-.35.511-.42.838-.067.326-.101.868-.103 1.62l.001 2.583c-.001.486.031.83.088 1.036.061.202.222.524.492.958l2.24 3.671c.543.894 1.039 1.564 1.482 2.015.189.185.377.314.562.396.18.082.443.142.783.185l.004.24h-4.52v-.24c.485 0 .859-.125 1.129-.37.267-.245.403-.593.402-1.044 0-.391-.119-.795-.362-1.204l-.255-.43-2.283-3.82-2.662 4.474a6.45 6.45 0 0 0-.396.769 1.425 1.425 0 0 0-.122.55c-.001.443.182.748.551.916.147.073.497.124 1.041.159v.24h-6.406v-.24c.291-.013.523-.043.687-.086.164-.039.326-.116.489-.219.321-.198.652-.563.982-1.096l.453-.74 2.545-4.104c.389-.623.643-1.148.768-1.56.111-.361.166-.688.164-.98l-.01-2.059c.001-.722-.036-1.259-.107-1.603a1.773 1.773 0 0 0-.413-.855 1.617 1.617 0 0 0-.627-.443c-.238-.09-.54-.146-.915-.168v-.245h6.278Z" style="fill:none;fill-rule:nonzero;stroke:#c2974f;stroke-width:.89px" transform="matrix(1 0 .1794 -.90887 -23.787 35.516)"/><path d="M138.641 17.531a5.268 5.268 0 0 0-.914.172 1.738 1.738 0 0 0-.54.292c-.221.185-.43.456-.619.813-.189.357-.444.954-.767 1.792l-4.274 11.089h-.559l-3.598-9.95a33.755 33.755 0 0 0-.79-2.042c-.2-.451-.402-.825-.612-1.113-.249-.356-.506-.619-.767-.778a1.943 1.943 0 0 0-.916-.275l.001-.245h4.403l-.001.245c-.397.035-.726.146-.982.336a1.506 1.506 0 0 0-.435.55 1.67 1.67 0 0 0-.165.726c.002.443.151 1.053.442 1.827l.246.653.512 1.457h4.324l.942-2.489.166-.442c.185-.486.277-.873.274-1.161a1.286 1.286 0 0 0-.608-1.139c-.23-.154-.632-.262-1.216-.318l.001-.245h6.453l-.001.245Zm-10.179 5.983 1.946 5.463 2.062-5.463h-4.008Z" style="fill:none;fill-rule:nonzero;stroke:#c2974f;stroke-width:.89px" transform="matrix(1 0 .1794 -.90887 -23.786 35.512)"/><path d="M152.671 31.68c-.136-.46-.333-.688-.599-.688a.963.963 0 0 0-.392.095l-.578.283a7.2 7.2 0 0 1-1.429.52 6.501 6.501 0 0 1-1.458.155 7.27 7.27 0 0 1-2.577-.46 6.78 6.78 0 0 1-2.15-1.319c-.761-.705-1.35-1.599-1.769-2.682-.419-1.083-.627-2.252-.628-3.512 0-.915.116-1.779.348-2.596.232-.812.566-1.517.996-2.11a5.658 5.658 0 0 1 2.255-1.814c.927-.421 1.965-.631 3.121-.631.836 0 1.633.111 2.386.335.752.228 1.416.55 1.985.971.221.163.406.245.55.245.117 0 .302-.051.551-.15l-.021.245c-.025.533-.037.928-.04 1.182.003.919.065 1.534.189 1.843.109.284.285.482.514.598.233.116.639.202 1.215.258l-.001.245h-6.269l.001-.245c.804 0 1.383-.155 1.735-.464.349-.31.525-.813.525-1.509-.002-.752-.194-1.401-.58-1.951a2.955 2.955 0 0 0-1.079-.929 3.07 3.07 0 0 0-1.404-.339c-1.266 0-2.337.636-3.216 1.9a7.449 7.449 0 0 0-1.031 2.265 10.072 10.072 0 0 0-.353 2.724c-.003 2.02.492 3.813 1.473 5.381.483.765 1.005 1.32 1.565 1.659.56.344 1.233.512 2.01.512 1.004 0 1.857-.378 2.564-1.143.707-.761 1.291-1.926 1.743-3.486l.223.021-.117 4.591h-.258Z" style="fill:none;fill-rule:nonzero;stroke:#c2974f;stroke-width:.89px" transform="matrix(1 0 .1794 -.90887 -23.784 35.504)"/><path d="M157.461 31.689v-.245c.379-.022.686-.078.917-.168a1.62 1.62 0 0 0 .615-.443c.201-.227.342-.511.416-.859.074-.348.115-.881.115-1.599V20.6c0-.718-.037-1.251-.116-1.599a1.836 1.836 0 0 0-.416-.859 1.634 1.634 0 0 0-.623-.443c-.234-.09-.537-.146-.908-.168l-.003-.245h11.723l.126 4.199-.225.013c-.125-.632-.26-1.143-.406-1.53a4.138 4.138 0 0 0-.575-1.036 2.988 2.988 0 0 0-1.298-.997c-.528-.215-1.188-.322-1.974-.322-.746 0-1.349.12-1.802.357-.456.232-.796.606-1.02 1.113-.13.292-.216.662-.264 1.1-.043.439-.068 1.143-.069 2.106v2.416h.559c.484 0 .884-.052 1.2-.159.313-.108.572-.271.765-.495.206-.232.366-.515.48-.846.114-.331.2-.765.258-1.307h.226l.041 5.652-.229.013c-.059-.542-.13-.95-.221-1.23a1.904 1.904 0 0 0-.405-.722 1.505 1.505 0 0 0-.739-.455c-.302-.082-.751-.125-1.345-.125h-.59l.001 6.331h2.25c.692 0 1.252-.052 1.669-.155a2.726 2.726 0 0 0 1.09-.524c.373-.292.661-.636.855-1.023.199-.387.336-.872.423-1.466l.225.013-.168 3.482h-10.558Z" style="fill:none;fill-rule:nonzero;stroke:#c2974f;stroke-width:.89px" transform="matrix(1 0 .1794 -.90887 -23.786 35.512)"/><path d="M172.412 17.32c.118.34.334.507.651.507a.723.723 0 0 0 .265-.043c.079-.025.322-.137.727-.326a5.788 5.788 0 0 1 2.436-.537c.926 0 1.726.223 2.408.666.681.447 1.193 1.079 1.53 1.899.245.594.366 1.208.367 1.853-.002.971-.268 1.822-.806 2.557-.469.653-1.24 1.251-2.307 1.797l-1.383.717c-1.406.718-2.107 1.664-2.106 2.837a2.716 2.716 0 0 0 .565 1.659c.428.537 1.005.804 1.739.804.5 0 .946-.133 1.333-.396.383-.262.737-.67 1.059-1.22.179-.301.327-.628.457-.984.127-.357.277-.869.455-1.535h.227l-.068 4.186h-.226c-.081-.356-.236-.537-.462-.537-.094 0-.199.022-.316.06-.12.039-.339.125-.669.267-.437.197-.79.331-1.051.395a3.342 3.342 0 0 1-.854.099c-.949 0-1.774-.344-2.467-1.031a4.08 4.08 0 0 1-.918-1.393 4.488 4.488 0 0 1-.33-1.689c.002-.95.283-1.754.847-2.416.199-.236.468-.472.799-.704.33-.232.807-.516 1.431-.856.706-.387 1.231-.705 1.578-.958.342-.254.609-.52.798-.791.185-.271.328-.589.438-.963.11-.374.164-.739.162-1.096 0-.829-.244-1.517-.737-2.058-.492-.542-1.112-.813-1.866-.813-1.082 0-1.98.589-2.692 1.771-.38.636-.709 1.513-.981 2.617l-.229.013-.027-4.358h.223Z" style="fill:none;fill-rule:nonzero;stroke:#c2974f;stroke-width:.89px" transform="matrix(1 0 .1794 -.90887 -23.784 35.504)"/><path d="M62.254 32.656h8.703l-.062.296c-.668.055-1.157.149-1.469.282a1.94 1.94 0 0 0-.781.594c-.219.273-.36.562-.422.874a2.23 2.23 0 0 0-.047.579c.008.168.066.539.172 1.109l1.89 10.219 5.547-8.969c.781-1.258 1.227-2.176 1.344-2.75.062-.32.066-.625.016-.906-.055-.282-.153-.492-.297-.641a1.187 1.187 0 0 0-.532-.297c-.199-.062-.464-.094-.796-.094l.062-.296h5.875l-.062.296c-.5.043-.95.157-1.344.344-.387.18-.778.461-1.172.844a9.7 9.7 0 0 0-.922 1.109c-.336.469-.805 1.196-1.406 2.172L68.66 49.984h-.562l-2.672-12.969c-.356-1.707-.696-2.789-1.016-3.25a1.757 1.757 0 0 0-.859-.609c-.356-.133-.809-.204-1.36-.204l.063-.296ZM97.816 49.984H89.16l.063-.297c.789-.063 1.351-.188 1.687-.375.613-.332.977-.789 1.094-1.375.062-.344.031-.805-.094-1.391l-.125-.531-.672-3h-5.797l-1.031 1.75-.484.781c-.586.938-.93 1.672-1.031 2.203-.063.313-.047.606.046.875.094.274.25.493.469.657.301.23.711.367 1.235.406l-.063.297h-5.906l.062-.297c.469-.02.895-.129 1.282-.328.394-.196.8-.508 1.218-.938a9.526 9.526 0 0 0 1.078-1.328c.383-.551.907-1.375 1.563-2.469l7.187-11.968h.75l3.094 13.343c.227 1.012.426 1.731.594 2.157.176.429.394.757.656.984.176.148.395.262.656.344.258.086.657.152 1.188.203l-.063.297Zm-6.796-7.485-1.469-6.578-3.906 6.578h5.375ZM105.672 34.952l-2.188 11.047c-.168.875-.242 1.524-.218 1.938.019.406.14.746.359 1.015.187.25.426.434.719.547.289.106.687.168 1.187.188l-.062.297h-6.078l.062-.297c.5-.02.914-.082 1.25-.188.332-.113.649-.297.953-.547.321-.269.578-.613.766-1.031.187-.414.363-1.054.531-1.922l1.859-9.375c.165-.851.239-1.488.219-1.906-.023-.414-.14-.758-.359-1.031a1.54 1.54 0 0 0-.719-.531c-.293-.114-.695-.18-1.203-.204l.062-.296h5.079L116 45.812l1.812-9.172c.165-.875.239-1.516.219-1.922-.011-.414-.125-.758-.343-1.031-.2-.25-.446-.426-.735-.531-.293-.114-.687-.18-1.187-.204l.062-.296h6.078l-.062.296c-.875 0-1.61.247-2.203.735a2.858 2.858 0 0 0-.766 1.031c-.18.418-.352 1.055-.516 1.906l-2.64 13.36h-.594l-9.453-15.032ZM121.051 49.687c.508-.02.926-.082 1.25-.188.332-.113.648-.297.953-.547.32-.269.578-.613.766-1.031.187-.414.363-1.054.531-1.922l1.859-9.359c.176-.926.25-1.602.219-2.031a1.609 1.609 0 0 0-.484-1.078c-.368-.344-.965-.536-1.797-.579l.062-.296h7.25c1.613 0 2.633.015 3.063.046 1.832.137 3.304.649 4.422 1.532 1.062.836 1.8 1.933 2.218 3.297.426 1.355.477 2.828.157 4.421a10.866 10.866 0 0 1-1.235 3.329c-.594 1.031-1.308 1.886-2.14 2.562a8.408 8.408 0 0 1-4.016 1.844 19.452 19.452 0 0 1-3.391.297h-9.75l.063-.297Zm8.937-16.641-2.5 12.625c-.156.824-.23 1.453-.218 1.891.019.43.128.793.328 1.094.425.668 1.273 1 2.547 1 1.07 0 2.023-.172 2.859-.516.844-.344 1.644-.898 2.406-1.672a10.059 10.059 0 0 0 1.875-2.547c.5-.969.86-1.992 1.078-3.078.239-1.195.274-2.336.11-3.422-.168-1.082-.524-2.031-1.063-2.843-.762-1.126-1.781-1.868-3.062-2.235-.7-.195-1.621-.297-2.766-.297h-1.594ZM154.902 32.656l-.062.296c-.512.024-.934.09-1.266.204a2.834 2.834 0 0 0-.937.531c-.407.336-.715.805-.922 1.406a15.41 15.41 0 0 0-.375 1.547l-1.86 9.359c-.136.7-.21 1.25-.218 1.657 0 .406.05.734.156.984.164.336.41.586.734.75.321.168.786.266 1.391.297l-.063.297h-8.437l.062-.297c.508-.02.93-.086 1.266-.203.332-.114.645-.289.938-.532a2.67 2.67 0 0 0 .765-1.015c.188-.414.364-1.063.531-1.938l1.86-9.359c.164-.875.238-1.516.219-1.922-.012-.414-.133-.758-.36-1.031a1.519 1.519 0 0 0-.734-.531c-.293-.114-.688-.18-1.188-.204l.063-.296h8.437ZM156.371 32.656h8.703l-.062.296c-.668.055-1.157.149-1.469.282a1.94 1.94 0 0 0-.781.594c-.219.273-.36.562-.422.874a2.23 2.23 0 0 0-.047.579c.008.168.066.539.172 1.109l1.89 10.219 5.547-8.969c.782-1.258 1.227-2.176 1.344-2.75.063-.32.066-.625.016-.906-.055-.282-.153-.492-.297-.641a1.184 1.184 0 0 0-.531-.297c-.2-.062-.465-.094-.797-.094l.062-.296h5.875l-.062.296c-.5.043-.95.157-1.344.344-.387.18-.777.461-1.172.844a9.806 9.806 0 0 0-.922 1.109c-.336.469-.804 1.196-1.406 2.172l-7.891 12.563h-.562l-2.672-12.969c-.355-1.707-.695-2.789-1.016-3.25a1.757 1.757 0 0 0-.859-.609c-.356-.133-.809-.204-1.359-.204l.062-.296ZM185.434 32.656l-.063.296c-.512.024-.933.09-1.266.204a2.834 2.834 0 0 0-.937.531c-.406.336-.715.805-.922 1.406a15.41 15.41 0 0 0-.375 1.547l-1.859 9.359c-.137.7-.211 1.25-.219 1.657 0 .406.051.734.156.984.164.336.41.586.735.75.32.168.785.266 1.39.297l-.062.297h-8.438l.063-.297c.508-.02.929-.086 1.265-.203.332-.114.645-.289.938-.532a2.67 2.67 0 0 0 .765-1.015c.188-.414.364-1.063.532-1.938l1.859-9.359c.164-.875.238-1.516.219-1.922-.012-.414-.133-.758-.36-1.031a1.519 1.519 0 0 0-.734-.531c-.293-.114-.687-.18-1.187-.204l.062-.296h8.438ZM190.855 34.952l-2.187 11.047c-.168.875-.242 1.524-.219 1.938.02.406.141.746.36 1.015a1.6 1.6 0 0 0 .718.547c.289.106.688.168 1.188.188l-.063.297h-6.078l.063-.297c.5-.02.914-.082 1.25-.188.332-.113.648-.297.953-.547.32-.269.578-.613.765-1.031.188-.414.364-1.054.532-1.922l1.859-9.375c.164-.851.238-1.488.219-1.906-.024-.414-.141-.758-.36-1.031a1.533 1.533 0 0 0-.718-.531c-.293-.114-.696-.18-1.203-.204l.062-.296h5.078l8.11 13.156 1.812-9.172c.164-.875.238-1.516.219-1.922-.012-.414-.125-.758-.344-1.031a1.639 1.639 0 0 0-.734-.531c-.293-.114-.688-.18-1.188-.204l.063-.296h6.078l-.063.296c-.875 0-1.609.247-2.203.735a2.867 2.867 0 0 0-.765 1.031c-.18.418-.352 1.055-.516 1.906l-2.641 13.36h-.593l-9.454-15.032ZM218.031 32.656l-.062.296c-.512.024-.934.09-1.266.204a2.825 2.825 0 0 0-.937.531c-.407.336-.715.805-.922 1.406a15.41 15.41 0 0 0-.375 1.547l-1.86 9.359c-.136.7-.211 1.25-.218 1.657 0 .406.05.734.156.984.164.336.41.586.734.75.321.168.785.266 1.391.297l-.063.297h-8.437l.062-.297c.508-.02.93-.086 1.266-.203.332-.114.645-.289.938-.532a2.68 2.68 0 0 0 .765-1.015c.188-.414.363-1.063.531-1.938l1.86-9.359c.164-.875.238-1.516.218-1.922-.011-.414-.132-.758-.359-1.031a1.519 1.519 0 0 0-.734-.531c-.293-.114-.688-.18-1.188-.204l.063-.296h8.437ZM227.641 33.046c-.555 0-1.153.016-1.797.047-1.367.074-2.406.242-3.125.5-.711.262-1.344.715-1.907 1.359-.511.594-.976 1.399-1.39 2.407l-.281-.016 1.156-4.687h17.844l-.688 4.687-.328.016c.008-1.176-.18-2.067-.563-2.672-.386-.602-1.039-1.035-1.953-1.297-.781-.227-2.148-.344-4.093-.344l-2.563 12.953c-.168.868-.246 1.508-.234 1.922.019.418.14.762.359 1.031.195.25.442.434.734.547.29.106.688.168 1.188.188l-.062.297h-8.422l.062-.297c.508-.02.93-.082 1.266-.188.332-.113.644-.297.937-.547.332-.269.586-.609.766-1.015.187-.414.363-1.063.531-1.938l2.563-12.953Z" style="fill:#3863b8;fill-rule:nonzero" transform="translate(-15 -5.64)"/><path d="M69.315 58.371c.547 0 1.013-.073 1.395-.219.377-.146.7-.379.96-.697.412-.507.958-1.702 1.64-3.584l5.212-14.377h.55l5.372 13.913c.418 1.087.75 1.891.989 2.411s.47.928.69 1.229c.322.426.66.739 1.014.946.353.206.768.331 1.248.378l.001.322h-5.828l-.001-.322c.332 0 .604-.034.811-.099.21-.064.403-.18.579-.335.172-.172.312-.408.418-.718.106-.309.159-.645.156-1.001.001-.636-.261-1.655-.784-3.052l-3.762-9.928L76.1 54.559c-.218.627-.35 1.035-.395 1.225a3.037 3.037 0 0 0-.065.644c0 .348.083.671.248.967.167.293.385.512.657.654.289.15.758.257 1.414.322l.001.322h-8.648l.003-.322Z" style="fill:none;fill-rule:nonzero;stroke:#3863b8;stroke-width:.89px" transform="matrix(1 0 .1794 -.90887 -32.615 80.239)"/><path d="M108.158 39.816c-.539.064-.947.142-1.217.232a2.252 2.252 0 0 0-.722.387c-.293.241-.569.602-.823 1.083-.254.477-.592 1.272-1.023 2.39l-5.698 14.78h-.746l-4.796-13.263c-.436-1.208-.785-2.115-1.051-2.721-.268-.601-.541-1.1-.82-1.483-.333-.477-.673-.825-1.021-1.04a2.583 2.583 0 0 0-1.219-.365l-.001-.322h5.867l.001.322c-.532.047-.969.198-1.308.451-.248.185-.44.43-.584.731a2.216 2.216 0 0 0-.217.971c0 .589.198 1.397.591 2.433l.328.872.679 1.939h5.766l1.255-3.318.224-.593c.244-.645.368-1.161.367-1.548-.001-.644-.27-1.151-.814-1.517-.306-.206-.843-.348-1.623-.421l-.001-.322h8.609l-.003.322Zm-13.571 7.973 2.596 7.285 2.748-7.285h-5.344ZM125.497 39.494h.59l-.001 14.793c.002.946.05 1.655.151 2.119.1.464.286.842.556 1.143.488.546 1.17.817 2.045.817l.001.322h-6.043l.003-.322c.497-.026.902-.103 1.212-.224.308-.124.585-.322.829-.593.273-.301.458-.679.56-1.139.098-.46.148-1.173.149-2.136l.002-10.156-10.638 14.57h-5.043l-.001-.322c.505-.026.914-.103 1.224-.224.312-.124.581-.322.818-.593.272-.301.457-.679.556-1.143.103-.464.152-1.173.154-2.119l-.001-10.379c-.001-.955-.049-1.668-.153-2.132-.101-.464-.286-.847-.557-1.143a2.14 2.14 0 0 0-.831-.594c-.31-.12-.714-.197-1.21-.223l-.001-.322h6.039l.001.322c-.497.026-.901.103-1.212.223-.31.121-.588.319-.833.594-.272.296-.457.679-.556 1.139-.101.455-.151 1.169-.152 2.136v12.236l12.342-16.65ZM131.474 39.494h9.683c1.125 0 2.231.107 3.314.322 1.448.288 2.658.971 3.63 2.037.688.761 1.228 1.715 1.616 2.863.388 1.147.582 2.372.584 3.666-.001 1.771-.342 3.408-1.022 4.912-.684 1.509-1.633 2.725-2.858 3.654-1.281.975-2.846 1.534-4.689 1.684-.437.039-1.452.056-3.049.056h-7.207l-.001-.322c.829-.047 1.457-.262 1.885-.645.341-.309.572-.705.689-1.182.117-.481.178-1.233.18-2.265V43.908c-.001-.955-.052-1.668-.153-2.132-.1-.464-.285-.847-.556-1.143a2.167 2.167 0 0 0-.828-.594c-.302-.12-.71-.197-1.217-.223l-.001-.322Zm7.209 18.76c1.132 0 2.066-.107 2.8-.322 1.345-.404 2.501-1.229 3.471-2.476.701-.902 1.237-1.951 1.612-3.15.376-1.204.564-2.467.564-3.8a12.036 12.036 0 0 0-.465-3.395c-.312-1.066-.764-2.011-1.355-2.832-.604-.856-1.287-1.47-2.05-1.853-.764-.378-1.684-.567-2.758-.567-1.258 0-2.167.365-2.724 1.096-.263.335-.442.744-.54 1.225-.093.477-.144 1.173-.141 2.093v13.981h1.586ZM153.527 58.688l-.001-.322c.501-.03.905-.103 1.22-.224a2.11 2.11 0 0 0 .825-.593c.28-.301.465-.679.563-1.139.099-.46.144-1.173.145-2.136l.001-10.366c.001-.967-.05-1.681-.144-2.136-.098-.46-.287-.843-.565-1.144a2.235 2.235 0 0 0-.818-.58c-.309-.129-.717-.206-1.228-.232l.004-.322h8.371v.322c-.596.034-1.073.146-1.43.331a2.16 2.16 0 0 0-.876.834c-.159.275-.271.636-.343 1.083-.069.451-.101 1.066-.104 1.844v10.366c.001.645.027 1.217.079 1.715.079.666.287 1.186.63 1.56.244.271.521.469.831.593.31.121.715.194 1.214.224l-.003.322h-8.371Z" style="fill:none;fill-rule:nonzero;stroke:#3863b8;stroke-width:.89px" transform="matrix(1 0 .1794 -.90887 -32.614 80.234)"/><path d="M163.436 58.371c.551 0 1.017-.073 1.395-.219.381-.146.7-.379.964-.697.412-.507.958-1.702 1.636-3.584l5.216-14.377h.55l5.372 13.913c.418 1.087.746 1.891.985 2.411.243.52.47.928.69 1.229.322.426.66.739 1.014.946.353.206.772.331 1.252.378l.001.322h-5.832l.003-.322c.332 0 .6-.034.811-.099.21-.064.403-.18.575-.335.176-.172.316-.408.422-.718.103-.309.155-.645.156-1.001-.003-.636-.261-1.655-.788-3.052l-3.758-9.928-3.879 11.321c-.218.627-.35 1.035-.391 1.225a2.591 2.591 0 0 0-.065.644c0 .348.083.671.248.967.167.293.385.512.653.654.289.15.762.257 1.414.322l.001.322h-8.644l-.001-.322Z" style="fill:none;fill-rule:nonzero;stroke:#3863b8;stroke-width:.89px" transform="matrix(1 0 .1794 -.90887 -32.615 80.239)"/><path d="m184.046 58.688.003-.322c.498-.03.902-.103 1.216-.224a2.11 2.11 0 0 0 .825-.593c.281-.301.47-.679.564-1.139.098-.46.144-1.173.145-2.136V43.908c.002-.967-.05-1.681-.144-2.136-.097-.46-.282-.843-.564-1.144a2.235 2.235 0 0 0-.818-.58c-.309-.129-.717-.206-1.224-.232l-.001-.322h8.371l.001.322c-.596.034-1.073.146-1.43.331a2.17 2.17 0 0 0-.877.834c-.158.275-.27.636-.342 1.083-.07.451-.102 1.066-.105 1.844v10.366c.002.645.028 1.217.079 1.715.08.666.287 1.186.63 1.56.245.271.522.469.831.593.311.121.716.194 1.214.224l-.003.322h-8.371ZM210.669 39.494h.59l.002 14.793c-.001.946.051 1.655.152 2.119.1.464.286.842.556 1.143.488.546 1.17.817 2.045.817l.001.322h-6.043l-.001-.322c.501-.026.905-.103 1.216-.224.307-.124.585-.322.829-.593.273-.301.458-.679.56-1.139.098-.46.148-1.173.149-2.136l.001-10.156-10.637 14.57h-5.047l.003-.322c.505-.026.913-.103 1.224-.224.307-.124.581-.322.817-.593.273-.301.458-.679.557-1.143.103-.464.152-1.173.15-2.119l.002-10.379c0-.955-.048-1.668-.152-2.132-.101-.464-.286-.847-.557-1.143a2.154 2.154 0 0 0-.831-.594c-.311-.12-.715-.197-1.21-.223l-.001-.322h6.039l.001.322c-.501.026-.905.103-1.212.223a2.16 2.16 0 0 0-.833.594c-.272.296-.458.679-.556 1.139-.101.455-.151 1.169-.153 2.136l.001 12.236 12.338-16.65ZM216.652 58.688l-.001-.322c.497-.03.905-.103 1.22-.224a2.14 2.14 0 0 0 .825-.593 2.38 2.38 0 0 0 .563-1.139c.095-.46.144-1.173.141-2.136l.001-10.366c.001-.967-.046-1.681-.144-2.136-.098-.46-.283-.843-.561-1.144a2.283 2.283 0 0 0-.822-.58c-.308-.129-.716-.206-1.224-.232v-.322h8.371l.001.322c-.593.034-1.07.146-1.427.331-.361.18-.653.46-.88.834-.159.275-.27.636-.339 1.083-.069.451-.105 1.066-.104 1.844v10.366c.001.645.023 1.217.079 1.715.075.666.287 1.186.626 1.56.244.271.521.469.835.593.306.121.711.194 1.21.224l.001.322h-8.371ZM234.721 43.908c.002-.967-.05-1.681-.152-2.136-.101-.46-.286-.843-.556-1.144a2.205 2.205 0 0 0-.832-.589c-.311-.12-.719-.197-1.226-.223l-.001-.322h8.371l.001.322c-.497.026-.901.103-1.212.223a2.228 2.228 0 0 0-.832.589c-.269.301-.455.684-.553 1.148-.103.464-.152 1.173-.152 2.132v14.346c1.938 0 3.312-.129 4.126-.378.959-.292 1.694-.774 2.193-1.444.503-.671.872-1.659 1.11-2.961l.299.03-.236 5.187h-17.722l-.237-5.187.302-.03c.208 1.126.509 2.015.903 2.673.427.713.97 1.212 1.632 1.504.659.292 1.662.473 3.003.55a32.25 32.25 0 0 0 1.772.056l-.001-14.346Z" style="fill:none;fill-rule:nonzero;stroke:#3863b8;stroke-width:.89px" transform="matrix(1 0 .1794 -.90887 -32.614 80.234)"/><path d="M152 22.391c.41 0 .797.012 1.156.031.16-.465.543-.816 1.153-1.058 1.257-.485 1.886-1.204 1.886-2.153 0-.715-.414-1.265-1.242-1.648-.832-.383-2.023-.578-3.574-.578-1.555 0-3.059.179-4.504.539-1.449.355-2.68.851-3.687 1.484-1.086.684-1.922 1.488-2.512 2.414-.59.93-.887 1.899-.887 2.918 0 1.133.375 2.055 1.125 2.77.75.711 1.719 1.07 2.918 1.07 1.352 0 2.738-.508 4.164-1.523.934-.657 1.707-1.52 2.32-2.59.891.793 2.204 2.074 3.93 3.836l.274.285a30.393 30.393 0 0 0 1.636-1.285l-.195-.227c-.375.285-.66.43-.859.43-.11 0-.243-.067-.395-.192-.156-.129-.496-.453-1.023-.976l-.668-.664a32.385 32.385 0 0 0-2.246-2.078l.312-.774c.289-.019.594-.031.918-.031m-2.043-2.688c.211-.043.375-.062.484-.062.348 0 .524.148.524.445 0 .211-.082.59-.242 1.145a12.675 12.675 0 0 1-.516 1.449c-.051-.031-.086-.059-.117-.078l-.496-.375c-.516-.387-1.047-.582-1.598-.582-.73 0-1.512.332-2.344.992-.836.66-1.25 1.285-1.25 1.867 0 .403.2.715.602.934a3.277 3.277 0 0 1-.078-.637c0-.699.226-1.273.676-1.723.449-.449 1.019-.671 1.714-.671.778 0 1.61.398 2.489 1.191-.559 1.215-1.157 2.102-1.801 2.66a5.264 5.264 0 0 1-1.633.957c-.633.238-1.246.36-1.836.36-1.113 0-2.015-.329-2.711-.989-.691-.66-1.043-1.519-1.043-2.574 0-1.676.781-3.148 2.336-4.418 1.801-1.461 4.336-2.191 7.598-2.191 2.922 0 4.387.644 4.387 1.933 0 .688-.27 1.231-.813 1.621-.539.391-1.281.586-2.227.586-.124 0-.335-.008-.636-.023.254-.719.496-1.567.73-2.543l.039-.141c-.675.219-1.445.418-2.312.594l.074.273Zm9.621 6.891c-.531.539-1.043.809-1.531.809-.449 0-.676-.27-.676-.805 0-.523.141-1.117.418-1.789a6.513 6.513 0 0 1 1.055-1.754c.605-.707 1.199-1.063 1.777-1.063.324 0 .488.125.488.375 0 .348-.222.672-.664.977a2.536 2.536 0 0 1-1.445.449c-.129 0-.305-.015-.523-.047.093.27.261.407.507.407.231 0 .559-.086.985-.258a4.827 4.827 0 0 0 1.054-.567c.297-.222.543-.476.743-.753.199-.278.296-.52.296-.719 0-.301-.207-.453-.617-.453-.711 0-1.519.339-2.429 1.019a6.654 6.654 0 0 0-1.836 2.129c-.477.863-.715 1.684-.715 2.469 0 .695.305 1.039.914 1.039.711 0 1.574-.477 2.586-1.43.695-.652 1.043-1.23 1.043-1.734a.906.906 0 0 0-.113-.391c-.348.852-.79 1.547-1.317 2.09m4.652 0c-.531.539-1.042.809-1.531.809-.449 0-.676-.27-.676-.805 0-.523.141-1.117.415-1.789a6.52 6.52 0 0 1 1.058-1.754c.606-.707 1.199-1.063 1.777-1.063.325 0 .489.125.489.375 0 .348-.223.672-.664.977a2.54 2.54 0 0 1-1.446.449c-.129 0-.304-.015-.523-.047.094.27.262.407.508.407.23 0 .558-.086.984-.258a4.86 4.86 0 0 0 1.055-.567c.297-.222.543-.476.742-.753.199-.278.297-.52.297-.719 0-.301-.207-.453-.617-.453-.711 0-1.52.339-2.43 1.019a6.666 6.666 0 0 0-1.836 2.129c-.477.863-.715 1.684-.715 2.469 0 .695.305 1.039.914 1.039.711 0 1.571-.477 2.586-1.43.695-.652 1.039-1.23 1.039-1.734a.94.94 0 0 0-.105-.391c-.352.852-.793 1.547-1.321 2.09m5.766-5.152c-.484 0-.887.074-1.207.215-.324.144-.644.394-.969.75-.48.539-.722 1.023-.722 1.457 0 .238.047.457.132.656l.465 1.012c.106.234.157.445.157.625 0 .347-.145.648-.438.91a1.48 1.48 0 0 1-1.012.39c-.48 0-.882-.277-1.207-.828a1.456 1.456 0 0 0-.187.711c0 .211.086.379.258.512.172.133.39.203.66.203.465 0 .996-.246 1.597-.73.696-.563 1.039-1.161 1.039-1.793a2.12 2.12 0 0 0-.187-.895l-.375-.805c-.105-.23-.156-.429-.156-.597 0-.313.121-.586.359-.825.242-.238.52-.355.84-.355.348 0 .523.098.523.297 0 .094-.054.254-.164.476-.011.028-.027.071-.054.125l.195.133.086-.125c.152-.23.297-.457.43-.687l.386-.645.086-.148a3.268 3.268 0 0 0-.535-.039m2.496 5.152c-.531.539-1.039.809-1.531.809-.449 0-.672-.27-.672-.805 0-.523.137-1.117.414-1.789a6.617 6.617 0 0 1 1.055-1.754c.605-.707 1.199-1.063 1.781-1.063.32 0 .484.125.484.375 0 .348-.222.672-.664.977a2.521 2.521 0 0 1-1.441.449c-.133 0-.309-.015-.527-.047.093.27.265.407.507.407.231 0 .559-.086.985-.258a4.86 4.86 0 0 0 1.055-.567 3.5 3.5 0 0 0 .742-.753c.199-.278.297-.52.297-.719 0-.301-.204-.453-.618-.453-.711 0-1.519.339-2.425 1.019a6.665 6.665 0 0 0-1.84 2.129c-.477.863-.715 1.684-.715 2.469 0 .695.305 1.039.918 1.039.707 0 1.57-.477 2.582-1.43.695-.652 1.043-1.23 1.043-1.734a.94.94 0 0 0-.11-.391c-.351.852-.789 1.547-1.32 2.09m6.848.277c-.27.172-.485.258-.641.258-.14 0-.211-.074-.211-.226 0-.2.41-1.094 1.231-2.68.683-1.332 1.023-2.133 1.023-2.406 0-.258-.129-.391-.383-.391-.406 0-.972.281-1.695.844-.723.558-1.516 1.328-2.371 2.305l-.133.148.11-.234c.687-1.512 1.027-2.504 1.027-2.969a.95.95 0 0 0-.016-.141l-.101.047c-.59.262-1.25.496-1.981.707l.047.25a.564.564 0 0 1 .086-.023c.262-.078.43-.118.508-.118.152 0 .226.094.226.282 0 .222-.242.949-.73 2.172a48.414 48.414 0 0 1-1.453 3.312c.449-.195.797-.32 1.043-.379.597-1.387 1.344-2.578 2.23-3.57.43-.481.867-.902 1.321-1.27.449-.363.757-.547.918-.547.117 0 .171.071.171.211 0 .094-.086.309-.257.641l-.508.973c-.903 1.754-1.41 3.062-1.52 3.922.856-.176 1.598-.489 2.223-.938l-.125-.211-.039.031Zm12.25.141c-.137 0-.203-.07-.203-.211 0-.328.476-1.519 1.433-3.574.399-.844.594-1.344.594-1.496 0-.219-.109-.328-.328-.328-.375 0-.914.285-1.617.855a11.557 11.557 0 0 0-1.953 2.035c.527-1.297.789-2.129.789-2.508 0-.25-.117-.375-.352-.375-.801 0-1.926.93-3.375 2.782.543-1.321.813-2.203.813-2.649 0-.082-.008-.183-.02-.304l-.176.109c-.715.445-1.3.754-1.754.934l.094.25c.211-.094.367-.141.473-.141.16 0 .234.094.226.281-.015.278-.254.973-.714 2.09l-.61 1.473a49.345 49.345 0 0 1-.738 1.726c.18-.074.351-.14.519-.199l.414-.148.118-.039a17.555 17.555 0 0 1 1.605-3.157 9.443 9.443 0 0 1 1.152-1.445c.411-.418.708-.629.883-.629.145 0 .215.074.215.227 0 .175-.144.683-.426 1.511a47.65 47.65 0 0 1-.937 2.524l-.473 1.148-.086.219c.43-.211.797-.359 1.106-.438.265-.808.613-1.585 1.039-2.332.426-.75.879-1.359 1.355-1.843.664-.668 1.11-1 1.332-1 .11 0 .164.062.164.187a.423.423 0 0 1-.062.195l-.227.485c-.984 2.027-1.519 3.609-1.605 4.746.762-.25 1.422-.574 1.972-.969l-.125-.203c-.242.141-.417.211-.515.211m6.008.078c-.141.012-.211-.062-.211-.211 0-.187.246-.84.742-1.949l.062-.137a4.082 4.082 0 0 1-.929.223c.511-.66.765-1.242.765-1.75 0-.363-.109-.613-.336-.75a7.704 7.704 0 0 1-1.089 2.57 8.383 8.383 0 0 1-1.313 1.571c-.492.449-.867.675-1.129.675-.308 0-.465-.211-.465-.629 0-.89.426-1.793 1.27-2.699 1.148-1.238 2.519-1.855 4.113-1.855.336 0 .68.031 1.035.093.157-.292.235-.492.235-.597 0-.125-.086-.188-.25-.188-1.192 0-2.387.34-3.59 1.012a8.527 8.527 0 0 0-2.653 2.258c-.707.918-1.058 1.769-1.058 2.558 0 .465.183.696.547.696.418 0 .984-.258 1.695-.781.715-.524 1.406-1.18 2.082-1.973-.598 1.289-.906 2.195-.933 2.723.949-.235 1.699-.559 2.246-.969l-.137-.203c-.336.195-.57.3-.699.312m4.73-5.633.078-.179.235-.563c.148-.348.25-.594.304-.746a2.948 2.948 0 0 1-.742.094c-.027 0-.078 0-.156-.008-.266.656-.477 1.051-.629 1.191-.156.141-.457.211-.906.211h-.102l-.109.235h1.027l-.082.179c-.07.184-.336.801-.789 1.852l-.816 1.855c-.438 1.012-.657 1.629-.657 1.848 0 .309.196.461.586.461.262 0 .594-.082.996-.25a4.85 4.85 0 0 0 1.075-.609l-.129-.203c-.481.324-.856.484-1.133.484-.231 0-.348-.113-.348-.336 0-.227.192-.762.574-1.606.325-.726.575-1.296.75-1.707.442-1.015.707-1.625.809-1.835l.063-.133h1.105l.102-.235h-1.106Zm22.086-2.543a.76.76 0 0 1-.273.055c-.125 0-.188-.078-.188-.23 0-.067.02-.219.055-.454l.125-.734c.031-.184.074-.394.125-.629l.023-.125-.265.047c-1.09.188-1.981.453-2.672.789a5.577 5.577 0 0 0-1.793 1.391c-.633.734-.949 1.39-.949 1.965 0 .355.179.605.539.746.355.144.972.215 1.843.215l.36-.004c-.121.683-.442 1.429-.957 2.238-.524.808-1.039 1.367-1.555 1.676-.176-.391-.367-.969-.582-1.731l-.391-1.41c-.382-1.359-.718-2.348-1.019-2.965a4.937 4.937 0 0 0-1.172-1.57c-.875-.777-1.914-1.168-3.117-1.168-1.246 0-2.266.48-3.063 1.441-.8.961-1.199 2.196-1.199 3.7 0 2.371.891 4.046 2.672 5.027.914.5 1.926.75 3.039.75 1.445 0 2.816-.406 4.109-1.219.571.883 1.399 1.32 2.493 1.32 1.488 0 2.746-.632 3.781-1.902.867-1.062 1.301-2.176 1.301-3.336 0-.859-.391-1.43-1.168-1.707-.235-.082-.637-.125-1.207-.125l-1.227.024v-.133c0-.793-.262-1.254-.785-1.379a3.332 3.332 0 0 1 .164 1.512h-.102c-.777 0-1.285-.043-1.523-.129-.238-.086-.356-.27-.356-.547 0-.762.45-1.43 1.348-2.012.668-.434 1.246-.648 1.738-.648.305 0 .454.16.454.476 0 .141-.016.324-.047.551l-.071.555c-.031.261-.062.484-.093.664l.203-.078a33.036 33.036 0 0 0 1.961-.821l-.102-.269c-.098.039-.246.097-.457.183m-2.277 3.024h.39c.871 0 1.477.113 1.813.347.336.231.504.653.504 1.254 0 1.078-.387 2.032-1.16 2.86-.778.832-1.668 1.246-2.676 1.246-.496 0-.899-.11-1.207-.332-.309-.223-.59-.61-.844-1.156.688-.489 1.313-1.133 1.879-1.934.562-.797.93-1.563 1.105-2.293l.196.008Zm-7.535 5.465a5.534 5.534 0 0 1-2.383-.532 5.589 5.589 0 0 1-1.934-1.488 5.963 5.963 0 0 1-1.008-1.793 6.069 6.069 0 0 1-.371-2.047c0-1.293.309-2.308.922-3.039.613-.73 1.465-1.094 2.555-1.094 1.047 0 1.918.415 2.617 1.239.699.828 1.297 2.16 1.793 3.992l.629 2.301c.121.441.305.937.555 1.488-1.137.648-2.262.973-3.375.973m14.246-5.946.078-.179.234-.563c.149-.348.25-.594.305-.746a2.948 2.948 0 0 1-.742.094c-.028 0-.078 0-.157-.008-.265.656-.476 1.051-.632 1.191-.153.141-.454.211-.903.211h-.101l-.11.235h1.024l-.078.179c-.071.184-.336.801-.789 1.852l-.817 1.855c-.437 1.012-.656 1.629-.656 1.848 0 .309.195.461.586.461.262 0 .594-.082.996-.25a4.812 4.812 0 0 0 1.07-.609l-.125-.203c-.476.324-.855.484-1.133.484-.23 0-.343-.113-.343-.336 0-.227.187-.762.57-1.606.324-.726.574-1.296.75-1.707.441-1.015.711-1.625.809-1.835l.062-.133h1.106l.101-.235h-1.105Zm2.875-.07a31.95 31.95 0 0 1-1.77.723l-.164.054.078.25c.078-.031.129-.05.149-.054l.328-.118a.813.813 0 0 1 .265-.054c.149 0 .215.078.203.242-.007.207-.296.93-.859 2.16-.445.961-.734 1.649-.867 2.067a5.4 5.4 0 0 0-.238 1.355c.492-.164 1.148-.445 1.964-.836l-.101-.226c-.238.105-.41.16-.516.164-.183.007-.273-.067-.265-.227.008-.156.168-.59.476-1.293l.578-1.316c.649-1.453.973-2.422.973-2.914v-.086l-.234.109Zm.316-1.949a.524.524 0 0 0-.16.367c0 .242.121.359.367.359a.487.487 0 0 0 .363-.164.499.499 0 0 0 .161-.367c0-.238-.118-.359-.36-.359a.5.5 0 0 0-.371.164m2.254-1.426-.121.047.082.226c.051-.015.09-.027.117-.039.219-.066.356-.101.414-.101.16 0 .242.07.242.211 0 .179-.226.801-.675 1.871l-.743 1.789c-.82 1.961-1.339 3.25-1.554 3.859-.215.61-.325 1.086-.325 1.426 0 .438.157.66.469.66.391 0 1.008-.371 1.848-1.105l-.149-.203-.093.07c-.387.301-.657.457-.805.461-.199.012-.293-.102-.281-.336.023-.539.769-2.477 2.238-5.813.844-1.918 1.27-3.191 1.27-3.832-.387.196-1.032.465-1.934.809" style="fill:#c2944f;fill-rule:nonzero" transform="translate(-15 31.054)"/><defs><linearGradient id="b" x1="0" y1="0" x2="1" y2="0" gradientUnits="userSpaceOnUse" gradientTransform="matrix(1.00001 0 0 -1.00001 0 0)"><stop offset="0" style="stop-color:#b98749;stop-opacity:1"/><stop offset=".25" style="stop-color:#b98749;stop-opacity:1"/><stop offset=".31" style="stop-color:#b98849;stop-opacity:1"/><stop offset=".38" style="stop-color:#b98849;stop-opacity:1"/><stop offset=".41" style="stop-color:#b9884a;stop-opacity:1"/><stop offset=".44" style="stop-color:#ba894a;stop-opacity:1"/><stop offset=".45" style="stop-color:#ba894b;stop-opacity:1"/><stop offset=".47" style="stop-color:#ba894b;stop-opacity:1"/><stop offset=".48" style="stop-color:#ba8a4c;stop-opacity:1"/><stop offset=".5" style="stop-color:#bb8a4c;stop-opacity:1"/><stop offset=".52" style="stop-color:#bb8b4d;stop-opacity:1"/><stop offset=".52" style="stop-color:#bb8b4d;stop-opacity:1"/><stop offset=".53" style="stop-color:#bb8b4e;stop-opacity:1"/><stop offset=".54" style="stop-color:#bc8c4e;stop-opacity:1"/><stop offset=".55" style="stop-color:#bc8c4f;stop-opacity:1"/><stop offset=".55" style="stop-color:#bc8c4f;stop-opacity:1"/><stop offset=".56" style="stop-color:#bc8d50;stop-opacity:1"/><stop offset=".57" style="stop-color:#bc8d50;stop-opacity:1"/><stop offset=".58" style="stop-color:#bd8d51;stop-opacity:1"/><stop offset=".59" style="stop-color:#bd8e51;stop-opacity:1"/><stop offset=".59" style="stop-color:#bd8e52;stop-opacity:1"/><stop offset=".6" style="stop-color:#be8f52;stop-opacity:1"/><stop offset=".61" style="stop-color:#be8f53;stop-opacity:1"/><stop offset=".62" style="stop-color:#be9054;stop-opacity:1"/><stop offset=".62" style="stop-color:#bf9055;stop-opacity:1"/><stop offset=".63" style="stop-color:#bf9155;stop-opacity:1"/><stop offset=".63" style="stop-color:#bf9155;stop-opacity:1"/><stop offset=".63" style="stop-color:#bf9156;stop-opacity:1"/><stop offset=".64" style="stop-color:#bf9156;stop-opacity:1"/><stop offset=".64" style="stop-color:#c09257;stop-opacity:1"/><stop offset=".64" style="stop-color:#c09257;stop-opacity:1"/><stop offset=".65" style="stop-color:#c09258;stop-opacity:1"/><stop offset=".65" style="stop-color:#c09358;stop-opacity:1"/><stop offset=".66" style="stop-color:#c09359;stop-opacity:1"/><stop offset=".66" style="stop-color:#c19459;stop-opacity:1"/><stop offset=".66" style="stop-color:#c1945a;stop-opacity:1"/><stop offset=".67" style="stop-color:#c1945a;stop-opacity:1"/><stop offset=".67" style="stop-color:#c1955b;stop-opacity:1"/><stop offset=".68" style="stop-color:#c2955b;stop-opacity:1"/><stop offset=".68" style="stop-color:#c2965c;stop-opacity:1"/><stop offset=".68" style="stop-color:#c2965c;stop-opacity:1"/><stop offset=".69" style="stop-color:#c2965d;stop-opacity:1"/><stop offset=".69" style="stop-color:#c3975e;stop-opacity:1"/><stop offset=".7" style="stop-color:#c3975e;stop-opacity:1"/><stop offset=".7" style="stop-color:#c3985f;stop-opacity:1"/><stop offset=".7" style="stop-color:#c49860;stop-opacity:1"/><stop offset=".71" style="stop-color:#c49960;stop-opacity:1"/><stop offset=".71" style="stop-color:#c49961;stop-opacity:1"/><stop offset=".71" style="stop-color:#c59a62;stop-opacity:1"/><stop offset=".72" style="stop-color:#c59a62;stop-opacity:1"/><stop offset=".72" style="stop-color:#c59b63;stop-opacity:1"/><stop offset=".73" style="stop-color:#c69b64;stop-opacity:1"/><stop offset=".73" style="stop-color:#c69c65;stop-opacity:1"/><stop offset=".73" style="stop-color:#c69d66;stop-opacity:1"/><stop offset=".74" style="stop-color:#c79d66;stop-opacity:1"/><stop offset=".74" style="stop-color:#c79e67;stop-opacity:1"/><stop offset=".75" style="stop-color:#c79e68;stop-opacity:1"/><stop offset=".75" style="stop-color:#c89f69;stop-opacity:1"/><stop offset=".75" style="stop-color:#c8a06a;stop-opacity:1"/><stop offset=".76" style="stop-color:#c9a06b;stop-opacity:1"/><stop offset=".76" style="stop-color:#c9a16c;stop-opacity:1"/><stop offset=".77" style="stop-color:#caa26d;stop-opacity:1"/><stop offset=".77" style="stop-color:#caa26e;stop-opacity:1"/><stop offset=".77" style="stop-color:#caa36f;stop-opacity:1"/><stop offset=".78" style="stop-color:#cba470;stop-opacity:1"/><stop offset=".78" style="stop-color:#cba571;stop-opacity:1"/><stop offset=".79" style="stop-color:#cca672;stop-opacity:1"/><stop offset=".79" style="stop-color:#cca674;stop-opacity:1"/><stop offset=".79" style="stop-color:#cda775;stop-opacity:1"/><stop offset=".8" style="stop-color:#cda876;stop-opacity:1"/><stop offset=".8" style="stop-color:#cea977;stop-opacity:1"/><stop offset=".8" style="stop-color:#ceaa79;stop-opacity:1"/><stop offset=".81" style="stop-color:#cfab7a;stop-opacity:1"/><stop offset=".81" style="stop-color:#d0ac7b;stop-opacity:1"/><stop offset=".82" style="stop-color:#d0ad7d;stop-opacity:1"/><stop offset=".82" style="stop-color:#d1ae7e;stop-opacity:1"/><stop offset=".82" style="stop-color:#d1af80;stop-opacity:1"/><stop offset=".83" style="stop-color:#d2b081;stop-opacity:1"/><stop offset=".83" style="stop-color:#d3b183;stop-opacity:1"/><stop offset=".84" style="stop-color:#d3b284;stop-opacity:1"/><stop offset=".84" style="stop-color:#d4b386;stop-opacity:1"/><stop offset=".84" style="stop-color:#d5b488;stop-opacity:1"/><stop offset=".85" style="stop-color:#d5b589;stop-opacity:1"/><stop offset=".85" style="stop-color:#d6b68b;stop-opacity:1"/><stop offset=".86" style="stop-color:#d7b88d;stop-opacity:1"/><stop offset=".86" style="stop-color:#d8b98f;stop-opacity:1"/><stop offset=".86" style="stop-color:#d8ba91;stop-opacity:1"/><stop offset=".87" style="stop-color:#d9bb93;stop-opacity:1"/><stop offset=".87" style="stop-color:#dabd95;stop-opacity:1"/><stop offset=".88" style="stop-color:#dbbe97;stop-opacity:1"/><stop offset=".88" style="stop-color:#dbbf99;stop-opacity:1"/><stop offset=".88" style="stop-color:#dcc19b;stop-opacity:1"/><stop offset=".89" style="stop-color:#ddc29d;stop-opacity:1"/><stop offset=".89" style="stop-color:#dec4a0;stop-opacity:1"/><stop offset=".89" style="stop-color:#dfc5a2;stop-opacity:1"/><stop offset=".9" style="stop-color:#e0c7a4;stop-opacity:1"/><stop offset=".9" style="stop-color:#e1c8a7;stop-opacity:1"/><stop offset=".91" style="stop-color:#e2caa9;stop-opacity:1"/><stop offset=".91" style="stop-color:#e3ccac;stop-opacity:1"/><stop offset=".91" style="stop-color:#e4cdaf;stop-opacity:1"/><stop offset=".92" style="stop-color:#e5cfb1;stop-opacity:1"/><stop offset=".92" style="stop-color:#e6d1b4;stop-opacity:1"/><stop offset=".93" style="stop-color:#e7d3b7;stop-opacity:1"/><stop offset=".93" style="stop-color:#e8d5ba;stop-opacity:1"/><stop offset=".93" style="stop-color:#e9d7bd;stop-opacity:1"/><stop offset=".94" style="stop-color:#ead9c0;stop-opacity:1"/><stop offset=".94" style="stop-color:#ebdbc3;stop-opacity:1"/><stop offset=".95" style="stop-color:#ecddc7;stop-opacity:1"/><stop offset=".95" style="stop-color:#eedfca;stop-opacity:1"/><stop offset=".95" style="stop-color:#efe1ce;stop-opacity:1"/><stop offset=".96" style="stop-color:#f0e3d1;stop-opacity:1"/><stop offset=".96" style="stop-color:#f1e6d5;stop-opacity:1"/><stop offset=".96" style="stop-color:#f3e8d9;stop-opacity:1"/><stop offset=".97" style="stop-color:#f4eadc;stop-opacity:1"/><stop offset=".97" style="stop-color:#f5ede0;stop-opacity:1"/><stop offset=".98" style="stop-color:#f7efe4;stop-opacity:1"/><stop offset=".98" style="stop-color:#f8f2e9;stop-opacity:1"/><stop offset=".98" style="stop-color:#f9f4ed;stop-opacity:1"/><stop offset=".99" style="stop-color:#fbf7f1;stop-opacity:1"/><stop offset=".99" style="stop-color:#fcfaf6;stop-opacity:1"/><stop offset="1" style="stop-color:#fefdfb;stop-opacity:1"/><stop offset="1" style="stop-color:white;stop-opacity:1"/></linearGradient><linearGradient id="d" x1="0" y1="0" x2="1" y2="0" gradientUnits="userSpaceOnUse" gradientTransform="matrix(1 0 0 -1 0 -.018)"><stop offset="0" style="stop-color:#3966ba;stop-opacity:1"/><stop offset=".25" style="stop-color:#3966ba;stop-opacity:1"/><stop offset=".31" style="stop-color:#3966ba;stop-opacity:1"/><stop offset=".38" style="stop-color:#3a66ba;stop-opacity:1"/><stop offset=".41" style="stop-color:#3a67ba;stop-opacity:1"/><stop offset=".42" style="stop-color:#3b67ba;stop-opacity:1"/><stop offset=".44" style="stop-color:#3b67bb;stop-opacity:1"/><stop offset=".45" style="stop-color:#3c67bb;stop-opacity:1"/><stop offset=".47" style="stop-color:#3c68bb;stop-opacity:1"/><stop offset=".48" style="stop-color:#3d68bb;stop-opacity:1"/><stop offset=".49" style="stop-color:#3e68bb;stop-opacity:1"/><stop offset=".5" style="stop-color:#3e69bc;stop-opacity:1"/><stop offset=".51" style="stop-color:#3e69bc;stop-opacity:1"/><stop offset=".52" style="stop-color:#3f69bc;stop-opacity:1"/><stop offset=".52" style="stop-color:#3f69bc;stop-opacity:1"/><stop offset=".53" style="stop-color:#406abc;stop-opacity:1"/><stop offset=".54" style="stop-color:#406abc;stop-opacity:1"/><stop offset=".55" style="stop-color:#416abd;stop-opacity:1"/><stop offset=".55" style="stop-color:#416bbd;stop-opacity:1"/><stop offset=".56" style="stop-color:#426bbd;stop-opacity:1"/><stop offset=".57" style="stop-color:#436bbd;stop-opacity:1"/><stop offset=".58" style="stop-color:#436cbd;stop-opacity:1"/><stop offset=".59" style="stop-color:#446cbe;stop-opacity:1"/><stop offset=".59" style="stop-color:#456dbe;stop-opacity:1"/><stop offset=".59" style="stop-color:#456dbe;stop-opacity:1"/><stop offset=".6" style="stop-color:#466dbe;stop-opacity:1"/><stop offset=".6" style="stop-color:#466dbe;stop-opacity:1"/><stop offset=".61" style="stop-color:#476ebf;stop-opacity:1"/><stop offset=".61" style="stop-color:#476ebf;stop-opacity:1"/><stop offset=".61" style="stop-color:#486ebf;stop-opacity:1"/><stop offset=".62" style="stop-color:#486ebf;stop-opacity:1"/><stop offset=".62" style="stop-color:#496fbf;stop-opacity:1"/><stop offset=".63" style="stop-color:#496fc0;stop-opacity:1"/><stop offset=".63" style="stop-color:#4a6fc0;stop-opacity:1"/><stop offset=".63" style="stop-color:#4a70c0;stop-opacity:1"/><stop offset=".64" style="stop-color:#4b70c0;stop-opacity:1"/><stop offset=".64" style="stop-color:#4b70c0;stop-opacity:1"/><stop offset=".64" style="stop-color:#4c71c0;stop-opacity:1"/><stop offset=".65" style="stop-color:#4c71c1;stop-opacity:1"/><stop offset=".65" style="stop-color:#4d71c1;stop-opacity:1"/><stop offset=".66" style="stop-color:#4e72c1;stop-opacity:1"/><stop offset=".66" style="stop-color:#4e72c1;stop-opacity:1"/><stop offset=".66" style="stop-color:#4f72c2;stop-opacity:1"/><stop offset=".67" style="stop-color:#5073c2;stop-opacity:1"/><stop offset=".67" style="stop-color:#5073c2;stop-opacity:1"/><stop offset=".68" style="stop-color:#5174c2;stop-opacity:1"/><stop offset=".68" style="stop-color:#5274c3;stop-opacity:1"/><stop offset=".68" style="stop-color:#5375c3;stop-opacity:1"/><stop offset=".69" style="stop-color:#5375c3;stop-opacity:1"/><stop offset=".69" style="stop-color:#5476c3;stop-opacity:1"/><stop offset=".7" style="stop-color:#5576c4;stop-opacity:1"/><stop offset=".7" style="stop-color:#5677c4;stop-opacity:1"/><stop offset=".7" style="stop-color:#5777c4;stop-opacity:1"/><stop offset=".71" style="stop-color:#5778c5;stop-opacity:1"/><stop offset=".71" style="stop-color:#5878c5;stop-opacity:1"/><stop offset=".71" style="stop-color:#5979c5;stop-opacity:1"/><stop offset=".72" style="stop-color:#5a79c6;stop-opacity:1"/><stop offset=".72" style="stop-color:#5b7ac6;stop-opacity:1"/><stop offset=".73" style="stop-color:#5c7bc6;stop-opacity:1"/><stop offset=".73" style="stop-color:#5d7bc7;stop-opacity:1"/><stop offset=".73" style="stop-color:#5e7cc7;stop-opacity:1"/><stop offset=".74" style="stop-color:#5f7cc7;stop-opacity:1"/><stop offset=".74" style="stop-color:#607dc8;stop-opacity:1"/><stop offset=".75" style="stop-color:#617ec8;stop-opacity:1"/><stop offset=".75" style="stop-color:#627fc8;stop-opacity:1"/><stop offset=".75" style="stop-color:#647fc9;stop-opacity:1"/><stop offset=".76" style="stop-color:#6580c9;stop-opacity:1"/><stop offset=".76" style="stop-color:#6681ca;stop-opacity:1"/><stop offset=".77" style="stop-color:#6782ca;stop-opacity:1"/><stop offset=".77" style="stop-color:#6883cb;stop-opacity:1"/><stop offset=".77" style="stop-color:#6a83cb;stop-opacity:1"/><stop offset=".78" style="stop-color:#6b84cb;stop-opacity:1"/><stop offset=".78" style="stop-color:#6c85cc;stop-opacity:1"/><stop offset=".79" style="stop-color:#6e86cc;stop-opacity:1"/><stop offset=".79" style="stop-color:#6f87cd;stop-opacity:1"/><stop offset=".79" style="stop-color:#7088cd;stop-opacity:1"/><stop offset=".8" style="stop-color:#7289ce;stop-opacity:1"/><stop offset=".8" style="stop-color:#738ace;stop-opacity:1"/><stop offset=".8" style="stop-color:#758bcf;stop-opacity:1"/><stop offset=".81" style="stop-color:#768ccf;stop-opacity:1"/><stop offset=".81" style="stop-color:#788dd0;stop-opacity:1"/><stop offset=".82" style="stop-color:#7a8fd1;stop-opacity:1"/><stop offset=".82" style="stop-color:#7b90d1;stop-opacity:1"/><stop offset=".82" style="stop-color:#7d91d2;stop-opacity:1"/><stop offset=".83" style="stop-color:#7f92d2;stop-opacity:1"/><stop offset=".83" style="stop-color:#8194d3;stop-opacity:1"/><stop offset=".84" style="stop-color:#8295d4;stop-opacity:1"/><stop offset=".84" style="stop-color:#8496d4;stop-opacity:1"/><stop offset=".84" style="stop-color:#8698d5;stop-opacity:1"/><stop offset=".85" style="stop-color:#8899d6;stop-opacity:1"/><stop offset=".85" style="stop-color:#8a9bd6;stop-opacity:1"/><stop offset=".86" style="stop-color:#8c9cd7;stop-opacity:1"/><stop offset=".86" style="stop-color:#8e9ed8;stop-opacity:1"/><stop offset=".86" style="stop-color:#909fd9;stop-opacity:1"/><stop offset=".87" style="stop-color:#92a1d9;stop-opacity:1"/><stop offset=".87" style="stop-color:#95a3da;stop-opacity:1"/><stop offset=".88" style="stop-color:#97a4db;stop-opacity:1"/><stop offset=".88" style="stop-color:#99a6dc;stop-opacity:1"/><stop offset=".88" style="stop-color:#9ca8dd;stop-opacity:1"/><stop offset=".89" style="stop-color:#9eaadd;stop-opacity:1"/><stop offset=".89" style="stop-color:#a0acde;stop-opacity:1"/><stop offset=".89" style="stop-color:#a3aedf;stop-opacity:1"/><stop offset=".9" style="stop-color:#a6b0e0;stop-opacity:1"/><stop offset=".9" style="stop-color:#a8b2e1;stop-opacity:1"/><stop offset=".91" style="stop-color:#abb4e2;stop-opacity:1"/><stop offset=".91" style="stop-color:#aeb7e3;stop-opacity:1"/><stop offset=".91" style="stop-color:#b0b9e4;stop-opacity:1"/><stop offset=".92" style="stop-color:#b3bbe5;stop-opacity:1"/><stop offset=".92" style="stop-color:#b6bee6;stop-opacity:1"/><stop offset=".93" style="stop-color:#b9c0e7;stop-opacity:1"/><stop offset=".93" style="stop-color:#bcc3e8;stop-opacity:1"/><stop offset=".93" style="stop-color:#bfc6e9;stop-opacity:1"/><stop offset=".94" style="stop-color:#c2c8ea;stop-opacity:1"/><stop offset=".94" style="stop-color:#c6cbeb;stop-opacity:1"/><stop offset=".95" style="stop-color:#c9ceec;stop-opacity:1"/><stop offset=".95" style="stop-color:#ccd1ee;stop-opacity:1"/><stop offset=".95" style="stop-color:#d0d4ef;stop-opacity:1"/><stop offset=".96" style="stop-color:#d3d7f0;stop-opacity:1"/><stop offset=".96" style="stop-color:#d7daf1;stop-opacity:1"/><stop offset=".96" style="stop-color:#dbddf3;stop-opacity:1"/><stop offset=".97" style="stop-color:#dee1f4;stop-opacity:1"/><stop offset=".97" style="stop-color:#e2e4f5;stop-opacity:1"/><stop offset=".98" style="stop-color:#e6e8f7;stop-opacity:1"/><stop offset=".98" style="stop-color:#eaecf8;stop-opacity:1"/><stop offset=".98" style="stop-color:#eeeff9;stop-opacity:1"/><stop offset=".99" style="stop-color:#f2f3fb;stop-opacity:1"/><stop offset=".99" style="stop-color:#f7f7fc;stop-opacity:1"/><stop offset="1" style="stop-color:#fbfbfe;stop-opacity:1"/><stop offset="1" style="stop-color:white;stop-opacity:1"/></linearGradient></defs></svg>