<?xml version="1.0" encoding="UTF-8" standalone="no"?>
<!DOCTYPE svg PUBLIC "-//W3C//DTD SVG 1.1//EN" "http://www.w3.org/Graphics/SVG/1.1/DTD/svg11.dtd">
<svg width="100%" height="100%" viewBox="0 0 228 63" version="1.1" xmlns="http://www.w3.org/2000/svg" xmlns:xlink="http://www.w3.org/1999/xlink" xml:space="preserve" xmlns:serif="http://www.serif.com/" style="fill-rule:evenodd;clip-rule:evenodd;">
    <g transform="matrix(1,0,0,1,-15,-9)">
        <g transform="matrix(45.2015,0,0,-41.7594,17.7286,33.1309)">
            <clipPath id="_clip1">
                <path d="M0.455,-0.185L0.455,-0.185L0.334,0.085L0.078,0.085L0,0.263L0.403,0.263L0.469,0.114L0.567,-0.107L0.624,-0.107L0.852,0.427L1,0.427L0.771,-0.107L0.771,-0.107L0.759,-0.134L0.737,-0.185L0.737,-0.185L0.638,-0.414L0.572,-0.427L0.455,-0.185Z" clip-rule="nonzero"/>
            </clipPath>
            <g clip-path="url(#_clip1)">
                <rect x="0" y="-0.427" width="1" height="0.855" style="fill:url(#_Linear2);"/>
            </g>
        </g>
        <g transform="matrix(45.2019,0,0,-41.7598,18.0134,38.6648)">
            <clipPath id="_clip3">
                <path d="M0.491,-0.356L0.455,-0.274L0.455,-0.274L0.334,-0.004L0.078,-0.004L0,0.174L0.403,0.174L0.469,0.025L0.567,-0.196L0.623,-0.196L0.852,0.338L1,0.338L0.771,-0.196L0.771,-0.196L0.759,-0.224L0.737,-0.274L0.737,-0.274L0.701,-0.356L0.491,-0.356Z" clip-rule="nonzero"/>
            </clipPath>
            <g clip-path="url(#_clip3)">
                <rect x="0" y="-0.356" width="1" height="0.694" style="fill:url(#_Linear4);"/>
            </g>
        </g>
        <g transform="matrix(1,0,0,1,0,-40.7666)">
            <path d="M72.852,56.239L79.289,56.239L79.258,56.458C78.758,56.513 78.391,56.591 78.164,56.692C77.934,56.786 77.734,56.938 77.57,57.146C77.414,57.345 77.312,57.563 77.273,57.802C77.23,57.981 77.211,58.138 77.211,58.271C77.219,58.396 77.266,58.677 77.352,59.114L78.695,66.974L82.852,60.067C83.422,59.099 83.758,58.396 83.852,57.958C83.891,57.708 83.891,57.481 83.852,57.271C83.82,57.052 83.758,56.888 83.664,56.771C83.547,56.657 83.418,56.579 83.273,56.536C83.125,56.485 82.934,56.458 82.695,56.458L82.727,56.239L87.07,56.239L87.039,56.458C86.664,56.489 86.328,56.579 86.039,56.724C85.746,56.872 85.453,57.091 85.164,57.38C84.953,57.591 84.727,57.876 84.477,58.239C84.227,58.595 83.871,59.153 83.414,59.911L77.492,69.567L77.086,69.567L75.164,59.583C74.922,58.282 74.684,57.454 74.445,57.099C74.297,56.88 74.09,56.72 73.82,56.614C73.559,56.513 73.227,56.458 72.82,56.458L72.852,56.239Z" style="fill:rgb(191,151,79);fill-rule:nonzero;"/>
        </g>
        <g transform="matrix(1,0,0,1,0,-40.7656)">
            <path d="M88.141,62.988C88.359,61.895 88.789,60.887 89.438,59.957C90.094,59.02 90.938,58.203 91.969,57.504C92.75,56.996 93.551,56.605 94.375,56.332C95.207,56.051 96.02,55.91 96.812,55.91C97.812,55.91 98.734,56.129 99.578,56.566C100.43,57.004 101.133,57.625 101.688,58.426C102.57,59.73 102.852,61.207 102.531,62.863C102.363,63.699 102.051,64.504 101.594,65.285C101.133,66.059 100.555,66.762 99.859,67.395C99.004,68.187 98.051,68.801 97,69.238C95.957,69.676 94.914,69.895 93.875,69.895C92.832,69.895 91.879,69.684 91.016,69.27C90.16,68.844 89.469,68.246 88.938,67.473C88.52,66.859 88.238,66.168 88.094,65.395C87.957,64.625 87.973,63.824 88.141,62.988ZM90.469,63.145C90.094,65.031 90.297,66.621 91.078,67.91C91.422,68.496 91.828,68.922 92.297,69.191C92.766,69.453 93.336,69.582 94.016,69.582C94.691,69.582 95.316,69.453 95.891,69.191C96.461,68.934 97.039,68.504 97.625,67.91C98.914,66.609 99.75,65.004 100.125,63.098C100.32,62.059 100.367,61.066 100.266,60.129C100.172,59.191 99.93,58.402 99.547,57.754C99.234,57.215 98.848,56.824 98.391,56.582C97.93,56.344 97.352,56.223 96.656,56.223C95.969,56.223 95.344,56.344 94.781,56.582C94.227,56.824 93.68,57.215 93.141,57.754C92.504,58.402 91.953,59.191 91.484,60.129C91.016,61.066 90.676,62.074 90.469,63.145Z" style="fill:rgb(191,151,79);fill-rule:nonzero;"/>
        </g>
        <g transform="matrix(1,0,0,1,0,-40.7666)">
            <path d="M107.594,69.567L107.641,69.349C108.016,69.329 108.328,69.278 108.578,69.192C108.836,69.099 109.078,68.958 109.297,68.771C109.535,68.563 109.723,68.302 109.859,67.989C109.992,67.669 110.129,67.173 110.266,66.505L110.641,64.599C110.691,64.329 110.695,64.028 110.656,63.692C110.613,63.31 110.457,62.825 110.188,62.239L108.406,58.442L108.078,57.755C107.836,57.267 107.582,56.927 107.312,56.739C107.164,56.646 107.016,56.579 106.859,56.536C106.703,56.497 106.484,56.47 106.203,56.458L106.234,56.239L112.594,56.239L112.562,56.458C112.008,56.489 111.656,56.544 111.5,56.614C111.102,56.771 110.863,57.052 110.781,57.458C110.75,57.606 110.754,57.778 110.797,57.974C110.848,58.161 110.938,58.396 111.062,58.677L112.891,62.817L115.859,59.286L116.188,58.88C116.5,58.505 116.691,58.138 116.766,57.771C116.848,57.356 116.781,57.032 116.562,56.802C116.344,56.575 115.988,56.458 115.5,56.458L115.531,56.239L120.031,56.239L120,56.458C119.645,56.501 119.367,56.56 119.172,56.63C118.973,56.704 118.766,56.829 118.547,57.005C118.023,57.423 117.41,58.044 116.703,58.864L113.797,62.255C113.461,62.661 113.25,62.958 113.156,63.146C113.062,63.333 112.969,63.657 112.875,64.114L112.406,66.505C112.258,67.204 112.191,67.704 112.203,68.005C112.211,68.31 112.301,68.563 112.469,68.771C112.75,69.157 113.223,69.349 113.891,69.349L113.844,69.567L107.594,69.567Z" style="fill:rgb(191,151,79);fill-rule:nonzero;"/>
        </g>
        <g transform="matrix(1,0,0,1,0,-40.7666)">
            <path d="M132.945,69.567L126.523,69.567L126.57,69.349C127.164,69.298 127.59,69.2 127.852,69.052C128.289,68.794 128.555,68.438 128.648,67.989C128.699,67.731 128.68,67.376 128.586,66.927L128.508,66.505L128.023,64.208L123.727,64.208L122.961,65.552L122.586,66.161C122.148,66.88 121.891,67.442 121.82,67.849C121.766,68.091 121.773,68.313 121.836,68.521C121.906,68.731 122.023,68.903 122.18,69.036C122.398,69.204 122.703,69.31 123.102,69.349L123.055,69.567L118.664,69.567L118.711,69.349C119.062,69.329 119.387,69.247 119.68,69.099C119.969,68.942 120.266,68.7 120.57,68.364C120.828,68.095 121.102,67.751 121.383,67.333C121.672,66.919 122.062,66.286 122.555,65.442L127.945,56.239L128.492,56.239L130.727,66.505C130.891,67.278 131.031,67.829 131.148,68.161C131.273,68.497 131.43,68.747 131.617,68.911C131.75,69.028 131.914,69.114 132.102,69.177C132.297,69.239 132.594,69.298 132.992,69.349L132.945,69.567ZM127.945,63.802L126.898,58.739L123.961,63.802L127.945,63.802Z" style="fill:rgb(191,151,79);fill-rule:nonzero;"/>
        </g>
        <g transform="matrix(1,0,0,1,0,-40.7806)">
            <path d="M149.852,56.253L149.148,60.503L148.898,60.519C148.742,59.074 148.383,57.999 147.82,57.3C147.258,56.593 146.48,56.238 145.492,56.238C144.711,56.238 144.008,56.394 143.383,56.706C142.766,57.019 142.148,57.531 141.523,58.238C140.262,59.699 139.445,61.359 139.07,63.222C138.891,64.12 138.84,64.964 138.914,65.753C138.996,66.546 139.203,67.245 139.539,67.847C140.184,69.015 141.137,69.597 142.398,69.597C142.887,69.597 143.371,69.495 143.852,69.285C144.328,69.077 144.746,68.792 145.102,68.425C145.578,67.917 145.887,67.316 146.023,66.628C146.156,65.984 146.074,65.519 145.773,65.238C145.48,64.949 144.934,64.8 144.133,64.8L144.18,64.566L150.414,64.566L150.367,64.8C149.781,64.855 149.359,64.933 149.102,65.035C148.852,65.14 148.652,65.324 148.508,65.581C148.32,65.874 148.141,66.449 147.977,67.3C147.922,67.531 147.859,67.894 147.789,68.394L147.773,68.613C147.543,68.519 147.371,68.472 147.258,68.472C147.109,68.472 146.914,68.55 146.664,68.706C146.016,69.093 145.297,69.39 144.508,69.597C143.727,69.804 142.918,69.91 142.086,69.91C140.938,69.91 139.945,69.714 139.102,69.331C138.258,68.937 137.617,68.374 137.18,67.644C136.855,67.105 136.652,66.456 136.57,65.706C136.484,64.949 136.531,64.14 136.711,63.285C136.93,62.128 137.344,61.05 137.961,60.05C138.586,59.042 139.34,58.214 140.227,57.566C140.945,57.035 141.734,56.628 142.602,56.347C143.465,56.058 144.344,55.91 145.242,55.91C145.762,55.91 146.234,55.964 146.664,56.066C147.09,56.16 147.531,56.316 147.992,56.535L148.508,56.8C148.641,56.855 148.766,56.878 148.883,56.878C149.141,56.878 149.383,56.671 149.602,56.253L149.852,56.253Z" style="fill:rgb(191,151,79);fill-rule:nonzero;"/>
        </g>
        <g transform="matrix(1,0,0,1,0,-40.7666)">
            <path d="M164.953,56.239L164.484,59.458L164.266,59.474C164.285,58.923 164.234,58.47 164.109,58.114C163.984,57.751 163.766,57.435 163.453,57.161C163.18,56.935 162.848,56.771 162.453,56.677C162.055,56.583 161.516,56.536 160.828,56.536L158.594,56.536L157.438,62.396L158.016,62.396C158.609,62.396 159.062,62.36 159.375,62.286C159.695,62.204 159.969,62.063 160.188,61.864C160.406,61.677 160.582,61.454 160.719,61.192C160.863,60.935 161.016,60.552 161.172,60.052L161.391,60.067L160.328,65.302L160.094,65.302C160.133,64.802 160.129,64.403 160.078,64.099C160.023,63.786 159.914,63.521 159.75,63.302C159.602,63.095 159.383,62.942 159.094,62.849C158.801,62.755 158.41,62.708 157.922,62.708L157.375,62.708L156.922,64.942C156.754,65.829 156.648,66.474 156.609,66.88C156.578,67.286 156.598,67.63 156.672,67.911C156.797,68.38 157.062,68.724 157.469,68.942C157.883,69.161 158.461,69.271 159.203,69.271C159.984,69.271 160.656,69.173 161.219,68.974C161.789,68.767 162.285,68.454 162.703,68.036C162.984,67.767 163.234,67.454 163.453,67.099C163.672,66.735 163.898,66.263 164.141,65.677L164.359,65.677L163.469,69.567L151.828,69.567L151.875,69.349C152.238,69.329 152.547,69.278 152.797,69.192C153.055,69.099 153.289,68.958 153.5,68.771C153.75,68.563 153.941,68.298 154.078,67.974C154.211,67.653 154.348,67.161 154.484,66.505L155.906,59.302C156.031,58.638 156.086,58.142 156.078,57.817C156.078,57.497 155.988,57.231 155.812,57.021C155.676,56.833 155.5,56.7 155.281,56.614C155.07,56.532 154.785,56.481 154.422,56.458L154.453,56.239L164.953,56.239Z" style="fill:rgb(191,151,79);fill-rule:nonzero;"/>
        </g>
        <g transform="matrix(1,0,0,1,0,-40.7506)">
            <path d="M166.543,69.52L167.371,65.489L167.605,65.489C167.676,66.52 167.844,67.333 168.105,67.926C168.594,69.02 169.375,69.567 170.449,69.567C171.199,69.567 171.863,69.317 172.449,68.817C173.043,68.309 173.41,67.672 173.559,66.911C173.629,66.579 173.645,66.239 173.605,65.895C173.562,65.544 173.473,65.247 173.34,65.005C173.203,64.747 172.984,64.501 172.684,64.27C172.391,64.032 171.934,63.735 171.309,63.38C170.746,63.067 170.316,62.809 170.027,62.598C169.746,62.38 169.527,62.157 169.371,61.926C168.934,61.325 168.801,60.579 168.98,59.692C169.082,59.153 169.293,58.63 169.605,58.13C169.926,57.63 170.312,57.204 170.762,56.848C171.594,56.215 172.48,55.895 173.418,55.895C173.73,55.895 174.004,55.926 174.246,55.989C174.496,56.044 174.816,56.161 175.215,56.348C175.516,56.473 175.719,56.559 175.824,56.598C175.938,56.63 176.043,56.645 176.137,56.645C176.363,56.645 176.547,56.481 176.684,56.145L176.918,56.145L176.215,60.036L175.996,60.036C175.941,59.411 175.879,58.938 175.809,58.614C175.746,58.282 175.66,57.973 175.559,57.692C175.328,57.184 175.047,56.809 174.715,56.567C174.379,56.329 173.965,56.208 173.465,56.208C172.734,56.208 172.105,56.454 171.574,56.942C171.375,57.141 171.191,57.38 171.027,57.661C170.871,57.934 170.766,58.204 170.715,58.473C170.496,59.567 171.027,60.442 172.309,61.098L173.543,61.77C174.512,62.27 175.168,62.825 175.512,63.426C175.918,64.106 176.031,64.891 175.855,65.786C175.73,66.391 175.496,66.965 175.152,67.505C174.652,68.266 174.02,68.856 173.262,69.27C172.512,69.684 171.676,69.895 170.762,69.895C169.918,69.895 169.141,69.727 168.434,69.395C168.059,69.219 167.832,69.122 167.762,69.098C167.688,69.067 167.605,69.051 167.512,69.051C167.199,69.051 166.953,69.208 166.777,69.52L166.543,69.52Z" style="fill:rgb(191,151,79);fill-rule:nonzero;"/>
        </g>
        <g transform="matrix(1,0,0.179398,-0.908866,-8.78602,44.5117)">
            <path d="M75.848,31.444C76.262,31.444 76.612,31.388 76.893,31.28C77.178,31.173 77.421,30.997 77.615,30.76C77.926,30.378 78.333,29.484 78.844,28.07L82.755,17.286L83.169,17.286L87.196,27.722C87.51,28.538 87.758,29.14 87.937,29.531C88.117,29.922 88.289,30.227 88.456,30.451C88.696,30.769 88.95,31.005 89.216,31.16C89.481,31.315 89.792,31.409 90.153,31.444L90.156,31.689L85.781,31.689L85.782,31.444C86.032,31.444 86.232,31.418 86.393,31.371C86.55,31.319 86.694,31.237 86.825,31.117C86.953,30.992 87.059,30.812 87.136,30.58C87.217,30.348 87.258,30.098 87.255,29.832C87.255,29.351 87.059,28.59 86.666,27.541L83.845,20.093L80.939,28.586C80.772,29.058 80.675,29.364 80.641,29.505C80.609,29.643 80.595,29.806 80.594,29.987C80.594,30.249 80.656,30.49 80.78,30.713C80.905,30.932 81.071,31.096 81.27,31.203C81.489,31.315 81.841,31.396 82.333,31.444L82.332,31.689L75.847,31.689L75.848,31.444Z" style="fill:none;fill-rule:nonzero;stroke:rgb(194,151,79);stroke-width:0.89px;"/>
        </g>
        <g transform="matrix(1,0,0.179398,-0.908866,-8.7844,44.5035)">
            <path d="M92.912,21.782C93.202,20.948 93.621,20.204 94.164,19.551C94.849,18.713 95.669,18.064 96.618,17.608C97.571,17.148 98.565,16.921 99.608,16.921C100.659,16.921 101.671,17.157 102.637,17.63C103.604,18.098 104.442,18.764 105.147,19.624C105.723,20.312 106.163,21.077 106.462,21.915C106.766,22.749 106.918,23.621 106.917,24.519C106.915,26.316 106.339,27.915 105.188,29.324C104.482,30.188 103.655,30.859 102.71,31.332C101.769,31.809 100.793,32.045 99.786,32.045C98.993,32.045 98.206,31.899 97.424,31.598C96.646,31.297 95.918,30.872 95.244,30.317C94.34,29.565 93.651,28.68 93.18,27.67C92.708,26.664 92.476,25.564 92.473,24.382C92.474,23.484 92.618,22.615 92.912,21.782ZM95.276,27.485C95.555,28.499 95.956,29.355 96.471,30.051C96.906,30.635 97.377,31.056 97.881,31.319C98.388,31.581 98.99,31.71 99.686,31.71C100.385,31.71 100.991,31.577 101.507,31.314C102.023,31.048 102.488,30.631 102.909,30.051C103.426,29.346 103.826,28.491 104.112,27.481C104.399,26.471 104.54,25.4 104.541,24.266C104.539,22.207 104.022,20.471 102.986,19.061C102.513,18.429 102.017,17.974 101.498,17.69C100.977,17.411 100.374,17.269 99.686,17.269C99.003,17.269 98.403,17.411 97.884,17.694C97.363,17.982 96.867,18.438 96.404,19.061C95.367,20.462 94.851,22.186 94.852,24.227C94.851,25.388 94.992,26.475 95.276,27.485Z" style="fill:none;fill-rule:nonzero;stroke:rgb(194,151,79);stroke-width:0.89px;"/>
        </g>
        <g transform="matrix(1,0,0.179398,-0.908866,-8.78691,44.5163)">
            <path d="M119.521,17.291L119.524,17.536C118.856,17.536 118.339,17.738 117.981,18.147C117.771,18.379 117.631,18.658 117.561,18.985C117.494,19.311 117.46,19.853 117.458,20.605L117.459,23.188C117.458,23.674 117.49,24.018 117.547,24.224C117.608,24.426 117.769,24.748 118.039,25.182L120.279,28.853C120.822,29.747 121.318,30.417 121.761,30.868C121.95,31.053 122.138,31.182 122.323,31.264C122.503,31.346 122.766,31.406 123.106,31.449L123.11,31.689L118.59,31.689L118.59,31.449C119.075,31.449 119.449,31.324 119.719,31.079C119.986,30.834 120.122,30.486 120.121,30.035C120.121,29.644 120.002,29.24 119.759,28.831L119.504,28.401L117.221,24.581L114.559,29.055C114.378,29.364 114.246,29.622 114.163,29.824C114.08,30.026 114.039,30.211 114.041,30.374C114.04,30.817 114.223,31.122 114.592,31.29C114.739,31.363 115.089,31.414 115.633,31.449L115.633,31.689L109.227,31.689L109.227,31.449C109.518,31.436 109.75,31.406 109.914,31.363C110.078,31.324 110.24,31.247 110.403,31.144C110.724,30.946 111.055,30.581 111.385,30.048L111.838,29.308L114.383,25.204C114.772,24.581 115.026,24.056 115.151,23.644C115.262,23.283 115.317,22.956 115.315,22.664L115.305,20.605C115.306,19.883 115.269,19.346 115.198,19.002C115.127,18.658 114.991,18.374 114.785,18.147C114.603,17.945 114.395,17.794 114.158,17.704C113.92,17.614 113.618,17.558 113.243,17.536L113.243,17.291L119.521,17.291Z" style="fill:none;fill-rule:nonzero;stroke:rgb(194,151,79);stroke-width:0.89px;"/>
        </g>
        <g transform="matrix(1,0,0.179398,-0.908866,-8.78602,44.5117)">
            <path d="M138.641,17.531C138.234,17.579 137.93,17.639 137.727,17.703C137.524,17.772 137.346,17.867 137.187,17.995C136.966,18.18 136.757,18.451 136.568,18.808C136.379,19.165 136.124,19.762 135.801,20.6L131.527,31.689L130.968,31.689L127.37,21.739C127.045,20.832 126.78,20.153 126.58,19.697C126.38,19.246 126.178,18.872 125.968,18.584C125.719,18.228 125.462,17.965 125.201,17.806C124.937,17.643 124.633,17.553 124.285,17.531L124.286,17.286L128.689,17.286L128.688,17.531C128.291,17.566 127.962,17.677 127.706,17.867C127.524,18.008 127.378,18.193 127.271,18.417C127.161,18.64 127.109,18.885 127.106,19.143C127.108,19.586 127.257,20.196 127.548,20.97L127.794,21.623L128.306,23.08L132.63,23.08L133.572,20.591L133.738,20.149C133.923,19.663 134.015,19.276 134.012,18.988C134.014,18.503 133.813,18.12 133.404,17.849C133.174,17.695 132.772,17.587 132.188,17.531L132.189,17.286L138.642,17.286L138.641,17.531ZM128.462,23.514L130.408,28.977L132.47,23.514L128.462,23.514Z" style="fill:none;fill-rule:nonzero;stroke:rgb(194,151,79);stroke-width:0.89px;"/>
        </g>
        <g transform="matrix(1,0,0.179398,-0.908866,-8.7844,44.5035)">
            <path d="M152.671,31.68C152.535,31.22 152.338,30.992 152.072,30.992C151.955,30.992 151.825,31.022 151.68,31.087L151.102,31.37C150.598,31.611 150.122,31.783 149.673,31.89C149.225,31.993 148.739,32.045 148.215,32.045C147.309,32.045 146.45,31.89 145.638,31.585C144.827,31.271 144.108,30.833 143.488,30.266C142.727,29.561 142.138,28.667 141.719,27.584C141.3,26.501 141.092,25.332 141.091,24.072C141.091,23.157 141.207,22.293 141.439,21.476C141.671,20.664 142.005,19.959 142.435,19.366C143.014,18.58 143.763,17.974 144.69,17.552C145.617,17.131 146.655,16.921 147.811,16.921C148.647,16.921 149.444,17.032 150.197,17.256C150.949,17.484 151.613,17.806 152.182,18.227C152.403,18.39 152.588,18.472 152.732,18.472C152.849,18.472 153.034,18.421 153.283,18.322L153.262,18.567C153.237,19.1 153.225,19.495 153.222,19.749C153.225,20.668 153.287,21.283 153.411,21.592C153.52,21.876 153.696,22.074 153.925,22.19C154.158,22.306 154.564,22.392 155.14,22.448L155.139,22.693L148.87,22.693L148.871,22.448C149.675,22.448 150.254,22.293 150.606,21.984C150.955,21.674 151.131,21.171 151.131,20.475C151.129,19.723 150.937,19.074 150.551,18.524C150.271,18.128 149.908,17.819 149.472,17.595C149.031,17.372 148.564,17.256 148.068,17.256C146.802,17.256 145.731,17.892 144.852,19.156C144.403,19.809 144.056,20.565 143.821,21.421C143.585,22.276 143.465,23.183 143.468,24.145C143.465,26.165 143.96,27.958 144.941,29.526C145.424,30.291 145.946,30.846 146.506,31.185C147.066,31.529 147.739,31.697 148.516,31.697C149.52,31.697 150.373,31.319 151.08,30.554C151.787,29.793 152.371,28.628 152.823,27.068L153.046,27.089L152.929,31.68L152.671,31.68Z" style="fill:none;fill-rule:nonzero;stroke:rgb(194,151,79);stroke-width:0.89px;"/>
        </g>
        <g transform="matrix(1,0,0.179398,-0.908866,-8.78602,44.5117)">
            <path d="M157.461,31.689L157.461,31.444C157.84,31.422 158.147,31.366 158.378,31.276C158.61,31.182 158.816,31.035 158.993,30.833C159.194,30.606 159.335,30.322 159.409,29.974C159.483,29.626 159.524,29.093 159.524,28.375L159.524,20.6C159.524,19.882 159.487,19.349 159.408,19.001C159.334,18.653 159.194,18.369 158.992,18.142C158.81,17.94 158.602,17.789 158.369,17.699C158.135,17.609 157.832,17.553 157.461,17.531L157.458,17.286L169.181,17.286L169.307,21.485L169.082,21.498C168.957,20.866 168.822,20.355 168.676,19.968C168.527,19.581 168.335,19.238 168.101,18.932C167.767,18.485 167.335,18.15 166.803,17.935C166.275,17.72 165.615,17.613 164.829,17.613C164.083,17.613 163.48,17.733 163.027,17.97C162.571,18.202 162.231,18.576 162.007,19.083C161.877,19.375 161.791,19.745 161.743,20.183C161.7,20.622 161.675,21.326 161.674,22.289L161.674,24.705L162.233,24.705C162.717,24.705 163.117,24.653 163.433,24.546C163.746,24.438 164.005,24.275 164.198,24.051C164.404,23.819 164.564,23.536 164.678,23.205C164.792,22.874 164.878,22.44 164.936,21.898L165.162,21.898L165.203,27.55L164.974,27.563C164.915,27.021 164.844,26.613 164.753,26.333C164.667,26.054 164.53,25.813 164.348,25.611C164.156,25.392 163.91,25.242 163.609,25.156C163.307,25.074 162.858,25.031 162.264,25.031L161.674,25.031L161.675,31.362L163.925,31.362C164.617,31.362 165.177,31.31 165.594,31.207C166.015,31.104 166.377,30.932 166.684,30.683C167.057,30.391 167.345,30.047 167.539,29.66C167.738,29.273 167.875,28.788 167.962,28.194L168.187,28.207L168.019,31.689L157.461,31.689Z" style="fill:none;fill-rule:nonzero;stroke:rgb(194,151,79);stroke-width:0.89px;"/>
        </g>
        <g transform="matrix(1,0,0.179398,-0.908866,-8.7844,44.5035)">
            <path d="M172.412,17.32C172.53,17.66 172.746,17.827 173.063,17.827C173.16,17.827 173.249,17.815 173.328,17.784C173.407,17.759 173.65,17.647 174.055,17.458C174.834,17.101 175.647,16.921 176.491,16.921C177.417,16.921 178.217,17.144 178.899,17.587C179.58,18.034 180.092,18.666 180.429,19.486C180.674,20.08 180.795,20.694 180.796,21.339C180.794,22.31 180.528,23.161 179.99,23.896C179.521,24.549 178.75,25.147 177.683,25.693L176.3,26.41C174.894,27.128 174.193,28.074 174.194,29.247C174.191,29.544 174.244,29.84 174.343,30.137C174.446,30.433 174.583,30.691 174.759,30.906C175.187,31.443 175.764,31.71 176.498,31.71C176.998,31.71 177.444,31.577 177.831,31.314C178.214,31.052 178.568,30.644 178.89,30.094C179.069,29.793 179.217,29.466 179.347,29.11C179.474,28.753 179.624,28.241 179.802,27.575L180.029,27.575L179.961,31.761L179.735,31.761C179.654,31.405 179.499,31.224 179.273,31.224C179.179,31.224 179.074,31.246 178.957,31.284C178.837,31.323 178.618,31.409 178.288,31.551C177.851,31.748 177.498,31.882 177.237,31.946C176.975,32.015 176.692,32.045 176.383,32.045C175.434,32.045 174.609,31.701 173.916,31.014C173.524,30.627 173.217,30.163 172.998,29.621C172.779,29.079 172.669,28.516 172.668,27.932C172.67,26.982 172.951,26.178 173.515,25.516C173.714,25.28 173.983,25.044 174.314,24.812C174.644,24.58 175.121,24.296 175.745,23.956C176.451,23.569 176.976,23.251 177.323,22.998C177.665,22.744 177.932,22.478 178.121,22.207C178.306,21.936 178.449,21.618 178.559,21.244C178.669,20.87 178.723,20.505 178.721,20.148C178.721,19.319 178.477,18.631 177.984,18.09C177.492,17.548 176.872,17.277 176.118,17.277C175.036,17.277 174.138,17.866 173.426,19.048C173.046,19.684 172.717,20.561 172.445,21.665L172.216,21.678L172.189,17.32L172.412,17.32Z" style="fill:none;fill-rule:nonzero;stroke:rgb(194,151,79);stroke-width:0.89px;"/>
        </g>
        <g>
            <g transform="matrix(1,0,0,1,0,3.36)">
                <path d="M62.254,32.656L70.957,32.656L70.895,32.952C70.227,33.007 69.738,33.101 69.426,33.234C69.121,33.359 68.863,33.558 68.645,33.828C68.426,34.101 68.285,34.39 68.223,34.702C68.18,34.921 68.164,35.117 68.176,35.281C68.184,35.449 68.242,35.82 68.348,36.39L70.238,46.609L75.785,37.64C76.566,36.382 77.012,35.464 77.129,34.89C77.191,34.57 77.195,34.265 77.145,33.984C77.09,33.702 76.992,33.492 76.848,33.343C76.699,33.199 76.523,33.101 76.316,33.046C76.117,32.984 75.852,32.952 75.52,32.952L75.582,32.656L81.457,32.656L81.395,32.952C80.895,32.995 80.445,33.109 80.051,33.296C79.664,33.476 79.273,33.757 78.879,34.14C78.605,34.413 78.301,34.781 77.957,35.249C77.621,35.718 77.152,36.445 76.551,37.421L68.66,49.984L68.098,49.984L65.426,37.015C65.07,35.308 64.73,34.226 64.41,33.765C64.199,33.484 63.914,33.281 63.551,33.156C63.195,33.023 62.742,32.952 62.191,32.952L62.254,32.656Z" style="fill:rgb(56,99,184);fill-rule:nonzero;"/>
            </g>
            <g transform="matrix(1,0,0,1,0,3.36)">
                <path d="M97.816,49.984L89.16,49.984L89.223,49.687C90.012,49.624 90.574,49.499 90.91,49.312C91.523,48.98 91.887,48.523 92.004,47.937C92.066,47.593 92.035,47.132 91.91,46.546L91.785,46.015L91.113,43.015L85.316,43.015L84.285,44.765L83.801,45.546C83.215,46.484 82.871,47.218 82.77,47.749C82.707,48.062 82.723,48.355 82.816,48.624C82.91,48.898 83.066,49.117 83.285,49.281C83.586,49.511 83.996,49.648 84.52,49.687L84.457,49.984L78.551,49.984L78.613,49.687C79.082,49.667 79.508,49.558 79.895,49.359C80.289,49.163 80.695,48.851 81.113,48.421C81.457,48.078 81.816,47.636 82.191,47.093C82.574,46.542 83.098,45.718 83.754,44.624L90.941,32.656L91.691,32.656L94.785,45.999C95.012,47.011 95.211,47.73 95.379,48.156C95.555,48.585 95.773,48.913 96.035,49.14C96.211,49.288 96.43,49.402 96.691,49.484C96.949,49.57 97.348,49.636 97.879,49.687L97.816,49.984ZM91.02,42.499L89.551,35.921L85.645,42.499L91.02,42.499Z" style="fill:rgb(56,99,184);fill-rule:nonzero;"/>
            </g>
            <g transform="matrix(1,0,0,1,0,3.36)">
                <path d="M105.672,34.952L103.484,45.999C103.316,46.874 103.242,47.523 103.266,47.937C103.285,48.343 103.406,48.683 103.625,48.952C103.812,49.202 104.051,49.386 104.344,49.499C104.633,49.605 105.031,49.667 105.531,49.687L105.469,49.984L99.391,49.984L99.453,49.687C99.953,49.667 100.367,49.605 100.703,49.499C101.035,49.386 101.352,49.202 101.656,48.952C101.977,48.683 102.234,48.339 102.422,47.921C102.609,47.507 102.785,46.867 102.953,45.999L104.812,36.624C104.977,35.773 105.051,35.136 105.031,34.718C105.008,34.304 104.891,33.96 104.672,33.687C104.484,33.437 104.242,33.261 103.953,33.156C103.66,33.042 103.258,32.976 102.75,32.952L102.812,32.656L107.891,32.656L116,45.812L117.812,36.64C117.977,35.765 118.051,35.124 118.031,34.718C118.02,34.304 117.906,33.96 117.688,33.687C117.488,33.437 117.242,33.261 116.953,33.156C116.66,33.042 116.266,32.976 115.766,32.952L115.828,32.656L121.906,32.656L121.844,32.952C120.969,32.952 120.234,33.199 119.641,33.687C119.316,33.96 119.062,34.304 118.875,34.718C118.695,35.136 118.523,35.773 118.359,36.624L115.719,49.984L115.125,49.984L105.672,34.952Z" style="fill:rgb(56,99,184);fill-rule:nonzero;"/>
            </g>
            <g transform="matrix(1,0,0,1,0,3.36)">
                <path d="M121.051,49.687C121.559,49.667 121.977,49.605 122.301,49.499C122.633,49.386 122.949,49.202 123.254,48.952C123.574,48.683 123.832,48.339 124.02,47.921C124.207,47.507 124.383,46.867 124.551,45.999L126.41,36.64C126.586,35.714 126.66,35.038 126.629,34.609C126.598,34.171 126.434,33.812 126.145,33.531C125.777,33.187 125.18,32.995 124.348,32.952L124.41,32.656L131.66,32.656C133.273,32.656 134.293,32.671 134.723,32.702C136.555,32.839 138.027,33.351 139.145,34.234C140.207,35.07 140.945,36.167 141.363,37.531C141.789,38.886 141.84,40.359 141.52,41.952C141.289,43.132 140.879,44.242 140.285,45.281C139.691,46.312 138.977,47.167 138.145,47.843C136.977,48.812 135.637,49.429 134.129,49.687C133.004,49.886 131.871,49.984 130.738,49.984L120.988,49.984L121.051,49.687ZM129.988,33.046L127.488,45.671C127.332,46.495 127.258,47.124 127.27,47.562C127.289,47.992 127.398,48.355 127.598,48.656C128.023,49.324 128.871,49.656 130.145,49.656C131.215,49.656 132.168,49.484 133.004,49.14C133.848,48.796 134.648,48.242 135.41,47.468C136.16,46.73 136.785,45.882 137.285,44.921C137.785,43.952 138.145,42.929 138.363,41.843C138.602,40.648 138.637,39.507 138.473,38.421C138.305,37.339 137.949,36.39 137.41,35.578C136.648,34.452 135.629,33.71 134.348,33.343C133.648,33.148 132.727,33.046 131.582,33.046L129.988,33.046Z" style="fill:rgb(56,99,184);fill-rule:nonzero;"/>
            </g>
            <g transform="matrix(1,0,0,1,0,3.36)">
                <path d="M154.902,32.656L154.84,32.952C154.328,32.976 153.906,33.042 153.574,33.156C153.25,33.261 152.938,33.437 152.637,33.687C152.23,34.023 151.922,34.492 151.715,35.093C151.578,35.542 151.453,36.058 151.34,36.64L149.48,45.999C149.344,46.699 149.27,47.249 149.262,47.656C149.262,48.062 149.312,48.39 149.418,48.64C149.582,48.976 149.828,49.226 150.152,49.39C150.473,49.558 150.938,49.656 151.543,49.687L151.48,49.984L143.043,49.984L143.105,49.687C143.613,49.667 144.035,49.601 144.371,49.484C144.703,49.37 145.016,49.195 145.309,48.952C145.641,48.683 145.895,48.343 146.074,47.937C146.262,47.523 146.438,46.874 146.605,45.999L148.465,36.64C148.629,35.765 148.703,35.124 148.684,34.718C148.672,34.304 148.551,33.96 148.324,33.687C148.137,33.437 147.891,33.261 147.59,33.156C147.297,33.042 146.902,32.976 146.402,32.952L146.465,32.656L154.902,32.656Z" style="fill:rgb(56,99,184);fill-rule:nonzero;"/>
            </g>
            <g transform="matrix(1,0,0,1,0,3.36)">
                <path d="M156.371,32.656L165.074,32.656L165.012,32.952C164.344,33.007 163.855,33.101 163.543,33.234C163.238,33.359 162.98,33.558 162.762,33.828C162.543,34.101 162.402,34.39 162.34,34.702C162.297,34.921 162.281,35.117 162.293,35.281C162.301,35.449 162.359,35.82 162.465,36.39L164.355,46.609L169.902,37.64C170.684,36.382 171.129,35.464 171.246,34.89C171.309,34.57 171.312,34.265 171.262,33.984C171.207,33.702 171.109,33.492 170.965,33.343C170.816,33.199 170.641,33.101 170.434,33.046C170.234,32.984 169.969,32.952 169.637,32.952L169.699,32.656L175.574,32.656L175.512,32.952C175.012,32.995 174.562,33.109 174.168,33.296C173.781,33.476 173.391,33.757 172.996,34.14C172.723,34.413 172.418,34.781 172.074,35.249C171.738,35.718 171.27,36.445 170.668,37.421L162.777,49.984L162.215,49.984L159.543,37.015C159.188,35.308 158.848,34.226 158.527,33.765C158.316,33.484 158.031,33.281 157.668,33.156C157.312,33.023 156.859,32.952 156.309,32.952L156.371,32.656Z" style="fill:rgb(56,99,184);fill-rule:nonzero;"/>
            </g>
            <g transform="matrix(1,0,0,1,0,3.36)">
                <path d="M185.434,32.656L185.371,32.952C184.859,32.976 184.438,33.042 184.105,33.156C183.781,33.261 183.469,33.437 183.168,33.687C182.762,34.023 182.453,34.492 182.246,35.093C182.109,35.542 181.984,36.058 181.871,36.64L180.012,45.999C179.875,46.699 179.801,47.249 179.793,47.656C179.793,48.062 179.844,48.39 179.949,48.64C180.113,48.976 180.359,49.226 180.684,49.39C181.004,49.558 181.469,49.656 182.074,49.687L182.012,49.984L173.574,49.984L173.637,49.687C174.145,49.667 174.566,49.601 174.902,49.484C175.234,49.37 175.547,49.195 175.84,48.952C176.172,48.683 176.426,48.343 176.605,47.937C176.793,47.523 176.969,46.874 177.137,45.999L178.996,36.64C179.16,35.765 179.234,35.124 179.215,34.718C179.203,34.304 179.082,33.96 178.855,33.687C178.668,33.437 178.422,33.261 178.121,33.156C177.828,33.042 177.434,32.976 176.934,32.952L176.996,32.656L185.434,32.656Z" style="fill:rgb(56,99,184);fill-rule:nonzero;"/>
            </g>
            <g transform="matrix(1,0,0,1,0,3.36)">
                <path d="M190.855,34.952L188.668,45.999C188.5,46.874 188.426,47.523 188.449,47.937C188.469,48.343 188.59,48.683 188.809,48.952C188.996,49.202 189.234,49.386 189.527,49.499C189.816,49.605 190.215,49.667 190.715,49.687L190.652,49.984L184.574,49.984L184.637,49.687C185.137,49.667 185.551,49.605 185.887,49.499C186.219,49.386 186.535,49.202 186.84,48.952C187.16,48.683 187.418,48.339 187.605,47.921C187.793,47.507 187.969,46.867 188.137,45.999L189.996,36.624C190.16,35.773 190.234,35.136 190.215,34.718C190.191,34.304 190.074,33.96 189.855,33.687C189.668,33.437 189.426,33.261 189.137,33.156C188.844,33.042 188.441,32.976 187.934,32.952L187.996,32.656L193.074,32.656L201.184,45.812L202.996,36.64C203.16,35.765 203.234,35.124 203.215,34.718C203.203,34.304 203.09,33.96 202.871,33.687C202.672,33.437 202.426,33.261 202.137,33.156C201.844,33.042 201.449,32.976 200.949,32.952L201.012,32.656L207.09,32.656L207.027,32.952C206.152,32.952 205.418,33.199 204.824,33.687C204.5,33.96 204.246,34.304 204.059,34.718C203.879,35.136 203.707,35.773 203.543,36.624L200.902,49.984L200.309,49.984L190.855,34.952Z" style="fill:rgb(56,99,184);fill-rule:nonzero;"/>
            </g>
            <g transform="matrix(1,0,0,1,0,3.36)">
                <path d="M218.031,32.656L217.969,32.952C217.457,32.976 217.035,33.042 216.703,33.156C216.379,33.261 216.066,33.437 215.766,33.687C215.359,34.023 215.051,34.492 214.844,35.093C214.707,35.542 214.582,36.058 214.469,36.64L212.609,45.999C212.473,46.699 212.398,47.249 212.391,47.656C212.391,48.062 212.441,48.39 212.547,48.64C212.711,48.976 212.957,49.226 213.281,49.39C213.602,49.558 214.066,49.656 214.672,49.687L214.609,49.984L206.172,49.984L206.234,49.687C206.742,49.667 207.164,49.601 207.5,49.484C207.832,49.37 208.145,49.195 208.438,48.952C208.77,48.683 209.023,48.343 209.203,47.937C209.391,47.523 209.566,46.874 209.734,45.999L211.594,36.64C211.758,35.765 211.832,35.124 211.812,34.718C211.801,34.304 211.68,33.96 211.453,33.687C211.266,33.437 211.02,33.261 210.719,33.156C210.426,33.042 210.031,32.976 209.531,32.952L209.594,32.656L218.031,32.656Z" style="fill:rgb(56,99,184);fill-rule:nonzero;"/>
            </g>
            <g transform="matrix(1,0,0,1,0,3.36)">
                <path d="M227.641,33.046C227.086,33.046 226.488,33.062 225.844,33.093C224.477,33.167 223.438,33.335 222.719,33.593C222.008,33.855 221.375,34.308 220.812,34.952C220.301,35.546 219.836,36.351 219.422,37.359L219.141,37.343L220.297,32.656L238.141,32.656L237.453,37.343L237.125,37.359C237.133,36.183 236.945,35.292 236.562,34.687C236.176,34.085 235.523,33.652 234.609,33.39C233.828,33.163 232.461,33.046 230.516,33.046L227.953,45.999C227.785,46.867 227.707,47.507 227.719,47.921C227.738,48.339 227.859,48.683 228.078,48.952C228.273,49.202 228.52,49.386 228.812,49.499C229.102,49.605 229.5,49.667 230,49.687L229.938,49.984L221.516,49.984L221.578,49.687C222.086,49.667 222.508,49.605 222.844,49.499C223.176,49.386 223.488,49.202 223.781,48.952C224.113,48.683 224.367,48.343 224.547,47.937C224.734,47.523 224.91,46.874 225.078,45.999L227.641,33.046Z" style="fill:rgb(56,99,184);fill-rule:nonzero;"/>
            </g>
        </g>
        <g transform="matrix(1,0,0.179398,-0.908866,-17.6146,89.2388)">
            <path d="M69.315,58.371C69.862,58.371 70.328,58.298 70.71,58.152C71.087,58.006 71.41,57.773 71.67,57.455C72.082,56.948 72.628,55.753 73.31,53.871L78.522,39.494L79.072,39.494L84.444,53.407C84.862,54.494 85.194,55.298 85.433,55.818C85.672,56.338 85.903,56.746 86.123,57.047C86.445,57.473 86.783,57.786 87.137,57.993C87.49,58.199 87.905,58.324 88.385,58.371L88.386,58.693L82.558,58.693L82.557,58.371C82.889,58.371 83.161,58.337 83.368,58.272C83.578,58.208 83.771,58.092 83.947,57.937C84.119,57.765 84.259,57.529 84.365,57.219C84.471,56.91 84.524,56.574 84.521,56.218C84.522,55.582 84.26,54.563 83.737,53.166L79.975,43.238L76.1,54.559C75.882,55.186 75.75,55.594 75.705,55.784C75.664,55.968 75.641,56.183 75.64,56.428C75.64,56.776 75.723,57.099 75.888,57.395C76.055,57.688 76.273,57.907 76.545,58.049C76.834,58.199 77.303,58.306 77.959,58.371L77.96,58.693L69.312,58.693L69.315,58.371Z" style="fill:none;fill-rule:nonzero;stroke:rgb(56,99,184);stroke-width:0.89px;"/>
        </g>
        <g transform="matrix(1,0,0.179398,-0.908866,-17.6137,89.2343)">
            <path d="M108.158,39.816C107.619,39.88 107.211,39.958 106.941,40.048C106.672,40.134 106.429,40.267 106.219,40.435C105.926,40.676 105.65,41.037 105.396,41.518C105.142,41.995 104.804,42.79 104.373,43.908L98.675,58.688L97.929,58.688L93.133,45.425C92.697,44.217 92.348,43.31 92.082,42.704C91.814,42.103 91.541,41.604 91.262,41.221C90.929,40.744 90.589,40.396 90.241,40.181C89.889,39.966 89.482,39.842 89.022,39.816L89.021,39.494L94.888,39.494L94.889,39.816C94.357,39.863 93.92,40.014 93.581,40.267C93.333,40.452 93.141,40.697 92.997,40.998C92.853,41.299 92.78,41.621 92.78,41.969C92.78,42.558 92.978,43.366 93.371,44.402L93.699,45.274L94.378,47.213L100.144,47.213L101.399,43.895L101.623,43.302C101.867,42.657 101.991,42.141 101.99,41.754C101.989,41.11 101.72,40.603 101.176,40.237C100.87,40.031 100.333,39.889 99.553,39.816L99.552,39.494L108.161,39.494L108.158,39.816ZM94.587,47.789L97.183,55.074L99.931,47.789L94.587,47.789Z" style="fill:none;fill-rule:nonzero;stroke:rgb(56,99,184);stroke-width:0.89px;"/>
        </g>
        <g transform="matrix(1,0,0.179398,-0.908866,-17.6137,89.2343)">
            <path d="M125.497,39.494L126.087,39.494L126.086,54.287C126.088,55.233 126.136,55.942 126.237,56.406C126.337,56.87 126.523,57.248 126.793,57.549C127.281,58.095 127.963,58.366 128.838,58.366L128.839,58.688L122.796,58.688L122.799,58.366C123.296,58.34 123.701,58.263 124.011,58.142C124.319,58.018 124.596,57.82 124.84,57.549C125.113,57.248 125.298,56.87 125.4,56.41C125.498,55.95 125.548,55.237 125.549,54.274L125.551,44.118L114.913,58.688L109.87,58.688L109.869,58.366C110.374,58.34 110.783,58.263 111.093,58.142C111.405,58.018 111.674,57.82 111.911,57.549C112.183,57.248 112.368,56.87 112.467,56.406C112.57,55.942 112.619,55.233 112.621,54.287L112.62,43.908C112.619,42.953 112.571,42.24 112.467,41.776C112.366,41.312 112.181,40.929 111.91,40.633C111.667,40.358 111.39,40.16 111.079,40.039C110.769,39.919 110.365,39.842 109.869,39.816L109.868,39.494L115.907,39.494L115.908,39.816C115.411,39.842 115.007,39.919 114.696,40.039C114.386,40.16 114.108,40.358 113.863,40.633C113.591,40.929 113.406,41.312 113.307,41.772C113.206,42.227 113.156,42.941 113.155,43.908L113.155,56.144L125.497,39.494Z" style="fill:none;fill-rule:nonzero;stroke:rgb(56,99,184);stroke-width:0.89px;"/>
        </g>
        <g transform="matrix(1,0,0.179398,-0.908866,-17.6137,89.2343)">
            <path d="M131.474,39.494L141.157,39.494C142.282,39.494 143.388,39.601 144.471,39.816C145.919,40.104 147.129,40.787 148.101,41.853C148.789,42.614 149.329,43.568 149.717,44.716C150.105,45.863 150.299,47.088 150.301,48.382C150.3,50.153 149.959,51.79 149.279,53.294C148.595,54.803 147.646,56.019 146.421,56.948C145.14,57.923 143.575,58.482 141.732,58.632C141.295,58.671 140.28,58.688 138.683,58.688L131.476,58.688L131.475,58.366C132.304,58.319 132.932,58.104 133.36,57.721C133.701,57.412 133.932,57.016 134.049,56.539C134.166,56.058 134.227,55.306 134.229,54.274L134.229,43.908C134.228,42.953 134.177,42.24 134.076,41.776C133.976,41.312 133.791,40.929 133.52,40.633C133.276,40.358 132.999,40.16 132.692,40.039C132.39,39.919 131.982,39.842 131.475,39.816L131.474,39.494ZM138.683,58.254C139.815,58.254 140.749,58.147 141.483,57.932C142.828,57.528 143.984,56.703 144.954,55.456C145.655,54.554 146.191,53.505 146.566,52.306C146.942,51.102 147.13,49.839 147.13,48.506C147.131,47.307 146.975,46.173 146.665,45.111C146.353,44.045 145.901,43.1 145.31,42.279C144.706,41.423 144.023,40.809 143.26,40.426C142.496,40.048 141.576,39.859 140.502,39.859C139.244,39.859 138.335,40.224 137.778,40.955C137.515,41.29 137.336,41.699 137.238,42.18C137.145,42.657 137.094,43.353 137.097,44.273L137.097,58.254L138.683,58.254Z" style="fill:none;fill-rule:nonzero;stroke:rgb(56,99,184);stroke-width:0.89px;"/>
        </g>
        <g transform="matrix(1,0,0.179398,-0.908866,-17.6137,89.2343)">
            <path d="M153.527,58.688L153.526,58.366C154.027,58.336 154.431,58.263 154.746,58.142C155.061,58.018 155.335,57.82 155.571,57.549C155.851,57.248 156.036,56.87 156.134,56.41C156.233,55.95 156.278,55.237 156.279,54.274L156.28,43.908C156.281,42.941 156.23,42.227 156.136,41.772C156.038,41.312 155.849,40.929 155.571,40.628C155.336,40.37 155.063,40.173 154.753,40.048C154.444,39.919 154.036,39.842 153.525,39.816L153.529,39.494L161.9,39.494L161.9,39.816C161.304,39.85 160.827,39.962 160.47,40.147C160.113,40.327 159.821,40.607 159.594,40.981C159.435,41.256 159.323,41.617 159.251,42.064C159.182,42.515 159.15,43.13 159.147,43.908L159.147,54.274C159.148,54.919 159.174,55.491 159.226,55.989C159.305,56.655 159.513,57.175 159.856,57.549C160.1,57.82 160.377,58.018 160.687,58.142C160.997,58.263 161.402,58.336 161.901,58.366L161.898,58.688L153.527,58.688Z" style="fill:none;fill-rule:nonzero;stroke:rgb(56,99,184);stroke-width:0.89px;"/>
        </g>
        <g transform="matrix(1,0,0.179398,-0.908866,-17.6146,89.2388)">
            <path d="M163.436,58.371C163.987,58.371 164.453,58.298 164.831,58.152C165.212,58.006 165.531,57.773 165.795,57.455C166.207,56.948 166.753,55.753 167.431,53.871L172.647,39.494L173.197,39.494L178.569,53.407C178.987,54.494 179.315,55.298 179.554,55.818C179.797,56.338 180.024,56.746 180.244,57.047C180.566,57.473 180.904,57.786 181.258,57.993C181.611,58.199 182.03,58.324 182.51,58.371L182.511,58.693L176.679,58.693L176.682,58.371C177.014,58.371 177.282,58.337 177.493,58.272C177.703,58.208 177.896,58.092 178.068,57.937C178.244,57.765 178.384,57.529 178.49,57.219C178.593,56.91 178.645,56.574 178.646,56.218C178.643,55.582 178.385,54.563 177.858,53.166L174.1,43.238L170.221,54.559C170.003,55.186 169.871,55.594 169.83,55.784C169.785,55.968 169.762,56.183 169.765,56.428C169.765,56.776 169.848,57.099 170.013,57.395C170.18,57.688 170.398,57.907 170.666,58.049C170.955,58.199 171.428,58.306 172.08,58.371L172.081,58.693L163.437,58.693L163.436,58.371Z" style="fill:none;fill-rule:nonzero;stroke:rgb(56,99,184);stroke-width:0.89px;"/>
        </g>
        <g transform="matrix(1,0,0.179398,-0.908866,-17.6137,89.2343)">
            <path d="M184.046,58.688L184.049,58.366C184.547,58.336 184.951,58.263 185.265,58.142C185.58,58.018 185.854,57.82 186.09,57.549C186.371,57.248 186.56,56.87 186.654,56.41C186.752,55.95 186.798,55.237 186.799,54.274L186.799,43.908C186.801,42.941 186.749,42.227 186.655,41.772C186.558,41.312 186.373,40.929 186.091,40.628C185.856,40.37 185.583,40.173 185.273,40.048C184.964,39.919 184.556,39.842 184.049,39.816L184.048,39.494L192.419,39.494L192.42,39.816C191.824,39.85 191.347,39.962 190.99,40.147C190.633,40.327 190.341,40.607 190.113,40.981C189.955,41.256 189.843,41.617 189.771,42.064C189.701,42.515 189.669,43.13 189.666,43.908L189.666,54.274C189.668,54.919 189.694,55.491 189.745,55.989C189.825,56.655 190.032,57.175 190.375,57.549C190.62,57.82 190.897,58.018 191.206,58.142C191.517,58.263 191.922,58.336 192.42,58.366L192.417,58.688L184.046,58.688Z" style="fill:none;fill-rule:nonzero;stroke:rgb(56,99,184);stroke-width:0.89px;"/>
        </g>
        <g transform="matrix(1,0,0.179398,-0.908866,-17.6137,89.2343)">
            <path d="M210.669,39.494L211.259,39.494L211.261,54.287C211.26,55.233 211.312,55.942 211.413,56.406C211.513,56.87 211.699,57.248 211.969,57.549C212.457,58.095 213.139,58.366 214.014,58.366L214.015,58.688L207.972,58.688L207.971,58.366C208.472,58.34 208.876,58.263 209.187,58.142C209.494,58.018 209.772,57.82 210.016,57.549C210.289,57.248 210.474,56.87 210.576,56.41C210.674,55.95 210.724,55.237 210.725,54.274L210.726,44.118L200.089,58.688L195.042,58.688L195.045,58.366C195.55,58.34 195.958,58.263 196.269,58.142C196.576,58.018 196.85,57.82 197.086,57.549C197.359,57.248 197.544,56.87 197.643,56.406C197.746,55.942 197.795,55.233 197.793,54.287L197.795,43.908C197.795,42.953 197.747,42.24 197.643,41.776C197.542,41.312 197.357,40.929 197.086,40.633C196.842,40.358 196.565,40.16 196.255,40.039C195.944,39.919 195.54,39.842 195.045,39.816L195.044,39.494L201.083,39.494L201.084,39.816C200.583,39.842 200.179,39.919 199.872,40.039C199.561,40.16 199.284,40.358 199.039,40.633C198.767,40.929 198.581,41.312 198.483,41.772C198.382,42.227 198.332,42.941 198.33,43.908L198.331,56.144L210.669,39.494Z" style="fill:none;fill-rule:nonzero;stroke:rgb(56,99,184);stroke-width:0.89px;"/>
        </g>
        <g transform="matrix(1,0,0.179398,-0.908866,-17.6137,89.2343)">
            <path d="M216.652,58.688L216.651,58.366C217.148,58.336 217.556,58.263 217.871,58.142C218.182,58.018 218.46,57.82 218.696,57.549C218.972,57.248 219.161,56.87 219.259,56.41C219.354,55.95 219.403,55.237 219.4,54.274L219.401,43.908C219.402,42.941 219.355,42.227 219.257,41.772C219.159,41.312 218.974,40.929 218.696,40.628C218.457,40.37 218.184,40.173 217.874,40.048C217.566,39.919 217.158,39.842 216.65,39.816L216.65,39.494L225.021,39.494L225.022,39.816C224.429,39.85 223.952,39.962 223.595,40.147C223.234,40.327 222.942,40.607 222.715,40.981C222.556,41.256 222.445,41.617 222.376,42.064C222.307,42.515 222.271,43.13 222.272,43.908L222.272,54.274C222.273,54.919 222.295,55.491 222.351,55.989C222.426,56.655 222.638,57.175 222.977,57.549C223.221,57.82 223.498,58.018 223.812,58.142C224.118,58.263 224.523,58.336 225.022,58.366L225.023,58.688L216.652,58.688Z" style="fill:none;fill-rule:nonzero;stroke:rgb(56,99,184);stroke-width:0.89px;"/>
        </g>
        <g transform="matrix(1,0,0.179398,-0.908866,-17.6137,89.2343)">
            <path d="M234.721,43.908C234.723,42.941 234.671,42.227 234.569,41.772C234.468,41.312 234.283,40.929 234.013,40.628C233.768,40.358 233.491,40.16 233.181,40.039C232.87,39.919 232.462,39.842 231.955,39.816L231.954,39.494L240.325,39.494L240.326,39.816C239.829,39.842 239.425,39.919 239.114,40.039C238.808,40.16 238.526,40.358 238.282,40.628C238.013,40.929 237.827,41.312 237.729,41.776C237.626,42.24 237.577,42.949 237.577,43.908L237.577,58.254C239.515,58.254 240.889,58.125 241.703,57.876C242.662,57.584 243.397,57.102 243.896,56.432C244.399,55.761 244.768,54.773 245.006,53.471L245.305,53.501L245.069,58.688L227.347,58.688L227.11,53.501L227.412,53.471C227.62,54.597 227.921,55.486 228.315,56.144C228.742,56.857 229.285,57.356 229.947,57.648C230.606,57.94 231.609,58.121 232.95,58.198C233.581,58.233 234.171,58.254 234.722,58.254L234.721,43.908Z" style="fill:none;fill-rule:nonzero;stroke:rgb(56,99,184);stroke-width:0.89px;"/>
        </g>
        <g transform="matrix(1,0,0,1,0,40.0544)">
            <path d="M152,22.391C152.41,22.391 152.797,22.403 153.156,22.422C153.316,21.957 153.699,21.606 154.309,21.364C155.566,20.879 156.195,20.16 156.195,19.211C156.195,18.496 155.781,17.946 154.953,17.563C154.121,17.18 152.93,16.985 151.379,16.985C149.824,16.985 148.32,17.164 146.875,17.524C145.426,17.879 144.195,18.375 143.188,19.008C142.102,19.692 141.266,20.496 140.676,21.422C140.086,22.352 139.789,23.321 139.789,24.34C139.789,25.473 140.164,26.395 140.914,27.11C141.664,27.821 142.633,28.18 143.832,28.18C145.184,28.18 146.57,27.672 147.996,26.657C148.93,26 149.703,25.137 150.316,24.067C151.207,24.86 152.52,26.141 154.246,27.903L154.52,28.188C155.008,27.836 155.551,27.407 156.156,26.903L155.961,26.676C155.586,26.961 155.301,27.106 155.102,27.106C154.992,27.106 154.859,27.039 154.707,26.914C154.551,26.785 154.211,26.461 153.684,25.938L153.016,25.274C152.184,24.438 151.434,23.746 150.77,23.196L151.082,22.422C151.371,22.403 151.676,22.391 152,22.391M149.957,19.703C150.168,19.66 150.332,19.641 150.441,19.641C150.789,19.641 150.965,19.789 150.965,20.086C150.965,20.297 150.883,20.676 150.723,21.231C150.559,21.785 150.387,22.266 150.207,22.68C150.156,22.649 150.121,22.621 150.09,22.602L149.594,22.227C149.078,21.84 148.547,21.645 147.996,21.645C147.266,21.645 146.484,21.977 145.652,22.637C144.816,23.297 144.402,23.922 144.402,24.504C144.402,24.907 144.602,25.219 145.004,25.438C144.953,25.188 144.926,24.977 144.926,24.801C144.926,24.102 145.152,23.528 145.602,23.078C146.051,22.629 146.621,22.407 147.316,22.407C148.094,22.407 148.926,22.805 149.805,23.598C149.246,24.813 148.648,25.7 148.004,26.258C147.551,26.657 147.008,26.973 146.371,27.215C145.738,27.453 145.125,27.575 144.535,27.575C143.422,27.575 142.52,27.246 141.824,26.586C141.133,25.926 140.781,25.067 140.781,24.012C140.781,22.336 141.562,20.864 143.117,19.594C144.918,18.133 147.453,17.403 150.715,17.403C153.637,17.403 155.102,18.047 155.102,19.336C155.102,20.024 154.832,20.567 154.289,20.957C153.75,21.348 153.008,21.543 152.062,21.543C151.938,21.543 151.727,21.535 151.426,21.52C151.68,20.801 151.922,19.953 152.156,18.977L152.195,18.836C151.52,19.055 150.75,19.254 149.883,19.43L149.957,19.703ZM159.578,26.594C159.047,27.133 158.535,27.403 158.047,27.403C157.598,27.403 157.371,27.133 157.371,26.598C157.371,26.075 157.512,25.481 157.789,24.809C158.062,24.141 158.418,23.559 158.844,23.055C159.449,22.348 160.043,21.992 160.621,21.992C160.945,21.992 161.109,22.117 161.109,22.367C161.109,22.715 160.887,23.039 160.445,23.344C160.004,23.641 159.523,23.793 159,23.793C158.871,23.793 158.695,23.778 158.477,23.746C158.57,24.016 158.738,24.153 158.984,24.153C159.215,24.153 159.543,24.067 159.969,23.895C160.395,23.723 160.746,23.532 161.023,23.328C161.32,23.106 161.566,22.852 161.766,22.575C161.965,22.297 162.062,22.055 162.062,21.856C162.062,21.555 161.855,21.403 161.445,21.403C160.734,21.403 159.926,21.742 159.016,22.422C158.27,22.981 157.656,23.692 157.18,24.551C156.703,25.414 156.465,26.235 156.465,27.02C156.465,27.715 156.77,28.059 157.379,28.059C158.09,28.059 158.953,27.582 159.965,26.629C160.66,25.977 161.008,25.399 161.008,24.895C161.008,24.782 160.969,24.653 160.895,24.504C160.547,25.356 160.105,26.051 159.578,26.594M164.23,26.594C163.699,27.133 163.188,27.403 162.699,27.403C162.25,27.403 162.023,27.133 162.023,26.598C162.023,26.075 162.164,25.481 162.438,24.809C162.715,24.141 163.066,23.559 163.496,23.055C164.102,22.348 164.695,21.992 165.273,21.992C165.598,21.992 165.762,22.117 165.762,22.367C165.762,22.715 165.539,23.039 165.098,23.344C164.656,23.641 164.176,23.793 163.652,23.793C163.523,23.793 163.348,23.778 163.129,23.746C163.223,24.016 163.391,24.153 163.637,24.153C163.867,24.153 164.195,24.067 164.621,23.895C165.047,23.723 165.398,23.532 165.676,23.328C165.973,23.106 166.219,22.852 166.418,22.575C166.617,22.297 166.715,22.055 166.715,21.856C166.715,21.555 166.508,21.403 166.098,21.403C165.387,21.403 164.578,21.742 163.668,22.422C162.922,22.981 162.309,23.692 161.832,24.551C161.355,25.414 161.117,26.235 161.117,27.02C161.117,27.715 161.422,28.059 162.031,28.059C162.742,28.059 163.602,27.582 164.617,26.629C165.312,25.977 165.656,25.399 165.656,24.895C165.656,24.782 165.621,24.653 165.551,24.504C165.199,25.356 164.758,26.051 164.23,26.594M169.996,21.442C169.512,21.442 169.109,21.516 168.789,21.657C168.465,21.801 168.145,22.051 167.82,22.407C167.34,22.946 167.098,23.43 167.098,23.864C167.098,24.102 167.145,24.321 167.23,24.52L167.695,25.532C167.801,25.766 167.852,25.977 167.852,26.157C167.852,26.504 167.707,26.805 167.414,27.067C167.121,27.328 166.781,27.457 166.402,27.457C165.922,27.457 165.52,27.18 165.195,26.629C165.07,26.856 165.008,27.094 165.008,27.34C165.008,27.551 165.094,27.719 165.266,27.852C165.438,27.985 165.656,28.055 165.926,28.055C166.391,28.055 166.922,27.809 167.523,27.325C168.219,26.762 168.562,26.164 168.562,25.532C168.562,25.207 168.5,24.91 168.375,24.637L168,23.832C167.895,23.602 167.844,23.403 167.844,23.235C167.844,22.922 167.965,22.649 168.203,22.41C168.445,22.172 168.723,22.055 169.043,22.055C169.391,22.055 169.566,22.153 169.566,22.352C169.566,22.446 169.512,22.606 169.402,22.828C169.391,22.856 169.375,22.899 169.348,22.953L169.543,23.086L169.629,22.961C169.781,22.731 169.926,22.504 170.059,22.274L170.445,21.629L170.531,21.481C170.363,21.453 170.184,21.442 169.996,21.442M172.492,26.594C171.961,27.133 171.453,27.403 170.961,27.403C170.512,27.403 170.289,27.133 170.289,26.598C170.289,26.075 170.426,25.481 170.703,24.809C170.98,24.141 171.332,23.559 171.758,23.055C172.363,22.348 172.957,21.992 173.539,21.992C173.859,21.992 174.023,22.117 174.023,22.367C174.023,22.715 173.801,23.039 173.359,23.344C172.922,23.641 172.438,23.793 171.918,23.793C171.785,23.793 171.609,23.778 171.391,23.746C171.484,24.016 171.656,24.153 171.898,24.153C172.129,24.153 172.457,24.067 172.883,23.895C173.309,23.723 173.66,23.532 173.938,23.328C174.234,23.106 174.48,22.852 174.68,22.575C174.879,22.297 174.977,22.055 174.977,21.856C174.977,21.555 174.773,21.403 174.359,21.403C173.648,21.403 172.84,21.742 171.934,22.422C171.184,22.981 170.574,23.692 170.094,24.551C169.617,25.414 169.379,26.235 169.379,27.02C169.379,27.715 169.684,28.059 170.297,28.059C171.004,28.059 171.867,27.582 172.879,26.629C173.574,25.977 173.922,25.399 173.922,24.895C173.922,24.782 173.883,24.653 173.812,24.504C173.461,25.356 173.023,26.051 172.492,26.594M179.34,26.871C179.07,27.043 178.855,27.129 178.699,27.129C178.559,27.129 178.488,27.055 178.488,26.903C178.488,26.703 178.898,25.809 179.719,24.223C180.402,22.891 180.742,22.09 180.742,21.817C180.742,21.559 180.613,21.426 180.359,21.426C179.953,21.426 179.387,21.707 178.664,22.27C177.941,22.828 177.148,23.598 176.293,24.575L176.16,24.723L176.27,24.489C176.957,22.977 177.297,21.985 177.297,21.52C177.297,21.496 177.293,21.45 177.281,21.379L177.18,21.426C176.59,21.688 175.93,21.922 175.199,22.133L175.246,22.383C175.281,22.371 175.309,22.364 175.332,22.36C175.594,22.282 175.762,22.242 175.84,22.242C175.992,22.242 176.066,22.336 176.066,22.524C176.066,22.746 175.824,23.473 175.336,24.696C174.848,25.922 174.363,27.024 173.883,28.008C174.332,27.813 174.68,27.688 174.926,27.629C175.523,26.242 176.27,25.051 177.156,24.059C177.586,23.578 178.023,23.157 178.477,22.789C178.926,22.426 179.234,22.242 179.395,22.242C179.512,22.242 179.566,22.313 179.566,22.453C179.566,22.547 179.48,22.762 179.309,23.094L178.801,24.067C177.898,25.821 177.391,27.129 177.281,27.989C178.137,27.813 178.879,27.5 179.504,27.051L179.379,26.84L179.34,26.871ZM191.59,27.012C191.453,27.012 191.387,26.942 191.387,26.801C191.387,26.473 191.863,25.282 192.82,23.227C193.219,22.383 193.414,21.883 193.414,21.731C193.414,21.512 193.305,21.403 193.086,21.403C192.711,21.403 192.172,21.688 191.469,22.258C190.766,22.825 190.113,23.504 189.516,24.293C190.043,22.996 190.305,22.164 190.305,21.785C190.305,21.535 190.188,21.41 189.953,21.41C189.152,21.41 188.027,22.34 186.578,24.192C187.121,22.871 187.391,21.989 187.391,21.543C187.391,21.461 187.383,21.36 187.371,21.239L187.195,21.348C186.48,21.793 185.895,22.102 185.441,22.282L185.535,22.532C185.746,22.438 185.902,22.391 186.008,22.391C186.168,22.391 186.242,22.485 186.234,22.672C186.219,22.95 185.98,23.645 185.52,24.762L184.91,26.235C184.543,27.117 184.301,27.692 184.172,27.961C184.352,27.887 184.523,27.821 184.691,27.762L185.105,27.614C185.117,27.61 185.156,27.598 185.223,27.575C185.676,26.422 186.211,25.367 186.828,24.418C187.184,23.875 187.566,23.395 187.98,22.973C188.391,22.555 188.688,22.344 188.863,22.344C189.008,22.344 189.078,22.418 189.078,22.571C189.078,22.746 188.934,23.254 188.652,24.082C188.371,24.91 188.059,25.754 187.715,26.606L187.242,27.754L187.156,27.973C187.586,27.762 187.953,27.614 188.262,27.535C188.527,26.727 188.875,25.95 189.301,25.203C189.727,24.453 190.18,23.844 190.656,23.36C191.32,22.692 191.766,22.36 191.988,22.36C192.098,22.36 192.152,22.422 192.152,22.547C192.152,22.598 192.133,22.664 192.09,22.742L191.863,23.227C190.879,25.254 190.344,26.836 190.258,27.973C191.02,27.723 191.68,27.399 192.23,27.004L192.105,26.801C191.863,26.942 191.688,27.012 191.59,27.012M197.598,27.09C197.457,27.102 197.387,27.028 197.387,26.879C197.387,26.692 197.633,26.039 198.129,24.93L198.191,24.793C197.82,24.922 197.512,24.992 197.262,25.016C197.773,24.356 198.027,23.774 198.027,23.266C198.027,22.903 197.918,22.653 197.691,22.516C197.5,23.403 197.137,24.258 196.602,25.086C196.215,25.68 195.777,26.203 195.289,26.657C194.797,27.106 194.422,27.332 194.16,27.332C193.852,27.332 193.695,27.121 193.695,26.703C193.695,25.813 194.121,24.91 194.965,24.004C196.113,22.766 197.484,22.149 199.078,22.149C199.414,22.149 199.758,22.18 200.113,22.242C200.27,21.95 200.348,21.75 200.348,21.645C200.348,21.52 200.262,21.457 200.098,21.457C198.906,21.457 197.711,21.797 196.508,22.469C195.445,23.059 194.559,23.813 193.855,24.727C193.148,25.645 192.797,26.496 192.797,27.285C192.797,27.75 192.98,27.981 193.344,27.981C193.762,27.981 194.328,27.723 195.039,27.2C195.754,26.676 196.445,26.02 197.121,25.227C196.523,26.516 196.215,27.422 196.188,27.95C197.137,27.715 197.887,27.391 198.434,26.981L198.297,26.778C197.961,26.973 197.727,27.078 197.598,27.09M202.328,21.457L202.406,21.278L202.641,20.715C202.789,20.367 202.891,20.121 202.945,19.969C202.703,20.032 202.453,20.063 202.203,20.063C202.176,20.063 202.125,20.063 202.047,20.055C201.781,20.711 201.57,21.106 201.418,21.246C201.262,21.387 200.961,21.457 200.512,21.457L200.41,21.457L200.301,21.692L201.328,21.692L201.246,21.871C201.176,22.055 200.91,22.672 200.457,23.723L199.641,25.578C199.203,26.59 198.984,27.207 198.984,27.426C198.984,27.735 199.18,27.887 199.57,27.887C199.832,27.887 200.164,27.805 200.566,27.637C200.969,27.469 201.328,27.266 201.641,27.028L201.512,26.825C201.031,27.149 200.656,27.309 200.379,27.309C200.148,27.309 200.031,27.196 200.031,26.973C200.031,26.746 200.223,26.211 200.605,25.367C200.93,24.641 201.18,24.071 201.355,23.66C201.797,22.645 202.062,22.035 202.164,21.825L202.227,21.692L203.332,21.692L203.434,21.457L202.328,21.457ZM224.414,18.914C224.32,18.95 224.23,18.969 224.141,18.969C224.016,18.969 223.953,18.891 223.953,18.739C223.953,18.672 223.973,18.52 224.008,18.285L224.133,17.551C224.164,17.367 224.207,17.157 224.258,16.922L224.281,16.797L224.016,16.844C222.926,17.032 222.035,17.297 221.344,17.633C220.656,17.969 220.059,18.434 219.551,19.024C218.918,19.758 218.602,20.414 218.602,20.989C218.602,21.344 218.781,21.594 219.141,21.735C219.496,21.879 220.113,21.95 220.984,21.95L221.344,21.946C221.223,22.629 220.902,23.375 220.387,24.184C219.863,24.992 219.348,25.551 218.832,25.86C218.656,25.469 218.465,24.891 218.25,24.129L217.859,22.719C217.477,21.36 217.141,20.371 216.84,19.754C216.543,19.137 216.152,18.614 215.668,18.184C214.793,17.407 213.754,17.016 212.551,17.016C211.305,17.016 210.285,17.496 209.488,18.457C208.688,19.418 208.289,20.653 208.289,22.157C208.289,24.528 209.18,26.203 210.961,27.184C211.875,27.684 212.887,27.934 214,27.934C215.445,27.934 216.816,27.528 218.109,26.715C218.68,27.598 219.508,28.035 220.602,28.035C222.09,28.035 223.348,27.403 224.383,26.133C225.25,25.071 225.684,23.957 225.684,22.797C225.684,21.938 225.293,21.367 224.516,21.09C224.281,21.008 223.879,20.965 223.309,20.965L222.082,20.989L222.082,20.856C222.082,20.063 221.82,19.602 221.297,19.477C221.422,19.813 221.484,20.2 221.484,20.645C221.484,20.707 221.477,20.821 221.461,20.989L221.359,20.989C220.582,20.989 220.074,20.946 219.836,20.86C219.598,20.774 219.48,20.59 219.48,20.313C219.48,19.551 219.93,18.883 220.828,18.301C221.496,17.867 222.074,17.653 222.566,17.653C222.871,17.653 223.02,17.813 223.02,18.129C223.02,18.27 223.004,18.453 222.973,18.68C222.953,18.84 222.93,19.024 222.902,19.235C222.871,19.496 222.84,19.719 222.809,19.899L223.012,19.821C223.746,19.539 224.395,19.266 224.973,19L224.871,18.731C224.773,18.77 224.625,18.828 224.414,18.914M222.137,21.938L222.527,21.938C223.398,21.938 224.004,22.051 224.34,22.285C224.676,22.516 224.844,22.938 224.844,23.539C224.844,24.617 224.457,25.571 223.684,26.399C222.906,27.231 222.016,27.645 221.008,27.645C220.512,27.645 220.109,27.535 219.801,27.313C219.492,27.09 219.211,26.703 218.957,26.157C219.645,25.668 220.27,25.024 220.836,24.223C221.398,23.426 221.766,22.66 221.941,21.93L222.137,21.938ZM214.602,27.403C213.77,27.403 212.977,27.227 212.219,26.871C211.465,26.516 210.816,26.02 210.285,25.383C209.863,24.875 209.527,24.278 209.277,23.59C209.031,22.899 208.906,22.219 208.906,21.543C208.906,20.25 209.215,19.235 209.828,18.504C210.441,17.774 211.293,17.41 212.383,17.41C213.43,17.41 214.301,17.825 215,18.649C215.699,19.477 216.297,20.809 216.793,22.641L217.422,24.942C217.543,25.383 217.727,25.879 217.977,26.43C216.84,27.078 215.715,27.403 214.602,27.403M228.848,21.457L228.926,21.278L229.16,20.715C229.309,20.367 229.41,20.121 229.465,19.969C229.223,20.032 228.973,20.063 228.723,20.063C228.695,20.063 228.645,20.063 228.566,20.055C228.301,20.711 228.09,21.106 227.934,21.246C227.781,21.387 227.48,21.457 227.031,21.457L226.93,21.457L226.82,21.692L227.844,21.692L227.766,21.871C227.695,22.055 227.43,22.672 226.977,23.723L226.16,25.578C225.723,26.59 225.504,27.207 225.504,27.426C225.504,27.735 225.699,27.887 226.09,27.887C226.352,27.887 226.684,27.805 227.086,27.637C227.488,27.469 227.844,27.266 228.156,27.028L228.031,26.825C227.555,27.149 227.176,27.309 226.898,27.309C226.668,27.309 226.555,27.196 226.555,26.973C226.555,26.746 226.742,26.211 227.125,25.367C227.449,24.641 227.699,24.071 227.875,23.66C228.316,22.645 228.586,22.035 228.684,21.825L228.746,21.692L229.852,21.692L229.953,21.457L228.848,21.457ZM231.723,21.387C231.121,21.653 230.531,21.895 229.953,22.11L229.789,22.164L229.867,22.414C229.945,22.383 229.996,22.364 230.016,22.36L230.344,22.242C230.453,22.203 230.543,22.188 230.609,22.188C230.758,22.188 230.824,22.266 230.812,22.43C230.805,22.637 230.516,23.36 229.953,24.59C229.508,25.551 229.219,26.239 229.086,26.657C228.953,27.071 228.875,27.524 228.848,28.012C229.34,27.848 229.996,27.567 230.812,27.176L230.711,26.95C230.473,27.055 230.301,27.11 230.195,27.114C230.012,27.121 229.922,27.047 229.93,26.887C229.938,26.731 230.098,26.297 230.406,25.594L230.984,24.278C231.633,22.825 231.957,21.856 231.957,21.364L231.957,21.278L231.723,21.387ZM232.039,19.438C231.934,19.547 231.879,19.672 231.879,19.805C231.879,20.047 232,20.164 232.246,20.164C232.383,20.164 232.504,20.11 232.609,20C232.719,19.891 232.77,19.77 232.77,19.633C232.77,19.395 232.652,19.274 232.41,19.274C232.27,19.274 232.145,19.328 232.039,19.438M234.293,18.012L234.172,18.059L234.254,18.285C234.305,18.27 234.344,18.258 234.371,18.246C234.59,18.18 234.727,18.145 234.785,18.145C234.945,18.145 235.027,18.215 235.027,18.356C235.027,18.535 234.801,19.157 234.352,20.227L233.609,22.016C232.789,23.977 232.27,25.266 232.055,25.875C231.84,26.485 231.73,26.961 231.73,27.301C231.73,27.739 231.887,27.961 232.199,27.961C232.59,27.961 233.207,27.59 234.047,26.856L233.898,26.653L233.805,26.723C233.418,27.024 233.148,27.18 233,27.184C232.801,27.196 232.707,27.082 232.719,26.848C232.742,26.309 233.488,24.371 234.957,21.035C235.801,19.117 236.227,17.844 236.227,17.203C235.84,17.399 235.195,17.668 234.293,18.012" style="fill:rgb(194,148,79);fill-rule:nonzero;"/>
        </g>
    </g>
    <defs>
        <linearGradient id="_Linear2" x1="0" y1="0" x2="1" y2="0" gradientUnits="userSpaceOnUse" gradientTransform="matrix(1.00001,0,0,-1.00001,-1.25815e-05,-7.85452e-05)"><stop offset="0" style="stop-color:rgb(185,135,73);stop-opacity:1"/><stop offset="0.25" style="stop-color:rgb(185,135,73);stop-opacity:1"/><stop offset="0.31" style="stop-color:rgb(185,136,73);stop-opacity:1"/><stop offset="0.38" style="stop-color:rgb(185,136,73);stop-opacity:1"/><stop offset="0.41" style="stop-color:rgb(185,136,74);stop-opacity:1"/><stop offset="0.44" style="stop-color:rgb(186,137,74);stop-opacity:1"/><stop offset="0.45" style="stop-color:rgb(186,137,75);stop-opacity:1"/><stop offset="0.47" style="stop-color:rgb(186,137,75);stop-opacity:1"/><stop offset="0.48" style="stop-color:rgb(186,138,76);stop-opacity:1"/><stop offset="0.5" style="stop-color:rgb(187,138,76);stop-opacity:1"/><stop offset="0.52" style="stop-color:rgb(187,139,77);stop-opacity:1"/><stop offset="0.52" style="stop-color:rgb(187,139,77);stop-opacity:1"/><stop offset="0.53" style="stop-color:rgb(187,139,78);stop-opacity:1"/><stop offset="0.54" style="stop-color:rgb(188,140,78);stop-opacity:1"/><stop offset="0.55" style="stop-color:rgb(188,140,79);stop-opacity:1"/><stop offset="0.55" style="stop-color:rgb(188,140,79);stop-opacity:1"/><stop offset="0.56" style="stop-color:rgb(188,141,80);stop-opacity:1"/><stop offset="0.57" style="stop-color:rgb(188,141,80);stop-opacity:1"/><stop offset="0.58" style="stop-color:rgb(189,141,81);stop-opacity:1"/><stop offset="0.59" style="stop-color:rgb(189,142,81);stop-opacity:1"/><stop offset="0.59" style="stop-color:rgb(189,142,82);stop-opacity:1"/><stop offset="0.6" style="stop-color:rgb(190,143,82);stop-opacity:1"/><stop offset="0.61" style="stop-color:rgb(190,143,83);stop-opacity:1"/><stop offset="0.62" style="stop-color:rgb(190,144,84);stop-opacity:1"/><stop offset="0.62" style="stop-color:rgb(191,144,85);stop-opacity:1"/><stop offset="0.63" style="stop-color:rgb(191,145,85);stop-opacity:1"/><stop offset="0.63" style="stop-color:rgb(191,145,85);stop-opacity:1"/><stop offset="0.63" style="stop-color:rgb(191,145,86);stop-opacity:1"/><stop offset="0.64" style="stop-color:rgb(191,145,86);stop-opacity:1"/><stop offset="0.64" style="stop-color:rgb(192,146,87);stop-opacity:1"/><stop offset="0.64" style="stop-color:rgb(192,146,87);stop-opacity:1"/><stop offset="0.65" style="stop-color:rgb(192,146,88);stop-opacity:1"/><stop offset="0.65" style="stop-color:rgb(192,147,88);stop-opacity:1"/><stop offset="0.66" style="stop-color:rgb(192,147,89);stop-opacity:1"/><stop offset="0.66" style="stop-color:rgb(193,148,89);stop-opacity:1"/><stop offset="0.66" style="stop-color:rgb(193,148,90);stop-opacity:1"/><stop offset="0.67" style="stop-color:rgb(193,148,90);stop-opacity:1"/><stop offset="0.67" style="stop-color:rgb(193,149,91);stop-opacity:1"/><stop offset="0.68" style="stop-color:rgb(194,149,91);stop-opacity:1"/><stop offset="0.68" style="stop-color:rgb(194,150,92);stop-opacity:1"/><stop offset="0.68" style="stop-color:rgb(194,150,92);stop-opacity:1"/><stop offset="0.69" style="stop-color:rgb(194,150,93);stop-opacity:1"/><stop offset="0.69" style="stop-color:rgb(195,151,94);stop-opacity:1"/><stop offset="0.7" style="stop-color:rgb(195,151,94);stop-opacity:1"/><stop offset="0.7" style="stop-color:rgb(195,152,95);stop-opacity:1"/><stop offset="0.7" style="stop-color:rgb(196,152,96);stop-opacity:1"/><stop offset="0.71" style="stop-color:rgb(196,153,96);stop-opacity:1"/><stop offset="0.71" style="stop-color:rgb(196,153,97);stop-opacity:1"/><stop offset="0.71" style="stop-color:rgb(197,154,98);stop-opacity:1"/><stop offset="0.72" style="stop-color:rgb(197,154,98);stop-opacity:1"/><stop offset="0.72" style="stop-color:rgb(197,155,99);stop-opacity:1"/><stop offset="0.73" style="stop-color:rgb(198,155,100);stop-opacity:1"/><stop offset="0.73" style="stop-color:rgb(198,156,101);stop-opacity:1"/><stop offset="0.73" style="stop-color:rgb(198,157,102);stop-opacity:1"/><stop offset="0.74" style="stop-color:rgb(199,157,102);stop-opacity:1"/><stop offset="0.74" style="stop-color:rgb(199,158,103);stop-opacity:1"/><stop offset="0.75" style="stop-color:rgb(199,158,104);stop-opacity:1"/><stop offset="0.75" style="stop-color:rgb(200,159,105);stop-opacity:1"/><stop offset="0.75" style="stop-color:rgb(200,160,106);stop-opacity:1"/><stop offset="0.76" style="stop-color:rgb(201,160,107);stop-opacity:1"/><stop offset="0.76" style="stop-color:rgb(201,161,108);stop-opacity:1"/><stop offset="0.77" style="stop-color:rgb(202,162,109);stop-opacity:1"/><stop offset="0.77" style="stop-color:rgb(202,162,110);stop-opacity:1"/><stop offset="0.77" style="stop-color:rgb(202,163,111);stop-opacity:1"/><stop offset="0.78" style="stop-color:rgb(203,164,112);stop-opacity:1"/><stop offset="0.78" style="stop-color:rgb(203,165,113);stop-opacity:1"/><stop offset="0.79" style="stop-color:rgb(204,166,114);stop-opacity:1"/><stop offset="0.79" style="stop-color:rgb(204,166,116);stop-opacity:1"/><stop offset="0.79" style="stop-color:rgb(205,167,117);stop-opacity:1"/><stop offset="0.8" style="stop-color:rgb(205,168,118);stop-opacity:1"/><stop offset="0.8" style="stop-color:rgb(206,169,119);stop-opacity:1"/><stop offset="0.8" style="stop-color:rgb(206,170,121);stop-opacity:1"/><stop offset="0.81" style="stop-color:rgb(207,171,122);stop-opacity:1"/><stop offset="0.81" style="stop-color:rgb(208,172,123);stop-opacity:1"/><stop offset="0.82" style="stop-color:rgb(208,173,125);stop-opacity:1"/><stop offset="0.82" style="stop-color:rgb(209,174,126);stop-opacity:1"/><stop offset="0.82" style="stop-color:rgb(209,175,128);stop-opacity:1"/><stop offset="0.83" style="stop-color:rgb(210,176,129);stop-opacity:1"/><stop offset="0.83" style="stop-color:rgb(211,177,131);stop-opacity:1"/><stop offset="0.84" style="stop-color:rgb(211,178,132);stop-opacity:1"/><stop offset="0.84" style="stop-color:rgb(212,179,134);stop-opacity:1"/><stop offset="0.84" style="stop-color:rgb(213,180,136);stop-opacity:1"/><stop offset="0.85" style="stop-color:rgb(213,181,137);stop-opacity:1"/><stop offset="0.85" style="stop-color:rgb(214,182,139);stop-opacity:1"/><stop offset="0.86" style="stop-color:rgb(215,184,141);stop-opacity:1"/><stop offset="0.86" style="stop-color:rgb(216,185,143);stop-opacity:1"/><stop offset="0.86" style="stop-color:rgb(216,186,145);stop-opacity:1"/><stop offset="0.87" style="stop-color:rgb(217,187,147);stop-opacity:1"/><stop offset="0.87" style="stop-color:rgb(218,189,149);stop-opacity:1"/><stop offset="0.88" style="stop-color:rgb(219,190,151);stop-opacity:1"/><stop offset="0.88" style="stop-color:rgb(219,191,153);stop-opacity:1"/><stop offset="0.88" style="stop-color:rgb(220,193,155);stop-opacity:1"/><stop offset="0.89" style="stop-color:rgb(221,194,157);stop-opacity:1"/><stop offset="0.89" style="stop-color:rgb(222,196,160);stop-opacity:1"/><stop offset="0.89" style="stop-color:rgb(223,197,162);stop-opacity:1"/><stop offset="0.9" style="stop-color:rgb(224,199,164);stop-opacity:1"/><stop offset="0.9" style="stop-color:rgb(225,200,167);stop-opacity:1"/><stop offset="0.91" style="stop-color:rgb(226,202,169);stop-opacity:1"/><stop offset="0.91" style="stop-color:rgb(227,204,172);stop-opacity:1"/><stop offset="0.91" style="stop-color:rgb(228,205,175);stop-opacity:1"/><stop offset="0.92" style="stop-color:rgb(229,207,177);stop-opacity:1"/><stop offset="0.92" style="stop-color:rgb(230,209,180);stop-opacity:1"/><stop offset="0.93" style="stop-color:rgb(231,211,183);stop-opacity:1"/><stop offset="0.93" style="stop-color:rgb(232,213,186);stop-opacity:1"/><stop offset="0.93" style="stop-color:rgb(233,215,189);stop-opacity:1"/><stop offset="0.94" style="stop-color:rgb(234,217,192);stop-opacity:1"/><stop offset="0.94" style="stop-color:rgb(235,219,195);stop-opacity:1"/><stop offset="0.95" style="stop-color:rgb(236,221,199);stop-opacity:1"/><stop offset="0.95" style="stop-color:rgb(238,223,202);stop-opacity:1"/><stop offset="0.95" style="stop-color:rgb(239,225,206);stop-opacity:1"/><stop offset="0.96" style="stop-color:rgb(240,227,209);stop-opacity:1"/><stop offset="0.96" style="stop-color:rgb(241,230,213);stop-opacity:1"/><stop offset="0.96" style="stop-color:rgb(243,232,217);stop-opacity:1"/><stop offset="0.97" style="stop-color:rgb(244,234,220);stop-opacity:1"/><stop offset="0.97" style="stop-color:rgb(245,237,224);stop-opacity:1"/><stop offset="0.98" style="stop-color:rgb(247,239,228);stop-opacity:1"/><stop offset="0.98" style="stop-color:rgb(248,242,233);stop-opacity:1"/><stop offset="0.98" style="stop-color:rgb(249,244,237);stop-opacity:1"/><stop offset="0.99" style="stop-color:rgb(251,247,241);stop-opacity:1"/><stop offset="0.99" style="stop-color:rgb(252,250,246);stop-opacity:1"/><stop offset="1" style="stop-color:rgb(254,253,251);stop-opacity:1"/><stop offset="1" style="stop-color:white;stop-opacity:1"/></linearGradient>
        <linearGradient id="_Linear4" x1="0" y1="0" x2="1" y2="0" gradientUnits="userSpaceOnUse" gradientTransform="matrix(1,0,0,-1,-8.28063e-06,-0.0181356)"><stop offset="0" style="stop-color:rgb(57,102,186);stop-opacity:1"/><stop offset="0.25" style="stop-color:rgb(57,102,186);stop-opacity:1"/><stop offset="0.31" style="stop-color:rgb(57,102,186);stop-opacity:1"/><stop offset="0.38" style="stop-color:rgb(58,102,186);stop-opacity:1"/><stop offset="0.41" style="stop-color:rgb(58,103,186);stop-opacity:1"/><stop offset="0.42" style="stop-color:rgb(59,103,186);stop-opacity:1"/><stop offset="0.44" style="stop-color:rgb(59,103,187);stop-opacity:1"/><stop offset="0.45" style="stop-color:rgb(60,103,187);stop-opacity:1"/><stop offset="0.47" style="stop-color:rgb(60,104,187);stop-opacity:1"/><stop offset="0.48" style="stop-color:rgb(61,104,187);stop-opacity:1"/><stop offset="0.49" style="stop-color:rgb(62,104,187);stop-opacity:1"/><stop offset="0.5" style="stop-color:rgb(62,105,188);stop-opacity:1"/><stop offset="0.51" style="stop-color:rgb(62,105,188);stop-opacity:1"/><stop offset="0.52" style="stop-color:rgb(63,105,188);stop-opacity:1"/><stop offset="0.52" style="stop-color:rgb(63,105,188);stop-opacity:1"/><stop offset="0.53" style="stop-color:rgb(64,106,188);stop-opacity:1"/><stop offset="0.54" style="stop-color:rgb(64,106,188);stop-opacity:1"/><stop offset="0.55" style="stop-color:rgb(65,106,189);stop-opacity:1"/><stop offset="0.55" style="stop-color:rgb(65,107,189);stop-opacity:1"/><stop offset="0.56" style="stop-color:rgb(66,107,189);stop-opacity:1"/><stop offset="0.57" style="stop-color:rgb(67,107,189);stop-opacity:1"/><stop offset="0.58" style="stop-color:rgb(67,108,189);stop-opacity:1"/><stop offset="0.59" style="stop-color:rgb(68,108,190);stop-opacity:1"/><stop offset="0.59" style="stop-color:rgb(69,109,190);stop-opacity:1"/><stop offset="0.59" style="stop-color:rgb(69,109,190);stop-opacity:1"/><stop offset="0.6" style="stop-color:rgb(70,109,190);stop-opacity:1"/><stop offset="0.6" style="stop-color:rgb(70,109,190);stop-opacity:1"/><stop offset="0.61" style="stop-color:rgb(71,110,191);stop-opacity:1"/><stop offset="0.61" style="stop-color:rgb(71,110,191);stop-opacity:1"/><stop offset="0.61" style="stop-color:rgb(72,110,191);stop-opacity:1"/><stop offset="0.62" style="stop-color:rgb(72,110,191);stop-opacity:1"/><stop offset="0.62" style="stop-color:rgb(73,111,191);stop-opacity:1"/><stop offset="0.63" style="stop-color:rgb(73,111,192);stop-opacity:1"/><stop offset="0.63" style="stop-color:rgb(74,111,192);stop-opacity:1"/><stop offset="0.63" style="stop-color:rgb(74,112,192);stop-opacity:1"/><stop offset="0.64" style="stop-color:rgb(75,112,192);stop-opacity:1"/><stop offset="0.64" style="stop-color:rgb(75,112,192);stop-opacity:1"/><stop offset="0.64" style="stop-color:rgb(76,113,192);stop-opacity:1"/><stop offset="0.65" style="stop-color:rgb(76,113,193);stop-opacity:1"/><stop offset="0.65" style="stop-color:rgb(77,113,193);stop-opacity:1"/><stop offset="0.66" style="stop-color:rgb(78,114,193);stop-opacity:1"/><stop offset="0.66" style="stop-color:rgb(78,114,193);stop-opacity:1"/><stop offset="0.66" style="stop-color:rgb(79,114,194);stop-opacity:1"/><stop offset="0.67" style="stop-color:rgb(80,115,194);stop-opacity:1"/><stop offset="0.67" style="stop-color:rgb(80,115,194);stop-opacity:1"/><stop offset="0.68" style="stop-color:rgb(81,116,194);stop-opacity:1"/><stop offset="0.68" style="stop-color:rgb(82,116,195);stop-opacity:1"/><stop offset="0.68" style="stop-color:rgb(83,117,195);stop-opacity:1"/><stop offset="0.69" style="stop-color:rgb(83,117,195);stop-opacity:1"/><stop offset="0.69" style="stop-color:rgb(84,118,195);stop-opacity:1"/><stop offset="0.7" style="stop-color:rgb(85,118,196);stop-opacity:1"/><stop offset="0.7" style="stop-color:rgb(86,119,196);stop-opacity:1"/><stop offset="0.7" style="stop-color:rgb(87,119,196);stop-opacity:1"/><stop offset="0.71" style="stop-color:rgb(87,120,197);stop-opacity:1"/><stop offset="0.71" style="stop-color:rgb(88,120,197);stop-opacity:1"/><stop offset="0.71" style="stop-color:rgb(89,121,197);stop-opacity:1"/><stop offset="0.72" style="stop-color:rgb(90,121,198);stop-opacity:1"/><stop offset="0.72" style="stop-color:rgb(91,122,198);stop-opacity:1"/><stop offset="0.73" style="stop-color:rgb(92,123,198);stop-opacity:1"/><stop offset="0.73" style="stop-color:rgb(93,123,199);stop-opacity:1"/><stop offset="0.73" style="stop-color:rgb(94,124,199);stop-opacity:1"/><stop offset="0.74" style="stop-color:rgb(95,124,199);stop-opacity:1"/><stop offset="0.74" style="stop-color:rgb(96,125,200);stop-opacity:1"/><stop offset="0.75" style="stop-color:rgb(97,126,200);stop-opacity:1"/><stop offset="0.75" style="stop-color:rgb(98,127,200);stop-opacity:1"/><stop offset="0.75" style="stop-color:rgb(100,127,201);stop-opacity:1"/><stop offset="0.76" style="stop-color:rgb(101,128,201);stop-opacity:1"/><stop offset="0.76" style="stop-color:rgb(102,129,202);stop-opacity:1"/><stop offset="0.77" style="stop-color:rgb(103,130,202);stop-opacity:1"/><stop offset="0.77" style="stop-color:rgb(104,131,203);stop-opacity:1"/><stop offset="0.77" style="stop-color:rgb(106,131,203);stop-opacity:1"/><stop offset="0.78" style="stop-color:rgb(107,132,203);stop-opacity:1"/><stop offset="0.78" style="stop-color:rgb(108,133,204);stop-opacity:1"/><stop offset="0.79" style="stop-color:rgb(110,134,204);stop-opacity:1"/><stop offset="0.79" style="stop-color:rgb(111,135,205);stop-opacity:1"/><stop offset="0.79" style="stop-color:rgb(112,136,205);stop-opacity:1"/><stop offset="0.8" style="stop-color:rgb(114,137,206);stop-opacity:1"/><stop offset="0.8" style="stop-color:rgb(115,138,206);stop-opacity:1"/><stop offset="0.8" style="stop-color:rgb(117,139,207);stop-opacity:1"/><stop offset="0.81" style="stop-color:rgb(118,140,207);stop-opacity:1"/><stop offset="0.81" style="stop-color:rgb(120,141,208);stop-opacity:1"/><stop offset="0.82" style="stop-color:rgb(122,143,209);stop-opacity:1"/><stop offset="0.82" style="stop-color:rgb(123,144,209);stop-opacity:1"/><stop offset="0.82" style="stop-color:rgb(125,145,210);stop-opacity:1"/><stop offset="0.83" style="stop-color:rgb(127,146,210);stop-opacity:1"/><stop offset="0.83" style="stop-color:rgb(129,148,211);stop-opacity:1"/><stop offset="0.84" style="stop-color:rgb(130,149,212);stop-opacity:1"/><stop offset="0.84" style="stop-color:rgb(132,150,212);stop-opacity:1"/><stop offset="0.84" style="stop-color:rgb(134,152,213);stop-opacity:1"/><stop offset="0.85" style="stop-color:rgb(136,153,214);stop-opacity:1"/><stop offset="0.85" style="stop-color:rgb(138,155,214);stop-opacity:1"/><stop offset="0.86" style="stop-color:rgb(140,156,215);stop-opacity:1"/><stop offset="0.86" style="stop-color:rgb(142,158,216);stop-opacity:1"/><stop offset="0.86" style="stop-color:rgb(144,159,217);stop-opacity:1"/><stop offset="0.87" style="stop-color:rgb(146,161,217);stop-opacity:1"/><stop offset="0.87" style="stop-color:rgb(149,163,218);stop-opacity:1"/><stop offset="0.88" style="stop-color:rgb(151,164,219);stop-opacity:1"/><stop offset="0.88" style="stop-color:rgb(153,166,220);stop-opacity:1"/><stop offset="0.88" style="stop-color:rgb(156,168,221);stop-opacity:1"/><stop offset="0.89" style="stop-color:rgb(158,170,221);stop-opacity:1"/><stop offset="0.89" style="stop-color:rgb(160,172,222);stop-opacity:1"/><stop offset="0.89" style="stop-color:rgb(163,174,223);stop-opacity:1"/><stop offset="0.9" style="stop-color:rgb(166,176,224);stop-opacity:1"/><stop offset="0.9" style="stop-color:rgb(168,178,225);stop-opacity:1"/><stop offset="0.91" style="stop-color:rgb(171,180,226);stop-opacity:1"/><stop offset="0.91" style="stop-color:rgb(174,183,227);stop-opacity:1"/><stop offset="0.91" style="stop-color:rgb(176,185,228);stop-opacity:1"/><stop offset="0.92" style="stop-color:rgb(179,187,229);stop-opacity:1"/><stop offset="0.92" style="stop-color:rgb(182,190,230);stop-opacity:1"/><stop offset="0.93" style="stop-color:rgb(185,192,231);stop-opacity:1"/><stop offset="0.93" style="stop-color:rgb(188,195,232);stop-opacity:1"/><stop offset="0.93" style="stop-color:rgb(191,198,233);stop-opacity:1"/><stop offset="0.94" style="stop-color:rgb(194,200,234);stop-opacity:1"/><stop offset="0.94" style="stop-color:rgb(198,203,235);stop-opacity:1"/><stop offset="0.95" style="stop-color:rgb(201,206,236);stop-opacity:1"/><stop offset="0.95" style="stop-color:rgb(204,209,238);stop-opacity:1"/><stop offset="0.95" style="stop-color:rgb(208,212,239);stop-opacity:1"/><stop offset="0.96" style="stop-color:rgb(211,215,240);stop-opacity:1"/><stop offset="0.96" style="stop-color:rgb(215,218,241);stop-opacity:1"/><stop offset="0.96" style="stop-color:rgb(219,221,243);stop-opacity:1"/><stop offset="0.97" style="stop-color:rgb(222,225,244);stop-opacity:1"/><stop offset="0.97" style="stop-color:rgb(226,228,245);stop-opacity:1"/><stop offset="0.98" style="stop-color:rgb(230,232,247);stop-opacity:1"/><stop offset="0.98" style="stop-color:rgb(234,236,248);stop-opacity:1"/><stop offset="0.98" style="stop-color:rgb(238,239,249);stop-opacity:1"/><stop offset="0.99" style="stop-color:rgb(242,243,251);stop-opacity:1"/><stop offset="0.99" style="stop-color:rgb(247,247,252);stop-opacity:1"/><stop offset="1" style="stop-color:rgb(251,251,254);stop-opacity:1"/><stop offset="1" style="stop-color:white;stop-opacity:1"/></linearGradient>
    </defs>
</svg>
