<?xml version="1.0" encoding="UTF-8" standalone="no"?><!DOCTYPE svg PUBLIC "-//W3C//DTD SVG 1.1//EN" "http://www.w3.org/Graphics/SVG/1.1/DTD/svg11.dtd"><svg width="100%" height="100%" viewBox="0 0 312 182" version="1.1" xmlns="http://www.w3.org/2000/svg" xmlns:xlink="http://www.w3.org/1999/xlink" xml:space="preserve" xmlns:serif="http://www.serif.com/" style="fill-rule:evenodd;clip-rule:evenodd;stroke-linejoin:round;stroke-miterlimit:2;"><g><path d="M173.593,96.987c-71.643,11.499 -43.175,-67.054 -77.218,-66.784c8.367,-4.714 24.045,-20.206 37.716,22.047c11.23,34.71 27.457,38.206 39.502,44.737Z" style="fill:#004f93;fill-rule:nonzero;"/><path d="M85.929,3.833l12.221,4.32l6.807,-7.863l5.748,7.72l13.162,-4.608l-0.573,0.007l-5.865,13.761c0,0 -7.326,-1.952 -13.314,2.461c-6.043,-4.395 -10.488,-4.56 -14.187,-3.183c-0.655,0.253 -3.999,-12.615 -3.999,-12.615Z" style="fill:#f3c220;fill-rule:nonzero;"/><path d="M83.254,110.821c1.211,-3.03 2.347,-6.887 2.774,-11.571l0.339,-3.718c-9.576,28.819 -79.43,11.093 -86.367,54.624c11.022,-29.403 67.878,-4.955 83.254,-39.335Z" style="fill:#004f93;fill-rule:nonzero;"/><path d="M91.216,78.44c3.1,23.716 3.418,31.579 -8.395,44.635c3.836,0.046 20.836,-1.181 21.399,-14.254c0.634,-14.738 -11.151,-30.18 -13.004,-30.381Z" style="fill:#004f93;fill-rule:nonzero;"/><path d="M145.069,103.844c-19.605,-6.23 -22.695,-12.581 -29.862,-33.598c-6.594,-19.337 -8.516,-34.98 -26.656,-37.288c-0.825,-0.105 -0.258,-1.283 -0.188,-1.804c0.936,-2.613 7.162,-7.479 11.8,-9.669c-0.876,-2.251 -17.877,-2.131 -26.874,10.222c-2.458,0.571 -5.135,1.319 -6.402,2.094c-1.414,0.86 -2.078,2.419 -2.394,3.69c-4.393,2.145 -8.69,3.765 -10.352,4.234c-3.224,0.912 -13.307,5.843 -15.88,7.868c-5.338,4.207 -11.139,5.518 -6.78,15.056c1.442,3.162 3.458,7.803 3.546,7.768c0.566,1.302 0.891,2.159 0.891,2.159l0.239,-2.547c3.078,-0.908 7.684,-1.121 10.58,3.636c0.727,1.195 2.788,7.941 1.66,9.589c0,0 -3.687,3.552 -4.984,3.89l-1.808,-1.116l0.974,5.613c0,0 -2.931,0.422 -2.401,2.763c0.488,2.158 0.749,8.408 9.288,7.596c8.671,-1.283 10.664,-29.47 -4.096,-37.869c-6.028,-3.43 3.027,-3.507 4.032,-8.92l-3.345,-0.538c1.908,-4.414 9.15,-5.8 10.992,-5.139c1.84,0.665 2.546,3.144 4.895,3.025c1.341,-0.069 3.129,-0.401 3.978,-2.628c0.85,-2.228 0.579,-4.374 -0.29,-2.909c-0.868,1.456 -2.221,1.532 -2.221,1.532c0,0 -4.592,-2.059 -2.66,-5.757c1.929,-3.703 7.676,-0.667 7.676,-0.667c0,0 -0.723,6.042 0.193,6.595c0.712,0.434 7.208,-2.95 7.615,-3.131c6.017,-2.633 15.758,1.168 20.221,9.707c14.378,27.508 6.24,63.565 48.613,46.543Z" style="fill:#004f93;fill-rule:nonzero;"/><path d="M125.16,140.567l0.362,0.947l0.363,-0.947l8.423,-21.941l0.202,-0.528l-0.566,0l-2.517,0l-0.27,0l-0.094,0.253l-5.509,14.809l-5.51,-14.809l-0.094,-0.253l-0.27,0l-2.548,0l-0.566,0l0.203,0.527l8.391,21.942Z" style="fill:#231f20;fill-rule:nonzero;"/><path d="M139.175,139.604l0.388,0l0,-0.389l0,-20.728l0,-0.389l-0.388,0l-2.331,0l-0.388,0l0,21.506l2.719,0Z" style="fill:#231f20;fill-rule:nonzero;"/><path d="M152.568,139.604l0.389,0l0,-0.389l0,-2.144l0,-0.389l-0.389,0l-5.298,0l0,-18.195l0,-0.389l-0.389,0l-2.33,0l-0.389,0l0,21.506l8.406,0Z" style="fill:#231f20;fill-rule:nonzero;"/><path d="M164.087,139.215l0,-2.144l0,-0.389l-0.389,0l-5.299,0l0,-18.195l0,-0.389l-0.387,0l-2.331,0l-0.389,0l0,21.506l8.795,0l0,-0.389Z" style="fill:#231f20;fill-rule:nonzero;"/><path d="M177.532,139.604l0.389,0l0,-0.389l0,-2.144l0,-0.389l-0.389,0l-8.003,0l0,-7.334l8.174,0l0,-0.388l0,-2.145l0,-0.388l-0.389,0l-7.785,0l0,-5.408l8.392,0l0,-0.388l0,-2.144l0,-0.389l-0.389,0l-10.721,0l-0.389,0l0,21.506l11.11,0Z" style="fill:#231f20;fill-rule:nonzero;"/><path d="M193.922,136.682l-1.631,0l0,-15.663l1.631,0c2.602,0 4.767,0.791 6.264,2.286c1.381,1.382 2.112,3.305 2.112,5.562c0,4.748 -3.288,7.815 -8.376,7.815Zm-0.124,2.922c3.446,0 5.715,-0.719 7.832,-2.483c2.47,-2.047 3.775,-4.891 3.775,-8.223c0,-3.433 -1.284,-6.309 -3.715,-8.317c-2.06,-1.74 -4.413,-2.483 -7.861,-2.483l-4.258,0l-0.388,0l0,21.506l4.615,0Z" style="fill:#231f20;fill-rule:nonzero;"/><path d="M219.972,139.604l0.388,0l0,-0.389l0,-2.144l0,-0.389l-0.388,0l-8.002,0l0,-7.334l8.173,0l0,-0.388l0,-2.145l0,-0.388l-0.388,0l-7.785,0l0,-5.408l8.39,0l0,-0.388l0,-2.144l0,-0.389l-0.388,0l-10.722,0l-0.389,0l0,21.506l11.111,0Z" style="fill:#231f20;fill-rule:nonzero;"/><path d="M32.749,176.04l0,-28.216l0,-0.389l-0.389,0l-3.588,0l-0.388,0l0,32.682l13.118,0l0,-0.388l0,-3.301l0,-0.388l-0.389,0l-8.364,0Z" style="fill:#231f20;fill-rule:nonzero;"/><path d="M63.965,147.435l-0.388,0l0,19.952c0,3.236 -0.234,4.62 -0.999,5.926c-1.164,1.882 -3.842,3.252 -6.361,3.252c-2.589,0 -5.226,-1.34 -6.414,-3.26c-0.76,-1.298 -0.994,-2.682 -0.994,-5.918l0,-19.563l0,-0.389l-0.389,0l-3.587,0l-0.389,0l0,20.909c0,3.594 0.613,5.78 2.187,7.797c2.116,2.805 5.79,4.55 9.586,4.55c3.773,0 7.339,-1.701 9.539,-4.552c1.574,-2.064 2.186,-4.25 2.186,-7.795l0,-20.52l0,-0.389l-0.389,0l-3.588,0Z" style="fill:#231f20;fill-rule:nonzero;"/><path d="M86.274,163.228l8.692,-15.212l0.332,-0.581l-0.669,0l-4.066,0l-0.228,0l-0.111,0.198l-6.401,11.397l-6.265,-11.394l-0.11,-0.201l-0.23,0l-4.066,0l-0.662,0l0.323,0.578l8.503,15.211l-9.314,16.312l-0.333,0.581l4.915,0l0.111,-0.198l7.074,-12.504l6.982,12.502l0.111,0.2l4.86,0l-0.323,-0.578l-9.125,-16.311Z" style="fill:#231f20;fill-rule:nonzero;"/><path d="M99.893,147.435l-0.389,0l0,32.682l17.281,0l0,-0.388l0,-3.301l0,-0.388l-0.389,0l-12.526,0l0,-11.708l12.579,0l0,-0.389l0,-3.3l0,-0.389l-0.388,0l-12.191,0l0,-8.741l12.915,0l0,-0.389l0,-3.3l0,-0.389l-0.389,0l-16.503,0Z" style="fill:#231f20;fill-rule:nonzero;"/><path d="M152.226,145.95l-0.188,-1.289l-0.55,1.181l-12.175,26.211l-11.896,-26.16l-0.537,-1.182l-0.2,1.283l-5.262,33.673l-0.07,0.45l4.427,0l0.047,-0.334l2.97,-20.878l10.163,22.324l0.352,0.771l0.355,-0.77l10.297,-22.317l2.788,20.867l0.046,0.337l4.425,0l-0.066,-0.446l-4.926,-33.721Z" style="fill:#231f20;fill-rule:nonzero;"/><path d="M179.146,170.592c0,1.645 -0.698,3.156 -1.914,4.148c-1.227,1.008 -2.427,1.3 -5.351,1.3l-3.677,0l0,-10.751l3.198,0c2.53,0 4.103,0.285 5.26,0.952c1.465,0.8 2.484,2.588 2.484,4.351Zm-8.652,-9.094l-2.29,0l0,-9.985l2.386,0c2.065,0 3.588,0.475 4.525,1.412c0.802,0.803 1.208,1.983 1.208,3.508c0,3.455 -1.851,5.065 -5.829,5.065Zm7.358,1.011c1.881,-1.562 2.741,-3.463 2.741,-6.076c0,-2.733 -1.193,-5.379 -3.114,-6.905c-1.745,-1.446 -4.048,-2.093 -7.463,-2.093l-5.787,0l-0.39,0l0,32.682l8.329,0c3.765,0 5.918,-0.607 7.945,-2.239c2.16,-1.758 3.35,-4.295 3.35,-7.142c0,-3.897 -2.083,-6.922 -5.611,-8.227Z" style="fill:#231f20;fill-rule:nonzero;"/><path d="M204.156,151.035c3.353,0 6.502,1.303 8.87,3.672c2.42,2.419 3.753,5.666 3.753,9.14c0,7.013 -5.663,12.718 -12.623,12.718c-3.351,0 -6.491,-1.294 -8.841,-3.645c-2.438,-2.436 -3.78,-5.744 -3.78,-9.312c0,-3.317 1.317,-6.459 3.707,-8.849c2.402,-2.402 5.568,-3.724 8.914,-3.724Zm0.049,-4.126c-9.233,0 -17.035,7.647 -17.035,16.699c0,4.631 1.763,8.943 4.963,12.143c3.184,3.186 7.471,4.94 12.072,4.94c4.491,0 8.74,-1.776 11.963,-4.999c3.209,-3.208 4.976,-7.432 4.976,-11.893c0,-4.46 -1.767,-8.683 -4.975,-11.891c-3.224,-3.224 -7.473,-4.999 -11.964,-4.999Z" style="fill:#231f20;fill-rule:nonzero;"/><path d="M246.446,147.435l-0.389,0l0,19.952c0,3.236 -0.233,4.62 -0.998,5.926c-1.165,1.882 -3.842,3.252 -6.362,3.252c-2.589,0 -5.225,-1.34 -6.414,-3.26c-0.761,-1.298 -0.994,-2.682 -0.994,-5.918l0,-19.563l0,-0.389l-0.389,0l-3.587,0l-0.389,0l0,20.909c0,3.594 0.613,5.78 2.187,7.797c2.116,2.805 5.79,4.55 9.586,4.55c3.773,0 7.339,-1.701 9.539,-4.552c1.574,-2.064 2.186,-4.25 2.186,-7.795l0,-20.52l0,-0.389l-0.389,0l-3.587,0Z" style="fill:#231f20;fill-rule:nonzero;"/><path d="M270.837,156.625c0,3.709 -2.235,5.59 -6.644,5.59l-1.859,0l0,-10.702l1.717,0c2.546,0 4.406,0.569 5.529,1.693c0.834,0.834 1.257,1.984 1.257,3.419Zm-3.467,9.147c4.788,-0.729 7.735,-4.176 7.735,-9.147c0,-2.989 -1.419,-5.824 -3.707,-7.4c-1.859,-1.272 -4.14,-1.79 -7.874,-1.79l-5.166,0l-0.388,0l0,32.682l4.364,0l0,-0.388l0,-13.579l0.316,0l9.499,13.799l0.117,0.168l5.309,0l-0.436,-0.614l-9.769,-13.731Z" style="fill:#231f20;fill-rule:nonzero;"/><path d="M311.446,163.316l-13.298,0l-0.388,0l0,4.077l9.434,0c-0.159,1.697 -0.495,2.79 -1.194,3.901c-1.837,3.029 -5.82,5.223 -9.478,5.223c-3.323,0 -6.463,-1.31 -8.843,-3.688c-2.406,-2.406 -3.731,-5.596 -3.731,-8.982c0,-3.455 1.322,-6.678 3.72,-9.076c2.409,-2.41 5.655,-3.736 9.142,-3.736c4.085,0 7.264,1.796 10.309,5.824l0.256,0.34l0.314,-0.286l2.632,-2.392l0.277,-0.252l-0.241,-0.286c-4.173,-4.959 -8.224,-7.074 -13.547,-7.074c-9.66,0 -17.226,7.44 -17.226,16.938c0,4.457 1.758,8.67 4.95,11.863c3.182,3.181 7.371,4.933 11.798,4.933c5.554,0 10.886,-2.947 13.584,-7.51c1.382,-2.368 1.919,-4.783 1.919,-8.616l0,-0.813l0,-0.388l-0.389,0Z" style="fill:#231f20;fill-rule:nonzero;"/></g></svg>