<svg viewBox="0 0 312 182" xmlns="http://www.w3.org/2000/svg" xml:space="preserve" style="fill-rule:evenodd;clip-rule:evenodd;stroke-linejoin:round;stroke-miterlimit:2"><path d="M173.593 96.987c-71.643 11.499-43.175-67.054-77.218-66.784 8.367-4.714 24.045-20.206 37.716 22.047 11.23 34.71 27.457 38.206 39.502 44.737Z" style="fill:#004f93;fill-rule:nonzero"/><path d="m85.929 3.833 12.221 4.32L104.957.29l5.748 7.72 13.162-4.608-.573.007-5.865 13.761s-7.326-1.952-13.314 2.461c-6.043-4.395-10.488-4.56-14.187-3.183-.655.253-3.999-12.615-3.999-12.615Z" style="fill:#f3c220;fill-rule:nonzero"/><path d="M83.254 110.821a40.997 40.997 0 0 0 2.774-11.571l.339-3.718C76.791 124.351 6.937 106.625 0 150.156c11.022-29.403 67.878-4.955 83.254-39.335ZM91.216 78.44c3.1 23.716 3.418 31.579-8.395 44.635 3.836.046 20.836-1.181 21.399-14.254.634-14.738-11.151-30.18-13.004-30.381Z" style="fill:#004f93;fill-rule:nonzero"/><path d="M145.069 103.844c-19.605-6.23-22.695-12.581-29.862-33.598-6.594-19.337-8.516-34.98-26.656-37.288-.825-.105-.258-1.283-.188-1.804.936-2.613 7.162-7.479 11.8-9.669-.876-2.251-17.877-2.131-26.874 10.222-2.458.571-5.135 1.319-6.402 2.094-1.414.86-2.078 2.419-2.394 3.69-4.393 2.145-8.69 3.765-10.352 4.234-3.224.912-13.307 5.843-15.88 7.868-5.338 4.207-11.139 5.518-6.78 15.056 1.442 3.162 3.458 7.803 3.546 7.768.566 1.302.891 2.159.891 2.159l.239-2.547c3.078-.908 7.684-1.121 10.58 3.636.727 1.195 2.788 7.941 1.66 9.589 0 0-3.687 3.552-4.984 3.89l-1.808-1.116.974 5.613s-2.931.422-2.401 2.763c.488 2.158.749 8.408 9.288 7.596 8.671-1.283 10.664-29.47-4.096-37.869-6.028-3.43 3.027-3.507 4.032-8.92l-3.345-.538c1.908-4.414 9.15-5.8 10.992-5.139 1.84.665 2.546 3.144 4.895 3.025 1.341-.069 3.129-.401 3.978-2.628.85-2.228.579-4.374-.29-2.909-.868 1.456-2.221 1.532-2.221 1.532s-4.592-2.059-2.66-5.757c1.929-3.703 7.676-.667 7.676-.667s-.723 6.042.193 6.595c.712.434 7.208-2.95 7.615-3.131 6.017-2.633 15.758 1.168 20.221 9.707 14.378 27.508 6.24 63.565 48.613 46.543Z" style="fill:#004f93;fill-rule:nonzero"/><path d="m125.16 140.567.362.947.363-.947 8.423-21.941.202-.528H131.157l-.094.253-5.509 14.809-5.51-14.809-.094-.253h-3.384l.203.527 8.391 21.942ZM139.175 139.604h.388v-21.506H136.456v21.506h2.719ZM152.568 139.604h.389V136.682h-5.687v-18.584H144.162v21.506h8.406ZM164.087 139.215V136.682H158.399v-18.584h-3.107v21.506h8.795v-.389ZM177.532 139.604h.389V136.682h-8.392v-7.334h8.174v-2.921h-8.174v-5.408h8.392V118.098H166.422v21.506h11.11ZM193.922 136.682h-1.631v-15.663h1.631c2.602 0 4.767.791 6.264 2.286 1.381 1.382 2.112 3.305 2.112 5.562 0 4.748-3.288 7.815-8.376 7.815Zm-.124 2.922c3.446 0 5.715-.719 7.832-2.483 2.47-2.047 3.775-4.891 3.775-8.223 0-3.433-1.284-6.309-3.715-8.317-2.06-1.74-4.413-2.483-7.861-2.483h-4.646v21.506h4.615ZM219.972 139.604h.388V136.682h-8.39v-7.334h8.173v-2.921h-8.173v-5.408h8.39V118.098H208.861v21.506h11.111ZM32.749 176.04v-28.605h-4.365v32.682h13.118v-4.077h-8.753ZM63.965 147.435h-.388v19.952c0 3.236-.234 4.62-.999 5.926-1.164 1.882-3.842 3.252-6.361 3.252-2.589 0-5.226-1.34-6.414-3.26-.76-1.298-.994-2.682-.994-5.918V147.435h-4.365v20.909c0 3.594.613 5.78 2.187 7.797 2.116 2.805 5.79 4.55 9.586 4.55 3.773 0 7.339-1.701 9.539-4.552 1.574-2.064 2.186-4.25 2.186-7.795v-20.909H63.965ZM86.274 163.228l8.692-15.212.332-.581H90.335l-.111.198-6.401 11.397-6.265-11.394-.11-.201H72.49l.323.578 8.503 15.211-9.314 16.312-.333.581h4.915l.111-.198 7.074-12.504 6.982 12.502.111.2h4.86l-.323-.578-9.125-16.311ZM99.893 147.435h-.389v32.682h17.281v-4.077H103.87v-11.708h12.579v-4.078H103.87v-8.741h12.915v-4.078H99.893ZM152.226 145.95l-.188-1.289-.55 1.181-12.175 26.211-11.896-26.16-.537-1.182-.2 1.283-5.262 33.673-.07.45h4.427l.047-.334 2.97-20.878 10.163 22.324.352.771.355-.77 10.297-22.317 2.788 20.867.046.337h4.425l-.066-.446-4.926-33.721ZM179.146 170.592c0 1.645-.698 3.156-1.914 4.148-1.227 1.008-2.427 1.3-5.351 1.3h-3.677v-10.751h3.198c2.53 0 4.103.285 5.26.952 1.465.8 2.484 2.588 2.484 4.351Zm-8.652-9.094h-2.29v-9.985h2.386c2.065 0 3.588.475 4.525 1.412.802.803 1.208 1.983 1.208 3.508 0 3.455-1.851 5.065-5.829 5.065Zm7.358 1.011c1.881-1.562 2.741-3.463 2.741-6.076 0-2.733-1.193-5.379-3.114-6.905-1.745-1.446-4.048-2.093-7.463-2.093h-6.177v32.682h8.329c3.765 0 5.918-.607 7.945-2.239 2.16-1.758 3.35-4.295 3.35-7.142 0-3.897-2.083-6.922-5.611-8.227ZM204.156 151.035c3.353 0 6.502 1.303 8.87 3.672 2.42 2.419 3.753 5.666 3.753 9.14 0 7.013-5.663 12.718-12.623 12.718-3.351 0-6.491-1.294-8.841-3.645-2.438-2.436-3.78-5.744-3.78-9.312 0-3.317 1.317-6.459 3.707-8.849 2.402-2.402 5.568-3.724 8.914-3.724Zm.049-4.126c-9.233 0-17.035 7.647-17.035 16.699 0 4.631 1.763 8.943 4.963 12.143 3.184 3.186 7.471 4.94 12.072 4.94 4.491 0 8.74-1.776 11.963-4.999 3.209-3.208 4.976-7.432 4.976-11.893 0-4.46-1.767-8.683-4.975-11.891-3.224-3.224-7.473-4.999-11.964-4.999ZM246.446 147.435h-.389v19.952c0 3.236-.233 4.62-.998 5.926-1.165 1.882-3.842 3.252-6.362 3.252-2.589 0-5.225-1.34-6.414-3.26-.761-1.298-.994-2.682-.994-5.918V147.435h-4.365v20.909c0 3.594.613 5.78 2.187 7.797 2.116 2.805 5.79 4.55 9.586 4.55 3.773 0 7.339-1.701 9.539-4.552 1.574-2.064 2.186-4.25 2.186-7.795v-20.909h-3.976ZM270.837 156.625c0 3.709-2.235 5.59-6.644 5.59h-1.859v-10.702h1.717c2.546 0 4.406.569 5.529 1.693.834.834 1.257 1.984 1.257 3.419Zm-3.467 9.147c4.788-.729 7.735-4.176 7.735-9.147 0-2.989-1.419-5.824-3.707-7.4-1.859-1.272-4.14-1.79-7.874-1.79h-5.554v32.682h4.364V166.15h.316l9.499 13.799.117.168h5.309l-.436-.614-9.769-13.731ZM311.446 163.316H297.76v4.077h9.434c-.159 1.697-.495 2.79-1.194 3.901-1.837 3.029-5.82 5.223-9.478 5.223-3.323 0-6.463-1.31-8.843-3.688a12.625 12.625 0 0 1-3.731-8.982c0-3.455 1.322-6.678 3.72-9.076 2.409-2.41 5.655-3.736 9.142-3.736 4.085 0 7.264 1.796 10.309 5.824l.256.34.314-.286 2.632-2.392.277-.252-.241-.286c-4.173-4.959-8.224-7.074-13.547-7.074-9.66 0-17.226 7.44-17.226 16.938 0 4.457 1.758 8.67 4.95 11.863 3.182 3.181 7.371 4.933 11.798 4.933 5.554 0 10.886-2.947 13.584-7.51 1.382-2.368 1.919-4.783 1.919-8.616v-1.201h-.389Z" style="fill:#231f20;fill-rule:nonzero"/></svg>