<?xml version="1.0" encoding="UTF-8" standalone="no"?>
<!-- Created with Inkscape (http://www.inkscape.org/) -->

<svg
   xmlns:dc="http://purl.org/dc/elements/1.1/"
   xmlns:cc="http://creativecommons.org/ns#"
   xmlns:rdf="http://www.w3.org/1999/02/22-rdf-syntax-ns#"
   xmlns:svg="http://www.w3.org/2000/svg"
   xmlns="http://www.w3.org/2000/svg"
   xmlns:sodipodi="http://sodipodi.sourceforge.net/DTD/sodipodi-0.dtd"
   xmlns:inkscape="http://www.inkscape.org/namespaces/inkscape"
   version="1.1"
   id="svg2"
   xml:space="preserve"
   width="342.332"
   height="113.7284"
   viewBox="0 0 342.332 113.7284"
   sodipodi:docname="vinsmoselle.svg"
   inkscape:version="0.92.5 (2060ec1f9f, 2020-04-08)"><metadata
     id="metadata8"><rdf:RDF><cc:Work
         rdf:about=""><dc:format>image/svg+xml</dc:format><dc:type
           rdf:resource="http://purl.org/dc/dcmitype/StillImage" /><dc:title></dc:title></cc:Work></rdf:RDF></metadata><defs
     id="defs6"><clipPath
       clipPathUnits="userSpaceOnUse"
       id="clipPath18"><path
         d="M 3.663,4.878 H 251.998 V 81.07 H 3.663 Z"
         id="path16"
         inkscape:connector-curvature="0" /></clipPath></defs><sodipodi:namedview
     pagecolor="#ffffff"
     bordercolor="#666666"
     borderopacity="1"
     objecttolerance="10"
     gridtolerance="10"
     guidetolerance="10"
     inkscape:pageopacity="0"
     inkscape:pageshadow="2"
     inkscape:window-width="1454"
     inkscape:window-height="952"
     id="namedview4"
     showgrid="false"
     inkscape:zoom="0.83836743"
     inkscape:cx="110.35541"
     inkscape:cy="134.684"
     inkscape:window-x="0"
     inkscape:window-y="0"
     inkscape:window-maximized="0"
     inkscape:current-layer="g10" /><g
     id="g10"
     inkscape:groupmode="layer"
     inkscape:label="DVM-Logo"
     transform="matrix(1.3333333,0,0,-1.3333333,0,113.7284)"><g
       id="g12"><g
         id="g14"
         clip-path="url(#clipPath18)"><g
           id="g20"
           transform="translate(65.3474,5.0462)"><path
             d="M 0,0 H 7.042 V 1.96 H 2.157 V 9.799 H 0 Z m 15.273,-0.154 c 2.632,0 4.297,1.455 4.297,4.424 V 9.799 H 17.415 V 4.186 c 0,-1.554 -0.797,-2.352 -2.114,-2.352 -1.315,0 -2.114,0.825 -2.114,2.422 v 5.543 h -2.156 v -5.6 c 0,-2.883 1.611,-4.353 4.242,-4.353 M 23.687,0 h 2.45 L 28.348,3.359 30.545,0 h 2.52 l -3.414,5.011 3.275,4.788 h -2.45 L 28.404,6.621 26.346,9.799 h -2.52 l 3.277,-4.816 z m 13.789,0 h 7.461 v 1.917 h -5.32 v 2.059 h 4.62 v 1.917 h -4.62 v 1.989 h 5.25 v 1.917 h -7.391 z m 12.179,0 h 2.113 v 6.356 l 2.73,-4.144 h 0.056 l 2.758,4.184 V 0 h 2.143 V 9.799 H 57.13 L 54.554,5.655 51.979,9.799 h -2.324 z m 14.951,0 h 4.662 c 2.211,0 3.667,0.896 3.667,2.688 v 0.027 c 0,1.316 -0.699,1.974 -1.833,2.408 0.699,0.392 1.288,1.009 1.288,2.114 v 0.029 c 0,0.671 -0.224,1.217 -0.672,1.666 -0.56,0.56 -1.442,0.867 -2.562,0.867 h -4.55 z m 2.1,5.837 v 2.072 h 2.127 c 0.91,0 1.414,-0.363 1.414,-1.008 V 6.874 c 0,-0.728 -0.601,-1.037 -1.553,-1.037 z m 0,-3.947 v 2.155 h 2.492 c 1.105,0 1.595,-0.405 1.595,-1.064 V 2.954 c 0,-0.728 -0.574,-1.064 -1.525,-1.064 z m 15.216,-2.058 c 3.025,0 5.222,2.282 5.222,5.068 v 0.028 c 0,2.786 -2.17,5.039 -5.194,5.039 -3.024,0 -5.221,-2.282 -5.221,-5.067 V 4.871 c 0,-2.786 2.17,-5.039 5.193,-5.039 M 81.95,1.82 c -1.736,0 -2.968,1.399 -2.968,3.08 v 0.028 c 0,1.679 1.205,3.051 2.94,3.051 1.737,0 2.969,-1.399 2.969,-3.079 V 4.871 c 0,-1.68 -1.205,-3.051 -2.941,-3.051 m 13.607,-1.974 c 2.632,0 4.298,1.455 4.298,4.424 V 9.799 H 97.699 V 4.186 c 0,-1.554 -0.798,-2.352 -2.114,-2.352 -1.316,0 -2.113,0.825 -2.113,2.422 v 5.543 h -2.157 v -5.6 c 0,-2.883 1.61,-4.353 4.242,-4.353 M 104.783,0 h 2.155 v 3.136 h 1.666 0.029 L 110.732,0 h 2.52 l -2.394,3.5 c 1.247,0.462 2.1,1.456 2.1,3.038 v 0.026 c 0,0.925 -0.293,1.696 -0.839,2.241 -0.645,0.644 -1.611,0.994 -2.857,0.994 h -4.479 z m 2.155,5.039 v 2.814 h 2.143 c 1.049,0 1.694,-0.475 1.694,-1.4 V 6.426 c 0,-0.826 -0.603,-1.387 -1.653,-1.387 z m 14.993,-5.207 c 1.792,0 3.179,0.699 4.187,1.554 v 4.256 h -4.256 V 3.78 h 2.169 v -1.4 c -0.545,-0.392 -1.246,-0.588 -2.03,-0.588 -1.736,0 -2.967,1.314 -2.967,3.108 v 0.028 c 0,1.666 1.245,3.051 2.813,3.051 1.135,0 1.807,-0.364 2.562,-0.994 l 1.357,1.638 c -1.021,0.869 -2.085,1.344 -3.849,1.344 -2.967,0 -5.137,-2.282 -5.137,-5.067 V 4.871 c 0,-2.897 2.099,-5.039 5.151,-5.039"
             style="fill:#0082ac;fill-opacity:1;fill-rule:nonzero;stroke:none"
             id="path22"
             inkscape:connector-curvature="0" /></g><g
           id="g24"
           transform="translate(12.1658,29.4793)"><path
             d="M 0,0 H 4.086 L 12.59,21.183 H 7.602 L 2.104,6.37 -3.395,21.183 h -5.108 z m 18.75,0.15 h 4.627 V 21.183 H 18.75 Z m 12.889,0 h 4.568 V 13.521 L 46.393,0.15 h 3.936 V 21.183 H 45.761 V 8.233 l -9.855,12.95 h -4.267 z m 33.923,-0.3 c 4.537,0 7.722,2.343 7.722,6.52 v 0.06 c 0,3.666 -2.404,5.198 -6.67,6.31 -3.636,0.931 -4.537,1.382 -4.537,2.764 v 0.06 c 0,1.022 0.931,1.833 2.704,1.833 1.773,0 3.606,-0.781 5.469,-2.073 l 2.403,3.486 c -2.133,1.712 -4.747,2.673 -7.812,2.673 -4.297,0 -7.362,-2.524 -7.362,-6.339 v -0.061 c 0,-4.176 2.735,-5.348 6.972,-6.429 3.515,-0.902 4.236,-1.503 4.236,-2.675 v -0.06 c 0,-1.232 -1.142,-1.983 -3.035,-1.983 -2.403,0 -4.386,0.992 -6.279,2.554 L 56.638,3.215 c 2.524,-2.254 5.739,-3.365 8.924,-3.365 m 14.453,0.3 h 4.537 v 13.642 l 5.859,-8.894 h 0.12 l 5.919,8.984 V 0.15 h 4.597 V 21.183 H 96.06 l -5.529,-8.894 -5.529,8.894 h -4.987 z m 38.851,-0.36 c 6.489,0 11.207,4.897 11.207,10.877 v 0.06 c 0,5.979 -4.657,10.816 -11.148,10.816 -6.49,0 -11.207,-4.897 -11.207,-10.876 v -0.061 c 0,-5.979 4.657,-10.816 11.148,-10.816 m 0.059,4.267 c -3.725,0 -6.369,3.004 -6.369,6.61 v 0.06 c 0,3.606 2.584,6.55 6.31,6.55 3.725,0 6.369,-3.005 6.369,-6.61 v -0.061 c 0,-3.605 -2.584,-6.549 -6.31,-6.549 m 25.6,-4.207 c 4.537,0 7.723,2.343 7.723,6.52 v 0.06 c 0,3.666 -2.405,5.198 -6.671,6.31 -3.636,0.931 -4.537,1.382 -4.537,2.764 v 0.06 c 0,1.022 0.931,1.833 2.704,1.833 1.773,0 3.606,-0.781 5.468,-2.073 l 2.405,3.486 c -2.134,1.712 -4.748,2.673 -7.813,2.673 -4.297,0 -7.361,-2.524 -7.361,-6.339 v -0.061 c 0,-4.176 2.734,-5.348 6.971,-6.429 3.515,-0.902 4.236,-1.503 4.236,-2.675 v -0.06 c 0,-1.232 -1.142,-1.983 -3.034,-1.983 -2.405,0 -4.387,0.992 -6.281,2.554 l -2.734,-3.275 c 2.524,-2.254 5.739,-3.365 8.924,-3.365 m 14.753,0.3 h 16.015 v 4.117 h -11.418 v 4.417 h 9.916 V 12.8 h -9.916 v 4.267 h 11.268 v 4.116 h -15.865 z m 22.836,0 h 15.113 v 4.207 h -10.486 v 16.826 h -4.627 z m 20.851,0 h 15.114 v 4.207 h -10.487 v 16.826 h -4.627 z m 20.853,0 h 16.015 v 4.117 h -11.418 v 4.417 h 9.915 V 12.8 h -9.915 v 4.267 h 11.267 v 4.116 h -15.864 z"
             style="fill:#393536;fill-opacity:1;fill-rule:nonzero;stroke:none"
             id="path26"
             inkscape:connector-curvature="0" /></g><g
           id="g28"
           transform="translate(35.0012,59.6766)"><path
             d="m 0,0 h 8.203 c 6.61,0 11.177,4.597 11.177,10.516 v 0.06 c 0,5.92 -4.567,10.457 -11.177,10.457 H 0 Z m 4.627,4.176 v 12.68 h 3.576 c 3.786,0 6.339,-2.614 6.339,-6.34 v -0.06 c 0,-3.726 -2.553,-6.28 -6.339,-6.28 z m 31.94,-4.537 c 6.49,0 11.207,4.898 11.207,10.877 v 0.06 c 0,5.98 -4.657,10.817 -11.147,10.817 -6.49,0 -11.208,-4.897 -11.208,-10.877 v -0.06 c 0,-5.979 4.658,-10.817 11.148,-10.817 m 0.06,4.267 c -3.726,0 -6.37,3.005 -6.37,6.61 v 0.06 c 0,3.606 2.584,6.55 6.31,6.55 3.726,0 6.37,-3.004 6.37,-6.61 v -0.06 c 0,-3.605 -2.584,-6.55 -6.31,-6.55 M 54.445,0 h 4.537 v 13.641 l 5.859,-8.894 h 0.12 l 5.919,8.984 V 0 h 4.598 V 21.033 H 70.49 l -5.529,-8.894 -5.528,8.894 h -4.988 z m 26.982,0 h 4.717 l 1.923,4.717 h 8.894 L 98.884,0 h 4.838 l -9.014,21.183 h -4.267 z m 8.293,8.804 2.794,6.82 2.795,-6.82 z M 109.581,0 h 4.627 v 21.033 h -4.627 z m 12.889,0 h 4.566 V 13.371 L 137.223,0 h 3.935 v 21.033 h -4.566 V 8.083 l -9.856,12.95 h -4.266 z m 26.741,0 h 16.016 v 4.116 h -11.418 v 4.417 h 9.915 v 4.116 h -9.915 v 4.267 h 11.267 v 4.117 h -15.865 z m 30.618,-0.301 c 4.537,0 7.722,2.344 7.722,6.521 v 0.06 c 0,3.665 -2.404,5.198 -6.67,6.309 -3.636,0.932 -4.537,1.383 -4.537,2.765 v 0.06 c 0,1.022 0.93,1.833 2.704,1.833 1.772,0 3.605,-0.782 5.469,-2.074 l 2.403,3.486 c -2.134,1.713 -4.747,2.674 -7.813,2.674 -4.295,0 -7.361,-2.524 -7.361,-6.34 v -0.06 c 0,-4.176 2.734,-5.348 6.971,-6.43 3.515,-0.901 4.237,-1.502 4.237,-2.674 v -0.06 c 0,-1.232 -1.142,-1.983 -3.035,-1.983 -2.403,0 -4.387,0.991 -6.279,2.554 l -2.735,-3.276 c 2.524,-2.253 5.739,-3.365 8.924,-3.365"
             style="fill:#393536;fill-opacity:1;fill-rule:nonzero;stroke:none"
             id="path30"
             inkscape:connector-curvature="0" /></g></g></g></g></svg>