<svg xmlns="http://www.w3.org/2000/svg" xml:space="preserve" width="342.332" height="113.728" viewBox="0 0 342.332 113.728"><defs><clipPath clipPathUnits="userSpaceOnUse" id="a"><path d="M3.663 4.878h248.335V81.07H3.663Z"/></clipPath></defs><g clip-path="url(#a)" transform="matrix(1.33333 0 0 -1.33333 0 113.728)"><path d="M0 0h7.042v1.96H2.157v7.839H0Zm15.273-.154c2.632 0 4.297 1.455 4.297 4.424v5.529h-2.155V4.186c0-1.554-.797-2.352-2.114-2.352-1.315 0-2.114.825-2.114 2.422v5.543h-2.156v-5.6c0-2.883 1.611-4.353 4.242-4.353M23.687 0h2.45l2.211 3.359L30.545 0h2.52l-3.414 5.011 3.275 4.788h-2.45l-2.072-3.178-2.058 3.178h-2.52l3.277-4.816zm13.789 0h7.461v1.917h-5.32v2.059h4.62v1.917h-4.62v1.989h5.25v1.917h-7.391zm12.179 0h2.113v6.356l2.73-4.144h.056l2.758 4.184V0h2.143v9.799H57.13l-2.576-4.144-2.575 4.144h-2.324zm14.951 0h4.662c2.211 0 3.667.896 3.667 2.688v.027c0 1.316-.699 1.974-1.833 2.408.699.392 1.288 1.009 1.288 2.114v.029c0 .671-.224 1.217-.672 1.666-.56.56-1.442.867-2.562.867h-4.55zm2.1 5.837v2.072h2.127c.91 0 1.414-.363 1.414-1.008v-.027c0-.728-.601-1.037-1.553-1.037zm0-3.947v2.155h2.492c1.105 0 1.595-.405 1.595-1.064v-.027c0-.728-.574-1.064-1.525-1.064zM81.922-.168c3.025 0 5.222 2.282 5.222 5.068v.028c0 2.786-2.17 5.039-5.194 5.039S76.729 7.685 76.729 4.9v-.029c0-2.786 2.17-5.039 5.193-5.039m.028 1.988c-1.736 0-2.968 1.399-2.968 3.08v.028c0 1.679 1.205 3.051 2.94 3.051 1.737 0 2.969-1.399 2.969-3.079v-.029c0-1.68-1.205-3.051-2.941-3.051M95.557-.154c2.632 0 4.298 1.455 4.298 4.424v5.529h-2.156V4.186c0-1.554-.798-2.352-2.114-2.352-1.316 0-2.113.825-2.113 2.422v5.543h-2.157v-5.6c0-2.883 1.61-4.353 4.242-4.353m9.226.154h2.155v3.136H108.633L110.732 0h2.52l-2.394 3.5c1.247.462 2.1 1.456 2.1 3.038v.026c0 .925-.293 1.696-.839 2.241-.645.644-1.611.994-2.857.994h-4.479zm2.155 5.039v2.814h2.143c1.049 0 1.694-.475 1.694-1.4v-.027c0-.826-.603-1.387-1.653-1.387zm14.993-5.207c1.792 0 3.179.699 4.187 1.554v4.256h-4.256V3.78h2.169v-1.4c-.545-.392-1.246-.588-2.03-.588-1.736 0-2.967 1.314-2.967 3.108v.028c0 1.666 1.245 3.051 2.813 3.051 1.135 0 1.807-.364 2.562-.994l1.357 1.638c-1.021.869-2.085 1.344-3.849 1.344-2.967 0-5.137-2.282-5.137-5.067v-.029c0-2.897 2.099-5.039 5.151-5.039" style="fill:#0082ac;fill-opacity:1;fill-rule:nonzero;stroke:none" transform="translate(65.347 5.046)"/><path d="M0 0h4.086l8.504 21.183H7.602L2.104 6.37l-5.499 14.813h-5.108zm18.75.15h4.627v21.033H18.75Zm12.889 0h4.568v13.371L46.393.15h3.936v21.033h-4.568V8.233l-9.855 12.95h-4.267zm33.923-.3c4.537 0 7.722 2.343 7.722 6.52v.06c0 3.666-2.404 5.198-6.67 6.31-3.636.931-4.537 1.382-4.537 2.764v.06c0 1.022.931 1.833 2.704 1.833 1.773 0 3.606-.781 5.469-2.073l2.403 3.486c-2.133 1.712-4.747 2.673-7.812 2.673-4.297 0-7.362-2.524-7.362-6.339v-.061c0-4.176 2.735-5.348 6.972-6.429 3.515-.902 4.236-1.503 4.236-2.675v-.06c0-1.232-1.142-1.983-3.035-1.983-2.403 0-4.386.992-6.279 2.554l-2.735-3.275C59.162.961 62.377-.15 65.562-.15m14.453.3h4.537v13.642l5.859-8.894h.12l5.919 8.984V.15h4.597v21.033H96.06l-5.529-8.894-5.529 8.894h-4.987zm38.851-.36c6.489 0 11.207 4.897 11.207 10.877v.06c0 5.979-4.657 10.816-11.148 10.816-6.49 0-11.207-4.897-11.207-10.876v-.061c0-5.979 4.657-10.816 11.148-10.816m.059 4.267c-3.725 0-6.369 3.004-6.369 6.61v.06c0 3.606 2.584 6.55 6.31 6.55 3.725 0 6.369-3.005 6.369-6.61v-.061c0-3.605-2.584-6.549-6.31-6.549m25.6-4.207c4.537 0 7.723 2.343 7.723 6.52v.06c0 3.666-2.405 5.198-6.671 6.31-3.636.931-4.537 1.382-4.537 2.764v.06c0 1.022.931 1.833 2.704 1.833 1.773 0 3.606-.781 5.468-2.073l2.405 3.486c-2.134 1.712-4.748 2.673-7.813 2.673-4.297 0-7.361-2.524-7.361-6.339v-.061c0-4.176 2.734-5.348 6.971-6.429 3.515-.902 4.236-1.503 4.236-2.675v-.06c0-1.232-1.142-1.983-3.034-1.983-2.405 0-4.387.992-6.281 2.554l-2.734-3.275C138.125.961 141.34-.15 144.525-.15m14.753.3h16.015v4.117h-11.418v4.417h9.916V12.8h-9.916v4.267h11.268v4.116h-15.865zm22.836 0h15.113v4.207h-10.486v16.826h-4.627zm20.851 0h15.114v4.207h-10.487v16.826h-4.627zm20.853 0h16.015v4.117h-11.418v4.417h9.915V12.8h-9.915v4.267h11.267v4.116h-15.864z" style="fill:#393536;fill-opacity:1;fill-rule:nonzero;stroke:none" transform="translate(12.166 29.48)"/><path d="M0 0h8.203c6.61 0 11.177 4.597 11.177 10.516v.06c0 5.92-4.567 10.457-11.177 10.457H0Zm4.627 4.176v12.68h3.576c3.786 0 6.339-2.614 6.339-6.34v-.06c0-3.726-2.553-6.28-6.339-6.28zm31.94-4.537c6.49 0 11.207 4.898 11.207 10.877v.06c0 5.98-4.657 10.817-11.147 10.817s-11.208-4.897-11.208-10.877v-.06c0-5.979 4.658-10.817 11.148-10.817m.06 4.267c-3.726 0-6.37 3.005-6.37 6.61v.06c0 3.606 2.584 6.55 6.31 6.55 3.726 0 6.37-3.004 6.37-6.61v-.06c0-3.605-2.584-6.55-6.31-6.55M54.445 0h4.537v13.641l5.859-8.894h.12l5.919 8.984V0h4.598v21.033H70.49l-5.529-8.894-5.528 8.894h-4.988zm26.982 0h4.717l1.923 4.717h8.894L98.884 0h4.838l-9.014 21.183h-4.267zm8.293 8.804 2.794 6.82 2.795-6.82zM109.581 0h4.627v21.033h-4.627zm12.889 0h4.566v13.371L137.223 0h3.935v21.033h-4.566V8.083l-9.856 12.95h-4.266zm26.741 0h16.016v4.116h-11.418v4.417h9.915v4.116h-9.915v4.267h11.267v4.117h-15.865zm30.618-.301c4.537 0 7.722 2.344 7.722 6.521v.06c0 3.665-2.404 5.198-6.67 6.309-3.636.932-4.537 1.383-4.537 2.765v.06c0 1.022.93 1.833 2.704 1.833 1.772 0 3.605-.782 5.469-2.074l2.403 3.486c-2.134 1.713-4.747 2.674-7.813 2.674-4.295 0-7.361-2.524-7.361-6.34v-.06c0-4.176 2.734-5.348 6.971-6.43 3.515-.901 4.237-1.502 4.237-2.674v-.06c0-1.232-1.142-1.983-3.035-1.983-2.403 0-4.387.991-6.279 2.554l-2.735-3.276c2.524-2.253 5.739-3.365 8.924-3.365" style="fill:#393536;fill-opacity:1;fill-rule:nonzero;stroke:none" transform="translate(35.001 59.677)"/></g></svg>