<?xml version="1.0" encoding="UTF-8" standalone="no"?><!DOCTYPE svg PUBLIC "-//W3C//DTD SVG 1.1//EN" "http://www.w3.org/Graphics/SVG/1.1/DTD/svg11.dtd"><svg width="100%" height="100%" viewBox="0 0 284 63" version="1.1" xmlns="http://www.w3.org/2000/svg" xmlns:xlink="http://www.w3.org/1999/xlink" xml:space="preserve" xmlns:serif="http://www.serif.com/" style="fill-rule:evenodd;clip-rule:evenodd;stroke-miterlimit:10;"><g id="Layer-1" serif:id="Layer 1"><path d="M49.322,34.361c-1.419,-1.467 -4.142,-0.067 -4.347,1.868c-0.417,3.863 4.176,6.08 7.159,4.863c2.006,-0.825 0.007,-2.557 0.82,-3.886c0.627,-1.031 2.385,-1.008 3.2,-0.012c0.396,0.486 0.396,1.657 0,2.135c-3.422,4.123 -10.119,3.33 -11.666,-1.596c-0.41,-1.307 -0.003,-2.813 1.086,-4.01c1.886,-2.079 1.812,-2.375 1.831,-3.291l0,-7.275c0,-1.376 -0.544,-1.942 -1.152,-1.942c-0.645,0 -0.95,0.318 -1.425,0.779l-0.34,-0.496l5.017,-4.694c1.797,1.201 2.982,2.541 2.982,4.658l4.337,-4.376l2.847,4.801l-3.592,3.815l-2.474,-4.593l-1.118,1.026l0,7.588c0,1.484 0.847,2.404 1.967,2.404c0.848,0 2.237,-1.135 3.116,-1.837l0.238,0.422l-6.574,5.437c-0.538,-0.517 -1.383,-1.239 -1.912,-1.788" style="fill:#181715;fill-rule:nonzero;"/><path d="M25.538,23.94c-0.809,1.481 -2.076,3.036 -3.794,3.036c-2.692,0 -4.412,-2.366 -4.412,-5.152c0,-2.887 3.211,-4.689 3.211,-6.909c0,-2.468 -2.107,-3.667 -4.215,-3.667c-2.107,0 -4.506,0.741 -4.506,3.456c0,2.854 4.149,4.511 4.149,7.685c0,2.326 -0.876,3.102 -4.51,5.606l0,0.069c0.293,-0.069 0.617,-0.141 0.941,-0.141c1.85,0 4.444,2.154 5.936,3.316c0.94,0.774 1.816,1.302 3.05,1.302c1.849,0 2.693,-1.476 2.949,-3.35l0.489,0c-0.325,4.022 -2.821,7.159 -6.587,7.159c-4.539,0 -6.744,-5.252 -9.145,-5.252c-1.003,0 -1.36,1.41 -1.459,2.538l-0.584,0c0.099,-2.646 1.653,-4.618 3.728,-5.817c0.815,-0.458 1.495,-1.022 1.495,-1.798c0,-0.564 -0.487,-1.06 -2.141,-2.821c-1.169,-1.269 -2.399,-2.962 -2.399,-5.183c0,-4.83 4.151,-7.403 8.138,-7.403c4.122,0 8.759,2.432 8.759,7.051c0,4.302 -3.406,5.713 -3.406,7.581c0,0.527 0.519,0.88 0.941,0.88c1.364,0 2.205,-1.198 2.952,-2.466l0.42,0.28Z" style="fill:#181715;fill-rule:nonzero;"/><path d="M36.529,21.967c0,-0.67 -0.26,-1.095 -0.91,-1.128l0,-0.424c1.656,-0.493 2.758,-1.94 3.308,-3.386c1.072,1.623 2.399,2.927 4.122,3.386l0,0.424l-0.522,0c-0.907,0 -1.133,0.597 -1.133,1.938l0,7.863c0,1.232 0.516,1.692 1.133,1.692c0.358,0 0.778,-0.388 1.008,-0.671l0.259,0.46l-4.281,4.23c-1.592,-0.953 -2.954,-1.94 -2.984,-4.23l-5.323,4.23c-0.875,-1.376 -2.171,-2.75 -3.825,-3.456l0,-0.419c1.265,0 1.752,-0.462 1.752,-1.836l0,-8.004c0,-1.127 -0.487,-1.621 -1.039,-1.621c-0.453,0 -0.746,0.282 -1.232,0.636l-0.162,-0.354l4.671,-4.268c2.594,1.799 2.626,3.81 2.626,5.007l0,9.096c0,0.633 0.162,1.448 0.779,1.448c0.324,0 0.522,-0.145 0.778,-0.319l0.975,-0.743l0,-9.551Z" style="fill:#181715;fill-rule:nonzero;"/><path d="M72.135,30.675c-0.809,0.528 -1.849,1.445 -2.919,1.445c-2.239,0 -3.958,-1.834 -4.443,-3.949l7.17,-4.937l-3.569,-6.206l-5.093,2.363c-3.017,1.411 -3.375,2.645 -3.375,8.428c0,4.934 2.175,6.91 6.195,8.531c1.947,-2.008 4.185,-3.564 6.262,-5.286l-0.228,-0.389Zm-7.558,-4.834c0,-1.831 0.065,-4.16 0.1,-6.484l0.065,0l3.047,5.993l-3.112,2.186c-0.067,-0.391 -0.1,-0.776 -0.1,-1.695" style="fill:#181715;fill-rule:nonzero;"/><path d="M75.176,22.741c0,-1.232 -0.518,-1.693 -1.134,-1.693c-0.356,0 -0.778,0.389 -1.006,0.671l-0.26,-0.458l4.282,-4.232c1.59,0.955 2.952,1.941 2.984,4.232l4.411,-4.194c1.589,0.95 2.952,1.937 2.985,4.23l5.319,-4.268c0.875,1.378 2.174,2.753 3.827,3.458l0,0.421c-1.264,0 -1.749,0.459 -1.749,1.833l0,8.249c0,0.883 0.485,1.377 1.034,1.377c0.453,0 0.749,-0.281 1.233,-0.635l0.165,0.354l-4.675,4.265c-2.592,-1.763 -2.624,-3.772 -2.624,-4.972l0,-9.093c0,-0.635 -0.162,-1.447 -0.779,-1.447c-0.259,0 -0.549,0.139 -0.777,0.315l-0.974,0.744l0,9.517c0,0.671 0.258,1.093 0.909,1.126l0,0.424c-1.654,0.495 -2.756,1.939 -3.307,3.386c-1.073,-1.621 -2.403,-2.924 -3.733,-3.386l0,-0.424l0.391,0c0.648,0 0.876,-0.704 0.876,-1.936l0,-8.814c0,-0.813 -0.423,-0.989 -0.682,-0.989c-0.293,0 -0.617,0.14 -0.876,0.319l-0.974,0.74l0,9.554c0,0.671 0.259,1.093 0.909,1.126l0,0.424c-1.656,0.495 -2.758,1.939 -3.31,3.386c-1.07,-1.621 -2.4,-2.924 -4.118,-3.386l0,-0.424l0.519,0c0.91,0 1.134,-0.598 1.134,-1.936l0,-7.864Z" style="fill:#181715;fill-rule:nonzero;"/><path d="M110.008,17.029l-4.965,3.597l0,-4.901c0,-2.538 0.423,-4.477 2.953,-4.477l0.712,0l0,-0.634l-0.194,0c-4.249,0 -7.851,1.199 -8.305,4.688l-0.064,0c-0.327,-1.267 -1.038,-2.537 -1.624,-3.171l-0.355,0.388c0.876,0.738 2.012,3.56 2.012,5.85l0,11.001c0,1.41 -0.324,2.184 -1.589,2.184l0,0.424c2.366,0.809 4.443,2.503 6.162,4.372c0.844,-1.657 3.763,-2.609 5.124,-3.137c1.654,-0.634 2.758,-1.589 2.758,-4.444l0,-6.38c0,-2.466 -1.233,-3.632 -2.625,-5.36m-2.241,15.794c-0.841,-0.987 -1.783,-1.797 -2.724,-2.571l0,-8.885c0.423,-0.352 1.038,-0.844 1.688,-0.844c0.876,0 1.036,1.055 1.036,2.745l0,9.555Z" style="fill:#181715;fill-rule:nonzero;"/><path d="M124.274,21.967c0,-0.67 -0.257,-1.095 -0.907,-1.128l0,-0.424c1.653,-0.493 2.756,-1.94 3.307,-3.386c1.071,1.623 2.403,2.927 4.122,3.386l0,0.424l-0.518,0c-0.909,0 -1.138,0.597 -1.138,1.938l0,7.863c0,1.232 0.521,1.692 1.138,1.692c0.354,0 0.775,-0.388 1.006,-0.671l0.256,0.46l-4.279,4.23c-1.59,-0.953 -2.953,-1.94 -2.987,-4.23l-5.319,4.23c-0.873,-1.376 -2.172,-2.75 -3.825,-3.456l0,-0.419c1.265,0 1.748,-0.462 1.748,-1.836l0,-8.004c0,-1.127 -0.483,-1.621 -1.036,-1.621c-0.453,0 -0.746,0.282 -1.231,0.636l-0.164,-0.354l4.671,-4.268c2.596,1.799 2.629,3.81 2.629,5.007l0,9.096c0,0.633 0.163,1.448 0.777,1.448c0.324,0 0.522,-0.145 0.779,-0.319l0.971,-0.743l0,-9.551Z" style="fill:#181715;fill-rule:nonzero;"/><path d="M146.749,22.108l-3.437,3.805l-2.367,-4.58l-1.073,1.019l0,7.582c0,1.48 0.811,2.397 1.882,2.397c0.811,0 2.141,-1.129 2.983,-1.835l0.228,0.425l-6.292,5.429c-1.657,-1.657 -3.503,-3.385 -5.773,-3.915l0,-0.422c0.842,0 2.107,-0.315 2.107,-1.373l0,-7.263c0,-1.379 -0.519,-1.941 -1.102,-1.941c-0.616,0 -0.91,0.315 -1.361,0.777l-0.325,-0.495l4.797,-4.69c1.721,1.202 2.856,2.542 2.856,4.654l4.152,-4.369l2.725,4.795Z" style="fill:#181715;fill-rule:nonzero;"/><path d="M162.572,21.333l0,-0.424c-2.464,-0.564 -4.835,-1.906 -6.556,-3.88c-3.274,3.561 -7.716,3.352 -7.716,5.925l0,8.532c0,2.115 0.323,3.138 3.015,4.865c1.458,-1.447 3.016,-2.786 4.639,-4.02c0,4.3 2.496,4.83 2.496,7.478c0,2.64 -2.434,3.588 -4.508,3.588c-0.419,0 -1.978,-0.065 -1.978,-0.63c0,-0.635 2.015,-0.035 2.015,-2.466c0.028,-1.623 -1.561,-2.257 -2.825,-2.257c-1.265,0 -2.432,0.846 -2.432,2.327c0,3.313 4.051,3.664 6.258,3.664c3.406,0 7.557,-2.22 7.557,-6.452c0,-1.305 -0.453,-2.113 -0.878,-2.749c-0.45,-0.634 -0.905,-1.093 -0.905,-1.621l0,-10.119c0,-1.269 0.585,-1.761 1.818,-1.761m-6.683,10.366l-1.233,0.982c-0.259,0.213 -0.519,0.249 -0.677,0.249c-0.622,0 -0.814,-0.952 -0.814,-2.01l0,-10.224c0.842,0.74 1.75,1.377 2.724,1.835l0,9.168Z" style="fill:#181715;fill-rule:nonzero;"/><path d="M177.134,30.675c-0.812,0.528 -1.851,1.445 -2.919,1.445c-2.237,0 -3.958,-1.834 -4.446,-3.949l7.17,-4.937l-3.568,-6.206l-5.092,2.363c-3.017,1.411 -3.375,2.645 -3.375,8.428c0,4.934 2.172,6.91 6.195,8.531c1.946,-2.008 4.184,-3.564 6.263,-5.286l-0.228,-0.389Zm-7.559,-4.834c0,-1.831 0.065,-4.16 0.099,-6.484l0.065,0l3.05,5.993l-3.115,2.186c-0.068,-0.391 -0.099,-0.776 -0.099,-1.695" style="fill:#181715;fill-rule:nonzero;"/><path d="M192.337,22.108l-3.437,3.805l-2.37,-4.58l-1.067,1.019l0,7.582c0,1.48 0.808,2.397 1.879,2.397c0.812,0 2.142,-1.129 2.984,-1.835l0.228,0.425l-6.291,5.429c-1.656,-1.657 -3.504,-3.385 -5.775,-3.915l0,-0.422c0.844,0 2.108,-0.315 2.108,-1.372l0,-7.264c0,-1.379 -0.517,-1.941 -1.105,-1.941c-0.614,0 -0.908,0.315 -1.361,0.777l-0.321,-0.495l4.798,-4.69c1.722,1.202 2.856,2.542 2.856,4.654l4.147,-4.369l2.727,4.795Z" style="fill:#181715;fill-rule:nonzero;"/><path d="M229.243,19.321c0.358,0.036 0.809,0.036 1.327,0.036c0.75,0 1.848,-0.104 2.567,-0.248l0,-0.458c-0.26,0.036 -0.618,0.073 -0.975,0.073c-1.006,0 -1.167,-0.85 -1.265,-2.822c-0.163,-3.525 -3.048,-5.288 -5.998,-5.288c-2.628,0 -4.152,0.844 -5.972,2.894c-0.618,-1.626 -1.395,-2.894 -3.144,-2.894c-1.527,0 -2.271,1.587 -2.92,2.854c-1.397,-2.078 -3.436,-2.854 -5.352,-2.854c-4.474,0 -7.655,3.244 -7.655,7.719c0,4.516 4.636,4.516 4.636,6.103c0,1.054 -1.751,2.114 -2.787,2.114l-0.162,0l0,0.636c2.01,0 5.677,-2.75 5.677,-6.208c0,-4.23 -4.642,-4.263 -4.642,-6.981c0,-1.198 1.397,-2.328 2.305,-2.328c2.4,0 3.276,2.963 3.276,8.323c0,4.618 -0.293,6.626 -1.068,7.897c-0.62,-0.212 -1.169,-0.249 -1.462,-0.249c-3.178,0 -5.158,4.163 -5.578,6.948l0.584,0.105c0.193,-1.197 0.579,-2.572 1.882,-2.572c2.79,0 4.735,4.229 8.333,4.229c1.656,0 2.985,-0.952 4.022,-1.939c1.007,-0.953 1.719,-1.903 2.144,-1.903c0.648,0 1.459,0.95 2.591,1.903c1.105,0.987 2.565,1.939 4.509,1.939c4.056,0 8.728,-4.936 8.728,-9.344c0,-4.617 -4.576,-4.76 -4.576,-6.484c0,-0.458 0.358,-0.706 0.975,-1.201m-14.239,12.8c-2.107,0 -5.124,-3.774 -7.527,-4.162l0,-0.07c4.541,-1.163 6.714,-3.844 6.714,-8.989c0,-1.728 -0.42,-3.422 -1.004,-5.007c0.55,-0.809 1.556,-1.374 2.466,-1.374c1.067,0 2.268,0.492 3.014,1.374c-1.46,1.939 -2.984,3.981 -2.984,6.663c0,1.442 0.908,2.678 1.819,3.807c0.874,1.094 1.781,2.115 1.781,3.208c0,1.904 -2.563,4.55 -4.279,4.55m15.307,-0.422c0,0.809 -1.036,1.69 -1.781,1.69c-2.467,0 -4.575,-5.078 -7.559,-5.078c-0.454,0 -0.909,0 -1.296,0.07l0,-0.07c1.947,-1.055 3.599,-2.995 3.599,-5.571c0,-3.804 -3.827,-5.394 -3.827,-7.896c0,-1.587 1.849,-3.175 2.984,-3.175c1.558,0 2.108,1.378 2.24,2.893c0.031,2.186 0.94,4.338 3.955,4.652l0,0.039c-2.042,0.95 -4.249,2.22 -4.249,4.97c0,4.37 5.934,4.654 5.934,7.476" style="fill:#181715;fill-rule:nonzero;"/><path d="M245.264,17.029c-2.142,2.4 -5.903,3.104 -9.05,2.995l0,10.296c0,0.425 -0.063,1.341 -1.2,1.444l0,0.426c2.499,0.739 4.705,2.326 6.551,4.16c0.909,-1.902 2.109,-2.609 3.891,-3.069c2.695,-0.702 3.214,-1.445 3.214,-7.649c0,-4.866 -0.357,-6.274 -3.406,-8.603m-1.457,15.374c-0.782,-0.779 -1.689,-1.623 -2.726,-2.185l0,-10.12c2.266,0.528 2.726,1.654 2.726,3.279l0,9.026Z" style="fill:#181715;fill-rule:nonzero;"/><path d="M264.755,22.108l-3.437,3.805l-2.37,-4.58l-1.07,1.019l0,7.582c0,1.48 0.812,2.397 1.881,2.397c0.813,0 2.142,-1.129 2.984,-1.835l0.229,0.425l-6.294,5.429c-1.653,-1.657 -3.504,-3.385 -5.773,-3.915l0,-0.422c0.842,0 2.11,-0.315 2.11,-1.372l0,-7.264c0,-1.379 -0.521,-1.941 -1.106,-1.941c-0.612,0 -0.909,0.315 -1.359,0.777l-0.324,-0.495l4.799,-4.69c1.717,1.202 2.853,2.542 2.853,4.654l4.15,-4.369l2.727,4.795Z" style="fill:#181715;fill-rule:nonzero;"/><path d="M272.406,28.664c0,1.515 0.129,3.138 1.197,3.138c0.876,0 1.626,-0.671 2.076,-0.988l0.263,0.352l-5.385,5.184c-1.005,-1.657 -2.853,-3.386 -4.673,-3.81l0,-0.528c0.261,0.073 0.49,0.108 0.684,0.108c0.876,0 0.97,-0.389 0.97,-1.48l0,-8.742l-2.043,0l0,-0.425c3.407,-1.021 5.353,-5.923 6.325,-9.309l0.586,0l0,7.194l3.308,0l0,2.54l-3.308,0l0,6.767Z" style="fill:#181715;fill-rule:nonzero;"/><path d="M168.689,53.898l1.597,-0.001l2.187,-5.902l2.186,5.902l1.598,0l3.108,-6.842l-1.218,0l-2.67,5.905l-2.171,-5.905l-1.666,0l-2.171,5.905l-2.672,-5.905l-1.219,0l3.111,6.842Zm13.979,0l1.597,0l2.185,-5.902l2.189,5.902l1.595,0l3.112,-6.842l-1.22,0l-2.67,5.905l-2.173,-5.905l-1.664,0l-2.173,5.905l-2.668,-5.905l-1.223,0l3.113,6.842Zm13.977,0l1.598,0l2.186,-5.902l2.187,5.902l1.595,0l3.114,-6.842l-1.222,0l-2.67,5.905l-2.171,-5.905l-1.664,0l-2.175,5.905l-2.67,-5.905l-1.218,0l3.11,6.842Zm12.517,0l1.504,0l0,-1.663l-1.504,0l0,1.663Zm7.191,0l1.598,0l2.186,-5.902l2.185,5.902l1.599,0l3.111,-6.842l-1.219,0l-2.672,5.905l-2.173,-5.905l-1.664,0l-2.173,5.905l-2.668,-5.905l-1.222,0l3.112,6.842Zm11.629,-2.67c0,2.254 1.599,2.776 3.784,2.776l1.652,0c2.185,0 3.782,-0.522 3.782,-2.776l0,-1.503c0,-2.251 -1.597,-2.775 -3.782,-2.775l-1.652,0c-2.185,0 -3.784,0.524 -3.784,2.775l0,1.503Zm8.066,-0.067c0,1.595 -0.941,1.906 -2.282,1.906l-2.35,0c-1.34,0 -2.28,-0.311 -2.28,-1.906l0,-1.369c0,-1.594 0.94,-1.902 2.28,-1.902l2.35,0c1.341,0 2.282,0.308 2.282,1.902l0,1.369Zm3.192,2.737l1.151,0l0,-4.345c0,-0.887 0.593,-1.663 1.812,-1.663l0.711,0c2.053,0 2.403,0.268 2.403,1.957l0,0.295l1.071,0l0,-0.819c0,-1.675 -0.711,-2.373 -2.869,-2.373l-1.086,0c-0.793,0 -1.666,0.213 -2.094,1.099l-0.026,0l0,-0.993l-1.073,0l0,6.842Zm9.135,-2.053c0,1.116 0.508,2.159 2.666,2.159l0.635,0c2.494,0 2.625,-1.083 2.625,-2.452l0,-0.751l-0.937,0l0,0.509c0,1.433 -0.24,1.757 -1.772,1.757l-0.361,0c-1.263,0 -1.704,-0.39 -1.704,-1.665l0,-3.406l4.575,0l0,-0.94l-4.575,0l0,-1.62l-1.152,0l0,1.62l-1.504,0l0,0.94l1.504,0l0,3.849Zm8.731,2.053l1.504,0l0,-1.663l-1.504,0l0,1.663Zm5.231,0l1.154,0l0,-9.71l-1.154,0l0,9.71Zm10.855,0l1.072,0l0,-6.842l-1.154,0l0,3.89c0,1.61 -0.616,2.121 -3.312,2.121l-0.295,0c-2.242,0 -2.523,-0.657 -2.523,-1.665l0,-4.346l-1.154,0l0,4.629c0,1.236 0.684,2.319 2.844,2.319l1.731,0c1.437,0 2.334,-0.227 2.764,-1.285l0.027,0l0,1.179Z" style="fill:#181715;fill-rule:nonzero;stroke:#181715;stroke-width:0.3px;"/></g></svg>