<svg viewBox="0 0 284 63" xmlns="http://www.w3.org/2000/svg" xml:space="preserve" style="fill-rule:evenodd;clip-rule:evenodd;stroke-miterlimit:10"><path d="M49.322 34.361c-1.419-1.467-4.142-.067-4.347 1.868-.417 3.863 4.176 6.08 7.159 4.863 2.006-.825.007-2.557.82-3.886.627-1.031 2.385-1.008 3.2-.012.396.486.396 1.657 0 2.135-3.422 4.123-10.119 3.33-11.666-1.596-.41-1.307-.003-2.813 1.086-4.01 1.886-2.079 1.812-2.375 1.831-3.291v-7.275c0-1.376-.544-1.942-1.152-1.942-.645 0-.95.318-1.425.779l-.34-.496 5.017-4.694c1.797 1.201 2.982 2.541 2.982 4.658l4.337-4.376 2.847 4.801-3.592 3.815-2.474-4.593-1.118 1.026v7.588c0 1.484.847 2.404 1.967 2.404.848 0 2.237-1.135 3.116-1.837l.238.422-6.574 5.437c-.538-.517-1.383-1.239-1.912-1.788M25.538 23.94c-.809 1.481-2.076 3.036-3.794 3.036-2.692 0-4.412-2.366-4.412-5.152 0-2.887 3.211-4.689 3.211-6.909 0-2.468-2.107-3.667-4.215-3.667-2.107 0-4.506.741-4.506 3.456 0 2.854 4.149 4.511 4.149 7.685 0 2.326-.876 3.102-4.51 5.606v.069c.293-.069.617-.141.941-.141 1.85 0 4.444 2.154 5.936 3.316.94.774 1.816 1.302 3.05 1.302 1.849 0 2.693-1.476 2.949-3.35h.489c-.325 4.022-2.821 7.159-6.587 7.159-4.539 0-6.744-5.252-9.145-5.252-1.003 0-1.36 1.41-1.459 2.538h-.584c.099-2.646 1.653-4.618 3.728-5.817.815-.458 1.495-1.022 1.495-1.798 0-.564-.487-1.06-2.141-2.821-1.169-1.269-2.399-2.962-2.399-5.183 0-4.83 4.151-7.403 8.138-7.403 4.122 0 8.759 2.432 8.759 7.051 0 4.302-3.406 5.713-3.406 7.581 0 .527.519.88.941.88 1.364 0 2.205-1.198 2.952-2.466l.42.28ZM36.529 21.967c0-.67-.26-1.095-.91-1.128v-.424c1.656-.493 2.758-1.94 3.308-3.386 1.072 1.623 2.399 2.927 4.122 3.386v.424h-.522c-.907 0-1.133.597-1.133 1.938v7.863c0 1.232.516 1.692 1.133 1.692.358 0 .778-.388 1.008-.671l.259.46-4.281 4.23c-1.592-.953-2.954-1.94-2.984-4.23l-5.323 4.23c-.875-1.376-2.171-2.75-3.825-3.456v-.419c1.265 0 1.752-.462 1.752-1.836v-8.004c0-1.127-.487-1.621-1.039-1.621-.453 0-.746.282-1.232.636l-.162-.354 4.671-4.268c2.594 1.799 2.626 3.81 2.626 5.007v9.096c0 .633.162 1.448.779 1.448.324 0 .522-.145.778-.319l.975-.743v-9.551ZM72.135 30.675c-.809.528-1.849 1.445-2.919 1.445-2.239 0-3.958-1.834-4.443-3.949l7.17-4.937-3.569-6.206-5.093 2.363c-3.017 1.411-3.375 2.645-3.375 8.428 0 4.934 2.175 6.91 6.195 8.531 1.947-2.008 4.185-3.564 6.262-5.286l-.228-.389Zm-7.558-4.834c0-1.831.065-4.16.1-6.484h.065l3.047 5.993-3.112 2.186c-.067-.391-.1-.776-.1-1.695M75.176 22.741c0-1.232-.518-1.693-1.134-1.693-.356 0-.778.389-1.006.671l-.26-.458 4.282-4.232c1.59.955 2.952 1.941 2.984 4.232l4.411-4.194c1.589.95 2.952 1.937 2.985 4.23l5.319-4.268c.875 1.378 2.174 2.753 3.827 3.458v.421c-1.264 0-1.749.459-1.749 1.833v8.249c0 .883.485 1.377 1.034 1.377.453 0 .749-.281 1.233-.635l.165.354-4.675 4.265c-2.592-1.763-2.624-3.772-2.624-4.972v-9.093c0-.635-.162-1.447-.779-1.447-.259 0-.549.139-.777.315l-.974.744v9.517c0 .671.258 1.093.909 1.126v.424c-1.654.495-2.756 1.939-3.307 3.386-1.073-1.621-2.403-2.924-3.733-3.386v-.424h.391c.648 0 .876-.704.876-1.936v-8.814c0-.813-.423-.989-.682-.989-.293 0-.617.14-.876.319l-.974.74v9.554c0 .671.259 1.093.909 1.126v.424c-1.656.495-2.758 1.939-3.31 3.386-1.07-1.621-2.4-2.924-4.118-3.386v-.424h.519c.91 0 1.134-.598 1.134-1.936v-7.864ZM110.008 17.029l-4.965 3.597v-4.901c0-2.538.423-4.477 2.953-4.477h.712v-.634h-.194c-4.249 0-7.851 1.199-8.305 4.688h-.064c-.327-1.267-1.038-2.537-1.624-3.171l-.355.388c.876.738 2.012 3.56 2.012 5.85V29.37c0 1.41-.324 2.184-1.589 2.184v.424c2.366.809 4.443 2.503 6.162 4.372.844-1.657 3.763-2.609 5.124-3.137 1.654-.634 2.758-1.589 2.758-4.444v-6.38c0-2.466-1.233-3.632-2.625-5.36m-2.241 15.794c-.841-.987-1.783-1.797-2.724-2.571v-8.885c.423-.352 1.038-.844 1.688-.844.876 0 1.036 1.055 1.036 2.745v9.555ZM124.274 21.967c0-.67-.257-1.095-.907-1.128v-.424c1.653-.493 2.756-1.94 3.307-3.386 1.071 1.623 2.403 2.927 4.122 3.386v.424h-.518c-.909 0-1.138.597-1.138 1.938v7.863c0 1.232.521 1.692 1.138 1.692.354 0 .775-.388 1.006-.671l.256.46-4.279 4.23c-1.59-.953-2.953-1.94-2.987-4.23l-5.319 4.23c-.873-1.376-2.172-2.75-3.825-3.456v-.419c1.265 0 1.748-.462 1.748-1.836v-8.004c0-1.127-.483-1.621-1.036-1.621-.453 0-.746.282-1.231.636l-.164-.354 4.671-4.268c2.596 1.799 2.629 3.81 2.629 5.007v9.096c0 .633.163 1.448.777 1.448.324 0 .522-.145.779-.319l.971-.743v-9.551ZM146.749 22.108l-3.437 3.805-2.367-4.58-1.073 1.019v7.582c0 1.48.811 2.397 1.882 2.397.811 0 2.141-1.129 2.983-1.835l.228.425-6.292 5.429c-1.657-1.657-3.503-3.385-5.773-3.915v-.422c.842 0 2.107-.315 2.107-1.373v-7.263c0-1.379-.519-1.941-1.102-1.941-.616 0-.91.315-1.361.777l-.325-.495 4.797-4.69c1.721 1.202 2.856 2.542 2.856 4.654l4.152-4.369 2.725 4.795ZM162.572 21.333v-.424c-2.464-.564-4.835-1.906-6.556-3.88-3.274 3.561-7.716 3.352-7.716 5.925v8.532c0 2.115.323 3.138 3.015 4.865a46.738 46.738 0 0 1 4.639-4.02c0 4.3 2.496 4.83 2.496 7.478 0 2.64-2.434 3.588-4.508 3.588-.419 0-1.978-.065-1.978-.63 0-.635 2.015-.035 2.015-2.466.028-1.623-1.561-2.257-2.825-2.257-1.265 0-2.432.846-2.432 2.327 0 3.313 4.051 3.664 6.258 3.664 3.406 0 7.557-2.22 7.557-6.452 0-1.305-.453-2.113-.878-2.749-.45-.634-.905-1.093-.905-1.621V23.094c0-1.269.585-1.761 1.818-1.761m-6.683 10.366-1.233.982a1.052 1.052 0 0 1-.677.249c-.622 0-.814-.952-.814-2.01V20.696c.842.74 1.75 1.377 2.724 1.835v9.168ZM177.134 30.675c-.812.528-1.851 1.445-2.919 1.445-2.237 0-3.958-1.834-4.446-3.949l7.17-4.937-3.568-6.206-5.092 2.363c-3.017 1.411-3.375 2.645-3.375 8.428 0 4.934 2.172 6.91 6.195 8.531 1.946-2.008 4.184-3.564 6.263-5.286l-.228-.389Zm-7.559-4.834c0-1.831.065-4.16.099-6.484h.065l3.05 5.993-3.115 2.186c-.068-.391-.099-.776-.099-1.695M192.337 22.108l-3.437 3.805-2.37-4.58-1.067 1.019v7.582c0 1.48.808 2.397 1.879 2.397.812 0 2.142-1.129 2.984-1.835l.228.425-6.291 5.429c-1.656-1.657-3.504-3.385-5.775-3.915v-.422c.844 0 2.108-.315 2.108-1.372v-7.264c0-1.379-.517-1.941-1.105-1.941-.614 0-.908.315-1.361.777l-.321-.495 4.798-4.69c1.722 1.202 2.856 2.542 2.856 4.654l4.147-4.369 2.727 4.795ZM229.243 19.321c.358.036.809.036 1.327.036.75 0 1.848-.104 2.567-.248v-.458c-.26.036-.618.073-.975.073-1.006 0-1.167-.85-1.265-2.822-.163-3.525-3.048-5.288-5.998-5.288-2.628 0-4.152.844-5.972 2.894-.618-1.626-1.395-2.894-3.144-2.894-1.527 0-2.271 1.587-2.92 2.854-1.397-2.078-3.436-2.854-5.352-2.854-4.474 0-7.655 3.244-7.655 7.719 0 4.516 4.636 4.516 4.636 6.103 0 1.054-1.751 2.114-2.787 2.114h-.162v.636c2.01 0 5.677-2.75 5.677-6.208 0-4.23-4.642-4.263-4.642-6.981 0-1.198 1.397-2.328 2.305-2.328 2.4 0 3.276 2.963 3.276 8.323 0 4.618-.293 6.626-1.068 7.897a4.633 4.633 0 0 0-1.462-.249c-3.178 0-5.158 4.163-5.578 6.948l.584.105c.193-1.197.579-2.572 1.882-2.572 2.79 0 4.735 4.229 8.333 4.229 1.656 0 2.985-.952 4.022-1.939 1.007-.953 1.719-1.903 2.144-1.903.648 0 1.459.95 2.591 1.903 1.105.987 2.565 1.939 4.509 1.939 4.056 0 8.728-4.936 8.728-9.344 0-4.617-4.576-4.76-4.576-6.484 0-.458.358-.706.975-1.201m-14.239 12.8c-2.107 0-5.124-3.774-7.527-4.162v-.07c4.541-1.163 6.714-3.844 6.714-8.989 0-1.728-.42-3.422-1.004-5.007.55-.809 1.556-1.374 2.466-1.374 1.067 0 2.268.492 3.014 1.374-1.46 1.939-2.984 3.981-2.984 6.663 0 1.442.908 2.678 1.819 3.807.874 1.094 1.781 2.115 1.781 3.208 0 1.904-2.563 4.55-4.279 4.55m15.307-.422c0 .809-1.036 1.69-1.781 1.69-2.467 0-4.575-5.078-7.559-5.078-.454 0-.909 0-1.296.07v-.07c1.947-1.055 3.599-2.995 3.599-5.571 0-3.804-3.827-5.394-3.827-7.896 0-1.587 1.849-3.175 2.984-3.175 1.558 0 2.108 1.378 2.24 2.893.031 2.186.94 4.338 3.955 4.652v.039c-2.042.95-4.249 2.22-4.249 4.97 0 4.37 5.934 4.654 5.934 7.476M245.264 17.029c-2.142 2.4-5.903 3.104-9.05 2.995V30.32c0 .425-.063 1.341-1.2 1.444v.426c2.499.739 4.705 2.326 6.551 4.16.909-1.902 2.109-2.609 3.891-3.069 2.695-.702 3.214-1.445 3.214-7.649 0-4.866-.357-6.274-3.406-8.603m-1.457 15.374c-.782-.779-1.689-1.623-2.726-2.185v-10.12c2.266.528 2.726 1.654 2.726 3.279v9.026ZM264.755 22.108l-3.437 3.805-2.37-4.58-1.07 1.019v7.582c0 1.48.812 2.397 1.881 2.397.813 0 2.142-1.129 2.984-1.835l.229.425-6.294 5.429c-1.653-1.657-3.504-3.385-5.773-3.915v-.422c.842 0 2.11-.315 2.11-1.372v-7.264c0-1.379-.521-1.941-1.106-1.941-.612 0-.909.315-1.359.777l-.324-.495 4.799-4.69c1.717 1.202 2.853 2.542 2.853 4.654l4.15-4.369 2.727 4.795ZM272.406 28.664c0 1.515.129 3.138 1.197 3.138.876 0 1.626-.671 2.076-.988l.263.352-5.385 5.184c-1.005-1.657-2.853-3.386-4.673-3.81v-.528c.261.073.49.108.684.108.876 0 .97-.389.97-1.48v-8.742h-2.043v-.425c3.407-1.021 5.353-5.923 6.325-9.309h.586v7.194h3.308v2.54h-3.308v6.767Z" style="fill:#181715;fill-rule:nonzero"/><path d="m168.689 53.898 1.597-.001 2.187-5.902 2.186 5.902h1.598l3.108-6.842h-1.218l-2.67 5.905-2.171-5.905h-1.666l-2.171 5.905-2.672-5.905h-1.219l3.111 6.842Zm13.979 0h1.597l2.185-5.902 2.189 5.902h1.595l3.112-6.842h-1.22l-2.67 5.905-2.173-5.905h-1.664l-2.173 5.905-2.668-5.905h-1.223l3.113 6.842Zm13.977 0h1.598l2.186-5.902 2.187 5.902h1.595l3.114-6.842h-1.222l-2.67 5.905-2.171-5.905h-1.664l-2.175 5.905-2.67-5.905h-1.218l3.11 6.842Zm12.517 0h1.504v-1.663h-1.504v1.663Zm7.191 0h1.598l2.186-5.902 2.185 5.902h1.599l3.111-6.842h-1.219l-2.672 5.905-2.173-5.905h-1.664l-2.173 5.905-2.668-5.905h-1.222l3.112 6.842Zm11.629-2.67c0 2.254 1.599 2.776 3.784 2.776h1.652c2.185 0 3.782-.522 3.782-2.776v-1.503c0-2.251-1.597-2.775-3.782-2.775h-1.652c-2.185 0-3.784.524-3.784 2.775v1.503Zm8.066-.067c0 1.595-.941 1.906-2.282 1.906h-2.35c-1.34 0-2.28-.311-2.28-1.906v-1.369c0-1.594.94-1.902 2.28-1.902h2.35c1.341 0 2.282.308 2.282 1.902v1.369Zm3.192 2.737h1.151v-4.345c0-.887.593-1.663 1.812-1.663h.711c2.053 0 2.403.268 2.403 1.957v.295h1.071v-.819c0-1.675-.711-2.373-2.869-2.373h-1.086c-.793 0-1.666.213-2.094 1.099h-.026v-.993h-1.073v6.842Zm9.135-2.053c0 1.116.508 2.159 2.666 2.159h.635c2.494 0 2.625-1.083 2.625-2.452v-.751h-.937v.509c0 1.433-.24 1.757-1.772 1.757h-.361c-1.263 0-1.704-.39-1.704-1.665v-3.406h4.575v-.94h-4.575v-1.62h-1.152v1.62h-1.504v.94h1.504v3.849Zm8.731 2.053h1.504v-1.663h-1.504v1.663Zm5.231 0h1.154v-9.71h-1.154v9.71Zm10.855 0h1.072v-6.842h-1.154v3.89c0 1.61-.616 2.121-3.312 2.121h-.295c-2.242 0-2.523-.657-2.523-1.665v-4.346h-1.154v4.629c0 1.236.684 2.319 2.844 2.319h1.731c1.437 0 2.334-.227 2.764-1.285h.027v1.179Z" style="fill:#181715;fill-rule:nonzero;stroke:#181715;stroke-width:.3px"/></svg>