<svg viewBox="0 0 411 410" xmlns="http://www.w3.org/2000/svg" xml:space="preserve" style="fill-rule:evenodd;clip-rule:evenodd;stroke-linejoin:round;stroke-miterlimit:1.41421"><path d="M12.066 6.067a6.622 6.622 0 0 0-6.622 6.619v385.365a6.623 6.623 0 0 0 6.622 6.623h385.367a6.622 6.622 0 0 0 6.619-6.623V12.686a6.621 6.621 0 0 0-6.619-6.619H12.066Z" style="fill:url(#a);fill-rule:nonzero"/><path d="M12.066 8.402a4.29 4.29 0 0 0-4.286 4.284V398.05a4.292 4.292 0 0 0 4.286 4.289h385.367a4.29 4.29 0 0 0 4.283-4.289V12.686a4.288 4.288 0 0 0-4.283-4.284H12.066Zm385.367 398.607H12.066c-4.939 0-8.957-4.017-8.957-8.959V12.686c0-4.938 4.018-8.955 8.957-8.955h385.367c4.938 0 8.955 4.017 8.955 8.955V398.05c0 4.942-4.017 8.959-8.955 8.959" style="fill:#003a5d;fill-rule:nonzero"/><path d="M74.74 366.607h-5.868v-13.463l-13.168-20.598h6.849l9.242 14.848 9.263-14.848h6.851L74.74 353.144v13.463ZM116.557 366.607h-25.14v-34.061h25.14v5.87H97.288v8.238h16.448v5.867H97.288v8.215h19.269v5.871ZM145.207 366.607h-22.776v-34.061h5.87v28.19h16.906v5.871ZM155.549 360.736h17.62v-22.32h-17.62v22.32Zm18.204 5.871h-18.787c-.719 0-1.41-.14-2.053-.418a5.195 5.195 0 0 1-1.687-1.13 5.429 5.429 0 0 1-1.132-1.68 5.235 5.235 0 0 1-.415-2.059v-23.488a5.219 5.219 0 0 1 1.551-3.73 5.492 5.492 0 0 1 1.68-1.129 5.079 5.079 0 0 1 2.056-.426h18.787c.717 0 1.41.142 2.057.428a5.527 5.527 0 0 1 1.677 1.125 5.252 5.252 0 0 1 1.137 1.679c.275.647.414 1.338.414 2.053v23.488c0 .717-.139 1.409-.414 2.053a5.408 5.408 0 0 1-1.131 1.686 5.277 5.277 0 0 1-1.691 1.134 5.174 5.174 0 0 1-2.049.414" style="fill:#003a5d;fill-rule:nonzero"/><path style="fill:#003a5d" d="M185.853 349.935h12.154v5.684h-12.154z"/><path d="M210.599 346.514h12.054c.934-.039 1.617-.283 2.004-.725.398-.461.601-1.224.601-2.267v-2.158c0-1.092-.223-1.883-.665-2.35-.431-.457-1.192-.688-2.261-.688h-11.733v8.188Zm0 14.314h12.675c1.064 0 1.824-.232 2.26-.689.441-.465.664-1.244.664-2.326v-2.549c0-1.092-.223-1.873-.66-2.32-.434-.448-1.196-.674-2.264-.674h-12.675v8.558Zm12.812 5.78H204.82v-34.061h17.651c5.683 0 8.565 2.889 8.565 8.588v.598c0 1.929-.319 3.543-.945 4.793a6.05 6.05 0 0 1-1.932 2.25c.309.158.605.334.885.529a6.12 6.12 0 0 1 1.603 1.686c.428.673.762 1.466.99 2.363.227.887.34 1.91.34 3.037v1.65c0 5.604-2.963 8.567-8.566 8.567M245.874 353.17h9.533l-4.746-12.299-4.787 12.299Zm20.662 13.438h-5.955l-2.912-7.573H243.63l-2.912 7.573h-5.955l13.136-34.061h5.502l13.135 34.061ZM294.817 366.607H276.03c-.721 0-1.41-.141-2.053-.418a5.166 5.166 0 0 1-1.687-1.131 5.385 5.385 0 0 1-1.133-1.68 5.23 5.23 0 0 1-.414-2.058v-28.774h5.871v28.19h17.619v-28.19h5.867v28.774a5.22 5.22 0 0 1-.412 2.053 5.375 5.375 0 0 1-1.133 1.685 5.239 5.239 0 0 1-1.689 1.135 5.199 5.199 0 0 1-2.049.414" style="fill:#003a5d;fill-rule:nonzero"/><path style="fill:#003a5d" d="M306.917 358.58h8.025v8.027h-8.025zM321.3 331.605h5.662v35.002H321.3z"/><path d="M356.093 366.607h-5.686v-1.863a5.242 5.242 0 0 1-2.037 1.496 4.905 4.905 0 0 1-1.877.367h-8.096c-.69 0-1.356-.137-1.975-.404a5.25 5.25 0 0 1-1.613-1.082 5.116 5.116 0 0 1-1.088-1.623 4.934 4.934 0 0 1-.404-1.995v-20.492h5.662v19.909h11.428v-19.909h5.686v25.596Z" style="fill:#003a5d;fill-rule:nonzero"/><path d="M342.141 278.297H206.063V92.232l48.377 79.231h23.25L196.725 38.842 94.488 206.756 77.75 179.82H54.509l28.401 45.954-26.124 42.908h23.241L185.942 92.287v207.516h169.044l-12.845-21.506Z" style="fill:#f5a81b;fill-rule:nonzero"/><path d="M187.343 298.402h165.174l-11.171-18.703H206.063a1.402 1.402 0 0 1-1.403-1.402V92.232a1.402 1.402 0 0 1 2.599-.73l47.966 78.559h19.967L196.726 41.535 95.685 207.484c-.253.416-.705.67-1.191.674h-.006c-.486 0-.935-.252-1.191-.662l-16.325-26.275H57.023l27.079 43.816c.276.447.279 1.013.006 1.465L59.28 267.279h19.955L184.739 91.565a1.402 1.402 0 0 1 2.604.721v206.116Zm167.643 2.801H185.942a1.4 1.4 0 0 1-1.402-1.401V97.343L81.229 269.404c-.254.42-.709.68-1.202.68H56.785a1.402 1.402 0 0 1-1.197-2.131l25.677-42.174-27.947-45.223a1.399 1.399 0 0 1 1.191-2.138H77.75c.486 0 .936.251 1.192.663l15.533 25.002 101.053-165.97a1.402 1.402 0 0 1 1.196-.672h.001a1.4 1.4 0 0 1 1.196.671l80.804 132.358c.256.254.412.605.412.993 0 .782-.697 1.429-1.424 1.401H254.44c-.489 0-.944-.254-1.198-.671l-45.778-74.977v179.68h134.677c.493 0 .95.26 1.204.684l12.844 21.504c.259.433.265.97.017 1.41-.25.439-.715.709-1.22.709" style="fill:#003a5d;fill-rule:nonzero"/><path d="M147.248 181.188h-5.702l-53.317 87.493h87.723v-19.594h-52.548l8.749-14.355h43.799V215.14h-31.856l8.752-14.36h23.104v-19.592h-28.704Z" style="fill:#f5a81b;fill-rule:nonzero"/><path d="M90.724 267.279h83.826v-16.791h-51.146a1.4 1.4 0 0 1-1.197-2.131l8.749-14.355a1.404 1.404 0 0 1 1.197-.672h42.397v-16.787h-30.455c-.506 0-.974-.276-1.222-.717a1.398 1.398 0 0 1 .026-1.414l8.752-14.36a1.4 1.4 0 0 1 1.196-.673h21.703V182.59h-32.218l-51.608 84.689Zm85.228 2.805H88.229a1.402 1.402 0 0 1-1.196-2.131l53.316-87.493a1.4 1.4 0 0 1 1.196-.673h34.407a1.4 1.4 0 0 1 1.401 1.401v19.592a1.4 1.4 0 0 1-1.401 1.402h-22.319l-7.043 11.556h29.362c.774 0 1.401.629 1.401 1.402v19.592a1.4 1.4 0 0 1-1.401 1.401H132.94l-7.041 11.552h50.053c.774 0 1.401.627 1.401 1.403v19.593c0 .776-.627 1.403-1.401 1.403" style="fill:#003a5d;fill-rule:nonzero"/><path d="M301.839 249.088h-64.67V200.78h35.17l29.5 48.308Zm-41.465-67.899H215.88v87.493h121.158l-53.428-87.516h-23.25l.014.023Z" style="fill:#f5a81b;fill-rule:nonzero"/><path d="M238.571 247.686h60.771l-27.789-45.503h-32.982v45.503Zm63.268 2.803h-64.67a1.402 1.402 0 0 1-1.402-1.401v-48.307c0-.774.628-1.401 1.402-1.401h35.17c.488 0 .943.254 1.197.671l29.5 48.307a1.402 1.402 0 0 1-1.197 2.131m-84.557 16.791H334.54l-51.715-84.712H260.62c-.08.014-.162.023-.246.023h-43.092v84.689Zm119.801 2.804a.17.17 0 0 0-.045 0H215.88a1.401 1.401 0 0 1-1.402-1.402v-87.493a1.4 1.4 0 0 1 1.402-1.401h44.234c.08-.016.162-.023.246-.023h23.25c.488 0 .943.254 1.197.671l53.266 87.254a1.4 1.4 0 0 1-.99 2.394" style="fill:#003a5d;fill-rule:nonzero"/><defs><linearGradient id="a" x1="0" y1="0" x2="1" y2="0" gradientUnits="userSpaceOnUse" gradientTransform="rotate(45 -8.75 19.627) scale(552.701)"><stop offset="0" style="stop-color:#fff;stop-opacity:1"/><stop offset="1" style="stop-color:#d5d4d5;stop-opacity:1"/></linearGradient></defs></svg>