<?xml version="1.0" encoding="UTF-8" standalone="no"?><!DOCTYPE svg PUBLIC "-//W3C//DTD SVG 1.1//EN" "http://www.w3.org/Graphics/SVG/1.1/DTD/svg11.dtd"><svg width="100%" height="100%" viewBox="0 0 411 410" version="1.1" xmlns="http://www.w3.org/2000/svg" xmlns:xlink="http://www.w3.org/1999/xlink" xml:space="preserve" xmlns:serif="http://www.serif.com/" style="fill-rule:evenodd;clip-rule:evenodd;stroke-linejoin:round;stroke-miterlimit:1.41421;"><g id="color"><path d="M12.066,6.067c-3.656,0 -6.622,2.965 -6.622,6.619l0,385.365c0,3.658 2.966,6.623 6.622,6.623l385.367,0c3.654,0 6.619,-2.965 6.619,-6.623l0,-385.365c0,-3.654 -2.965,-6.619 -6.619,-6.619l-385.367,0Z" style="fill:url(#_Linear1);fill-rule:nonzero;"/><path d="M12.066,8.402c-2.363,0 -4.286,1.922 -4.286,4.284l0,385.364c0,2.366 1.923,4.289 4.286,4.289l385.367,0c2.362,0 4.283,-1.923 4.283,-4.289l0,-385.364c0,-2.362 -1.921,-4.284 -4.283,-4.284l-385.367,0Zm385.367,398.607l-385.367,0c-4.939,0 -8.957,-4.017 -8.957,-8.959l0,-385.364c0,-4.938 4.018,-8.955 8.957,-8.955l385.367,0c4.938,0 8.955,4.017 8.955,8.955l0,385.364c0,4.942 -4.017,8.959 -8.955,8.959" style="fill:#003a5d;fill-rule:nonzero;"/><path d="M74.74,366.607l-5.868,0l0,-13.463l-13.168,-20.598l6.849,0l9.242,14.848l9.263,-14.848l6.851,0l-13.169,20.598l0,13.463Z" style="fill:#003a5d;fill-rule:nonzero;"/><path d="M116.557,366.607l-25.14,0l0,-34.061l25.14,0l0,5.87l-19.269,0l0,8.238l16.448,0l0,5.867l-16.448,0l0,8.215l19.269,0l0,5.871Z" style="fill:#003a5d;fill-rule:nonzero;"/><path d="M145.207,366.607l-22.776,0l0,-34.061l5.87,0l0,28.19l16.906,0l0,5.871Z" style="fill:#003a5d;fill-rule:nonzero;"/><path d="M155.549,360.736l17.62,0l0,-22.32l-17.62,0l0,22.32Zm18.204,5.871l-18.787,0c-0.719,0 -1.41,-0.14 -2.053,-0.418c-0.637,-0.265 -1.206,-0.648 -1.687,-1.13c-0.473,-0.475 -0.855,-1.041 -1.132,-1.68c-0.276,-0.65 -0.415,-1.342 -0.415,-2.059l0,-23.488c0,-0.715 0.139,-1.406 0.414,-2.053c0.277,-0.646 0.649,-1.193 1.137,-1.677c0.479,-0.473 1.043,-0.852 1.68,-1.129c0.646,-0.284 1.339,-0.426 2.056,-0.426l18.787,0c0.717,0 1.41,0.142 2.057,0.428c0.633,0.275 1.197,0.654 1.677,1.125c0.488,0.486 0.869,1.048 1.137,1.679c0.275,0.647 0.414,1.338 0.414,2.053l0,23.488c0,0.717 -0.139,1.409 -0.414,2.053c-0.273,0.637 -0.654,1.205 -1.131,1.686c-0.485,0.484 -1.052,0.865 -1.691,1.134c-0.639,0.274 -1.33,0.414 -2.049,0.414" style="fill:#003a5d;fill-rule:nonzero;"/><rect x="185.853" y="349.935" width="12.154" height="5.684" style="fill:#003a5d;"/><path d="M210.599,346.514l12.054,0c0.934,-0.039 1.617,-0.283 2.004,-0.725c0.398,-0.461 0.601,-1.224 0.601,-2.267l0,-2.158c0,-1.092 -0.223,-1.883 -0.665,-2.35c-0.431,-0.457 -1.192,-0.688 -2.261,-0.688l-11.733,0l0,8.188Zm0,14.314l12.675,0c1.064,0 1.824,-0.232 2.26,-0.689c0.441,-0.465 0.664,-1.244 0.664,-2.326l0,-2.549c0,-1.092 -0.223,-1.873 -0.66,-2.32c-0.434,-0.448 -1.196,-0.674 -2.264,-0.674l-12.675,0l0,8.558Zm12.812,5.78l-18.591,0l0,-34.061l17.651,0c5.683,0 8.565,2.889 8.565,8.588l0,0.598c0,1.929 -0.319,3.543 -0.945,4.793c-0.462,0.916 -1.11,1.67 -1.932,2.25c0.309,0.158 0.605,0.334 0.885,0.529c0.626,0.441 1.164,1.01 1.603,1.686c0.428,0.673 0.762,1.466 0.99,2.363c0.227,0.887 0.34,1.91 0.34,3.037l0,1.65c0,5.604 -2.963,8.567 -8.566,8.567" style="fill:#003a5d;fill-rule:nonzero;"/><path d="M245.874,353.17l9.533,0l-4.746,-12.299l-4.787,12.299Zm20.662,13.438l-5.955,0l-2.912,-7.573l-14.039,0l-2.912,7.573l-5.955,0l13.136,-34.061l5.502,0l13.135,34.061Z" style="fill:#003a5d;fill-rule:nonzero;"/><path d="M294.817,366.607l-18.787,0c-0.721,0 -1.41,-0.141 -2.053,-0.418c-0.639,-0.266 -1.207,-0.648 -1.687,-1.131c-0.475,-0.474 -0.856,-1.041 -1.133,-1.68c-0.276,-0.65 -0.414,-1.341 -0.414,-2.058l0,-28.774l5.871,0l0,28.19l17.619,0l0,-28.19l5.867,0l0,28.774c0,0.717 -0.138,1.408 -0.412,2.053c-0.273,0.636 -0.654,1.205 -1.133,1.685c-0.482,0.485 -1.05,0.865 -1.689,1.135c-0.641,0.273 -1.33,0.414 -2.049,0.414" style="fill:#003a5d;fill-rule:nonzero;"/><rect x="306.917" y="358.58" width="8.025" height="8.027" style="fill:#003a5d;"/><rect x="321.3" y="331.605" width="5.662" height="35.002" style="fill:#003a5d;"/><path d="M356.093,366.607l-5.686,0l0,-1.863c-0.148,0.179 -0.308,0.349 -0.478,0.504c-0.451,0.418 -0.977,0.75 -1.559,0.992c-0.593,0.244 -1.224,0.367 -1.877,0.367l-8.096,0c-0.69,0 -1.356,-0.137 -1.975,-0.404c-0.611,-0.264 -1.154,-0.629 -1.613,-1.082c-0.459,-0.459 -0.824,-1.004 -1.088,-1.623c-0.27,-0.616 -0.404,-1.287 -0.404,-1.995l0,-20.492l5.662,0l0,19.909l11.428,0l0,-19.909l5.686,0l0,25.596Z" style="fill:#003a5d;fill-rule:nonzero;"/><path d="M342.141,278.297l-136.078,0l0,-186.065l48.377,79.231l23.25,0l-80.965,-132.621l-102.237,167.914l-16.738,-26.936l-23.241,0l28.401,45.954l-26.124,42.908l23.241,0l105.915,-176.395l0,207.516l169.044,0l-12.845,-21.506Z" style="fill:#f5a81b;fill-rule:nonzero;"/><path d="M187.343,298.402l165.174,0l-11.171,-18.703l-135.283,0c-0.775,0 -1.403,-0.627 -1.403,-1.402l0,-186.065c0,-0.629 0.418,-1.18 1.023,-1.35c0.613,-0.169 1.25,0.086 1.576,0.62l47.966,78.559l19.967,0l-78.466,-128.526l-101.041,165.949c-0.253,0.416 -0.705,0.67 -1.191,0.674l-0.006,0c-0.486,0 -0.935,-0.252 -1.191,-0.662l-16.325,-26.275l-19.949,0l27.079,43.816c0.276,0.447 0.279,1.013 0.006,1.465l-24.828,40.777l19.955,0l105.504,-175.714c0.327,-0.539 0.967,-0.795 1.577,-0.629c0.606,0.168 1.027,0.721 1.027,1.35l0,206.116Zm167.643,2.801l-169.044,0c-0.775,0 -1.402,-0.627 -1.402,-1.401l0,-202.459l-103.311,172.061c-0.254,0.42 -0.709,0.68 -1.202,0.68l-23.242,0c-0.506,0 -0.973,-0.274 -1.221,-0.715c-0.248,-0.442 -0.24,-0.985 0.024,-1.416l25.677,-42.174l-27.947,-45.223c-0.269,-0.432 -0.28,-0.975 -0.033,-1.418c0.247,-0.445 0.715,-0.72 1.224,-0.72l23.241,0c0.486,0 0.936,0.251 1.192,0.663l15.533,25.002l101.053,-165.97c0.254,-0.417 0.708,-0.672 1.196,-0.672l0.001,0c0.488,0 0.942,0.254 1.196,0.671l80.804,132.358c0.256,0.254 0.412,0.605 0.412,0.993c0,0.782 -0.697,1.429 -1.424,1.401l-0.023,0l-23.25,0c-0.489,0 -0.944,-0.254 -1.198,-0.671l-45.778,-74.977l0,179.68l134.677,0c0.493,0 0.95,0.26 1.204,0.684l12.844,21.504c0.259,0.433 0.265,0.97 0.017,1.41c-0.25,0.439 -0.715,0.709 -1.22,0.709" style="fill:#003a5d;fill-rule:nonzero;"/><path d="M147.248,181.188l-5.702,0l-53.317,87.493l87.723,0l0,-19.594l-52.548,0l8.749,-14.355l43.799,0l0,-19.592l-31.856,0l8.752,-14.36l23.104,0l0,-19.592l-11.167,0l-17.537,0Z" style="fill:#f5a81b;fill-rule:nonzero;"/><path d="M90.724,267.279l83.826,0l0,-16.791l-51.146,0c-0.507,0 -0.974,-0.273 -1.222,-0.715c-0.248,-0.441 -0.238,-0.982 0.025,-1.416l8.749,-14.355c0.255,-0.416 0.707,-0.672 1.197,-0.672l42.397,0l0,-16.787l-30.455,0c-0.506,0 -0.974,-0.276 -1.222,-0.717c-0.248,-0.442 -0.238,-0.983 0.026,-1.414l8.752,-14.36c0.254,-0.418 0.707,-0.673 1.196,-0.673l21.703,0l0,-16.789l-32.218,0l-51.608,84.689Zm85.228,2.805l-87.723,0c-0.507,0 -0.974,-0.274 -1.222,-0.715c-0.248,-0.444 -0.238,-0.985 0.026,-1.416l53.316,-87.493c0.254,-0.418 0.707,-0.673 1.196,-0.673l34.407,0c0.774,0 1.401,0.627 1.401,1.401l0,19.592c0,0.775 -0.627,1.402 -1.401,1.402l-22.319,0l-7.043,11.556l29.362,0c0.774,0 1.401,0.629 1.401,1.402l0,19.592c0,0.774 -0.627,1.401 -1.401,1.401l-43.012,0l-7.041,11.552l50.053,0c0.774,0 1.401,0.627 1.401,1.403l0,19.593c0,0.776 -0.627,1.403 -1.401,1.403" style="fill:#003a5d;fill-rule:nonzero;"/><path d="M301.839,249.088l-64.67,0l0,-48.308l35.17,0l29.5,48.308Zm-41.465,-67.899l-23.205,0l-0.552,0l-20.737,0l0,87.493l121.158,0l-53.428,-87.516l-23.25,0l0.014,0.023Z" style="fill:#f5a81b;fill-rule:nonzero;"/><path d="M238.571,247.686l60.771,0l-27.789,-45.503l-32.982,0l0,45.503Zm63.268,2.803l-64.67,0c-0.774,0 -1.402,-0.627 -1.402,-1.401l0,-48.307c0,-0.774 0.628,-1.401 1.402,-1.401l35.17,0c0.488,0 0.943,0.254 1.197,0.671l29.5,48.307c0.264,0.432 0.273,0.974 0.025,1.416c-0.248,0.441 -0.715,0.715 -1.222,0.715m-84.557,16.791l117.258,0l-51.715,-84.712l-22.205,0c-0.08,0.014 -0.162,0.023 -0.246,0.023l-43.092,0l0,84.689Zm119.801,2.804c-0.016,-0.002 -0.032,-0.002 -0.045,0l-121.158,0c-0.775,0 -1.402,-0.627 -1.402,-1.402l0,-87.493c0,-0.774 0.627,-1.401 1.402,-1.401l44.234,0c0.08,-0.016 0.162,-0.023 0.246,-0.023l23.25,0c0.488,0 0.943,0.254 1.197,0.671l53.266,87.254c0.254,0.254 0.412,0.605 0.412,0.992c0,0.775 -0.627,1.402 -1.402,1.402" style="fill:#003a5d;fill-rule:nonzero;"/></g><defs><linearGradient id="_Linear1" x1="0" y1="0" x2="1" y2="0" gradientUnits="userSpaceOnUse" gradientTransform="matrix(390.818,390.819,-390.819,390.818,11.3151,11.9361)"><stop offset="0" style="stop-color:#fff;stop-opacity:1"/><stop offset="1" style="stop-color:#d5d4d5;stop-opacity:1"/></linearGradient></defs></svg>