<svg viewBox="0 0 574 460" xmlns="http://www.w3.org/2000/svg" xml:space="preserve" style="fill-rule:evenodd;clip-rule:evenodd;stroke-linejoin:round;stroke-miterlimit:2"><path d="m447.603 335.826-1.721-2.529c-.571.492-1.695 1.126-1.613 1.452.264 1.034.978 1.954 1.519 2.918l1.815-1.841m31.228 37.095-.928-.021c-.313.67-.952 1.388-.863 1.997.137.908.788 1.74 1.219 2.604.572-.506 1.641-1.037 1.615-1.511-.053-1.039-.661-2.048-1.043-3.069m-129.044 25.451-2.228-2.139c-.49.577-1.474 1.268-1.372 1.707.221.95.998 1.771 1.547 2.645.564-.611 1.131-1.221 2.053-2.213m64.404-100.27c-.337-2.888-.387-4.754-3.449-4.316-2.17.31-1.892 1.634-1.633 2.886.869 4.199 3.253-.221 5.082 1.43m63.801 82.815c.079.977.072 2.013.262 3.01.88 4.659 1.762 9.32 2.786 13.949.161.723 1.062 1.282 1.62 1.917.303-.799.964-1.651.853-2.386-.736-4.862-1.786-9.68-2.416-14.554-.278-2.146-1.067-2.598-3.106-1.936m-124.536 41.601c-1.214-6.372-2.41-12.653-3.632-19.08l-2.334.613c.873 5.494 1.755 10.787 2.541 16.094.26 1.762.548 3.255 3.425 2.373m92.031-81.352c.898 5.751 1.694 11.304 2.709 16.815.141.773 1.355 1.347 2.073 2.012.293-.762.935-1.58.822-2.277-.911-5.653-1.964-11.282-3.007-17.097l-2.596.547m38.159 32.305c.57 2.026 1.19 3.666 1.483 5.362 1.072 6.182 2 12.389 3.091 18.567.094.523 1.005 1.243 1.531 1.24.447-.002 1.041-.861 1.277-1.458.18-.45-.079-1.088-.183-1.635-.601-3.182-1.257-6.354-1.815-9.543-.724-4.134-1.303-8.295-2.127-12.407-.123-.62-1.183-1.218-1.928-1.458-.277-.089-.894.876-1.329 1.332m-137.645 49.983c-.037-.557-.028-1.116-.119-1.66-1.258-7.498-2.532-14.993-3.8-22.49-.372-2.206-1.663-1.886-3.231-1.196.147 1.168.231 2.28.433 3.369 1.267 6.844 2.656 13.667 3.794 20.532.362 2.185 1.061 2.595 2.924 1.445m109.951-64.543 1.164.319c.349-.755 1.051-1.543.987-2.26-.298-3.322-.96-6.612-1.2-9.934-.229-3.156 1.38-5.191 4.015-6.202.643-.246.955-1.356 1.419-2.069-.827-.168-1.874-.735-2.438-.424-1.488.819-2.767 2.02-4.217 3.137l-1.417-3.046c-.656 1.35-1.387 2.12-1.288 2.761.91 5.918 1.963 11.815 2.975 17.718m-94.348-3c.505 3.504.921 6.727 1.446 9.931.409 2.495.859 4.994 1.504 7.435.163.616 1.146 1.016 1.752 1.515.289-.697.881-1.425.817-2.087-.294-3-.876-5.972-1.163-8.973-.363-3.803.96-5.692 4.411-7.153.471-.2.574-1.271.846-1.939-.632-.191-1.495-.745-1.858-.513-1.724 1.099-3.31 2.413-5.077 3.75l-.615-2.451-2.063.485m52.004-55.119c-2.006.464-3.894.19-3.429 2.626 1.023 5.351 1.995 10.715 3.17 16.032.111.505 1.612 1.146 2.272.973.803-.211 2.06-1.304 1.985-1.863-.719-5.321-1.632-10.618-2.622-15.897-.141-.75-.989-1.366-1.377-1.871m-59.297 55.184c-.072-.719-.067-1.934-.366-3.069-.153-.574-.776-1.18-1.337-1.434-.362-.163-1.415.239-1.444.473-.121.995-.142 2.067.115 3.027.406 1.52.644 2.65-1.529 2.793-.361.024-.641 1.263-1.211 2.476 3.744-.981 4.273 1.038 4.607 3.205.423 2.75.711 5.523 1.2 8.261.738 4.138 2.292 5.175 5.984 4.09.489-.144.863-.677 1.29-1.03-.544-.316-1.124-.951-1.625-.894-2.276.26-2.998-.837-3.028-2.895-.011-.854-.379-1.697-.514-2.556-.488-3.079-.948-6.163-1.303-8.491l3.45-2.272-4.288-1.684m81.531-14.081-2.728 2.17c.855.254 1.774.392 2.548.803.586.311 1.317.911 1.418 1.483.781 4.383 1.361 8.801 2.163 13.18.149.818 1.01 1.507 1.544 2.255.385-.875 1.188-1.804 1.084-2.616a182.963 182.963 0 0 0-2.012-12.223c-.387-1.941-.193-3.128 2.096-3.234.363-.017.697-.609 1.043-.935-.361-.322-.69-.86-1.091-.922-.907-.14-1.849-.044-2.794-.044-.483-2.351-1.848-4.764 2.013-5.144.307-.03.834-1.204.675-1.626-.163-.429-1.12-.914-1.603-.807-3.339.742-4.46 2.325-4.359 5.817.024.791.003 1.583.003 1.843m-23.642 49.726c-1.029.385-2.778.831-4.322 1.659-3.507 1.881-4.447 5.266-4.245 8.858.236 4.157 1.587 7.887 5.913 9.656 5.633 2.303 11.031-.522 11.572-6.107.063-.649-.329-1.344-.51-2.018-.588.542-1.442.972-1.72 1.642-1.777 4.286-4.357 5.86-7.981 4.463-2.615-1.008-3.195-3.582-4.329-5.855-1.371-2.747.586-7.381 2.752-8.743 2.779-1.75 5.387-.977 7.844 1.874.43.498 1.49.451 2.259.656.008-.665.226-1.418-.011-1.981-1.183-2.828-3.609-3.755-7.221-4.104m-74.078 26.039c-.021-6.771-3.427-10.764-9.176-10.758-5.77.005-9.146 3.453-9.17 9.366-.025 6.372 3.911 11.204 9.243 11.038 5.209-.162 9.394-3.007 9.103-9.646m191.163-27.56c1.086.363 1.978.789 2.904.872.207.02.84-1.209.741-1.771a498.95 498.95 0 0 0-3.034-15.895c-.109-.527-.971-.898-1.482-1.342-.409.54-1.216 1.127-1.161 1.613.286 2.438 1.033 4.839 1.164 7.276.137 2.529.24 5.244-.535 7.583-.774 2.342-3.464 2.93-5.629 2.213-1.336-.441-2.851-2.018-3.22-3.376-.997-3.665-1.357-7.499-2.135-11.232-.15-.718-1.054-1.278-1.61-1.911-.422.713-1.279 1.482-1.192 2.128.36 2.733.945 5.442 1.558 8.135.484 2.135.714 4.476 1.784 6.298 2.245 3.821 8.467 3.218 11.846-.591m-137.941-18.916c.687-1.127 1.471-1.814 1.387-2.372a422.903 422.903 0 0 0-2.819-16.629c-.103-.538-1.221-.881-1.866-1.316-.363.584-1.089 1.208-1.029 1.745.294 2.676.402 5.478 1.337 7.948.928 2.458.813 4.64-.57 6.513-.896 1.212-2.608 2.319-4.062 2.475-1.37.146-3.215-.68-4.225-1.7-.876-.882-.994-2.615-1.237-4.007-.475-2.736-.676-5.525-1.271-8.229-.191-.862-1.271-1.529-1.944-2.285-.345.845-1.077 1.742-.972 2.527.514 3.852 1.077 7.713 1.959 11.493.896 3.842 4.118 5.787 7.918 4.695 2.148-.618 4.07-2.025 6.088-3.071l1.307 2.213m7.714 30.042.579-.829c-.832-4.58-5.462-6.373-10.493-4.13-2.25 1.003-4.012 2.487-3.916 5.051.089 2.467 1.392 4.273 4.132 4.628 2.26.293 4.555.504 6.748 1.085 1.103.293 2.851 1.358 2.829 2.022-.045 1.294-.803 3.109-1.846 3.724-3.553 2.095-5.305 1.415-7.998-2.169-.344-.455-1.341-.419-2.034-.611-.132.574-.553 1.309-.339 1.692.612 1.103 1.269 2.45 2.288 3.01 3.853 2.121 7.593 1.467 11.147-.989 1.899-1.313 2.311-3.159 1.966-5.19-.334-1.957-1.513-3.475-3.545-3.842-2.49-.45-5.026-.636-7.543-.928-2.353-.273-4.055-2.257-2.897-3.614.965-1.131 2.703-2.106 4.151-2.183 1.496-.079 3.091.927 4.568 1.618.813.381 1.474 1.093 2.202 1.655m6.748-95.547c1.214-4.074-1.714-2.826-3.546-2.931l-1.357-5.351a4928.5 4928.5 0 0 1-3.996.418c.108 2.023.206 3.831.3 5.613-3.103 1.039-3.151 1.167-1.57 4.143l2.447-.297c.615 3.479 1.02 6.945 1.91 10.281.417 1.564 1.478 3.609 2.77 4.125 1.78.709 4.056.177 6.119.177l.629-1.044c-.713-.746-1.534-2.205-2.115-2.115-2.389.368-2.887-1.012-3.221-2.766-.325-1.713-.623-3.431-.926-5.148-.733-4.134-.493-4.611 2.555-5.105M381.26 410.8c-.981 4.757-3.089 6.399-7.291 5.96-2.836-.296-4.954-2.839-4.816-6.049 3.932-.633 7.905-1.38 11.908-1.874 2.279-.282 2.306-1.537 1.82-3.179-.194-.658-.623-1.245-.917-1.878-3.164-6.806-11.098-6.337-14.385-1.931-2.011 2.695-1.791 5.8-1.467 8.916.499 4.804 3.887 8.522 8.158 8.62 4.491.103 9.136-2.612 9.319-8.398l-2.329-.187m-81.709 1.474-1.012-.198c-.216.86-.693 1.75-.599 2.575.249 2.187.766 4.342 1.139 6.516 1 5.842 1.979 11.686 2.968 17.536 2.181.17 3.07-.11 2.233-2.489-.707-2.011-.662-4.286-.9-6.066 2.843.234 5.726 1.259 7.904.432 2.28-.867 4.397-3.224 5.662-5.453 1.853-3.268-.685-10.817-3.871-13.345-3.432-2.722-6.732-2.138-12.537 2.282l-.987-1.79m207.221-34.335c-5.022-2.572-10.089-1.666-12.49 2.049-2.463 3.809-1.228 12.184 2.204 14.94 4.223 3.393 8.419 2.694 12.936-1.891l2.314 1.903c.161-.94.563-1.914.444-2.817-.628-4.727-1.31-9.448-2.127-14.146-.59-3.395-1.42-6.749-2.142-10.122-.382.022-.764.042-1.147.063-2.606 3.098.685 6.607.008 10.021M303.303 360.99c-.158.648-.173.981-.313 1.247-3.423 6.51-6.84 13.023-10.306 19.508-1.008 1.887-2.591 3.596-1.368 6.176 2.395-.387 4.738-.762 7.081-1.144 4.071-.663 8.152-1.28 12.201-2.061.48-.093.784-1.093 1.17-1.672-.59-.391-1.248-1.189-1.758-1.103-2.407.401-4.76 1.124-7.16 1.58-2.791.531-5.612.903-8.72 1.39.673-1.441 1.053-2.373 1.53-3.253 3.644-6.738 7.355-13.441 10.907-20.228.475-.91.172-2.227.228-3.355-1.064.056-2.137.049-3.19.192-.607.083-1.165.51-1.774.61-4.548.749-9.103 1.455-13.894 2.212l.362 2.453 15.004-2.552m28.233-25.278c1.494-.786 3.754-1.339 3.855-2.157.239-1.946-.641-4.005-.888-6.041-.286-2.347-.801-4.797-.377-7.044.213-1.13 2.212-2.495 3.544-2.666 1.136-.147 3.283 1.025 3.573 2.023 1.034 3.558 1.519 7.28 2.103 10.958.315 1.979 1.491 1.987 3.094 1.882 1.902-.124 1.765-1.303 1.557-2.5-.681-3.91-1.268-7.849-2.213-11.697-.913-3.715-2.662-5.074-6.495-4.611-2.401.291-4.674 1.638-7.034 2.522-.739-2.282-2.721-.071-4.426-.553l3.707 19.884m89.417-28.47c-.427 6.324 4.067 11.041 9.62 10.927 6.008-.123 10.276-4.094 10.097-9.775-.194-6.151-3.603-10.686-9.646-10.881-5.375-.173-10.924 4.493-10.071 9.729m-95.906 21.356c-.053-6.465-3.98-10.87-9.791-10.701-6.264.182-9.958 3.763-9.951 9.945.006 6.151 4.135 10.966 9.518 10.734 5.649-.243 10.461-3.227 10.224-9.978m144.275-17.788c4.048.285 4.409-.028 3.946-3.584-.448-3.446-1.235-6.875-1.32-10.325-.027-1.076 1.555-2.64 2.757-3.165 1.079-.471 3.095-.292 3.882.458.942.896 1.15 2.675 1.44 4.119.692 3.448 1.246 6.923 1.903 10.659 1.881-.904 4.603.26 4.165-2.707-.635-4.3-1.384-8.623-2.588-12.791-1.103-3.82-4.032-5.067-7.905-3.865-1.304.405-2.475 1.232-3.709 1.86-.468.238-1.338.692-1.359.657-1.433-2.442-2.993-.277-4.664-.335l3.452 19.019m-25.708-14.755c.513 3.498 1.037 6.857 1.496 10.226.731 5.373 2.235 7.755 6.198 7.9 2.456.091 4.962-1.193 6.657-1.648 2.355-.211 4.011-.359 5.703-.512-.917-5.864-1.769-11.114-2.545-16.375-.293-1.979-1.034-3.102-3.294-2.607-2.313.508-1.683 2.022-1.43 3.53.564 3.362 1.212 6.723 1.52 10.111.181 1.977-2.48 4.583-4.364 4.007-1.379-.421-2.875-2.147-3.321-3.598-1.089-3.543-1.549-7.275-2.402-10.898-.115-.487-1.059-1.135-1.573-1.095-.898.068-1.76.612-2.645.959m-68.256 18.439c1.734-.93 3.864-1.35 4.407-2.512 1.132-2.42 2.968-2.691 4.996-2.575.804.046 2.198 1.118 2.178 1.682-.033.918-.813 2.119-1.632 2.623-1.098.674-2.568.704-3.816 1.177-2.491.943-5.059 2-5.606 5-1.043 5.725 5.172 7.955 8.892 6.468 2.395-.958 4.624-3.297 7.637-1.471.395.24 1.219.176 1.622-.087.753-.493 1.773-1.175 1.875-1.892.088-.633-.908-1.433-1.453-2.137-.427-.552-1.187-1.015-1.301-1.613-.492-2.567-.791-5.171-1.174-7.76-.592-3.996-2.426-5.588-6.52-5.634-1.036-.013-2.1-.078-3.105.119-3.64.713-8.102 3.236-7 8.612m-93.975 2.198c1.035 6.534 1.957 12.413 2.901 18.288.34 2.118.72 4.23 1.104 6.339.467 2.564 2.413 1.504 3.775 1.316.421-.058 1-1.456.929-2.186-.299-3.143-.813-6.264-1.282-9.632l11.556-2.144-.424-3.921-11.891 1.931-1.145-6.627 13.269-2.361-.297-4.214c-6.338 1.101-12.383 2.151-18.495 3.211M452.21 377.79c-.033.652-.146 1.137-.069 1.588 1.343 7.802 2.678 15.605 4.135 23.386.104.558 1.193 1.392 1.74 1.333 3.312-.363 6.634-.789 9.88-1.517 1.946-.437 3.94-1.188 5.597-2.278 3.974-2.617 4.369-10.426-2.859-13.029.184-.269.324-.553.534-.77 1.845-1.905 2.887-4.199 1.643-6.647-1.362-2.68-3.522-4.655-6.946-4.147-4.538.673-9.072 1.381-13.655 2.081M252.715 275.993c.248-.111.494-.223.742-.333 4.474 5.247 10.081 8.019 16.945 8.415 8.651.499 16.757-1.17 23.584-6.585 8.792-6.974 11.084-16.946 10.519-27.45-.309-5.768-1.829-11.605-3.665-17.124-2.882-8.671-8.576-15.474-17.069-19.041-8.484-3.563-17.189-3.033-25.452 1.298-5.833 3.056-10.125 7.524-12.209 13.919-.156.482-.78.811-1.188 1.211-.315-.485-.823-.936-.912-1.459-.466-2.746-.691-5.539-1.306-8.247-.173-.758-1.299-1.611-2.141-1.827-1.016-.261-2.192.11-3.66.24.171 1.815.222 3.548.512 5.24.855 4.983 1.827 9.945 2.705 14.924.757 4.298 1.402 8.617 2.18 12.912.945 5.211 2.02 10.397 2.959 15.609.789 4.38 1.426 8.787 2.201 13.17 1.201 6.797 2.455 13.584 3.702 20.372.64 3.486 1.313 6.968 1.995 10.576 1.188-.313 2.037-.768 2.849-.708 2.338.175 2.622-.9 2.24-2.877a1278.038 1278.038 0 0 1-3.968-21.541c-.621-3.547-1.048-7.129-1.563-10.694M234.646 72.997c-10.66.782-21.255.967-31.579 3.82-7.333 2.026-14.718 3.876-21.987 6.109-9.207 2.828-17.958 6.777-26.057 12.02-6.716 4.348-13.584 8.547-19.841 13.5-12.73 10.077-23.746 21.905-32.24 35.777a276.303 276.303 0 0 0-14.8 27.56c-2.828 6.069-4.777 12.686-6.163 19.258-2.03 9.63-3.993 19.397-4.528 29.185-.581 10.638.224 21.386.975 32.048.394 5.592 1.546 11.222 3.107 16.618 2.194 7.589 4.993 15.011 7.703 22.442 4.127 11.315 10.248 21.617 17.286 31.276 9.014 12.372 19.644 23.287 31.904 32.561 11.92 9.016 24.694 16.559 38.721 21.71 7.751 2.846 15.705 5.43 23.787 7.008 9.635 1.88 19.495 3.403 29.276 3.523 10.524.129 21.066-1.59 31.608-2.402 2.368-.183 3.559-1.166 3.403-3.543-.174-2.645-2.016-2.962-4.096-2.704-4.731.584-9.45 1.713-14.183 1.762-9.883.101-19.809.085-29.648-.726-7.362-.607-14.653-2.358-21.909-3.914-11.231-2.41-21.658-7.014-31.806-12.288-10.184-5.292-19.564-11.804-28.25-19.251-8.863-7.6-16.731-16.195-23.61-25.644-7.162-9.838-12.987-20.479-17.526-31.73-2.691-6.669-4.517-13.707-6.477-20.651-2.984-10.571-4.111-21.48-4.303-32.382-.282-16.027 1.45-31.838 6.521-47.234 3.013-9.147 6.527-17.974 10.999-26.514 6.735-12.862 15.272-24.302 25.259-34.777 7.517-7.884 15.908-14.693 24.977-20.625 5.374-3.514 10.974-6.851 16.852-9.386 9.005-3.884 18.218-7.388 27.573-10.32 6.226-1.952 12.805-3.155 19.312-3.747 9.112-.828 18.314-1.196 27.457-.96 6.693.172 13.4 1.374 20.014 2.59 6.267 1.153 12.544 2.548 18.591 4.525 6.335 2.07 12.591 4.585 18.538 7.587 6.842 3.454 13.302 7.664 19.941 11.522 1.615.939 3.361 1.769 4.804-.17 1.234-1.654 1.458-3.518-.481-4.808-4.517-3.003-8.96-6.179-13.741-8.702-5.958-3.144-12.058-6.183-18.399-8.4-9.34-3.266-18.81-6.448-28.481-8.396-9.332-1.88-18.988-2.15-28.503-3.127m84.292 105.046-2.588.837-2.849.262-4.711.886 1.135 2.314c.079.945.159 1.891.24 2.836l.884 2.737c.747 5.025 1.382 10.069 2.27 15.069 1.178 6.628 2.622 13.208 3.822 19.832.851 4.696 1.426 9.441 2.233 14.144a3415.477 3415.477 0 0 0 4.797 27.143c.557 3.093 1.229 6.165 1.851 9.259 1.454-.251 2.534-.446 3.616-.623 4.863-.793 9.735-1.526 14.587-2.383 6.387-1.127 12.747-2.406 19.138-3.513 6.563-1.138 13.228-1.742 19.135-5.34 6.545-3.988 10.76-9.747 12.422-17.052 1.142-5.017.909-10.245-.965-15.228-2.366-6.293-6.119-11.245-12.805-13.391-2.317-.743-4.646-1.444-7.249-2.252 1.717-1.403 3.162-2.274 4.208-3.489 7.034-8.165 7.791-17.902 2.353-27.559-5.061-8.989-17.506-13.289-27.545-10.396-4.701 1.355-9.668 1.793-14.518 2.622-6.485 1.108-12.974 2.191-19.461 3.285m-108 22.168.397.568c-1.083 2.213-2.147 4.436-3.252 6.639-4.031 8.04-8.101 16.062-12.108 24.115-3.189 6.409-6.24 12.889-9.477 19.273-4.785 9.438-9.716 18.8-14.518 28.229-2.993 5.876-5.966 11.767-8.713 17.758-.665 1.451-.398 3.329-.602 5.452 6.101-.98 11.443-1.76 16.754-2.708 6.554-1.171 13.071-2.549 19.625-3.712 8.373-1.485 16.769-2.837 25.153-4.264 2.192-.373 4.403-.705 6.538-1.295.524-.144.786-1.232 1.169-1.886-.618-.242-1.286-.779-1.846-.684-9.71 1.649-19.404 3.394-29.108 5.077-9.316 1.616-18.638 3.19-27.959 4.777-2.294.39-4.591.764-7.067 1.176.073-.629-.012-1.234.218-1.673 2.299-4.386 4.713-8.711 6.971-13.119 4.07-7.939 8.063-15.919 12.069-23.89 4.065-8.09 8.086-16.203 12.165-24.286 5.165-10.236 10.43-20.422 15.516-30.698 1.221-2.471 3.408-4.864 1.641-8.595l-64.362 11.291-.402.975c.735.616 1.54 1.829 2.191 1.752 3.864-.456 7.697-1.185 11.531-1.871 5.06-.907 10.106-1.892 15.168-2.781 4.382-.769 8.786-1.412 13.168-2.178 6.386-1.116 12.761-2.292 19.14-3.442m145.207 110.822-.908.302-.93.69c-3.351 2.194-3.692 5.541-3.25 9.033.464 3.663 2.149 6.905 5.423 8.645 3.495 1.857 7.004 1.164 10.029-1.551.298-.268.946-.207 1.428-.199 1.13.018 2.435.451 3.317.012.509-.254.587-1.922.427-2.88a1115.067 1115.067 0 0 0-3.687-20.529c-.175-.929-.563-2.369-1.158-2.545-1.014-.301-2.466-.083-3.344.502-.459.308-.181 1.872-.068 2.848.144 1.252.457 2.486.698 3.728l-.743 2.08-.817-.203c-2.159-1.958-4.296-1.62-6.416.067m-29.05 56.187c-2.058-4.459-8.032-6.193-11.962-3.376-5.942 4.258-4.228 15.075.635 17.785.509.385 1.018.772 1.525 1.158 6.844 1.401 12.247-2.18 11.701-8.798-1.19 1.113-2.274 1.675-2.62 2.533-1.43 3.563-2.99 4.627-6.793 4.214-2.641-.286-4.601-2.588-4.904-5.977l12.607-2.263 1.772-.798-.78-1.698c-.361-.84-.72-1.681-1.079-2.522l.195-.283-.297.025m31.186 48.49.835 2.121c.157 2.887 1.411 3.662 5.181 3.038.561-.093 1.037-.693 1.554-1.059-.554-.311-1.152-.949-1.652-.879-2.48.348-2.926-1.176-3.166-3.07-.15-1.181-.451-2.342-.64-3.518-.439-2.722-.852-5.448-1.29-8.27.605-.135 1.015-.145 1.343-.314.753-.388 1.466-.854 2.194-1.288-.787-.248-1.637-.383-2.347-.772-.802-.439-1.649-.988-2.153-1.715-.352-.508.043-1.506-.271-2.079-.337-.615-1.114-.99-1.699-1.47-.318.617-.765 1.204-.912 1.858-.112.502.114 1.1.259 1.637.392 1.441.635 2.695-1.519 2.892-.386.035-.683 1.04-1.259 1.987l3.367-.149c.316.851.634 1.701.951 2.551l.262 2.766.699 2.99.263 2.743m78.877-25.903-1.328-.811-.972-.132-3.791.014-.981.078-2.761 1.81-.079.08-2.032-.102-.136-1.933-1.173-4.039-.067-.772-1.518-.895c-.105.928-.207 1.856-.313 2.784l.099 1.461.832 3.829.137 1.931.829 3.826c.046.644.091 1.287.135 1.932l1.175 4.035.116 1.748.834 3.594.063.716c.406.266.812.532 1.216.799l.67-1.743-.154-2.408-.846-3.818-.12-1.941v-5.3l.14-.971 1.587-1.868.237.004.154-.181 1.142-.747 1.274-.096 4.356 1.324c.055.205.11.408.163.612l1.157 1.694.129 1.691.841 3.597.128 2.148c.279 1.195.555 2.39.832 3.587l.067 1.215a731.6 731.6 0 0 0 1.544.736l.325-2.636-.135-1.93c-.276-1.276-.554-2.552-.832-3.829-.042-.643-.087-1.287-.13-1.931-.272-1.117-.546-2.234-.82-3.351l-.118-.97-1.796-2.782-.081-.059ZM113.447 93.654l1.756-1.491 1.88-1.458 1.015-.893c7.73-6.814 16.358-12.332 25.229-17.504 10.514-6.13 21.561-11.182 33.167-14.715 9.352-2.847 18.914-5.305 28.558-6.795a212.019 212.019 0 0 1 31.163-2.485c8.79-.046 17.63 1.21 26.371 2.436 6.947.974 13.938 2.259 20.623 4.332 8.969 2.782 17.911 5.923 26.404 9.89 9.325 4.354 18.443 9.337 27.06 14.954 7.308 4.765 14.137 10.434 20.513 16.412a235.28 235.28 0 0 1 20.15 21.413c7.398 8.92 13.415 18.859 18.806 29.143 1.401 2.673 3.941 3.579 6.314 2.352 2.514-1.302 3.448-3.957 2.03-6.641-2.334-4.418-4.744-8.804-7.327-13.08-6.736-11.151-14.455-21.623-23.717-30.768-7.483-7.388-15.334-14.481-23.59-20.983-6.909-5.442-14.434-10.199-22.07-14.592-6.724-3.868-13.868-7.076-21.032-10.087-6.582-2.768-13.365-5.114-20.192-7.209-4.74-1.454-9.677-2.333-14.575-3.176-7.882-1.356-15.771-3.1-23.72-3.547-13.844-.778-27.71-.98-41.515 1.522-9.331 1.691-18.619 3.232-27.715 6.107-10.44 3.299-20.763 6.758-30.346 12.104-7.706 4.298-15.429 8.582-22.932 13.218-9.774 6.04-18.454 13.566-26.661 21.536-8.683 8.433-16.624 17.617-23.245 27.782-4.894 7.515-9.603 15.205-13.672 23.185a186.94 186.94 0 0 0-10.038 23.581c-2.626 7.555-4.651 15.387-6.15 23.249-1.724 9.051-3.261 18.24-3.638 27.421-.45 10.983.008 22.051.85 33.022.573 7.463 2.174 14.895 3.881 22.209 1.672 7.17 3.591 14.358 6.254 21.206 3.455 8.886 7.605 17.514 11.725 26.126 5.132 10.728 11.759 20.548 19.534 29.517 6.217 7.172 12.521 14.329 19.391 20.855 5.948 5.651 12.573 10.647 19.213 15.503 10.864 7.948 22.754 14.198 35.06 19.583 5.525 2.417 11.348 4.154 17.04 6.182 3.19 1.136 5.812.164 6.637-2.424.968-3.03-.542-5.601-3.55-6.77-8.539-3.319-17.212-6.384-25.469-10.312-7.171-3.41-13.918-7.739-20.723-11.877-12.49-7.595-23.32-17.307-32.969-28.13-7.207-8.083-13.511-17.027-19.679-25.96-3.885-5.625-6.903-11.869-10.069-17.961-1.799-3.461-3.244-7.126-4.617-10.788-2.376-6.337-4.787-12.678-6.771-19.145-1.409-4.589-2.307-9.356-3.135-14.097-1.185-6.792-2.134-13.627-3.108-20.454-.292-2.051-.498-4.141-.457-6.209.185-9.258.17-18.536.834-27.763.425-5.907 1.815-11.756 2.95-17.597.858-4.417 1.704-8.875 3.081-13.145 2.067-6.405 4.613-12.656 6.923-18.985 4.167-11.417 9.995-22.003 16.777-32.005 4.693-6.923 9.91-13.54 15.388-19.865 4.478-5.17 9.689-9.704 14.575-14.519l1.415-1.317.116-.093Zm222.532 285.981.079-1.065-.122-1.767-.84-3.994-.082-1.288-.014-6.723.105-.826c.253-.182.559-.321.751-.553 1.68-2.038 4.077-2.703 6.13-1.531 1.416.81 2.475 2.897 2.921 4.614.964 3.724 1.433 7.578 2.131 11.524l2.54-.387c-.596-3.944-.964-7.755-1.776-11.47-1.695-7.766-6.584-9.42-12.918-4.588-.447.34-1.217.253-1.837.365-.37-.34-.719-.918-1.111-.947-.322-.024-.974.592-.988.945-.038.94.186 1.892.306 2.838.281 1.207.56 2.415.839 3.622.024.399.046.797.068 1.196l.896 4.495c.036.585.075 1.17.113 1.755l.921 3.81.007.011 1.858-.012.023-.024Zm203.082-8.549-.986.912.002-.004-1.909-.911-.966-.023c-2.179 1.292-.252 2.647-.06 3.974.031.592.064 1.184.097 1.774l.863 3.985.083 1.295.865 4.037.104 1.722.927 1.923.961.026c.337-.268.995-.589.96-.795-.212-1.282-.581-2.538-.897-3.803l-.066-1.198-1.031-4.294.051-4.87.991-1.396c.104-.082.122-.179.057-.295l1.276-1.177.568-.139 2.383-.859 1.486.004 1.439.688.714.274 2.08 5.589.156 2.151.806 3.541.114 1.754c-.132 1.454-.027 2.943 1.892 2.625.445-.075.842-1.822.845-2.8.003-.981-.513-1.963-.802-2.946l-.07-1.211-.885-4.044-.094-1.721-.996-2.206-.109-.659-.783-.984.006.007c-.339-.437-.677-.876-1.017-1.313l-.124-.059-1.762-.825-3.341-.007-1.902.782-.959.34-.94 1.112-.027.024Zm-119.034-23.102-.978-.962.01.006-1.954-1.203-2.852-.016-2.478 1.205a.359.359 0 0 0-.411.095l-1 .868.019-.005-1.439 1.942.007-.01c-.3-.018-.603-.037-.904-.057l.025.024c-.342-.306-.686-.61-1.03-.915l.002.001-2.875-.927-.978.012-3.014.864-1.284.763-.913 1.228-.029.054c-.654-.316-1.305-.633-1.956-.949l-.963-.041c-2.001 1.555-.683 3.063.066 4.579l2.102 13.607 1.714.506.233.024.209-.109-.425-3.898-.116-1.81-.848-3.94-.112-2.3-.014-.913.131-1.818.684-1.101.247-.891 1.143-1.089 1.224-.294 3.861.141c.7 1.192 1.398 2.384 2.096 3.576l.854 3.821.115 1.938.849 3.82c.039.647.079 1.293.12 1.94l.751.951.967.007c2.202-1.303.236-2.671.062-4.012l-.118-1.748-.842-4.039-.073-1.232-.008-3.833.075-.819.802-1.144.056-.073.867-.9.1-.043 5.335-.24.967.813.998 1.419.103.975.843 3.829.131 1.93.87 4.297.101 1.462.772 1.394.953.007c2.018-1.295.465-2.653.072-3.99l-.109-1.73-.855-4.065a251.18 251.18 0 0 1-.069-1.207c-.307-1.311-.613-2.62-.918-3.931-.06-.287-.12-.573-.178-.86l-.801-.997.009.013ZM574.08 388.8c0 22.96-.025 45.92.047 68.88.006 1.808-.4 2.207-2.208 2.206-114.639-.051-229.28-.046-343.92-.046.062-.326.008-.816.202-.951 2.655-1.844 3.435-4.52 2.476-7.339-.989-2.909-3.426-4.414-6.598-4.538-12.978-.51-25.867-1.656-38.434-5.226-7.176-2.038-14.497-3.636-21.542-6.046-7.949-2.72-15.86-5.716-23.433-9.334a207.635 207.635 0 0 1-34.221-20.608c-10.404-7.716-20.121-16.145-29.057-25.502-9.737-10.198-18.316-21.313-25.881-33.185-6.878-10.795-12.795-22.138-17.462-34.059-2.769-7.075-5.351-14.277-7.269-21.617-2.575-9.854-4.8-19.835-6.464-29.879-1.208-7.286-1.724-14.764-1.716-22.157.011-9.951.565-19.923 1.381-29.845.55-6.686 1.634-13.371 3.065-19.929 1.682-7.704 3.942-15.286 6.054-22.893 2.864-10.321 7.149-20.053 11.942-29.627 5.31-10.606 11.076-20.913 18.462-30.188 7.022-8.817 13.858-17.91 21.85-25.792 8.667-8.546 18.153-16.427 28.065-23.498 9.407-6.711 19.631-12.372 29.87-17.785 7.041-3.723 14.579-6.664 22.152-9.18 10.138-3.366 20.378-6.781 30.844-8.711 11.718-2.16 23.716-3.309 35.634-3.731 10.411-.369 20.904.586 31.31 1.52 7.16.641 14.297 1.953 21.327 3.502 6.819 1.503 13.619 3.325 20.194 5.664 9.527 3.387 19.081 6.872 28.18 11.24 8.009 3.845 15.601 8.671 23.025 13.595 7.249 4.809 14.339 9.951 20.971 15.57 6.633 5.621 12.63 11.995 18.869 18.076 2.92 2.846 6.82 3.23 9.27.801 2.884-2.857 2.738-6.834-.358-9.864-4.505-4.41-8.768-9.108-13.569-13.17-8.313-7.034-16.791-13.904-25.534-20.392-5.076-3.767-10.661-6.929-16.275-9.872a541.326 541.326 0 0 0-26.937-13.195c-4.549-2.073-9.421-3.489-14.227-4.935-8.07-2.429-16.105-5.132-24.338-6.819-9.003-1.845-18.189-3.439-27.343-3.758-13.699-.477-27.446.093-41.163.522-11.945.375-23.627 2.764-35.031 6.18-10.064 3.014-20.127 6.196-29.841 10.16-9.18 3.746-18.014 8.399-26.8 13.03-11.487 6.054-21.879 13.807-31.867 22.042-9.55 7.873-18.634 16.32-26.371 26.005-7.383 9.24-14.608 18.647-21.236 28.432-4.637 6.847-8.624 14.24-12.053 21.775-4.485 9.856-8.477 19.974-12.023 30.207-2.546 7.345-4.404 14.989-5.86 22.634-1.682 8.829-3.2 17.771-3.707 26.725-1.267 22.418-1.13 44.824 4.503 66.802 1.929 7.527 3.901 15.053 6.173 22.481 1.701 5.555 3.564 11.114 5.977 16.387 4.232 9.249 8.455 18.566 13.586 27.324 5.165 8.814 11.211 17.146 17.272 25.394 8.575 11.67 18.66 21.97 29.601 31.472 11.168 9.699 22.937 18.548 35.912 25.657a455.203 455.203 0 0 0 26.357 13.357c5.229 2.438 10.768 4.306 16.308 5.958 8.634 2.576 17.311 5.118 26.116 6.98 7.514 1.589 15.233 2.202 22.861 3.246l.002.887c-69.52 0-139.04-.008-208.56.046-1.809.002-2.207-.399-2.206-2.206.049-152.4.045-304.8.045-457.2 190.48 0 380.961.003 571.44-.046 1.808 0 2.207.398 2.206 2.206-.05 125.36-.045 250.72-.045 376.08l-1.024.272c-.62-3.902-1.197-7.813-1.898-11.702-.152-.85-.747-1.62-1.14-2.427l-2.836 1.657c-4.683-2.47-10.423-.596-11.846 4.844-.702 2.684.413 5.842.705 8.784.41.49.819.979 1.23 1.467l-.005-.008.981 1.419.005.007.987.857.104.056 1.306.807 1.531.172 3.702-.072.985-.143.94-.721 1.458-.987.764-.933.177-.578 1.069 5.373-.127.85-.726 1.133c-3.498 2.742-6.903 2.579-9.81-.326-.421-.42-1.365-.317-2.066-.456.063.723-.111 1.588.225 2.146 1.919 3.18 6.274 3.18 10.227 2.008 1.553-.46 2.716-2.238 4.057-3.415l1.024-.004" style="fill:#fefefe;fill-rule:nonzero"/><path d="M211.199 458.953c-7.628-1.044-15.348-1.657-22.861-3.246-8.805-1.862-17.482-4.404-26.117-6.98-5.54-1.652-11.078-3.52-16.307-5.958a455.552 455.552 0 0 1-26.358-13.357c-12.974-7.109-24.743-15.958-35.912-25.657-10.94-9.502-21.026-19.802-29.6-31.472-6.061-8.248-12.107-16.58-17.272-25.394-5.132-8.758-9.354-18.075-13.586-27.324-2.413-5.273-4.277-10.832-5.977-16.387-2.272-7.428-4.244-14.954-6.173-22.481-5.633-21.978-5.77-44.384-4.503-66.802.506-8.954 2.025-17.896 3.707-26.725 1.456-7.645 3.314-15.289 5.859-22.634 3.547-10.233 7.539-20.351 12.024-30.207 3.429-7.535 7.415-14.928 12.053-21.775 6.627-9.785 13.853-19.192 21.235-28.432 7.738-9.685 16.822-18.132 26.371-26.005 9.989-8.235 20.381-15.988 31.868-22.042 8.786-4.631 17.62-9.284 26.799-13.03 9.714-3.964 19.778-7.146 29.841-10.16 11.405-3.416 23.087-5.805 35.032-6.18 13.717-.429 27.463-.999 41.163-.522 9.154.319 18.339 1.913 27.342 3.758 8.234 1.687 16.269 4.39 24.339 6.819 4.806 1.446 9.678 2.862 14.227 4.935a540.864 540.864 0 0 1 26.936 13.195c5.615 2.943 11.2 6.105 16.276 9.872 8.743 6.488 17.22 13.358 25.534 20.392 4.801 4.062 9.063 8.76 13.569 13.17 3.096 3.03 3.241 7.007.358 9.864-2.45 2.429-6.35 2.045-9.27-.801-6.239-6.08-12.236-12.455-18.869-18.076-6.632-5.619-13.723-10.761-20.972-15.57-7.423-4.924-15.015-9.75-23.024-13.595-9.099-4.368-18.653-7.853-28.18-11.24-6.575-2.339-13.375-4.161-20.195-5.664-7.029-1.549-14.166-2.861-21.326-3.502-10.406-.933-20.9-1.889-31.31-1.52-11.918.422-23.916 1.571-35.635 3.732-10.465 1.929-20.706 5.344-30.843 8.71-7.574 2.516-15.111 5.458-22.152 9.18-10.239 5.413-20.464 11.074-29.87 17.785-9.912 7.071-19.398 14.952-28.065 23.498-7.992 7.882-14.828 16.975-21.85 25.792-7.387 9.275-13.153 19.582-18.462 30.188-4.793 9.574-9.078 19.306-11.943 29.627-2.111 7.607-4.371 15.189-6.053 22.893-1.431 6.558-2.515 13.244-3.065 19.929-.817 9.922-1.37 19.894-1.381 29.845-.008 7.393.508 14.871 1.716 22.158 1.664 10.043 3.889 20.024 6.464 29.878 1.918 7.34 4.5 14.542 7.269 21.617 4.667 11.922 10.584 23.264 17.462 34.059 7.565 11.872 16.144 22.988 25.881 33.185 8.936 9.357 18.653 17.786 29.057 25.502a207.635 207.635 0 0 0 34.221 20.608c7.573 3.618 15.484 6.614 23.433 9.334 7.045 2.41 14.366 4.008 21.542 6.046 12.567 3.57 25.455 4.716 38.433 5.226 3.173.124 5.61 1.629 6.599 4.538.958 2.819.179 5.495-2.477 7.34-.193.134-.139.625-.201.95h-5.759l-11.042-.887" style="fill:#11b6cb;fill-rule:nonzero"/><path d="m211.199 458.953 11.042.887H211.2l-.001-.887" style="fill:#fbfbfb;fill-rule:nonzero"/><path d="m574.08 388.8-1.023.004.001-9.812 1.022-.272v10.08Z" style="fill:#454243;fill-rule:nonzero"/><path d="M111.916 95.064c-4.886 4.815-10.097 9.35-14.575 14.519-5.478 6.325-10.695 12.942-15.388 19.865-6.782 10.002-12.61 20.589-16.777 32.005-2.31 6.329-4.856 12.58-6.923 18.986-1.377 4.27-2.223 8.727-3.081 13.145-1.135 5.84-2.525 11.689-2.95 17.596-.664 9.227-.649 18.505-.834 27.763-.041 2.068.165 4.159.457 6.209.974 6.828 1.923 13.662 3.109 20.454.827 4.741 1.725 9.508 3.134 14.097 1.984 6.467 4.395 12.808 6.771 19.146 1.373 3.661 2.818 7.326 4.617 10.787 3.166 6.093 6.184 12.337 10.069 17.962 6.168 8.932 12.472 17.877 19.679 25.96 9.649 10.822 20.479 20.534 32.969 28.13 6.805 4.137 13.553 8.466 20.723 11.876 8.257 3.928 16.93 6.994 25.469 10.312 3.008 1.169 4.518 3.74 3.552 6.771-.827 2.587-3.448 3.559-6.638 2.423-5.693-2.028-11.516-3.764-17.04-6.182-12.306-5.385-24.196-11.635-35.061-19.582-6.64-4.857-13.264-9.853-19.213-15.504-6.87-6.526-13.174-13.683-19.391-20.855-7.775-8.968-14.402-18.789-19.534-29.517-4.119-8.612-8.27-17.24-11.725-26.126-2.663-6.848-4.581-14.035-6.254-21.205-1.707-7.315-3.308-14.746-3.881-22.209-.842-10.972-1.3-22.04-.85-33.023.377-9.18 1.914-18.369 3.639-27.421 1.498-7.861 3.523-15.694 6.149-23.249a187.442 187.442 0 0 1 10.038-23.581c4.07-7.98 8.779-15.67 13.673-23.185 6.62-10.164 14.561-19.348 23.245-27.782 8.207-7.97 16.886-15.496 26.661-21.536 7.502-4.636 15.226-8.92 22.931-13.218 9.583-5.346 19.906-8.805 30.346-12.104 9.096-2.875 18.385-4.416 27.716-6.107 13.805-2.502 27.671-2.3 41.515-1.521 7.949.446 15.838 2.19 23.72 3.546 4.898.843 9.835 1.722 14.574 3.176 6.827 2.096 13.611 4.442 20.192 7.209 7.164 3.012 14.308 6.219 21.032 10.087 7.636 4.393 15.161 9.15 22.07 14.592 8.256 6.502 16.107 13.595 23.59 20.983 9.262 9.145 16.981 19.617 23.717 30.768 2.583 4.276 4.993 8.663 7.327 13.081 1.418 2.684.484 5.338-2.03 6.64-2.372 1.228-4.913.321-6.314-2.352-5.391-10.284-11.408-20.223-18.806-29.143a235.41 235.41 0 0 0-20.149-21.413c-6.376-5.978-13.205-11.647-20.514-16.412-8.616-5.617-17.735-10.6-27.059-14.954-8.494-3.967-17.435-7.108-26.404-9.889-6.685-2.074-13.676-3.359-20.624-4.333-8.74-1.226-17.58-2.482-26.37-2.436-10.4.054-20.883.897-31.163 2.485-9.645 1.49-19.207 3.949-28.558 6.795-11.607 3.533-22.654 8.585-33.168 14.716-8.87 5.172-17.499 10.69-25.229 17.503l-1.015.894-1.881 1.457-1.754 1.491-.116.093-1.415 1.317" style="fill:#d5235a;fill-rule:nonzero"/><path d="M234.647 72.998c9.514.976 19.171 1.247 28.503 3.125 9.67 1.949 19.141 5.132 28.481 8.396 6.341 2.219 12.44 5.257 18.398 8.401 4.782 2.522 9.225 5.7 13.742 8.703 1.939 1.29 1.714 3.153.481 4.807-1.443 1.94-3.189 1.11-4.805.171-6.638-3.859-13.098-8.07-19.94-11.522-5.947-3.002-12.203-5.519-18.538-7.589-6.048-1.976-12.324-3.37-18.592-4.524-6.613-1.216-13.32-2.418-20.013-2.591-9.143-.235-18.345.134-27.457.961-6.508.592-13.086 1.794-19.313 3.746-9.354 2.933-18.567 6.437-27.572 10.32-5.878 2.536-11.479 5.872-16.853 9.387-9.068 5.932-17.46 12.742-24.977 20.625-9.986 10.475-18.523 21.915-25.258 34.776-4.473 8.541-7.987 17.368-10.999 26.515-5.071 15.396-6.804 31.207-6.521 47.234.191 10.901 1.318 21.81 4.302 32.382 1.96 6.944 3.787 13.981 6.478 20.651 4.538 11.251 10.364 21.892 17.526 31.73 6.879 9.449 14.746 18.044 23.61 25.643 8.685 7.447 18.066 13.96 28.249 19.252 10.148 5.274 20.575 9.878 31.806 12.287 7.256 1.558 14.548 3.308 21.91 3.914 9.839.813 19.765.827 29.648.727 4.733-.048 9.451-1.177 14.183-1.762 2.08-.258 3.921.06 4.096 2.704.156 2.377-1.035 3.361-3.404 3.543-10.541.813-21.084 2.531-31.607 2.402-9.782-.12-19.642-1.642-29.276-3.522-8.082-1.578-16.037-4.163-23.788-7.01-14.027-5.15-26.8-12.692-38.721-21.709-12.26-9.274-22.89-20.189-31.904-32.56-7.037-9.659-13.158-19.962-17.285-31.277-2.711-7.43-5.509-14.853-7.704-22.441-1.56-5.397-2.712-11.027-3.106-16.619-.751-10.662-1.558-21.41-.976-32.048.535-9.789 2.498-19.555 4.529-29.185 1.385-6.573 3.335-13.189 6.163-19.259a276.485 276.485 0 0 1 14.799-27.559c8.495-13.872 19.511-25.701 32.241-35.777 6.256-4.953 13.125-9.153 19.84-13.501 8.098-5.242 16.851-9.192 26.057-12.02 7.269-2.233 14.655-4.083 21.987-6.109 10.325-2.853 20.92-3.038 31.58-3.819" style="fill:#f79928;fill-rule:nonzero"/><path d="M328.928 217.75c.896 0 1.216.051 1.514-.008 6.677-1.308 13.365-2.57 20.023-3.97 4.223-.888 8.512-1.665 12.567-3.077 4.569-1.59 7.931-4.847 8.158-9.967.137-3.134-.526-6.352-1.176-9.459-.84-4.014-3.755-6.194-7.446-7.592-5.417-2.052-10.759-.324-16.051.386-6.417.862-12.734 2.452-19.125 3.545-3.69.631-3.961.852-2.842 4.459.141.455.263.921.341 1.391 1.344 8.051 2.678 16.104 4.037 24.292m35.332 5.015c-3.883.586-9.473 1.354-15.034 2.294-5.143.869-10.229 2.12-15.392 2.807-2.394.318-2.951 1.105-2.546 3.318 1.67 9.107 3.215 18.239 4.925 27.338.142.752 1.253 1.963 1.786 1.899 3.932-.475 7.841-1.166 11.739-1.89 6.366-1.181 12.695-2.575 19.08-3.636 12.944-2.154 17.211-14.594 11.608-24.989-3.058-5.673-8.425-7.154-16.166-7.141m-54.095-37.587-.239-2.829.183-1.936 3.393-1.27 2.842-.263 2.595-.837c6.487-1.094 12.975-2.177 19.461-3.285 4.85-.829 9.817-1.267 14.518-2.622 10.038-2.892 22.484 1.407 27.545 10.396 5.438 9.657 4.681 19.394-2.353 27.559-1.046 1.215-2.492 2.086-4.208 3.489 2.603.808 4.932 1.509 7.249 2.253 6.686 2.146 10.439 7.098 12.804 13.39 1.874 4.983 2.108 10.212.966 15.228-1.662 7.305-5.877 13.065-12.422 17.052-5.907 3.599-12.573 4.202-19.135 5.34-6.391 1.107-12.751 2.386-19.138 3.513-4.852.857-9.724 1.59-14.587 2.383-1.082.177-2.162.372-3.616.623-.622-3.093-1.294-6.166-1.851-9.258a3407.723 3407.723 0 0 1-4.797-27.144c-.807-4.703-1.383-9.448-2.233-14.144-1.2-6.624-2.645-13.204-3.822-19.832-.888-5-1.523-10.044-2.27-15.062-.295-.91-.59-1.827-.885-2.744" style="fill:#292526;fill-rule:nonzero"/><path d="M272.996 279.242c2.492-.421 4.988-.823 7.476-1.266 9.651-1.715 16.362-10.317 17.536-19.523.94-7.367.425-14.645-1.95-21.706-2.368-7.044-6.206-13.131-12.812-16.891-5.035-2.865-10.422-3.163-16.261-2.256-10.792 1.676-18.26 11.082-18.939 21.155-.55 8.157.168 16.132 3.145 23.822 3.729 9.632 10.828 16.954 21.805 16.665m-20.281-3.249c.515 3.565.943 7.147 1.564 10.694a1268.052 1268.052 0 0 0 3.967 21.541c.382 1.977.097 3.052-2.24 2.877-.811-.06-1.661.395-2.849.708-.682-3.608-1.354-7.09-1.995-10.576-1.247-6.788-2.501-13.575-3.703-20.372-.774-4.383-1.41-8.79-2.2-13.17-.939-5.212-2.013-10.398-2.958-15.609-.779-4.295-1.423-8.614-2.181-12.912-.877-4.979-1.851-9.941-2.705-14.924-.29-1.692-.342-3.425-.512-5.24 1.467-.13 2.645-.501 3.66-.24.841.216 1.967 1.069 2.14 1.827.616 2.708.841 5.501 1.307 8.247.089.523.597.974.912 1.459.407-.4 1.032-.729 1.188-1.211 2.085-6.395 6.376-10.863 12.208-13.919 8.264-4.331 16.968-4.861 25.453-1.298 8.494 3.567 14.187 10.37 17.07 19.041 1.836 5.519 3.355 11.356 3.665 17.124.564 10.504-1.728 20.476-10.52 27.45-6.827 5.415-14.933 7.084-23.584 6.585-6.864-.396-12.472-3.168-16.945-8.415-.248.11-.495.222-.742.333" style="fill:#2f2c2d;fill-rule:nonzero"/><path d="M210.939 200.211c-6.38 1.15-12.755 2.326-19.141 3.442-4.381.766-8.785 1.41-13.167 2.179-5.063.888-10.109 1.874-15.168 2.78-3.835.686-7.668 1.415-11.531 1.871-.653.077-1.457-1.135-2.191-1.751l.4-.976 64.363-11.291c1.768 3.731-.419 6.124-1.642 8.596-5.084 10.275-10.349 20.462-15.515 30.697-4.079 8.083-8.1 16.196-12.165 24.286-4.006 7.972-8 15.951-12.068 23.891-2.258 4.407-4.673 8.732-6.971 13.118-.23.439-.145 1.045-.219 1.674 2.477-.412 4.774-.787 7.067-1.177 9.321-1.587 18.644-3.16 27.959-4.776 9.704-1.684 19.398-3.429 29.108-5.078.561-.094 1.228.442 1.846.684-.382.654-.645 1.742-1.168 1.887-2.136.59-4.346.922-6.539 1.295-8.383 1.426-16.779 2.778-25.152 4.263-6.555 1.163-13.071 2.541-19.625 3.712-5.312.948-10.653 1.729-16.756 2.708.205-2.123-.061-4.001.604-5.452 2.746-5.991 5.72-11.882 8.713-17.758 4.802-9.428 9.732-18.791 14.518-28.228 3.237-6.385 6.287-12.865 9.477-19.274 4.007-8.052 8.077-16.074 12.108-24.115 1.105-2.203 2.169-4.426 3.251-6.639l.386-.62-.782.052" style="fill:#3d3a3b;fill-rule:nonzero"/><path d="M366.32 321.602c-.082-1.438-.087-2.076-.16-2.706-.353-3.022-2.354-5.146-5.009-5.341-3.161-.233-4.431.695-5.32 4.351-.278 1.142-.042 2.46.168 3.662.636 3.656 2.647 5.495 5.685 5.204 2.246-.214 4.925-1.788 4.636-5.171m-11.083-10.267.908-.3 6.416-.068.818.202 1.713.495-.97-2.575c-.241-1.242-.554-2.475-.698-3.727-.114-.977-.392-2.54.068-2.848.877-.586 2.33-.804 3.345-.503.593.177.981 1.616 1.157 2.546a1114.943 1114.943 0 0 1 3.686 20.528c.161.958.082 2.626-.425 2.88-.884.44-2.189.006-3.318-.011-.483-.008-1.13-.07-1.429.199-3.025 2.715-6.533 3.408-10.029 1.551-3.274-1.741-4.958-4.983-5.423-8.645-.442-3.492-.1-6.84 3.25-9.033l.931-.691" style="fill:#2f2c2d;fill-rule:nonzero"/><path d="M455.234 379.818c.393 2.584.733 4.925 1.108 7.261.256 1.593 1.23 2.054 2.737 1.683 2.515-.619 5.054-1.149 7.555-1.822 2.977-.802 4.019-2.586 3.354-5.741-.557-2.644-2.719-3.266-4.891-3.055-3.29.32-6.538 1.087-9.863 1.674m3.845 21.918c3.634-.728 7.15-1.222 10.538-2.172 3.202-.898 4.347-3.03 3.636-6.365-.595-2.783-2.79-3.615-5.358-3.391-3.083.269-6.162.65-9.209 1.178-.543.094-1.376 1.207-1.3 1.738.423 2.973 1.083 5.91 1.693 9.012m-6.868-23.946c4.583-.701 9.116-1.409 13.654-2.081 3.424-.508 5.584 1.466 6.946 4.147 1.244 2.447.202 4.742-1.642 6.647-.21.216-.351.501-.535.77 7.228 2.603 6.833 10.412 2.859 13.028-1.656 1.091-3.651 1.842-5.597 2.279-3.246.728-6.568 1.154-9.88 1.516-.547.06-1.636-.774-1.74-1.333-1.457-7.78-2.792-15.584-4.135-23.385-.077-.452.036-.936.07-1.588" style="fill:#3d3a3b;fill-rule:nonzero"/><path d="m281.383 316.692 18.496-3.211.296 4.214-13.269 2.361 1.145 6.627 11.891-1.931.424 3.92-11.556 2.145c.469 3.368.984 6.489 1.282 9.632.071.729-.507 2.128-.929 2.185-1.362.189-3.308 1.248-3.775-1.315a314.325 314.325 0 0 1-1.104-6.339c-.943-5.875-1.866-11.754-2.901-18.288" style="fill:#2f2c2d;fill-rule:nonzero"/><path d="M387.654 315.904c-1.812.681-3.584 1.104-5.075 1.992-.99.591-2.152 1.815-2.214 2.818-.087 1.419 1.08 2.3 2.824 2.287 4.29-.035 5.699-2.174 4.465-7.097m-12.296-1.41c-1.101-5.376 3.36-7.9 7-8.612 1.005-.197 2.069-.132 3.106-.12 4.093.047 5.927 1.639 6.519 5.635.383 2.589.683 5.193 1.174 7.76.114.598.874 1.06 1.302 1.613.545.704 1.541 1.504 1.452 2.137-.102.717-1.121 1.399-1.875 1.892-.403.263-1.227.327-1.622.086-3.013-1.825-5.241.514-7.637 1.472-3.72 1.486-9.935-.743-8.892-6.468.547-3.001 3.116-4.057 5.606-5.001 1.248-.472 2.719-.503 3.816-1.176.82-.504 1.599-1.705 1.632-2.623.021-.564-1.374-1.636-2.178-1.682-2.028-.116-3.864.155-4.996 2.575-.543 1.162-2.673 1.582-4.407 2.512" style="fill:#3d3a3b;fill-rule:nonzero"/><path d="M443.614 296.056c.886-.348 1.747-.892 2.646-.96.513-.039 1.458.608 1.573 1.096.852 3.623 1.312 7.354 2.401 10.897.446 1.451 1.943 3.178 3.321 3.599 1.884.575 4.545-2.03 4.365-4.007-.309-3.389-.956-6.749-1.521-10.111-.253-1.508-.883-3.023 1.43-3.531 2.261-.495 3.001.628 3.294 2.608.776 5.261 1.629 10.511 2.546 16.375l-5.703.512c-1.696.455-4.202 1.739-6.658 1.648-3.963-.146-5.466-2.527-6.198-7.9-.459-3.37-.982-6.729-1.496-10.226" style="fill:#2f2c2d;fill-rule:nonzero"/><path d="m469.322 310.811-3.452-19.02c1.672.059 3.231-2.106 4.664.335.021.036.892-.419 1.359-.657 1.235-.628 2.406-1.454 3.709-1.859 3.873-1.202 6.802.045 7.906 3.865 1.204 4.168 1.953 8.49 2.587 12.791.438 2.967-2.284 1.803-4.165 2.707-.657-3.736-1.211-7.212-1.903-10.659-.29-1.444-.498-3.224-1.439-4.119-.787-.75-2.804-.929-3.883-.458-1.201.524-2.783 2.089-2.757 3.165.085 3.45.872 6.879 1.32 10.325.463 3.556.102 3.868-3.946 3.584" style="fill:#3d3a3b;fill-rule:nonzero"/><path d="M314.8 321.537c-2.439-.488-5.229 2.646-5.111 5.947.142 4.008 2.722 7.505 5.759 7.494 2.987-.011 5.417-2.811 5.178-6.272-.274-3.957-2.268-7.59-5.826-7.169m10.248 7.062c.236 6.751-4.575 9.734-10.225 9.977-5.382.232-9.511-4.583-9.517-10.734-.007-6.182 3.686-9.763 9.951-9.945 5.811-.169 9.737 4.236 9.791 10.702M436.412 308.347c-.689-1.791-1.072-3.799-2.148-5.315-1.201-1.692-3.102-2.599-5.375-1.615-2.739 1.187-3.896 3.277-3.592 6.657.325 3.616 3.146 6.796 5.857 6.605 2.965-.209 4.815-2.576 5.258-6.332m-15.459-1.104c-.853-5.237 4.696-9.903 10.071-9.73 6.043.195 9.452 4.73 9.647 10.882.178 5.681-4.089 9.651-10.098 9.774-5.553.115-10.047-4.602-9.62-10.926M331.536 335.712l-3.707-19.884c1.705.483 3.687-1.728 4.427.553 2.359-.884 4.633-2.231 7.034-2.522 3.832-.462 5.581.896 6.494 4.611.945 3.848 1.532 7.787 2.213 11.697.208 1.197.346 2.376-1.557 2.5-1.602.106-2.779.098-3.093-1.882-.584-3.677-1.07-7.4-2.104-10.958-.29-.998-2.436-2.17-3.572-2.023-1.332.172-3.331 1.536-3.544 2.666-.425 2.247.091 4.697.377 7.045.247 2.035 1.127 4.094.887 6.041-.1.817-2.361 1.37-3.855 2.156" style="fill:#2f2c2d;fill-rule:nonzero"/><path d="m303.304 360.99-15.004 2.552-.362-2.453c4.791-.757 9.345-1.463 13.894-2.212.609-.1 1.166-.527 1.774-.61 1.052-.143 2.126-.136 3.19-.192-.056 1.128.247 2.445-.228 3.354-3.552 6.788-7.263 13.491-10.908 20.229-.476.88-.856 1.811-1.529 3.253 3.108-.487 5.929-.859 8.72-1.39 2.4-.456 4.753-1.179 7.16-1.58.51-.086 1.168.712 1.758 1.103-.386.579-.691 1.579-1.17 1.672-4.049.781-8.13 1.398-12.201 2.061-2.343.382-4.686.757-7.081 1.144-1.223-2.58.36-4.289 1.368-6.176 3.466-6.485 6.883-12.998 10.306-19.508.14-.267.155-.6.313-1.247M495.713 385.518l-.737.376c1.14 2.3 1.97 4.84 3.515 6.825 1.338 1.72 3.266 3.18 5.923 1.481 3.977-2.544 4.665-4.104 3.571-9.65-.881-4.475-3.086-6.238-7.31-5.842-3.17.298-4.946 2.735-4.962 6.81m11.06-7.578c.676-3.414-2.615-6.923-.008-10.022l1.146-.062c.723 3.373 1.553 6.726 2.143 10.122.816 4.697 1.499 9.419 2.127 14.145.119.904-.283 1.877-.445 2.818l-2.313-1.903c-4.518 4.584-8.713 5.284-12.937 1.89-3.431-2.756-4.667-11.131-2.204-14.939 2.402-3.715 7.469-4.621 12.491-2.049M303.71 429.423l-.155-.285c-.047.05-.14.11-.131.148.022.104.088.199.137.297.046-.051.093-.1.149-.16m-1.98-9.436c.058.567.116 1.687.298 2.788.526 3.177 3.119 5.657 5.914 5.906 2.714.242 6.069-1.241 6.251-4.953.083-1.679.058-3.392-.179-5.053-.604-4.235-3.043-6.178-7.07-5.82-3.534.313-5.228 2.451-5.214 7.132m-2.178-7.712.986 1.79c5.806-4.42 9.106-5.004 12.537-2.283 3.187 2.529 5.725 10.078 3.871 13.345-1.264 2.23-3.382 4.586-5.662 5.453-2.178.827-5.06-.198-7.903-.431.237 1.779.192 4.054.899 6.065.837 2.379-.051 2.659-2.232 2.489-.989-5.849-1.969-11.694-2.969-17.536-.372-2.174-.89-4.329-1.139-6.515-.093-.826.383-1.715.599-2.576l1.013.199" style="fill:#454243;fill-rule:nonzero"/><path d="m568.808 380.795.584-1.109.752-1.244-1.333-7.591-.7-.785c-2.638-3.926-8.123-2.584-9.566.179-3.273 6.271.584 12.821 7.583 12.712l1.248-1.128.502-.216.93-.818m4.25-1.803-.001 9.812c-1.341 1.178-2.504 2.955-4.057 3.415-3.953 1.173-8.308 1.173-10.227-2.008-.336-.558-.162-1.423-.225-2.145.701.138 1.645.036 2.066.456 2.907 2.904 6.312 3.067 9.81.326l.726-1.134.127-.85c1.367-1.503 1.191-4.965-.338-5.921-.094-.058-.481.355-.731.548l-.177.578-.764.933-1.458.986-.941.722-.984.144-3.702.071-1.531-.172-1.307-.807-.103-.055-.987-.858-.007-.007-.98-1.419.005.008-1.23-1.466c-.292-2.943-1.406-6.101-.704-8.785 1.423-5.44 7.162-7.314 11.846-4.843a3326.16 3326.16 0 0 0 2.835-1.658c.393.807.988 1.578 1.141 2.427.701 3.889 1.277 7.8 1.898 11.702M380.837 406.528c-1.389-1.816-2.257-3.551-3.639-4.625-2.319-1.802-4.937-1.228-6.944.622-1.687 1.556-2.576 3.681-1.815 6.084l12.398-2.081m.424 4.271 2.329.188c-.184 5.786-4.828 8.501-9.319 8.397-4.271-.097-7.66-3.815-8.159-8.619-.324-3.116-.544-6.221 1.467-8.916 3.287-4.406 11.222-4.875 14.386 1.931.294.633.723 1.22.917 1.878.485 1.641.459 2.897-1.82 3.179-4.003.494-7.976 1.241-11.909 1.874-.137 3.21 1.981 5.753 4.817 6.048 4.202.44 6.309-1.202 7.291-5.96M314.271 372.435c3.509-.524 6.882-.96 10.215-1.605.464-.089 1.178-1.372 1.013-1.824-1.103-3.026-4.512-4.82-7.175-3.969-3.161 1.008-4.672 3.651-4.053 7.398m13.013.062-12.606 2.262c.303 3.39 2.262 5.692 4.904 5.978 3.803.413 5.363-.652 6.793-4.214.346-.859 1.43-1.42 2.62-2.533.546 6.618-4.858 10.199-11.7 8.798l-1.526-1.159c-4.863-2.71-6.577-13.526-.635-17.785 3.929-2.816 9.904-1.083 11.962 3.373l-.021.174.124.088c.358.841.719 1.682 1.075 2.517a565.91 565.91 0 0 0-.99 2.501" style="fill:#3d3a3b;fill-rule:nonzero"/><path d="M405.807 305.679c-3.048.494-3.289.972-2.556 5.105.304 1.717.602 3.435.927 5.149.334 1.754.831 3.134 3.22 2.766.582-.09 1.403 1.369 2.115 2.115l-.628 1.044c-2.063 0-4.339.532-6.119-.178-1.292-.516-2.354-2.561-2.771-4.124-.889-3.337-1.294-6.803-1.909-10.281l-2.448.297c-1.581-2.977-1.533-3.105 1.571-4.144l-.301-5.612 3.997-.418 1.356 5.35c1.833.106 4.761-1.142 3.546 2.931" style="fill:#2f2c2d;fill-rule:nonzero"/><path d="M399.06 401.227c-.729-.563-1.389-1.275-2.202-1.656-1.477-.692-3.072-1.698-4.569-1.618-1.447.077-3.185 1.051-4.151 2.182-1.158 1.358.545 3.342 2.898 3.614 2.517.292 5.053.479 7.543.928 2.032.367 3.211 1.886 3.544 3.843.346 2.03-.067 3.877-1.965 5.189-3.554 2.456-7.294 3.111-11.147.99-1.019-.561-1.676-1.908-2.289-3.01-.213-.383.208-1.118.34-1.692.693.192 1.69.156 2.033.611 2.694 3.584 4.444 4.264 7.999 2.169 1.043-.615 1.801-2.431 1.846-3.725.022-.664-1.726-1.728-2.83-2.021-2.192-.581-4.487-.792-6.748-1.085-2.74-.356-4.042-2.161-4.132-4.628-.095-2.565 1.667-4.048 3.917-5.051 5.031-2.243 9.661-.45 10.492 4.13l-.579.829M391.346 371.185l-1.308-2.214c-2.017 1.047-3.939 2.453-6.088 3.071-3.799 1.092-7.021-.852-7.917-4.694-.882-3.78-1.445-7.642-1.959-11.493-.105-.785.626-1.683.972-2.527.673.755 1.753 1.422 1.944 2.285.595 2.704.795 5.493 1.271 8.228.243 1.393.36 3.125 1.236 4.008 1.011 1.02 2.857 1.846 4.227 1.699 1.453-.155 3.166-1.262 4.061-2.474 1.383-1.873 1.498-4.055.57-6.513-.934-2.471-1.042-5.272-1.337-7.948-.06-.537.666-1.161 1.029-1.745.646.434 1.763.778 1.866 1.316a420.74 420.74 0 0 1 2.819 16.629c.084.558-.7 1.245-1.386 2.372M529.286 390.101c-3.379 3.809-9.601 4.411-11.846.591-1.07-1.822-1.3-4.163-1.784-6.298-.612-2.693-1.197-5.402-1.558-8.136-.086-.645.77-1.415 1.192-2.128.557.633 1.461 1.194 1.61 1.911.779 3.734 1.138 7.568 2.135 11.233.369 1.357 1.885 2.934 3.221 3.376 2.165.717 4.854.129 5.629-2.213.774-2.339.672-5.055.535-7.583-.132-2.438-.878-4.838-1.164-7.276-.057-.487.751-1.074 1.159-1.614.513.445 1.374.816 1.483 1.343a497.883 497.883 0 0 1 3.034 15.895c.098.561-.534 1.791-.741 1.771-.926-.084-1.819-.51-2.905-.872" style="fill:#454243;fill-rule:nonzero"/><path d="M329.387 424.985c3.445.596 6.748-4.072 6.558-7.422-.232-4.088-3.404-8.762-7.277-8.716-3.662.043-6.507 3.827-6.503 7.554.004 3.527 3.129 9.289 7.222 8.584m8.736-7.325c.293 6.638-3.893 9.484-9.102 9.646-5.331.166-9.268-4.666-9.242-11.038.024-5.913 3.4-9.361 9.17-9.366 5.749-.006 9.155 3.987 9.174 10.758" style="fill:#3d3a3b;fill-rule:nonzero"/><path d="M412.201 391.621c3.612.349 6.038 1.276 7.223 4.104.235.563.018 1.316.009 1.981-.768-.205-1.829-.158-2.257-.656-2.458-2.851-5.066-3.624-7.846-1.874-2.165 1.362-4.122 5.996-2.751 8.743 1.134 2.273 1.714 4.848 4.328 5.855 3.624 1.397 6.204-.176 7.982-4.463.278-.669 1.132-1.1 1.719-1.642.182.674.574 1.369.511 2.018-.542 5.585-5.939 8.411-11.571 6.107-4.327-1.769-5.679-5.499-5.913-9.656-.203-3.592.737-6.977 4.245-8.858 1.544-.828 3.293-1.274 4.321-1.659" style="fill:#454243;fill-rule:nonzero"/><path d="m398.894 349.669 1.285-.763 3.012-.864.979-.012 2.875.927-.003-.001c.344.305.688.609 1.031.915l-.026-.023.53.797.375-.741-.007.01 1.439-1.942-.019.006.999-.869a.36.36 0 0 1 .412-.095l2.477-1.204 2.853.015c.651.402 1.303.802 1.954 1.203l-.01-.005.978.961-.009-.013.801.997c.058.287.118.573.178.86l.917 3.931.07 1.207.855 4.065.109 1.731-.072 3.989-.953-.007-.772-1.393-.101-1.463-.87-4.297-.131-1.93-.843-3.829-.103-.975-.998-1.418-.967-.813c-1.868-1.915-3.627-1.416-5.335.239l-.1.043-.867.901-.056.072c-.268.382-.534.764-.802 1.144l-.075.819c-1.857 1.281-.874 2.557.008 3.833l.073 1.233.842 4.038.118 1.748-.062 4.012-.967-.007-.751-.951c-.041-.646-.081-1.293-.12-1.939l-.849-3.821-.115-1.938-.854-3.821c-.698-1.192-1.396-2.384-2.096-3.576l-3.861-.141-1.224.295-1.143 1.089-.247.89-.684 1.102-.131 1.817.014.913.112 2.3.848 3.94.116 1.81.425 3.898-.209.109-.233-.024-1.714-.505-2.102-13.608-.066-4.579.964.041c.13.805.262 1.61.484 2.962l1.471-2.013.03-.053.913-1.229" style="fill:#3d3a3b;fill-rule:nonzero"/><path d="M435.844 341.895c0-.261.02-1.053-.004-1.844-.101-3.491 1.02-5.074 4.358-5.816.484-.108 1.442.378 1.604.806.159.422-.368 1.596-.674 1.626-3.861.38-2.497 2.793-2.014 5.145.945 0 1.887-.096 2.793.045.403.06.731.599 1.093.921-.346.327-.681.918-1.044.935-2.289.106-2.482 1.293-2.095 3.234.805 4.05 1.483 8.13 2.01 12.223.105.813-.698 1.741-1.083 2.616-.533-.748-1.395-1.436-1.545-2.255-.801-4.378-1.381-8.796-2.161-13.179-.102-.572-.834-1.173-1.42-1.483-.773-.411-1.692-.55-2.547-.803.755-.603 1.511-1.203 2.729-2.171" style="fill:#454243;fill-rule:nonzero"/><path d="m354.311 355.977 4.289 1.683-3.45 2.272c.355 2.327.814 5.411 1.303 8.49.135.861.503 1.702.514 2.557.03 2.058.752 3.154 3.028 2.894.501-.056 1.081.579 1.625.895-.427.353-.801.886-1.29 1.029-3.692 1.085-5.246.048-5.984-4.09-.489-2.738-.777-5.51-1.2-8.26-.334-2.167-.863-4.187-4.606-3.205.569-1.213.849-2.453 1.21-2.476 2.173-.144 1.935-1.273 1.529-2.793-.257-.96-.236-2.032-.114-3.027.028-.235 1.081-.636 1.443-.473.561.254 1.184.859 1.336 1.434.3 1.134.294 2.349.367 3.069M413.608 300.792c.388.505 1.236 1.121 1.377 1.871.99 5.279 1.903 10.576 2.622 15.898.075.558-1.182 1.651-1.985 1.862-.66.173-2.16-.468-2.272-.973-1.175-5.317-2.147-10.68-3.17-16.032-.466-2.436 1.423-2.162 3.428-2.626M356.106 404.66l-3.367.149c.576-.947.873-1.952 1.26-1.987 2.153-.197 1.91-1.451 1.518-2.891-.145-.538-.371-1.136-.259-1.638.147-.654.594-1.241.912-1.858.585.48 1.362.855 1.699 1.47.314.573-.081 1.571.271 2.079.504.727 1.351 1.276 2.153 1.715.71.389 1.56.524 2.347.772-.728.434-1.441.9-2.194 1.288-.328.169-.737.179-1.343.314.439 2.822.851 5.548 1.29 8.27.19 1.176.49 2.338.64 3.518.24 1.894.686 3.418 3.166 3.07.5-.07 1.098.568 1.652.879-.516.366-.993.966-1.554 1.059-3.77.624-5.024-.151-5.181-3.038l-.835-2.121-.263-2.743-.699-2.99-.262-2.766c-.317-.851-.635-1.7-.951-2.551" style="fill:#3d3a3b;fill-rule:nonzero"/><path d="M333.047 361.946c.62-.112 1.391-.025 1.837-.365 6.334-4.832 11.224-3.178 12.919 4.588.81 3.714 1.179 7.526 1.774 11.47l-2.539.387c-.697-3.946-1.167-7.8-2.132-11.524-.444-1.717-1.504-3.804-2.92-4.614-2.052-1.172-4.45-.507-6.129 1.531-.192.232-.498.371-.751.552-.289-.247-.595-.476-.863-.745-.412-.413-.799-.852-1.196-1.28M361.605 355.911l2.063-.485.615 2.451c1.767-1.337 3.353-2.651 5.077-3.75.363-.232 1.226.322 1.858.513-.272.668-.375 1.739-.846 1.939-3.452 1.461-4.773 3.35-4.411 7.153.286 3.001.869 5.973 1.163 8.973.065.662-.527 1.39-.817 2.087-.606-.499-1.589-.899-1.752-1.515-.645-2.441-1.095-4.94-1.504-7.435-.525-3.204-.941-6.427-1.446-9.931M455.952 358.911c-1.012-5.903-2.064-11.8-2.975-17.718-.098-.641.632-1.411 1.288-2.761l1.417 3.046c1.451-1.117 2.729-2.318 4.217-3.137.565-.311 1.612.257 2.439.424-.464.713-.777 1.823-1.419 2.069-2.636 1.011-4.244 3.046-4.016 6.202.24 3.322.903 6.612 1.2 9.934.065.717-.637 1.505-.987 2.26l-1.164-.319M346.002 423.454c-1.863 1.15-2.563.74-2.925-1.445-1.137-6.865-2.526-13.688-3.794-20.532-.202-1.089-.286-2.201-.432-3.369 1.568-.69 2.859-1.009 3.231 1.196 1.268 7.497 2.541 14.992 3.8 22.49.091.544.082 1.103.12 1.66M483.646 373.471c.435-.455 1.052-1.421 1.329-1.332.745.24 1.805.839 1.928 1.458.825 4.112 1.404 8.273 2.127 12.407.558 3.19 1.214 6.362 1.815 9.543.104.547.363 1.186.183 1.636-.236.597-.83 1.455-1.276 1.458-.526.003-1.438-.718-1.531-1.24-1.092-6.178-2.02-12.385-3.091-18.568-.294-1.696-.913-3.336-1.484-5.362M445.486 341.166l2.598-.547c1.042 5.816 2.094 11.444 3.006 17.097.112.697-.53 1.515-.822 2.277-.718-.665-1.931-1.239-2.073-2.012-1.015-5.511-1.811-11.064-2.709-16.815M353.454 422.519c-2.877.882-3.164-.611-3.425-2.373-.786-5.308-1.667-10.601-2.541-16.096l2.335-.611 3.631 19.079M477.991 380.917c2.039-.662 2.828-.21 3.106 1.937.63 4.874 1.68 9.691 2.415 14.553.112.736-.548 1.587-.852 2.386-.559-.635-1.46-1.193-1.62-1.917-1.025-4.629-1.906-9.29-2.786-13.949-.19-.997-.183-2.032-.263-3.01" style="fill:#454243;fill-rule:nonzero"/><path d="m425.079 388.812.136 1.933c-.962 2.029 1.06 2.038 1.92 2.834l-.142.971v5.3l.12 1.94.848 3.82.152 2.407-1.885.944-.064-.716c-.277-1.2-.555-2.397-.833-3.594l-.116-1.748c-.415-1.339 1.283-3.291-1.174-4.035l-.136-1.931-.83-3.827-.136-1.932-.832-3.827-.098-1.462 1.83-1.889.067.773c.411 1.34-1.278 3.291 1.173 4.038M544.82 370.975l-1.485-.005-2.384.859-.568.139-1.276 1.178c.066.115.047.213-.057.295l-.973-1.446-.002.002.986-.911.028-.023.939-1.112.959-.34 1.902-.782c1.114.001 2.228.003 3.341.006l1.762.826.124.058 1.017 1.314-.005-.007.782.983.109.659.996 2.206.094 1.721.885 4.044.071 1.213v5.587l-1.935-2.468-.115-1.755-.805-3.54-.158-2.151c.279-2.225-.175-4.176-2.079-5.588l-.714-.275c-.48-.228-.96-.458-1.439-.687M439.2 406.56l-.066-1.217-.831-3.586-.128-2.148c-.282-1.199-.562-2.399-.842-3.597l-.129-1.691-1.157-1.694c-.054-.204-.109-.407-.162-.611-1.148-1.442-2.314-2.825-4.357-1.324l-1.274.096-1.142.747-.154.18-.237-.004-1.474.448v-1.313l.079-.079 2.762-1.811c.327-.026.654-.051.98-.078l3.79-.013.972.132 1.328.811.081.059 1.796 2.782.118.97.819 3.35.131 1.932c.278 1.276.555 2.553.831 3.829l.135 1.93c-.194 1.054-.162 2.332-1.869 1.9M333.047 361.946c.397.428.784.867 1.196 1.28.268.269.574.498.863.745l-.105.827c-1.906 1.472-1.899 4.865.014 6.723l.082 1.289.84 3.992.122 1.768-.08 1.064-.024.025-1.857.012-.007-.011-.921-3.81-.113-1.756-.896-4.494-.067-1.197-.839-3.621c-.12-.946-.346-1.899-.307-2.838.015-.353.665-.969.988-.945.391.029.742.607 1.111.947M539.043 389.796l-.961-.025-.928-1.923a994.99 994.99 0 0 0-.104-1.723l-.864-4.037-.083-1.295-.864-3.984-.097-1.775.059-3.973.968.022 1.891 3.753-.051 4.87L539.04 384l.066 1.198-.063 4.598" style="fill:#3d3a3b;fill-rule:nonzero"/><path d="M414.19 298.103c-1.828-1.651-4.212 2.769-5.082-1.432-.259-1.251-.536-2.575 1.634-2.885 3.062-.438 3.112 1.428 3.448 4.317M349.786 398.372l-2.053 2.213c-.549-.874-1.325-1.694-1.546-2.645-.101-.439.881-1.13 1.372-1.707l2.227 2.139M478.831 372.921c.382 1.021.99 2.03 1.044 3.069.024.474-1.043 1.005-1.615 1.511-.432-.864-1.083-1.695-1.219-2.603-.091-.61.549-1.328.861-1.998l.929.021ZM447.603 335.826l-1.816 1.841c-.54-.964-1.254-1.884-1.518-2.918-.083-.326 1.041-.96 1.612-1.452l1.721 2.529M550.13 384.971l1.936 2.468v-5.587c.288.981.803 1.964.8 2.944-.003.979-.399 2.726-.844 2.8-1.919.318-2.025-1.171-1.892-2.625M362.561 310.966l-6.416.067c2.121-1.687 4.257-2.025 6.416-.067M335.015 371.522c-1.913-1.858-1.92-5.251-.014-6.724l.014 6.724" style="fill:#454243;fill-rule:nonzero"/><path d="m313.502 179.143-3.394 1.27-.182 1.936c-.306-.63-.611-1.254-1.135-2.32l4.711-.886" style="fill:#d5235a;fill-rule:nonzero"/><path d="M427.247 390.846v1.312l1.474-.447-1.586 1.868c-.86-.796-2.882-.805-1.92-2.835.677.035 1.354.068 2.032.102M570.208 381.491c.25-.193.637-.606.73-.548 1.53.955 1.706 4.418.338 5.921l-1.068-5.373M423.839 384l-1.83 1.889.311-2.784 1.519.895M411.804 348.865c1.708-1.655 3.467-2.154 5.335-.239l-5.335.239M395.031 349.961l.066 4.579c-.749-1.516-2.067-3.023-.066-4.579" style="fill:#454243;fill-rule:nonzero"/><path d="M327.284 372.496c.329-.835.658-1.67.99-2.501l.783 1.703c-.59.267-1.181.532-1.773.798" style="fill:#f79928;fill-rule:nonzero"/><path d="M439.2 406.56c1.707.432 1.675-.846 1.869-1.9l-.324 2.635-1.545-.735M539.039 384l-1.03-4.294 1.03 4.294M434.858 388.864l-3.79.014 3.79-.014M538.06 374.836l-1.891-3.753 1.909.911.973 1.446-.991 1.396M425.079 388.812c-2.451-.748-.762-2.698-1.173-4.039l1.173 4.038M424.041 398.868c2.457.743.759 2.696 1.174 4.034l-1.174-4.034M546.974 371.937c1.903 1.412 2.357 3.363 2.079 5.588l-2.079-5.589M409.911 355.677c-.882-1.275-1.864-2.552-.008-3.833l.008 3.833" style="fill:#454243;fill-rule:nonzero"/><path d="M318.938 178.043" style="fill:#d5235a;fill-rule:nonzero"/><path d="m539.043 389.796.063-4.598c.316 1.265.684 2.521.897 3.803.034.206-.623.527-.96.795M332.161 369.601l.896 4.494-.896-4.494M364.122 309.089c.323.857.646 1.716.971 2.574l-1.714-.494.743-2.08" style="fill:#454243;fill-rule:nonzero"/><path d="M310.165 185.178" style="fill:#d5235a;fill-rule:nonzero"/><path d="M431.528 390.691c2.043-1.501 3.209-.118 4.356 1.324l-4.356-1.324ZM422.84 359.031l-.855-4.065.855 4.065M408.195 359.99l.85 3.82-.85-3.82ZM422.107 387.351l.832 3.828-.832-3.828M440.935 402.73l-.831-3.829.831 3.829M423.075 393.11l.83 3.826-.83-3.826M535.239 376.809l.863 3.984-.863-3.984M333.17 375.851l.921 3.81-.921-3.81M410.826 360.948l-.842-4.038.842 4.038M419.207 351.832l.843 3.829-.843-3.829M410.883 366.708l.062-4.012c.173 1.341 2.14 2.709-.062 4.012M562.182 384.925l3.702-.071-3.702.071M398.815 362.86c-.284-1.313-.565-2.627-.849-3.94.284 1.313.565 2.627.849 3.94M536.186 382.088l.864 4.037-.865-4.037ZM421.915 353.759l-.918-3.931.918 3.931M551.994 380.639l-.885-4.044.885 4.044M439.973 396.969l-.819-3.351.819 3.351M425.331 404.651l.833 3.593-.833-3.593M422.877 364.751l.071-3.989c.394 1.337 1.947 2.694-.071 3.989M535.201 371.061l-.06 3.973c-.192-1.328-2.119-2.682.06-3.974M399.356 368.568l-.425-3.898.425 3.898M401.27 350.514l3.861.142-3.861-.142M335.936 376.803l-.84-3.992.84 3.992M437.333 396.012l.842 3.597-.842-3.597M397.95 350.951l-1.471 2.013-.484-2.962 1.955.949M426.228 408.961l1.885-.943c-.223.581-.447 1.161-.669 1.742l-1.216-.799M414.253 345.81l-2.478 1.204 2.478-1.204M439.035 392.648l-1.796-2.782 1.796 2.782M331.255 364.782l.839 3.621-.839-3.621M549.21 379.676l.806 3.54-.806-3.54M403.19 348.042l-3.012.864 3.012-.864ZM438.303 401.757l.831 3.586-.831-3.586M407.045 348.957l-2.875-.927 2.875.927M430.088 388.956l-2.762 1.811 2.762-1.811M357.319 409.978l.699 2.988-.699-2.988M551.016 374.874l-.996-2.206.996 2.206ZM419.06 347.028l-1.954-1.203 1.954 1.203M358.281 415.71l.835 2.121-.835-2.121ZM356.106 404.66c.316.851.634 1.7.951 2.551-.317-.85-.635-1.7-.951-2.551M397.199 368.147l1.714.506-1.714-.506M436.047 392.627l1.157 1.693c-.386-.563-.771-1.129-1.157-1.693" style="fill:#454243;fill-rule:nonzero"/><path d="m111.916 95.064 1.415-1.317-1.415 1.317Z" style="fill:#fbfbfb;fill-rule:nonzero"/><path d="m542.89 368.828-1.902.782 1.902-.782" style="fill:#454243;fill-rule:nonzero"/><path d="m113.447 93.654 1.754-1.491-1.754 1.491" style="fill:#fbfbfb;fill-rule:nonzero"/><path d="M418.106 349.438a1743.828 1743.828 0 0 1 0 .001M334.098 379.671l1.857-.012-1.857.012ZM556.042 380.148l1.229 1.467-1.229-1.467M547.992 369.66l-1.762-.825 1.762.825M544.82 370.975c.479.229.959.459 1.439.687-.48-.228-.96-.458-1.439-.687M549.134 371.032l-1.018-1.313 1.018 1.313M437.158 389.808l-1.328-.812 1.328.812M557.267 381.607c.327.473.654.945.98 1.419-.326-.474-.653-.946-.98-1.419M421.151 363.351l.772 1.394-.772-1.394M559.344 383.946l1.307.807-1.307-.807M409.164 365.75l.752.951-.752-.951M398.902 351.897l1.144-1.089-1.144 1.089M398.894 349.669l-.913 1.229.913-1.229M539.107 373.145l1.276-1.178-1.276 1.178M355.237 311.335l-.931.69.931-.69M397.855 356.62l-.014-.913.014.913" style="fill:#454243;fill-rule:nonzero"/><path d="m117.081 90.706 1.015-.894-1.015.894Z" style="fill:#fbfbfb;fill-rule:nonzero"/><path d="m409.978 351.025.802-1.145-.802 1.145M408.951 349.904l-.375.74c-.177-.265-.354-.531-.529-.797.301.02.603.038.904.057M549.91 372.009l-.782-.983.782.983M539.061 371.086l-.986.911.986-.911M410.837 349.809l.866-.9-.866.9M408.072 349.871l-1.03-.915 1.03.915M420.819 348.968l-.801-.997.801.997M558.254 383.033l.986.857-.986-.857M566.867 384.71l.941-.721-.941.721M571.149 387.714l-.726 1.134.726-1.134M429.112 391.534l1.142-.747-1.142.747" style="fill:#454243;fill-rule:nonzero"/><path d="m327.198 367.479-.123-.088.021-.175a7.23 7.23 0 0 0 .296-.02l-.194.283" style="fill:#f79928;fill-rule:nonzero"/><path d="m420.027 347.984-.978-.962.978.962M397.972 353.89l.684-1.102-.684 1.102M411.363 347.109l-.999.868.999-.868" style="fill:#454243;fill-rule:nonzero"/><path d="M364.26 222.765c7.741-.013 13.108 1.468 16.166 7.141 5.603 10.395 1.336 22.836-11.608 24.989-6.385 1.061-12.714 2.455-19.08 3.637-3.898.723-7.807 1.415-11.739 1.889-.533.065-1.644-1.146-1.786-1.898-1.71-9.1-3.255-18.232-4.925-27.339-.405-2.212.152-3 2.546-3.318 5.163-.686 10.249-1.938 15.392-2.807 5.561-.94 11.151-1.708 15.034-2.294M328.928 217.75c-1.359-8.188-2.693-16.241-4.037-24.292-.078-.47-.2-.936-.341-1.391-1.119-3.607-.848-3.828 2.842-4.459 6.391-1.093 12.708-2.683 19.125-3.545 5.292-.71 10.634-2.438 16.051-.386 3.691 1.398 6.606 3.578 7.446 7.592.65 3.107 1.313 6.325 1.176 9.459-.227 5.12-3.589 8.377-8.158 9.967-4.055 1.412-8.344 2.189-12.567 3.077-6.658 1.4-13.346 2.662-20.023 3.97-.298.059-.618.008-1.514.008M272.996 279.242c-10.977.289-18.076-7.033-21.805-16.665-2.977-7.69-3.695-15.665-3.145-23.822.679-10.073 8.147-19.479 18.939-21.155 5.839-.907 11.226-.609 16.261 2.256 6.606 3.76 10.444 9.847 12.812 16.891 2.375 7.061 2.89 14.339 1.95 21.706-1.174 9.206-7.885 17.808-17.536 19.523-2.488.443-4.984.845-7.476 1.266" style="fill:#fbfbfb;fill-rule:nonzero"/><path d="m210.939 200.211.782-.052-.386.62-.396-.568" style="fill:#fefefe;fill-rule:nonzero"/><path d="M366.32 321.602c.289 3.382-2.39 4.955-4.636 5.17-3.038.29-5.049-1.549-5.685-5.204-.21-1.202-.446-2.521-.168-3.663.889-3.655 2.159-4.584 5.32-4.351 2.655.196 4.656 2.32 5.009 5.342.073.63.078 1.268.16 2.705M459.079 401.736c-.609-3.102-1.27-6.039-1.692-9.012-.077-.531.756-1.644 1.299-1.738a109.93 109.93 0 0 1 9.209-1.178c2.569-.224 4.763.608 5.358 3.391.712 3.335-.434 5.467-3.636 6.365-3.388.95-6.904 1.444-10.538 2.172M455.234 379.818c3.325-.587 6.573-1.354 9.863-1.674 2.172-.211 4.334.411 4.891 3.055.665 3.155-.377 4.939-3.354 5.741-2.501.673-5.04 1.203-7.555 1.822-1.507.371-2.481-.09-2.737-1.683-.375-2.336-.715-4.677-1.108-7.261M387.654 315.904c1.234 4.923-.175 7.062-4.465 7.097-1.744.013-2.911-.868-2.824-2.287.062-1.003 1.224-2.227 2.214-2.818 1.491-.888 3.263-1.311 5.075-1.992M314.8 321.537c3.558-.421 5.552 3.212 5.826 7.169.239 3.461-2.191 6.261-5.178 6.272-3.037.011-5.617-3.486-5.759-7.494-.118-3.301 2.672-6.435 5.111-5.947M436.412 308.347c-.443 3.756-2.293 6.123-5.258 6.332-2.711.191-5.532-2.989-5.857-6.605-.304-3.38.853-5.47 3.592-6.657 2.273-.984 4.174-.077 5.375 1.615 1.076 1.516 1.459 3.524 2.148 5.315M495.713 385.518c.016-4.075 1.792-6.512 4.962-6.81 4.224-.396 6.429 1.367 7.31 5.842 1.094 5.546.406 7.106-3.571 9.65-2.657 1.699-4.585.239-5.923-1.481-1.545-1.985-2.375-4.525-3.515-6.825l.737-.376M301.729 419.987c-.014-4.682 1.681-6.819 5.215-7.133 4.026-.357 6.466 1.585 7.07 5.821.237 1.661.263 3.374.18 5.052-.183 3.712-3.537 5.196-6.251 4.953-2.797-.249-5.389-2.728-5.915-5.906-.183-1.1-.239-2.221-.298-2.787" style="fill:#fbfbfb;fill-rule:nonzero"/><path d="M303.71 429.423c-.056.06-.103.109-.149.16-.049-.098-.115-.193-.137-.297-.009-.038.084-.098.131-.148l.155.285" style="fill:#fefefe;fill-rule:nonzero"/><path d="M567.878 381.613c-.168.071-.335.144-.502.216l-1.248 1.128c-6.999.108-10.856-6.442-7.583-12.712 1.442-2.763 6.928-4.106 9.565-.18l.701.785 1.333 7.592-.752 1.243-.584 1.11-.93.818" style="fill:#fbfbfb;fill-rule:nonzero"/><path d="m566.128 382.957 1.248-1.128-1.248 1.128ZM569.392 379.686l.752-1.243-.752 1.243M567.878 381.613l.93-.818-.93.818M568.81 370.851l-.7-.785.7.785Z" style="fill:#454243;fill-rule:nonzero"/><path d="m380.837 406.528-12.398 2.081c-.761-2.403.128-4.528 1.815-6.084 2.007-1.85 4.625-2.424 6.944-.622 1.382 1.074 2.25 2.809 3.639 4.625M314.271 372.435c-.619-3.747.891-6.39 4.053-7.398 2.663-.851 6.071.943 7.175 3.969.165.452-.549 1.735-1.013 1.824-3.333.645-6.706 1.081-10.215 1.605M329.387 424.985c-4.093.705-7.218-5.057-7.222-8.584-.004-3.727 2.841-7.511 6.503-7.554 3.873-.046 7.045 4.628 7.277 8.716.19 3.35-3.113 8.018-6.558 7.422" style="fill:#fbfbfb;fill-rule:nonzero"/></svg>