<?xml version="1.0" encoding="UTF-8" standalone="no"?><!DOCTYPE svg PUBLIC "-//W3C//DTD SVG 1.1//EN" "http://www.w3.org/Graphics/SVG/1.1/DTD/svg11.dtd"><svg width="100%" height="100%" viewBox="0 0 574 460" version="1.1" xmlns="http://www.w3.org/2000/svg" xmlns:xlink="http://www.w3.org/1999/xlink" xml:space="preserve" xmlns:serif="http://www.serif.com/" style="fill-rule:evenodd;clip-rule:evenodd;stroke-linejoin:round;stroke-miterlimit:2;"><g id="Ebene-1" serif:id="Ebene 1"><g><path d="M447.603,335.826c-0.715,-1.052 -1.219,-1.791 -1.721,-2.529c-0.571,0.492 -1.695,1.126 -1.613,1.452c0.264,1.034 0.978,1.954 1.519,2.918c0.522,-0.529 1.043,-1.059 1.815,-1.841m31.228,37.095l-0.928,-0.021c-0.313,0.67 -0.952,1.388 -0.863,1.997c0.137,0.908 0.788,1.74 1.219,2.604c0.572,-0.506 1.641,-1.037 1.615,-1.511c-0.053,-1.039 -0.661,-2.048 -1.043,-3.069m-129.044,25.451c-0.979,-0.94 -1.604,-1.539 -2.228,-2.139c-0.49,0.577 -1.474,1.268 -1.372,1.707c0.221,0.95 0.998,1.771 1.547,2.645c0.564,-0.611 1.131,-1.221 2.053,-2.213m64.404,-100.27c-0.337,-2.888 -0.387,-4.754 -3.449,-4.316c-2.17,0.31 -1.892,1.634 -1.633,2.886c0.869,4.199 3.253,-0.221 5.082,1.43m63.801,82.815c0.079,0.977 0.072,2.013 0.262,3.01c0.88,4.659 1.762,9.32 2.786,13.949c0.161,0.723 1.062,1.282 1.62,1.917c0.303,-0.799 0.964,-1.651 0.853,-2.386c-0.736,-4.862 -1.786,-9.68 -2.416,-14.554c-0.278,-2.146 -1.067,-2.598 -3.106,-1.936m-124.536,41.601c-1.214,-6.372 -2.41,-12.653 -3.632,-19.08c-1.033,0.271 -1.694,0.444 -2.334,0.613c0.873,5.494 1.755,10.787 2.541,16.094c0.26,1.762 0.548,3.255 3.425,2.373m92.031,-81.352c0.898,5.751 1.694,11.304 2.709,16.815c0.141,0.773 1.355,1.347 2.073,2.012c0.293,-0.762 0.935,-1.58 0.822,-2.277c-0.911,-5.653 -1.964,-11.282 -3.007,-17.097c-1.177,0.248 -1.832,0.386 -2.596,0.547m38.159,32.305c0.57,2.026 1.19,3.666 1.483,5.362c1.072,6.182 2,12.389 3.091,18.567c0.094,0.523 1.005,1.243 1.531,1.24c0.447,-0.002 1.041,-0.861 1.277,-1.458c0.18,-0.45 -0.079,-1.088 -0.183,-1.635c-0.601,-3.182 -1.257,-6.354 -1.815,-9.543c-0.724,-4.134 -1.303,-8.295 -2.127,-12.407c-0.123,-0.62 -1.183,-1.218 -1.928,-1.458c-0.277,-0.089 -0.894,0.876 -1.329,1.332m-137.645,49.983c-0.037,-0.557 -0.028,-1.116 -0.119,-1.66c-1.258,-7.498 -2.532,-14.993 -3.8,-22.49c-0.372,-2.206 -1.663,-1.886 -3.231,-1.196c0.147,1.168 0.231,2.28 0.433,3.369c1.267,6.844 2.656,13.667 3.794,20.532c0.362,2.185 1.061,2.595 2.924,1.445m109.951,-64.543c0.387,0.106 0.776,0.213 1.164,0.319c0.349,-0.755 1.051,-1.543 0.987,-2.26c-0.298,-3.322 -0.96,-6.612 -1.2,-9.934c-0.229,-3.156 1.38,-5.191 4.015,-6.202c0.643,-0.246 0.955,-1.356 1.419,-2.069c-0.827,-0.168 -1.874,-0.735 -2.438,-0.424c-1.488,0.819 -2.767,2.02 -4.217,3.137c-0.382,-0.82 -0.697,-1.499 -1.417,-3.046c-0.656,1.35 -1.387,2.12 -1.288,2.761c0.91,5.918 1.963,11.815 2.975,17.718m-94.348,-3c0.505,3.504 0.921,6.727 1.446,9.931c0.409,2.495 0.859,4.994 1.504,7.435c0.163,0.616 1.146,1.016 1.752,1.515c0.289,-0.697 0.881,-1.425 0.817,-2.087c-0.294,-3 -0.876,-5.972 -1.163,-8.973c-0.363,-3.803 0.96,-5.692 4.411,-7.153c0.471,-0.2 0.574,-1.271 0.846,-1.939c-0.632,-0.191 -1.495,-0.745 -1.858,-0.513c-1.724,1.099 -3.31,2.413 -5.077,3.75c-0.208,-0.83 -0.394,-1.568 -0.615,-2.451c-0.694,0.163 -1.276,0.3 -2.063,0.485m52.004,-55.119c-2.006,0.464 -3.894,0.19 -3.429,2.626c1.023,5.351 1.995,10.715 3.17,16.032c0.111,0.505 1.612,1.146 2.272,0.973c0.803,-0.211 2.06,-1.304 1.985,-1.863c-0.719,-5.321 -1.632,-10.618 -2.622,-15.897c-0.141,-0.75 -0.989,-1.366 -1.377,-1.871m-59.297,55.184c-0.072,-0.719 -0.067,-1.934 -0.366,-3.069c-0.153,-0.574 -0.776,-1.18 -1.337,-1.434c-0.362,-0.163 -1.415,0.239 -1.444,0.473c-0.121,0.995 -0.142,2.067 0.115,3.027c0.406,1.52 0.644,2.65 -1.529,2.793c-0.361,0.024 -0.641,1.263 -1.211,2.476c3.744,-0.981 4.273,1.038 4.607,3.205c0.423,2.75 0.711,5.523 1.2,8.261c0.738,4.138 2.292,5.175 5.984,4.09c0.489,-0.144 0.863,-0.677 1.29,-1.03c-0.544,-0.316 -1.124,-0.951 -1.625,-0.894c-2.276,0.26 -2.998,-0.837 -3.028,-2.895c-0.011,-0.854 -0.379,-1.697 -0.514,-2.556c-0.488,-3.079 -0.948,-6.163 -1.303,-8.491c1.556,-1.025 2.503,-1.648 3.45,-2.272c-1.269,-0.498 -2.539,-0.997 -4.288,-1.684m81.531,-14.081c-1.217,0.968 -1.973,1.569 -2.728,2.17c0.855,0.254 1.774,0.392 2.548,0.803c0.586,0.311 1.317,0.911 1.418,1.483c0.781,4.383 1.361,8.801 2.163,13.18c0.149,0.818 1.01,1.507 1.544,2.255c0.385,-0.875 1.188,-1.804 1.084,-2.616c-0.529,-4.094 -1.207,-8.174 -2.012,-12.223c-0.387,-1.941 -0.193,-3.128 2.096,-3.234c0.363,-0.017 0.697,-0.609 1.043,-0.935c-0.361,-0.322 -0.69,-0.86 -1.091,-0.922c-0.907,-0.14 -1.849,-0.044 -2.794,-0.044c-0.483,-2.351 -1.848,-4.764 2.013,-5.144c0.307,-0.03 0.834,-1.204 0.675,-1.626c-0.163,-0.429 -1.12,-0.914 -1.603,-0.807c-3.339,0.742 -4.46,2.325 -4.359,5.817c0.024,0.791 0.003,1.583 0.003,1.843m-23.642,49.726c-1.029,0.385 -2.778,0.831 -4.322,1.659c-3.507,1.881 -4.447,5.266 -4.245,8.858c0.236,4.157 1.587,7.887 5.913,9.656c5.633,2.303 11.031,-0.522 11.572,-6.107c0.063,-0.649 -0.329,-1.344 -0.51,-2.018c-0.588,0.542 -1.442,0.972 -1.72,1.642c-1.777,4.286 -4.357,5.86 -7.981,4.463c-2.615,-1.008 -3.195,-3.582 -4.329,-5.855c-1.371,-2.747 0.586,-7.381 2.752,-8.743c2.779,-1.75 5.387,-0.977 7.844,1.874c0.43,0.498 1.49,0.451 2.259,0.656c0.008,-0.665 0.226,-1.418 -0.011,-1.981c-1.183,-2.828 -3.609,-3.755 -7.221,-4.104m-74.078,26.039c-0.021,-6.771 -3.427,-10.764 -9.176,-10.758c-5.77,0.005 -9.146,3.453 -9.17,9.366c-0.025,6.372 3.911,11.204 9.243,11.038c5.209,-0.162 9.394,-3.007 9.103,-9.646m191.163,-27.56c1.086,0.363 1.978,0.789 2.904,0.872c0.207,0.02 0.84,-1.209 0.741,-1.771c-0.928,-5.313 -1.934,-10.614 -3.034,-15.895c-0.109,-0.527 -0.971,-0.898 -1.482,-1.342c-0.409,0.54 -1.216,1.127 -1.161,1.613c0.286,2.438 1.033,4.839 1.164,7.276c0.137,2.529 0.24,5.244 -0.535,7.583c-0.774,2.342 -3.464,2.93 -5.629,2.213c-1.336,-0.441 -2.851,-2.018 -3.22,-3.376c-0.997,-3.665 -1.357,-7.499 -2.135,-11.232c-0.15,-0.718 -1.054,-1.278 -1.61,-1.911c-0.422,0.713 -1.279,1.482 -1.192,2.128c0.36,2.733 0.945,5.442 1.558,8.135c0.484,2.135 0.714,4.476 1.784,6.298c2.245,3.821 8.467,3.218 11.846,-0.591m-137.941,-18.916c0.687,-1.127 1.471,-1.814 1.387,-2.372c-0.834,-5.56 -1.764,-11.107 -2.819,-16.629c-0.103,-0.538 -1.221,-0.881 -1.866,-1.316c-0.363,0.584 -1.089,1.208 -1.029,1.745c0.294,2.676 0.402,5.478 1.337,7.948c0.928,2.458 0.813,4.64 -0.57,6.513c-0.896,1.212 -2.608,2.319 -4.062,2.475c-1.37,0.146 -3.215,-0.68 -4.225,-1.7c-0.876,-0.882 -0.994,-2.615 -1.237,-4.007c-0.475,-2.736 -0.676,-5.525 -1.271,-8.229c-0.191,-0.862 -1.271,-1.529 -1.944,-2.285c-0.345,0.845 -1.077,1.742 -0.972,2.527c0.514,3.852 1.077,7.713 1.959,11.493c0.896,3.842 4.118,5.787 7.918,4.695c2.148,-0.618 4.07,-2.025 6.088,-3.071c0.194,0.33 0.58,0.982 1.307,2.213m7.714,30.042c0.193,-0.276 0.386,-0.552 0.579,-0.829c-0.832,-4.58 -5.462,-6.373 -10.493,-4.13c-2.25,1.003 -4.012,2.487 -3.916,5.051c0.089,2.467 1.392,4.273 4.132,4.628c2.26,0.293 4.555,0.504 6.748,1.085c1.103,0.293 2.851,1.358 2.829,2.022c-0.045,1.294 -0.803,3.109 -1.846,3.724c-3.553,2.095 -5.305,1.415 -7.998,-2.169c-0.344,-0.455 -1.341,-0.419 -2.034,-0.611c-0.132,0.574 -0.553,1.309 -0.339,1.692c0.612,1.103 1.269,2.45 2.288,3.01c3.853,2.121 7.593,1.467 11.147,-0.989c1.899,-1.313 2.311,-3.159 1.966,-5.19c-0.334,-1.957 -1.513,-3.475 -3.545,-3.842c-2.49,-0.45 -5.026,-0.636 -7.543,-0.928c-2.353,-0.273 -4.055,-2.257 -2.897,-3.614c0.965,-1.131 2.703,-2.106 4.151,-2.183c1.496,-0.079 3.091,0.927 4.568,1.618c0.813,0.381 1.474,1.093 2.202,1.655m6.748,-95.547c1.214,-4.074 -1.714,-2.826 -3.546,-2.931c-0.451,-1.776 -0.877,-3.456 -1.357,-5.351c-1.265,0.133 -2.558,0.268 -3.996,0.418c0.108,2.023 0.206,3.831 0.3,5.613c-3.103,1.039 -3.151,1.167 -1.57,4.143c0.676,-0.082 1.373,-0.166 2.447,-0.297c0.615,3.479 1.02,6.945 1.91,10.281c0.417,1.564 1.478,3.609 2.77,4.125c1.78,0.709 4.056,0.177 6.119,0.177c0.209,-0.347 0.418,-0.695 0.629,-1.044c-0.713,-0.746 -1.534,-2.205 -2.115,-2.115c-2.389,0.368 -2.887,-1.012 -3.221,-2.766c-0.325,-1.713 -0.623,-3.431 -0.926,-5.148c-0.733,-4.134 -0.493,-4.611 2.555,-5.105m-24.546,105.121c-0.981,4.757 -3.089,6.399 -7.291,5.96c-2.836,-0.296 -4.954,-2.839 -4.816,-6.049c3.932,-0.633 7.905,-1.38 11.908,-1.874c2.279,-0.282 2.306,-1.537 1.82,-3.179c-0.194,-0.658 -0.623,-1.245 -0.917,-1.878c-3.164,-6.806 -11.098,-6.337 -14.385,-1.931c-2.011,2.695 -1.791,5.8 -1.467,8.916c0.499,4.804 3.887,8.522 8.158,8.62c4.491,0.103 9.136,-2.612 9.319,-8.398c-0.74,-0.059 -1.492,-0.12 -2.329,-0.187m-81.709,1.474c-0.337,-0.066 -0.675,-0.132 -1.012,-0.198c-0.216,0.86 -0.693,1.75 -0.599,2.575c0.249,2.187 0.766,4.342 1.139,6.516c1,5.842 1.979,11.686 2.968,17.536c2.181,0.17 3.07,-0.11 2.233,-2.489c-0.707,-2.011 -0.662,-4.286 -0.9,-6.066c2.843,0.234 5.726,1.259 7.904,0.432c2.28,-0.867 4.397,-3.224 5.662,-5.453c1.853,-3.268 -0.685,-10.817 -3.871,-13.345c-3.432,-2.722 -6.732,-2.138 -12.537,2.282c-0.334,-0.607 -0.661,-1.198 -0.987,-1.79m207.221,-34.335c-5.022,-2.572 -10.089,-1.666 -12.49,2.049c-2.463,3.809 -1.228,12.184 2.204,14.94c4.223,3.393 8.419,2.694 12.936,-1.891c0.796,0.655 1.555,1.279 2.314,1.903c0.161,-0.94 0.563,-1.914 0.444,-2.817c-0.628,-4.727 -1.31,-9.448 -2.127,-14.146c-0.59,-3.395 -1.42,-6.749 -2.142,-10.122c-0.382,0.022 -0.764,0.042 -1.147,0.063c-2.606,3.098 0.685,6.607 0.008,10.021m-203.469,-16.949c-0.158,0.648 -0.173,0.981 -0.313,1.247c-3.423,6.51 -6.84,13.023 -10.306,19.508c-1.008,1.887 -2.591,3.596 -1.368,6.176c2.395,-0.387 4.738,-0.762 7.081,-1.144c4.071,-0.663 8.152,-1.28 12.201,-2.061c0.48,-0.093 0.784,-1.093 1.17,-1.672c-0.59,-0.391 -1.248,-1.189 -1.758,-1.103c-2.407,0.401 -4.76,1.124 -7.16,1.58c-2.791,0.531 -5.612,0.903 -8.72,1.39c0.673,-1.441 1.053,-2.373 1.53,-3.253c3.644,-6.738 7.355,-13.441 10.907,-20.228c0.475,-0.91 0.172,-2.227 0.228,-3.355c-1.064,0.056 -2.137,0.049 -3.19,0.192c-0.607,0.083 -1.165,0.51 -1.774,0.61c-4.548,0.749 -9.103,1.455 -13.894,2.212c0.13,0.879 0.248,1.677 0.362,2.453c5.096,-0.866 9.917,-1.687 15.004,-2.552m28.233,-25.278c1.494,-0.786 3.754,-1.339 3.855,-2.157c0.239,-1.946 -0.641,-4.005 -0.888,-6.041c-0.286,-2.347 -0.801,-4.797 -0.377,-7.044c0.213,-1.13 2.212,-2.495 3.544,-2.666c1.136,-0.147 3.283,1.025 3.573,2.023c1.034,3.558 1.519,7.28 2.103,10.958c0.315,1.979 1.491,1.987 3.094,1.882c1.902,-0.124 1.765,-1.303 1.557,-2.5c-0.681,-3.91 -1.268,-7.849 -2.213,-11.697c-0.913,-3.715 -2.662,-5.074 -6.495,-4.611c-2.401,0.291 -4.674,1.638 -7.034,2.522c-0.739,-2.282 -2.721,-0.071 -4.426,-0.553c1.208,6.478 2.367,12.697 3.707,19.884m89.417,-28.47c-0.427,6.324 4.067,11.041 9.62,10.927c6.008,-0.123 10.276,-4.094 10.097,-9.775c-0.194,-6.151 -3.603,-10.686 -9.646,-10.881c-5.375,-0.173 -10.924,4.493 -10.071,9.729m-95.906,21.356c-0.053,-6.465 -3.98,-10.87 -9.791,-10.701c-6.264,0.182 -9.958,3.763 -9.951,9.945c0.006,6.151 4.135,10.966 9.518,10.734c5.649,-0.243 10.461,-3.227 10.224,-9.978m144.275,-17.788c4.048,0.285 4.409,-0.028 3.946,-3.584c-0.448,-3.446 -1.235,-6.875 -1.32,-10.325c-0.027,-1.076 1.555,-2.64 2.757,-3.165c1.079,-0.471 3.095,-0.292 3.882,0.458c0.942,0.896 1.15,2.675 1.44,4.119c0.692,3.448 1.246,6.923 1.903,10.659c1.881,-0.904 4.603,0.26 4.165,-2.707c-0.635,-4.3 -1.384,-8.623 -2.588,-12.791c-1.103,-3.82 -4.032,-5.067 -7.905,-3.865c-1.304,0.405 -2.475,1.232 -3.709,1.86c-0.468,0.238 -1.338,0.692 -1.359,0.657c-1.433,-2.442 -2.993,-0.277 -4.664,-0.335c1.166,6.426 2.294,12.642 3.452,19.019m-25.708,-14.755c0.513,3.498 1.037,6.857 1.496,10.226c0.731,5.373 2.235,7.755 6.198,7.9c2.456,0.091 4.962,-1.193 6.657,-1.648c2.355,-0.211 4.011,-0.359 5.703,-0.512c-0.917,-5.864 -1.769,-11.114 -2.545,-16.375c-0.293,-1.979 -1.034,-3.102 -3.294,-2.607c-2.313,0.508 -1.683,2.022 -1.43,3.53c0.564,3.362 1.212,6.723 1.52,10.111c0.181,1.977 -2.48,4.583 -4.364,4.007c-1.379,-0.421 -2.875,-2.147 -3.321,-3.598c-1.089,-3.543 -1.549,-7.275 -2.402,-10.898c-0.115,-0.487 -1.059,-1.135 -1.573,-1.095c-0.898,0.068 -1.76,0.612 -2.645,0.959m-68.256,18.439c1.734,-0.93 3.864,-1.35 4.407,-2.512c1.132,-2.42 2.968,-2.691 4.996,-2.575c0.804,0.046 2.198,1.118 2.178,1.682c-0.033,0.918 -0.813,2.119 -1.632,2.623c-1.098,0.674 -2.568,0.704 -3.816,1.177c-2.491,0.943 -5.059,2 -5.606,5c-1.043,5.725 5.172,7.955 8.892,6.468c2.395,-0.958 4.624,-3.297 7.637,-1.471c0.395,0.24 1.219,0.176 1.622,-0.087c0.753,-0.493 1.773,-1.175 1.875,-1.892c0.088,-0.633 -0.908,-1.433 -1.453,-2.137c-0.427,-0.552 -1.187,-1.015 -1.301,-1.613c-0.492,-2.567 -0.791,-5.171 -1.174,-7.76c-0.592,-3.996 -2.426,-5.588 -6.52,-5.634c-1.036,-0.013 -2.1,-0.078 -3.105,0.119c-3.64,0.713 -8.102,3.236 -7,8.612m-93.975,2.198c1.035,6.534 1.957,12.413 2.901,18.288c0.34,2.118 0.72,4.23 1.104,6.339c0.467,2.564 2.413,1.504 3.775,1.316c0.421,-0.058 1,-1.456 0.929,-2.186c-0.299,-3.143 -0.813,-6.264 -1.282,-9.632c3.951,-0.733 7.672,-1.424 11.556,-2.144c-0.137,-1.265 -0.262,-2.428 -0.424,-3.921c-3.961,0.643 -7.822,1.27 -11.891,1.931c-0.402,-2.322 -0.772,-4.466 -1.145,-6.627c4.67,-0.831 8.93,-1.588 13.269,-2.361c-0.097,-1.39 -0.179,-2.552 -0.297,-4.214c-6.338,1.101 -12.383,2.151 -18.495,3.211m170.827,61.098c-0.033,0.652 -0.146,1.137 -0.069,1.588c1.343,7.802 2.678,15.605 4.135,23.386c0.104,0.558 1.193,1.392 1.74,1.333c3.312,-0.363 6.634,-0.789 9.88,-1.517c1.946,-0.437 3.94,-1.188 5.597,-2.278c3.974,-2.617 4.369,-10.426 -2.859,-13.029c0.184,-0.269 0.324,-0.553 0.534,-0.77c1.845,-1.905 2.887,-4.199 1.643,-6.647c-1.362,-2.68 -3.522,-4.655 -6.946,-4.147c-4.538,0.673 -9.072,1.381 -13.655,2.081m-199.495,-101.797c0.248,-0.111 0.494,-0.223 0.742,-0.333c4.474,5.247 10.081,8.019 16.945,8.415c8.651,0.499 16.757,-1.17 23.584,-6.585c8.792,-6.974 11.084,-16.946 10.519,-27.45c-0.309,-5.768 -1.829,-11.605 -3.665,-17.124c-2.882,-8.671 -8.576,-15.474 -17.069,-19.041c-8.484,-3.563 -17.189,-3.033 -25.452,1.298c-5.833,3.056 -10.125,7.524 -12.209,13.919c-0.156,0.482 -0.78,0.811 -1.188,1.211c-0.315,-0.485 -0.823,-0.936 -0.912,-1.459c-0.466,-2.746 -0.691,-5.539 -1.306,-8.247c-0.173,-0.758 -1.299,-1.611 -2.141,-1.827c-1.016,-0.261 -2.192,0.11 -3.66,0.24c0.171,1.815 0.222,3.548 0.512,5.24c0.855,4.983 1.827,9.945 2.705,14.924c0.757,4.298 1.402,8.617 2.18,12.912c0.945,5.211 2.02,10.397 2.959,15.609c0.789,4.38 1.426,8.787 2.201,13.17c1.201,6.797 2.455,13.584 3.702,20.372c0.64,3.486 1.313,6.968 1.995,10.576c1.188,-0.313 2.037,-0.768 2.849,-0.708c2.338,0.175 2.622,-0.9 2.24,-2.877c-1.382,-7.169 -2.709,-14.349 -3.968,-21.541c-0.621,-3.547 -1.048,-7.129 -1.563,-10.694m-18.069,-202.996c-10.66,0.782 -21.255,0.967 -31.579,3.82c-7.333,2.026 -14.718,3.876 -21.987,6.109c-9.207,2.828 -17.958,6.777 -26.057,12.02c-6.716,4.348 -13.584,8.547 -19.841,13.5c-12.73,10.077 -23.746,21.905 -32.24,35.777c-5.44,8.884 -10.402,18.119 -14.8,27.56c-2.828,6.069 -4.777,12.686 -6.163,19.258c-2.03,9.63 -3.993,19.397 -4.528,29.185c-0.581,10.638 0.224,21.386 0.975,32.048c0.394,5.592 1.546,11.222 3.107,16.618c2.194,7.589 4.993,15.011 7.703,22.442c4.127,11.315 10.248,21.617 17.286,31.276c9.014,12.372 19.644,23.287 31.904,32.561c11.92,9.016 24.694,16.559 38.721,21.71c7.751,2.846 15.705,5.43 23.787,7.008c9.635,1.88 19.495,3.403 29.276,3.523c10.524,0.129 21.066,-1.59 31.608,-2.402c2.368,-0.183 3.559,-1.166 3.403,-3.543c-0.174,-2.645 -2.016,-2.962 -4.096,-2.704c-4.731,0.584 -9.45,1.713 -14.183,1.762c-9.883,0.101 -19.809,0.085 -29.648,-0.726c-7.362,-0.607 -14.653,-2.358 -21.909,-3.914c-11.231,-2.41 -21.658,-7.014 -31.806,-12.288c-10.184,-5.292 -19.564,-11.804 -28.25,-19.251c-8.863,-7.6 -16.731,-16.195 -23.61,-25.644c-7.162,-9.838 -12.987,-20.479 -17.526,-31.73c-2.691,-6.669 -4.517,-13.707 -6.477,-20.651c-2.984,-10.571 -4.111,-21.48 -4.303,-32.382c-0.282,-16.027 1.45,-31.838 6.521,-47.234c3.013,-9.147 6.527,-17.974 10.999,-26.514c6.735,-12.862 15.272,-24.302 25.259,-34.777c7.517,-7.884 15.908,-14.693 24.977,-20.625c5.374,-3.514 10.974,-6.851 16.852,-9.386c9.005,-3.884 18.218,-7.388 27.573,-10.32c6.226,-1.952 12.805,-3.155 19.312,-3.747c9.112,-0.828 18.314,-1.196 27.457,-0.96c6.693,0.172 13.4,1.374 20.014,2.59c6.267,1.153 12.544,2.548 18.591,4.525c6.335,2.07 12.591,4.585 18.538,7.587c6.842,3.454 13.302,7.664 19.941,11.522c1.615,0.939 3.361,1.769 4.804,-0.17c1.234,-1.654 1.458,-3.518 -0.481,-4.808c-4.517,-3.003 -8.96,-6.179 -13.741,-8.702c-5.958,-3.144 -12.058,-6.183 -18.399,-8.4c-9.34,-3.266 -18.81,-6.448 -28.481,-8.396c-9.332,-1.88 -18.988,-2.15 -28.503,-3.127m84.292,105.046c-0.862,0.279 -1.726,0.558 -2.588,0.837c-0.949,0.088 -1.899,0.175 -2.849,0.262c-1.472,0.277 -2.945,0.554 -4.711,0.886c0.524,1.067 0.83,1.69 1.135,2.314c0.079,0.945 0.159,1.891 0.24,2.836c0.294,0.912 0.589,1.825 0.884,2.737c0.747,5.025 1.382,10.069 2.27,15.069c1.178,6.628 2.622,13.208 3.822,19.832c0.851,4.696 1.426,9.441 2.233,14.144c1.555,9.055 3.169,18.101 4.797,27.143c0.557,3.093 1.229,6.165 1.851,9.259c1.454,-0.251 2.534,-0.446 3.616,-0.623c4.863,-0.793 9.735,-1.526 14.587,-2.383c6.387,-1.127 12.747,-2.406 19.138,-3.513c6.563,-1.138 13.228,-1.742 19.135,-5.34c6.545,-3.988 10.76,-9.747 12.422,-17.052c1.142,-5.017 0.909,-10.245 -0.965,-15.228c-2.366,-6.293 -6.119,-11.245 -12.805,-13.391c-2.317,-0.743 -4.646,-1.444 -7.249,-2.252c1.717,-1.403 3.162,-2.274 4.208,-3.489c7.034,-8.165 7.791,-17.902 2.353,-27.559c-5.061,-8.989 -17.506,-13.289 -27.545,-10.396c-4.701,1.355 -9.668,1.793 -14.518,2.622c-6.485,1.108 -12.974,2.191 -19.461,3.285m-108,22.168c0.132,0.189 0.265,0.378 0.397,0.568c-1.083,2.213 -2.147,4.436 -3.252,6.639c-4.031,8.04 -8.101,16.062 -12.108,24.115c-3.189,6.409 -6.24,12.889 -9.477,19.273c-4.785,9.438 -9.716,18.8 -14.518,28.229c-2.993,5.876 -5.966,11.767 -8.713,17.758c-0.665,1.451 -0.398,3.329 -0.602,5.452c6.101,-0.98 11.443,-1.76 16.754,-2.708c6.554,-1.171 13.071,-2.549 19.625,-3.712c8.373,-1.485 16.769,-2.837 25.153,-4.264c2.192,-0.373 4.403,-0.705 6.538,-1.295c0.524,-0.144 0.786,-1.232 1.169,-1.886c-0.618,-0.242 -1.286,-0.779 -1.846,-0.684c-9.71,1.649 -19.404,3.394 -29.108,5.077c-9.316,1.616 -18.638,3.19 -27.959,4.777c-2.294,0.39 -4.591,0.764 -7.067,1.176c0.073,-0.629 -0.012,-1.234 0.218,-1.673c2.299,-4.386 4.713,-8.711 6.971,-13.119c4.07,-7.939 8.063,-15.919 12.069,-23.89c4.065,-8.09 8.086,-16.203 12.165,-24.286c5.165,-10.236 10.43,-20.422 15.516,-30.698c1.221,-2.471 3.408,-4.864 1.641,-8.595c-21.346,3.744 -42.854,7.517 -64.362,11.291c-0.134,0.325 -0.267,0.65 -0.402,0.975c0.735,0.616 1.54,1.829 2.191,1.752c3.864,-0.456 7.697,-1.185 11.531,-1.871c5.06,-0.907 10.106,-1.892 15.168,-2.781c4.382,-0.769 8.786,-1.412 13.168,-2.178c6.386,-1.116 12.761,-2.292 19.14,-3.442m145.207,110.822l-0.908,0.302c-0.31,0.23 -0.62,0.46 -0.93,0.69c-3.351,2.194 -3.692,5.541 -3.25,9.033c0.464,3.663 2.149,6.905 5.423,8.645c3.495,1.857 7.004,1.164 10.029,-1.551c0.298,-0.268 0.946,-0.207 1.428,-0.199c1.13,0.018 2.435,0.451 3.317,0.012c0.509,-0.254 0.587,-1.922 0.427,-2.88c-1.158,-6.856 -2.401,-13.696 -3.687,-20.529c-0.175,-0.929 -0.563,-2.369 -1.158,-2.545c-1.014,-0.301 -2.466,-0.083 -3.344,0.502c-0.459,0.308 -0.181,1.872 -0.068,2.848c0.144,1.252 0.457,2.486 0.698,3.728c-0.248,0.693 -0.495,1.386 -0.743,2.08c-0.273,-0.068 -0.546,-0.136 -0.817,-0.203c-2.159,-1.958 -4.296,-1.62 -6.416,0.067m-29.05,56.187c-2.058,-4.459 -8.032,-6.193 -11.962,-3.376c-5.942,4.258 -4.228,15.075 0.635,17.785c0.509,0.385 1.018,0.772 1.525,1.158c6.844,1.401 12.247,-2.18 11.701,-8.798c-1.19,1.113 -2.274,1.675 -2.62,2.533c-1.43,3.563 -2.99,4.627 -6.793,4.214c-2.641,-0.286 -4.601,-2.588 -4.904,-5.977c4.188,-0.751 8.398,-1.507 12.607,-2.263c0.59,-0.266 1.181,-0.531 1.772,-0.798c-0.26,-0.565 -0.52,-1.132 -0.78,-1.698c-0.361,-0.84 -0.72,-1.681 -1.079,-2.522c0.065,-0.094 0.13,-0.188 0.195,-0.283c-0.1,0.008 -0.197,0.017 -0.297,0.025m31.186,48.49l0.835,2.121c0.157,2.887 1.411,3.662 5.181,3.038c0.561,-0.093 1.037,-0.693 1.554,-1.059c-0.554,-0.311 -1.152,-0.949 -1.652,-0.879c-2.48,0.348 -2.926,-1.176 -3.166,-3.07c-0.15,-1.181 -0.451,-2.342 -0.64,-3.518c-0.439,-2.722 -0.852,-5.448 -1.29,-8.27c0.605,-0.135 1.015,-0.145 1.343,-0.314c0.753,-0.388 1.466,-0.854 2.194,-1.288c-0.787,-0.248 -1.637,-0.383 -2.347,-0.772c-0.802,-0.439 -1.649,-0.988 -2.153,-1.715c-0.352,-0.508 0.043,-1.506 -0.271,-2.079c-0.337,-0.615 -1.114,-0.99 -1.699,-1.47c-0.318,0.617 -0.765,1.204 -0.912,1.858c-0.112,0.502 0.114,1.1 0.259,1.637c0.392,1.441 0.635,2.695 -1.519,2.892c-0.386,0.035 -0.683,1.04 -1.259,1.987c1.625,-0.072 2.496,-0.11 3.367,-0.149c0.316,0.851 0.634,1.701 0.951,2.551c0.087,0.923 0.175,1.844 0.262,2.766c0.233,0.997 0.466,1.994 0.699,2.99c0.087,0.915 0.175,1.829 0.263,2.743m78.877,-25.903c-0.443,-0.27 -0.886,-0.541 -1.328,-0.811c-0.325,-0.044 -0.649,-0.088 -0.972,-0.132c-1.264,0.005 -2.528,0.009 -3.791,0.014c-0.326,0.026 -0.653,0.052 -0.981,0.078c-0.921,0.603 -1.84,1.207 -2.761,1.81l-0.079,0.08c-0.678,-0.035 -1.356,-0.068 -2.032,-0.102c-0.046,-0.645 -0.091,-1.288 -0.136,-1.933c-0.39,-1.345 -0.782,-2.692 -1.173,-4.039c-0.022,-0.258 -0.044,-0.515 -0.067,-0.772c-0.506,-0.298 -1.011,-0.597 -1.518,-0.895c-0.105,0.928 -0.207,1.856 -0.313,2.784c0.034,0.487 0.066,0.974 0.099,1.461c0.277,1.277 0.555,2.552 0.832,3.829c0.046,0.643 0.091,1.288 0.137,1.931c0.276,1.276 0.553,2.551 0.829,3.826c0.046,0.644 0.091,1.287 0.135,1.932c0.392,1.345 0.784,2.689 1.175,4.035c0.038,0.582 0.077,1.165 0.116,1.748c0.279,1.198 0.555,2.396 0.834,3.594c0.021,0.238 0.041,0.477 0.063,0.716c0.406,0.266 0.812,0.532 1.216,0.799c0.223,-0.581 0.447,-1.162 0.67,-1.743l-0.154,-2.408c-0.281,-1.272 -0.565,-2.546 -0.846,-3.818c-0.041,-0.648 -0.081,-1.294 -0.12,-1.941l0,-5.3c0.046,-0.324 0.094,-0.647 0.14,-0.971c0.529,-0.622 1.058,-1.245 1.587,-1.868l0.237,0.004l0.154,-0.181c0.382,-0.249 0.762,-0.498 1.142,-0.747c0.425,-0.032 0.849,-0.064 1.274,-0.096l4.356,1.324c0.055,0.205 0.11,0.408 0.163,0.612c0.385,0.564 0.772,1.13 1.157,1.694c0.043,0.564 0.086,1.127 0.129,1.691c0.281,1.199 0.561,2.398 0.841,3.597c0.042,0.716 0.085,1.432 0.128,2.148c0.279,1.195 0.555,2.39 0.832,3.587c0.022,0.405 0.045,0.81 0.067,1.215c0.514,0.246 1.029,0.491 1.544,0.736c0.108,-0.879 0.216,-1.757 0.325,-2.636c-0.045,-0.644 -0.09,-1.287 -0.135,-1.93c-0.276,-1.276 -0.554,-2.552 -0.832,-3.829c-0.042,-0.643 -0.087,-1.287 -0.13,-1.931c-0.272,-1.117 -0.546,-2.234 -0.82,-3.351c-0.039,-0.323 -0.079,-0.646 -0.118,-0.97c-0.599,-0.927 -1.197,-1.854 -1.796,-2.782l-0.081,-0.059Zm-323.712,-296.153c0.586,-0.497 1.171,-0.994 1.756,-1.491c0.626,-0.486 1.252,-0.972 1.88,-1.458l1.015,-0.893c7.73,-6.814 16.358,-12.332 25.229,-17.504c10.514,-6.13 21.561,-11.182 33.167,-14.715c9.352,-2.847 18.914,-5.305 28.558,-6.795c10.281,-1.588 20.763,-2.431 31.163,-2.485c8.79,-0.046 17.63,1.21 26.371,2.436c6.947,0.974 13.938,2.259 20.623,4.332c8.969,2.782 17.911,5.923 26.404,9.89c9.325,4.354 18.443,9.337 27.06,14.954c7.308,4.765 14.137,10.434 20.513,16.412c7.141,6.695 13.903,13.879 20.15,21.413c7.398,8.92 13.415,18.859 18.806,29.143c1.401,2.673 3.941,3.579 6.314,2.352c2.514,-1.302 3.448,-3.957 2.03,-6.641c-2.334,-4.418 -4.744,-8.804 -7.327,-13.08c-6.736,-11.151 -14.455,-21.623 -23.717,-30.768c-7.483,-7.388 -15.334,-14.481 -23.59,-20.983c-6.909,-5.442 -14.434,-10.199 -22.07,-14.592c-6.724,-3.868 -13.868,-7.076 -21.032,-10.087c-6.582,-2.768 -13.365,-5.114 -20.192,-7.209c-4.74,-1.454 -9.677,-2.333 -14.575,-3.176c-7.882,-1.356 -15.771,-3.1 -23.72,-3.547c-13.844,-0.778 -27.71,-0.98 -41.515,1.522c-9.331,1.691 -18.619,3.232 -27.715,6.107c-10.44,3.299 -20.763,6.758 -30.346,12.104c-7.706,4.298 -15.429,8.582 -22.932,13.218c-9.774,6.04 -18.454,13.566 -26.661,21.536c-8.683,8.433 -16.624,17.617 -23.245,27.782c-4.894,7.515 -9.603,15.205 -13.672,23.185c-3.876,7.598 -7.241,15.524 -10.038,23.581c-2.626,7.555 -4.651,15.387 -6.15,23.249c-1.724,9.051 -3.261,18.24 -3.638,27.421c-0.45,10.983 0.008,22.051 0.85,33.022c0.573,7.463 2.174,14.895 3.881,22.209c1.672,7.17 3.591,14.358 6.254,21.206c3.455,8.886 7.605,17.514 11.725,26.126c5.132,10.728 11.759,20.548 19.534,29.517c6.217,7.172 12.521,14.329 19.391,20.855c5.948,5.651 12.573,10.647 19.213,15.503c10.864,7.948 22.754,14.198 35.06,19.583c5.525,2.417 11.348,4.154 17.04,6.182c3.19,1.136 5.812,0.164 6.637,-2.424c0.968,-3.03 -0.542,-5.601 -3.55,-6.77c-8.539,-3.319 -17.212,-6.384 -25.469,-10.312c-7.171,-3.41 -13.918,-7.739 -20.723,-11.877c-12.49,-7.595 -23.32,-17.307 -32.969,-28.13c-7.207,-8.083 -13.511,-17.027 -19.679,-25.96c-3.885,-5.625 -6.903,-11.869 -10.069,-17.961c-1.799,-3.461 -3.244,-7.126 -4.617,-10.788c-2.376,-6.337 -4.787,-12.678 -6.771,-19.145c-1.409,-4.589 -2.307,-9.356 -3.135,-14.097c-1.185,-6.792 -2.134,-13.627 -3.108,-20.454c-0.292,-2.051 -0.498,-4.141 -0.457,-6.209c0.185,-9.258 0.17,-18.536 0.834,-27.763c0.425,-5.907 1.815,-11.756 2.95,-17.597c0.858,-4.417 1.704,-8.875 3.081,-13.145c2.067,-6.405 4.613,-12.656 6.923,-18.985c4.167,-11.417 9.995,-22.003 16.777,-32.005c4.693,-6.923 9.91,-13.54 15.388,-19.865c4.478,-5.17 9.689,-9.704 14.575,-14.519l1.415,-1.317l0.116,-0.093Zm222.532,285.981c0.026,-0.355 0.053,-0.71 0.079,-1.065c-0.04,-0.589 -0.081,-1.179 -0.122,-1.767c-0.28,-1.331 -0.56,-2.663 -0.84,-3.994c-0.027,-0.428 -0.055,-0.858 -0.082,-1.288c-0.005,-2.241 -0.009,-4.482 -0.014,-6.723c0.036,-0.276 0.071,-0.551 0.105,-0.826c0.253,-0.182 0.559,-0.321 0.751,-0.553c1.68,-2.038 4.077,-2.703 6.13,-1.531c1.416,0.81 2.475,2.897 2.921,4.614c0.964,3.724 1.433,7.578 2.131,11.524c1.065,-0.162 1.745,-0.265 2.54,-0.387c-0.596,-3.944 -0.964,-7.755 -1.776,-11.47c-1.695,-7.766 -6.584,-9.42 -12.918,-4.588c-0.447,0.34 -1.217,0.253 -1.837,0.365c-0.37,-0.34 -0.719,-0.918 -1.111,-0.947c-0.322,-0.024 -0.974,0.592 -0.988,0.945c-0.038,0.94 0.186,1.892 0.306,2.838c0.281,1.207 0.56,2.415 0.839,3.622c0.024,0.399 0.046,0.797 0.068,1.196c0.298,1.498 0.597,2.997 0.896,4.495c0.036,0.585 0.075,1.17 0.113,1.755c0.307,1.271 0.613,2.54 0.921,3.81l0.007,0.011l1.858,-0.012l0.023,-0.024Zm203.082,-8.549c-0.328,0.303 -0.657,0.607 -0.986,0.912l0.002,-0.004c-0.635,-0.304 -1.273,-0.607 -1.909,-0.911c-0.322,-0.008 -0.644,-0.015 -0.966,-0.023c-2.179,1.292 -0.252,2.647 -0.06,3.974c0.031,0.592 0.064,1.184 0.097,1.774c0.288,1.329 0.576,2.657 0.863,3.985c0.028,0.431 0.056,0.863 0.083,1.295l0.865,4.037c0.034,0.574 0.07,1.148 0.104,1.722c0.309,0.642 0.619,1.283 0.927,1.923c0.321,0.009 0.641,0.017 0.961,0.026c0.337,-0.268 0.995,-0.589 0.96,-0.795c-0.212,-1.282 -0.581,-2.538 -0.897,-3.803c-0.022,-0.399 -0.044,-0.799 -0.066,-1.198c-0.343,-1.432 -0.687,-2.862 -1.031,-4.294c0.017,-1.623 0.034,-3.247 0.051,-4.87c0.33,-0.465 0.661,-0.931 0.991,-1.396c0.104,-0.082 0.122,-0.179 0.057,-0.295c0.426,-0.392 0.85,-0.785 1.276,-1.177c0.189,-0.047 0.378,-0.093 0.568,-0.139c0.795,-0.286 1.589,-0.572 2.383,-0.859c0.496,0.002 0.991,0.003 1.486,0.004c0.479,0.23 0.959,0.459 1.439,0.688c0.238,0.092 0.476,0.183 0.714,0.274c0.693,1.863 1.387,3.726 2.08,5.589c0.052,0.717 0.105,1.434 0.156,2.151c0.269,1.179 0.538,2.36 0.806,3.541c0.038,0.584 0.076,1.169 0.114,1.754c-0.132,1.454 -0.027,2.943 1.892,2.625c0.445,-0.075 0.842,-1.822 0.845,-2.8c0.003,-0.981 -0.513,-1.963 -0.802,-2.946c-0.024,-0.404 -0.047,-0.807 -0.07,-1.211c-0.295,-1.349 -0.59,-2.697 -0.885,-4.044c-0.031,-0.574 -0.063,-1.147 -0.094,-1.721l-0.996,-2.206c-0.036,-0.22 -0.073,-0.44 -0.109,-0.659c-0.261,-0.328 -0.522,-0.656 -0.783,-0.984l0.006,0.007c-0.339,-0.437 -0.677,-0.876 -1.017,-1.313l-0.124,-0.059c-0.588,-0.275 -1.175,-0.55 -1.762,-0.825c-1.113,-0.003 -2.228,-0.005 -3.341,-0.007c-0.635,0.261 -1.268,0.521 -1.902,0.782c-0.32,0.113 -0.639,0.227 -0.959,0.34c-0.314,0.371 -0.626,0.742 -0.94,1.112l-0.027,0.024Zm-119.034,-23.102c-0.326,-0.32 -0.651,-0.64 -0.978,-0.962l0.01,0.006c-0.651,-0.401 -1.303,-0.802 -1.954,-1.203c-0.95,-0.005 -1.901,-0.011 -2.852,-0.016c-0.827,0.402 -1.653,0.803 -2.478,1.205c-0.158,-0.057 -0.295,-0.026 -0.411,0.095c-0.334,0.289 -0.667,0.578 -1,0.868l0.019,-0.005c-0.48,0.647 -0.96,1.294 -1.439,1.942l0.007,-0.01c-0.3,-0.018 -0.603,-0.037 -0.904,-0.057l0.025,0.024c-0.342,-0.306 -0.686,-0.61 -1.03,-0.915l0.002,0.001c-0.958,-0.309 -1.917,-0.618 -2.875,-0.927c-0.326,0.004 -0.651,0.008 -0.978,0.012c-1.005,0.288 -2.009,0.576 -3.014,0.864c-0.428,0.254 -0.856,0.509 -1.284,0.763c-0.305,0.41 -0.608,0.819 -0.913,1.228l-0.029,0.054c-0.654,-0.316 -1.305,-0.633 -1.956,-0.949l-0.963,-0.041c-2.001,1.555 -0.683,3.063 0.066,4.579c0.701,4.536 1.401,9.071 2.102,13.607c0.571,0.169 1.142,0.337 1.714,0.506l0.233,0.024l0.209,-0.109c-0.142,-1.3 -0.283,-2.598 -0.425,-3.898c-0.039,-0.604 -0.078,-1.206 -0.116,-1.81c-0.283,-1.313 -0.566,-2.627 -0.848,-3.94c-0.038,-0.767 -0.075,-1.533 -0.112,-2.3c-0.005,-0.305 -0.01,-0.608 -0.014,-0.913c0.043,-0.606 0.087,-1.212 0.131,-1.818c0.228,-0.367 0.456,-0.734 0.684,-1.101c0.082,-0.297 0.165,-0.594 0.247,-0.891c0.382,-0.363 0.762,-0.726 1.143,-1.089c0.409,-0.098 0.816,-0.196 1.224,-0.294c1.287,0.047 2.574,0.094 3.861,0.141c0.7,1.192 1.398,2.384 2.096,3.576c0.284,1.274 0.569,2.547 0.854,3.821c0.039,0.646 0.077,1.292 0.115,1.938l0.849,3.82c0.039,0.647 0.079,1.293 0.12,1.94c0.25,0.316 0.5,0.634 0.751,0.951c0.323,0.002 0.645,0.005 0.967,0.007c2.202,-1.303 0.236,-2.671 0.062,-4.012c-0.039,-0.583 -0.078,-1.165 -0.118,-1.748c-0.281,-1.347 -0.562,-2.692 -0.842,-4.039c-0.025,-0.411 -0.049,-0.821 -0.073,-1.232c-0.003,-1.278 -0.005,-2.555 -0.008,-3.833c0.025,-0.273 0.05,-0.545 0.075,-0.819c0.267,-0.381 0.534,-0.762 0.802,-1.144l0.056,-0.073c0.289,-0.299 0.578,-0.6 0.867,-0.9l0.1,-0.043l5.335,-0.24c0.322,0.271 0.645,0.543 0.967,0.813c0.333,0.473 0.665,0.946 0.998,1.419c0.034,0.324 0.068,0.65 0.103,0.975c0.281,1.276 0.562,2.553 0.843,3.829c0.043,0.644 0.087,1.287 0.131,1.93c0.29,1.432 0.58,2.865 0.87,4.297c0.033,0.488 0.067,0.975 0.101,1.462c0.257,0.465 0.514,0.929 0.772,1.394c0.318,0.002 0.636,0.005 0.953,0.007c2.018,-1.295 0.465,-2.653 0.072,-3.99c-0.036,-0.577 -0.073,-1.154 -0.109,-1.73c-0.285,-1.355 -0.57,-2.711 -0.855,-4.065c-0.024,-0.403 -0.047,-0.805 -0.069,-1.207c-0.307,-1.311 -0.613,-2.62 -0.918,-3.931c-0.06,-0.287 -0.12,-0.573 -0.178,-0.86c-0.268,-0.333 -0.534,-0.665 -0.801,-0.997l0.009,0.013Zm154.053,40.816c0,22.96 -0.025,45.92 0.047,68.88c0.006,1.808 -0.4,2.207 -2.208,2.206c-114.639,-0.051 -229.28,-0.046 -343.92,-0.046c0.062,-0.326 0.008,-0.816 0.202,-0.951c2.655,-1.844 3.435,-4.52 2.476,-7.339c-0.989,-2.909 -3.426,-4.414 -6.598,-4.538c-12.978,-0.51 -25.867,-1.656 -38.434,-5.226c-7.176,-2.038 -14.497,-3.636 -21.542,-6.046c-7.949,-2.72 -15.86,-5.716 -23.433,-9.334c-12.041,-5.753 -23.456,-12.626 -34.221,-20.608c-10.404,-7.716 -20.121,-16.145 -29.057,-25.502c-9.737,-10.198 -18.316,-21.313 -25.881,-33.185c-6.878,-10.795 -12.795,-22.138 -17.462,-34.059c-2.769,-7.075 -5.351,-14.277 -7.269,-21.617c-2.575,-9.854 -4.8,-19.835 -6.464,-29.879c-1.208,-7.286 -1.724,-14.764 -1.716,-22.157c0.011,-9.951 0.565,-19.923 1.381,-29.845c0.55,-6.686 1.634,-13.371 3.065,-19.929c1.682,-7.704 3.942,-15.286 6.054,-22.893c2.864,-10.321 7.149,-20.053 11.942,-29.627c5.31,-10.606 11.076,-20.913 18.462,-30.188c7.022,-8.817 13.858,-17.91 21.85,-25.792c8.667,-8.546 18.153,-16.427 28.065,-23.498c9.407,-6.711 19.631,-12.372 29.87,-17.785c7.041,-3.723 14.579,-6.664 22.152,-9.18c10.138,-3.366 20.378,-6.781 30.844,-8.711c11.718,-2.16 23.716,-3.309 35.634,-3.731c10.411,-0.369 20.904,0.586 31.31,1.52c7.16,0.641 14.297,1.953 21.327,3.502c6.819,1.503 13.619,3.325 20.194,5.664c9.527,3.387 19.081,6.872 28.18,11.24c8.009,3.845 15.601,8.671 23.025,13.595c7.249,4.809 14.339,9.951 20.971,15.57c6.633,5.621 12.63,11.995 18.869,18.076c2.92,2.846 6.82,3.23 9.27,0.801c2.884,-2.857 2.738,-6.834 -0.358,-9.864c-4.505,-4.41 -8.768,-9.108 -13.569,-13.17c-8.313,-7.034 -16.791,-13.904 -25.534,-20.392c-5.076,-3.767 -10.661,-6.929 -16.275,-9.872c-8.854,-4.641 -17.84,-9.052 -26.937,-13.195c-4.549,-2.073 -9.421,-3.489 -14.227,-4.935c-8.07,-2.429 -16.105,-5.132 -24.338,-6.819c-9.003,-1.845 -18.189,-3.439 -27.343,-3.758c-13.699,-0.477 -27.446,0.093 -41.163,0.522c-11.945,0.375 -23.627,2.764 -35.031,6.18c-10.064,3.014 -20.127,6.196 -29.841,10.16c-9.18,3.746 -18.014,8.399 -26.8,13.03c-11.487,6.054 -21.879,13.807 -31.867,22.042c-9.55,7.873 -18.634,16.32 -26.371,26.005c-7.383,9.24 -14.608,18.647 -21.236,28.432c-4.637,6.847 -8.624,14.24 -12.053,21.775c-4.485,9.856 -8.477,19.974 -12.023,30.207c-2.546,7.345 -4.404,14.989 -5.86,22.634c-1.682,8.829 -3.2,17.771 -3.707,26.725c-1.267,22.418 -1.13,44.824 4.503,66.802c1.929,7.527 3.901,15.053 6.173,22.481c1.701,5.555 3.564,11.114 5.977,16.387c4.232,9.249 8.455,18.566 13.586,27.324c5.165,8.814 11.211,17.146 17.272,25.394c8.575,11.67 18.66,21.97 29.601,31.472c11.168,9.699 22.937,18.548 35.912,25.657c8.635,4.731 17.434,9.197 26.357,13.357c5.229,2.438 10.768,4.306 16.308,5.958c8.634,2.576 17.311,5.118 26.116,6.98c7.514,1.589 15.233,2.202 22.861,3.246c0.001,0.296 0.001,0.592 0.002,0.887c-69.52,0 -139.04,-0.008 -208.56,0.046c-1.809,0.002 -2.207,-0.399 -2.206,-2.206c0.049,-152.4 0.045,-304.8 0.045,-457.2c190.48,0 380.961,0.003 571.44,-0.046c1.808,0 2.207,0.398 2.206,2.206c-0.05,125.36 -0.045,250.72 -0.045,376.08l-1.024,0.272c-0.62,-3.902 -1.197,-7.813 -1.898,-11.702c-0.152,-0.85 -0.747,-1.62 -1.14,-2.427c-0.871,0.51 -1.744,1.02 -2.836,1.657c-4.683,-2.47 -10.423,-0.596 -11.846,4.844c-0.702,2.684 0.413,5.842 0.705,8.784c0.41,0.49 0.819,0.979 1.23,1.467l-0.005,-0.008c0.327,0.473 0.654,0.946 0.981,1.419l0.005,0.007c0.328,0.286 0.659,0.571 0.987,0.857l0.104,0.056c0.435,0.269 0.87,0.538 1.306,0.807c0.511,0.057 1.02,0.114 1.531,0.172c1.235,-0.024 2.468,-0.048 3.702,-0.072c0.328,-0.048 0.658,-0.095 0.985,-0.143c0.313,-0.24 0.627,-0.481 0.94,-0.721c0.486,-0.329 0.972,-0.658 1.458,-0.987c0.255,-0.312 0.509,-0.622 0.764,-0.933c0.059,-0.192 0.118,-0.386 0.177,-0.578c0.357,1.791 0.712,3.582 1.069,5.373c-0.042,0.283 -0.085,0.566 -0.127,0.85c-0.242,0.378 -0.484,0.756 -0.726,1.133c-3.498,2.742 -6.903,2.579 -9.81,-0.326c-0.421,-0.42 -1.365,-0.317 -2.066,-0.456c0.063,0.723 -0.111,1.588 0.225,2.146c1.919,3.18 6.274,3.18 10.227,2.008c1.553,-0.46 2.716,-2.238 4.057,-3.415c0.341,-0.001 0.683,-0.002 1.024,-0.004" style="fill:#fefefe;fill-rule:nonzero;"/><path d="M211.199,458.953c-7.628,-1.044 -15.348,-1.657 -22.861,-3.246c-8.805,-1.862 -17.482,-4.404 -26.117,-6.98c-5.54,-1.652 -11.078,-3.52 -16.307,-5.958c-8.923,-4.16 -17.722,-8.626 -26.358,-13.357c-12.974,-7.109 -24.743,-15.958 -35.912,-25.657c-10.94,-9.502 -21.026,-19.802 -29.6,-31.472c-6.061,-8.248 -12.107,-16.58 -17.272,-25.394c-5.132,-8.758 -9.354,-18.075 -13.586,-27.324c-2.413,-5.273 -4.277,-10.832 -5.977,-16.387c-2.272,-7.428 -4.244,-14.954 -6.173,-22.481c-5.633,-21.978 -5.77,-44.384 -4.503,-66.802c0.506,-8.954 2.025,-17.896 3.707,-26.725c1.456,-7.645 3.314,-15.289 5.859,-22.634c3.547,-10.233 7.539,-20.351 12.024,-30.207c3.429,-7.535 7.415,-14.928 12.053,-21.775c6.627,-9.785 13.853,-19.192 21.235,-28.432c7.738,-9.685 16.822,-18.132 26.371,-26.005c9.989,-8.235 20.381,-15.988 31.868,-22.042c8.786,-4.631 17.62,-9.284 26.799,-13.03c9.714,-3.964 19.778,-7.146 29.841,-10.16c11.405,-3.416 23.087,-5.805 35.032,-6.18c13.717,-0.429 27.463,-0.999 41.163,-0.522c9.154,0.319 18.339,1.913 27.342,3.758c8.234,1.687 16.269,4.39 24.339,6.819c4.806,1.446 9.678,2.862 14.227,4.935c9.097,4.143 18.083,8.554 26.936,13.195c5.615,2.943 11.2,6.105 16.276,9.872c8.743,6.488 17.22,13.358 25.534,20.392c4.801,4.062 9.063,8.76 13.569,13.17c3.096,3.03 3.241,7.007 0.358,9.864c-2.45,2.429 -6.35,2.045 -9.27,-0.801c-6.239,-6.08 -12.236,-12.455 -18.869,-18.076c-6.632,-5.619 -13.723,-10.761 -20.972,-15.57c-7.423,-4.924 -15.015,-9.75 -23.024,-13.595c-9.099,-4.368 -18.653,-7.853 -28.18,-11.24c-6.575,-2.339 -13.375,-4.161 -20.195,-5.664c-7.029,-1.549 -14.166,-2.861 -21.326,-3.502c-10.406,-0.933 -20.9,-1.889 -31.31,-1.52c-11.918,0.422 -23.916,1.571 -35.635,3.732c-10.465,1.929 -20.706,5.344 -30.843,8.71c-7.574,2.516 -15.111,5.458 -22.152,9.18c-10.239,5.413 -20.464,11.074 -29.87,17.785c-9.912,7.071 -19.398,14.952 -28.065,23.498c-7.992,7.882 -14.828,16.975 -21.85,25.792c-7.387,9.275 -13.153,19.582 -18.462,30.188c-4.793,9.574 -9.078,19.306 -11.943,29.627c-2.111,7.607 -4.371,15.189 -6.053,22.893c-1.431,6.558 -2.515,13.244 -3.065,19.929c-0.817,9.922 -1.37,19.894 -1.381,29.845c-0.008,7.393 0.508,14.871 1.716,22.158c1.664,10.043 3.889,20.024 6.464,29.878c1.918,7.34 4.5,14.542 7.269,21.617c4.667,11.922 10.584,23.264 17.462,34.059c7.565,11.872 16.144,22.988 25.881,33.185c8.936,9.357 18.653,17.786 29.057,25.502c10.765,7.982 22.18,14.855 34.221,20.608c7.573,3.618 15.484,6.614 23.433,9.334c7.045,2.41 14.366,4.008 21.542,6.046c12.567,3.57 25.455,4.716 38.433,5.226c3.173,0.124 5.61,1.629 6.599,4.538c0.958,2.819 0.179,5.495 -2.477,7.34c-0.193,0.134 -0.139,0.625 -0.201,0.95l-5.759,0c-3.681,-0.295 -7.362,-0.591 -11.042,-0.887" style="fill:#11b6cb;fill-rule:nonzero;"/><path d="M211.199,458.953c3.68,0.296 7.361,0.592 11.042,0.887l-11.041,0c0,-0.295 -0.001,-0.591 -0.001,-0.887" style="fill:#fbfbfb;fill-rule:nonzero;"/><path d="M574.08,388.8c-0.341,0.002 -0.683,0.003 -1.023,0.004c0,-3.271 0.001,-6.541 0.001,-9.812l1.022,-0.272l0,10.08Z" style="fill:#454243;fill-rule:nonzero;"/><path d="M111.916,95.064c-4.886,4.815 -10.097,9.35 -14.575,14.519c-5.478,6.325 -10.695,12.942 -15.388,19.865c-6.782,10.002 -12.61,20.589 -16.777,32.005c-2.31,6.329 -4.856,12.58 -6.923,18.986c-1.377,4.27 -2.223,8.727 -3.081,13.145c-1.135,5.84 -2.525,11.689 -2.95,17.596c-0.664,9.227 -0.649,18.505 -0.834,27.763c-0.041,2.068 0.165,4.159 0.457,6.209c0.974,6.828 1.923,13.662 3.109,20.454c0.827,4.741 1.725,9.508 3.134,14.097c1.984,6.467 4.395,12.808 6.771,19.146c1.373,3.661 2.818,7.326 4.617,10.787c3.166,6.093 6.184,12.337 10.069,17.962c6.168,8.932 12.472,17.877 19.679,25.96c9.649,10.822 20.479,20.534 32.969,28.13c6.805,4.137 13.553,8.466 20.723,11.876c8.257,3.928 16.93,6.994 25.469,10.312c3.008,1.169 4.518,3.74 3.552,6.771c-0.827,2.587 -3.448,3.559 -6.638,2.423c-5.693,-2.028 -11.516,-3.764 -17.04,-6.182c-12.306,-5.385 -24.196,-11.635 -35.061,-19.582c-6.64,-4.857 -13.264,-9.853 -19.213,-15.504c-6.87,-6.526 -13.174,-13.683 -19.391,-20.855c-7.775,-8.968 -14.402,-18.789 -19.534,-29.517c-4.119,-8.612 -8.27,-17.24 -11.725,-26.126c-2.663,-6.848 -4.581,-14.035 -6.254,-21.205c-1.707,-7.315 -3.308,-14.746 -3.881,-22.209c-0.842,-10.972 -1.3,-22.04 -0.85,-33.023c0.377,-9.18 1.914,-18.369 3.639,-27.421c1.498,-7.861 3.523,-15.694 6.149,-23.249c2.799,-8.056 6.163,-15.983 10.038,-23.581c4.07,-7.98 8.779,-15.67 13.673,-23.185c6.62,-10.164 14.561,-19.348 23.245,-27.782c8.207,-7.97 16.886,-15.496 26.661,-21.536c7.502,-4.636 15.226,-8.92 22.931,-13.218c9.583,-5.346 19.906,-8.805 30.346,-12.104c9.096,-2.875 18.385,-4.416 27.716,-6.107c13.805,-2.502 27.671,-2.3 41.515,-1.521c7.949,0.446 15.838,2.19 23.72,3.546c4.898,0.843 9.835,1.722 14.574,3.176c6.827,2.096 13.611,4.442 20.192,7.209c7.164,3.012 14.308,6.219 21.032,10.087c7.636,4.393 15.161,9.15 22.07,14.592c8.256,6.502 16.107,13.595 23.59,20.983c9.262,9.145 16.981,19.617 23.717,30.768c2.583,4.276 4.993,8.663 7.327,13.081c1.418,2.684 0.484,5.338 -2.03,6.64c-2.372,1.228 -4.913,0.321 -6.314,-2.352c-5.391,-10.284 -11.408,-20.223 -18.806,-29.143c-6.247,-7.534 -13.009,-14.718 -20.149,-21.413c-6.376,-5.978 -13.205,-11.647 -20.514,-16.412c-8.616,-5.617 -17.735,-10.6 -27.059,-14.954c-8.494,-3.967 -17.435,-7.108 -26.404,-9.889c-6.685,-2.074 -13.676,-3.359 -20.624,-4.333c-8.74,-1.226 -17.58,-2.482 -26.37,-2.436c-10.4,0.054 -20.883,0.897 -31.163,2.485c-9.645,1.49 -19.207,3.949 -28.558,6.795c-11.607,3.533 -22.654,8.585 -33.168,14.716c-8.87,5.172 -17.499,10.69 -25.229,17.503l-1.015,0.894c-0.627,0.485 -1.254,0.971 -1.881,1.457c-0.584,0.497 -1.169,0.994 -1.754,1.491l-0.116,0.093c-0.472,0.439 -0.943,0.878 -1.415,1.317" style="fill:#d5235a;fill-rule:nonzero;"/><path d="M234.647,72.998c9.514,0.976 19.171,1.247 28.503,3.125c9.67,1.949 19.141,5.132 28.481,8.396c6.341,2.219 12.44,5.257 18.398,8.401c4.782,2.522 9.225,5.7 13.742,8.703c1.939,1.29 1.714,3.153 0.481,4.807c-1.443,1.94 -3.189,1.11 -4.805,0.171c-6.638,-3.859 -13.098,-8.07 -19.94,-11.522c-5.947,-3.002 -12.203,-5.519 -18.538,-7.589c-6.048,-1.976 -12.324,-3.37 -18.592,-4.524c-6.613,-1.216 -13.32,-2.418 -20.013,-2.591c-9.143,-0.235 -18.345,0.134 -27.457,0.961c-6.508,0.592 -13.086,1.794 -19.313,3.746c-9.354,2.933 -18.567,6.437 -27.572,10.32c-5.878,2.536 -11.479,5.872 -16.853,9.387c-9.068,5.932 -17.46,12.742 -24.977,20.625c-9.986,10.475 -18.523,21.915 -25.258,34.776c-4.473,8.541 -7.987,17.368 -10.999,26.515c-5.071,15.396 -6.804,31.207 -6.521,47.234c0.191,10.901 1.318,21.81 4.302,32.382c1.96,6.944 3.787,13.981 6.478,20.651c4.538,11.251 10.364,21.892 17.526,31.73c6.879,9.449 14.746,18.044 23.61,25.643c8.685,7.447 18.066,13.96 28.249,19.252c10.148,5.274 20.575,9.878 31.806,12.287c7.256,1.558 14.548,3.308 21.91,3.914c9.839,0.813 19.765,0.827 29.648,0.727c4.733,-0.048 9.451,-1.177 14.183,-1.762c2.08,-0.258 3.921,0.06 4.096,2.704c0.156,2.377 -1.035,3.361 -3.404,3.543c-10.541,0.813 -21.084,2.531 -31.607,2.402c-9.782,-0.12 -19.642,-1.642 -29.276,-3.522c-8.082,-1.578 -16.037,-4.163 -23.788,-7.01c-14.027,-5.15 -26.8,-12.692 -38.721,-21.709c-12.26,-9.274 -22.89,-20.189 -31.904,-32.56c-7.037,-9.659 -13.158,-19.962 -17.285,-31.277c-2.711,-7.43 -5.509,-14.853 -7.704,-22.441c-1.56,-5.397 -2.712,-11.027 -3.106,-16.619c-0.751,-10.662 -1.558,-21.41 -0.976,-32.048c0.535,-9.789 2.498,-19.555 4.529,-29.185c1.385,-6.573 3.335,-13.189 6.163,-19.259c4.398,-9.44 9.36,-18.676 14.799,-27.559c8.495,-13.872 19.511,-25.701 32.241,-35.777c6.256,-4.953 13.125,-9.153 19.84,-13.501c8.098,-5.242 16.851,-9.192 26.057,-12.02c7.269,-2.233 14.655,-4.083 21.987,-6.109c10.325,-2.853 20.92,-3.038 31.58,-3.819" style="fill:#f79928;fill-rule:nonzero;"/><path d="M328.928,217.75c0.896,0 1.216,0.051 1.514,-0.008c6.677,-1.308 13.365,-2.57 20.023,-3.97c4.223,-0.888 8.512,-1.665 12.567,-3.077c4.569,-1.59 7.931,-4.847 8.158,-9.967c0.137,-3.134 -0.526,-6.352 -1.176,-9.459c-0.84,-4.014 -3.755,-6.194 -7.446,-7.592c-5.417,-2.052 -10.759,-0.324 -16.051,0.386c-6.417,0.862 -12.734,2.452 -19.125,3.545c-3.69,0.631 -3.961,0.852 -2.842,4.459c0.141,0.455 0.263,0.921 0.341,1.391c1.344,8.051 2.678,16.104 4.037,24.292m35.332,5.015c-3.883,0.586 -9.473,1.354 -15.034,2.294c-5.143,0.869 -10.229,2.12 -15.392,2.807c-2.394,0.318 -2.951,1.105 -2.546,3.318c1.67,9.107 3.215,18.239 4.925,27.338c0.142,0.752 1.253,1.963 1.786,1.899c3.932,-0.475 7.841,-1.166 11.739,-1.89c6.366,-1.181 12.695,-2.575 19.08,-3.636c12.944,-2.154 17.211,-14.594 11.608,-24.989c-3.058,-5.673 -8.425,-7.154 -16.166,-7.141m-54.095,-37.587c-0.08,-0.945 -0.16,-1.89 -0.239,-2.829c0.07,-0.745 0.142,-1.496 0.183,-1.936c1.317,-0.494 2.355,-0.882 3.393,-1.27c0.949,-0.088 1.9,-0.175 2.842,-0.263c0.861,-0.278 1.728,-0.558 2.595,-0.837c6.487,-1.094 12.975,-2.177 19.461,-3.285c4.85,-0.829 9.817,-1.267 14.518,-2.622c10.038,-2.892 22.484,1.407 27.545,10.396c5.438,9.657 4.681,19.394 -2.353,27.559c-1.046,1.215 -2.492,2.086 -4.208,3.489c2.603,0.808 4.932,1.509 7.249,2.253c6.686,2.146 10.439,7.098 12.804,13.39c1.874,4.983 2.108,10.212 0.966,15.228c-1.662,7.305 -5.877,13.065 -12.422,17.052c-5.907,3.599 -12.573,4.202 -19.135,5.34c-6.391,1.107 -12.751,2.386 -19.138,3.513c-4.852,0.857 -9.724,1.59 -14.587,2.383c-1.082,0.177 -2.162,0.372 -3.616,0.623c-0.622,-3.093 -1.294,-6.166 -1.851,-9.258c-1.628,-9.042 -3.242,-18.088 -4.797,-27.144c-0.807,-4.703 -1.383,-9.448 -2.233,-14.144c-1.2,-6.624 -2.645,-13.204 -3.822,-19.832c-0.888,-5 -1.523,-10.044 -2.27,-15.062c-0.295,-0.91 -0.59,-1.827 -0.885,-2.744" style="fill:#292526;fill-rule:nonzero;"/><path d="M272.996,279.242c2.492,-0.421 4.988,-0.823 7.476,-1.266c9.651,-1.715 16.362,-10.317 17.536,-19.523c0.94,-7.367 0.425,-14.645 -1.95,-21.706c-2.368,-7.044 -6.206,-13.131 -12.812,-16.891c-5.035,-2.865 -10.422,-3.163 -16.261,-2.256c-10.792,1.676 -18.26,11.082 -18.939,21.155c-0.55,8.157 0.168,16.132 3.145,23.822c3.729,9.632 10.828,16.954 21.805,16.665m-20.281,-3.249c0.515,3.565 0.943,7.147 1.564,10.694c1.259,7.192 2.584,14.372 3.967,21.541c0.382,1.977 0.097,3.052 -2.24,2.877c-0.811,-0.06 -1.661,0.395 -2.849,0.708c-0.682,-3.608 -1.354,-7.09 -1.995,-10.576c-1.247,-6.788 -2.501,-13.575 -3.703,-20.372c-0.774,-4.383 -1.41,-8.79 -2.2,-13.17c-0.939,-5.212 -2.013,-10.398 -2.958,-15.609c-0.779,-4.295 -1.423,-8.614 -2.181,-12.912c-0.877,-4.979 -1.851,-9.941 -2.705,-14.924c-0.29,-1.692 -0.342,-3.425 -0.512,-5.24c1.467,-0.13 2.645,-0.501 3.66,-0.24c0.841,0.216 1.967,1.069 2.14,1.827c0.616,2.708 0.841,5.501 1.307,8.247c0.089,0.523 0.597,0.974 0.912,1.459c0.407,-0.4 1.032,-0.729 1.188,-1.211c2.085,-6.395 6.376,-10.863 12.208,-13.919c8.264,-4.331 16.968,-4.861 25.453,-1.298c8.494,3.567 14.187,10.37 17.07,19.041c1.836,5.519 3.355,11.356 3.665,17.124c0.564,10.504 -1.728,20.476 -10.52,27.45c-6.827,5.415 -14.933,7.084 -23.584,6.585c-6.864,-0.396 -12.472,-3.168 -16.945,-8.415c-0.248,0.11 -0.495,0.222 -0.742,0.333" style="fill:#2f2c2d;fill-rule:nonzero;"/><path d="M210.939,200.211c-6.38,1.15 -12.755,2.326 -19.141,3.442c-4.381,0.766 -8.785,1.41 -13.167,2.179c-5.063,0.888 -10.109,1.874 -15.168,2.78c-3.835,0.686 -7.668,1.415 -11.531,1.871c-0.653,0.077 -1.457,-1.135 -2.191,-1.751c0.134,-0.326 0.267,-0.651 0.4,-0.976c21.508,-3.774 43.017,-7.546 64.363,-11.291c1.768,3.731 -0.419,6.124 -1.642,8.596c-5.084,10.275 -10.349,20.462 -15.515,30.697c-4.079,8.083 -8.1,16.196 -12.165,24.286c-4.006,7.972 -8,15.951 -12.068,23.891c-2.258,4.407 -4.673,8.732 -6.971,13.118c-0.23,0.439 -0.145,1.045 -0.219,1.674c2.477,-0.412 4.774,-0.787 7.067,-1.177c9.321,-1.587 18.644,-3.16 27.959,-4.776c9.704,-1.684 19.398,-3.429 29.108,-5.078c0.561,-0.094 1.228,0.442 1.846,0.684c-0.382,0.654 -0.645,1.742 -1.168,1.887c-2.136,0.59 -4.346,0.922 -6.539,1.295c-8.383,1.426 -16.779,2.778 -25.152,4.263c-6.555,1.163 -13.071,2.541 -19.625,3.712c-5.312,0.948 -10.653,1.729 -16.756,2.708c0.205,-2.123 -0.061,-4.001 0.604,-5.452c2.746,-5.991 5.72,-11.882 8.713,-17.758c4.802,-9.428 9.732,-18.791 14.518,-28.228c3.237,-6.385 6.287,-12.865 9.477,-19.274c4.007,-8.052 8.077,-16.074 12.108,-24.115c1.105,-2.203 2.169,-4.426 3.251,-6.639c0.129,-0.207 0.258,-0.413 0.386,-0.62c-0.261,0.017 -0.521,0.034 -0.782,0.052" style="fill:#3d3a3b;fill-rule:nonzero;"/><path d="M366.32,321.602c-0.082,-1.438 -0.087,-2.076 -0.16,-2.706c-0.353,-3.022 -2.354,-5.146 -5.009,-5.341c-3.161,-0.233 -4.431,0.695 -5.32,4.351c-0.278,1.142 -0.042,2.46 0.168,3.662c0.636,3.656 2.647,5.495 5.685,5.204c2.246,-0.214 4.925,-1.788 4.636,-5.171m-11.083,-10.267l0.908,-0.3l6.416,-0.068c0.273,0.067 0.545,0.135 0.818,0.202c0.571,0.166 1.142,0.329 1.713,0.495c-0.324,-0.858 -0.647,-1.716 -0.97,-2.575c-0.241,-1.242 -0.554,-2.475 -0.698,-3.727c-0.114,-0.977 -0.392,-2.54 0.068,-2.848c0.877,-0.586 2.33,-0.804 3.345,-0.503c0.593,0.177 0.981,1.616 1.157,2.546c1.285,6.832 2.529,13.673 3.686,20.528c0.161,0.958 0.082,2.626 -0.425,2.88c-0.884,0.44 -2.189,0.006 -3.318,-0.011c-0.483,-0.008 -1.13,-0.07 -1.429,0.199c-3.025,2.715 -6.533,3.408 -10.029,1.551c-3.274,-1.741 -4.958,-4.983 -5.423,-8.645c-0.442,-3.492 -0.1,-6.84 3.25,-9.033c0.311,-0.231 0.62,-0.46 0.931,-0.691" style="fill:#2f2c2d;fill-rule:nonzero;"/><path d="M455.234,379.818c0.393,2.584 0.733,4.925 1.108,7.261c0.256,1.593 1.23,2.054 2.737,1.683c2.515,-0.619 5.054,-1.149 7.555,-1.822c2.977,-0.802 4.019,-2.586 3.354,-5.741c-0.557,-2.644 -2.719,-3.266 -4.891,-3.055c-3.29,0.32 -6.538,1.087 -9.863,1.674m3.845,21.918c3.634,-0.728 7.15,-1.222 10.538,-2.172c3.202,-0.898 4.347,-3.03 3.636,-6.365c-0.595,-2.783 -2.79,-3.615 -5.358,-3.391c-3.083,0.269 -6.162,0.65 -9.209,1.178c-0.543,0.094 -1.376,1.207 -1.3,1.738c0.423,2.973 1.083,5.91 1.693,9.012m-6.868,-23.946c4.583,-0.701 9.116,-1.409 13.654,-2.081c3.424,-0.508 5.584,1.466 6.946,4.147c1.244,2.447 0.202,4.742 -1.642,6.647c-0.21,0.216 -0.351,0.501 -0.535,0.77c7.228,2.603 6.833,10.412 2.859,13.028c-1.656,1.091 -3.651,1.842 -5.597,2.279c-3.246,0.728 -6.568,1.154 -9.88,1.516c-0.547,0.06 -1.636,-0.774 -1.74,-1.333c-1.457,-7.78 -2.792,-15.584 -4.135,-23.385c-0.077,-0.452 0.036,-0.936 0.07,-1.588" style="fill:#3d3a3b;fill-rule:nonzero;"/><path d="M281.383,316.692c6.112,-1.061 12.158,-2.11 18.496,-3.211c0.117,1.662 0.199,2.823 0.296,4.214c-4.338,0.772 -8.599,1.53 -13.269,2.361c0.373,2.16 0.743,4.305 1.145,6.627c4.069,-0.661 7.93,-1.288 11.891,-1.931c0.162,1.493 0.287,2.656 0.424,3.92c-3.884,0.721 -7.605,1.412 -11.556,2.145c0.469,3.368 0.984,6.489 1.282,9.632c0.071,0.729 -0.507,2.128 -0.929,2.185c-1.362,0.189 -3.308,1.248 -3.775,-1.315c-0.384,-2.109 -0.763,-4.221 -1.104,-6.339c-0.943,-5.875 -1.866,-11.754 -2.901,-18.288" style="fill:#2f2c2d;fill-rule:nonzero;"/><path d="M387.654,315.904c-1.812,0.681 -3.584,1.104 -5.075,1.992c-0.99,0.591 -2.152,1.815 -2.214,2.818c-0.087,1.419 1.08,2.3 2.824,2.287c4.29,-0.035 5.699,-2.174 4.465,-7.097m-12.296,-1.41c-1.101,-5.376 3.36,-7.9 7,-8.612c1.005,-0.197 2.069,-0.132 3.106,-0.12c4.093,0.047 5.927,1.639 6.519,5.635c0.383,2.589 0.683,5.193 1.174,7.76c0.114,0.598 0.874,1.06 1.302,1.613c0.545,0.704 1.541,1.504 1.452,2.137c-0.102,0.717 -1.121,1.399 -1.875,1.892c-0.403,0.263 -1.227,0.327 -1.622,0.086c-3.013,-1.825 -5.241,0.514 -7.637,1.472c-3.72,1.486 -9.935,-0.743 -8.892,-6.468c0.547,-3.001 3.116,-4.057 5.606,-5.001c1.248,-0.472 2.719,-0.503 3.816,-1.176c0.82,-0.504 1.599,-1.705 1.632,-2.623c0.021,-0.564 -1.374,-1.636 -2.178,-1.682c-2.028,-0.116 -3.864,0.155 -4.996,2.575c-0.543,1.162 -2.673,1.582 -4.407,2.512" style="fill:#3d3a3b;fill-rule:nonzero;"/><path d="M443.614,296.056c0.886,-0.348 1.747,-0.892 2.646,-0.96c0.513,-0.039 1.458,0.608 1.573,1.096c0.852,3.623 1.312,7.354 2.401,10.897c0.446,1.451 1.943,3.178 3.321,3.599c1.884,0.575 4.545,-2.03 4.365,-4.007c-0.309,-3.389 -0.956,-6.749 -1.521,-10.111c-0.253,-1.508 -0.883,-3.023 1.43,-3.531c2.261,-0.495 3.001,0.628 3.294,2.608c0.776,5.261 1.629,10.511 2.546,16.375c-1.693,0.152 -3.349,0.301 -5.703,0.512c-1.696,0.455 -4.202,1.739 -6.658,1.648c-3.963,-0.146 -5.466,-2.527 -6.198,-7.9c-0.459,-3.37 -0.982,-6.729 -1.496,-10.226" style="fill:#2f2c2d;fill-rule:nonzero;"/><path d="M469.322,310.811c-1.157,-6.377 -2.286,-12.594 -3.452,-19.02c1.672,0.059 3.231,-2.106 4.664,0.335c0.021,0.036 0.892,-0.419 1.359,-0.657c1.235,-0.628 2.406,-1.454 3.709,-1.859c3.873,-1.202 6.802,0.045 7.906,3.865c1.204,4.168 1.953,8.49 2.587,12.791c0.438,2.967 -2.284,1.803 -4.165,2.707c-0.657,-3.736 -1.211,-7.212 -1.903,-10.659c-0.29,-1.444 -0.498,-3.224 -1.439,-4.119c-0.787,-0.75 -2.804,-0.929 -3.883,-0.458c-1.201,0.524 -2.783,2.089 -2.757,3.165c0.085,3.45 0.872,6.879 1.32,10.325c0.463,3.556 0.102,3.868 -3.946,3.584" style="fill:#3d3a3b;fill-rule:nonzero;"/><path d="M314.8,321.537c-2.439,-0.488 -5.229,2.646 -5.111,5.947c0.142,4.008 2.722,7.505 5.759,7.494c2.987,-0.011 5.417,-2.811 5.178,-6.272c-0.274,-3.957 -2.268,-7.59 -5.826,-7.169m10.248,7.062c0.236,6.751 -4.575,9.734 -10.225,9.977c-5.382,0.232 -9.511,-4.583 -9.517,-10.734c-0.007,-6.182 3.686,-9.763 9.951,-9.945c5.811,-0.169 9.737,4.236 9.791,10.702" style="fill:#2f2c2d;fill-rule:nonzero;"/><path d="M436.412,308.347c-0.689,-1.791 -1.072,-3.799 -2.148,-5.315c-1.201,-1.692 -3.102,-2.599 -5.375,-1.615c-2.739,1.187 -3.896,3.277 -3.592,6.657c0.325,3.616 3.146,6.796 5.857,6.605c2.965,-0.209 4.815,-2.576 5.258,-6.332m-15.459,-1.104c-0.853,-5.237 4.696,-9.903 10.071,-9.73c6.043,0.195 9.452,4.73 9.647,10.882c0.178,5.681 -4.089,9.651 -10.098,9.774c-5.553,0.115 -10.047,-4.602 -9.62,-10.926" style="fill:#2f2c2d;fill-rule:nonzero;"/><path d="M331.536,335.712c-1.34,-7.187 -2.499,-13.405 -3.707,-19.884c1.705,0.483 3.687,-1.728 4.427,0.553c2.359,-0.884 4.633,-2.231 7.034,-2.522c3.832,-0.462 5.581,0.896 6.494,4.611c0.945,3.848 1.532,7.787 2.213,11.697c0.208,1.197 0.346,2.376 -1.557,2.5c-1.602,0.106 -2.779,0.098 -3.093,-1.882c-0.584,-3.677 -1.07,-7.4 -2.104,-10.958c-0.29,-0.998 -2.436,-2.17 -3.572,-2.023c-1.332,0.172 -3.331,1.536 -3.544,2.666c-0.425,2.247 0.091,4.697 0.377,7.045c0.247,2.035 1.127,4.094 0.887,6.041c-0.1,0.817 -2.361,1.37 -3.855,2.156" style="fill:#2f2c2d;fill-rule:nonzero;"/><path d="M303.304,360.99c-5.087,0.865 -9.908,1.686 -15.004,2.552c-0.114,-0.776 -0.232,-1.574 -0.362,-2.453c4.791,-0.757 9.345,-1.463 13.894,-2.212c0.609,-0.1 1.166,-0.527 1.774,-0.61c1.052,-0.143 2.126,-0.136 3.19,-0.192c-0.056,1.128 0.247,2.445 -0.228,3.354c-3.552,6.788 -7.263,13.491 -10.908,20.229c-0.476,0.88 -0.856,1.811 -1.529,3.253c3.108,-0.487 5.929,-0.859 8.72,-1.39c2.4,-0.456 4.753,-1.179 7.16,-1.58c0.51,-0.086 1.168,0.712 1.758,1.103c-0.386,0.579 -0.691,1.579 -1.17,1.672c-4.049,0.781 -8.13,1.398 -12.201,2.061c-2.343,0.382 -4.686,0.757 -7.081,1.144c-1.223,-2.58 0.36,-4.289 1.368,-6.176c3.466,-6.485 6.883,-12.998 10.306,-19.508c0.14,-0.267 0.155,-0.6 0.313,-1.247" style="fill:#454243;fill-rule:nonzero;"/><path d="M495.713,385.518c-0.246,0.126 -0.491,0.251 -0.737,0.376c1.14,2.3 1.97,4.84 3.515,6.825c1.338,1.72 3.266,3.18 5.923,1.481c3.977,-2.544 4.665,-4.104 3.571,-9.65c-0.881,-4.475 -3.086,-6.238 -7.31,-5.842c-3.17,0.298 -4.946,2.735 -4.962,6.81m11.06,-7.578c0.676,-3.414 -2.615,-6.923 -0.008,-10.022c0.383,-0.02 0.764,-0.041 1.146,-0.062c0.723,3.373 1.553,6.726 2.143,10.122c0.816,4.697 1.499,9.419 2.127,14.145c0.119,0.904 -0.283,1.877 -0.445,2.818c-0.758,-0.624 -1.517,-1.248 -2.313,-1.903c-4.518,4.584 -8.713,5.284 -12.937,1.89c-3.431,-2.756 -4.667,-11.131 -2.204,-14.939c2.402,-3.715 7.469,-4.621 12.491,-2.049" style="fill:#454243;fill-rule:nonzero;"/><path d="M303.71,429.423c-0.051,-0.093 -0.103,-0.189 -0.155,-0.285c-0.047,0.05 -0.14,0.11 -0.131,0.148c0.022,0.104 0.088,0.199 0.137,0.297c0.046,-0.051 0.093,-0.1 0.149,-0.16m-1.98,-9.436c0.058,0.567 0.116,1.687 0.298,2.788c0.526,3.177 3.119,5.657 5.914,5.906c2.714,0.242 6.069,-1.241 6.251,-4.953c0.083,-1.679 0.058,-3.392 -0.179,-5.053c-0.604,-4.235 -3.043,-6.178 -7.07,-5.82c-3.534,0.313 -5.228,2.451 -5.214,7.132m-2.178,-7.712c0.326,0.591 0.652,1.182 0.986,1.79c5.806,-4.42 9.106,-5.004 12.537,-2.283c3.187,2.529 5.725,10.078 3.871,13.345c-1.264,2.23 -3.382,4.586 -5.662,5.453c-2.178,0.827 -5.06,-0.198 -7.903,-0.431c0.237,1.779 0.192,4.054 0.899,6.065c0.837,2.379 -0.051,2.659 -2.232,2.489c-0.989,-5.849 -1.969,-11.694 -2.969,-17.536c-0.372,-2.174 -0.89,-4.329 -1.139,-6.515c-0.093,-0.826 0.383,-1.715 0.599,-2.576c0.338,0.067 0.676,0.132 1.013,0.199" style="fill:#454243;fill-rule:nonzero;"/><path d="M568.808,380.795c0.195,-0.369 0.39,-0.739 0.584,-1.109c0.251,-0.414 0.502,-0.829 0.752,-1.244c-0.444,-2.531 -0.889,-5.061 -1.333,-7.591l-0.7,-0.785c-2.638,-3.926 -8.123,-2.584 -9.566,0.179c-3.273,6.271 0.584,12.821 7.583,12.712l1.248,-1.128c0.167,-0.072 0.334,-0.144 0.502,-0.216c0.31,-0.272 0.62,-0.546 0.93,-0.818m4.25,-1.803c0,3.271 -0.001,6.541 -0.001,9.812c-1.341,1.178 -2.504,2.955 -4.057,3.415c-3.953,1.173 -8.308,1.173 -10.227,-2.008c-0.336,-0.558 -0.162,-1.423 -0.225,-2.145c0.701,0.138 1.645,0.036 2.066,0.456c2.907,2.904 6.312,3.067 9.81,0.326c0.242,-0.378 0.484,-0.756 0.726,-1.134c0.042,-0.283 0.085,-0.566 0.127,-0.85c1.367,-1.503 1.191,-4.965 -0.338,-5.921c-0.094,-0.058 -0.481,0.355 -0.731,0.548c-0.059,0.193 -0.118,0.386 -0.177,0.578c-0.255,0.311 -0.509,0.622 -0.764,0.933c-0.486,0.329 -0.972,0.658 -1.458,0.986c-0.314,0.242 -0.628,0.482 -0.941,0.722c-0.328,0.048 -0.656,0.096 -0.984,0.144c-1.234,0.023 -2.468,0.047 -3.702,0.071c-0.511,-0.058 -1.02,-0.114 -1.531,-0.172c-0.436,-0.269 -0.871,-0.538 -1.307,-0.807l-0.103,-0.055c-0.329,-0.286 -0.659,-0.572 -0.987,-0.858l-0.007,-0.007c-0.326,-0.473 -0.653,-0.946 -0.98,-1.419l0.005,0.008c-0.41,-0.488 -0.819,-0.977 -1.23,-1.466c-0.292,-2.943 -1.406,-6.101 -0.704,-8.785c1.423,-5.44 7.162,-7.314 11.846,-4.843c1.092,-0.638 1.964,-1.148 2.835,-1.658c0.393,0.807 0.988,1.578 1.141,2.427c0.701,3.889 1.277,7.8 1.898,11.702" style="fill:#3d3a3b;fill-rule:nonzero;"/><path d="M380.837,406.528c-1.389,-1.816 -2.257,-3.551 -3.639,-4.625c-2.319,-1.802 -4.937,-1.228 -6.944,0.622c-1.687,1.556 -2.576,3.681 -1.815,6.084c3.934,-0.66 7.68,-1.289 12.398,-2.081m0.424,4.271c0.837,0.068 1.589,0.128 2.329,0.188c-0.184,5.786 -4.828,8.501 -9.319,8.397c-4.271,-0.097 -7.66,-3.815 -8.159,-8.619c-0.324,-3.116 -0.544,-6.221 1.467,-8.916c3.287,-4.406 11.222,-4.875 14.386,1.931c0.294,0.633 0.723,1.22 0.917,1.878c0.485,1.641 0.459,2.897 -1.82,3.179c-4.003,0.494 -7.976,1.241 -11.909,1.874c-0.137,3.21 1.981,5.753 4.817,6.048c4.202,0.44 6.309,-1.202 7.291,-5.96" style="fill:#3d3a3b;fill-rule:nonzero;"/><path d="M314.271,372.435c3.509,-0.524 6.882,-0.96 10.215,-1.605c0.464,-0.089 1.178,-1.372 1.013,-1.824c-1.103,-3.026 -4.512,-4.82 -7.175,-3.969c-3.161,1.008 -4.672,3.651 -4.053,7.398m13.013,0.062c-4.209,0.755 -8.418,1.511 -12.606,2.262c0.303,3.39 2.262,5.692 4.904,5.978c3.803,0.413 5.363,-0.652 6.793,-4.214c0.346,-0.859 1.43,-1.42 2.62,-2.533c0.546,6.618 -4.858,10.199 -11.7,8.798c-0.509,-0.386 -1.018,-0.773 -1.526,-1.159c-4.863,-2.71 -6.577,-13.526 -0.635,-17.785c3.929,-2.816 9.904,-1.083 11.962,3.373c0,-0.004 -0.021,0.174 -0.021,0.174l0.124,0.088c0.358,0.841 0.719,1.682 1.075,2.517c-0.332,0.831 -0.661,1.666 -0.99,2.501" style="fill:#3d3a3b;fill-rule:nonzero;"/><path d="M405.807,305.679c-3.048,0.494 -3.289,0.972 -2.556,5.105c0.304,1.717 0.602,3.435 0.927,5.149c0.334,1.754 0.831,3.134 3.22,2.766c0.582,-0.09 1.403,1.369 2.115,2.115c-0.21,0.348 -0.419,0.696 -0.628,1.044c-2.063,0 -4.339,0.532 -6.119,-0.178c-1.292,-0.516 -2.354,-2.561 -2.771,-4.124c-0.889,-3.337 -1.294,-6.803 -1.909,-10.281c-1.074,0.131 -1.771,0.215 -2.448,0.297c-1.581,-2.977 -1.533,-3.105 1.571,-4.144c-0.095,-1.781 -0.192,-3.59 -0.301,-5.612c1.439,-0.151 2.731,-0.285 3.997,-0.418c0.48,1.894 0.906,3.575 1.356,5.35c1.833,0.106 4.761,-1.142 3.546,2.931" style="fill:#2f2c2d;fill-rule:nonzero;"/><path d="M399.06,401.227c-0.729,-0.563 -1.389,-1.275 -2.202,-1.656c-1.477,-0.692 -3.072,-1.698 -4.569,-1.618c-1.447,0.077 -3.185,1.051 -4.151,2.182c-1.158,1.358 0.545,3.342 2.898,3.614c2.517,0.292 5.053,0.479 7.543,0.928c2.032,0.367 3.211,1.886 3.544,3.843c0.346,2.03 -0.067,3.877 -1.965,5.189c-3.554,2.456 -7.294,3.111 -11.147,0.99c-1.019,-0.561 -1.676,-1.908 -2.289,-3.01c-0.213,-0.383 0.208,-1.118 0.34,-1.692c0.693,0.192 1.69,0.156 2.033,0.611c2.694,3.584 4.444,4.264 7.999,2.169c1.043,-0.615 1.801,-2.431 1.846,-3.725c0.022,-0.664 -1.726,-1.728 -2.83,-2.021c-2.192,-0.581 -4.487,-0.792 -6.748,-1.085c-2.74,-0.356 -4.042,-2.161 -4.132,-4.628c-0.095,-2.565 1.667,-4.048 3.917,-5.051c5.031,-2.243 9.661,-0.45 10.492,4.13c-0.193,0.276 -0.386,0.553 -0.579,0.829" style="fill:#454243;fill-rule:nonzero;"/><path d="M391.346,371.185c-0.728,-1.231 -1.113,-1.884 -1.308,-2.214c-2.017,1.047 -3.939,2.453 -6.088,3.071c-3.799,1.092 -7.021,-0.852 -7.917,-4.694c-0.882,-3.78 -1.445,-7.642 -1.959,-11.493c-0.105,-0.785 0.626,-1.683 0.972,-2.527c0.673,0.755 1.753,1.422 1.944,2.285c0.595,2.704 0.795,5.493 1.271,8.228c0.243,1.393 0.36,3.125 1.236,4.008c1.011,1.02 2.857,1.846 4.227,1.699c1.453,-0.155 3.166,-1.262 4.061,-2.474c1.383,-1.873 1.498,-4.055 0.57,-6.513c-0.934,-2.471 -1.042,-5.272 -1.337,-7.948c-0.06,-0.537 0.666,-1.161 1.029,-1.745c0.646,0.434 1.763,0.778 1.866,1.316c1.055,5.522 1.986,11.068 2.819,16.629c0.084,0.558 -0.7,1.245 -1.386,2.372" style="fill:#454243;fill-rule:nonzero;"/><path d="M529.286,390.101c-3.379,3.809 -9.601,4.411 -11.846,0.591c-1.07,-1.822 -1.3,-4.163 -1.784,-6.298c-0.612,-2.693 -1.197,-5.402 -1.558,-8.136c-0.086,-0.645 0.77,-1.415 1.192,-2.128c0.557,0.633 1.461,1.194 1.61,1.911c0.779,3.734 1.138,7.568 2.135,11.233c0.369,1.357 1.885,2.934 3.221,3.376c2.165,0.717 4.854,0.129 5.629,-2.213c0.774,-2.339 0.672,-5.055 0.535,-7.583c-0.132,-2.438 -0.878,-4.838 -1.164,-7.276c-0.057,-0.487 0.751,-1.074 1.159,-1.614c0.513,0.445 1.374,0.816 1.483,1.343c1.099,5.28 2.107,10.581 3.034,15.895c0.098,0.561 -0.534,1.791 -0.741,1.771c-0.926,-0.084 -1.819,-0.51 -2.905,-0.872" style="fill:#454243;fill-rule:nonzero;"/><path d="M329.387,424.985c3.445,0.596 6.748,-4.072 6.558,-7.422c-0.232,-4.088 -3.404,-8.762 -7.277,-8.716c-3.662,0.043 -6.507,3.827 -6.503,7.554c0.004,3.527 3.129,9.289 7.222,8.584m8.736,-7.325c0.293,6.638 -3.893,9.484 -9.102,9.646c-5.331,0.166 -9.268,-4.666 -9.242,-11.038c0.024,-5.913 3.4,-9.361 9.17,-9.366c5.749,-0.006 9.155,3.987 9.174,10.758" style="fill:#3d3a3b;fill-rule:nonzero;"/><path d="M412.201,391.621c3.612,0.349 6.038,1.276 7.223,4.104c0.235,0.563 0.018,1.316 0.009,1.981c-0.768,-0.205 -1.829,-0.158 -2.257,-0.656c-2.458,-2.851 -5.066,-3.624 -7.846,-1.874c-2.165,1.362 -4.122,5.996 -2.751,8.743c1.134,2.273 1.714,4.848 4.328,5.855c3.624,1.397 6.204,-0.176 7.982,-4.463c0.278,-0.669 1.132,-1.1 1.719,-1.642c0.182,0.674 0.574,1.369 0.511,2.018c-0.542,5.585 -5.939,8.411 -11.571,6.107c-4.327,-1.769 -5.679,-5.499 -5.913,-9.656c-0.203,-3.592 0.737,-6.977 4.245,-8.858c1.544,-0.828 3.293,-1.274 4.321,-1.659" style="fill:#454243;fill-rule:nonzero;"/><path d="M398.894,349.669c0.428,-0.254 0.856,-0.509 1.285,-0.763l3.012,-0.864c0.327,-0.004 0.653,-0.008 0.979,-0.012c0.958,0.309 1.917,0.618 2.875,0.927l-0.003,-0.001c0.344,0.305 0.688,0.609 1.031,0.915l-0.026,-0.023c0.176,0.265 0.353,0.531 0.53,0.797c0.125,-0.247 0.25,-0.494 0.375,-0.741l-0.007,0.01c0.479,-0.647 0.959,-1.295 1.439,-1.942l-0.019,0.006c0.333,-0.29 0.666,-0.58 0.999,-0.869c0.117,-0.121 0.254,-0.152 0.412,-0.095c0.825,-0.402 1.651,-0.803 2.477,-1.204c0.952,0.005 1.902,0.01 2.853,0.015c0.651,0.402 1.303,0.802 1.954,1.203l-0.01,-0.005c0.326,0.321 0.652,0.641 0.978,0.961l-0.009,-0.013c0.267,0.332 0.533,0.664 0.801,0.997c0.058,0.287 0.118,0.573 0.178,0.86c0.305,1.311 0.611,2.62 0.917,3.931c0.023,0.402 0.046,0.805 0.07,1.207c0.285,1.356 0.57,2.711 0.855,4.065c0.036,0.576 0.073,1.154 0.109,1.731c-0.024,1.33 -0.048,2.659 -0.072,3.989c-0.317,-0.002 -0.635,-0.005 -0.953,-0.007c-0.258,-0.465 -0.515,-0.929 -0.772,-1.393c-0.034,-0.488 -0.068,-0.975 -0.101,-1.463c-0.29,-1.432 -0.58,-2.865 -0.87,-4.297c-0.044,-0.643 -0.088,-1.286 -0.131,-1.93c-0.281,-1.276 -0.562,-2.553 -0.843,-3.829c-0.035,-0.325 -0.069,-0.65 -0.103,-0.975c-0.333,-0.473 -0.665,-0.946 -0.998,-1.418c-0.322,-0.271 -0.645,-0.542 -0.967,-0.813c-1.868,-1.915 -3.627,-1.416 -5.335,0.239l-0.1,0.043c-0.289,0.3 -0.578,0.601 -0.867,0.901l-0.056,0.072c-0.268,0.382 -0.534,0.764 -0.802,1.144c-0.025,0.274 -0.05,0.546 -0.075,0.819c-1.857,1.281 -0.874,2.557 0.008,3.833c0.024,0.411 0.048,0.821 0.073,1.233c0.28,1.347 0.561,2.693 0.842,4.038c0.04,0.583 0.079,1.165 0.118,1.748c-0.021,1.338 -0.041,2.675 -0.062,4.012c-0.322,-0.002 -0.644,-0.005 -0.967,-0.007c-0.251,-0.317 -0.501,-0.635 -0.751,-0.951c-0.041,-0.646 -0.081,-1.293 -0.12,-1.939l-0.849,-3.821c-0.038,-0.646 -0.076,-1.292 -0.115,-1.938c-0.285,-1.274 -0.57,-2.547 -0.854,-3.821c-0.698,-1.192 -1.396,-2.384 -2.096,-3.576c-1.287,-0.047 -2.574,-0.093 -3.861,-0.141c-0.408,0.098 -0.815,0.196 -1.224,0.295c-0.381,0.362 -0.761,0.725 -1.143,1.089c-0.082,0.296 -0.165,0.593 -0.247,0.89c-0.228,0.367 -0.456,0.735 -0.684,1.102c-0.044,0.605 -0.088,1.212 -0.131,1.817c0.004,0.305 0.009,0.608 0.014,0.913c0.037,0.767 0.074,1.533 0.112,2.3c0.282,1.313 0.565,2.627 0.848,3.94c0.038,0.604 0.077,1.206 0.116,1.81c0.142,1.3 0.283,2.599 0.425,3.898l-0.209,0.109l-0.233,-0.024c-0.572,-0.169 -1.143,-0.337 -1.714,-0.505c-0.701,-4.537 -1.401,-9.072 -2.102,-13.608c-0.021,-1.526 -0.044,-3.053 -0.066,-4.579l0.964,0.041c0.13,0.805 0.262,1.61 0.484,2.962c0.71,-0.971 1.09,-1.492 1.471,-2.013l0.03,-0.053c0.305,-0.41 0.608,-0.819 0.913,-1.229" style="fill:#3d3a3b;fill-rule:nonzero;"/><path d="M435.844,341.895c0,-0.261 0.02,-1.053 -0.004,-1.844c-0.101,-3.491 1.02,-5.074 4.358,-5.816c0.484,-0.108 1.442,0.378 1.604,0.806c0.159,0.422 -0.368,1.596 -0.674,1.626c-3.861,0.38 -2.497,2.793 -2.014,5.145c0.945,0 1.887,-0.096 2.793,0.045c0.403,0.06 0.731,0.599 1.093,0.921c-0.346,0.327 -0.681,0.918 -1.044,0.935c-2.289,0.106 -2.482,1.293 -2.095,3.234c0.805,4.05 1.483,8.13 2.01,12.223c0.105,0.813 -0.698,1.741 -1.083,2.616c-0.533,-0.748 -1.395,-1.436 -1.545,-2.255c-0.801,-4.378 -1.381,-8.796 -2.161,-13.179c-0.102,-0.572 -0.834,-1.173 -1.42,-1.483c-0.773,-0.411 -1.692,-0.55 -2.547,-0.803c0.755,-0.603 1.511,-1.203 2.729,-2.171" style="fill:#454243;fill-rule:nonzero;"/><path d="M354.311,355.977c1.749,0.686 3.02,1.185 4.289,1.683c-0.947,0.624 -1.893,1.247 -3.45,2.272c0.355,2.327 0.814,5.411 1.303,8.49c0.135,0.861 0.503,1.702 0.514,2.557c0.03,2.058 0.752,3.154 3.028,2.894c0.501,-0.056 1.081,0.579 1.625,0.895c-0.427,0.353 -0.801,0.886 -1.29,1.029c-3.692,1.085 -5.246,0.048 -5.984,-4.09c-0.489,-2.738 -0.777,-5.51 -1.2,-8.26c-0.334,-2.167 -0.863,-4.187 -4.606,-3.205c0.569,-1.213 0.849,-2.453 1.21,-2.476c2.173,-0.144 1.935,-1.273 1.529,-2.793c-0.257,-0.96 -0.236,-2.032 -0.114,-3.027c0.028,-0.235 1.081,-0.636 1.443,-0.473c0.561,0.254 1.184,0.859 1.336,1.434c0.3,1.134 0.294,2.349 0.367,3.069" style="fill:#3d3a3b;fill-rule:nonzero;"/><path d="M413.608,300.792c0.388,0.505 1.236,1.121 1.377,1.871c0.99,5.279 1.903,10.576 2.622,15.898c0.075,0.558 -1.182,1.651 -1.985,1.862c-0.66,0.173 -2.16,-0.468 -2.272,-0.973c-1.175,-5.317 -2.147,-10.68 -3.17,-16.032c-0.466,-2.436 1.423,-2.162 3.428,-2.626" style="fill:#3d3a3b;fill-rule:nonzero;"/><path d="M356.106,404.66c-0.871,0.039 -1.742,0.077 -3.367,0.149c0.576,-0.947 0.873,-1.952 1.26,-1.987c2.153,-0.197 1.91,-1.451 1.518,-2.891c-0.145,-0.538 -0.371,-1.136 -0.259,-1.638c0.147,-0.654 0.594,-1.241 0.912,-1.858c0.585,0.48 1.362,0.855 1.699,1.47c0.314,0.573 -0.081,1.571 0.271,2.079c0.504,0.727 1.351,1.276 2.153,1.715c0.71,0.389 1.56,0.524 2.347,0.772c-0.728,0.434 -1.441,0.9 -2.194,1.288c-0.328,0.169 -0.737,0.179 -1.343,0.314c0.439,2.822 0.851,5.548 1.29,8.27c0.19,1.176 0.49,2.338 0.64,3.518c0.24,1.894 0.686,3.418 3.166,3.07c0.5,-0.07 1.098,0.568 1.652,0.879c-0.516,0.366 -0.993,0.966 -1.554,1.059c-3.77,0.624 -5.024,-0.151 -5.181,-3.038l-0.835,-2.121c-0.088,-0.914 -0.175,-1.828 -0.263,-2.743c-0.233,-0.996 -0.466,-1.993 -0.699,-2.99c-0.087,-0.921 -0.175,-1.843 -0.262,-2.766c-0.317,-0.851 -0.635,-1.7 -0.951,-2.551" style="fill:#3d3a3b;fill-rule:nonzero;"/><path d="M333.047,361.946c0.62,-0.112 1.391,-0.025 1.837,-0.365c6.334,-4.832 11.224,-3.178 12.919,4.588c0.81,3.714 1.179,7.526 1.774,11.47c-0.795,0.121 -1.473,0.225 -2.539,0.387c-0.697,-3.946 -1.167,-7.8 -2.132,-11.524c-0.444,-1.717 -1.504,-3.804 -2.92,-4.614c-2.052,-1.172 -4.45,-0.507 -6.129,1.531c-0.192,0.232 -0.498,0.371 -0.751,0.552c-0.289,-0.247 -0.595,-0.476 -0.863,-0.745c-0.412,-0.413 -0.799,-0.852 -1.196,-1.28" style="fill:#454243;fill-rule:nonzero;"/><path d="M361.605,355.911c0.786,-0.185 1.369,-0.322 2.063,-0.485c0.222,0.883 0.407,1.621 0.615,2.451c1.767,-1.337 3.353,-2.651 5.077,-3.75c0.363,-0.232 1.226,0.322 1.858,0.513c-0.272,0.668 -0.375,1.739 -0.846,1.939c-3.452,1.461 -4.773,3.35 -4.411,7.153c0.286,3.001 0.869,5.973 1.163,8.973c0.065,0.662 -0.527,1.39 -0.817,2.087c-0.606,-0.499 -1.589,-0.899 -1.752,-1.515c-0.645,-2.441 -1.095,-4.94 -1.504,-7.435c-0.525,-3.204 -0.941,-6.427 -1.446,-9.931" style="fill:#454243;fill-rule:nonzero;"/><path d="M455.952,358.911c-1.012,-5.903 -2.064,-11.8 -2.975,-17.718c-0.098,-0.641 0.632,-1.411 1.288,-2.761c0.72,1.547 1.036,2.226 1.417,3.046c1.451,-1.117 2.729,-2.318 4.217,-3.137c0.565,-0.311 1.612,0.257 2.439,0.424c-0.464,0.713 -0.777,1.823 -1.419,2.069c-2.636,1.011 -4.244,3.046 -4.016,6.202c0.24,3.322 0.903,6.612 1.2,9.934c0.065,0.717 -0.637,1.505 -0.987,2.26c-0.388,-0.106 -0.776,-0.213 -1.164,-0.319" style="fill:#454243;fill-rule:nonzero;"/><path d="M346.002,423.454c-1.863,1.15 -2.563,0.74 -2.925,-1.445c-1.137,-6.865 -2.526,-13.688 -3.794,-20.532c-0.202,-1.089 -0.286,-2.201 -0.432,-3.369c1.568,-0.69 2.859,-1.009 3.231,1.196c1.268,7.497 2.541,14.992 3.8,22.49c0.091,0.544 0.082,1.103 0.12,1.66" style="fill:#454243;fill-rule:nonzero;"/><path d="M483.646,373.471c0.435,-0.455 1.052,-1.421 1.329,-1.332c0.745,0.24 1.805,0.839 1.928,1.458c0.825,4.112 1.404,8.273 2.127,12.407c0.558,3.19 1.214,6.362 1.815,9.543c0.104,0.547 0.363,1.186 0.183,1.636c-0.236,0.597 -0.83,1.455 -1.276,1.458c-0.526,0.003 -1.438,-0.718 -1.531,-1.24c-1.092,-6.178 -2.02,-12.385 -3.091,-18.568c-0.294,-1.696 -0.913,-3.336 -1.484,-5.362" style="fill:#454243;fill-rule:nonzero;"/><path d="M445.486,341.166c0.766,-0.161 1.42,-0.299 2.598,-0.547c1.042,5.816 2.094,11.444 3.006,17.097c0.112,0.697 -0.53,1.515 -0.822,2.277c-0.718,-0.665 -1.931,-1.239 -2.073,-2.012c-1.015,-5.511 -1.811,-11.064 -2.709,-16.815" style="fill:#454243;fill-rule:nonzero;"/><path d="M353.454,422.519c-2.877,0.882 -3.164,-0.611 -3.425,-2.373c-0.786,-5.308 -1.667,-10.601 -2.541,-16.096c0.642,-0.168 1.303,-0.341 2.335,-0.611c1.223,6.426 2.418,12.707 3.631,19.079" style="fill:#454243;fill-rule:nonzero;"/><path d="M477.991,380.917c2.039,-0.662 2.828,-0.21 3.106,1.937c0.63,4.874 1.68,9.691 2.415,14.553c0.112,0.736 -0.548,1.587 -0.852,2.386c-0.559,-0.635 -1.46,-1.193 -1.62,-1.917c-1.025,-4.629 -1.906,-9.29 -2.786,-13.949c-0.19,-0.997 -0.183,-2.032 -0.263,-3.01" style="fill:#454243;fill-rule:nonzero;"/><path d="M425.079,388.812c0.045,0.644 0.091,1.288 0.136,1.933c-0.962,2.029 1.06,2.038 1.92,2.834c-0.047,0.325 -0.095,0.647 -0.142,0.971l0,5.3c0.04,0.647 0.08,1.293 0.12,1.94c0.282,1.274 0.566,2.546 0.848,3.82l0.152,2.407c-0.628,0.315 -1.257,0.63 -1.885,0.944c-0.021,-0.24 -0.043,-0.478 -0.064,-0.716c-0.277,-1.2 -0.555,-2.397 -0.833,-3.594c-0.038,-0.582 -0.077,-1.166 -0.116,-1.748c-0.415,-1.339 1.283,-3.291 -1.174,-4.035c-0.045,-0.644 -0.091,-1.287 -0.136,-1.931c-0.276,-1.276 -0.554,-2.551 -0.83,-3.827c-0.045,-0.644 -0.091,-1.288 -0.136,-1.932c-0.277,-1.275 -0.554,-2.551 -0.832,-3.827c-0.033,-0.488 -0.065,-0.976 -0.098,-1.462c0.61,-0.63 1.22,-1.26 1.83,-1.889c0.022,0.257 0.045,0.514 0.067,0.773c0.411,1.34 -1.278,3.291 1.173,4.038" style="fill:#3d3a3b;fill-rule:nonzero;"/><path d="M544.82,370.975c-0.495,-0.001 -0.99,-0.003 -1.485,-0.005c-0.795,0.287 -1.589,0.573 -2.384,0.859c-0.19,0.046 -0.379,0.092 -0.568,0.139c-0.425,0.393 -0.85,0.785 -1.276,1.178c0.066,0.115 0.047,0.213 -0.057,0.295c-0.324,-0.482 -0.649,-0.964 -0.973,-1.446c0,0 -0.002,0.003 -0.002,0.002c0.329,-0.303 0.657,-0.607 0.986,-0.911l0.028,-0.023c0.313,-0.37 0.626,-0.741 0.939,-1.112c0.319,-0.114 0.64,-0.227 0.959,-0.34c0.634,-0.261 1.268,-0.522 1.902,-0.782c1.114,0.001 2.228,0.003 3.341,0.006c0.587,0.276 1.174,0.55 1.762,0.826l0.124,0.058c0.34,0.438 0.679,0.876 1.017,1.314l-0.005,-0.007c0.26,0.328 0.521,0.656 0.782,0.983c0.036,0.22 0.073,0.44 0.109,0.659l0.996,2.206c0.032,0.575 0.063,1.148 0.094,1.721c0.295,1.349 0.59,2.696 0.885,4.044c0.023,0.404 0.047,0.808 0.071,1.213l0,5.587c-0.967,-1.233 -1.451,-1.85 -1.935,-2.468l-0.115,-1.755c-0.268,-1.179 -0.537,-2.36 -0.805,-3.54c-0.052,-0.717 -0.105,-1.433 -0.158,-2.151c0.279,-2.225 -0.175,-4.176 -2.079,-5.588c-0.238,-0.092 -0.476,-0.183 -0.714,-0.275c-0.48,-0.228 -0.96,-0.458 -1.439,-0.687" style="fill:#3d3a3b;fill-rule:nonzero;"/><path d="M439.2,406.56c-0.021,-0.405 -0.044,-0.811 -0.066,-1.217c-0.278,-1.196 -0.554,-2.39 -0.831,-3.586c-0.043,-0.716 -0.086,-1.431 -0.128,-2.148c-0.282,-1.199 -0.562,-2.399 -0.842,-3.597c-0.043,-0.563 -0.086,-1.127 -0.129,-1.691l-1.157,-1.694c-0.054,-0.204 -0.109,-0.407 -0.162,-0.611c-1.148,-1.442 -2.314,-2.825 -4.357,-1.324c-0.425,0.032 -0.849,0.063 -1.274,0.096c-0.38,0.249 -0.761,0.498 -1.142,0.747l-0.154,0.18l-0.237,-0.004c-0.474,0.144 -0.947,0.287 -1.474,0.448l0,-1.313l0.079,-0.079c0.921,-0.603 1.841,-1.207 2.762,-1.811c0.327,-0.026 0.654,-0.051 0.98,-0.078c1.264,-0.005 2.527,-0.008 3.79,-0.013c0.323,0.044 0.648,0.088 0.972,0.132c0.442,0.27 0.886,0.541 1.328,0.811l0.081,0.059c0.599,0.927 1.197,1.854 1.796,2.782c0.039,0.323 0.078,0.646 0.118,0.97c0.274,1.117 0.547,2.234 0.819,3.35c0.044,0.645 0.088,1.288 0.131,1.932c0.278,1.276 0.555,2.553 0.831,3.829c0.045,0.642 0.09,1.286 0.135,1.93c-0.194,1.054 -0.162,2.332 -1.869,1.9" style="fill:#3d3a3b;fill-rule:nonzero;"/><path d="M333.047,361.946c0.397,0.428 0.784,0.867 1.196,1.28c0.268,0.269 0.574,0.498 0.863,0.745c-0.035,0.276 -0.07,0.551 -0.105,0.827c-1.906,1.472 -1.899,4.865 0.014,6.723l0.082,1.289c0.28,1.331 0.559,2.661 0.84,3.992c0.041,0.589 0.082,1.179 0.122,1.768c-0.027,0.355 -0.053,0.71 -0.08,1.064l-0.024,0.025l-1.857,0.012l-0.007,-0.011c-0.308,-1.27 -0.614,-2.539 -0.921,-3.81c-0.038,-0.585 -0.076,-1.171 -0.113,-1.756c-0.299,-1.499 -0.598,-2.996 -0.896,-4.494c-0.022,-0.399 -0.045,-0.798 -0.067,-1.197c-0.28,-1.208 -0.56,-2.414 -0.839,-3.621c-0.12,-0.946 -0.346,-1.899 -0.307,-2.838c0.015,-0.353 0.665,-0.969 0.988,-0.945c0.391,0.029 0.742,0.607 1.111,0.947" style="fill:#3d3a3b;fill-rule:nonzero;"/><path d="M539.043,389.796c-0.32,-0.009 -0.641,-0.017 -0.961,-0.025c-0.309,-0.641 -0.618,-1.282 -0.928,-1.923c-0.034,-0.574 -0.069,-1.149 -0.104,-1.723c-0.288,-1.347 -0.576,-2.691 -0.864,-4.037c-0.028,-0.432 -0.055,-0.863 -0.083,-1.295c-0.289,-1.328 -0.576,-2.656 -0.864,-3.984c-0.032,-0.591 -0.065,-1.183 -0.097,-1.775c0.019,-1.324 0.04,-2.649 0.059,-3.973c0.322,0.007 0.646,0.014 0.968,0.022c0.63,1.251 1.261,2.502 1.891,3.753c-0.017,1.623 -0.035,3.247 -0.051,4.87c0.344,1.432 0.687,2.862 1.031,4.294c0.022,0.4 0.044,0.799 0.066,1.198c-0.021,1.534 -0.042,3.066 -0.063,4.598" style="fill:#3d3a3b;fill-rule:nonzero;"/><path d="M414.19,298.103c-1.828,-1.651 -4.212,2.769 -5.082,-1.432c-0.259,-1.251 -0.536,-2.575 1.634,-2.885c3.062,-0.438 3.112,1.428 3.448,4.317" style="fill:#454243;fill-rule:nonzero;"/><path d="M349.786,398.372c-0.921,0.992 -1.487,1.603 -2.053,2.213c-0.549,-0.874 -1.325,-1.694 -1.546,-2.645c-0.101,-0.439 0.881,-1.13 1.372,-1.707c0.624,0.6 1.249,1.2 2.227,2.139" style="fill:#454243;fill-rule:nonzero;"/><path d="M478.831,372.921c0.382,1.021 0.99,2.03 1.044,3.069c0.024,0.474 -1.043,1.005 -1.615,1.511c-0.432,-0.864 -1.083,-1.695 -1.219,-2.603c-0.091,-0.61 0.549,-1.328 0.861,-1.998l0.929,0.021Z" style="fill:#454243;fill-rule:nonzero;"/><path d="M447.603,335.826c-0.772,0.782 -1.293,1.312 -1.816,1.841c-0.54,-0.964 -1.254,-1.884 -1.518,-2.918c-0.083,-0.326 1.041,-0.96 1.612,-1.452c0.503,0.738 1.006,1.477 1.721,2.529" style="fill:#454243;fill-rule:nonzero;"/><path d="M550.13,384.971c0.484,0.618 0.969,1.235 1.936,2.468l0,-5.587c0.288,0.981 0.803,1.964 0.8,2.944c-0.003,0.979 -0.399,2.726 -0.844,2.8c-1.919,0.318 -2.025,-1.171 -1.892,-2.625" style="fill:#454243;fill-rule:nonzero;"/><path d="M362.561,310.966l-6.416,0.067c2.121,-1.687 4.257,-2.025 6.416,-0.067" style="fill:#454243;fill-rule:nonzero;"/><path d="M335.015,371.522c-1.913,-1.858 -1.92,-5.251 -0.014,-6.724c0.005,2.242 0.009,4.483 0.014,6.724" style="fill:#454243;fill-rule:nonzero;"/><path d="M313.502,179.143c-1.038,0.389 -2.076,0.777 -3.394,1.27c-0.041,0.44 -0.112,1.191 -0.182,1.936c-0.306,-0.63 -0.611,-1.254 -1.135,-2.32c1.766,-0.332 3.238,-0.609 4.711,-0.886" style="fill:#d5235a;fill-rule:nonzero;"/><path d="M427.247,390.846l0,1.312c0.527,-0.16 1,-0.303 1.474,-0.447c-0.529,0.623 -1.058,1.246 -1.586,1.868c-0.86,-0.796 -2.882,-0.805 -1.92,-2.835c0.677,0.035 1.354,0.068 2.032,0.102" style="fill:#454243;fill-rule:nonzero;"/><path d="M570.208,381.491c0.25,-0.193 0.637,-0.606 0.73,-0.548c1.53,0.955 1.706,4.418 0.338,5.921c-0.356,-1.791 -0.712,-3.582 -1.068,-5.373" style="fill:#454243;fill-rule:nonzero;"/><path d="M423.839,384c-0.609,0.63 -1.22,1.259 -1.83,1.889c0.104,-0.928 0.208,-1.856 0.311,-2.784c0.507,0.298 1.013,0.597 1.519,0.895" style="fill:#454243;fill-rule:nonzero;"/><path d="M411.804,348.865c1.708,-1.655 3.467,-2.154 5.335,-0.239c-1.778,0.079 -3.557,0.159 -5.335,0.239" style="fill:#454243;fill-rule:nonzero;"/><path d="M395.031,349.961c0.022,1.526 0.045,3.053 0.066,4.579c-0.749,-1.516 -2.067,-3.023 -0.066,-4.579" style="fill:#454243;fill-rule:nonzero;"/><path d="M327.284,372.496c0.329,-0.835 0.658,-1.67 0.99,-2.501c0.262,0.571 0.523,1.138 0.783,1.703c-0.59,0.267 -1.181,0.532 -1.773,0.798" style="fill:#f79928;fill-rule:nonzero;"/><path d="M439.2,406.56c1.707,0.432 1.675,-0.846 1.869,-1.9c-0.108,0.879 -0.216,1.756 -0.324,2.635c-0.515,-0.245 -1.029,-0.49 -1.545,-0.735" style="fill:#454243;fill-rule:nonzero;"/><path d="M539.039,384c-0.343,-1.432 -0.687,-2.862 -1.03,-4.294c0.343,1.432 0.687,2.862 1.03,4.294" style="fill:#454243;fill-rule:nonzero;"/><path d="M434.858,388.864c-1.264,0.005 -2.526,0.009 -3.79,0.014c1.264,-0.005 2.526,-0.009 3.79,-0.014" style="fill:#454243;fill-rule:nonzero;"/><path d="M538.06,374.836c-0.63,-1.251 -1.261,-2.502 -1.891,-3.753c0.636,0.304 1.273,0.607 1.909,0.911c0.324,0.483 0.649,0.965 0.973,1.446c-0.33,0.465 -0.661,0.931 -0.991,1.396" style="fill:#454243;fill-rule:nonzero;"/><path d="M425.079,388.812c-2.451,-0.748 -0.762,-2.698 -1.173,-4.039c0.391,1.346 0.782,2.692 1.173,4.038" style="fill:#454243;fill-rule:nonzero;"/><path d="M424.041,398.868c2.457,0.743 0.759,2.696 1.174,4.034c-0.392,-1.345 -0.782,-2.689 -1.174,-4.034" style="fill:#454243;fill-rule:nonzero;"/><path d="M546.974,371.937c1.903,1.412 2.357,3.363 2.079,5.588c-0.692,-1.863 -1.386,-3.726 -2.079,-5.589" style="fill:#454243;fill-rule:nonzero;"/><path d="M409.911,355.677c-0.882,-1.275 -1.864,-2.552 -0.008,-3.833c0.003,1.278 0.005,2.556 0.008,3.833" style="fill:#454243;fill-rule:nonzero;"/><path d="M318.938,178.043c-0.867,0.279 -1.733,0.558 -2.595,0.837c0.869,-0.279 1.733,-0.558 2.595,-0.837" style="fill:#d5235a;fill-rule:nonzero;"/><path d="M420.181,357.591c0.29,1.433 0.58,2.865 0.87,4.297c-0.29,-1.432 -0.58,-2.864 -0.87,-4.297" style="fill:#454243;fill-rule:nonzero;"/><path d="M539.043,389.796c0.021,-1.532 0.042,-3.064 0.063,-4.598c0.316,1.265 0.684,2.521 0.897,3.803c0.034,0.206 -0.623,0.527 -0.96,0.795" style="fill:#454243;fill-rule:nonzero;"/><path d="M332.161,369.601c0.298,1.498 0.597,2.995 0.896,4.494c-0.299,-1.498 -0.598,-2.996 -0.896,-4.494" style="fill:#454243;fill-rule:nonzero;"/><path d="M364.122,309.089c0.323,0.857 0.646,1.716 0.971,2.574c-0.572,-0.165 -1.143,-0.329 -1.714,-0.494c0.248,-0.693 0.495,-1.387 0.743,-2.08" style="fill:#454243;fill-rule:nonzero;"/><path d="M310.165,185.178c0.295,0.917 0.59,1.833 0.885,2.744c-0.295,-0.919 -0.59,-1.832 -0.885,-2.744" style="fill:#d5235a;fill-rule:nonzero;"/><path d="M431.528,390.691c2.043,-1.501 3.209,-0.118 4.356,1.324l-4.356,-1.324Z" style="fill:#454243;fill-rule:nonzero;"/><path d="M427.961,405.609c-0.282,-1.272 -0.565,-2.546 -0.848,-3.818c0.283,1.272 0.566,2.546 0.848,3.818" style="fill:#454243;fill-rule:nonzero;"/><path d="M422.84,359.031c-0.285,-1.354 -0.57,-2.709 -0.855,-4.065c0.285,1.354 0.57,2.71 0.855,4.065" style="fill:#454243;fill-rule:nonzero;"/><path d="M408.195,359.99l0.85,3.82l-0.85,-3.82Z" style="fill:#454243;fill-rule:nonzero;"/><path d="M422.107,387.351c0.277,1.276 0.555,2.552 0.832,3.828c-0.277,-1.276 -0.555,-2.552 -0.832,-3.828" style="fill:#454243;fill-rule:nonzero;"/><path d="M440.935,402.73c-0.276,-1.276 -0.554,-2.553 -0.831,-3.829c0.277,1.276 0.555,2.553 0.831,3.829" style="fill:#454243;fill-rule:nonzero;"/><path d="M423.075,393.11c0.276,1.275 0.554,2.551 0.83,3.826c-0.276,-1.275 -0.554,-2.551 -0.83,-3.826" style="fill:#454243;fill-rule:nonzero;"/><path d="M535.239,376.809c0.288,1.328 0.575,2.656 0.863,3.984c-0.288,-1.328 -0.575,-2.656 -0.863,-3.984" style="fill:#454243;fill-rule:nonzero;"/><path d="M333.17,375.851c0.307,1.271 0.613,2.54 0.921,3.81c-0.308,-1.27 -0.614,-2.539 -0.921,-3.81" style="fill:#454243;fill-rule:nonzero;"/><path d="M407.227,354.231c0.284,1.273 0.569,2.547 0.854,3.82c-0.285,-1.273 -0.57,-2.547 -0.854,-3.82" style="fill:#454243;fill-rule:nonzero;"/><path d="M410.826,360.948c-0.28,-1.346 -0.562,-2.691 -0.842,-4.038c0.28,1.346 0.562,2.691 0.842,4.038" style="fill:#454243;fill-rule:nonzero;"/><path d="M419.207,351.832c0.28,1.276 0.562,2.553 0.843,3.829c-0.281,-1.276 -0.563,-2.553 -0.843,-3.829" style="fill:#454243;fill-rule:nonzero;"/><path d="M410.883,366.708c0.021,-1.337 0.041,-2.674 0.062,-4.012c0.173,1.341 2.14,2.709 -0.062,4.012" style="fill:#454243;fill-rule:nonzero;"/><path d="M562.182,384.925c1.234,-0.023 2.468,-0.048 3.702,-0.071c-1.234,0.023 -2.468,0.048 -3.702,0.071" style="fill:#454243;fill-rule:nonzero;"/><path d="M398.815,362.86c-0.284,-1.313 -0.565,-2.627 -0.849,-3.94c0.284,1.313 0.565,2.627 0.849,3.94" style="fill:#454243;fill-rule:nonzero;"/><path d="M536.186,382.088c0.288,1.346 0.576,2.69 0.864,4.037l-0.865,-4.037Z" style="fill:#454243;fill-rule:nonzero;"/><path d="M421.915,353.759c-0.307,-1.311 -0.612,-2.62 -0.918,-3.931c0.306,1.311 0.611,2.62 0.918,3.931" style="fill:#454243;fill-rule:nonzero;"/><path d="M551.994,380.639c-0.295,-1.348 -0.59,-2.695 -0.885,-4.044c0.295,1.348 0.59,2.695 0.885,4.044" style="fill:#454243;fill-rule:nonzero;"/><path d="M439.973,396.969c-0.272,-1.116 -0.546,-2.233 -0.819,-3.351c0.273,1.118 0.547,2.235 0.819,3.351" style="fill:#454243;fill-rule:nonzero;"/><path d="M425.331,404.651c0.278,1.197 0.556,2.395 0.833,3.593c-0.277,-1.197 -0.555,-2.395 -0.833,-3.593" style="fill:#454243;fill-rule:nonzero;"/><path d="M422.877,364.751c0.023,-1.33 0.048,-2.659 0.071,-3.989c0.394,1.337 1.947,2.694 -0.071,3.989" style="fill:#454243;fill-rule:nonzero;"/><path d="M535.201,371.061c-0.02,1.323 -0.04,2.648 -0.06,3.973c-0.192,-1.328 -2.119,-2.682 0.06,-3.974" style="fill:#454243;fill-rule:nonzero;"/><path d="M399.356,368.568c-0.142,-1.3 -0.284,-2.599 -0.425,-3.898c0.142,1.299 0.283,2.598 0.425,3.898" style="fill:#454243;fill-rule:nonzero;"/><path d="M401.27,350.514c1.286,0.048 2.574,0.095 3.861,0.142c-1.287,-0.047 -2.575,-0.094 -3.861,-0.142" style="fill:#454243;fill-rule:nonzero;"/><path d="M335.936,376.803c-0.28,-1.331 -0.56,-2.661 -0.84,-3.992c0.28,1.33 0.56,2.661 0.84,3.992" style="fill:#454243;fill-rule:nonzero;"/><path d="M437.333,396.012c0.28,1.198 0.561,2.397 0.842,3.597c-0.28,-1.199 -0.562,-2.398 -0.842,-3.597" style="fill:#454243;fill-rule:nonzero;"/><path d="M397.95,350.951c-0.381,0.521 -0.761,1.042 -1.471,2.013c-0.221,-1.352 -0.353,-2.158 -0.484,-2.962c0.651,0.316 1.303,0.633 1.955,0.949" style="fill:#454243;fill-rule:nonzero;"/><path d="M426.228,408.961c0.628,-0.314 1.257,-0.629 1.885,-0.943c-0.223,0.581 -0.447,1.161 -0.669,1.742c-0.405,-0.267 -0.811,-0.532 -1.216,-0.799" style="fill:#454243;fill-rule:nonzero;"/><path d="M414.253,345.81c-0.826,0.401 -1.652,0.803 -2.478,1.204c0.826,-0.401 1.652,-0.803 2.478,-1.204" style="fill:#454243;fill-rule:nonzero;"/><path d="M439.035,392.648c-0.599,-0.928 -1.197,-1.854 -1.796,-2.782c0.599,0.928 1.197,1.854 1.796,2.782" style="fill:#454243;fill-rule:nonzero;"/><path d="M331.255,364.782c0.279,1.207 0.559,2.413 0.839,3.621c-0.279,-1.206 -0.56,-2.414 -0.839,-3.621" style="fill:#454243;fill-rule:nonzero;"/><path d="M549.21,379.676c0.269,1.18 0.537,2.36 0.806,3.54c-0.269,-1.18 -0.537,-2.36 -0.806,-3.54" style="fill:#454243;fill-rule:nonzero;"/><path d="M403.19,348.042l-3.012,0.864l3.012,-0.864Z" style="fill:#454243;fill-rule:nonzero;"/><path d="M438.303,401.757c0.277,1.195 0.554,2.39 0.831,3.586c-0.276,-1.195 -0.554,-2.391 -0.831,-3.586" style="fill:#454243;fill-rule:nonzero;"/><path d="M407.045,348.957c-0.958,-0.309 -1.917,-0.618 -2.875,-0.927c0.958,0.309 1.917,0.618 2.875,0.927" style="fill:#454243;fill-rule:nonzero;"/><path d="M430.088,388.956c-0.921,0.604 -1.841,1.207 -2.762,1.811c0.921,-0.604 1.841,-1.207 2.762,-1.811" style="fill:#454243;fill-rule:nonzero;"/><path d="M357.319,409.978c0.233,0.996 0.466,1.993 0.699,2.988c-0.233,-0.995 -0.466,-1.992 -0.699,-2.988" style="fill:#454243;fill-rule:nonzero;"/><path d="M537.154,387.848c0.31,0.642 0.619,1.282 0.928,1.923c-0.309,-0.641 -0.618,-1.281 -0.928,-1.923" style="fill:#454243;fill-rule:nonzero;"/><path d="M540.951,371.829c0.795,-0.286 1.589,-0.572 2.384,-0.859c-0.795,0.287 -1.589,0.573 -2.384,0.859" style="fill:#454243;fill-rule:nonzero;"/><path d="M551.016,374.874l-0.996,-2.206l0.996,2.206Z" style="fill:#454243;fill-rule:nonzero;"/><path d="M419.06,347.028c-0.651,-0.401 -1.303,-0.802 -1.954,-1.203c0.651,0.401 1.303,0.802 1.954,1.203" style="fill:#454243;fill-rule:nonzero;"/><path d="M358.281,415.71l0.835,2.121l-0.835,-2.121Z" style="fill:#454243;fill-rule:nonzero;"/><path d="M356.106,404.66c0.316,0.851 0.634,1.7 0.951,2.551c-0.317,-0.85 -0.635,-1.7 -0.951,-2.551" style="fill:#454243;fill-rule:nonzero;"/><path d="M397.199,368.147c0.571,0.169 1.143,0.337 1.714,0.506c-0.571,-0.169 -1.143,-0.337 -1.714,-0.506" style="fill:#454243;fill-rule:nonzero;"/><path d="M436.047,392.627l1.157,1.693c-0.386,-0.563 -0.771,-1.129 -1.157,-1.693" style="fill:#454243;fill-rule:nonzero;"/><path d="M111.916,95.064l1.415,-1.317l-1.415,1.317Z" style="fill:#fbfbfb;fill-rule:nonzero;"/><path d="M542.89,368.828c-0.635,0.261 -1.269,0.521 -1.902,0.782c0.633,-0.261 1.267,-0.521 1.902,-0.782" style="fill:#454243;fill-rule:nonzero;"/><path d="M113.447,93.654c0.585,-0.497 1.169,-0.994 1.754,-1.491c-0.585,0.497 -1.169,0.994 -1.754,1.491" style="fill:#fbfbfb;fill-rule:nonzero;"/><path d="M418.106,349.438c0.333,0.473 0.665,0.945 0.998,1.419c-0.333,-0.474 -0.665,-0.946 -0.998,-1.418" style="fill:#454243;fill-rule:nonzero;"/><path d="M334.098,379.671l1.857,-0.012l-1.857,0.012Z" style="fill:#454243;fill-rule:nonzero;"/><path d="M556.042,380.148c0.41,0.489 0.819,0.979 1.229,1.467c-0.41,-0.488 -0.819,-0.978 -1.229,-1.467" style="fill:#454243;fill-rule:nonzero;"/><path d="M315.769,381.629c0.509,0.386 1.018,0.772 1.526,1.158c-0.508,-0.386 -1.017,-0.772 -1.526,-1.158" style="fill:#454243;fill-rule:nonzero;"/><path d="M410.384,347.972c-0.48,0.647 -0.96,1.295 -1.439,1.942c0.479,-0.647 0.959,-1.295 1.439,-1.942" style="fill:#454243;fill-rule:nonzero;"/><path d="M547.992,369.66c-0.588,-0.275 -1.175,-0.55 -1.762,-0.825c0.587,0.275 1.174,0.55 1.762,0.825" style="fill:#454243;fill-rule:nonzero;"/><path d="M544.82,370.975c0.479,0.229 0.959,0.459 1.439,0.687c-0.48,-0.228 -0.96,-0.458 -1.439,-0.687" style="fill:#454243;fill-rule:nonzero;"/><path d="M549.134,371.032c-0.339,-0.437 -0.678,-0.876 -1.018,-1.313c0.34,0.437 0.679,0.876 1.018,1.313" style="fill:#454243;fill-rule:nonzero;"/><path d="M437.158,389.808c-0.442,-0.271 -0.886,-0.541 -1.328,-0.812c0.442,0.271 0.886,0.541 1.328,0.812" style="fill:#454243;fill-rule:nonzero;"/><path d="M557.267,381.607c0.327,0.473 0.654,0.945 0.98,1.419c-0.326,-0.474 -0.653,-0.946 -0.98,-1.419" style="fill:#454243;fill-rule:nonzero;"/><path d="M421.151,363.351c0.257,0.465 0.515,0.929 0.772,1.394c-0.257,-0.465 -0.515,-0.929 -0.772,-1.394" style="fill:#454243;fill-rule:nonzero;"/><path d="M559.344,383.946c0.436,0.269 0.871,0.538 1.307,0.807c-0.436,-0.269 -0.871,-0.538 -1.307,-0.807" style="fill:#454243;fill-rule:nonzero;"/><path d="M540.028,369.95c-0.313,0.371 -0.626,0.742 -0.939,1.112c0.313,-0.37 0.626,-0.741 0.939,-1.112" style="fill:#454243;fill-rule:nonzero;"/><path d="M409.164,365.75c0.251,0.316 0.501,0.634 0.752,0.951c-0.251,-0.317 -0.501,-0.635 -0.752,-0.951" style="fill:#454243;fill-rule:nonzero;"/><path d="M398.902,351.897c0.382,-0.363 0.763,-0.727 1.144,-1.089c-0.381,0.362 -0.762,0.726 -1.144,1.089" style="fill:#454243;fill-rule:nonzero;"/><path d="M398.894,349.669c-0.305,0.41 -0.608,0.819 -0.913,1.229c0.305,-0.41 0.608,-0.819 0.913,-1.229" style="fill:#454243;fill-rule:nonzero;"/><path d="M539.107,373.145c0.426,-0.392 0.851,-0.785 1.276,-1.178c-0.425,0.393 -0.85,0.786 -1.276,1.178" style="fill:#454243;fill-rule:nonzero;"/><path d="M355.237,311.335c-0.311,0.23 -0.62,0.46 -0.931,0.69c0.311,-0.23 0.62,-0.46 0.931,-0.69" style="fill:#454243;fill-rule:nonzero;"/><path d="M397.855,356.62c-0.005,-0.305 -0.01,-0.608 -0.014,-0.913c0.004,0.305 0.009,0.608 0.014,0.913" style="fill:#454243;fill-rule:nonzero;"/><path d="M117.081,90.706l1.015,-0.894l-1.015,0.894Z" style="fill:#fbfbfb;fill-rule:nonzero;"/><path d="M409.978,351.025c0.268,-0.381 0.534,-0.763 0.802,-1.145c-0.268,0.382 -0.535,0.764 -0.802,1.145" style="fill:#454243;fill-rule:nonzero;"/><path d="M408.951,349.904c-0.125,0.247 -0.25,0.494 -0.375,0.74c-0.177,-0.265 -0.354,-0.531 -0.529,-0.797c0.301,0.02 0.603,0.038 0.904,0.057" style="fill:#454243;fill-rule:nonzero;"/><path d="M549.91,372.009c-0.261,-0.327 -0.521,-0.655 -0.782,-0.983c0.261,0.328 0.521,0.656 0.782,0.983" style="fill:#454243;fill-rule:nonzero;"/><path d="M539.061,371.086c-0.329,0.304 -0.657,0.607 -0.986,0.911c0.329,-0.304 0.657,-0.607 0.986,-0.911" style="fill:#454243;fill-rule:nonzero;"/><path d="M335.978,379.635c0.027,-0.354 0.054,-0.71 0.08,-1.064c-0.026,0.354 -0.053,0.71 -0.08,1.064" style="fill:#454243;fill-rule:nonzero;"/><path d="M410.837,349.809c0.289,-0.3 0.578,-0.601 0.866,-0.9c-0.289,0.299 -0.577,0.6 -0.866,0.9" style="fill:#454243;fill-rule:nonzero;"/><path d="M408.072,349.871c-0.343,-0.306 -0.687,-0.61 -1.03,-0.915c0.343,0.305 0.687,0.609 1.03,0.915" style="fill:#454243;fill-rule:nonzero;"/><path d="M420.819,348.968c-0.268,-0.333 -0.534,-0.665 -0.801,-0.997c0.267,0.332 0.533,0.664 0.801,0.997" style="fill:#454243;fill-rule:nonzero;"/><path d="M569.267,383.002c0.255,-0.312 0.509,-0.622 0.764,-0.933c-0.255,0.311 -0.509,0.621 -0.764,0.933" style="fill:#454243;fill-rule:nonzero;"/><path d="M558.254,383.033c0.328,0.286 0.657,0.571 0.986,0.857c-0.329,-0.286 -0.658,-0.571 -0.986,-0.857" style="fill:#454243;fill-rule:nonzero;"/><path d="M566.867,384.71c0.313,-0.24 0.627,-0.48 0.941,-0.721c-0.313,0.241 -0.628,0.481 -0.941,0.721" style="fill:#454243;fill-rule:nonzero;"/><path d="M571.149,387.714c-0.242,0.378 -0.483,0.756 -0.726,1.134c0.243,-0.378 0.484,-0.756 0.726,-1.134" style="fill:#454243;fill-rule:nonzero;"/><path d="M429.112,391.534c0.381,-0.249 0.762,-0.498 1.142,-0.747c-0.38,0.249 -0.761,0.498 -1.142,0.747" style="fill:#454243;fill-rule:nonzero;"/><path d="M327.198,367.479l-0.123,-0.088c0,0 0.021,-0.178 0.021,-0.175c0.099,-0.004 0.198,-0.012 0.296,-0.02c-0.065,0.095 -0.13,0.188 -0.194,0.283" style="fill:#f79928;fill-rule:nonzero;"/><path d="M420.027,347.984c-0.326,-0.32 -0.651,-0.641 -0.978,-0.962c0.327,0.321 0.652,0.642 0.978,0.962" style="fill:#454243;fill-rule:nonzero;"/><path d="M397.972,353.89c0.228,-0.367 0.456,-0.734 0.684,-1.102c-0.228,0.368 -0.456,0.735 -0.684,1.102" style="fill:#454243;fill-rule:nonzero;"/><path d="M411.363,347.109c-0.333,0.289 -0.666,0.578 -0.999,0.868c0.333,-0.29 0.666,-0.579 0.999,-0.868" style="fill:#454243;fill-rule:nonzero;"/><path d="M364.26,222.765c7.741,-0.013 13.108,1.468 16.166,7.141c5.603,10.395 1.336,22.836 -11.608,24.989c-6.385,1.061 -12.714,2.455 -19.08,3.637c-3.898,0.723 -7.807,1.415 -11.739,1.889c-0.533,0.065 -1.644,-1.146 -1.786,-1.898c-1.71,-9.1 -3.255,-18.232 -4.925,-27.339c-0.405,-2.212 0.152,-3 2.546,-3.318c5.163,-0.686 10.249,-1.938 15.392,-2.807c5.561,-0.94 11.151,-1.708 15.034,-2.294" style="fill:#fbfbfb;fill-rule:nonzero;"/><path d="M328.928,217.75c-1.359,-8.188 -2.693,-16.241 -4.037,-24.292c-0.078,-0.47 -0.2,-0.936 -0.341,-1.391c-1.119,-3.607 -0.848,-3.828 2.842,-4.459c6.391,-1.093 12.708,-2.683 19.125,-3.545c5.292,-0.71 10.634,-2.438 16.051,-0.386c3.691,1.398 6.606,3.578 7.446,7.592c0.65,3.107 1.313,6.325 1.176,9.459c-0.227,5.12 -3.589,8.377 -8.158,9.967c-4.055,1.412 -8.344,2.189 -12.567,3.077c-6.658,1.4 -13.346,2.662 -20.023,3.97c-0.298,0.059 -0.618,0.008 -1.514,0.008" style="fill:#fbfbfb;fill-rule:nonzero;"/><path d="M272.996,279.242c-10.977,0.289 -18.076,-7.033 -21.805,-16.665c-2.977,-7.69 -3.695,-15.665 -3.145,-23.822c0.679,-10.073 8.147,-19.479 18.939,-21.155c5.839,-0.907 11.226,-0.609 16.261,2.256c6.606,3.76 10.444,9.847 12.812,16.891c2.375,7.061 2.89,14.339 1.95,21.706c-1.174,9.206 -7.885,17.808 -17.536,19.523c-2.488,0.443 -4.984,0.845 -7.476,1.266" style="fill:#fbfbfb;fill-rule:nonzero;"/><path d="M210.939,200.211c0.261,-0.018 0.521,-0.035 0.782,-0.052c-0.128,0.207 -0.257,0.413 -0.386,0.62c-0.132,-0.19 -0.264,-0.379 -0.396,-0.568" style="fill:#fefefe;fill-rule:nonzero;"/><path d="M366.32,321.602c0.289,3.382 -2.39,4.955 -4.636,5.17c-3.038,0.29 -5.049,-1.549 -5.685,-5.204c-0.21,-1.202 -0.446,-2.521 -0.168,-3.663c0.889,-3.655 2.159,-4.584 5.32,-4.351c2.655,0.196 4.656,2.32 5.009,5.342c0.073,0.63 0.078,1.268 0.16,2.705" style="fill:#fbfbfb;fill-rule:nonzero;"/><path d="M459.079,401.736c-0.609,-3.102 -1.27,-6.039 -1.692,-9.012c-0.077,-0.531 0.756,-1.644 1.299,-1.738c3.047,-0.528 6.126,-0.909 9.209,-1.178c2.569,-0.224 4.763,0.608 5.358,3.391c0.712,3.335 -0.434,5.467 -3.636,6.365c-3.388,0.95 -6.904,1.444 -10.538,2.172" style="fill:#fbfbfb;fill-rule:nonzero;"/><path d="M455.234,379.818c3.325,-0.587 6.573,-1.354 9.863,-1.674c2.172,-0.211 4.334,0.411 4.891,3.055c0.665,3.155 -0.377,4.939 -3.354,5.741c-2.501,0.673 -5.04,1.203 -7.555,1.822c-1.507,0.371 -2.481,-0.09 -2.737,-1.683c-0.375,-2.336 -0.715,-4.677 -1.108,-7.261" style="fill:#fbfbfb;fill-rule:nonzero;"/><path d="M387.654,315.904c1.234,4.923 -0.175,7.062 -4.465,7.097c-1.744,0.013 -2.911,-0.868 -2.824,-2.287c0.062,-1.003 1.224,-2.227 2.214,-2.818c1.491,-0.888 3.263,-1.311 5.075,-1.992" style="fill:#fbfbfb;fill-rule:nonzero;"/><path d="M314.8,321.537c3.558,-0.421 5.552,3.212 5.826,7.169c0.239,3.461 -2.191,6.261 -5.178,6.272c-3.037,0.011 -5.617,-3.486 -5.759,-7.494c-0.118,-3.301 2.672,-6.435 5.111,-5.947" style="fill:#fbfbfb;fill-rule:nonzero;"/><path d="M436.412,308.347c-0.443,3.756 -2.293,6.123 -5.258,6.332c-2.711,0.191 -5.532,-2.989 -5.857,-6.605c-0.304,-3.38 0.853,-5.47 3.592,-6.657c2.273,-0.984 4.174,-0.077 5.375,1.615c1.076,1.516 1.459,3.524 2.148,5.315" style="fill:#fbfbfb;fill-rule:nonzero;"/><path d="M495.713,385.518c0.016,-4.075 1.792,-6.512 4.962,-6.81c4.224,-0.396 6.429,1.367 7.31,5.842c1.094,5.546 0.406,7.106 -3.571,9.65c-2.657,1.699 -4.585,0.239 -5.923,-1.481c-1.545,-1.985 -2.375,-4.525 -3.515,-6.825c0.246,-0.125 0.491,-0.25 0.737,-0.376" style="fill:#fbfbfb;fill-rule:nonzero;"/><path d="M301.729,419.987c-0.014,-4.682 1.681,-6.819 5.215,-7.133c4.026,-0.357 6.466,1.585 7.07,5.821c0.237,1.661 0.263,3.374 0.18,5.052c-0.183,3.712 -3.537,5.196 -6.251,4.953c-2.797,-0.249 -5.389,-2.728 -5.915,-5.906c-0.183,-1.1 -0.239,-2.221 -0.298,-2.787" style="fill:#fbfbfb;fill-rule:nonzero;"/><path d="M303.71,429.423c-0.056,0.06 -0.103,0.109 -0.149,0.16c-0.049,-0.098 -0.115,-0.193 -0.137,-0.297c-0.009,-0.038 0.084,-0.098 0.131,-0.148c0.052,0.096 0.104,0.192 0.155,0.285" style="fill:#fefefe;fill-rule:nonzero;"/><path d="M567.878,381.613c-0.168,0.071 -0.335,0.144 -0.502,0.216l-1.248,1.128c-6.999,0.108 -10.856,-6.442 -7.583,-12.712c1.442,-2.763 6.928,-4.106 9.565,-0.18l0.701,0.785c0.444,2.531 0.888,5.061 1.333,7.592c-0.25,0.415 -0.501,0.829 -0.752,1.243c-0.195,0.37 -0.389,0.741 -0.584,1.11c-0.31,0.272 -0.62,0.546 -0.93,0.818" style="fill:#fbfbfb;fill-rule:nonzero;"/><path d="M566.128,382.957l1.248,-1.128l-1.248,1.128Z" style="fill:#454243;fill-rule:nonzero;"/><path d="M569.392,379.686c0.251,-0.414 0.502,-0.828 0.752,-1.243c-0.25,0.413 -0.501,0.829 -0.752,1.243" style="fill:#454243;fill-rule:nonzero;"/><path d="M567.878,381.613c0.31,-0.272 0.62,-0.546 0.93,-0.818c-0.31,0.272 -0.62,0.546 -0.93,0.818" style="fill:#454243;fill-rule:nonzero;"/><path d="M568.81,370.851l-0.7,-0.785l0.7,0.785Z" style="fill:#454243;fill-rule:nonzero;"/><path d="M380.837,406.528c-4.718,0.792 -8.464,1.421 -12.398,2.081c-0.761,-2.403 0.128,-4.528 1.815,-6.084c2.007,-1.85 4.625,-2.424 6.944,-0.622c1.382,1.074 2.25,2.809 3.639,4.625" style="fill:#fbfbfb;fill-rule:nonzero;"/><path d="M314.271,372.435c-0.619,-3.747 0.891,-6.39 4.053,-7.398c2.663,-0.851 6.071,0.943 7.175,3.969c0.165,0.452 -0.549,1.735 -1.013,1.824c-3.333,0.645 -6.706,1.081 -10.215,1.605" style="fill:#fbfbfb;fill-rule:nonzero;"/><path d="M329.387,424.985c-4.093,0.705 -7.218,-5.057 -7.222,-8.584c-0.004,-3.727 2.841,-7.511 6.503,-7.554c3.873,-0.046 7.045,4.628 7.277,8.716c0.19,3.35 -3.113,8.018 -6.558,7.422" style="fill:#fbfbfb;fill-rule:nonzero;"/></g></g></svg>